<?xml version="1.0" encoding="UTF-8" standalone="no"?>
<!DOCTYPE svg PUBLIC "-//W3C//DTD SVG 1.1//EN"
 "http://www.w3.org/Graphics/SVG/1.1/DTD/svg11.dtd">
<!-- Generated by graphviz version 2.43.0 (0)
 -->
<!-- Title: /ginan/src/cpp/orbprop/acceleration.hpp Pages: 1 -->
<svg width="812pt" height="106pt"
 viewBox="0.00 0.00 811.50 106.00" xmlns="http://www.w3.org/2000/svg" xmlns:xlink="http://www.w3.org/1999/xlink">
<g id="graph0" class="graph" transform="scale(1 1) rotate(0) translate(4 102)">
<title>/ginan/src/cpp/orbprop/acceleration.hpp</title>
<polygon fill="white" stroke="transparent" points="-4,4 -4,-102 807.5,-102 807.5,4 -4,4"/>
<!-- Node1 -->
<g id="node1" class="node">
<title>Node1</title>
<g id="a_node1"><a xlink:title=" ">
<polygon fill="#bfbfbf" stroke="black" points="324.5,-67.5 324.5,-97.5 449.5,-97.5 449.5,-67.5 324.5,-67.5"/>
<text text-anchor="start" x="332.5" y="-85.5" font-family="Helvetica,sans-Serif" font-size="10.00">/ginan/src/cpp/orbprop</text>
<text text-anchor="middle" x="387" y="-74.5" font-family="Helvetica,sans-Serif" font-size="10.00">/acceleration.hpp</text>
</a>
</g>
</g>
<!-- Node2 -->
<g id="node2" class="node">
<title>Node2</title>
<g id="a_node2"><a xlink:href="posProp_8cpp.html" target="_top" xlink:title=" ">
<polygon fill="white" stroke="black" points="0,-0.5 0,-30.5 122,-30.5 122,-0.5 0,-0.5"/>
<text text-anchor="start" x="8" y="-18.5" font-family="Helvetica,sans-Serif" font-size="10.00">/ginan/src/cpp/inertial</text>
<text text-anchor="middle" x="61" y="-7.5" font-family="Helvetica,sans-Serif" font-size="10.00">/posProp.cpp</text>
</a>
</g>
</g>
<!-- Node1&#45;&gt;Node2 -->
<g id="edge1" class="edge">
<title>Node1&#45;&gt;Node2</title>
<path fill="none" stroke="midnightblue" d="M314.38,-67.36C263.11,-57.34 192.82,-43.5 131,-31 128.08,-30.41 125.09,-29.8 122.08,-29.19"/>
<polygon fill="midnightblue" stroke="midnightblue" points="313.88,-70.83 324.37,-69.32 315.23,-63.96 313.88,-70.83"/>
</g>
<!-- Node3 -->
<g id="node3" class="node">
<title>Node3</title>
<g id="a_node3"><a xlink:href="geomagField_8cpp.html" target="_top" xlink:title=" ">
<polygon fill="white" stroke="black" points="140,-0.5 140,-30.5 248,-30.5 248,-0.5 140,-0.5"/>
<text text-anchor="start" x="148" y="-18.5" font-family="Helvetica,sans-Serif" font-size="10.00">/ginan/src/cpp/iono</text>
<text text-anchor="middle" x="194" y="-7.5" font-family="Helvetica,sans-Serif" font-size="10.00">/geomagField.cpp</text>
</a>
</g>
</g>
<!-- Node1&#45;&gt;Node3 -->
<g id="edge2" class="edge">
<title>Node1&#45;&gt;Node3</title>
<path fill="none" stroke="midnightblue" d="M335.31,-64.09C304.16,-53.6 264.99,-40.41 235.8,-30.58"/>
<polygon fill="midnightblue" stroke="midnightblue" points="334.53,-67.52 345.12,-67.4 336.76,-60.89 334.53,-67.52"/>
</g>
<!-- Node4 -->
<g id="node4" class="node">
<title>Node4</title>
<g id="a_node4"><a xlink:href="ionoSpherical_8cpp.html" target="_top" xlink:title=" ">
<polygon fill="white" stroke="black" points="266,-0.5 266,-30.5 374,-30.5 374,-0.5 266,-0.5"/>
<text text-anchor="start" x="274" y="-18.5" font-family="Helvetica,sans-Serif" font-size="10.00">/ginan/src/cpp/iono</text>
<text text-anchor="middle" x="320" y="-7.5" font-family="Helvetica,sans-Serif" font-size="10.00">/ionoSpherical.cpp</text>
</a>
</g>
</g>
<!-- Node1&#45;&gt;Node4 -->
<g id="edge3" class="edge">
<title>Node1&#45;&gt;Node4</title>
<path fill="none" stroke="midnightblue" d="M365.16,-60.31C355.11,-50.56 343.46,-39.26 334.51,-30.58"/>
<polygon fill="midnightblue" stroke="midnightblue" points="362.85,-62.94 372.46,-67.4 367.72,-57.92 362.85,-62.94"/>
</g>
<!-- Node5 -->
<g id="node5" class="node">
<title>Node5</title>
<g id="a_node5"><a xlink:href="acceleration_8cpp.html" target="_top" xlink:title=" ">
<polygon fill="white" stroke="black" points="392.5,-0.5 392.5,-30.5 517.5,-30.5 517.5,-0.5 392.5,-0.5"/>
<text text-anchor="start" x="400.5" y="-18.5" font-family="Helvetica,sans-Serif" font-size="10.00">/ginan/src/cpp/orbprop</text>
<text text-anchor="middle" x="455" y="-7.5" font-family="Helvetica,sans-Serif" font-size="10.00">/acceleration.cpp</text>
</a>
</g>
</g>
<!-- Node1&#45;&gt;Node5 -->
<g id="edge4" class="edge">
<title>Node1&#45;&gt;Node5</title>
<path fill="none" stroke="midnightblue" d="M409.17,-60.31C419.37,-50.56 431.19,-39.26 440.27,-30.58"/>
<polygon fill="midnightblue" stroke="midnightblue" points="406.57,-57.96 401.75,-67.4 411.4,-63.02 406.57,-57.96"/>
</g>
<!-- Node6 -->
<g id="node6" class="node">
<title>Node6</title>
<g id="a_node6"><a xlink:href="iers2010_8cpp.html" target="_top" xlink:title=" ">
<polygon fill="white" stroke="black" points="535.5,-0.5 535.5,-30.5 660.5,-30.5 660.5,-0.5 535.5,-0.5"/>
<text text-anchor="start" x="543.5" y="-18.5" font-family="Helvetica,sans-Serif" font-size="10.00">/ginan/src/cpp/orbprop</text>
<text text-anchor="middle" x="598" y="-7.5" font-family="Helvetica,sans-Serif" font-size="10.00">/iers2010.cpp</text>
</a>
</g>
</g>
<!-- Node1&#45;&gt;Node6 -->
<g id="edge5" class="edge">
<title>Node1&#45;&gt;Node6</title>
<path fill="none" stroke="midnightblue" d="M442.37,-64.44C476.57,-53.91 519.93,-40.55 552.19,-30.61"/>
<polygon fill="midnightblue" stroke="midnightblue" points="441.05,-61.19 432.52,-67.48 443.11,-67.88 441.05,-61.19"/>
</g>
<!-- Node7 -->
<g id="node7" class="node">
<title>Node7</title>
<g id="a_node7"><a xlink:href="orbitProp_8cpp.html" target="_top" xlink:title=" ">
<polygon fill="white" stroke="black" points="678.5,-0.5 678.5,-30.5 803.5,-30.5 803.5,-0.5 678.5,-0.5"/>
<text text-anchor="start" x="686.5" y="-18.5" font-family="Helvetica,sans-Serif" font-size="10.00">/ginan/src/cpp/orbprop</text>
<text text-anchor="middle" x="741" y="-7.5" font-family="Helvetica,sans-Serif" font-size="10.00">/orbitProp.cpp</text>
</a>
</g>
</g>
<!-- Node1&#45;&gt;Node7 -->
<g id="edge6" class="edge">
<title>Node1&#45;&gt;Node7</title>
<path fill="none" stroke="midnightblue" d="M459.78,-69.03C517,-59.09 598.67,-44.65 670,-31 672.72,-30.48 675.49,-29.94 678.3,-29.39"/>
<polygon fill="midnightblue" stroke="midnightblue" points="459,-65.61 449.75,-70.76 460.2,-72.5 459,-65.61"/>
</g>
</g>
</svg>
