<?xml version="1.0" encoding="UTF-8" standalone="no"?>
<!DOCTYPE svg PUBLIC "-//W3C//DTD SVG 1.1//EN"
 "http://www.w3.org/Graphics/SVG/1.1/DTD/svg11.dtd">
<!-- Generated by graphviz version 2.43.0 (0)
 -->
<!-- Title: addAvailableOptions Pages: 1 -->
<svg width="407pt" height="94pt"
 viewBox="0.00 0.00 407.00 94.00" xmlns="http://www.w3.org/2000/svg" xmlns:xlink="http://www.w3.org/1999/xlink">
<g id="graph0" class="graph" transform="scale(1 1) rotate(0) translate(4 90)">
<title>addAvailableOptions</title>
<polygon fill="white" stroke="transparent" points="-4,4 -4,-90 403,-90 403,4 -4,4"/>
<!-- Node1 -->
<g id="node1" class="node">
<title>Node1</title>
<g id="a_node1"><a xlink:title=" ">
<polygon fill="#bfbfbf" stroke="black" points="282,-28.5 282,-47.5 399,-47.5 399,-28.5 282,-28.5"/>
<text text-anchor="middle" x="340.5" y="-35.5" font-family="Helvetica,sans-Serif" font-size="10.00">addAvailableOptions</text>
</a>
</g>
</g>
<!-- Node1&#45;&gt;Node1 -->
<g id="edge1" class="edge">
<title>Node1&#45;&gt;Node1</title>
<path fill="none" stroke="midnightblue" d="M368.87,-56.65C367.69,-61.94 358.23,-66 340.5,-66 313.48,-66 305.68,-56.57 317.07,-47.76"/>
<polygon fill="midnightblue" stroke="midnightblue" points="371.84,-54.8 363.93,-47.76 365.73,-58.2 371.84,-54.8"/>
</g>
<!-- Node2 -->
<g id="node2" class="node">
<title>Node2</title>
<g id="a_node2"><a xlink:href="acsConfig_8cpp.html#aaeb305db9559c585125ced693d9360d1" target="_top" xlink:title="Get an object within a hierarchy of yaml structure using a vector of nodes.">
<polygon fill="white" stroke="red" points="131,-66.5 131,-85.5 246,-85.5 246,-66.5 131,-66.5"/>
<text text-anchor="middle" x="188.5" y="-73.5" font-family="Helvetica,sans-Serif" font-size="10.00">stringsToYamlObject</text>
</a>
</g>
</g>
<!-- Node1&#45;&gt;Node2 -->
<g id="edge2" class="edge">
<title>Node1&#45;&gt;Node2</title>
<path fill="none" stroke="midnightblue" d="M291.69,-50.11C270.8,-55.4 246.65,-61.52 227.08,-66.48"/>
<polygon fill="midnightblue" stroke="midnightblue" points="292.81,-53.44 301.65,-47.59 291.1,-46.65 292.81,-53.44"/>
</g>
<!-- Node3 -->
<g id="node3" class="node">
<title>Node3</title>
<g id="a_node3"><a xlink:href="acsConfig_8cpp.html#a5e7bdb984a957f6949a0b1d49e3f6538" target="_top" xlink:title="Set an output from yaml object if found.">
<polygon fill="white" stroke="red" points="0,-47.5 0,-66.5 95,-66.5 95,-47.5 0,-47.5"/>
<text text-anchor="middle" x="47.5" y="-54.5" font-family="Helvetica,sans-Serif" font-size="10.00">tryGetFromYaml</text>
</a>
</g>
</g>
<!-- Node1&#45;&gt;Node3 -->
<g id="edge5" class="edge">
<title>Node1&#45;&gt;Node3</title>
<path fill="none" stroke="midnightblue" d="M271.45,-42.44C217.26,-45.98 142.84,-50.84 95.2,-53.95"/>
<polygon fill="midnightblue" stroke="midnightblue" points="271.91,-45.92 281.66,-41.78 271.45,-38.94 271.91,-45.92"/>
</g>
<!-- Node133 -->
<g id="node4" class="node">
<title>Node133</title>
<g id="a_node4"><a xlink:href="acsConfig_8cpp.html#aaf018a36c1eb75f5745d21e53d528732" target="_top" xlink:title="Set an enum from yaml, decoding strings to ints.">
<polygon fill="white" stroke="red" points="1.5,-0.5 1.5,-19.5 93.5,-19.5 93.5,-0.5 1.5,-0.5"/>
<text text-anchor="middle" x="47.5" y="-7.5" font-family="Helvetica,sans-Serif" font-size="10.00">tryGetEnumOpt</text>
</a>
</g>
</g>
<!-- Node1&#45;&gt;Node133 -->
<g id="edge6" class="edge">
<title>Node1&#45;&gt;Node133</title>
<path fill="none" stroke="midnightblue" d="M271.69,-31.48C216.96,-26.21 141.47,-18.95 93.83,-14.36"/>
<polygon fill="midnightblue" stroke="midnightblue" points="271.37,-34.96 281.66,-32.43 272.04,-27.99 271.37,-34.96"/>
</g>
<!-- Node2&#45;&gt;Node3 -->
<g id="edge3" class="edge">
<title>Node2&#45;&gt;Node3</title>
<path fill="none" stroke="midnightblue" d="M120.85,-66.89C112.19,-65.71 103.46,-64.51 95.22,-63.39"/>
<polygon fill="midnightblue" stroke="midnightblue" points="120.58,-70.39 130.96,-68.27 121.53,-63.45 120.58,-70.39"/>
</g>
<!-- Node2&#45;&gt;Node133 -->
<g id="edge4" class="edge">
<title>Node2&#45;&gt;Node133</title>
<path fill="none" stroke="midnightblue" d="M157.99,-61.99C131.14,-49.24 92.22,-30.76 68.74,-19.61"/>
<polygon fill="midnightblue" stroke="midnightblue" points="156.75,-65.28 167.29,-66.4 159.76,-58.95 156.75,-65.28"/>
</g>
</g>
</svg>
