<?xml version="1.0" encoding="UTF-8" standalone="no"?>
<!DOCTYPE svg PUBLIC "-//W3C//DTD SVG 1.1//EN"
 "http://www.w3.org/Graphics/SVG/1.1/DTD/svg11.dtd">
<!-- Generated by graphviz version 2.43.0 (0)
 -->
<!-- Title: tryGetFromAny Pages: 1 -->
<svg width="230pt" height="66pt"
 viewBox="0.00 0.00 230.00 66.00" xmlns="http://www.w3.org/2000/svg" xmlns:xlink="http://www.w3.org/1999/xlink">
<g id="graph0" class="graph" transform="scale(1 1) rotate(0) translate(4 62)">
<title>tryGetFromAny</title>
<polygon fill="white" stroke="transparent" points="-4,4 -4,-62 226,-62 226,4 -4,4"/>
<!-- Node1 -->
<g id="node1" class="node">
<title>Node1</title>
<g id="a_node1"><a xlink:title="Set an output from any config source if found.">
<polygon fill="#bfbfbf" stroke="black" points="0,-19.5 0,-38.5 91,-38.5 91,-19.5 0,-19.5"/>
<text text-anchor="middle" x="45.5" y="-26.5" font-family="Helvetica,sans-Serif" font-size="10.00">tryGetFromAny</text>
</a>
</g>
</g>
<!-- Node2 -->
<g id="node2" class="node">
<title>Node2</title>
<g id="a_node2"><a xlink:href="acsConfig_8cpp.html#a5e7bdb984a957f6949a0b1d49e3f6538" target="_top" xlink:title="Set an output from yaml object if found.">
<polygon fill="white" stroke="red" points="127,-38.5 127,-57.5 222,-57.5 222,-38.5 127,-38.5"/>
<text text-anchor="middle" x="174.5" y="-45.5" font-family="Helvetica,sans-Serif" font-size="10.00">tryGetFromYaml</text>
</a>
</g>
</g>
<!-- Node1&#45;&gt;Node2 -->
<g id="edge1" class="edge">
<title>Node1&#45;&gt;Node2</title>
<path fill="none" stroke="midnightblue" d="M91.28,-35.7C99.59,-36.94 108.38,-38.26 116.99,-39.55"/>
<polygon fill="midnightblue" stroke="midnightblue" points="116.57,-43.02 126.98,-41.04 117.61,-36.1 116.57,-43.02"/>
</g>
<!-- Node7 -->
<g id="node3" class="node">
<title>Node7</title>
<g id="a_node3"><a xlink:href="acsConfig_8cpp.html#a0fcf1c83ce70ba46187369e55c85d67a" target="_top" xlink:title="Set an output from command line options if found.">
<polygon fill="white" stroke="red" points="127,-0.5 127,-19.5 222,-19.5 222,-0.5 127,-0.5"/>
<text text-anchor="middle" x="174.5" y="-7.5" font-family="Helvetica,sans-Serif" font-size="10.00">tryGetFromOpts</text>
</a>
</g>
</g>
<!-- Node1&#45;&gt;Node7 -->
<g id="edge2" class="edge">
<title>Node1&#45;&gt;Node7</title>
<path fill="none" stroke="midnightblue" d="M91.28,-22.3C99.59,-21.06 108.38,-19.74 116.99,-18.45"/>
<polygon fill="midnightblue" stroke="midnightblue" points="117.61,-21.9 126.98,-16.96 116.57,-14.98 117.61,-21.9"/>
</g>
</g>
</svg>
