<?xml version="1.0" encoding="UTF-8" standalone="no"?>
<!DOCTYPE svg PUBLIC "-//W3C//DTD SVG 1.1//EN"
 "http://www.w3.org/Graphics/SVG/1.1/DTD/svg11.dtd">
<!-- Generated by graphviz version 2.43.0 (0)
 -->
<!-- Title: configure Pages: 1 -->
<svg width="695pt" height="754pt"
 viewBox="0.00 0.00 695.00 754.00" xmlns="http://www.w3.org/2000/svg" xmlns:xlink="http://www.w3.org/1999/xlink">
<g id="graph0" class="graph" transform="scale(1 1) rotate(0) translate(4 750)">
<title>configure</title>
<polygon fill="white" stroke="transparent" points="-4,4 -4,-750 691,-750 691,4 -4,4"/>
<!-- Node1 -->
<g id="node1" class="node">
<title>Node1</title>
<g id="a_node1"><a xlink:title="Prepare the configuration of the program.">
<polygon fill="#bfbfbf" stroke="black" points="0,-219.5 0,-238.5 62,-238.5 62,-219.5 0,-219.5"/>
<text text-anchor="middle" x="31" y="-226.5" font-family="Helvetica,sans-Serif" font-size="10.00">configure</text>
</a>
</g>
</g>
<!-- Node2 -->
<g id="node2" class="node">
<title>Node2</title>
<g id="a_node2"><a xlink:href="structACSConfig.html#a7956bea37dde8338349a7a2971c530e6" target="_top" xlink:title="Parse options to set acsConfig values.">
<polygon fill="white" stroke="black" points="98,-372.5 98,-391.5 199,-391.5 199,-372.5 98,-372.5"/>
<text text-anchor="middle" x="148.5" y="-379.5" font-family="Helvetica,sans-Serif" font-size="10.00">ACSConfig::parse</text>
</a>
</g>
</g>
<!-- Node1&#45;&gt;Node2 -->
<g id="edge1" class="edge">
<title>Node1&#45;&gt;Node2</title>
<path fill="none" stroke="midnightblue" d="M37.99,-238.64C49.14,-256.41 74.13,-295.28 98,-326 111.22,-343.01 128.11,-361.5 138.35,-372.41"/>
</g>
<!-- Node3 -->
<g id="node3" class="node">
<title>Node3</title>
<g id="a_node3"><a xlink:href="structACSConfig.html#abfdda0f4ad8ee782bf0e2e0088ade882" target="_top" xlink:title="Print out the configuration data that has been read in.">
<polygon fill="white" stroke="black" points="269.5,-726.5 269.5,-745.5 361.5,-745.5 361.5,-726.5 269.5,-726.5"/>
<text text-anchor="middle" x="315.5" y="-733.5" font-family="Helvetica,sans-Serif" font-size="10.00">ACSConfig::info</text>
</a>
</g>
</g>
<!-- Node1&#45;&gt;Node3 -->
<g id="edge34" class="edge">
<title>Node1&#45;&gt;Node3</title>
<path fill="none" stroke="midnightblue" d="M52.56,-238.61C89.22,-256.96 165.18,-300.79 199,-363 236.77,-432.47 182.93,-657.49 235,-717 243.69,-726.93 256.56,-732.16 269.42,-734.78"/>
</g>
<!-- Node35 -->
<g id="node21" class="node">
<title>Node35</title>
<g id="a_node21"><a xlink:href="acsConfig_8cpp.html#a730af658b2d0567252d8a37b3982f2f3" target="_top" xlink:title=" ">
<polygon fill="white" stroke="black" points="102.5,-200.5 102.5,-219.5 194.5,-219.5 194.5,-200.5 102.5,-200.5"/>
<text text-anchor="middle" x="148.5" y="-207.5" font-family="Helvetica,sans-Serif" font-size="10.00">checkValidFiles</text>
</a>
</g>
</g>
<!-- Node1&#45;&gt;Node35 -->
<g id="edge35" class="edge">
<title>Node1&#45;&gt;Node35</title>
<path fill="none" stroke="midnightblue" d="M62.04,-224.06C74.34,-222.03 88.84,-219.65 102.36,-217.42"/>
</g>
<!-- Node36 -->
<g id="node22" class="node">
<title>Node36</title>
<g id="a_node22"><a xlink:href="acsConfig_8cpp.html#aa470c1c369d2c030cdd6bd250a1ed375" target="_top" xlink:title="Check that filename is valid and the file exists.">
<polygon fill="white" stroke="black" points="272.5,-0.5 272.5,-19.5 358.5,-19.5 358.5,-0.5 272.5,-0.5"/>
<text text-anchor="middle" x="315.5" y="-7.5" font-family="Helvetica,sans-Serif" font-size="10.00">checkValidFile</text>
</a>
</g>
</g>
<!-- Node1&#45;&gt;Node36 -->
<g id="edge37" class="edge">
<title>Node1&#45;&gt;Node36</title>
<path fill="none" stroke="midnightblue" d="M38.79,-219.22C62.02,-186.59 141.97,-80.58 235,-29 246.42,-22.67 259.9,-18.43 272.48,-15.61"/>
</g>
<!-- Node2&#45;&gt;Node3 -->
<g id="edge2" class="edge">
<title>Node2&#45;&gt;Node3</title>
<path fill="none" stroke="midnightblue" d="M150.63,-391.75C156.65,-441.77 186.35,-669.09 235,-717 244.2,-726.06 256.91,-731.08 269.46,-733.79"/>
</g>
<!-- Node4 -->
<g id="node4" class="node">
<title>Node4</title>
<g id="a_node4"><a xlink:href="structOutputOptions.html#a4390b9c7539ce43211a7c8644c987ad3" target="_top" xlink:title=" ">
<polygon fill="white" stroke="black" points="235,-677 235,-707 396,-707 396,-677 235,-677"/>
<text text-anchor="start" x="243" y="-695" font-family="Helvetica,sans-Serif" font-size="10.00">OutputOptions::defaultOutput</text>
<text text-anchor="middle" x="315.5" y="-684" font-family="Helvetica,sans-Serif" font-size="10.00">Options</text>
</a>
</g>
</g>
<!-- Node2&#45;&gt;Node4 -->
<g id="edge3" class="edge">
<title>Node2&#45;&gt;Node4</title>
<path fill="none" stroke="midnightblue" d="M149.55,-391.67C150.27,-430.92 158.17,-580.05 235,-662 240.75,-668.13 247.88,-673.02 255.49,-676.92"/>
</g>
<!-- Node5 -->
<g id="node5" class="node">
<title>Node5</title>
<g id="a_node5"><a xlink:href="acsConfig_8cpp.html#a5d035c64332701c7ae41cbd84a93c379" target="_top" xlink:title="Get an object within a hierarchy of yaml structure using a vector of nodes.">
<polygon fill="white" stroke="red" points="572,-471.5 572,-490.5 687,-490.5 687,-471.5 572,-471.5"/>
<text text-anchor="middle" x="629.5" y="-478.5" font-family="Helvetica,sans-Serif" font-size="10.00">stringsToYamlObject</text>
</a>
</g>
</g>
<!-- Node2&#45;&gt;Node5 -->
<g id="edge4" class="edge">
<title>Node2&#45;&gt;Node5</title>
<path fill="none" stroke="midnightblue" d="M149.43,-391.71C149.74,-429.03 156.43,-563.82 235,-619 368.3,-712.62 571.25,-535.07 618.45,-490.7"/>
</g>
<!-- Node7 -->
<g id="node6" class="node">
<title>Node7</title>
<g id="a_node6"><a xlink:href="acsConfig_8cpp.html#a555e819507c7608d463fedb0616a95ff" target="_top" xlink:title="Set an output from yaml object if found.">
<polygon fill="white" stroke="red" points="437,-433.5 437,-452.5 531,-452.5 531,-433.5 437,-433.5"/>
<text text-anchor="middle" x="484" y="-440.5" font-family="Helvetica,sans-Serif" font-size="10.00">trySetFromYaml</text>
</a>
</g>
</g>
<!-- Node2&#45;&gt;Node7 -->
<g id="edge5" class="edge">
<title>Node2&#45;&gt;Node7</title>
<path fill="none" stroke="midnightblue" d="M149.93,-391.77C152.05,-426.38 164.37,-543.58 235,-591 294.41,-630.88 333.89,-626.53 396,-591 450.33,-559.92 474.07,-480.24 480.84,-452.61"/>
</g>
<!-- Node9 -->
<g id="node7" class="node">
<title>Node9</title>
<g id="a_node7"><a xlink:href="acsConfig_8cpp.html#af81d84a18cd276fe9dd3d51533855022" target="_top" xlink:title="Set an output from any config source if found.">
<polygon fill="white" stroke="red" points="271,-562.5 271,-581.5 360,-581.5 360,-562.5 271,-562.5"/>
<text text-anchor="middle" x="315.5" y="-569.5" font-family="Helvetica,sans-Serif" font-size="10.00">trySetFromAny</text>
</a>
</g>
</g>
<!-- Node2&#45;&gt;Node9 -->
<g id="edge7" class="edge">
<title>Node2&#45;&gt;Node9</title>
<path fill="none" stroke="midnightblue" d="M151.32,-391.54C157.42,-420.69 179.88,-509.26 235,-553 245.11,-561.03 258.08,-565.75 270.6,-568.5"/>
</g>
<!-- Node11 -->
<g id="node8" class="node">
<title>Node11</title>
<g id="a_node8"><a xlink:href="acsConfig_8cpp.html#a2fd3f7ff4dc1def562096724f003c42d" target="_top" xlink:title="Set and scale a variable according to yaml options.">
<polygon fill="white" stroke="black" points="252.5,-524.5 252.5,-543.5 378.5,-543.5 378.5,-524.5 252.5,-524.5"/>
<text text-anchor="middle" x="315.5" y="-531.5" font-family="Helvetica,sans-Serif" font-size="10.00">trySetScaledFromYaml</text>
</a>
</g>
</g>
<!-- Node2&#45;&gt;Node11 -->
<g id="edge9" class="edge">
<title>Node2&#45;&gt;Node11</title>
<path fill="none" stroke="midnightblue" d="M153.23,-391.68C162.91,-415.54 191.19,-477.55 235,-510 243.57,-516.35 253.83,-521.03 264.09,-524.49"/>
</g>
<!-- Node12 -->
<g id="node9" class="node">
<title>Node12</title>
<g id="a_node9"><a xlink:href="acsConfig_8cpp.html#afab657b38e8402e86a8daef8a8f7d09f" target="_top" xlink:title="Set an enum from yaml, decoding strings to ints.">
<polygon fill="white" stroke="red" points="438.5,-395.5 438.5,-414.5 529.5,-414.5 529.5,-395.5 438.5,-395.5"/>
<text text-anchor="middle" x="484" y="-402.5" font-family="Helvetica,sans-Serif" font-size="10.00">trySetEnumOpt</text>
</a>
</g>
</g>
<!-- Node2&#45;&gt;Node12 -->
<g id="edge13" class="edge">
<title>Node2&#45;&gt;Node12</title>
<path fill="none" stroke="midnightblue" d="M154.99,-391.77C166.69,-411.43 196.18,-455.34 235,-472 300.75,-500.23 332,-504 396,-472 419.85,-460.07 410.64,-439.97 432,-424 437.07,-420.21 442.98,-417.1 448.94,-414.58"/>
</g>
<!-- Node13 -->
<g id="node10" class="node">
<title>Node13</title>
<g id="a_node10"><a xlink:href="acsConfig_8cpp.html#a2fb6a351dc0cac89305989af6ca205d5" target="_top" xlink:title="Replace macros for times with configured values.">
<polygon fill="white" stroke="red" points="447,-291.5 447,-310.5 521,-310.5 521,-291.5 447,-291.5"/>
<text text-anchor="middle" x="484" y="-298.5" font-family="Helvetica,sans-Serif" font-size="10.00">replaceTags</text>
</a>
</g>
</g>
<!-- Node2&#45;&gt;Node13 -->
<g id="edge14" class="edge">
<title>Node2&#45;&gt;Node13</title>
<path fill="none" stroke="midnightblue" d="M159.51,-391.63C174.48,-405.29 204.27,-429.69 235,-439 303.49,-459.74 337.46,-480.15 396,-439 434.65,-411.84 403.87,-376.94 432,-339 440.81,-327.11 454.37,-317.26 465.3,-310.57"/>
</g>
<!-- Node15 -->
<g id="node11" class="node">
<title>Node15</title>
<g id="a_node11"><a xlink:href="acsConfig_8cpp.html#a31d67942b68baf4b95c37a0789a6b362" target="_top" xlink:title="Set the variables associated with an output stream.">
<polygon fill="white" stroke="black" points="250,-410.5 250,-429.5 381,-429.5 381,-410.5 250,-410.5"/>
<text text-anchor="middle" x="315.5" y="-417.5" font-family="Helvetica,sans-Serif" font-size="10.00">tryGetStreamFromYaml</text>
</a>
</g>
</g>
<!-- Node2&#45;&gt;Node15 -->
<g id="edge15" class="edge">
<title>Node2&#45;&gt;Node15</title>
<path fill="none" stroke="midnightblue" d="M191.14,-391.59C216.24,-397.37 248.11,-404.71 273.16,-410.48"/>
</g>
<!-- Node16 -->
<g id="node12" class="node">
<title>Node16</title>
<g id="a_node12"><a xlink:href="acsConfig_8cpp.html#a731d437be3190f99f23f41d58f2cd8cd" target="_top" xlink:title="Add a root to paths that are not already absolutely defined.">
<polygon fill="white" stroke="black" points="432,-348.5 432,-367.5 536,-367.5 536,-348.5 432,-348.5"/>
<text text-anchor="middle" x="484" y="-355.5" font-family="Helvetica,sans-Serif" font-size="10.00">tryAddRootToPath</text>
</a>
</g>
</g>
<!-- Node2&#45;&gt;Node16 -->
<g id="edge18" class="edge">
<title>Node2&#45;&gt;Node16</title>
<path fill="none" stroke="midnightblue" d="M199.07,-378.43C261.58,-373.93 368.51,-366.24 431.79,-361.69"/>
</g>
<!-- Node17 -->
<g id="node13" class="node">
<title>Node17</title>
<g id="a_node13"><a xlink:href="acsConfig_8cpp.html#a080108da5f6c78aa8d0df4b715cf185e" target="_top" xlink:title="Set the variables associated with kalman filter states from yaml.">
<polygon fill="white" stroke="black" points="250,-334.5 250,-353.5 381,-353.5 381,-334.5 250,-334.5"/>
<text text-anchor="middle" x="315.5" y="-341.5" font-family="Helvetica,sans-Serif" font-size="10.00">trySetKalmanFromYaml</text>
</a>
</g>
</g>
<!-- Node2&#45;&gt;Node17 -->
<g id="edge19" class="edge">
<title>Node2&#45;&gt;Node17</title>
<path fill="none" stroke="midnightblue" d="M191.14,-372.41C216.24,-366.63 248.11,-359.29 273.16,-353.52"/>
</g>
<!-- Node18 -->
<g id="node14" class="node">
<title>Node18</title>
<g id="a_node14"><a xlink:href="acsConfig_8cpp.html#afadf60bfde1f0c5dda7d362c0804be3d" target="_top" xlink:title=" ">
<polygon fill="white" stroke="red" points="289,-296.5 289,-315.5 342,-315.5 342,-296.5 289,-296.5"/>
<text text-anchor="middle" x="315.5" y="-303.5" font-family="Helvetica,sans-Serif" font-size="10.00">globber</text>
</a>
</g>
</g>
<!-- Node2&#45;&gt;Node18 -->
<g id="edge23" class="edge">
<title>Node2&#45;&gt;Node18</title>
<path fill="none" stroke="midnightblue" d="M160.9,-372.46C176.6,-359.79 206.22,-337.55 235,-325 252.17,-317.51 272.77,-312.69 288.7,-309.78"/>
</g>
<!-- Node20 -->
<g id="node15" class="node">
<title>Node20</title>
<g id="a_node15"><a xlink:href="acsConfig_8cpp.html#a9cccd776b759705208f46b6277233311" target="_top" xlink:title=" ">
<polygon fill="white" stroke="black" points="273.5,-258.5 273.5,-277.5 357.5,-277.5 357.5,-258.5 273.5,-258.5"/>
<text text-anchor="middle" x="315.5" y="-265.5" font-family="Helvetica,sans-Serif" font-size="10.00">tryPatchPaths</text>
</a>
</g>
</g>
<!-- Node2&#45;&gt;Node20 -->
<g id="edge24" class="edge">
<title>Node2&#45;&gt;Node20</title>
<path fill="none" stroke="midnightblue" d="M155.23,-372.45C167.36,-353.1 197.61,-309.22 235,-287 246.59,-280.11 260.52,-275.72 273.47,-272.92"/>
</g>
<!-- Node21 -->
<g id="node16" class="node">
<title>Node21</title>
<g id="a_node16"><a xlink:href="structACSConfig.html#a9f893b7ab2412f42ef7a02423d755940" target="_top" xlink:title="Set satellite options for a specific satellite using a hierarchy of sources.">
<polygon fill="white" stroke="red" points="251.5,-220.5 251.5,-239.5 379.5,-239.5 379.5,-220.5 251.5,-220.5"/>
<text text-anchor="middle" x="315.5" y="-227.5" font-family="Helvetica,sans-Serif" font-size="10.00">ACSConfig::getSatOpts</text>
</a>
</g>
</g>
<!-- Node2&#45;&gt;Node21 -->
<g id="edge27" class="edge">
<title>Node2&#45;&gt;Node21</title>
<path fill="none" stroke="midnightblue" d="M152.86,-372.14C161.89,-347.26 189.1,-281.56 235,-249 240.44,-245.14 246.56,-242.06 252.93,-239.6"/>
</g>
<!-- Node29 -->
<g id="node17" class="node">
<title>Node29</title>
<g id="a_node17"><a xlink:href="structACSConfig.html#a7ddfbaf20a1c9181d73d0dabe92beace" target="_top" xlink:title="Set receiver options for a specific receiver using a hierarchy of sources.">
<polygon fill="white" stroke="red" points="250.5,-182.5 250.5,-201.5 380.5,-201.5 380.5,-182.5 250.5,-182.5"/>
<text text-anchor="middle" x="315.5" y="-189.5" font-family="Helvetica,sans-Serif" font-size="10.00">ACSConfig::getRecOpts</text>
</a>
</g>
</g>
<!-- Node2&#45;&gt;Node29 -->
<g id="edge28" class="edge">
<title>Node2&#45;&gt;Node29</title>
<path fill="none" stroke="midnightblue" d="M151.32,-372.46C157.42,-343.31 179.88,-254.74 235,-211 239.89,-207.12 245.45,-204.01 251.3,-201.52"/>
</g>
<!-- Node30 -->
<g id="node18" class="node">
<title>Node30</title>
<g id="a_node18"><a xlink:href="structACSConfig.html#a92bff361b02a9eb9de0296f29e7e1091" target="_top" xlink:title="Set minimum constraint options for a specific receiver using a hierarchy of sources.">
<polygon fill="white" stroke="black" points="241,-144.5 241,-163.5 390,-163.5 390,-144.5 241,-144.5"/>
<text text-anchor="middle" x="315.5" y="-151.5" font-family="Helvetica,sans-Serif" font-size="10.00">ACSConfig::getMinConOpts</text>
</a>
</g>
</g>
<!-- Node2&#45;&gt;Node30 -->
<g id="edge29" class="edge">
<title>Node2&#45;&gt;Node30</title>
<path fill="none" stroke="midnightblue" d="M152.15,-372.43C162.65,-335.24 202.26,-201.06 235,-173 239.53,-169.12 244.71,-166 250.2,-163.5"/>
</g>
<!-- Node31 -->
<g id="node19" class="node">
<title>Node31</title>
<g id="a_node19"><a xlink:href="structACSConfig.html#ad829bbeec8566a699e5dfefc7b8e6bd8" target="_top" xlink:title=" ">
<polygon fill="white" stroke="black" points="249,-88.5 249,-107.5 382,-107.5 382,-88.5 249,-88.5"/>
<text text-anchor="middle" x="315.5" y="-95.5" font-family="Helvetica,sans-Serif" font-size="10.00">ACSConfig::recurseYaml</text>
</a>
</g>
</g>
<!-- Node2&#45;&gt;Node31 -->
<g id="edge31" class="edge">
<title>Node2&#45;&gt;Node31</title>
<path fill="none" stroke="midnightblue" d="M152.58,-372.43C166.88,-328.1 226.45,-144.47 235,-135 246.63,-122.12 263.66,-113.37 278.99,-107.63"/>
</g>
<!-- Node32 -->
<g id="node20" class="node">
<title>Node32</title>
<g id="a_node20"><a xlink:href="structACSConfig.html#adac4596adc23c4983de95cb42618ba37" target="_top" xlink:title="Outputs default configuration and a configurator The default values, and descriptions of each paramet...">
<polygon fill="white" stroke="red" points="245,-39 245,-69 386,-69 386,-39 245,-39"/>
<text text-anchor="start" x="253" y="-57" font-family="Helvetica,sans-Serif" font-size="10.00">ACSConfig::outputDefault</text>
<text text-anchor="middle" x="315.5" y="-46" font-family="Helvetica,sans-Serif" font-size="10.00">Configuration</text>
</a>
</g>
</g>
<!-- Node2&#45;&gt;Node32 -->
<g id="edge33" class="edge">
<title>Node2&#45;&gt;Node32</title>
<path fill="none" stroke="midnightblue" d="M152.89,-372.41C161.3,-348.43 183.58,-283.82 199,-229 217.57,-163 188.23,-129.13 235,-79 238.55,-75.19 242.68,-71.96 247.15,-69.22"/>
</g>
<!-- Node7&#45;&gt;Node5 -->
<g id="edge6" class="edge">
<title>Node7&#45;&gt;Node5</title>
<path fill="none" stroke="midnightblue" d="M521.21,-452.59C542.96,-458.35 570.55,-465.65 592.3,-471.41"/>
</g>
<!-- Node9&#45;&gt;Node7 -->
<g id="edge8" class="edge">
<title>Node9&#45;&gt;Node7</title>
<path fill="none" stroke="midnightblue" d="M360.26,-566.97C372.5,-564.16 385.35,-559.8 396,-553 437.05,-526.8 467.06,-474.4 478.22,-452.73"/>
</g>
<!-- Node11&#45;&gt;Node7 -->
<g id="edge10" class="edge">
<title>Node11&#45;&gt;Node7</title>
<path fill="none" stroke="midnightblue" d="M358.46,-524.42C370.91,-520.76 384.33,-516 396,-510 426.86,-494.14 457.81,-466.97 473.13,-452.58"/>
</g>
<!-- Node11&#45;&gt;Node12 -->
<g id="edge11" class="edge">
<title>Node11&#45;&gt;Node12</title>
<path fill="none" stroke="midnightblue" d="M371.19,-524.49C380.23,-521.05 388.93,-516.37 396,-510 426.77,-482.25 402.12,-452.71 432,-424 436.02,-420.14 440.9,-417.05 446.02,-414.58"/>
</g>
<!-- Node12&#45;&gt;Node5 -->
<g id="edge12" class="edge">
<title>Node12&#45;&gt;Node5</title>
<path fill="none" stroke="midnightblue" d="M513.74,-414.59C521.12,-417.35 528.95,-420.56 536,-424 565.32,-438.32 597.26,-459.32 614.88,-471.43"/>
</g>
<!-- Node15&#45;&gt;Node5 -->
<g id="edge16" class="edge">
<title>Node15&#45;&gt;Node5</title>
<path fill="none" stroke="midnightblue" d="M326.59,-429.54C345.47,-446.67 388.21,-482.03 432,-495 487.26,-511.37 554.9,-500.12 594.69,-490.52"/>
</g>
<!-- Node15&#45;&gt;Node7 -->
<g id="edge17" class="edge">
<title>Node15&#45;&gt;Node7</title>
<path fill="none" stroke="midnightblue" d="M381.35,-428.96C399.89,-431.52 419.7,-434.26 436.87,-436.63"/>
</g>
<!-- Node17&#45;&gt;Node5 -->
<g id="edge20" class="edge">
<title>Node17&#45;&gt;Node5</title>
<path fill="none" stroke="midnightblue" d="M333.92,-353.58C351.19,-363.7 377.66,-380.95 396,-401 417.25,-424.23 405.45,-445.09 432,-462 473.34,-488.32 529.81,-491.17 571.61,-488.55"/>
</g>
<!-- Node17&#45;&gt;Node7 -->
<g id="edge21" class="edge">
<title>Node17&#45;&gt;Node7</title>
<path fill="none" stroke="midnightblue" d="M329.95,-353.6C358.06,-373.61 421.3,-418.41 432,-424 438.78,-427.54 446.38,-430.75 453.6,-433.47"/>
</g>
<!-- Node17&#45;&gt;Node12 -->
<g id="edge22" class="edge">
<title>Node17&#45;&gt;Node12</title>
<path fill="none" stroke="midnightblue" d="M342.52,-353.53C373.7,-364.96 425.66,-383.99 456.89,-395.44"/>
</g>
<!-- Node20&#45;&gt;Node13 -->
<g id="edge26" class="edge">
<title>Node20&#45;&gt;Node13</title>
<path fill="none" stroke="midnightblue" d="M357.66,-276.16C385.01,-281.58 420.58,-288.63 446.84,-293.83"/>
</g>
<!-- Node20&#45;&gt;Node16 -->
<g id="edge25" class="edge">
<title>Node20&#45;&gt;Node16</title>
<path fill="none" stroke="midnightblue" d="M357.56,-273.68C370.37,-276.52 384.22,-280.74 396,-287 415.17,-297.18 415.28,-306.16 432,-320 444.25,-330.14 458.86,-340.89 469.29,-348.36"/>
</g>
<!-- Node30&#45;&gt;Node7 -->
<g id="edge30" class="edge">
<title>Node30&#45;&gt;Node7</title>
<path fill="none" stroke="midnightblue" d="M384.1,-163.61C388.51,-166.14 392.56,-169.23 396,-173 471.93,-256.27 361.28,-336.25 432,-424 435.08,-427.83 439.02,-430.88 443.33,-433.32"/>
</g>
<!-- Node31&#45;&gt;Node31 -->
<g id="edge32" class="edge">
<title>Node31&#45;&gt;Node31</title>
<path fill="none" stroke="midnightblue" d="M289.91,-107.76C277.47,-116.57 286,-126 315.5,-126 345,-126 353.53,-116.57 341.09,-107.76"/>
</g>
<!-- Node35&#45;&gt;Node36 -->
<g id="edge36" class="edge">
<title>Node35&#45;&gt;Node36</title>
<path fill="none" stroke="midnightblue" d="M151.06,-200.35C156.51,-169.98 177.54,-75.66 235,-29 245.47,-20.5 259.11,-15.69 272.14,-13.01"/>
</g>
</g>
</svg>
