<?xml version="1.0" encoding="UTF-8" standalone="no"?>
<!DOCTYPE svg PUBLIC "-//W3C//DTD SVG 1.1//EN"
 "http://www.w3.org/Graphics/SVG/1.1/DTD/svg11.dtd">
<!-- Generated by graphviz version 2.43.0 (0)
 -->
<!-- Title: tryGetFromOpts Pages: 1 -->
<svg width="243pt" height="104pt"
 viewBox="0.00 0.00 243.00 104.00" xmlns="http://www.w3.org/2000/svg" xmlns:xlink="http://www.w3.org/1999/xlink">
<g id="graph0" class="graph" transform="scale(1 1) rotate(0) translate(4 100)">
<title>tryGetFromOpts</title>
<polygon fill="white" stroke="transparent" points="-4,4 -4,-100 239,-100 239,4 -4,4"/>
<!-- Node1 -->
<g id="node1" class="node">
<title>Node1</title>
<g id="a_node1"><a xlink:title="Set an output from command line options if found.">
<polygon fill="#bfbfbf" stroke="black" points="140,-38.5 140,-57.5 235,-57.5 235,-38.5 140,-38.5"/>
<text text-anchor="middle" x="187.5" y="-45.5" font-family="Helvetica,sans-Serif" font-size="10.00">tryGetFromOpts</text>
</a>
</g>
</g>
<!-- Node2 -->
<g id="node2" class="node">
<title>Node2</title>
<g id="a_node2"><a xlink:href="acsConfig_8cpp.html#a8792819d2710d1833ba6a75a405f2141" target="_top" xlink:title="Set an output from any config source if found.">
<polygon fill="white" stroke="red" points="6.5,-76.5 6.5,-95.5 97.5,-95.5 97.5,-76.5 6.5,-76.5"/>
<text text-anchor="middle" x="52" y="-83.5" font-family="Helvetica,sans-Serif" font-size="10.00">tryGetFromAny</text>
</a>
</g>
</g>
<!-- Node1&#45;&gt;Node2 -->
<g id="edge1" class="edge">
<title>Node1&#45;&gt;Node2</title>
<path fill="none" stroke="midnightblue" d="M142.97,-60.39C124.69,-65.59 103.75,-71.55 86.68,-76.41"/>
<polygon fill="midnightblue" stroke="midnightblue" points="144.15,-63.69 152.81,-57.59 142.24,-56.96 144.15,-63.69"/>
</g>
<!-- Node7 -->
<g id="node3" class="node">
<title>Node7</title>
<g id="a_node3"><a xlink:href="acsConfig_8cpp.html#a99c86abc990a77e44192c57c6a7a7371" target="_top" xlink:title=" ">
<polygon fill="white" stroke="red" points="0,-38.5 0,-57.5 104,-57.5 104,-38.5 0,-38.5"/>
<text text-anchor="middle" x="52" y="-45.5" font-family="Helvetica,sans-Serif" font-size="10.00">tryGetMappedList</text>
</a>
</g>
</g>
<!-- Node1&#45;&gt;Node7 -->
<g id="edge2" class="edge">
<title>Node1&#45;&gt;Node7</title>
<path fill="none" stroke="midnightblue" d="M129.72,-48C121.33,-48 112.72,-48 104.45,-48"/>
<polygon fill="midnightblue" stroke="midnightblue" points="129.81,-51.5 139.81,-48 129.81,-44.5 129.81,-51.5"/>
</g>
<!-- Node4 -->
<g id="node4" class="node">
<title>Node4</title>
<g id="a_node4"><a xlink:href="acsConfig_8cpp.html#a428af53af7dd917738fb5d204948f74f" target="_top" xlink:title="Prepare the configuration of the program.">
<polygon fill="white" stroke="red" points="21,-0.5 21,-19.5 83,-19.5 83,-0.5 21,-0.5"/>
<text text-anchor="middle" x="52" y="-7.5" font-family="Helvetica,sans-Serif" font-size="10.00">configure</text>
</a>
</g>
</g>
<!-- Node1&#45;&gt;Node4 -->
<g id="edge3" class="edge">
<title>Node1&#45;&gt;Node4</title>
<path fill="none" stroke="midnightblue" d="M143.16,-35.66C123.51,-30.07 100.76,-23.6 83.03,-18.55"/>
<polygon fill="midnightblue" stroke="midnightblue" points="142.24,-39.04 152.81,-38.41 144.15,-32.31 142.24,-39.04"/>
</g>
</g>
</svg>
