<?xml version="1.0" encoding="UTF-8" standalone="no"?>
<!DOCTYPE svg PUBLIC "-//W3C//DTD SVG 1.1//EN"
 "http://www.w3.org/Graphics/SVG/1.1/DTD/svg11.dtd">
<!-- Generated by graphviz version 2.43.0 (0)
 -->
<!-- Title: stringsToYamlObject Pages: 1 -->
<!--zoomable 172 -->
<svg id="main" version="1.1" xmlns="http://www.w3.org/2000/svg" xmlns:xlink="http://www.w3.org/1999/xlink" xml:space="preserve" onload="init(evt)">
<style type="text/css"><![CDATA[
.edge:hover path { stroke: red; }
.edge:hover polygon { stroke: red; fill: red; }
]]></style>
<script type="text/javascript"><![CDATA[
var edges = document.getElementsByTagName('g');
if (edges && edges.length) {
  for (var i=0;i<edges.length;i++) {
    if (edges[i].id.substr(0,4)=='edge') {
      edges[i].setAttribute('class','edge');
    }
  }
}
]]></script>
        <defs>
                <circle id="rim" cx="0" cy="0" r="7"/>
                <circle id="rim2" cx="0" cy="0" r="3.5"/>
                <g id="zoomPlus">
                        <use xlink:href="#rim" fill="#404040">
                                <set attributeName="fill" to="#808080" begin="zoomplus.mouseover" end="zoomplus.mouseout"/>
                        </use>
                        <path d="M-4,0h8M0,-4v8" fill="none" stroke="white" stroke-width="1.5" pointer-events="none"/>
                </g>
                <g id="zoomMin">
                        <use xlink:href="#rim" fill="#404040">
                                <set attributeName="fill" to="#808080" begin="zoomminus.mouseover" end="zoomminus.mouseout"/>
                        </use>
                        <path d="M-4,0h8" fill="none" stroke="white" stroke-width="1.5" pointer-events="none"/>
                </g>
                <g id="dirArrow">
                        <path fill="none" stroke="white" stroke-width="1.5" d="M0,-3.0v7 M-2.5,-0.5L0,-3.0L2.5,-0.5"/>
                </g>
               <g id="resetDef">
                       <use xlink:href="#rim2" fill="#404040">
                               <set attributeName="fill" to="#808080" begin="reset.mouseover" end="reset.mouseout"/>
                       </use>
               </g>
        </defs>

<script type="text/javascript">
var viewWidth = 557;
var viewHeight = 172;
var sectionId = 'dynsection-25';
</script>
<script xlink:href="svgpan.js"/>
<svg id="graph" class="graph">
<g id="viewport">
<title>stringsToYamlObject</title>
<polygon fill="white" stroke="transparent" points="-4,4 -4,-167.51 553,-167.51 553,4 -4,4"/>
<!-- Node1 -->
<g id="node1" class="node">
<title>Node1</title>
<g id="a_node1"><a xlink:title="Get an object within a hierarchy of yaml structure using a vector of nodes.">
<polygon fill="#bfbfbf" stroke="black" points="434,-49.01 434,-68.01 549,-68.01 549,-49.01 434,-49.01"/>
<text text-anchor="middle" x="491.5" y="-56.01" font-family="Helvetica,sans-Serif" font-size="10.00">stringsToYamlObject</text>
</a>
</g>
</g>
<!-- Node2 -->
<g id="node2" class="node">
<title>Node2</title>
<g id="a_node2"><a xlink:href="acsConfig_8cpp.html#a555e819507c7608d463fedb0616a95ff" target="_top" xlink:title="Set an output from yaml object if found.">
<polygon fill="white" stroke="red" points="304,-144.01 304,-163.01 398,-163.01 398,-144.01 304,-144.01"/>
<text text-anchor="middle" x="351" y="-151.01" font-family="Helvetica,sans-Serif" font-size="10.00">trySetFromYaml</text>
</a>
</g>
</g>
<!-- Node1&#45;&gt;Node2 -->
<g id="edge1" class="edge">
<title>Node1&#45;&gt;Node2</title>
<path fill="none" stroke="midnightblue" d="M480.71,-68.24C464.6,-83.86 430.98,-114.75 398,-134.51 392.07,-138.06 385.35,-141.25 378.92,-143.95"/>
</g>
<!-- Node8 -->
<g id="node3" class="node">
<title>Node8</title>
<g id="a_node3"><a xlink:href="acsConfig_8cpp.html#a31d67942b68baf4b95c37a0789a6b362" target="_top" xlink:title="Set the variables associated with an output stream.">
<polygon fill="white" stroke="black" points="137,-144.01 137,-163.01 268,-163.01 268,-144.01 137,-144.01"/>
<text text-anchor="middle" x="202.5" y="-151.01" font-family="Helvetica,sans-Serif" font-size="10.00">tryGetStreamFromYaml</text>
</a>
</g>
</g>
<!-- Node1&#45;&gt;Node8 -->
<g id="edge13" class="edge">
<title>Node1&#45;&gt;Node8</title>
<path fill="none" stroke="midnightblue" d="M433.72,-65.34C396.09,-71 346.08,-80.74 304,-96.51 270.94,-108.89 235.84,-131.19 217.12,-143.92"/>
</g>
<!-- Node4 -->
<g id="node4" class="node">
<title>Node4</title>
<g id="a_node4"><a xlink:href="structACSConfig.html#a7956bea37dde8338349a7a2971c530e6" target="_top" xlink:title="Parse options to set acsConfig values.">
<polygon fill="white" stroke="red" points="0,-30.01 0,-49.01 101,-49.01 101,-30.01 0,-30.01"/>
<text text-anchor="middle" x="50.5" y="-37.01" font-family="Helvetica,sans-Serif" font-size="10.00">ACSConfig::parse</text>
</a>
</g>
</g>
<!-- Node1&#45;&gt;Node4 -->
<g id="edge15" class="edge">
<title>Node1&#45;&gt;Node4</title>
<path fill="none" stroke="midnightblue" d="M464.66,-48.87C406.12,-28.31 258.97,16.21 137,-6.51 113.07,-10.97 87.2,-21.88 70.26,-29.95"/>
</g>
<!-- Node9 -->
<g id="node5" class="node">
<title>Node9</title>
<g id="a_node5"><a xlink:href="acsConfig_8cpp.html#a93b507f5cfa7760051904a0a1863118a" target="_top" xlink:title="Set satellite options from yaml.">
<polygon fill="white" stroke="red" points="10.5,-68.01 10.5,-87.01 90.5,-87.01 90.5,-68.01 10.5,-68.01"/>
<text text-anchor="middle" x="50.5" y="-75.01" font-family="Helvetica,sans-Serif" font-size="10.00">getFromYaml</text>
</a>
</g>
</g>
<!-- Node1&#45;&gt;Node9 -->
<g id="edge14" class="edge">
<title>Node1&#45;&gt;Node9</title>
<path fill="none" stroke="midnightblue" d="M433.97,-54.72C364,-50.9 241.32,-47.06 137,-58.51 120.07,-60.37 101.59,-64.24 86.15,-68"/>
</g>
<!-- Node34 -->
<g id="node6" class="node">
<title>Node34</title>
<g id="a_node6"><a xlink:href="acsConfig_8cpp.html#a080108da5f6c78aa8d0df4b715cf185e" target="_top" xlink:title="Set the variables associated with kalman filter states from yaml.">
<polygon fill="white" stroke="black" points="137,-68.01 137,-87.01 268,-87.01 268,-68.01 137,-68.01"/>
<text text-anchor="middle" x="202.5" y="-75.01" font-family="Helvetica,sans-Serif" font-size="10.00">trySetKalmanFromYaml</text>
</a>
</g>
</g>
<!-- Node1&#45;&gt;Node34 -->
<g id="edge12" class="edge">
<title>Node1&#45;&gt;Node34</title>
<path fill="none" stroke="midnightblue" d="M433.8,-62.26C386.1,-65.42 317.9,-69.93 268.1,-73.23"/>
</g>
<!-- Node41 -->
<g id="node7" class="node">
<title>Node41</title>
<g id="a_node7"><a xlink:href="acsConfig_8cpp.html#afab657b38e8402e86a8daef8a8f7d09f" target="_top" xlink:title="Set an enum from yaml, decoding strings to ints.">
<polygon fill="white" stroke="red" points="305.5,-106.01 305.5,-125.01 396.5,-125.01 396.5,-106.01 305.5,-106.01"/>
<text text-anchor="middle" x="351" y="-113.01" font-family="Helvetica,sans-Serif" font-size="10.00">trySetEnumOpt</text>
</a>
</g>
</g>
<!-- Node1&#45;&gt;Node41 -->
<g id="edge9" class="edge">
<title>Node1&#45;&gt;Node41</title>
<path fill="none" stroke="midnightblue" d="M467.32,-68.05C441.75,-78.57 400.85,-95.4 375.26,-105.94"/>
</g>
<!-- Node2&#45;&gt;Node8 -->
<g id="edge2" class="edge">
<title>Node2&#45;&gt;Node8</title>
<path fill="none" stroke="midnightblue" d="M303.65,-153.51C292.33,-153.51 280.02,-153.51 268.02,-153.51"/>
</g>
<!-- Node2&#45;&gt;Node4 -->
<g id="edge8" class="edge">
<title>Node2&#45;&gt;Node4</title>
<path fill="none" stroke="midnightblue" d="M317.95,-143.91C312.89,-141.41 308.01,-138.32 304,-134.51 276.91,-108.76 298.68,-79.86 268,-58.51 219.22,-24.56 148.52,-25.19 101.33,-30.71"/>
</g>
<!-- Node2&#45;&gt;Node9 -->
<g id="edge4" class="edge">
<title>Node2&#45;&gt;Node9</title>
<path fill="none" stroke="midnightblue" d="M312.5,-143.96C255.19,-129.37 146.44,-101.68 89.08,-87.08"/>
</g>
<!-- Node2&#45;&gt;Node34 -->
<g id="edge5" class="edge">
<title>Node2&#45;&gt;Node34</title>
<path fill="none" stroke="midnightblue" d="M322.46,-143.97C316.18,-141.3 309.69,-138.13 304,-134.51 285.69,-122.85 286.51,-112.84 268,-101.51 258.32,-95.58 246.94,-90.75 236.46,-87.02"/>
</g>
<!-- Node8&#45;&gt;Node4 -->
<g id="edge3" class="edge">
<title>Node8&#45;&gt;Node4</title>
<path fill="none" stroke="midnightblue" d="M189.81,-143.72C176.67,-132.59 154.84,-113.74 137,-96.51 120.27,-80.34 120.34,-71.44 101,-58.51 95.41,-54.77 88.99,-51.62 82.66,-49.03"/>
</g>
<!-- Node34&#45;&gt;Node4 -->
<g id="edge7" class="edge">
<title>Node34&#45;&gt;Node4</title>
<path fill="none" stroke="midnightblue" d="M163.65,-67.92C140.82,-62.14 111.86,-54.8 89.08,-49.03"/>
</g>
<!-- Node34&#45;&gt;Node9 -->
<g id="edge6" class="edge">
<title>Node34&#45;&gt;Node9</title>
<path fill="none" stroke="midnightblue" d="M136.58,-77.51C120.9,-77.51 104.63,-77.51 90.56,-77.51"/>
</g>
<!-- Node41&#45;&gt;Node4 -->
<g id="edge11" class="edge">
<title>Node41&#45;&gt;Node4</title>
<path fill="none" stroke="midnightblue" d="M344.84,-105.75C333.83,-86.11 305.9,-42.25 268,-25.51 204.95,2.34 121.41,-16.78 78.89,-29.95"/>
</g>
<!-- Node41&#45;&gt;Node34 -->
<g id="edge10" class="edge">
<title>Node41&#45;&gt;Node34</title>
<path fill="none" stroke="midnightblue" d="M313.03,-105.92C290.74,-100.14 262.45,-92.8 240.2,-87.03"/>
</g>
</g>
</svg>
        <g id="navigator" transform="translate(0 0)" fill="#404254">
                <rect fill="#f2f5e9" fill-opacity="0.5" stroke="#606060" stroke-width=".5" x="0" y="0" width="60" height="60"/>
                <use id="zoomplus" xlink:href="#zoomPlus" x="17" y="9" onmousedown="handleZoom(evt,'in')"/>
                <use id="zoomminus" xlink:href="#zoomMin" x="42" y="9" onmousedown="handleZoom(evt,'out')"/>
                <use id="reset" xlink:href="#resetDef" x="30" y="36" onmousedown="handleReset()"/>
                <g id="arrowUp" xlink:href="#dirArrow" transform="translate(30 24)" onmousedown="handlePan(0,-1)">
                  <use xlink:href="#rim" fill="#404040">
                        <set attributeName="fill" to="#808080" begin="arrowUp.mouseover" end="arrowUp.mouseout"/>
                  </use>
                  <path fill="none" stroke="white" stroke-width="1.5" d="M0,-3.0v7 M-2.5,-0.5L0,-3.0L2.5,-0.5"/>
                </g>
                <g id="arrowRight" xlink:href="#dirArrow" transform="rotate(90) translate(36 -43)" onmousedown="handlePan(1,0)">
                  <use xlink:href="#rim" fill="#404040">
                        <set attributeName="fill" to="#808080" begin="arrowRight.mouseover" end="arrowRight.mouseout"/>
                  </use>
                  <path fill="none" stroke="white" stroke-width="1.5" d="M0,-3.0v7 M-2.5,-0.5L0,-3.0L2.5,-0.5"/>
                </g>
                <g id="arrowDown" xlink:href="#dirArrow" transform="rotate(180) translate(-30 -48)" onmousedown="handlePan(0,1)">
                  <use xlink:href="#rim" fill="#404040">
                        <set attributeName="fill" to="#808080" begin="arrowDown.mouseover" end="arrowDown.mouseout"/>
                  </use>
                  <path fill="none" stroke="white" stroke-width="1.5" d="M0,-3.0v7 M-2.5,-0.5L0,-3.0L2.5,-0.5"/>
                </g>
                <g id="arrowLeft" xlink:href="#dirArrow" transform="rotate(270) translate(-36 17)" onmousedown="handlePan(-1,0)">
                  <use xlink:href="#rim" fill="#404040">
                        <set attributeName="fill" to="#808080" begin="arrowLeft.mouseover" end="arrowLeft.mouseout"/>
                  </use>
                  <path fill="none" stroke="white" stroke-width="1.5" d="M0,-3.0v7 M-2.5,-0.5L0,-3.0L2.5,-0.5"/>
                </g>
        </g>
        <svg viewBox="0 0 15 15" width="100%" height="30px" preserveAspectRatio="xMaxYMin meet">
         <g id="arrow_out" transform="scale(0.3 0.3)">
          <a xlink:href="acsConfig_8cpp_a5d035c64332701c7ae41cbd84a93c379_icgraph_org.svg" target="_base">
           <rect id="button" ry="5" rx="5" y="6" x="6" height="38" width="38"
                fill="#f2f5e9" fill-opacity="0.5" stroke="#606060" stroke-width="1.0"/>
           <path id="arrow"
             d="M 11.500037,31.436501 C 11.940474,20.09759 22.043105,11.32322 32.158766,21.979434 L 37.068811,17.246167 C 37.068811,17.246167 37.088388,32 37.088388,32 L 22.160133,31.978069 C 22.160133,31.978069 26.997745,27.140456 26.997745,27.140456 C 18.528582,18.264221 13.291696,25.230495 11.500037,31.436501 z"
             style="fill:#404040;"/>
          </a>
         </g>
        </svg>
</svg>
