<?xml version="1.0" encoding="UTF-8" standalone="no"?>
<!DOCTYPE svg PUBLIC "-//W3C//DTD SVG 1.1//EN"
 "http://www.w3.org/Graphics/SVG/1.1/DTD/svg11.dtd">
<!-- Generated by graphviz version 2.43.0 (0)
 -->
<!-- Title: replaceTimes Pages: 1 -->
<svg width="389pt" height="218pt"
 viewBox="0.00 0.00 389.00 218.00" xmlns="http://www.w3.org/2000/svg" xmlns:xlink="http://www.w3.org/1999/xlink">
<g id="graph0" class="graph" transform="scale(1 1) rotate(0) translate(4 214)">
<title>replaceTimes</title>
<polygon fill="white" stroke="transparent" points="-4,4 -4,-214 385,-214 385,4 -4,4"/>
<!-- Node1 -->
<g id="node1" class="node">
<title>Node1</title>
<g id="a_node1"><a xlink:title="Replace macros for times with numeric values.">
<polygon fill="#bfbfbf" stroke="black" points="299,-95.5 299,-114.5 381,-114.5 381,-95.5 299,-95.5"/>
<text text-anchor="middle" x="340" y="-102.5" font-family="Helvetica,sans-Serif" font-size="10.00">replaceTimes</text>
</a>
</g>
</g>
<!-- Node2 -->
<g id="node2" class="node">
<title>Node2</title>
<g id="a_node2"><a xlink:href="acsConfig_8cpp.html#ac51b4717ad47f45c4b1e373882b6f131" target="_top" xlink:title=" ">
<polygon fill="white" stroke="black" points="156,-190.5 156,-209.5 238,-209.5 238,-190.5 156,-190.5"/>
<text text-anchor="middle" x="197" y="-197.5" font-family="Helvetica,sans-Serif" font-size="10.00">replaceTimes</text>
</a>
</g>
</g>
<!-- Node1&#45;&gt;Node2 -->
<g id="edge1" class="edge">
<title>Node1&#45;&gt;Node2</title>
<path fill="none" stroke="midnightblue" d="M331.96,-114.71C319.74,-130.86 293.02,-163.21 263,-181 255.41,-185.49 246.69,-188.99 238.16,-191.68"/>
</g>
<!-- Node3 -->
<g id="node3" class="node">
<title>Node3</title>
<g id="a_node3"><a xlink:href="main_8cpp.html#a260404f91dd3104c4f794029943c96ab" target="_top" xlink:title=" ">
<polygon fill="white" stroke="black" points="141,-152.5 141,-171.5 253,-171.5 253,-152.5 141,-152.5"/>
<text text-anchor="middle" x="197" y="-159.5" font-family="Helvetica,sans-Serif" font-size="10.00">createNewTraceFile</text>
</a>
</g>
</g>
<!-- Node1&#45;&gt;Node3 -->
<g id="edge2" class="edge">
<title>Node1&#45;&gt;Node3</title>
<path fill="none" stroke="midnightblue" d="M317.84,-114.57C302.67,-121.33 281.69,-130.5 263,-138 250.61,-142.97 236.74,-148.15 225.01,-152.41"/>
</g>
<!-- Node4 -->
<g id="node4" class="node">
<title>Node4</title>
<g id="a_node4"><a xlink:href="main_8cpp.html#a29d52cfc981619584262b20b497865db" target="_top" xlink:title="Create new empty trace files only when required when the filename is changed.">
<polygon fill="white" stroke="red" points="0,-114.5 0,-133.5 95,-133.5 95,-114.5 0,-114.5"/>
<text text-anchor="middle" x="47.5" y="-121.5" font-family="Helvetica,sans-Serif" font-size="10.00">createTracefiles</text>
</a>
</g>
</g>
<!-- Node1&#45;&gt;Node4 -->
<g id="edge4" class="edge">
<title>Node1&#45;&gt;Node4</title>
<path fill="none" stroke="midnightblue" d="M298.91,-107.62C245.68,-111.1 151.83,-117.24 95.38,-120.93"/>
</g>
<!-- Node7 -->
<g id="node5" class="node">
<title>Node7</title>
<g id="a_node5"><a xlink:href="rinexClkWrite_8cpp.html#ae105b449da2c0d5e0ce91380d3b6907b" target="_top" xlink:title=" ">
<polygon fill="white" stroke="red" points="131,-76.5 131,-95.5 263,-95.5 263,-76.5 131,-76.5"/>
<text text-anchor="middle" x="197" y="-83.5" font-family="Helvetica,sans-Serif" font-size="10.00">getSysOutputFilenames</text>
</a>
</g>
</g>
<!-- Node1&#45;&gt;Node7 -->
<g id="edge5" class="edge">
<title>Node1&#45;&gt;Node7</title>
<path fill="none" stroke="midnightblue" d="M298.97,-99.61C287.82,-98.1 275.4,-96.43 263.2,-94.79"/>
</g>
<!-- Node17 -->
<g id="node6" class="node">
<title>Node17</title>
<g id="a_node6"><a xlink:href="tropSinex_8cpp.html#a1ec03512224c86aef8e4e66c21661ecf" target="_top" xlink:title="Export troposphere Sinex data.">
<polygon fill="white" stroke="red" points="149.5,-38.5 149.5,-57.5 244.5,-57.5 244.5,-38.5 149.5,-38.5"/>
<text text-anchor="middle" x="197" y="-45.5" font-family="Helvetica,sans-Serif" font-size="10.00">outputTropSinex</text>
</a>
</g>
</g>
<!-- Node1&#45;&gt;Node17 -->
<g id="edge7" class="edge">
<title>Node1&#45;&gt;Node17</title>
<path fill="none" stroke="midnightblue" d="M321.9,-95.34C306.75,-87.05 283.87,-75.19 263,-67 254.03,-63.48 244.13,-60.26 234.83,-57.52"/>
</g>
<!-- Node18 -->
<g id="node7" class="node">
<title>Node18</title>
<g id="a_node7"><a xlink:href="pea__snx_8cpp.html#a6b5f4d774fbaf2921b08fe116510c5bf" target="_top" xlink:title=" ">
<polygon fill="white" stroke="red" points="139,-0.5 139,-19.5 255,-19.5 255,-0.5 139,-0.5"/>
<text text-anchor="middle" x="197" y="-7.5" font-family="Helvetica,sans-Serif" font-size="10.00">sinexPostProcessing</text>
</a>
</g>
</g>
<!-- Node1&#45;&gt;Node18 -->
<g id="edge8" class="edge">
<title>Node1&#45;&gt;Node18</title>
<path fill="none" stroke="midnightblue" d="M331.96,-95.29C319.74,-79.14 293.02,-46.79 263,-29 256.53,-25.16 249.23,-22.06 241.92,-19.56"/>
</g>
<!-- Node3&#45;&gt;Node4 -->
<g id="edge3" class="edge">
<title>Node3&#45;&gt;Node4</title>
<path fill="none" stroke="midnightblue" d="M158.78,-152.41C136.33,-146.63 107.85,-139.29 85.45,-133.52"/>
</g>
<!-- Node7&#45;&gt;Node4 -->
<g id="edge6" class="edge">
<title>Node7&#45;&gt;Node4</title>
<path fill="none" stroke="midnightblue" d="M158.78,-95.59C136.33,-101.37 107.85,-108.71 85.45,-114.48"/>
</g>
</g>
</svg>
