<?xml version="1.0" encoding="UTF-8" standalone="no"?>
<!DOCTYPE svg PUBLIC "-//W3C//DTD SVG 1.1//EN"
 "http://www.w3.org/Graphics/SVG/1.1/DTD/svg11.dtd">
<!-- Generated by graphviz version 2.43.0 (0)
 -->
<!-- Title: trySetScaledFromYaml Pages: 1 -->
<svg width="554pt" height="111pt"
 viewBox="0.00 0.00 554.00 111.18" xmlns="http://www.w3.org/2000/svg" xmlns:xlink="http://www.w3.org/1999/xlink">
<g id="graph0" class="graph" transform="scale(1 1) rotate(0) translate(4 107.18)">
<title>trySetScaledFromYaml</title>
<polygon fill="white" stroke="transparent" points="-4,4 -4,-107.18 550,-107.18 550,4 -4,4"/>
<!-- Node1 -->
<g id="node1" class="node">
<title>Node1</title>
<g id="a_node1"><a xlink:title="Set and scale a variable according to yaml options.">
<polygon fill="#bfbfbf" stroke="black" points="0,-26.68 0,-45.68 126,-45.68 126,-26.68 0,-26.68"/>
<text text-anchor="middle" x="63" y="-33.68" font-family="Helvetica,sans-Serif" font-size="10.00">trySetScaledFromYaml</text>
</a>
</g>
</g>
<!-- Node2 -->
<g id="node2" class="node">
<title>Node2</title>
<g id="a_node2"><a xlink:href="acsConfig_8cpp.html#a555e819507c7608d463fedb0616a95ff" target="_top" xlink:title="Set an output from yaml object if found.">
<polygon fill="white" stroke="black" points="162,-45.68 162,-64.68 256,-64.68 256,-45.68 162,-45.68"/>
<text text-anchor="middle" x="209" y="-52.68" font-family="Helvetica,sans-Serif" font-size="10.00">trySetFromYaml</text>
</a>
</g>
</g>
<!-- Node1&#45;&gt;Node2 -->
<g id="edge1" class="edge">
<title>Node1&#45;&gt;Node2</title>
<path fill="none" stroke="midnightblue" d="M126.32,-44.41C138.18,-45.97 150.4,-47.58 161.65,-49.07"/>
</g>
<!-- Node6 -->
<g id="node6" class="node">
<title>Node6</title>
<g id="a_node6"><a xlink:href="acsConfig_8cpp.html#afab657b38e8402e86a8daef8a8f7d09f" target="_top" xlink:title="Set an enum from yaml, decoding strings to ints.">
<polygon fill="white" stroke="black" points="163.5,-7.68 163.5,-26.68 254.5,-26.68 254.5,-7.68 163.5,-7.68"/>
<text text-anchor="middle" x="209" y="-14.68" font-family="Helvetica,sans-Serif" font-size="10.00">trySetEnumOpt</text>
</a>
</g>
</g>
<!-- Node1&#45;&gt;Node6 -->
<g id="edge6" class="edge">
<title>Node1&#45;&gt;Node6</title>
<path fill="none" stroke="midnightblue" d="M126.32,-27.96C138.79,-26.31 151.65,-24.62 163.37,-23.07"/>
</g>
<!-- Node3 -->
<g id="node3" class="node">
<title>Node3</title>
<g id="a_node3"><a xlink:href="acsConfig_8cpp.html#a5d035c64332701c7ae41cbd84a93c379" target="_top" xlink:title="Get an object within a hierarchy of yaml structure using a vector of nodes.">
<polygon fill="white" stroke="black" points="292,-83.68 292,-102.68 407,-102.68 407,-83.68 292,-83.68"/>
<text text-anchor="middle" x="349.5" y="-90.68" font-family="Helvetica,sans-Serif" font-size="10.00">stringsToYamlObject</text>
</a>
</g>
</g>
<!-- Node2&#45;&gt;Node3 -->
<g id="edge2" class="edge">
<title>Node2&#45;&gt;Node3</title>
<path fill="none" stroke="midnightblue" d="M244.95,-64.77C265.94,-70.53 292.57,-77.84 313.56,-83.6"/>
</g>
<!-- Node4 -->
<g id="node4" class="node">
<title>Node4</title>
<g id="a_node4"><a xlink:href="acsConfig_8cpp.html#a07d7ac25e6836e7aa96b396c2b2e4fb6" target="_top" xlink:title=" ">
<polygon fill="white" stroke="black" points="443,-7.68 443,-26.68 546,-26.68 546,-7.68 443,-7.68"/>
<text text-anchor="middle" x="494.5" y="-14.68" font-family="Helvetica,sans-Serif" font-size="10.00">nonNumericStack</text>
</a>
</g>
</g>
<!-- Node2&#45;&gt;Node4 -->
<g id="edge5" class="edge">
<title>Node2&#45;&gt;Node4</title>
<path fill="none" stroke="midnightblue" d="M246.53,-45.62C260.65,-42.21 277,-38.62 292,-36.18 342.99,-27.91 401.86,-22.87 442.75,-20.08"/>
</g>
<!-- Node5 -->
<g id="node5" class="node">
<title>Node5</title>
<g id="a_node5"><a xlink:href="acsConfig_8cpp.html#a4af49116a961306767d98dcc5f106c4f" target="_top" xlink:title=" ">
<polygon fill="white" stroke="black" points="321,-45.68 321,-64.68 378,-64.68 378,-45.68 321,-45.68"/>
<text text-anchor="middle" x="349.5" y="-52.68" font-family="Helvetica,sans-Serif" font-size="10.00">stringify</text>
</a>
</g>
</g>
<!-- Node2&#45;&gt;Node5 -->
<g id="edge4" class="edge">
<title>Node2&#45;&gt;Node5</title>
<path fill="none" stroke="midnightblue" d="M256.12,-55.18C277.52,-55.18 302.26,-55.18 320.74,-55.18"/>
</g>
<!-- Node3&#45;&gt;Node4 -->
<g id="edge3" class="edge">
<title>Node3&#45;&gt;Node4</title>
<path fill="none" stroke="midnightblue" d="M383.64,-83.63C391.46,-80.94 399.65,-77.76 407,-74.18 435.13,-60.47 464.98,-39.07 481.22,-26.76"/>
</g>
<!-- Node6&#45;&gt;Node3 -->
<g id="edge7" class="edge">
<title>Node6&#45;&gt;Node3</title>
<path fill="none" stroke="midnightblue" d="M238.7,-26.85C244.66,-29.45 250.73,-32.56 256,-36.18 275.17,-49.36 272.39,-61.66 292,-74.18 297.93,-77.97 304.7,-81.09 311.44,-83.62"/>
</g>
<!-- Node6&#45;&gt;Node4 -->
<g id="edge8" class="edge">
<title>Node6&#45;&gt;Node4</title>
<path fill="none" stroke="midnightblue" d="M254.51,-8.18C266.62,-6.11 279.77,-4.22 292,-3.18 342.93,1.13 356.05,0.91 407,-3.18 418.83,-4.13 431.48,-5.8 443.35,-7.67"/>
</g>
</g>
</svg>
