<?xml version="1.0" encoding="UTF-8" standalone="no"?>
<!DOCTYPE svg PUBLIC "-//W3C//DTD SVG 1.1//EN"
 "http://www.w3.org/Graphics/SVG/1.1/DTD/svg11.dtd">
<!-- Generated by graphviz version 2.43.0 (0)
 -->
<!-- Title: replaceTimes Pages: 1 -->
<svg width="260pt" height="294pt"
 viewBox="0.00 0.00 260.00 294.00" xmlns="http://www.w3.org/2000/svg" xmlns:xlink="http://www.w3.org/1999/xlink">
<g id="graph0" class="graph" transform="scale(1 1) rotate(0) translate(4 290)">
<title>replaceTimes</title>
<polygon fill="white" stroke="transparent" points="-4,4 -4,-290 256,-290 256,4 -4,4"/>
<!-- Node1 -->
<g id="node1" class="node">
<title>Node1</title>
<g id="a_node1"><a xlink:title="Replace macros for times with numeric values.">
<polygon fill="#bfbfbf" stroke="black" points="169,-133.5 169,-152.5 252,-152.5 252,-133.5 169,-133.5"/>
<text text-anchor="middle" x="210.5" y="-140.5" font-family="Helvetica,sans-Serif" font-size="10.00">replaceTimes</text>
</a>
</g>
</g>
<!-- Node2 -->
<g id="node2" class="node">
<title>Node2</title>
<g id="a_node2"><a xlink:href="acsConfig_8cpp.html#ac51b4717ad47f45c4b1e373882b6f131" target="_top" xlink:title=" ">
<polygon fill="white" stroke="black" points="25,-266.5 25,-285.5 108,-285.5 108,-266.5 25,-266.5"/>
<text text-anchor="middle" x="66.5" y="-273.5" font-family="Helvetica,sans-Serif" font-size="10.00">replaceTimes</text>
</a>
</g>
</g>
<!-- Node1&#45;&gt;Node2 -->
<g id="edge1" class="edge">
<title>Node1&#45;&gt;Node2</title>
<path fill="none" stroke="midnightblue" d="M201.81,-161.9C190.5,-187.31 167,-232.16 133,-257 125.73,-262.31 117.01,-266.14 108.33,-268.9"/>
<polygon fill="midnightblue" stroke="midnightblue" points="205.07,-163.18 205.78,-152.61 198.63,-160.43 205.07,-163.18"/>
</g>
<!-- Node3 -->
<g id="node3" class="node">
<title>Node3</title>
<g id="a_node3"><a xlink:href="trace_8cpp.html#a7eec1631c0092ac9e6c3222345cd3601" target="_top" xlink:title=" ">
<polygon fill="white" stroke="red" points="10.5,-228.5 10.5,-247.5 122.5,-247.5 122.5,-228.5 10.5,-228.5"/>
<text text-anchor="middle" x="66.5" y="-235.5" font-family="Helvetica,sans-Serif" font-size="10.00">createNewTraceFile</text>
</a>
</g>
</g>
<!-- Node1&#45;&gt;Node3 -->
<g id="edge2" class="edge">
<title>Node1&#45;&gt;Node3</title>
<path fill="none" stroke="midnightblue" d="M195.99,-160.88C182.02,-178.16 158.69,-203.87 133,-219 126.47,-222.85 119.11,-225.96 111.75,-228.46"/>
<polygon fill="midnightblue" stroke="midnightblue" points="198.97,-162.74 202.4,-152.72 193.47,-158.42 198.97,-162.74"/>
</g>
<!-- Node10 -->
<g id="node4" class="node">
<title>Node10</title>
<g id="a_node4"><a xlink:href="mongo_8cpp.html#a52ea466b77ea949c69649373cb073616" target="_top" xlink:title=" ">
<polygon fill="white" stroke="red" points="13,-190.5 13,-209.5 120,-209.5 120,-190.5 13,-190.5"/>
<text text-anchor="middle" x="66.5" y="-197.5" font-family="Helvetica,sans-Serif" font-size="10.00">startNewMongoDb</text>
</a>
</g>
</g>
<!-- Node1&#45;&gt;Node10 -->
<g id="edge3" class="edge">
<title>Node1&#45;&gt;Node10</title>
<path fill="none" stroke="midnightblue" d="M183.65,-157.29C169.07,-164.98 150.34,-174.24 133,-181 123.95,-184.53 113.98,-187.74 104.61,-190.49"/>
<polygon fill="midnightblue" stroke="midnightblue" points="185.42,-160.31 192.58,-152.5 182.11,-154.14 185.42,-160.31"/>
</g>
<!-- Node11 -->
<g id="node5" class="node">
<title>Node11</title>
<g id="a_node5"><a xlink:href="tropSinex_8cpp.html#a7d4d797b1dca3898283e8b3d00b0e60f" target="_top" xlink:title="Output troposphere SINEX data.">
<polygon fill="white" stroke="red" points="19,-152.5 19,-171.5 114,-171.5 114,-152.5 19,-152.5"/>
<text text-anchor="middle" x="66.5" y="-159.5" font-family="Helvetica,sans-Serif" font-size="10.00">outputTropSinex</text>
</a>
</g>
</g>
<!-- Node1&#45;&gt;Node11 -->
<g id="edge4" class="edge">
<title>Node1&#45;&gt;Node11</title>
<path fill="none" stroke="midnightblue" d="M158.53,-149.82C144.07,-151.75 128.4,-153.85 114.21,-155.75"/>
<polygon fill="midnightblue" stroke="midnightblue" points="159.36,-153.24 168.81,-148.44 158.43,-146.3 159.36,-153.24"/>
</g>
<!-- Node17 -->
<g id="node6" class="node">
<title>Node17</title>
<g id="a_node6"><a xlink:href="rinexClkWrite_8cpp.html#a87a652e05ec91c35c1e56c0650176dfa" target="_top" xlink:title=" ">
<polygon fill="white" stroke="red" points="0,-114.5 0,-133.5 133,-133.5 133,-114.5 0,-114.5"/>
<text text-anchor="middle" x="66.5" y="-121.5" font-family="Helvetica,sans-Serif" font-size="10.00">getSysOutputFilenames</text>
</a>
</g>
</g>
<!-- Node1&#45;&gt;Node17 -->
<g id="edge5" class="edge">
<title>Node1&#45;&gt;Node17</title>
<path fill="none" stroke="midnightblue" d="M158.87,-136.23C150.53,-135.11 141.77,-133.94 133.13,-132.78"/>
<polygon fill="midnightblue" stroke="midnightblue" points="158.43,-139.7 168.81,-137.56 159.36,-132.76 158.43,-139.7"/>
</g>
<!-- Node25 -->
<g id="node7" class="node">
<title>Node25</title>
<g id="a_node7"><a xlink:href="orbitProp_8cpp.html#a03c4ef0fbfbbf301403de6a3a8e27cc3" target="_top" xlink:title=" ">
<polygon fill="white" stroke="red" points="15,-76.5 15,-95.5 118,-95.5 118,-76.5 15,-76.5"/>
<text text-anchor="middle" x="66.5" y="-83.5" font-family="Helvetica,sans-Serif" font-size="10.00">outputOrbitConfig</text>
</a>
</g>
</g>
<!-- Node1&#45;&gt;Node25 -->
<g id="edge6" class="edge">
<title>Node1&#45;&gt;Node25</title>
<path fill="none" stroke="midnightblue" d="M183.65,-128.71C169.07,-121.02 150.34,-111.76 133,-105 123.95,-101.47 113.98,-98.26 104.61,-95.51"/>
<polygon fill="midnightblue" stroke="midnightblue" points="182.11,-131.86 192.58,-133.5 185.42,-125.69 182.11,-131.86"/>
</g>
<!-- Node26 -->
<g id="node8" class="node">
<title>Node26</title>
<g id="a_node8"><a xlink:href="main_8cpp.html#a2206cd179576b10f99dbe50e8e7ddc5a" target="_top" xlink:title="Create directories if required.">
<polygon fill="white" stroke="red" points="16,-38.5 16,-57.5 117,-57.5 117,-38.5 16,-38.5"/>
<text text-anchor="middle" x="66.5" y="-45.5" font-family="Helvetica,sans-Serif" font-size="10.00">createDirectories</text>
</a>
</g>
</g>
<!-- Node1&#45;&gt;Node26 -->
<g id="edge7" class="edge">
<title>Node1&#45;&gt;Node26</title>
<path fill="none" stroke="midnightblue" d="M195.99,-125.12C182.02,-107.84 158.69,-82.13 133,-67 126.47,-63.15 119.11,-60.04 111.75,-57.54"/>
<polygon fill="midnightblue" stroke="midnightblue" points="193.47,-127.58 202.4,-133.28 198.97,-123.26 193.47,-127.58"/>
</g>
<!-- Node27 -->
<g id="node9" class="node">
<title>Node27</title>
<g id="a_node9"><a xlink:href="pea__snx_8cpp.html#a4ded3444eea8dfc8736567542792d17e" target="_top" xlink:title=" ">
<polygon fill="white" stroke="red" points="8.5,-0.5 8.5,-19.5 124.5,-19.5 124.5,-0.5 8.5,-0.5"/>
<text text-anchor="middle" x="66.5" y="-7.5" font-family="Helvetica,sans-Serif" font-size="10.00">sinexPostProcessing</text>
</a>
</g>
</g>
<!-- Node1&#45;&gt;Node27 -->
<g id="edge8" class="edge">
<title>Node1&#45;&gt;Node27</title>
<path fill="none" stroke="midnightblue" d="M201.81,-124.1C190.5,-98.69 167,-53.84 133,-29 127.65,-25.09 121.5,-21.98 115.17,-19.51"/>
<polygon fill="midnightblue" stroke="midnightblue" points="198.63,-125.57 205.78,-133.39 205.07,-122.82 198.63,-125.57"/>
</g>
</g>
</svg>
