<?xml version="1.0" encoding="UTF-8" standalone="no"?>
<!DOCTYPE svg PUBLIC "-//W3C//DTD SVG 1.1//EN"
 "http://www.w3.org/Graphics/SVG/1.1/DTD/svg11.dtd">
<!-- Generated by graphviz version 2.43.0 (0)
 -->
<!-- Title: tryGetFromYaml Pages: 1 -->
<svg width="407pt" height="79pt"
 viewBox="0.00 0.00 407.00 79.16" xmlns="http://www.w3.org/2000/svg" xmlns:xlink="http://www.w3.org/1999/xlink">
<g id="graph0" class="graph" transform="scale(1 1) rotate(0) translate(4 75.16)">
<title>tryGetFromYaml</title>
<polygon fill="white" stroke="transparent" points="-4,4 -4,-75.16 403,-75.16 403,4 -4,4"/>
<!-- Node1 -->
<g id="node1" class="node">
<title>Node1</title>
<g id="a_node1"><a xlink:title="Set an output from yaml object if found.">
<polygon fill="#bfbfbf" stroke="black" points="0,-13.66 0,-32.66 95,-32.66 95,-13.66 0,-13.66"/>
<text text-anchor="middle" x="47.5" y="-20.66" font-family="Helvetica,sans-Serif" font-size="10.00">tryGetFromYaml</text>
</a>
</g>
</g>
<!-- Node2 -->
<g id="node2" class="node">
<title>Node2</title>
<g id="a_node2"><a xlink:href="acsConfig_8cpp.html#aaeb305db9559c585125ced693d9360d1" target="_top" xlink:title="Get an object within a hierarchy of yaml structure using a vector of nodes.">
<polygon fill="white" stroke="red" points="131,-51.66 131,-70.66 246,-70.66 246,-51.66 131,-51.66"/>
<text text-anchor="middle" x="188.5" y="-58.66" font-family="Helvetica,sans-Serif" font-size="10.00">stringsToYamlObject</text>
</a>
</g>
</g>
<!-- Node1&#45;&gt;Node2 -->
<g id="edge1" class="edge">
<title>Node1&#45;&gt;Node2</title>
<path fill="none" stroke="midnightblue" d="M83.58,-32.75C101.52,-37.66 123.56,-43.68 142.72,-48.92"/>
<polygon fill="midnightblue" stroke="midnightblue" points="141.87,-52.32 152.44,-51.58 143.71,-45.57 141.87,-52.32"/>
</g>
<!-- Node4 -->
<g id="node3" class="node">
<title>Node4</title>
<g id="a_node3"><a xlink:href="acsConfig_8cpp.html#a1ab1e0899bedf8c0dc2f7e7798aa39bf" target="_top" xlink:title=" ">
<polygon fill="white" stroke="red" points="282,-13.66 282,-32.66 399,-32.66 399,-13.66 282,-13.66"/>
<text text-anchor="middle" x="340.5" y="-20.66" font-family="Helvetica,sans-Serif" font-size="10.00">addAvailableOptions</text>
</a>
</g>
</g>
<!-- Node1&#45;&gt;Node4 -->
<g id="edge5" class="edge">
<title>Node1&#45;&gt;Node4</title>
<path fill="none" stroke="midnightblue" d="M81.92,-13.66C96.81,-9.89 114.64,-6.02 131,-4.16 181.78,1.61 195.15,0.95 246,-4.16 261,-5.67 277.15,-8.51 291.74,-11.54"/>
<polygon fill="midnightblue" stroke="midnightblue" points="291.04,-14.97 301.55,-13.66 292.51,-8.13 291.04,-14.97"/>
</g>
<!-- Node5 -->
<g id="node4" class="node">
<title>Node5</title>
<g id="a_node4"><a xlink:href="acsConfig_8cpp.html#a4d3955f209663e9e9066b939224afe62" target="_top" xlink:title=" ">
<polygon fill="white" stroke="black" points="160.5,-13.66 160.5,-32.66 216.5,-32.66 216.5,-13.66 160.5,-13.66"/>
<text text-anchor="middle" x="188.5" y="-20.66" font-family="Helvetica,sans-Serif" font-size="10.00">stringify</text>
</a>
</g>
</g>
<!-- Node1&#45;&gt;Node5 -->
<g id="edge4" class="edge">
<title>Node1&#45;&gt;Node5</title>
<path fill="none" stroke="midnightblue" d="M95.17,-23.16C113.07,-23.16 133.24,-23.16 150.15,-23.16"/>
<polygon fill="midnightblue" stroke="midnightblue" points="150.21,-26.66 160.21,-23.16 150.21,-19.66 150.21,-26.66"/>
</g>
<!-- Node2&#45;&gt;Node4 -->
<g id="edge2" class="edge">
<title>Node2&#45;&gt;Node4</title>
<path fill="none" stroke="midnightblue" d="M227.35,-51.58C246.97,-46.61 271.12,-40.49 291.98,-35.2"/>
<polygon fill="midnightblue" stroke="midnightblue" points="293.09,-38.53 301.92,-32.68 291.37,-31.75 293.09,-38.53"/>
</g>
<!-- Node4&#45;&gt;Node4 -->
<g id="edge3" class="edge">
<title>Node4&#45;&gt;Node4</title>
<path fill="none" stroke="midnightblue" d="M317.07,-32.92C305.68,-41.73 313.48,-51.16 340.5,-51.16 358.23,-51.16 367.69,-47.1 368.87,-41.82"/>
<polygon fill="midnightblue" stroke="midnightblue" points="371.84,-39.96 363.93,-32.92 365.73,-43.36 371.84,-39.96"/>
</g>
</g>
</svg>
