<?xml version="1.0" encoding="UTF-8" standalone="no"?>
<!DOCTYPE svg PUBLIC "-//W3C//DTD SVG 1.1//EN"
 "http://www.w3.org/Graphics/SVG/1.1/DTD/svg11.dtd">
<!-- Generated by graphviz version 2.43.0 (0)
 -->
<!-- Title: getFromYaml Pages: 1 -->
<svg width="643pt" height="754pt"
 viewBox="0.00 0.00 643.00 754.42" xmlns="http://www.w3.org/2000/svg" xmlns:xlink="http://www.w3.org/1999/xlink">
<g id="graph0" class="graph" transform="scale(1 1) rotate(0) translate(4 750.42)">
<title>getFromYaml</title>
<polygon fill="white" stroke="transparent" points="-4,4 -4,-750.42 639,-750.42 639,4 -4,4"/>
<!-- Node1 -->
<g id="node1" class="node">
<title>Node1</title>
<g id="a_node1"><a xlink:title="Set satellite options from yaml.">
<polygon fill="#bfbfbf" stroke="black" points="555,-384.92 555,-403.92 635,-403.92 635,-384.92 555,-384.92"/>
<text text-anchor="middle" x="595" y="-391.92" font-family="Helvetica,sans-Serif" font-size="10.00">getFromYaml</text>
</a>
</g>
</g>
<!-- Node2 -->
<g id="node2" class="node">
<title>Node2</title>
<g id="a_node2"><a xlink:href="structACSConfig.html#a9f893b7ab2412f42ef7a02423d755940" target="_top" xlink:title="Set satellite options for a specific satellite using a hierarchy of sources.">
<polygon fill="white" stroke="black" points="390,-555.92 390,-574.92 518,-574.92 518,-555.92 390,-555.92"/>
<text text-anchor="middle" x="454" y="-562.92" font-family="Helvetica,sans-Serif" font-size="10.00">ACSConfig::getSatOpts</text>
</a>
</g>
</g>
<!-- Node1&#45;&gt;Node2 -->
<g id="edge1" class="edge">
<title>Node1&#45;&gt;Node2</title>
<path fill="none" stroke="midnightblue" d="M586.13,-404.1C561.66,-434.2 487.13,-525.89 462.79,-555.84"/>
</g>
<!-- Node21 -->
<g id="node14" class="node">
<title>Node21</title>
<g id="a_node14"><a xlink:href="structACSConfig.html#a7ddfbaf20a1c9181d73d0dabe92beace" target="_top" xlink:title="Set receiver options for a specific receiver using a hierarchy of sources.">
<polygon fill="white" stroke="black" points="389,-232.92 389,-251.92 519,-251.92 519,-232.92 389,-232.92"/>
<text text-anchor="middle" x="454" y="-239.92" font-family="Helvetica,sans-Serif" font-size="10.00">ACSConfig::getRecOpts</text>
</a>
</g>
</g>
<!-- Node1&#45;&gt;Node21 -->
<g id="edge13" class="edge">
<title>Node1&#45;&gt;Node21</title>
<path fill="none" stroke="midnightblue" d="M585.3,-384.91C560.34,-357.61 488.65,-279.22 463.69,-251.92"/>
</g>
<!-- Node3 -->
<g id="node3" class="node">
<title>Node3</title>
<g id="a_node3"><a xlink:href="GinAR__main_8cpp.html#a66a725f08fab953bf5032ef5093949e6" target="_top" xlink:title="Loading float ambiguity data from Observations (WL, cycle slip &amp; elevation)">
<polygon fill="white" stroke="black" points="246,-726.92 246,-745.92 329,-745.92 329,-726.92 246,-726.92"/>
<text text-anchor="middle" x="287.5" y="-733.92" font-family="Helvetica,sans-Serif" font-size="10.00">LoadFromObs</text>
</a>
</g>
</g>
<!-- Node2&#45;&gt;Node3 -->
<g id="edge2" class="edge">
<title>Node2&#45;&gt;Node3</title>
<path fill="none" stroke="midnightblue" d="M449.49,-574.93C439.13,-601.68 406.04,-678.12 353,-717.42 345.97,-722.63 337.52,-726.42 329.09,-729.17"/>
</g>
<!-- Node8 -->
<g id="node5" class="node">
<title>Node8</title>
<g id="a_node5"><a xlink:href="pea_2orbits_8cpp.html#a1622712ec83756c4135adb955846c90f" target="_top" xlink:title=" ">
<polygon fill="white" stroke="black" points="222,-688.92 222,-707.92 353,-707.92 353,-688.92 222,-688.92"/>
<text text-anchor="middle" x="287.5" y="-695.92" font-family="Helvetica,sans-Serif" font-size="10.00">dummyOrbitPropagator</text>
</a>
</g>
</g>
<!-- Node2&#45;&gt;Node8 -->
<g id="edge4" class="edge">
<title>Node2&#45;&gt;Node8</title>
<path fill="none" stroke="midnightblue" d="M447.31,-575C433.81,-596.9 397.59,-650.92 353,-679.42 347,-683.25 340.2,-686.34 333.31,-688.81"/>
</g>
<!-- Node9 -->
<g id="node6" class="node">
<title>Node9</title>
<g id="a_node6"><a xlink:href="preprocessor_8cpp.html#a3d7c124759fb61d2e94ab3b85e108399" target="_top" xlink:title=" ">
<polygon fill="white" stroke="black" points="91.5,-403.92 91.5,-422.92 171.5,-422.92 171.5,-403.92 91.5,-403.92"/>
<text text-anchor="middle" x="131.5" y="-410.92" font-family="Helvetica,sans-Serif" font-size="10.00">preprocessor</text>
</a>
</g>
</g>
<!-- Node2&#45;&gt;Node9 -->
<g id="edge5" class="edge">
<title>Node2&#45;&gt;Node9</title>
<path fill="none" stroke="midnightblue" d="M389.99,-567.13C341.03,-565.74 273.07,-557.63 222,-527.42 178.25,-501.54 147.82,-445.52 136.93,-423.04"/>
</g>
<!-- Node10 -->
<g id="node8" class="node">
<title>Node10</title>
<g id="a_node8"><a xlink:href="structACSConfig.html#a7956bea37dde8338349a7a2971c530e6" target="_top" xlink:title="Parse options to set acsConfig values.">
<polygon fill="white" stroke="red" points="237,-460.92 237,-479.92 338,-479.92 338,-460.92 237,-460.92"/>
<text text-anchor="middle" x="287.5" y="-467.92" font-family="Helvetica,sans-Serif" font-size="10.00">ACSConfig::parse</text>
</a>
</g>
</g>
<!-- Node2&#45;&gt;Node10 -->
<g id="edge7" class="edge">
<title>Node2&#45;&gt;Node10</title>
<path fill="none" stroke="midnightblue" d="M443.05,-555.84C425.97,-539.89 389.39,-507.82 353,-489.42 345.6,-485.68 337.35,-482.55 329.28,-479.98"/>
</g>
<!-- Node12 -->
<g id="node9" class="node">
<title>Node12</title>
<g id="a_node9"><a xlink:href="ppp__user_8cpp.html#ac0b785b6dec8932f23a644d4c41788de" target="_top" xlink:title=" ">
<polygon fill="white" stroke="red" points="100,-194.92 100,-213.92 163,-213.92 163,-194.92 100,-194.92"/>
<text text-anchor="middle" x="131.5" y="-201.92" font-family="Helvetica,sans-Serif" font-size="10.00">ppp_filter</text>
</a>
</g>
</g>
<!-- Node2&#45;&gt;Node12 -->
<g id="edge8" class="edge">
<title>Node2&#45;&gt;Node12</title>
<path fill="none" stroke="midnightblue" d="M447.04,-555.61C433.25,-533.7 396.93,-480.45 353,-451.42 301.88,-417.63 267.37,-449.61 222,-408.42 160.44,-352.52 139.15,-246.62 133.91,-214.14"/>
</g>
<!-- Node15 -->
<g id="node10" class="node">
<title>Node15</title>
<g id="a_node10"><a xlink:href="networkEstimator_8cpp.html#a36828506971a6b66c6e61db51197c9e1" target="_top" xlink:title="Estimates parameters for a network of stations simultaneously.">
<polygon fill="white" stroke="red" points="79.5,-137.92 79.5,-156.92 183.5,-156.92 183.5,-137.92 79.5,-137.92"/>
<text text-anchor="middle" x="131.5" y="-144.92" font-family="Helvetica,sans-Serif" font-size="10.00">networkEstimator</text>
</a>
</g>
</g>
<!-- Node2&#45;&gt;Node15 -->
<g id="edge9" class="edge">
<title>Node2&#45;&gt;Node15</title>
<path fill="none" stroke="midnightblue" d="M448.27,-555.88C435.31,-530.29 397.21,-458.62 353,-408.42 302.95,-351.57 264.22,-362.3 222,-299.42 192.38,-255.31 217.28,-228.37 186,-185.42 177.15,-173.26 163.2,-163.54 151.76,-156.97"/>
</g>
<!-- Node16 -->
<g id="node11" class="node">
<title>Node16</title>
<g id="a_node11"><a xlink:href="common_2orbits_8cpp.html#adbf44cc33c6497cf698ffbae0894eb14" target="_top" xlink:title="Output orbit file compatible with the pod.">
<polygon fill="white" stroke="red" points="251.5,-650.92 251.5,-669.92 323.5,-669.92 323.5,-650.92 251.5,-650.92"/>
<text text-anchor="middle" x="287.5" y="-657.92" font-family="Helvetica,sans-Serif" font-size="10.00">outputOrbit</text>
</a>
</g>
</g>
<!-- Node2&#45;&gt;Node16 -->
<g id="edge10" class="edge">
<title>Node2&#45;&gt;Node16</title>
<path fill="none" stroke="midnightblue" d="M443.05,-575C425.97,-590.95 389.39,-623.02 353,-641.42 343.83,-646.05 333.35,-649.75 323.53,-652.6"/>
</g>
<!-- Node18 -->
<g id="node12" class="node">
<title>Node18</title>
<g id="a_node12"><a xlink:href="ppppp__obs_8cpp.html#a3db2ffced7ab37c4874c3a53fcb7953e" target="_top" xlink:title=" ">
<polygon fill="white" stroke="red" points="253.5,-612.92 253.5,-631.92 321.5,-631.92 321.5,-612.92 253.5,-612.92"/>
<text text-anchor="middle" x="287.5" y="-619.92" font-family="Helvetica,sans-Serif" font-size="10.00">stationPPP</text>
</a>
</g>
</g>
<!-- Node2&#45;&gt;Node18 -->
<g id="edge11" class="edge">
<title>Node2&#45;&gt;Node18</title>
<path fill="none" stroke="midnightblue" d="M429.34,-575C409.2,-583.01 379.4,-594.53 353,-603.42 342.93,-606.81 331.87,-610.19 321.8,-613.14"/>
</g>
<!-- Node20 -->
<g id="node13" class="node">
<title>Node20</title>
<g id="a_node13"><a xlink:href="ppppp__pseudoobs_8cpp.html#ab255260e2ca2e89c21d280174f5a5a0b" target="_top" xlink:title=" ">
<polygon fill="white" stroke="red" points="244.5,-574.92 244.5,-593.92 330.5,-593.92 330.5,-574.92 244.5,-574.92"/>
<text text-anchor="middle" x="287.5" y="-581.92" font-family="Helvetica,sans-Serif" font-size="10.00">stationPseudo</text>
</a>
</g>
</g>
<!-- Node2&#45;&gt;Node20 -->
<g id="edge12" class="edge">
<title>Node2&#45;&gt;Node20</title>
<path fill="none" stroke="midnightblue" d="M389.87,-572.71C370.12,-574.99 348.81,-577.45 330.85,-579.53"/>
</g>
<!-- Node4 -->
<g id="node4" class="node">
<title>Node4</title>
<g id="a_node4"><a xlink:href="GinAR__main_8cpp.html#a5d80c7f56e03c96dc400839ceca50698" target="_top" xlink:title="Ambiguity resolution for network solutions.">
<polygon fill="white" stroke="red" points="77,-583.92 77,-602.92 186,-602.92 186,-583.92 77,-583.92"/>
<text text-anchor="middle" x="131.5" y="-590.92" font-family="Helvetica,sans-Serif" font-size="10.00">networkAmbigResl</text>
</a>
</g>
</g>
<!-- Node3&#45;&gt;Node4 -->
<g id="edge3" class="edge">
<title>Node3&#45;&gt;Node4</title>
<path fill="none" stroke="midnightblue" d="M245.74,-728.83C237.41,-726.1 229.05,-722.41 222,-717.42 178.01,-686.28 147.51,-626.55 136.76,-603.16"/>
</g>
<!-- Node7 -->
<g id="node7" class="node">
<title>Node7</title>
<g id="a_node7"><a xlink:href="main_8cpp.html#a3c04138a5bfe5d72780bb7e82a18e627" target="_top" xlink:title=" ">
<polygon fill="white" stroke="black" points="0,-137.92 0,-156.92 41,-156.92 41,-137.92 0,-137.92"/>
<text text-anchor="middle" x="20.5" y="-144.92" font-family="Helvetica,sans-Serif" font-size="10.00">main</text>
</a>
</g>
</g>
<!-- Node9&#45;&gt;Node7 -->
<g id="edge6" class="edge">
<title>Node9&#45;&gt;Node7</title>
<path fill="none" stroke="midnightblue" d="M126.49,-403.64C109.36,-361.83 42.41,-198.44 25.43,-157.01"/>
</g>
<!-- Node21&#45;&gt;Node4 -->
<g id="edge30" class="edge">
<title>Node21&#45;&gt;Node4</title>
<path fill="none" stroke="midnightblue" d="M442.54,-252.14C424.39,-268.98 385.86,-304.63 353,-334.42 295.16,-386.85 272.41,-391.82 222,-451.42 183.61,-496.81 149.57,-560.03 137.33,-583.84"/>
</g>
<!-- Node21&#45;&gt;Node9 -->
<g id="edge31" class="edge">
<title>Node21&#45;&gt;Node9</title>
<path fill="none" stroke="midnightblue" d="M438.25,-252.09C419.16,-264.3 384.6,-285.4 353,-299.42 296.99,-324.27 275.96,-313.37 222,-342.42 189.87,-359.72 157.69,-388.83 142.13,-403.83"/>
</g>
<!-- Node21&#45;&gt;Node7 -->
<g id="edge24" class="edge">
<title>Node21&#45;&gt;Node7</title>
<path fill="none" stroke="midnightblue" d="M452.16,-232.5C448.49,-196.25 430.39,-70.44 353,-20.42 237.57,54.18 71.7,-97.55 30.85,-137.91"/>
</g>
<!-- Node21&#45;&gt;Node10 -->
<g id="edge29" class="edge">
<title>Node21&#45;&gt;Node10</title>
<path fill="none" stroke="midnightblue" d="M446.14,-251.92C419.39,-289.01 322.19,-423.72 295.39,-460.87"/>
</g>
<!-- Node21&#45;&gt;Node12 -->
<g id="edge26" class="edge">
<title>Node21&#45;&gt;Node12</title>
<path fill="none" stroke="midnightblue" d="M450.86,-232.65C443.57,-202.04 416.54,-107.87 353,-71.42 302.5,-42.45 269.91,-38.34 222,-71.42 184.84,-97.07 213.6,-130.69 186,-166.42 176.74,-178.41 162.66,-188.2 151.27,-194.84"/>
</g>
<!-- Node21&#45;&gt;Node15 -->
<g id="edge18" class="edge">
<title>Node21&#45;&gt;Node15</title>
<path fill="none" stroke="midnightblue" d="M451.63,-232.62C446.33,-199 423.85,-88.01 353,-44.42 303.41,-13.91 274.98,-20.27 222,-44.42 178.89,-64.07 148.51,-115.88 137.29,-137.61"/>
</g>
<!-- Node21&#45;&gt;Node18 -->
<g id="edge14" class="edge">
<title>Node21&#45;&gt;Node18</title>
<path fill="none" stroke="midnightblue" d="M451.59,-252.19C443.87,-304.43 405.11,-550.45 353,-603.42 344.73,-611.82 332.95,-616.55 321.71,-619.2"/>
</g>
<!-- Node22 -->
<g id="node15" class="node">
<title>Node22</title>
<g id="a_node15"><a xlink:href="ppppp_8cpp.html#a5485965295cbc1a764c2c64c361f99a9" target="_top" xlink:title="Replace individual measurements with linear combinations.">
<polygon fill="white" stroke="red" points="257,-232.92 257,-251.92 318,-251.92 318,-232.92 257,-232.92"/>
<text text-anchor="middle" x="287.5" y="-239.92" font-family="Helvetica,sans-Serif" font-size="10.00">makeLCs</text>
</a>
</g>
</g>
<!-- Node21&#45;&gt;Node22 -->
<g id="edge15" class="edge">
<title>Node21&#45;&gt;Node22</title>
<path fill="none" stroke="midnightblue" d="M388.93,-242.42C364.57,-242.42 337.98,-242.42 318.27,-242.42"/>
</g>
<!-- Node23 -->
<g id="node16" class="node">
<title>Node23</title>
<g id="a_node16"><a xlink:href="ppp__user_8cpp.html#a123a4552194f4fd53016c9609a867d17" target="_top" xlink:title=" ">
<polygon fill="white" stroke="black" points="251.5,-194.92 251.5,-213.92 323.5,-213.92 323.5,-194.92 251.5,-194.92"/>
<text text-anchor="middle" x="287.5" y="-201.92" font-family="Helvetica,sans-Serif" font-size="10.00">udbias_ppp</text>
</a>
</g>
</g>
<!-- Node21&#45;&gt;Node23 -->
<g id="edge16" class="edge">
<title>Node21&#45;&gt;Node23</title>
<path fill="none" stroke="midnightblue" d="M411.49,-232.83C384.36,-226.56 349.33,-218.47 323.59,-212.53"/>
</g>
<!-- Node24 -->
<g id="node17" class="node">
<title>Node24</title>
<g id="a_node17"><a xlink:href="ppppp_8cpp.html#a0544cce952f9b2692ee25b1aa22753c0" target="_top" xlink:title="Update the accelerations applied to orbital elements during the interval between epochs.">
<polygon fill="white" stroke="red" points="237,-270.92 237,-289.92 338,-289.92 338,-270.92 237,-270.92"/>
<text text-anchor="middle" x="287.5" y="-277.92" font-family="Helvetica,sans-Serif" font-size="10.00">updateRecClocks</text>
</a>
</g>
</g>
<!-- Node21&#45;&gt;Node24 -->
<g id="edge19" class="edge">
<title>Node21&#45;&gt;Node24</title>
<path fill="none" stroke="midnightblue" d="M411.49,-252.01C386.46,-257.79 354.69,-265.13 329.71,-270.9"/>
</g>
<!-- Node25 -->
<g id="node18" class="node">
<title>Node25</title>
<g id="a_node18"><a xlink:href="networkEstimator_8cpp.html#a552f5bd62ab4b7d536fa38bf0924a849" target="_top" xlink:title="Remove ambiguity states from filter when they deemed old or bad This effectively reinitialises them o...">
<polygon fill="white" stroke="red" points="222,-156.92 222,-175.92 353,-175.92 353,-156.92 222,-156.92"/>
<text text-anchor="middle" x="287.5" y="-163.92" font-family="Helvetica,sans-Serif" font-size="10.00">removeBadAmbiguities</text>
</a>
</g>
</g>
<!-- Node21&#45;&gt;Node25 -->
<g id="edge20" class="edge">
<title>Node21&#45;&gt;Node25</title>
<path fill="none" stroke="midnightblue" d="M438.64,-232.81C419.69,-220.47 385,-199.03 353,-185.42 344.51,-181.81 335.12,-178.62 326.19,-175.93"/>
</g>
<!-- Node26 -->
<g id="node19" class="node">
<title>Node26</title>
<g id="a_node19"><a xlink:href="networkEstimator_8cpp.html#ac12f8c95166096d5ea861f0b8213c9a8" target="_top" xlink:title="Check and correct clock jitter/wraparound.">
<polygon fill="white" stroke="black" points="237,-118.92 237,-137.92 338,-137.92 338,-118.92 237,-118.92"/>
<text text-anchor="middle" x="287.5" y="-125.92" font-family="Helvetica,sans-Serif" font-size="10.00">correctRecClocks</text>
</a>
</g>
</g>
<!-- Node21&#45;&gt;Node26 -->
<g id="edge22" class="edge">
<title>Node21&#45;&gt;Node26</title>
<path fill="none" stroke="midnightblue" d="M445.56,-232.78C430.3,-213.66 393.45,-170.75 353,-147.42 346.33,-143.57 338.81,-140.44 331.32,-137.92"/>
</g>
<!-- Node27 -->
<g id="node20" class="node">
<title>Node27</title>
<g id="a_node20"><a xlink:href="main_8cpp.html#a32bd79fa27f816f5f13badbebe4e15b2" target="_top" xlink:title="Create a station object from a file.">
<polygon fill="white" stroke="red" points="233,-80.92 233,-99.92 342,-99.92 342,-80.92 233,-80.92"/>
<text text-anchor="middle" x="287.5" y="-87.92" font-family="Helvetica,sans-Serif" font-size="10.00">addStationDataFile</text>
</a>
</g>
</g>
<!-- Node21&#45;&gt;Node27 -->
<g id="edge25" class="edge">
<title>Node21&#45;&gt;Node27</title>
<path fill="none" stroke="midnightblue" d="M448.47,-232.7C436.52,-208.15 401.67,-143.16 353,-109.42 347.44,-105.56 341.08,-102.48 334.58,-100.01"/>
</g>
<!-- Node29 -->
<g id="node21" class="node">
<title>Node29</title>
<g id="a_node21"><a xlink:href="preprocessor_8cpp.html#a5bf581abef6389557c3fdd95086a5c42" target="_top" xlink:title=" ">
<polygon fill="white" stroke="black" points="246.5,-498.92 246.5,-517.92 328.5,-517.92 328.5,-498.92 246.5,-498.92"/>
<text text-anchor="middle" x="287.5" y="-505.92" font-family="Helvetica,sans-Serif" font-size="10.00">obsVariances</text>
</a>
</g>
</g>
<!-- Node21&#45;&gt;Node29 -->
<g id="edge27" class="edge">
<title>Node21&#45;&gt;Node29</title>
<path fill="none" stroke="midnightblue" d="M452.04,-252.14C447.88,-288.99 428.07,-421.38 353,-489.42 346.17,-495.61 337.41,-499.79 328.56,-502.61"/>
</g>
<!-- Node23&#45;&gt;Node12 -->
<g id="edge17" class="edge">
<title>Node23&#45;&gt;Node12</title>
<path fill="none" stroke="midnightblue" d="M251.17,-204.42C224.62,-204.42 188.61,-204.42 163.24,-204.42"/>
</g>
<!-- Node25&#45;&gt;Node15 -->
<g id="edge21" class="edge">
<title>Node25&#45;&gt;Node15</title>
<path fill="none" stroke="midnightblue" d="M221.64,-158.42C208.98,-156.85 195.87,-155.24 183.73,-153.74"/>
</g>
<!-- Node26&#45;&gt;Node15 -->
<g id="edge23" class="edge">
<title>Node26&#45;&gt;Node15</title>
<path fill="none" stroke="midnightblue" d="M236.93,-134.53C219.87,-136.64 200.74,-139 183.57,-141.12"/>
</g>
<!-- Node29&#45;&gt;Node9 -->
<g id="edge28" class="edge">
<title>Node29&#45;&gt;Node9</title>
<path fill="none" stroke="midnightblue" d="M246.24,-499.38C237.96,-496.75 229.5,-493.47 222,-489.42 188.46,-471.3 156.16,-439.1 141.19,-423.06"/>
</g>
</g>
</svg>
