<?xml version="1.0" encoding="UTF-8" standalone="no"?>
<!DOCTYPE svg PUBLIC "-//W3C//DTD SVG 1.1//EN"
 "http://www.w3.org/Graphics/SVG/1.1/DTD/svg11.dtd">
<!-- Generated by graphviz version 2.43.0 (0)
 -->
<!-- Title: configure Pages: 1 -->
<svg width="335pt" height="121pt"
 viewBox="0.00 0.00 335.00 120.62" xmlns="http://www.w3.org/2000/svg" xmlns:xlink="http://www.w3.org/1999/xlink">
<g id="graph0" class="graph" transform="scale(1 1) rotate(0) translate(4 116.62)">
<title>configure</title>
<polygon fill="white" stroke="transparent" points="-4,4 -4,-116.62 331,-116.62 331,4 -4,4"/>
<!-- Node1 -->
<g id="node1" class="node">
<title>Node1</title>
<g id="a_node1"><a xlink:title="Prepare the configuration of the program.">
<polygon fill="#bfbfbf" stroke="black" points="0,-36.12 0,-55.12 62,-55.12 62,-36.12 0,-36.12"/>
<text text-anchor="middle" x="31" y="-43.12" font-family="Helvetica,sans-Serif" font-size="10.00">configure</text>
</a>
</g>
</g>
<!-- Node2 -->
<g id="node2" class="node">
<title>Node2</title>
<g id="a_node2"><a xlink:href="structACSConfig.html#a7956bea37dde8338349a7a2971c530e6" target="_top" xlink:title="Parse options to set acsConfig values.">
<polygon fill="white" stroke="red" points="98,-93.12 98,-112.12 199,-112.12 199,-93.12 98,-93.12"/>
<text text-anchor="middle" x="148.5" y="-100.12" font-family="Helvetica,sans-Serif" font-size="10.00">ACSConfig::parse</text>
</a>
</g>
</g>
<!-- Node1&#45;&gt;Node2 -->
<g id="edge1" class="edge">
<title>Node1&#45;&gt;Node2</title>
<path fill="none" stroke="midnightblue" d="M51.03,-55.21C64.2,-61.83 82.14,-70.81 98,-78.62 107.77,-83.43 118.65,-88.72 127.72,-93.1"/>
</g>
<!-- Node3 -->
<g id="node3" class="node">
<title>Node3</title>
<g id="a_node3"><a xlink:href="structACSConfig.html#abfdda0f4ad8ee782bf0e2e0088ade882" target="_top" xlink:title="Print out the configuration data that has been read in.">
<polygon fill="white" stroke="black" points="235,-64.12 235,-83.12 327,-83.12 327,-64.12 235,-64.12"/>
<text text-anchor="middle" x="281" y="-71.12" font-family="Helvetica,sans-Serif" font-size="10.00">ACSConfig::info</text>
</a>
</g>
</g>
<!-- Node1&#45;&gt;Node3 -->
<g id="edge3" class="edge">
<title>Node1&#45;&gt;Node3</title>
<path fill="none" stroke="midnightblue" d="M62.41,-49.05C105.48,-53.92 184.57,-62.85 234.6,-68.5"/>
</g>
<!-- Node35 -->
<g id="node4" class="node">
<title>Node35</title>
<g id="a_node4"><a xlink:href="acsConfig_8cpp.html#a730af658b2d0567252d8a37b3982f2f3" target="_top" xlink:title=" ">
<polygon fill="white" stroke="black" points="102.5,-17.12 102.5,-36.12 194.5,-36.12 194.5,-17.12 102.5,-17.12"/>
<text text-anchor="middle" x="148.5" y="-24.12" font-family="Helvetica,sans-Serif" font-size="10.00">checkValidFiles</text>
</a>
</g>
</g>
<!-- Node1&#45;&gt;Node35 -->
<g id="edge4" class="edge">
<title>Node1&#45;&gt;Node35</title>
<path fill="none" stroke="midnightblue" d="M62.04,-40.68C74.34,-38.66 88.84,-36.27 102.36,-34.05"/>
</g>
<!-- Node36 -->
<g id="node5" class="node">
<title>Node36</title>
<g id="a_node5"><a xlink:href="acsConfig_8cpp.html#aa470c1c369d2c030cdd6bd250a1ed375" target="_top" xlink:title="Check that filename is valid and the file exists.">
<polygon fill="white" stroke="black" points="238,-7.12 238,-26.12 324,-26.12 324,-7.12 238,-7.12"/>
<text text-anchor="middle" x="281" y="-14.12" font-family="Helvetica,sans-Serif" font-size="10.00">checkValidFile</text>
</a>
</g>
</g>
<!-- Node1&#45;&gt;Node36 -->
<g id="edge6" class="edge">
<title>Node1&#45;&gt;Node36</title>
<path fill="none" stroke="midnightblue" d="M44.26,-35.9C56.89,-26.56 77.56,-13.08 98,-7.62 144.61,4.84 200.27,-0.74 237.66,-7.29"/>
</g>
<!-- Node2&#45;&gt;Node3 -->
<g id="edge2" class="edge">
<title>Node2&#45;&gt;Node3</title>
<path fill="none" stroke="midnightblue" d="M192.59,-93.05C206.85,-89.88 222.7,-86.35 236.95,-83.19"/>
</g>
<!-- Node35&#45;&gt;Node36 -->
<g id="edge5" class="edge">
<title>Node35&#45;&gt;Node36</title>
<path fill="none" stroke="midnightblue" d="M194.78,-23.15C208.76,-22.08 224.11,-20.9 237.87,-19.85"/>
</g>
</g>
</svg>
