<?xml version="1.0" encoding="UTF-8" standalone="no"?>
<!DOCTYPE svg PUBLIC "-//W3C//DTD SVG 1.1//EN"
 "http://www.w3.org/Graphics/SVG/1.1/DTD/svg11.dtd">
<!-- Generated by graphviz version 2.43.0 (0)
 -->
<!-- Title: tryAddRootToPath Pages: 1 -->
<svg width="389pt" height="85pt"
 viewBox="0.00 0.00 389.00 85.00" xmlns="http://www.w3.org/2000/svg" xmlns:xlink="http://www.w3.org/1999/xlink">
<g id="graph0" class="graph" transform="scale(1 1) rotate(0) translate(4 81)">
<title>tryAddRootToPath</title>
<polygon fill="white" stroke="transparent" points="-4,4 -4,-81 385,-81 385,4 -4,4"/>
<!-- Node1 -->
<g id="node1" class="node">
<title>Node1</title>
<g id="a_node1"><a xlink:title="Filename to prepend root path to.">
<polygon fill="#bfbfbf" stroke="black" points="277,-19.5 277,-38.5 381,-38.5 381,-19.5 277,-19.5"/>
<text text-anchor="middle" x="329" y="-26.5" font-family="Helvetica,sans-Serif" font-size="10.00">tryAddRootToPath</text>
</a>
</g>
</g>
<!-- Node2 -->
<g id="node2" class="node">
<title>Node2</title>
<g id="a_node2"><a xlink:href="acsConfig_8cpp.html#a8a6dedf0116b7581a605e02771b0b255" target="_top" xlink:title="Add a root to paths that are not already absolutely defined.">
<polygon fill="white" stroke="black" points="137,-57.5 137,-76.5 241,-76.5 241,-57.5 137,-57.5"/>
<text text-anchor="middle" x="189" y="-64.5" font-family="Helvetica,sans-Serif" font-size="10.00">tryAddRootToPath</text>
</a>
</g>
</g>
<!-- Node1&#45;&gt;Node2 -->
<g id="edge1" class="edge">
<title>Node1&#45;&gt;Node2</title>
<path fill="none" stroke="midnightblue" d="M293.18,-38.59C272.26,-44.35 245.73,-51.65 224.81,-57.41"/>
</g>
<!-- Node3 -->
<g id="node3" class="node">
<title>Node3</title>
<g id="a_node3"><a xlink:href="acsConfig_8cpp.html#a9cccd776b759705208f46b6277233311" target="_top" xlink:title=" ">
<polygon fill="white" stroke="black" points="147,-19.5 147,-38.5 231,-38.5 231,-19.5 147,-19.5"/>
<text text-anchor="middle" x="189" y="-26.5" font-family="Helvetica,sans-Serif" font-size="10.00">tryPatchPaths</text>
</a>
</g>
</g>
<!-- Node1&#45;&gt;Node3 -->
<g id="edge2" class="edge">
<title>Node1&#45;&gt;Node3</title>
<path fill="none" stroke="midnightblue" d="M276.61,-29C261.59,-29 245.38,-29 231.09,-29"/>
</g>
<!-- Node4 -->
<g id="node4" class="node">
<title>Node4</title>
<g id="a_node4"><a xlink:href="structACSConfig.html#a33ef8a76d552f3e0e34cb950f7b730ee" target="_top" xlink:title="Parse options to set acsConfig values.">
<polygon fill="white" stroke="red" points="0,-0.5 0,-19.5 101,-19.5 101,-0.5 0,-0.5"/>
<text text-anchor="middle" x="50.5" y="-7.5" font-family="Helvetica,sans-Serif" font-size="10.00">ACSConfig::parse</text>
</a>
</g>
</g>
<!-- Node1&#45;&gt;Node4 -->
<g id="edge4" class="edge">
<title>Node1&#45;&gt;Node4</title>
<path fill="none" stroke="midnightblue" d="M292.73,-19.49C277.02,-15.73 258.22,-11.86 241,-10 193.73,-4.9 139.45,-5.56 101.13,-7.1"/>
</g>
<!-- Node3&#45;&gt;Node4 -->
<g id="edge3" class="edge">
<title>Node3&#45;&gt;Node4</title>
<path fill="none" stroke="midnightblue" d="M146.68,-23.25C132.39,-21.26 116.24,-19.01 101.35,-16.94"/>
</g>
</g>
</svg>
