<?xml version="1.0" encoding="UTF-8" standalone="no"?>
<!DOCTYPE svg PUBLIC "-//W3C//DTD SVG 1.1//EN"
 "http://www.w3.org/Graphics/SVG/1.1/DTD/svg11.dtd">
<!-- Generated by graphviz version 2.43.0 (0)
 -->
<!-- Title: replaceString Pages: 1 -->
<svg width="535pt" height="202pt"
 viewBox="0.00 0.00 535.00 202.04" xmlns="http://www.w3.org/2000/svg" xmlns:xlink="http://www.w3.org/1999/xlink">
<g id="graph0" class="graph" transform="scale(1 1) rotate(0) translate(4 198.04)">
<title>replaceString</title>
<polygon fill="white" stroke="transparent" points="-4,4 -4,-198.04 531,-198.04 531,4 -4,4"/>
<!-- Node1 -->
<g id="node1" class="node">
<title>Node1</title>
<g id="a_node1"><a xlink:title="search for and replace section of string">
<polygon fill="#bfbfbf" stroke="black" points="446,-79.54 446,-98.54 527,-98.54 527,-79.54 446,-79.54"/>
<text text-anchor="middle" x="486.5" y="-86.54" font-family="Helvetica,sans-Serif" font-size="10.00">replaceString</text>
</a>
</g>
</g>
<!-- Node2 -->
<g id="node2" class="node">
<title>Node2</title>
<g id="a_node2"><a xlink:href="acsConfig_8cpp.html#a2fb6a351dc0cac89305989af6ca205d5" target="_top" xlink:title="Replace macros for times with configured values.">
<polygon fill="white" stroke="red" points="317.5,-174.54 317.5,-193.54 391.5,-193.54 391.5,-174.54 317.5,-174.54"/>
<text text-anchor="middle" x="354.5" y="-181.54" font-family="Helvetica,sans-Serif" font-size="10.00">replaceTags</text>
</a>
</g>
</g>
<!-- Node1&#45;&gt;Node2 -->
<g id="edge1" class="edge">
<title>Node1&#45;&gt;Node2</title>
<path fill="none" stroke="midnightblue" d="M478.42,-98.59C466.15,-114.5 439.43,-146.5 410,-165.04 404.06,-168.78 397.3,-171.89 390.6,-174.44"/>
</g>
<!-- Node10 -->
<g id="node3" class="node">
<title>Node10</title>
<g id="a_node3"><a xlink:href="acsConfig_8cpp.html#a75a34dc41e76a8680e3aa6d62ff4c800" target="_top" xlink:title="Replace macros for times with numeric values.">
<polygon fill="white" stroke="red" points="313.5,-136.54 313.5,-155.54 395.5,-155.54 395.5,-136.54 313.5,-136.54"/>
<text text-anchor="middle" x="354.5" y="-143.54" font-family="Helvetica,sans-Serif" font-size="10.00">replaceTimes</text>
</a>
</g>
</g>
<!-- Node1&#45;&gt;Node10 -->
<g id="edge2" class="edge">
<title>Node1&#45;&gt;Node10</title>
<path fill="none" stroke="midnightblue" d="M463.74,-98.58C439.74,-109.1 401.36,-125.93 377.33,-136.47"/>
</g>
<!-- Node12 -->
<g id="node4" class="node">
<title>Node12</title>
<g id="a_node4"><a xlink:href="main_8cpp.html#a260404f91dd3104c4f794029943c96ab" target="_top" xlink:title=" ">
<polygon fill="white" stroke="black" points="141,-98.54 141,-117.54 253,-117.54 253,-98.54 141,-98.54"/>
<text text-anchor="middle" x="197" y="-105.54" font-family="Helvetica,sans-Serif" font-size="10.00">createNewTraceFile</text>
</a>
</g>
</g>
<!-- Node1&#45;&gt;Node12 -->
<g id="edge7" class="edge">
<title>Node1&#45;&gt;Node12</title>
<path fill="none" stroke="midnightblue" d="M445.83,-91.66C395.84,-94.97 309.67,-100.66 253.25,-104.39"/>
</g>
<!-- Node13 -->
<g id="node5" class="node">
<title>Node13</title>
<g id="a_node5"><a xlink:href="main_8cpp.html#a29d52cfc981619584262b20b497865db" target="_top" xlink:title="Create new empty trace files only when required when the filename is changed.">
<polygon fill="white" stroke="red" points="0,-60.54 0,-79.54 95,-79.54 95,-60.54 0,-60.54"/>
<text text-anchor="middle" x="47.5" y="-67.54" font-family="Helvetica,sans-Serif" font-size="10.00">createTracefiles</text>
</a>
</g>
</g>
<!-- Node1&#45;&gt;Node13 -->
<g id="edge8" class="edge">
<title>Node1&#45;&gt;Node13</title>
<path fill="none" stroke="midnightblue" d="M445.95,-87.32C365.16,-83.81 181.57,-75.83 95.14,-72.07"/>
</g>
<!-- Node14 -->
<g id="node6" class="node">
<title>Node14</title>
<g id="a_node6"><a xlink:href="rinexClkWrite_8cpp.html#a87a652e05ec91c35c1e56c0650176dfa" target="_top" xlink:title=" ">
<polygon fill="white" stroke="red" points="131,-22.54 131,-41.54 263,-41.54 263,-22.54 131,-22.54"/>
<text text-anchor="middle" x="197" y="-29.54" font-family="Helvetica,sans-Serif" font-size="10.00">getSysOutputFilenames</text>
</a>
</g>
</g>
<!-- Node1&#45;&gt;Node14 -->
<g id="edge10" class="edge">
<title>Node1&#45;&gt;Node14</title>
<path fill="none" stroke="midnightblue" d="M479.71,-79.47C468.68,-62.28 442.8,-26.69 410,-13.04 346.71,13.3 263.83,-8.51 222.98,-22.52"/>
</g>
<!-- Node33 -->
<g id="node7" class="node">
<title>Node33</title>
<g id="a_node7"><a xlink:href="slrObs_8cpp.html#a8f4c7f3ebd17e93d03acee01f5e9862e" target="_top" xlink:title="Outputs a tabular file with SLR observations in time&#45;order.">
<polygon fill="white" stroke="red" points="299,-22.54 299,-41.54 410,-41.54 410,-22.54 299,-22.54"/>
<text text-anchor="middle" x="354.5" y="-29.54" font-family="Helvetica,sans-Serif" font-size="10.00">outputSortedSlrObs</text>
</a>
</g>
</g>
<!-- Node1&#45;&gt;Node33 -->
<g id="edge9" class="edge">
<title>Node1&#45;&gt;Node33</title>
<path fill="none" stroke="midnightblue" d="M463.74,-79.5C439.74,-68.98 401.36,-52.15 377.33,-41.61"/>
</g>
<!-- Node10&#45;&gt;Node12 -->
<g id="edge3" class="edge">
<title>Node10&#45;&gt;Node12</title>
<path fill="none" stroke="midnightblue" d="M314.26,-136.45C290.6,-130.67 260.57,-123.33 236.96,-117.56"/>
</g>
<!-- Node10&#45;&gt;Node14 -->
<g id="edge5" class="edge">
<title>Node10&#45;&gt;Node14</title>
<path fill="none" stroke="midnightblue" d="M340.51,-136.52C311.31,-115.11 240.75,-63.38 211.28,-41.78"/>
</g>
<!-- Node12&#45;&gt;Node13 -->
<g id="edge4" class="edge">
<title>Node12&#45;&gt;Node13</title>
<path fill="none" stroke="midnightblue" d="M158.78,-98.45C136.33,-92.67 107.85,-85.33 85.45,-79.56"/>
</g>
<!-- Node14&#45;&gt;Node13 -->
<g id="edge6" class="edge">
<title>Node14&#45;&gt;Node13</title>
<path fill="none" stroke="midnightblue" d="M158.78,-41.63C136.33,-47.41 107.85,-54.75 85.45,-60.52"/>
</g>
</g>
</svg>
