<?xml version="1.0" encoding="UTF-8" standalone="no"?>
<!DOCTYPE svg PUBLIC "-//W3C//DTD SVG 1.1//EN"
 "http://www.w3.org/Graphics/SVG/1.1/DTD/svg11.dtd">
<!-- Generated by graphviz version 2.43.0 (0)
 -->
<!-- Title: trySetKalmanFromYaml Pages: 1 -->
<svg width="559pt" height="111pt"
 viewBox="0.00 0.00 559.00 111.18" xmlns="http://www.w3.org/2000/svg" xmlns:xlink="http://www.w3.org/1999/xlink">
<g id="graph0" class="graph" transform="scale(1 1) rotate(0) translate(4 107.18)">
<title>trySetKalmanFromYaml</title>
<polygon fill="white" stroke="transparent" points="-4,4 -4,-107.18 555,-107.18 555,4 -4,4"/>
<!-- Node1 -->
<g id="node1" class="node">
<title>Node1</title>
<g id="a_node1"><a xlink:title="Set the variables associated with kalman filter states from yaml.">
<polygon fill="#bfbfbf" stroke="black" points="0,-45.68 0,-64.68 131,-64.68 131,-45.68 0,-45.68"/>
<text text-anchor="middle" x="65.5" y="-52.68" font-family="Helvetica,sans-Serif" font-size="10.00">trySetKalmanFromYaml</text>
</a>
</g>
</g>
<!-- Node2 -->
<g id="node2" class="node">
<title>Node2</title>
<g id="a_node2"><a xlink:href="acsConfig_8cpp.html#a5d035c64332701c7ae41cbd84a93c379" target="_top" xlink:title="Get an object within a hierarchy of yaml structure using a vector of nodes.">
<polygon fill="white" stroke="black" points="297,-83.68 297,-102.68 412,-102.68 412,-83.68 297,-83.68"/>
<text text-anchor="middle" x="354.5" y="-90.68" font-family="Helvetica,sans-Serif" font-size="10.00">stringsToYamlObject</text>
</a>
</g>
</g>
<!-- Node1&#45;&gt;Node2 -->
<g id="edge1" class="edge">
<title>Node1&#45;&gt;Node2</title>
<path fill="none" stroke="midnightblue" d="M112.39,-64.71C129.48,-68.03 149.08,-71.58 167,-74.18 210.32,-80.47 259.6,-85.4 296.62,-88.66"/>
</g>
<!-- Node4 -->
<g id="node4" class="node">
<title>Node4</title>
<g id="a_node4"><a xlink:href="acsConfig_8cpp.html#a555e819507c7608d463fedb0616a95ff" target="_top" xlink:title="Set an output from yaml object if found.">
<polygon fill="white" stroke="black" points="167,-45.68 167,-64.68 261,-64.68 261,-45.68 167,-45.68"/>
<text text-anchor="middle" x="214" y="-52.68" font-family="Helvetica,sans-Serif" font-size="10.00">trySetFromYaml</text>
</a>
</g>
</g>
<!-- Node1&#45;&gt;Node4 -->
<g id="edge3" class="edge">
<title>Node1&#45;&gt;Node4</title>
<path fill="none" stroke="midnightblue" d="M131.18,-55.18C143.14,-55.18 155.41,-55.18 166.68,-55.18"/>
</g>
<!-- Node6 -->
<g id="node6" class="node">
<title>Node6</title>
<g id="a_node6"><a xlink:href="acsConfig_8cpp.html#afab657b38e8402e86a8daef8a8f7d09f" target="_top" xlink:title="Set an enum from yaml, decoding strings to ints.">
<polygon fill="white" stroke="black" points="168.5,-7.68 168.5,-26.68 259.5,-26.68 259.5,-7.68 168.5,-7.68"/>
<text text-anchor="middle" x="214" y="-14.68" font-family="Helvetica,sans-Serif" font-size="10.00">trySetEnumOpt</text>
</a>
</g>
</g>
<!-- Node1&#45;&gt;Node6 -->
<g id="edge7" class="edge">
<title>Node1&#45;&gt;Node6</title>
<path fill="none" stroke="midnightblue" d="M103.47,-45.59C125.76,-39.81 154.05,-32.47 176.3,-26.7"/>
</g>
<!-- Node3 -->
<g id="node3" class="node">
<title>Node3</title>
<g id="a_node3"><a xlink:href="acsConfig_8cpp.html#a07d7ac25e6836e7aa96b396c2b2e4fb6" target="_top" xlink:title=" ">
<polygon fill="white" stroke="black" points="448,-7.68 448,-26.68 551,-26.68 551,-7.68 448,-7.68"/>
<text text-anchor="middle" x="499.5" y="-14.68" font-family="Helvetica,sans-Serif" font-size="10.00">nonNumericStack</text>
</a>
</g>
</g>
<!-- Node2&#45;&gt;Node3 -->
<g id="edge2" class="edge">
<title>Node2&#45;&gt;Node3</title>
<path fill="none" stroke="midnightblue" d="M388.64,-83.63C396.46,-80.94 404.65,-77.76 412,-74.18 440.13,-60.47 469.98,-39.07 486.22,-26.76"/>
</g>
<!-- Node4&#45;&gt;Node2 -->
<g id="edge4" class="edge">
<title>Node4&#45;&gt;Node2</title>
<path fill="none" stroke="midnightblue" d="M249.95,-64.77C270.94,-70.53 297.57,-77.84 318.56,-83.6"/>
</g>
<!-- Node4&#45;&gt;Node3 -->
<g id="edge6" class="edge">
<title>Node4&#45;&gt;Node3</title>
<path fill="none" stroke="midnightblue" d="M251.53,-45.62C265.65,-42.21 282,-38.62 297,-36.18 347.99,-27.91 406.86,-22.87 447.75,-20.08"/>
</g>
<!-- Node5 -->
<g id="node5" class="node">
<title>Node5</title>
<g id="a_node5"><a xlink:href="acsConfig_8cpp.html#a4af49116a961306767d98dcc5f106c4f" target="_top" xlink:title=" ">
<polygon fill="white" stroke="black" points="326,-45.68 326,-64.68 383,-64.68 383,-45.68 326,-45.68"/>
<text text-anchor="middle" x="354.5" y="-52.68" font-family="Helvetica,sans-Serif" font-size="10.00">stringify</text>
</a>
</g>
</g>
<!-- Node4&#45;&gt;Node5 -->
<g id="edge5" class="edge">
<title>Node4&#45;&gt;Node5</title>
<path fill="none" stroke="midnightblue" d="M261.12,-55.18C282.52,-55.18 307.26,-55.18 325.74,-55.18"/>
</g>
<!-- Node6&#45;&gt;Node2 -->
<g id="edge8" class="edge">
<title>Node6&#45;&gt;Node2</title>
<path fill="none" stroke="midnightblue" d="M243.7,-26.85C249.66,-29.45 255.73,-32.56 261,-36.18 280.17,-49.36 277.39,-61.66 297,-74.18 302.93,-77.97 309.7,-81.09 316.44,-83.62"/>
</g>
<!-- Node6&#45;&gt;Node3 -->
<g id="edge9" class="edge">
<title>Node6&#45;&gt;Node3</title>
<path fill="none" stroke="midnightblue" d="M259.51,-8.18C271.62,-6.11 284.77,-4.22 297,-3.18 347.93,1.13 361.05,0.91 412,-3.18 423.83,-4.13 436.48,-5.8 448.35,-7.67"/>
</g>
</g>
</svg>
