<?xml version="1.0" encoding="UTF-8" standalone="no"?>
<!DOCTYPE svg PUBLIC "-//W3C//DTD SVG 1.1//EN"
 "http://www.w3.org/Graphics/SVG/1.1/DTD/svg11.dtd">
<!-- Generated by graphviz version 2.43.0 (0)
 -->
<!-- Title: getFromYaml Pages: 1 -->
<svg width="536pt" height="126pt"
 viewBox="0.00 0.00 536.00 126.13" xmlns="http://www.w3.org/2000/svg" xmlns:xlink="http://www.w3.org/1999/xlink">
<g id="graph0" class="graph" transform="scale(1 1) rotate(0) translate(4 122.13)">
<title>getFromYaml</title>
<polygon fill="white" stroke="transparent" points="-4,4 -4,-122.13 532,-122.13 532,4 -4,4"/>
<!-- Node1 -->
<g id="node1" class="node">
<title>Node1</title>
<g id="a_node1"><a xlink:title="Set satellite options from yaml.">
<polygon fill="#bfbfbf" stroke="black" points="0,-57.5 0,-76.5 80,-76.5 80,-57.5 0,-57.5"/>
<text text-anchor="middle" x="40" y="-64.5" font-family="Helvetica,sans-Serif" font-size="10.00">getFromYaml</text>
</a>
</g>
</g>
<!-- Node2 -->
<g id="node2" class="node">
<title>Node2</title>
<g id="a_node2"><a xlink:href="acsConfig_8cpp.html#a5d035c64332701c7ae41cbd84a93c379" target="_top" xlink:title="Get an object within a hierarchy of yaml structure using a vector of nodes.">
<polygon fill="white" stroke="red" points="413,-76.5 413,-95.5 528,-95.5 528,-76.5 413,-76.5"/>
<text text-anchor="middle" x="470.5" y="-83.5" font-family="Helvetica,sans-Serif" font-size="10.00">stringsToYamlObject</text>
</a>
</g>
</g>
<!-- Node1&#45;&gt;Node2 -->
<g id="edge1" class="edge">
<title>Node1&#45;&gt;Node2</title>
<path fill="none" stroke="midnightblue" d="M54.88,-76.56C69.37,-85.92 93.14,-99.54 116,-105 226.89,-131.49 362.68,-109.61 429.07,-95.56"/>
</g>
<!-- Node5 -->
<g id="node3" class="node">
<title>Node5</title>
<g id="a_node3"><a xlink:href="acsConfig_8cpp.html#a34210b9c09f237553e38e62d82092f3c" target="_top" xlink:title="Set the variables associated with kalman filter states from yaml.">
<polygon fill="white" stroke="red" points="116,-76.5 116,-95.5 247,-95.5 247,-76.5 116,-76.5"/>
<text text-anchor="middle" x="181.5" y="-83.5" font-family="Helvetica,sans-Serif" font-size="10.00">trySetKalmanFromYaml</text>
</a>
</g>
</g>
<!-- Node1&#45;&gt;Node5 -->
<g id="edge2" class="edge">
<title>Node1&#45;&gt;Node5</title>
<path fill="none" stroke="midnightblue" d="M80.23,-72.34C91.35,-73.86 103.76,-75.55 115.96,-77.21"/>
</g>
<!-- Node6 -->
<g id="node4" class="node">
<title>Node6</title>
<g id="a_node4"><a xlink:href="acsConfig_8hpp.html#afbb4ad5e0459e2bb029f3e874ec566d5" target="_top" xlink:title=" ">
<polygon fill="white" stroke="black" points="300.5,-38.5 300.5,-57.5 359.5,-57.5 359.5,-38.5 300.5,-38.5"/>
<text text-anchor="middle" x="330" y="-45.5" font-family="Helvetica,sans-Serif" font-size="10.00">setInited</text>
</a>
</g>
</g>
<!-- Node1&#45;&gt;Node6 -->
<g id="edge7" class="edge">
<title>Node1&#45;&gt;Node6</title>
<path fill="none" stroke="midnightblue" d="M80.14,-64.42C138.89,-60.54 248.5,-53.31 300.38,-49.89"/>
</g>
<!-- Node7 -->
<g id="node5" class="node">
<title>Node7</title>
<g id="a_node5"><a xlink:href="acsConfig_8cpp.html#a555e819507c7608d463fedb0616a95ff" target="_top" xlink:title="Set an output from yaml object if found.">
<polygon fill="white" stroke="red" points="283,-0.5 283,-19.5 377,-19.5 377,-0.5 283,-0.5"/>
<text text-anchor="middle" x="330" y="-7.5" font-family="Helvetica,sans-Serif" font-size="10.00">trySetFromYaml</text>
</a>
</g>
</g>
<!-- Node1&#45;&gt;Node7 -->
<g id="edge8" class="edge">
<title>Node1&#45;&gt;Node7</title>
<path fill="none" stroke="midnightblue" d="M79.06,-57.44C90.87,-54.59 103.95,-51.55 116,-49 173.19,-36.91 239.5,-25.12 282.74,-17.72"/>
</g>
<!-- Node5&#45;&gt;Node2 -->
<g id="edge3" class="edge">
<title>Node5&#45;&gt;Node2</title>
<path fill="none" stroke="midnightblue" d="M247.27,-86C297.03,-86 365.09,-86 412.73,-86"/>
</g>
<!-- Node5&#45;&gt;Node6 -->
<g id="edge4" class="edge">
<title>Node5&#45;&gt;Node6</title>
<path fill="none" stroke="midnightblue" d="M219.47,-76.41C244.56,-69.9 277.25,-61.42 300.36,-55.43"/>
</g>
<!-- Node5&#45;&gt;Node7 -->
<g id="edge5" class="edge">
<title>Node5&#45;&gt;Node7</title>
<path fill="none" stroke="midnightblue" d="M198.19,-76.29C217.69,-64.42 252.17,-44.04 283,-29 289.83,-25.67 297.41,-22.38 304.4,-19.5"/>
</g>
<!-- Node7&#45;&gt;Node2 -->
<g id="edge6" class="edge">
<title>Node7&#45;&gt;Node2</title>
<path fill="none" stroke="midnightblue" d="M356.16,-19.54C363.02,-22.37 370.38,-25.62 377,-29 405.9,-43.75 437.72,-64.41 455.49,-76.38"/>
</g>
</g>
</svg>
