<?xml version="1.0" encoding="UTF-8" standalone="no"?>
<!DOCTYPE svg PUBLIC "-//W3C//DTD SVG 1.1//EN"
 "http://www.w3.org/Graphics/SVG/1.1/DTD/svg11.dtd">
<!-- Generated by graphviz version 2.43.0 (0)
 -->
<!-- Title: outputDefaultSiblings Pages: 1 -->
<svg width="285pt" height="116pt"
 viewBox="0.00 0.00 285.00 116.00" xmlns="http://www.w3.org/2000/svg" xmlns:xlink="http://www.w3.org/1999/xlink">
<g id="graph0" class="graph" transform="scale(1 1) rotate(0) translate(4 112)">
<title>outputDefaultSiblings</title>
<polygon fill="white" stroke="transparent" points="-4,4 -4,-112 281,-112 281,4 -4,4"/>
<!-- Node1 -->
<g id="node1" class="node">
<title>Node1</title>
<g id="a_node1"><a xlink:title="Recursive function to output the default values of all siblings with a common root.">
<polygon fill="#bfbfbf" stroke="black" points="0,-44.5 0,-63.5 122,-63.5 122,-44.5 0,-44.5"/>
<text text-anchor="middle" x="61" y="-51.5" font-family="Helvetica,sans-Serif" font-size="10.00">outputDefaultSiblings</text>
</a>
</g>
</g>
<!-- Node1&#45;&gt;Node1 -->
<g id="edge4" class="edge">
<title>Node1&#45;&gt;Node1</title>
<path fill="none" stroke="midnightblue" d="M36.96,-63.76C25.26,-72.57 33.27,-82 61,-82 88.73,-82 96.74,-72.57 85.04,-63.76"/>
</g>
<!-- Node2 -->
<g id="node2" class="node">
<title>Node2</title>
<g id="a_node2"><a xlink:href="acsConfig_8cpp.html#a6a79167076210fab581803b280ec69fb" target="_top" xlink:title=" ">
<polygon fill="white" stroke="black" points="166,-88.5 166,-107.5 269,-107.5 269,-88.5 166,-88.5"/>
<text text-anchor="middle" x="217.5" y="-95.5" font-family="Helvetica,sans-Serif" font-size="10.00">nonNumericStack</text>
</a>
</g>
</g>
<!-- Node1&#45;&gt;Node2 -->
<g id="edge1" class="edge">
<title>Node1&#45;&gt;Node2</title>
<path fill="none" stroke="midnightblue" d="M95.52,-63.55C121.44,-70.93 157.14,-81.1 183.04,-88.47"/>
</g>
<!-- Node3 -->
<g id="node3" class="node">
<title>Node3</title>
<g id="a_node3"><a xlink:href="structTempStreamDisabler.html#a6f6b502549d7fa2954c52da0cd4ad343" target="_top" xlink:title=" ">
<polygon fill="white" stroke="black" points="158,-39 158,-69 277,-69 277,-39 158,-39"/>
<text text-anchor="start" x="166" y="-57" font-family="Helvetica,sans-Serif" font-size="10.00">TempStreamDisabler</text>
<text text-anchor="middle" x="217.5" y="-46" font-family="Helvetica,sans-Serif" font-size="10.00">::disable</text>
</a>
</g>
</g>
<!-- Node1&#45;&gt;Node3 -->
<g id="edge2" class="edge">
<title>Node1&#45;&gt;Node3</title>
<path fill="none" stroke="midnightblue" d="M122.18,-54C133.87,-54 146.11,-54 157.76,-54"/>
</g>
<!-- Node4 -->
<g id="node4" class="node">
<title>Node4</title>
<g id="a_node4"><a xlink:href="trace_8cpp.html#ae00e6addd3bdf3a7fd41a254eb9aec89" target="_top" xlink:title=" ">
<polygon fill="white" stroke="black" points="182,-0.5 182,-19.5 253,-19.5 253,-0.5 182,-0.5"/>
<text text-anchor="middle" x="217.5" y="-7.5" font-family="Helvetica,sans-Serif" font-size="10.00">tracepdeex</text>
</a>
</g>
</g>
<!-- Node1&#45;&gt;Node4 -->
<g id="edge3" class="edge">
<title>Node1&#45;&gt;Node4</title>
<path fill="none" stroke="midnightblue" d="M95.52,-44.45C121.44,-37.07 157.14,-26.9 183.04,-19.53"/>
</g>
</g>
</svg>
