<?xml version="1.0" encoding="UTF-8" standalone="no"?>
<!DOCTYPE svg PUBLIC "-//W3C//DTD SVG 1.1//EN"
 "http://www.w3.org/Graphics/SVG/1.1/DTD/svg11.dtd">
<!-- Generated by graphviz version 2.43.0 (0)
 -->
<!-- Title: lsqqc Pages: 1 -->
<svg width="244pt" height="225pt"
 viewBox="0.00 0.00 244.00 224.75" xmlns="http://www.w3.org/2000/svg" xmlns:xlink="http://www.w3.org/1999/xlink">
<g id="graph0" class="graph" transform="scale(1 1) rotate(0) translate(4 220.75)">
<title>lsqqc</title>
<polygon fill="white" stroke="transparent" points="-4,4 -4,-220.75 240,-220.75 240,4 -4,4"/>
<!-- Node1 -->
<g id="node1" class="node">
<title>Node1</title>
<g id="a_node1"><a xlink:title=" ">
<polygon fill="#bfbfbf" stroke="black" points="0,-104.5 0,-123.5 42,-123.5 42,-104.5 0,-104.5"/>
<text text-anchor="middle" x="21" y="-111.5" font-family="Helvetica,sans-Serif" font-size="10.00">lsqqc</text>
</a>
</g>
</g>
<!-- Node2 -->
<g id="node2" class="node">
<title>Node2</title>
<g id="a_node2"><a xlink:href="algebra__old_8cpp.html#a1d2c1ecab5b17dcc773fcd83c0b87b7e" target="_top" xlink:title=" ">
<polygon fill="white" stroke="black" points="182.5,-123.5 182.5,-142.5 218.5,-142.5 218.5,-123.5 182.5,-123.5"/>
<text text-anchor="middle" x="200.5" y="-130.5" font-family="Helvetica,sans-Serif" font-size="10.00">mat</text>
</a>
</g>
</g>
<!-- Node1&#45;&gt;Node2 -->
<g id="edge1" class="edge">
<title>Node1&#45;&gt;Node2</title>
<path fill="none" stroke="midnightblue" d="M24.25,-123.52C29.59,-143.65 45.09,-190.19 78,-209 97.68,-220.24 108.23,-218.07 129,-209 155.83,-197.29 177.03,-169.78 188.92,-151.28"/>
<polygon fill="midnightblue" stroke="midnightblue" points="192.02,-152.91 194.27,-142.55 186.06,-149.25 192.02,-152.91"/>
</g>
<!-- Node3 -->
<g id="node3" class="node">
<title>Node3</title>
<g id="a_node3"><a xlink:href="algebra__old_8cpp.html#a446a2803e5eaeb996733dd8d73966f00" target="_top" xlink:title=" ">
<polygon fill="white" stroke="black" points="82,-180.5 82,-199.5 125,-199.5 125,-180.5 82,-180.5"/>
<text text-anchor="middle" x="103.5" y="-187.5" font-family="Helvetica,sans-Serif" font-size="10.00">zeros</text>
</a>
</g>
</g>
<!-- Node1&#45;&gt;Node3 -->
<g id="edge2" class="edge">
<title>Node1&#45;&gt;Node3</title>
<path fill="none" stroke="midnightblue" d="M32.2,-123.63C45.38,-136.07 68.57,-157.96 84.69,-173.19"/>
<polygon fill="midnightblue" stroke="midnightblue" points="82.71,-176.13 92.39,-180.45 87.52,-171.04 82.71,-176.13"/>
</g>
<!-- Node4 -->
<g id="node4" class="node">
<title>Node4</title>
<g id="a_node4"><a xlink:href="algebra__old_8cpp.html#adc33998911a24938042604ba1f8e6196" target="_top" xlink:title=" ">
<polygon fill="white" stroke="black" points="173,-85.5 173,-104.5 228,-104.5 228,-85.5 173,-85.5"/>
<text text-anchor="middle" x="200.5" y="-92.5" font-family="Helvetica,sans-Serif" font-size="10.00">matmul</text>
</a>
</g>
</g>
<!-- Node1&#45;&gt;Node4 -->
<g id="edge3" class="edge">
<title>Node1&#45;&gt;Node4</title>
<path fill="none" stroke="midnightblue" d="M42.3,-120.83C63.96,-127.14 99.19,-134.63 129,-128 137.77,-126.05 156.43,-117.23 172.36,-109.2"/>
<polygon fill="midnightblue" stroke="midnightblue" points="174.01,-112.28 181.32,-104.62 170.82,-106.05 174.01,-112.28"/>
</g>
<!-- Node5 -->
<g id="node5" class="node">
<title>Node5</title>
<g id="a_node5"><a xlink:href="algebra__old_8cpp.html#a50d2d9511da542d472f3390449fedf38" target="_top" xlink:title=" ">
<polygon fill="white" stroke="black" points="174,-47.5 174,-66.5 227,-66.5 227,-47.5 174,-47.5"/>
<text text-anchor="middle" x="200.5" y="-54.5" font-family="Helvetica,sans-Serif" font-size="10.00">matcpy</text>
</a>
</g>
</g>
<!-- Node1&#45;&gt;Node5 -->
<g id="edge4" class="edge">
<title>Node1&#45;&gt;Node5</title>
<path fill="none" stroke="midnightblue" d="M42.2,-112.34C64.08,-110.11 99.78,-105.17 129,-95 131.4,-94.17 154.02,-81.91 173,-71.54"/>
<polygon fill="midnightblue" stroke="midnightblue" points="174.83,-74.53 181.92,-66.66 171.47,-68.38 174.83,-74.53"/>
</g>
<!-- Node6 -->
<g id="node6" class="node">
<title>Node6</title>
<g id="a_node6"><a xlink:href="algebra__old_8cpp.html#a4035d20f11b4bd8085e6b0f84f8c0764" target="_top" xlink:title=" ">
<polygon fill="white" stroke="red" points="78,-66.5 78,-85.5 129,-85.5 129,-66.5 78,-66.5"/>
<text text-anchor="middle" x="103.5" y="-73.5" font-family="Helvetica,sans-Serif" font-size="10.00">matinv</text>
</a>
</g>
</g>
<!-- Node1&#45;&gt;Node6 -->
<g id="edge5" class="edge">
<title>Node1&#45;&gt;Node6</title>
<path fill="none" stroke="midnightblue" d="M42.31,-104.41C51.56,-100.05 62.69,-94.79 72.84,-90"/>
<polygon fill="midnightblue" stroke="midnightblue" points="74.64,-93.02 82.19,-85.59 71.66,-86.69 74.64,-93.02"/>
</g>
<!-- Node10 -->
<g id="node7" class="node">
<title>Node10</title>
<g id="a_node7"><a xlink:href="algebra__old_8cpp.html#aeeb14c76251388cfcbcbcf3177990976" target="_top" xlink:title=" ">
<polygon fill="white" stroke="black" points="82.5,-28.5 82.5,-47.5 124.5,-47.5 124.5,-28.5 82.5,-28.5"/>
<text text-anchor="middle" x="103.5" y="-35.5" font-family="Helvetica,sans-Serif" font-size="10.00">chiqc</text>
</a>
</g>
</g>
<!-- Node1&#45;&gt;Node10 -->
<g id="edge8" class="edge">
<title>Node1&#45;&gt;Node10</title>
<path fill="none" stroke="midnightblue" d="M30.75,-104.33C41.47,-92.67 60.38,-72.67 78,-57 79.13,-55.99 80.31,-54.98 81.51,-53.97"/>
<polygon fill="midnightblue" stroke="midnightblue" points="83.91,-56.53 89.52,-47.55 79.53,-51.07 83.91,-56.53"/>
</g>
<!-- Node11 -->
<g id="node8" class="node">
<title>Node11</title>
<g id="a_node8"><a xlink:href="trace_8hpp.html#a984a9b0c40d65d46f2c73a021a7b7de3" target="_top" xlink:title=" ">
<polygon fill="white" stroke="black" points="165,-0.5 165,-19.5 236,-19.5 236,-0.5 165,-0.5"/>
<text text-anchor="middle" x="200.5" y="-7.5" font-family="Helvetica,sans-Serif" font-size="10.00">tracepdeex</text>
</a>
</g>
</g>
<!-- Node1&#45;&gt;Node11 -->
<g id="edge13" class="edge">
<title>Node1&#45;&gt;Node11</title>
<path fill="none" stroke="midnightblue" d="M24.45,-104.36C30.07,-84.43 45.97,-38.91 78,-19 100.64,-4.93 130.42,-2.53 154.84,-3.72"/>
<polygon fill="midnightblue" stroke="midnightblue" points="154.72,-7.22 164.94,-4.43 155.2,-0.24 154.72,-7.22"/>
</g>
<!-- Node6&#45;&gt;Node2 -->
<g id="edge6" class="edge">
<title>Node6&#45;&gt;Node2</title>
<path fill="none" stroke="midnightblue" d="M119.27,-85.61C131.43,-93.44 149.18,-104.69 165,-114 167.68,-115.58 170.5,-117.2 173.33,-118.79"/>
<polygon fill="midnightblue" stroke="midnightblue" points="171.75,-121.92 182.19,-123.72 175.15,-115.8 171.75,-121.92"/>
</g>
<!-- Node6&#45;&gt;Node5 -->
<g id="edge7" class="edge">
<title>Node6&#45;&gt;Node5</title>
<path fill="none" stroke="midnightblue" d="M129.46,-71.01C139.9,-68.92 152.23,-66.45 163.61,-64.18"/>
<polygon fill="midnightblue" stroke="midnightblue" points="164.59,-67.55 173.71,-62.16 163.22,-60.69 164.59,-67.55"/>
</g>
<!-- Node10&#45;&gt;Node2 -->
<g id="edge9" class="edge">
<title>Node10&#45;&gt;Node2</title>
<path fill="none" stroke="midnightblue" d="M118.7,-47.67C122.28,-50.46 125.96,-53.65 129,-57 149.14,-79.18 143.19,-93.46 165,-114 167.57,-116.42 170.5,-118.63 173.55,-120.63"/>
<polygon fill="midnightblue" stroke="midnightblue" points="171.82,-123.67 182.23,-125.66 175.33,-117.61 171.82,-123.67"/>
</g>
<!-- Node10&#45;&gt;Node4 -->
<g id="edge11" class="edge">
<title>Node10&#45;&gt;Node4</title>
<path fill="none" stroke="midnightblue" d="M119.27,-47.61C131.43,-55.44 149.18,-66.69 165,-76 167.49,-77.46 170.09,-78.96 172.7,-80.44"/>
<polygon fill="midnightblue" stroke="midnightblue" points="171.04,-83.52 181.48,-85.33 174.45,-77.41 171.04,-83.52"/>
</g>
<!-- Node10&#45;&gt;Node5 -->
<g id="edge10" class="edge">
<title>Node10&#45;&gt;Node5</title>
<path fill="none" stroke="midnightblue" d="M124.65,-42.03C136.11,-44.32 150.78,-47.26 164.1,-49.92"/>
<polygon fill="midnightblue" stroke="midnightblue" points="163.46,-53.36 173.95,-51.89 164.83,-46.5 163.46,-53.36"/>
</g>
<!-- Node10&#45;&gt;Node11 -->
<g id="edge12" class="edge">
<title>Node10&#45;&gt;Node11</title>
<path fill="none" stroke="midnightblue" d="M124.65,-32.06C134.17,-29.26 145.91,-25.79 157.25,-22.45"/>
<polygon fill="midnightblue" stroke="midnightblue" points="158.44,-25.75 167.05,-19.57 156.47,-19.04 158.44,-25.75"/>
</g>
</g>
</svg>
