<?xml version="1.0" encoding="UTF-8" standalone="no"?>
<!DOCTYPE svg PUBLIC "-//W3C//DTD SVG 1.1//EN"
 "http://www.w3.org/Graphics/SVG/1.1/DTD/svg11.dtd">
<!-- Generated by graphviz version 2.43.0 (0)
 -->
<!-- Title: detectslip Pages: 1 -->
<svg width="296pt" height="294pt"
 viewBox="0.00 0.00 296.00 294.00" xmlns="http://www.w3.org/2000/svg" xmlns:xlink="http://www.w3.org/1999/xlink">
<g id="graph0" class="graph" transform="scale(1 1) rotate(0) translate(4 290)">
<title>detectslip</title>
<polygon fill="white" stroke="transparent" points="-4,4 -4,-290 292,-290 292,4 -4,4"/>
<!-- Node1 -->
<g id="node1" class="node">
<title>Node1</title>
<g id="a_node1"><a xlink:title="Cycle slip detection and repair.">
<polygon fill="#bfbfbf" stroke="black" points="0,-133.5 0,-152.5 65,-152.5 65,-133.5 0,-133.5"/>
<text text-anchor="middle" x="32.5" y="-140.5" font-family="Helvetica,sans-Serif" font-size="10.00">detectslip</text>
</a>
</g>
</g>
<!-- Node2 -->
<g id="node2" class="node">
<title>Node2</title>
<g id="a_node2"><a xlink:href="structSatSys.html#adbdf98ba1ef1f22b6aaed93916529513" target="_top" xlink:title=" ">
<polygon fill="white" stroke="red" points="101,-266.5 101,-285.5 181,-285.5 181,-266.5 101,-266.5"/>
<text text-anchor="middle" x="141" y="-273.5" font-family="Helvetica,sans-Serif" font-size="10.00">SatSys::getId</text>
</a>
</g>
</g>
<!-- Node1&#45;&gt;Node2 -->
<g id="edge1" class="edge">
<title>Node1&#45;&gt;Node2</title>
<path fill="none" stroke="midnightblue" d="M37.66,-152.77C46.72,-173.18 69.95,-221.04 101,-252 106.63,-257.61 113.81,-262.5 120.47,-266.38"/>
</g>
<!-- Node4 -->
<g id="node3" class="node">
<title>Node4</title>
<g id="a_node3"><a xlink:href="acsQC_8cpp.html#abd57aff1d197b2747eab5e751cbb0b57" target="_top" xlink:title=" ">
<polygon fill="white" stroke="black" points="223.5,-171.5 223.5,-190.5 281.5,-190.5 281.5,-171.5 223.5,-171.5"/>
<text text-anchor="middle" x="252.5" y="-178.5" font-family="Helvetica,sans-Serif" font-size="10.00">satFreqs</text>
</a>
</g>
</g>
<!-- Node1&#45;&gt;Node4 -->
<g id="edge2" class="edge">
<title>Node1&#45;&gt;Node4</title>
<path fill="none" stroke="midnightblue" d="M39.04,-152.7C48.99,-169.01 71.62,-201.39 101,-214 147.46,-233.94 207.35,-206.45 235.52,-190.69"/>
</g>
<!-- Node5 -->
<g id="node4" class="node">
<title>Node5</title>
<g id="a_node4"><a xlink:href="trace_8cpp.html#ae00e6addd3bdf3a7fd41a254eb9aec89" target="_top" xlink:title=" ">
<polygon fill="white" stroke="black" points="217,-95.5 217,-114.5 288,-114.5 288,-95.5 217,-95.5"/>
<text text-anchor="middle" x="252.5" y="-102.5" font-family="Helvetica,sans-Serif" font-size="10.00">tracepdeex</text>
</a>
</g>
</g>
<!-- Node1&#45;&gt;Node5 -->
<g id="edge3" class="edge">
<title>Node1&#45;&gt;Node5</title>
<path fill="none" stroke="midnightblue" d="M46.08,-152.72C59.02,-162.06 80.19,-175.54 101,-181 135.39,-190.02 149.86,-198.16 181,-181 207.24,-166.54 195.19,-144.54 217,-124 220.78,-120.44 225.36,-117.32 229.93,-114.69"/>
</g>
<!-- Node6 -->
<g id="node5" class="node">
<title>Node6</title>
<g id="a_node5"><a xlink:href="acsQC_8cpp.html#a9a7675a515de2802ed917e9d32dd897d" target="_top" xlink:title="Cycle slip detection for dual&#45;frequency.">
<polygon fill="white" stroke="red" points="108.5,-152.5 108.5,-171.5 173.5,-171.5 173.5,-152.5 108.5,-152.5"/>
<text text-anchor="middle" x="141" y="-159.5" font-family="Helvetica,sans-Serif" font-size="10.00">cycleslip2</text>
</a>
</g>
</g>
<!-- Node1&#45;&gt;Node6 -->
<g id="edge4" class="edge">
<title>Node1&#45;&gt;Node6</title>
<path fill="none" stroke="midnightblue" d="M65.17,-148.65C78.78,-151.08 94.65,-153.91 108.27,-156.34"/>
</g>
<!-- Node8 -->
<g id="node6" class="node">
<title>Node8</title>
<g id="a_node6"><a xlink:href="linearCombo_8cpp.html#afdd3451cef793c3574f718f2f79d9278" target="_top" xlink:title="Create combinations between specific observation values.">
<polygon fill="white" stroke="black" points="230.5,-133.5 230.5,-152.5 274.5,-152.5 274.5,-133.5 230.5,-133.5"/>
<text text-anchor="middle" x="252.5" y="-140.5" font-family="Helvetica,sans-Serif" font-size="10.00">getLC</text>
</a>
</g>
</g>
<!-- Node1&#45;&gt;Node8 -->
<g id="edge10" class="edge">
<title>Node1&#45;&gt;Node8</title>
<path fill="none" stroke="midnightblue" d="M65.2,-143C110.31,-143 191.81,-143 230.29,-143"/>
</g>
<!-- Node22 -->
<g id="node7" class="node">
<title>Node22</title>
<g id="a_node7"><a xlink:href="ppp_8cpp.html#add1aa65516313588ef8e125a7d748f51" target="_top" xlink:title=" ">
<polygon fill="white" stroke="black" points="223.5,-57.5 223.5,-76.5 281.5,-76.5 281.5,-57.5 223.5,-57.5"/>
<text text-anchor="middle" x="252.5" y="-64.5" font-family="Helvetica,sans-Serif" font-size="10.00">ft2string</text>
</a>
</g>
</g>
<!-- Node1&#45;&gt;Node22 -->
<g id="edge9" class="edge">
<title>Node1&#45;&gt;Node22</title>
<path fill="none" stroke="midnightblue" d="M61.11,-133.37C103.04,-118.76 182.31,-91.12 224.11,-76.55"/>
</g>
<!-- Node37 -->
<g id="node8" class="node">
<title>Node37</title>
<g id="a_node8"><a xlink:href="rtkcmn_8cpp.html#a340ba63f81ed21d7574d279d6da9ca0c" target="_top" xlink:title="Low pass filter values.">
<polygon fill="white" stroke="black" points="101,-38.5 101,-57.5 181,-57.5 181,-38.5 101,-38.5"/>
<text text-anchor="middle" x="141" y="-45.5" font-family="Helvetica,sans-Serif" font-size="10.00">lowPassFilter</text>
</a>
</g>
</g>
<!-- Node1&#45;&gt;Node37 -->
<g id="edge11" class="edge">
<title>Node1&#45;&gt;Node37</title>
<path fill="none" stroke="midnightblue" d="M41.53,-133.04C53.51,-118.55 77.22,-91.28 101,-72 107.55,-66.69 115.36,-61.67 122.26,-57.6"/>
</g>
<!-- Node38 -->
<g id="node9" class="node">
<title>Node38</title>
<g id="a_node9"><a xlink:href="acsQC_8cpp.html#a5278f59e23c92b2a1912d5dde5e2f809" target="_top" xlink:title="Cycle slip detection and repair for triple&#45;frequency.">
<polygon fill="white" stroke="red" points="108.5,-0.5 108.5,-19.5 173.5,-19.5 173.5,-0.5 108.5,-0.5"/>
<text text-anchor="middle" x="141" y="-7.5" font-family="Helvetica,sans-Serif" font-size="10.00">cycleslip3</text>
</a>
</g>
</g>
<!-- Node1&#45;&gt;Node38 -->
<g id="edge12" class="edge">
<title>Node1&#45;&gt;Node38</title>
<path fill="none" stroke="midnightblue" d="M36.92,-133.5C45,-112.22 67.18,-60.18 101,-29 104.99,-25.32 109.82,-22.21 114.7,-19.64"/>
</g>
<!-- Node6&#45;&gt;Node4 -->
<g id="edge5" class="edge">
<title>Node6&#45;&gt;Node4</title>
<path fill="none" stroke="midnightblue" d="M173.67,-167.5C189.34,-170.21 208.09,-173.47 223.26,-176.1"/>
</g>
<!-- Node6&#45;&gt;Node5 -->
<g id="edge7" class="edge">
<title>Node6&#45;&gt;Node5</title>
<path fill="none" stroke="midnightblue" d="M160.58,-152.33C180.83,-141.79 213.05,-125.01 233.2,-114.53"/>
</g>
<!-- Node6&#45;&gt;Node8 -->
<g id="edge6" class="edge">
<title>Node6&#45;&gt;Node8</title>
<path fill="none" stroke="midnightblue" d="M173.67,-156.5C191.86,-153.35 214.21,-149.47 230.29,-146.68"/>
</g>
<!-- Node6&#45;&gt;Node22 -->
<g id="edge8" class="edge">
<title>Node6&#45;&gt;Node22</title>
<path fill="none" stroke="midnightblue" d="M160.97,-152.45C167.73,-148.52 175.11,-143.58 181,-138 201.4,-118.67 196.14,-104.84 217,-86 220.96,-82.43 225.71,-79.27 230.4,-76.6"/>
</g>
<!-- Node38&#45;&gt;Node4 -->
<g id="edge13" class="edge">
<title>Node38&#45;&gt;Node4</title>
<path fill="none" stroke="midnightblue" d="M169.33,-19.53C173.71,-22.05 177.83,-25.17 181,-29 220.02,-76.19 179.17,-113.84 217,-162 219.96,-165.76 223.88,-168.89 228.01,-171.45"/>
</g>
<!-- Node38&#45;&gt;Node5 -->
<g id="edge15" class="edge">
<title>Node38&#45;&gt;Node5</title>
<path fill="none" stroke="midnightblue" d="M166.81,-19.52C171.84,-22.13 176.85,-25.28 181,-29 203.32,-48.99 195.19,-65.46 217,-86 220.78,-89.56 225.36,-92.68 229.93,-95.31"/>
</g>
<!-- Node38&#45;&gt;Node8 -->
<g id="edge14" class="edge">
<title>Node38&#45;&gt;Node8</title>
<path fill="none" stroke="midnightblue" d="M168.62,-19.57C173.18,-22.1 177.55,-25.22 181,-29 211.44,-62.35 187.4,-89.9 217,-124 220.68,-128.23 225.54,-131.71 230.45,-134.47"/>
</g>
<!-- Node38&#45;&gt;Node22 -->
<g id="edge16" class="edge">
<title>Node38&#45;&gt;Node22</title>
<path fill="none" stroke="midnightblue" d="M161.92,-19.51C168.06,-22.5 174.83,-25.84 181,-29 199.31,-38.39 220.01,-49.62 234.22,-57.43"/>
</g>
</g>
</svg>
