<?xml version="1.0" encoding="UTF-8" standalone="no"?>
<!DOCTYPE svg PUBLIC "-//W3C//DTD SVG 1.1//EN"
 "http://www.w3.org/Graphics/SVG/1.1/DTD/svg11.dtd">
<!-- Generated by graphviz version 2.43.0 (0)
 -->
<!-- Title: detectslip Pages: 1 -->
<svg width="296pt" height="256pt"
 viewBox="0.00 0.00 296.00 256.00" xmlns="http://www.w3.org/2000/svg" xmlns:xlink="http://www.w3.org/1999/xlink">
<g id="graph0" class="graph" transform="scale(1 1) rotate(0) translate(4 252)">
<title>detectslip</title>
<polygon fill="white" stroke="transparent" points="-4,4 -4,-252 292,-252 292,4 -4,4"/>
<!-- Node1 -->
<g id="node1" class="node">
<title>Node1</title>
<g id="a_node1"><a xlink:title="Cycle slip detection and repair.">
<polygon fill="#bfbfbf" stroke="black" points="0,-114.5 0,-133.5 65,-133.5 65,-114.5 0,-114.5"/>
<text text-anchor="middle" x="32.5" y="-121.5" font-family="Helvetica,sans-Serif" font-size="10.00">detectslip</text>
</a>
</g>
</g>
<!-- Node2 -->
<g id="node2" class="node">
<title>Node2</title>
<g id="a_node2"><a xlink:href="structSatSys.html#adbdf98ba1ef1f22b6aaed93916529513" target="_top" xlink:title="Sets a 4 character c_string of this satellite&#39;s id.">
<polygon fill="white" stroke="red" points="101,-228.5 101,-247.5 181,-247.5 181,-228.5 101,-228.5"/>
<text text-anchor="middle" x="141" y="-235.5" font-family="Helvetica,sans-Serif" font-size="10.00">SatSys::getId</text>
</a>
</g>
</g>
<!-- Node1&#45;&gt;Node2 -->
<g id="edge1" class="edge">
<title>Node1&#45;&gt;Node2</title>
<path fill="none" stroke="midnightblue" d="M39.01,-133.6C49.43,-151.13 73.44,-188.86 101,-214 106.99,-219.46 114.4,-224.38 121.14,-228.33"/>
</g>
<!-- Node4 -->
<g id="node3" class="node">
<title>Node4</title>
<g id="a_node3"><a xlink:href="gTime_8cpp.html#abf196aa655d8ca10168c2301a68a8101" target="_top" xlink:title=" ">
<polygon fill="white" stroke="red" points="219.5,-114.5 219.5,-133.5 285.5,-133.5 285.5,-114.5 219.5,-114.5"/>
<text text-anchor="middle" x="252.5" y="-121.5" font-family="Helvetica,sans-Serif" font-size="10.00">time2gpst</text>
</a>
</g>
</g>
<!-- Node1&#45;&gt;Node4 -->
<g id="edge2" class="edge">
<title>Node1&#45;&gt;Node4</title>
<path fill="none" stroke="midnightblue" d="M41.94,-133.6C53.69,-146.18 76.35,-167.61 101,-176 134.66,-187.46 147.22,-187.11 181,-176 206.43,-167.64 230.21,-146.19 242.6,-133.61"/>
</g>
<!-- Node6 -->
<g id="node4" class="node">
<title>Node6</title>
<g id="a_node4"><a xlink:href="streamTrace_8cpp.html#ae00e6addd3bdf3a7fd41a254eb9aec89" target="_top" xlink:title=" ">
<polygon fill="white" stroke="black" points="217,-38.5 217,-57.5 288,-57.5 288,-38.5 217,-38.5"/>
<text text-anchor="middle" x="252.5" y="-45.5" font-family="Helvetica,sans-Serif" font-size="10.00">tracepdeex</text>
</a>
</g>
</g>
<!-- Node1&#45;&gt;Node6 -->
<g id="edge3" class="edge">
<title>Node1&#45;&gt;Node6</title>
<path fill="none" stroke="midnightblue" d="M52.41,-133.69C82.22,-147.47 140.86,-168.4 181,-143 212.58,-123.01 191.39,-94.22 217,-67 220.47,-63.31 224.81,-60.17 229.24,-57.57"/>
</g>
<!-- Node7 -->
<g id="node5" class="node">
<title>Node7</title>
<g id="a_node5"><a xlink:href="acsQC_8cpp.html#ae52b478bb7d30e6aaf8f0e6b4e526681" target="_top" xlink:title="Cycle slip detection and repair for dual&#45;frequency.">
<polygon fill="white" stroke="red" points="108.5,-114.5 108.5,-133.5 173.5,-133.5 173.5,-114.5 108.5,-114.5"/>
<text text-anchor="middle" x="141" y="-121.5" font-family="Helvetica,sans-Serif" font-size="10.00">cycleslip2</text>
</a>
</g>
</g>
<!-- Node1&#45;&gt;Node7 -->
<g id="edge4" class="edge">
<title>Node1&#45;&gt;Node7</title>
<path fill="none" stroke="midnightblue" d="M65.17,-124C78.78,-124 94.65,-124 108.27,-124"/>
</g>
<!-- Node9 -->
<g id="node6" class="node">
<title>Node9</title>
<g id="a_node6"><a xlink:href="linearCombo_8cpp.html#afdd3451cef793c3574f718f2f79d9278" target="_top" xlink:title="Create combinations between specific observation values.">
<polygon fill="white" stroke="black" points="230.5,-76.5 230.5,-95.5 274.5,-95.5 274.5,-76.5 230.5,-76.5"/>
<text text-anchor="middle" x="252.5" y="-83.5" font-family="Helvetica,sans-Serif" font-size="10.00">getLC</text>
</a>
</g>
</g>
<!-- Node1&#45;&gt;Node9 -->
<g id="edge8" class="edge">
<title>Node1&#45;&gt;Node9</title>
<path fill="none" stroke="midnightblue" d="M63.84,-114.42C75.38,-111.05 88.71,-107.49 101,-105 146.69,-95.74 201.14,-90.2 230.4,-87.67"/>
</g>
<!-- Node38 -->
<g id="node7" class="node">
<title>Node38</title>
<g id="a_node7"><a xlink:href="rtkcmn_8cpp.html#a340ba63f81ed21d7574d279d6da9ca0c" target="_top" xlink:title="Low pass filter values.">
<polygon fill="white" stroke="red" points="101,-38.5 101,-57.5 181,-57.5 181,-38.5 101,-38.5"/>
<text text-anchor="middle" x="141" y="-45.5" font-family="Helvetica,sans-Serif" font-size="10.00">lowPassFilter</text>
</a>
</g>
</g>
<!-- Node1&#45;&gt;Node38 -->
<g id="edge9" class="edge">
<title>Node1&#45;&gt;Node38</title>
<path fill="none" stroke="midnightblue" d="M45.17,-114.41C58.41,-103.67 80.79,-85.95 101,-72 108.2,-67.03 116.41,-61.9 123.44,-57.67"/>
</g>
<!-- Node40 -->
<g id="node8" class="node">
<title>Node40</title>
<g id="a_node8"><a xlink:href="acsQC_8cpp.html#a50b9ebf4a56ec6edec979531b0515887" target="_top" xlink:title="Cycle slip detection and repair for triple&#45;frequency.">
<polygon fill="white" stroke="red" points="108.5,-0.5 108.5,-19.5 173.5,-19.5 173.5,-0.5 108.5,-0.5"/>
<text text-anchor="middle" x="141" y="-7.5" font-family="Helvetica,sans-Serif" font-size="10.00">cycleslip3</text>
</a>
</g>
</g>
<!-- Node1&#45;&gt;Node40 -->
<g id="edge10" class="edge">
<title>Node1&#45;&gt;Node40</title>
<path fill="none" stroke="midnightblue" d="M38.19,-114.45C47.73,-95.85 71.06,-54.38 101,-29 105.25,-25.4 110.3,-22.29 115.34,-19.69"/>
</g>
<!-- Node7&#45;&gt;Node4 -->
<g id="edge5" class="edge">
<title>Node7&#45;&gt;Node4</title>
<path fill="none" stroke="midnightblue" d="M173.67,-124C187.95,-124 204.78,-124 219.14,-124"/>
</g>
<!-- Node7&#45;&gt;Node6 -->
<g id="edge7" class="edge">
<title>Node7&#45;&gt;Node6</title>
<path fill="none" stroke="midnightblue" d="M153.56,-114.36C167.97,-102.56 193.56,-82.25 217,-67 222.04,-63.72 227.7,-60.45 232.94,-57.57"/>
</g>
<!-- Node7&#45;&gt;Node9 -->
<g id="edge6" class="edge">
<title>Node7&#45;&gt;Node9</title>
<path fill="none" stroke="midnightblue" d="M169.63,-114.41C188.51,-107.86 213.15,-99.31 230.44,-93.31"/>
</g>
<!-- Node40&#45;&gt;Node4 -->
<g id="edge11" class="edge">
<title>Node40&#45;&gt;Node4</title>
<path fill="none" stroke="midnightblue" d="M167.98,-19.58C172.7,-22.13 177.29,-25.25 181,-29 207.28,-55.57 191.39,-77.78 217,-105 220.47,-108.69 224.81,-111.83 229.24,-114.43"/>
</g>
<!-- Node40&#45;&gt;Node6 -->
<g id="edge13" class="edge">
<title>Node40&#45;&gt;Node6</title>
<path fill="none" stroke="midnightblue" d="M169.63,-19.59C186.23,-25.35 207.28,-32.65 223.88,-38.41"/>
</g>
<!-- Node40&#45;&gt;Node9 -->
<g id="edge12" class="edge">
<title>Node40&#45;&gt;Node9</title>
<path fill="none" stroke="midnightblue" d="M165.07,-19.54C170.51,-22.24 176.14,-25.44 181,-29 199.76,-42.76 198.59,-52.77 217,-67 221.44,-70.43 226.57,-73.61 231.5,-76.35"/>
</g>
</g>
</svg>
