<?xml version="1.0" encoding="UTF-8" standalone="no"?>
<!DOCTYPE svg PUBLIC "-//W3C//DTD SVG 1.1//EN"
 "http://www.w3.org/Graphics/SVG/1.1/DTD/svg11.dtd">
<!-- Generated by graphviz version 2.43.0 (0)
 -->
<!-- Title: detslp_gf Pages: 1 -->
<svg width="177pt" height="66pt"
 viewBox="0.00 0.00 177.00 66.00" xmlns="http://www.w3.org/2000/svg" xmlns:xlink="http://www.w3.org/1999/xlink">
<g id="graph0" class="graph" transform="scale(1 1) rotate(0) translate(4 62)">
<title>detslp_gf</title>
<polygon fill="white" stroke="transparent" points="-4,4 -4,-62 173,-62 173,4 -4,4"/>
<!-- Node1 -->
<g id="node1" class="node">
<title>Node1</title>
<g id="a_node1"><a xlink:title="Detect cycle slip by geometry free phase jump.">
<polygon fill="#bfbfbf" stroke="black" points="0,-19.5 0,-38.5 62,-38.5 62,-19.5 0,-19.5"/>
<text text-anchor="middle" x="31" y="-26.5" font-family="Helvetica,sans-Serif" font-size="10.00">detslp_gf</text>
</a>
</g>
</g>
<!-- Node2 -->
<g id="node2" class="node">
<title>Node2</title>
<g id="a_node2"><a xlink:href="streamTrace_8cpp.html#ae00e6addd3bdf3a7fd41a254eb9aec89" target="_top" xlink:title=" ">
<polygon fill="white" stroke="black" points="98,-38.5 98,-57.5 169,-57.5 169,-38.5 98,-38.5"/>
<text text-anchor="middle" x="133.5" y="-45.5" font-family="Helvetica,sans-Serif" font-size="10.00">tracepdeex</text>
</a>
</g>
</g>
<!-- Node1&#45;&gt;Node2 -->
<g id="edge1" class="edge">
<title>Node1&#45;&gt;Node2</title>
<path fill="none" stroke="midnightblue" d="M62.15,-34.7C73.37,-36.82 86.19,-39.24 97.78,-41.44"/>
</g>
<!-- Node3 -->
<g id="node3" class="node">
<title>Node3</title>
<g id="a_node3"><a xlink:href="linearCombo_8cpp.html#afdd3451cef793c3574f718f2f79d9278" target="_top" xlink:title="Create combinations between specific observation values.">
<polygon fill="white" stroke="black" points="111.5,-0.5 111.5,-19.5 155.5,-19.5 155.5,-0.5 111.5,-0.5"/>
<text text-anchor="middle" x="133.5" y="-7.5" font-family="Helvetica,sans-Serif" font-size="10.00">getLC</text>
</a>
</g>
</g>
<!-- Node1&#45;&gt;Node3 -->
<g id="edge2" class="edge">
<title>Node1&#45;&gt;Node3</title>
<path fill="none" stroke="midnightblue" d="M62.15,-23.3C78,-20.3 97.03,-16.71 111.3,-14.01"/>
</g>
</g>
</svg>
