<?xml version="1.0" encoding="UTF-8" standalone="no"?>
<!DOCTYPE svg PUBLIC "-//W3C//DTD SVG 1.1//EN"
 "http://www.w3.org/Graphics/SVG/1.1/DTD/svg11.dtd">
<!-- Generated by graphviz version 2.43.0 (0)
 -->
<!-- Title: solve Pages: 1 -->
<svg width="231pt" height="132pt"
 viewBox="0.00 0.00 231.00 132.00" xmlns="http://www.w3.org/2000/svg" xmlns:xlink="http://www.w3.org/1999/xlink">
<g id="graph0" class="graph" transform="scale(1 1) rotate(0) translate(4 128)">
<title>solve</title>
<polygon fill="white" stroke="transparent" points="-4,4 -4,-128 227,-128 227,4 -4,4"/>
<!-- Node1 -->
<g id="node1" class="node">
<title>Node1</title>
<g id="a_node1"><a xlink:title=" ">
<polygon fill="#bfbfbf" stroke="black" points="0,-57.5 0,-76.5 43,-76.5 43,-57.5 0,-57.5"/>
<text text-anchor="middle" x="21.5" y="-64.5" font-family="Helvetica,sans-Serif" font-size="10.00">solve</text>
</a>
</g>
</g>
<!-- Node2 -->
<g id="node2" class="node">
<title>Node2</title>
<g id="a_node2"><a xlink:href="algebra__old_8cpp.html#a1d2c1ecab5b17dcc773fcd83c0b87b7e" target="_top" xlink:title=" ">
<polygon fill="white" stroke="black" points="178.5,-104.5 178.5,-123.5 214.5,-123.5 214.5,-104.5 178.5,-104.5"/>
<text text-anchor="middle" x="196.5" y="-111.5" font-family="Helvetica,sans-Serif" font-size="10.00">mat</text>
</a>
</g>
</g>
<!-- Node1&#45;&gt;Node2 -->
<g id="edge1" class="edge">
<title>Node1&#45;&gt;Node2</title>
<path fill="none" stroke="midnightblue" d="M43.02,-72.58C74.17,-81.04 133.42,-97.13 168.18,-106.58"/>
<polygon fill="midnightblue" stroke="midnightblue" points="167.55,-110.03 178.12,-109.28 169.39,-103.28 167.55,-110.03"/>
</g>
<!-- Node3 -->
<g id="node3" class="node">
<title>Node3</title>
<g id="a_node3"><a xlink:href="algebra__old_8cpp.html#a50d2d9511da542d472f3390449fedf38" target="_top" xlink:title=" ">
<polygon fill="white" stroke="black" points="170,-57.5 170,-76.5 223,-76.5 223,-57.5 170,-57.5"/>
<text text-anchor="middle" x="196.5" y="-64.5" font-family="Helvetica,sans-Serif" font-size="10.00">matcpy</text>
</a>
</g>
</g>
<!-- Node1&#45;&gt;Node3 -->
<g id="edge2" class="edge">
<title>Node1&#45;&gt;Node3</title>
<path fill="none" stroke="midnightblue" d="M43.02,-67C71.74,-67 124.33,-67 159.61,-67"/>
<polygon fill="midnightblue" stroke="midnightblue" points="159.95,-70.5 169.95,-67 159.95,-63.5 159.95,-70.5"/>
</g>
<!-- Node4 -->
<g id="node4" class="node">
<title>Node4</title>
<g id="a_node4"><a xlink:href="algebra__old_8cpp.html#a4035d20f11b4bd8085e6b0f84f8c0764" target="_top" xlink:title=" ">
<polygon fill="white" stroke="red" points="81,-38.5 81,-57.5 132,-57.5 132,-38.5 81,-38.5"/>
<text text-anchor="middle" x="106.5" y="-45.5" font-family="Helvetica,sans-Serif" font-size="10.00">matinv</text>
</a>
</g>
</g>
<!-- Node1&#45;&gt;Node4 -->
<g id="edge3" class="edge">
<title>Node1&#45;&gt;Node4</title>
<path fill="none" stroke="midnightblue" d="M43.02,-62.3C51.41,-60.38 61.35,-58.11 70.81,-55.94"/>
<polygon fill="midnightblue" stroke="midnightblue" points="71.82,-59.3 80.79,-53.66 70.26,-52.48 71.82,-59.3"/>
</g>
<!-- Node8 -->
<g id="node5" class="node">
<title>Node8</title>
<g id="a_node5"><a xlink:href="algebra__old_8cpp.html#adc33998911a24938042604ba1f8e6196" target="_top" xlink:title=" ">
<polygon fill="white" stroke="black" points="79,-0.5 79,-19.5 134,-19.5 134,-0.5 79,-0.5"/>
<text text-anchor="middle" x="106.5" y="-7.5" font-family="Helvetica,sans-Serif" font-size="10.00">matmul</text>
</a>
</g>
</g>
<!-- Node1&#45;&gt;Node8 -->
<g id="edge6" class="edge">
<title>Node1&#45;&gt;Node8</title>
<path fill="none" stroke="midnightblue" d="M36.58,-57.33C49.3,-48.6 68.23,-35.6 83.03,-25.43"/>
<polygon fill="midnightblue" stroke="midnightblue" points="85.37,-28.07 91.63,-19.53 81.4,-22.3 85.37,-28.07"/>
</g>
<!-- Node4&#45;&gt;Node2 -->
<g id="edge4" class="edge">
<title>Node4&#45;&gt;Node2</title>
<path fill="none" stroke="midnightblue" d="M120.48,-57.74C134.73,-68.43 157.81,-85.74 174.61,-98.34"/>
<polygon fill="midnightblue" stroke="midnightblue" points="172.65,-101.24 182.75,-104.44 176.85,-95.64 172.65,-101.24"/>
</g>
<!-- Node4&#45;&gt;Node3 -->
<g id="edge5" class="edge">
<title>Node4&#45;&gt;Node3</title>
<path fill="none" stroke="midnightblue" d="M132.01,-53.29C140.68,-55.16 150.61,-57.31 160,-59.33"/>
<polygon fill="midnightblue" stroke="midnightblue" points="159.38,-62.78 169.89,-61.47 160.86,-55.94 159.38,-62.78"/>
</g>
</g>
</svg>
