<?xml version="1.0" encoding="UTF-8" standalone="no"?>
<!DOCTYPE svg PUBLIC "-//W3C//DTD SVG 1.1//EN"
 "http://www.w3.org/Graphics/SVG/1.1/DTD/svg11.dtd">
<!-- Generated by graphviz version 2.43.0 (0)
 -->
<!-- Title: lsqqc Pages: 1 -->
<svg width="244pt" height="218pt"
 viewBox="0.00 0.00 244.00 218.34" xmlns="http://www.w3.org/2000/svg" xmlns:xlink="http://www.w3.org/1999/xlink">
<g id="graph0" class="graph" transform="scale(1 1) rotate(0) translate(4 214.34)">
<title>lsqqc</title>
<polygon fill="white" stroke="transparent" points="-4,4 -4,-214.34 240,-214.34 240,4 -4,4"/>
<!-- Node1 -->
<g id="node1" class="node">
<title>Node1</title>
<g id="a_node1"><a xlink:title=" ">
<polygon fill="#bfbfbf" stroke="black" points="0,-98.03 0,-117.03 42,-117.03 42,-98.03 0,-98.03"/>
<text text-anchor="middle" x="21" y="-105.03" font-family="Helvetica,sans-Serif" font-size="10.00">lsqqc</text>
</a>
</g>
</g>
<!-- Node2 -->
<g id="node2" class="node">
<title>Node2</title>
<g id="a_node2"><a xlink:href="algebra__old_8cpp.html#a1d2c1ecab5b17dcc773fcd83c0b87b7e" target="_top" xlink:title=" ">
<polygon fill="white" stroke="red" points="182.5,-164.03 182.5,-183.03 218.5,-183.03 218.5,-164.03 182.5,-164.03"/>
<text text-anchor="middle" x="200.5" y="-171.03" font-family="Helvetica,sans-Serif" font-size="10.00">mat</text>
</a>
</g>
</g>
<!-- Node1&#45;&gt;Node2 -->
<g id="edge1" class="edge">
<title>Node1&#45;&gt;Node2</title>
<path fill="none" stroke="midnightblue" d="M24.25,-117.05C29.59,-137.18 45.09,-183.72 78,-202.53 113.21,-222.65 161.81,-197.9 185.45,-183.1"/>
</g>
<!-- Node4 -->
<g id="node3" class="node">
<title>Node4</title>
<g id="a_node3"><a xlink:href="algebra__old_8cpp.html#a446a2803e5eaeb996733dd8d73966f00" target="_top" xlink:title=" ">
<polygon fill="white" stroke="red" points="82,-174.03 82,-193.03 125,-193.03 125,-174.03 82,-174.03"/>
<text text-anchor="middle" x="103.5" y="-181.03" font-family="Helvetica,sans-Serif" font-size="10.00">zeros</text>
</a>
</g>
</g>
<!-- Node1&#45;&gt;Node4 -->
<g id="edge2" class="edge">
<title>Node1&#45;&gt;Node4</title>
<path fill="none" stroke="midnightblue" d="M32.2,-117.15C47.68,-131.77 76.95,-159.41 92.39,-173.98"/>
</g>
<!-- Node5 -->
<g id="node4" class="node">
<title>Node5</title>
<g id="a_node4"><a xlink:href="algebra__old_8cpp.html#adc33998911a24938042604ba1f8e6196" target="_top" xlink:title=" ">
<polygon fill="white" stroke="black" points="173,-117.03 173,-136.03 228,-136.03 228,-117.03 173,-117.03"/>
<text text-anchor="middle" x="200.5" y="-124.03" font-family="Helvetica,sans-Serif" font-size="10.00">matmul</text>
</a>
</g>
</g>
<!-- Node1&#45;&gt;Node5 -->
<g id="edge4" class="edge">
<title>Node1&#45;&gt;Node5</title>
<path fill="none" stroke="midnightblue" d="M42.02,-113.59C52.61,-116.52 65.9,-119.78 78,-121.53 110.39,-126.19 148.1,-127.04 172.81,-126.99"/>
</g>
<!-- Node6 -->
<g id="node5" class="node">
<title>Node6</title>
<g id="a_node5"><a xlink:href="algebra__old_8cpp.html#a50d2d9511da542d472f3390449fedf38" target="_top" xlink:title=" ">
<polygon fill="white" stroke="black" points="174,-60.03 174,-79.03 227,-79.03 227,-60.03 174,-60.03"/>
<text text-anchor="middle" x="200.5" y="-67.03" font-family="Helvetica,sans-Serif" font-size="10.00">matcpy</text>
</a>
</g>
</g>
<!-- Node1&#45;&gt;Node6 -->
<g id="edge5" class="edge">
<title>Node1&#45;&gt;Node6</title>
<path fill="none" stroke="midnightblue" d="M42.22,-104.48C63.81,-101.1 98.98,-95.22 129,-88.53 143.97,-85.19 160.54,-80.76 173.85,-77.02"/>
</g>
<!-- Node7 -->
<g id="node6" class="node">
<title>Node7</title>
<g id="a_node6"><a xlink:href="algebra__old_8cpp.html#a4035d20f11b4bd8085e6b0f84f8c0764" target="_top" xlink:title=" ">
<polygon fill="white" stroke="red" points="78,-60.03 78,-79.03 129,-79.03 129,-60.03 78,-60.03"/>
<text text-anchor="middle" x="103.5" y="-67.03" font-family="Helvetica,sans-Serif" font-size="10.00">matinv</text>
</a>
</g>
</g>
<!-- Node1&#45;&gt;Node7 -->
<g id="edge6" class="edge">
<title>Node1&#45;&gt;Node7</title>
<path fill="none" stroke="midnightblue" d="M42.31,-97.94C54.52,-92.18 69.99,-84.87 82.19,-79.11"/>
</g>
<!-- Node11 -->
<g id="node7" class="node">
<title>Node11</title>
<g id="a_node7"><a xlink:href="algebra__old_8cpp.html#aeeb14c76251388cfcbcbcf3177990976" target="_top" xlink:title=" ">
<polygon fill="white" stroke="black" points="82.5,-22.03 82.5,-41.03 124.5,-41.03 124.5,-22.03 82.5,-22.03"/>
<text text-anchor="middle" x="103.5" y="-29.03" font-family="Helvetica,sans-Serif" font-size="10.00">chiqc</text>
</a>
</g>
</g>
<!-- Node1&#45;&gt;Node11 -->
<g id="edge9" class="edge">
<title>Node1&#45;&gt;Node11</title>
<path fill="none" stroke="midnightblue" d="M30.75,-97.86C41.47,-86.19 60.38,-66.2 78,-50.53 81.62,-47.31 85.72,-44 89.52,-41.07"/>
</g>
<!-- Node12 -->
<g id="node8" class="node">
<title>Node12</title>
<g id="a_node8"><a xlink:href="streamTrace_8cpp.html#ae00e6addd3bdf3a7fd41a254eb9aec89" target="_top" xlink:title=" ">
<polygon fill="white" stroke="black" points="165,-3.03 165,-22.03 236,-22.03 236,-3.03 165,-3.03"/>
<text text-anchor="middle" x="200.5" y="-10.03" font-family="Helvetica,sans-Serif" font-size="10.00">tracepdeex</text>
</a>
</g>
</g>
<!-- Node1&#45;&gt;Node12 -->
<g id="edge14" class="edge">
<title>Node1&#45;&gt;Node12</title>
<path fill="none" stroke="midnightblue" d="M24.25,-98C29.59,-77.88 45.09,-31.33 78,-12.53 104.28,2.49 139.28,0.67 164.96,-3.83"/>
</g>
<!-- Node4&#45;&gt;Node2 -->
<g id="edge3" class="edge">
<title>Node4&#45;&gt;Node2</title>
<path fill="none" stroke="midnightblue" d="M125.11,-181.36C142.25,-179.55 166.34,-177.02 182.42,-175.33"/>
</g>
<!-- Node7&#45;&gt;Node2 -->
<g id="edge7" class="edge">
<title>Node7&#45;&gt;Node2</title>
<path fill="none" stroke="midnightblue" d="M111.15,-79.19C121.7,-94.19 143.28,-123.6 165,-145.53 171.51,-152.1 179.5,-158.67 186.15,-163.79"/>
</g>
<!-- Node7&#45;&gt;Node6 -->
<g id="edge8" class="edge">
<title>Node7&#45;&gt;Node6</title>
<path fill="none" stroke="midnightblue" d="M129.46,-69.53C143.09,-69.53 159.95,-69.53 173.71,-69.53"/>
</g>
<!-- Node11&#45;&gt;Node2 -->
<g id="edge10" class="edge">
<title>Node11&#45;&gt;Node2</title>
<path fill="none" stroke="midnightblue" d="M119.69,-41.21C123.09,-43.91 126.44,-47.07 129,-50.53 155.84,-86.83 138.56,-108.93 165,-145.53 170.15,-152.66 177.55,-158.99 184.18,-163.82"/>
</g>
<!-- Node11&#45;&gt;Node5 -->
<g id="edge12" class="edge">
<title>Node11&#45;&gt;Node5</title>
<path fill="none" stroke="midnightblue" d="M117.79,-41.2C121.52,-44.08 125.51,-47.33 129,-50.53 135.5,-56.48 173.37,-97.87 190.77,-116.94"/>
</g>
<!-- Node11&#45;&gt;Node6 -->
<g id="edge11" class="edge">
<title>Node11&#45;&gt;Node6</title>
<path fill="none" stroke="midnightblue" d="M124.65,-39.59C139.57,-45.56 159.96,-53.71 175.69,-60"/>
</g>
<!-- Node11&#45;&gt;Node12 -->
<g id="edge13" class="edge">
<title>Node11&#45;&gt;Node12</title>
<path fill="none" stroke="midnightblue" d="M124.65,-27.5C136.3,-25.17 151.29,-22.17 164.79,-19.47"/>
</g>
</g>
</svg>
