<?xml version="1.0" encoding="UTF-8" standalone="no"?>
<!DOCTYPE svg PUBLIC "-//W3C//DTD SVG 1.1//EN"
 "http://www.w3.org/Graphics/SVG/1.1/DTD/svg11.dtd">
<!-- Generated by graphviz version 2.43.0 (0)
 -->
<!-- Title: matinv Pages: 1 -->
<svg width="217pt" height="118pt"
 viewBox="0.00 0.00 217.00 118.13" xmlns="http://www.w3.org/2000/svg" xmlns:xlink="http://www.w3.org/1999/xlink">
<g id="graph0" class="graph" transform="scale(1 1) rotate(0) translate(4 114.13)">
<title>matinv</title>
<polygon fill="white" stroke="transparent" points="-4,4 -4,-114.13 213,-114.13 213,4 -4,4"/>
<!-- Node1 -->
<g id="node1" class="node">
<title>Node1</title>
<g id="a_node1"><a xlink:title=" ">
<polygon fill="#bfbfbf" stroke="black" points="158,-57.5 158,-76.5 209,-76.5 209,-57.5 158,-57.5"/>
<text text-anchor="middle" x="183.5" y="-64.5" font-family="Helvetica,sans-Serif" font-size="10.00">matinv</text>
</a>
</g>
</g>
<!-- Node2 -->
<g id="node2" class="node">
<title>Node2</title>
<g id="a_node2"><a xlink:href="acsQC_8cpp.html#a501b956d22444b573a8867d87ad590d5" target="_top" xlink:title="Single channel detection–identification–adaptation (DIA) for integer cycle slips.">
<polygon fill="white" stroke="red" points="0,-38.5 0,-57.5 42,-57.5 42,-38.5 0,-38.5"/>
<text text-anchor="middle" x="21" y="-45.5" font-family="Helvetica,sans-Serif" font-size="10.00">scdia</text>
</a>
</g>
</g>
<!-- Node1&#45;&gt;Node2 -->
<g id="edge1" class="edge">
<title>Node1&#45;&gt;Node2</title>
<path fill="none" stroke="midnightblue" d="M163.23,-83.05C151.97,-91.36 137.05,-100.67 122,-105 103.21,-110.41 96.03,-112.56 78,-105 54.97,-95.34 36.64,-71.09 27.79,-57.53"/>
<polygon fill="midnightblue" stroke="midnightblue" points="165.65,-85.6 171.4,-76.71 161.36,-80.07 165.65,-85.6"/>
</g>
<!-- Node14 -->
<g id="node3" class="node">
<title>Node14</title>
<g id="a_node3"><a xlink:href="algebra__old_8cpp.html#a54fd9b64416949c38e879ac889964d2a" target="_top" xlink:title=" ">
<polygon fill="white" stroke="red" points="78.5,-76.5 78.5,-95.5 121.5,-95.5 121.5,-76.5 78.5,-76.5"/>
<text text-anchor="middle" x="100" y="-83.5" font-family="Helvetica,sans-Serif" font-size="10.00">solve</text>
</a>
</g>
</g>
<!-- Node1&#45;&gt;Node14 -->
<g id="edge2" class="edge">
<title>Node1&#45;&gt;Node14</title>
<path fill="none" stroke="midnightblue" d="M147.8,-75.09C138.89,-77.17 129.58,-79.34 121.64,-81.19"/>
<polygon fill="midnightblue" stroke="midnightblue" points="148.66,-78.48 157.6,-72.8 147.07,-71.67 148.66,-78.48"/>
</g>
<!-- Node27 -->
<g id="node4" class="node">
<title>Node27</title>
<g id="a_node4"><a xlink:href="algebra__old_8cpp.html#acc2b857563b3c233a09fe2427965f7b2" target="_top" xlink:title=" ">
<polygon fill="white" stroke="black" points="79,-38.5 79,-57.5 121,-57.5 121,-38.5 79,-38.5"/>
<text text-anchor="middle" x="100" y="-45.5" font-family="Helvetica,sans-Serif" font-size="10.00">lsqqc</text>
</a>
</g>
</g>
<!-- Node1&#45;&gt;Node27 -->
<g id="edge3" class="edge">
<title>Node1&#45;&gt;Node27</title>
<path fill="none" stroke="midnightblue" d="M147.64,-58.87C138.58,-56.76 129.12,-54.55 121.1,-52.69"/>
<polygon fill="midnightblue" stroke="midnightblue" points="147.07,-62.33 157.6,-61.2 148.66,-55.52 147.07,-62.33"/>
</g>
<!-- Node28 -->
<g id="node5" class="node">
<title>Node28</title>
<g id="a_node5"><a xlink:href="algebra__old_8cpp.html#a56b19c4e307111fe68e1e2c1f57868a1" target="_top" xlink:title=" ">
<polygon fill="white" stroke="black" points="78,-0.5 78,-19.5 122,-19.5 122,-0.5 78,-0.5"/>
<text text-anchor="middle" x="100" y="-7.5" font-family="Helvetica,sans-Serif" font-size="10.00">filter_</text>
</a>
</g>
</g>
<!-- Node1&#45;&gt;Node28 -->
<g id="edge5" class="edge">
<title>Node1&#45;&gt;Node28</title>
<path fill="none" stroke="midnightblue" d="M160.2,-51.41C145.62,-41.21 127.04,-28.21 114.62,-19.53"/>
<polygon fill="midnightblue" stroke="midnightblue" points="158.47,-54.47 168.67,-57.33 162.49,-48.73 158.47,-54.47"/>
</g>
<!-- Node27&#45;&gt;Node2 -->
<g id="edge4" class="edge">
<title>Node27&#45;&gt;Node2</title>
<path fill="none" stroke="midnightblue" d="M68.69,-48C59.76,-48 50.21,-48 42.1,-48"/>
<polygon fill="midnightblue" stroke="midnightblue" points="68.77,-51.5 78.77,-48 68.77,-44.5 68.77,-51.5"/>
</g>
<!-- Node28&#45;&gt;Node2 -->
<g id="edge6" class="edge">
<title>Node28&#45;&gt;Node2</title>
<path fill="none" stroke="midnightblue" d="M70.33,-24.15C60.69,-28.91 50.18,-34.09 41.42,-38.41"/>
<polygon fill="midnightblue" stroke="midnightblue" points="72.15,-27.15 79.57,-19.59 69.05,-20.88 72.15,-27.15"/>
</g>
</g>
</svg>
