<?xml version="1.0" encoding="UTF-8" standalone="no"?>
<!DOCTYPE svg PUBLIC "-//W3C//DTD SVG 1.1//EN"
 "http://www.w3.org/Graphics/SVG/1.1/DTD/svg11.dtd">
<!-- Generated by graphviz version 2.43.0 (0)
 -->
<!-- Title: dot Pages: 1 -->
<svg width="625pt" height="927pt"
 viewBox="0.00 0.00 625.00 926.75" xmlns="http://www.w3.org/2000/svg" xmlns:xlink="http://www.w3.org/1999/xlink">
<g id="graph0" class="graph" transform="scale(1 1) rotate(0) translate(4 922.75)">
<title>dot</title>
<polygon fill="white" stroke="transparent" points="-4,4 -4,-922.75 621,-922.75 621,4 -4,4"/>
<!-- Node1 -->
<g id="node1" class="node">
<title>Node1</title>
<g id="a_node1"><a xlink:title=" ">
<polygon fill="#bfbfbf" stroke="black" points="585,-823.25 585,-842.25 617,-842.25 617,-823.25 585,-823.25"/>
<text text-anchor="middle" x="601" y="-830.25" font-family="Helvetica,sans-Serif" font-size="10.00">dot</text>
</a>
</g>
</g>
<!-- Node2 -->
<g id="node2" class="node">
<title>Node2</title>
<g id="a_node2"><a xlink:href="brdc2sp3__main_8cpp.html#acf92dec14314e37b11d1fea4d109457d" target="_top" xlink:title=" ">
<polygon fill="white" stroke="black" points="501,-899.25 501,-918.25 536,-918.25 536,-899.25 501,-899.25"/>
<text text-anchor="middle" x="518.5" y="-906.25" font-family="Helvetica,sans-Serif" font-size="10.00">deq</text>
</a>
</g>
</g>
<!-- Node1&#45;&gt;Node2 -->
<g id="edge1" class="edge">
<title>Node1&#45;&gt;Node2</title>
<path fill="none" stroke="midnightblue" d="M591.27,-842.27C581.35,-852.95 564.51,-870.62 549,-884.75 543.53,-889.73 537.2,-894.95 531.81,-899.24"/>
</g>
<!-- Node7 -->
<g id="node4" class="node">
<title>Node7</title>
<g id="a_node4"><a xlink:href="tides_8cpp.html#a48bf814e2226bfda975681002cbf4172" target="_top" xlink:title=" ">
<polygon fill="white" stroke="black" points="221,-766.25 221,-785.25 271,-785.25 271,-766.25 221,-766.25"/>
<text text-anchor="middle" x="246" y="-773.25" font-family="Helvetica,sans-Serif" font-size="10.00">tide_pl</text>
</a>
</g>
</g>
<!-- Node1&#45;&gt;Node7 -->
<g id="edge3" class="edge">
<title>Node1&#45;&gt;Node7</title>
<path fill="none" stroke="midnightblue" d="M584.88,-839.16C541.5,-856.48 414.17,-899.8 327,-851.75 300.76,-837.29 313.77,-814.23 291,-794.75 285.31,-789.89 278.18,-786.09 271.33,-783.22"/>
</g>
<!-- Node17 -->
<g id="node6" class="node">
<title>Node17</title>
<g id="a_node6"><a xlink:href="algebra__old_8cpp.html#abaa5d4a31df361116a9b2be552624cf9" target="_top" xlink:title=" ">
<polygon fill="white" stroke="black" points="368.5,-823.25 368.5,-842.25 410.5,-842.25 410.5,-823.25 368.5,-823.25"/>
<text text-anchor="middle" x="389.5" y="-830.25" font-family="Helvetica,sans-Serif" font-size="10.00">norm</text>
</a>
</g>
</g>
<!-- Node1&#45;&gt;Node17 -->
<g id="edge5" class="edge">
<title>Node1&#45;&gt;Node17</title>
<path fill="none" stroke="midnightblue" d="M584.93,-832.75C547.87,-832.75 452.27,-832.75 410.51,-832.75"/>
</g>
<!-- Node43 -->
<g id="node14" class="node">
<title>Node43</title>
<g id="a_node14"><a xlink:href="rtkcmn_8cpp.html#ae91d83cf693cdc7e1efacbe4d8d9656e" target="_top" xlink:title=" ">
<polygon fill="white" stroke="black" points="488,-443.25 488,-462.25 549,-462.25 549,-443.25 488,-443.25"/>
<text text-anchor="middle" x="518.5" y="-450.25" font-family="Helvetica,sans-Serif" font-size="10.00">ecef2pos</text>
</a>
</g>
</g>
<!-- Node1&#45;&gt;Node43 -->
<g id="edge14" class="edge">
<title>Node1&#45;&gt;Node43</title>
<path fill="none" stroke="midnightblue" d="M597.93,-822.98C586.66,-769.77 532.79,-515.51 521.56,-462.46"/>
</g>
<!-- Node74 -->
<g id="node32" class="node">
<title>Node74</title>
<g id="a_node32"><a xlink:href="rtkcmn_8cpp.html#a4ec5c9d8effd9f823bfe6f9e12e7583f" target="_top" xlink:title=" ">
<polygon fill="white" stroke="black" points="492.5,-405.25 492.5,-424.25 544.5,-424.25 544.5,-405.25 492.5,-405.25"/>
<text text-anchor="middle" x="518.5" y="-412.25" font-family="Helvetica,sans-Serif" font-size="10.00">satazel</text>
</a>
</g>
</g>
<!-- Node1&#45;&gt;Node74 -->
<g id="edge43" class="edge">
<title>Node1&#45;&gt;Node74</title>
<path fill="none" stroke="midnightblue" d="M599.85,-822.99C598.84,-768.45 591.76,-501.53 549,-433.75 546.66,-430.04 543.3,-426.92 539.68,-424.34"/>
</g>
<!-- Node3 -->
<g id="node3" class="node">
<title>Node3</title>
<g id="a_node3"><a xlink:href="brdc2sp3__main_8cpp.html#a85401dd19686a023df6d387705483e50" target="_top" xlink:title=" ">
<polygon fill="white" stroke="red" points="365.5,-899.25 365.5,-918.25 413.5,-918.25 413.5,-899.25 365.5,-899.25"/>
<text text-anchor="middle" x="389.5" y="-906.25" font-family="Helvetica,sans-Serif" font-size="10.00">glorbit</text>
</a>
</g>
</g>
<!-- Node2&#45;&gt;Node3 -->
<g id="edge2" class="edge">
<title>Node2&#45;&gt;Node3</title>
<path fill="none" stroke="midnightblue" d="M500.9,-908.75C478.57,-908.75 438.78,-908.75 413.56,-908.75"/>
</g>
<!-- Node8 -->
<g id="node5" class="node">
<title>Node8</title>
<g id="a_node5"><a xlink:href="tides_8cpp.html#a1d0911c3f8047cac2e12d8c8fdf957d2" target="_top" xlink:title=" ">
<polygon fill="white" stroke="red" points="91.5,-766.25 91.5,-785.25 155.5,-785.25 155.5,-766.25 91.5,-766.25"/>
<text text-anchor="middle" x="123.5" y="-773.25" font-family="Helvetica,sans-Serif" font-size="10.00">tide_solid</text>
</a>
</g>
</g>
<!-- Node7&#45;&gt;Node8 -->
<g id="edge4" class="edge">
<title>Node7&#45;&gt;Node8</title>
<path fill="none" stroke="midnightblue" d="M220.9,-775.75C202.22,-775.75 176.18,-775.75 155.87,-775.75"/>
</g>
<!-- Node17&#45;&gt;Node7 -->
<g id="edge9" class="edge">
<title>Node17&#45;&gt;Node7</title>
<path fill="none" stroke="midnightblue" d="M368.23,-827.52C356.07,-824.13 340.42,-819.31 327,-813.75 310.29,-806.83 307.32,-802.57 291,-794.75 284.25,-791.52 276.8,-788.21 269.99,-785.28"/>
</g>
<!-- Node18 -->
<g id="node7" class="node">
<title>Node18</title>
<g id="a_node7"><a xlink:href="corrections_8cpp.html#a62c81439777b5986075d04b0d9a13082" target="_top" xlink:title=" ">
<polygon fill="white" stroke="red" points="215,-880.25 215,-899.25 277,-899.25 277,-880.25 215,-880.25"/>
<text text-anchor="middle" x="246" y="-887.25" font-family="Helvetica,sans-Serif" font-size="10.00">ionmodel</text>
</a>
</g>
</g>
<!-- Node17&#45;&gt;Node18 -->
<g id="edge6" class="edge">
<title>Node17&#45;&gt;Node18</title>
<path fill="none" stroke="midnightblue" d="M368.23,-840.92C342.55,-851.26 298.37,-869.06 271.02,-880.08"/>
</g>
<!-- Node25 -->
<g id="node8" class="node">
<title>Node25</title>
<g id="a_node8"><a xlink:href="debug_8cpp.html#a80d24c0bf09dad23394c5fcac25aa80b" target="_top" xlink:title=" ">
<polygon fill="white" stroke="black" points="82,-690.25 82,-709.25 165,-709.25 165,-690.25 82,-690.25"/>
<text text-anchor="middle" x="123.5" y="-697.25" font-family="Helvetica,sans-Serif" font-size="10.00">minimumTest</text>
</a>
</g>
</g>
<!-- Node17&#45;&gt;Node25 -->
<g id="edge7" class="edge">
<title>Node17&#45;&gt;Node25</title>
<path fill="none" stroke="midnightblue" d="M368.25,-839.27C331.64,-849.72 253.4,-865.91 201,-832.75 169.42,-812.77 183.9,-789 165,-756.75 154.81,-739.37 140.81,-720.56 132.22,-709.49"/>
</g>
<!-- Node26 -->
<g id="node9" class="node">
<title>Node26</title>
<g id="a_node9"><a xlink:href="preceph_8cpp.html#a2768c950b4e9ca8de2eaa45e6ed10e87" target="_top" xlink:title=" ">
<polygon fill="white" stroke="red" points="217,-804.25 217,-823.25 275,-823.25 275,-804.25 217,-804.25"/>
<text text-anchor="middle" x="246" y="-811.25" font-family="Helvetica,sans-Serif" font-size="10.00">pephpos</text>
</a>
</g>
</g>
<!-- Node17&#45;&gt;Node26 -->
<g id="edge8" class="edge">
<title>Node17&#45;&gt;Node26</title>
<path fill="none" stroke="midnightblue" d="M368.23,-830.03C343.77,-826.75 302.53,-821.21 275.04,-817.52"/>
</g>
<!-- Node41 -->
<g id="node10" class="node">
<title>Node41</title>
<g id="a_node10"><a xlink:href="ppp_8cpp.html#ab64566108038907ed6df48da876f33c3" target="_top" xlink:title=" ">
<polygon fill="white" stroke="black" points="201,-728.25 201,-747.25 291,-747.25 291,-728.25 201,-728.25"/>
<text text-anchor="middle" x="246" y="-735.25" font-family="Helvetica,sans-Serif" font-size="10.00">pppCorrections</text>
</a>
</g>
</g>
<!-- Node17&#45;&gt;Node41 -->
<g id="edge10" class="edge">
<title>Node17&#45;&gt;Node41</title>
<path fill="none" stroke="midnightblue" d="M368.3,-830.18C355.42,-827.71 338.98,-822.93 327,-813.75 303.21,-795.54 313.77,-776.23 291,-756.75 286.57,-752.97 281.28,-749.83 275.92,-747.27"/>
</g>
<!-- Node15 -->
<g id="node13" class="node">
<title>Node15</title>
<g id="a_node13"><a xlink:href="ppppp__obs_8cpp.html#a3db2ffced7ab37c4874c3a53fcb7953e" target="_top" xlink:title=" ">
<polygon fill="white" stroke="red" points="212,-329.25 212,-348.25 280,-348.25 280,-329.25 212,-329.25"/>
<text text-anchor="middle" x="246" y="-336.25" font-family="Helvetica,sans-Serif" font-size="10.00">stationPPP</text>
</a>
</g>
</g>
<!-- Node17&#45;&gt;Node15 -->
<g id="edge13" class="edge">
<title>Node17&#45;&gt;Node15</title>
<path fill="none" stroke="midnightblue" d="M368.41,-831.84C354.73,-830.1 337.3,-825.53 327,-813.75 310.89,-795.35 257.39,-413.72 248.31,-348.27"/>
</g>
<!-- Node42 -->
<g id="node11" class="node">
<title>Node42</title>
<g id="a_node11"><a xlink:href="ppp__user_8cpp.html#ac0b785b6dec8932f23a644d4c41788de" target="_top" xlink:title=" ">
<polygon fill="white" stroke="black" points="92,-367.25 92,-386.25 155,-386.25 155,-367.25 92,-367.25"/>
<text text-anchor="middle" x="123.5" y="-374.25" font-family="Helvetica,sans-Serif" font-size="10.00">ppp_filter</text>
</a>
</g>
</g>
<!-- Node41&#45;&gt;Node42 -->
<g id="edge11" class="edge">
<title>Node41&#45;&gt;Node42</title>
<path fill="none" stroke="midnightblue" d="M212.72,-728.16C208.29,-725.69 204.18,-722.6 201,-718.75 156.86,-665.45 130.76,-436.79 125.49,-386.54"/>
</g>
<!-- Node14 -->
<g id="node12" class="node">
<title>Node14</title>
<g id="a_node12"><a xlink:href="ppp__user_8cpp.html#a70cbdeafd26c3c4a863baa1a23e760a8" target="_top" xlink:title=" ">
<polygon fill="white" stroke="red" points="0,-386.25 0,-405.25 46,-405.25 46,-386.25 0,-386.25"/>
<text text-anchor="middle" x="23" y="-393.25" font-family="Helvetica,sans-Serif" font-size="10.00">pppos</text>
</a>
</g>
</g>
<!-- Node42&#45;&gt;Node14 -->
<g id="edge12" class="edge">
<title>Node42&#45;&gt;Node14</title>
<path fill="none" stroke="midnightblue" d="M91.87,-382.66C77.08,-385.52 59.65,-388.88 46.16,-391.48"/>
</g>
<!-- Node43&#45;&gt;Node41 -->
<g id="edge40" class="edge">
<title>Node43&#45;&gt;Node41</title>
<path fill="none" stroke="midnightblue" d="M497.25,-443.21C493.64,-440.63 490.3,-437.49 488,-433.75 447.94,-368.67 508.8,-142.88 452,-91.75 410.71,-54.58 367.39,-53.61 327,-91.75 276.26,-139.66 330.99,-661.57 291,-718.75 288.33,-722.57 284.72,-725.63 280.72,-728.08"/>
</g>
<!-- Node43&#45;&gt;Node42 -->
<g id="edge42" class="edge">
<title>Node43&#45;&gt;Node42</title>
<path fill="none" stroke="midnightblue" d="M497.2,-443.24C493.59,-440.65 490.27,-437.51 488,-433.75 441.05,-356.04 518.97,-88.06 452,-26.75 308.06,105.01 153.02,-298.3 128,-366.97"/>
</g>
<!-- Node43&#45;&gt;Node14 -->
<g id="edge29" class="edge">
<title>Node43&#45;&gt;Node14</title>
<path fill="none" stroke="midnightblue" d="M489.09,-443.21C477.69,-439.72 464.34,-436.07 452,-433.75 298.4,-404.94 109.56,-397.84 46.03,-396.21"/>
</g>
<!-- Node43&#45;&gt;Node15 -->
<g id="edge30" class="edge">
<title>Node43&#45;&gt;Node15</title>
<path fill="none" stroke="midnightblue" d="M501.55,-443.18C497.06,-440.3 492.24,-437.03 488,-433.75 470.81,-420.5 470.86,-411.5 452,-400.75 422.44,-383.91 330.39,-359.47 280.29,-346.9"/>
</g>
<!-- Node44 -->
<g id="node15" class="node">
<title>Node44</title>
<g id="a_node15"><a xlink:href="ppp_8cpp.html#a16577502bd03c2d743d118a6993420d5" target="_top" xlink:title="phase windup model">
<polygon fill="white" stroke="black" points="353,-785.25 353,-804.25 426,-804.25 426,-785.25 353,-785.25"/>
<text text-anchor="middle" x="389.5" y="-792.25" font-family="Helvetica,sans-Serif" font-size="10.00">model_phw</text>
</a>
</g>
</g>
<!-- Node43&#45;&gt;Node44 -->
<g id="edge15" class="edge">
<title>Node43&#45;&gt;Node44</title>
<path fill="none" stroke="midnightblue" d="M516.85,-462.4C513.37,-510.88 495.58,-727.6 452,-775.75 445.25,-783.21 435.65,-787.77 426.03,-790.55"/>
</g>
<!-- Node10 -->
<g id="node16" class="node">
<title>Node10</title>
<g id="a_node16"><a xlink:href="ppp__network_8cpp.html#adbcdcf140ee377fae3dd4ea16d34e4af" target="_top" xlink:title="PPP observed&#45;minus&#45;computed.">
<polygon fill="white" stroke="red" points="218,-690.25 218,-709.25 274,-709.25 274,-690.25 218,-690.25"/>
<text text-anchor="middle" x="246" y="-697.25" font-family="Helvetica,sans-Serif" font-size="10.00">pppomc</text>
</a>
</g>
</g>
<!-- Node43&#45;&gt;Node10 -->
<g id="edge41" class="edge">
<title>Node43&#45;&gt;Node10</title>
<path fill="none" stroke="midnightblue" d="M497.22,-443.22C493.61,-440.64 490.28,-437.5 488,-433.75 444.45,-362.26 513.96,-115.05 452,-58.75 410.88,-21.39 367.4,-20.62 327,-58.75 276.65,-106.27 330.69,-624.03 291,-680.75 286.9,-686.62 280.59,-690.69 274.01,-693.5"/>
</g>
<!-- Node45 -->
<g id="node17" class="node">
<title>Node45</title>
<g id="a_node17"><a xlink:href="minimumConstraints_8cpp.html#a57caa6625daa451bc374b5a315a3bce9" target="_top" xlink:title=" ">
<polygon fill="white" stroke="black" points="351,-747.25 351,-766.25 428,-766.25 428,-747.25 351,-747.25"/>
<text text-anchor="middle" x="389.5" y="-754.25" font-family="Helvetica,sans-Serif" font-size="10.00">minSiteData</text>
</a>
</g>
</g>
<!-- Node43&#45;&gt;Node45 -->
<g id="edge19" class="edge">
<title>Node43&#45;&gt;Node45</title>
<path fill="none" stroke="midnightblue" d="M516.56,-462.44C512.01,-507.46 490.87,-695.91 452,-737.75 445.69,-744.55 437,-748.94 428.15,-751.76"/>
</g>
<!-- Node46 -->
<g id="node18" class="node">
<title>Node46</title>
<g id="a_node18"><a xlink:href="minimumConstraints_8cpp.html#a85e412176915fe538d691251614f877a" target="_top" xlink:title=" ">
<polygon fill="white" stroke="red" points="219.5,-652.25 219.5,-671.25 272.5,-671.25 272.5,-652.25 219.5,-652.25"/>
<text text-anchor="middle" x="246" y="-659.25" font-family="Helvetica,sans-Serif" font-size="10.00">mincon</text>
</a>
</g>
</g>
<!-- Node43&#45;&gt;Node46 -->
<g id="edge27" class="edge">
<title>Node43&#45;&gt;Node46</title>
<path fill="none" stroke="midnightblue" d="M487.62,-461.54C434.4,-477.2 328.6,-508.44 327,-509.75 279.1,-549.17 256.23,-624.88 249.33,-651.88"/>
</g>
<!-- Node48 -->
<g id="node19" class="node">
<title>Node48</title>
<g id="a_node19"><a xlink:href="interpolate__loading_8cpp.html#a98f7bd618e2c0a14e80b1b1f026aff06" target="_top" xlink:title=" ">
<polygon fill="white" stroke="red" points="340,-709.25 340,-728.25 439,-728.25 439,-709.25 340,-709.25"/>
<text text-anchor="middle" x="389.5" y="-716.25" font-family="Helvetica,sans-Serif" font-size="10.00">program_options</text>
</a>
</g>
</g>
<!-- Node43&#45;&gt;Node48 -->
<g id="edge22" class="edge">
<title>Node43&#45;&gt;Node48</title>
<path fill="none" stroke="midnightblue" d="M517.79,-462.5C518.32,-498.3 515.38,-624.14 452,-694.75 446.33,-701.07 438.81,-705.73 430.96,-709.18"/>
</g>
<!-- Node21 -->
<g id="node20" class="node">
<title>Node21</title>
<g id="a_node20"><a xlink:href="spp_8cpp.html#afe946d837e0a89c159b73e50c65e39e4" target="_top" xlink:title="Estimate receiver position and biases using code measurements.">
<polygon fill="white" stroke="red" points="365,-633.25 365,-652.25 414,-652.25 414,-633.25 365,-633.25"/>
<text text-anchor="middle" x="389.5" y="-640.25" font-family="Helvetica,sans-Serif" font-size="10.00">estpos</text>
</a>
</g>
</g>
<!-- Node43&#45;&gt;Node21 -->
<g id="edge23" class="edge">
<title>Node43&#45;&gt;Node21</title>
<path fill="none" stroke="midnightblue" d="M516.68,-462.5C513.71,-491.47 500.97,-577.92 452,-623.75 441.72,-633.38 426.66,-638.13 414.02,-640.47"/>
</g>
<!-- Node50 -->
<g id="node21" class="node">
<title>Node50</title>
<g id="a_node21"><a xlink:href="ionoSphericalCaps_8cpp.html#a906282f60e53b02995e06f9048079b78" target="_top" xlink:title=" ">
<polygon fill="white" stroke="red" points="337,-595.25 337,-614.25 442,-614.25 442,-595.25 337,-595.25"/>
<text text-anchor="middle" x="389.5" y="-602.25" font-family="Helvetica,sans-Serif" font-size="10.00">Ipp_check_sphcap</text>
</a>
</g>
</g>
<!-- Node43&#45;&gt;Node50 -->
<g id="edge24" class="edge">
<title>Node43&#45;&gt;Node50</title>
<path fill="none" stroke="midnightblue" d="M515.52,-462.41C509.99,-486.82 492.14,-551.5 452,-585.75 447.41,-589.67 442.02,-592.78 436.37,-595.25"/>
</g>
<!-- Node58 -->
<g id="node22" class="node">
<title>Node58</title>
<g id="a_node22"><a xlink:href="ppp_8cpp.html#a952c5db3b307d745174a68045264f9e6" target="_top" xlink:title="Compare estimated station position with benchmark in SINEX file.">
<polygon fill="white" stroke="red" points="336.5,-557.25 336.5,-576.25 442.5,-576.25 442.5,-557.25 336.5,-557.25"/>
<text text-anchor="middle" x="389.5" y="-564.25" font-family="Helvetica,sans-Serif" font-size="10.00">outputPPPSolution</text>
</a>
</g>
</g>
<!-- Node43&#45;&gt;Node58 -->
<g id="edge25" class="edge">
<title>Node43&#45;&gt;Node58</title>
<path fill="none" stroke="midnightblue" d="M513.48,-462.43C505.01,-481.61 483.49,-524.63 452,-547.75 446.69,-551.66 440.55,-554.77 434.26,-557.25"/>
</g>
<!-- Node59 -->
<g id="node23" class="node">
<title>Node59</title>
<g id="a_node23"><a xlink:href="ionoSpherical_8cpp.html#a32460ecb229f47f08516ff7a35f45f47" target="_top" xlink:title=" ">
<polygon fill="white" stroke="red" points="337.5,-519.25 337.5,-538.25 441.5,-538.25 441.5,-519.25 337.5,-519.25"/>
<text text-anchor="middle" x="389.5" y="-526.25" font-family="Helvetica,sans-Serif" font-size="10.00">Ipp_check_sphhar</text>
</a>
</g>
</g>
<!-- Node43&#45;&gt;Node59 -->
<g id="edge26" class="edge">
<title>Node43&#45;&gt;Node59</title>
<path fill="none" stroke="midnightblue" d="M507.1,-462.66C494.75,-474 473.15,-492.6 452,-504.75 442.06,-510.46 430.5,-515.38 420.11,-519.24"/>
</g>
<!-- Node61 -->
<g id="node24" class="node">
<title>Node61</title>
<g id="a_node24"><a xlink:href="structPosition3D.html#a758df4fe157d20b20cae17ddc84fd280" target="_top" xlink:title=" ">
<polygon fill="white" stroke="black" points="346,-443.25 346,-462.25 433,-462.25 433,-443.25 346,-443.25"/>
<text text-anchor="middle" x="389.5" y="-450.25" font-family="Helvetica,sans-Serif" font-size="10.00">Position3D::llh</text>
</a>
</g>
</g>
<!-- Node43&#45;&gt;Node61 -->
<g id="edge28" class="edge">
<title>Node43&#45;&gt;Node61</title>
<path fill="none" stroke="midnightblue" d="M487.72,-452.75C471.45,-452.75 451.01,-452.75 433.07,-452.75"/>
</g>
<!-- Node52 -->
<g id="node25" class="node">
<title>Node52</title>
<g id="a_node25"><a xlink:href="ionoMeas_8cpp.html#a3dce4bc6a3c8a98b9f14fd6804d330c3" target="_top" xlink:title=" ">
<polygon fill="white" stroke="red" points="327,-329.25 327,-348.25 452,-348.25 452,-329.25 327,-329.25"/>
<text text-anchor="middle" x="389.5" y="-336.25" font-family="Helvetica,sans-Serif" font-size="10.00">update_receivr_measr</text>
</a>
</g>
</g>
<!-- Node43&#45;&gt;Node52 -->
<g id="edge31" class="edge">
<title>Node43&#45;&gt;Node52</title>
<path fill="none" stroke="midnightblue" d="M499.16,-443.09C495.16,-440.42 491.18,-437.28 488,-433.75 464.3,-407.48 478.2,-386.53 452,-362.75 445.12,-356.52 436.44,-351.82 427.79,-348.32"/>
</g>
<!-- Node62 -->
<g id="node26" class="node">
<title>Node62</title>
<g id="a_node26"><a xlink:href="tropSinex_8cpp.html#a46c251b82049d97d17fe992587395761" target="_top" xlink:title="Set troposphere solution data from filter.">
<polygon fill="white" stroke="red" points="329,-291.25 329,-310.25 450,-310.25 450,-291.25 329,-291.25"/>
<text text-anchor="middle" x="389.5" y="-298.25" font-family="Helvetica,sans-Serif" font-size="10.00">setTropSolsFromFilter</text>
</a>
</g>
</g>
<!-- Node43&#45;&gt;Node62 -->
<g id="edge32" class="edge">
<title>Node43&#45;&gt;Node62</title>
<path fill="none" stroke="midnightblue" d="M498.42,-443.24C494.55,-440.6 490.81,-437.43 488,-433.75 455.75,-391.53 489.69,-357.21 452,-319.75 448.12,-315.89 443.47,-312.82 438.48,-310.36"/>
</g>
<!-- Node65 -->
<g id="node27" class="node">
<title>Node65</title>
<g id="a_node27"><a xlink:href="tropSinex_8cpp.html#a2fb8fe8aceac5caf6ff006e3bd6635d4" target="_top" xlink:title="Write SITE/ID block.">
<polygon fill="white" stroke="red" points="345,-253.25 345,-272.25 434,-272.25 434,-253.25 345,-253.25"/>
<text text-anchor="middle" x="389.5" y="-260.25" font-family="Helvetica,sans-Serif" font-size="10.00">writeTropSiteId</text>
</a>
</g>
</g>
<!-- Node43&#45;&gt;Node65 -->
<g id="edge33" class="edge">
<title>Node43&#45;&gt;Node65</title>
<path fill="none" stroke="midnightblue" d="M497.92,-443.18C494.17,-440.57 490.6,-437.43 488,-433.75 447.91,-377.07 499.42,-332.46 452,-281.75 447.12,-276.53 440.83,-272.73 434.15,-269.97"/>
</g>
<!-- Node67 -->
<g id="node28" class="node">
<title>Node67</title>
<g id="a_node28"><a xlink:href="gpx_8cpp.html#abb932fb5cbfb1d0b702877cbbfe911ea" target="_top" xlink:title=" ">
<polygon fill="white" stroke="red" points="346,-215.25 346,-234.25 433,-234.25 433,-215.25 346,-215.25"/>
<text text-anchor="middle" x="389.5" y="-222.25" font-family="Helvetica,sans-Serif" font-size="10.00">writeGPXEntry</text>
</a>
</g>
</g>
<!-- Node43&#45;&gt;Node67 -->
<g id="edge34" class="edge">
<title>Node43&#45;&gt;Node67</title>
<path fill="none" stroke="midnightblue" d="M497.49,-443.05C493.86,-440.49 490.45,-437.39 488,-433.75 439.97,-362.48 509.26,-307.84 452,-243.75 446.94,-238.09 440.22,-234.09 433.1,-231.28"/>
</g>
<!-- Node69 -->
<g id="node29" class="node">
<title>Node69</title>
<g id="a_node29"><a xlink:href="corrections_8cpp.html#ab57f26325023be49f35bd1c38e686469" target="_top" xlink:title=" ">
<polygon fill="white" stroke="black" points="361,-177.25 361,-196.25 418,-196.25 418,-177.25 361,-177.25"/>
<text text-anchor="middle" x="389.5" y="-184.25" font-family="Helvetica,sans-Serif" font-size="10.00">ionmapf</text>
</a>
</g>
</g>
<!-- Node43&#45;&gt;Node69 -->
<g id="edge35" class="edge">
<title>Node43&#45;&gt;Node69</title>
<path fill="none" stroke="midnightblue" d="M497.4,-443.11C493.78,-440.54 490.39,-437.43 488,-433.75 431.98,-347.81 519.17,-283.29 452,-205.75 443.59,-196.04 430.32,-191.22 418.26,-188.86"/>
</g>
<!-- Node70 -->
<g id="node30" class="node">
<title>Node70</title>
<g id="a_node30"><a xlink:href="GinARoutpt_8cpp.html#a15eeefdc06bd3997b9c8dd4bbc9c4088" target="_top" xlink:title="Output ambiguity measurments/states.">
<polygon fill="white" stroke="red" points="362,-139.25 362,-158.25 417,-158.25 417,-139.25 362,-139.25"/>
<text text-anchor="middle" x="389.5" y="-146.25" font-family="Helvetica,sans-Serif" font-size="10.00">artrcout</text>
</a>
</g>
</g>
<!-- Node43&#45;&gt;Node70 -->
<g id="edge36" class="edge">
<title>Node43&#45;&gt;Node70</title>
<path fill="none" stroke="midnightblue" d="M497.34,-443.15C493.72,-440.58 490.35,-437.45 488,-433.75 423.97,-333.09 529.11,-258.78 452,-167.75 443.4,-157.61 429.51,-152.79 417.1,-150.54"/>
</g>
<!-- Node73 -->
<g id="node31" class="node">
<title>Node73</title>
<g id="a_node31"><a xlink:href="ppp_8cpp.html#ac69b900e214bc27892a8c55b60a872a0" target="_top" xlink:title=" ">
<polygon fill="white" stroke="black" points="354,-101.25 354,-120.25 425,-120.25 425,-101.25 354,-101.25"/>
<text text-anchor="middle" x="389.5" y="-108.25" font-family="Helvetica,sans-Serif" font-size="10.00">sbstropcorr</text>
</a>
</g>
</g>
<!-- Node43&#45;&gt;Node73 -->
<g id="edge37" class="edge">
<title>Node43&#45;&gt;Node73</title>
<path fill="none" stroke="midnightblue" d="M497.29,-443.18C493.67,-440.6 490.32,-437.47 488,-433.75 415.93,-318.35 539.08,-234.29 452,-129.75 445.28,-121.68 435.2,-116.98 425.14,-114.25"/>
</g>
<!-- Node44&#45;&gt;Node41 -->
<g id="edge16" class="edge">
<title>Node44&#45;&gt;Node41</title>
<path fill="none" stroke="midnightblue" d="M353.62,-785.21C344.82,-782.47 335.47,-779.26 327,-775.75 310.29,-768.83 307.32,-764.57 291,-756.75 284.25,-753.52 276.8,-750.21 269.99,-747.28"/>
</g>
<!-- Node44&#45;&gt;Node15 -->
<g id="edge18" class="edge">
<title>Node44&#45;&gt;Node15</title>
<path fill="none" stroke="midnightblue" d="M352.88,-790.63C343.26,-787.86 333.68,-783.27 327,-775.75 297.23,-742.23 255.55,-409.15 248.15,-348.28"/>
</g>
<!-- Node44&#45;&gt;Node10 -->
<g id="edge17" class="edge">
<title>Node44&#45;&gt;Node10</title>
<path fill="none" stroke="midnightblue" d="M352.93,-788.38C343.85,-785.56 334.54,-781.53 327,-775.75 303.21,-757.54 313.77,-738.23 291,-718.75 286.07,-714.54 280.06,-711.12 274.08,-708.42"/>
</g>
<!-- Node45&#45;&gt;Node46 -->
<g id="edge20" class="edge">
<title>Node45&#45;&gt;Node46</title>
<path fill="none" stroke="midnightblue" d="M350.69,-749.66C342.33,-746.89 333.92,-743.05 327,-737.75 303.21,-719.54 313.77,-700.23 291,-680.75 285.69,-676.21 279.13,-672.6 272.7,-669.81"/>
</g>
<!-- Node46&#45;&gt;Node25 -->
<g id="edge21" class="edge">
<title>Node46&#45;&gt;Node25</title>
<path fill="none" stroke="midnightblue" d="M219.45,-669.81C200.52,-675.78 174.66,-683.94 154.7,-690.23"/>
</g>
<!-- Node73&#45;&gt;Node42 -->
<g id="edge38" class="edge">
<title>Node73&#45;&gt;Node42</title>
<path fill="none" stroke="midnightblue" d="M353.73,-114.5C343.78,-117.24 333.8,-121.9 327,-129.75 259.83,-207.29 365.08,-286.79 291,-357.75 254.97,-392.27 192.49,-389.07 155.17,-383.19"/>
</g>
<!-- Node73&#45;&gt;Node15 -->
<g id="edge39" class="edge">
<title>Node73&#45;&gt;Node15</title>
<path fill="none" stroke="midnightblue" d="M353.72,-115.69C344.12,-118.49 334.34,-122.88 327,-129.75 265.74,-187.11 250.9,-296.47 247.76,-329.24"/>
</g>
<!-- Node74&#45;&gt;Node10 -->
<g id="edge44" class="edge">
<title>Node74&#45;&gt;Node10</title>
<path fill="none" stroke="midnightblue" d="M497.4,-424.4C493.78,-426.97 490.39,-430.08 488,-433.75 431.98,-519.7 523.57,-588.25 452,-661.75 427.7,-686.72 324.03,-695.62 274.1,-698.51"/>
</g>
<!-- Node74&#45;&gt;Node21 -->
<g id="edge45" class="edge">
<title>Node74&#45;&gt;Node21</title>
<path fill="none" stroke="midnightblue" d="M497.49,-424.45C493.86,-427.02 490.45,-430.12 488,-433.75 439.97,-505.03 509.26,-559.66 452,-623.75 442.47,-634.42 427.09,-639.17 414.1,-641.25"/>
</g>
</g>
</svg>
