<?xml version="1.0" encoding="UTF-8" standalone="no"?>
<!DOCTYPE svg PUBLIC "-//W3C//DTD SVG 1.1//EN"
 "http://www.w3.org/Graphics/SVG/1.1/DTD/svg11.dtd">
<!-- Generated by graphviz version 2.43.0 (0)
 -->
<!-- Title: matmul Pages: 1 -->
<svg width="363pt" height="229pt"
 viewBox="0.00 0.00 363.00 228.93" xmlns="http://www.w3.org/2000/svg" xmlns:xlink="http://www.w3.org/1999/xlink">
<g id="graph0" class="graph" transform="scale(1 1) rotate(0) translate(4 224.93)">
<title>matmul</title>
<polygon fill="white" stroke="transparent" points="-4,4 -4,-224.93 359,-224.93 359,4 -4,4"/>
<!-- Node1 -->
<g id="node1" class="node">
<title>Node1</title>
<g id="a_node1"><a xlink:title=" ">
<polygon fill="#bfbfbf" stroke="black" points="300,-103.04 300,-122.04 355,-122.04 355,-103.04 300,-103.04"/>
<text text-anchor="middle" x="327.5" y="-110.04" font-family="Helvetica,sans-Serif" font-size="10.00">matmul</text>
</a>
</g>
</g>
<!-- Node2 -->
<g id="node2" class="node">
<title>Node2</title>
<g id="a_node2"><a xlink:href="acsQC_8cpp.html#a501b956d22444b573a8867d87ad590d5" target="_top" xlink:title="Single channel detection–identification–adaptation (DIA) for integer cycle slips.">
<polygon fill="white" stroke="red" points="0,-122.04 0,-141.04 42,-141.04 42,-122.04 0,-122.04"/>
<text text-anchor="middle" x="21" y="-129.04" font-family="Helvetica,sans-Serif" font-size="10.00">scdia</text>
</a>
</g>
</g>
<!-- Node1&#45;&gt;Node2 -->
<g id="edge1" class="edge">
<title>Node1&#45;&gt;Node2</title>
<path fill="none" stroke="midnightblue" d="M320.22,-131.74C311.6,-154.55 293.7,-191.53 264,-207.54 181.82,-251.85 69.79,-170.65 33.71,-141.43"/>
<polygon fill="midnightblue" stroke="midnightblue" points="323.59,-132.7 323.63,-122.11 316.99,-130.37 323.59,-132.7"/>
</g>
<!-- Node14 -->
<g id="node3" class="node">
<title>Node14</title>
<g id="a_node3"><a xlink:href="ionoSphericalCaps_8cpp.html#af953ae8b4e5d94daecada20e21dd59a2" target="_top" xlink:title="transforms the Ionosphere Piercing Point and checks if it falls in area of coverage time: I time of o...">
<polygon fill="white" stroke="red" points="167,-179.04 167,-198.04 264,-198.04 264,-179.04 167,-179.04"/>
<text text-anchor="middle" x="215.5" y="-186.04" font-family="Helvetica,sans-Serif" font-size="10.00">ippCheckSphcap</text>
</a>
</g>
</g>
<!-- Node1&#45;&gt;Node14 -->
<g id="edge2" class="edge">
<title>Node1&#45;&gt;Node14</title>
<path fill="none" stroke="midnightblue" d="M311.05,-129.6C299.14,-141.97 281.76,-158.41 264,-169.54 258.28,-173.13 251.77,-176.26 245.44,-178.89"/>
<polygon fill="midnightblue" stroke="midnightblue" points="313.74,-131.85 318.03,-122.16 308.64,-127.06 313.74,-131.85"/>
</g>
<!-- Node26 -->
<g id="node4" class="node">
<title>Node26</title>
<g id="a_node4"><a xlink:href="algebra__old_8cpp.html#a54fd9b64416949c38e879ac889964d2a" target="_top" xlink:title=" ">
<polygon fill="white" stroke="red" points="194,-141.04 194,-160.04 237,-160.04 237,-141.04 194,-141.04"/>
<text text-anchor="middle" x="215.5" y="-148.04" font-family="Helvetica,sans-Serif" font-size="10.00">solve</text>
</a>
</g>
</g>
<!-- Node1&#45;&gt;Node26 -->
<g id="edge3" class="edge">
<title>Node1&#45;&gt;Node26</title>
<path fill="none" stroke="midnightblue" d="M290.4,-125.02C272.69,-131.13 252,-138.28 237.03,-143.45"/>
<polygon fill="midnightblue" stroke="midnightblue" points="291.56,-128.31 299.87,-121.74 289.28,-121.7 291.56,-128.31"/>
</g>
<!-- Node29 -->
<g id="node5" class="node">
<title>Node29</title>
<g id="a_node5"><a xlink:href="lambda_8cpp.html#a364f9f201016e3baff0a9366158a823b" target="_top" xlink:title=" ">
<polygon fill="white" stroke="red" points="78,-141.04 78,-160.04 131,-160.04 131,-141.04 78,-141.04"/>
<text text-anchor="middle" x="104.5" y="-148.04" font-family="Helvetica,sans-Serif" font-size="10.00">lambda</text>
</a>
</g>
</g>
<!-- Node1&#45;&gt;Node29 -->
<g id="edge12" class="edge">
<title>Node1&#45;&gt;Node29</title>
<path fill="none" stroke="midnightblue" d="M320.22,-93.35C311.6,-70.54 293.7,-33.56 264,-17.54 226.05,2.92 201.77,7.94 167,-17.54 124.14,-48.95 161.79,-88.24 131,-131.54 128.5,-135.05 125.16,-138.19 121.72,-140.85"/>
<polygon fill="midnightblue" stroke="midnightblue" points="316.99,-94.72 323.63,-102.98 323.59,-92.38 316.99,-94.72"/>
</g>
<!-- Node38 -->
<g id="node6" class="node">
<title>Node38</title>
<g id="a_node6"><a xlink:href="algebra__old_8cpp.html#acc2b857563b3c233a09fe2427965f7b2" target="_top" xlink:title=" ">
<polygon fill="white" stroke="black" points="83.5,-103.04 83.5,-122.04 125.5,-122.04 125.5,-103.04 83.5,-103.04"/>
<text text-anchor="middle" x="104.5" y="-110.04" font-family="Helvetica,sans-Serif" font-size="10.00">lsqqc</text>
</a>
</g>
</g>
<!-- Node1&#45;&gt;Node38 -->
<g id="edge6" class="edge">
<title>Node1&#45;&gt;Node38</title>
<path fill="none" stroke="midnightblue" d="M289.77,-112.54C242.75,-112.54 162.93,-112.54 125.72,-112.54"/>
<polygon fill="midnightblue" stroke="midnightblue" points="289.84,-116.04 299.84,-112.54 289.84,-109.04 289.84,-116.04"/>
</g>
<!-- Node39 -->
<g id="node7" class="node">
<title>Node39</title>
<g id="a_node7"><a xlink:href="algebra__old_8cpp.html#a56b19c4e307111fe68e1e2c1f57868a1" target="_top" xlink:title=" ">
<polygon fill="white" stroke="black" points="82.5,-65.04 82.5,-84.04 126.5,-84.04 126.5,-65.04 82.5,-65.04"/>
<text text-anchor="middle" x="104.5" y="-72.04" font-family="Helvetica,sans-Serif" font-size="10.00">filter_</text>
</a>
</g>
</g>
<!-- Node1&#45;&gt;Node39 -->
<g id="edge8" class="edge">
<title>Node1&#45;&gt;Node39</title>
<path fill="none" stroke="midnightblue" d="M289.85,-106.24C243.23,-98.23 164.27,-84.65 126.65,-78.18"/>
<polygon fill="midnightblue" stroke="midnightblue" points="289.39,-109.71 299.84,-107.96 290.58,-102.81 289.39,-109.71"/>
</g>
<!-- Node40 -->
<g id="node8" class="node">
<title>Node40</title>
<g id="a_node8"><a xlink:href="algebra__old_8cpp.html#aeeb14c76251388cfcbcbcf3177990976" target="_top" xlink:title=" ">
<polygon fill="white" stroke="black" points="194.5,-27.04 194.5,-46.04 236.5,-46.04 236.5,-27.04 194.5,-27.04"/>
<text text-anchor="middle" x="215.5" y="-34.04" font-family="Helvetica,sans-Serif" font-size="10.00">chiqc</text>
</a>
</g>
</g>
<!-- Node1&#45;&gt;Node40 -->
<g id="edge10" class="edge">
<title>Node1&#45;&gt;Node40</title>
<path fill="none" stroke="midnightblue" d="M308.89,-96.04C296.81,-85.2 280.11,-71.12 264,-60.54 255.5,-54.97 245.54,-49.75 236.94,-45.61"/>
<polygon fill="midnightblue" stroke="midnightblue" points="306.7,-98.79 316.45,-102.95 311.43,-93.62 306.7,-98.79"/>
</g>
<!-- Node26&#45;&gt;Node29 -->
<g id="edge4" class="edge">
<title>Node26&#45;&gt;Node29</title>
<path fill="none" stroke="midnightblue" d="M183.73,-150.54C167.19,-150.54 147.01,-150.54 131.3,-150.54"/>
<polygon fill="midnightblue" stroke="midnightblue" points="184,-154.04 194,-150.54 184,-147.04 184,-154.04"/>
</g>
<!-- Node29&#45;&gt;Node2 -->
<g id="edge5" class="edge">
<title>Node29&#45;&gt;Node2</title>
<path fill="none" stroke="midnightblue" d="M67.7,-142.2C58.96,-140.16 49.91,-138.05 42.2,-136.25"/>
<polygon fill="midnightblue" stroke="midnightblue" points="67.18,-145.67 77.71,-144.53 68.77,-138.85 67.18,-145.67"/>
</g>
<!-- Node38&#45;&gt;Node2 -->
<g id="edge7" class="edge">
<title>Node38&#45;&gt;Node2</title>
<path fill="none" stroke="midnightblue" d="M73.4,-119.56C63,-121.98 51.61,-124.64 42.2,-126.83"/>
<polygon fill="midnightblue" stroke="midnightblue" points="74.41,-122.92 83.35,-117.24 72.82,-116.1 74.41,-122.92"/>
</g>
<!-- Node39&#45;&gt;Node2 -->
<g id="edge9" class="edge">
<title>Node39&#45;&gt;Node2</title>
<path fill="none" stroke="midnightblue" d="M81.2,-90.14C66.62,-100.34 48.04,-113.33 35.62,-122.02"/>
<polygon fill="midnightblue" stroke="midnightblue" points="83.49,-92.81 89.67,-84.21 79.47,-87.07 83.49,-92.81"/>
</g>
<!-- Node40&#45;&gt;Node38 -->
<g id="edge11" class="edge">
<title>Node40&#45;&gt;Node38</title>
<path fill="none" stroke="midnightblue" d="M192.32,-52.01C170.4,-67.29 137.56,-90.19 119.19,-103"/>
<polygon fill="midnightblue" stroke="midnightblue" points="194.49,-54.76 200.7,-46.17 190.49,-49.02 194.49,-54.76"/>
</g>
</g>
</svg>
