<?xml version="1.0" encoding="UTF-8" standalone="no"?>
<!DOCTYPE svg PUBLIC "-//W3C//DTD SVG 1.1//EN"
 "http://www.w3.org/Graphics/SVG/1.1/DTD/svg11.dtd">
<!-- Generated by graphviz version 2.43.0 (0)
 -->
<!-- Title: getFilterObjectFromFile Pages: 1 -->
<svg width="362pt" height="104pt"
 viewBox="0.00 0.00 362.00 104.00" xmlns="http://www.w3.org/2000/svg" xmlns:xlink="http://www.w3.org/1999/xlink">
<g id="graph0" class="graph" transform="scale(1 1) rotate(0) translate(4 100)">
<title>getFilterObjectFromFile</title>
<polygon fill="white" stroke="transparent" points="-4,4 -4,-100 358,-100 358,4 -4,4"/>
<!-- Node1 -->
<g id="node1" class="node">
<title>Node1</title>
<g id="a_node1"><a xlink:title=" ">
<polygon fill="#bfbfbf" stroke="black" points="225,-38.5 225,-57.5 354,-57.5 354,-38.5 225,-38.5"/>
<text text-anchor="middle" x="289.5" y="-45.5" font-family="Helvetica,sans-Serif" font-size="10.00">getFilterObjectFromFile</text>
</a>
</g>
</g>
<!-- Node2 -->
<g id="node2" class="node">
<title>Node2</title>
<g id="a_node2"><a xlink:href="rtsSmoothing_8cpp.html#a4e8aaa5b04173a1f1c784b486954de3a" target="_top" xlink:title="Output filter states from a reversed binary trace file.">
<polygon fill="white" stroke="black" points="114.5,-76.5 114.5,-95.5 188.5,-95.5 188.5,-76.5 114.5,-76.5"/>
<text text-anchor="middle" x="151.5" y="-83.5" font-family="Helvetica,sans-Serif" font-size="10.00">RTS_Output</text>
</a>
</g>
</g>
<!-- Node1&#45;&gt;Node2 -->
<g id="edge1" class="edge">
<title>Node1&#45;&gt;Node2</title>
<path fill="none" stroke="midnightblue" d="M254.18,-57.59C233.56,-63.35 207.42,-70.65 186.81,-76.41"/>
</g>
<!-- Node3 -->
<g id="node3" class="node">
<title>Node3</title>
<g id="a_node3"><a xlink:href="rtsSmoothing_8cpp.html#a38ab8796647005faee38cdd21deaf19b" target="_top" xlink:title=" ">
<polygon fill="white" stroke="red" points="0,-57.5 0,-76.5 78,-76.5 78,-57.5 0,-57.5"/>
<text text-anchor="middle" x="39" y="-64.5" font-family="Helvetica,sans-Serif" font-size="10.00">RTS_Process</text>
</a>
</g>
</g>
<!-- Node1&#45;&gt;Node3 -->
<g id="edge3" class="edge">
<title>Node1&#45;&gt;Node3</title>
<path fill="none" stroke="midnightblue" d="M224.83,-52.87C178.52,-56.41 117.36,-61.09 78.34,-64.07"/>
</g>
<!-- Node10 -->
<g id="node4" class="node">
<title>Node10</title>
<g id="a_node4"><a xlink:href="minimumConstraints_8cpp.html#a91e7c5f0512892cbb8ff736bb4fc35d7" target="_top" xlink:title=" ">
<polygon fill="white" stroke="red" points="114,-0.5 114,-19.5 189,-19.5 189,-0.5 114,-0.5"/>
<text text-anchor="middle" x="151.5" y="-7.5" font-family="Helvetica,sans-Serif" font-size="10.00">minconOnly</text>
</a>
</g>
</g>
<!-- Node1&#45;&gt;Node10 -->
<g id="edge4" class="edge">
<title>Node1&#45;&gt;Node10</title>
<path fill="none" stroke="midnightblue" d="M254.18,-38.41C233.56,-32.65 207.42,-25.35 186.81,-19.59"/>
</g>
<!-- Node2&#45;&gt;Node3 -->
<g id="edge2" class="edge">
<title>Node2&#45;&gt;Node3</title>
<path fill="none" stroke="midnightblue" d="M114.32,-79.78C102.74,-77.79 89.88,-75.58 78.16,-73.56"/>
</g>
</g>
</svg>
