<?xml version="1.0" encoding="UTF-8" standalone="no"?>
<!DOCTYPE svg PUBLIC "-//W3C//DTD SVG 1.1//EN"
 "http://www.w3.org/Graphics/SVG/1.1/DTD/svg11.dtd">
<!-- Generated by graphviz version 2.43.0 (0)
 -->
<!-- Title: matcpy Pages: 1 -->
<svg width="307pt" height="198pt"
 viewBox="0.00 0.00 307.00 198.13" xmlns="http://www.w3.org/2000/svg" xmlns:xlink="http://www.w3.org/1999/xlink">
<g id="graph0" class="graph" transform="scale(1 1) rotate(0) translate(4 194.13)">
<title>matcpy</title>
<polygon fill="white" stroke="transparent" points="-4,4 -4,-194.13 303,-194.13 303,4 -4,4"/>
<!-- Node1 -->
<g id="node1" class="node">
<title>Node1</title>
<g id="a_node1"><a xlink:title=" ">
<polygon fill="#bfbfbf" stroke="black" points="246,-95.5 246,-114.5 299,-114.5 299,-95.5 246,-95.5"/>
<text text-anchor="middle" x="272.5" y="-102.5" font-family="Helvetica,sans-Serif" font-size="10.00">matcpy</text>
</a>
</g>
</g>
<!-- Node2 -->
<g id="node2" class="node">
<title>Node2</title>
<g id="a_node2"><a xlink:href="acsQC_8cpp.html#a501b956d22444b573a8867d87ad590d5" target="_top" xlink:title="Single channel detection–identification–adaptation (DIA) for integer cycle slips.">
<polygon fill="white" stroke="red" points="0,-114.5 0,-133.5 42,-133.5 42,-114.5 0,-114.5"/>
<text text-anchor="middle" x="21" y="-121.5" font-family="Helvetica,sans-Serif" font-size="10.00">scdia</text>
</a>
</g>
</g>
<!-- Node1&#45;&gt;Node2 -->
<g id="edge1" class="edge">
<title>Node1&#45;&gt;Node2</title>
<path fill="none" stroke="midnightblue" d="M267.28,-114.51C259.09,-131.6 239.26,-167.04 210,-181 147.21,-210.96 65.11,-156.98 34.35,-133.81"/>
</g>
<!-- Node10 -->
<g id="node3" class="node">
<title>Node10</title>
<g id="a_node3"><a xlink:href="algebra__old_8cpp.html#a4035d20f11b4bd8085e6b0f84f8c0764" target="_top" xlink:title=" ">
<polygon fill="white" stroke="black" points="159,-152.5 159,-171.5 210,-171.5 210,-152.5 159,-152.5"/>
<text text-anchor="middle" x="184.5" y="-159.5" font-family="Helvetica,sans-Serif" font-size="10.00">matinv</text>
</a>
</g>
</g>
<!-- Node1&#45;&gt;Node10 -->
<g id="edge2" class="edge">
<title>Node1&#45;&gt;Node10</title>
<path fill="none" stroke="midnightblue" d="M256.91,-114.67C241,-125.21 215.7,-141.99 199.87,-152.47"/>
</g>
<!-- Node11 -->
<g id="node4" class="node">
<title>Node11</title>
<g id="a_node4"><a xlink:href="algebra__old_8cpp.html#a54fd9b64416949c38e879ac889964d2a" target="_top" xlink:title=" ">
<polygon fill="white" stroke="red" points="79,-114.5 79,-133.5 122,-133.5 122,-114.5 79,-114.5"/>
<text text-anchor="middle" x="100.5" y="-121.5" font-family="Helvetica,sans-Serif" font-size="10.00">solve</text>
</a>
</g>
</g>
<!-- Node1&#45;&gt;Node11 -->
<g id="edge10" class="edge">
<title>Node1&#45;&gt;Node11</title>
<path fill="none" stroke="midnightblue" d="M245.68,-107.89C211.87,-111.66 153.26,-118.21 122.2,-121.69"/>
</g>
<!-- Node34 -->
<g id="node5" class="node">
<title>Node34</title>
<g id="a_node5"><a xlink:href="algebra__old_8cpp.html#acc2b857563b3c233a09fe2427965f7b2" target="_top" xlink:title=" ">
<polygon fill="white" stroke="black" points="79.5,-76.5 79.5,-95.5 121.5,-95.5 121.5,-76.5 79.5,-76.5"/>
<text text-anchor="middle" x="100.5" y="-83.5" font-family="Helvetica,sans-Serif" font-size="10.00">lsqqc</text>
</a>
</g>
</g>
<!-- Node1&#45;&gt;Node34 -->
<g id="edge11" class="edge">
<title>Node1&#45;&gt;Node34</title>
<path fill="none" stroke="midnightblue" d="M245.68,-102.11C211.68,-98.31 152.62,-91.71 121.69,-88.26"/>
</g>
<!-- Node35 -->
<g id="node6" class="node">
<title>Node35</title>
<g id="a_node6"><a xlink:href="algebra__old_8cpp.html#a56b19c4e307111fe68e1e2c1f57868a1" target="_top" xlink:title=" ">
<polygon fill="white" stroke="black" points="78,-38.5 78,-57.5 123,-57.5 123,-38.5 78,-38.5"/>
<text text-anchor="middle" x="100.5" y="-45.5" font-family="Helvetica,sans-Serif" font-size="10.00">filter_</text>
</a>
</g>
</g>
<!-- Node1&#45;&gt;Node35 -->
<g id="edge9" class="edge">
<title>Node1&#45;&gt;Node35</title>
<path fill="none" stroke="midnightblue" d="M245.68,-96.34C212.24,-85.13 154.55,-65.79 123.24,-55.29"/>
</g>
<!-- Node36 -->
<g id="node7" class="node">
<title>Node36</title>
<g id="a_node7"><a xlink:href="algebra__old_8cpp.html#aeeb14c76251388cfcbcbcf3177990976" target="_top" xlink:title=" ">
<polygon fill="white" stroke="black" points="163.5,-0.5 163.5,-19.5 205.5,-19.5 205.5,-0.5 163.5,-0.5"/>
<text text-anchor="middle" x="184.5" y="-7.5" font-family="Helvetica,sans-Serif" font-size="10.00">chiqc</text>
</a>
</g>
</g>
<!-- Node1&#45;&gt;Node36 -->
<g id="edge12" class="edge">
<title>Node1&#45;&gt;Node36</title>
<path fill="none" stroke="midnightblue" d="M263.39,-95.13C251.85,-81.21 229.89,-55.14 210,-34 205.43,-29.14 200.17,-23.94 195.7,-19.63"/>
</g>
<!-- Node10&#45;&gt;Node2 -->
<g id="edge3" class="edge">
<title>Node10&#45;&gt;Node2</title>
<path fill="none" stroke="midnightblue" d="M158.97,-158.64C137.45,-155.44 105.39,-150.07 78,-143 65.97,-139.89 52.8,-135.48 42.26,-131.69"/>
</g>
<!-- Node10&#45;&gt;Node11 -->
<g id="edge4" class="edge">
<title>Node10&#45;&gt;Node11</title>
<path fill="none" stroke="midnightblue" d="M162.81,-152.41C150.38,-146.65 134.61,-139.35 122.19,-133.59"/>
</g>
<!-- Node10&#45;&gt;Node34 -->
<g id="edge5" class="edge">
<title>Node10&#45;&gt;Node34</title>
<path fill="none" stroke="midnightblue" d="M173.32,-152.22C161.37,-140.78 140.91,-121.34 123,-105 119.61,-101.91 115.89,-98.59 112.5,-95.6"/>
</g>
<!-- Node10&#45;&gt;Node35 -->
<g id="edge7" class="edge">
<title>Node10&#45;&gt;Node35</title>
<path fill="none" stroke="midnightblue" d="M172.21,-152.41C167.76,-148.27 162.8,-143.19 159,-138 138.08,-109.46 144.64,-94.99 123,-67 120.44,-63.69 117.25,-60.51 114.11,-57.72"/>
</g>
<!-- Node34&#45;&gt;Node2 -->
<g id="edge6" class="edge">
<title>Node34&#45;&gt;Node2</title>
<path fill="none" stroke="midnightblue" d="M79.94,-95.59C68.2,-101.35 53.3,-108.65 41.55,-114.41"/>
</g>
<!-- Node35&#45;&gt;Node2 -->
<g id="edge8" class="edge">
<title>Node35&#45;&gt;Node2</title>
<path fill="none" stroke="midnightblue" d="M88.43,-57.52C85.04,-60.51 81.32,-63.85 78,-67 61.09,-83.04 42.26,-102.57 31.31,-114.11"/>
</g>
<!-- Node36&#45;&gt;Node34 -->
<g id="edge13" class="edge">
<title>Node36&#45;&gt;Node34</title>
<path fill="none" stroke="midnightblue" d="M173.32,-19.78C161.37,-31.22 140.91,-50.66 123,-67 119.61,-70.09 115.89,-73.41 112.5,-76.4"/>
</g>
</g>
</svg>
