<?xml version="1.0" encoding="UTF-8" standalone="no"?>
<!DOCTYPE svg PUBLIC "-//W3C//DTD SVG 1.1//EN"
 "http://www.w3.org/Graphics/SVG/1.1/DTD/svg11.dtd">
<!-- Generated by graphviz version 2.43.0 (0)
 -->
<!-- Title: /data/acs/ginan/src/cpp/common/antenna.hpp Pages: 1 -->
<svg width="867pt" height="251pt"
 viewBox="0.00 0.00 867.19 251.00" xmlns="http://www.w3.org/2000/svg" xmlns:xlink="http://www.w3.org/1999/xlink">
<g id="graph0" class="graph" transform="scale(1 1) rotate(0) translate(4 247)">
<title>/data/acs/ginan/src/cpp/common/antenna.hpp</title>
<polygon fill="white" stroke="transparent" points="-4,4 -4,-247 863.19,-247 863.19,4 -4,4"/>
<!-- Node1 -->
<g id="node1" class="node">
<title>Node1</title>
<g id="a_node1"><a xlink:title=" ">
<polygon fill="#bfbfbf" stroke="black" points="435.5,-212.5 435.5,-242.5 581.5,-242.5 581.5,-212.5 435.5,-212.5"/>
<text text-anchor="start" x="443.5" y="-230.5" font-family="Helvetica,sans-Serif" font-size="10.00">/data/acs/ginan/src</text>
<text text-anchor="middle" x="508.5" y="-219.5" font-family="Helvetica,sans-Serif" font-size="10.00">/cpp/common/antenna.hpp</text>
</a>
</g>
</g>
<!-- Node2 -->
<g id="node2" class="node">
<title>Node2</title>
<g id="a_node2"><a xlink:href="brdc2sp3__main_8cpp.html" target="_top" xlink:title=" ">
<polygon fill="white" stroke="black" points="0,-0.5 0,-41.5 131,-41.5 131,-0.5 0,-0.5"/>
<text text-anchor="start" x="8" y="-29.5" font-family="Helvetica,sans-Serif" font-size="10.00">/data/acs/ginan/src</text>
<text text-anchor="start" x="8" y="-18.5" font-family="Helvetica,sans-Serif" font-size="10.00">/cpp/brdc2sp3/brdc2sp3</text>
<text text-anchor="middle" x="65.5" y="-7.5" font-family="Helvetica,sans-Serif" font-size="10.00">_main.cpp</text>
</a>
</g>
</g>
<!-- Node1&#45;&gt;Node2 -->
<g id="edge1" class="edge">
<title>Node1&#45;&gt;Node2</title>
<path fill="none" stroke="midnightblue" d="M435.18,-225.31C338.47,-222.32 175.06,-211.94 128.5,-176 85.39,-142.73 71.61,-74.96 67.34,-41.53"/>
</g>
<!-- Node3 -->
<g id="node3" class="node">
<title>Node3</title>
<g id="a_node3"><a xlink:href="antenna_8cpp.html" target="_top" xlink:title=" ">
<polygon fill="white" stroke="black" points="149.5,-6 149.5,-36 295.5,-36 295.5,-6 149.5,-6"/>
<text text-anchor="start" x="157.5" y="-24" font-family="Helvetica,sans-Serif" font-size="10.00">/data/acs/ginan/src</text>
<text text-anchor="middle" x="222.5" y="-13" font-family="Helvetica,sans-Serif" font-size="10.00">/cpp/common/antenna.cpp</text>
</a>
</g>
</g>
<!-- Node1&#45;&gt;Node3 -->
<g id="edge2" class="edge">
<title>Node1&#45;&gt;Node3</title>
<path fill="none" stroke="midnightblue" d="M435.47,-223.88C346.97,-219.36 204.46,-207.32 162.5,-176 125.89,-148.68 109.22,-117.88 131.5,-78 142.36,-58.57 163.03,-45.05 181.93,-36.17"/>
</g>
<!-- Node4 -->
<g id="node4" class="node">
<title>Node4</title>
<g id="a_node4"><a xlink:href="ephemeris_8hpp.html" target="_top" xlink:title=" ">
<polygon fill="white" stroke="red" points="171.5,-145.5 171.5,-175.5 329.5,-175.5 329.5,-145.5 171.5,-145.5"/>
<text text-anchor="start" x="179.5" y="-163.5" font-family="Helvetica,sans-Serif" font-size="10.00">/data/acs/ginan/src</text>
<text text-anchor="middle" x="250.5" y="-152.5" font-family="Helvetica,sans-Serif" font-size="10.00">/cpp/common/ephemeris.hpp</text>
</a>
</g>
</g>
<!-- Node1&#45;&gt;Node4 -->
<g id="edge3" class="edge">
<title>Node1&#45;&gt;Node4</title>
<path fill="none" stroke="midnightblue" d="M452.84,-212.48C409.58,-201.58 349.85,-186.53 306.51,-175.61"/>
</g>
<!-- Node7 -->
<g id="node5" class="node">
<title>Node7</title>
<g id="a_node5"><a xlink:href="navigation_8hpp.html" target="_top" xlink:title=" ">
<polygon fill="white" stroke="red" points="140.5,-78.5 140.5,-108.5 298.5,-108.5 298.5,-78.5 140.5,-78.5"/>
<text text-anchor="start" x="148.5" y="-96.5" font-family="Helvetica,sans-Serif" font-size="10.00">/data/acs/ginan/src</text>
<text text-anchor="middle" x="219.5" y="-85.5" font-family="Helvetica,sans-Serif" font-size="10.00">/cpp/common/navigation.hpp</text>
</a>
</g>
</g>
<!-- Node1&#45;&gt;Node7 -->
<g id="edge14" class="edge">
<title>Node1&#45;&gt;Node7</title>
<path fill="none" stroke="midnightblue" d="M461.03,-212.44C435.14,-203.77 403.04,-191.37 376.5,-176 357.64,-165.08 357.16,-156.26 338.5,-145 313.81,-130.1 283.92,-117.44 260.28,-108.52"/>
</g>
<!-- Node19 -->
<g id="node6" class="node">
<title>Node19</title>
<g id="a_node6"><a xlink:href="ppp_8cpp.html" target="_top" xlink:title="Precise point positioning.">
<polygon fill="white" stroke="black" points="330.5,-6 330.5,-36 438.5,-36 438.5,-6 330.5,-6"/>
<text text-anchor="start" x="338.5" y="-24" font-family="Helvetica,sans-Serif" font-size="10.00">/data/acs/ginan/src</text>
<text text-anchor="middle" x="384.5" y="-13" font-family="Helvetica,sans-Serif" font-size="10.00">/cpp/pea/ppp.cpp</text>
</a>
</g>
</g>
<!-- Node1&#45;&gt;Node19 -->
<g id="edge21" class="edge">
<title>Node1&#45;&gt;Node19</title>
<path fill="none" stroke="midnightblue" d="M528.34,-212.33C539.18,-203.31 551.58,-190.6 557.5,-176 562.68,-163.23 563.09,-157.59 557.5,-145 532.62,-88.91 466.92,-53.75 424.03,-36.02"/>
</g>
<!-- Node70 -->
<g id="node7" class="node">
<title>Node70</title>
<g id="a_node7"><a xlink:href="ppp__network_8cpp.html" target="_top" xlink:title=" ">
<polygon fill="white" stroke="black" points="456.5,-6 456.5,-36 600.5,-36 600.5,-6 456.5,-6"/>
<text text-anchor="start" x="464.5" y="-24" font-family="Helvetica,sans-Serif" font-size="10.00">/data/acs/ginan/src</text>
<text text-anchor="middle" x="528.5" y="-13" font-family="Helvetica,sans-Serif" font-size="10.00">/cpp/pea/ppp_network.cpp</text>
</a>
</g>
</g>
<!-- Node1&#45;&gt;Node70 -->
<g id="edge22" class="edge">
<title>Node1&#45;&gt;Node70</title>
<path fill="none" stroke="midnightblue" d="M563.54,-212.49C582.04,-204.87 600.7,-193.32 611.5,-176 642.59,-126.13 579.26,-63.66 546.49,-36.14"/>
</g>
<!-- Node71 -->
<g id="node8" class="node">
<title>Node71</title>
<g id="a_node8"><a xlink:href="ppp__user_8cpp.html" target="_top" xlink:title=" ">
<polygon fill="white" stroke="black" points="619,-6 619,-36 744,-36 744,-6 619,-6"/>
<text text-anchor="start" x="627" y="-24" font-family="Helvetica,sans-Serif" font-size="10.00">/data/acs/ginan/src</text>
<text text-anchor="middle" x="681.5" y="-13" font-family="Helvetica,sans-Serif" font-size="10.00">/cpp/pea/ppp_user.cpp</text>
</a>
</g>
</g>
<!-- Node1&#45;&gt;Node71 -->
<g id="edge23" class="edge">
<title>Node1&#45;&gt;Node71</title>
<path fill="none" stroke="midnightblue" d="M581.52,-224.81C662.66,-218.54 790.3,-194.66 851.5,-109 883.06,-64.83 804.69,-41.57 744.11,-30.54"/>
</g>
<!-- Node18 -->
<g id="node9" class="node">
<title>Node18</title>
<g id="a_node9"><a xlink:href="main_8cpp.html" target="_top" xlink:title=" ">
<polygon fill="white" stroke="black" points="316.5,-78.5 316.5,-108.5 424.5,-108.5 424.5,-78.5 316.5,-78.5"/>
<text text-anchor="start" x="324.5" y="-96.5" font-family="Helvetica,sans-Serif" font-size="10.00">/data/acs/ginan/src</text>
<text text-anchor="middle" x="370.5" y="-85.5" font-family="Helvetica,sans-Serif" font-size="10.00">/cpp/pea/main.cpp</text>
</a>
</g>
</g>
<!-- Node1&#45;&gt;Node18 -->
<g id="edge20" class="edge">
<title>Node1&#45;&gt;Node18</title>
<path fill="none" stroke="midnightblue" d="M521.88,-212.4C536.54,-195.2 556.04,-165.83 540.5,-145 526.46,-126.18 468.82,-111.87 424.51,-103.36"/>
</g>
<!-- Node96 -->
<g id="node10" class="node">
<title>Node96</title>
<g id="a_node10"><a xlink:href="preceph_8hpp.html" target="_top" xlink:title=" ">
<polygon fill="white" stroke="red" points="385.5,-145.5 385.5,-175.5 531.5,-175.5 531.5,-145.5 385.5,-145.5"/>
<text text-anchor="start" x="393.5" y="-163.5" font-family="Helvetica,sans-Serif" font-size="10.00">/data/acs/ginan/src</text>
<text text-anchor="middle" x="458.5" y="-152.5" font-family="Helvetica,sans-Serif" font-size="10.00">/cpp/common/preceph.hpp</text>
</a>
</g>
</g>
<!-- Node1&#45;&gt;Node96 -->
<g id="edge15" class="edge">
<title>Node1&#45;&gt;Node96</title>
<path fill="none" stroke="midnightblue" d="M497.65,-212.4C489.26,-201.49 477.71,-186.47 469.33,-175.58"/>
</g>
<!-- Node72 -->
<g id="node11" class="node">
<title>Node72</title>
<g id="a_node11"><a xlink:href="ppppp__obs_8cpp.html" target="_top" xlink:title=" ">
<polygon fill="white" stroke="black" points="708.5,-78.5 708.5,-108.5 842.5,-108.5 842.5,-78.5 708.5,-78.5"/>
<text text-anchor="start" x="716.5" y="-96.5" font-family="Helvetica,sans-Serif" font-size="10.00">/data/acs/ginan/src</text>
<text text-anchor="middle" x="775.5" y="-85.5" font-family="Helvetica,sans-Serif" font-size="10.00">/cpp/pea/ppppp_obs.cpp</text>
</a>
</g>
</g>
<!-- Node1&#45;&gt;Node72 -->
<g id="edge24" class="edge">
<title>Node1&#45;&gt;Node72</title>
<path fill="none" stroke="midnightblue" d="M581.72,-215.79C617.47,-208.34 660.08,-196.02 694.5,-176 724.68,-158.45 751.45,-126.81 765.37,-108.54"/>
</g>
<!-- Node4&#45;&gt;Node7 -->
<g id="edge4" class="edge">
<title>Node4&#45;&gt;Node7</title>
<path fill="none" stroke="midnightblue" d="M243.77,-145.4C238.57,-134.49 231.41,-119.47 226.21,-108.58"/>
</g>
<!-- Node4&#45;&gt;Node19 -->
<g id="edge11" class="edge">
<title>Node4&#45;&gt;Node19</title>
<path fill="none" stroke="midnightblue" d="M329.93,-147.33C373.17,-138.9 420.47,-126.11 433.5,-109 451.56,-85.28 423.23,-54.16 402.7,-36.29"/>
</g>
<!-- Node4&#45;&gt;Node70 -->
<g id="edge12" class="edge">
<title>Node4&#45;&gt;Node70</title>
<path fill="none" stroke="midnightblue" d="M329.69,-150.53C368.25,-143.5 414.03,-131.04 450.5,-109 481.4,-90.32 507.04,-55.56 519.8,-36.11"/>
</g>
<!-- Node4&#45;&gt;Node71 -->
<g id="edge13" class="edge">
<title>Node4&#45;&gt;Node71</title>
<path fill="none" stroke="midnightblue" d="M329.74,-146.41C375.31,-137.88 433.3,-125.29 483.5,-109 546.54,-88.55 616.77,-54.94 654.31,-36.04"/>
</g>
<!-- Node4&#45;&gt;Node18 -->
<g id="edge10" class="edge">
<title>Node4&#45;&gt;Node18</title>
<path fill="none" stroke="midnightblue" d="M276.54,-145.4C296.67,-134.49 324.4,-119.47 344.51,-108.58"/>
</g>
<!-- Node7&#45;&gt;Node2 -->
<g id="edge5" class="edge">
<title>Node7&#45;&gt;Node2</title>
<path fill="none" stroke="midnightblue" d="M188.71,-78.4C165.62,-67.83 133.74,-53.24 108.2,-41.55"/>
</g>
<!-- Node7&#45;&gt;Node3 -->
<g id="edge6" class="edge">
<title>Node7&#45;&gt;Node3</title>
<path fill="none" stroke="midnightblue" d="M220.11,-78.23C220.63,-66 221.37,-48.47 221.89,-36.25"/>
</g>
<!-- Node7&#45;&gt;Node19 -->
<g id="edge7" class="edge">
<title>Node7&#45;&gt;Node19</title>
<path fill="none" stroke="midnightblue" d="M252.49,-78.4C281.27,-66.11 322.8,-48.36 351.56,-36.07"/>
</g>
<!-- Node7&#45;&gt;Node70 -->
<g id="edge8" class="edge">
<title>Node7&#45;&gt;Node70</title>
<path fill="none" stroke="midnightblue" d="M284.95,-78.44C330.58,-68.53 392.83,-54.8 447.5,-42 455.54,-40.12 464.01,-38.08 472.33,-36.05"/>
</g>
<!-- Node7&#45;&gt;Node71 -->
<g id="edge9" class="edge">
<title>Node7&#45;&gt;Node71</title>
<path fill="none" stroke="midnightblue" d="M298.63,-79.29C301.62,-78.85 304.59,-78.41 307.5,-78 441.33,-59.01 476.88,-68.16 609.5,-42 617.77,-40.37 626.49,-38.27 634.88,-36.06"/>
</g>
<!-- Node96&#45;&gt;Node19 -->
<g id="edge17" class="edge">
<title>Node96&#45;&gt;Node19</title>
<path fill="none" stroke="midnightblue" d="M464.42,-145.32C470.55,-128.3 477.79,-99.37 466.5,-78 456.44,-58.94 436.65,-45.15 419.04,-36.01"/>
</g>
<!-- Node96&#45;&gt;Node71 -->
<g id="edge18" class="edge">
<title>Node96&#45;&gt;Node71</title>
<path fill="none" stroke="midnightblue" d="M531.51,-146.83C560.52,-139.27 592.99,-127.4 618.5,-109 645.27,-89.69 665.14,-55.49 674.85,-36.23"/>
</g>
<!-- Node96&#45;&gt;Node18 -->
<g id="edge16" class="edge">
<title>Node96&#45;&gt;Node18</title>
<path fill="none" stroke="midnightblue" d="M439.41,-145.4C424.64,-134.49 404.31,-119.47 389.56,-108.58"/>
</g>
<!-- Node96&#45;&gt;Node72 -->
<g id="edge19" class="edge">
<title>Node96&#45;&gt;Node72</title>
<path fill="none" stroke="midnightblue" d="M526.89,-145.48C580.59,-134.47 654.94,-119.22 708.32,-108.28"/>
</g>
</g>
</svg>
