<?xml version="1.0" encoding="UTF-8" standalone="no"?>
<!DOCTYPE svg PUBLIC "-//W3C//DTD SVG 1.1//EN"
 "http://www.w3.org/Graphics/SVG/1.1/DTD/svg11.dtd">
<!-- Generated by graphviz version 2.43.0 (0)
 -->
<!-- Title: findAntenna Pages: 1 -->
<svg width="257pt" height="66pt"
 viewBox="0.00 0.00 257.00 66.00" xmlns="http://www.w3.org/2000/svg" xmlns:xlink="http://www.w3.org/1999/xlink">
<g id="graph0" class="graph" transform="scale(1 1) rotate(0) translate(4 62)">
<title>findAntenna</title>
<polygon fill="white" stroke="transparent" points="-4,4 -4,-62 253,-62 253,4 -4,4"/>
<!-- Node1 -->
<g id="node1" class="node">
<title>Node1</title>
<g id="a_node1"><a xlink:title=" ">
<polygon fill="#bfbfbf" stroke="black" points="174,-19.5 174,-38.5 249,-38.5 249,-19.5 174,-19.5"/>
<text text-anchor="middle" x="211.5" y="-26.5" font-family="Helvetica,sans-Serif" font-size="10.00">findAntenna</text>
</a>
</g>
</g>
<!-- Node2 -->
<g id="node2" class="node">
<title>Node2</title>
<g id="a_node2"><a xlink:href="tropSinex_8cpp.html#a46f3559d46a9ca2fd745fc2a46ee12f5" target="_top" xlink:title="Set antenna calibration model data for SITE/ANTENNA block.">
<polygon fill="white" stroke="red" points="23,-38.5 23,-57.5 115,-57.5 115,-38.5 23,-38.5"/>
<text text-anchor="middle" x="69" y="-45.5" font-family="Helvetica,sans-Serif" font-size="10.00">setSiteAntCalib</text>
</a>
</g>
</g>
<!-- Node1&#45;&gt;Node2 -->
<g id="edge1" class="edge">
<title>Node1&#45;&gt;Node2</title>
<path fill="none" stroke="midnightblue" d="M163.93,-35.3C148.23,-37.42 130.74,-39.79 115.16,-41.89"/>
<polygon fill="midnightblue" stroke="midnightblue" points="164.51,-38.75 173.95,-33.94 163.57,-31.81 164.51,-38.75"/>
</g>
<!-- Node12 -->
<g id="node3" class="node">
<title>Node12</title>
<g id="a_node3"><a xlink:href="pea__snx_8cpp.html#a998d8ea068788de9c3ca4f572a114e44" target="_top" xlink:title=" ">
<polygon fill="white" stroke="red" points="0,-0.5 0,-19.5 138,-19.5 138,-0.5 0,-0.5"/>
<text text-anchor="middle" x="69" y="-7.5" font-family="Helvetica,sans-Serif" font-size="10.00">sinexPerEpochPerStation</text>
</a>
</g>
</g>
<!-- Node1&#45;&gt;Node12 -->
<g id="edge2" class="edge">
<title>Node1&#45;&gt;Node12</title>
<path fill="none" stroke="midnightblue" d="M163.84,-22.69C155.61,-21.58 146.9,-20.4 138.23,-19.23"/>
<polygon fill="midnightblue" stroke="midnightblue" points="163.57,-26.19 173.95,-24.06 164.51,-19.25 163.57,-26.19"/>
</g>
</g>
</svg>
