<?xml version="1.0" encoding="UTF-8" standalone="no"?>
<!DOCTYPE svg PUBLIC "-//W3C//DTD SVG 1.1//EN"
 "http://www.w3.org/Graphics/SVG/1.1/DTD/svg11.dtd">
<!-- Generated by graphviz version 2.43.0 (0)
 -->
<!-- Title: interp Pages: 1 -->
<svg width="139pt" height="66pt"
 viewBox="0.00 0.00 139.00 66.00" xmlns="http://www.w3.org/2000/svg" xmlns:xlink="http://www.w3.org/1999/xlink">
<g id="graph0" class="graph" transform="scale(1 1) rotate(0) translate(4 62)">
<title>interp</title>
<polygon fill="white" stroke="transparent" points="-4,4 -4,-62 135,-62 135,4 -4,4"/>
<!-- Node1 -->
<g id="node1" class="node">
<title>Node1</title>
<g id="a_node1"><a xlink:title="linearly interpolate">
<polygon fill="#bfbfbf" stroke="black" points="86,-19.5 86,-38.5 131,-38.5 131,-19.5 86,-19.5"/>
<text text-anchor="middle" x="108.5" y="-26.5" font-family="Helvetica,sans-Serif" font-size="10.00">interp</text>
</a>
</g>
</g>
<!-- Node2 -->
<g id="node2" class="node">
<title>Node2</title>
<g id="a_node2"><a xlink:href="antenna_8cpp.html#aa781255f62e500233148b6f4a9240740" target="_top" xlink:title="fetch pco">
<polygon fill="white" stroke="red" points="0,-38.5 0,-57.5 50,-57.5 50,-38.5 0,-38.5"/>
<text text-anchor="middle" x="25" y="-45.5" font-family="Helvetica,sans-Serif" font-size="10.00">antPco</text>
</a>
</g>
</g>
<!-- Node1&#45;&gt;Node2 -->
<g id="edge1" class="edge">
<title>Node1&#45;&gt;Node2</title>
<path fill="none" stroke="midnightblue" d="M85.66,-34.09C74.72,-36.64 61.45,-39.74 50.2,-42.36"/>
</g>
<!-- Node37 -->
<g id="node3" class="node">
<title>Node37</title>
<g id="a_node3"><a xlink:href="antenna_8cpp.html#a28e3dcdc8c9fb5a3369931fb18833f26" target="_top" xlink:title="find and interpolate antenna pcv">
<polygon fill="white" stroke="red" points="0,-0.5 0,-19.5 50,-19.5 50,-0.5 0,-0.5"/>
<text text-anchor="middle" x="25" y="-7.5" font-family="Helvetica,sans-Serif" font-size="10.00">antPcv</text>
</a>
</g>
</g>
<!-- Node1&#45;&gt;Node37 -->
<g id="edge2" class="edge">
<title>Node1&#45;&gt;Node37</title>
<path fill="none" stroke="midnightblue" d="M85.66,-23.91C74.72,-21.36 61.45,-18.26 50.2,-15.64"/>
</g>
</g>
</svg>
