<?xml version="1.0" encoding="UTF-8" standalone="no"?>
<!DOCTYPE svg PUBLIC "-//W3C//DTD SVG 1.1//EN"
 "http://www.w3.org/Graphics/SVG/1.1/DTD/svg11.dtd">
<!-- Generated by graphviz version 2.43.0 (0)
 -->
<!-- Title: antPcv Pages: 1 -->
<svg width="184pt" height="142pt"
 viewBox="0.00 0.00 184.00 142.00" xmlns="http://www.w3.org/2000/svg" xmlns:xlink="http://www.w3.org/1999/xlink">
<g id="graph0" class="graph" transform="scale(1 1) rotate(0) translate(4 138)">
<title>antPcv</title>
<polygon fill="white" stroke="transparent" points="-4,4 -4,-138 180,-138 180,4 -4,4"/>
<!-- Node1 -->
<g id="node1" class="node">
<title>Node1</title>
<g id="a_node1"><a xlink:title="find and interpolate antenna pcv">
<polygon fill="#bfbfbf" stroke="black" points="126,-57.5 126,-76.5 176,-76.5 176,-57.5 126,-57.5"/>
<text text-anchor="middle" x="151" y="-64.5" font-family="Helvetica,sans-Serif" font-size="10.00">antPcv</text>
</a>
</g>
</g>
<!-- Node2 -->
<g id="node2" class="node">
<title>Node2</title>
<g id="a_node2"><a xlink:href="ppp_8cpp.html#ab64566108038907ed6df48da876f33c3" target="_top" xlink:title=" ">
<polygon fill="white" stroke="red" points="0,-114.5 0,-133.5 90,-133.5 90,-114.5 0,-114.5"/>
<text text-anchor="middle" x="45" y="-121.5" font-family="Helvetica,sans-Serif" font-size="10.00">pppCorrections</text>
</a>
</g>
</g>
<!-- Node1&#45;&gt;Node2 -->
<g id="edge1" class="edge">
<title>Node1&#45;&gt;Node2</title>
<path fill="none" stroke="midnightblue" d="M136.07,-76.71C124.14,-84.8 106.35,-96.36 90,-105 83.67,-108.34 76.63,-111.58 70.07,-114.41"/>
</g>
<!-- Node9 -->
<g id="node3" class="node">
<title>Node9</title>
<g id="a_node3"><a xlink:href="ppp__obs_8cpp.html#aa8d0df3394305388064aaee2b3f399e7" target="_top" xlink:title=" ">
<polygon fill="white" stroke="red" points="10,-76.5 10,-95.5 80,-95.5 80,-76.5 10,-76.5"/>
<text text-anchor="middle" x="45" y="-83.5" font-family="Helvetica,sans-Serif" font-size="10.00">pppSatPCV</text>
</a>
</g>
</g>
<!-- Node1&#45;&gt;Node9 -->
<g id="edge2" class="edge">
<title>Node1&#45;&gt;Node9</title>
<path fill="none" stroke="midnightblue" d="M125.88,-71.41C112.32,-73.88 95.16,-77.02 80.23,-79.75"/>
</g>
<!-- Node12 -->
<g id="node4" class="node">
<title>Node12</title>
<g id="a_node4"><a xlink:href="ppp__network_8cpp.html#a1986299316c605c9c72b50a2f9c6c524" target="_top" xlink:title="PPP observed&#45;minus&#45;computed.">
<polygon fill="white" stroke="red" points="17,-38.5 17,-57.5 73,-57.5 73,-38.5 17,-38.5"/>
<text text-anchor="middle" x="45" y="-45.5" font-family="Helvetica,sans-Serif" font-size="10.00">pppomc</text>
</a>
</g>
</g>
<!-- Node1&#45;&gt;Node12 -->
<g id="edge3" class="edge">
<title>Node1&#45;&gt;Node12</title>
<path fill="none" stroke="midnightblue" d="M125.88,-62.59C110.16,-59.72 89.61,-55.97 73.29,-52.99"/>
</g>
<!-- Node13 -->
<g id="node5" class="node">
<title>Node13</title>
<g id="a_node5"><a xlink:href="ppp__obs_8cpp.html#a7f48e7bd8ce1833af84f4fd14d15ffbd" target="_top" xlink:title=" ">
<polygon fill="white" stroke="red" points="9,-0.5 9,-19.5 81,-19.5 81,-0.5 9,-0.5"/>
<text text-anchor="middle" x="45" y="-7.5" font-family="Helvetica,sans-Serif" font-size="10.00">pppRecPCV</text>
</a>
</g>
</g>
<!-- Node1&#45;&gt;Node13 -->
<g id="edge4" class="edge">
<title>Node1&#45;&gt;Node13</title>
<path fill="none" stroke="midnightblue" d="M136.07,-57.29C124.14,-49.2 106.35,-37.64 90,-29 83.67,-25.66 76.63,-22.42 70.07,-19.59"/>
</g>
</g>
</svg>
