<?xml version="1.0" encoding="UTF-8" standalone="no"?>
<!DOCTYPE svg PUBLIC "-//W3C//DTD SVG 1.1//EN"
 "http://www.w3.org/Graphics/SVG/1.1/DTD/svg11.dtd">
<!-- Generated by graphviz version 2.43.0 (0)
 -->
<!-- Title: satYawGlo Pages: 1 -->
<!--zoomable 321 -->
<svg id="main" version="1.1" xmlns="http://www.w3.org/2000/svg" xmlns:xlink="http://www.w3.org/1999/xlink" xml:space="preserve" onload="init(evt)">
<style type="text/css"><![CDATA[
.edge:hover path { stroke: red; }
.edge:hover polygon { stroke: red; fill: red; }
]]></style>
<script type="text/javascript"><![CDATA[
var edges = document.getElementsByTagName('g');
if (edges && edges.length) {
  for (var i=0;i<edges.length;i++) {
    if (edges[i].id.substr(0,4)=='edge') {
      edges[i].setAttribute('class','edge');
    }
  }
}
]]></script>
        <defs>
                <circle id="rim" cx="0" cy="0" r="7"/>
                <circle id="rim2" cx="0" cy="0" r="3.5"/>
                <g id="zoomPlus">
                        <use xlink:href="#rim" fill="#404040">
                                <set attributeName="fill" to="#808080" begin="zoomplus.mouseover" end="zoomplus.mouseout"/>
                        </use>
                        <path d="M-4,0h8M0,-4v8" fill="none" stroke="white" stroke-width="1.5" pointer-events="none"/>
                </g>
                <g id="zoomMin">
                        <use xlink:href="#rim" fill="#404040">
                                <set attributeName="fill" to="#808080" begin="zoomminus.mouseover" end="zoomminus.mouseout"/>
                        </use>
                        <path d="M-4,0h8" fill="none" stroke="white" stroke-width="1.5" pointer-events="none"/>
                </g>
                <g id="dirArrow">
                        <path fill="none" stroke="white" stroke-width="1.5" d="M0,-3.0v7 M-2.5,-0.5L0,-3.0L2.5,-0.5"/>
                </g>
               <g id="resetDef">
                       <use xlink:href="#rim2" fill="#404040">
                               <set attributeName="fill" to="#808080" begin="reset.mouseover" end="reset.mouseout"/>
                       </use>
               </g>
        </defs>

<script type="text/javascript">
var viewWidth = 669;
var viewHeight = 321;
var sectionId = 'dynsection-45';
</script>
<script xlink:href="svgpan.js"/>
<svg id="graph" class="graph">
<g id="viewport">
<title>satYawGlo</title>
<polygon fill="white" stroke="transparent" points="-4,4 -4,-317.25 665,-317.25 665,4 -4,4"/>
<!-- Node1 -->
<g id="node1" class="node">
<title>Node1</title>
<g id="a_node1"><a xlink:title="Yaw model for GLONASS sats Returns false if no modelled yaw available Ref: https://igsac&#45;cnes....">
<polygon fill="#bfbfbf" stroke="black" points="0,-152.5 0,-171.5 67,-171.5 67,-152.5 0,-152.5"/>
<text text-anchor="middle" x="33.5" y="-159.5" font-family="Helvetica,sans-Serif" font-size="10.00">satYawGlo</text>
</a>
</g>
</g>
<!-- Node2 -->
<g id="node2" class="node">
<title>Node2</title>
<g id="a_node2"><a xlink:href="attitude_8cpp.html#a4a86c05583dbc7b327e2158d99afae5f" target="_top" xlink:title="Calculate nominal (ideal) sat yaw for GPS sats Returns result between (&#45;PI, PI].">
<polygon fill="white" stroke="black" points="432,-76.5 432,-95.5 526,-95.5 526,-76.5 432,-76.5"/>
<text text-anchor="middle" x="479" y="-83.5" font-family="Helvetica,sans-Serif" font-size="10.00">nominalYawGps</text>
</a>
</g>
</g>
<!-- Node1&#45;&gt;Node2 -->
<g id="edge1" class="edge">
<title>Node1&#45;&gt;Node2</title>
<path fill="none" stroke="midnightblue" d="M36.02,-171.68C40.64,-197.33 57.1,-267.01 103,-295 151.57,-324.62 176.69,-311.94 231,-295 340.64,-260.81 432.7,-147.92 465.33,-103.85"/>
<polygon fill="midnightblue" stroke="midnightblue" points="468.32,-105.69 471.37,-95.54 462.66,-101.57 468.32,-105.69"/>
</g>
<!-- Node3 -->
<g id="node3" class="node">
<title>Node3</title>
<g id="a_node3"><a xlink:href="common_8cpp.html#ad96246b7344aed2150ca622b91214cb2" target="_top" xlink:title="Wrap angle between (&#45;pi, pi].">
<polygon fill="white" stroke="black" points="562,-38.5 562,-57.5 661,-57.5 661,-38.5 562,-38.5"/>
<text text-anchor="middle" x="611.5" y="-45.5" font-family="Helvetica,sans-Serif" font-size="10.00">wrapPlusMinusPi</text>
</a>
</g>
</g>
<!-- Node1&#45;&gt;Node3 -->
<g id="edge11" class="edge">
<title>Node1&#45;&gt;Node3</title>
<path fill="none" stroke="midnightblue" d="M38.86,-152.43C47.84,-133.99 70.33,-93.87 103,-77 179.59,-37.45 434.82,-41.37 551.45,-45.45"/>
<polygon fill="midnightblue" stroke="midnightblue" points="551.5,-48.96 561.62,-45.82 551.75,-41.96 551.5,-48.96"/>
</g>
<!-- Node4 -->
<g id="node4" class="node">
<title>Node4</title>
<g id="a_node4"><a xlink:href="sinex_8cpp.html#aa047ec8b34506643b3e286d61d819a82" target="_top" xlink:title="Get yaw rate sinex entry for sat.">
<polygon fill="white" stroke="black" points="103,-266.5 103,-285.5 231,-285.5 231,-266.5 103,-266.5"/>
<text text-anchor="middle" x="167" y="-273.5" font-family="Helvetica,sans-Serif" font-size="10.00">getSnxSatMaxYawRate</text>
</a>
</g>
</g>
<!-- Node1&#45;&gt;Node4 -->
<g id="edge3" class="edge">
<title>Node1&#45;&gt;Node4</title>
<path fill="none" stroke="midnightblue" d="M38.82,-171.69C47.87,-190.91 70.72,-233.98 103,-257 105.7,-258.92 108.59,-260.66 111.6,-262.21"/>
<polygon fill="midnightblue" stroke="midnightblue" points="110.36,-265.49 120.92,-266.39 113.22,-259.1 110.36,-265.49"/>
</g>
<!-- Node5 -->
<g id="node5" class="node">
<title>Node5</title>
<g id="a_node5"><a xlink:href="structSatSys.html#a1da3994cf03ff0ec115928954c9307bb" target="_top" xlink:title=" ">
<polygon fill="white" stroke="black" points="130.5,-228.5 130.5,-247.5 203.5,-247.5 203.5,-228.5 130.5,-228.5"/>
<text text-anchor="middle" x="167" y="-235.5" font-family="Helvetica,sans-Serif" font-size="10.00">SatSys::svn</text>
</a>
</g>
</g>
<!-- Node1&#45;&gt;Node5 -->
<g id="edge4" class="edge">
<title>Node1&#45;&gt;Node5</title>
<path fill="none" stroke="midnightblue" d="M45.44,-171.89C58.42,-183.24 81.07,-201.83 103,-214 110.28,-218.04 118.37,-221.68 126.26,-224.84"/>
<polygon fill="midnightblue" stroke="midnightblue" points="125.14,-228.16 135.73,-228.45 127.63,-221.62 125.14,-228.16"/>
</g>
<!-- Node6 -->
<g id="node6" class="node">
<title>Node6</title>
<g id="a_node6"><a xlink:href="attitude_8cpp.html#a3b2447912b724e96167465b4813d591b" target="_top" xlink:title="Returns true if satellite is in eclipse (shadow umbra); else false.">
<polygon fill="white" stroke="red" points="301.5,-152.5 301.5,-171.5 361.5,-171.5 361.5,-152.5 301.5,-152.5"/>
<text text-anchor="middle" x="331.5" y="-159.5" font-family="Helvetica,sans-Serif" font-size="10.00">inEclipse</text>
</a>
</g>
</g>
<!-- Node1&#45;&gt;Node6 -->
<g id="edge5" class="edge">
<title>Node1&#45;&gt;Node6</title>
<path fill="none" stroke="midnightblue" d="M62.14,-171.5C74.48,-175.27 89.3,-179.14 103,-181 159.37,-188.67 174.36,-186.36 231,-181 251,-179.11 272.96,-175.12 291.15,-171.29"/>
<polygon fill="midnightblue" stroke="midnightblue" points="292.07,-174.67 301.1,-169.13 290.59,-167.83 292.07,-174.67"/>
</g>
<!-- Node9 -->
<g id="node7" class="node">
<title>Node9</title>
<g id="a_node7"><a xlink:href="structGTime.html#aaa8a379d11cd6c040a6bbe680c0e913e" target="_top" xlink:title="Uninitialised time for comparisons.">
<polygon fill="white" stroke="black" points="121,-152.5 121,-171.5 213,-171.5 213,-152.5 121,-152.5"/>
<text text-anchor="middle" x="167" y="-159.5" font-family="Helvetica,sans-Serif" font-size="10.00">GTime::noTime</text>
</a>
</g>
</g>
<!-- Node1&#45;&gt;Node9 -->
<g id="edge6" class="edge">
<title>Node1&#45;&gt;Node9</title>
<path fill="none" stroke="midnightblue" d="M67.01,-162C80.23,-162 95.89,-162 110.8,-162"/>
<polygon fill="midnightblue" stroke="midnightblue" points="110.97,-165.5 120.97,-162 110.97,-158.5 110.97,-165.5"/>
</g>
<!-- Node10 -->
<g id="node8" class="node">
<title>Node10</title>
<g id="a_node8"><a xlink:href="attitude_8cpp.html#a52eb3d3990c9c0a2bd4e04e58fc00334" target="_top" xlink:title="Finds time when eclipse started, prior (default) to this point in time For finding eclipses forward i...">
<polygon fill="white" stroke="red" points="105,-114.5 105,-133.5 229,-133.5 229,-114.5 105,-114.5"/>
<text text-anchor="middle" x="167" y="-121.5" font-family="Helvetica,sans-Serif" font-size="10.00">findEclipseBoundaries</text>
</a>
</g>
</g>
<!-- Node1&#45;&gt;Node10 -->
<g id="edge7" class="edge">
<title>Node1&#45;&gt;Node10</title>
<path fill="none" stroke="midnightblue" d="M67.01,-152.61C83.95,-147.71 104.88,-141.66 123.13,-136.39"/>
<polygon fill="midnightblue" stroke="midnightblue" points="124.32,-139.69 132.95,-133.55 122.38,-132.96 124.32,-139.69"/>
</g>
<!-- Node37 -->
<g id="node9" class="node">
<title>Node37</title>
<g id="a_node9"><a xlink:href="attitude_8cpp.html#a7100ddd974fc8c19b64512488cd8f42e" target="_top" xlink:title="Calculate nominal sat yaw for GPS sats at a given time Returns result between (&#45;PI,...">
<polygon fill="white" stroke="black" points="267,-76.5 267,-95.5 396,-95.5 396,-76.5 267,-76.5"/>
<text text-anchor="middle" x="331.5" y="-83.5" font-family="Helvetica,sans-Serif" font-size="10.00">nominalYawGpsAtTime</text>
</a>
</g>
</g>
<!-- Node1&#45;&gt;Node37 -->
<g id="edge9" class="edge">
<title>Node1&#45;&gt;Node37</title>
<path fill="none" stroke="midnightblue" d="M42.6,-152.26C54.35,-138.92 77.52,-115.44 103,-105 151.59,-85.1 210.82,-80.71 256.66,-81.1"/>
<polygon fill="midnightblue" stroke="midnightblue" points="256.76,-84.61 266.82,-81.27 256.88,-77.61 256.76,-84.61"/>
</g>
<!-- Node38 -->
<g id="node10" class="node">
<title>Node38</title>
<g id="a_node10"><a xlink:href="attitude_8cpp.html#a3e9ea3b9538484ff8cb97789446dd1d1" target="_top" xlink:title="Finds time when midnight/noon&#45;centred max yaw started, previous to this point in time.">
<polygon fill="white" stroke="black" points="109.5,-0.5 109.5,-19.5 224.5,-19.5 224.5,-0.5 109.5,-0.5"/>
<text text-anchor="middle" x="167" y="-7.5" font-family="Helvetica,sans-Serif" font-size="10.00">findCentredYawStart</text>
</a>
</g>
</g>
<!-- Node1&#45;&gt;Node38 -->
<g id="edge12" class="edge">
<title>Node1&#45;&gt;Node38</title>
<path fill="none" stroke="midnightblue" d="M37.15,-152.16C44.02,-128.48 64.59,-67.8 103,-34 107.56,-29.99 112.86,-26.62 118.41,-23.79"/>
<polygon fill="midnightblue" stroke="midnightblue" points="120.21,-26.82 127.91,-19.53 117.35,-20.43 120.21,-26.82"/>
</g>
<!-- Node2&#45;&gt;Node3 -->
<g id="edge2" class="edge">
<title>Node2&#45;&gt;Node3</title>
<path fill="none" stroke="midnightblue" d="M512.93,-76.41C529.62,-71.55 550.09,-65.59 567.96,-60.39"/>
<polygon fill="midnightblue" stroke="midnightblue" points="568.96,-63.74 577.58,-57.59 567,-57.02 568.96,-63.74"/>
</g>
<!-- Node10&#45;&gt;Node6 -->
<g id="edge8" class="edge">
<title>Node10&#45;&gt;Node6</title>
<path fill="none" stroke="midnightblue" d="M209.01,-133.59C234.29,-139.5 266.54,-147.04 291.45,-152.87"/>
<polygon fill="midnightblue" stroke="midnightblue" points="290.76,-156.3 301.3,-155.17 292.36,-149.49 290.76,-156.3"/>
</g>
<!-- Node37&#45;&gt;Node2 -->
<g id="edge10" class="edge">
<title>Node37&#45;&gt;Node2</title>
<path fill="none" stroke="midnightblue" d="M396.32,-86C404.69,-86 413.23,-86 421.47,-86"/>
<polygon fill="midnightblue" stroke="midnightblue" points="421.72,-89.5 431.72,-86 421.72,-82.5 421.72,-89.5"/>
</g>
<!-- Node38&#45;&gt;Node3 -->
<g id="edge14" class="edge">
<title>Node38&#45;&gt;Node3</title>
<path fill="none" stroke="midnightblue" d="M224.58,-12.09C295.28,-15.1 419.88,-21.68 526,-34 534.39,-34.97 543.21,-36.2 551.86,-37.53"/>
<polygon fill="midnightblue" stroke="midnightblue" points="551.49,-41.01 561.91,-39.12 552.58,-34.1 551.49,-41.01"/>
</g>
<!-- Node38&#45;&gt;Node37 -->
<g id="edge13" class="edge">
<title>Node38&#45;&gt;Node37</title>
<path fill="none" stroke="midnightblue" d="M188.58,-19.63C216.91,-32.87 268.09,-56.81 300.63,-72.03"/>
<polygon fill="midnightblue" stroke="midnightblue" points="299.55,-75.39 310.09,-76.45 302.51,-69.05 299.55,-75.39"/>
</g>
</g>
</svg>
        <g id="navigator" transform="translate(0 0)" fill="#404254">
                <rect fill="#f2f5e9" fill-opacity="0.5" stroke="#606060" stroke-width=".5" x="0" y="0" width="60" height="60"/>
                <use id="zoomplus" xlink:href="#zoomPlus" x="17" y="9" onmousedown="handleZoom(evt,'in')"/>
                <use id="zoomminus" xlink:href="#zoomMin" x="42" y="9" onmousedown="handleZoom(evt,'out')"/>
                <use id="reset" xlink:href="#resetDef" x="30" y="36" onmousedown="handleReset()"/>
                <g id="arrowUp" xlink:href="#dirArrow" transform="translate(30 24)" onmousedown="handlePan(0,-1)">
                  <use xlink:href="#rim" fill="#404040">
                        <set attributeName="fill" to="#808080" begin="arrowUp.mouseover" end="arrowUp.mouseout"/>
                  </use>
                  <path fill="none" stroke="white" stroke-width="1.5" d="M0,-3.0v7 M-2.5,-0.5L0,-3.0L2.5,-0.5"/>
                </g>
                <g id="arrowRight" xlink:href="#dirArrow" transform="rotate(90) translate(36 -43)" onmousedown="handlePan(1,0)">
                  <use xlink:href="#rim" fill="#404040">
                        <set attributeName="fill" to="#808080" begin="arrowRight.mouseover" end="arrowRight.mouseout"/>
                  </use>
                  <path fill="none" stroke="white" stroke-width="1.5" d="M0,-3.0v7 M-2.5,-0.5L0,-3.0L2.5,-0.5"/>
                </g>
                <g id="arrowDown" xlink:href="#dirArrow" transform="rotate(180) translate(-30 -48)" onmousedown="handlePan(0,1)">
                  <use xlink:href="#rim" fill="#404040">
                        <set attributeName="fill" to="#808080" begin="arrowDown.mouseover" end="arrowDown.mouseout"/>
                  </use>
                  <path fill="none" stroke="white" stroke-width="1.5" d="M0,-3.0v7 M-2.5,-0.5L0,-3.0L2.5,-0.5"/>
                </g>
                <g id="arrowLeft" xlink:href="#dirArrow" transform="rotate(270) translate(-36 17)" onmousedown="handlePan(-1,0)">
                  <use xlink:href="#rim" fill="#404040">
                        <set attributeName="fill" to="#808080" begin="arrowLeft.mouseover" end="arrowLeft.mouseout"/>
                  </use>
                  <path fill="none" stroke="white" stroke-width="1.5" d="M0,-3.0v7 M-2.5,-0.5L0,-3.0L2.5,-0.5"/>
                </g>
        </g>
        <svg viewBox="0 0 15 15" width="100%" height="30px" preserveAspectRatio="xMaxYMin meet">
         <g id="arrow_out" transform="scale(0.3 0.3)">
          <a xlink:href="attitude_8cpp_af64a8516da71e0d4f37682b1935fdca3_cgraph_org.svg" target="_base">
           <rect id="button" ry="5" rx="5" y="6" x="6" height="38" width="38"
                fill="#f2f5e9" fill-opacity="0.5" stroke="#606060" stroke-width="1.0"/>
           <path id="arrow"
             d="M 11.500037,31.436501 C 11.940474,20.09759 22.043105,11.32322 32.158766,21.979434 L 37.068811,17.246167 C 37.068811,17.246167 37.088388,32 37.088388,32 L 22.160133,31.978069 C 22.160133,31.978069 26.997745,27.140456 26.997745,27.140456 C 18.528582,18.264221 13.291696,25.230495 11.500037,31.436501 z"
             style="fill:#404040;"/>
          </a>
         </g>
        </svg>
</svg>
