<?xml version="1.0" encoding="UTF-8" standalone="no"?>
<!DOCTYPE svg PUBLIC "-//W3C//DTD SVG 1.1//EN"
 "http://www.w3.org/Graphics/SVG/1.1/DTD/svg11.dtd">
<!-- Generated by graphviz version 2.43.0 (0)
 -->
<!-- Title: satYawGpsIIR Pages: 1 -->
<!--zoomable 218 -->
<svg id="main" version="1.1" xmlns="http://www.w3.org/2000/svg" xmlns:xlink="http://www.w3.org/1999/xlink" xml:space="preserve" onload="init(evt)">
<style type="text/css"><![CDATA[
.edge:hover path { stroke: red; }
.edge:hover polygon { stroke: red; fill: red; }
]]></style>
<script type="text/javascript"><![CDATA[
var edges = document.getElementsByTagName('g');
if (edges && edges.length) {
  for (var i=0;i<edges.length;i++) {
    if (edges[i].id.substr(0,4)=='edge') {
      edges[i].setAttribute('class','edge');
    }
  }
}
]]></script>
        <defs>
                <circle id="rim" cx="0" cy="0" r="7"/>
                <circle id="rim2" cx="0" cy="0" r="3.5"/>
                <g id="zoomPlus">
                        <use xlink:href="#rim" fill="#404040">
                                <set attributeName="fill" to="#808080" begin="zoomplus.mouseover" end="zoomplus.mouseout"/>
                        </use>
                        <path d="M-4,0h8M0,-4v8" fill="none" stroke="white" stroke-width="1.5" pointer-events="none"/>
                </g>
                <g id="zoomMin">
                        <use xlink:href="#rim" fill="#404040">
                                <set attributeName="fill" to="#808080" begin="zoomminus.mouseover" end="zoomminus.mouseout"/>
                        </use>
                        <path d="M-4,0h8" fill="none" stroke="white" stroke-width="1.5" pointer-events="none"/>
                </g>
                <g id="dirArrow">
                        <path fill="none" stroke="white" stroke-width="1.5" d="M0,-3.0v7 M-2.5,-0.5L0,-3.0L2.5,-0.5"/>
                </g>
               <g id="resetDef">
                       <use xlink:href="#rim2" fill="#404040">
                               <set attributeName="fill" to="#808080" begin="reset.mouseover" end="reset.mouseout"/>
                       </use>
               </g>
        </defs>

<script type="text/javascript">
var viewWidth = 520;
var viewHeight = 218;
var sectionId = 'dynsection-55';
</script>
<script xlink:href="svgpan.js"/>
<svg id="graph" class="graph">
<g id="viewport">
<title>satYawGpsIIR</title>
<polygon fill="white" stroke="transparent" points="-4,4 -4,-214 516,-214 516,4 -4,4"/>
<!-- Node1 -->
<g id="node1" class="node">
<title>Node1</title>
<g id="a_node1"><a xlink:title="Yaw model for GPS&#45;IIR sats Ref: http://acc.igs.org/orbits/EclipseReadMe.pdf Ref: https://igsac&#45;cnes....">
<polygon fill="#bfbfbf" stroke="black" points="0,-95.5 0,-114.5 82,-114.5 82,-95.5 0,-95.5"/>
<text text-anchor="middle" x="41" y="-102.5" font-family="Helvetica,sans-Serif" font-size="10.00">satYawGpsIIR</text>
</a>
</g>
</g>
<!-- Node2 -->
<g id="node2" class="node">
<title>Node2</title>
<g id="a_node2"><a xlink:href="sinex_8cpp.html#aa047ec8b34506643b3e286d61d819a82" target="_top" xlink:title="Get yaw rate sinex entry for sat.">
<polygon fill="white" stroke="black" points="118.5,-190.5 118.5,-209.5 246.5,-209.5 246.5,-190.5 118.5,-190.5"/>
<text text-anchor="middle" x="182.5" y="-197.5" font-family="Helvetica,sans-Serif" font-size="10.00">getSnxSatMaxYawRate</text>
</a>
</g>
</g>
<!-- Node1&#45;&gt;Node2 -->
<g id="edge1" class="edge">
<title>Node1&#45;&gt;Node2</title>
<path fill="none" stroke="midnightblue" d="M49.06,-114.69C61.3,-130.81 88.04,-163.12 118,-181 121.61,-183.16 125.49,-185.08 129.48,-186.8"/>
<polygon fill="midnightblue" stroke="midnightblue" points="128.34,-190.12 138.93,-190.45 130.86,-183.59 128.34,-190.12"/>
</g>
<!-- Node3 -->
<g id="node3" class="node">
<title>Node3</title>
<g id="a_node3"><a xlink:href="structSatSys.html#a1da3994cf03ff0ec115928954c9307bb" target="_top" xlink:title=" ">
<polygon fill="white" stroke="black" points="146,-152.5 146,-171.5 219,-171.5 219,-152.5 146,-152.5"/>
<text text-anchor="middle" x="182.5" y="-159.5" font-family="Helvetica,sans-Serif" font-size="10.00">SatSys::svn</text>
</a>
</g>
</g>
<!-- Node1&#45;&gt;Node3 -->
<g id="edge2" class="edge">
<title>Node1&#45;&gt;Node3</title>
<path fill="none" stroke="midnightblue" d="M63.18,-114.52C78.36,-121.27 99.34,-130.43 118,-138 126.98,-141.64 136.75,-145.43 145.87,-148.88"/>
<polygon fill="midnightblue" stroke="midnightblue" points="144.85,-152.23 155.44,-152.47 147.31,-145.68 144.85,-152.23"/>
</g>
<!-- Node4 -->
<g id="node4" class="node">
<title>Node4</title>
<g id="a_node4"><a xlink:href="attitude_8cpp.html#a4a86c05583dbc7b327e2158d99afae5f" target="_top" xlink:title="Calculate nominal (ideal) sat yaw for GPS sats Returns result between (&#45;PI, PI].">
<polygon fill="white" stroke="black" points="283,-38.5 283,-57.5 377,-57.5 377,-38.5 283,-38.5"/>
<text text-anchor="middle" x="330" y="-45.5" font-family="Helvetica,sans-Serif" font-size="10.00">nominalYawGps</text>
</a>
</g>
</g>
<!-- Node1&#45;&gt;Node4 -->
<g id="edge3" class="edge">
<title>Node1&#45;&gt;Node4</title>
<path fill="none" stroke="midnightblue" d="M82.17,-98.1C123.58,-90.86 189.95,-78.89 247,-67 257.52,-64.81 268.75,-62.31 279.43,-59.86"/>
<polygon fill="midnightblue" stroke="midnightblue" points="280.5,-63.2 289.46,-57.54 278.92,-56.38 280.5,-63.2"/>
</g>
<!-- Node5 -->
<g id="node5" class="node">
<title>Node5</title>
<g id="a_node5"><a xlink:href="common_8cpp.html#ad96246b7344aed2150ca622b91214cb2" target="_top" xlink:title="Wrap angle between (&#45;pi, pi].">
<polygon fill="white" stroke="black" points="413,-57.5 413,-76.5 512,-76.5 512,-57.5 413,-57.5"/>
<text text-anchor="middle" x="462.5" y="-64.5" font-family="Helvetica,sans-Serif" font-size="10.00">wrapPlusMinusPi</text>
</a>
</g>
</g>
<!-- Node1&#45;&gt;Node5 -->
<g id="edge5" class="edge">
<title>Node1&#45;&gt;Node5</title>
<path fill="none" stroke="midnightblue" d="M82.22,-101.36C156.61,-94.62 315.98,-80.18 402.57,-72.34"/>
<polygon fill="midnightblue" stroke="midnightblue" points="403.11,-75.8 412.76,-71.42 402.48,-68.83 403.11,-75.8"/>
</g>
<!-- Node6 -->
<g id="node6" class="node">
<title>Node6</title>
<g id="a_node6"><a xlink:href="structGTime.html#aaa8a379d11cd6c040a6bbe680c0e913e" target="_top" xlink:title="Uninitialised time for comparisons.">
<polygon fill="white" stroke="black" points="136.5,-38.5 136.5,-57.5 228.5,-57.5 228.5,-38.5 136.5,-38.5"/>
<text text-anchor="middle" x="182.5" y="-45.5" font-family="Helvetica,sans-Serif" font-size="10.00">GTime::noTime</text>
</a>
</g>
</g>
<!-- Node1&#45;&gt;Node6 -->
<g id="edge6" class="edge">
<title>Node1&#45;&gt;Node6</title>
<path fill="none" stroke="midnightblue" d="M63.18,-95.48C78.36,-88.73 99.34,-79.57 118,-72 126.98,-68.36 136.75,-64.57 145.87,-61.12"/>
<polygon fill="midnightblue" stroke="midnightblue" points="147.31,-64.32 155.44,-57.53 144.85,-57.77 147.31,-64.32"/>
</g>
<!-- Node7 -->
<g id="node7" class="node">
<title>Node7</title>
<g id="a_node7"><a xlink:href="attitude_8cpp.html#a7100ddd974fc8c19b64512488cd8f42e" target="_top" xlink:title="Calculate nominal sat yaw for GPS sats at a given time Returns result between (&#45;PI,...">
<polygon fill="white" stroke="black" points="118,-0.5 118,-19.5 247,-19.5 247,-0.5 118,-0.5"/>
<text text-anchor="middle" x="182.5" y="-7.5" font-family="Helvetica,sans-Serif" font-size="10.00">nominalYawGpsAtTime</text>
</a>
</g>
</g>
<!-- Node1&#45;&gt;Node7 -->
<g id="edge7" class="edge">
<title>Node1&#45;&gt;Node7</title>
<path fill="none" stroke="midnightblue" d="M49.06,-95.31C61.3,-79.19 88.04,-46.88 118,-29 121.61,-26.84 125.49,-24.92 129.48,-23.2"/>
<polygon fill="midnightblue" stroke="midnightblue" points="130.86,-26.41 138.93,-19.55 128.34,-19.88 130.86,-26.41"/>
</g>
<!-- Node4&#45;&gt;Node5 -->
<g id="edge4" class="edge">
<title>Node4&#45;&gt;Node5</title>
<path fill="none" stroke="midnightblue" d="M377.01,-54.7C385.34,-55.91 394.14,-57.19 402.78,-58.45"/>
<polygon fill="midnightblue" stroke="midnightblue" points="402.41,-61.93 412.81,-59.91 403.42,-55.01 402.41,-61.93"/>
</g>
<!-- Node7&#45;&gt;Node4 -->
<g id="edge8" class="edge">
<title>Node7&#45;&gt;Node4</title>
<path fill="none" stroke="midnightblue" d="M220.22,-19.59C239.16,-24.54 262.46,-30.62 282.63,-35.89"/>
<polygon fill="midnightblue" stroke="midnightblue" points="281.99,-39.34 292.55,-38.48 283.76,-32.57 281.99,-39.34"/>
</g>
</g>
</svg>
        <g id="navigator" transform="translate(0 0)" fill="#404254">
                <rect fill="#f2f5e9" fill-opacity="0.5" stroke="#606060" stroke-width=".5" x="0" y="0" width="60" height="60"/>
                <use id="zoomplus" xlink:href="#zoomPlus" x="17" y="9" onmousedown="handleZoom(evt,'in')"/>
                <use id="zoomminus" xlink:href="#zoomMin" x="42" y="9" onmousedown="handleZoom(evt,'out')"/>
                <use id="reset" xlink:href="#resetDef" x="30" y="36" onmousedown="handleReset()"/>
                <g id="arrowUp" xlink:href="#dirArrow" transform="translate(30 24)" onmousedown="handlePan(0,-1)">
                  <use xlink:href="#rim" fill="#404040">
                        <set attributeName="fill" to="#808080" begin="arrowUp.mouseover" end="arrowUp.mouseout"/>
                  </use>
                  <path fill="none" stroke="white" stroke-width="1.5" d="M0,-3.0v7 M-2.5,-0.5L0,-3.0L2.5,-0.5"/>
                </g>
                <g id="arrowRight" xlink:href="#dirArrow" transform="rotate(90) translate(36 -43)" onmousedown="handlePan(1,0)">
                  <use xlink:href="#rim" fill="#404040">
                        <set attributeName="fill" to="#808080" begin="arrowRight.mouseover" end="arrowRight.mouseout"/>
                  </use>
                  <path fill="none" stroke="white" stroke-width="1.5" d="M0,-3.0v7 M-2.5,-0.5L0,-3.0L2.5,-0.5"/>
                </g>
                <g id="arrowDown" xlink:href="#dirArrow" transform="rotate(180) translate(-30 -48)" onmousedown="handlePan(0,1)">
                  <use xlink:href="#rim" fill="#404040">
                        <set attributeName="fill" to="#808080" begin="arrowDown.mouseover" end="arrowDown.mouseout"/>
                  </use>
                  <path fill="none" stroke="white" stroke-width="1.5" d="M0,-3.0v7 M-2.5,-0.5L0,-3.0L2.5,-0.5"/>
                </g>
                <g id="arrowLeft" xlink:href="#dirArrow" transform="rotate(270) translate(-36 17)" onmousedown="handlePan(-1,0)">
                  <use xlink:href="#rim" fill="#404040">
                        <set attributeName="fill" to="#808080" begin="arrowLeft.mouseover" end="arrowLeft.mouseout"/>
                  </use>
                  <path fill="none" stroke="white" stroke-width="1.5" d="M0,-3.0v7 M-2.5,-0.5L0,-3.0L2.5,-0.5"/>
                </g>
        </g>
        <svg viewBox="0 0 15 15" width="100%" height="30px" preserveAspectRatio="xMaxYMin meet">
         <g id="arrow_out" transform="scale(0.3 0.3)">
          <a xlink:href="attitude_8cpp_a43e7b17b62853da813d5289667b3284e_cgraph_org.svg" target="_base">
           <rect id="button" ry="5" rx="5" y="6" x="6" height="38" width="38"
                fill="#f2f5e9" fill-opacity="0.5" stroke="#606060" stroke-width="1.0"/>
           <path id="arrow"
             d="M 11.500037,31.436501 C 11.940474,20.09759 22.043105,11.32322 32.158766,21.979434 L 37.068811,17.246167 C 37.068811,17.246167 37.088388,32 37.088388,32 L 22.160133,31.978069 C 22.160133,31.978069 26.997745,27.140456 26.997745,27.140456 C 18.528582,18.264221 13.291696,25.230495 11.500037,31.436501 z"
             style="fill:#404040;"/>
          </a>
         </g>
        </svg>
</svg>
