<?xml version="1.0" encoding="UTF-8" standalone="no"?>
<!DOCTYPE svg PUBLIC "-//W3C//DTD SVG 1.1//EN"
 "http://www.w3.org/Graphics/SVG/1.1/DTD/svg11.dtd">
<!-- Generated by graphviz version 2.43.0 (0)
 -->
<!-- Title: satYawGpsIIF Pages: 1 -->
<svg width="679pt" height="253pt"
 viewBox="0.00 0.00 679.00 253.15" xmlns="http://www.w3.org/2000/svg" xmlns:xlink="http://www.w3.org/1999/xlink">
<g id="graph0" class="graph" transform="scale(1 1) rotate(0) translate(4 249.15)">
<title>satYawGpsIIF</title>
<polygon fill="white" stroke="transparent" points="-4,4 -4,-249.15 675,-249.15 675,4 -4,4"/>
<!-- Node1 -->
<g id="node1" class="node">
<title>Node1</title>
<g id="a_node1"><a xlink:title="Yaw model for GPS&#45;IIF sats Ref: https://www.researchgate.net/publication/306924379_Observed_features_...">
<polygon fill="#bfbfbf" stroke="black" points="0,-111.34 0,-130.34 81,-130.34 81,-111.34 0,-111.34"/>
<text text-anchor="middle" x="40.5" y="-118.34" font-family="Helvetica,sans-Serif" font-size="10.00">satYawGpsIIF</text>
</a>
</g>
</g>
<!-- Node2 -->
<g id="node2" class="node">
<title>Node2</title>
<g id="a_node2"><a xlink:href="attitude_8cpp.html#a4a86c05583dbc7b327e2158d99afae5f" target="_top" xlink:title="Calculate nominal (ideal) sat yaw for GPS sats Returns result between (&#45;PI, PI].">
<polygon fill="white" stroke="black" points="442,-149.34 442,-168.34 536,-168.34 536,-149.34 442,-149.34"/>
<text text-anchor="middle" x="489" y="-156.34" font-family="Helvetica,sans-Serif" font-size="10.00">nominalYawGps</text>
</a>
</g>
</g>
<!-- Node1&#45;&gt;Node2 -->
<g id="edge1" class="edge">
<title>Node1&#45;&gt;Node2</title>
<path fill="none" stroke="midnightblue" d="M47.04,-130.6C57.83,-148.57 83.61,-186.55 117,-202.84 232.56,-259.21 283.31,-254.29 406,-215.84 431.13,-207.97 455.3,-189.37 470.81,-175.55"/>
<polygon fill="midnightblue" stroke="midnightblue" points="473.51,-177.82 478.48,-168.46 468.76,-172.68 473.51,-177.82"/>
</g>
<!-- Node3 -->
<g id="node3" class="node">
<title>Node3</title>
<g id="a_node3"><a xlink:href="common_8cpp.html#ad96246b7344aed2150ca622b91214cb2" target="_top" xlink:title="Wrap angle between (&#45;pi, pi].">
<polygon fill="white" stroke="black" points="572,-111.34 572,-130.34 671,-130.34 671,-111.34 572,-111.34"/>
<text text-anchor="middle" x="621.5" y="-118.34" font-family="Helvetica,sans-Serif" font-size="10.00">wrapPlusMinusPi</text>
</a>
</g>
</g>
<!-- Node1&#45;&gt;Node3 -->
<g id="edge14" class="edge">
<title>Node1&#45;&gt;Node3</title>
<path fill="none" stroke="midnightblue" d="M46.79,-111.1C57.35,-92.75 82.98,-53.43 117,-36.84 232.54,19.49 280.25,0.76 406,-25.84 479.1,-41.3 557.58,-83.39 596.2,-106"/>
<polygon fill="midnightblue" stroke="midnightblue" points="594.74,-109.21 605.13,-111.3 598.31,-103.19 594.74,-109.21"/>
</g>
<!-- Node4 -->
<g id="node4" class="node">
<title>Node4</title>
<g id="a_node4"><a xlink:href="attitude_8cpp.html#a3b2447912b724e96167465b4813d591b" target="_top" xlink:title="Returns true if satellite is in eclipse (shadow umbra); else false.">
<polygon fill="white" stroke="red" points="311.5,-187.34 311.5,-206.34 371.5,-206.34 371.5,-187.34 311.5,-187.34"/>
<text text-anchor="middle" x="341.5" y="-194.34" font-family="Helvetica,sans-Serif" font-size="10.00">inEclipse</text>
</a>
</g>
</g>
<!-- Node1&#45;&gt;Node4 -->
<g id="edge3" class="edge">
<title>Node1&#45;&gt;Node4</title>
<path fill="none" stroke="midnightblue" d="M50.65,-130.58C63.86,-143.91 89.7,-167.39 117,-177.84 178.07,-201.23 255.18,-202.11 301.02,-199.95"/>
<polygon fill="midnightblue" stroke="midnightblue" points="301.34,-203.43 311.14,-199.4 300.96,-196.44 301.34,-203.43"/>
</g>
<!-- Node7 -->
<g id="node5" class="node">
<title>Node7</title>
<g id="a_node5"><a xlink:href="attitude_8cpp.html#a43e7b17b62853da813d5289667b3284e" target="_top" xlink:title="Yaw model for GPS&#45;IIR sats Ref: http://acc.igs.org/orbits/EclipseReadMe.pdf Ref: https://igsac&#45;cnes....">
<polygon fill="white" stroke="red" points="138,-149.34 138,-168.34 220,-168.34 220,-149.34 138,-149.34"/>
<text text-anchor="middle" x="179" y="-156.34" font-family="Helvetica,sans-Serif" font-size="10.00">satYawGpsIIR</text>
</a>
</g>
</g>
<!-- Node1&#45;&gt;Node7 -->
<g id="edge4" class="edge">
<title>Node1&#45;&gt;Node7</title>
<path fill="none" stroke="midnightblue" d="M75.94,-130.43C93.48,-135.31 115.01,-141.31 133.76,-146.53"/>
<polygon fill="midnightblue" stroke="midnightblue" points="132.99,-149.94 143.57,-149.26 134.87,-143.2 132.99,-149.94"/>
</g>
<!-- Node10 -->
<g id="node6" class="node">
<title>Node10</title>
<g id="a_node6"><a xlink:href="structGTime.html#aaa8a379d11cd6c040a6bbe680c0e913e" target="_top" xlink:title="Uninitialised time for comparisons.">
<polygon fill="white" stroke="black" points="295.5,-73.34 295.5,-92.34 387.5,-92.34 387.5,-73.34 295.5,-73.34"/>
<text text-anchor="middle" x="341.5" y="-80.34" font-family="Helvetica,sans-Serif" font-size="10.00">GTime::noTime</text>
</a>
</g>
</g>
<!-- Node1&#45;&gt;Node10 -->
<g id="edge10" class="edge">
<title>Node1&#45;&gt;Node10</title>
<path fill="none" stroke="midnightblue" d="M81.37,-118.15C121.74,-115.16 185.89,-109.71 241,-101.84 255.57,-99.76 271.25,-97.01 285.75,-94.25"/>
<polygon fill="midnightblue" stroke="midnightblue" points="286.42,-97.68 295.58,-92.35 285.09,-90.81 286.42,-97.68"/>
</g>
<!-- Node11 -->
<g id="node7" class="node">
<title>Node11</title>
<g id="a_node7"><a xlink:href="attitude_8cpp.html#a7100ddd974fc8c19b64512488cd8f42e" target="_top" xlink:title="Calculate nominal sat yaw for GPS sats at a given time Returns result between (&#45;PI,...">
<polygon fill="white" stroke="black" points="277,-35.34 277,-54.34 406,-54.34 406,-35.34 277,-35.34"/>
<text text-anchor="middle" x="341.5" y="-42.34" font-family="Helvetica,sans-Serif" font-size="10.00">nominalYawGpsAtTime</text>
</a>
</g>
</g>
<!-- Node1&#45;&gt;Node11 -->
<g id="edge13" class="edge">
<title>Node1&#45;&gt;Node11</title>
<path fill="none" stroke="midnightblue" d="M50.65,-111.1C63.86,-97.77 89.7,-74.3 117,-63.84 164.57,-45.62 221.88,-41.06 266.56,-40.96"/>
<polygon fill="midnightblue" stroke="midnightblue" points="266.74,-44.46 276.76,-41.01 266.78,-37.46 266.74,-44.46"/>
</g>
<!-- Node12 -->
<g id="node8" class="node">
<title>Node12</title>
<g id="a_node8"><a xlink:href="attitude_8cpp.html#a52eb3d3990c9c0a2bd4e04e58fc00334" target="_top" xlink:title="Finds time when eclipse started, prior (default) to this point in time For finding eclipses forward i...">
<polygon fill="white" stroke="red" points="117,-73.34 117,-92.34 241,-92.34 241,-73.34 117,-73.34"/>
<text text-anchor="middle" x="179" y="-80.34" font-family="Helvetica,sans-Serif" font-size="10.00">findEclipseBoundaries</text>
</a>
</g>
</g>
<!-- Node1&#45;&gt;Node12 -->
<g id="edge11" class="edge">
<title>Node1&#45;&gt;Node12</title>
<path fill="none" stroke="midnightblue" d="M75.94,-111.25C93.48,-106.37 115.01,-100.38 133.76,-95.16"/>
<polygon fill="midnightblue" stroke="midnightblue" points="134.87,-98.48 143.57,-92.43 132.99,-91.74 134.87,-98.48"/>
</g>
<!-- Node2&#45;&gt;Node3 -->
<g id="edge2" class="edge">
<title>Node2&#45;&gt;Node3</title>
<path fill="none" stroke="midnightblue" d="M522.93,-149.25C539.62,-144.39 560.09,-138.43 577.96,-133.23"/>
<polygon fill="midnightblue" stroke="midnightblue" points="578.96,-136.58 587.58,-130.43 577,-129.86 578.96,-136.58"/>
</g>
<!-- Node7&#45;&gt;Node2 -->
<g id="edge5" class="edge">
<title>Node7&#45;&gt;Node2</title>
<path fill="none" stroke="midnightblue" d="M220.27,-158.84C274.29,-158.84 370.52,-158.84 431.7,-158.84"/>
<polygon fill="midnightblue" stroke="midnightblue" points="431.95,-162.34 441.95,-158.84 431.95,-155.34 431.95,-162.34"/>
</g>
<!-- Node7&#45;&gt;Node3 -->
<g id="edge6" class="edge">
<title>Node7&#45;&gt;Node3</title>
<path fill="none" stroke="midnightblue" d="M220.26,-155.37C298.38,-148.63 470.82,-133.75 561.75,-125.91"/>
<polygon fill="midnightblue" stroke="midnightblue" points="562.22,-129.38 571.89,-125.03 561.62,-122.41 562.22,-129.38"/>
</g>
<!-- Node7&#45;&gt;Node10 -->
<g id="edge7" class="edge">
<title>Node7&#45;&gt;Node10</title>
<path fill="none" stroke="midnightblue" d="M209.33,-149.24C219.64,-145.37 231.11,-140.48 241,-134.84 258.61,-124.81 259.32,-116.76 277,-106.84 284.23,-102.78 292.29,-99.14 300.17,-96"/>
<polygon fill="midnightblue" stroke="midnightblue" points="301.52,-99.23 309.63,-92.41 299.04,-92.68 301.52,-99.23"/>
</g>
<!-- Node7&#45;&gt;Node11 -->
<g id="edge8" class="edge">
<title>Node7&#45;&gt;Node11</title>
<path fill="none" stroke="midnightblue" d="M190.99,-148.95C203.35,-137.73 223.93,-118.8 241,-101.84 257.51,-85.45 257.19,-76.03 277,-63.84 280.43,-61.73 284.11,-59.84 287.91,-58.15"/>
<polygon fill="midnightblue" stroke="midnightblue" points="289.49,-61.29 297.51,-54.36 286.92,-54.78 289.49,-61.29"/>
</g>
<!-- Node11&#45;&gt;Node2 -->
<g id="edge9" class="edge">
<title>Node11&#45;&gt;Node2</title>
<path fill="none" stroke="midnightblue" d="M386.31,-54.36C393.2,-56.85 400.01,-59.96 406,-63.84 437.06,-83.96 463.01,-119.2 476.95,-140.65"/>
<polygon fill="midnightblue" stroke="midnightblue" points="474.03,-142.58 482.33,-149.16 479.95,-138.84 474.03,-142.58"/>
</g>
<!-- Node12&#45;&gt;Node4 -->
<g id="edge12" class="edge">
<title>Node12&#45;&gt;Node4</title>
<path fill="none" stroke="midnightblue" d="M193.41,-92.36C221.07,-112.01 284.71,-157.21 318.49,-181.21"/>
<polygon fill="midnightblue" stroke="midnightblue" points="316.61,-184.17 326.79,-187.1 320.66,-178.46 316.61,-184.17"/>
</g>
</g>
</svg>
