<?xml version="1.0" encoding="UTF-8" standalone="no"?>
<!DOCTYPE svg PUBLIC "-//W3C//DTD SVG 1.1//EN"
 "http://www.w3.org/Graphics/SVG/1.1/DTD/svg11.dtd">
<!-- Generated by graphviz version 2.43.0 (0)
 -->
<!-- Title: sunVisibility Pages: 1 -->
<svg width="258pt" height="116pt"
 viewBox="0.00 0.00 258.00 115.50" xmlns="http://www.w3.org/2000/svg" xmlns:xlink="http://www.w3.org/1999/xlink">
<g id="graph0" class="graph" transform="scale(1 1) rotate(0) translate(4 111.5)">
<title>sunVisibility</title>
<polygon fill="white" stroke="transparent" points="-4,4 -4,-111.5 254,-111.5 254,4 -4,4"/>
<!-- Node1 -->
<g id="node1" class="node">
<title>Node1</title>
<g id="a_node1"><a xlink:title="Calculates fraction of Sun&#39;s disk visible by spacecraft 0 = full eclipse (umbra) 0 &lt; fraction &lt; 1 = p...">
<polygon fill="#bfbfbf" stroke="black" points="173,-50 173,-69 250,-69 250,-50 173,-50"/>
<text text-anchor="middle" x="211.5" y="-57" font-family="Helvetica,sans-Serif" font-size="10.00">sunVisibility</text>
</a>
</g>
</g>
<!-- Node2 -->
<g id="node2" class="node">
<title>Node2</title>
<g id="a_node2"><a xlink:href="attitude_8cpp.html#aaba71c01b77e887c80e8dc69a8366d61" target="_top" xlink:title="Yaw model for GPS sats Ref: http://acc.igs.org/orbits/EclipseReadMe.pdf Ref: https://igsac&#45;cnes....">
<polygon fill="white" stroke="red" points="34,-88 34,-107 103,-107 103,-88 34,-88"/>
<text text-anchor="middle" x="68.5" y="-95" font-family="Helvetica,sans-Serif" font-size="10.00">satYawGps</text>
</a>
</g>
</g>
<!-- Node1&#45;&gt;Node2 -->
<g id="edge1" class="edge">
<title>Node1&#45;&gt;Node2</title>
<path fill="none" stroke="midnightblue" d="M174.92,-69.09C152.89,-75.03 124.78,-82.6 103.13,-88.44"/>
</g>
<!-- Node9 -->
<g id="node3" class="node">
<title>Node9</title>
<g id="a_node3"><a xlink:href="attitude_8cpp.html#af64a8516da71e0d4f37682b1935fdca3" target="_top" xlink:title="Yaw model for GLONASS sats Returns false if no modelled yaw available Ref: https://igsac&#45;cnes....">
<polygon fill="white" stroke="red" points="35,-50 35,-69 102,-69 102,-50 35,-50"/>
<text text-anchor="middle" x="68.5" y="-57" font-family="Helvetica,sans-Serif" font-size="10.00">satYawGlo</text>
</a>
</g>
</g>
<!-- Node1&#45;&gt;Node9 -->
<g id="edge2" class="edge">
<title>Node1&#45;&gt;Node9</title>
<path fill="none" stroke="midnightblue" d="M172.71,-59.5C150.69,-59.5 123.19,-59.5 102.12,-59.5"/>
</g>
<!-- Node10 -->
<g id="node4" class="node">
<title>Node10</title>
<g id="a_node4"><a xlink:href="structOrbitIntegrator.html#abc7ebc43b94db6f8908d4e71fd3aa683" target="_top" xlink:title=" ">
<polygon fill="white" stroke="red" points="0,-0.5 0,-30.5 137,-30.5 137,-0.5 0,-0.5"/>
<text text-anchor="start" x="8" y="-18.5" font-family="Helvetica,sans-Serif" font-size="10.00">OrbitIntegrator::compute</text>
<text text-anchor="middle" x="68.5" y="-7.5" font-family="Helvetica,sans-Serif" font-size="10.00">Acceleration</text>
</a>
</g>
</g>
<!-- Node1&#45;&gt;Node10 -->
<g id="edge3" class="edge">
<title>Node1&#45;&gt;Node10</title>
<path fill="none" stroke="midnightblue" d="M179.91,-49.95C161.76,-44.29 138.36,-36.99 117.78,-30.57"/>
</g>
</g>
</svg>
