<?xml version="1.0" encoding="UTF-8" standalone="no"?>
<!DOCTYPE svg PUBLIC "-//W3C//DTD SVG 1.1//EN"
 "http://www.w3.org/Graphics/SVG/1.1/DTD/svg11.dtd">
<!-- Generated by graphviz version 2.43.0 (0)
 -->
<!-- Title: preciseAttitude Pages: 1 -->
<svg width="215pt" height="66pt"
 viewBox="0.00 0.00 215.00 66.00" xmlns="http://www.w3.org/2000/svg" xmlns:xlink="http://www.w3.org/1999/xlink">
<g id="graph0" class="graph" transform="scale(1 1) rotate(0) translate(4 62)">
<title>preciseAttitude</title>
<polygon fill="white" stroke="transparent" points="-4,4 -4,-62 211,-62 211,4 -4,4"/>
<!-- Node1 -->
<g id="node1" class="node">
<title>Node1</title>
<g id="a_node1"><a xlink:title="Retrieves precise attitude (from file) &#45; unit vectors of satellite&#45;fixed coordinates (ECEF) Returns f...">
<polygon fill="#bfbfbf" stroke="black" points="116,-19.5 116,-38.5 207,-38.5 207,-19.5 116,-19.5"/>
<text text-anchor="middle" x="161.5" y="-26.5" font-family="Helvetica,sans-Serif" font-size="10.00">preciseAttitude</text>
</a>
</g>
</g>
<!-- Node2 -->
<g id="node2" class="node">
<title>Node2</title>
<g id="a_node2"><a xlink:href="attitude_8cpp.html#a7845576f2b86e02591836bb093754a44" target="_top" xlink:title="Calculates satellite attitude &#45; unit vectors of satellite&#45;fixed coordinates (ECEF) Returns false if n...">
<polygon fill="white" stroke="red" points="0,-38.5 0,-57.5 80,-57.5 80,-38.5 0,-38.5"/>
<text text-anchor="middle" x="40" y="-45.5" font-family="Helvetica,sans-Serif" font-size="10.00">updateSatAtt</text>
</a>
</g>
</g>
<!-- Node1&#45;&gt;Node2 -->
<g id="edge1" class="edge">
<title>Node1&#45;&gt;Node2</title>
<path fill="none" stroke="midnightblue" d="M105.68,-37.72C97.08,-39.08 88.35,-40.47 80.2,-41.77"/>
<polygon fill="midnightblue" stroke="midnightblue" points="106.34,-41.16 115.66,-36.13 105.24,-34.24 106.34,-41.16"/>
</g>
<!-- Node20 -->
<g id="node3" class="node">
<title>Node20</title>
<g id="a_node3"><a xlink:href="attitude_8cpp.html#aa53a61f369f0b0065ee1a804f3285b41" target="_top" xlink:title="Attitude of receiver.">
<polygon fill="white" stroke="red" points="17,-0.5 17,-19.5 63,-19.5 63,-0.5 17,-0.5"/>
<text text-anchor="middle" x="40" y="-7.5" font-family="Helvetica,sans-Serif" font-size="10.00">recAtt</text>
</a>
</g>
</g>
<!-- Node1&#45;&gt;Node20 -->
<g id="edge2" class="edge">
<title>Node1&#45;&gt;Node20</title>
<path fill="none" stroke="midnightblue" d="M105.45,-20.25C90.54,-17.88 75.24,-15.44 63.29,-13.54"/>
<polygon fill="midnightblue" stroke="midnightblue" points="105.24,-23.76 115.66,-21.87 106.34,-16.84 105.24,-23.76"/>
</g>
</g>
</svg>
