<?xml version="1.0" encoding="UTF-8" standalone="no"?>
<!DOCTYPE svg PUBLIC "-//W3C//DTD SVG 1.1//EN"
 "http://www.w3.org/Graphics/SVG/1.1/DTD/svg11.dtd">
<!-- Generated by graphviz version 2.43.0 (0)
 -->
<!-- Title: satYawGlo Pages: 1 -->
<svg width="374pt" height="218pt"
 viewBox="0.00 0.00 374.00 218.00" xmlns="http://www.w3.org/2000/svg" xmlns:xlink="http://www.w3.org/1999/xlink">
<g id="graph0" class="graph" transform="scale(1 1) rotate(0) translate(4 214)">
<title>satYawGlo</title>
<polygon fill="white" stroke="transparent" points="-4,4 -4,-214 370,-214 370,4 -4,4"/>
<!-- Node1 -->
<g id="node1" class="node">
<title>Node1</title>
<g id="a_node1"><a xlink:title="Yaw model for GLONASS sats Returns false if no modelled yaw available Ref: https://igsac&#45;cnes....">
<polygon fill="#bfbfbf" stroke="black" points="0,-95.5 0,-114.5 67,-114.5 67,-95.5 0,-95.5"/>
<text text-anchor="middle" x="33.5" y="-102.5" font-family="Helvetica,sans-Serif" font-size="10.00">satYawGlo</text>
</a>
</g>
</g>
<!-- Node2 -->
<g id="node2" class="node">
<title>Node2</title>
<g id="a_node2"><a xlink:href="attitude_8cpp.html#a4a86c05583dbc7b327e2158d99afae5f" target="_top" xlink:title="Calculate nominal (ideal) sat yaw for GPS sats Returns result between (&#45;PI, PI].">
<polygon fill="white" stroke="black" points="120,-190.5 120,-209.5 214,-209.5 214,-190.5 120,-190.5"/>
<text text-anchor="middle" x="167" y="-197.5" font-family="Helvetica,sans-Serif" font-size="10.00">nominalYawGps</text>
</a>
</g>
</g>
<!-- Node1&#45;&gt;Node2 -->
<g id="edge1" class="edge">
<title>Node1&#45;&gt;Node2</title>
<path fill="none" stroke="midnightblue" d="M40.63,-114.71C51.33,-130.86 74.95,-163.21 103,-181 109.08,-184.85 115.98,-187.96 122.93,-190.46"/>
</g>
<!-- Node3 -->
<g id="node3" class="node">
<title>Node3</title>
<g id="a_node3"><a xlink:href="common_8cpp.html#ad96246b7344aed2150ca622b91214cb2" target="_top" xlink:title="Wrap angle between (&#45;pi, pi].">
<polygon fill="white" stroke="black" points="267,-133.5 267,-152.5 366,-152.5 366,-133.5 267,-133.5"/>
<text text-anchor="middle" x="316.5" y="-140.5" font-family="Helvetica,sans-Serif" font-size="10.00">wrapPlusMinusPi</text>
</a>
</g>
</g>
<!-- Node1&#45;&gt;Node3 -->
<g id="edge5" class="edge">
<title>Node1&#45;&gt;Node3</title>
<path fill="none" stroke="midnightblue" d="M67.28,-100.85C106.65,-96.8 174.46,-92.87 231,-105 256.32,-110.43 283.21,-124.06 299.69,-133.43"/>
</g>
<!-- Node4 -->
<g id="node4" class="node">
<title>Node4</title>
<g id="a_node4"><a xlink:href="attitude_8cpp.html#a543fde2ca3f11becceecfce52de34cd8" target="_top" xlink:title="Calculates fraction of Sun&#39;s disk visible by spacecraft 0 = full eclipse (umbra) 0 &lt; fraction &lt; 1 = p...">
<polygon fill="white" stroke="red" points="128.5,-152.5 128.5,-171.5 205.5,-171.5 205.5,-152.5 128.5,-152.5"/>
<text text-anchor="middle" x="167" y="-159.5" font-family="Helvetica,sans-Serif" font-size="10.00">sunVisibility</text>
</a>
</g>
</g>
<!-- Node1&#45;&gt;Node4 -->
<g id="edge3" class="edge">
<title>Node1&#45;&gt;Node4</title>
<path fill="none" stroke="midnightblue" d="M49.53,-114.57C63.11,-122.91 83.83,-134.9 103,-143 111.42,-146.56 120.73,-149.75 129.55,-152.45"/>
</g>
<!-- Node6 -->
<g id="node5" class="node">
<title>Node6</title>
<g id="a_node5"><a xlink:href="structGTime.html#aaa8a379d11cd6c040a6bbe680c0e913e" target="_top" xlink:title="Uninitialised time for comparisons.">
<polygon fill="white" stroke="black" points="122,-114.5 122,-133.5 212,-133.5 212,-114.5 122,-114.5"/>
<text text-anchor="middle" x="167" y="-121.5" font-family="Helvetica,sans-Serif" font-size="10.00">GTime::noTime</text>
</a>
</g>
</g>
<!-- Node1&#45;&gt;Node6 -->
<g id="edge4" class="edge">
<title>Node1&#45;&gt;Node6</title>
<path fill="none" stroke="midnightblue" d="M67.01,-109.7C83.59,-112.09 103.99,-115.04 121.96,-117.64"/>
</g>
<!-- Node7 -->
<g id="node6" class="node">
<title>Node7</title>
<g id="a_node6"><a xlink:href="sinex_8cpp.html#aa047ec8b34506643b3e286d61d819a82" target="_top" xlink:title="Get yaw rate sinex entry for sat.">
<polygon fill="white" stroke="black" points="103,-38.5 103,-57.5 231,-57.5 231,-38.5 103,-38.5"/>
<text text-anchor="middle" x="167" y="-45.5" font-family="Helvetica,sans-Serif" font-size="10.00">getSnxSatMaxYawRate</text>
</a>
</g>
</g>
<!-- Node1&#45;&gt;Node7 -->
<g id="edge6" class="edge">
<title>Node1&#45;&gt;Node7</title>
<path fill="none" stroke="midnightblue" d="M53.2,-95.46C66.86,-88.62 85.9,-79.36 103,-72 114.83,-66.91 128.12,-61.76 139.44,-57.55"/>
</g>
<!-- Node8 -->
<g id="node7" class="node">
<title>Node8</title>
<g id="a_node7"><a xlink:href="structSatSys.html#a1da3994cf03ff0ec115928954c9307bb" target="_top" xlink:title=" ">
<polygon fill="white" stroke="black" points="130.5,-0.5 130.5,-19.5 203.5,-19.5 203.5,-0.5 130.5,-0.5"/>
<text text-anchor="middle" x="167" y="-7.5" font-family="Helvetica,sans-Serif" font-size="10.00">SatSys::svn</text>
</a>
</g>
</g>
<!-- Node1&#45;&gt;Node8 -->
<g id="edge7" class="edge">
<title>Node1&#45;&gt;Node8</title>
<path fill="none" stroke="midnightblue" d="M40.63,-95.29C51.33,-79.14 74.95,-46.79 103,-29 111.2,-23.8 120.9,-19.96 130.2,-17.15"/>
</g>
<!-- Node2&#45;&gt;Node3 -->
<g id="edge2" class="edge">
<title>Node2&#45;&gt;Node3</title>
<path fill="none" stroke="midnightblue" d="M202.6,-190.44C211.9,-187.64 221.9,-184.4 231,-181 253.75,-172.49 279.06,-160.8 296,-152.64"/>
</g>
</g>
</svg>
