<?xml version="1.0" encoding="UTF-8" standalone="no"?>
<!DOCTYPE svg PUBLIC "-//W3C//DTD SVG 1.1//EN"
 "http://www.w3.org/Graphics/SVG/1.1/DTD/svg11.dtd">
<!-- Generated by graphviz version 2.43.0 (0)
 -->
<!-- Title: satYawGalFoc Pages: 1 -->
<svg width="521pt" height="190pt"
 viewBox="0.00 0.00 521.00 190.13" xmlns="http://www.w3.org/2000/svg" xmlns:xlink="http://www.w3.org/1999/xlink">
<g id="graph0" class="graph" transform="scale(1 1) rotate(0) translate(4 186.13)">
<title>satYawGalFoc</title>
<polygon fill="white" stroke="transparent" points="-4,4 -4,-186.13 517,-186.13 517,4 -4,4"/>
<!-- Node1 -->
<g id="node1" class="node">
<title>Node1</title>
<g id="a_node1"><a xlink:title="Yaw model for GAL FOC sats.">
<polygon fill="#bfbfbf" stroke="black" points="0,-95.5 0,-114.5 83,-114.5 83,-95.5 0,-95.5"/>
<text text-anchor="middle" x="41.5" y="-102.5" font-family="Helvetica,sans-Serif" font-size="10.00">satYawGalFoc</text>
</a>
</g>
</g>
<!-- Node2 -->
<g id="node2" class="node">
<title>Node2</title>
<g id="a_node2"><a xlink:href="attitude_8cpp.html#a4a86c05583dbc7b327e2158d99afae5f" target="_top" xlink:title="Calculate nominal (ideal) sat yaw for GPS sats Returns result between (&#45;PI, PI].">
<polygon fill="white" stroke="black" points="284,-132.5 284,-151.5 378,-151.5 378,-132.5 284,-132.5"/>
<text text-anchor="middle" x="331" y="-139.5" font-family="Helvetica,sans-Serif" font-size="10.00">nominalYawGps</text>
</a>
</g>
</g>
<!-- Node1&#45;&gt;Node2 -->
<g id="edge1" class="edge">
<title>Node1&#45;&gt;Node2</title>
<path fill="none" stroke="midnightblue" d="M51.72,-114.89C65.05,-128.38 91.15,-151.9 119,-161 177.1,-179.99 248.68,-166.32 291.76,-154.39"/>
<polygon fill="midnightblue" stroke="midnightblue" points="292.9,-157.7 301.55,-151.57 290.97,-150.97 292.9,-157.7"/>
</g>
<!-- Node3 -->
<g id="node3" class="node">
<title>Node3</title>
<g id="a_node3"><a xlink:href="common_8cpp.html#ad96246b7344aed2150ca622b91214cb2" target="_top" xlink:title="Wrap angle between (&#45;pi, pi].">
<polygon fill="white" stroke="black" points="414,-151.5 414,-170.5 513,-170.5 513,-151.5 414,-151.5"/>
<text text-anchor="middle" x="463.5" y="-158.5" font-family="Helvetica,sans-Serif" font-size="10.00">wrapPlusMinusPi</text>
</a>
</g>
</g>
<!-- Node1&#45;&gt;Node3 -->
<g id="edge3" class="edge">
<title>Node1&#45;&gt;Node3</title>
<path fill="none" stroke="midnightblue" d="M51.72,-114.89C65.05,-128.38 91.15,-151.9 119,-161 214.9,-192.35 334.06,-182.26 403.86,-171.82"/>
<polygon fill="midnightblue" stroke="midnightblue" points="404.45,-175.27 413.79,-170.28 403.38,-168.35 404.45,-175.27"/>
</g>
<!-- Node4 -->
<g id="node4" class="node">
<title>Node4</title>
<g id="a_node4"><a xlink:href="attitude_8cpp.html#a95558ed9944dff71b37d685647155248" target="_top" xlink:title="Calculates colinear angle &#45; the scalar angle between midnight or noon, whichever is closest.">
<polygon fill="white" stroke="black" points="142,-114.5 142,-133.5 225,-133.5 225,-114.5 142,-114.5"/>
<text text-anchor="middle" x="183.5" y="-121.5" font-family="Helvetica,sans-Serif" font-size="10.00">colinearAngle</text>
</a>
</g>
</g>
<!-- Node1&#45;&gt;Node4 -->
<g id="edge4" class="edge">
<title>Node1&#45;&gt;Node4</title>
<path fill="none" stroke="midnightblue" d="M83.37,-110.55C98.47,-112.6 115.76,-114.94 131.63,-117.1"/>
<polygon fill="midnightblue" stroke="midnightblue" points="131.44,-120.6 141.82,-118.48 132.38,-113.67 131.44,-120.6"/>
</g>
<!-- Node5 -->
<g id="node5" class="node">
<title>Node5</title>
<g id="a_node5"><a xlink:href="structGTime.html#aaa8a379d11cd6c040a6bbe680c0e913e" target="_top" xlink:title="Uninitialised time for comparisons.">
<polygon fill="white" stroke="black" points="137.5,-76.5 137.5,-95.5 229.5,-95.5 229.5,-76.5 137.5,-76.5"/>
<text text-anchor="middle" x="183.5" y="-83.5" font-family="Helvetica,sans-Serif" font-size="10.00">GTime::noTime</text>
</a>
</g>
</g>
<!-- Node1&#45;&gt;Node5 -->
<g id="edge6" class="edge">
<title>Node1&#45;&gt;Node5</title>
<path fill="none" stroke="midnightblue" d="M83.37,-99.45C97.14,-97.58 112.74,-95.47 127.43,-93.47"/>
<polygon fill="midnightblue" stroke="midnightblue" points="127.97,-96.93 137.41,-92.12 127.03,-90 127.97,-96.93"/>
</g>
<!-- Node6 -->
<g id="node6" class="node">
<title>Node6</title>
<g id="a_node6"><a xlink:href="attitude_8cpp.html#a7100ddd974fc8c19b64512488cd8f42e" target="_top" xlink:title="Calculate nominal sat yaw for GPS sats at a given time Returns result between (&#45;PI,...">
<polygon fill="white" stroke="black" points="119,-38.5 119,-57.5 248,-57.5 248,-38.5 119,-38.5"/>
<text text-anchor="middle" x="183.5" y="-45.5" font-family="Helvetica,sans-Serif" font-size="10.00">nominalYawGpsAtTime</text>
</a>
</g>
</g>
<!-- Node1&#45;&gt;Node6 -->
<g id="edge7" class="edge">
<title>Node1&#45;&gt;Node6</title>
<path fill="none" stroke="midnightblue" d="M59.74,-95.38C74.99,-87.12 98.03,-75.27 119,-67 124.62,-64.78 130.61,-62.67 136.58,-60.72"/>
<polygon fill="midnightblue" stroke="midnightblue" points="138.04,-63.93 146.54,-57.6 135.95,-57.25 138.04,-63.93"/>
</g>
<!-- Node7 -->
<g id="node7" class="node">
<title>Node7</title>
<g id="a_node7"><a xlink:href="attitude_8cpp.html#aafc9b40350ab3ffb027aa7572be560db" target="_top" xlink:title="Smoothed yaw steering for GAL &amp; BDS.">
<polygon fill="white" stroke="red" points="141.5,-0.5 141.5,-19.5 225.5,-19.5 225.5,-0.5 141.5,-0.5"/>
<text text-anchor="middle" x="183.5" y="-7.5" font-family="Helvetica,sans-Serif" font-size="10.00">smoothedYaw</text>
</a>
</g>
</g>
<!-- Node1&#45;&gt;Node7 -->
<g id="edge9" class="edge">
<title>Node1&#45;&gt;Node7</title>
<path fill="none" stroke="midnightblue" d="M49.62,-95.31C61.96,-79.2 88.91,-46.89 119,-29 122.95,-26.65 127.2,-24.58 131.58,-22.74"/>
<polygon fill="midnightblue" stroke="midnightblue" points="133.14,-25.9 141.28,-19.11 130.69,-19.34 133.14,-25.9"/>
</g>
<!-- Node2&#45;&gt;Node3 -->
<g id="edge2" class="edge">
<title>Node2&#45;&gt;Node3</title>
<path fill="none" stroke="midnightblue" d="M378.01,-148.7C386.34,-149.91 395.14,-151.19 403.78,-152.45"/>
<polygon fill="midnightblue" stroke="midnightblue" points="403.41,-155.93 413.81,-153.91 404.42,-149.01 403.41,-155.93"/>
</g>
<!-- Node4&#45;&gt;Node4 -->
<g id="edge5" class="edge">
<title>Node4&#45;&gt;Node4</title>
<path fill="none" stroke="midnightblue" d="M161.61,-133.76C150.97,-142.57 158.26,-152 183.5,-152 200.06,-152 208.9,-147.94 210.01,-142.65"/>
<polygon fill="midnightblue" stroke="midnightblue" points="213.1,-141.02 205.39,-133.76 206.89,-144.24 213.1,-141.02"/>
</g>
<!-- Node6&#45;&gt;Node2 -->
<g id="edge8" class="edge">
<title>Node6&#45;&gt;Node2</title>
<path fill="none" stroke="midnightblue" d="M226.26,-57.56C233.75,-60.08 241.29,-63.2 248,-67 274.97,-82.29 300.39,-107.94 315.58,-124.92"/>
<polygon fill="midnightblue" stroke="midnightblue" points="312.97,-127.24 322.18,-132.47 318.24,-122.64 312.97,-127.24"/>
</g>
</g>
</svg>
