<?xml version="1.0" encoding="UTF-8" standalone="no"?>
<!DOCTYPE svg PUBLIC "-//W3C//DTD SVG 1.1//EN"
 "http://www.w3.org/Graphics/SVG/1.1/DTD/svg11.dtd">
<!-- Generated by graphviz version 2.43.0 (0)
 -->
<!-- Title: preciseAttitude Pages: 1 -->
<svg width="181pt" height="66pt"
 viewBox="0.00 0.00 181.00 66.00" xmlns="http://www.w3.org/2000/svg" xmlns:xlink="http://www.w3.org/1999/xlink">
<g id="graph0" class="graph" transform="scale(1 1) rotate(0) translate(4 62)">
<title>preciseAttitude</title>
<polygon fill="white" stroke="transparent" points="-4,4 -4,-62 177,-62 177,4 -4,4"/>
<!-- Node1 -->
<g id="node1" class="node">
<title>Node1</title>
<g id="a_node1"><a xlink:title="Retrieves precise attitude (from file) &#45; unit vectors of satellite&#45;fixed coordinates (ECEF) Returns f...">
<polygon fill="#bfbfbf" stroke="black" points="82,-19.5 82,-38.5 173,-38.5 173,-19.5 82,-19.5"/>
<text text-anchor="middle" x="127.5" y="-26.5" font-family="Helvetica,sans-Serif" font-size="10.00">preciseAttitude</text>
</a>
</g>
</g>
<!-- Node2 -->
<g id="node2" class="node">
<title>Node2</title>
<g id="a_node2"><a xlink:href="attitude_8cpp.html#a9f0fa1f1a86bfae5e0569b3b9b37811e" target="_top" xlink:title="Calculates satellite attitude &#45; unit vectors of satellite&#45;fixed coordinates (ECEF) Returns false if n...">
<polygon fill="white" stroke="red" points="0,-38.5 0,-57.5 46,-57.5 46,-38.5 0,-38.5"/>
<text text-anchor="middle" x="23" y="-45.5" font-family="Helvetica,sans-Serif" font-size="10.00">satAtt</text>
</a>
</g>
</g>
<!-- Node1&#45;&gt;Node2 -->
<g id="edge1" class="edge">
<title>Node1&#45;&gt;Node2</title>
<path fill="none" stroke="midnightblue" d="M81.84,-37.28C69.43,-39.58 56.5,-41.98 46.02,-43.92"/>
</g>
<!-- Node18 -->
<g id="node3" class="node">
<title>Node18</title>
<g id="a_node3"><a xlink:href="attitude_8cpp.html#aacbfbe9ac21bd3c953d5ea35d4e18937" target="_top" xlink:title="Attitude of receiver.">
<polygon fill="white" stroke="red" points="0,-0.5 0,-19.5 46,-19.5 46,-0.5 0,-0.5"/>
<text text-anchor="middle" x="23" y="-7.5" font-family="Helvetica,sans-Serif" font-size="10.00">recAtt</text>
</a>
</g>
</g>
<!-- Node1&#45;&gt;Node18 -->
<g id="edge2" class="edge">
<title>Node1&#45;&gt;Node18</title>
<path fill="none" stroke="midnightblue" d="M81.84,-20.72C69.43,-18.42 56.5,-16.02 46.02,-14.08"/>
</g>
</g>
</svg>
