<?xml version="1.0" encoding="UTF-8" standalone="no"?>
<!DOCTYPE svg PUBLIC "-//W3C//DTD SVG 1.1//EN"
 "http://www.w3.org/Graphics/SVG/1.1/DTD/svg11.dtd">
<!-- Generated by graphviz version 2.43.0 (0)
 -->
<!-- Title: /data/acs/ginan/src/cpp/common/attitude.hpp Pages: 1 -->
<svg width="446pt" height="173pt"
 viewBox="0.00 0.00 446.00 173.00" xmlns="http://www.w3.org/2000/svg" xmlns:xlink="http://www.w3.org/1999/xlink">
<g id="graph0" class="graph" transform="scale(1 1) rotate(0) translate(4 169)">
<title>/data/acs/ginan/src/cpp/common/attitude.hpp</title>
<polygon fill="white" stroke="transparent" points="-4,4 -4,-169 442,-169 442,4 -4,4"/>
<!-- Node1 -->
<g id="node1" class="node">
<title>Node1</title>
<g id="a_node1"><a xlink:title=" ">
<polygon fill="#bfbfbf" stroke="black" points="129.5,-134.5 129.5,-164.5 274.5,-164.5 274.5,-134.5 129.5,-134.5"/>
<text text-anchor="start" x="137.5" y="-152.5" font-family="Helvetica,sans-Serif" font-size="10.00">/data/acs/ginan/src</text>
<text text-anchor="middle" x="202" y="-141.5" font-family="Helvetica,sans-Serif" font-size="10.00">/cpp/common/attitude.hpp</text>
</a>
</g>
</g>
<!-- Node2 -->
<g id="node2" class="node">
<title>Node2</title>
<g id="a_node2"><a xlink:href="debug_8cpp.html" target="_top" xlink:title=" ">
<polygon fill="white" stroke="black" points="0,-0.5 0,-30.5 136,-30.5 136,-0.5 0,-0.5"/>
<text text-anchor="start" x="8" y="-18.5" font-family="Helvetica,sans-Serif" font-size="10.00">/data/acs/ginan/src</text>
<text text-anchor="middle" x="68" y="-7.5" font-family="Helvetica,sans-Serif" font-size="10.00">/cpp/common/debug.cpp</text>
</a>
</g>
</g>
<!-- Node1&#45;&gt;Node2 -->
<g id="edge1" class="edge">
<title>Node1&#45;&gt;Node2</title>
<path fill="none" stroke="midnightblue" d="M129.46,-136.86C86.5,-128.32 37.99,-115.22 25,-98 8.62,-76.29 32.96,-47.47 51.16,-30.56"/>
</g>
<!-- Node3 -->
<g id="node3" class="node">
<title>Node3</title>
<g id="a_node3"><a xlink:href="station_8hpp.html" target="_top" xlink:title=" ">
<polygon fill="white" stroke="red" points="34,-67.5 34,-97.5 174,-97.5 174,-67.5 34,-67.5"/>
<text text-anchor="start" x="42" y="-85.5" font-family="Helvetica,sans-Serif" font-size="10.00">/data/acs/ginan/src</text>
<text text-anchor="middle" x="104" y="-74.5" font-family="Helvetica,sans-Serif" font-size="10.00">/cpp/common/station.hpp</text>
</a>
</g>
</g>
<!-- Node1&#45;&gt;Node3 -->
<g id="edge2" class="edge">
<title>Node1&#45;&gt;Node3</title>
<path fill="none" stroke="midnightblue" d="M180.74,-134.4C164.3,-123.49 141.65,-108.47 125.22,-97.58"/>
</g>
<!-- Node16 -->
<g id="node4" class="node">
<title>Node16</title>
<g id="a_node4"><a xlink:href="main_8cpp.html" target="_top" xlink:title=" ">
<polygon fill="white" stroke="black" points="330,-0.5 330,-30.5 438,-30.5 438,-0.5 330,-0.5"/>
<text text-anchor="start" x="338" y="-18.5" font-family="Helvetica,sans-Serif" font-size="10.00">/data/acs/ginan/src</text>
<text text-anchor="middle" x="384" y="-7.5" font-family="Helvetica,sans-Serif" font-size="10.00">/cpp/pea/main.cpp</text>
</a>
</g>
</g>
<!-- Node1&#45;&gt;Node16 -->
<g id="edge10" class="edge">
<title>Node1&#45;&gt;Node16</title>
<path fill="none" stroke="midnightblue" d="M274.53,-139.06C323.47,-131.03 381.8,-117.63 397,-98 412.08,-78.51 401.03,-48.42 392.15,-30.77"/>
</g>
<!-- Node123 -->
<g id="node5" class="node">
<title>Node123</title>
<g id="a_node5"><a xlink:href="coordinates_8cpp.html" target="_top" xlink:title=" ">
<polygon fill="white" stroke="black" points="154,-0.5 154,-30.5 312,-30.5 312,-0.5 154,-0.5"/>
<text text-anchor="start" x="162" y="-18.5" font-family="Helvetica,sans-Serif" font-size="10.00">/data/acs/ginan/src</text>
<text text-anchor="middle" x="233" y="-7.5" font-family="Helvetica,sans-Serif" font-size="10.00">/cpp/orbprop/coordinates.cpp</text>
</a>
</g>
</g>
<!-- Node1&#45;&gt;Node123 -->
<g id="edge5" class="edge">
<title>Node1&#45;&gt;Node123</title>
<path fill="none" stroke="midnightblue" d="M205.28,-134.36C209.05,-118.1 215.44,-90.62 221,-67 223.89,-54.72 227.21,-40.77 229.62,-30.65"/>
</g>
<!-- Node124 -->
<g id="node6" class="node">
<title>Node124</title>
<g id="a_node6"><a xlink:href="coordinates_8hpp.html" target="_top" xlink:title=" ">
<polygon fill="white" stroke="red" points="230,-67.5 230,-97.5 388,-97.5 388,-67.5 230,-67.5"/>
<text text-anchor="start" x="238" y="-85.5" font-family="Helvetica,sans-Serif" font-size="10.00">/data/acs/ginan/src</text>
<text text-anchor="middle" x="309" y="-74.5" font-family="Helvetica,sans-Serif" font-size="10.00">/cpp/orbprop/coordinates.hpp</text>
</a>
</g>
</g>
<!-- Node1&#45;&gt;Node124 -->
<g id="edge6" class="edge">
<title>Node1&#45;&gt;Node124</title>
<path fill="none" stroke="midnightblue" d="M225.22,-134.4C243.16,-123.49 267.89,-108.47 285.83,-97.58"/>
</g>
<!-- Node3&#45;&gt;Node2 -->
<g id="edge3" class="edge">
<title>Node3&#45;&gt;Node2</title>
<path fill="none" stroke="midnightblue" d="M96.19,-67.4C90.15,-56.49 81.83,-41.47 75.8,-30.58"/>
</g>
<!-- Node3&#45;&gt;Node16 -->
<g id="edge4" class="edge">
<title>Node3&#45;&gt;Node16</title>
<path fill="none" stroke="midnightblue" d="M164.41,-67.48C213.61,-56.06 282.43,-40.08 329.85,-29.07"/>
</g>
<!-- Node124&#45;&gt;Node2 -->
<g id="edge7" class="edge">
<title>Node124&#45;&gt;Node2</title>
<path fill="none" stroke="midnightblue" d="M257,-67.48C216.6,-56.58 160.81,-41.53 120.32,-30.61"/>
</g>
<!-- Node124&#45;&gt;Node16 -->
<g id="edge9" class="edge">
<title>Node124&#45;&gt;Node16</title>
<path fill="none" stroke="midnightblue" d="M325.27,-67.4C337.85,-56.49 355.19,-41.47 367.76,-30.58"/>
</g>
<!-- Node124&#45;&gt;Node123 -->
<g id="edge8" class="edge">
<title>Node124&#45;&gt;Node123</title>
<path fill="none" stroke="midnightblue" d="M292.51,-67.4C279.76,-56.49 262.2,-41.47 249.46,-30.58"/>
</g>
</g>
</svg>
