<?xml version="1.0" encoding="UTF-8" standalone="no"?>
<!DOCTYPE svg PUBLIC "-//W3C//DTD SVG 1.1//EN"
 "http://www.w3.org/Graphics/SVG/1.1/DTD/svg11.dtd">
<!-- Generated by graphviz version 2.43.0 (0)
 -->
<!-- Title: findEclipseBoundaries Pages: 1 -->
<svg width="262pt" height="104pt"
 viewBox="0.00 0.00 262.00 104.00" xmlns="http://www.w3.org/2000/svg" xmlns:xlink="http://www.w3.org/1999/xlink">
<g id="graph0" class="graph" transform="scale(1 1) rotate(0) translate(4 100)">
<title>findEclipseBoundaries</title>
<polygon fill="white" stroke="transparent" points="-4,4 -4,-100 258,-100 258,4 -4,4"/>
<!-- Node1 -->
<g id="node1" class="node">
<title>Node1</title>
<g id="a_node1"><a xlink:title="Finds time when eclipse started, prior (default) to this point in time For finding eclipses forward i...">
<polygon fill="#bfbfbf" stroke="black" points="0,-38.5 0,-57.5 124,-57.5 124,-38.5 0,-38.5"/>
<text text-anchor="middle" x="62" y="-45.5" font-family="Helvetica,sans-Serif" font-size="10.00">findEclipseBoundaries</text>
</a>
</g>
</g>
<!-- Node2 -->
<g id="node2" class="node">
<title>Node2</title>
<g id="a_node2"><a xlink:href="erp_8cpp.html#a6c6ecf3c5c7d4367d78ad08621996580" target="_top" xlink:title="Get earth rotation parameter values.">
<polygon fill="white" stroke="red" points="183,-76.5 183,-95.5 231,-95.5 231,-76.5 183,-76.5"/>
<text text-anchor="middle" x="207" y="-83.5" font-family="Helvetica,sans-Serif" font-size="10.00">getErp</text>
</a>
</g>
</g>
<!-- Node1&#45;&gt;Node2 -->
<g id="edge1" class="edge">
<title>Node1&#45;&gt;Node2</title>
<path fill="none" stroke="midnightblue" d="M99.08,-57.59C121.8,-63.62 150.89,-71.36 172.99,-77.23"/>
<polygon fill="midnightblue" stroke="midnightblue" points="172.35,-80.68 182.92,-79.87 174.15,-73.91 172.35,-80.68"/>
</g>
<!-- Node20 -->
<g id="node3" class="node">
<title>Node20</title>
<g id="a_node3"><a xlink:href="attitude_8cpp.html#a3b2447912b724e96167465b4813d591b" target="_top" xlink:title="Returns true if satellite is in eclipse (shadow umbra); else false.">
<polygon fill="white" stroke="red" points="177,-38.5 177,-57.5 237,-57.5 237,-38.5 177,-38.5"/>
<text text-anchor="middle" x="207" y="-45.5" font-family="Helvetica,sans-Serif" font-size="10.00">inEclipse</text>
</a>
</g>
</g>
<!-- Node1&#45;&gt;Node20 -->
<g id="edge2" class="edge">
<title>Node1&#45;&gt;Node20</title>
<path fill="none" stroke="midnightblue" d="M124.06,-48C138.56,-48 153.64,-48 166.85,-48"/>
<polygon fill="midnightblue" stroke="midnightblue" points="167,-51.5 177,-48 167,-44.5 167,-51.5"/>
</g>
<!-- Node23 -->
<g id="node4" class="node">
<title>Node23</title>
<g id="a_node4"><a xlink:href="attitude_8cpp.html#af94ae848e3defe09026efc7a408717f5" target="_top" xlink:title=" ">
<polygon fill="white" stroke="red" points="160,-0.5 160,-19.5 254,-19.5 254,-0.5 160,-0.5"/>
<text text-anchor="middle" x="207" y="-7.5" font-family="Helvetica,sans-Serif" font-size="10.00">satSunMoonPos</text>
</a>
</g>
</g>
<!-- Node1&#45;&gt;Node23 -->
<g id="edge3" class="edge">
<title>Node1&#45;&gt;Node23</title>
<path fill="none" stroke="midnightblue" d="M99.08,-38.41C117.63,-33.48 140.43,-27.43 160.2,-22.17"/>
<polygon fill="midnightblue" stroke="midnightblue" points="161.16,-25.54 169.93,-19.59 159.36,-18.77 161.16,-25.54"/>
</g>
</g>
</svg>
