<?xml version="1.0" encoding="UTF-8" standalone="no"?>
<!DOCTYPE svg PUBLIC "-//W3C//DTD SVG 1.1//EN"
 "http://www.w3.org/Graphics/SVG/1.1/DTD/svg11.dtd">
<!-- Generated by graphviz version 2.43.0 (0)
 -->
<!-- Title: inEclipse Pages: 1 -->
<svg width="346pt" height="132pt"
 viewBox="0.00 0.00 346.00 132.00" xmlns="http://www.w3.org/2000/svg" xmlns:xlink="http://www.w3.org/1999/xlink">
<g id="graph0" class="graph" transform="scale(1 1) rotate(0) translate(4 128)">
<title>inEclipse</title>
<polygon fill="white" stroke="transparent" points="-4,4 -4,-128 342,-128 342,4 -4,4"/>
<!-- Node1 -->
<g id="node1" class="node">
<title>Node1</title>
<g id="a_node1"><a xlink:title="Returns true if satellite is in eclipse (shadow umbra); else false.">
<polygon fill="#bfbfbf" stroke="black" points="278,-47.5 278,-66.5 338,-66.5 338,-47.5 278,-47.5"/>
<text text-anchor="middle" x="308" y="-54.5" font-family="Helvetica,sans-Serif" font-size="10.00">inEclipse</text>
</a>
</g>
</g>
<!-- Node2 -->
<g id="node2" class="node">
<title>Node2</title>
<g id="a_node2"><a xlink:href="attitude_8cpp.html#a52eb3d3990c9c0a2bd4e04e58fc00334" target="_top" xlink:title="Finds time when eclipse started, prior (default) to this point in time For finding eclipses forward i...">
<polygon fill="white" stroke="black" points="118,-104.5 118,-123.5 242,-123.5 242,-104.5 118,-104.5"/>
<text text-anchor="middle" x="180" y="-111.5" font-family="Helvetica,sans-Serif" font-size="10.00">findEclipseBoundaries</text>
</a>
</g>
</g>
<!-- Node1&#45;&gt;Node2 -->
<g id="edge1" class="edge">
<title>Node1&#45;&gt;Node2</title>
<path fill="none" stroke="midnightblue" d="M280.13,-71.36C268.52,-77.38 254.72,-84.29 242,-90 230.58,-95.13 217.71,-100.28 206.75,-104.49"/>
<polygon fill="midnightblue" stroke="midnightblue" points="282.05,-74.31 289.29,-66.57 278.81,-68.11 282.05,-74.31"/>
</g>
<!-- Node3 -->
<g id="node3" class="node">
<title>Node3</title>
<g id="a_node3"><a xlink:href="attitude_8cpp.html#a46cec52b21a1c337c0ca23eba28f5bca" target="_top" xlink:title="Yaw model for GPS&#45;IIA sats Ref: http://acc.igs.org/orbits/EclipseReadMe.pdf Ref: https://igsac&#45;cnes....">
<polygon fill="white" stroke="red" points="0,-94.5 0,-113.5 82,-113.5 82,-94.5 0,-94.5"/>
<text text-anchor="middle" x="41" y="-101.5" font-family="Helvetica,sans-Serif" font-size="10.00">satYawGpsIIA</text>
</a>
</g>
</g>
<!-- Node1&#45;&gt;Node3 -->
<g id="edge5" class="edge">
<title>Node1&#45;&gt;Node3</title>
<path fill="none" stroke="midnightblue" d="M267.83,-63.95C218.09,-72.77 132.7,-87.91 82.38,-96.84"/>
<polygon fill="midnightblue" stroke="midnightblue" points="268.65,-67.36 277.88,-62.16 267.42,-60.46 268.65,-67.36"/>
</g>
<!-- Node20 -->
<g id="node4" class="node">
<title>Node20</title>
<g id="a_node4"><a xlink:href="attitude_8cpp.html#af06aa2920ea6c715fd8973e86ab0822f" target="_top" xlink:title="Yaw model for GPS&#45;IIF sats Ref: https://www.researchgate.net/publication/306924379_Observed_features_...">
<polygon fill="white" stroke="red" points="0.5,-47.5 0.5,-66.5 81.5,-66.5 81.5,-47.5 0.5,-47.5"/>
<text text-anchor="middle" x="41" y="-54.5" font-family="Helvetica,sans-Serif" font-size="10.00">satYawGpsIIF</text>
</a>
</g>
</g>
<!-- Node1&#45;&gt;Node20 -->
<g id="edge6" class="edge">
<title>Node1&#45;&gt;Node20</title>
<path fill="none" stroke="midnightblue" d="M267.8,-57C217.91,-57 132.17,-57 81.93,-57"/>
<polygon fill="midnightblue" stroke="midnightblue" points="267.88,-60.5 277.88,-57 267.88,-53.5 267.88,-60.5"/>
</g>
<!-- Node21 -->
<g id="node5" class="node">
<title>Node21</title>
<g id="a_node5"><a xlink:href="attitude_8cpp.html#af64a8516da71e0d4f37682b1935fdca3" target="_top" xlink:title="Yaw model for GLONASS sats Returns false if no modelled yaw available Ref: https://igsac&#45;cnes....">
<polygon fill="white" stroke="red" points="7.5,-0.5 7.5,-19.5 74.5,-19.5 74.5,-0.5 7.5,-0.5"/>
<text text-anchor="middle" x="41" y="-7.5" font-family="Helvetica,sans-Serif" font-size="10.00">satYawGlo</text>
</a>
</g>
</g>
<!-- Node1&#45;&gt;Node21 -->
<g id="edge7" class="edge">
<title>Node1&#45;&gt;Node21</title>
<path fill="none" stroke="midnightblue" d="M267.98,-50.08C215.7,-40.81 123.84,-24.51 74.89,-15.83"/>
<polygon fill="midnightblue" stroke="midnightblue" points="267.42,-53.54 277.88,-51.84 268.65,-46.64 267.42,-53.54"/>
</g>
<!-- Node2&#45;&gt;Node3 -->
<g id="edge2" class="edge">
<title>Node2&#45;&gt;Node3</title>
<path fill="none" stroke="midnightblue" d="M107.46,-108.78C98.71,-108.14 90.04,-107.51 82,-106.92"/>
<polygon fill="midnightblue" stroke="midnightblue" points="107.48,-112.29 117.71,-109.53 107.99,-105.31 107.48,-112.29"/>
</g>
<!-- Node2&#45;&gt;Node20 -->
<g id="edge3" class="edge">
<title>Node2&#45;&gt;Node20</title>
<path fill="none" stroke="midnightblue" d="M146.6,-100.52C121.51,-90.08 87.36,-75.87 65.01,-66.57"/>
<polygon fill="midnightblue" stroke="midnightblue" points="145.49,-103.85 156.07,-104.46 148.18,-97.39 145.49,-103.85"/>
</g>
<!-- Node2&#45;&gt;Node21 -->
<g id="edge4" class="edge">
<title>Node2&#45;&gt;Node21</title>
<path fill="none" stroke="midnightblue" d="M159.38,-98.12C139.95,-82.52 109.25,-58.19 82,-38 73.55,-31.74 63.91,-24.98 56.2,-19.66"/>
<polygon fill="midnightblue" stroke="midnightblue" points="157.23,-100.88 167.21,-104.43 161.62,-95.43 157.23,-100.88"/>
</g>
</g>
</svg>
