<?xml version="1.0" encoding="UTF-8" standalone="no"?>
<!DOCTYPE svg PUBLIC "-//W3C//DTD SVG 1.1//EN"
 "http://www.w3.org/Graphics/SVG/1.1/DTD/svg11.dtd">
<!-- Generated by graphviz version 2.43.0 (0)
 -->
<!-- Title: write_bSINEX_line Pages: 1 -->
<svg width="369pt" height="294pt"
 viewBox="0.00 0.00 369.00 294.00" xmlns="http://www.w3.org/2000/svg" xmlns:xlink="http://www.w3.org/1999/xlink">
<g id="graph0" class="graph" transform="scale(1 1) rotate(0) translate(4 290)">
<title>write_bSINEX_line</title>
<polygon fill="white" stroke="transparent" points="-4,4 -4,-290 365,-290 365,4 -4,4"/>
<!-- Node1 -->
<g id="node1" class="node">
<title>Node1</title>
<g id="a_node1"><a xlink:title="print bias SINEX data line">
<polygon fill="#bfbfbf" stroke="black" points="0,-133.5 0,-152.5 105,-152.5 105,-133.5 0,-133.5"/>
<text text-anchor="middle" x="52.5" y="-140.5" font-family="Helvetica,sans-Serif" font-size="10.00">write_bSINEX_line</text>
</a>
</g>
</g>
<!-- Node2 -->
<g id="node2" class="node">
<title>Node2</title>
<g id="a_node2"><a xlink:href="biasSINEXwrite_8cpp.html#a961567e1b6659842a971db2d3cc759fc" target="_top" xlink:title="Determine if the bias is an OSB or DSB given observation codes.">
<polygon fill="white" stroke="black" points="168,-266.5 168,-285.5 227,-285.5 227,-266.5 168,-266.5"/>
<text text-anchor="middle" x="197.5" y="-273.5" font-family="Helvetica,sans-Serif" font-size="10.00">biasType</text>
</a>
</g>
</g>
<!-- Node1&#45;&gt;Node2 -->
<g id="edge1" class="edge">
<title>Node1&#45;&gt;Node2</title>
<path fill="none" stroke="midnightblue" d="M58.41,-152.8C69.86,-174.68 100.48,-227.89 141,-257 148.94,-262.7 158.73,-266.8 167.87,-269.7"/>
</g>
<!-- Node3 -->
<g id="node3" class="node">
<title>Node3</title>
<g id="a_node3"><a xlink:href="structSatSys.html#abfd7e43b0d57c2718d05ca595ee360dd" target="_top" xlink:title="Returns the character used as a prefix for this system.">
<polygon fill="white" stroke="black" points="150,-228.5 150,-247.5 245,-247.5 245,-228.5 150,-228.5"/>
<text text-anchor="middle" x="197.5" y="-235.5" font-family="Helvetica,sans-Serif" font-size="10.00">SatSys::sysChar</text>
</a>
</g>
</g>
<!-- Node1&#45;&gt;Node3 -->
<g id="edge2" class="edge">
<title>Node1&#45;&gt;Node3</title>
<path fill="none" stroke="midnightblue" d="M62.27,-152.75C77.07,-168.67 108.57,-200.32 141,-219 147.44,-222.71 154.72,-225.85 161.84,-228.44"/>
</g>
<!-- Node4 -->
<g id="node4" class="node">
<title>Node4</title>
<g id="a_node4"><a xlink:href="structSatSys.html#aec6d07b90d1e8172b8b6a6966abef4fd" target="_top" xlink:title="Returns a std::string of this satellite&#39;s id.">
<polygon fill="white" stroke="red" points="165,-190.5 165,-209.5 230,-209.5 230,-190.5 165,-190.5"/>
<text text-anchor="middle" x="197.5" y="-197.5" font-family="Helvetica,sans-Serif" font-size="10.00">SatSys::id</text>
</a>
</g>
</g>
<!-- Node1&#45;&gt;Node4 -->
<g id="edge3" class="edge">
<title>Node1&#45;&gt;Node4</title>
<path fill="none" stroke="midnightblue" d="M74.17,-152.53C91.78,-160.52 117.84,-172.02 141,-181 149.45,-184.28 158.73,-187.57 167.25,-190.47"/>
</g>
<!-- Node6 -->
<g id="node5" class="node">
<title>Node6</title>
<g id="a_node5"><a xlink:href="structSatSys.html#a1da3994cf03ff0ec115928954c9307bb" target="_top" xlink:title=" ">
<polygon fill="white" stroke="black" points="161,-152.5 161,-171.5 234,-171.5 234,-152.5 161,-152.5"/>
<text text-anchor="middle" x="197.5" y="-159.5" font-family="Helvetica,sans-Serif" font-size="10.00">SatSys::svn</text>
</a>
</g>
</g>
<!-- Node1&#45;&gt;Node6 -->
<g id="edge4" class="edge">
<title>Node1&#45;&gt;Node6</title>
<path fill="none" stroke="midnightblue" d="M105.13,-149.86C123.53,-152.3 143.83,-155 160.62,-157.23"/>
</g>
<!-- Node7 -->
<g id="node6" class="node">
<title>Node7</title>
<g id="a_node6"><a xlink:href="biasSINEXread_8cpp.html#a32bf3bf3416755b184c8759cc994f529" target="_top" xlink:title="Convert enum observation code to code string.">
<polygon fill="white" stroke="black" points="168,-114.5 168,-133.5 227,-133.5 227,-114.5 168,-114.5"/>
<text text-anchor="middle" x="197.5" y="-121.5" font-family="Helvetica,sans-Serif" font-size="10.00">code2str</text>
</a>
</g>
</g>
<!-- Node1&#45;&gt;Node7 -->
<g id="edge5" class="edge">
<title>Node1&#45;&gt;Node7</title>
<path fill="none" stroke="midnightblue" d="M105.13,-136.14C126.25,-133.33 149.88,-130.19 167.82,-127.81"/>
</g>
<!-- Node8 -->
<g id="node7" class="node">
<title>Node8</title>
<g id="a_node7"><a xlink:href="streamTrace_8cpp.html#ae00e6addd3bdf3a7fd41a254eb9aec89" target="_top" xlink:title=" ">
<polygon fill="white" stroke="black" points="290,-38.5 290,-57.5 361,-57.5 361,-38.5 290,-38.5"/>
<text text-anchor="middle" x="325.5" y="-45.5" font-family="Helvetica,sans-Serif" font-size="10.00">tracepdeex</text>
</a>
</g>
</g>
<!-- Node1&#45;&gt;Node8 -->
<g id="edge6" class="edge">
<title>Node1&#45;&gt;Node8</title>
<path fill="none" stroke="midnightblue" d="M73.75,-133.46C91.33,-125.36 117.56,-113.7 141,-105 192.13,-86.02 252.8,-68.03 289.97,-57.51"/>
</g>
<!-- Node9 -->
<g id="node8" class="node">
<title>Node9</title>
<g id="a_node8"><a xlink:href="biasSINEXwrite_8cpp.html#a39dff45cfb618319d83537ea39018e82" target="_top" xlink:title="convert time to yds (doy in bias SINEX starts at 1)">
<polygon fill="white" stroke="red" points="162,-38.5 162,-57.5 233,-57.5 233,-38.5 162,-38.5"/>
<text text-anchor="middle" x="197.5" y="-45.5" font-family="Helvetica,sans-Serif" font-size="10.00">sinex_time</text>
</a>
</g>
</g>
<!-- Node1&#45;&gt;Node9 -->
<g id="edge7" class="edge">
<title>Node1&#45;&gt;Node9</title>
<path fill="none" stroke="midnightblue" d="M63.32,-133.5C78.83,-118.86 110.38,-90.56 141,-72 150.16,-66.45 160.83,-61.51 170.35,-57.58"/>
</g>
<!-- Node12 -->
<g id="node9" class="node">
<title>Node12</title>
<g id="a_node9"><a xlink:href="streamTrace_8cpp.html#a755e8144b75554c3f9f4407284f37437" target="_top" xlink:title=" ">
<polygon fill="white" stroke="black" points="141,-0.5 141,-19.5 254,-19.5 254,-0.5 141,-0.5"/>
<text text-anchor="middle" x="197.5" y="-7.5" font-family="Helvetica,sans-Serif" font-size="10.00">traceFormatedFloat</text>
</a>
</g>
</g>
<!-- Node1&#45;&gt;Node12 -->
<g id="edge8" class="edge">
<title>Node1&#45;&gt;Node12</title>
<path fill="none" stroke="midnightblue" d="M58.41,-133.2C69.86,-111.32 100.48,-58.11 141,-29 146.29,-25.2 152.41,-22.11 158.6,-19.61"/>
</g>
<!-- Node12&#45;&gt;Node8 -->
<g id="edge9" class="edge">
<title>Node12&#45;&gt;Node8</title>
<path fill="none" stroke="midnightblue" d="M230.3,-19.59C249.4,-25.35 273.62,-32.65 292.72,-38.41"/>
</g>
</g>
</svg>
