<?xml version="1.0" encoding="UTF-8" standalone="no"?>
<!DOCTYPE svg PUBLIC "-//W3C//DTD SVG 1.1//EN"
 "http://www.w3.org/Graphics/SVG/1.1/DTD/svg11.dtd">
<!-- Generated by graphviz version 2.43.0 (0)
 -->
<!-- Title: writeBiasSinex Pages: 1 -->
<svg width="351pt" height="80pt"
 viewBox="0.00 0.00 351.00 79.68" xmlns="http://www.w3.org/2000/svg" xmlns:xlink="http://www.w3.org/1999/xlink">
<g id="graph0" class="graph" transform="scale(1 1) rotate(0) translate(4 75.68)">
<title>writeBiasSinex</title>
<polygon fill="white" stroke="transparent" points="-4,4 -4,-75.68 347,-75.68 347,4 -4,4"/>
<!-- Node1 -->
<g id="node1" class="node">
<title>Node1</title>
<g id="a_node1"><a xlink:title="Write stored bias output to SINEX file Return number of written biases (&#45;1 if file not found)">
<polygon fill="#bfbfbf" stroke="black" points="0,-38.5 0,-57.5 89,-57.5 89,-38.5 0,-38.5"/>
<text text-anchor="middle" x="44.5" y="-45.5" font-family="Helvetica,sans-Serif" font-size="10.00">writeBiasSinex</text>
</a>
</g>
</g>
<!-- Node2 -->
<g id="node2" class="node">
<title>Node2</title>
<g id="a_node2"><a xlink:href="streamTrace_8cpp.html#ae00e6addd3bdf3a7fd41a254eb9aec89" target="_top" xlink:title=" ">
<polygon fill="white" stroke="black" points="272,-38.5 272,-57.5 343,-57.5 343,-38.5 272,-38.5"/>
<text text-anchor="middle" x="307.5" y="-45.5" font-family="Helvetica,sans-Serif" font-size="10.00">tracepdeex</text>
</a>
</g>
</g>
<!-- Node1&#45;&gt;Node2 -->
<g id="edge1" class="edge">
<title>Node1&#45;&gt;Node2</title>
<path fill="none" stroke="midnightblue" d="M77.68,-57.51C92.03,-61.27 109.22,-65.14 125,-67 173.99,-72.77 187.09,-73.47 236,-67 250.07,-65.14 265.33,-61.27 278.03,-57.5"/>
</g>
<!-- Node3 -->
<g id="node3" class="node">
<title>Node3</title>
<g id="a_node3"><a xlink:href="biasSINEXwrite_8cpp.html#a6c7bad6904e92e16df26708e1e2d02cc" target="_top" xlink:title="Write bias SINEX head.">
<polygon fill="white" stroke="red" points="125,-38.5 125,-57.5 236,-57.5 236,-38.5 125,-38.5"/>
<text text-anchor="middle" x="180.5" y="-45.5" font-family="Helvetica,sans-Serif" font-size="10.00">write_bSINEX_head</text>
</a>
</g>
</g>
<!-- Node1&#45;&gt;Node3 -->
<g id="edge2" class="edge">
<title>Node1&#45;&gt;Node3</title>
<path fill="none" stroke="midnightblue" d="M89.01,-48C100.47,-48 112.98,-48 124.95,-48"/>
</g>
<!-- Node8 -->
<g id="node4" class="node">
<title>Node8</title>
<g id="a_node4"><a xlink:href="biasSINEXwrite_8cpp.html#a4e4fe834c1dbcb6b4a41560de1d7432e" target="_top" xlink:title="print bias SINEX data line">
<polygon fill="white" stroke="red" points="128,-0.5 128,-19.5 233,-19.5 233,-0.5 128,-0.5"/>
<text text-anchor="middle" x="180.5" y="-7.5" font-family="Helvetica,sans-Serif" font-size="10.00">write_bSINEX_line</text>
</a>
</g>
</g>
<!-- Node1&#45;&gt;Node8 -->
<g id="edge4" class="edge">
<title>Node1&#45;&gt;Node8</title>
<path fill="none" stroke="midnightblue" d="M79.31,-38.41C99.63,-32.65 125.39,-25.35 145.7,-19.59"/>
</g>
<!-- Node3&#45;&gt;Node2 -->
<g id="edge3" class="edge">
<title>Node3&#45;&gt;Node2</title>
<path fill="none" stroke="midnightblue" d="M236.33,-48C248.4,-48 260.85,-48 271.86,-48"/>
</g>
<!-- Node8&#45;&gt;Node2 -->
<g id="edge5" class="edge">
<title>Node8&#45;&gt;Node2</title>
<path fill="none" stroke="midnightblue" d="M213.04,-19.59C231.99,-25.35 256.02,-32.65 274.97,-38.41"/>
</g>
</g>
</svg>
