<?xml version="1.0" encoding="UTF-8" standalone="no"?>
<!DOCTYPE svg PUBLIC "-//W3C//DTD SVG 1.1//EN"
 "http://www.w3.org/Graphics/SVG/1.1/DTD/svg11.dtd">
<!-- Generated by graphviz version 2.43.0 (0)
 -->
<!-- Title: writeBiasSinex Pages: 1 -->
<svg width="481pt" height="279pt"
 viewBox="0.00 0.00 481.00 279.21" xmlns="http://www.w3.org/2000/svg" xmlns:xlink="http://www.w3.org/1999/xlink">
<g id="graph0" class="graph" transform="scale(1 1) rotate(0) translate(4 275.21)">
<title>writeBiasSinex</title>
<polygon fill="white" stroke="transparent" points="-4,4 -4,-275.21 477,-275.21 477,4 -4,4"/>
<!-- Node1 -->
<g id="node1" class="node">
<title>Node1</title>
<g id="a_node1"><a xlink:title="Write stored bias output to SINEX file Return number of written biases (&#45;1 if file not found)">
<polygon fill="#bfbfbf" stroke="black" points="0,-133.5 0,-152.5 89,-152.5 89,-133.5 0,-133.5"/>
<text text-anchor="middle" x="44.5" y="-140.5" font-family="Helvetica,sans-Serif" font-size="10.00">writeBiasSinex</text>
</a>
</g>
</g>
<!-- Node2 -->
<g id="node2" class="node">
<title>Node2</title>
<g id="a_node2"><a xlink:href="trace_8hpp.html#a984a9b0c40d65d46f2c73a021a7b7de3" target="_top" xlink:title=" ">
<polygon fill="white" stroke="black" points="402,-133.5 402,-152.5 473,-152.5 473,-133.5 402,-133.5"/>
<text text-anchor="middle" x="437.5" y="-140.5" font-family="Helvetica,sans-Serif" font-size="10.00">tracepdeex</text>
</a>
</g>
</g>
<!-- Node1&#45;&gt;Node2 -->
<g id="edge1" class="edge">
<title>Node1&#45;&gt;Node2</title>
<path fill="none" stroke="midnightblue" d="M48.73,-152.72C57.03,-175.93 81.57,-234.34 125,-257 169.53,-280.23 189.47,-269.94 238,-257 309.91,-237.82 382.83,-185.7 416.81,-159.09"/>
<polygon fill="midnightblue" stroke="midnightblue" points="419.31,-161.58 424.95,-152.61 414.95,-156.1 419.31,-161.58"/>
</g>
<!-- Node3 -->
<g id="node3" class="node">
<title>Node3</title>
<g id="a_node3"><a xlink:href="structGTime.html#a98fdbaaec5a132a7e694f28b4f1907cb" target="_top" xlink:title=" ">
<polygon fill="white" stroke="black" points="132.5,-228.5 132.5,-247.5 230.5,-247.5 230.5,-228.5 132.5,-228.5"/>
<text text-anchor="middle" x="181.5" y="-235.5" font-family="Helvetica,sans-Serif" font-size="10.00">GTime::to_string</text>
</a>
</g>
</g>
<!-- Node1&#45;&gt;Node3 -->
<g id="edge2" class="edge">
<title>Node1&#45;&gt;Node3</title>
<path fill="none" stroke="midnightblue" d="M53.06,-152.54C66.13,-168.45 94.49,-200.45 125,-219 128.38,-221.05 132.01,-222.92 135.74,-224.61"/>
<polygon fill="midnightblue" stroke="midnightblue" points="134.54,-227.91 145.12,-228.46 137.19,-221.43 134.54,-227.91"/>
</g>
<!-- Node4 -->
<g id="node4" class="node">
<title>Node4</title>
<g id="a_node4"><a xlink:href="structGTime.html#a72505f23b2252f690f124c2eaf026f91" target="_top" xlink:title=" ">
<polygon fill="white" stroke="black" points="131,-190.5 131,-209.5 232,-209.5 232,-190.5 131,-190.5"/>
<text text-anchor="middle" x="181.5" y="-197.5" font-family="Helvetica,sans-Serif" font-size="10.00">GTime::floorTime</text>
</a>
</g>
</g>
<!-- Node1&#45;&gt;Node4 -->
<g id="edge3" class="edge">
<title>Node1&#45;&gt;Node4</title>
<path fill="none" stroke="midnightblue" d="M63.86,-152.52C79.8,-160.61 103.62,-172.26 125,-181 130.13,-183.09 135.58,-185.16 140.99,-187.1"/>
<polygon fill="midnightblue" stroke="midnightblue" points="140,-190.47 150.6,-190.47 142.32,-183.86 140,-190.47"/>
</g>
<!-- Node5 -->
<g id="node5" class="node">
<title>Node5</title>
<g id="a_node5"><a xlink:href="biasSINEXwrite_8cpp.html#ab94f8678684d9733ffbe150e860a564a" target="_top" xlink:title="Write bias SINEX head for the first time.">
<polygon fill="white" stroke="red" points="125,-152.5 125,-171.5 238,-171.5 238,-152.5 125,-152.5"/>
<text text-anchor="middle" x="181.5" y="-159.5" font-family="Helvetica,sans-Serif" font-size="10.00">writeBSINEXHeader</text>
</a>
</g>
</g>
<!-- Node1&#45;&gt;Node5 -->
<g id="edge4" class="edge">
<title>Node1&#45;&gt;Node5</title>
<path fill="none" stroke="midnightblue" d="M89.33,-149.17C97.41,-150.31 106.01,-151.52 114.57,-152.72"/>
<polygon fill="midnightblue" stroke="midnightblue" points="114.18,-156.2 124.57,-154.13 115.16,-149.27 114.18,-156.2"/>
</g>
<!-- Node10 -->
<g id="node6" class="node">
<title>Node10</title>
<g id="a_node6"><a xlink:href="biasSINEXwrite_8cpp.html#a986e047c2dd383adf5526d99e5c418c4" target="_top" xlink:title="Update bias SINEX first line.">
<polygon fill="white" stroke="red" points="274,-152.5 274,-171.5 366,-171.5 366,-152.5 274,-152.5"/>
<text text-anchor="middle" x="320" y="-159.5" font-family="Helvetica,sans-Serif" font-size="10.00">updateFirstLine</text>
</a>
</g>
</g>
<!-- Node1&#45;&gt;Node10 -->
<g id="edge10" class="edge">
<title>Node1&#45;&gt;Node10</title>
<path fill="none" stroke="midnightblue" d="M60.3,-133.43C75.73,-124.07 100.98,-110.45 125,-105 173.98,-93.9 190.12,-89.84 238,-105 262.9,-112.88 286.76,-131.47 302.06,-145.29"/>
<polygon fill="midnightblue" stroke="midnightblue" points="299.93,-148.1 309.62,-152.38 304.72,-142.99 299.93,-148.1"/>
</g>
<!-- Node20 -->
<g id="node7" class="node">
<title>Node20</title>
<g id="a_node7"><a xlink:href="biasSINEXwrite_8cpp.html#a12cb4f62e73c021b02dc2f12e2154c04" target="_top" xlink:title="Store bias output to write into bias SINEX files.">
<polygon fill="white" stroke="red" points="129.5,-114.5 129.5,-133.5 233.5,-133.5 233.5,-114.5 129.5,-114.5"/>
<text text-anchor="middle" x="181.5" y="-121.5" font-family="Helvetica,sans-Serif" font-size="10.00">updateBiasOutput</text>
</a>
</g>
</g>
<!-- Node1&#45;&gt;Node20 -->
<g id="edge8" class="edge">
<title>Node1&#45;&gt;Node20</title>
<path fill="none" stroke="midnightblue" d="M89.33,-136.83C98.92,-135.48 109.23,-134.03 119.35,-132.61"/>
<polygon fill="midnightblue" stroke="midnightblue" points="119.96,-136.05 129.38,-131.2 118.99,-129.12 119.96,-136.05"/>
</g>
<!-- Node59 -->
<g id="node8" class="node">
<title>Node59</title>
<g id="a_node8"><a xlink:href="biasSINEXwrite_8cpp.html#a961567e1b6659842a971db2d3cc759fc" target="_top" xlink:title="Determine if the bias is an OSB or DSB given observation codes.">
<polygon fill="white" stroke="black" points="290.5,-67.5 290.5,-86.5 349.5,-86.5 349.5,-67.5 290.5,-67.5"/>
<text text-anchor="middle" x="320" y="-74.5" font-family="Helvetica,sans-Serif" font-size="10.00">biasType</text>
</a>
</g>
</g>
<!-- Node1&#45;&gt;Node59 -->
<g id="edge9" class="edge">
<title>Node1&#45;&gt;Node59</title>
<path fill="none" stroke="midnightblue" d="M61.66,-133.48C77.32,-124.69 102.02,-111.97 125,-105 177.46,-89.08 240.72,-82.11 280.42,-79.13"/>
<polygon fill="midnightblue" stroke="midnightblue" points="280.74,-82.61 290.47,-78.42 280.25,-75.63 280.74,-82.61"/>
</g>
<!-- Node60 -->
<g id="node9" class="node">
<title>Node60</title>
<g id="a_node9"><a xlink:href="biasSINEXwrite_8cpp.html#adcabd7eefaca5c01cf305a80294e57a7" target="_top" xlink:title="print bias SINEX data line">
<polygon fill="white" stroke="red" points="132.5,-0.5 132.5,-19.5 230.5,-19.5 230.5,-0.5 132.5,-0.5"/>
<text text-anchor="middle" x="181.5" y="-7.5" font-family="Helvetica,sans-Serif" font-size="10.00">writeBSINEXLine</text>
</a>
</g>
</g>
<!-- Node1&#45;&gt;Node60 -->
<g id="edge11" class="edge">
<title>Node1&#45;&gt;Node60</title>
<path fill="none" stroke="midnightblue" d="M50.32,-133.21C61.03,-112.33 88.78,-62.96 125,-34 129.95,-30.04 135.65,-26.62 141.48,-23.69"/>
<polygon fill="midnightblue" stroke="midnightblue" points="143,-26.84 150.64,-19.5 140.09,-20.48 143,-26.84"/>
</g>
<!-- Node5&#45;&gt;Node2 -->
<g id="edge7" class="edge">
<title>Node5&#45;&gt;Node2</title>
<path fill="none" stroke="midnightblue" d="M219.63,-152.49C236.15,-148.73 255.92,-144.86 274,-143 313.63,-138.93 358.99,-139.35 391.69,-140.54"/>
<polygon fill="midnightblue" stroke="midnightblue" points="391.71,-144.05 401.84,-140.96 391.99,-137.05 391.71,-144.05"/>
</g>
<!-- Node5&#45;&gt;Node10 -->
<g id="edge5" class="edge">
<title>Node5&#45;&gt;Node10</title>
<path fill="none" stroke="midnightblue" d="M238.02,-162C246.52,-162 255.29,-162 263.79,-162"/>
<polygon fill="midnightblue" stroke="midnightblue" points="263.97,-165.5 273.97,-162 263.97,-158.5 263.97,-165.5"/>
</g>
<!-- Node10&#45;&gt;Node2 -->
<g id="edge6" class="edge">
<title>Node10&#45;&gt;Node2</title>
<path fill="none" stroke="midnightblue" d="M366.32,-154.55C374.67,-153.17 383.4,-151.74 391.74,-150.36"/>
<polygon fill="midnightblue" stroke="midnightblue" points="392.37,-153.81 401.67,-148.73 391.24,-146.9 392.37,-153.81"/>
</g>
<!-- Node60&#45;&gt;Node2 -->
<g id="edge13" class="edge">
<title>Node60&#45;&gt;Node2</title>
<path fill="none" stroke="midnightblue" d="M230.58,-14.39C269.61,-19.79 324.75,-31.73 366,-58 392.56,-74.92 414.06,-105.12 426.06,-124.59"/>
<polygon fill="midnightblue" stroke="midnightblue" points="423.19,-126.62 431.31,-133.43 429.21,-123.04 423.19,-126.62"/>
</g>
<!-- Node60&#45;&gt;Node59 -->
<g id="edge12" class="edge">
<title>Node60&#45;&gt;Node59</title>
<path fill="none" stroke="midnightblue" d="M205.64,-19.52C215.67,-23.77 227.5,-28.95 238,-34 256.54,-42.91 276.99,-53.78 292.71,-62.36"/>
<polygon fill="midnightblue" stroke="midnightblue" points="291.37,-65.62 301.82,-67.37 294.75,-59.48 291.37,-65.62"/>
</g>
</g>
</svg>
