<?xml version="1.0" encoding="UTF-8" standalone="no"?>
<!DOCTYPE svg PUBLIC "-//W3C//DTD SVG 1.1//EN"
 "http://www.w3.org/Graphics/SVG/1.1/DTD/svg11.dtd">
<!-- Generated by graphviz version 2.43.0 (0)
 -->
<!-- Title: /ginan/src/cpp/common/biases.hpp Pages: 1 -->
<!--zoomable 173 -->
<svg id="main" version="1.1" xmlns="http://www.w3.org/2000/svg" xmlns:xlink="http://www.w3.org/1999/xlink" xml:space="preserve" onload="init(evt)">
<style type="text/css"><![CDATA[
.edge:hover path { stroke: red; }
.edge:hover polygon { stroke: red; fill: red; }
]]></style>
<script type="text/javascript"><![CDATA[
var edges = document.getElementsByTagName('g');
if (edges && edges.length) {
  for (var i=0;i<edges.length;i++) {
    if (edges[i].id.substr(0,4)=='edge') {
      edges[i].setAttribute('class','edge');
    }
  }
}
]]></script>
        <defs>
                <circle id="rim" cx="0" cy="0" r="7"/>
                <circle id="rim2" cx="0" cy="0" r="3.5"/>
                <g id="zoomPlus">
                        <use xlink:href="#rim" fill="#404040">
                                <set attributeName="fill" to="#808080" begin="zoomplus.mouseover" end="zoomplus.mouseout"/>
                        </use>
                        <path d="M-4,0h8M0,-4v8" fill="none" stroke="white" stroke-width="1.5" pointer-events="none"/>
                </g>
                <g id="zoomMin">
                        <use xlink:href="#rim" fill="#404040">
                                <set attributeName="fill" to="#808080" begin="zoomminus.mouseover" end="zoomminus.mouseout"/>
                        </use>
                        <path d="M-4,0h8" fill="none" stroke="white" stroke-width="1.5" pointer-events="none"/>
                </g>
                <g id="dirArrow">
                        <path fill="none" stroke="white" stroke-width="1.5" d="M0,-3.0v7 M-2.5,-0.5L0,-3.0L2.5,-0.5"/>
                </g>
               <g id="resetDef">
                       <use xlink:href="#rim2" fill="#404040">
                               <set attributeName="fill" to="#808080" begin="reset.mouseover" end="reset.mouseout"/>
                       </use>
               </g>
        </defs>

<script type="text/javascript">
var viewWidth = 1822;
var viewHeight = 173;
var sectionId = 'dynsection-0';
</script>
<script xlink:href="svgpan.js"/>
<svg id="graph" class="graph">
<g id="viewport">
<title>/ginan/src/cpp/common/biases.hpp</title>
<polygon fill="white" stroke="transparent" points="-4,4 -4,-169 1817.5,-169 1817.5,4 -4,4"/>
<!-- Node1 -->
<g id="node1" class="node">
<title>Node1</title>
<g id="a_node1"><a xlink:title=" ">
<polygon fill="#bfbfbf" stroke="black" points="868,-134.5 868,-164.5 998,-164.5 998,-134.5 868,-134.5"/>
<text text-anchor="start" x="876" y="-152.5" font-family="Helvetica,sans-Serif" font-size="10.00">/ginan/src/cpp/common</text>
<text text-anchor="middle" x="933" y="-141.5" font-family="Helvetica,sans-Serif" font-size="10.00">/biases.hpp</text>
</a>
</g>
</g>
<!-- Node2 -->
<g id="node2" class="node">
<title>Node2</title>
<g id="a_node2"><a xlink:href="biasSINEXread_8cpp.html" target="_top" xlink:title=" ">
<polygon fill="white" stroke="black" points="0,-67.5 0,-97.5 130,-97.5 130,-67.5 0,-67.5"/>
<text text-anchor="start" x="8" y="-85.5" font-family="Helvetica,sans-Serif" font-size="10.00">/ginan/src/cpp/common</text>
<text text-anchor="middle" x="65" y="-74.5" font-family="Helvetica,sans-Serif" font-size="10.00">/biasSINEXread.cpp</text>
</a>
</g>
</g>
<!-- Node1&#45;&gt;Node2 -->
<g id="edge1" class="edge">
<title>Node1&#45;&gt;Node2</title>
<path fill="none" stroke="midnightblue" d="M857.57,-146.62C716.83,-142.47 404.82,-130.17 144,-98 139.43,-97.44 134.73,-96.78 130,-96.06"/>
<polygon fill="midnightblue" stroke="midnightblue" points="857.71,-150.13 867.81,-146.92 857.92,-143.13 857.71,-150.13"/>
</g>
<!-- Node3 -->
<g id="node3" class="node">
<title>Node3</title>
<g id="a_node3"><a xlink:href="biasSINEXwrite_8cpp.html" target="_top" xlink:title=" ">
<polygon fill="white" stroke="black" points="370,-0.5 370,-30.5 500,-30.5 500,-0.5 370,-0.5"/>
<text text-anchor="start" x="378" y="-18.5" font-family="Helvetica,sans-Serif" font-size="10.00">/ginan/src/cpp/common</text>
<text text-anchor="middle" x="435" y="-7.5" font-family="Helvetica,sans-Serif" font-size="10.00">/biasSINEXwrite.cpp</text>
</a>
</g>
</g>
<!-- Node1&#45;&gt;Node3 -->
<g id="edge2" class="edge">
<title>Node1&#45;&gt;Node3</title>
<path fill="none" stroke="midnightblue" d="M857.82,-149.16C675.77,-149.97 222.83,-147 177,-98 118.28,-35.22 275.35,-20.55 369.7,-17.29"/>
<polygon fill="midnightblue" stroke="midnightblue" points="857.86,-152.66 867.85,-149.11 857.83,-145.66 857.86,-152.66"/>
</g>
<!-- Node4 -->
<g id="node4" class="node">
<title>Node4</title>
<g id="a_node4"><a xlink:href="biases_8cpp.html" target="_top" xlink:title=" ">
<polygon fill="white" stroke="black" points="186,-67.5 186,-97.5 316,-97.5 316,-67.5 186,-67.5"/>
<text text-anchor="start" x="194" y="-85.5" font-family="Helvetica,sans-Serif" font-size="10.00">/ginan/src/cpp/common</text>
<text text-anchor="middle" x="251" y="-74.5" font-family="Helvetica,sans-Serif" font-size="10.00">/biases.cpp</text>
</a>
</g>
</g>
<!-- Node1&#45;&gt;Node4 -->
<g id="edge3" class="edge">
<title>Node1&#45;&gt;Node4</title>
<path fill="none" stroke="midnightblue" d="M857.84,-144.94C742.7,-138.88 515.94,-124.55 325,-98 322.15,-97.6 319.24,-97.17 316.3,-96.7"/>
<polygon fill="midnightblue" stroke="midnightblue" points="857.78,-148.44 867.95,-145.46 858.15,-141.45 857.78,-148.44"/>
</g>
<!-- Node5 -->
<g id="node5" class="node">
<title>Node5</title>
<g id="a_node5"><a xlink:href="ephPrecise_8cpp.html" target="_top" xlink:title=" ">
<polygon fill="white" stroke="black" points="334,-67.5 334,-97.5 464,-97.5 464,-67.5 334,-67.5"/>
<text text-anchor="start" x="342" y="-85.5" font-family="Helvetica,sans-Serif" font-size="10.00">/ginan/src/cpp/common</text>
<text text-anchor="middle" x="399" y="-74.5" font-family="Helvetica,sans-Serif" font-size="10.00">/ephPrecise.cpp</text>
</a>
</g>
</g>
<!-- Node1&#45;&gt;Node5 -->
<g id="edge4" class="edge">
<title>Node1&#45;&gt;Node5</title>
<path fill="none" stroke="midnightblue" d="M857.48,-141.77C767.03,-133.34 611.07,-117.57 478,-98 473.45,-97.33 468.76,-96.59 464.04,-95.82"/>
<polygon fill="midnightblue" stroke="midnightblue" points="857.36,-145.28 867.64,-142.72 858,-138.31 857.36,-145.28"/>
</g>
<!-- Node6 -->
<g id="node6" class="node">
<title>Node6</title>
<g id="a_node6"><a xlink:href="mongoWrite_8cpp.html" target="_top" xlink:title=" ">
<polygon fill="white" stroke="black" points="611,-0.5 611,-30.5 741,-30.5 741,-0.5 611,-0.5"/>
<text text-anchor="start" x="619" y="-18.5" font-family="Helvetica,sans-Serif" font-size="10.00">/ginan/src/cpp/common</text>
<text text-anchor="middle" x="676" y="-7.5" font-family="Helvetica,sans-Serif" font-size="10.00">/mongoWrite.cpp</text>
</a>
</g>
</g>
<!-- Node1&#45;&gt;Node6 -->
<g id="edge5" class="edge">
<title>Node1&#45;&gt;Node6</title>
<path fill="none" stroke="midnightblue" d="M857.79,-144.83C742.66,-138.44 533.58,-123.45 511,-98 476.8,-59.47 551.15,-37.14 610.87,-25.89"/>
<polygon fill="midnightblue" stroke="midnightblue" points="857.78,-148.34 867.95,-145.39 858.16,-141.35 857.78,-148.34"/>
</g>
<!-- Node7 -->
<g id="node7" class="node">
<title>Node7</title>
<g id="a_node7"><a xlink:href="rinex_8cpp.html" target="_top" xlink:title=" ">
<polygon fill="white" stroke="black" points="520,-67.5 520,-97.5 650,-97.5 650,-67.5 520,-67.5"/>
<text text-anchor="start" x="528" y="-85.5" font-family="Helvetica,sans-Serif" font-size="10.00">/ginan/src/cpp/common</text>
<text text-anchor="middle" x="585" y="-74.5" font-family="Helvetica,sans-Serif" font-size="10.00">/rinex.cpp</text>
</a>
</g>
</g>
<!-- Node1&#45;&gt;Node7 -->
<g id="edge6" class="edge">
<title>Node1&#45;&gt;Node7</title>
<path fill="none" stroke="midnightblue" d="M857.88,-134.89C802.8,-124.85 726.21,-110.78 659,-98 656.17,-97.46 653.28,-96.91 650.36,-96.35"/>
<polygon fill="midnightblue" stroke="midnightblue" points="857.45,-138.37 867.91,-136.72 858.7,-131.48 857.45,-138.37"/>
</g>
<!-- Node8 -->
<g id="node8" class="node">
<title>Node8</title>
<g id="a_node8"><a xlink:href="rtcmDecoder_8cpp.html" target="_top" xlink:title=" ">
<polygon fill="white" stroke="black" points="668,-67.5 668,-97.5 798,-97.5 798,-67.5 668,-67.5"/>
<text text-anchor="start" x="676" y="-85.5" font-family="Helvetica,sans-Serif" font-size="10.00">/ginan/src/cpp/common</text>
<text text-anchor="middle" x="733" y="-74.5" font-family="Helvetica,sans-Serif" font-size="10.00">/rtcmDecoder.cpp</text>
</a>
</g>
</g>
<!-- Node1&#45;&gt;Node8 -->
<g id="edge7" class="edge">
<title>Node1&#45;&gt;Node8</title>
<path fill="none" stroke="midnightblue" d="M879.85,-131.23C847.5,-120.71 806.69,-107.45 776.31,-97.58"/>
<polygon fill="midnightblue" stroke="midnightblue" points="879.01,-134.63 889.6,-134.4 881.17,-127.98 879.01,-134.63"/>
</g>
<!-- Node9 -->
<g id="node9" class="node">
<title>Node9</title>
<g id="a_node9"><a xlink:href="ionex_8cpp.html" target="_top" xlink:title=" ">
<polygon fill="white" stroke="black" points="816,-67.5 816,-97.5 924,-97.5 924,-67.5 816,-67.5"/>
<text text-anchor="start" x="824" y="-85.5" font-family="Helvetica,sans-Serif" font-size="10.00">/ginan/src/cpp/iono</text>
<text text-anchor="middle" x="870" y="-74.5" font-family="Helvetica,sans-Serif" font-size="10.00">/ionex.cpp</text>
</a>
</g>
</g>
<!-- Node1&#45;&gt;Node9 -->
<g id="edge8" class="edge">
<title>Node1&#45;&gt;Node9</title>
<path fill="none" stroke="midnightblue" d="M912.19,-127.02C902.8,-117.34 891.98,-106.17 883.64,-97.58"/>
<polygon fill="midnightblue" stroke="midnightblue" points="909.86,-129.65 919.33,-134.4 914.88,-124.78 909.86,-129.65"/>
</g>
<!-- Node10 -->
<g id="node10" class="node">
<title>Node10</title>
<g id="a_node10"><a xlink:href="ionoModel_8hpp.html" target="_top" xlink:title=" ">
<polygon fill="white" stroke="red" points="942,-67.5 942,-97.5 1050,-97.5 1050,-67.5 942,-67.5"/>
<text text-anchor="start" x="950" y="-85.5" font-family="Helvetica,sans-Serif" font-size="10.00">/ginan/src/cpp/iono</text>
<text text-anchor="middle" x="996" y="-74.5" font-family="Helvetica,sans-Serif" font-size="10.00">/ionoModel.hpp</text>
</a>
</g>
</g>
<!-- Node1&#45;&gt;Node10 -->
<g id="edge9" class="edge">
<title>Node1&#45;&gt;Node10</title>
<path fill="none" stroke="midnightblue" d="M953.81,-127.02C963.2,-117.34 974.02,-106.17 982.36,-97.58"/>
<polygon fill="midnightblue" stroke="midnightblue" points="951.12,-124.78 946.67,-134.4 956.14,-129.65 951.12,-124.78"/>
</g>
<!-- Node21 -->
<g id="node11" class="node">
<title>Node21</title>
<g id="a_node11"><a xlink:href="main_8cpp.html" target="_top" xlink:title=" ">
<polygon fill="white" stroke="black" points="1052.5,-0.5 1052.5,-30.5 1157.5,-30.5 1157.5,-0.5 1052.5,-0.5"/>
<text text-anchor="start" x="1060.5" y="-18.5" font-family="Helvetica,sans-Serif" font-size="10.00">/ginan/src/cpp/pea</text>
<text text-anchor="middle" x="1105" y="-7.5" font-family="Helvetica,sans-Serif" font-size="10.00">/main.cpp</text>
</a>
</g>
</g>
<!-- Node1&#45;&gt;Node21 -->
<g id="edge15" class="edge">
<title>Node1&#45;&gt;Node21</title>
<path fill="none" stroke="midnightblue" d="M1008.23,-147.48C1092.73,-144.55 1222.15,-134.11 1253,-98 1284.82,-60.76 1212.15,-37.42 1157.77,-25.7"/>
<polygon fill="midnightblue" stroke="midnightblue" points="1008.04,-143.98 998.16,-147.8 1008.26,-150.98 1008.04,-143.98"/>
</g>
<!-- Node22 -->
<g id="node12" class="node">
<title>Node22</title>
<g id="a_node12"><a xlink:href="ppp__obs_8cpp.html" target="_top" xlink:title=" ">
<polygon fill="white" stroke="black" points="1394.5,-0.5 1394.5,-30.5 1499.5,-30.5 1499.5,-0.5 1394.5,-0.5"/>
<text text-anchor="start" x="1402.5" y="-18.5" font-family="Helvetica,sans-Serif" font-size="10.00">/ginan/src/cpp/pea</text>
<text text-anchor="middle" x="1447" y="-7.5" font-family="Helvetica,sans-Serif" font-size="10.00">/ppp_obs.cpp</text>
</a>
</g>
</g>
<!-- Node1&#45;&gt;Node22 -->
<g id="edge18" class="edge">
<title>Node1&#45;&gt;Node22</title>
<path fill="none" stroke="midnightblue" d="M1008.48,-147.78C1162.78,-145.53 1502.82,-136.24 1538,-98 1561.55,-72.4 1517.58,-46.15 1482.94,-30.59"/>
<polygon fill="midnightblue" stroke="midnightblue" points="1008.09,-144.29 998.14,-147.93 1008.19,-151.29 1008.09,-144.29"/>
</g>
<!-- Node26 -->
<g id="node13" class="node">
<title>Node26</title>
<g id="a_node13"><a xlink:href="prototypeIgsSSRDecode_8cpp.html" target="_top" xlink:title=" ">
<polygon fill="white" stroke="black" points="1068,-67.5 1068,-97.5 1244,-97.5 1244,-67.5 1068,-67.5"/>
<text text-anchor="start" x="1076" y="-85.5" font-family="Helvetica,sans-Serif" font-size="10.00">/ginan/src/cpp/other</text>
<text text-anchor="middle" x="1156" y="-74.5" font-family="Helvetica,sans-Serif" font-size="10.00">_ssr/prototypeIgsSSRDecode.cpp</text>
</a>
</g>
</g>
<!-- Node1&#45;&gt;Node26 -->
<g id="edge14" class="edge">
<title>Node1&#45;&gt;Node26</title>
<path fill="none" stroke="midnightblue" d="M991.05,-131.58C1027.27,-121.02 1073.35,-107.59 1107.59,-97.61"/>
<polygon fill="midnightblue" stroke="midnightblue" points="989.73,-128.32 981.11,-134.48 991.69,-135.04 989.73,-128.32"/>
</g>
<!-- Node27 -->
<g id="node14" class="node">
<title>Node27</title>
<g id="a_node14"><a xlink:href="ppp_8cpp.html" target="_top" xlink:title=" ">
<polygon fill="white" stroke="black" points="1300.5,-67.5 1300.5,-97.5 1405.5,-97.5 1405.5,-67.5 1300.5,-67.5"/>
<text text-anchor="start" x="1308.5" y="-85.5" font-family="Helvetica,sans-Serif" font-size="10.00">/ginan/src/cpp/pea</text>
<text text-anchor="middle" x="1353" y="-74.5" font-family="Helvetica,sans-Serif" font-size="10.00">/ppp.cpp</text>
</a>
</g>
</g>
<!-- Node1&#45;&gt;Node27 -->
<g id="edge16" class="edge">
<title>Node1&#45;&gt;Node27</title>
<path fill="none" stroke="midnightblue" d="M1008.57,-139.27C1080.21,-130.14 1190.75,-115.1 1286,-98 1290.69,-97.16 1295.54,-96.23 1300.4,-95.25"/>
<polygon fill="midnightblue" stroke="midnightblue" points="1007.76,-135.84 998.28,-140.57 1008.64,-142.79 1007.76,-135.84"/>
</g>
<!-- Node28 -->
<g id="node15" class="node">
<title>Node28</title>
<g id="a_node15"><a xlink:href="ppp__ambres_8cpp.html" target="_top" xlink:title=" ">
<polygon fill="white" stroke="black" points="1423.5,-67.5 1423.5,-97.5 1528.5,-97.5 1528.5,-67.5 1423.5,-67.5"/>
<text text-anchor="start" x="1431.5" y="-85.5" font-family="Helvetica,sans-Serif" font-size="10.00">/ginan/src/cpp/pea</text>
<text text-anchor="middle" x="1476" y="-74.5" font-family="Helvetica,sans-Serif" font-size="10.00">/ppp_ambres.cpp</text>
</a>
</g>
</g>
<!-- Node1&#45;&gt;Node28 -->
<g id="edge17" class="edge">
<title>Node1&#45;&gt;Node28</title>
<path fill="none" stroke="midnightblue" d="M1008.18,-143.64C1103.36,-136.8 1272.15,-122.36 1415,-98 1417.68,-97.54 1420.42,-97.04 1423.18,-96.49"/>
<polygon fill="midnightblue" stroke="midnightblue" points="1007.8,-140.16 998.07,-144.36 1008.29,-147.14 1007.8,-140.16"/>
</g>
<!-- Node29 -->
<g id="node16" class="node">
<title>Node29</title>
<g id="a_node16"><a xlink:href="ppp__slr_8cpp.html" target="_top" xlink:title=" ">
<polygon fill="white" stroke="black" points="1585.5,-67.5 1585.5,-97.5 1690.5,-97.5 1690.5,-67.5 1585.5,-67.5"/>
<text text-anchor="start" x="1593.5" y="-85.5" font-family="Helvetica,sans-Serif" font-size="10.00">/ginan/src/cpp/pea</text>
<text text-anchor="middle" x="1638" y="-74.5" font-family="Helvetica,sans-Serif" font-size="10.00">/ppp_slr.cpp</text>
</a>
</g>
</g>
<!-- Node1&#45;&gt;Node29 -->
<g id="edge19" class="edge">
<title>Node1&#45;&gt;Node29</title>
<path fill="none" stroke="midnightblue" d="M1008.23,-145.82C1127.92,-140.81 1368.85,-127.74 1571,-98 1575.71,-97.31 1580.58,-96.48 1585.45,-95.57"/>
<polygon fill="midnightblue" stroke="midnightblue" points="1007.92,-142.32 998.08,-146.23 1008.21,-149.32 1007.92,-142.32"/>
</g>
<!-- Node30 -->
<g id="node17" class="node">
<title>Node30</title>
<g id="a_node17"><a xlink:href="spp_8cpp.html" target="_top" xlink:title=" ">
<polygon fill="white" stroke="black" points="1708.5,-67.5 1708.5,-97.5 1813.5,-97.5 1813.5,-67.5 1708.5,-67.5"/>
<text text-anchor="start" x="1716.5" y="-85.5" font-family="Helvetica,sans-Serif" font-size="10.00">/ginan/src/cpp/pea</text>
<text text-anchor="middle" x="1761" y="-74.5" font-family="Helvetica,sans-Serif" font-size="10.00">/spp.cpp</text>
</a>
</g>
</g>
<!-- Node1&#45;&gt;Node30 -->
<g id="edge20" class="edge">
<title>Node1&#45;&gt;Node30</title>
<path fill="none" stroke="midnightblue" d="M1008.08,-147.72C1145.92,-145.37 1448.32,-135.92 1700,-98 1702.69,-97.59 1705.44,-97.13 1708.2,-96.62"/>
<polygon fill="midnightblue" stroke="midnightblue" points="1007.98,-144.22 998.04,-147.89 1008.1,-151.22 1007.98,-144.22"/>
</g>
<!-- Node10&#45;&gt;Node3 -->
<g id="edge10" class="edge">
<title>Node10&#45;&gt;Node3</title>
<path fill="none" stroke="midnightblue" d="M931.72,-66.96C834.89,-52.03 611.39,-31.78 500.08,-22.08"/>
<polygon fill="midnightblue" stroke="midnightblue" points="931.36,-70.45 941.79,-68.57 932.47,-63.53 931.36,-70.45"/>
</g>
<!-- Node10&#45;&gt;Node6 -->
<g id="edge11" class="edge">
<title>Node10&#45;&gt;Node6</title>
<path fill="none" stroke="midnightblue" d="M931.77,-66.77C861.18,-51.81 790.76,-38.13 741.08,-28.69"/>
<polygon fill="midnightblue" stroke="midnightblue" points="931.22,-70.23 941.73,-68.89 932.68,-63.39 931.22,-70.23"/>
</g>
<!-- Node10&#45;&gt;Node21 -->
<g id="edge12" class="edge">
<title>Node10&#45;&gt;Node21</title>
<path fill="none" stroke="midnightblue" d="M1028.67,-62.02C1045.64,-51.9 1065.98,-39.77 1081.39,-30.58"/>
<polygon fill="midnightblue" stroke="midnightblue" points="1026.45,-59.27 1019.65,-67.4 1030.03,-65.28 1026.45,-59.27"/>
</g>
<!-- Node10&#45;&gt;Node22 -->
<g id="edge13" class="edge">
<title>Node10&#45;&gt;Node22</title>
<path fill="none" stroke="midnightblue" d="M1060.37,-66.86C1185.58,-44.74 1321.47,-29.3 1394.35,-21.72"/>
<polygon fill="midnightblue" stroke="midnightblue" points="1059.46,-63.47 1050.23,-68.67 1060.69,-70.36 1059.46,-63.47"/>
</g>
</g>
</svg>
        <g id="navigator" transform="translate(0 0)" fill="#404254">
                <rect fill="#f2f5e9" fill-opacity="0.5" stroke="#606060" stroke-width=".5" x="0" y="0" width="60" height="60"/>
                <use id="zoomplus" xlink:href="#zoomPlus" x="17" y="9" onmousedown="handleZoom(evt,'in')"/>
                <use id="zoomminus" xlink:href="#zoomMin" x="42" y="9" onmousedown="handleZoom(evt,'out')"/>
                <use id="reset" xlink:href="#resetDef" x="30" y="36" onmousedown="handleReset()"/>
                <g id="arrowUp" xlink:href="#dirArrow" transform="translate(30 24)" onmousedown="handlePan(0,-1)">
                  <use xlink:href="#rim" fill="#404040">
                        <set attributeName="fill" to="#808080" begin="arrowUp.mouseover" end="arrowUp.mouseout"/>
                  </use>
                  <path fill="none" stroke="white" stroke-width="1.5" d="M0,-3.0v7 M-2.5,-0.5L0,-3.0L2.5,-0.5"/>
                </g>
                <g id="arrowRight" xlink:href="#dirArrow" transform="rotate(90) translate(36 -43)" onmousedown="handlePan(1,0)">
                  <use xlink:href="#rim" fill="#404040">
                        <set attributeName="fill" to="#808080" begin="arrowRight.mouseover" end="arrowRight.mouseout"/>
                  </use>
                  <path fill="none" stroke="white" stroke-width="1.5" d="M0,-3.0v7 M-2.5,-0.5L0,-3.0L2.5,-0.5"/>
                </g>
                <g id="arrowDown" xlink:href="#dirArrow" transform="rotate(180) translate(-30 -48)" onmousedown="handlePan(0,1)">
                  <use xlink:href="#rim" fill="#404040">
                        <set attributeName="fill" to="#808080" begin="arrowDown.mouseover" end="arrowDown.mouseout"/>
                  </use>
                  <path fill="none" stroke="white" stroke-width="1.5" d="M0,-3.0v7 M-2.5,-0.5L0,-3.0L2.5,-0.5"/>
                </g>
                <g id="arrowLeft" xlink:href="#dirArrow" transform="rotate(270) translate(-36 17)" onmousedown="handlePan(-1,0)">
                  <use xlink:href="#rim" fill="#404040">
                        <set attributeName="fill" to="#808080" begin="arrowLeft.mouseover" end="arrowLeft.mouseout"/>
                  </use>
                  <path fill="none" stroke="white" stroke-width="1.5" d="M0,-3.0v7 M-2.5,-0.5L0,-3.0L2.5,-0.5"/>
                </g>
        </g>
        <svg viewBox="0 0 15 15" width="100%" height="30px" preserveAspectRatio="xMaxYMin meet">
         <g id="arrow_out" transform="scale(0.3 0.3)">
          <a xlink:href="biases_8hpp__dep__incl_org.svg" target="_base">
           <rect id="button" ry="5" rx="5" y="6" x="6" height="38" width="38"
                fill="#f2f5e9" fill-opacity="0.5" stroke="#606060" stroke-width="1.0"/>
           <path id="arrow"
             d="M 11.500037,31.436501 C 11.940474,20.09759 22.043105,11.32322 32.158766,21.979434 L 37.068811,17.246167 C 37.068811,17.246167 37.088388,32 37.088388,32 L 22.160133,31.978069 C 22.160133,31.978069 26.997745,27.140456 26.997745,27.140456 C 18.528582,18.264221 13.291696,25.230495 11.500037,31.436501 z"
             style="fill:#404040;"/>
          </a>
         </g>
        </svg>
</svg>
