<?xml version="1.0" encoding="UTF-8" standalone="no"?>
<!DOCTYPE svg PUBLIC "-//W3C//DTD SVG 1.1//EN"
 "http://www.w3.org/Graphics/SVG/1.1/DTD/svg11.dtd">
<!-- Generated by graphviz version 2.43.0 (0)
 -->
<!-- Title: decomposeBGDBias Pages: 1 -->
<svg width="336pt" height="66pt"
 viewBox="0.00 0.00 336.00 66.00" xmlns="http://www.w3.org/2000/svg" xmlns:xlink="http://www.w3.org/1999/xlink">
<g id="graph0" class="graph" transform="scale(1 1) rotate(0) translate(4 62)">
<title>decomposeBGDBias</title>
<polygon fill="white" stroke="transparent" points="-4,4 -4,-62 332,-62 332,4 -4,4"/>
<!-- Node1 -->
<g id="node1" class="node">
<title>Node1</title>
<g id="a_node1"><a xlink:title="Convert GAL BGDs into OSBs &amp; DSB.">
<polygon fill="#bfbfbf" stroke="black" points="212,-19.5 212,-38.5 328,-38.5 328,-19.5 212,-19.5"/>
<text text-anchor="middle" x="270" y="-26.5" font-family="Helvetica,sans-Serif" font-size="10.00">decomposeBGDBias</text>
</a>
</g>
</g>
<!-- Node2 -->
<g id="node2" class="node">
<title>Node2</title>
<g id="a_node2"><a xlink:href="structRtcmDecoder.html#a6673aa5a16d7e997de9ce5e43fac7860" target="_top" xlink:title=" ">
<polygon fill="white" stroke="red" points="0,-38.5 0,-57.5 176,-57.5 176,-38.5 0,-38.5"/>
<text text-anchor="middle" x="88" y="-45.5" font-family="Helvetica,sans-Serif" font-size="10.00">RtcmDecoder::decodeEphemeris</text>
</a>
</g>
</g>
<!-- Node1&#45;&gt;Node2 -->
<g id="edge1" class="edge">
<title>Node1&#45;&gt;Node2</title>
<path fill="none" stroke="midnightblue" d="M211.55,-35.06C200.23,-36.26 188.12,-37.54 176.08,-38.81"/>
</g>
<!-- Node8 -->
<g id="node3" class="node">
<title>Node8</title>
<g id="a_node3"><a xlink:href="rinex_8cpp.html#ae3132fbeb0a7c18e3316f143ae063998" target="_top" xlink:title="Decode ephemeris.">
<polygon fill="white" stroke="red" points="53,-0.5 53,-19.5 123,-19.5 123,-0.5 53,-0.5"/>
<text text-anchor="middle" x="88" y="-7.5" font-family="Helvetica,sans-Serif" font-size="10.00">decodeEph</text>
</a>
</g>
</g>
<!-- Node1&#45;&gt;Node8 -->
<g id="edge2" class="edge">
<title>Node1&#45;&gt;Node8</title>
<path fill="none" stroke="midnightblue" d="M211.55,-22.94C182.43,-19.86 148.06,-16.23 123.14,-13.6"/>
</g>
</g>
</svg>
