<?xml version="1.0" encoding="UTF-8" standalone="no"?>
<!DOCTYPE svg PUBLIC "-//W3C//DTD SVG 1.1//EN"
 "http://www.w3.org/Graphics/SVG/1.1/DTD/svg11.dtd">
<!-- Generated by graphviz version 2.43.0 (0)
 -->
<!-- Title: setRestrictiveStartTime Pages: 1 -->
<svg width="256pt" height="46pt"
 viewBox="0.00 0.00 256.00 46.00" xmlns="http://www.w3.org/2000/svg" xmlns:xlink="http://www.w3.org/1999/xlink">
<g id="graph0" class="graph" transform="scale(1 1) rotate(0) translate(4 42)">
<title>setRestrictiveStartTime</title>
<polygon fill="white" stroke="transparent" points="-4,4 -4,-42 252,-42 252,4 -4,4"/>
<!-- Node1 -->
<g id="node1" class="node">
<title>Node1</title>
<g id="a_node1"><a xlink:title=" ">
<polygon fill="#bfbfbf" stroke="black" points="116,-0.5 116,-19.5 248,-19.5 248,-0.5 116,-0.5"/>
<text text-anchor="middle" x="182" y="-7.5" font-family="Helvetica,sans-Serif" font-size="10.00">setRestrictiveStartTime</text>
</a>
</g>
</g>
<!-- Node2 -->
<g id="node2" class="node">
<title>Node2</title>
<g id="a_node2"><a xlink:href="biases_8cpp.html#a3dde985df8b970e9d9a640c08868969b" target="_top" xlink:title="Recurser of bias chaining, i.e.">
<polygon fill="white" stroke="red" points="0,-0.5 0,-19.5 80,-19.5 80,-0.5 0,-0.5"/>
<text text-anchor="middle" x="40" y="-7.5" font-family="Helvetica,sans-Serif" font-size="10.00">biasRecurser</text>
</a>
</g>
</g>
<!-- Node1&#45;&gt;Node2 -->
<g id="edge1" class="edge">
<title>Node1&#45;&gt;Node2</title>
<path fill="none" stroke="midnightblue" d="M105.66,-10C96.94,-10 88.33,-10 80.38,-10"/>
<polygon fill="midnightblue" stroke="midnightblue" points="105.92,-13.5 115.92,-10 105.92,-6.5 105.92,-13.5"/>
</g>
<!-- Node2&#45;&gt;Node2 -->
<g id="edge2" class="edge">
<title>Node2&#45;&gt;Node2</title>
<path fill="none" stroke="midnightblue" d="M66.51,-28.65C65.4,-33.94 56.56,-38 40,-38 14.76,-38 7.47,-28.57 18.11,-19.76"/>
<polygon fill="midnightblue" stroke="midnightblue" points="69.6,-27.02 61.89,-19.76 63.39,-30.24 69.6,-27.02"/>
</g>
</g>
</svg>
