<?xml version="1.0" encoding="UTF-8" standalone="no"?>
<!DOCTYPE svg PUBLIC "-//W3C//DTD SVG 1.1//EN"
 "http://www.w3.org/Graphics/SVG/1.1/DTD/svg11.dtd">
<!-- Generated by graphviz version 2.43.0 (0)
 -->
<!-- Title: read_biasSINEX_line Pages: 1 -->
<svg width="383pt" height="295pt"
 viewBox="0.00 0.00 383.00 294.73" xmlns="http://www.w3.org/2000/svg" xmlns:xlink="http://www.w3.org/1999/xlink">
<g id="graph0" class="graph" transform="scale(1 1) rotate(0) translate(4 290.73)">
<title>read_biasSINEX_line</title>
<!-- Node1 -->
<g id="Node000001" class="node">
<title>Node1</title>
<g id="a_Node000001"><a xlink:href="biasSINEXread_8cpp.html#a3f0946f586f8337c5d03d50c09d7bc52" target="_top" xlink:title="Read data line in bias SINEX file.">
<path fill="#fff0f0" stroke="red" stroke-width="2" d="M109.67,-187C109.67,-187 6.33,-187 6.33,-187 3.17,-187 0,-183.83 0,-180.67 0,-180.67 0,-174.33 0,-174.33 0,-171.17 3.17,-168 6.33,-168 6.33,-168 109.67,-168 109.67,-168 112.83,-168 116,-171.17 116,-174.33 116,-174.33 116,-180.67 116,-180.67 116,-183.83 112.83,-187 109.67,-187"/>
<text text-anchor="middle" x="58" y="-175" font-family="Helvetica,sans-Serif" font-size="10.00">read_biasSINEX_line</text>
</a>
</g>
</g>
<!-- Node2 -->
<g id="Node000002" class="node">
<title>Node2</title>
<g id="a_Node000002"><a xlink:href="enumHelpers_8hpp.html#a34ffecf2f7e5af16fc623c375f16abab" target="_top" xlink:title="Helper functions to simplify magic_enum usage and provide drop&#45;in replacements for BETTER_ENUM functi...">
<path fill="#fff0f0" stroke="red" d="M368.67,-131C368.67,-131 289.33,-131 289.33,-131 286.17,-131 283,-127.83 283,-124.67 283,-124.67 283,-118.33 283,-118.33 283,-115.17 286.17,-112 289.33,-112 289.33,-112 368.67,-112 368.67,-112 371.83,-112 375,-115.17 375,-118.33 375,-118.33 375,-124.67 375,-124.67 375,-127.83 371.83,-131 368.67,-131"/>
<text text-anchor="middle" x="329" y="-119" font-family="Helvetica,sans-Serif" font-size="10.00">enum_to_string</text>
</a>
</g>
</g>
<!-- Node1&#45;&gt;Node2 -->
<g id="edge1_Node000001_Node000002" class="edge">
<title>Node1&#45;&gt;Node2</title>
<g id="a_edge1_Node000001_Node000002"><a xlink:title=" ">
<path fill="none" stroke="#63b8ff" d="M64.92,-187.3C77.77,-207.49 110.44,-253.29 152,-270.5 191.01,-286.66 213.4,-296.06 247,-270.5 294.72,-234.2 243.44,-185.54 283,-140.5 284.15,-139.19 285.41,-137.96 286.76,-136.82"/>
<polygon fill="#63b8ff" stroke="#63b8ff" points="288.84,-139.64 295.16,-131.14 284.92,-133.84 288.84,-139.64"/>
</a>
</g>
</g>
<!-- Node3 -->
<g id="Node000003" class="node">
<title>Node3</title>
<g id="a_Node000003"><a xlink:href="biasSINEXread_8cpp.html#a4bffe1ef2eba2828588d627449699cbe" target="_top" xlink:title="Convert observation code string to enum code.">
<path fill="#fff0f0" stroke="red" d="M222.67,-261C222.67,-261 176.33,-261 176.33,-261 173.17,-261 170,-257.83 170,-254.67 170,-254.67 170,-248.33 170,-248.33 170,-245.17 173.17,-242 176.33,-242 176.33,-242 222.67,-242 222.67,-242 225.83,-242 229,-245.17 229,-248.33 229,-248.33 229,-254.67 229,-254.67 229,-257.83 225.83,-261 222.67,-261"/>
<text text-anchor="middle" x="199.5" y="-249" font-family="Helvetica,sans-Serif" font-size="10.00">str2code</text>
</a>
</g>
</g>
<!-- Node1&#45;&gt;Node3 -->
<g id="edge2_Node000001_Node000003" class="edge">
<title>Node1&#45;&gt;Node3</title>
<g id="a_edge2_Node000001_Node000003"><a xlink:title=" ">
<path fill="none" stroke="#63b8ff" d="M84.78,-187.12C103.08,-197.45 128.48,-212.97 152,-224.5 161.26,-229.04 171.98,-233.25 180.78,-237.37"/>
<polygon fill="#63b8ff" stroke="#63b8ff" points="179.25,-240.51 189.74,-241.98 182.45,-234.29 179.25,-240.51"/>
</a>
</g>
</g>
<!-- Node1&#45;&gt;Node3 -->
<g id="edge3_Node000001_Node000003" class="edge">
<title>Node1&#45;&gt;Node3</title>
<g id="a_edge3_Node000001_Node000003"><a xlink:title=" ">
<path fill="none" stroke="#63b8ff" d="M66,-187.13C81.18,-201.56 118.49,-226.08 152,-242.5 154.62,-243.79 157.36,-245.05 160.14,-246.24"/>
<polygon fill="#63b8ff" stroke="#63b8ff" points="159.05,-249.58 169.64,-250.02 161.64,-243.07 159.05,-249.58"/>
</a>
</g>
</g>
<!-- Node5 -->
<g id="Node000005" class="node">
<title>Node5</title>
<g id="a_Node000005"><a xlink:href="biasSINEXread_8cpp.html#a02e220f170d09398d4bac63d463a8ef0" target="_top" xlink:title="Convert time string in bias SINEX to gtime struct.">
<path fill="#fff0f0" stroke="red" d="M240.67,-224C240.67,-224 158.33,-224 158.33,-224 155.17,-224 152,-220.83 152,-217.67 152,-217.67 152,-211.33 152,-211.33 152,-208.17 155.17,-205 158.33,-205 158.33,-205 240.67,-205 240.67,-205 243.83,-205 247,-208.17 247,-211.33 247,-211.33 247,-217.67 247,-217.67 247,-220.83 243.83,-224 240.67,-224"/>
<text text-anchor="middle" x="199.5" y="-212" font-family="Helvetica,sans-Serif" font-size="10.00">sinex_time_text</text>
</a>
</g>
</g>
<!-- Node1&#45;&gt;Node5 -->
<g id="edge4_Node000001_Node000005" class="edge">
<title>Node1&#45;&gt;Node5</title>
<g id="a_edge4_Node000001_Node000005"><a xlink:title=" ">
<path fill="none" stroke="#63b8ff" d="M116.14,-186.01C135.03,-190.72 155.19,-196.44 170.84,-201.65"/>
<polygon fill="#63b8ff" stroke="#63b8ff" points="169.82,-205 180.41,-204.99 172.12,-198.39 169.82,-205"/>
</a>
</g>
</g>
<!-- Node1&#45;&gt;Node5 -->
<g id="edge5_Node000001_Node000005" class="edge">
<title>Node1&#45;&gt;Node5</title>
<g id="a_edge5_Node000001_Node000005"><a xlink:title=" ">
<path fill="none" stroke="#63b8ff" d="M77.24,-187.07C93.72,-193.1 118.86,-200.4 141.99,-206.15"/>
<polygon fill="#63b8ff" stroke="#63b8ff" points="141.21,-209.56 151.75,-208.51 142.85,-202.76 141.21,-209.56"/>
</a>
</g>
</g>
<!-- Node8 -->
<g id="Node000008" class="node">
<title>Node8</title>
<g id="a_Node000008"><a xlink:href="common_8hpp.html#a4f1a2c24030cd6e74d381f97e15cf6d6" target="_top" xlink:title=" ">
<path fill="#fff0f0" stroke="red" d="M211.67,-187C211.67,-187 187.33,-187 187.33,-187 184.17,-187 181,-183.83 181,-180.67 181,-180.67 181,-174.33 181,-174.33 181,-171.17 184.17,-168 187.33,-168 187.33,-168 211.67,-168 211.67,-168 214.83,-168 218,-171.17 218,-174.33 218,-174.33 218,-180.67 218,-180.67 218,-183.83 214.83,-187 211.67,-187"/>
<text text-anchor="middle" x="199.5" y="-175" font-family="Helvetica,sans-Serif" font-size="10.00">SQR</text>
</a>
</g>
</g>
<!-- Node1&#45;&gt;Node8 -->
<g id="edge6_Node000001_Node000008" class="edge">
<title>Node1&#45;&gt;Node8</title>
<g id="a_edge6_Node000001_Node000008"><a xlink:title=" ">
<path fill="none" stroke="#63b8ff" d="M116.14,-170.85C134.97,-170.55 155.07,-170.93 170.7,-171.98"/>
<polygon fill="#63b8ff" stroke="#63b8ff" points="170.48,-175.47 180.73,-172.82 171.06,-168.5 170.48,-175.47"/>
</a>
</g>
</g>
<!-- Node1&#45;&gt;Node8 -->
<g id="edge7_Node000001_Node000008" class="edge">
<title>Node1&#45;&gt;Node8</title>
<g id="a_edge7_Node000001_Node000008"><a xlink:title=" ">
<path fill="none" stroke="#63b8ff" d="M116.14,-184.15C134.97,-184.45 155.07,-184.07 170.7,-183.02"/>
<polygon fill="#63b8ff" stroke="#63b8ff" points="171.06,-186.5 180.73,-182.18 170.48,-179.53 171.06,-186.5"/>
</a>
</g>
</g>
<!-- Node9 -->
<g id="Node000009" class="node">
<title>Node9</title>
<g id="a_Node000009"><a xlink:href="biases_8cpp.html#a49125df99428d233610c2ed35c2693d1" target="_top" xlink:title=" ">
<path fill="#fff0f0" stroke="red" d="M239.17,-150C239.17,-150 159.83,-150 159.83,-150 156.67,-150 153.5,-146.83 153.5,-143.67 153.5,-143.67 153.5,-137.33 153.5,-137.33 153.5,-134.17 156.67,-131 159.83,-131 159.83,-131 239.17,-131 239.17,-131 242.33,-131 245.5,-134.17 245.5,-137.33 245.5,-137.33 245.5,-143.67 245.5,-143.67 245.5,-146.83 242.33,-150 239.17,-150"/>
<text text-anchor="middle" x="199.5" y="-138" font-family="Helvetica,sans-Serif" font-size="10.00">updateRefTime</text>
</a>
</g>
</g>
<!-- Node1&#45;&gt;Node9 -->
<g id="edge8_Node000001_Node000009" class="edge">
<title>Node1&#45;&gt;Node9</title>
<g id="a_edge8_Node000001_Node000009"><a xlink:title=" ">
<path fill="none" stroke="#63b8ff" d="M94.92,-167.97C112.44,-163.33 133.72,-157.68 152.42,-152.72"/>
<polygon fill="#63b8ff" stroke="#63b8ff" points="153.44,-156.07 162.21,-150.12 151.65,-149.31 153.44,-156.07"/>
</a>
</g>
</g>
<!-- Node10 -->
<g id="Node000010" class="node">
<title>Node10</title>
<g id="a_Node000010"><a xlink:href="structSatSys.html#aec6d07b90d1e8172b8b6a6966abef4fd" target="_top" xlink:title="Returns a std::string of this satellite&#39;s id.">
<path fill="#fff0f0" stroke="red" d="M355.17,-168C355.17,-168 302.83,-168 302.83,-168 299.67,-168 296.5,-164.83 296.5,-161.67 296.5,-161.67 296.5,-155.33 296.5,-155.33 296.5,-152.17 299.67,-149 302.83,-149 302.83,-149 355.17,-149 355.17,-149 358.33,-149 361.5,-152.17 361.5,-155.33 361.5,-155.33 361.5,-161.67 361.5,-161.67 361.5,-164.83 358.33,-168 355.17,-168"/>
<text text-anchor="middle" x="329" y="-156" font-family="Helvetica,sans-Serif" font-size="10.00">SatSys::id</text>
</a>
</g>
</g>
<!-- Node1&#45;&gt;Node10 -->
<g id="edge12_Node000001_Node000010" class="edge">
<title>Node1&#45;&gt;Node10</title>
<g id="a_edge12_Node000001_Node000010"><a xlink:title=" ">
<path fill="none" stroke="#63b8ff" d="M64.79,-167.95C78.68,-151.96 115.45,-123.5 152,-113.5 192.73,-102.36 205.91,-103.8 247,-113.5 264.41,-117.61 266.68,-124.17 283,-131.5 292.16,-135.61 302.55,-139.8 311.05,-144.01"/>
<polygon fill="#63b8ff" stroke="#63b8ff" points="309.51,-147.16 319.95,-148.97 312.91,-141.05 309.51,-147.16"/>
</a>
</g>
</g>
<!-- Node1&#45;&gt;Node10 -->
<g id="edge14_Node000001_Node000010" class="edge">
<title>Node1&#45;&gt;Node10</title>
<g id="a_edge14_Node000001_Node000010"><a xlink:title=" ">
<path fill="none" stroke="#63b8ff" d="M80.03,-167.8C97.96,-156.3 125.04,-138.88 152,-131.5 192.73,-120.36 205.91,-121.8 247,-131.5 264.41,-135.61 266.68,-142.17 283,-149.5 284.34,-150.1 285.71,-150.71 287.1,-151.31"/>
<polygon fill="#63b8ff" stroke="#63b8ff" points="285.81,-154.56 296.39,-155.15 288.48,-148.09 285.81,-154.56"/>
</a>
</g>
</g>
<!-- Node13 -->
<g id="Node000013" class="node">
<title>Node13</title>
<g id="a_Node000013"><a xlink:href="biases_8cpp.html#ad7402956db3836fc8dbe7b8b51d04c69" target="_top" xlink:title="Push forward and reverse bias entry into biasMaps.">
<path fill="#fff0f0" stroke="red" d="M236.17,-56C236.17,-56 162.83,-56 162.83,-56 159.67,-56 156.5,-52.83 156.5,-49.67 156.5,-49.67 156.5,-43.33 156.5,-43.33 156.5,-40.17 159.67,-37 162.83,-37 162.83,-37 236.17,-37 236.17,-37 239.33,-37 242.5,-40.17 242.5,-43.33 242.5,-43.33 242.5,-49.67 242.5,-49.67 242.5,-52.83 239.33,-56 236.17,-56"/>
<text text-anchor="middle" x="199.5" y="-44" font-family="Helvetica,sans-Serif" font-size="10.00">pushBiasEntry</text>
</a>
</g>
</g>
<!-- Node1&#45;&gt;Node13 -->
<g id="edge13_Node000001_Node000013" class="edge">
<title>Node1&#45;&gt;Node13</title>
<g id="a_edge13_Node000001_Node000013"><a xlink:title=" ">
<path fill="none" stroke="#63b8ff" d="M62.82,-167.76C73.83,-146.69 107.22,-99.17 151.86,-62.34"/>
<polygon fill="#63b8ff" stroke="#63b8ff" points="154.09,-65.03 159.72,-56.06 149.73,-59.57 154.09,-65.03"/>
</a>
</g>
</g>
<!-- Node1&#45;&gt;Node13 -->
<g id="edge15_Node000001_Node000013" class="edge">
<title>Node1&#45;&gt;Node13</title>
<g id="a_edge15_Node000001_Node000013"><a xlink:title=" ">
<path fill="none" stroke="#63b8ff" d="M69.51,-167.92C85.34,-148.65 117.16,-106.87 152,-79.5 160.91,-72.5 172.17,-66.63 181.38,-61.4"/>
<polygon fill="#63b8ff" stroke="#63b8ff" points="183.29,-64.33 190.05,-56.17 179.68,-58.34 183.29,-64.33"/>
</a>
</g>
</g>
<!-- Node12 -->
<g id="Node000012" class="node">
<title>Node12</title>
<g id="a_Node000012"><a xlink:href="structSatSys.html#abfd7e43b0d57c2718d05ca595ee360dd" target="_top" xlink:title="Returns the character used as a prefix for this system.">
<path fill="#fff0f0" stroke="red" d="M240.67,-19C240.67,-19 158.33,-19 158.33,-19 155.17,-19 152,-15.83 152,-12.67 152,-12.67 152,-6.33 152,-6.33 152,-3.17 155.17,0 158.33,0 158.33,0 240.67,0 240.67,0 243.83,0 247,-3.17 247,-6.33 247,-6.33 247,-12.67 247,-12.67 247,-15.83 243.83,-19 240.67,-19"/>
<text text-anchor="middle" x="199.5" y="-7" font-family="Helvetica,sans-Serif" font-size="10.00">SatSys::sysChar</text>
</a>
</g>
</g>
<!-- Node1&#45;&gt;Node12 -->
<g id="edge16_Node000001_Node000012" class="edge">
<title>Node1&#45;&gt;Node12</title>
<g id="a_edge16_Node000001_Node000012"><a xlink:title=" ">
<path fill="none" stroke="#63b8ff" d="M62.41,-167.95C72.21,-141.78 102.95,-68.19 152,-27.5 153.37,-26.36 154.83,-25.29 156.34,-24.28"/>
<polygon fill="#63b8ff" stroke="#63b8ff" points="158.47,-27.1 165.5,-19.17 155.06,-20.99 158.47,-27.1"/>
</a>
</g>
</g>
<!-- Node9&#45;&gt;Node2 -->
<g id="edge10_Node000009_Node000002" class="edge">
<title>Node9&#45;&gt;Node2</title>
<g id="a_edge10_Node000009_Node000002"><a xlink:title=" ">
<path fill="none" stroke="#63b8ff" d="M226.92,-130.97C240.14,-128.07 256.67,-125.23 272.51,-123.07"/>
<polygon fill="#63b8ff" stroke="#63b8ff" points="273.31,-126.5 282.78,-121.75 272.42,-119.55 273.31,-126.5"/>
</a>
</g>
</g>
<!-- Node9&#45;&gt;Node2 -->
<g id="edge11_Node000009_Node000002" class="edge">
<title>Node9&#45;&gt;Node2</title>
<g id="a_edge11_Node000009_Node000002"><a xlink:title=" ">
<path fill="none" stroke="#63b8ff" d="M245.81,-140.24C260.79,-138.44 277.25,-135.88 291.48,-133.11"/>
<polygon fill="#63b8ff" stroke="#63b8ff" points="292.3,-136.52 301.39,-131.07 290.89,-129.66 292.3,-136.52"/>
</a>
</g>
</g>
<!-- Node9&#45;&gt;Node10 -->
<g id="edge9_Node000009_Node000010" class="edge">
<title>Node9&#45;&gt;Node10</title>
<g id="a_edge9_Node000009_Node000010"><a xlink:title=" ">
<path fill="none" stroke="#63b8ff" d="M245.81,-146.9C259.03,-148.76 273.4,-150.79 286.38,-152.62"/>
<polygon fill="#63b8ff" stroke="#63b8ff" points="286.04,-156.11 296.43,-154.04 287.02,-149.18 286.04,-156.11"/>
</a>
</g>
</g>
</g>
</svg>
