<?xml version="1.0" encoding="UTF-8" standalone="no"?>
<!DOCTYPE svg PUBLIC "-//W3C//DTD SVG 1.1//EN"
 "http://www.w3.org/Graphics/SVG/1.1/DTD/svg11.dtd">
<!-- Generated by graphviz version 2.43.0 (0)
 -->
<!-- Title: initialiseBias Pages: 1 -->
<svg width="210pt" height="66pt"
 viewBox="0.00 0.00 210.00 66.00" xmlns="http://www.w3.org/2000/svg" xmlns:xlink="http://www.w3.org/1999/xlink">
<g id="graph0" class="graph" transform="scale(1 1) rotate(0) translate(4 62)">
<title>initialiseBias</title>
<polygon fill="white" stroke="transparent" points="-4,4 -4,-62 206,-62 206,4 -4,4"/>
<!-- Node1 -->
<g id="node1" class="node">
<title>Node1</title>
<g id="a_node1"><a xlink:title="Initialise satellite DSBs between default signals, e.g.">
<polygon fill="#bfbfbf" stroke="black" points="0,-19.5 0,-38.5 80,-38.5 80,-19.5 0,-19.5"/>
<text text-anchor="middle" x="40" y="-26.5" font-family="Helvetica,sans-Serif" font-size="10.00">initialiseBias</text>
</a>
</g>
</g>
<!-- Node2 -->
<g id="node2" class="node">
<title>Node2</title>
<g id="a_node2"><a xlink:href="satSys_8cpp.html#aae80f3401dd26548c7b0b83c1e25e499" target="_top" xlink:title="Get all satellites of target system.">
<polygon fill="white" stroke="black" points="123.5,-38.5 123.5,-57.5 194.5,-57.5 194.5,-38.5 123.5,-38.5"/>
<text text-anchor="middle" x="159" y="-45.5" font-family="Helvetica,sans-Serif" font-size="10.00">getSysSats</text>
</a>
</g>
</g>
<!-- Node1&#45;&gt;Node2 -->
<g id="edge1" class="edge">
<title>Node1&#45;&gt;Node2</title>
<path fill="none" stroke="midnightblue" d="M80.28,-35.38C90.85,-37.1 102.35,-38.96 113.2,-40.72"/>
<polygon fill="midnightblue" stroke="midnightblue" points="112.9,-44.22 123.33,-42.37 114.02,-37.31 112.9,-44.22"/>
</g>
<!-- Node3 -->
<g id="node3" class="node">
<title>Node3</title>
<g id="a_node3"><a xlink:href="biases_8cpp.html#ad7402956db3836fc8dbe7b8b51d04c69" target="_top" xlink:title="Push forward and reverse bias entry into biasMaps.">
<polygon fill="white" stroke="red" points="116,-0.5 116,-19.5 202,-19.5 202,-0.5 116,-0.5"/>
<text text-anchor="middle" x="159" y="-7.5" font-family="Helvetica,sans-Serif" font-size="10.00">pushBiasEntry</text>
</a>
</g>
</g>
<!-- Node1&#45;&gt;Node3 -->
<g id="edge2" class="edge">
<title>Node1&#45;&gt;Node3</title>
<path fill="none" stroke="midnightblue" d="M80.28,-22.62C88.49,-21.29 97.27,-19.86 105.86,-18.47"/>
<polygon fill="midnightblue" stroke="midnightblue" points="106.5,-21.91 115.81,-16.85 105.38,-15 106.5,-21.91"/>
</g>
</g>
</svg>
