<?xml version="1.0" encoding="UTF-8" standalone="no"?>
<!DOCTYPE svg PUBLIC "-//W3C//DTD SVG 1.1//EN"
 "http://www.w3.org/Graphics/SVG/1.1/DTD/svg11.dtd">
<!-- Generated by graphviz version 2.43.0 (0)
 -->
<!-- Title: updateFirstLine Pages: 1 -->
<svg width="207pt" height="104pt"
 viewBox="0.00 0.00 207.00 104.00" xmlns="http://www.w3.org/2000/svg" xmlns:xlink="http://www.w3.org/1999/xlink">
<g id="graph0" class="graph" transform="scale(1 1) rotate(0) translate(4 100)">
<title>updateFirstLine</title>
<polygon fill="white" stroke="transparent" points="-4,4 -4,-100 203,-100 203,4 -4,4"/>
<!-- Node1 -->
<g id="node1" class="node">
<title>Node1</title>
<g id="a_node1"><a xlink:title="Update bias SINEX first line.">
<polygon fill="#bfbfbf" stroke="black" points="0,-38.5 0,-57.5 92,-57.5 92,-38.5 0,-38.5"/>
<text text-anchor="middle" x="46" y="-45.5" font-family="Helvetica,sans-Serif" font-size="10.00">updateFirstLine</text>
</a>
</g>
</g>
<!-- Node2 -->
<g id="node2" class="node">
<title>Node2</title>
<g id="a_node2"><a xlink:href="gTime_8cpp.html#abc73cf336f9fa1b3622c933d5925e073" target="_top" xlink:title=" ">
<polygon fill="white" stroke="black" points="135.5,-76.5 135.5,-95.5 191.5,-95.5 191.5,-76.5 135.5,-76.5"/>
<text text-anchor="middle" x="163.5" y="-83.5" font-family="Helvetica,sans-Serif" font-size="10.00">timeGet</text>
</a>
</g>
</g>
<!-- Node1&#45;&gt;Node2 -->
<g id="edge1" class="edge">
<title>Node1&#45;&gt;Node2</title>
<path fill="none" stroke="midnightblue" d="M76.15,-57.59C91.2,-62.54 109.72,-68.64 125.75,-73.91"/>
<polygon fill="midnightblue" stroke="midnightblue" points="124.75,-77.27 135.35,-77.07 126.94,-70.62 124.75,-77.27"/>
</g>
<!-- Node3 -->
<g id="node3" class="node">
<title>Node3</title>
<g id="a_node3"><a xlink:href="gTime_8cpp.html#a37bc65d232e726cdbc51122a8a8ec00e" target="_top" xlink:title=" ">
<polygon fill="white" stroke="red" points="132.5,-38.5 132.5,-57.5 194.5,-57.5 194.5,-38.5 132.5,-38.5"/>
<text text-anchor="middle" x="163.5" y="-45.5" font-family="Helvetica,sans-Serif" font-size="10.00">time2yds</text>
</a>
</g>
</g>
<!-- Node1&#45;&gt;Node3 -->
<g id="edge2" class="edge">
<title>Node1&#45;&gt;Node3</title>
<path fill="none" stroke="midnightblue" d="M92.32,-48C102.16,-48 112.5,-48 122.13,-48"/>
<polygon fill="midnightblue" stroke="midnightblue" points="122.25,-51.5 132.25,-48 122.25,-44.5 122.25,-51.5"/>
</g>
<!-- Node7 -->
<g id="node4" class="node">
<title>Node7</title>
<g id="a_node4"><a xlink:href="trace_8hpp.html#a984a9b0c40d65d46f2c73a021a7b7de3" target="_top" xlink:title=" ">
<polygon fill="white" stroke="black" points="128,-0.5 128,-19.5 199,-19.5 199,-0.5 128,-0.5"/>
<text text-anchor="middle" x="163.5" y="-7.5" font-family="Helvetica,sans-Serif" font-size="10.00">tracepdeex</text>
</a>
</g>
</g>
<!-- Node1&#45;&gt;Node7 -->
<g id="edge3" class="edge">
<title>Node1&#45;&gt;Node7</title>
<path fill="none" stroke="midnightblue" d="M76.15,-38.41C90.51,-33.69 108.03,-27.92 123.53,-22.82"/>
<polygon fill="midnightblue" stroke="midnightblue" points="124.96,-26.04 133.36,-19.59 122.77,-19.39 124.96,-26.04"/>
</g>
</g>
</svg>
