<?xml version="1.0" encoding="UTF-8" standalone="no"?>
<!DOCTYPE svg PUBLIC "-//W3C//DTD SVG 1.1//EN"
 "http://www.w3.org/Graphics/SVG/1.1/DTD/svg11.dtd">
<!-- Generated by graphviz version 2.43.0 (0)
 -->
<!-- Title: biasType Pages: 1 -->
<svg width="326pt" height="47pt"
 viewBox="0.00 0.00 326.00 47.00" xmlns="http://www.w3.org/2000/svg" xmlns:xlink="http://www.w3.org/1999/xlink">
<g id="graph0" class="graph" transform="scale(1 1) rotate(0) translate(4 43)">
<title>biasType</title>
<polygon fill="white" stroke="transparent" points="-4,4 -4,-43 322,-43 322,4 -4,4"/>
<!-- Node1 -->
<g id="node1" class="node">
<title>Node1</title>
<g id="a_node1"><a xlink:title="Determine if the bias is an OSB or DSB given observation codes.">
<polygon fill="#bfbfbf" stroke="black" points="259,-0.5 259,-19.5 318,-19.5 318,-0.5 259,-0.5"/>
<text text-anchor="middle" x="288.5" y="-7.5" font-family="Helvetica,sans-Serif" font-size="10.00">biasType</text>
</a>
</g>
</g>
<!-- Node2 -->
<g id="node2" class="node">
<title>Node2</title>
<g id="a_node2"><a xlink:href="biasSINEXwrite_8cpp.html#adcabd7eefaca5c01cf305a80294e57a7" target="_top" xlink:title="print bias SINEX data line">
<polygon fill="white" stroke="black" points="125,-19.5 125,-38.5 223,-38.5 223,-19.5 125,-19.5"/>
<text text-anchor="middle" x="174" y="-26.5" font-family="Helvetica,sans-Serif" font-size="10.00">writeBSINEXLine</text>
</a>
</g>
</g>
<!-- Node1&#45;&gt;Node2 -->
<g id="edge1" class="edge">
<title>Node1&#45;&gt;Node2</title>
<path fill="none" stroke="midnightblue" d="M258.82,-14.84C248.01,-16.67 235.4,-18.8 223.3,-20.84"/>
</g>
<!-- Node3 -->
<g id="node3" class="node">
<title>Node3</title>
<g id="a_node3"><a xlink:href="biasSINEXwrite_8cpp.html#a975aa402cca9e4828c089e82bb68c5a6" target="_top" xlink:title="Write stored bias output to SINEX file Return number of written biases (&#45;1 if file not found)">
<polygon fill="white" stroke="red" points="0,-0.5 0,-19.5 89,-19.5 89,-0.5 0,-0.5"/>
<text text-anchor="middle" x="44.5" y="-7.5" font-family="Helvetica,sans-Serif" font-size="10.00">writeBiasSinex</text>
</a>
</g>
</g>
<!-- Node1&#45;&gt;Node3 -->
<g id="edge3" class="edge">
<title>Node1&#45;&gt;Node3</title>
<path fill="none" stroke="midnightblue" d="M258.79,-10C216.85,-10 138.48,-10 89.31,-10"/>
</g>
<!-- Node2&#45;&gt;Node3 -->
<g id="edge2" class="edge">
<title>Node2&#45;&gt;Node3</title>
<path fill="none" stroke="midnightblue" d="M124.8,-21.82C113.09,-20.07 100.64,-18.22 89.16,-16.51"/>
</g>
</g>
</svg>
