<?xml version="1.0" encoding="UTF-8" standalone="no"?>
<!DOCTYPE svg PUBLIC "-//W3C//DTD SVG 1.1//EN"
 "http://www.w3.org/Graphics/SVG/1.1/DTD/svg11.dtd">
<!-- Generated by graphviz version 2.43.0 (0)
 -->
<!-- Title: /data/acs/ginan/src/cpp/loading/boost_ma_type.h Pages: 1 -->
<svg width="800pt" height="262pt"
 viewBox="0.00 0.00 799.50 262.00" xmlns="http://www.w3.org/2000/svg" xmlns:xlink="http://www.w3.org/1999/xlink">
<g id="graph0" class="graph" transform="scale(1 1) rotate(0) translate(4 258)">
<title>/data/acs/ginan/src/cpp/loading/boost_ma_type.h</title>
<polygon fill="white" stroke="transparent" points="-4,4 -4,-258 795.5,-258 795.5,4 -4,4"/>
<!-- Node1 -->
<g id="node1" class="node">
<title>Node1</title>
<g id="a_node1"><a xlink:title=" ">
<polygon fill="#bfbfbf" stroke="black" points="142,-212.5 142,-253.5 269,-253.5 269,-212.5 142,-212.5"/>
<text text-anchor="start" x="150" y="-241.5" font-family="Helvetica,sans-Serif" font-size="10.00">/data/acs/ginan/src</text>
<text text-anchor="start" x="150" y="-230.5" font-family="Helvetica,sans-Serif" font-size="10.00">/cpp/loading/boost_ma</text>
<text text-anchor="middle" x="205.5" y="-219.5" font-family="Helvetica,sans-Serif" font-size="10.00">_type.h</text>
</a>
</g>
</g>
<!-- Node2 -->
<g id="node2" class="node">
<title>Node2</title>
<g id="a_node2"><a xlink:href="input__otl_8h.html" target="_top" xlink:title=" ">
<polygon fill="white" stroke="black" points="0,-145.5 0,-175.5 131,-175.5 131,-145.5 0,-145.5"/>
<text text-anchor="start" x="8" y="-163.5" font-family="Helvetica,sans-Serif" font-size="10.00">/data/acs/ginan/src</text>
<text text-anchor="middle" x="65.5" y="-152.5" font-family="Helvetica,sans-Serif" font-size="10.00">/cpp/loading/input_otl.h</text>
</a>
</g>
</g>
<!-- Node1&#45;&gt;Node2 -->
<g id="edge1" class="edge">
<title>Node1&#45;&gt;Node2</title>
<path fill="none" stroke="midnightblue" d="M166.5,-212.36C143.36,-200.71 114.56,-186.2 93.64,-175.67"/>
</g>
<!-- Node4 -->
<g id="node4" class="node">
<title>Node4</title>
<g id="a_node4"><a xlink:href="load__functions_8cpp.html" target="_top" xlink:title=" ">
<polygon fill="white" stroke="black" points="273.5,-6 273.5,-36 443.5,-36 443.5,-6 273.5,-6"/>
<text text-anchor="start" x="281.5" y="-24" font-family="Helvetica,sans-Serif" font-size="10.00">/data/acs/ginan/src</text>
<text text-anchor="middle" x="358.5" y="-13" font-family="Helvetica,sans-Serif" font-size="10.00">/cpp/loading/load_functions.cpp</text>
</a>
</g>
</g>
<!-- Node1&#45;&gt;Node4 -->
<g id="edge9" class="edge">
<title>Node1&#45;&gt;Node4</title>
<path fill="none" stroke="midnightblue" d="M193.69,-212.31C176.43,-180.72 149.49,-118.2 179.5,-78 201.41,-48.65 238.64,-34.28 273.48,-27.39"/>
</g>
<!-- Node7 -->
<g id="node7" class="node">
<title>Node7</title>
<g id="a_node7"><a xlink:href="loadgrid_8h.html" target="_top" xlink:title=" ">
<polygon fill="white" stroke="black" points="187.5,-145.5 187.5,-175.5 315.5,-175.5 315.5,-145.5 187.5,-145.5"/>
<text text-anchor="start" x="195.5" y="-163.5" font-family="Helvetica,sans-Serif" font-size="10.00">/data/acs/ginan/src</text>
<text text-anchor="middle" x="251.5" y="-152.5" font-family="Helvetica,sans-Serif" font-size="10.00">/cpp/loading/loadgrid.h</text>
</a>
</g>
</g>
<!-- Node1&#45;&gt;Node7 -->
<g id="edge10" class="edge">
<title>Node1&#45;&gt;Node7</title>
<path fill="none" stroke="midnightblue" d="M218.31,-212.36C225.86,-200.79 235.25,-186.41 242.11,-175.89"/>
</g>
<!-- Node9 -->
<g id="node9" class="node">
<title>Node9</title>
<g id="a_node9"><a xlink:href="tide_8h.html" target="_top" xlink:title=" ">
<polygon fill="white" stroke="black" points="392.5,-145.5 392.5,-175.5 500.5,-175.5 500.5,-145.5 392.5,-145.5"/>
<text text-anchor="start" x="400.5" y="-163.5" font-family="Helvetica,sans-Serif" font-size="10.00">/data/acs/ginan/src</text>
<text text-anchor="middle" x="446.5" y="-152.5" font-family="Helvetica,sans-Serif" font-size="10.00">/cpp/loading/tide.h</text>
</a>
</g>
</g>
<!-- Node1&#45;&gt;Node9 -->
<g id="edge13" class="edge">
<title>Node1&#45;&gt;Node9</title>
<path fill="none" stroke="midnightblue" d="M269.14,-213.38C309.72,-201.51 361.46,-186.38 398.57,-175.52"/>
</g>
<!-- Node3 -->
<g id="node3" class="node">
<title>Node3</title>
<g id="a_node3"><a xlink:href="interpolate__loading_8cpp.html" target="_top" xlink:title=" ">
<polygon fill="white" stroke="black" points="53.5,-0.5 53.5,-41.5 185.5,-41.5 185.5,-0.5 53.5,-0.5"/>
<text text-anchor="start" x="61.5" y="-29.5" font-family="Helvetica,sans-Serif" font-size="10.00">/data/acs/ginan/src</text>
<text text-anchor="start" x="61.5" y="-18.5" font-family="Helvetica,sans-Serif" font-size="10.00">/cpp/loading/interpolate</text>
<text text-anchor="middle" x="119.5" y="-7.5" font-family="Helvetica,sans-Serif" font-size="10.00">_loading.cpp</text>
</a>
</g>
</g>
<!-- Node2&#45;&gt;Node3 -->
<g id="edge2" class="edge">
<title>Node2&#45;&gt;Node3</title>
<path fill="none" stroke="midnightblue" d="M63.43,-145.34C61.59,-128.58 60.42,-100.15 69.5,-78 75.18,-64.13 85.85,-51.42 95.88,-41.63"/>
</g>
<!-- Node2&#45;&gt;Node4 -->
<g id="edge3" class="edge">
<title>Node2&#45;&gt;Node4</title>
<path fill="none" stroke="midnightblue" d="M75.45,-145.42C89.13,-127.11 115.49,-95.42 145.5,-78 184.44,-55.4 232.62,-41.74 273.3,-33.58"/>
</g>
<!-- Node5 -->
<g id="node5" class="node">
<title>Node5</title>
<g id="a_node5"><a xlink:href="load__functions_8h.html" target="_top" xlink:title=" ">
<polygon fill="white" stroke="black" points="421,-78.5 421,-108.5 580,-108.5 580,-78.5 421,-78.5"/>
<text text-anchor="start" x="429" y="-96.5" font-family="Helvetica,sans-Serif" font-size="10.00">/data/acs/ginan/src</text>
<text text-anchor="middle" x="500.5" y="-85.5" font-family="Helvetica,sans-Serif" font-size="10.00">/cpp/loading/load_functions.h</text>
</a>
</g>
</g>
<!-- Node2&#45;&gt;Node5 -->
<g id="edge4" class="edge">
<title>Node2&#45;&gt;Node5</title>
<path fill="none" stroke="midnightblue" d="M131.09,-149.7C208.59,-138.12 337.47,-118.86 420.68,-106.43"/>
</g>
<!-- Node6 -->
<g id="node6" class="node">
<title>Node6</title>
<g id="a_node6"><a xlink:href="make__otl__blq_8cpp.html" target="_top" xlink:title="Program to compute the ocean tide loading from a tide grid.">
<polygon fill="white" stroke="black" points="545.5,-0.5 545.5,-41.5 669.5,-41.5 669.5,-0.5 545.5,-0.5"/>
<text text-anchor="start" x="553.5" y="-29.5" font-family="Helvetica,sans-Serif" font-size="10.00">/data/acs/ginan/src</text>
<text text-anchor="start" x="553.5" y="-18.5" font-family="Helvetica,sans-Serif" font-size="10.00">/cpp/loading/make_otl</text>
<text text-anchor="middle" x="607.5" y="-7.5" font-family="Helvetica,sans-Serif" font-size="10.00">_blq.cpp</text>
</a>
</g>
</g>
<!-- Node2&#45;&gt;Node6 -->
<g id="edge8" class="edge">
<title>Node2&#45;&gt;Node6</title>
<path fill="none" stroke="midnightblue" d="M131.18,-150.62C146.68,-148.65 163.16,-146.66 178.5,-145 224.08,-140.08 555.25,-139.47 589.5,-109 608.17,-92.39 610.42,-61.96 609.55,-41.86"/>
</g>
<!-- Node5&#45;&gt;Node3 -->
<g id="edge5" class="edge">
<title>Node5&#45;&gt;Node3</title>
<path fill="none" stroke="midnightblue" d="M424.77,-78.49C354.89,-65.56 252.17,-46.55 185.55,-34.22"/>
</g>
<!-- Node5&#45;&gt;Node4 -->
<g id="edge6" class="edge">
<title>Node5&#45;&gt;Node4</title>
<path fill="none" stroke="midnightblue" d="M472.11,-78.4C447.34,-66.11 411.6,-48.36 386.85,-36.07"/>
</g>
<!-- Node5&#45;&gt;Node6 -->
<g id="edge7" class="edge">
<title>Node5&#45;&gt;Node6</title>
<path fill="none" stroke="midnightblue" d="M521.9,-78.4C537.87,-67.87 559.92,-53.35 577.63,-41.68"/>
</g>
<!-- Node7&#45;&gt;Node3 -->
<g id="edge11" class="edge">
<title>Node7&#45;&gt;Node3</title>
<path fill="none" stroke="midnightblue" d="M226.84,-145.29C212.11,-136.09 193.59,-123.2 179.5,-109 159.21,-88.55 141.24,-60.46 130.38,-41.8"/>
</g>
<!-- Node8 -->
<g id="node8" class="node">
<title>Node8</title>
<g id="a_node8"><a xlink:href="loadgrid_8cpp.html" target="_top" xlink:title=" ">
<polygon fill="white" stroke="black" points="188,-78.5 188,-108.5 327,-108.5 327,-78.5 188,-78.5"/>
<text text-anchor="start" x="196" y="-96.5" font-family="Helvetica,sans-Serif" font-size="10.00">/data/acs/ginan/src</text>
<text text-anchor="middle" x="257.5" y="-85.5" font-family="Helvetica,sans-Serif" font-size="10.00">/cpp/loading/loadgrid.cpp</text>
</a>
</g>
</g>
<!-- Node7&#45;&gt;Node8 -->
<g id="edge12" class="edge">
<title>Node7&#45;&gt;Node8</title>
<path fill="none" stroke="midnightblue" d="M252.8,-145.4C253.81,-134.49 255.19,-119.47 256.2,-108.58"/>
</g>
<!-- Node9&#45;&gt;Node3 -->
<g id="edge14" class="edge">
<title>Node9&#45;&gt;Node3</title>
<path fill="none" stroke="midnightblue" d="M431.36,-145.25C411.23,-127.06 373.83,-95.81 336.5,-78 288.57,-55.13 230.05,-40.73 185.87,-32.27"/>
</g>
<!-- Node9&#45;&gt;Node4 -->
<g id="edge15" class="edge">
<title>Node9&#45;&gt;Node4</title>
<path fill="none" stroke="midnightblue" d="M436.83,-145.44C429.95,-135.36 420.54,-121.43 412.5,-109 396.09,-83.62 377.66,-53.58 367.13,-36.27"/>
</g>
<!-- Node9&#45;&gt;Node5 -->
<g id="edge16" class="edge">
<title>Node9&#45;&gt;Node5</title>
<path fill="none" stroke="midnightblue" d="M458.22,-145.4C467.27,-134.49 479.75,-119.47 488.81,-108.58"/>
</g>
<!-- Node9&#45;&gt;Node6 -->
<g id="edge17" class="edge">
<title>Node9&#45;&gt;Node6</title>
<path fill="none" stroke="midnightblue" d="M500.74,-151.1C546.51,-142.78 606.86,-128.46 621.5,-109 636.12,-89.56 627.18,-60.71 618.3,-41.63"/>
</g>
<!-- Node10 -->
<g id="node10" class="node">
<title>Node10</title>
<g id="a_node10"><a xlink:href="tide_8cpp.html" target="_top" xlink:title=" ">
<polygon fill="white" stroke="black" points="673.5,-78.5 673.5,-108.5 791.5,-108.5 791.5,-78.5 673.5,-78.5"/>
<text text-anchor="start" x="681.5" y="-96.5" font-family="Helvetica,sans-Serif" font-size="10.00">/data/acs/ginan/src</text>
<text text-anchor="middle" x="732.5" y="-85.5" font-family="Helvetica,sans-Serif" font-size="10.00">/cpp/loading/tide.cpp</text>
</a>
</g>
</g>
<!-- Node9&#45;&gt;Node10 -->
<g id="edge18" class="edge">
<title>Node9&#45;&gt;Node10</title>
<path fill="none" stroke="midnightblue" d="M500.63,-147.2C549.86,-136.01 622.37,-119.53 673.16,-107.99"/>
</g>
</g>
</svg>
