<?xml version="1.0" encoding="UTF-8" standalone="no"?>
<!DOCTYPE svg PUBLIC "-//W3C//DTD SVG 1.1//EN"
 "http://www.w3.org/Graphics/SVG/1.1/DTD/svg11.dtd">
<!-- Generated by graphviz version 2.43.0 (0)
 -->
<!-- Title: BS_satantoff Pages: 1 -->
<svg width="318pt" height="159pt"
 viewBox="0.00 0.00 318.00 159.43" xmlns="http://www.w3.org/2000/svg" xmlns:xlink="http://www.w3.org/1999/xlink">
<g id="graph0" class="graph" transform="scale(1 1) rotate(0) translate(4 155.43)">
<title>BS_satantoff</title>
<polygon fill="white" stroke="transparent" points="-4,4 -4,-155.43 314,-155.43 314,4 -4,4"/>
<!-- Node1 -->
<g id="node1" class="node">
<title>Node1</title>
<g id="a_node1"><a xlink:title=" ">
<polygon fill="#bfbfbf" stroke="black" points="0,-76.5 0,-95.5 79,-95.5 79,-76.5 0,-76.5"/>
<text text-anchor="middle" x="39.5" y="-83.5" font-family="Helvetica,sans-Serif" font-size="10.00">BS_satantoff</text>
</a>
</g>
</g>
<!-- Node2 -->
<g id="node2" class="node">
<title>Node2</title>
<g id="a_node2"><a xlink:href="structSatSys.html#adbdf98ba1ef1f22b6aaed93916529513" target="_top" xlink:title="Sets a 4 character c_string of this satellite&#39;s id.">
<polygon fill="white" stroke="red" points="230,-76.5 230,-95.5 310,-95.5 310,-76.5 230,-76.5"/>
<text text-anchor="middle" x="270" y="-83.5" font-family="Helvetica,sans-Serif" font-size="10.00">SatSys::getId</text>
</a>
</g>
</g>
<!-- Node1&#45;&gt;Node2 -->
<g id="edge1" class="edge">
<title>Node1&#45;&gt;Node2</title>
<path fill="none" stroke="midnightblue" d="M48.96,-95.6C61.68,-109.24 87.24,-133.6 115,-143 148.26,-154.26 160.73,-154.21 194,-143 221.9,-133.6 247.64,-109.24 260.47,-95.6"/>
</g>
<!-- Node4 -->
<g id="node3" class="node">
<title>Node4</title>
<g id="a_node3"><a xlink:href="rtkcmn_8cpp.html#ac9a81e78329f3b0dafee87842d6c1027" target="_top" xlink:title="get sun and moon position in ecef">
<polygon fill="white" stroke="red" points="115,-114.5 115,-133.5 194,-133.5 194,-114.5 115,-114.5"/>
<text text-anchor="middle" x="154.5" y="-121.5" font-family="Helvetica,sans-Serif" font-size="10.00">sunmoonpos</text>
</a>
</g>
</g>
<!-- Node1&#45;&gt;Node4 -->
<g id="edge2" class="edge">
<title>Node1&#45;&gt;Node4</title>
<path fill="none" stroke="midnightblue" d="M69.01,-95.59C86.14,-101.35 107.87,-108.65 124.99,-114.41"/>
</g>
<!-- Node17 -->
<g id="node4" class="node">
<title>Node17</title>
<g id="a_node4"><a xlink:href="gTime_8cpp.html#a853f281ccd45b714eb3edb14259a982a" target="_top" xlink:title=" ">
<polygon fill="white" stroke="red" points="125,-76.5 125,-95.5 184,-95.5 184,-76.5 125,-76.5"/>
<text text-anchor="middle" x="154.5" y="-83.5" font-family="Helvetica,sans-Serif" font-size="10.00">gpst2utc</text>
</a>
</g>
</g>
<!-- Node1&#45;&gt;Node17 -->
<g id="edge3" class="edge">
<title>Node1&#45;&gt;Node17</title>
<path fill="none" stroke="midnightblue" d="M79.07,-86C94.03,-86 110.87,-86 124.73,-86"/>
</g>
<!-- Node18 -->
<g id="node5" class="node">
<title>Node18</title>
<g id="a_node5"><a xlink:href="antenna_8cpp.html#a320c9b2df44073e19d4faeee50f848b7" target="_top" xlink:title="fetch pco">
<polygon fill="white" stroke="red" points="129.5,-38.5 129.5,-57.5 179.5,-57.5 179.5,-38.5 129.5,-38.5"/>
<text text-anchor="middle" x="154.5" y="-45.5" font-family="Helvetica,sans-Serif" font-size="10.00">antPco</text>
</a>
</g>
</g>
<!-- Node1&#45;&gt;Node18 -->
<g id="edge4" class="edge">
<title>Node1&#45;&gt;Node18</title>
<path fill="none" stroke="midnightblue" d="M69.01,-76.41C87.58,-70.17 111.55,-62.11 129.21,-56.17"/>
</g>
<!-- Node21 -->
<g id="node6" class="node">
<title>Node21</title>
<g id="a_node6"><a xlink:href="structSatSys.html#aec6d07b90d1e8172b8b6a6966abef4fd" target="_top" xlink:title="Returns a std::string of this satellite&#39;s id.">
<polygon fill="white" stroke="black" points="122,-0.5 122,-19.5 187,-19.5 187,-0.5 122,-0.5"/>
<text text-anchor="middle" x="154.5" y="-7.5" font-family="Helvetica,sans-Serif" font-size="10.00">SatSys::id</text>
</a>
</g>
</g>
<!-- Node1&#45;&gt;Node21 -->
<g id="edge5" class="edge">
<title>Node1&#45;&gt;Node21</title>
<path fill="none" stroke="midnightblue" d="M51.61,-76.39C65.75,-64.43 91.2,-43.78 115,-29 120.45,-25.62 126.58,-22.36 132.32,-19.53"/>
</g>
<!-- Node21&#45;&gt;Node2 -->
<g id="edge6" class="edge">
<title>Node21&#45;&gt;Node2</title>
<path fill="none" stroke="midnightblue" d="M176.67,-19.55C182.42,-22.38 188.55,-25.63 194,-29 217.92,-43.8 243.55,-64.44 257.8,-76.4"/>
</g>
</g>
</svg>
