<?xml version="1.0" encoding="UTF-8" standalone="no"?>
<!DOCTYPE svg PUBLIC "-//W3C//DTD SVG 1.1//EN"
 "http://www.w3.org/Graphics/SVG/1.1/DTD/svg11.dtd">
<!-- Generated by graphviz version 2.43.0 (0)
 -->
<!-- Title: KalmanFilterBLAS::computeHP Pages: 1 -->
<svg width="347pt" height="27pt"
 viewBox="0.00 0.00 347.00 27.00" xmlns="http://www.w3.org/2000/svg" xmlns:xlink="http://www.w3.org/1999/xlink">
<g id="graph0" class="graph" transform="scale(1 1) rotate(0) translate(4 23)">
<title>KalmanFilterBLAS::computeHP</title>
<!-- Node1 -->
<g id="Node000001" class="node">
<title>Node1</title>
<g id="a_Node000001"><a xlink:href="classKalmanFilterBLAS.html#af8c83020329e1df483a6720460e1be9b" target="_top" xlink:title="Compute H*P matrix product using BLAS.">
<path fill="#fff0f0" stroke="red" stroke-width="2" d="M160.67,-19C160.67,-19 6.33,-19 6.33,-19 3.17,-19 0,-15.83 0,-12.67 0,-12.67 0,-6.33 0,-6.33 0,-3.17 3.17,0 6.33,0 6.33,0 160.67,0 160.67,0 163.83,0 167,-3.17 167,-6.33 167,-6.33 167,-12.67 167,-12.67 167,-15.83 163.83,-19 160.67,-19"/>
<text text-anchor="middle" x="83.5" y="-7" font-family="Helvetica,sans-Serif" font-size="10.00">KalmanFilterBLAS::computeHP</text>
</a>
</g>
</g>
<!-- Node2 -->
<g id="Node000002" class="node">
<title>Node2</title>
<g id="a_Node000002"><a xlink:href="namespaceLapackWrapper.html#aa76c5043f8d710b83113b2680bdf5e49" target="_top" xlink:title=" ">
<path fill="#fff0f0" stroke="red" d="M332.67,-19C332.67,-19 209.33,-19 209.33,-19 206.17,-19 203,-15.83 203,-12.67 203,-12.67 203,-6.33 203,-6.33 203,-3.17 206.17,0 209.33,0 209.33,0 332.67,0 332.67,0 335.83,0 339,-3.17 339,-6.33 339,-6.33 339,-12.67 339,-12.67 339,-15.83 335.83,-19 332.67,-19"/>
<text text-anchor="middle" x="271" y="-7" font-family="Helvetica,sans-Serif" font-size="10.00">LapackWrapper::dgemm</text>
</a>
</g>
</g>
<!-- Node1&#45;&gt;Node2 -->
<g id="edge1_Node000001_Node000002" class="edge">
<title>Node1&#45;&gt;Node2</title>
<g id="a_edge1_Node000001_Node000002"><a xlink:title=" ">
<path fill="none" stroke="#63b8ff" d="M167.21,-9.5C175.66,-9.5 184.22,-9.5 192.61,-9.5"/>
<polygon fill="#63b8ff" stroke="#63b8ff" points="192.74,-13 202.74,-9.5 192.74,-6 192.74,-13"/>
</a>
</g>
</g>
</g>
</svg>
