<?xml version="1.0" encoding="UTF-8" standalone="no"?>
<!DOCTYPE svg PUBLIC "-//W3C//DTD SVG 1.1//EN"
 "http://www.w3.org/Graphics/SVG/1.1/DTD/svg11.dtd">
<!-- Generated by graphviz version 2.43.0 (0)
 -->
<!-- Title: outputOrbit Pages: 1 -->
<svg width="244pt" height="294pt"
 viewBox="0.00 0.00 244.00 294.00" xmlns="http://www.w3.org/2000/svg" xmlns:xlink="http://www.w3.org/1999/xlink">
<g id="graph0" class="graph" transform="scale(1 1) rotate(0) translate(4 290)">
<title>outputOrbit</title>
<polygon fill="white" stroke="transparent" points="-4,4 -4,-290 240,-290 240,4 -4,4"/>
<!-- Node1 -->
<g id="node1" class="node">
<title>Node1</title>
<g id="a_node1"><a xlink:title="Output orbit file compatible with the pod.">
<polygon fill="#bfbfbf" stroke="black" points="0,-133.5 0,-152.5 72,-152.5 72,-133.5 0,-133.5"/>
<text text-anchor="middle" x="36" y="-140.5" font-family="Helvetica,sans-Serif" font-size="10.00">outputOrbit</text>
</a>
</g>
</g>
<!-- Node2 -->
<g id="node2" class="node">
<title>Node2</title>
<g id="a_node2"><a xlink:href="gTime_8cpp.html#abc73cf336f9fa1b3622c933d5925e073" target="_top" xlink:title=" ">
<polygon fill="white" stroke="black" points="144,-266.5 144,-285.5 200,-285.5 200,-266.5 144,-266.5"/>
<text text-anchor="middle" x="172" y="-273.5" font-family="Helvetica,sans-Serif" font-size="10.00">timeGet</text>
</a>
</g>
</g>
<!-- Node1&#45;&gt;Node2 -->
<g id="edge1" class="edge">
<title>Node1&#45;&gt;Node2</title>
<path fill="none" stroke="midnightblue" d="M40.27,-152.58C48.24,-174.48 70.79,-228.51 108,-257 118.34,-264.92 131.97,-269.55 143.9,-272.25"/>
</g>
<!-- Node3 -->
<g id="node3" class="node">
<title>Node3</title>
<g id="a_node3"><a xlink:href="trace_8cpp.html#ae00e6addd3bdf3a7fd41a254eb9aec89" target="_top" xlink:title=" ">
<polygon fill="white" stroke="black" points="136.5,-228.5 136.5,-247.5 207.5,-247.5 207.5,-228.5 136.5,-228.5"/>
<text text-anchor="middle" x="172" y="-235.5" font-family="Helvetica,sans-Serif" font-size="10.00">tracepdeex</text>
</a>
</g>
</g>
<!-- Node1&#45;&gt;Node3 -->
<g id="edge2" class="edge">
<title>Node1&#45;&gt;Node3</title>
<path fill="none" stroke="midnightblue" d="M43.44,-152.7C54.66,-168.84 79.32,-201.17 108,-219 116.54,-224.31 126.65,-228.21 136.25,-231.05"/>
</g>
<!-- Node4 -->
<g id="node4" class="node">
<title>Node4</title>
<g id="a_node4"><a xlink:href="peaCommitStrings_8cpp.html#a7b85d404d14d148d2aee13c900420a07" target="_top" xlink:title=" ">
<polygon fill="white" stroke="black" points="112.5,-190.5 112.5,-209.5 231.5,-209.5 231.5,-190.5 112.5,-190.5"/>
<text text-anchor="middle" x="172" y="-197.5" font-family="Helvetica,sans-Serif" font-size="10.00">ginanCommitVersion</text>
</a>
</g>
</g>
<!-- Node1&#45;&gt;Node4 -->
<g id="edge3" class="edge">
<title>Node1&#45;&gt;Node4</title>
<path fill="none" stroke="midnightblue" d="M52.63,-152.53C66.73,-160.85 88.23,-172.82 108,-181 116.55,-184.54 126,-187.74 134.92,-190.46"/>
</g>
<!-- Node5 -->
<g id="node5" class="node">
<title>Node5</title>
<g id="a_node5"><a xlink:href="structGTime.html#a98fdbaaec5a132a7e694f28b4f1907cb" target="_top" xlink:title=" ">
<polygon fill="white" stroke="black" points="123.5,-152.5 123.5,-171.5 220.5,-171.5 220.5,-152.5 123.5,-152.5"/>
<text text-anchor="middle" x="172" y="-159.5" font-family="Helvetica,sans-Serif" font-size="10.00">GTime::to_string</text>
</a>
</g>
</g>
<!-- Node1&#45;&gt;Node5 -->
<g id="edge4" class="edge">
<title>Node1&#45;&gt;Node5</title>
<path fill="none" stroke="midnightblue" d="M72.21,-147.99C87.87,-150.21 106.55,-152.86 123.43,-155.26"/>
</g>
<!-- Node6 -->
<g id="node6" class="node">
<title>Node6</title>
<g id="a_node6"><a xlink:href="structKFState.html#a405c50a3085d8328e81dcd6786f775d3" target="_top" xlink:title="Returns the value and variance of a state within the kalman filter object.">
<polygon fill="white" stroke="black" points="113.5,-114.5 113.5,-133.5 230.5,-133.5 230.5,-114.5 113.5,-114.5"/>
<text text-anchor="middle" x="172" y="-121.5" font-family="Helvetica,sans-Serif" font-size="10.00">KFState::getKFValue</text>
</a>
</g>
</g>
<!-- Node1&#45;&gt;Node6 -->
<g id="edge5" class="edge">
<title>Node1&#45;&gt;Node6</title>
<path fill="none" stroke="midnightblue" d="M72.21,-138.01C84.85,-136.22 99.45,-134.15 113.49,-132.15"/>
</g>
<!-- Node7 -->
<g id="node7" class="node">
<title>Node7</title>
<g id="a_node7"><a xlink:href="structMjDateTT.html#a59bc0eb943a43f7f024329249a73c2bb" target="_top" xlink:title=" ">
<polygon fill="white" stroke="black" points="113.5,-76.5 113.5,-95.5 230.5,-95.5 230.5,-76.5 113.5,-76.5"/>
<text text-anchor="middle" x="172" y="-83.5" font-family="Helvetica,sans-Serif" font-size="10.00">MjDateTT::to_double</text>
</a>
</g>
</g>
<!-- Node1&#45;&gt;Node7 -->
<g id="edge6" class="edge">
<title>Node1&#45;&gt;Node7</title>
<path fill="none" stroke="midnightblue" d="M52.63,-133.47C66.73,-125.15 88.23,-113.18 108,-105 116.55,-101.46 126,-98.26 134.92,-95.54"/>
</g>
<!-- Node8 -->
<g id="node8" class="node">
<title>Node8</title>
<g id="a_node8"><a xlink:href="structACSConfig.html#aeba33c340b4695e47f2d41bf97402400" target="_top" xlink:title="Set satellite options for a specific satellite using a hierarchy of sources.">
<polygon fill="white" stroke="red" points="108,-38.5 108,-57.5 236,-57.5 236,-38.5 108,-38.5"/>
<text text-anchor="middle" x="172" y="-45.5" font-family="Helvetica,sans-Serif" font-size="10.00">ACSConfig::getSatOpts</text>
</a>
</g>
</g>
<!-- Node1&#45;&gt;Node8 -->
<g id="edge7" class="edge">
<title>Node1&#45;&gt;Node8</title>
<path fill="none" stroke="midnightblue" d="M43.44,-133.3C54.66,-117.16 79.32,-84.83 108,-67 114.21,-63.14 121.25,-60.02 128.32,-57.52"/>
</g>
<!-- Node26 -->
<g id="node9" class="node">
<title>Node26</title>
<g id="a_node9"><a xlink:href="algebra_8cpp.html#a304f0d512353a3c5a991c2439ea73287" target="_top" xlink:title=" ">
<polygon fill="white" stroke="black" points="109,-0.5 109,-19.5 235,-19.5 235,-0.5 109,-0.5"/>
<text text-anchor="middle" x="172" y="-7.5" font-family="Helvetica,sans-Serif" font-size="10.00">initialStateFromConfig</text>
</a>
</g>
</g>
<!-- Node1&#45;&gt;Node26 -->
<g id="edge8" class="edge">
<title>Node1&#45;&gt;Node26</title>
<path fill="none" stroke="midnightblue" d="M40.27,-133.42C48.24,-111.52 70.79,-57.49 108,-29 113.08,-25.11 118.95,-22.01 125.03,-19.55"/>
</g>
</g>
</svg>
