<?xml version="1.0" encoding="UTF-8" standalone="no"?>
<!DOCTYPE svg PUBLIC "-//W3C//DTD SVG 1.1//EN"
 "http://www.w3.org/Graphics/SVG/1.1/DTD/svg11.dtd">
<!-- Generated by graphviz version 2.43.0 (0)
 -->
<!-- Title: satFreqs Pages: 1 -->
<svg width="448pt" height="785pt"
 viewBox="0.00 0.00 448.00 784.78" xmlns="http://www.w3.org/2000/svg" xmlns:xlink="http://www.w3.org/1999/xlink">
<g id="graph0" class="graph" transform="scale(1 1) rotate(0) translate(4 780.78)">
<title>satFreqs</title>
<polygon fill="white" stroke="transparent" points="-4,4 -4,-780.78 444,-780.78 444,4 -4,4"/>
<!-- Node1 -->
<g id="node1" class="node">
<title>Node1</title>
<g id="a_node1"><a xlink:title=" ">
<polygon fill="#bfbfbf" stroke="black" points="382,-377.28 382,-396.28 440,-396.28 440,-377.28 382,-377.28"/>
<text text-anchor="middle" x="411" y="-384.28" font-family="Helvetica,sans-Serif" font-size="10.00">satFreqs</text>
</a>
</g>
</g>
<!-- Node2 -->
<g id="node2" class="node">
<title>Node2</title>
<g id="a_node2"><a xlink:href="acsQC_8cpp.html#a0d2d4fd45a0cdf961784d89cc132442e" target="_top" xlink:title="Detect cycle slip by geometry free phase jump.">
<polygon fill="white" stroke="red" points="252.5,-757.28 252.5,-776.28 314.5,-776.28 314.5,-757.28 252.5,-757.28"/>
<text text-anchor="middle" x="283.5" y="-764.28" font-family="Helvetica,sans-Serif" font-size="10.00">detslp_gf</text>
</a>
</g>
</g>
<!-- Node1&#45;&gt;Node2 -->
<g id="edge1" class="edge">
<title>Node1&#45;&gt;Node2</title>
<path fill="none" stroke="midnightblue" d="M409.61,-396.5C407.33,-448.46 394.13,-693.27 346,-747.78 338.09,-756.75 326.04,-761.54 314.71,-764.07"/>
</g>
<!-- Node7 -->
<g id="node3" class="node">
<title>Node7</title>
<g id="a_node3"><a xlink:href="GinARoutpt_8cpp.html#a4a9a23daa35a468751d90cbf24933f77" target="_top" xlink:title="Querry Ginan 1.0 AR algorithms for phase biases, it does not check for specific codes just carrier fr...">
<polygon fill="white" stroke="red" points="237,-719.28 237,-738.28 330,-738.28 330,-719.28 237,-719.28"/>
<text text-anchor="middle" x="283.5" y="-726.28" font-family="Helvetica,sans-Serif" font-size="10.00">queryBiasWLNL</text>
</a>
</g>
</g>
<!-- Node1&#45;&gt;Node7 -->
<g id="edge2" class="edge">
<title>Node1&#45;&gt;Node7</title>
<path fill="none" stroke="midnightblue" d="M409.39,-396.42C406.16,-444.9 389.43,-661.58 346,-709.78 341.66,-714.6 336.13,-718.21 330.17,-720.91"/>
</g>
<!-- Node20 -->
<g id="node4" class="node">
<title>Node20</title>
<g id="a_node4"><a xlink:href="ppp__network_8cpp.html#a1986299316c605c9c72b50a2f9c6c524" target="_top" xlink:title="PPP observed&#45;minus&#45;computed.">
<polygon fill="white" stroke="red" points="255.5,-681.28 255.5,-700.28 311.5,-700.28 311.5,-681.28 255.5,-681.28"/>
<text text-anchor="middle" x="283.5" y="-688.28" font-family="Helvetica,sans-Serif" font-size="10.00">pppomc</text>
</a>
</g>
</g>
<!-- Node1&#45;&gt;Node20 -->
<g id="edge3" class="edge">
<title>Node1&#45;&gt;Node20</title>
<path fill="none" stroke="midnightblue" d="M408.99,-396.53C404.22,-441.02 382.56,-624.4 346,-666.78 337.32,-676.85 323.88,-682.72 311.77,-686.13"/>
</g>
<!-- Node21 -->
<g id="node5" class="node">
<title>Node21</title>
<g id="a_node5"><a xlink:href="acsQC_8cpp.html#a7b37fc255c80330a5497de5bee8f2dbb" target="_top" xlink:title="Cycle slip detection and repair.">
<polygon fill="white" stroke="red" points="0,-377.28 0,-396.28 65,-396.28 65,-377.28 0,-377.28"/>
<text text-anchor="middle" x="32.5" y="-384.28" font-family="Helvetica,sans-Serif" font-size="10.00">detectslip</text>
</a>
</g>
</g>
<!-- Node1&#45;&gt;Node21 -->
<g id="edge4" class="edge">
<title>Node1&#45;&gt;Node21</title>
<path fill="none" stroke="midnightblue" d="M408.91,-396.29C404.09,-436.58 383.25,-592.35 346,-620.78 259.42,-686.87 186.61,-682.12 101,-614.78 65.06,-586.52 40.78,-436.48 34.89,-396.55"/>
</g>
<!-- Node22 -->
<g id="node6" class="node">
<title>Node22</title>
<g id="a_node6"><a xlink:href="GinARNLamb_8cpp.html#a150b7e4a892320cadb8bfd4c813a1aca" target="_top" xlink:title="Update float ambiguity estimates.">
<polygon fill="white" stroke="red" points="101,-586.28 101,-605.28 185,-605.28 185,-586.28 101,-586.28"/>
<text text-anchor="middle" x="143" y="-593.28" font-family="Helvetica,sans-Serif" font-size="10.00">updat_ambigt</text>
</a>
</g>
</g>
<!-- Node1&#45;&gt;Node22 -->
<g id="edge5" class="edge">
<title>Node1&#45;&gt;Node22</title>
<path fill="none" stroke="midnightblue" d="M410.61,-396.45C412.16,-430.69 412.21,-546.82 346,-595.78 294.68,-633.74 214.24,-617.72 172.01,-605.3"/>
</g>
<!-- Node25 -->
<g id="node7" class="node">
<title>Node25</title>
<g id="a_node7"><a xlink:href="GinARNLamb_8cpp.html#ac4b99b950a4d40abefe99b35c1142570" target="_top" xlink:title="Check Z&#45;transformed ambiguities and remove old entries.">
<polygon fill="white" stroke="black" points="253.5,-567.28 253.5,-586.28 313.5,-586.28 313.5,-567.28 253.5,-567.28"/>
<text text-anchor="middle" x="283.5" y="-574.28" font-family="Helvetica,sans-Serif" font-size="10.00">chk_arch</text>
</a>
</g>
</g>
<!-- Node1&#45;&gt;Node25 -->
<g id="edge6" class="edge">
<title>Node1&#45;&gt;Node25</title>
<path fill="none" stroke="midnightblue" d="M409.27,-396.52C406.58,-425.48 394.66,-511.89 346,-557.78 337.22,-566.06 324.9,-570.74 313.59,-573.38"/>
</g>
<!-- Node26 -->
<g id="node8" class="node">
<title>Node26</title>
<g id="a_node8"><a xlink:href="GinAR__main_8cpp.html#a90ca3b7d9275de28b4517643f990ad39" target="_top" xlink:title="Loading configuration options from acsConfig.">
<polygon fill="white" stroke="red" points="231.5,-529.28 231.5,-548.28 335.5,-548.28 335.5,-529.28 231.5,-529.28"/>
<text text-anchor="middle" x="283.5" y="-536.28" font-family="Helvetica,sans-Serif" font-size="10.00">config_AmbigResl</text>
</a>
</g>
</g>
<!-- Node1&#45;&gt;Node26 -->
<g id="edge8" class="edge">
<title>Node1&#45;&gt;Node26</title>
<path fill="none" stroke="midnightblue" d="M408.13,-396.43C402.9,-420.84 385.8,-485.5 346,-519.78 341.51,-523.65 336.25,-526.73 330.72,-529.18"/>
</g>
<!-- Node27 -->
<g id="node9" class="node">
<title>Node27</title>
<g id="a_node9"><a xlink:href="linearCombo_8cpp.html#a0c10f0392343a1e3d46c30eea8db481f" target="_top" xlink:title="Function to prepare some predefined linear combinations from an observation.">
<polygon fill="white" stroke="red" points="259.5,-491.28 259.5,-510.28 307.5,-510.28 307.5,-491.28 259.5,-491.28"/>
<text text-anchor="middle" x="283.5" y="-498.28" font-family="Helvetica,sans-Serif" font-size="10.00">obs2lc</text>
</a>
</g>
</g>
<!-- Node1&#45;&gt;Node27 -->
<g id="edge9" class="edge">
<title>Node1&#45;&gt;Node27</title>
<path fill="none" stroke="midnightblue" d="M405.58,-396.32C396.74,-414.43 375.18,-454.03 346,-476.78 334.79,-485.52 320.01,-491.43 307.75,-495.19"/>
</g>
<!-- Node29 -->
<g id="node10" class="node">
<title>Node29</title>
<g id="a_node10"><a xlink:href="acsQC_8cpp.html#a5278f59e23c92b2a1912d5dde5e2f809" target="_top" xlink:title="Cycle slip detection and repair for triple&#45;frequency.">
<polygon fill="white" stroke="black" points="110.5,-339.28 110.5,-358.28 175.5,-358.28 175.5,-339.28 110.5,-339.28"/>
<text text-anchor="middle" x="143" y="-346.28" font-family="Helvetica,sans-Serif" font-size="10.00">cycleslip3</text>
</a>
</g>
</g>
<!-- Node1&#45;&gt;Node29 -->
<g id="edge10" class="edge">
<title>Node1&#45;&gt;Node29</title>
<path fill="none" stroke="midnightblue" d="M403.05,-396.35C392.5,-409.94 371.03,-434.25 346,-443.78 294.08,-463.55 267.95,-473.49 221,-443.78 189.42,-423.8 211.54,-394.1 185,-367.78 181.21,-364.03 176.54,-360.92 171.73,-358.4"/>
</g>
<!-- Node30 -->
<g id="node11" class="node">
<title>Node30</title>
<g id="a_node11"><a xlink:href="spp_8cpp.html#a969f0b76792e91191b8b397ee609ae91" target="_top" xlink:title="Calculate pseudorange with code bias correction.">
<polygon fill="white" stroke="red" points="258.5,-415.28 258.5,-434.28 308.5,-434.28 308.5,-415.28 258.5,-415.28"/>
<text text-anchor="middle" x="283.5" y="-422.28" font-family="Helvetica,sans-Serif" font-size="10.00">prange</text>
</a>
</g>
</g>
<!-- Node1&#45;&gt;Node30 -->
<g id="edge12" class="edge">
<title>Node1&#45;&gt;Node30</title>
<path fill="none" stroke="midnightblue" d="M381.84,-395.31C359.87,-401.96 329.67,-411.11 308.76,-417.44"/>
</g>
<!-- Node34 -->
<g id="node12" class="node">
<title>Node34</title>
<g id="a_node12"><a xlink:href="acsQC_8cpp.html#a9a7675a515de2802ed917e9d32dd897d" target="_top" xlink:title="Cycle slip detection for dual&#45;frequency.">
<polygon fill="white" stroke="black" points="110.5,-377.28 110.5,-396.28 175.5,-396.28 175.5,-377.28 110.5,-377.28"/>
<text text-anchor="middle" x="143" y="-384.28" font-family="Helvetica,sans-Serif" font-size="10.00">cycleslip2</text>
</a>
</g>
</g>
<!-- Node1&#45;&gt;Node34 -->
<g id="edge13" class="edge">
<title>Node1&#45;&gt;Node34</title>
<path fill="none" stroke="midnightblue" d="M381.53,-386.78C331.41,-386.78 227.77,-386.78 175.54,-386.78"/>
</g>
<!-- Node35 -->
<g id="node13" class="node">
<title>Node35</title>
<g id="a_node13"><a xlink:href="ephPrecise_8cpp.html#ac24a7ecc232807f046a15e914b5df57f" target="_top" xlink:title="satellite antenna phase center offset in ecef">
<polygon fill="white" stroke="black" points="252,-339.28 252,-358.28 315,-358.28 315,-339.28 252,-339.28"/>
<text text-anchor="middle" x="283.5" y="-346.28" font-family="Helvetica,sans-Serif" font-size="10.00">satAntOff</text>
</a>
</g>
</g>
<!-- Node1&#45;&gt;Node35 -->
<g id="edge15" class="edge">
<title>Node1&#45;&gt;Node35</title>
<path fill="none" stroke="midnightblue" d="M381.84,-378.25C362.03,-372.26 335.55,-364.24 315.21,-358.08"/>
</g>
<!-- Node36 -->
<g id="node14" class="node">
<title>Node36</title>
<g id="a_node14"><a xlink:href="ephemeris_8cpp.html#a86b1602f8ee3a6b7220b506825592953" target="_top" xlink:title="compute satellite position and clock satellite clock does not include code bias correction (tgd or bg...">
<polygon fill="white" stroke="red" points="118.5,-206.28 118.5,-225.28 167.5,-225.28 167.5,-206.28 118.5,-206.28"/>
<text text-anchor="middle" x="143" y="-213.28" font-family="Helvetica,sans-Serif" font-size="10.00">satpos</text>
</a>
</g>
</g>
<!-- Node1&#45;&gt;Node36 -->
<g id="edge24" class="edge">
<title>Node1&#45;&gt;Node36</title>
<path fill="none" stroke="midnightblue" d="M409.03,-377.03C404.63,-335 385.06,-170.01 346,-139.78 302.06,-105.78 272.4,-118.69 221,-139.78 187.81,-153.4 161.28,-189 149.95,-206.21"/>
</g>
<!-- Node53 -->
<g id="node15" class="node">
<title>Node53</title>
<g id="a_node15"><a xlink:href="acsQC_8cpp.html#a36663ab87649ee3624e072af7fec6409" target="_top" xlink:title="Detect slip by Melbourne&#45;Wubbena linear combination jump.">
<polygon fill="white" stroke="red" points="248.5,-301.28 248.5,-320.28 318.5,-320.28 318.5,-301.28 248.5,-301.28"/>
<text text-anchor="middle" x="283.5" y="-308.28" font-family="Helvetica,sans-Serif" font-size="10.00">detslp_mw</text>
</a>
</g>
</g>
<!-- Node1&#45;&gt;Node53 -->
<g id="edge17" class="edge">
<title>Node1&#45;&gt;Node53</title>
<path fill="none" stroke="midnightblue" d="M401.45,-376.9C390.01,-364.26 368.55,-342.5 346,-329.78 337.63,-325.06 327.94,-321.37 318.77,-318.54"/>
</g>
<!-- Node54 -->
<g id="node16" class="node">
<title>Node54</title>
<g id="a_node16"><a xlink:href="GinARoutpt_8cpp.html#ac899b04de8df209c6b867571e95b26eb" target="_top" xlink:title="Export AR Ionosphere measurments.">
<polygon fill="white" stroke="red" points="255,-263.28 255,-282.28 312,-282.28 312,-263.28 255,-263.28"/>
<text text-anchor="middle" x="283.5" y="-270.28" font-family="Helvetica,sans-Serif" font-size="10.00">arionout</text>
</a>
</g>
</g>
<!-- Node1&#45;&gt;Node54 -->
<g id="edge18" class="edge">
<title>Node1&#45;&gt;Node54</title>
<path fill="none" stroke="midnightblue" d="M406.13,-377.11C397.97,-357.92 377.13,-314.9 346,-291.78 336.13,-284.45 323.39,-279.91 312.06,-277.12"/>
</g>
<!-- Node55 -->
<g id="node17" class="node">
<title>Node55</title>
<g id="a_node17"><a xlink:href="GinAR__main_8cpp.html#a48fa415df652066004129736fa989e44" target="_top" xlink:title="Loading float ambiguity data from KF.">
<polygon fill="white" stroke="red" points="245,-225.28 245,-244.28 322,-244.28 322,-225.28 245,-225.28"/>
<text text-anchor="middle" x="283.5" y="-232.28" font-family="Helvetica,sans-Serif" font-size="10.00">LoadFromFlt</text>
</a>
</g>
</g>
<!-- Node1&#45;&gt;Node55 -->
<g id="edge19" class="edge">
<title>Node1&#45;&gt;Node55</title>
<path fill="none" stroke="midnightblue" d="M408.13,-377.13C402.9,-352.73 385.8,-288.06 346,-253.78 339.23,-247.95 330.68,-243.91 322.13,-241.1"/>
</g>
<!-- Node56 -->
<g id="node18" class="node">
<title>Node56</title>
<g id="a_node18"><a xlink:href="acsQC_8cpp.html#a501b956d22444b573a8867d87ad590d5" target="_top" xlink:title="Single channel detection–identification–adaptation (DIA) for integer cycle slips.">
<polygon fill="white" stroke="black" points="262.5,-187.28 262.5,-206.28 304.5,-206.28 304.5,-187.28 262.5,-187.28"/>
<text text-anchor="middle" x="283.5" y="-194.28" font-family="Helvetica,sans-Serif" font-size="10.00">scdia</text>
</a>
</g>
</g>
<!-- Node1&#45;&gt;Node56 -->
<g id="edge20" class="edge">
<title>Node1&#45;&gt;Node56</title>
<path fill="none" stroke="midnightblue" d="M409.27,-377.04C406.58,-348.08 394.66,-261.67 346,-215.78 334.78,-205.2 317.79,-200.51 304.5,-198.43"/>
</g>
<!-- Node57 -->
<g id="node19" class="node">
<title>Node57</title>
<g id="a_node19"><a xlink:href="GinAR__main_8cpp.html#a98a969d6cdd26958e34a6b36613987ac" target="_top" xlink:title="Loading float ambiguity data from Observations (WL, cycle slip &amp; elevation)">
<polygon fill="white" stroke="red" points="242,-149.28 242,-168.28 325,-168.28 325,-149.28 242,-149.28"/>
<text text-anchor="middle" x="283.5" y="-156.28" font-family="Helvetica,sans-Serif" font-size="10.00">LoadFromObs</text>
</a>
</g>
</g>
<!-- Node1&#45;&gt;Node57 -->
<g id="edge23" class="edge">
<title>Node1&#45;&gt;Node57</title>
<path fill="none" stroke="midnightblue" d="M410.03,-376.86C409.6,-343.7 403.62,-235.55 346,-177.78 340.24,-172.01 332.76,-167.98 325.02,-165.17"/>
</g>
<!-- Node58 -->
<g id="node20" class="node">
<title>Node58</title>
<g id="a_node20"><a xlink:href="ionoMeas_8cpp.html#ae1cb9ea2aa583c7c0745a8d788253889" target="_top" xlink:title=" ">
<polygon fill="white" stroke="red" points="221,-73.28 221,-92.28 346,-92.28 346,-73.28 221,-73.28"/>
<text text-anchor="middle" x="283.5" y="-80.28" font-family="Helvetica,sans-Serif" font-size="10.00">update_receivr_measr</text>
</a>
</g>
</g>
<!-- Node1&#45;&gt;Node58 -->
<g id="edge25" class="edge">
<title>Node1&#45;&gt;Node58</title>
<path fill="none" stroke="midnightblue" d="M408.99,-377.03C404.22,-332.55 382.56,-149.17 346,-106.78 340.54,-100.45 333.19,-95.77 325.47,-92.33"/>
</g>
<!-- Node59 -->
<g id="node21" class="node">
<title>Node59</title>
<g id="a_node21"><a xlink:href="ppp__user_8cpp.html#a123a4552194f4fd53016c9609a867d17" target="_top" xlink:title=" ">
<polygon fill="white" stroke="black" points="247.5,-35.28 247.5,-54.28 319.5,-54.28 319.5,-35.28 247.5,-35.28"/>
<text text-anchor="middle" x="283.5" y="-42.28" font-family="Helvetica,sans-Serif" font-size="10.00">udbias_ppp</text>
</a>
</g>
</g>
<!-- Node1&#45;&gt;Node59 -->
<g id="edge26" class="edge">
<title>Node1&#45;&gt;Node59</title>
<path fill="none" stroke="midnightblue" d="M409.39,-377.14C406.16,-328.67 389.43,-111.99 346,-63.78 339.19,-56.23 329.45,-51.64 319.73,-48.87"/>
</g>
<!-- Node40 -->
<g id="node22" class="node">
<title>Node40</title>
<g id="a_node22"><a xlink:href="ppp__user_8cpp.html#a36a79c2aba8e8ad20aa9616988ec3269" target="_top" xlink:title=" ">
<polygon fill="white" stroke="red" points="111.5,-16.28 111.5,-35.28 174.5,-35.28 174.5,-16.28 111.5,-16.28"/>
<text text-anchor="middle" x="143" y="-23.28" font-family="Helvetica,sans-Serif" font-size="10.00">ppp_filter</text>
</a>
</g>
</g>
<!-- Node1&#45;&gt;Node40 -->
<g id="edge28" class="edge">
<title>Node1&#45;&gt;Node40</title>
<path fill="none" stroke="midnightblue" d="M409.88,-377.14C408.99,-324.53 401.85,-72.6 346,-25.78 296.15,16.01 212.48,-2.76 170.18,-16.27"/>
</g>
<!-- Node25&#45;&gt;Node22 -->
<g id="edge7" class="edge">
<title>Node25&#45;&gt;Node22</title>
<path fill="none" stroke="midnightblue" d="M253.47,-580.77C233.64,-583.49 207.07,-587.13 185.08,-590.15"/>
</g>
<!-- Node29&#45;&gt;Node21 -->
<g id="edge11" class="edge">
<title>Node29&#45;&gt;Node21</title>
<path fill="none" stroke="midnightblue" d="M114.62,-358.37C98.17,-364.13 77.32,-371.44 60.87,-377.2"/>
</g>
<!-- Node34&#45;&gt;Node21 -->
<g id="edge14" class="edge">
<title>Node34&#45;&gt;Node21</title>
<path fill="none" stroke="midnightblue" d="M110.33,-386.78C96.06,-386.78 79.27,-386.78 65.03,-386.78"/>
</g>
<!-- Node35&#45;&gt;Node36 -->
<g id="edge16" class="edge">
<title>Node35&#45;&gt;Node36</title>
<path fill="none" stroke="midnightblue" d="M251.82,-343.63C241.32,-340.8 229.98,-336.44 221,-329.78 182.44,-301.18 156.96,-247.22 147.8,-225.35"/>
</g>
<!-- Node56&#45;&gt;Node29 -->
<g id="edge22" class="edge">
<title>Node56&#45;&gt;Node29</title>
<path fill="none" stroke="midnightblue" d="M262.46,-199.15C249.5,-201.54 232.89,-206.31 221,-215.78 178.22,-249.87 154.58,-314.65 146.86,-339.11"/>
</g>
<!-- Node56&#45;&gt;Node34 -->
<g id="edge21" class="edge">
<title>Node56&#45;&gt;Node34</title>
<path fill="none" stroke="midnightblue" d="M262.35,-197.95C248.83,-199.81 231.61,-204.44 221,-215.78 173.58,-266.49 228.91,-314.01 185,-367.78 181.92,-371.55 177.93,-374.61 173.65,-377.08"/>
</g>
<!-- Node59&#45;&gt;Node40 -->
<g id="edge27" class="edge">
<title>Node59&#45;&gt;Node40</title>
<path fill="none" stroke="midnightblue" d="M247.19,-39.94C224.75,-36.86 195.99,-32.92 174.54,-29.97"/>
</g>
</g>
</svg>
