<?xml version="1.0" encoding="UTF-8" standalone="no"?>
<!DOCTYPE svg PUBLIC "-//W3C//DTD SVG 1.1//EN"
 "http://www.w3.org/Graphics/SVG/1.1/DTD/svg11.dtd">
<!-- Generated by graphviz version 2.43.0 (0)
 -->
<!-- Title: setbitsInc Pages: 1 -->
<svg width="275pt" height="104pt"
 viewBox="0.00 0.00 275.00 104.00" xmlns="http://www.w3.org/2000/svg" xmlns:xlink="http://www.w3.org/1999/xlink">
<g id="graph0" class="graph" transform="scale(1 1) rotate(0) translate(4 100)">
<title>setbitsInc</title>
<polygon fill="white" stroke="transparent" points="-4,4 -4,-100 271,-100 271,4 -4,4"/>
<!-- Node1 -->
<g id="node1" class="node">
<title>Node1</title>
<g id="a_node1"><a xlink:title=" ">
<polygon fill="#bfbfbf" stroke="black" points="203,-38.5 203,-57.5 267,-57.5 267,-38.5 203,-38.5"/>
<text text-anchor="middle" x="235" y="-45.5" font-family="Helvetica,sans-Serif" font-size="10.00">setbitsInc</text>
</a>
</g>
</g>
<!-- Node2 -->
<g id="node2" class="node">
<title>Node2</title>
<g id="a_node2"><a xlink:href="structRtcmEncoder.html#af1c137bc7d09727b2a6f6ec350586fbc" target="_top" xlink:title=" ">
<polygon fill="white" stroke="red" points="0.5,-76.5 0.5,-95.5 166.5,-95.5 166.5,-76.5 0.5,-76.5"/>
<text text-anchor="middle" x="83.5" y="-83.5" font-family="Helvetica,sans-Serif" font-size="10.00">RtcmEncoder::encodeSsrComb</text>
</a>
</g>
</g>
<!-- Node1&#45;&gt;Node2 -->
<g id="edge1" class="edge">
<title>Node1&#45;&gt;Node2</title>
<path fill="none" stroke="midnightblue" d="M202.73,-57.22C191.5,-60.44 178.71,-63.99 167,-67 154.33,-70.25 140.5,-73.54 127.84,-76.45"/>
</g>
<!-- Node6 -->
<g id="node3" class="node">
<title>Node6</title>
<g id="a_node3"><a xlink:href="structRtcmEncoder.html#ac2fbfa6dd6b80b00caa82f7e04366ffd" target="_top" xlink:title=" ">
<polygon fill="white" stroke="red" points="0,-38.5 0,-57.5 167,-57.5 167,-38.5 0,-38.5"/>
<text text-anchor="middle" x="83.5" y="-45.5" font-family="Helvetica,sans-Serif" font-size="10.00">RtcmEncoder::encodeSsrPhase</text>
</a>
</g>
</g>
<!-- Node1&#45;&gt;Node6 -->
<g id="edge2" class="edge">
<title>Node1&#45;&gt;Node6</title>
<path fill="none" stroke="midnightblue" d="M202.66,-48C192.13,-48 179.84,-48 167.24,-48"/>
</g>
<!-- Node7 -->
<g id="node4" class="node">
<title>Node7</title>
<g id="a_node4"><a xlink:href="structRtcmEncoder.html#a4730e3ba96b43e644eaf0b3547287f4e" target="_top" xlink:title=" ">
<polygon fill="white" stroke="red" points="2.5,-0.5 2.5,-19.5 164.5,-19.5 164.5,-0.5 2.5,-0.5"/>
<text text-anchor="middle" x="83.5" y="-7.5" font-family="Helvetica,sans-Serif" font-size="10.00">RtcmEncoder::encodeSsrCode</text>
</a>
</g>
</g>
<!-- Node1&#45;&gt;Node7 -->
<g id="edge3" class="edge">
<title>Node1&#45;&gt;Node7</title>
<path fill="none" stroke="midnightblue" d="M202.73,-38.78C191.5,-35.56 178.71,-32.01 167,-29 154.33,-25.75 140.5,-22.46 127.84,-19.55"/>
</g>
</g>
</svg>
