<?xml version="1.0" encoding="UTF-8" standalone="no"?>
<!DOCTYPE svg PUBLIC "-//W3C//DTD SVG 1.1//EN"
 "http://www.w3.org/Graphics/SVG/1.1/DTD/svg11.dtd">
<!-- Generated by graphviz version 2.43.0 (0)
 -->
<!-- Title: compareOrbits Pages: 1 -->
<svg width="429pt" height="442pt"
 viewBox="0.00 0.00 429.00 442.09" xmlns="http://www.w3.org/2000/svg" xmlns:xlink="http://www.w3.org/1999/xlink">
<g id="graph0" class="graph" transform="scale(1 1) rotate(0) translate(4 438.09)">
<title>compareOrbits</title>
<polygon fill="white" stroke="transparent" points="-4,4 -4,-438.09 425,-438.09 425,4 -4,4"/>
<!-- Node1 -->
<g id="node1" class="node">
<title>Node1</title>
<g id="a_node1"><a xlink:title=" ">
<polygon fill="#bfbfbf" stroke="black" points="0,-205.59 0,-224.59 89,-224.59 89,-205.59 0,-205.59"/>
<text text-anchor="middle" x="44.5" y="-212.59" font-family="Helvetica,sans-Serif" font-size="10.00">compareOrbits</text>
</a>
</g>
</g>
<!-- Node2 -->
<g id="node2" class="node">
<title>Node2</title>
<g id="a_node2"><a xlink:href="gTime_8cpp.html#abd3e80e328e3d4afed1001aa34ca9d16" target="_top" xlink:title="Returns (posix) for current epoch.">
<polygon fill="white" stroke="red" points="140.5,-414.59 140.5,-433.59 237.5,-433.59 237.5,-414.59 140.5,-414.59"/>
<text text-anchor="middle" x="189" y="-421.59" font-family="Helvetica,sans-Serif" font-size="10.00">currentLogptime</text>
</a>
</g>
</g>
<!-- Node1&#45;&gt;Node2 -->
<g id="edge1" class="edge">
<title>Node1&#45;&gt;Node2</title>
<path fill="none" stroke="midnightblue" d="M46.63,-224.62C50.8,-255.51 68.17,-353.85 125,-405.09 126.97,-406.86 129.1,-408.47 131.34,-409.93"/>
<polygon fill="midnightblue" stroke="midnightblue" points="130,-413.19 140.47,-414.85 133.32,-407.02 130,-413.19"/>
</g>
<!-- Node5 -->
<g id="node3" class="node">
<title>Node5</title>
<g id="a_node3"><a xlink:href="main_8cpp.html#a2206cd179576b10f99dbe50e8e7ddc5a" target="_top" xlink:title="Create directories if required.">
<polygon fill="white" stroke="red" points="138.5,-376.59 138.5,-395.59 239.5,-395.59 239.5,-376.59 138.5,-376.59"/>
<text text-anchor="middle" x="189" y="-383.59" font-family="Helvetica,sans-Serif" font-size="10.00">createDirectories</text>
</a>
</g>
</g>
<!-- Node1&#45;&gt;Node5 -->
<g id="edge2" class="edge">
<title>Node1&#45;&gt;Node5</title>
<path fill="none" stroke="midnightblue" d="M47.8,-224.96C54.62,-251.95 77.26,-327.62 125,-367.09 127.04,-368.78 129.23,-370.32 131.52,-371.72"/>
<polygon fill="midnightblue" stroke="midnightblue" points="130.29,-375.02 140.79,-376.48 133.49,-368.79 130.29,-375.02"/>
</g>
<!-- Node8 -->
<g id="node4" class="node">
<title>Node8</title>
<g id="a_node4"><a xlink:href="trace_8cpp.html#a7eec1631c0092ac9e6c3222345cd3601" target="_top" xlink:title=" ">
<polygon fill="white" stroke="red" points="133,-338.59 133,-357.59 245,-357.59 245,-338.59 133,-338.59"/>
<text text-anchor="middle" x="189" y="-345.59" font-family="Helvetica,sans-Serif" font-size="10.00">createNewTraceFile</text>
</a>
</g>
</g>
<!-- Node1&#45;&gt;Node8 -->
<g id="edge3" class="edge">
<title>Node1&#45;&gt;Node8</title>
<path fill="none" stroke="midnightblue" d="M49.49,-224.67C59.12,-246.58 85.74,-300.62 125,-329.09 127.68,-331.04 130.56,-332.78 133.57,-334.35"/>
<polygon fill="midnightblue" stroke="midnightblue" points="132.31,-337.63 142.86,-338.56 135.19,-331.25 132.31,-337.63"/>
</g>
<!-- Node11 -->
<g id="node5" class="node">
<title>Node11</title>
<g id="a_node5"><a xlink:href="trace_8hpp.html#af5320371d0f15d74154b2b32d315684d" target="_top" xlink:title=" ">
<polygon fill="white" stroke="black" points="151.5,-300.59 151.5,-319.59 226.5,-319.59 226.5,-300.59 151.5,-300.59"/>
<text text-anchor="middle" x="189" y="-307.59" font-family="Helvetica,sans-Serif" font-size="10.00">getTraceFile</text>
</a>
</g>
</g>
<!-- Node1&#45;&gt;Node11 -->
<g id="edge4" class="edge">
<title>Node1&#45;&gt;Node11</title>
<path fill="none" stroke="midnightblue" d="M52.99,-224.76C65.95,-240.84 94.15,-273.1 125,-291.09 130.18,-294.11 135.89,-296.7 141.69,-298.89"/>
<polygon fill="midnightblue" stroke="midnightblue" points="140.87,-302.31 151.47,-302.23 143.13,-295.69 140.87,-302.31"/>
</g>
<!-- Node12 -->
<g id="node6" class="node">
<title>Node12</title>
<g id="a_node6"><a xlink:href="sp3_8cpp.html#af6e0e807aea49536081f81fc9c9bb988" target="_top" xlink:title=" ">
<polygon fill="white" stroke="red" points="146,-262.59 146,-281.59 232,-281.59 232,-262.59 146,-262.59"/>
<text text-anchor="middle" x="189" y="-269.59" font-family="Helvetica,sans-Serif" font-size="10.00">readSp3ToNav</text>
</a>
</g>
</g>
<!-- Node1&#45;&gt;Node12 -->
<g id="edge5" class="edge">
<title>Node1&#45;&gt;Node12</title>
<path fill="none" stroke="midnightblue" d="M68.04,-224.66C83.92,-231.34 105.7,-240.41 125,-248.09 134.02,-251.68 143.82,-255.47 152.93,-258.94"/>
<polygon fill="midnightblue" stroke="midnightblue" points="151.9,-262.29 162.49,-262.57 154.38,-255.75 151.9,-262.29"/>
</g>
<!-- Node19 -->
<g id="node7" class="node">
<title>Node19</title>
<g id="a_node7"><a xlink:href="erp_8cpp.html#a6c6ecf3c5c7d4367d78ad08621996580" target="_top" xlink:title="Get earth rotation parameter values.">
<polygon fill="white" stroke="red" points="331,-214.59 331,-233.59 379,-233.59 379,-214.59 331,-214.59"/>
<text text-anchor="middle" x="355" y="-221.59" font-family="Helvetica,sans-Serif" font-size="10.00">getErp</text>
</a>
</g>
</g>
<!-- Node1&#45;&gt;Node19 -->
<g id="edge6" class="edge">
<title>Node1&#45;&gt;Node19</title>
<path fill="none" stroke="midnightblue" d="M89.05,-216.36C151.3,-218.18 264.41,-221.48 320.55,-223.12"/>
<polygon fill="midnightblue" stroke="midnightblue" points="320.57,-226.62 330.66,-223.41 320.77,-219.62 320.57,-226.62"/>
</g>
<!-- Node36 -->
<g id="node8" class="node">
<title>Node36</title>
<g id="a_node8"><a xlink:href="structACSConfig.html#a20ca3689eafecfa2b7e656c28e340256" target="_top" xlink:title="Set satellite options for a specific satellite using a hierarchy of sources.">
<polygon fill="white" stroke="red" points="291.5,-167.59 291.5,-186.59 418.5,-186.59 418.5,-167.59 291.5,-167.59"/>
<text text-anchor="middle" x="355" y="-174.59" font-family="Helvetica,sans-Serif" font-size="10.00">ACSConfig::getSatOpts</text>
</a>
</g>
</g>
<!-- Node1&#45;&gt;Node36 -->
<g id="edge7" class="edge">
<title>Node1&#45;&gt;Node36</title>
<path fill="none" stroke="midnightblue" d="M89.05,-209.73C138.97,-203.58 221.61,-193.4 281.33,-186.04"/>
<polygon fill="midnightblue" stroke="midnightblue" points="281.96,-189.49 291.46,-184.79 281.1,-182.54 281.96,-189.49"/>
</g>
<!-- Node43 -->
<g id="node9" class="node">
<title>Node43</title>
<g id="a_node9"><a xlink:href="structKFState.html#a8f43fca242e78201e48996ebbb4fd69f" target="_top" xlink:title="Tries to add a state to the filter object.">
<polygon fill="white" stroke="black" points="131,-148.59 131,-167.59 247,-167.59 247,-148.59 131,-148.59"/>
<text text-anchor="middle" x="189" y="-155.59" font-family="Helvetica,sans-Serif" font-size="10.00">KFState::addKFState</text>
</a>
</g>
</g>
<!-- Node1&#45;&gt;Node43 -->
<g id="edge8" class="edge">
<title>Node1&#45;&gt;Node43</title>
<path fill="none" stroke="midnightblue" d="M68.04,-205.53C83.92,-198.84 105.7,-189.77 125,-182.09 134.02,-178.5 143.82,-174.72 152.93,-171.24"/>
<polygon fill="midnightblue" stroke="midnightblue" points="154.38,-174.43 162.49,-167.61 151.9,-167.89 154.38,-174.43"/>
</g>
<!-- Node44 -->
<g id="node10" class="node">
<title>Node44</title>
<g id="a_node10"><a xlink:href="structKFState.html#a7f8e4b9291361c063cef8d9178f07707" target="_top" xlink:title="Add process noise and dynamics to filter object according to time gap.">
<polygon fill="white" stroke="red" points="289,-91.59 289,-110.59 421,-110.59 421,-91.59 289,-91.59"/>
<text text-anchor="middle" x="355" y="-98.59" font-family="Helvetica,sans-Serif" font-size="10.00">KFState::stateTransition</text>
</a>
</g>
</g>
<!-- Node1&#45;&gt;Node44 -->
<g id="edge9" class="edge">
<title>Node1&#45;&gt;Node44</title>
<path fill="none" stroke="midnightblue" d="M52.35,-205.52C64.77,-188.96 92.72,-155.23 125,-139.09 172.77,-115.21 232.45,-105.87 278.91,-102.41"/>
<polygon fill="midnightblue" stroke="midnightblue" points="279.17,-105.9 288.91,-101.75 278.7,-98.92 279.17,-105.9"/>
</g>
<!-- Node52 -->
<g id="node11" class="node">
<title>Node52</title>
<g id="a_node11"><a xlink:href="minimumConstraints_8cpp.html#aa40934b017f373d875c3470591eff52e" target="_top" xlink:title=" ">
<polygon fill="white" stroke="red" points="162.5,-72.59 162.5,-91.59 215.5,-91.59 215.5,-72.59 162.5,-72.59"/>
<text text-anchor="middle" x="189" y="-79.59" font-family="Helvetica,sans-Serif" font-size="10.00">mincon</text>
</a>
</g>
</g>
<!-- Node1&#45;&gt;Node52 -->
<g id="edge10" class="edge">
<title>Node1&#45;&gt;Node52</title>
<path fill="none" stroke="midnightblue" d="M50.06,-205.49C60.47,-184.56 87.96,-134.38 125,-106.09 133.15,-99.87 143.09,-95.1 152.65,-91.51"/>
<polygon fill="midnightblue" stroke="midnightblue" points="154.05,-94.73 162.38,-88.19 151.79,-88.1 154.05,-94.73"/>
</g>
<!-- Node101 -->
<g id="node12" class="node">
<title>Node101</title>
<g id="a_node12"><a xlink:href="minimumConstraints_8cpp.html#ab6be6b79385844aff6e5935fe285c44a" target="_top" xlink:title=" ">
<polygon fill="white" stroke="black" points="125,-34.59 125,-53.59 253,-53.59 253,-34.59 125,-34.59"/>
<text text-anchor="middle" x="189" y="-41.59" font-family="Helvetica,sans-Serif" font-size="10.00">outputMinconStatistics</text>
</a>
</g>
</g>
<!-- Node1&#45;&gt;Node101 -->
<g id="edge14" class="edge">
<title>Node1&#45;&gt;Node101</title>
<path fill="none" stroke="midnightblue" d="M47.8,-205.23C54.62,-178.24 77.26,-102.56 125,-63.09 127.04,-61.4 129.23,-59.86 131.52,-58.46"/>
<polygon fill="midnightblue" stroke="midnightblue" points="133.49,-61.39 140.79,-53.71 130.29,-55.16 133.49,-61.39"/>
</g>
<!-- Node64 -->
<g id="node13" class="node">
<title>Node64</title>
<g id="a_node13"><a xlink:href="trace_8hpp.html#a984a9b0c40d65d46f2c73a021a7b7de3" target="_top" xlink:title=" ">
<polygon fill="white" stroke="black" points="319.5,-15.59 319.5,-34.59 390.5,-34.59 390.5,-15.59 319.5,-15.59"/>
<text text-anchor="middle" x="355" y="-22.59" font-family="Helvetica,sans-Serif" font-size="10.00">tracepdeex</text>
</a>
</g>
</g>
<!-- Node1&#45;&gt;Node64 -->
<g id="edge16" class="edge">
<title>Node1&#45;&gt;Node64</title>
<path fill="none" stroke="midnightblue" d="M46.04,-205.31C48.43,-172.75 61,-67.69 125,-25.09 182.01,12.85 265.97,-0.26 314.81,-12.91"/>
<polygon fill="midnightblue" stroke="midnightblue" points="314.11,-16.34 324.68,-15.58 315.94,-9.59 314.11,-16.34"/>
</g>
<!-- Node52&#45;&gt;Node19 -->
<g id="edge11" class="edge">
<title>Node52&#45;&gt;Node19</title>
<path fill="none" stroke="midnightblue" d="M202.53,-91.71C215.95,-102.39 237.43,-120.58 253,-139.09 272.29,-162.02 266.22,-176.63 289,-196.09 298.32,-204.06 310.25,-210.06 321.34,-214.43"/>
<polygon fill="midnightblue" stroke="midnightblue" points="320.18,-217.74 330.78,-217.86 322.57,-211.16 320.18,-217.74"/>
</g>
<!-- Node52&#45;&gt;Node36 -->
<g id="edge12" class="edge">
<title>Node52&#45;&gt;Node36</title>
<path fill="none" stroke="midnightblue" d="M206.63,-91.72C235.36,-108.37 294.48,-142.61 328.46,-162.29"/>
<polygon fill="midnightblue" stroke="midnightblue" points="326.92,-165.45 337.33,-167.43 330.43,-159.39 326.92,-165.45"/>
</g>
<!-- Node52&#45;&gt;Node44 -->
<g id="edge13" class="edge">
<title>Node52&#45;&gt;Node44</title>
<path fill="none" stroke="midnightblue" d="M215.62,-85.06C232.73,-87.04 256.19,-89.76 278.92,-92.39"/>
<polygon fill="midnightblue" stroke="midnightblue" points="278.61,-95.88 288.95,-93.55 279.42,-88.93 278.61,-95.88"/>
</g>
<!-- Node101&#45;&gt;Node64 -->
<g id="edge15" class="edge">
<title>Node101&#45;&gt;Node64</title>
<path fill="none" stroke="midnightblue" d="M253.41,-36.75C271.92,-34.6 291.76,-32.3 308.9,-30.32"/>
<polygon fill="midnightblue" stroke="midnightblue" points="309.65,-33.75 319.18,-29.13 308.84,-26.8 309.65,-33.75"/>
</g>
</g>
</svg>
