<?xml version="1.0" encoding="UTF-8" standalone="no"?>
<!DOCTYPE svg PUBLIC "-//W3C//DTD SVG 1.1//EN"
 "http://www.w3.org/Graphics/SVG/1.1/DTD/svg11.dtd">
<!-- Generated by graphviz version 2.43.0 (0)
 -->
<!-- Title: /ginan/src/cpp/orbprop/coordinates.hpp Pages: 1 -->
<!--zoomable 106 -->
<svg id="main" version="1.1" xmlns="http://www.w3.org/2000/svg" xmlns:xlink="http://www.w3.org/1999/xlink" xml:space="preserve" onload="init(evt)">
<style type="text/css"><![CDATA[
.edge:hover path { stroke: red; }
.edge:hover polygon { stroke: red; fill: red; }
]]></style>
<script type="text/javascript"><![CDATA[
var edges = document.getElementsByTagName('g');
if (edges && edges.length) {
  for (var i=0;i<edges.length;i++) {
    if (edges[i].id.substr(0,4)=='edge') {
      edges[i].setAttribute('class','edge');
    }
  }
}
]]></script>
        <defs>
                <circle id="rim" cx="0" cy="0" r="7"/>
                <circle id="rim2" cx="0" cy="0" r="3.5"/>
                <g id="zoomPlus">
                        <use xlink:href="#rim" fill="#404040">
                                <set attributeName="fill" to="#808080" begin="zoomplus.mouseover" end="zoomplus.mouseout"/>
                        </use>
                        <path d="M-4,0h8M0,-4v8" fill="none" stroke="white" stroke-width="1.5" pointer-events="none"/>
                </g>
                <g id="zoomMin">
                        <use xlink:href="#rim" fill="#404040">
                                <set attributeName="fill" to="#808080" begin="zoomminus.mouseover" end="zoomminus.mouseout"/>
                        </use>
                        <path d="M-4,0h8" fill="none" stroke="white" stroke-width="1.5" pointer-events="none"/>
                </g>
                <g id="dirArrow">
                        <path fill="none" stroke="white" stroke-width="1.5" d="M0,-3.0v7 M-2.5,-0.5L0,-3.0L2.5,-0.5"/>
                </g>
               <g id="resetDef">
                       <use xlink:href="#rim2" fill="#404040">
                               <set attributeName="fill" to="#808080" begin="reset.mouseover" end="reset.mouseout"/>
                       </use>
               </g>
        </defs>

<script type="text/javascript">
var viewWidth = 5271;
var viewHeight = 106;
var sectionId = 'dynsection-0';
</script>
<script xlink:href="svgpan.js"/>
<svg id="graph" class="graph">
<g id="viewport">
<title>/ginan/src/cpp/orbprop/coordinates.hpp</title>
<polygon fill="white" stroke="transparent" points="-4,4 -4,-102 5266.5,-102 5266.5,4 -4,4"/>
<!-- Node1 -->
<g id="node1" class="node">
<title>Node1</title>
<g id="a_node1"><a xlink:title=" ">
<polygon fill="#bfbfbf" stroke="black" points="2691.5,-67.5 2691.5,-97.5 2816.5,-97.5 2816.5,-67.5 2691.5,-67.5"/>
<text text-anchor="start" x="2699.5" y="-85.5" font-family="Helvetica,sans-Serif" font-size="10.00">/ginan/src/cpp/orbprop</text>
<text text-anchor="middle" x="2754" y="-74.5" font-family="Helvetica,sans-Serif" font-size="10.00">/coordinates.hpp</text>
</a>
</g>
</g>
<!-- Node2 -->
<g id="node2" class="node">
<title>Node2</title>
<g id="a_node2"><a xlink:href="antenna_8cpp.html" target="_top" xlink:title=" ">
<polygon fill="white" stroke="black" points="0,-0.5 0,-30.5 130,-30.5 130,-0.5 0,-0.5"/>
<text text-anchor="start" x="8" y="-18.5" font-family="Helvetica,sans-Serif" font-size="10.00">/ginan/src/cpp/common</text>
<text text-anchor="middle" x="65" y="-7.5" font-family="Helvetica,sans-Serif" font-size="10.00">/antenna.cpp</text>
</a>
</g>
</g>
<!-- Node1&#45;&gt;Node2 -->
<g id="edge1" class="edge">
<title>Node1&#45;&gt;Node2</title>
<path fill="none" stroke="midnightblue" d="M2681.26,-81.81C2313,-83.1 651.74,-85.76 139,-31 136.14,-30.69 133.22,-30.33 130.28,-29.93"/>
<polygon fill="midnightblue" stroke="midnightblue" points="2681.28,-85.31 2691.26,-81.77 2681.25,-78.31 2681.28,-85.31"/>
</g>
<!-- Node3 -->
<g id="node3" class="node">
<title>Node3</title>
<g id="a_node3"><a xlink:href="attitude_8cpp.html" target="_top" xlink:title=" ">
<polygon fill="white" stroke="black" points="148,-0.5 148,-30.5 278,-30.5 278,-0.5 148,-0.5"/>
<text text-anchor="start" x="156" y="-18.5" font-family="Helvetica,sans-Serif" font-size="10.00">/ginan/src/cpp/common</text>
<text text-anchor="middle" x="213" y="-7.5" font-family="Helvetica,sans-Serif" font-size="10.00">/attitude.cpp</text>
</a>
</g>
</g>
<!-- Node1&#45;&gt;Node3 -->
<g id="edge2" class="edge">
<title>Node1&#45;&gt;Node3</title>
<path fill="none" stroke="midnightblue" d="M2681.11,-81.71C2325.33,-82.47 768.75,-82.74 287,-31 284.14,-30.69 281.22,-30.33 278.28,-29.93"/>
<polygon fill="midnightblue" stroke="midnightblue" points="2681.29,-85.21 2691.28,-81.69 2681.28,-78.21 2681.29,-85.21"/>
</g>
<!-- Node4 -->
<g id="node4" class="node">
<title>Node4</title>
<g id="a_node4"><a xlink:href="binaryStore_8cpp.html" target="_top" xlink:title=" ">
<polygon fill="white" stroke="black" points="296,-0.5 296,-30.5 426,-30.5 426,-0.5 296,-0.5"/>
<text text-anchor="start" x="304" y="-18.5" font-family="Helvetica,sans-Serif" font-size="10.00">/ginan/src/cpp/common</text>
<text text-anchor="middle" x="361" y="-7.5" font-family="Helvetica,sans-Serif" font-size="10.00">/binaryStore.cpp</text>
</a>
</g>
</g>
<!-- Node1&#45;&gt;Node4 -->
<g id="edge3" class="edge">
<title>Node1&#45;&gt;Node4</title>
<path fill="none" stroke="midnightblue" d="M2681.34,-81.6C2339.13,-81.8 885.99,-79.73 435,-31 432.14,-30.69 429.22,-30.33 426.28,-29.92"/>
<polygon fill="midnightblue" stroke="midnightblue" points="2681.38,-85.1 2691.37,-81.59 2681.37,-78.1 2681.38,-85.1"/>
</g>
<!-- Node5 -->
<g id="node5" class="node">
<title>Node5</title>
<g id="a_node5"><a xlink:href="compare_8cpp.html" target="_top" xlink:title=" ">
<polygon fill="white" stroke="black" points="444,-0.5 444,-30.5 574,-30.5 574,-0.5 444,-0.5"/>
<text text-anchor="start" x="452" y="-18.5" font-family="Helvetica,sans-Serif" font-size="10.00">/ginan/src/cpp/common</text>
<text text-anchor="middle" x="509" y="-7.5" font-family="Helvetica,sans-Serif" font-size="10.00">/compare.cpp</text>
</a>
</g>
</g>
<!-- Node1&#45;&gt;Node5 -->
<g id="edge4" class="edge">
<title>Node1&#45;&gt;Node5</title>
<path fill="none" stroke="midnightblue" d="M2680.96,-81.47C2351.66,-81.09 1003.02,-76.7 583,-31 580.14,-30.69 577.22,-30.32 574.28,-29.92"/>
<polygon fill="midnightblue" stroke="midnightblue" points="2681.32,-84.97 2691.32,-81.48 2681.33,-77.97 2681.32,-84.97"/>
</g>
<!-- Node6 -->
<g id="node6" class="node">
<title>Node6</title>
<g id="a_node6"><a xlink:href="cost_8cpp.html" target="_top" xlink:title=" ">
<polygon fill="white" stroke="black" points="592,-0.5 592,-30.5 722,-30.5 722,-0.5 592,-0.5"/>
<text text-anchor="start" x="600" y="-18.5" font-family="Helvetica,sans-Serif" font-size="10.00">/ginan/src/cpp/common</text>
<text text-anchor="middle" x="657" y="-7.5" font-family="Helvetica,sans-Serif" font-size="10.00">/cost.cpp</text>
</a>
</g>
</g>
<!-- Node1&#45;&gt;Node6 -->
<g id="edge5" class="edge">
<title>Node1&#45;&gt;Node6</title>
<path fill="none" stroke="midnightblue" d="M2681.09,-81.33C2366.09,-80.33 1120.34,-73.7 731,-31 728.14,-30.69 725.22,-30.32 722.28,-29.91"/>
<polygon fill="midnightblue" stroke="midnightblue" points="2681.45,-84.83 2691.46,-81.36 2681.47,-77.83 2681.45,-84.83"/>
</g>
<!-- Node7 -->
<g id="node7" class="node">
<title>Node7</title>
<g id="a_node7"><a xlink:href="debug_8cpp.html" target="_top" xlink:title=" ">
<polygon fill="white" stroke="black" points="740,-0.5 740,-30.5 870,-30.5 870,-0.5 740,-0.5"/>
<text text-anchor="start" x="748" y="-18.5" font-family="Helvetica,sans-Serif" font-size="10.00">/ginan/src/cpp/common</text>
<text text-anchor="middle" x="805" y="-7.5" font-family="Helvetica,sans-Serif" font-size="10.00">/debug.cpp</text>
</a>
</g>
</g>
<!-- Node1&#45;&gt;Node7 -->
<g id="edge6" class="edge">
<title>Node1&#45;&gt;Node7</title>
<path fill="none" stroke="midnightblue" d="M2681.05,-81.16C2380.56,-79.51 1237.65,-70.69 879,-31 876.14,-30.68 873.22,-30.31 870.28,-29.9"/>
<polygon fill="midnightblue" stroke="midnightblue" points="2681.36,-84.66 2691.38,-81.22 2681.4,-77.66 2681.36,-84.66"/>
</g>
<!-- Node8 -->
<g id="node8" class="node">
<title>Node8</title>
<g id="a_node8"><a xlink:href="ephPrecise_8cpp.html" target="_top" xlink:title=" ">
<polygon fill="white" stroke="black" points="888,-0.5 888,-30.5 1018,-30.5 1018,-0.5 888,-0.5"/>
<text text-anchor="start" x="896" y="-18.5" font-family="Helvetica,sans-Serif" font-size="10.00">/ginan/src/cpp/common</text>
<text text-anchor="middle" x="953" y="-7.5" font-family="Helvetica,sans-Serif" font-size="10.00">/ephPrecise.cpp</text>
</a>
</g>
</g>
<!-- Node1&#45;&gt;Node8 -->
<g id="edge7" class="edge">
<title>Node1&#45;&gt;Node8</title>
<path fill="none" stroke="midnightblue" d="M2681.2,-80.97C2396.12,-78.62 1355.14,-67.69 1027,-31 1024.14,-30.68 1021.22,-30.31 1018.28,-29.89"/>
<polygon fill="midnightblue" stroke="midnightblue" points="2681.4,-84.47 2691.42,-81.05 2681.45,-77.47 2681.4,-84.47"/>
</g>
<!-- Node9 -->
<g id="node9" class="node">
<title>Node9</title>
<g id="a_node9"><a xlink:href="ephemeris_8cpp.html" target="_top" xlink:title=" ">
<polygon fill="white" stroke="black" points="1036,-0.5 1036,-30.5 1166,-30.5 1166,-0.5 1036,-0.5"/>
<text text-anchor="start" x="1044" y="-18.5" font-family="Helvetica,sans-Serif" font-size="10.00">/ginan/src/cpp/common</text>
<text text-anchor="middle" x="1101" y="-7.5" font-family="Helvetica,sans-Serif" font-size="10.00">/ephemeris.cpp</text>
</a>
</g>
</g>
<!-- Node1&#45;&gt;Node9 -->
<g id="edge8" class="edge">
<title>Node1&#45;&gt;Node9</title>
<path fill="none" stroke="midnightblue" d="M2681.23,-80.73C2412.01,-77.66 1472.66,-64.7 1175,-31 1172.14,-30.68 1169.22,-30.3 1166.28,-29.89"/>
<polygon fill="midnightblue" stroke="midnightblue" points="2681.24,-84.23 2691.28,-80.85 2681.32,-77.23 2681.24,-84.23"/>
</g>
<!-- Node10 -->
<g id="node10" class="node">
<title>Node10</title>
<g id="a_node10"><a xlink:href="gpx_8cpp.html" target="_top" xlink:title=" ">
<polygon fill="white" stroke="black" points="1184,-0.5 1184,-30.5 1314,-30.5 1314,-0.5 1184,-0.5"/>
<text text-anchor="start" x="1192" y="-18.5" font-family="Helvetica,sans-Serif" font-size="10.00">/ginan/src/cpp/common</text>
<text text-anchor="middle" x="1249" y="-7.5" font-family="Helvetica,sans-Serif" font-size="10.00">/gpx.cpp</text>
</a>
</g>
</g>
<!-- Node1&#45;&gt;Node10 -->
<g id="edge9" class="edge">
<title>Node1&#45;&gt;Node10</title>
<path fill="none" stroke="midnightblue" d="M2680.97,-80.45C2428.01,-76.58 1590.19,-61.7 1323,-31 1320.14,-30.67 1317.22,-30.29 1314.28,-29.87"/>
<polygon fill="midnightblue" stroke="midnightblue" points="2681.09,-83.95 2691.15,-80.61 2681.2,-76.95 2681.09,-83.95"/>
</g>
<!-- Node11 -->
<g id="node11" class="node">
<title>Node11</title>
<g id="a_node11"><a xlink:href="ionModels_8cpp.html" target="_top" xlink:title=" ">
<polygon fill="white" stroke="black" points="1332,-0.5 1332,-30.5 1462,-30.5 1462,-0.5 1332,-0.5"/>
<text text-anchor="start" x="1340" y="-18.5" font-family="Helvetica,sans-Serif" font-size="10.00">/ginan/src/cpp/common</text>
<text text-anchor="middle" x="1397" y="-7.5" font-family="Helvetica,sans-Serif" font-size="10.00">/ionModels.cpp</text>
</a>
</g>
</g>
<!-- Node1&#45;&gt;Node11 -->
<g id="edge10" class="edge">
<title>Node1&#45;&gt;Node11</title>
<path fill="none" stroke="midnightblue" d="M2681.08,-80.11C2445.75,-75.39 1707.98,-58.71 1471,-31 1468.14,-30.67 1465.22,-30.28 1462.28,-29.86"/>
<polygon fill="midnightblue" stroke="midnightblue" points="2681.17,-83.61 2691.24,-80.31 2681.31,-76.61 2681.17,-83.61"/>
</g>
<!-- Node12 -->
<g id="node12" class="node">
<title>Node12</title>
<g id="a_node12"><a xlink:href="localAtmosRegion_8cpp.html" target="_top" xlink:title=" ">
<polygon fill="white" stroke="black" points="1480,-0.5 1480,-30.5 1610,-30.5 1610,-0.5 1480,-0.5"/>
<text text-anchor="start" x="1488" y="-18.5" font-family="Helvetica,sans-Serif" font-size="10.00">/ginan/src/cpp/common</text>
<text text-anchor="middle" x="1545" y="-7.5" font-family="Helvetica,sans-Serif" font-size="10.00">/localAtmosRegion.cpp</text>
</a>
</g>
</g>
<!-- Node1&#45;&gt;Node12 -->
<g id="edge11" class="edge">
<title>Node1&#45;&gt;Node12</title>
<path fill="none" stroke="midnightblue" d="M2681.12,-82.01C2500.49,-82.46 2017.89,-78.68 1619,-31 1616.14,-30.66 1613.23,-30.27 1610.29,-29.84"/>
<polygon fill="midnightblue" stroke="midnightblue" points="2681.3,-85.51 2691.29,-81.98 2681.28,-78.51 2681.3,-85.51"/>
</g>
<!-- Node13 -->
<g id="node13" class="node">
<title>Node13</title>
<g id="a_node13"><a xlink:href="mongoWrite_8cpp.html" target="_top" xlink:title=" ">
<polygon fill="white" stroke="black" points="1628,-0.5 1628,-30.5 1758,-30.5 1758,-0.5 1628,-0.5"/>
<text text-anchor="start" x="1636" y="-18.5" font-family="Helvetica,sans-Serif" font-size="10.00">/ginan/src/cpp/common</text>
<text text-anchor="middle" x="1693" y="-7.5" font-family="Helvetica,sans-Serif" font-size="10.00">/mongoWrite.cpp</text>
</a>
</g>
</g>
<!-- Node1&#45;&gt;Node13 -->
<g id="edge12" class="edge">
<title>Node1&#45;&gt;Node13</title>
<path fill="none" stroke="midnightblue" d="M2680.93,-81.31C2516.85,-80.11 2106.94,-72.79 1767,-31 1764.14,-30.65 1761.23,-30.25 1758.29,-29.82"/>
<polygon fill="midnightblue" stroke="midnightblue" points="2681.35,-84.81 2691.38,-81.38 2681.4,-77.81 2681.35,-84.81"/>
</g>
<!-- Node14 -->
<g id="node14" class="node">
<title>Node14</title>
<g id="a_node14"><a xlink:href="orbits_8cpp.html" target="_top" xlink:title=" ">
<polygon fill="white" stroke="black" points="1776,-0.5 1776,-30.5 1906,-30.5 1906,-0.5 1776,-0.5"/>
<text text-anchor="start" x="1784" y="-18.5" font-family="Helvetica,sans-Serif" font-size="10.00">/ginan/src/cpp/common</text>
<text text-anchor="middle" x="1841" y="-7.5" font-family="Helvetica,sans-Serif" font-size="10.00">/orbits.cpp</text>
</a>
</g>
</g>
<!-- Node1&#45;&gt;Node14 -->
<g id="edge13" class="edge">
<title>Node1&#45;&gt;Node14</title>
<path fill="none" stroke="midnightblue" d="M2681.2,-80.38C2535.28,-77.42 2196.83,-66.93 1915,-31 1912.14,-30.64 1909.23,-30.23 1906.29,-29.78"/>
<polygon fill="midnightblue" stroke="midnightblue" points="2681.31,-83.88 2691.37,-80.58 2681.44,-76.88 2681.31,-83.88"/>
</g>
<!-- Node15 -->
<g id="node15" class="node">
<title>Node15</title>
<g id="a_node15"><a xlink:href="sp3Write_8cpp.html" target="_top" xlink:title=" ">
<polygon fill="white" stroke="black" points="1924,-0.5 1924,-30.5 2054,-30.5 2054,-0.5 1924,-0.5"/>
<text text-anchor="start" x="1932" y="-18.5" font-family="Helvetica,sans-Serif" font-size="10.00">/ginan/src/cpp/common</text>
<text text-anchor="middle" x="1989" y="-7.5" font-family="Helvetica,sans-Serif" font-size="10.00">/sp3Write.cpp</text>
</a>
</g>
</g>
<!-- Node1&#45;&gt;Node15 -->
<g id="edge14" class="edge">
<title>Node1&#45;&gt;Node15</title>
<path fill="none" stroke="midnightblue" d="M2681.01,-79.06C2554.63,-74.19 2287.09,-61.03 2063,-31 2060.15,-30.62 2057.23,-30.19 2054.3,-29.74"/>
<polygon fill="midnightblue" stroke="midnightblue" points="2681.2,-82.57 2691.33,-79.45 2681.47,-75.57 2681.2,-82.57"/>
</g>
<!-- Node16 -->
<g id="node16" class="node">
<title>Node16</title>
<g id="a_node16"><a xlink:href="tides_8cpp.html" target="_top" xlink:title=" ">
<polygon fill="white" stroke="black" points="2072,-0.5 2072,-30.5 2202,-30.5 2202,-0.5 2072,-0.5"/>
<text text-anchor="start" x="2080" y="-18.5" font-family="Helvetica,sans-Serif" font-size="10.00">/ginan/src/cpp/common</text>
<text text-anchor="middle" x="2137" y="-7.5" font-family="Helvetica,sans-Serif" font-size="10.00">/tides.cpp</text>
</a>
</g>
</g>
<!-- Node1&#45;&gt;Node16 -->
<g id="edge15" class="edge">
<title>Node1&#45;&gt;Node16</title>
<path fill="none" stroke="midnightblue" d="M2681.35,-77.08C2576.93,-70.2 2378.55,-55.14 2211,-31 2208.15,-30.59 2205.24,-30.14 2202.31,-29.67"/>
<polygon fill="midnightblue" stroke="midnightblue" points="2681.25,-80.58 2691.46,-77.74 2681.71,-73.6 2681.25,-80.58"/>
</g>
<!-- Node17 -->
<g id="node17" class="node">
<title>Node17</title>
<g id="a_node17"><a xlink:href="tropSinex_8cpp.html" target="_top" xlink:title=" ">
<polygon fill="white" stroke="black" points="2220,-0.5 2220,-30.5 2350,-30.5 2350,-0.5 2220,-0.5"/>
<text text-anchor="start" x="2228" y="-18.5" font-family="Helvetica,sans-Serif" font-size="10.00">/ginan/src/cpp/common</text>
<text text-anchor="middle" x="2285" y="-7.5" font-family="Helvetica,sans-Serif" font-size="10.00">/tropSinex.cpp</text>
</a>
</g>
</g>
<!-- Node1&#45;&gt;Node17 -->
<g id="edge16" class="edge">
<title>Node1&#45;&gt;Node17</title>
<path fill="none" stroke="midnightblue" d="M2680.83,-73.62C2601.38,-64.71 2470.85,-49.09 2359,-31 2356.16,-30.54 2353.26,-30.05 2350.33,-29.54"/>
<polygon fill="midnightblue" stroke="midnightblue" points="2680.89,-77.15 2691.22,-74.77 2681.67,-70.19 2680.89,-77.15"/>
</g>
<!-- Node18 -->
<g id="node18" class="node">
<title>Node18</title>
<g id="a_node18"><a xlink:href="posProp_8cpp.html" target="_top" xlink:title=" ">
<polygon fill="white" stroke="black" points="2368,-0.5 2368,-30.5 2490,-30.5 2490,-0.5 2368,-0.5"/>
<text text-anchor="start" x="2376" y="-18.5" font-family="Helvetica,sans-Serif" font-size="10.00">/ginan/src/cpp/inertial</text>
<text text-anchor="middle" x="2429" y="-7.5" font-family="Helvetica,sans-Serif" font-size="10.00">/posProp.cpp</text>
</a>
</g>
</g>
<!-- Node1&#45;&gt;Node18 -->
<g id="edge17" class="edge">
<title>Node1&#45;&gt;Node18</title>
<path fill="none" stroke="midnightblue" d="M2681.4,-67.3C2630.36,-57.27 2560.48,-43.45 2499,-31 2496.08,-30.41 2493.09,-29.8 2490.08,-29.18"/>
<polygon fill="midnightblue" stroke="midnightblue" points="2680.87,-70.76 2691.35,-69.25 2682.22,-63.89 2680.87,-70.76"/>
</g>
<!-- Node19 -->
<g id="node19" class="node">
<title>Node19</title>
<g id="a_node19"><a xlink:href="geomagField_8cpp.html" target="_top" xlink:title=" ">
<polygon fill="white" stroke="black" points="2508,-0.5 2508,-30.5 2616,-30.5 2616,-0.5 2508,-0.5"/>
<text text-anchor="start" x="2516" y="-18.5" font-family="Helvetica,sans-Serif" font-size="10.00">/ginan/src/cpp/iono</text>
<text text-anchor="middle" x="2562" y="-7.5" font-family="Helvetica,sans-Serif" font-size="10.00">/geomagField.cpp</text>
</a>
</g>
</g>
<!-- Node1&#45;&gt;Node19 -->
<g id="edge18" class="edge">
<title>Node1&#45;&gt;Node19</title>
<path fill="none" stroke="midnightblue" d="M2702.58,-64.09C2671.58,-53.6 2632.62,-40.41 2603.58,-30.58"/>
<polygon fill="midnightblue" stroke="midnightblue" points="2701.74,-67.5 2712.34,-67.4 2703.99,-60.87 2701.74,-67.5"/>
</g>
<!-- Node20 -->
<g id="node20" class="node">
<title>Node20</title>
<g id="a_node20"><a xlink:href="ionoLocalSTEC_8cpp.html" target="_top" xlink:title=" ">
<polygon fill="white" stroke="black" points="2634.5,-0.5 2634.5,-30.5 2745.5,-30.5 2745.5,-0.5 2634.5,-0.5"/>
<text text-anchor="start" x="2642.5" y="-18.5" font-family="Helvetica,sans-Serif" font-size="10.00">/ginan/src/cpp/iono</text>
<text text-anchor="middle" x="2690" y="-7.5" font-family="Helvetica,sans-Serif" font-size="10.00">/ionoLocalSTEC.cpp</text>
</a>
</g>
</g>
<!-- Node1&#45;&gt;Node20 -->
<g id="edge19" class="edge">
<title>Node1&#45;&gt;Node20</title>
<path fill="none" stroke="midnightblue" d="M2732.85,-60.02C2723.32,-50.34 2712.33,-39.17 2703.86,-30.58"/>
<polygon fill="midnightblue" stroke="midnightblue" points="2730.6,-62.73 2740.11,-67.4 2735.59,-57.81 2730.6,-62.73"/>
</g>
<!-- Node21 -->
<g id="node21" class="node">
<title>Node21</title>
<g id="a_node21"><a xlink:href="ionoMeas_8cpp.html" target="_top" xlink:title=" ">
<polygon fill="white" stroke="black" points="2764,-0.5 2764,-30.5 2872,-30.5 2872,-0.5 2764,-0.5"/>
<text text-anchor="start" x="2772" y="-18.5" font-family="Helvetica,sans-Serif" font-size="10.00">/ginan/src/cpp/iono</text>
<text text-anchor="middle" x="2818" y="-7.5" font-family="Helvetica,sans-Serif" font-size="10.00">/ionoMeas.cpp</text>
</a>
</g>
</g>
<!-- Node1&#45;&gt;Node21 -->
<g id="edge20" class="edge">
<title>Node1&#45;&gt;Node21</title>
<path fill="none" stroke="midnightblue" d="M2775.15,-60.02C2784.68,-50.34 2795.67,-39.17 2804.14,-30.58"/>
<polygon fill="midnightblue" stroke="midnightblue" points="2772.41,-57.81 2767.89,-67.4 2777.4,-62.73 2772.41,-57.81"/>
</g>
<!-- Node22 -->
<g id="node22" class="node">
<title>Node22</title>
<g id="a_node22"><a xlink:href="ionoSpherical_8cpp.html" target="_top" xlink:title=" ">
<polygon fill="white" stroke="black" points="2890,-0.5 2890,-30.5 2998,-30.5 2998,-0.5 2890,-0.5"/>
<text text-anchor="start" x="2898" y="-18.5" font-family="Helvetica,sans-Serif" font-size="10.00">/ginan/src/cpp/iono</text>
<text text-anchor="middle" x="2944" y="-7.5" font-family="Helvetica,sans-Serif" font-size="10.00">/ionoSpherical.cpp</text>
</a>
</g>
</g>
<!-- Node1&#45;&gt;Node22 -->
<g id="edge21" class="edge">
<title>Node1&#45;&gt;Node22</title>
<path fill="none" stroke="midnightblue" d="M2804.89,-64.09C2835.56,-53.6 2874.11,-40.41 2902.85,-30.58"/>
<polygon fill="midnightblue" stroke="midnightblue" points="2803.56,-60.85 2795.23,-67.4 2805.82,-67.47 2803.56,-60.85"/>
</g>
<!-- Node23 -->
<g id="node23" class="node">
<title>Node23</title>
<g id="a_node23"><a xlink:href="ionoSphericalCaps_8cpp.html" target="_top" xlink:title=" ">
<polygon fill="white" stroke="black" points="3016,-0.5 3016,-30.5 3146,-30.5 3146,-0.5 3016,-0.5"/>
<text text-anchor="start" x="3024" y="-18.5" font-family="Helvetica,sans-Serif" font-size="10.00">/ginan/src/cpp/iono</text>
<text text-anchor="middle" x="3081" y="-7.5" font-family="Helvetica,sans-Serif" font-size="10.00">/ionoSphericalCaps.cpp</text>
</a>
</g>
</g>
<!-- Node1&#45;&gt;Node23 -->
<g id="edge22" class="edge">
<title>Node1&#45;&gt;Node23</title>
<path fill="none" stroke="midnightblue" d="M2826.62,-67.07C2883.22,-55.81 2961.12,-40.33 3015.75,-29.47"/>
<polygon fill="midnightblue" stroke="midnightblue" points="2825.79,-63.66 2816.66,-69.04 2827.15,-70.53 2825.79,-63.66"/>
</g>
<!-- Node24 -->
<g id="node24" class="node">
<title>Node24</title>
<g id="a_node24"><a xlink:href="coordinates_8cpp.html" target="_top" xlink:title=" ">
<polygon fill="white" stroke="black" points="3164.5,-0.5 3164.5,-30.5 3289.5,-30.5 3289.5,-0.5 3164.5,-0.5"/>
<text text-anchor="start" x="3172.5" y="-18.5" font-family="Helvetica,sans-Serif" font-size="10.00">/ginan/src/cpp/orbprop</text>
<text text-anchor="middle" x="3227" y="-7.5" font-family="Helvetica,sans-Serif" font-size="10.00">/coordinates.cpp</text>
</a>
</g>
</g>
<!-- Node1&#45;&gt;Node24 -->
<g id="edge23" class="edge">
<title>Node1&#45;&gt;Node24</title>
<path fill="none" stroke="midnightblue" d="M2826.75,-73.96C2907.27,-65.24 3040.78,-49.67 3155,-31 3158.02,-30.51 3161.11,-29.98 3164.22,-29.43"/>
<polygon fill="midnightblue" stroke="midnightblue" points="2826.29,-70.49 2816.72,-75.04 2827.03,-77.45 2826.29,-70.49"/>
</g>
<!-- Node25 -->
<g id="node25" class="node">
<title>Node25</title>
<g id="a_node25"><a xlink:href="iers2010_8cpp.html" target="_top" xlink:title=" ">
<polygon fill="white" stroke="black" points="3307.5,-0.5 3307.5,-30.5 3432.5,-30.5 3432.5,-0.5 3307.5,-0.5"/>
<text text-anchor="start" x="3315.5" y="-18.5" font-family="Helvetica,sans-Serif" font-size="10.00">/ginan/src/cpp/orbprop</text>
<text text-anchor="middle" x="3370" y="-7.5" font-family="Helvetica,sans-Serif" font-size="10.00">/iers2010.cpp</text>
</a>
</g>
</g>
<!-- Node1&#45;&gt;Node25 -->
<g id="edge24" class="edge">
<title>Node1&#45;&gt;Node25</title>
<path fill="none" stroke="midnightblue" d="M2826.95,-77.28C2931.78,-70.64 3130.93,-55.87 3299,-31 3301.74,-30.59 3304.53,-30.15 3307.35,-29.68"/>
<polygon fill="midnightblue" stroke="midnightblue" points="2826.56,-73.8 2816.79,-77.91 2826.99,-80.78 2826.56,-73.8"/>
</g>
<!-- Node26 -->
<g id="node26" class="node">
<title>Node26</title>
<g id="a_node26"><a xlink:href="orbitProp_8cpp.html" target="_top" xlink:title=" ">
<polygon fill="white" stroke="black" points="3450.5,-0.5 3450.5,-30.5 3575.5,-30.5 3575.5,-0.5 3450.5,-0.5"/>
<text text-anchor="start" x="3458.5" y="-18.5" font-family="Helvetica,sans-Serif" font-size="10.00">/ginan/src/cpp/orbprop</text>
<text text-anchor="middle" x="3513" y="-7.5" font-family="Helvetica,sans-Serif" font-size="10.00">/orbitProp.cpp</text>
</a>
</g>
</g>
<!-- Node1&#45;&gt;Node26 -->
<g id="edge25" class="edge">
<title>Node1&#45;&gt;Node26</title>
<path fill="none" stroke="midnightblue" d="M2827.19,-79.21C2953.25,-74.58 3219.29,-61.79 3442,-31 3444.74,-30.62 3447.54,-30.2 3450.36,-29.75"/>
<polygon fill="midnightblue" stroke="midnightblue" points="2826.76,-75.72 2816.89,-79.58 2827.01,-82.72 2826.76,-75.72"/>
</g>
<!-- Node27 -->
<g id="node27" class="node">
<title>Node27</title>
<g id="a_node27"><a xlink:href="planets_8cpp.html" target="_top" xlink:title=" ">
<polygon fill="white" stroke="black" points="3593.5,-0.5 3593.5,-30.5 3718.5,-30.5 3718.5,-0.5 3593.5,-0.5"/>
<text text-anchor="start" x="3601.5" y="-18.5" font-family="Helvetica,sans-Serif" font-size="10.00">/ginan/src/cpp/orbprop</text>
<text text-anchor="middle" x="3656" y="-7.5" font-family="Helvetica,sans-Serif" font-size="10.00">/planets.cpp</text>
</a>
</g>
</g>
<!-- Node1&#45;&gt;Node27 -->
<g id="edge26" class="edge">
<title>Node1&#45;&gt;Node27</title>
<path fill="none" stroke="midnightblue" d="M2826.67,-80.52C2971.54,-77.8 3306.35,-67.74 3585,-31 3587.74,-30.64 3590.54,-30.23 3593.36,-29.79"/>
<polygon fill="midnightblue" stroke="midnightblue" points="2826.51,-77.02 2816.57,-80.7 2826.64,-84.02 2826.51,-77.02"/>
</g>
<!-- Node28 -->
<g id="node28" class="node">
<title>Node28</title>
<g id="a_node28"><a xlink:href="tideCoeff_8cpp.html" target="_top" xlink:title=" ">
<polygon fill="white" stroke="black" points="3736.5,-0.5 3736.5,-30.5 3861.5,-30.5 3861.5,-0.5 3736.5,-0.5"/>
<text text-anchor="start" x="3744.5" y="-18.5" font-family="Helvetica,sans-Serif" font-size="10.00">/ginan/src/cpp/orbprop</text>
<text text-anchor="middle" x="3799" y="-7.5" font-family="Helvetica,sans-Serif" font-size="10.00">/tideCoeff.cpp</text>
</a>
</g>
</g>
<!-- Node1&#45;&gt;Node28 -->
<g id="edge27" class="edge">
<title>Node1&#45;&gt;Node28</title>
<path fill="none" stroke="midnightblue" d="M2827.03,-81.44C2989.58,-80.48 3393.32,-73.61 3728,-31 3730.75,-30.65 3733.54,-30.25 3736.36,-29.82"/>
<polygon fill="midnightblue" stroke="midnightblue" points="2826.66,-77.94 2816.68,-81.49 2826.69,-84.94 2826.66,-77.94"/>
</g>
<!-- Node29 -->
<g id="node29" class="node">
<title>Node29</title>
<g id="a_node29"><a xlink:href="main_8cpp.html" target="_top" xlink:title=" ">
<polygon fill="white" stroke="black" points="3879.5,-0.5 3879.5,-30.5 3984.5,-30.5 3984.5,-0.5 3879.5,-0.5"/>
<text text-anchor="start" x="3887.5" y="-18.5" font-family="Helvetica,sans-Serif" font-size="10.00">/ginan/src/cpp/pea</text>
<text text-anchor="middle" x="3932" y="-7.5" font-family="Helvetica,sans-Serif" font-size="10.00">/main.cpp</text>
</a>
</g>
</g>
<!-- Node1&#45;&gt;Node29 -->
<g id="edge28" class="edge">
<title>Node1&#45;&gt;Node29</title>
<path fill="none" stroke="midnightblue" d="M2826.85,-80C3041.35,-75.29 3668.26,-59.42 3871,-31 3873.69,-30.62 3876.45,-30.18 3879.21,-29.69"/>
<polygon fill="midnightblue" stroke="midnightblue" points="2826.57,-76.5 2816.65,-80.22 2826.72,-83.5 2826.57,-76.5"/>
</g>
<!-- Node30 -->
<g id="node30" class="node">
<title>Node30</title>
<g id="a_node30"><a xlink:href="minimumConstraints_8cpp.html" target="_top" xlink:title=" ">
<polygon fill="white" stroke="black" points="4002.5,-0.5 4002.5,-30.5 4145.5,-30.5 4145.5,-0.5 4002.5,-0.5"/>
<text text-anchor="start" x="4010.5" y="-18.5" font-family="Helvetica,sans-Serif" font-size="10.00">/ginan/src/cpp/pea</text>
<text text-anchor="middle" x="4074" y="-7.5" font-family="Helvetica,sans-Serif" font-size="10.00">/minimumConstraints.cpp</text>
</a>
</g>
</g>
<!-- Node1&#45;&gt;Node30 -->
<g id="edge29" class="edge">
<title>Node1&#45;&gt;Node30</title>
<path fill="none" stroke="midnightblue" d="M2827.05,-82.05C3018.95,-82.73 3552.93,-79.72 3994,-31 3996.67,-30.71 3999.38,-30.37 4002.11,-30.02"/>
<polygon fill="midnightblue" stroke="midnightblue" points="2826.83,-78.55 2816.81,-82.01 2826.8,-85.55 2826.83,-78.55"/>
</g>
<!-- Node31 -->
<g id="node31" class="node">
<title>Node31</title>
<g id="a_node31"><a xlink:href="ppp_8cpp.html" target="_top" xlink:title=" ">
<polygon fill="white" stroke="black" points="4163.5,-0.5 4163.5,-30.5 4268.5,-30.5 4268.5,-0.5 4163.5,-0.5"/>
<text text-anchor="start" x="4171.5" y="-18.5" font-family="Helvetica,sans-Serif" font-size="10.00">/ginan/src/cpp/pea</text>
<text text-anchor="middle" x="4216" y="-7.5" font-family="Helvetica,sans-Serif" font-size="10.00">/ppp.cpp</text>
</a>
</g>
</g>
<!-- Node1&#45;&gt;Node31 -->
<g id="edge30" class="edge">
<title>Node1&#45;&gt;Node31</title>
<path fill="none" stroke="midnightblue" d="M2826.83,-80.77C3076.16,-77.98 3894.52,-66.3 4155,-31 4157.7,-30.63 4160.45,-30.2 4163.22,-29.72"/>
<polygon fill="midnightblue" stroke="midnightblue" points="2826.75,-77.27 2816.79,-80.88 2826.83,-84.27 2826.75,-77.27"/>
</g>
<!-- Node32 -->
<g id="node32" class="node">
<title>Node32</title>
<g id="a_node32"><a xlink:href="ppp__obs_8cpp.html" target="_top" xlink:title=" ">
<polygon fill="white" stroke="black" points="4286.5,-0.5 4286.5,-30.5 4391.5,-30.5 4391.5,-0.5 4286.5,-0.5"/>
<text text-anchor="start" x="4294.5" y="-18.5" font-family="Helvetica,sans-Serif" font-size="10.00">/ginan/src/cpp/pea</text>
<text text-anchor="middle" x="4339" y="-7.5" font-family="Helvetica,sans-Serif" font-size="10.00">/ppp_obs.cpp</text>
</a>
</g>
</g>
<!-- Node1&#45;&gt;Node32 -->
<g id="edge31" class="edge">
<title>Node1&#45;&gt;Node32</title>
<path fill="none" stroke="midnightblue" d="M2826.89,-81.02C3090.3,-78.98 3992.38,-69.29 4278,-31 4280.7,-30.64 4283.45,-30.21 4286.22,-29.73"/>
<polygon fill="midnightblue" stroke="midnightblue" points="2826.65,-77.52 2816.68,-81.1 2826.7,-84.52 2826.65,-77.52"/>
</g>
<!-- Node33 -->
<g id="node33" class="node">
<title>Node33</title>
<g id="a_node33"><a xlink:href="ppp__pseudoobs_8cpp.html" target="_top" xlink:title=" ">
<polygon fill="white" stroke="black" points="4410,-0.5 4410,-30.5 4526,-30.5 4526,-0.5 4410,-0.5"/>
<text text-anchor="start" x="4418" y="-18.5" font-family="Helvetica,sans-Serif" font-size="10.00">/ginan/src/cpp/pea</text>
<text text-anchor="middle" x="4468" y="-7.5" font-family="Helvetica,sans-Serif" font-size="10.00">/ppp_pseudoobs.cpp</text>
</a>
</g>
</g>
<!-- Node1&#45;&gt;Node33 -->
<g id="edge32" class="edge">
<title>Node1&#45;&gt;Node33</title>
<path fill="none" stroke="midnightblue" d="M2827.09,-81.03C3104.17,-78.98 4089.82,-69.12 4401,-31 4403.84,-30.65 4406.73,-30.24 4409.64,-29.79"/>
<polygon fill="midnightblue" stroke="midnightblue" points="2826.73,-77.53 2816.76,-81.11 2826.78,-84.53 2826.73,-77.53"/>
</g>
<!-- Node34 -->
<g id="node34" class="node">
<title>Node34</title>
<g id="a_node34"><a xlink:href="ppp__slr_8cpp.html" target="_top" xlink:title=" ">
<polygon fill="white" stroke="black" points="4544.5,-0.5 4544.5,-30.5 4649.5,-30.5 4649.5,-0.5 4544.5,-0.5"/>
<text text-anchor="start" x="4552.5" y="-18.5" font-family="Helvetica,sans-Serif" font-size="10.00">/ginan/src/cpp/pea</text>
<text text-anchor="middle" x="4597" y="-7.5" font-family="Helvetica,sans-Serif" font-size="10.00">/ppp_slr.cpp</text>
</a>
</g>
</g>
<!-- Node1&#45;&gt;Node34 -->
<g id="edge33" class="edge">
<title>Node1&#45;&gt;Node34</title>
<path fill="none" stroke="midnightblue" d="M2826.72,-81.39C3117.39,-80.65 4196.41,-74.94 4535,-31 4538.07,-30.6 4541.21,-30.12 4544.37,-29.57"/>
<polygon fill="midnightblue" stroke="midnightblue" points="2826.7,-77.89 2816.71,-81.41 2826.72,-84.89 2826.7,-77.89"/>
</g>
<!-- Node35 -->
<g id="node35" class="node">
<title>Node35</title>
<g id="a_node35"><a xlink:href="spp_8cpp.html" target="_top" xlink:title=" ">
<polygon fill="white" stroke="black" points="4667.5,-0.5 4667.5,-30.5 4772.5,-30.5 4772.5,-0.5 4667.5,-0.5"/>
<text text-anchor="start" x="4675.5" y="-18.5" font-family="Helvetica,sans-Serif" font-size="10.00">/ginan/src/cpp/pea</text>
<text text-anchor="middle" x="4720" y="-7.5" font-family="Helvetica,sans-Serif" font-size="10.00">/spp.cpp</text>
</a>
</g>
</g>
<!-- Node1&#45;&gt;Node35 -->
<g id="edge34" class="edge">
<title>Node1&#45;&gt;Node35</title>
<path fill="none" stroke="midnightblue" d="M2827.15,-81.58C3131.06,-81.61 4295.07,-78.56 4659,-31 4661.7,-30.65 4664.45,-30.23 4667.22,-29.75"/>
<polygon fill="midnightblue" stroke="midnightblue" points="2826.7,-78.08 2816.7,-81.58 2826.7,-85.08 2826.7,-78.08"/>
</g>
<!-- Node36 -->
<g id="node36" class="node">
<title>Node36</title>
<g id="a_node36"><a xlink:href="rtkcmn_8cpp.html" target="_top" xlink:title=" ">
<polygon fill="white" stroke="black" points="4790.5,-0.5 4790.5,-30.5 4903.5,-30.5 4903.5,-0.5 4790.5,-0.5"/>
<text text-anchor="start" x="4798.5" y="-18.5" font-family="Helvetica,sans-Serif" font-size="10.00">/ginan/src/cpp/rtklib</text>
<text text-anchor="middle" x="4847" y="-7.5" font-family="Helvetica,sans-Serif" font-size="10.00">/rtkcmn.cpp</text>
</a>
</g>
</g>
<!-- Node1&#45;&gt;Node36 -->
<g id="edge35" class="edge">
<title>Node1&#45;&gt;Node36</title>
<path fill="none" stroke="midnightblue" d="M2827.12,-81.58C3143.02,-81.66 4392.29,-78.86 4782,-31 4784.75,-30.66 4787.56,-30.26 4790.39,-29.81"/>
<polygon fill="midnightblue" stroke="midnightblue" points="2826.72,-78.08 2816.72,-81.58 2826.72,-85.08 2826.72,-78.08"/>
</g>
<!-- Node37 -->
<g id="node37" class="node">
<title>Node37</title>
<g id="a_node37"><a xlink:href="slrCom_8cpp.html" target="_top" xlink:title=" ">
<polygon fill="white" stroke="black" points="4921.5,-0.5 4921.5,-30.5 5020.5,-30.5 5020.5,-0.5 4921.5,-0.5"/>
<text text-anchor="start" x="4929.5" y="-18.5" font-family="Helvetica,sans-Serif" font-size="10.00">/ginan/src/cpp/slr</text>
<text text-anchor="middle" x="4971" y="-7.5" font-family="Helvetica,sans-Serif" font-size="10.00">/slrCom.cpp</text>
</a>
</g>
</g>
<!-- Node1&#45;&gt;Node37 -->
<g id="edge36" class="edge">
<title>Node1&#45;&gt;Node37</title>
<path fill="none" stroke="midnightblue" d="M2826.67,-80.76C3179.21,-77.02 4702.93,-59.36 4913,-31 4915.78,-30.63 4918.61,-30.17 4921.47,-29.65"/>
<polygon fill="midnightblue" stroke="midnightblue" points="2826.55,-77.26 2816.59,-80.86 2826.62,-84.26 2826.55,-77.26"/>
</g>
<!-- Node38 -->
<g id="node38" class="node">
<title>Node38</title>
<g id="a_node38"><a xlink:href="slrRec_8cpp.html" target="_top" xlink:title=" ">
<polygon fill="white" stroke="black" points="5038.5,-0.5 5038.5,-30.5 5137.5,-30.5 5137.5,-0.5 5038.5,-0.5"/>
<text text-anchor="start" x="5046.5" y="-18.5" font-family="Helvetica,sans-Serif" font-size="10.00">/ginan/src/cpp/slr</text>
<text text-anchor="middle" x="5088" y="-7.5" font-family="Helvetica,sans-Serif" font-size="10.00">/slrRec.cpp</text>
</a>
</g>
</g>
<!-- Node1&#45;&gt;Node38 -->
<g id="edge37" class="edge">
<title>Node1&#45;&gt;Node38</title>
<path fill="none" stroke="midnightblue" d="M2826.72,-80.85C3190.89,-77.47 4807.76,-60.87 5030,-31 5032.78,-30.63 5035.61,-30.17 5038.47,-29.65"/>
<polygon fill="midnightblue" stroke="midnightblue" points="2826.53,-77.35 2816.57,-80.94 2826.6,-84.35 2826.53,-77.35"/>
</g>
<!-- Node39 -->
<g id="node39" class="node">
<title>Node39</title>
<g id="a_node39"><a xlink:href="tropModels_8cpp.html" target="_top" xlink:title=" ">
<polygon fill="white" stroke="black" points="5155.5,-0.5 5155.5,-30.5 5262.5,-30.5 5262.5,-0.5 5155.5,-0.5"/>
<text text-anchor="start" x="5163.5" y="-18.5" font-family="Helvetica,sans-Serif" font-size="10.00">/ginan/src/cpp/trop</text>
<text text-anchor="middle" x="5209" y="-7.5" font-family="Helvetica,sans-Serif" font-size="10.00">/tropModels.cpp</text>
</a>
</g>
</g>
<!-- Node1&#45;&gt;Node39 -->
<g id="edge38" class="edge">
<title>Node1&#45;&gt;Node39</title>
<path fill="none" stroke="midnightblue" d="M2826.76,-80.87C3202.24,-77.49 4912.33,-60.59 5147,-31 5149.74,-30.65 5152.54,-30.24 5155.36,-29.77"/>
<polygon fill="midnightblue" stroke="midnightblue" points="2826.53,-77.37 2816.56,-80.96 2826.59,-84.37 2826.53,-77.37"/>
</g>
</g>
</svg>
        <g id="navigator" transform="translate(0 0)" fill="#404254">
                <rect fill="#f2f5e9" fill-opacity="0.5" stroke="#606060" stroke-width=".5" x="0" y="0" width="60" height="60"/>
                <use id="zoomplus" xlink:href="#zoomPlus" x="17" y="9" onmousedown="handleZoom(evt,'in')"/>
                <use id="zoomminus" xlink:href="#zoomMin" x="42" y="9" onmousedown="handleZoom(evt,'out')"/>
                <use id="reset" xlink:href="#resetDef" x="30" y="36" onmousedown="handleReset()"/>
                <g id="arrowUp" xlink:href="#dirArrow" transform="translate(30 24)" onmousedown="handlePan(0,-1)">
                  <use xlink:href="#rim" fill="#404040">
                        <set attributeName="fill" to="#808080" begin="arrowUp.mouseover" end="arrowUp.mouseout"/>
                  </use>
                  <path fill="none" stroke="white" stroke-width="1.5" d="M0,-3.0v7 M-2.5,-0.5L0,-3.0L2.5,-0.5"/>
                </g>
                <g id="arrowRight" xlink:href="#dirArrow" transform="rotate(90) translate(36 -43)" onmousedown="handlePan(1,0)">
                  <use xlink:href="#rim" fill="#404040">
                        <set attributeName="fill" to="#808080" begin="arrowRight.mouseover" end="arrowRight.mouseout"/>
                  </use>
                  <path fill="none" stroke="white" stroke-width="1.5" d="M0,-3.0v7 M-2.5,-0.5L0,-3.0L2.5,-0.5"/>
                </g>
                <g id="arrowDown" xlink:href="#dirArrow" transform="rotate(180) translate(-30 -48)" onmousedown="handlePan(0,1)">
                  <use xlink:href="#rim" fill="#404040">
                        <set attributeName="fill" to="#808080" begin="arrowDown.mouseover" end="arrowDown.mouseout"/>
                  </use>
                  <path fill="none" stroke="white" stroke-width="1.5" d="M0,-3.0v7 M-2.5,-0.5L0,-3.0L2.5,-0.5"/>
                </g>
                <g id="arrowLeft" xlink:href="#dirArrow" transform="rotate(270) translate(-36 17)" onmousedown="handlePan(-1,0)">
                  <use xlink:href="#rim" fill="#404040">
                        <set attributeName="fill" to="#808080" begin="arrowLeft.mouseover" end="arrowLeft.mouseout"/>
                  </use>
                  <path fill="none" stroke="white" stroke-width="1.5" d="M0,-3.0v7 M-2.5,-0.5L0,-3.0L2.5,-0.5"/>
                </g>
        </g>
        <svg viewBox="0 0 15 15" width="100%" height="30px" preserveAspectRatio="xMaxYMin meet">
         <g id="arrow_out" transform="scale(0.3 0.3)">
          <a xlink:href="coordinates_8hpp__dep__incl_org.svg" target="_base">
           <rect id="button" ry="5" rx="5" y="6" x="6" height="38" width="38"
                fill="#f2f5e9" fill-opacity="0.5" stroke="#606060" stroke-width="1.0"/>
           <path id="arrow"
             d="M 11.500037,31.436501 C 11.940474,20.09759 22.043105,11.32322 32.158766,21.979434 L 37.068811,17.246167 C 37.068811,17.246167 37.088388,32 37.088388,32 L 22.160133,31.978069 C 22.160133,31.978069 26.997745,27.140456 26.997745,27.140456 C 18.528582,18.264221 13.291696,25.230495 11.500037,31.436501 z"
             style="fill:#404040;"/>
          </a>
         </g>
        </svg>
</svg>
