<?xml version="1.0" encoding="UTF-8" standalone="no"?>
<!DOCTYPE svg PUBLIC "-//W3C//DTD SVG 1.1//EN"
 "http://www.w3.org/Graphics/SVG/1.1/DTD/svg11.dtd">
<!-- Generated by graphviz version 2.43.0 (0)
 -->
<!-- Title: pos2ecef Pages: 1 -->
<svg width="191pt" height="104pt"
 viewBox="0.00 0.00 191.00 104.00" xmlns="http://www.w3.org/2000/svg" xmlns:xlink="http://www.w3.org/1999/xlink">
<g id="graph0" class="graph" transform="scale(1 1) rotate(0) translate(4 100)">
<title>pos2ecef</title>
<polygon fill="white" stroke="transparent" points="-4,4 -4,-100 187,-100 187,4 -4,4"/>
<!-- Node1 -->
<g id="node1" class="node">
<title>Node1</title>
<g id="a_node1"><a xlink:title="Transform geodetic postion to ecef.">
<polygon fill="#bfbfbf" stroke="black" points="0,-38.5 0,-57.5 61,-57.5 61,-38.5 0,-38.5"/>
<text text-anchor="middle" x="30.5" y="-45.5" font-family="Helvetica,sans-Serif" font-size="10.00">pos2ecef</text>
</a>
</g>
</g>
<!-- Node2 -->
<g id="node2" class="node">
<title>Node2</title>
<g id="a_node2"><a xlink:href="structVectorPos.html#a63e862a389b3548bc5b4aedabd94540b" target="_top" xlink:title=" ">
<polygon fill="white" stroke="black" points="98.5,-76.5 98.5,-95.5 181.5,-95.5 181.5,-76.5 98.5,-76.5"/>
<text text-anchor="middle" x="140" y="-83.5" font-family="Helvetica,sans-Serif" font-size="10.00">VectorPos::lat</text>
</a>
</g>
</g>
<!-- Node1&#45;&gt;Node2 -->
<g id="edge1" class="edge">
<title>Node1&#45;&gt;Node2</title>
<path fill="none" stroke="midnightblue" d="M58.63,-57.59C71.87,-62.27 87.99,-67.97 102.31,-73.03"/>
<polygon fill="midnightblue" stroke="midnightblue" points="101.29,-76.38 111.88,-76.41 103.62,-69.78 101.29,-76.38"/>
</g>
<!-- Node3 -->
<g id="node3" class="node">
<title>Node3</title>
<g id="a_node3"><a xlink:href="structVectorPos.html#ab7ade23bd200ec4145eb389b58737dee" target="_top" xlink:title=" ">
<polygon fill="white" stroke="black" points="97,-38.5 97,-57.5 183,-57.5 183,-38.5 97,-38.5"/>
<text text-anchor="middle" x="140" y="-45.5" font-family="Helvetica,sans-Serif" font-size="10.00">VectorPos::lon</text>
</a>
</g>
</g>
<!-- Node1&#45;&gt;Node3 -->
<g id="edge2" class="edge">
<title>Node1&#45;&gt;Node3</title>
<path fill="none" stroke="midnightblue" d="M61.16,-48C69.11,-48 77.95,-48 86.73,-48"/>
<polygon fill="midnightblue" stroke="midnightblue" points="86.97,-51.5 96.96,-48 86.96,-44.5 86.97,-51.5"/>
</g>
<!-- Node4 -->
<g id="node4" class="node">
<title>Node4</title>
<g id="a_node4"><a xlink:href="structVectorPos.html#a9517f77c95322d34dc896a88db4a804f" target="_top" xlink:title=" ">
<polygon fill="white" stroke="black" points="97,-0.5 97,-19.5 183,-19.5 183,-0.5 97,-0.5"/>
<text text-anchor="middle" x="140" y="-7.5" font-family="Helvetica,sans-Serif" font-size="10.00">VectorPos::hgt</text>
</a>
</g>
</g>
<!-- Node1&#45;&gt;Node4 -->
<g id="edge3" class="edge">
<title>Node1&#45;&gt;Node4</title>
<path fill="none" stroke="midnightblue" d="M58.63,-38.41C71.87,-33.73 87.99,-28.03 102.31,-22.97"/>
<polygon fill="midnightblue" stroke="midnightblue" points="103.62,-26.22 111.88,-19.59 101.29,-19.62 103.62,-26.22"/>
</g>
</g>
</svg>
