<?xml version="1.0" encoding="UTF-8" standalone="no"?>
<!DOCTYPE svg PUBLIC "-//W3C//DTD SVG 1.1//EN"
 "http://www.w3.org/Graphics/SVG/1.1/DTD/svg11.dtd">
<!-- Generated by graphviz version 2.43.0 (0)
 -->
<!-- Title: eci2ecef Pages: 1 -->
<svg width="270pt" height="154pt"
 viewBox="0.00 0.00 270.00 153.50" xmlns="http://www.w3.org/2000/svg" xmlns:xlink="http://www.w3.org/1999/xlink">
<g id="graph0" class="graph" transform="scale(1 1) rotate(0) translate(4 149.5)">
<title>eci2ecef</title>
<polygon fill="white" stroke="transparent" points="-4,4 -4,-149.5 266,-149.5 266,4 -4,4"/>
<!-- Node1 -->
<g id="node1" class="node">
<title>Node1</title>
<g id="a_node1"><a xlink:title=" ">
<polygon fill="#bfbfbf" stroke="black" points="204,-69 204,-88 262,-88 262,-69 204,-69"/>
<text text-anchor="middle" x="233" y="-76" font-family="Helvetica,sans-Serif" font-size="10.00">eci2ecef</text>
</a>
</g>
</g>
<!-- Node2 -->
<g id="node2" class="node">
<title>Node2</title>
<g id="a_node2"><a xlink:href="attitude_8cpp.html#a5d6694425700677beb52b092488f177b" target="_top" xlink:title="Retrieves precise attitude (from file) &#45; unit vectors of satellite&#45;fixed coordinates (ECEF) Returns f...">
<polygon fill="white" stroke="red" points="38.5,-126 38.5,-145 129.5,-145 129.5,-126 38.5,-126"/>
<text text-anchor="middle" x="84" y="-133" font-family="Helvetica,sans-Serif" font-size="10.00">preciseAttitude</text>
</a>
</g>
</g>
<!-- Node1&#45;&gt;Node2 -->
<g id="edge1" class="edge">
<title>Node1&#45;&gt;Node2</title>
<path fill="none" stroke="midnightblue" d="M218.42,-88.27C205.88,-96.86 186.48,-109.11 168,-116.5 155.92,-121.33 142.34,-125.08 129.71,-127.93"/>
</g>
<!-- Node23 -->
<g id="node3" class="node">
<title>Node23</title>
<g id="a_node3"><a xlink:href="debug_8cpp.html#a3a9dc241be6174dbd40a8bd071d6973d" target="_top" xlink:title=" ">
<polygon fill="white" stroke="black" points="47,-88 47,-107 121,-107 121,-88 47,-88"/>
<text text-anchor="middle" x="84" y="-95" font-family="Helvetica,sans-Serif" font-size="10.00">rotationTest</text>
</a>
</g>
</g>
<!-- Node1&#45;&gt;Node23 -->
<g id="edge2" class="edge">
<title>Node1&#45;&gt;Node23</title>
<path fill="none" stroke="midnightblue" d="M203.66,-82.16C180.13,-85.2 146.52,-89.55 121.08,-92.84"/>
</g>
<!-- Node24 -->
<g id="node4" class="node">
<title>Node24</title>
<g id="a_node4"><a xlink:href="structFrameSwapper.html#aebb17ff4787dc58070de473053c4825d" target="_top" xlink:title=" ">
<polygon fill="white" stroke="black" points="0,-50 0,-69 168,-69 168,-50 0,-50"/>
<text text-anchor="middle" x="84" y="-57" font-family="Helvetica,sans-Serif" font-size="10.00">FrameSwapper::FrameSwapper</text>
</a>
</g>
</g>
<!-- Node1&#45;&gt;Node24 -->
<g id="edge3" class="edge">
<title>Node1&#45;&gt;Node24</title>
<path fill="none" stroke="midnightblue" d="M203.66,-74.84C190.73,-73.17 174.75,-71.1 158.76,-69.03"/>
</g>
<!-- Node25 -->
<g id="node5" class="node">
<title>Node25</title>
<g id="a_node5"><a xlink:href="structOrbitIntegrator.html#a195b0b7db606c919a11d93977ce4dfe2" target="_top" xlink:title=" ">
<polygon fill="white" stroke="red" points="15.5,-0.5 15.5,-30.5 152.5,-30.5 152.5,-0.5 15.5,-0.5"/>
<text text-anchor="start" x="23.5" y="-18.5" font-family="Helvetica,sans-Serif" font-size="10.00">OrbitIntegrator::compute</text>
<text text-anchor="middle" x="84" y="-7.5" font-family="Helvetica,sans-Serif" font-size="10.00">Common</text>
</a>
</g>
</g>
<!-- Node1&#45;&gt;Node25 -->
<g id="edge4" class="edge">
<title>Node1&#45;&gt;Node25</title>
<path fill="none" stroke="midnightblue" d="M217.8,-68.69C205.17,-60.32 185.98,-48.4 168,-40.5 159.73,-36.87 150.78,-33.56 141.92,-30.63"/>
</g>
</g>
</svg>
