<?xml version="1.0" encoding="UTF-8" standalone="no"?>
<!DOCTYPE svg PUBLIC "-//W3C//DTD SVG 1.1//EN"
 "http://www.w3.org/Graphics/SVG/1.1/DTD/svg11.dtd">
<!-- Generated by graphviz version 2.43.0 (0)
 -->
<!-- Title: body2ecef Pages: 1 -->
<svg width="292pt" height="294pt"
 viewBox="0.00 0.00 292.00 294.00" xmlns="http://www.w3.org/2000/svg" xmlns:xlink="http://www.w3.org/1999/xlink">
<g id="graph0" class="graph" transform="scale(1 1) rotate(0) translate(4 290)">
<title>body2ecef</title>
<polygon fill="white" stroke="transparent" points="-4,4 -4,-290 288,-290 288,4 -4,4"/>
<!-- Node1 -->
<g id="node1" class="node">
<title>Node1</title>
<g id="a_node1"><a xlink:title="transform vector in body frame to ecef">
<polygon fill="#bfbfbf" stroke="black" points="216,-133.5 216,-152.5 284,-152.5 284,-133.5 216,-133.5"/>
<text text-anchor="middle" x="250" y="-140.5" font-family="Helvetica,sans-Serif" font-size="10.00">body2ecef</text>
</a>
</g>
</g>
<!-- Node2 -->
<g id="node2" class="node">
<title>Node2</title>
<g id="a_node2"><a xlink:href="cost_8cpp.html#a6fb9f6966f5c24817f83f4dd46ed354c" target="_top" xlink:title="Outputs troposphere COST file.">
<polygon fill="white" stroke="red" points="97.5,-266.5 97.5,-285.5 167.5,-285.5 167.5,-266.5 97.5,-266.5"/>
<text text-anchor="middle" x="132.5" y="-273.5" font-family="Helvetica,sans-Serif" font-size="10.00">outputCost</text>
</a>
</g>
</g>
<!-- Node1&#45;&gt;Node2 -->
<g id="edge1" class="edge">
<title>Node1&#45;&gt;Node2</title>
<path fill="none" stroke="midnightblue" d="M245.02,-152.64C236.1,-173.22 212.7,-222.05 180,-252 173.57,-257.89 165.42,-262.74 157.75,-266.5"/>
</g>
<!-- Node7 -->
<g id="node3" class="node">
<title>Node7</title>
<g id="a_node3"><a xlink:href="ephemeris_8cpp.html#a86b1602f8ee3a6b7220b506825592953" target="_top" xlink:title="compute satellite position and clock satellite clock does not include code bias correction (tgd or bg...">
<polygon fill="white" stroke="red" points="0,-190.5 0,-209.5 49,-209.5 49,-190.5 0,-190.5"/>
<text text-anchor="middle" x="24.5" y="-197.5" font-family="Helvetica,sans-Serif" font-size="10.00">satpos</text>
</a>
</g>
</g>
<!-- Node1&#45;&gt;Node7 -->
<g id="edge2" class="edge">
<title>Node1&#45;&gt;Node7</title>
<path fill="none" stroke="midnightblue" d="M243.93,-152.55C234.21,-169.7 211.12,-205.22 180,-219 135.89,-238.53 78.18,-221.59 47.28,-209.54"/>
</g>
<!-- Node32 -->
<g id="node4" class="node">
<title>Node32</title>
<g id="a_node4"><a xlink:href="ppp__obs_8cpp.html#ac8386768ec8ebbdb2e7287711c02e996" target="_top" xlink:title=" ">
<polygon fill="white" stroke="red" points="85,-190.5 85,-209.5 180,-209.5 180,-190.5 85,-190.5"/>
<text text-anchor="middle" x="132.5" y="-197.5" font-family="Helvetica,sans-Serif" font-size="10.00">pppRecAntDelta</text>
</a>
</g>
</g>
<!-- Node1&#45;&gt;Node32 -->
<g id="edge3" class="edge">
<title>Node1&#45;&gt;Node32</title>
<path fill="none" stroke="midnightblue" d="M232.83,-152.6C219.02,-160.63 198.51,-172.16 180,-181 173.08,-184.31 165.42,-187.59 158.35,-190.47"/>
</g>
<!-- Node33 -->
<g id="node5" class="node">
<title>Node33</title>
<g id="a_node5"><a xlink:href="ephPrecise_8cpp.html#ac24a7ecc232807f046a15e914b5df57f" target="_top" xlink:title="satellite antenna phase center offset in ecef">
<polygon fill="white" stroke="black" points="101,-152.5 101,-171.5 164,-171.5 164,-152.5 101,-152.5"/>
<text text-anchor="middle" x="132.5" y="-159.5" font-family="Helvetica,sans-Serif" font-size="10.00">satAntOff</text>
</a>
</g>
</g>
<!-- Node1&#45;&gt;Node33 -->
<g id="edge4" class="edge">
<title>Node1&#45;&gt;Node33</title>
<path fill="none" stroke="midnightblue" d="M215.9,-148.44C199.64,-151.12 180.16,-154.32 164.23,-156.95"/>
</g>
<!-- Node9 -->
<g id="node6" class="node">
<title>Node9</title>
<g id="a_node6"><a xlink:href="ppp__network_8cpp.html#a1986299316c605c9c72b50a2f9c6c524" target="_top" xlink:title="PPP observed&#45;minus&#45;computed.">
<polygon fill="white" stroke="red" points="104.5,-114.5 104.5,-133.5 160.5,-133.5 160.5,-114.5 104.5,-114.5"/>
<text text-anchor="middle" x="132.5" y="-121.5" font-family="Helvetica,sans-Serif" font-size="10.00">pppomc</text>
</a>
</g>
</g>
<!-- Node1&#45;&gt;Node9 -->
<g id="edge6" class="edge">
<title>Node1&#45;&gt;Node9</title>
<path fill="none" stroke="midnightblue" d="M215.9,-137.56C198.44,-134.68 177.27,-131.2 160.76,-128.48"/>
</g>
<!-- Node34 -->
<g id="node7" class="node">
<title>Node34</title>
<g id="a_node7"><a xlink:href="ppp__slr_8cpp.html#aad49640c070b3e068079c5c64d09ae62" target="_top" xlink:title=" ">
<polygon fill="white" stroke="red" points="88,-76.5 88,-95.5 177,-95.5 177,-76.5 88,-76.5"/>
<text text-anchor="middle" x="132.5" y="-83.5" font-family="Helvetica,sans-Serif" font-size="10.00">slrRecAntDelta</text>
</a>
</g>
</g>
<!-- Node1&#45;&gt;Node34 -->
<g id="edge7" class="edge">
<title>Node1&#45;&gt;Node34</title>
<path fill="none" stroke="midnightblue" d="M232.83,-133.4C219.02,-125.37 198.51,-113.84 180,-105 173.08,-101.69 165.42,-98.41 158.35,-95.53"/>
</g>
<!-- Node35 -->
<g id="node8" class="node">
<title>Node35</title>
<g id="a_node8"><a xlink:href="slrCom_8cpp.html#ae1e900be3fbab7e36528208cfd3d451e" target="_top" xlink:title="Center of mass to laser retroreflector array offset for GNSS satellites.">
<polygon fill="white" stroke="red" points="86,-38.5 86,-57.5 179,-57.5 179,-38.5 86,-38.5"/>
<text text-anchor="middle" x="132.5" y="-45.5" font-family="Helvetica,sans-Serif" font-size="10.00">satComOffGnss</text>
</a>
</g>
</g>
<!-- Node1&#45;&gt;Node35 -->
<g id="edge8" class="edge">
<title>Node1&#45;&gt;Node35</title>
<path fill="none" stroke="midnightblue" d="M242.44,-133.32C231.27,-117.52 207.15,-86.01 180,-67 174.71,-63.3 168.6,-60.15 162.57,-57.54"/>
</g>
<!-- Node13 -->
<g id="node9" class="node">
<title>Node13</title>
<g id="a_node9"><a xlink:href="ppp__user_8cpp.html#a36a79c2aba8e8ad20aa9616988ec3269" target="_top" xlink:title=" ">
<polygon fill="white" stroke="red" points="101,-0.5 101,-19.5 164,-19.5 164,-0.5 101,-0.5"/>
<text text-anchor="middle" x="132.5" y="-7.5" font-family="Helvetica,sans-Serif" font-size="10.00">ppp_filter</text>
</a>
</g>
</g>
<!-- Node1&#45;&gt;Node13 -->
<g id="edge9" class="edge">
<title>Node1&#45;&gt;Node13</title>
<path fill="none" stroke="midnightblue" d="M245.59,-133.34C237.5,-111.73 215.17,-59.06 180,-29 175.36,-25.03 169.78,-21.82 164.12,-19.23"/>
</g>
<!-- Node33&#45;&gt;Node7 -->
<g id="edge5" class="edge">
<title>Node33&#45;&gt;Node7</title>
<path fill="none" stroke="midnightblue" d="M104.75,-171.59C87.7,-177.7 65.8,-185.55 49.35,-191.45"/>
</g>
</g>
</svg>
