<?xml version="1.0" encoding="UTF-8" standalone="no"?>
<!DOCTYPE svg PUBLIC "-//W3C//DTD SVG 1.1//EN"
 "http://www.w3.org/Graphics/SVG/1.1/DTD/svg11.dtd">
<!-- Generated by graphviz version 2.43.0 (0)
 -->
<!-- Title: ionppp Pages: 1 -->
<svg width="219pt" height="180pt"
 viewBox="0.00 0.00 219.00 180.00" xmlns="http://www.w3.org/2000/svg" xmlns:xlink="http://www.w3.org/1999/xlink">
<g id="graph0" class="graph" transform="scale(1 1) rotate(0) translate(4 176)">
<title>ionppp</title>
<polygon fill="white" stroke="transparent" points="-4,4 -4,-176 215,-176 215,4 -4,4"/>
<!-- Node1 -->
<g id="node1" class="node">
<title>Node1</title>
<g id="a_node1"><a xlink:title=" ">
<polygon fill="#bfbfbf" stroke="black" points="161,-76.5 161,-95.5 211,-95.5 211,-76.5 161,-76.5"/>
<text text-anchor="middle" x="186" y="-83.5" font-family="Helvetica,sans-Serif" font-size="10.00">ionppp</text>
</a>
</g>
</g>
<!-- Node2 -->
<g id="node2" class="node">
<title>Node2</title>
<g id="a_node2"><a xlink:href="ionoMeas_8cpp.html#ae1cb9ea2aa583c7c0745a8d788253889" target="_top" xlink:title=" ">
<polygon fill="white" stroke="red" points="0,-152.5 0,-171.5 125,-171.5 125,-152.5 0,-152.5"/>
<text text-anchor="middle" x="62.5" y="-159.5" font-family="Helvetica,sans-Serif" font-size="10.00">update_receivr_measr</text>
</a>
</g>
</g>
<!-- Node1&#45;&gt;Node2 -->
<g id="edge1" class="edge">
<title>Node1&#45;&gt;Node2</title>
<path fill="none" stroke="midnightblue" d="M177.12,-95.91C166.54,-108.58 146.57,-130.37 125,-143 118.54,-146.78 111.25,-149.89 104,-152.41"/>
</g>
<!-- Node7 -->
<g id="node3" class="node">
<title>Node7</title>
<g id="a_node3"><a xlink:href="ionoSpherical_8cpp.html#a18fd6a29aca61254386135264a1500e5" target="_top" xlink:title=" ">
<polygon fill="white" stroke="red" points="19.5,-114.5 19.5,-133.5 105.5,-133.5 105.5,-114.5 19.5,-114.5"/>
<text text-anchor="middle" x="62.5" y="-121.5" font-family="Helvetica,sans-Serif" font-size="10.00">getEpcSsrIono</text>
</a>
</g>
</g>
<!-- Node1&#45;&gt;Node7 -->
<g id="edge2" class="edge">
<title>Node1&#45;&gt;Node7</title>
<path fill="none" stroke="midnightblue" d="M160.78,-93.71C149.86,-97.18 136.78,-101.31 125,-105 115.08,-108.1 104.25,-111.46 94.48,-114.47"/>
</g>
<!-- Node14 -->
<g id="node4" class="node">
<title>Node14</title>
<g id="a_node4"><a xlink:href="ppp__obs_8cpp.html#a24d244860e2a252d6ec88d97ea129b80" target="_top" xlink:title="2nd order ionospheric correction See ref [1]">
<polygon fill="white" stroke="red" points="24,-76.5 24,-95.5 101,-95.5 101,-76.5 24,-76.5"/>
<text text-anchor="middle" x="62.5" y="-83.5" font-family="Helvetica,sans-Serif" font-size="10.00">pppIonStec2</text>
</a>
</g>
</g>
<!-- Node1&#45;&gt;Node14 -->
<g id="edge3" class="edge">
<title>Node1&#45;&gt;Node14</title>
<path fill="none" stroke="midnightblue" d="M161,-86C143.98,-86 120.81,-86 101.33,-86"/>
</g>
<!-- Node16 -->
<g id="node5" class="node">
<title>Node16</title>
<g id="a_node5"><a xlink:href="ppp__obs_8cpp.html#a574a4c24df1a754d0b2b299c8111e29f" target="_top" xlink:title=" ">
<polygon fill="white" stroke="red" points="22.5,-38.5 22.5,-57.5 102.5,-57.5 102.5,-38.5 22.5,-38.5"/>
<text text-anchor="middle" x="62.5" y="-45.5" font-family="Helvetica,sans-Serif" font-size="10.00">pppIonModel</text>
</a>
</g>
</g>
<!-- Node1&#45;&gt;Node16 -->
<g id="edge4" class="edge">
<title>Node1&#45;&gt;Node16</title>
<path fill="none" stroke="midnightblue" d="M160.78,-78.29C149.86,-74.82 136.78,-70.69 125,-67 115.08,-63.9 104.25,-60.54 94.48,-57.53"/>
</g>
<!-- Node17 -->
<g id="node6" class="node">
<title>Node17</title>
<g id="a_node6"><a xlink:href="ionex_8cpp.html#a992f4db8f2b423beff8fb52dcfd0b371" target="_top" xlink:title="ionosphere delay by tec grid data">
<polygon fill="white" stroke="red" points="32.5,-0.5 32.5,-19.5 92.5,-19.5 92.5,-0.5 32.5,-0.5"/>
<text text-anchor="middle" x="62.5" y="-7.5" font-family="Helvetica,sans-Serif" font-size="10.00">ionDelay</text>
</a>
</g>
</g>
<!-- Node1&#45;&gt;Node17 -->
<g id="edge5" class="edge">
<title>Node1&#45;&gt;Node17</title>
<path fill="none" stroke="midnightblue" d="M177.12,-76.09C166.54,-63.42 146.57,-41.63 125,-29 115.07,-23.18 103.17,-18.97 92.5,-16.02"/>
</g>
</g>
</svg>
