<?xml version="1.0" encoding="UTF-8" standalone="no"?>
<!DOCTYPE svg PUBLIC "-//W3C//DTD SVG 1.1//EN"
 "http://www.w3.org/Graphics/SVG/1.1/DTD/svg11.dtd">
<!-- Generated by graphviz version 2.43.0 (0)
 -->
<!-- Title: nmf Pages: 1 -->
<svg width="204pt" height="85pt"
 viewBox="0.00 0.00 204.00 85.00" xmlns="http://www.w3.org/2000/svg" xmlns:xlink="http://www.w3.org/1999/xlink">
<g id="graph0" class="graph" transform="scale(1 1) rotate(0) translate(4 81)">
<title>nmf</title>
<polygon fill="white" stroke="transparent" points="-4,4 -4,-81 200,-81 200,4 -4,4"/>
<!-- Node1 -->
<g id="node1" class="node">
<title>Node1</title>
<g id="a_node1"><a xlink:title=" ">
<polygon fill="#bfbfbf" stroke="black" points="0,-38.5 0,-57.5 36,-57.5 36,-38.5 0,-38.5"/>
<text text-anchor="middle" x="18" y="-45.5" font-family="Helvetica,sans-Serif" font-size="10.00">nmf</text>
</a>
</g>
</g>
<!-- Node2 -->
<g id="node2" class="node">
<title>Node2</title>
<g id="a_node2"><a xlink:href="trop_8cpp.html#aee11659ecea14ca59feae2dbe9f160d5" target="_top" xlink:title="coefficients multiplication">
<polygon fill="white" stroke="black" points="158,-57.5 158,-76.5 196,-76.5 196,-57.5 158,-57.5"/>
<text text-anchor="middle" x="177" y="-64.5" font-family="Helvetica,sans-Serif" font-size="10.00">coef</text>
</a>
</g>
</g>
<!-- Node1&#45;&gt;Node2 -->
<g id="edge1" class="edge">
<title>Node1&#45;&gt;Node2</title>
<path fill="none" stroke="midnightblue" d="M36.25,-55.89C46.42,-60.11 59.67,-64.86 72,-67 101.71,-72.16 136.91,-70.59 157.8,-68.87"/>
</g>
<!-- Node3 -->
<g id="node3" class="node">
<title>Node3</title>
<g id="a_node3"><a xlink:href="corrections_8cpp.html#abae235364162e6df2195cc74a3d4277a" target="_top" xlink:title=" ">
<polygon fill="white" stroke="black" points="72,-38.5 72,-57.5 122,-57.5 122,-38.5 72,-38.5"/>
<text text-anchor="middle" x="97" y="-45.5" font-family="Helvetica,sans-Serif" font-size="10.00">interpc</text>
</a>
</g>
</g>
<!-- Node1&#45;&gt;Node3 -->
<g id="edge2" class="edge">
<title>Node1&#45;&gt;Node3</title>
<path fill="none" stroke="midnightblue" d="M36.09,-48C46.63,-48 60.32,-48 71.95,-48"/>
</g>
<!-- Node4 -->
<g id="node4" class="node">
<title>Node4</title>
<g id="a_node4"><a xlink:href="corrections_8cpp.html#aeca34291cf162e0e9cc3f0251b514169" target="_top" xlink:title=" ">
<polygon fill="white" stroke="black" points="76,-0.5 76,-19.5 118,-19.5 118,-0.5 76,-0.5"/>
<text text-anchor="middle" x="97" y="-7.5" font-family="Helvetica,sans-Serif" font-size="10.00">mapf</text>
</a>
</g>
</g>
<!-- Node1&#45;&gt;Node4 -->
<g id="edge4" class="edge">
<title>Node1&#45;&gt;Node4</title>
<path fill="none" stroke="midnightblue" d="M36.09,-39.57C48.05,-33.66 64.06,-25.76 76.52,-19.62"/>
</g>
<!-- Node3&#45;&gt;Node2 -->
<g id="edge3" class="edge">
<title>Node3&#45;&gt;Node2</title>
<path fill="none" stroke="midnightblue" d="M122.25,-53.91C133.7,-56.7 147.14,-59.97 157.71,-62.55"/>
</g>
</g>
</svg>
