<?xml version="1.0" encoding="UTF-8" standalone="no"?>
<!DOCTYPE svg PUBLIC "-//W3C//DTD SVG 1.1//EN"
 "http://www.w3.org/Graphics/SVG/1.1/DTD/svg11.dtd">
<!-- Generated by graphviz version 2.43.0 (0)
 -->
<!-- Title: outputCost Pages: 1 -->
<svg width="354pt" height="484pt"
 viewBox="0.00 0.00 354.00 484.00" xmlns="http://www.w3.org/2000/svg" xmlns:xlink="http://www.w3.org/1999/xlink">
<g id="graph0" class="graph" transform="scale(1 1) rotate(0) translate(4 480)">
<title>outputCost</title>
<polygon fill="white" stroke="transparent" points="-4,4 -4,-480 350,-480 350,4 -4,4"/>
<!-- Node1 -->
<g id="node1" class="node">
<title>Node1</title>
<g id="a_node1"><a xlink:title="Outputs troposphere COST file.">
<polygon fill="#bfbfbf" stroke="black" points="0,-228.5 0,-247.5 70,-247.5 70,-228.5 0,-228.5"/>
<text text-anchor="middle" x="35" y="-235.5" font-family="Helvetica,sans-Serif" font-size="10.00">outputCost</text>
</a>
</g>
</g>
<!-- Node2 -->
<g id="node2" class="node">
<title>Node2</title>
<g id="a_node2"><a xlink:href="trace_8cpp.html#ae00e6addd3bdf3a7fd41a254eb9aec89" target="_top" xlink:title=" ">
<polygon fill="white" stroke="black" points="129,-456.5 129,-475.5 200,-475.5 200,-456.5 129,-456.5"/>
<text text-anchor="middle" x="164.5" y="-463.5" font-family="Helvetica,sans-Serif" font-size="10.00">tracepdeex</text>
</a>
</g>
</g>
<!-- Node1&#45;&gt;Node2 -->
<g id="edge1" class="edge">
<title>Node1&#45;&gt;Node2</title>
<path fill="none" stroke="midnightblue" d="M36.33,-247.9C37.95,-280.99 47.71,-388.94 106,-447 112.26,-453.23 120.6,-457.42 128.98,-460.23"/>
</g>
<!-- Node3 -->
<g id="node3" class="node">
<title>Node3</title>
<g id="a_node3"><a xlink:href="sinex_8cpp.html#a06fabc81a2cc41dfee260450a527ad2d" target="_top" xlink:title="Trims leading &amp; trailing whitespace.">
<polygon fill="white" stroke="black" points="146,-418.5 146,-437.5 183,-437.5 183,-418.5 146,-418.5"/>
<text text-anchor="middle" x="164.5" y="-425.5" font-family="Helvetica,sans-Serif" font-size="10.00">trim</text>
</a>
</g>
</g>
<!-- Node1&#45;&gt;Node3 -->
<g id="edge2" class="edge">
<title>Node1&#45;&gt;Node3</title>
<path fill="none" stroke="midnightblue" d="M37.14,-247.71C41.05,-276.6 56.51,-362.83 106,-409 116.92,-419.18 133.41,-423.92 145.94,-426.11"/>
</g>
<!-- Node4 -->
<g id="node4" class="node">
<title>Node4</title>
<g id="a_node4"><a xlink:href="cost_8cpp.html#a0b80ddea772db2c102158c72e238f731" target="_top" xlink:title="Replaces first instance of string &#39;toReplace&#39; with &#39;replaceWith&#39; within &#39;s&#39;.">
<polygon fill="white" stroke="black" points="131.5,-380.5 131.5,-399.5 197.5,-399.5 197.5,-380.5 131.5,-380.5"/>
<text text-anchor="middle" x="164.5" y="-387.5" font-family="Helvetica,sans-Serif" font-size="10.00">replaceStr</text>
</a>
</g>
</g>
<!-- Node1&#45;&gt;Node4 -->
<g id="edge3" class="edge">
<title>Node1&#45;&gt;Node4</title>
<path fill="none" stroke="midnightblue" d="M38.37,-247.62C44.85,-271.94 65.18,-336.43 106,-371 113.22,-377.12 122.47,-381.28 131.43,-384.11"/>
</g>
<!-- Node5 -->
<g id="node5" class="node">
<title>Node5</title>
<g id="a_node5"><a xlink:href="structKFState.html#a405c50a3085d8328e81dcd6786f775d3" target="_top" xlink:title="Returns the value and variance of a state within the kalman filter object.">
<polygon fill="white" stroke="black" points="106,-342.5 106,-361.5 223,-361.5 223,-342.5 106,-342.5"/>
<text text-anchor="middle" x="164.5" y="-349.5" font-family="Helvetica,sans-Serif" font-size="10.00">KFState::getKFValue</text>
</a>
</g>
</g>
<!-- Node1&#45;&gt;Node5 -->
<g id="edge4" class="edge">
<title>Node1&#45;&gt;Node5</title>
<path fill="none" stroke="midnightblue" d="M40.52,-247.62C49.97,-266.7 73.66,-309.55 106,-333 111.28,-336.83 117.37,-339.91 123.58,-342.4"/>
</g>
<!-- Node6 -->
<g id="node6" class="node">
<title>Node6</title>
<g id="a_node6"><a xlink:href="coordinates_8cpp.html#a04a8a5888466b8a7200194568e8d306c" target="_top" xlink:title="transform vector in body frame to ecef">
<polygon fill="white" stroke="black" points="130.5,-304.5 130.5,-323.5 198.5,-323.5 198.5,-304.5 130.5,-304.5"/>
<text text-anchor="middle" x="164.5" y="-311.5" font-family="Helvetica,sans-Serif" font-size="10.00">body2ecef</text>
</a>
</g>
</g>
<!-- Node1&#45;&gt;Node6 -->
<g id="edge5" class="edge">
<title>Node1&#45;&gt;Node6</title>
<path fill="none" stroke="midnightblue" d="M45.58,-247.76C58.34,-260.27 82.09,-281.9 106,-295 113.56,-299.14 122.18,-302.58 130.4,-305.34"/>
</g>
<!-- Node7 -->
<g id="node7" class="node">
<title>Node7</title>
<g id="a_node7"><a xlink:href="utils_8cpp.html#ae91d83cf693cdc7e1efacbe4d8d9656e" target="_top" xlink:title=" ">
<polygon fill="white" stroke="black" points="134,-266.5 134,-285.5 195,-285.5 195,-266.5 134,-266.5"/>
<text text-anchor="middle" x="164.5" y="-273.5" font-family="Helvetica,sans-Serif" font-size="10.00">ecef2pos</text>
</a>
</g>
</g>
<!-- Node1&#45;&gt;Node7 -->
<g id="edge6" class="edge">
<title>Node1&#45;&gt;Node7</title>
<path fill="none" stroke="midnightblue" d="M68.17,-247.59C88.39,-253.61 114.27,-261.33 133.96,-267.2"/>
</g>
<!-- Node8 -->
<g id="node8" class="node">
<title>Node8</title>
<g id="a_node8"><a xlink:href="structVectorPos.html#ae607eb1f43de3cf1aaa024c2fdabc514" target="_top" xlink:title=" ">
<polygon fill="white" stroke="black" points="112.5,-228.5 112.5,-247.5 216.5,-247.5 216.5,-228.5 112.5,-228.5"/>
<text text-anchor="middle" x="164.5" y="-235.5" font-family="Helvetica,sans-Serif" font-size="10.00">VectorPos::latDeg</text>
</a>
</g>
</g>
<!-- Node1&#45;&gt;Node8 -->
<g id="edge7" class="edge">
<title>Node1&#45;&gt;Node8</title>
<path fill="none" stroke="midnightblue" d="M70.17,-238C83.15,-238 98.24,-238 112.44,-238"/>
</g>
<!-- Node9 -->
<g id="node9" class="node">
<title>Node9</title>
<g id="a_node9"><a xlink:href="structVectorPos.html#aa693d5a52133cfb55040b768c6175bae" target="_top" xlink:title=" ">
<polygon fill="white" stroke="black" points="111.5,-190.5 111.5,-209.5 217.5,-209.5 217.5,-190.5 111.5,-190.5"/>
<text text-anchor="middle" x="164.5" y="-197.5" font-family="Helvetica,sans-Serif" font-size="10.00">VectorPos::lonDeg</text>
</a>
</g>
</g>
<!-- Node1&#45;&gt;Node9 -->
<g id="edge8" class="edge">
<title>Node1&#45;&gt;Node9</title>
<path fill="none" stroke="midnightblue" d="M68.17,-228.41C87.5,-222.65 112.01,-215.35 131.34,-209.59"/>
</g>
<!-- Node10 -->
<g id="node10" class="node">
<title>Node10</title>
<g id="a_node10"><a xlink:href="structVectorPos.html#a9517f77c95322d34dc896a88db4a804f" target="_top" xlink:title=" ">
<polygon fill="white" stroke="black" points="259,-95.5 259,-114.5 346,-114.5 346,-95.5 259,-95.5"/>
<text text-anchor="middle" x="302.5" y="-102.5" font-family="Helvetica,sans-Serif" font-size="10.00">VectorPos::hgt</text>
</a>
</g>
</g>
<!-- Node1&#45;&gt;Node10 -->
<g id="edge9" class="edge">
<title>Node1&#45;&gt;Node10</title>
<path fill="none" stroke="midnightblue" d="M45.57,-228.22C58.32,-215.69 82.05,-194.04 106,-181 154.01,-154.85 172.28,-163.4 223,-143 244.21,-134.47 267.71,-122.78 283.42,-114.63"/>
</g>
<!-- Node11 -->
<g id="node11" class="node">
<title>Node11</title>
<g id="a_node11"><a xlink:href="structVectorEnu.html#a9dc9aa9b550edbb98110a836698a71e5" target="_top" xlink:title=" ">
<polygon fill="white" stroke="black" points="125.5,-114.5 125.5,-133.5 203.5,-133.5 203.5,-114.5 125.5,-114.5"/>
<text text-anchor="middle" x="164.5" y="-121.5" font-family="Helvetica,sans-Serif" font-size="10.00">VectorEnu::u</text>
</a>
</g>
</g>
<!-- Node1&#45;&gt;Node11 -->
<g id="edge10" class="edge">
<title>Node1&#45;&gt;Node11</title>
<path fill="none" stroke="midnightblue" d="M41.28,-228.26C51.53,-210.16 75.8,-171.08 106,-148 113.82,-142.02 123.35,-137.26 132.38,-133.61"/>
</g>
<!-- Node12 -->
<g id="node12" class="node">
<title>Node12</title>
<g id="a_node12"><a xlink:href="structGTime.html#affff0f00d636211bbf24c3c794f89be9" target="_top" xlink:title="Returns GTime in &quot;dd&#45;mmm&#45;yyyy hh:mm:ss&quot; format.">
<polygon fill="white" stroke="black" points="112.5,-76.5 112.5,-95.5 216.5,-95.5 216.5,-76.5 112.5,-76.5"/>
<text text-anchor="middle" x="164.5" y="-83.5" font-family="Helvetica,sans-Serif" font-size="10.00">GTime::gregString</text>
</a>
</g>
</g>
<!-- Node1&#45;&gt;Node12 -->
<g id="edge11" class="edge">
<title>Node1&#45;&gt;Node12</title>
<path fill="none" stroke="midnightblue" d="M38.37,-228.38C44.85,-204.06 65.18,-139.57 106,-105 110.57,-101.13 115.96,-98.04 121.57,-95.57"/>
</g>
<!-- Node13 -->
<g id="node13" class="node">
<title>Node13</title>
<g id="a_node13"><a xlink:href="corrections_8cpp.html#aae9756616580d8bedfd44e16f9aee7a4" target="_top" xlink:title="troposphere zhd for acs.">
<polygon fill="white" stroke="red" points="138,-38.5 138,-57.5 191,-57.5 191,-38.5 138,-38.5"/>
<text text-anchor="middle" x="164.5" y="-45.5" font-family="Helvetica,sans-Serif" font-size="10.00">tropacs</text>
</a>
</g>
</g>
<!-- Node1&#45;&gt;Node13 -->
<g id="edge12" class="edge">
<title>Node1&#45;&gt;Node13</title>
<path fill="none" stroke="midnightblue" d="M37.14,-228.29C41.05,-199.4 56.51,-113.17 106,-67 114.69,-58.9 126.91,-54.24 137.85,-51.58"/>
</g>
<!-- Node15 -->
<g id="node14" class="node">
<title>Node15</title>
<g id="a_node14"><a xlink:href="ppp_8cpp.html#a6eb06591c70d0cedc57a24881f9d2706" target="_top" xlink:title="Returns gradient mapping function m_az(el) Valid for 0 &lt; el &lt; 0.9999 * PI/2; returns 0 otherwise Ref:...">
<polygon fill="white" stroke="black" points="129,-0.5 129,-19.5 200,-19.5 200,-0.5 129,-0.5"/>
<text text-anchor="middle" x="164.5" y="-7.5" font-family="Helvetica,sans-Serif" font-size="10.00">gradMapFn</text>
</a>
</g>
</g>
<!-- Node1&#45;&gt;Node15 -->
<g id="edge14" class="edge">
<title>Node1&#45;&gt;Node15</title>
<path fill="none" stroke="midnightblue" d="M36.33,-228.1C37.95,-195.01 47.71,-87.06 106,-29 112.26,-22.77 120.6,-18.58 128.98,-15.77"/>
</g>
<!-- Node13&#45;&gt;Node10 -->
<g id="edge13" class="edge">
<title>Node13&#45;&gt;Node10</title>
<path fill="none" stroke="midnightblue" d="M191.24,-55.71C201.26,-58.91 212.77,-62.85 223,-67 244.19,-75.59 267.69,-87.26 283.41,-95.4"/>
</g>
</g>
</svg>
