<?xml version="1.0" encoding="UTF-8" standalone="no"?>
<!DOCTYPE svg PUBLIC "-//W3C//DTD SVG 1.1//EN"
 "http://www.w3.org/Graphics/SVG/1.1/DTD/svg11.dtd">
<!-- Generated by graphviz version 2.43.0 (0)
 -->
<!-- Title: minimumTest Pages: 1 -->
<svg width="451pt" height="361pt"
 viewBox="0.00 0.00 451.00 361.31" xmlns="http://www.w3.org/2000/svg" xmlns:xlink="http://www.w3.org/1999/xlink">
<g id="graph0" class="graph" transform="scale(1 1) rotate(0) translate(4 357.31)">
<title>minimumTest</title>
<polygon fill="white" stroke="transparent" points="-4,4 -4,-357.31 447,-357.31 447,4 -4,4"/>
<!-- Node1 -->
<g id="node1" class="node">
<title>Node1</title>
<g id="a_node1"><a xlink:title=" ">
<polygon fill="#bfbfbf" stroke="black" points="0,-171.5 0,-190.5 83,-190.5 83,-171.5 0,-171.5"/>
<text text-anchor="middle" x="41.5" y="-178.5" font-family="Helvetica,sans-Serif" font-size="10.00">minimumTest</text>
</a>
</g>
</g>
<!-- Node2 -->
<g id="node2" class="node">
<title>Node2</title>
<g id="a_node2"><a xlink:href="structKFMeasEntry.html#a5acb825be0bbd5c284f5922b2fa82242" target="_top" xlink:title="Adds a design matrix entry for this measurement.">
<polygon fill="white" stroke="black" points="286,-331.5 286,-350.5 441,-350.5 441,-331.5 286,-331.5"/>
<text text-anchor="middle" x="363.5" y="-338.5" font-family="Helvetica,sans-Serif" font-size="10.00">KFMeasEntry::addDsgnEntry</text>
</a>
</g>
</g>
<!-- Node1&#45;&gt;Node2 -->
<g id="edge1" class="edge">
<title>Node1&#45;&gt;Node2</title>
<path fill="none" stroke="midnightblue" d="M44.49,-190.53C50.49,-216.52 70.98,-288.75 119,-320 174.13,-355.87 251.76,-356 304.44,-350.52"/>
</g>
<!-- Node3 -->
<g id="node3" class="node">
<title>Node3</title>
<g id="a_node3"><a xlink:href="structKFMeasEntry.html#a7d612c21a6d8f4367e273baf672e6cbd" target="_top" xlink:title="Adds the actual measurement value for this measurement.">
<polygon fill="white" stroke="black" points="299,-283.5 299,-302.5 428,-302.5 428,-283.5 299,-283.5"/>
<text text-anchor="middle" x="363.5" y="-290.5" font-family="Helvetica,sans-Serif" font-size="10.00">KFMeasEntry::setValue</text>
</a>
</g>
</g>
<!-- Node1&#45;&gt;Node3 -->
<g id="edge2" class="edge">
<title>Node1&#45;&gt;Node3</title>
<path fill="none" stroke="midnightblue" d="M45.49,-190.71C53.22,-213.89 76.31,-272.23 119,-295 186.71,-331.1 280.8,-315.01 329.84,-302.58"/>
</g>
<!-- Node4 -->
<g id="node4" class="node">
<title>Node4</title>
<g id="a_node4"><a xlink:href="structKFMeasEntry.html#a58172784aeb65ed62d2b21ee570f4980" target="_top" xlink:title="Adds the measurement noise entry for this measurement.">
<polygon fill="white" stroke="black" points="119,-266.5 119,-285.5 248,-285.5 248,-266.5 119,-266.5"/>
<text text-anchor="middle" x="183.5" y="-273.5" font-family="Helvetica,sans-Serif" font-size="10.00">KFMeasEntry::setNoise</text>
</a>
</g>
</g>
<!-- Node1&#45;&gt;Node4 -->
<g id="edge3" class="edge">
<title>Node1&#45;&gt;Node4</title>
<path fill="none" stroke="midnightblue" d="M50.52,-190.52C63.54,-205.44 90.66,-234.44 119,-252 128.52,-257.9 139.72,-262.72 150.04,-266.46"/>
</g>
<!-- Node5 -->
<g id="node5" class="node">
<title>Node5</title>
<g id="a_node5"><a xlink:href="structKFState.html#a7f8e4b9291361c063cef8d9178f07707" target="_top" xlink:title="Add process noise and dynamics to filter object according to time gap.">
<polygon fill="white" stroke="red" points="296.5,-224.5 296.5,-243.5 430.5,-243.5 430.5,-224.5 296.5,-224.5"/>
<text text-anchor="middle" x="363.5" y="-231.5" font-family="Helvetica,sans-Serif" font-size="10.00">KFState::stateTransition</text>
</a>
</g>
</g>
<!-- Node1&#45;&gt;Node5 -->
<g id="edge4" class="edge">
<title>Node1&#45;&gt;Node5</title>
<path fill="none" stroke="midnightblue" d="M80.1,-190.55C92.45,-193.49 106.26,-196.59 119,-199 178.69,-210.29 247.23,-219.84 296.35,-226.1"/>
</g>
<!-- Node11 -->
<g id="node6" class="node">
<title>Node11</title>
<g id="a_node6"><a xlink:href="structKFState.html#a4422abfc2efdc898a2558d57be35e863" target="_top" xlink:title="Combine a list of KFMeasEntrys into a single KFMeas object for used in the filter.">
<polygon fill="white" stroke="red" points="284,-182.5 284,-201.5 443,-201.5 443,-182.5 284,-182.5"/>
<text text-anchor="middle" x="363.5" y="-189.5" font-family="Helvetica,sans-Serif" font-size="10.00">KFState::combineKFMeasList</text>
</a>
</g>
</g>
<!-- Node1&#45;&gt;Node11 -->
<g id="edge5" class="edge">
<title>Node1&#45;&gt;Node11</title>
<path fill="none" stroke="midnightblue" d="M83.03,-182.39C133.31,-184.12 220.18,-187.11 283.75,-189.29"/>
</g>
<!-- Node13 -->
<g id="node7" class="node">
<title>Node13</title>
<g id="a_node7"><a xlink:href="structKFState.html#ae1fc274c403b77dc814ed90763b4dea1" target="_top" xlink:title="Least squares estimator for new kalman filter states.">
<polygon fill="white" stroke="red" points="296.5,-125 296.5,-155 430.5,-155 430.5,-125 296.5,-125"/>
<text text-anchor="start" x="304.5" y="-143" font-family="Helvetica,sans-Serif" font-size="10.00">KFState::leastSquareInit</text>
<text text-anchor="middle" x="363.5" y="-132" font-family="Helvetica,sans-Serif" font-size="10.00">States</text>
</a>
</g>
</g>
<!-- Node1&#45;&gt;Node13 -->
<g id="edge6" class="edge">
<title>Node1&#45;&gt;Node13</title>
<path fill="none" stroke="midnightblue" d="M83.03,-175.81C136.76,-168.92 232.26,-156.69 296.48,-148.46"/>
</g>
<!-- Node16 -->
<g id="node8" class="node">
<title>Node16</title>
<g id="a_node8"><a xlink:href="structKFState.html#a0c84e911a5ea760fe728baec661e33f0" target="_top" xlink:title="Output keys and states in human readable format.">
<polygon fill="white" stroke="red" points="302,-70.5 302,-89.5 425,-89.5 425,-70.5 302,-70.5"/>
<text text-anchor="middle" x="363.5" y="-77.5" font-family="Helvetica,sans-Serif" font-size="10.00">KFState::outputStates</text>
</a>
</g>
</g>
<!-- Node1&#45;&gt;Node16 -->
<g id="edge7" class="edge">
<title>Node1&#45;&gt;Node16</title>
<path fill="none" stroke="midnightblue" d="M65.4,-171.4C80.49,-165.22 100.77,-157.22 119,-151 191.52,-126.26 277.95,-102.35 325.88,-89.57"/>
</g>
<!-- Node18 -->
<g id="node9" class="node">
<title>Node18</title>
<g id="a_node9"><a xlink:href="pea__snx_8cpp.html#a6b5f4d774fbaf2921b08fe116510c5bf" target="_top" xlink:title=" ">
<polygon fill="white" stroke="red" points="125.5,-76.5 125.5,-95.5 241.5,-95.5 241.5,-76.5 125.5,-76.5"/>
<text text-anchor="middle" x="183.5" y="-83.5" font-family="Helvetica,sans-Serif" font-size="10.00">sinexPostProcessing</text>
</a>
</g>
</g>
<!-- Node1&#45;&gt;Node18 -->
<g id="edge8" class="edge">
<title>Node1&#45;&gt;Node18</title>
<path fill="none" stroke="midnightblue" d="M50.52,-171.48C63.54,-156.56 90.66,-127.56 119,-110 128.52,-104.1 139.72,-99.28 150.04,-95.54"/>
</g>
<!-- Node43 -->
<g id="node10" class="node">
<title>Node43</title>
<g id="a_node10"><a xlink:href="minimumConstraints_8cpp.html#ab2bcd4f17ec253836699f41c2c330ee0" target="_top" xlink:title=" ">
<polygon fill="white" stroke="red" points="157,-38.5 157,-57.5 210,-57.5 210,-38.5 157,-38.5"/>
<text text-anchor="middle" x="183.5" y="-45.5" font-family="Helvetica,sans-Serif" font-size="10.00">mincon</text>
</a>
</g>
</g>
<!-- Node1&#45;&gt;Node43 -->
<g id="edge9" class="edge">
<title>Node1&#45;&gt;Node43</title>
<path fill="none" stroke="midnightblue" d="M46.24,-171.41C55.27,-149.49 80.44,-95.43 119,-67 130.02,-58.87 144.52,-54.2 156.88,-51.52"/>
</g>
<!-- Node87 -->
<g id="node11" class="node">
<title>Node87</title>
<g id="a_node11"><a xlink:href="algebra__old_8cpp.html#abaa5d4a31df361116a9b2be552624cf9" target="_top" xlink:title=" ">
<polygon fill="white" stroke="red" points="162.5,-0.5 162.5,-19.5 204.5,-19.5 204.5,-0.5 162.5,-0.5"/>
<text text-anchor="middle" x="183.5" y="-7.5" font-family="Helvetica,sans-Serif" font-size="10.00">norm</text>
</a>
</g>
</g>
<!-- Node1&#45;&gt;Node87 -->
<g id="edge16" class="edge">
<title>Node1&#45;&gt;Node87</title>
<path fill="none" stroke="midnightblue" d="M44.59,-171.14C50.84,-144.15 71.91,-68.47 119,-29 131.17,-18.8 148.67,-14.07 162.22,-11.89"/>
</g>
<!-- Node43&#45;&gt;Node2 -->
<g id="edge10" class="edge">
<title>Node43&#45;&gt;Node2</title>
<path fill="none" stroke="midnightblue" d="M210.29,-49.34C223.48,-51.41 238.67,-56.21 248,-67 319.99,-150.25 214.68,-226.52 284,-312 291.23,-320.91 301.47,-327.09 312.18,-331.37"/>
</g>
<!-- Node43&#45;&gt;Node3 -->
<g id="edge11" class="edge">
<title>Node43&#45;&gt;Node3</title>
<path fill="none" stroke="midnightblue" d="M210.1,-49.51C223.23,-51.63 238.42,-56.42 248,-67 304.5,-129.43 233.35,-185.73 284,-253 294.95,-267.54 312.68,-277.21 328.52,-283.39"/>
</g>
<!-- Node43&#45;&gt;Node5 -->
<g id="edge12" class="edge">
<title>Node43&#45;&gt;Node5</title>
<path fill="none" stroke="midnightblue" d="M210.19,-49.77C223.18,-51.98 238.22,-56.77 248,-67 293.57,-114.7 238.3,-163.43 284,-211 289.61,-216.84 296.61,-221.22 304.11,-224.49"/>
</g>
<!-- Node43&#45;&gt;Node11 -->
<g id="edge13" class="edge">
<title>Node43&#45;&gt;Node11</title>
<path fill="none" stroke="midnightblue" d="M210.07,-50.26C222.87,-52.62 237.77,-57.38 248,-67 281.8,-98.79 250.85,-132.53 284,-165 292.03,-172.87 302.46,-178.45 313.07,-182.4"/>
</g>
<!-- Node43&#45;&gt;Node13 -->
<g id="edge14" class="edge">
<title>Node43&#45;&gt;Node13</title>
<path fill="none" stroke="midnightblue" d="M210.24,-53C222.21,-55.99 236.34,-60.5 248,-67 266.7,-77.43 266.38,-86.84 284,-99 298.17,-108.78 314.97,-117.85 329.38,-124.96"/>
</g>
<!-- Node43&#45;&gt;Node16 -->
<g id="edge15" class="edge">
<title>Node43&#45;&gt;Node16</title>
<path fill="none" stroke="midnightblue" d="M210,-52.58C235.86,-57.23 276.64,-64.57 309.53,-70.48"/>
</g>
</g>
</svg>
