<?xml version="1.0" encoding="UTF-8" standalone="no"?>
<!DOCTYPE svg PUBLIC "-//W3C//DTD SVG 1.1//EN"
 "http://www.w3.org/Graphics/SVG/1.1/DTD/svg11.dtd">
<!-- Generated by graphviz version 2.43.0 (0)
 -->
<!-- Title: minimumTest Pages: 1 -->
<svg width="743pt" height="1228pt"
 viewBox="0.00 0.00 743.00 1227.70" xmlns="http://www.w3.org/2000/svg" xmlns:xlink="http://www.w3.org/1999/xlink">
<g id="graph0" class="graph" transform="scale(1 1) rotate(0) translate(4 1223.7)">
<title>minimumTest</title>
<polygon fill="white" stroke="transparent" points="-4,4 -4,-1223.7 739,-1223.7 739,4 -4,4"/>
<!-- Node1 -->
<g id="node1" class="node">
<title>Node1</title>
<g id="a_node1"><a xlink:title=" ">
<polygon fill="#bfbfbf" stroke="black" points="0,-981.5 0,-1000.5 83,-1000.5 83,-981.5 0,-981.5"/>
<text text-anchor="middle" x="41.5" y="-988.5" font-family="Helvetica,sans-Serif" font-size="10.00">minimumTest</text>
</a>
</g>
</g>
<!-- Node2 -->
<g id="node2" class="node">
<title>Node2</title>
<g id="a_node2"><a xlink:href="gTime_8cpp.html#a7a747c44ca37f2ebe379fc4309d3cfba" target="_top" xlink:title=" ">
<polygon fill="white" stroke="black" points="516.5,-1057.5 516.5,-1076.5 590.5,-1076.5 590.5,-1057.5 516.5,-1057.5"/>
<text text-anchor="middle" x="553.5" y="-1064.5" font-family="Helvetica,sans-Serif" font-size="10.00">time2epoch</text>
</a>
</g>
</g>
<!-- Node1&#45;&gt;Node2 -->
<g id="edge1" class="edge">
<title>Node1&#45;&gt;Node2</title>
<path fill="none" stroke="midnightblue" d="M43.85,-1000.7C48.41,-1029.45 66.02,-1114.7 119,-1154 234.97,-1240.02 309.79,-1233.71 443,-1178 493.7,-1156.8 532.85,-1099.42 546.88,-1076.58"/>
</g>
<!-- Node3 -->
<g id="node3" class="node">
<title>Node3</title>
<g id="a_node3"><a xlink:href="gTime_8cpp.html#a42a98c9bc4ba5249c22e031840d672e0" target="_top" xlink:title=" ">
<polygon fill="white" stroke="black" points="519,-1019.5 519,-1038.5 588,-1038.5 588,-1019.5 519,-1019.5"/>
<text text-anchor="middle" x="553.5" y="-1026.5" font-family="Helvetica,sans-Serif" font-size="10.00">epoch2yds</text>
</a>
</g>
</g>
<!-- Node1&#45;&gt;Node3 -->
<g id="edge2" class="edge">
<title>Node1&#45;&gt;Node3</title>
<path fill="none" stroke="midnightblue" d="M44.93,-1000.78C51.75,-1026.08 73.66,-1094 119,-1126 179.83,-1168.94 209.82,-1148.53 284,-1155 354.4,-1161.14 385.61,-1196.24 443,-1155 483.75,-1125.72 442.27,-1082.19 479,-1048 489.71,-1038.03 504.95,-1033.14 518.78,-1030.79"/>
</g>
<!-- Node4 -->
<g id="node4" class="node">
<title>Node4</title>
<g id="a_node4"><a xlink:href="structKFMeasEntry.html#aa07d07ef75fccb307a91283ec47b38a8" target="_top" xlink:title="Adds a design matrix entry for this measurement.">
<polygon fill="white" stroke="black" points="286,-468.5 286,-487.5 441,-487.5 441,-468.5 286,-468.5"/>
<text text-anchor="middle" x="363.5" y="-475.5" font-family="Helvetica,sans-Serif" font-size="10.00">KFMeasEntry::addDsgnEntry</text>
</a>
</g>
</g>
<!-- Node1&#45;&gt;Node4 -->
<g id="edge3" class="edge">
<title>Node1&#45;&gt;Node4</title>
<path fill="none" stroke="midnightblue" d="M45.74,-1000.63C53.89,-1023.05 77.56,-1078.46 119,-1100 169.87,-1126.45 206.1,-1139.13 248,-1100 290.89,-1059.94 262.26,-627.52 284,-573 298.58,-536.43 332.75,-503.35 350.82,-487.64"/>
</g>
<!-- Node5 -->
<g id="node5" class="node">
<title>Node5</title>
<g id="a_node5"><a xlink:href="structKFMeasEntry.html#a56ed46a7048dcd7e87e75eebc342dc7d" target="_top" xlink:title="Adds the actual measurement value for this measurement.">
<polygon fill="white" stroke="black" points="299,-430.5 299,-449.5 428,-449.5 428,-430.5 299,-430.5"/>
<text text-anchor="middle" x="363.5" y="-437.5" font-family="Helvetica,sans-Serif" font-size="10.00">KFMeasEntry::setValue</text>
</a>
</g>
</g>
<!-- Node1&#45;&gt;Node5 -->
<g id="edge4" class="edge">
<title>Node1&#45;&gt;Node5</title>
<path fill="none" stroke="midnightblue" d="M48.4,-1000.57C59.63,-1017.77 85.94,-1053.37 119,-1067 172,-1088.85 206.28,-1106.32 248,-1067 346.49,-974.17 197.2,-562.85 284,-459 288.05,-454.16 293.1,-450.43 298.67,-447.58"/>
</g>
<!-- Node6 -->
<g id="node6" class="node">
<title>Node6</title>
<g id="a_node6"><a xlink:href="structKFMeasEntry.html#a1054abe38550bcd614c1a3c1afe752ee" target="_top" xlink:title="Adds the measurement noise entry for this measurement.">
<polygon fill="white" stroke="black" points="119,-1038.5 119,-1057.5 248,-1057.5 248,-1038.5 119,-1038.5"/>
<text text-anchor="middle" x="183.5" y="-1045.5" font-family="Helvetica,sans-Serif" font-size="10.00">KFMeasEntry::setNoise</text>
</a>
</g>
</g>
<!-- Node1&#45;&gt;Node6 -->
<g id="edge5" class="edge">
<title>Node1&#45;&gt;Node6</title>
<path fill="none" stroke="midnightblue" d="M63.82,-1000.51C79.11,-1007.25 100.23,-1016.41 119,-1024 131.24,-1028.95 144.92,-1034.16 156.44,-1038.46"/>
</g>
<!-- Node7 -->
<g id="node7" class="node">
<title>Node7</title>
<g id="a_node7"><a xlink:href="structKFState.html#a170d9c3a01bee9ec1f7264615b087c58" target="_top" xlink:title="Add process noise and dynamics to filter object according to time gap.">
<polygon fill="white" stroke="black" points="296.5,-392.5 296.5,-411.5 430.5,-411.5 430.5,-392.5 296.5,-392.5"/>
<text text-anchor="middle" x="363.5" y="-399.5" font-family="Helvetica,sans-Serif" font-size="10.00">KFState::stateTransition</text>
</a>
</g>
</g>
<!-- Node1&#45;&gt;Node7 -->
<g id="edge6" class="edge">
<title>Node1&#45;&gt;Node7</title>
<path fill="none" stroke="midnightblue" d="M69.81,-1000.51C113.82,-1013.9 200.28,-1031.88 248,-986 338.69,-898.8 203.1,-517.35 284,-421 287.52,-416.81 291.78,-413.46 296.49,-410.78"/>
</g>
<!-- Node14 -->
<g id="node12" class="node">
<title>Node14</title>
<g id="a_node12"><a xlink:href="structKFState.html#a4422abfc2efdc898a2558d57be35e863" target="_top" xlink:title="Combine a list of KFMeasEntrys into a single KFMeas object for used in the filter.">
<polygon fill="white" stroke="black" points="284,-354.5 284,-373.5 443,-373.5 443,-354.5 284,-354.5"/>
<text text-anchor="middle" x="363.5" y="-361.5" font-family="Helvetica,sans-Serif" font-size="10.00">KFState::combineKFMeasList</text>
</a>
</g>
</g>
<!-- Node1&#45;&gt;Node14 -->
<g id="edge11" class="edge">
<title>Node1&#45;&gt;Node14</title>
<path fill="none" stroke="midnightblue" d="M83.1,-988.21C136.72,-983.6 226.87,-972.38 248,-948 330.4,-852.93 203.1,-479.35 284,-383 287.16,-379.24 290.92,-376.16 295.06,-373.63"/>
</g>
<!-- Node15 -->
<g id="node13" class="node">
<title>Node15</title>
<g id="a_node13"><a xlink:href="structKFState.html#ae1fc274c403b77dc814ed90763b4dea1" target="_top" xlink:title="Least squares estimator for new kalman filter states.">
<polygon fill="white" stroke="black" points="296.5,-267 296.5,-297 430.5,-297 430.5,-267 296.5,-267"/>
<text text-anchor="start" x="304.5" y="-285" font-family="Helvetica,sans-Serif" font-size="10.00">KFState::leastSquareInit</text>
<text text-anchor="middle" x="363.5" y="-274" font-family="Helvetica,sans-Serif" font-size="10.00">States</text>
</a>
</g>
</g>
<!-- Node1&#45;&gt;Node15 -->
<g id="edge14" class="edge">
<title>Node1&#45;&gt;Node15</title>
<path fill="none" stroke="midnightblue" d="M57.23,-981.39C72.27,-971.9 96.54,-957.48 119,-948 174.07,-924.76 210.7,-956.7 248,-910 326.52,-811.7 226.01,-456.65 284,-345 294.79,-324.22 315.8,-307.93 333.36,-297.13"/>
</g>
<!-- Node18 -->
<g id="node16" class="node">
<title>Node18</title>
<g id="a_node16"><a xlink:href="structKFState.html#a0c84e911a5ea760fe728baec661e33f0" target="_top" xlink:title="Output keys and states in human readable format.">
<polygon fill="white" stroke="black" points="302,-228.5 302,-247.5 425,-247.5 425,-228.5 302,-228.5"/>
<text text-anchor="middle" x="363.5" y="-235.5" font-family="Helvetica,sans-Serif" font-size="10.00">KFState::outputStates</text>
</a>
</g>
</g>
<!-- Node1&#45;&gt;Node18 -->
<g id="edge17" class="edge">
<title>Node1&#45;&gt;Node18</title>
<path fill="none" stroke="midnightblue" d="M48.82,-981.34C60.53,-964.23 87.33,-928.65 119,-910 169.99,-879.97 210.37,-922.67 248,-877 335.62,-770.66 196.32,-364.29 284,-258 288.74,-252.25 294.89,-248.02 301.65,-244.94"/>
</g>
<!-- Node21 -->
<g id="node18" class="node">
<title>Node21</title>
<g id="a_node18"><a xlink:href="pea__snx_8cpp.html#a6b5f4d774fbaf2921b08fe116510c5bf" target="_top" xlink:title=" ">
<polygon fill="white" stroke="black" points="125.5,-848.5 125.5,-867.5 241.5,-867.5 241.5,-848.5 125.5,-848.5"/>
<text text-anchor="middle" x="183.5" y="-855.5" font-family="Helvetica,sans-Serif" font-size="10.00">sinexPostProcessing</text>
</a>
</g>
</g>
<!-- Node1&#45;&gt;Node21 -->
<g id="edge20" class="edge">
<title>Node1&#45;&gt;Node21</title>
<path fill="none" stroke="midnightblue" d="M46.78,-981.39C56.59,-960.43 82.66,-910.21 119,-882 126.91,-875.86 136.57,-871.15 145.95,-867.6"/>
</g>
<!-- Node46 -->
<g id="node26" class="node">
<title>Node46</title>
<g id="a_node26"><a xlink:href="minimumConstraints_8cpp.html#a85e412176915fe538d691251614f877a" target="_top" xlink:title=" ">
<polygon fill="white" stroke="black" points="157,-430.5 157,-449.5 210,-449.5 210,-430.5 157,-430.5"/>
<text text-anchor="middle" x="183.5" y="-437.5" font-family="Helvetica,sans-Serif" font-size="10.00">mincon</text>
</a>
</g>
</g>
<!-- Node1&#45;&gt;Node46 -->
<g id="edge32" class="edge">
<title>Node1&#45;&gt;Node46</title>
<path fill="none" stroke="midnightblue" d="M44.93,-981.44C61.92,-914.56 162.79,-517.57 180,-449.83"/>
</g>
<!-- Node79 -->
<g id="node39" class="node">
<title>Node79</title>
<g id="a_node39"><a xlink:href="algebra__old_8cpp.html#abaa5d4a31df361116a9b2be552624cf9" target="_top" xlink:title=" ">
<polygon fill="white" stroke="black" points="162.5,-196.5 162.5,-215.5 204.5,-215.5 204.5,-196.5 162.5,-196.5"/>
<text text-anchor="middle" x="183.5" y="-203.5" font-family="Helvetica,sans-Serif" font-size="10.00">norm</text>
</a>
</g>
</g>
<!-- Node1&#45;&gt;Node79 -->
<g id="edge62" class="edge">
<title>Node1&#45;&gt;Node79</title>
<path fill="none" stroke="midnightblue" d="M43.25,-981.14C47.61,-925.5 71.17,-645.1 119,-421 136.22,-340.31 168.47,-245.82 179.04,-215.72"/>
</g>
<!-- Node8 -->
<g id="node8" class="node">
<title>Node8</title>
<g id="a_node8"><a xlink:href="structGTime.html#aaa8a379d11cd6c040a6bbe680c0e913e" target="_top" xlink:title="Uninitialised time for comparisons.">
<polygon fill="white" stroke="black" points="508.5,-430.5 508.5,-449.5 598.5,-449.5 598.5,-430.5 508.5,-430.5"/>
<text text-anchor="middle" x="553.5" y="-437.5" font-family="Helvetica,sans-Serif" font-size="10.00">GTime::noTime</text>
</a>
</g>
</g>
<!-- Node7&#45;&gt;Node8 -->
<g id="edge7" class="edge">
<title>Node7&#45;&gt;Node8</title>
<path fill="none" stroke="midnightblue" d="M411.94,-411.59C441.53,-417.57 479.35,-425.21 508.3,-431.07"/>
</g>
<!-- Node9 -->
<g id="node9" class="node">
<title>Node9</title>
<g id="a_node9"><a xlink:href="structKFState.html#a5aeeee0f20df8cc8c4747c1b5b18212f" target="_top" xlink:title="Finds the position in the KF state vector of particular states.">
<polygon fill="white" stroke="black" points="495.5,-392.5 495.5,-411.5 611.5,-411.5 611.5,-392.5 495.5,-392.5"/>
<text text-anchor="middle" x="553.5" y="-399.5" font-family="Helvetica,sans-Serif" font-size="10.00">KFState::getKFIndex</text>
</a>
</g>
</g>
<!-- Node7&#45;&gt;Node9 -->
<g id="edge8" class="edge">
<title>Node7&#45;&gt;Node9</title>
<path fill="none" stroke="midnightblue" d="M430.52,-402C451.68,-402 474.92,-402 495.39,-402"/>
</g>
<!-- Node10 -->
<g id="node10" class="node">
<title>Node10</title>
<g id="a_node10"><a xlink:href="algebraTrace_8hpp.html#a912bbc3ba390c6b3a01f7cae26a53588" target="_top" xlink:title="Output filter state to a file for later reading.">
<polygon fill="white" stroke="red" points="510.5,-354.5 510.5,-373.5 596.5,-373.5 596.5,-354.5 510.5,-354.5"/>
<text text-anchor="middle" x="553.5" y="-361.5" font-family="Helvetica,sans-Serif" font-size="10.00">spitFilterToFile</text>
</a>
</g>
</g>
<!-- Node7&#45;&gt;Node10 -->
<g id="edge9" class="edge">
<title>Node7&#45;&gt;Node10</title>
<path fill="none" stroke="midnightblue" d="M411.94,-392.41C442.18,-386.3 481.02,-378.45 510.21,-372.55"/>
</g>
<!-- Node13 -->
<g id="node11" class="node">
<title>Node13</title>
<g id="a_node11"><a xlink:href="structKFState.html#a34fe78e0ab7a8f1d122ceabddc29b207" target="_top" xlink:title="Clears and initialises the state transition matrix to identity at the beginning of an epoch.">
<polygon fill="white" stroke="black" points="488.5,-202.5 488.5,-221.5 618.5,-221.5 618.5,-202.5 488.5,-202.5"/>
<text text-anchor="middle" x="553.5" y="-209.5" font-family="Helvetica,sans-Serif" font-size="10.00">KFState::initFilterEpoch</text>
</a>
</g>
</g>
<!-- Node7&#45;&gt;Node13 -->
<g id="edge10" class="edge">
<title>Node7&#45;&gt;Node13</title>
<path fill="none" stroke="midnightblue" d="M429.09,-392.42C434.17,-389.92 438.9,-386.83 443,-383 481.83,-346.74 448.63,-312.6 479,-269 493.49,-248.2 517.85,-231.47 534.53,-221.65"/>
</g>
<!-- Node14&#45;&gt;Node8 -->
<g id="edge12" class="edge">
<title>Node14&#45;&gt;Node8</title>
<path fill="none" stroke="midnightblue" d="M421.34,-373.6C428.9,-376.05 436.33,-379.13 443,-383 463.13,-394.66 458.96,-409.19 479,-421 487.86,-426.22 498.14,-430.02 508.16,-432.79"/>
</g>
<!-- Node14&#45;&gt;Node9 -->
<g id="edge13" class="edge">
<title>Node14&#45;&gt;Node9</title>
<path fill="none" stroke="midnightblue" d="M411.94,-373.59C440.55,-379.37 476.85,-386.71 505.4,-392.48"/>
</g>
<!-- Node16 -->
<g id="node14" class="node">
<title>Node16</title>
<g id="a_node14"><a xlink:href="structKFState.html#a326b2c602fc4aaa81c0342cb0333932f" target="_top" xlink:title="Perform chi squared quality control.">
<polygon fill="white" stroke="black" points="509,-316.5 509,-335.5 598,-335.5 598,-316.5 509,-316.5"/>
<text text-anchor="middle" x="553.5" y="-323.5" font-family="Helvetica,sans-Serif" font-size="10.00">KFState::chiQC</text>
</a>
</g>
</g>
<!-- Node15&#45;&gt;Node16 -->
<g id="edge15" class="edge">
<title>Node15&#45;&gt;Node16</title>
<path fill="none" stroke="midnightblue" d="M428.67,-297.02C456.22,-303.47 487.59,-310.81 511.86,-316.49"/>
</g>
<!-- Node17 -->
<g id="node15" class="node">
<title>Node17</title>
<g id="a_node15"><a xlink:href="streamTrace_8cpp.html#ae00e6addd3bdf3a7fd41a254eb9aec89" target="_top" xlink:title=" ">
<polygon fill="white" stroke="black" points="664,-202.5 664,-221.5 735,-221.5 735,-202.5 664,-202.5"/>
<text text-anchor="middle" x="699.5" y="-209.5" font-family="Helvetica,sans-Serif" font-size="10.00">tracepdeex</text>
</a>
</g>
</g>
<!-- Node16&#45;&gt;Node17 -->
<g id="edge16" class="edge">
<title>Node16&#45;&gt;Node17</title>
<path fill="none" stroke="midnightblue" d="M598.17,-319.86C608.54,-317.05 619.14,-312.96 628,-307 661.39,-284.51 684.98,-240.77 694.2,-221.5"/>
</g>
<!-- Node18&#45;&gt;Node17 -->
<g id="edge18" class="edge">
<title>Node18&#45;&gt;Node17</title>
<path fill="none" stroke="midnightblue" d="M425.02,-240.43C478.66,-241.63 558.94,-241.08 628,-231 641.8,-228.99 656.75,-225.2 669.33,-221.53"/>
</g>
<!-- Node19 -->
<g id="node17" class="node">
<title>Node19</title>
<g id="a_node17"><a xlink:href="structGTime.html#a64394968bbfdecbbeec4ba5134fdb682" target="_top" xlink:title=" ">
<polygon fill="white" stroke="red" points="505,-278.5 505,-297.5 602,-297.5 602,-278.5 505,-278.5"/>
<text text-anchor="middle" x="553.5" y="-285.5" font-family="Helvetica,sans-Serif" font-size="10.00">GTime::to_string</text>
</a>
</g>
</g>
<!-- Node18&#45;&gt;Node19 -->
<g id="edge19" class="edge">
<title>Node18&#45;&gt;Node19</title>
<path fill="none" stroke="midnightblue" d="M402.47,-247.53C415.35,-250.8 429.81,-254.51 443,-258 468.15,-264.65 496.48,-272.42 518.02,-278.38"/>
</g>
<!-- Node21&#45;&gt;Node2 -->
<g id="edge27" class="edge">
<title>Node21&#45;&gt;Node2</title>
<path fill="none" stroke="midnightblue" d="M192.13,-867.73C207.45,-886.58 243.93,-928.15 284,-950 348.07,-984.94 384.03,-948.01 443,-991 467.21,-1008.65 454.79,-1030.34 479,-1048 489.86,-1055.92 503.74,-1060.55 516.5,-1063.25"/>
</g>
<!-- Node21&#45;&gt;Node3 -->
<g id="edge28" class="edge">
<title>Node21&#45;&gt;Node3</title>
<path fill="none" stroke="midnightblue" d="M198.41,-867.51C217.13,-879.94 251.81,-901.68 284,-915 351.65,-942.98 376.15,-928.17 443,-958 481.07,-974.99 520.98,-1004.23 540.42,-1019.34"/>
</g>
<!-- Node22 -->
<g id="node19" class="node">
<title>Node22</title>
<g id="a_node19"><a xlink:href="sinex_8cpp.html#a32c742a3442654bb9d17958a0bd32621" target="_top" xlink:title=" ">
<polygon fill="white" stroke="black" points="305,-1115 305,-1145 422,-1145 422,-1115 305,-1115"/>
<text text-anchor="start" x="313" y="-1133" font-family="Helvetica,sans-Serif" font-size="10.00">sinex_check_add_ga</text>
<text text-anchor="middle" x="363.5" y="-1122" font-family="Helvetica,sans-Serif" font-size="10.00">_reference</text>
</a>
</g>
</g>
<!-- Node21&#45;&gt;Node22 -->
<g id="edge21" class="edge">
<title>Node21&#45;&gt;Node22</title>
<path fill="none" stroke="midnightblue" d="M188.1,-867.6C204.83,-912.06 274.47,-1096.16 284,-1105 289.98,-1110.55 297.18,-1114.86 304.78,-1118.22"/>
</g>
<!-- Node23 -->
<g id="node20" class="node">
<title>Node23</title>
<g id="a_node20"><a xlink:href="algebra_8cpp.html#a875aaa79fee3ea86808271f92784a3ad" target="_top" xlink:title=" ">
<polygon fill="white" stroke="black" points="325,-1076.5 325,-1095.5 402,-1095.5 402,-1076.5 325,-1076.5"/>
<text text-anchor="middle" x="363.5" y="-1083.5" font-family="Helvetica,sans-Serif" font-size="10.00">mergeFilters</text>
</a>
</g>
</g>
<!-- Node21&#45;&gt;Node23 -->
<g id="edge22" class="edge">
<title>Node21&#45;&gt;Node23</title>
<path fill="none" stroke="midnightblue" d="M186.09,-867.71C192.11,-901.11 216.61,-1012.29 284,-1067 295.43,-1076.28 310.69,-1081.14 324.71,-1083.65"/>
</g>
<!-- Node24 -->
<g id="node21" class="node">
<title>Node24</title>
<g id="a_node21"><a xlink:href="sinex_8cpp.html#ab52fc6aa89ee3cb1c9db7c0ebff41378" target="_top" xlink:title=" ">
<polygon fill="white" stroke="black" points="320,-1038.5 320,-1057.5 407,-1057.5 407,-1038.5 320,-1038.5"/>
<text text-anchor="middle" x="363.5" y="-1045.5" font-family="Helvetica,sans-Serif" font-size="10.00">sinex_add_file</text>
</a>
</g>
</g>
<!-- Node21&#45;&gt;Node24 -->
<g id="edge23" class="edge">
<title>Node21&#45;&gt;Node24</title>
<path fill="none" stroke="midnightblue" d="M187.13,-867.56C195.7,-896.77 225.62,-985.48 284,-1029 294.34,-1036.71 307.39,-1041.33 319.86,-1044.09"/>
</g>
<!-- Node25 -->
<g id="node22" class="node">
<title>Node25</title>
<g id="a_node22"><a xlink:href="sinex_8cpp.html#a2975545eefc33699019770d5b827782b" target="_top" xlink:title=" ">
<polygon fill="white" stroke="black" points="308.5,-1000.5 308.5,-1019.5 418.5,-1019.5 418.5,-1000.5 308.5,-1000.5"/>
<text text-anchor="middle" x="363.5" y="-1007.5" font-family="Helvetica,sans-Serif" font-size="10.00">sinex_add_statistic</text>
</a>
</g>
</g>
<!-- Node21&#45;&gt;Node25 -->
<g id="edge26" class="edge">
<title>Node21&#45;&gt;Node25</title>
<path fill="none" stroke="midnightblue" d="M189.3,-867.67C201.61,-891.48 236.72,-953.42 284,-986 293.15,-992.31 304.02,-997 314.7,-1000.47"/>
</g>
<!-- Node26 -->
<g id="node23" class="node">
<title>Node26</title>
<g id="a_node23"><a xlink:href="sinex_8cpp.html#a3a182eb82bc3e7885feba85677baea2b" target="_top" xlink:title=" ">
<polygon fill="white" stroke="black" points="303,-886.5 303,-905.5 424,-905.5 424,-886.5 303,-886.5"/>
<text text-anchor="middle" x="363.5" y="-893.5" font-family="Helvetica,sans-Serif" font-size="10.00">sinex_update_header</text>
</a>
</g>
</g>
<!-- Node21&#45;&gt;Node26 -->
<g id="edge29" class="edge">
<title>Node21&#45;&gt;Node26</title>
<path fill="none" stroke="midnightblue" d="M229.42,-867.59C256.5,-873.37 290.88,-880.71 317.91,-886.48"/>
</g>
<!-- Node27 -->
<g id="node24" class="node">
<title>Node27</title>
<g id="a_node24"><a xlink:href="acsConfig_8cpp.html#a75a34dc41e76a8680e3aa6d62ff4c800" target="_top" xlink:title="Replace macros for times with numeric values.">
<polygon fill="white" stroke="red" points="322.5,-848.5 322.5,-867.5 404.5,-867.5 404.5,-848.5 322.5,-848.5"/>
<text text-anchor="middle" x="363.5" y="-855.5" font-family="Helvetica,sans-Serif" font-size="10.00">replaceTimes</text>
</a>
</g>
</g>
<!-- Node21&#45;&gt;Node27 -->
<g id="edge30" class="edge">
<title>Node21&#45;&gt;Node27</title>
<path fill="none" stroke="midnightblue" d="M241.8,-858C268.12,-858 298.7,-858 322.49,-858"/>
</g>
<!-- Node29 -->
<g id="node25" class="node">
<title>Node29</title>
<g id="a_node25"><a xlink:href="sinex_8cpp.html#a747f37ad26259edf174b9fa6cdf6797d" target="_top" xlink:title=" ">
<polygon fill="white" stroke="red" points="327,-810.5 327,-829.5 400,-829.5 400,-810.5 327,-810.5"/>
<text text-anchor="middle" x="363.5" y="-817.5" font-family="Helvetica,sans-Serif" font-size="10.00">write_sinex</text>
</a>
</g>
</g>
<!-- Node21&#45;&gt;Node29 -->
<g id="edge31" class="edge">
<title>Node21&#45;&gt;Node29</title>
<path fill="none" stroke="midnightblue" d="M229.42,-848.41C259.59,-841.97 298.81,-833.6 326.85,-827.61"/>
</g>
<!-- Node24&#45;&gt;Node2 -->
<g id="edge24" class="edge">
<title>Node24&#45;&gt;Node2</title>
<path fill="none" stroke="midnightblue" d="M407.16,-1052.31C440.09,-1055.64 485.16,-1060.19 516.34,-1063.35"/>
</g>
<!-- Node24&#45;&gt;Node3 -->
<g id="edge25" class="edge">
<title>Node24&#45;&gt;Node3</title>
<path fill="none" stroke="midnightblue" d="M407.16,-1043.69C440.96,-1040.27 487.54,-1035.57 518.77,-1032.41"/>
</g>
<!-- Node46&#45;&gt;Node4 -->
<g id="edge41" class="edge">
<title>Node46&#45;&gt;Node4</title>
<path fill="none" stroke="midnightblue" d="M210,-445.44C238.07,-451.44 283.73,-461.18 317.78,-468.45"/>
</g>
<!-- Node46&#45;&gt;Node5 -->
<g id="edge42" class="edge">
<title>Node46&#45;&gt;Node5</title>
<path fill="none" stroke="midnightblue" d="M210,-440C233.07,-440 268.02,-440 298.65,-440"/>
</g>
<!-- Node46&#45;&gt;Node7 -->
<g id="edge43" class="edge">
<title>Node46&#45;&gt;Node7</title>
<path fill="none" stroke="midnightblue" d="M210,-434.56C238.07,-428.56 283.73,-418.82 317.78,-411.55"/>
</g>
<!-- Node46&#45;&gt;Node8 -->
<g id="edge45" class="edge">
<title>Node46&#45;&gt;Node8</title>
<path fill="none" stroke="midnightblue" d="M190.75,-430.29C204.59,-409.8 240.1,-362.59 284,-345 349.6,-318.71 383.29,-307.21 443,-345 474.58,-364.99 450.19,-397.19 479,-421 487.33,-427.89 497.87,-432.31 508.34,-435.14"/>
</g>
<!-- Node46&#45;&gt;Node10 -->
<g id="edge34" class="edge">
<title>Node46&#45;&gt;Node10</title>
<path fill="none" stroke="midnightblue" d="M184.28,-449.61C183.93,-491.3 188.71,-657.34 284,-725 341.62,-765.91 390.48,-772.28 443,-725 499.8,-673.87 429.11,-440.89 479,-383 486.92,-373.82 498.64,-368.78 510.4,-366.09"/>
</g>
<!-- Node46&#45;&gt;Node14 -->
<g id="edge44" class="edge">
<title>Node46&#45;&gt;Node14</title>
<path fill="none" stroke="midnightblue" d="M198.36,-430.36C217.02,-417.79 251.63,-395.89 284,-383 293.38,-379.27 303.69,-376.13 313.67,-373.55"/>
</g>
<!-- Node46&#45;&gt;Node15 -->
<g id="edge46" class="edge">
<title>Node46&#45;&gt;Node15</title>
<path fill="none" stroke="midnightblue" d="M189.62,-430.19C202.42,-406.57 238.09,-346.01 284,-312 292.09,-306.01 301.52,-301.07 310.98,-297.04"/>
</g>
<!-- Node46&#45;&gt;Node18 -->
<g id="edge47" class="edge">
<title>Node46&#45;&gt;Node18</title>
<path fill="none" stroke="midnightblue" d="M186.85,-430.3C194.76,-399.79 223.4,-305.03 284,-258 289.56,-253.69 295.94,-250.3 302.61,-247.63"/>
</g>
<!-- Node47 -->
<g id="node27" class="node">
<title>Node47</title>
<g id="a_node27"><a xlink:href="algebraTrace_8cpp.html#aa526df463f08398d3cb422d191c56cfb" target="_top" xlink:title="Returns the type of object that is located at the specified position in a file.">
<polygon fill="white" stroke="red" points="303.5,-772.5 303.5,-791.5 423.5,-791.5 423.5,-772.5 303.5,-772.5"/>
<text text-anchor="middle" x="363.5" y="-779.5" font-family="Helvetica,sans-Serif" font-size="10.00">getFilterTypeFromFile</text>
</a>
</g>
</g>
<!-- Node46&#45;&gt;Node47 -->
<g id="edge33" class="edge">
<title>Node46&#45;&gt;Node47</title>
<path fill="none" stroke="midnightblue" d="M184.47,-449.67C184.87,-492.48 192.28,-666.88 284,-758 290.37,-764.33 298.36,-768.99 306.78,-772.43"/>
</g>
<!-- Node48 -->
<g id="node28" class="node">
<title>Node48</title>
<g id="a_node28"><a xlink:href="ppp_8cpp.html#a5ff69fbde2656ecb8d0af6f6cb549d6d" target="_top" xlink:title="Deweight measurement and its relatives.">
<polygon fill="white" stroke="black" points="302.5,-696.5 302.5,-715.5 424.5,-715.5 424.5,-696.5 302.5,-696.5"/>
<text text-anchor="middle" x="363.5" y="-703.5" font-family="Helvetica,sans-Serif" font-size="10.00">deweightStationMeas</text>
</a>
</g>
</g>
<!-- Node46&#45;&gt;Node48 -->
<g id="edge35" class="edge">
<title>Node46&#45;&gt;Node48</title>
<path fill="none" stroke="midnightblue" d="M185.31,-449.59C188.96,-486.49 207.22,-620.65 284,-687 289.3,-691.58 295.53,-695.1 302.12,-697.8"/>
</g>
<!-- Node49 -->
<g id="node29" class="node">
<title>Node49</title>
<g id="a_node29"><a xlink:href="algebra_8cpp.html#a304f0d512353a3c5a991c2439ea73287" target="_top" xlink:title=" ">
<polygon fill="white" stroke="black" points="300.5,-658.5 300.5,-677.5 426.5,-677.5 426.5,-658.5 300.5,-658.5"/>
<text text-anchor="middle" x="363.5" y="-665.5" font-family="Helvetica,sans-Serif" font-size="10.00">initialStateFromConfig</text>
</a>
</g>
</g>
<!-- Node46&#45;&gt;Node49 -->
<g id="edge36" class="edge">
<title>Node46&#45;&gt;Node49</title>
<path fill="none" stroke="midnightblue" d="M186.38,-449.79C193.18,-482.49 219.58,-588.98 284,-644 291.37,-650.29 300.36,-654.94 309.6,-658.36"/>
</g>
<!-- Node50 -->
<g id="node30" class="node">
<title>Node50</title>
<g id="a_node30"><a xlink:href="structACSConfig.html#a92bff361b02a9eb9de0296f29e7e1091" target="_top" xlink:title="Set minimum constraint options for a specific receiver using a hierarchy of sources.">
<polygon fill="white" stroke="red" points="479,-126.5 479,-145.5 628,-145.5 628,-126.5 479,-126.5"/>
<text text-anchor="middle" x="553.5" y="-133.5" font-family="Helvetica,sans-Serif" font-size="10.00">ACSConfig::getMinConOpts</text>
</a>
</g>
</g>
<!-- Node46&#45;&gt;Node50 -->
<g id="edge37" class="edge">
<title>Node46&#45;&gt;Node50</title>
<path fill="none" stroke="midnightblue" d="M186.61,-449.77C193.81,-480.37 220.58,-574.53 284,-611 345.26,-646.23 390.93,-658.78 443,-611 511.7,-547.97 434.42,-274.88 479,-193 490.89,-171.16 515.07,-154.97 532.46,-145.53"/>
</g>
<!-- Node55 -->
<g id="node31" class="node">
<title>Node55</title>
<g id="a_node31"><a xlink:href="structKFState.html#a291ac2a8a4612b3575dbc864d43fa0f7" target="_top" xlink:title="Returns the value and variance of a state within the kalman filter object.">
<polygon fill="white" stroke="black" points="305,-582.5 305,-601.5 422,-601.5 422,-582.5 305,-582.5"/>
<text text-anchor="middle" x="363.5" y="-589.5" font-family="Helvetica,sans-Serif" font-size="10.00">KFState::getKFValue</text>
</a>
</g>
</g>
<!-- Node46&#45;&gt;Node55 -->
<g id="edge38" class="edge">
<title>Node46&#45;&gt;Node55</title>
<path fill="none" stroke="midnightblue" d="M189.3,-449.67C201.61,-473.48 236.72,-535.42 284,-568 293.15,-574.31 304.02,-579 314.7,-582.47"/>
</g>
<!-- Node56 -->
<g id="node32" class="node">
<title>Node56</title>
<g id="a_node32"><a xlink:href="rtkcmn_8cpp.html#ae91d83cf693cdc7e1efacbe4d8d9656e" target="_top" xlink:title=" ">
<polygon fill="white" stroke="black" points="523,-88.5 523,-107.5 584,-107.5 584,-88.5 523,-88.5"/>
<text text-anchor="middle" x="553.5" y="-95.5" font-family="Helvetica,sans-Serif" font-size="10.00">ecef2pos</text>
</a>
</g>
</g>
<!-- Node46&#45;&gt;Node56 -->
<g id="edge39" class="edge">
<title>Node46&#45;&gt;Node56</title>
<path fill="none" stroke="midnightblue" d="M191.1,-449.51C205.34,-469.1 241.18,-513.51 284,-530 349.94,-555.4 390.91,-577.75 443,-530 510.91,-467.75 419.48,-187.32 479,-117 489.64,-104.42 507.42,-99.6 522.82,-97.96"/>
</g>
<!-- Node57 -->
<g id="node33" class="node">
<title>Node57</title>
<g id="a_node33"><a xlink:href="rtkcmn_8cpp.html#a59a54664edbf3bc2ebeb1f5e5e7a67d0" target="_top" xlink:title=" ">
<polygon fill="white" stroke="black" points="524.5,-50.5 524.5,-69.5 582.5,-69.5 582.5,-50.5 524.5,-50.5"/>
<text text-anchor="middle" x="553.5" y="-57.5" font-family="Helvetica,sans-Serif" font-size="10.00">xyz2enu</text>
</a>
</g>
</g>
<!-- Node46&#45;&gt;Node57 -->
<g id="edge40" class="edge">
<title>Node46&#45;&gt;Node57</title>
<path fill="none" stroke="midnightblue" d="M197.53,-449.68C239.2,-479.38 370.71,-563.34 443,-497 511.7,-433.97 418.8,-150.2 479,-79 489.98,-66.02 508.55,-61.29 524.29,-59.8"/>
</g>
<!-- Node58 -->
<g id="node34" class="node">
<title>Node58</title>
<g id="a_node34"><a xlink:href="structKFState.html#a21a4858020ad706771efeea814d6c43f" target="_top" xlink:title="Kalman filter operation.">
<polygon fill="white" stroke="red" points="302.5,-190.5 302.5,-209.5 424.5,-209.5 424.5,-190.5 302.5,-190.5"/>
<text text-anchor="middle" x="363.5" y="-197.5" font-family="Helvetica,sans-Serif" font-size="10.00">KFState::filterKalman</text>
</a>
</g>
</g>
<!-- Node46&#45;&gt;Node58 -->
<g id="edge48" class="edge">
<title>Node46&#45;&gt;Node58</title>
<path fill="none" stroke="midnightblue" d="M185.83,-430.23C191.1,-395.56 213.73,-277.3 284,-219 289.4,-214.52 295.68,-211.07 302.3,-208.41"/>
</g>
<!-- Node62 -->
<g id="node35" class="node">
<title>Node62</title>
<g id="a_node35"><a xlink:href="structKFState.html#a5b591c7386c7fb734067424a097ca118" target="_top" xlink:title="Kalman filter.">
<polygon fill="white" stroke="black" points="508,-12.5 508,-31.5 599,-31.5 599,-12.5 508,-12.5"/>
<text text-anchor="middle" x="553.5" y="-19.5" font-family="Helvetica,sans-Serif" font-size="10.00">KFState::kFilter</text>
</a>
</g>
</g>
<!-- Node46&#45;&gt;Node62 -->
<g id="edge59" class="edge">
<title>Node46&#45;&gt;Node62</title>
<path fill="none" stroke="midnightblue" d="M187.16,-430.23C200.61,-381.24 261.23,-163.83 284,-143 337.6,-93.95 385.01,-148.77 443,-105 469.05,-85.34 453.13,-60.9 479,-41 487.36,-34.57 497.67,-30.31 507.9,-27.48"/>
</g>
<!-- Node73 -->
<g id="node36" class="node">
<title>Node73</title>
<g id="a_node36"><a xlink:href="minimumConstraints_8cpp.html#a57caa6625daa451bc374b5a315a3bce9" target="_top" xlink:title=" ">
<polygon fill="white" stroke="red" points="325,-152.5 325,-171.5 402,-171.5 402,-152.5 325,-152.5"/>
<text text-anchor="middle" x="363.5" y="-159.5" font-family="Helvetica,sans-Serif" font-size="10.00">minSiteData</text>
</a>
</g>
</g>
<!-- Node46&#45;&gt;Node73 -->
<g id="edge54" class="edge">
<title>Node46&#45;&gt;Node73</title>
<path fill="none" stroke="midnightblue" d="M186.95,-430.25C197.89,-387.43 243.56,-216.52 284,-181 295.17,-171.19 310.55,-166.25 324.73,-163.82"/>
</g>
<!-- Node75 -->
<g id="node37" class="node">
<title>Node75</title>
<g id="a_node37"><a xlink:href="algebra_8cpp.html#a409341f11cb16e20ae10acf6c0e03fcc" target="_top" xlink:title=" ">
<polygon fill="white" stroke="red" points="299.5,-76.5 299.5,-95.5 427.5,-95.5 427.5,-76.5 299.5,-76.5"/>
<text text-anchor="middle" x="363.5" y="-83.5" font-family="Helvetica,sans-Serif" font-size="10.00">isPositiveSemiDefinite</text>
</a>
</g>
</g>
<!-- Node46&#45;&gt;Node75 -->
<g id="edge60" class="edge">
<title>Node46&#45;&gt;Node75</title>
<path fill="none" stroke="midnightblue" d="M187.38,-430.22C203.41,-375.85 280.97,-113.04 284,-110 290.34,-103.64 298.31,-98.96 306.73,-95.51"/>
</g>
<!-- Node78 -->
<g id="node38" class="node">
<title>Node78</title>
<g id="a_node38"><a xlink:href="sinex_8cpp.html#a4bde61f873ae7c59acf3c7340a36ea7e" target="_top" xlink:title=" ">
<polygon fill="white" stroke="black" points="304.5,-38.5 304.5,-57.5 422.5,-57.5 422.5,-38.5 304.5,-38.5"/>
<text text-anchor="middle" x="363.5" y="-45.5" font-family="Helvetica,sans-Serif" font-size="10.00">sinex_add_comment</text>
</a>
</g>
</g>
<!-- Node46&#45;&gt;Node78 -->
<g id="edge61" class="edge">
<title>Node46&#45;&gt;Node78</title>
<path fill="none" stroke="midnightblue" d="M187.63,-430.2C197.28,-399.89 227.14,-304.83 248,-225 266.21,-155.32 233.42,-118.27 284,-67 289.61,-61.31 296.62,-57.21 304.12,-54.28"/>
</g>
<!-- Node58&#45;&gt;Node8 -->
<g id="edge49" class="edge">
<title>Node58&#45;&gt;Node8</title>
<path fill="none" stroke="midnightblue" d="M424.69,-206.68C431.56,-209.6 437.91,-213.59 443,-219 505.48,-285.42 417.03,-354.1 479,-421 486.61,-429.22 497.27,-434.07 508.12,-436.89"/>
</g>
<!-- Node58&#45;&gt;Node10 -->
<g id="edge50" class="edge">
<title>Node58&#45;&gt;Node10</title>
<path fill="none" stroke="midnightblue" d="M424.58,-207.35C431.38,-210.17 437.74,-213.95 443,-219 485.01,-259.33 437.3,-304.34 479,-345 487.4,-353.19 498.84,-357.98 510.2,-360.75"/>
</g>
<!-- Node58&#45;&gt;Node13 -->
<g id="edge53" class="edge">
<title>Node58&#45;&gt;Node13</title>
<path fill="none" stroke="midnightblue" d="M424.5,-203.83C444.81,-205.13 467.57,-206.58 488.2,-207.9"/>
</g>
<!-- Node58&#45;&gt;Node62 -->
<g id="edge51" class="edge">
<title>Node58&#45;&gt;Node62</title>
<path fill="none" stroke="midnightblue" d="M424.71,-192.79C431.49,-189.94 437.81,-186.12 443,-181 488.75,-135.9 433.6,-86.46 479,-41 486.73,-33.26 497.17,-28.54 507.76,-25.7"/>
</g>
<!-- Node62&#45;&gt;Node17 -->
<g id="edge52" class="edge">
<title>Node62&#45;&gt;Node17</title>
<path fill="none" stroke="midnightblue" d="M599.29,-26.67C609.63,-29.51 619.95,-33.99 628,-41 679.1,-85.49 693.86,-172.81 697.47,-202.13"/>
</g>
<!-- Node73&#45;&gt;Node17 -->
<g id="edge55" class="edge">
<title>Node73&#45;&gt;Node17</title>
<path fill="none" stroke="midnightblue" d="M402.29,-164.7C453.7,-168.77 548.39,-177.68 628,-193 640.95,-195.49 655.01,-199.1 667.14,-202.5"/>
</g>
<!-- Node73&#45;&gt;Node50 -->
<g id="edge56" class="edge">
<title>Node73&#45;&gt;Node50</title>
<path fill="none" stroke="midnightblue" d="M402.09,-156.8C425.45,-153.57 456.19,-149.32 483.78,-145.5"/>
</g>
<!-- Node73&#45;&gt;Node56 -->
<g id="edge57" class="edge">
<title>Node73&#45;&gt;Node56</title>
<path fill="none" stroke="midnightblue" d="M401.88,-152.49C415.11,-148.62 429.94,-143.71 443,-138 459.97,-130.58 461.87,-124.05 479,-117 493.02,-111.23 509.27,-106.81 522.93,-103.69"/>
</g>
<!-- Node73&#45;&gt;Node57 -->
<g id="edge58" class="edge">
<title>Node73&#45;&gt;Node57</title>
<path fill="none" stroke="midnightblue" d="M402.27,-156.27C416.14,-152.75 431.29,-147.09 443,-138 467.27,-119.17 454.32,-97.29 479,-79 492.13,-69.27 509.78,-64.5 524.5,-62.18"/>
</g>
<!-- Node80 -->
<g id="node40" class="node">
<title>Node80</title>
<g id="a_node40"><a xlink:href="algebra__old_8cpp.html#addee52380c690a50fa0048924c67bc92" target="_top" xlink:title=" ">
<polygon fill="white" stroke="black" points="347.5,-0.5 347.5,-19.5 379.5,-19.5 379.5,-0.5 347.5,-0.5"/>
<text text-anchor="middle" x="363.5" y="-7.5" font-family="Helvetica,sans-Serif" font-size="10.00">dot</text>
</a>
</g>
</g>
<!-- Node79&#45;&gt;Node80 -->
<g id="edge63" class="edge">
<title>Node79&#45;&gt;Node80</title>
<path fill="none" stroke="midnightblue" d="M187.03,-196.11C195.28,-165.89 224.42,-74.11 284,-29 302.67,-14.86 330.39,-11.09 347.4,-10.17"/>
</g>
</g>
</svg>
