<?xml version="1.0" encoding="UTF-8" standalone="no"?>
<!DOCTYPE svg PUBLIC "-//W3C//DTD SVG 1.1//EN"
 "http://www.w3.org/Graphics/SVG/1.1/DTD/svg11.dtd">
<!-- Generated by graphviz version 2.43.0 (0)
 -->
<!-- Title: /data/staging/ginan/src/cpp/gui Pages: 1 -->
<svg width="100pt" height="167pt"
 viewBox="0.00 0.00 100.00 167.00" xmlns="http://www.w3.org/2000/svg" xmlns:xlink="http://www.w3.org/1999/xlink">
<g id="graph0" class="graph" transform="scale(1 1) rotate(0) translate(4 163)">
<title>/data/staging/ginan/src/cpp/gui</title>
<polygon fill="white" stroke="transparent" points="-4,4 -4,-163 96,-163 96,4 -4,4"/>
<g id="clust1" class="cluster">
<title>clusterdir_df511e5bd85cec96854b39d5e1c27aa8</title>
<g id="a_clust1"><a xlink:href="dir_df511e5bd85cec96854b39d5e1c27aa8.html" target="_top" xlink:title="cpp">
<polygon fill="#f9f5f1" stroke="#404040" stroke-dasharray="5,2" points="8,-8 8,-151 84,-151 84,-8 8,-8"/>
<text text-anchor="middle" x="46" y="-139" font-family="Helvetica,sans-Serif" font-size="10.00">cpp</text>
</a>
</g>
</g>
<!-- dir_8a65d247160fca2a969d6d8ca16055a2 -->
<g id="node1" class="node">
<title>dir_8a65d247160fca2a969d6d8ca16055a2</title>
<g id="a_node1"><a xlink:href="dir_8a65d247160fca2a969d6d8ca16055a2.html" target="_top" xlink:title="common">
<polygon fill="#e0cbb9" stroke="#404040" points="75.5,-52 16.5,-52 16.5,-16 75.5,-16 75.5,-52"/>
<text text-anchor="middle" x="46" y="-31.5" font-family="Helvetica,sans-Serif" font-size="10.00">common</text>
</a>
</g>
</g>
<!-- dir_6b6210fd8a5e61e3066573eb59bc8f1a -->
<g id="node2" class="node">
<title>dir_6b6210fd8a5e61e3066573eb59bc8f1a</title>
<g id="a_node2"><a xlink:href="dir_6b6210fd8a5e61e3066573eb59bc8f1a.html" target="_top" xlink:title="gui">
<polygon fill="#f9f5f1" stroke="#404040" stroke-width="2" points="73,-124 19,-124 19,-88 73,-88 73,-124"/>
<text text-anchor="middle" x="46" y="-103.5" font-family="Helvetica,sans-Serif" font-size="10.00">gui</text>
</a>
</g>
</g>
<!-- dir_6b6210fd8a5e61e3066573eb59bc8f1a&#45;&gt;dir_8a65d247160fca2a969d6d8ca16055a2 -->
<g id="edge1" class="edge">
<title>dir_6b6210fd8a5e61e3066573eb59bc8f1a&#45;&gt;dir_8a65d247160fca2a969d6d8ca16055a2</title>
<path fill="none" stroke="black" d="M46,-87.7C46,-79.98 46,-70.71 46,-62.11"/>
<polygon fill="black" stroke="black" points="49.5,-62.1 46,-52.1 42.5,-62.1 49.5,-62.1"/>
<g id="a_edge1&#45;headlabel"><a xlink:href="dir_000004_000002.html" target="_top" xlink:title="7">
<text text-anchor="middle" x="52.34" y="-63.2" font-family="Helvetica,sans-Serif" font-size="10.00">7</text>
</a>
</g>
</g>
</g>
</svg>
