<?xml version="1.0" encoding="UTF-8" standalone="no"?>
<!DOCTYPE svg PUBLIC "-//W3C//DTD SVG 1.1//EN"
 "http://www.w3.org/Graphics/SVG/1.1/DTD/svg11.dtd">
<!-- Generated by graphviz version 2.43.0 (0)
 -->
<!-- Title: /data/staging/ginan/src/cpp/iono Pages: 1 -->
<svg width="172pt" height="167pt"
 viewBox="0.00 0.00 172.00 167.00" xmlns="http://www.w3.org/2000/svg" xmlns:xlink="http://www.w3.org/1999/xlink">
<g id="graph0" class="graph" transform="scale(1 1) rotate(0) translate(4 163)">
<title>/data/staging/ginan/src/cpp/iono</title>
<polygon fill="white" stroke="transparent" points="-4,4 -4,-163 168,-163 168,4 -4,4"/>
<g id="clust1" class="cluster">
<title>clusterdir_df511e5bd85cec96854b39d5e1c27aa8</title>
<g id="a_clust1"><a xlink:href="dir_df511e5bd85cec96854b39d5e1c27aa8.html" target="_top" xlink:title="cpp">
<polygon fill="#f9f5f1" stroke="#404040" stroke-dasharray="5,2" points="8,-8 8,-151 156,-151 156,-8 8,-8"/>
<text text-anchor="middle" x="82" y="-139" font-family="Helvetica,sans-Serif" font-size="10.00">cpp</text>
</a>
</g>
</g>
<!-- dir_8a65d247160fca2a969d6d8ca16055a2 -->
<g id="node1" class="node">
<title>dir_8a65d247160fca2a969d6d8ca16055a2</title>
<g id="a_node1"><a xlink:href="dir_8a65d247160fca2a969d6d8ca16055a2.html" target="_top" xlink:title="common">
<polygon fill="#e0cbb9" stroke="#404040" points="75.5,-52 16.5,-52 16.5,-16 75.5,-16 75.5,-52"/>
<text text-anchor="middle" x="46" y="-31.5" font-family="Helvetica,sans-Serif" font-size="10.00">common</text>
</a>
</g>
</g>
<!-- dir_cd1d47827149af4cd00fedba09411bef -->
<g id="node2" class="node">
<title>dir_cd1d47827149af4cd00fedba09411bef</title>
<g id="a_node2"><a xlink:href="dir_cd1d47827149af4cd00fedba09411bef.html" target="_top" xlink:title="orbprop">
<polygon fill="#e0cbb9" stroke="#404040" points="148,-52 94,-52 94,-16 148,-16 148,-52"/>
<text text-anchor="middle" x="121" y="-31.5" font-family="Helvetica,sans-Serif" font-size="10.00">orbprop</text>
</a>
</g>
</g>
<!-- dir_003ff7836255774859821e99f928564d -->
<g id="node3" class="node">
<title>dir_003ff7836255774859821e99f928564d</title>
<g id="a_node3"><a xlink:href="dir_003ff7836255774859821e99f928564d.html" target="_top" xlink:title="iono">
<polygon fill="#f9f5f1" stroke="#404040" stroke-width="2" points="110,-124 56,-124 56,-88 110,-88 110,-124"/>
<text text-anchor="middle" x="83" y="-103.5" font-family="Helvetica,sans-Serif" font-size="10.00">iono</text>
</a>
</g>
</g>
<!-- dir_003ff7836255774859821e99f928564d&#45;&gt;dir_8a65d247160fca2a969d6d8ca16055a2 -->
<g id="edge1" class="edge">
<title>dir_003ff7836255774859821e99f928564d&#45;&gt;dir_8a65d247160fca2a969d6d8ca16055a2</title>
<path fill="none" stroke="black" d="M73.85,-87.7C69.6,-79.64 64.44,-69.89 59.73,-60.98"/>
<polygon fill="black" stroke="black" points="62.81,-59.31 55.04,-52.1 56.62,-62.58 62.81,-59.31"/>
<g id="a_edge1&#45;headlabel"><a xlink:href="dir_000005_000002.html" target="_top" xlink:title="42">
<text text-anchor="middle" x="67" y="-58.66" font-family="Helvetica,sans-Serif" font-size="10.00">42</text>
</a>
</g>
</g>
<!-- dir_003ff7836255774859821e99f928564d&#45;&gt;dir_cd1d47827149af4cd00fedba09411bef -->
<g id="edge2" class="edge">
<title>dir_003ff7836255774859821e99f928564d&#45;&gt;dir_cd1d47827149af4cd00fedba09411bef</title>
<path fill="none" stroke="black" d="M92.39,-87.7C96.76,-79.64 102.06,-69.89 106.9,-60.98"/>
<polygon fill="black" stroke="black" points="110.02,-62.56 111.71,-52.1 103.87,-59.22 110.02,-62.56"/>
<g id="a_edge2&#45;headlabel"><a xlink:href="dir_000005_000007.html" target="_top" xlink:title="8">
<text text-anchor="middle" x="110.8" y="-64.58" font-family="Helvetica,sans-Serif" font-size="10.00">8</text>
</a>
</g>
</g>
</g>
</svg>
