<?xml version="1.0" encoding="UTF-8" standalone="no"?>
<!DOCTYPE svg PUBLIC "-//W3C//DTD SVG 1.1//EN"
 "http://www.w3.org/Graphics/SVG/1.1/DTD/svg11.dtd">
<!-- Generated by graphviz version 2.43.0 (0)
 -->
<!-- Title: satPosBroadcast Pages: 1 -->
<svg width="341pt" height="142pt"
 viewBox="0.00 0.00 341.00 142.00" xmlns="http://www.w3.org/2000/svg" xmlns:xlink="http://www.w3.org/1999/xlink">
<g id="graph0" class="graph" transform="scale(1 1) rotate(0) translate(4 138)">
<title>satPosBroadcast</title>
<polygon fill="white" stroke="transparent" points="-4,4 -4,-138 337,-138 337,4 -4,4"/>
<!-- Node1 -->
<g id="node1" class="node">
<title>Node1</title>
<g id="a_node1"><a xlink:title=" ">
<polygon fill="#bfbfbf" stroke="black" points="0,-57.5 0,-76.5 98,-76.5 98,-57.5 0,-57.5"/>
<text text-anchor="middle" x="49" y="-64.5" font-family="Helvetica,sans-Serif" font-size="10.00">satPosBroadcast</text>
</a>
</g>
</g>
<!-- Node2 -->
<g id="node2" class="node">
<title>Node2</title>
<g id="a_node2"><a xlink:href="trace_8hpp.html#a984a9b0c40d65d46f2c73a021a7b7de3" target="_top" xlink:title=" ">
<polygon fill="white" stroke="black" points="147.5,-114.5 147.5,-133.5 218.5,-133.5 218.5,-114.5 147.5,-114.5"/>
<text text-anchor="middle" x="183" y="-121.5" font-family="Helvetica,sans-Serif" font-size="10.00">tracepdeex</text>
</a>
</g>
</g>
<!-- Node1&#45;&gt;Node2 -->
<g id="edge1" class="edge">
<title>Node1&#45;&gt;Node2</title>
<path fill="none" stroke="midnightblue" d="M72.09,-76.54C93.51,-85.79 126.21,-99.91 150.38,-110.35"/>
<polygon fill="midnightblue" stroke="midnightblue" points="149.27,-113.68 159.83,-114.43 152.04,-107.25 149.27,-113.68"/>
</g>
<!-- Node3 -->
<g id="node3" class="node">
<title>Node3</title>
<g id="a_node3"><a xlink:href="structSatSys.html#aec6d07b90d1e8172b8b6a6966abef4fd" target="_top" xlink:title="Returns a std::string of this satellite&#39;s id.">
<polygon fill="white" stroke="red" points="268,-38.5 268,-57.5 333,-57.5 333,-38.5 268,-38.5"/>
<text text-anchor="middle" x="300.5" y="-45.5" font-family="Helvetica,sans-Serif" font-size="10.00">SatSys::id</text>
</a>
</g>
</g>
<!-- Node1&#45;&gt;Node3 -->
<g id="edge2" class="edge">
<title>Node1&#45;&gt;Node3</title>
<path fill="none" stroke="midnightblue" d="M98.14,-70.57C134.98,-72.44 186.93,-73.22 232,-67 242.02,-65.62 252.66,-63.13 262.44,-60.4"/>
<polygon fill="midnightblue" stroke="midnightblue" points="263.67,-63.68 272.28,-57.5 261.69,-56.97 263.67,-63.68"/>
</g>
<!-- Node6 -->
<g id="node4" class="node">
<title>Node6</title>
<g id="a_node4"><a xlink:href="structGTime.html#a98fdbaaec5a132a7e694f28b4f1907cb" target="_top" xlink:title=" ">
<polygon fill="white" stroke="black" points="134,-38.5 134,-57.5 232,-57.5 232,-38.5 134,-38.5"/>
<text text-anchor="middle" x="183" y="-45.5" font-family="Helvetica,sans-Serif" font-size="10.00">GTime::to_string</text>
</a>
</g>
</g>
<!-- Node1&#45;&gt;Node6 -->
<g id="edge3" class="edge">
<title>Node1&#45;&gt;Node6</title>
<path fill="none" stroke="midnightblue" d="M98.03,-60.09C106.4,-58.88 115.19,-57.62 123.8,-56.38"/>
<polygon fill="midnightblue" stroke="midnightblue" points="124.39,-59.83 133.79,-54.94 123.39,-52.9 124.39,-59.83"/>
</g>
<!-- Node7 -->
<g id="node5" class="node">
<title>Node7</title>
<g id="a_node5"><a xlink:href="ephBroadcast_8cpp.html#a231da19d50156a3a585df5e427b7723c" target="_top" xlink:title="broadcast ephemeris to satellite position and clock bias compute satellite position and clock bias wi...">
<polygon fill="white" stroke="red" points="154,-0.5 154,-19.5 212,-19.5 212,-0.5 154,-0.5"/>
<text text-anchor="middle" x="183" y="-7.5" font-family="Helvetica,sans-Serif" font-size="10.00">eph2Pos</text>
</a>
</g>
</g>
<!-- Node1&#45;&gt;Node7 -->
<g id="edge4" class="edge">
<title>Node1&#45;&gt;Node7</title>
<path fill="none" stroke="midnightblue" d="M70.59,-57.35C87.52,-49.5 112.19,-38.24 134,-29 138.41,-27.13 143.07,-25.21 147.68,-23.35"/>
<polygon fill="midnightblue" stroke="midnightblue" points="149,-26.59 156.99,-19.64 146.41,-20.09 149,-26.59"/>
</g>
<!-- Node7&#45;&gt;Node3 -->
<g id="edge5" class="edge">
<title>Node7&#45;&gt;Node3</title>
<path fill="none" stroke="midnightblue" d="M212.25,-19.3C226.86,-24.1 244.89,-30.03 260.77,-35.26"/>
<polygon fill="midnightblue" stroke="midnightblue" points="259.74,-38.6 270.33,-38.4 261.93,-31.95 259.74,-38.6"/>
</g>
</g>
</svg>
