<?xml version="1.0" encoding="UTF-8" standalone="no"?>
<!DOCTYPE svg PUBLIC "-//W3C//DTD SVG 1.1//EN"
 "http://www.w3.org/Graphics/SVG/1.1/DTD/svg11.dtd">
<!-- Generated by graphviz version 2.43.0 (0)
 -->
<!-- Title: selSysEphFromMap Pages: 1 -->
<svg width="254pt" height="66pt"
 viewBox="0.00 0.00 254.00 66.00" xmlns="http://www.w3.org/2000/svg" xmlns:xlink="http://www.w3.org/1999/xlink">
<g id="graph0" class="graph" transform="scale(1 1) rotate(0) translate(4 62)">
<title>selSysEphFromMap</title>
<polygon fill="white" stroke="transparent" points="-4,4 -4,-62 250,-62 250,4 -4,4"/>
<!-- Node1 -->
<g id="node1" class="node">
<title>Node1</title>
<g id="a_node1"><a xlink:title="select EOP/ION messages">
<polygon fill="#bfbfbf" stroke="black" points="0,-19.5 0,-38.5 112,-38.5 112,-19.5 0,-19.5"/>
<text text-anchor="middle" x="56" y="-26.5" font-family="Helvetica,sans-Serif" font-size="10.00">selSysEphFromMap</text>
</a>
</g>
</g>
<!-- Node2 -->
<g id="node2" class="node">
<title>Node2</title>
<g id="a_node2"><a xlink:href="trace_8hpp.html#a984a9b0c40d65d46f2c73a021a7b7de3" target="_top" xlink:title=" ">
<polygon fill="white" stroke="black" points="161.5,-38.5 161.5,-57.5 232.5,-57.5 232.5,-38.5 161.5,-38.5"/>
<text text-anchor="middle" x="197" y="-45.5" font-family="Helvetica,sans-Serif" font-size="10.00">tracepdeex</text>
</a>
</g>
</g>
<!-- Node1&#45;&gt;Node2 -->
<g id="edge1" class="edge">
<title>Node1&#45;&gt;Node2</title>
<path fill="none" stroke="midnightblue" d="M112.34,-36.56C125.23,-38.33 138.8,-40.18 151.18,-41.87"/>
<polygon fill="midnightblue" stroke="midnightblue" points="150.87,-45.36 161.25,-43.25 151.81,-38.43 150.87,-45.36"/>
</g>
<!-- Node3 -->
<g id="node3" class="node">
<title>Node3</title>
<g id="a_node3"><a xlink:href="structGTime.html#a98fdbaaec5a132a7e694f28b4f1907cb" target="_top" xlink:title=" ">
<polygon fill="white" stroke="black" points="148,-0.5 148,-19.5 246,-19.5 246,-0.5 148,-0.5"/>
<text text-anchor="middle" x="197" y="-7.5" font-family="Helvetica,sans-Serif" font-size="10.00">GTime::to_string</text>
</a>
</g>
</g>
<!-- Node1&#45;&gt;Node3 -->
<g id="edge2" class="edge">
<title>Node1&#45;&gt;Node3</title>
<path fill="none" stroke="midnightblue" d="M112.34,-21.44C120.62,-20.3 129.19,-19.13 137.55,-17.99"/>
<polygon fill="midnightblue" stroke="midnightblue" points="138.16,-21.44 147.59,-16.62 137.21,-14.5 138.16,-21.44"/>
</g>
</g>
</svg>
