<?xml version="1.0" encoding="UTF-8" standalone="no"?>
<!DOCTYPE svg PUBLIC "-//W3C//DTD SVG 1.1//EN"
 "http://www.w3.org/Graphics/SVG/1.1/DTD/svg11.dtd">
<!-- Generated by graphviz version 2.43.0 (0)
 -->
<!-- Title: selSysEphFromMap Pages: 1 -->
<svg width="247pt" height="66pt"
 viewBox="0.00 0.00 247.00 66.00" xmlns="http://www.w3.org/2000/svg" xmlns:xlink="http://www.w3.org/1999/xlink">
<g id="graph0" class="graph" transform="scale(1 1) rotate(0) translate(4 62)">
<title>selSysEphFromMap</title>
<polygon fill="white" stroke="transparent" points="-4,4 -4,-62 243,-62 243,4 -4,4"/>
<!-- Node1 -->
<g id="node1" class="node">
<title>Node1</title>
<g id="a_node1"><a xlink:title="select EOP/ION messages">
<polygon fill="#bfbfbf" stroke="black" points="127,-19.5 127,-38.5 239,-38.5 239,-19.5 127,-19.5"/>
<text text-anchor="middle" x="183" y="-26.5" font-family="Helvetica,sans-Serif" font-size="10.00">selSysEphFromMap</text>
</a>
</g>
</g>
<!-- Node2 -->
<g id="node2" class="node">
<title>Node2</title>
<g id="a_node2"><a xlink:href="ephBroadcast_8cpp.html#ad506cac35e66f4336a1e14217d7c60e5" target="_top" xlink:title=" ">
<polygon fill="white" stroke="red" points="1,-38.5 1,-57.5 90,-57.5 90,-38.5 1,-38.5"/>
<text text-anchor="middle" x="45.5" y="-45.5" font-family="Helvetica,sans-Serif" font-size="10.00">seleph&lt; ION &gt;</text>
</a>
</g>
</g>
<!-- Node1&#45;&gt;Node2 -->
<g id="edge1" class="edge">
<title>Node1&#45;&gt;Node2</title>
<path fill="none" stroke="midnightblue" d="M116.82,-38.14C107.85,-39.4 98.81,-40.66 90.35,-41.85"/>
<polygon fill="midnightblue" stroke="midnightblue" points="117.47,-41.58 126.89,-36.73 116.5,-34.65 117.47,-41.58"/>
</g>
<!-- Node23 -->
<g id="node3" class="node">
<title>Node23</title>
<g id="a_node3"><a xlink:href="ephBroadcast_8cpp.html#ac302de8d138d36fb5378742d8b4296da" target="_top" xlink:title=" ">
<polygon fill="white" stroke="red" points="0,-0.5 0,-19.5 91,-19.5 91,-0.5 0,-0.5"/>
<text text-anchor="middle" x="45.5" y="-7.5" font-family="Helvetica,sans-Serif" font-size="10.00">seleph&lt; EOP &gt;</text>
</a>
</g>
</g>
<!-- Node1&#45;&gt;Node23 -->
<g id="edge2" class="edge">
<title>Node1&#45;&gt;Node23</title>
<path fill="none" stroke="midnightblue" d="M116.78,-19.85C108.12,-18.64 99.4,-17.42 91.2,-16.27"/>
<polygon fill="midnightblue" stroke="midnightblue" points="116.5,-23.35 126.89,-21.27 117.47,-16.42 116.5,-23.35"/>
</g>
</g>
</svg>
