<?xml version="1.0" encoding="UTF-8" standalone="no"?>
<!DOCTYPE svg PUBLIC "-//W3C//DTD SVG 1.1//EN"
 "http://www.w3.org/Graphics/SVG/1.1/DTD/svg11.dtd">
<!-- Generated by graphviz version 2.43.0 (0)
 -->
<!-- Title: satclk Pages: 1 -->
<svg width="320pt" height="199pt"
 viewBox="0.00 0.00 320.00 199.00" xmlns="http://www.w3.org/2000/svg" xmlns:xlink="http://www.w3.org/1999/xlink">
<g id="graph0" class="graph" transform="scale(1 1) rotate(0) translate(4 195)">
<title>satclk</title>
<polygon fill="white" stroke="transparent" points="-4,4 -4,-195 316,-195 316,4 -4,4"/>
<!-- Node1 -->
<g id="node1" class="node">
<title>Node1</title>
<g id="a_node1"><a xlink:title=" ">
<polygon fill="#bfbfbf" stroke="black" points="0,-95.5 0,-114.5 46,-114.5 46,-95.5 0,-95.5"/>
<text text-anchor="middle" x="23" y="-102.5" font-family="Helvetica,sans-Serif" font-size="10.00">satclk</text>
</a>
</g>
</g>
<!-- Node2 -->
<g id="node2" class="node">
<title>Node2</title>
<g id="a_node2"><a xlink:href="trace_8hpp.html#a984a9b0c40d65d46f2c73a021a7b7de3" target="_top" xlink:title=" ">
<polygon fill="white" stroke="black" points="227.5,-171.5 227.5,-190.5 298.5,-190.5 298.5,-171.5 227.5,-171.5"/>
<text text-anchor="middle" x="263" y="-178.5" font-family="Helvetica,sans-Serif" font-size="10.00">tracepdeex</text>
</a>
</g>
</g>
<!-- Node1&#45;&gt;Node2 -->
<g id="edge1" class="edge">
<title>Node1&#45;&gt;Node2</title>
<path fill="none" stroke="midnightblue" d="M46.39,-112.15C86.75,-125.04 172.16,-152.31 222.53,-168.4"/>
<polygon fill="midnightblue" stroke="midnightblue" points="221.52,-171.75 232.11,-171.46 223.65,-165.08 221.52,-171.75"/>
</g>
<!-- Node3 -->
<g id="node3" class="node">
<title>Node3</title>
<g id="a_node3"><a xlink:href="structGTime.html#a98fdbaaec5a132a7e694f28b4f1907cb" target="_top" xlink:title=" ">
<polygon fill="white" stroke="black" points="214,-76.5 214,-95.5 312,-95.5 312,-76.5 214,-76.5"/>
<text text-anchor="middle" x="263" y="-83.5" font-family="Helvetica,sans-Serif" font-size="10.00">GTime::to_string</text>
</a>
</g>
</g>
<!-- Node1&#45;&gt;Node3 -->
<g id="edge2" class="edge">
<title>Node1&#45;&gt;Node3</title>
<path fill="none" stroke="midnightblue" d="M46.02,-106.53C75.98,-108.26 131.24,-110.22 178,-105 191.13,-103.53 205.21,-100.82 218.01,-97.88"/>
<polygon fill="midnightblue" stroke="midnightblue" points="219.05,-101.23 227.96,-95.51 217.42,-94.43 219.05,-101.23"/>
</g>
<!-- Node4 -->
<g id="node4" class="node">
<title>Node4</title>
<g id="a_node4"><a xlink:href="structSatSys.html#aec6d07b90d1e8172b8b6a6966abef4fd" target="_top" xlink:title="Returns a std::string of this satellite&#39;s id.">
<polygon fill="white" stroke="red" points="230.5,-114.5 230.5,-133.5 295.5,-133.5 295.5,-114.5 230.5,-114.5"/>
<text text-anchor="middle" x="263" y="-121.5" font-family="Helvetica,sans-Serif" font-size="10.00">SatSys::id</text>
</a>
</g>
</g>
<!-- Node1&#45;&gt;Node4 -->
<g id="edge3" class="edge">
<title>Node1&#45;&gt;Node4</title>
<path fill="none" stroke="midnightblue" d="M46.39,-106.79C86.12,-109.96 169.53,-116.62 220.16,-120.66"/>
<polygon fill="midnightblue" stroke="midnightblue" points="219.89,-124.15 230.13,-121.46 220.45,-117.17 219.89,-124.15"/>
</g>
<!-- Node7 -->
<g id="node5" class="node">
<title>Node7</title>
<g id="a_node5"><a xlink:href="ephBroadcast_8cpp.html#ab1c1a98259589f6e077e68b8c70091b9" target="_top" xlink:title=" ">
<polygon fill="white" stroke="red" points="82,-76.5 82,-95.5 178,-95.5 178,-76.5 82,-76.5"/>
<text text-anchor="middle" x="130" y="-83.5" font-family="Helvetica,sans-Serif" font-size="10.00">satClkBroadcast</text>
</a>
</g>
</g>
<!-- Node1&#45;&gt;Node7 -->
<g id="edge4" class="edge">
<title>Node1&#45;&gt;Node7</title>
<path fill="none" stroke="midnightblue" d="M46.01,-101.02C53.7,-99.63 62.71,-97.99 71.92,-96.33"/>
<polygon fill="midnightblue" stroke="midnightblue" points="72.71,-99.74 81.93,-94.52 71.47,-92.85 72.71,-99.74"/>
</g>
<!-- Node9 -->
<g id="node6" class="node">
<title>Node9</title>
<g id="a_node6"><a xlink:href="ephPrecise_8cpp.html#a99b848b35a95f1521e4bfe1f222f8505" target="_top" xlink:title=" ">
<polygon fill="white" stroke="red" points="88.5,-38.5 88.5,-57.5 171.5,-57.5 171.5,-38.5 88.5,-38.5"/>
<text text-anchor="middle" x="130" y="-45.5" font-family="Helvetica,sans-Serif" font-size="10.00">satClkPrecise</text>
</a>
</g>
</g>
<!-- Node1&#45;&gt;Node9 -->
<g id="edge8" class="edge">
<title>Node1&#45;&gt;Node9</title>
<path fill="none" stroke="midnightblue" d="M36.91,-95.48C48.38,-87.29 65.79,-75.48 82,-67 85.58,-65.13 89.39,-63.31 93.23,-61.6"/>
<polygon fill="midnightblue" stroke="midnightblue" points="94.9,-64.69 102.73,-57.56 92.16,-58.25 94.9,-64.69"/>
</g>
<!-- Node13 -->
<g id="node7" class="node">
<title>Node13</title>
<g id="a_node7"><a xlink:href="ephKalman_8cpp.html#a55ae9cdfbdfbae347846acb116ed909e" target="_top" xlink:title=" ">
<polygon fill="white" stroke="black" points="87.5,-0.5 87.5,-19.5 172.5,-19.5 172.5,-0.5 87.5,-0.5"/>
<text text-anchor="middle" x="130" y="-7.5" font-family="Helvetica,sans-Serif" font-size="10.00">satClkKalman</text>
</a>
</g>
</g>
<!-- Node1&#45;&gt;Node13 -->
<g id="edge9" class="edge">
<title>Node1&#45;&gt;Node13</title>
<path fill="none" stroke="midnightblue" d="M29.13,-95.26C37.96,-79.36 57.45,-47.72 82,-29 84.3,-27.25 86.78,-25.63 89.35,-24.15"/>
<polygon fill="midnightblue" stroke="midnightblue" points="91.03,-27.23 98.38,-19.6 87.87,-20.98 91.03,-27.23"/>
</g>
<!-- Node7&#45;&gt;Node2 -->
<g id="edge5" class="edge">
<title>Node7&#45;&gt;Node2</title>
<path fill="none" stroke="midnightblue" d="M144.53,-95.81C167.3,-112.32 213.45,-145.79 240.64,-165.51"/>
<polygon fill="midnightblue" stroke="midnightblue" points="238.59,-168.35 248.74,-171.39 242.7,-162.68 238.59,-168.35"/>
</g>
<!-- Node7&#45;&gt;Node3 -->
<g id="edge7" class="edge">
<title>Node7&#45;&gt;Node3</title>
<path fill="none" stroke="midnightblue" d="M178.29,-86C186.53,-86 195.18,-86 203.66,-86"/>
<polygon fill="midnightblue" stroke="midnightblue" points="203.89,-89.5 213.89,-86 203.89,-82.5 203.89,-89.5"/>
</g>
<!-- Node7&#45;&gt;Node4 -->
<g id="edge6" class="edge">
<title>Node7&#45;&gt;Node4</title>
<path fill="none" stroke="midnightblue" d="M164.06,-95.59C181.2,-100.56 202.3,-106.68 220.52,-111.97"/>
<polygon fill="midnightblue" stroke="midnightblue" points="219.73,-115.38 230.31,-114.81 221.68,-108.66 219.73,-115.38"/>
</g>
</g>
</svg>
