<?xml version="1.0" encoding="UTF-8" standalone="no"?>
<!DOCTYPE svg PUBLIC "-//W3C//DTD SVG 1.1//EN"
 "http://www.w3.org/Graphics/SVG/1.1/DTD/svg11.dtd">
<!-- Generated by graphviz version 2.43.0 (0)
 -->
<!-- Title: satposs Pages: 1 -->
<svg width="338pt" height="199pt"
 viewBox="0.00 0.00 338.00 199.00" xmlns="http://www.w3.org/2000/svg" xmlns:xlink="http://www.w3.org/1999/xlink">
<g id="graph0" class="graph" transform="scale(1 1) rotate(0) translate(4 195)">
<title>satposs</title>
<polygon fill="white" stroke="transparent" points="-4,4 -4,-195 334,-195 334,4 -4,4"/>
<!-- Node1 -->
<g id="node1" class="node">
<title>Node1</title>
<g id="a_node1"><a xlink:title="satellite positions and clocks.">
<polygon fill="#bfbfbf" stroke="black" points="0,-95.5 0,-114.5 54,-114.5 54,-95.5 0,-95.5"/>
<text text-anchor="middle" x="27" y="-102.5" font-family="Helvetica,sans-Serif" font-size="10.00">satposs</text>
</a>
</g>
</g>
<!-- Node2 -->
<g id="node2" class="node">
<title>Node2</title>
<g id="a_node2"><a xlink:href="trace_8cpp.html#ae00e6addd3bdf3a7fd41a254eb9aec89" target="_top" xlink:title=" ">
<polygon fill="white" stroke="black" points="246,-171.5 246,-190.5 317,-190.5 317,-171.5 246,-171.5"/>
<text text-anchor="middle" x="281.5" y="-178.5" font-family="Helvetica,sans-Serif" font-size="10.00">tracepdeex</text>
</a>
</g>
</g>
<!-- Node1&#45;&gt;Node2 -->
<g id="edge1" class="edge">
<title>Node1&#45;&gt;Node2</title>
<path fill="none" stroke="midnightblue" d="M35.6,-114.75C46.23,-127.58 66.85,-149.73 90,-160 140.79,-182.54 206.38,-184.61 245.85,-183.32"/>
</g>
<!-- Node3 -->
<g id="node3" class="node">
<title>Node3</title>
<g id="a_node3"><a xlink:href="structGTime.html#a64394968bbfdecbbeec4ba5134fdb682" target="_top" xlink:title=" ">
<polygon fill="white" stroke="red" points="233,-114.5 233,-133.5 330,-133.5 330,-114.5 233,-114.5"/>
<text text-anchor="middle" x="281.5" y="-121.5" font-family="Helvetica,sans-Serif" font-size="10.00">GTime::to_string</text>
</a>
</g>
</g>
<!-- Node1&#45;&gt;Node3 -->
<g id="edge2" class="edge">
<title>Node1&#45;&gt;Node3</title>
<path fill="none" stroke="midnightblue" d="M39.42,-114.71C51.2,-124.04 70.56,-137.52 90,-143 145.5,-158.66 213.27,-144.36 251.19,-133.53"/>
</g>
<!-- Node6 -->
<g id="node4" class="node">
<title>Node6</title>
<g id="a_node4"><a xlink:href="preceph_8cpp.html#a2e21e986800a930603c04dea42c199be" target="_top" xlink:title="satellite clock by precise clock">
<polygon fill="white" stroke="black" points="116,-114.5 116,-133.5 171,-133.5 171,-114.5 116,-114.5"/>
<text text-anchor="middle" x="143.5" y="-121.5" font-family="Helvetica,sans-Serif" font-size="10.00">pephclk</text>
</a>
</g>
</g>
<!-- Node1&#45;&gt;Node6 -->
<g id="edge3" class="edge">
<title>Node1&#45;&gt;Node6</title>
<path fill="none" stroke="midnightblue" d="M54.27,-109.36C72.76,-112.43 97.41,-116.52 115.96,-119.6"/>
</g>
<!-- Node7 -->
<g id="node5" class="node">
<title>Node7</title>
<g id="a_node5"><a xlink:href="ephemeris_8cpp.html#a288c25551ee8d99e20c8d06683779972" target="_top" xlink:title=" ">
<polygon fill="white" stroke="red" points="119,-76.5 119,-95.5 168,-95.5 168,-76.5 119,-76.5"/>
<text text-anchor="middle" x="143.5" y="-83.5" font-family="Helvetica,sans-Serif" font-size="10.00">ephclk</text>
</a>
</g>
</g>
<!-- Node1&#45;&gt;Node7 -->
<g id="edge5" class="edge">
<title>Node1&#45;&gt;Node7</title>
<path fill="none" stroke="midnightblue" d="M54.27,-100.64C73.68,-97.42 99.89,-93.07 118.69,-89.95"/>
</g>
<!-- Node11 -->
<g id="node6" class="node">
<title>Node11</title>
<g id="a_node6"><a xlink:href="ephemeris_8cpp.html#a2713d42c4eabf1cc1360791078335d58" target="_top" xlink:title=" ">
<polygon fill="white" stroke="red" points="119,-38.5 119,-57.5 168,-57.5 168,-38.5 119,-38.5"/>
<text text-anchor="middle" x="143.5" y="-45.5" font-family="Helvetica,sans-Serif" font-size="10.00">satpos</text>
</a>
</g>
</g>
<!-- Node1&#45;&gt;Node11 -->
<g id="edge6" class="edge">
<title>Node1&#45;&gt;Node11</title>
<path fill="none" stroke="midnightblue" d="M41.82,-95.4C54.09,-87.16 72.71,-75.32 90,-67 99.17,-62.59 109.65,-58.6 118.82,-55.43"/>
</g>
<!-- Node57 -->
<g id="node7" class="node">
<title>Node57</title>
<g id="a_node7"><a xlink:href="structTestStack.html#aff20cea87ae5eee6108b33d022913707" target="_top" xlink:title="Compare matrix against test dataset.">
<polygon fill="white" stroke="red" points="90,-0.5 90,-19.5 197,-19.5 197,-0.5 90,-0.5"/>
<text text-anchor="middle" x="143.5" y="-7.5" font-family="Helvetica,sans-Serif" font-size="10.00">TestStack::testMat</text>
</a>
</g>
</g>
<!-- Node1&#45;&gt;Node57 -->
<g id="edge9" class="edge">
<title>Node1&#45;&gt;Node57</title>
<path fill="none" stroke="midnightblue" d="M33.42,-95.43C42.92,-79.48 64.03,-47.42 90,-29 95.38,-25.19 101.6,-22.06 107.84,-19.52"/>
</g>
<!-- Node6&#45;&gt;Node3 -->
<g id="edge4" class="edge">
<title>Node6&#45;&gt;Node3</title>
<path fill="none" stroke="midnightblue" d="M171.05,-124C188.59,-124 212.1,-124 232.82,-124"/>
</g>
<!-- Node11&#45;&gt;Node2 -->
<g id="edge7" class="edge">
<title>Node11&#45;&gt;Node2</title>
<path fill="none" stroke="midnightblue" d="M168.02,-52.34C177.91,-55.15 188.97,-59.7 197,-67 224.66,-92.14 209.81,-113.69 233,-143 241.91,-154.26 254.76,-164.29 264.85,-171.2"/>
</g>
<!-- Node11&#45;&gt;Node3 -->
<g id="edge8" class="edge">
<title>Node11&#45;&gt;Node3</title>
<path fill="none" stroke="midnightblue" d="M168.03,-55.1C177.28,-58.26 187.85,-62.32 197,-67 224.19,-80.92 252.99,-102.25 268.65,-114.49"/>
</g>
</g>
</svg>
