<?xml version="1.0" encoding="UTF-8" standalone="no"?>
<!DOCTYPE svg PUBLIC "-//W3C//DTD SVG 1.1//EN"
 "http://www.w3.org/Graphics/SVG/1.1/DTD/svg11.dtd">
<!-- Generated by graphviz version 2.43.0 (0)
 -->
<!-- Title: ecef2rac Pages: 1 -->
<svg width="296pt" height="163pt"
 viewBox="0.00 0.00 296.00 162.63" xmlns="http://www.w3.org/2000/svg" xmlns:xlink="http://www.w3.org/1999/xlink">
<g id="graph0" class="graph" transform="scale(1 1) rotate(0) translate(4 158.63)">
<title>ecef2rac</title>
<polygon fill="white" stroke="transparent" points="-4,4 -4,-158.63 292,-158.63 292,4 -4,4"/>
<!-- Node1 -->
<g id="node1" class="node">
<title>Node1</title>
<g id="a_node1"><a xlink:title=" ">
<polygon fill="#bfbfbf" stroke="black" points="229,-59.13 229,-78.13 288,-78.13 288,-59.13 229,-59.13"/>
<text text-anchor="middle" x="258.5" y="-66.13" font-family="Helvetica,sans-Serif" font-size="10.00">ecef2rac</text>
</a>
</g>
</g>
<!-- Node2 -->
<g id="node2" class="node">
<title>Node2</title>
<g id="a_node2"><a xlink:href="attitude_8cpp.html#a18338f781fea251d0f8b03666fde5b9e" target="_top" xlink:title="Yaw model for GAL IOV sats.">
<polygon fill="white" stroke="red" points="100,-135.13 100,-154.13 182,-154.13 182,-135.13 100,-135.13"/>
<text text-anchor="middle" x="141" y="-142.13" font-family="Helvetica,sans-Serif" font-size="10.00">satYawGalIov</text>
</a>
</g>
</g>
<!-- Node1&#45;&gt;Node2 -->
<g id="edge1" class="edge">
<title>Node1&#45;&gt;Node2</title>
<path fill="none" stroke="midnightblue" d="M241.54,-85.79C229.24,-98.2 211.29,-114.66 193,-125.63 186.92,-129.27 180.03,-132.41 173.32,-135.03"/>
<polygon fill="midnightblue" stroke="midnightblue" points="244.33,-87.94 248.75,-78.31 239.29,-83.08 244.33,-87.94"/>
</g>
<!-- Node19 -->
<g id="node3" class="node">
<title>Node19</title>
<g id="a_node3"><a xlink:href="ephSSR_8cpp.html#a8bdff335e8cf4b98bed4b31c8c943b55" target="_top" xlink:title=" ">
<polygon fill="white" stroke="red" points="111.5,-97.13 111.5,-116.13 170.5,-116.13 170.5,-97.13 111.5,-97.13"/>
<text text-anchor="middle" x="141" y="-104.13" font-family="Helvetica,sans-Serif" font-size="10.00">rac2ecef</text>
</a>
</g>
</g>
<!-- Node1&#45;&gt;Node19 -->
<g id="edge2" class="edge">
<title>Node1&#45;&gt;Node19</title>
<path fill="none" stroke="midnightblue" d="M219.39,-81.16C203.5,-86.39 185.35,-92.37 170.62,-97.21"/>
<polygon fill="midnightblue" stroke="midnightblue" points="220.54,-84.47 228.95,-78.02 218.36,-77.82 220.54,-84.47"/>
</g>
<!-- Node38 -->
<g id="node4" class="node">
<title>Node38</title>
<g id="a_node4"><a xlink:href="rtcmEncoder_8cpp.html#a188d56d547bb664a519121cf4bf34896" target="_top" xlink:title=" ">
<polygon fill="white" stroke="red" points="89,-59.13 89,-78.13 193,-78.13 193,-59.13 89,-59.13"/>
<text text-anchor="middle" x="141" y="-66.13" font-family="Helvetica,sans-Serif" font-size="10.00">calculateSsrComb</text>
</a>
</g>
</g>
<!-- Node1&#45;&gt;Node38 -->
<g id="edge3" class="edge">
<title>Node1&#45;&gt;Node38</title>
<path fill="none" stroke="midnightblue" d="M218.88,-68.63C210.64,-68.63 201.8,-68.63 193.17,-68.63"/>
<polygon fill="midnightblue" stroke="midnightblue" points="218.95,-72.13 228.95,-68.63 218.95,-65.13 218.95,-72.13"/>
</g>
<!-- Node42 -->
<g id="node5" class="node">
<title>Node42</title>
<g id="a_node5"><a xlink:href="minimumConstraints_8cpp.html#ad6ae3cccdb74463ea328f08da634a458" target="_top" xlink:title=" ">
<polygon fill="white" stroke="black" points="99.5,-21.13 99.5,-40.13 182.5,-40.13 182.5,-21.13 99.5,-21.13"/>
<text text-anchor="middle" x="141" y="-28.13" font-family="Helvetica,sans-Serif" font-size="10.00">minOrbitData</text>
</a>
</g>
</g>
<!-- Node1&#45;&gt;Node42 -->
<g id="edge4" class="edge">
<title>Node1&#45;&gt;Node42</title>
<path fill="none" stroke="midnightblue" d="M219.02,-55.97C203.36,-50.82 185.56,-44.96 171.02,-40.18"/>
<polygon fill="midnightblue" stroke="midnightblue" points="218.36,-59.43 228.95,-59.23 220.54,-52.78 218.36,-59.43"/>
</g>
<!-- Node43 -->
<g id="node6" class="node">
<title>Node43</title>
<g id="a_node6"><a xlink:href="minimumConstraints_8cpp.html#aa40934b017f373d875c3470591eff52e" target="_top" xlink:title=" ">
<polygon fill="white" stroke="red" points="0,-2.13 0,-21.13 53,-21.13 53,-2.13 0,-2.13"/>
<text text-anchor="middle" x="26.5" y="-9.13" font-family="Helvetica,sans-Serif" font-size="10.00">mincon</text>
</a>
</g>
</g>
<!-- Node1&#45;&gt;Node43 -->
<g id="edge6" class="edge">
<title>Node1&#45;&gt;Node43</title>
<path fill="none" stroke="midnightblue" d="M244.04,-51.23C232.27,-37.54 213.83,-19.51 193,-11.63 146.24,6.07 86.59,-0.29 53.17,-6.18"/>
<polygon fill="midnightblue" stroke="midnightblue" points="241.42,-53.55 250.47,-59.06 246.83,-49.11 241.42,-53.55"/>
</g>
<!-- Node42&#45;&gt;Node43 -->
<g id="edge5" class="edge">
<title>Node42&#45;&gt;Node43</title>
<path fill="none" stroke="midnightblue" d="M89.41,-22.08C76.8,-19.95 63.81,-17.76 53.01,-15.94"/>
<polygon fill="midnightblue" stroke="midnightblue" points="88.94,-25.55 99.38,-23.77 90.11,-18.65 88.94,-25.55"/>
</g>
</g>
</svg>
