<?xml version="1.0" encoding="UTF-8" standalone="no"?>
<!DOCTYPE svg PUBLIC "-//W3C//DTD SVG 1.1//EN"
 "http://www.w3.org/Graphics/SVG/1.1/DTD/svg11.dtd">
<!-- Generated by graphviz version 2.43.0 (0)
 -->
<!-- Title: satPosSSR Pages: 1 -->
<svg width="344pt" height="370pt"
 viewBox="0.00 0.00 344.00 370.00" xmlns="http://www.w3.org/2000/svg" xmlns:xlink="http://www.w3.org/1999/xlink">
<g id="graph0" class="graph" transform="scale(1 1) rotate(0) translate(4 366)">
<title>satPosSSR</title>
<polygon fill="white" stroke="transparent" points="-4,4 -4,-366 340,-366 340,4 -4,4"/>
<!-- Node1 -->
<g id="node1" class="node">
<title>Node1</title>
<g id="a_node1"><a xlink:title="satellite position and clock with ssr correction">
<polygon fill="#bfbfbf" stroke="black" points="0,-171.5 0,-190.5 68,-190.5 68,-171.5 0,-171.5"/>
<text text-anchor="middle" x="34" y="-178.5" font-family="Helvetica,sans-Serif" font-size="10.00">satPosSSR</text>
</a>
</g>
</g>
<!-- Node2 -->
<g id="node2" class="node">
<title>Node2</title>
<g id="a_node2"><a xlink:href="ephSSR_8cpp.html#aca05186d4697c30f82bc92eb91caa178" target="_top" xlink:title=" ">
<polygon fill="white" stroke="black" points="116,-342.5 116,-361.5 190,-361.5 190,-342.5 116,-342.5"/>
<text text-anchor="middle" x="153" y="-349.5" font-family="Helvetica,sans-Serif" font-size="10.00">ssrPosDelta</text>
</a>
</g>
</g>
<!-- Node1&#45;&gt;Node2 -->
<g id="edge1" class="edge">
<title>Node1&#45;&gt;Node2</title>
<path fill="none" stroke="midnightblue" d="M36.76,-190.64C42.08,-217.07 60.34,-291.44 104,-333 105.64,-334.56 107.41,-335.99 109.29,-337.31"/>
<polygon fill="midnightblue" stroke="midnightblue" points="107.62,-340.39 118.02,-342.4 111.14,-334.34 107.62,-340.39"/>
</g>
<!-- Node3 -->
<g id="node3" class="node">
<title>Node3</title>
<g id="a_node3"><a xlink:href="trace_8hpp.html#a984a9b0c40d65d46f2c73a021a7b7de3" target="_top" xlink:title=" ">
<polygon fill="white" stroke="black" points="251.5,-304.5 251.5,-323.5 322.5,-323.5 322.5,-304.5 251.5,-304.5"/>
<text text-anchor="middle" x="287" y="-311.5" font-family="Helvetica,sans-Serif" font-size="10.00">tracepdeex</text>
</a>
</g>
</g>
<!-- Node1&#45;&gt;Node3 -->
<g id="edge19" class="edge">
<title>Node1&#45;&gt;Node3</title>
<path fill="none" stroke="midnightblue" d="M48.32,-171.36C78.91,-150.5 155.12,-105.93 202,-143 256.45,-186.06 192.58,-242.5 238,-295 239.48,-296.71 241.13,-298.26 242.9,-299.68"/>
<polygon fill="midnightblue" stroke="midnightblue" points="241.03,-302.63 251.35,-305.04 244.78,-296.73 241.03,-302.63"/>
</g>
<!-- Node4 -->
<g id="node4" class="node">
<title>Node4</title>
<g id="a_node4"><a xlink:href="structGTime.html#a98fdbaaec5a132a7e694f28b4f1907cb" target="_top" xlink:title=" ">
<polygon fill="white" stroke="black" points="238,-228.5 238,-247.5 336,-247.5 336,-228.5 238,-228.5"/>
<text text-anchor="middle" x="287" y="-235.5" font-family="Helvetica,sans-Serif" font-size="10.00">GTime::to_string</text>
</a>
</g>
</g>
<!-- Node1&#45;&gt;Node4 -->
<g id="edge10" class="edge">
<title>Node1&#45;&gt;Node4</title>
<path fill="none" stroke="midnightblue" d="M48.53,-190.6C61.93,-199.58 83.38,-212.54 104,-219 144.01,-231.54 191.13,-236.2 227.41,-237.77"/>
<polygon fill="midnightblue" stroke="midnightblue" points="227.69,-241.28 237.81,-238.15 227.95,-234.29 227.69,-241.28"/>
</g>
<!-- Node5 -->
<g id="node5" class="node">
<title>Node5</title>
<g id="a_node5"><a xlink:href="structSatSys.html#aec6d07b90d1e8172b8b6a6966abef4fd" target="_top" xlink:title="Returns a std::string of this satellite&#39;s id.">
<polygon fill="white" stroke="red" points="254.5,-266.5 254.5,-285.5 319.5,-285.5 319.5,-266.5 254.5,-266.5"/>
<text text-anchor="middle" x="287" y="-273.5" font-family="Helvetica,sans-Serif" font-size="10.00">SatSys::id</text>
</a>
</g>
</g>
<!-- Node1&#45;&gt;Node5 -->
<g id="edge9" class="edge">
<title>Node1&#45;&gt;Node5</title>
<path fill="none" stroke="midnightblue" d="M43.24,-190.87C55.16,-204.46 78.59,-228.64 104,-241 148.69,-262.75 205.72,-270.99 243.92,-274.11"/>
<polygon fill="midnightblue" stroke="midnightblue" points="243.94,-277.62 254.17,-274.86 244.45,-270.64 243.94,-277.62"/>
</g>
<!-- Node8 -->
<g id="node6" class="node">
<title>Node8</title>
<g id="a_node6"><a xlink:href="ephSSR_8cpp.html#aa7c23253963fe9c81c4019561e594559" target="_top" xlink:title=" ">
<polygon fill="white" stroke="black" points="116.5,-304.5 116.5,-323.5 189.5,-323.5 189.5,-304.5 116.5,-304.5"/>
<text text-anchor="middle" x="153" y="-311.5" font-family="Helvetica,sans-Serif" font-size="10.00">ssrClkDelta</text>
</a>
</g>
</g>
<!-- Node1&#45;&gt;Node8 -->
<g id="edge5" class="edge">
<title>Node1&#45;&gt;Node8</title>
<path fill="none" stroke="midnightblue" d="M38.95,-190.67C47.82,-211.32 71.1,-260.26 104,-290 107.96,-293.58 112.55,-296.76 117.29,-299.54"/>
<polygon fill="midnightblue" stroke="midnightblue" points="115.99,-302.81 126.47,-304.39 119.26,-296.62 115.99,-302.81"/>
</g>
<!-- Node9 -->
<g id="node7" class="node">
<title>Node9</title>
<g id="a_node7"><a xlink:href="ephBroadcast_8cpp.html#a7a12481a61ef763e3db3bac720587930" target="_top" xlink:title=" ">
<polygon fill="white" stroke="red" points="104,-190.5 104,-209.5 202,-209.5 202,-190.5 104,-190.5"/>
<text text-anchor="middle" x="153" y="-197.5" font-family="Helvetica,sans-Serif" font-size="10.00">satPosBroadcast</text>
</a>
</g>
</g>
<!-- Node1&#45;&gt;Node9 -->
<g id="edge11" class="edge">
<title>Node1&#45;&gt;Node9</title>
<path fill="none" stroke="midnightblue" d="M68.21,-186.39C76.26,-187.7 85.11,-189.14 93.93,-190.57"/>
<polygon fill="midnightblue" stroke="midnightblue" points="93.42,-194.03 103.85,-192.18 94.54,-187.12 93.42,-194.03"/>
</g>
<!-- Node12 -->
<g id="node8" class="node">
<title>Node12</title>
<g id="a_node8"><a xlink:href="ephBroadcast_8cpp.html#ab1c1a98259589f6e077e68b8c70091b9" target="_top" xlink:title=" ">
<polygon fill="white" stroke="red" points="105,-152.5 105,-171.5 201,-171.5 201,-152.5 105,-152.5"/>
<text text-anchor="middle" x="153" y="-159.5" font-family="Helvetica,sans-Serif" font-size="10.00">satClkBroadcast</text>
</a>
</g>
</g>
<!-- Node1&#45;&gt;Node12 -->
<g id="edge15" class="edge">
<title>Node1&#45;&gt;Node12</title>
<path fill="none" stroke="midnightblue" d="M68.21,-175.61C76.46,-174.27 85.54,-172.79 94.58,-171.32"/>
<polygon fill="midnightblue" stroke="midnightblue" points="95.42,-174.73 104.73,-169.68 94.3,-167.82 95.42,-174.73"/>
</g>
<!-- Node14 -->
<g id="node9" class="node">
<title>Node14</title>
<g id="a_node9"><a xlink:href="ephSSR_8cpp.html#a8bdff335e8cf4b98bed4b31c8c943b55" target="_top" xlink:title=" ">
<polygon fill="white" stroke="red" points="123.5,-76.5 123.5,-95.5 182.5,-95.5 182.5,-76.5 123.5,-76.5"/>
<text text-anchor="middle" x="153" y="-83.5" font-family="Helvetica,sans-Serif" font-size="10.00">rac2ecef</text>
</a>
</g>
</g>
<!-- Node1&#45;&gt;Node14 -->
<g id="edge20" class="edge">
<title>Node1&#45;&gt;Node14</title>
<path fill="none" stroke="midnightblue" d="M42.63,-171.26C54.53,-156.56 78.75,-128.47 104,-110 108.91,-106.41 114.45,-103.08 119.96,-100.13"/>
<polygon fill="midnightblue" stroke="midnightblue" points="121.76,-103.14 129.11,-95.51 118.61,-96.89 121.76,-103.14"/>
</g>
<!-- Node16 -->
<g id="node10" class="node">
<title>Node16</title>
<g id="a_node10"><a xlink:href="ephSSR_8cpp.html#a16f6ba062b344678a58d194d9c4a8410" target="_top" xlink:title="variance by ura ssr (ref [4])">
<polygon fill="white" stroke="black" points="119,-38.5 119,-57.5 187,-57.5 187,-38.5 119,-38.5"/>
<text text-anchor="middle" x="153" y="-45.5" font-family="Helvetica,sans-Serif" font-size="10.00">var_urassr</text>
</a>
</g>
</g>
<!-- Node1&#45;&gt;Node16 -->
<g id="edge21" class="edge">
<title>Node1&#45;&gt;Node16</title>
<path fill="none" stroke="midnightblue" d="M38.39,-171.31C46.43,-149.65 68.66,-96.87 104,-67 105.98,-65.33 108.12,-63.79 110.36,-62.38"/>
<polygon fill="midnightblue" stroke="midnightblue" points="112.23,-65.36 119.39,-57.55 108.92,-59.18 112.23,-65.36"/>
</g>
<!-- Node17 -->
<g id="node11" class="node">
<title>Node17</title>
<g id="a_node11"><a xlink:href="trace_8cpp.html#acc3444976498a9f591577d7344658aab" target="_top" xlink:title=" ">
<polygon fill="white" stroke="red" points="122,-0.5 122,-19.5 184,-19.5 184,-0.5 122,-0.5"/>
<text text-anchor="middle" x="153" y="-7.5" font-family="Helvetica,sans-Serif" font-size="10.00">traceJson</text>
</a>
</g>
</g>
<!-- Node1&#45;&gt;Node17 -->
<g id="edge22" class="edge">
<title>Node1&#45;&gt;Node17</title>
<path fill="none" stroke="midnightblue" d="M36.76,-171.36C42.08,-144.93 60.34,-70.56 104,-29 106.69,-26.44 109.77,-24.21 113.03,-22.27"/>
<polygon fill="midnightblue" stroke="midnightblue" points="114.62,-25.39 122,-17.79 111.49,-19.13 114.62,-25.39"/>
</g>
<!-- Node2&#45;&gt;Node3 -->
<g id="edge2" class="edge">
<title>Node2&#45;&gt;Node3</title>
<path fill="none" stroke="midnightblue" d="M187.31,-342.41C204.19,-337.55 224.89,-331.59 242.97,-326.39"/>
<polygon fill="midnightblue" stroke="midnightblue" points="244.06,-329.72 252.7,-323.59 242.12,-322.99 244.06,-329.72"/>
</g>
<!-- Node2&#45;&gt;Node4 -->
<g id="edge3" class="edge">
<title>Node2&#45;&gt;Node4</title>
<path fill="none" stroke="midnightblue" d="M187.93,-342.35C193.04,-339.87 197.94,-336.8 202,-333 229.28,-307.45 210.72,-282.55 238,-257 239.65,-255.46 241.44,-254.03 243.32,-252.72"/>
<polygon fill="midnightblue" stroke="midnightblue" points="245.17,-255.69 252.07,-247.65 241.66,-249.64 245.17,-255.69"/>
</g>
<!-- Node2&#45;&gt;Node5 -->
<g id="edge4" class="edge">
<title>Node2&#45;&gt;Node5</title>
<path fill="none" stroke="midnightblue" d="M183.96,-342.48C190.18,-339.87 196.51,-336.72 202,-333 221.27,-319.97 218.73,-308.03 238,-295 240.75,-293.14 243.7,-291.42 246.75,-289.85"/>
<polygon fill="midnightblue" stroke="midnightblue" points="248.45,-292.91 256.04,-285.52 245.5,-286.57 248.45,-292.91"/>
</g>
<!-- Node8&#45;&gt;Node3 -->
<g id="edge6" class="edge">
<title>Node8&#45;&gt;Node3</title>
<path fill="none" stroke="midnightblue" d="M189.72,-314C205.53,-314 224.29,-314 241.04,-314"/>
<polygon fill="midnightblue" stroke="midnightblue" points="241.16,-317.5 251.16,-314 241.16,-310.5 241.16,-317.5"/>
</g>
<!-- Node8&#45;&gt;Node4 -->
<g id="edge8" class="edge">
<title>Node8&#45;&gt;Node4</title>
<path fill="none" stroke="midnightblue" d="M166.26,-304.41C182.16,-292.28 211.05,-271.26 238,-257 241.7,-255.04 245.64,-253.17 249.63,-251.41"/>
<polygon fill="midnightblue" stroke="midnightblue" points="251,-254.63 258.87,-247.54 248.3,-248.17 251,-254.63"/>
</g>
<!-- Node8&#45;&gt;Node5 -->
<g id="edge7" class="edge">
<title>Node8&#45;&gt;Node5</title>
<path fill="none" stroke="midnightblue" d="M187.31,-304.41C204.58,-299.44 225.85,-293.32 244.21,-288.03"/>
<polygon fill="midnightblue" stroke="midnightblue" points="245.43,-291.32 254.07,-285.19 243.49,-284.6 245.43,-291.32"/>
</g>
<!-- Node9&#45;&gt;Node3 -->
<g id="edge12" class="edge">
<title>Node9&#45;&gt;Node3</title>
<path fill="none" stroke="midnightblue" d="M160.24,-209.7C172.83,-228.56 203.04,-270.47 238,-295 240.56,-296.8 243.31,-298.45 246.16,-299.98"/>
<polygon fill="midnightblue" stroke="midnightblue" points="244.91,-303.26 255.44,-304.41 247.92,-296.94 244.91,-303.26"/>
</g>
<!-- Node9&#45;&gt;Node4 -->
<g id="edge14" class="edge">
<title>Node9&#45;&gt;Node4</title>
<path fill="none" stroke="midnightblue" d="M187.31,-209.59C204.19,-214.45 224.89,-220.41 242.97,-225.61"/>
<polygon fill="midnightblue" stroke="midnightblue" points="242.12,-229.01 252.7,-228.41 244.06,-222.28 242.12,-229.01"/>
</g>
<!-- Node9&#45;&gt;Node5 -->
<g id="edge13" class="edge">
<title>Node9&#45;&gt;Node5</title>
<path fill="none" stroke="midnightblue" d="M166.26,-209.59C182.16,-221.72 211.05,-242.74 238,-257 241.7,-258.96 245.64,-260.83 249.63,-262.59"/>
<polygon fill="midnightblue" stroke="midnightblue" points="248.3,-265.83 258.87,-266.46 251,-259.37 248.3,-265.83"/>
</g>
<!-- Node12&#45;&gt;Node3 -->
<g id="edge16" class="edge">
<title>Node12&#45;&gt;Node3</title>
<path fill="none" stroke="midnightblue" d="M189.37,-171.69C194.06,-174.14 198.46,-177.2 202,-181 238.21,-219.88 201.79,-256.12 238,-295 239.37,-296.48 240.88,-297.84 242.48,-299.1"/>
<polygon fill="midnightblue" stroke="midnightblue" points="240.8,-302.18 251.12,-304.56 244.54,-296.26 240.8,-302.18"/>
</g>
<!-- Node12&#45;&gt;Node4 -->
<g id="edge18" class="edge">
<title>Node12&#45;&gt;Node4</title>
<path fill="none" stroke="midnightblue" d="M181.13,-171.54C188.07,-174.3 195.42,-177.52 202,-181 224.74,-193.03 248.86,-209.87 265.39,-222.13"/>
<polygon fill="midnightblue" stroke="midnightblue" points="263.64,-225.19 273.74,-228.41 267.85,-219.6 263.64,-225.19"/>
</g>
<!-- Node12&#45;&gt;Node5 -->
<g id="edge17" class="edge">
<title>Node12&#45;&gt;Node5</title>
<path fill="none" stroke="midnightblue" d="M187.93,-171.65C193.04,-174.13 197.94,-177.2 202,-181 229.28,-206.55 210.72,-231.45 238,-257 240.15,-259.01 242.53,-260.82 245.06,-262.44"/>
<polygon fill="midnightblue" stroke="midnightblue" points="243.59,-265.63 254.06,-267.28 246.9,-259.46 243.59,-265.63"/>
</g>
</g>
</svg>
