<?xml version="1.0" encoding="UTF-8" standalone="no"?>
<!DOCTYPE svg PUBLIC "-//W3C//DTD SVG 1.1//EN"
 "http://www.w3.org/Graphics/SVG/1.1/DTD/svg11.dtd">
<!-- Generated by graphviz version 2.43.0 (0)
 -->
<!-- Title: seleph&lt; Eph &gt; Pages: 1 -->
<svg width="357pt" height="142pt"
 viewBox="0.00 0.00 357.00 142.00" xmlns="http://www.w3.org/2000/svg" xmlns:xlink="http://www.w3.org/1999/xlink">
<g id="graph0" class="graph" transform="scale(1 1) rotate(0) translate(4 138)">
<title>seleph&lt; Eph &gt;</title>
<polygon fill="white" stroke="transparent" points="-4,4 -4,-138 353,-138 353,4 -4,4"/>
<!-- Node1 -->
<g id="node1" class="node">
<title>Node1</title>
<g id="a_node1"><a xlink:title=" ">
<polygon fill="#bfbfbf" stroke="black" points="260,-57.5 260,-76.5 349,-76.5 349,-57.5 260,-57.5"/>
<text text-anchor="middle" x="304.5" y="-64.5" font-family="Helvetica,sans-Serif" font-size="10.00">seleph&lt; Eph &gt;</text>
</a>
</g>
</g>
<!-- Node2 -->
<g id="node2" class="node">
<title>Node2</title>
<g id="a_node2"><a xlink:href="ephemeris_8cpp.html#af3050fa4ac87b7613db03576f2db76cc" target="_top" xlink:title=" ">
<polygon fill="white" stroke="red" points="138,-114.5 138,-133.5 190,-133.5 190,-114.5 138,-114.5"/>
<text text-anchor="middle" x="164" y="-121.5" font-family="Helvetica,sans-Serif" font-size="10.00">ephpos</text>
</a>
</g>
</g>
<!-- Node1&#45;&gt;Node2 -->
<g id="edge1" class="edge">
<title>Node1&#45;&gt;Node2</title>
<path fill="none" stroke="midnightblue" d="M280.56,-76.57C264.69,-83.18 243.07,-92.16 224,-100 212.34,-104.79 199.36,-110.07 188.56,-114.46"/>
</g>
<!-- Node4 -->
<g id="node3" class="node">
<title>Node4</title>
<g id="a_node3"><a xlink:href="ephemeris_8cpp.html#a00caab23439d951d25d874f5f01c204c" target="_top" xlink:title=" ">
<polygon fill="white" stroke="red" points="0,-95.5 0,-114.5 68,-114.5 68,-95.5 0,-95.5"/>
<text text-anchor="middle" x="34" y="-102.5" font-family="Helvetica,sans-Serif" font-size="10.00">satpos_ssr</text>
</a>
</g>
</g>
<!-- Node1&#45;&gt;Node4 -->
<g id="edge3" class="edge">
<title>Node1&#45;&gt;Node4</title>
<path fill="none" stroke="midnightblue" d="M259.76,-73.19C206.12,-80.78 116.38,-93.48 68.12,-100.31"/>
</g>
<!-- Node26 -->
<g id="node4" class="node">
<title>Node26</title>
<g id="a_node4"><a xlink:href="rinexNavWrite_8cpp.html#a13224b67c146a6c8edd36e0e98bb4e76" target="_top" xlink:title=" ">
<polygon fill="white" stroke="red" points="104,-38.5 104,-57.5 224,-57.5 224,-38.5 104,-38.5"/>
<text text-anchor="middle" x="164" y="-45.5" font-family="Helvetica,sans-Serif" font-size="10.00">outputNavRinexBody</text>
</a>
</g>
</g>
<!-- Node1&#45;&gt;Node26 -->
<g id="edge4" class="edge">
<title>Node1&#45;&gt;Node26</title>
<path fill="none" stroke="midnightblue" d="M259.68,-60.99C248.42,-59.44 236.13,-57.76 224.24,-56.13"/>
</g>
<!-- Node15 -->
<g id="node5" class="node">
<title>Node15</title>
<g id="a_node5"><a xlink:href="preprocessor_8cpp.html#a3d7c124759fb61d2e94ab3b85e108399" target="_top" xlink:title=" ">
<polygon fill="white" stroke="red" points="124,-0.5 124,-19.5 204,-19.5 204,-0.5 124,-0.5"/>
<text text-anchor="middle" x="164" y="-7.5" font-family="Helvetica,sans-Serif" font-size="10.00">preprocessor</text>
</a>
</g>
</g>
<!-- Node1&#45;&gt;Node15 -->
<g id="edge5" class="edge">
<title>Node1&#45;&gt;Node15</title>
<path fill="none" stroke="midnightblue" d="M285.18,-57.38C269.27,-49.23 245.46,-37.54 224,-29 215.5,-25.62 206.14,-22.39 197.43,-19.58"/>
</g>
<!-- Node2&#45;&gt;Node4 -->
<g id="edge2" class="edge">
<title>Node2&#45;&gt;Node4</title>
<path fill="none" stroke="midnightblue" d="M137.71,-120.25C117.75,-117.28 89.74,-113.12 68.01,-109.9"/>
</g>
</g>
</svg>
