<?xml version="1.0" encoding="UTF-8" standalone="no"?>
<!DOCTYPE svg PUBLIC "-//W3C//DTD SVG 1.1//EN"
 "http://www.w3.org/Graphics/SVG/1.1/DTD/svg11.dtd">
<!-- Generated by graphviz version 2.43.0 (0)
 -->
<!-- Title: var_uraeph Pages: 1 -->
<svg width="178pt" height="66pt"
 viewBox="0.00 0.00 178.00 66.00" xmlns="http://www.w3.org/2000/svg" xmlns:xlink="http://www.w3.org/1999/xlink">
<g id="graph0" class="graph" transform="scale(1 1) rotate(0) translate(4 62)">
<title>var_uraeph</title>
<polygon fill="white" stroke="transparent" points="-4,4 -4,-62 174,-62 174,4 -4,4"/>
<!-- Node1 -->
<g id="node1" class="node">
<title>Node1</title>
<g id="a_node1"><a xlink:title="variance by ura ephemeris (ref [1] 20.3.3.3.1.1)">
<polygon fill="#bfbfbf" stroke="black" points="99,-19.5 99,-38.5 170,-38.5 170,-19.5 99,-19.5"/>
<text text-anchor="middle" x="134.5" y="-26.5" font-family="Helvetica,sans-Serif" font-size="10.00">var_uraeph</text>
</a>
</g>
</g>
<!-- Node2 -->
<g id="node2" class="node">
<title>Node2</title>
<g id="a_node2"><a xlink:href="ephemeris_8cpp.html#a6f6719d14c7d9cf51d97ebecfc73f38a" target="_top" xlink:title="broadcast ephemeris to satellite position and clock bias compute satellite position and clock bias wi...">
<polygon fill="white" stroke="red" points="2.5,-38.5 2.5,-57.5 60.5,-57.5 60.5,-38.5 2.5,-38.5"/>
<text text-anchor="middle" x="31.5" y="-45.5" font-family="Helvetica,sans-Serif" font-size="10.00">eph2pos</text>
</a>
</g>
</g>
<!-- Node1&#45;&gt;Node2 -->
<g id="edge1" class="edge">
<title>Node1&#45;&gt;Node2</title>
<path fill="none" stroke="midnightblue" d="M98.74,-35.54C86.3,-37.88 72.45,-40.49 60.64,-42.71"/>
</g>
<!-- Node34 -->
<g id="node3" class="node">
<title>Node34</title>
<g id="a_node3"><a xlink:href="ephemeris_8cpp.html#af8554ab873b3d3cd9c605c5aff342549" target="_top" xlink:title="sbas ephemeris to satellite position and clock bias &#45;&#45;&#45;&#45;&#45;&#45;&#45;&#45;&#45;&#45;&#45;&#45;&#45;&#45;&#45;&#45;&#45;&#45;&#45;&#45;&#45;&#45;— compute satellite positio...">
<polygon fill="white" stroke="red" points="0,-0.5 0,-19.5 63,-19.5 63,-0.5 0,-0.5"/>
<text text-anchor="middle" x="31.5" y="-7.5" font-family="Helvetica,sans-Serif" font-size="10.00">seph2pos</text>
</a>
</g>
</g>
<!-- Node1&#45;&gt;Node34 -->
<g id="edge2" class="edge">
<title>Node1&#45;&gt;Node34</title>
<path fill="none" stroke="midnightblue" d="M98.74,-22.46C87.22,-20.29 74.47,-17.9 63.27,-15.79"/>
</g>
</g>
</svg>
