<?xml version="1.0" encoding="UTF-8" standalone="no"?>
<!DOCTYPE svg PUBLIC "-//W3C//DTD SVG 1.1//EN"
 "http://www.w3.org/Graphics/SVG/1.1/DTD/svg11.dtd">
<!-- Generated by graphviz version 2.43.0 (0)
 -->
<!-- Title: relativity1 Pages: 1 -->
<svg width="205pt" height="66pt"
 viewBox="0.00 0.00 205.00 66.00" xmlns="http://www.w3.org/2000/svg" xmlns:xlink="http://www.w3.org/1999/xlink">
<g id="graph0" class="graph" transform="scale(1 1) rotate(0) translate(4 62)">
<title>relativity1</title>
<polygon fill="white" stroke="transparent" points="-4,4 -4,-62 201,-62 201,4 -4,4"/>
<!-- Node1 -->
<g id="node1" class="node">
<title>Node1</title>
<g id="a_node1"><a xlink:title=" ">
<polygon fill="#bfbfbf" stroke="black" points="130,-19.5 130,-38.5 197,-38.5 197,-19.5 130,-19.5"/>
<text text-anchor="middle" x="163.5" y="-26.5" font-family="Helvetica,sans-Serif" font-size="10.00">relativity1</text>
</a>
</g>
</g>
<!-- Node2 -->
<g id="node2" class="node">
<title>Node2</title>
<g id="a_node2"><a xlink:href="ephemeris_8cpp.html#a9f782f472dfa7b3977fa16aebccadf4f" target="_top" xlink:title=" ">
<polygon fill="white" stroke="red" points="0,-38.5 0,-57.5 94,-57.5 94,-38.5 0,-38.5"/>
<text text-anchor="middle" x="47" y="-45.5" font-family="Helvetica,sans-Serif" font-size="10.00">adjustRelativity</text>
</a>
</g>
</g>
<!-- Node1&#45;&gt;Node2 -->
<g id="edge1" class="edge">
<title>Node1&#45;&gt;Node2</title>
<path fill="none" stroke="midnightblue" d="M120.03,-36.05C111.63,-37.44 102.78,-38.91 94.26,-40.32"/>
<polygon fill="midnightblue" stroke="midnightblue" points="120.7,-39.48 130,-34.39 119.56,-32.58 120.7,-39.48"/>
</g>
<!-- Node13 -->
<g id="node3" class="node">
<title>Node13</title>
<g id="a_node3"><a xlink:href="ppp__obs_8cpp.html#ae5dea4f23392accac1e110481d79cf85" target="_top" xlink:title=" ">
<polygon fill="white" stroke="red" points="6,-0.5 6,-19.5 88,-19.5 88,-0.5 6,-0.5"/>
<text text-anchor="middle" x="47" y="-7.5" font-family="Helvetica,sans-Serif" font-size="10.00">pppRelativity</text>
</a>
</g>
</g>
<!-- Node1&#45;&gt;Node13 -->
<g id="edge2" class="edge">
<title>Node1&#45;&gt;Node13</title>
<path fill="none" stroke="midnightblue" d="M119.94,-21.94C109.6,-20.22 98.57,-18.39 88.34,-16.69"/>
<polygon fill="midnightblue" stroke="midnightblue" points="119.56,-25.42 130,-23.61 120.7,-18.52 119.56,-25.42"/>
</g>
</g>
</svg>
