<?xml version="1.0" encoding="UTF-8" standalone="no"?>
<!DOCTYPE svg PUBLIC "-//W3C//DTD SVG 1.1//EN"
 "http://www.w3.org/Graphics/SVG/1.1/DTD/svg11.dtd">
<!-- Generated by graphviz version 2.43.0 (0)
 -->
<!-- Title: /data/acs/ginan/src/cpp/common/ephemeris.hpp Pages: 1 -->
<svg width="1448pt" height="173pt"
 viewBox="0.00 0.00 1447.50 173.00" xmlns="http://www.w3.org/2000/svg" xmlns:xlink="http://www.w3.org/1999/xlink">
<g id="graph0" class="graph" transform="scale(1 1) rotate(0) translate(4 169)">
<title>/data/acs/ginan/src/cpp/common/ephemeris.hpp</title>
<polygon fill="white" stroke="transparent" points="-4,4 -4,-169 1443.5,-169 1443.5,4 -4,4"/>
<!-- Node1 -->
<g id="node1" class="node">
<title>Node1</title>
<g id="a_node1"><a xlink:title=" ">
<polygon fill="#bfbfbf" stroke="black" points="697,-134.5 697,-164.5 855,-164.5 855,-134.5 697,-134.5"/>
<text text-anchor="start" x="705" y="-152.5" font-family="Helvetica,sans-Serif" font-size="10.00">/data/acs/ginan/src</text>
<text text-anchor="middle" x="776" y="-141.5" font-family="Helvetica,sans-Serif" font-size="10.00">/cpp/common/ephemeris.hpp</text>
</a>
</g>
</g>
<!-- Node2 -->
<g id="node2" class="node">
<title>Node2</title>
<g id="a_node2"><a xlink:href="acsStream_8cpp.html" target="_top" xlink:title=" ">
<polygon fill="white" stroke="black" points="0,-0.5 0,-30.5 158,-30.5 158,-0.5 0,-0.5"/>
<text text-anchor="start" x="8" y="-18.5" font-family="Helvetica,sans-Serif" font-size="10.00">/data/acs/ginan/src</text>
<text text-anchor="middle" x="79" y="-7.5" font-family="Helvetica,sans-Serif" font-size="10.00">/cpp/common/acsStream.cpp</text>
</a>
</g>
</g>
<!-- Node1&#45;&gt;Node2 -->
<g id="edge1" class="edge">
<title>Node1&#45;&gt;Node2</title>
<path fill="none" stroke="midnightblue" d="M696.71,-141.3C617.56,-133.4 492.68,-118.97 386,-98 291.85,-79.49 183.86,-48.49 124.34,-30.53"/>
</g>
<!-- Node3 -->
<g id="node3" class="node">
<title>Node3</title>
<g id="a_node3"><a xlink:href="ephemeris_8cpp.html" target="_top" xlink:title=" ">
<polygon fill="white" stroke="black" points="176,-0.5 176,-30.5 334,-30.5 334,-0.5 176,-0.5"/>
<text text-anchor="start" x="184" y="-18.5" font-family="Helvetica,sans-Serif" font-size="10.00">/data/acs/ginan/src</text>
<text text-anchor="middle" x="255" y="-7.5" font-family="Helvetica,sans-Serif" font-size="10.00">/cpp/common/ephemeris.cpp</text>
</a>
</g>
</g>
<!-- Node1&#45;&gt;Node3 -->
<g id="edge2" class="edge">
<title>Node1&#45;&gt;Node3</title>
<path fill="none" stroke="midnightblue" d="M696.77,-138.34C638.04,-129.94 556.33,-116.39 486,-98 414.62,-79.33 333.89,-48.53 289.27,-30.62"/>
</g>
<!-- Node4 -->
<g id="node4" class="node">
<title>Node4</title>
<g id="a_node4"><a xlink:href="navigation_8hpp.html" target="_top" xlink:title=" ">
<polygon fill="white" stroke="red" points="495,-67.5 495,-97.5 653,-97.5 653,-67.5 495,-67.5"/>
<text text-anchor="start" x="503" y="-85.5" font-family="Helvetica,sans-Serif" font-size="10.00">/data/acs/ginan/src</text>
<text text-anchor="middle" x="574" y="-74.5" font-family="Helvetica,sans-Serif" font-size="10.00">/cpp/common/navigation.hpp</text>
</a>
</g>
</g>
<!-- Node1&#45;&gt;Node4 -->
<g id="edge3" class="edge">
<title>Node1&#45;&gt;Node4</title>
<path fill="none" stroke="midnightblue" d="M732.17,-134.4C698.29,-123.49 651.61,-108.47 617.75,-97.58"/>
</g>
<!-- Node51 -->
<g id="node5" class="node">
<title>Node51</title>
<g id="a_node5"><a xlink:href="common_2orbits_8cpp.html" target="_top" xlink:title=" ">
<polygon fill="white" stroke="black" points="352,-0.5 352,-30.5 486,-30.5 486,-0.5 352,-0.5"/>
<text text-anchor="start" x="360" y="-18.5" font-family="Helvetica,sans-Serif" font-size="10.00">/data/acs/ginan/src</text>
<text text-anchor="middle" x="419" y="-7.5" font-family="Helvetica,sans-Serif" font-size="10.00">/cpp/common/orbits.cpp</text>
</a>
</g>
</g>
<!-- Node1&#45;&gt;Node51 -->
<g id="edge13" class="edge">
<title>Node1&#45;&gt;Node51</title>
<path fill="none" stroke="midnightblue" d="M750.7,-134.46C734.29,-124.94 712.73,-111.64 695,-98 679.05,-85.73 679.85,-76.28 662,-67 654.12,-62.9 555.45,-43.11 486.3,-29.55"/>
</g>
<!-- Node14 -->
<g id="node6" class="node">
<title>Node14</title>
<g id="a_node6"><a xlink:href="preceph_8cpp.html" target="_top" xlink:title=" ">
<polygon fill="white" stroke="black" points="504.5,-0.5 504.5,-30.5 649.5,-30.5 649.5,-0.5 504.5,-0.5"/>
<text text-anchor="start" x="512.5" y="-18.5" font-family="Helvetica,sans-Serif" font-size="10.00">/data/acs/ginan/src</text>
<text text-anchor="middle" x="577" y="-7.5" font-family="Helvetica,sans-Serif" font-size="10.00">/cpp/common/preceph.cpp</text>
</a>
</g>
</g>
<!-- Node1&#45;&gt;Node14 -->
<g id="edge14" class="edge">
<title>Node1&#45;&gt;Node14</title>
<path fill="none" stroke="midnightblue" d="M764.98,-134.47C750.51,-116.79 723.55,-86.38 695,-67 672.14,-51.48 643.74,-39.15 620.53,-30.55"/>
</g>
<!-- Node15 -->
<g id="node7" class="node">
<title>Node15</title>
<g id="a_node7"><a xlink:href="rinexClkWrite_8cpp.html" target="_top" xlink:title=" ">
<polygon fill="white" stroke="black" points="667.5,-0.5 667.5,-30.5 840.5,-30.5 840.5,-0.5 667.5,-0.5"/>
<text text-anchor="start" x="675.5" y="-18.5" font-family="Helvetica,sans-Serif" font-size="10.00">/data/acs/ginan/src</text>
<text text-anchor="middle" x="754" y="-7.5" font-family="Helvetica,sans-Serif" font-size="10.00">/cpp/common/rinexClkWrite.cpp</text>
</a>
</g>
</g>
<!-- Node1&#45;&gt;Node15 -->
<g id="edge15" class="edge">
<title>Node1&#45;&gt;Node15</title>
<path fill="none" stroke="midnightblue" d="M773.65,-134.37C769.41,-108.97 760.56,-55.86 756.34,-30.52"/>
</g>
<!-- Node36 -->
<g id="node8" class="node">
<title>Node36</title>
<g id="a_node8"><a xlink:href="sp3Write_8cpp.html" target="_top" xlink:title=" ">
<polygon fill="white" stroke="black" points="858.5,-0.5 858.5,-30.5 1007.5,-30.5 1007.5,-0.5 858.5,-0.5"/>
<text text-anchor="start" x="866.5" y="-18.5" font-family="Helvetica,sans-Serif" font-size="10.00">/data/acs/ginan/src</text>
<text text-anchor="middle" x="933" y="-7.5" font-family="Helvetica,sans-Serif" font-size="10.00">/cpp/common/sp3Write.cpp</text>
</a>
</g>
</g>
<!-- Node1&#45;&gt;Node36 -->
<g id="edge16" class="edge">
<title>Node1&#45;&gt;Node36</title>
<path fill="none" stroke="midnightblue" d="M779.07,-134.26C783.61,-116.37 793.73,-85.74 813,-67 830.5,-49.98 854.59,-38.33 876.6,-30.55"/>
</g>
<!-- Node17 -->
<g id="node9" class="node">
<title>Node17</title>
<g id="a_node9"><a xlink:href="ppp_8cpp.html" target="_top" xlink:title="Precise point positioning.">
<polygon fill="white" stroke="black" points="1026,-0.5 1026,-30.5 1134,-30.5 1134,-0.5 1026,-0.5"/>
<text text-anchor="start" x="1034" y="-18.5" font-family="Helvetica,sans-Serif" font-size="10.00">/data/acs/ginan/src</text>
<text text-anchor="middle" x="1080" y="-7.5" font-family="Helvetica,sans-Serif" font-size="10.00">/cpp/pea/ppp.cpp</text>
</a>
</g>
</g>
<!-- Node1&#45;&gt;Node17 -->
<g id="edge19" class="edge">
<title>Node1&#45;&gt;Node17</title>
<path fill="none" stroke="midnightblue" d="M855.14,-148.25C945.12,-146.09 1083.87,-136.4 1117,-98 1134.46,-77.76 1111.76,-47.93 1094.98,-30.53"/>
</g>
<!-- Node20 -->
<g id="node10" class="node">
<title>Node20</title>
<g id="a_node10"><a xlink:href="ppp__network_8cpp.html" target="_top" xlink:title=" ">
<polygon fill="white" stroke="black" points="1152,-0.5 1152,-30.5 1296,-30.5 1296,-0.5 1152,-0.5"/>
<text text-anchor="start" x="1160" y="-18.5" font-family="Helvetica,sans-Serif" font-size="10.00">/data/acs/ginan/src</text>
<text text-anchor="middle" x="1224" y="-7.5" font-family="Helvetica,sans-Serif" font-size="10.00">/cpp/pea/ppp_network.cpp</text>
</a>
</g>
</g>
<!-- Node1&#45;&gt;Node20 -->
<g id="edge20" class="edge">
<title>Node1&#45;&gt;Node20</title>
<path fill="none" stroke="midnightblue" d="M855.14,-142.86C945.43,-135.47 1086.82,-120.72 1135,-98 1168.35,-82.27 1197.91,-49.65 1213.13,-30.8"/>
</g>
<!-- Node18 -->
<g id="node11" class="node">
<title>Node18</title>
<g id="a_node11"><a xlink:href="ppp__user_8cpp.html" target="_top" xlink:title=" ">
<polygon fill="white" stroke="black" points="1314.5,-0.5 1314.5,-30.5 1439.5,-30.5 1439.5,-0.5 1314.5,-0.5"/>
<text text-anchor="start" x="1322.5" y="-18.5" font-family="Helvetica,sans-Serif" font-size="10.00">/data/acs/ginan/src</text>
<text text-anchor="middle" x="1377" y="-7.5" font-family="Helvetica,sans-Serif" font-size="10.00">/cpp/pea/ppp_user.cpp</text>
</a>
</g>
</g>
<!-- Node1&#45;&gt;Node18 -->
<g id="edge21" class="edge">
<title>Node1&#45;&gt;Node18</title>
<path fill="none" stroke="midnightblue" d="M855.03,-144.21C935.56,-138.49 1063.54,-125.66 1171,-98 1236.37,-81.17 1308.93,-49.11 1348.09,-30.62"/>
</g>
<!-- Node63 -->
<g id="node12" class="node">
<title>Node63</title>
<g id="a_node12"><a xlink:href="streamSp3_8hpp.html" target="_top" xlink:title=" ">
<polygon fill="white" stroke="red" points="822.5,-67.5 822.5,-97.5 981.5,-97.5 981.5,-67.5 822.5,-67.5"/>
<text text-anchor="start" x="830.5" y="-85.5" font-family="Helvetica,sans-Serif" font-size="10.00">/data/acs/ginan/src</text>
<text text-anchor="middle" x="902" y="-74.5" font-family="Helvetica,sans-Serif" font-size="10.00">/cpp/common/streamSp3.hpp</text>
</a>
</g>
</g>
<!-- Node1&#45;&gt;Node63 -->
<g id="edge17" class="edge">
<title>Node1&#45;&gt;Node63</title>
<path fill="none" stroke="midnightblue" d="M803.34,-134.4C824.47,-123.49 853.59,-108.47 874.71,-97.58"/>
</g>
<!-- Node16 -->
<g id="node13" class="node">
<title>Node16</title>
<g id="a_node13"><a xlink:href="main_8cpp.html" target="_top" xlink:title=" ">
<polygon fill="white" stroke="black" points="1000,-67.5 1000,-97.5 1108,-97.5 1108,-67.5 1000,-67.5"/>
<text text-anchor="start" x="1008" y="-85.5" font-family="Helvetica,sans-Serif" font-size="10.00">/data/acs/ginan/src</text>
<text text-anchor="middle" x="1054" y="-74.5" font-family="Helvetica,sans-Serif" font-size="10.00">/cpp/pea/main.cpp</text>
</a>
</g>
</g>
<!-- Node1&#45;&gt;Node16 -->
<g id="edge18" class="edge">
<title>Node1&#45;&gt;Node16</title>
<path fill="none" stroke="midnightblue" d="M835.98,-134.48C884.66,-123.09 952.71,-107.18 999.78,-96.18"/>
</g>
<!-- Node4&#45;&gt;Node2 -->
<g id="edge4" class="edge">
<title>Node4&#45;&gt;Node2</title>
<path fill="none" stroke="midnightblue" d="M494.71,-72.61C412.59,-63.18 280.63,-47.41 167,-31 164.09,-30.58 161.12,-30.14 158.13,-29.69"/>
</g>
<!-- Node4&#45;&gt;Node3 -->
<g id="edge5" class="edge">
<title>Node4&#45;&gt;Node3</title>
<path fill="none" stroke="midnightblue" d="M505.17,-67.48C451.6,-56.56 377.59,-41.48 323.98,-30.55"/>
</g>
<!-- Node4&#45;&gt;Node51 -->
<g id="edge6" class="edge">
<title>Node4&#45;&gt;Node51</title>
<path fill="none" stroke="midnightblue" d="M540.37,-67.4C514.37,-56.49 478.55,-41.47 452.57,-30.58"/>
</g>
<!-- Node4&#45;&gt;Node14 -->
<g id="edge7" class="edge">
<title>Node4&#45;&gt;Node14</title>
<path fill="none" stroke="midnightblue" d="M574.65,-67.4C575.15,-56.49 575.85,-41.47 576.35,-30.58"/>
</g>
<!-- Node4&#45;&gt;Node15 -->
<g id="edge8" class="edge">
<title>Node4&#45;&gt;Node15</title>
<path fill="none" stroke="midnightblue" d="M613.06,-67.4C643.25,-56.49 684.85,-41.47 715.02,-30.58"/>
</g>
<!-- Node4&#45;&gt;Node36 -->
<g id="edge9" class="edge">
<title>Node4&#45;&gt;Node36</title>
<path fill="none" stroke="midnightblue" d="M651.46,-67.48C712.78,-56.37 797.89,-40.96 858.45,-30"/>
</g>
<!-- Node4&#45;&gt;Node17 -->
<g id="edge10" class="edge">
<title>Node4&#45;&gt;Node17</title>
<path fill="none" stroke="midnightblue" d="M653.01,-75.09C741.72,-67.29 889.79,-52.44 1016,-31 1019.26,-30.45 1022.6,-29.83 1025.96,-29.18"/>
</g>
<!-- Node4&#45;&gt;Node20 -->
<g id="edge11" class="edge">
<title>Node4&#45;&gt;Node20</title>
<path fill="none" stroke="midnightblue" d="M653.41,-76.68C763.61,-69.49 969.01,-54.25 1143,-31 1145.83,-30.62 1148.72,-30.21 1151.63,-29.78"/>
</g>
<!-- Node4&#45;&gt;Node18 -->
<g id="edge12" class="edge">
<title>Node4&#45;&gt;Node18</title>
<path fill="none" stroke="midnightblue" d="M653.27,-76.61C829.2,-65.67 1241.81,-39.51 1305,-31 1308.03,-30.59 1311.13,-30.13 1314.25,-29.64"/>
</g>
</g>
</svg>
