<?xml version="1.0" encoding="UTF-8" standalone="no"?>
<!DOCTYPE svg PUBLIC "-//W3C//DTD SVG 1.1//EN"
 "http://www.w3.org/Graphics/SVG/1.1/DTD/svg11.dtd">
<!-- Generated by graphviz version 2.43.0 (0)
 -->
<!-- Title: pephpos Pages: 1 -->
<svg width="200pt" height="142pt"
 viewBox="0.00 0.00 200.00 142.00" xmlns="http://www.w3.org/2000/svg" xmlns:xlink="http://www.w3.org/1999/xlink">
<g id="graph0" class="graph" transform="scale(1 1) rotate(0) translate(4 138)">
<title>pephpos</title>
<polygon fill="white" stroke="transparent" points="-4,4 -4,-138 196,-138 196,4 -4,4"/>
<!-- Node1 -->
<g id="node1" class="node">
<title>Node1</title>
<g id="a_node1"><a xlink:title="satellite position by precise ephemeris">
<polygon fill="#bfbfbf" stroke="black" points="0,-57.5 0,-76.5 58,-76.5 58,-57.5 0,-57.5"/>
<text text-anchor="middle" x="29" y="-64.5" font-family="Helvetica,sans-Serif" font-size="10.00">pephpos</text>
</a>
</g>
</g>
<!-- Node2 -->
<g id="node2" class="node">
<title>Node2</title>
<g id="a_node2"><a xlink:href="structSatSys.html#aec6d07b90d1e8172b8b6a6966abef4fd" target="_top" xlink:title="Returns a std::string of this satellite&#39;s id.">
<polygon fill="white" stroke="red" points="110.5,-114.5 110.5,-133.5 175.5,-133.5 175.5,-114.5 110.5,-114.5"/>
<text text-anchor="middle" x="143" y="-121.5" font-family="Helvetica,sans-Serif" font-size="10.00">SatSys::id</text>
</a>
</g>
</g>
<!-- Node1&#45;&gt;Node2 -->
<g id="edge1" class="edge">
<title>Node1&#45;&gt;Node2</title>
<path fill="none" stroke="midnightblue" d="M44.63,-76.59C57.37,-84.73 76.48,-96.4 94,-105 97.89,-106.91 102.03,-108.78 106.17,-110.55"/>
<polygon fill="midnightblue" stroke="midnightblue" points="105.18,-113.93 115.76,-114.49 107.84,-107.45 105.18,-113.93"/>
</g>
<!-- Node5 -->
<g id="node3" class="node">
<title>Node5</title>
<g id="a_node3"><a xlink:href="trace_8hpp.html#a984a9b0c40d65d46f2c73a021a7b7de3" target="_top" xlink:title=" ">
<polygon fill="white" stroke="black" points="107.5,-76.5 107.5,-95.5 178.5,-95.5 178.5,-76.5 107.5,-76.5"/>
<text text-anchor="middle" x="143" y="-83.5" font-family="Helvetica,sans-Serif" font-size="10.00">tracepdeex</text>
</a>
</g>
</g>
<!-- Node1&#45;&gt;Node5 -->
<g id="edge2" class="edge">
<title>Node1&#45;&gt;Node5</title>
<path fill="none" stroke="midnightblue" d="M58.26,-71.79C70.14,-73.81 84.24,-76.2 97.46,-78.44"/>
<polygon fill="midnightblue" stroke="midnightblue" points="96.89,-81.9 107.34,-80.12 98.07,-75 96.89,-81.9"/>
</g>
<!-- Node6 -->
<g id="node4" class="node">
<title>Node6</title>
<g id="a_node4"><a xlink:href="structGTime.html#a98fdbaaec5a132a7e694f28b4f1907cb" target="_top" xlink:title=" ">
<polygon fill="white" stroke="black" points="94,-38.5 94,-57.5 192,-57.5 192,-38.5 94,-38.5"/>
<text text-anchor="middle" x="143" y="-45.5" font-family="Helvetica,sans-Serif" font-size="10.00">GTime::to_string</text>
</a>
</g>
</g>
<!-- Node1&#45;&gt;Node6 -->
<g id="edge3" class="edge">
<title>Node1&#45;&gt;Node6</title>
<path fill="none" stroke="midnightblue" d="M58.26,-62.21C66.08,-60.88 74.86,-59.39 83.71,-57.89"/>
<polygon fill="midnightblue" stroke="midnightblue" points="84.43,-61.32 93.7,-56.19 83.25,-54.42 84.43,-61.32"/>
</g>
<!-- Node7 -->
<g id="node5" class="node">
<title>Node7</title>
<g id="a_node5"><a xlink:href="ephPrecise_8cpp.html#a9a01152aef47228af7e3cfa035bd643d" target="_top" xlink:title="polynomial interpolation by Neville&#39;s algorithm">
<polygon fill="white" stroke="black" points="108,-0.5 108,-19.5 178,-19.5 178,-0.5 108,-0.5"/>
<text text-anchor="middle" x="143" y="-7.5" font-family="Helvetica,sans-Serif" font-size="10.00">interpolate</text>
</a>
</g>
</g>
<!-- Node1&#45;&gt;Node7 -->
<g id="edge4" class="edge">
<title>Node1&#45;&gt;Node7</title>
<path fill="none" stroke="midnightblue" d="M44.63,-57.41C57.37,-49.27 76.48,-37.6 94,-29 97.89,-27.09 102.03,-25.22 106.17,-23.45"/>
<polygon fill="midnightblue" stroke="midnightblue" points="107.84,-26.55 115.76,-19.51 105.18,-20.07 107.84,-26.55"/>
</g>
</g>
</svg>
