<?xml version="1.0" encoding="UTF-8" standalone="no"?>
<!DOCTYPE svg PUBLIC "-//W3C//DTD SVG 1.1//EN"
 "http://www.w3.org/Graphics/SVG/1.1/DTD/svg11.dtd">
<!-- Generated by graphviz version 2.43.0 (0)
 -->
<!-- Title: satClkPrecise Pages: 1 -->
<svg width="225pt" height="142pt"
 viewBox="0.00 0.00 225.00 142.00" xmlns="http://www.w3.org/2000/svg" xmlns:xlink="http://www.w3.org/1999/xlink">
<g id="graph0" class="graph" transform="scale(1 1) rotate(0) translate(4 138)">
<title>satClkPrecise</title>
<polygon fill="white" stroke="transparent" points="-4,4 -4,-138 221,-138 221,4 -4,4"/>
<!-- Node1 -->
<g id="node1" class="node">
<title>Node1</title>
<g id="a_node1"><a xlink:title=" ">
<polygon fill="#bfbfbf" stroke="black" points="0,-57.5 0,-76.5 83,-76.5 83,-57.5 0,-57.5"/>
<text text-anchor="middle" x="41.5" y="-64.5" font-family="Helvetica,sans-Serif" font-size="10.00">satClkPrecise</text>
</a>
</g>
</g>
<!-- Node2 -->
<g id="node2" class="node">
<title>Node2</title>
<g id="a_node2"><a xlink:href="trace_8hpp.html#a984a9b0c40d65d46f2c73a021a7b7de3" target="_top" xlink:title=" ">
<polygon fill="white" stroke="black" points="132.5,-114.5 132.5,-133.5 203.5,-133.5 203.5,-114.5 132.5,-114.5"/>
<text text-anchor="middle" x="168" y="-121.5" font-family="Helvetica,sans-Serif" font-size="10.00">tracepdeex</text>
</a>
</g>
</g>
<!-- Node1&#45;&gt;Node2 -->
<g id="edge1" class="edge">
<title>Node1&#45;&gt;Node2</title>
<path fill="none" stroke="midnightblue" d="M60.84,-76.66C76.21,-84.61 98.82,-96.01 119,-105 123.17,-106.85 127.57,-108.72 131.96,-110.53"/>
<polygon fill="midnightblue" stroke="midnightblue" points="130.84,-113.85 141.42,-114.34 133.46,-107.36 130.84,-113.85"/>
</g>
<!-- Node3 -->
<g id="node3" class="node">
<title>Node3</title>
<g id="a_node3"><a xlink:href="structGTime.html#a98fdbaaec5a132a7e694f28b4f1907cb" target="_top" xlink:title=" ">
<polygon fill="white" stroke="black" points="119,-76.5 119,-95.5 217,-95.5 217,-76.5 119,-76.5"/>
<text text-anchor="middle" x="168" y="-83.5" font-family="Helvetica,sans-Serif" font-size="10.00">GTime::to_string</text>
</a>
</g>
</g>
<!-- Node1&#45;&gt;Node3 -->
<g id="edge2" class="edge">
<title>Node1&#45;&gt;Node3</title>
<path fill="none" stroke="midnightblue" d="M83.27,-73.22C91.42,-74.47 100.14,-75.8 108.75,-77.11"/>
<polygon fill="midnightblue" stroke="midnightblue" points="108.36,-80.59 118.78,-78.64 109.42,-73.67 108.36,-80.59"/>
</g>
<!-- Node4 -->
<g id="node4" class="node">
<title>Node4</title>
<g id="a_node4"><a xlink:href="structSatSys.html#aec6d07b90d1e8172b8b6a6966abef4fd" target="_top" xlink:title="Returns a std::string of this satellite&#39;s id.">
<polygon fill="white" stroke="red" points="135.5,-38.5 135.5,-57.5 200.5,-57.5 200.5,-38.5 135.5,-38.5"/>
<text text-anchor="middle" x="168" y="-45.5" font-family="Helvetica,sans-Serif" font-size="10.00">SatSys::id</text>
</a>
</g>
</g>
<!-- Node1&#45;&gt;Node4 -->
<g id="edge3" class="edge">
<title>Node1&#45;&gt;Node4</title>
<path fill="none" stroke="midnightblue" d="M83.27,-60.78C96.72,-58.73 111.69,-56.44 125.22,-54.38"/>
<polygon fill="midnightblue" stroke="midnightblue" points="125.87,-57.82 135.23,-52.85 124.81,-50.9 125.87,-57.82"/>
</g>
<!-- Node7 -->
<g id="node5" class="node">
<title>Node7</title>
<g id="a_node5"><a xlink:href="ephPrecise_8cpp.html#a7152f02ef77017fa75612ac13eeda408" target="_top" xlink:title="clock by precise clock">
<polygon fill="white" stroke="red" points="140.5,-0.5 140.5,-19.5 195.5,-19.5 195.5,-0.5 140.5,-0.5"/>
<text text-anchor="middle" x="168" y="-7.5" font-family="Helvetica,sans-Serif" font-size="10.00">pephclk</text>
</a>
</g>
</g>
<!-- Node1&#45;&gt;Node7 -->
<g id="edge4" class="edge">
<title>Node1&#45;&gt;Node7</title>
<path fill="none" stroke="midnightblue" d="M60.84,-57.34C76.21,-49.39 98.82,-37.99 119,-29 123.17,-27.15 127.57,-25.28 131.96,-23.47"/>
<polygon fill="midnightblue" stroke="midnightblue" points="133.46,-26.64 141.42,-19.66 130.84,-20.15 133.46,-26.64"/>
</g>
</g>
</svg>
