<?xml version="1.0" encoding="UTF-8" standalone="no"?>
<!DOCTYPE svg PUBLIC "-//W3C//DTD SVG 1.1//EN"
 "http://www.w3.org/Graphics/SVG/1.1/DTD/svg11.dtd">
<!-- Generated by graphviz version 2.43.0 (0)
 -->
<!-- Title: pephclk Pages: 1 -->
<svg width="210pt" height="142pt"
 viewBox="0.00 0.00 210.00 142.00" xmlns="http://www.w3.org/2000/svg" xmlns:xlink="http://www.w3.org/1999/xlink">
<g id="graph0" class="graph" transform="scale(1 1) rotate(0) translate(4 138)">
<title>pephclk</title>
<polygon fill="white" stroke="transparent" points="-4,4 -4,-138 206,-138 206,4 -4,4"/>
<!-- Node1 -->
<g id="node1" class="node">
<title>Node1</title>
<g id="a_node1"><a xlink:title="clock by precise clock">
<polygon fill="#bfbfbf" stroke="black" points="147,-57.5 147,-76.5 202,-76.5 202,-57.5 147,-57.5"/>
<text text-anchor="middle" x="174.5" y="-64.5" font-family="Helvetica,sans-Serif" font-size="10.00">pephclk</text>
</a>
</g>
</g>
<!-- Node2 -->
<g id="node2" class="node">
<title>Node2</title>
<g id="a_node2"><a xlink:href="ephPrecise_8cpp.html#a1334ac30cea637f8e64faf299ab7ad18" target="_top" xlink:title=" ">
<polygon fill="white" stroke="red" points="14,-114.5 14,-133.5 97,-133.5 97,-114.5 14,-114.5"/>
<text text-anchor="middle" x="55.5" y="-121.5" font-family="Helvetica,sans-Serif" font-size="10.00">satClkPrecise</text>
</a>
</g>
</g>
<!-- Node1&#45;&gt;Node2 -->
<g id="edge1" class="edge">
<title>Node1&#45;&gt;Node2</title>
<path fill="none" stroke="midnightblue" d="M150.97,-82.28C139.36,-89.75 124.77,-98.5 111,-105 103.57,-108.51 95.31,-111.72 87.51,-114.46"/>
<polygon fill="midnightblue" stroke="midnightblue" points="153.14,-85.05 159.58,-76.64 149.3,-79.2 153.14,-85.05"/>
</g>
<!-- Node28 -->
<g id="node3" class="node">
<title>Node28</title>
<g id="a_node3"><a xlink:href="rinexClkWrite_8cpp.html#a86daca08a44617e8bae88d6e2f9ae29b" target="_top" xlink:title=" ">
<polygon fill="white" stroke="red" points="2,-76.5 2,-95.5 109,-95.5 109,-76.5 2,-76.5"/>
<text text-anchor="middle" x="55.5" y="-83.5" font-family="Helvetica,sans-Serif" font-size="10.00">getPreciseRecClks</text>
</a>
</g>
</g>
<!-- Node1&#45;&gt;Node28 -->
<g id="edge2" class="edge">
<title>Node1&#45;&gt;Node28</title>
<path fill="none" stroke="midnightblue" d="M137.03,-72.92C128.23,-74.35 118.64,-75.91 109.26,-77.43"/>
<polygon fill="midnightblue" stroke="midnightblue" points="137.64,-76.37 146.95,-71.31 136.52,-69.46 137.64,-76.37"/>
</g>
<!-- Node29 -->
<g id="node4" class="node">
<title>Node29</title>
<g id="a_node4"><a xlink:href="ppp_8cpp.html#a1a529bfb379c76f71546a80022b8f123" target="_top" xlink:title=" ">
<polygon fill="white" stroke="red" points="15.5,-38.5 15.5,-57.5 95.5,-57.5 95.5,-38.5 15.5,-38.5"/>
<text text-anchor="middle" x="55.5" y="-45.5" font-family="Helvetica,sans-Serif" font-size="10.00">outputApriori</text>
</a>
</g>
</g>
<!-- Node1&#45;&gt;Node29 -->
<g id="edge3" class="edge">
<title>Node1&#45;&gt;Node29</title>
<path fill="none" stroke="midnightblue" d="M136.91,-61.06C123.85,-58.94 109.1,-56.54 95.83,-54.39"/>
<polygon fill="midnightblue" stroke="midnightblue" points="136.52,-64.54 146.95,-62.69 137.64,-57.63 136.52,-64.54"/>
</g>
<!-- Node13 -->
<g id="node5" class="node">
<title>Node13</title>
<g id="a_node5"><a xlink:href="ppp_8cpp.html#ac02b107ae8826ef55bf8e6e156ef8b63" target="_top" xlink:title="Compare estimated station position with benchmark in SINEX file.">
<polygon fill="white" stroke="red" points="0,-0.5 0,-19.5 111,-19.5 111,-0.5 0,-0.5"/>
<text text-anchor="middle" x="55.5" y="-7.5" font-family="Helvetica,sans-Serif" font-size="10.00">selectAprioriSource</text>
</a>
</g>
</g>
<!-- Node1&#45;&gt;Node13 -->
<g id="edge4" class="edge">
<title>Node1&#45;&gt;Node13</title>
<path fill="none" stroke="midnightblue" d="M150.97,-51.72C139.36,-44.25 124.77,-35.5 111,-29 103.57,-25.49 95.31,-22.28 87.51,-19.54"/>
<polygon fill="midnightblue" stroke="midnightblue" points="149.3,-54.8 159.58,-57.36 153.14,-48.95 149.3,-54.8"/>
</g>
</g>
</svg>
