<?xml version="1.0" encoding="UTF-8" standalone="no"?>
<!DOCTYPE svg PUBLIC "-//W3C//DTD SVG 1.1//EN"
 "http://www.w3.org/Graphics/SVG/1.1/DTD/svg11.dtd">
<!-- Generated by graphviz version 2.43.0 (0)
 -->
<!-- Title: satAntOff Pages: 1 -->
<svg width="204pt" height="218pt"
 viewBox="0.00 0.00 204.00 218.00" xmlns="http://www.w3.org/2000/svg" xmlns:xlink="http://www.w3.org/1999/xlink">
<g id="graph0" class="graph" transform="scale(1 1) rotate(0) translate(4 214)">
<title>satAntOff</title>
<polygon fill="white" stroke="transparent" points="-4,4 -4,-214 200,-214 200,4 -4,4"/>
<!-- Node1 -->
<g id="node1" class="node">
<title>Node1</title>
<g id="a_node1"><a xlink:title="satellite antenna phase center offset in ecef">
<polygon fill="#bfbfbf" stroke="black" points="0,-95.5 0,-114.5 62,-114.5 62,-95.5 0,-95.5"/>
<text text-anchor="middle" x="31" y="-102.5" font-family="Helvetica,sans-Serif" font-size="10.00">satAntOff</text>
</a>
</g>
</g>
<!-- Node2 -->
<g id="node2" class="node">
<title>Node2</title>
<g id="a_node2"><a xlink:href="trace_8hpp.html#a984a9b0c40d65d46f2c73a021a7b7de3" target="_top" xlink:title=" ">
<polygon fill="white" stroke="black" points="111.5,-190.5 111.5,-209.5 182.5,-209.5 182.5,-190.5 111.5,-190.5"/>
<text text-anchor="middle" x="147" y="-197.5" font-family="Helvetica,sans-Serif" font-size="10.00">tracepdeex</text>
</a>
</g>
</g>
<!-- Node1&#45;&gt;Node2 -->
<g id="edge1" class="edge">
<title>Node1&#45;&gt;Node2</title>
<path fill="none" stroke="midnightblue" d="M38.16,-114.73C48.65,-130.61 71.48,-162.21 98,-181 100.55,-182.81 103.3,-184.47 106.14,-186.01"/>
<polygon fill="midnightblue" stroke="midnightblue" points="104.88,-189.29 115.42,-190.44 107.91,-182.97 104.88,-189.29"/>
</g>
<!-- Node3 -->
<g id="node3" class="node">
<title>Node3</title>
<g id="a_node3"><a xlink:href="structGTime.html#a98fdbaaec5a132a7e694f28b4f1907cb" target="_top" xlink:title=" ">
<polygon fill="white" stroke="black" points="98,-152.5 98,-171.5 196,-171.5 196,-152.5 98,-152.5"/>
<text text-anchor="middle" x="147" y="-159.5" font-family="Helvetica,sans-Serif" font-size="10.00">GTime::to_string</text>
</a>
</g>
</g>
<!-- Node1&#45;&gt;Node3 -->
<g id="edge2" class="edge">
<title>Node1&#45;&gt;Node3</title>
<path fill="none" stroke="midnightblue" d="M47.13,-114.55C60.29,-122.66 80.02,-134.32 98,-143 101.9,-144.88 106.05,-146.74 110.2,-148.5"/>
<polygon fill="midnightblue" stroke="midnightblue" points="109.21,-151.88 119.79,-152.42 111.87,-145.4 109.21,-151.88"/>
</g>
<!-- Node4 -->
<g id="node4" class="node">
<title>Node4</title>
<g id="a_node4"><a xlink:href="structSatSys.html#aec6d07b90d1e8172b8b6a6966abef4fd" target="_top" xlink:title="Returns a std::string of this satellite&#39;s id.">
<polygon fill="white" stroke="red" points="114.5,-114.5 114.5,-133.5 179.5,-133.5 179.5,-114.5 114.5,-114.5"/>
<text text-anchor="middle" x="147" y="-121.5" font-family="Helvetica,sans-Serif" font-size="10.00">SatSys::id</text>
</a>
</g>
</g>
<!-- Node1&#45;&gt;Node4 -->
<g id="edge3" class="edge">
<title>Node1&#45;&gt;Node4</title>
<path fill="none" stroke="midnightblue" d="M62.25,-110.04C75.2,-112.2 90.54,-114.76 104.52,-117.09"/>
<polygon fill="midnightblue" stroke="midnightblue" points="103.97,-120.54 114.41,-118.74 105.12,-113.64 103.97,-120.54"/>
</g>
<!-- Node7 -->
<g id="node5" class="node">
<title>Node7</title>
<g id="a_node5"><a xlink:href="acsQC_8cpp.html#abd57aff1d197b2747eab5e751cbb0b57" target="_top" xlink:title=" ">
<polygon fill="white" stroke="black" points="118,-76.5 118,-95.5 176,-95.5 176,-76.5 118,-76.5"/>
<text text-anchor="middle" x="147" y="-83.5" font-family="Helvetica,sans-Serif" font-size="10.00">satFreqs</text>
</a>
</g>
</g>
<!-- Node1&#45;&gt;Node7 -->
<g id="edge4" class="edge">
<title>Node1&#45;&gt;Node7</title>
<path fill="none" stroke="midnightblue" d="M62.25,-99.96C76.29,-97.62 93.14,-94.81 108.02,-92.33"/>
<polygon fill="midnightblue" stroke="midnightblue" points="108.67,-95.77 117.96,-90.67 107.52,-88.87 108.67,-95.77"/>
</g>
<!-- Node8 -->
<g id="node6" class="node">
<title>Node8</title>
<g id="a_node6"><a xlink:href="antenna_8cpp.html#aa781255f62e500233148b6f4a9240740" target="_top" xlink:title="fetch pco">
<polygon fill="white" stroke="red" points="122,-38.5 122,-57.5 172,-57.5 172,-38.5 122,-38.5"/>
<text text-anchor="middle" x="147" y="-45.5" font-family="Helvetica,sans-Serif" font-size="10.00">antPco</text>
</a>
</g>
</g>
<!-- Node1&#45;&gt;Node8 -->
<g id="edge5" class="edge">
<title>Node1&#45;&gt;Node8</title>
<path fill="none" stroke="midnightblue" d="M47.13,-95.45C60.29,-87.34 80.02,-75.68 98,-67 102.62,-64.77 107.58,-62.58 112.49,-60.54"/>
<polygon fill="midnightblue" stroke="midnightblue" points="113.81,-63.78 121.78,-56.8 111.19,-57.29 113.81,-63.78"/>
</g>
<!-- Node11 -->
<g id="node7" class="node">
<title>Node11</title>
<g id="a_node7"><a xlink:href="coordinates_8cpp.html#a9860e0cea74eb4ca1383342104693565" target="_top" xlink:title="transform vector in body frame to ecef">
<polygon fill="white" stroke="black" points="113,-0.5 113,-19.5 181,-19.5 181,-0.5 113,-0.5"/>
<text text-anchor="middle" x="147" y="-7.5" font-family="Helvetica,sans-Serif" font-size="10.00">body2ecef</text>
</a>
</g>
</g>
<!-- Node1&#45;&gt;Node11 -->
<g id="edge6" class="edge">
<title>Node1&#45;&gt;Node11</title>
<path fill="none" stroke="midnightblue" d="M38.16,-95.27C48.65,-79.39 71.48,-47.79 98,-29 100.55,-27.19 103.3,-25.53 106.14,-23.99"/>
<polygon fill="midnightblue" stroke="midnightblue" points="107.91,-27.03 115.42,-19.56 104.88,-20.71 107.91,-27.03"/>
</g>
</g>
</svg>
