<?xml version="1.0" encoding="UTF-8" standalone="no"?>
<!DOCTYPE svg PUBLIC "-//W3C//DTD SVG 1.1//EN"
 "http://www.w3.org/Graphics/SVG/1.1/DTD/svg11.dtd">
<!-- Generated by graphviz version 2.43.0 (0)
 -->
<!-- Title: interpolate Pages: 1 -->
<svg width="183pt" height="142pt"
 viewBox="0.00 0.00 183.00 142.00" xmlns="http://www.w3.org/2000/svg" xmlns:xlink="http://www.w3.org/1999/xlink">
<g id="graph0" class="graph" transform="scale(1 1) rotate(0) translate(4 138)">
<title>interpolate</title>
<polygon fill="white" stroke="transparent" points="-4,4 -4,-138 179,-138 179,4 -4,4"/>
<!-- Node1 -->
<g id="node1" class="node">
<title>Node1</title>
<g id="a_node1"><a xlink:title="polynomial interpolation by Neville&#39;s algorithm">
<polygon fill="#bfbfbf" stroke="black" points="105,-57.5 105,-76.5 175,-76.5 175,-57.5 105,-57.5"/>
<text text-anchor="middle" x="140" y="-64.5" font-family="Helvetica,sans-Serif" font-size="10.00">interpolate</text>
</a>
</g>
</g>
<!-- Node2 -->
<g id="node2" class="node">
<title>Node2</title>
<g id="a_node2"><a xlink:href="ephPrecise_8cpp.html#a104000a7ff779640478d859f1e187ec9" target="_top" xlink:title="satellite position by precise ephemeris">
<polygon fill="white" stroke="red" points="5.5,-114.5 5.5,-133.5 63.5,-133.5 63.5,-114.5 5.5,-114.5"/>
<text text-anchor="middle" x="34.5" y="-121.5" font-family="Helvetica,sans-Serif" font-size="10.00">pephpos</text>
</a>
</g>
</g>
<!-- Node1&#45;&gt;Node2 -->
<g id="edge1" class="edge">
<title>Node1&#45;&gt;Node2</title>
<path fill="none" stroke="midnightblue" d="M121.44,-76.67C102.29,-87.21 71.84,-103.99 52.8,-114.47"/>
</g>
<!-- Node34 -->
<g id="node3" class="node">
<title>Node34</title>
<g id="a_node3"><a xlink:href="ephPrecise_8cpp.html#a4f03544ee5e512fc2f95a33a42816796" target="_top" xlink:title=" ">
<polygon fill="white" stroke="black" points="0.5,-76.5 0.5,-95.5 68.5,-95.5 68.5,-76.5 0.5,-76.5"/>
<text text-anchor="middle" x="34.5" y="-83.5" font-family="Helvetica,sans-Serif" font-size="10.00">mongopos</text>
</a>
</g>
</g>
<!-- Node1&#45;&gt;Node34 -->
<g id="edge2" class="edge">
<title>Node1&#45;&gt;Node34</title>
<path fill="none" stroke="midnightblue" d="M104.82,-73.27C93.16,-75.41 80.16,-77.8 68.58,-79.93"/>
</g>
<!-- Node35 -->
<g id="node4" class="node">
<title>Node35</title>
<g id="a_node4"><a xlink:href="erp_8cpp.html#a6c6ecf3c5c7d4367d78ad08621996580" target="_top" xlink:title="Get earth rotation parameter values.">
<polygon fill="white" stroke="red" points="10.5,-38.5 10.5,-57.5 58.5,-57.5 58.5,-38.5 10.5,-38.5"/>
<text text-anchor="middle" x="34.5" y="-45.5" font-family="Helvetica,sans-Serif" font-size="10.00">getErp</text>
</a>
</g>
</g>
<!-- Node1&#45;&gt;Node35 -->
<g id="edge3" class="edge">
<title>Node1&#45;&gt;Node35</title>
<path fill="none" stroke="midnightblue" d="M104.82,-60.73C89.63,-57.94 72.15,-54.73 58.54,-52.23"/>
</g>
<!-- Node57 -->
<g id="node5" class="node">
<title>Node57</title>
<g id="a_node5"><a xlink:href="common_2orbits_8cpp.html#af8bbfb0593942b407e3b695eb6c13a30" target="_top" xlink:title=" ">
<polygon fill="white" stroke="red" points="0,-0.5 0,-19.5 69,-19.5 69,-0.5 0,-0.5"/>
<text text-anchor="middle" x="34.5" y="-7.5" font-family="Helvetica,sans-Serif" font-size="10.00">orbPartials</text>
</a>
</g>
</g>
<!-- Node1&#45;&gt;Node57 -->
<g id="edge4" class="edge">
<title>Node1&#45;&gt;Node57</title>
<path fill="none" stroke="midnightblue" d="M121.44,-57.33C102.29,-46.79 71.84,-30.01 52.8,-19.53"/>
</g>
</g>
</svg>
