<?xml version="1.0" encoding="UTF-8" standalone="no"?>
<!DOCTYPE svg PUBLIC "-//W3C//DTD SVG 1.1//EN"
 "http://www.w3.org/Graphics/SVG/1.1/DTD/svg11.dtd">
<!-- Generated by graphviz version 2.43.0 (0)
 -->
<!-- Title: getErp Pages: 1 -->
<svg width="221pt" height="142pt"
 viewBox="0.00 0.00 221.00 142.00" xmlns="http://www.w3.org/2000/svg" xmlns:xlink="http://www.w3.org/1999/xlink">
<g id="graph0" class="graph" transform="scale(1 1) rotate(0) translate(4 138)">
<title>getErp</title>
<polygon fill="white" stroke="transparent" points="-4,4 -4,-138 217,-138 217,4 -4,4"/>
<!-- Node1 -->
<g id="node1" class="node">
<title>Node1</title>
<g id="a_node1"><a xlink:title="Get earth rotation parameter values.">
<polygon fill="#bfbfbf" stroke="black" points="0,-57.5 0,-76.5 48,-76.5 48,-57.5 0,-57.5"/>
<text text-anchor="middle" x="24" y="-64.5" font-family="Helvetica,sans-Serif" font-size="10.00">getErp</text>
</a>
</g>
</g>
<!-- Node2 -->
<g id="node2" class="node">
<title>Node2</title>
<g id="a_node2"><a xlink:href="structACSConfig.html#acbb130e061ba4b7bf620e4fb68e1b794" target="_top" xlink:title="Set receiver options for a specific receiver using a hierarchy of sources.">
<polygon fill="white" stroke="red" points="84,-114.5 84,-133.5 213,-133.5 213,-114.5 84,-114.5"/>
<text text-anchor="middle" x="148.5" y="-121.5" font-family="Helvetica,sans-Serif" font-size="10.00">ACSConfig::getRecOpts</text>
</a>
</g>
</g>
<!-- Node1&#45;&gt;Node2 -->
<g id="edge1" class="edge">
<title>Node1&#45;&gt;Node2</title>
<path fill="none" stroke="midnightblue" d="M37.52,-76.55C49.07,-85 66.96,-97.15 84,-105 88.97,-107.29 94.27,-109.38 99.63,-111.27"/>
<polygon fill="midnightblue" stroke="midnightblue" points="98.66,-114.63 109.25,-114.45 100.86,-107.99 98.66,-114.63"/>
</g>
<!-- Node16 -->
<g id="node3" class="node">
<title>Node16</title>
<g id="a_node3"><a xlink:href="ephPrecise_8cpp.html#a9a01152aef47228af7e3cfa035bd643d" target="_top" xlink:title="polynomial interpolation by Neville&#39;s algorithm">
<polygon fill="white" stroke="black" points="113.5,-76.5 113.5,-95.5 183.5,-95.5 183.5,-76.5 113.5,-76.5"/>
<text text-anchor="middle" x="148.5" y="-83.5" font-family="Helvetica,sans-Serif" font-size="10.00">interpolate</text>
</a>
</g>
</g>
<!-- Node1&#45;&gt;Node16 -->
<g id="edge2" class="edge">
<title>Node1&#45;&gt;Node16</title>
<path fill="none" stroke="midnightblue" d="M48.04,-70.57C63.6,-72.99 84.63,-76.25 103.34,-79.15"/>
<polygon fill="midnightblue" stroke="midnightblue" points="103.03,-82.64 113.45,-80.72 104.11,-75.73 103.03,-82.64"/>
</g>
<!-- Node17 -->
<g id="node4" class="node">
<title>Node17</title>
<g id="a_node4"><a xlink:href="structGTime.html#aaa8a379d11cd6c040a6bbe680c0e913e" target="_top" xlink:title="Uninitialised time for comparisons.">
<polygon fill="white" stroke="black" points="102.5,-38.5 102.5,-57.5 194.5,-57.5 194.5,-38.5 102.5,-38.5"/>
<text text-anchor="middle" x="148.5" y="-45.5" font-family="Helvetica,sans-Serif" font-size="10.00">GTime::noTime</text>
</a>
</g>
</g>
<!-- Node1&#45;&gt;Node17 -->
<g id="edge3" class="edge">
<title>Node1&#45;&gt;Node17</title>
<path fill="none" stroke="midnightblue" d="M48.04,-63.43C60.61,-61.48 76.74,-58.97 92.35,-56.55"/>
<polygon fill="midnightblue" stroke="midnightblue" points="93.13,-59.97 102.48,-54.98 92.06,-53.06 93.13,-59.97"/>
</g>
<!-- Node18 -->
<g id="node5" class="node">
<title>Node18</title>
<g id="a_node5"><a xlink:href="structGTime.html#a98fdbaaec5a132a7e694f28b4f1907cb" target="_top" xlink:title=" ">
<polygon fill="white" stroke="black" points="99.5,-0.5 99.5,-19.5 197.5,-19.5 197.5,-0.5 99.5,-0.5"/>
<text text-anchor="middle" x="148.5" y="-7.5" font-family="Helvetica,sans-Serif" font-size="10.00">GTime::to_string</text>
</a>
</g>
</g>
<!-- Node1&#45;&gt;Node18 -->
<g id="edge4" class="edge">
<title>Node1&#45;&gt;Node18</title>
<path fill="none" stroke="midnightblue" d="M37.52,-57.45C49.07,-49 66.96,-36.85 84,-29 88.97,-26.71 94.27,-24.62 99.63,-22.73"/>
<polygon fill="midnightblue" stroke="midnightblue" points="100.86,-26.01 109.25,-19.55 98.66,-19.37 100.86,-26.01"/>
</g>
</g>
</svg>
