<?xml version="1.0" encoding="UTF-8" standalone="no"?>
<!DOCTYPE svg PUBLIC "-//W3C//DTD SVG 1.1//EN"
 "http://www.w3.org/Graphics/SVG/1.1/DTD/svg11.dtd">
<!-- Generated by graphviz version 2.43.0 (0)
 -->
<!-- Title: getErp Pages: 1 -->
<!--zoomable 536 -->
<svg id="main" version="1.1" xmlns="http://www.w3.org/2000/svg" xmlns:xlink="http://www.w3.org/1999/xlink" xml:space="preserve" onload="init(evt)">
<style type="text/css"><![CDATA[
.edge:hover path { stroke: red; }
.edge:hover polygon { stroke: red; fill: red; }
]]></style>
<script type="text/javascript"><![CDATA[
var edges = document.getElementsByTagName('g');
if (edges && edges.length) {
  for (var i=0;i<edges.length;i++) {
    if (edges[i].id.substr(0,4)=='edge') {
      edges[i].setAttribute('class','edge');
    }
  }
}
]]></script>
        <defs>
                <circle id="rim" cx="0" cy="0" r="7"/>
                <circle id="rim2" cx="0" cy="0" r="3.5"/>
                <g id="zoomPlus">
                        <use xlink:href="#rim" fill="#404040">
                                <set attributeName="fill" to="#808080" begin="zoomplus.mouseover" end="zoomplus.mouseout"/>
                        </use>
                        <path d="M-4,0h8M0,-4v8" fill="none" stroke="white" stroke-width="1.5" pointer-events="none"/>
                </g>
                <g id="zoomMin">
                        <use xlink:href="#rim" fill="#404040">
                                <set attributeName="fill" to="#808080" begin="zoomminus.mouseover" end="zoomminus.mouseout"/>
                        </use>
                        <path d="M-4,0h8" fill="none" stroke="white" stroke-width="1.5" pointer-events="none"/>
                </g>
                <g id="dirArrow">
                        <path fill="none" stroke="white" stroke-width="1.5" d="M0,-3.0v7 M-2.5,-0.5L0,-3.0L2.5,-0.5"/>
                </g>
               <g id="resetDef">
                       <use xlink:href="#rim2" fill="#404040">
                               <set attributeName="fill" to="#808080" begin="reset.mouseover" end="reset.mouseout"/>
                       </use>
               </g>
        </defs>

<script type="text/javascript">
var viewWidth = 358;
var viewHeight = 536;
var sectionId = 'dynsection-2';
</script>
<script xlink:href="svgpan.js"/>
<svg id="graph" class="graph">
<g id="viewport">
<title>getErp</title>
<polygon fill="white" stroke="transparent" points="-4,4 -4,-531.71 354,-531.71 354,4 -4,4"/>
<!-- Node1 -->
<g id="node1" class="node">
<title>Node1</title>
<g id="a_node1"><a xlink:title="Get earth rotation parameter values.">
<polygon fill="#bfbfbf" stroke="black" points="302,-247.5 302,-266.5 350,-266.5 350,-247.5 302,-247.5"/>
<text text-anchor="middle" x="326" y="-254.5" font-family="Helvetica,sans-Serif" font-size="10.00">getErp</text>
</a>
</g>
</g>
<!-- Node2 -->
<g id="node2" class="node">
<title>Node2</title>
<g id="a_node2"><a xlink:href="ppp__slr_8cpp.html#a8a0fd95f3ae58d8d033b52aa2811c60c" target="_top" xlink:title=" ">
<polygon fill="white" stroke="red" points="0,-386.5 0,-405.5 63,-405.5 63,-386.5 0,-386.5"/>
<text text-anchor="middle" x="31.5" y="-393.5" font-family="Helvetica,sans-Serif" font-size="10.00">stationSlr</text>
</a>
</g>
</g>
<!-- Node1&#45;&gt;Node2 -->
<g id="edge1" class="edge">
<title>Node1&#45;&gt;Node2</title>
<path fill="none" stroke="midnightblue" d="M324.16,-266.74C320.4,-308 303.57,-467.55 266,-497 207.59,-542.79 164.34,-532.21 99,-497 62.04,-477.08 42.24,-426.64 35.35,-405.53"/>
</g>
<!-- Node10 -->
<g id="node3" class="node">
<title>Node10</title>
<g id="a_node3"><a xlink:href="ppp__pseudoobs_8cpp.html#a949a10f89de8232ebeb49ad5d912ba80" target="_top" xlink:title=" ">
<polygon fill="white" stroke="red" points="136,-468.5 136,-487.5 229,-487.5 229,-468.5 136,-468.5"/>
<text text-anchor="middle" x="182.5" y="-475.5" font-family="Helvetica,sans-Serif" font-size="10.00">orbitPseudoObs</text>
</a>
</g>
</g>
<!-- Node1&#45;&gt;Node10 -->
<g id="edge2" class="edge">
<title>Node1&#45;&gt;Node10</title>
<path fill="none" stroke="midnightblue" d="M325.34,-266.74C325.91,-299.25 323.13,-405.09 266,-459 256.06,-468.38 242.45,-473.45 229.16,-476.11"/>
</g>
<!-- Node11 -->
<g id="node4" class="node">
<title>Node11</title>
<g id="a_node4"><a xlink:href="ppp__obs_8cpp.html#aa6a7c175b1b4ea3c417b058d36edc96d" target="_top" xlink:title=" ">
<polygon fill="white" stroke="red" points="148.5,-430.5 148.5,-449.5 216.5,-449.5 216.5,-430.5 148.5,-430.5"/>
<text text-anchor="middle" x="182.5" y="-437.5" font-family="Helvetica,sans-Serif" font-size="10.00">stationPPP</text>
</a>
</g>
</g>
<!-- Node1&#45;&gt;Node11 -->
<g id="edge3" class="edge">
<title>Node1&#45;&gt;Node11</title>
<path fill="none" stroke="midnightblue" d="M324.57,-266.9C322.78,-295.48 313.52,-378.82 266,-421 252.59,-432.9 233.22,-437.78 216.63,-439.62"/>
</g>
<!-- Node12 -->
<g id="node5" class="node">
<title>Node12</title>
<g id="a_node5"><a xlink:href="common_2orbits_8cpp.html#ad6c34ca3c65d1193013221c78c6c7616" target="_top" xlink:title=" ">
<polygon fill="white" stroke="red" points="133.5,-392.5 133.5,-411.5 231.5,-411.5 231.5,-392.5 133.5,-392.5"/>
<text text-anchor="middle" x="182.5" y="-399.5" font-family="Helvetica,sans-Serif" font-size="10.00">propagateEllipse</text>
</a>
</g>
</g>
<!-- Node1&#45;&gt;Node12 -->
<g id="edge4" class="edge">
<title>Node1&#45;&gt;Node12</title>
<path fill="none" stroke="midnightblue" d="M323.43,-266.65C319.04,-290.41 304.33,-352.03 266,-383 256.28,-390.85 243.92,-395.58 231.75,-398.4"/>
</g>
<!-- Node31 -->
<g id="node6" class="node">
<title>Node31</title>
<g id="a_node6"><a xlink:href="main_8cpp.html#a6c8573ceb67a86d932ae7861185b41b5" target="_top" xlink:title=" ">
<polygon fill="white" stroke="red" points="99,-354.5 99,-373.5 266,-373.5 266,-354.5 99,-354.5"/>
<text text-anchor="middle" x="182.5" y="-361.5" font-family="Helvetica,sans-Serif" font-size="10.00">mainOncePerEpochPerSatellite</text>
</a>
</g>
</g>
<!-- Node1&#45;&gt;Node31 -->
<g id="edge5" class="edge">
<title>Node1&#45;&gt;Node31</title>
<path fill="none" stroke="midnightblue" d="M321.35,-266.71C313.92,-285.07 295.23,-324.86 266,-345 260.43,-348.84 254.2,-351.91 247.73,-354.36"/>
</g>
<!-- Node34 -->
<g id="node7" class="node">
<title>Node34</title>
<g id="a_node7"><a xlink:href="structOrbitIntegrator.html#a195b0b7db606c919a11d93977ce4dfe2" target="_top" xlink:title=" ">
<polygon fill="white" stroke="red" points="114,-305 114,-335 251,-335 251,-305 114,-305"/>
<text text-anchor="start" x="122" y="-323" font-family="Helvetica,sans-Serif" font-size="10.00">OrbitIntegrator::compute</text>
<text text-anchor="middle" x="182.5" y="-312" font-family="Helvetica,sans-Serif" font-size="10.00">Common</text>
</a>
</g>
</g>
<!-- Node1&#45;&gt;Node34 -->
<g id="edge6" class="edge">
<title>Node1&#45;&gt;Node34</title>
<path fill="none" stroke="midnightblue" d="M312.48,-266.54C300.92,-274.97 283.03,-287.12 266,-295 257.99,-298.71 249.28,-302.03 240.64,-304.96"/>
</g>
<!-- Node36 -->
<g id="node8" class="node">
<title>Node36</title>
<g id="a_node8"><a xlink:href="ppp__slr_8cpp.html#a21fafa3b27f000354dab5a5f7c052841" target="_top" xlink:title="eops">
<polygon fill="white" stroke="black" points="156.5,-266.5 156.5,-285.5 208.5,-285.5 208.5,-266.5 156.5,-266.5"/>
<text text-anchor="middle" x="182.5" y="-273.5" font-family="Helvetica,sans-Serif" font-size="10.00">slrEops</text>
</a>
</g>
</g>
<!-- Node1&#45;&gt;Node36 -->
<g id="edge7" class="edge">
<title>Node1&#45;&gt;Node36</title>
<path fill="none" stroke="midnightblue" d="M301.95,-260.09C276.42,-263.52 235.38,-269.03 208.93,-272.59"/>
</g>
<!-- Node37 -->
<g id="node9" class="node">
<title>Node37</title>
<g id="a_node9"><a xlink:href="networkEstimator_8cpp.html#a36828506971a6b66c6e61db51197c9e1" target="_top" xlink:title="Estimates parameters for a network of stations simultaneously.">
<polygon fill="white" stroke="red" points="130.5,-228.5 130.5,-247.5 234.5,-247.5 234.5,-228.5 130.5,-228.5"/>
<text text-anchor="middle" x="182.5" y="-235.5" font-family="Helvetica,sans-Serif" font-size="10.00">networkEstimator</text>
</a>
</g>
</g>
<!-- Node1&#45;&gt;Node37 -->
<g id="edge9" class="edge">
<title>Node1&#45;&gt;Node37</title>
<path fill="none" stroke="midnightblue" d="M301.95,-253.91C283.78,-251.47 257.76,-247.97 234.73,-244.88"/>
</g>
<!-- Node38 -->
<g id="node10" class="node">
<title>Node38</title>
<g id="a_node10"><a xlink:href="erp_8cpp.html#ab3d1603dc3b9792fd8a9116558ba1d49" target="_top" xlink:title=" ">
<polygon fill="white" stroke="red" points="121,-190.5 121,-209.5 244,-209.5 244,-190.5 121,-190.5"/>
<text text-anchor="middle" x="182.5" y="-197.5" font-family="Helvetica,sans-Serif" font-size="10.00">writeErpFromNetwork</text>
</a>
</g>
</g>
<!-- Node1&#45;&gt;Node38 -->
<g id="edge10" class="edge">
<title>Node1&#45;&gt;Node38</title>
<path fill="none" stroke="midnightblue" d="M312.6,-247.18C301.13,-238.56 283.29,-226.29 266,-219 256.93,-215.17 246.95,-212.05 237.17,-209.52"/>
</g>
<!-- Node39 -->
<g id="node11" class="node">
<title>Node39</title>
<g id="a_node11"><a xlink:href="sp3Write_8cpp.html#a4b1d20154c3982bbbe24760f2a54c99a" target="_top" xlink:title=" ">
<polygon fill="white" stroke="red" points="127.5,-152.5 127.5,-171.5 237.5,-171.5 237.5,-152.5 127.5,-152.5"/>
<text text-anchor="middle" x="182.5" y="-159.5" font-family="Helvetica,sans-Serif" font-size="10.00">outputMongoOrbits</text>
</a>
</g>
</g>
<!-- Node1&#45;&gt;Node39 -->
<g id="edge11" class="edge">
<title>Node1&#45;&gt;Node39</title>
<path fill="none" stroke="midnightblue" d="M320.32,-247.34C311.88,-230.97 292.46,-197.91 266,-181 257.45,-175.54 247.52,-171.64 237.57,-168.86"/>
</g>
<!-- Node40 -->
<g id="node12" class="node">
<title>Node40</title>
<g id="a_node12"><a xlink:href="debug_8cpp.html#a5b1ea12931531e9012bd2b1de294dd82" target="_top" xlink:title=" ">
<polygon fill="white" stroke="black" points="151.5,-114.5 151.5,-133.5 213.5,-133.5 213.5,-114.5 151.5,-114.5"/>
<text text-anchor="middle" x="182.5" y="-121.5" font-family="Helvetica,sans-Serif" font-size="10.00">debugErp</text>
</a>
</g>
</g>
<!-- Node1&#45;&gt;Node40 -->
<g id="edge12" class="edge">
<title>Node1&#45;&gt;Node40</title>
<path fill="none" stroke="midnightblue" d="M322.9,-247.28C317.58,-225.08 301.39,-170.46 266,-143 251.14,-131.47 230.51,-126.72 213.6,-124.85"/>
</g>
<!-- Node41 -->
<g id="node13" class="node">
<title>Node41</title>
<g id="a_node13"><a xlink:href="debug_8cpp.html#a3a9dc241be6174dbd40a8bd071d6973d" target="_top" xlink:title=" ">
<polygon fill="white" stroke="black" points="145.5,-76.5 145.5,-95.5 219.5,-95.5 219.5,-76.5 145.5,-76.5"/>
<text text-anchor="middle" x="182.5" y="-83.5" font-family="Helvetica,sans-Serif" font-size="10.00">rotationTest</text>
</a>
</g>
</g>
<!-- Node1&#45;&gt;Node41 -->
<g id="edge13" class="edge">
<title>Node1&#45;&gt;Node41</title>
<path fill="none" stroke="midnightblue" d="M324.29,-247.43C321.75,-220.53 310.73,-143.72 266,-105 253.33,-94.03 235.59,-89.07 219.8,-86.93"/>
</g>
<!-- Node42 -->
<g id="node14" class="node">
<title>Node42</title>
<g id="a_node14"><a xlink:href="attitude_8cpp.html#a5d6694425700677beb52b092488f177b" target="_top" xlink:title="Retrieves precise attitude (from file) &#45; unit vectors of satellite&#45;fixed coordinates (ECEF) Returns f...">
<polygon fill="white" stroke="red" points="137,-38.5 137,-57.5 228,-57.5 228,-38.5 137,-38.5"/>
<text text-anchor="middle" x="182.5" y="-45.5" font-family="Helvetica,sans-Serif" font-size="10.00">preciseAttitude</text>
</a>
</g>
</g>
<!-- Node1&#45;&gt;Node42 -->
<g id="edge14" class="edge">
<title>Node1&#45;&gt;Node42</title>
<path fill="none" stroke="midnightblue" d="M325.13,-247.4C325.01,-216.27 320.18,-117.28 266,-67 255.76,-57.5 241.76,-52.44 228.2,-49.82"/>
</g>
<!-- Node49 -->
<g id="node15" class="node">
<title>Node49</title>
<g id="a_node15"><a xlink:href="tides_8cpp.html#a76dbcd260bdab5954ea1d50cbe96b09f" target="_top" xlink:title=" ">
<polygon fill="white" stroke="red" points="154,-0.5 154,-19.5 211,-19.5 211,-0.5 154,-0.5"/>
<text text-anchor="middle" x="182.5" y="-7.5" font-family="Helvetica,sans-Serif" font-size="10.00">tideDisp</text>
</a>
</g>
</g>
<!-- Node1&#45;&gt;Node49 -->
<g id="edge15" class="edge">
<title>Node1&#45;&gt;Node49</title>
<path fill="none" stroke="midnightblue" d="M323.84,-247.41C318.91,-208.2 298.45,-60.59 266,-29 251.57,-14.95 228.96,-10.5 211.05,-9.39"/>
</g>
<!-- Node36&#45;&gt;Node2 -->
<g id="edge8" class="edge">
<title>Node36&#45;&gt;Node2</title>
<path fill="none" stroke="midnightblue" d="M156.44,-277.31C138.99,-279.29 115.9,-284.17 99,-296 65.36,-319.56 44.11,-366.08 36.11,-386.27"/>
</g>
</g>
</svg>
        <g id="navigator" transform="translate(0 0)" fill="#404254">
                <rect fill="#f2f5e9" fill-opacity="0.5" stroke="#606060" stroke-width=".5" x="0" y="0" width="60" height="60"/>
                <use id="zoomplus" xlink:href="#zoomPlus" x="17" y="9" onmousedown="handleZoom(evt,'in')"/>
                <use id="zoomminus" xlink:href="#zoomMin" x="42" y="9" onmousedown="handleZoom(evt,'out')"/>
                <use id="reset" xlink:href="#resetDef" x="30" y="36" onmousedown="handleReset()"/>
                <g id="arrowUp" xlink:href="#dirArrow" transform="translate(30 24)" onmousedown="handlePan(0,-1)">
                  <use xlink:href="#rim" fill="#404040">
                        <set attributeName="fill" to="#808080" begin="arrowUp.mouseover" end="arrowUp.mouseout"/>
                  </use>
                  <path fill="none" stroke="white" stroke-width="1.5" d="M0,-3.0v7 M-2.5,-0.5L0,-3.0L2.5,-0.5"/>
                </g>
                <g id="arrowRight" xlink:href="#dirArrow" transform="rotate(90) translate(36 -43)" onmousedown="handlePan(1,0)">
                  <use xlink:href="#rim" fill="#404040">
                        <set attributeName="fill" to="#808080" begin="arrowRight.mouseover" end="arrowRight.mouseout"/>
                  </use>
                  <path fill="none" stroke="white" stroke-width="1.5" d="M0,-3.0v7 M-2.5,-0.5L0,-3.0L2.5,-0.5"/>
                </g>
                <g id="arrowDown" xlink:href="#dirArrow" transform="rotate(180) translate(-30 -48)" onmousedown="handlePan(0,1)">
                  <use xlink:href="#rim" fill="#404040">
                        <set attributeName="fill" to="#808080" begin="arrowDown.mouseover" end="arrowDown.mouseout"/>
                  </use>
                  <path fill="none" stroke="white" stroke-width="1.5" d="M0,-3.0v7 M-2.5,-0.5L0,-3.0L2.5,-0.5"/>
                </g>
                <g id="arrowLeft" xlink:href="#dirArrow" transform="rotate(270) translate(-36 17)" onmousedown="handlePan(-1,0)">
                  <use xlink:href="#rim" fill="#404040">
                        <set attributeName="fill" to="#808080" begin="arrowLeft.mouseover" end="arrowLeft.mouseout"/>
                  </use>
                  <path fill="none" stroke="white" stroke-width="1.5" d="M0,-3.0v7 M-2.5,-0.5L0,-3.0L2.5,-0.5"/>
                </g>
        </g>
        <svg viewBox="0 0 15 15" width="100%" height="30px" preserveAspectRatio="xMaxYMin meet">
         <g id="arrow_out" transform="scale(0.3 0.3)">
          <a xlink:href="erp_8hpp_a6c6ecf3c5c7d4367d78ad08621996580_icgraph_org.svg" target="_base">
           <rect id="button" ry="5" rx="5" y="6" x="6" height="38" width="38"
                fill="#f2f5e9" fill-opacity="0.5" stroke="#606060" stroke-width="1.0"/>
           <path id="arrow"
             d="M 11.500037,31.436501 C 11.940474,20.09759 22.043105,11.32322 32.158766,21.979434 L 37.068811,17.246167 C 37.068811,17.246167 37.088388,32 37.088388,32 L 22.160133,31.978069 C 22.160133,31.978069 26.997745,27.140456 26.997745,27.140456 C 18.528582,18.264221 13.291696,25.230495 11.500037,31.436501 z"
             style="fill:#404040;"/>
          </a>
         </g>
        </svg>
</svg>
