<?xml version="1.0" encoding="UTF-8" standalone="no"?>
<!DOCTYPE svg PUBLIC "-//W3C//DTD SVG 1.1//EN"
 "http://www.w3.org/Graphics/SVG/1.1/DTD/svg11.dtd">
<!-- Generated by graphviz version 2.43.0 (0)
 -->
<!-- Title: getGeomagIntensity Pages: 1 -->
<svg width="297pt" height="66pt"
 viewBox="0.00 0.00 297.00 66.00" xmlns="http://www.w3.org/2000/svg" xmlns:xlink="http://www.w3.org/1999/xlink">
<g id="graph0" class="graph" transform="scale(1 1) rotate(0) translate(4 62)">
<title>getGeomagIntensity</title>
<polygon fill="white" stroke="transparent" points="-4,4 -4,-62 293,-62 293,4 -4,4"/>
<!-- Node1 -->
<g id="node1" class="node">
<title>Node1</title>
<g id="a_node1"><a xlink:title="Compute the geomagnetic field components in geocentric local reference system at given time and posit...">
<polygon fill="#bfbfbf" stroke="black" points="173,-19.5 173,-38.5 289,-38.5 289,-19.5 173,-19.5"/>
<text text-anchor="middle" x="231" y="-26.5" font-family="Helvetica,sans-Serif" font-size="10.00">getGeomagIntensity</text>
</a>
</g>
</g>
<!-- Node2 -->
<g id="node2" class="node">
<title>Node2</title>
<g id="a_node2"><a xlink:href="debug_8cpp.html#a25e72c6bf87e11fee70e99be7816a530" target="_top" xlink:title=" ">
<polygon fill="white" stroke="black" points="33.5,-38.5 33.5,-57.5 103.5,-57.5 103.5,-38.5 33.5,-38.5"/>
<text text-anchor="middle" x="68.5" y="-45.5" font-family="Helvetica,sans-Serif" font-size="10.00">debugIGRF</text>
</a>
</g>
</g>
<!-- Node1&#45;&gt;Node2 -->
<g id="edge1" class="edge">
<title>Node1&#45;&gt;Node2</title>
<path fill="none" stroke="midnightblue" d="M162.81,-36.95C142.54,-39.35 121.13,-41.89 103.93,-43.92"/>
<polygon fill="midnightblue" stroke="midnightblue" points="163.44,-40.4 172.96,-35.75 162.62,-33.45 163.44,-40.4"/>
</g>
<!-- Node3 -->
<g id="node3" class="node">
<title>Node3</title>
<g id="a_node3"><a xlink:href="geomagField_8cpp.html#a59c145bc8f2b7d8ca2fe761d1c093134" target="_top" xlink:title="Compute the geomagnetic field components in ECEF reference system at given time and position.">
<polygon fill="white" stroke="red" points="0,-0.5 0,-19.5 137,-19.5 137,-0.5 0,-0.5"/>
<text text-anchor="middle" x="68.5" y="-7.5" font-family="Helvetica,sans-Serif" font-size="10.00">getGeomagIntensityEcef</text>
</a>
</g>
</g>
<!-- Node1&#45;&gt;Node3 -->
<g id="edge2" class="edge">
<title>Node1&#45;&gt;Node3</title>
<path fill="none" stroke="midnightblue" d="M163.01,-21.07C154.43,-20.05 145.64,-19.01 137.06,-18"/>
<polygon fill="midnightblue" stroke="midnightblue" points="162.62,-24.55 172.96,-22.25 163.44,-17.6 162.62,-24.55"/>
</g>
</g>
</svg>
