<?xml version="1.0" encoding="UTF-8" standalone="no"?>
<!DOCTYPE svg PUBLIC "-//W3C//DTD SVG 1.1//EN"
 "http://www.w3.org/Graphics/SVG/1.1/DTD/svg11.dtd">
<!-- Generated by graphviz version 2.43.0 (0)
 -->
<!-- Title: Ginan Pages: 1 -->
<svg width="204pt" height="142pt"
 viewBox="0.00 0.00 204.00 142.00" xmlns="http://www.w3.org/2000/svg" xmlns:xlink="http://www.w3.org/1999/xlink">
<g id="graph0" class="graph" transform="scale(1 1) rotate(0) translate(4 138)">
<title>Ginan</title>
<polygon fill="white" stroke="transparent" points="-4,4 -4,-138 200,-138 200,4 -4,4"/>
<!-- Node1 -->
<g id="node1" class="node">
<title>Node1</title>
<g id="a_node1"><a xlink:title="Ginan is a toolkit for processing GNSS measurements to produce precise positioning products.">
<polygon fill="#bfbfbf" stroke="black" points="0,-57.5 0,-76.5 45,-76.5 45,-57.5 0,-57.5"/>
<text text-anchor="middle" x="22.5" y="-64.5" font-family="Helvetica,sans-Serif" font-size="10.00">Ginan</text>
</a>
</g>
</g>
<!-- Node2 -->
<g id="node2" class="node">
<title>Node2</title>
<g id="a_node2"><a xlink:href="UseCases_8cpp.html#a6579a19d537a3786c0b5bd72cd85c8aa" target="_top" xlink:title="Iterative process to estimate many products and corrections for distribution to end&#45;users.">
<polygon fill="white" stroke="red" points="81,-114.5 81,-133.5 196,-133.5 196,-114.5 81,-114.5"/>
<text text-anchor="middle" x="138.5" y="-121.5" font-family="Helvetica,sans-Serif" font-size="10.00">Operational_Service</text>
</a>
</g>
</g>
<!-- Node1&#45;&gt;Node2 -->
<g id="edge1" class="edge">
<title>Node1&#45;&gt;Node2</title>
<path fill="none" stroke="midnightblue" d="M36.17,-76.77C47.45,-85.12 64.66,-97.02 81,-105 88.35,-108.59 96.54,-111.77 104.36,-114.46"/>
</g>
<!-- Node48 -->
<g id="node3" class="node">
<title>Node48</title>
<g id="a_node3"><a xlink:href="UseCases_8cpp.html#ad1bd88747ef507e49ba27e266594e67a" target="_top" xlink:title="Processing scheme that allows optimal processing of many parameters.">
<polygon fill="white" stroke="red" points="82,-76.5 82,-95.5 195,-95.5 195,-76.5 82,-76.5"/>
<text text-anchor="middle" x="138.5" y="-83.5" font-family="Helvetica,sans-Serif" font-size="10.00">Pea_Network_Mode</text>
</a>
</g>
</g>
<!-- Node1&#45;&gt;Node48 -->
<g id="edge2" class="edge">
<title>Node1&#45;&gt;Node48</title>
<path fill="none" stroke="midnightblue" d="M45.21,-70.62C55.68,-72.36 68.76,-74.54 81.75,-76.71"/>
</g>
<!-- Node51 -->
<g id="node4" class="node">
<title>Node51</title>
<g id="a_node4"><a xlink:href="UseCases_8cpp.html#a0dde87ec2017655a0fcf93670fba08fd" target="_top" xlink:title="End&#45;user processing scheme that provides precise results with intermediate receiver hardware and corr...">
<polygon fill="white" stroke="red" points="88,-38.5 88,-57.5 189,-57.5 189,-38.5 88,-38.5"/>
<text text-anchor="middle" x="138.5" y="-45.5" font-family="Helvetica,sans-Serif" font-size="10.00">Pea_IF_GPS_User</text>
</a>
</g>
</g>
<!-- Node1&#45;&gt;Node51 -->
<g id="edge3" class="edge">
<title>Node1&#45;&gt;Node51</title>
<path fill="none" stroke="midnightblue" d="M45.21,-63.38C57.36,-61.36 73.03,-58.75 87.99,-56.25"/>
</g>
<!-- Node53 -->
<g id="node5" class="node">
<title>Node53</title>
<g id="a_node5"><a xlink:href="UseCases_8cpp.html#a7e345d087ff3945346c5a17997a88d6c" target="_top" xlink:title="End&#45;user processing scheme that provides precise results with low&#45;cost receiver hardware and correcti...">
<polygon fill="white" stroke="red" points="86,-0.5 86,-19.5 191,-19.5 191,-0.5 86,-0.5"/>
<text text-anchor="middle" x="138.5" y="-7.5" font-family="Helvetica,sans-Serif" font-size="10.00">PEA_SF_GPS_User</text>
</a>
</g>
</g>
<!-- Node1&#45;&gt;Node53 -->
<g id="edge4" class="edge">
<title>Node1&#45;&gt;Node53</title>
<path fill="none" stroke="midnightblue" d="M36.17,-57.23C47.45,-48.88 64.66,-36.98 81,-29 88.35,-25.41 96.54,-22.23 104.36,-19.54"/>
</g>
</g>
</svg>
