<?xml version="1.0" encoding="UTF-8" standalone="no"?>
<!DOCTYPE svg PUBLIC "-//W3C//DTD SVG 1.1//EN"
 "http://www.w3.org/Graphics/SVG/1.1/DTD/svg11.dtd">
<!-- Generated by graphviz version 2.43.0 (0)
 -->
<!-- Title: updat_WLambg Pages: 1 -->
<svg width="338pt" height="85pt"
 viewBox="0.00 0.00 338.00 85.00" xmlns="http://www.w3.org/2000/svg" xmlns:xlink="http://www.w3.org/1999/xlink">
<g id="graph0" class="graph" transform="scale(1 1) rotate(0) translate(4 81)">
<title>updat_WLambg</title>
<polygon fill="white" stroke="transparent" points="-4,4 -4,-81 334,-81 334,4 -4,4"/>
<!-- Node1 -->
<g id="node1" class="node">
<title>Node1</title>
<g id="a_node1"><a xlink:title="Update WL ambiguities and save then to archive.">
<polygon fill="#bfbfbf" stroke="black" points="0,-38.5 0,-57.5 92,-57.5 92,-38.5 0,-38.5"/>
<text text-anchor="middle" x="46" y="-45.5" font-family="Helvetica,sans-Serif" font-size="10.00">updat_WLambg</text>
</a>
</g>
</g>
<!-- Node2 -->
<g id="node2" class="node">
<title>Node2</title>
<g id="a_node2"><a xlink:href="GinARWLamb_8cpp.html#aff0cccb14678a58071b729bac061e776" target="_top" xlink:title="save Resolved WL ambiguities">
<polygon fill="white" stroke="red" points="253,-57.5 253,-76.5 330,-76.5 330,-57.5 253,-57.5"/>
<text text-anchor="middle" x="291.5" y="-64.5" font-family="Helvetica,sans-Serif" font-size="10.00">WL_newsect</text>
</a>
</g>
</g>
<!-- Node1&#45;&gt;Node2 -->
<g id="edge1" class="edge">
<title>Node1&#45;&gt;Node2</title>
<path fill="none" stroke="midnightblue" d="M79.8,-57.51C94.42,-61.27 111.93,-65.14 128,-67 170.6,-71.93 219.9,-71 252.92,-69.44"/>
</g>
<!-- Node9 -->
<g id="node3" class="node">
<title>Node9</title>
<g id="a_node3"><a xlink:href="GinARWLamb_8cpp.html#ab95d4f2ff0f6e0d2b92d4d4d14f7f787" target="_top" xlink:title="Update WL filter.">
<polygon fill="white" stroke="red" points="133.5,-38.5 133.5,-57.5 211.5,-57.5 211.5,-38.5 133.5,-38.5"/>
<text text-anchor="middle" x="172.5" y="-45.5" font-family="Helvetica,sans-Serif" font-size="10.00">updat_WLfilt</text>
</a>
</g>
</g>
<!-- Node1&#45;&gt;Node9 -->
<g id="edge2" class="edge">
<title>Node1&#45;&gt;Node9</title>
<path fill="none" stroke="midnightblue" d="M92.3,-48C105.79,-48 120.43,-48 133.4,-48"/>
</g>
<!-- Node39 -->
<g id="node4" class="node">
<title>Node39</title>
<g id="a_node4"><a xlink:href="GinARWLamb_8cpp.html#a6cfe77e4642a57d54c9204244cd403a0" target="_top" xlink:title="Resolve wide&#45;lane ambiguities.">
<polygon fill="white" stroke="red" points="128,-0.5 128,-19.5 217,-19.5 217,-0.5 128,-0.5"/>
<text text-anchor="middle" x="172.5" y="-7.5" font-family="Helvetica,sans-Serif" font-size="10.00">reslv_WLambg</text>
</a>
</g>
</g>
<!-- Node1&#45;&gt;Node39 -->
<g id="edge4" class="edge">
<title>Node1&#45;&gt;Node39</title>
<path fill="none" stroke="midnightblue" d="M78.42,-38.41C97.29,-32.65 121.22,-25.35 140.09,-19.59"/>
</g>
<!-- Node9&#45;&gt;Node2 -->
<g id="edge3" class="edge">
<title>Node9&#45;&gt;Node2</title>
<path fill="none" stroke="midnightblue" d="M211.81,-54.22C225.01,-56.36 239.76,-58.76 252.9,-60.89"/>
</g>
</g>
</svg>
