<?xml version="1.0" encoding="UTF-8" standalone="no"?>
<!DOCTYPE svg PUBLIC "-//W3C//DTD SVG 1.1//EN"
 "http://www.w3.org/Graphics/SVG/1.1/DTD/svg11.dtd">
<!-- Generated by graphviz version 2.43.0 (0)
 -->
<!-- Title: Unlnk_amb Pages: 1 -->
<svg width="205pt" height="66pt"
 viewBox="0.00 0.00 205.00 66.00" xmlns="http://www.w3.org/2000/svg" xmlns:xlink="http://www.w3.org/1999/xlink">
<g id="graph0" class="graph" transform="scale(1 1) rotate(0) translate(4 62)">
<title>Unlnk_amb</title>
<polygon fill="white" stroke="transparent" points="-4,4 -4,-62 201,-62 201,4 -4,4"/>
<!-- Node1 -->
<g id="node1" class="node">
<title>Node1</title>
<g id="a_node1"><a xlink:title="Remove ambiguity from pivot tree.">
<polygon fill="#bfbfbf" stroke="black" points="125,-19.5 125,-38.5 197,-38.5 197,-19.5 125,-19.5"/>
<text text-anchor="middle" x="161" y="-26.5" font-family="Helvetica,sans-Serif" font-size="10.00">Unlnk_amb</text>
</a>
</g>
</g>
<!-- Node2 -->
<g id="node2" class="node">
<title>Node2</title>
<g id="a_node2"><a xlink:href="GinARpivot_8cpp.html#a82123e7131dcf632ddf6dc4baf239255" target="_top" xlink:title="Update User Pivot.">
<polygon fill="white" stroke="red" points="0,-38.5 0,-57.5 89,-57.5 89,-38.5 0,-38.5"/>
<text text-anchor="middle" x="44.5" y="-45.5" font-family="Helvetica,sans-Serif" font-size="10.00">updt_usr_pivot</text>
</a>
</g>
</g>
<!-- Node1&#45;&gt;Node2 -->
<g id="edge1" class="edge">
<title>Node1&#45;&gt;Node2</title>
<path fill="none" stroke="midnightblue" d="M124.71,-34.86C113.54,-36.71 101.06,-38.78 89.36,-40.72"/>
</g>
<!-- Node4 -->
<g id="node3" class="node">
<title>Node4</title>
<g id="a_node3"><a xlink:href="GinARpivot_8cpp.html#a00fa2ae3af0a9c725884d6b32254ace2" target="_top" xlink:title="Update network pivot.">
<polygon fill="white" stroke="red" points="0,-0.5 0,-19.5 89,-19.5 89,-0.5 0,-0.5"/>
<text text-anchor="middle" x="44.5" y="-7.5" font-family="Helvetica,sans-Serif" font-size="10.00">updt_net_pivot</text>
</a>
</g>
</g>
<!-- Node1&#45;&gt;Node4 -->
<g id="edge2" class="edge">
<title>Node1&#45;&gt;Node4</title>
<path fill="none" stroke="midnightblue" d="M124.71,-23.14C113.54,-21.29 101.06,-19.22 89.36,-17.28"/>
</g>
</g>
</svg>
