<?xml version="1.0" encoding="UTF-8" standalone="no"?>
<!DOCTYPE svg PUBLIC "-//W3C//DTD SVG 1.1//EN"
 "http://www.w3.org/Graphics/SVG/1.1/DTD/svg11.dtd">
<!-- Generated by graphviz version 2.43.0 (0)
 -->
<!-- Title: networkAmbigResl Pages: 1 -->
<!--zoomable 513 -->
<svg id="main" version="1.1" xmlns="http://www.w3.org/2000/svg" xmlns:xlink="http://www.w3.org/1999/xlink" xml:space="preserve" onload="init(evt)">
<style type="text/css"><![CDATA[
.edge:hover path { stroke: red; }
.edge:hover polygon { stroke: red; fill: red; }
]]></style>
<script type="text/javascript"><![CDATA[
var edges = document.getElementsByTagName('g');
if (edges && edges.length) {
  for (var i=0;i<edges.length;i++) {
    if (edges[i].id.substr(0,4)=='edge') {
      edges[i].setAttribute('class','edge');
    }
  }
}
]]></script>
        <defs>
                <circle id="rim" cx="0" cy="0" r="7"/>
                <circle id="rim2" cx="0" cy="0" r="3.5"/>
                <g id="zoomPlus">
                        <use xlink:href="#rim" fill="#404040">
                                <set attributeName="fill" to="#808080" begin="zoomplus.mouseover" end="zoomplus.mouseout"/>
                        </use>
                        <path d="M-4,0h8M0,-4v8" fill="none" stroke="white" stroke-width="1.5" pointer-events="none"/>
                </g>
                <g id="zoomMin">
                        <use xlink:href="#rim" fill="#404040">
                                <set attributeName="fill" to="#808080" begin="zoomminus.mouseover" end="zoomminus.mouseout"/>
                        </use>
                        <path d="M-4,0h8" fill="none" stroke="white" stroke-width="1.5" pointer-events="none"/>
                </g>
                <g id="dirArrow">
                        <path fill="none" stroke="white" stroke-width="1.5" d="M0,-3.0v7 M-2.5,-0.5L0,-3.0L2.5,-0.5"/>
                </g>
               <g id="resetDef">
                       <use xlink:href="#rim2" fill="#404040">
                               <set attributeName="fill" to="#808080" begin="reset.mouseover" end="reset.mouseout"/>
                       </use>
               </g>
        </defs>

<script type="text/javascript">
var viewWidth = 416;
var viewHeight = 513;
var sectionId = 'dynsection-12';
</script>
<script xlink:href="svgpan.js"/>
<svg id="graph" class="graph">
<g id="viewport">
<title>networkAmbigResl</title>
<polygon fill="white" stroke="transparent" points="-4,4 -4,-508.96 412,-508.96 412,4 -4,4"/>
<!-- Node1 -->
<g id="node1" class="node">
<title>Node1</title>
<g id="a_node1"><a xlink:title="Ambiguity resolution for network solutions.">
<polygon fill="#bfbfbf" stroke="black" points="0,-247.5 0,-266.5 109,-266.5 109,-247.5 0,-247.5"/>
<text text-anchor="middle" x="54.5" y="-254.5" font-family="Helvetica,sans-Serif" font-size="10.00">networkAmbigResl</text>
</a>
</g>
</g>
<!-- Node2 -->
<g id="node2" class="node">
<title>Node2</title>
<g id="a_node2"><a xlink:href="streamTrace_8cpp.html#ae00e6addd3bdf3a7fd41a254eb9aec89" target="_top" xlink:title=" ">
<polygon fill="white" stroke="black" points="324,-209.5 324,-228.5 395,-228.5 395,-209.5 324,-209.5"/>
<text text-anchor="middle" x="359.5" y="-216.5" font-family="Helvetica,sans-Serif" font-size="10.00">tracepdeex</text>
</a>
</g>
</g>
<!-- Node1&#45;&gt;Node2 -->
<g id="edge1" class="edge">
<title>Node1&#45;&gt;Node2</title>
<path fill="none" stroke="midnightblue" d="M55.85,-266.91C57.73,-303.17 69.66,-429.06 145,-480 192.86,-512.36 228.33,-514.07 275,-480 360.11,-417.87 360.45,-267.86 359,-228.56"/>
</g>
<!-- Node3 -->
<g id="node3" class="node">
<title>Node3</title>
<g id="a_node3"><a xlink:href="structGTime.html#a64394968bbfdecbbeec4ba5134fdb682" target="_top" xlink:title=" ">
<polygon fill="white" stroke="red" points="311,-171.5 311,-190.5 408,-190.5 408,-171.5 311,-171.5"/>
<text text-anchor="middle" x="359.5" y="-178.5" font-family="Helvetica,sans-Serif" font-size="10.00">GTime::to_string</text>
</a>
</g>
</g>
<!-- Node1&#45;&gt;Node3 -->
<g id="edge2" class="edge">
<title>Node1&#45;&gt;Node3</title>
<path fill="none" stroke="midnightblue" d="M56.56,-266.83C60.67,-299.54 78.8,-405.01 145,-447 193.79,-477.95 231.3,-484.79 275,-447 358.91,-374.43 242.33,-287.13 311,-200 314.08,-196.09 318.08,-192.99 322.46,-190.52"/>
</g>
<!-- Node6 -->
<g id="node4" class="node">
<title>Node6</title>
<g id="a_node4"><a xlink:href="GinAR__main_8cpp.html#abfd3ee0f4426056acecc54f389deb7eb" target="_top" xlink:title="Eliminated ambiguity measurements older than (current time &#45; max hold epocs) for the specified receiv...">
<polygon fill="white" stroke="black" points="165,-418.5 165,-437.5 255,-437.5 255,-418.5 165,-418.5"/>
<text text-anchor="middle" x="210" y="-425.5" font-family="Helvetica,sans-Serif" font-size="10.00">clean_obsolete</text>
</a>
</g>
</g>
<!-- Node1&#45;&gt;Node6 -->
<g id="edge3" class="edge">
<title>Node1&#45;&gt;Node6</title>
<path fill="none" stroke="midnightblue" d="M58.34,-266.5C66.83,-293.21 94.58,-369.58 145,-409 150.84,-413.57 157.77,-417.04 164.86,-419.68"/>
</g>
<!-- Node7 -->
<g id="node5" class="node">
<title>Node7</title>
<g id="a_node5"><a xlink:href="structACSConfig.html#a7ddfbaf20a1c9181d73d0dabe92beace" target="_top" xlink:title="Set receiver options for a specific receiver using a hierarchy of sources.">
<polygon fill="white" stroke="red" points="145,-380.5 145,-399.5 275,-399.5 275,-380.5 145,-380.5"/>
<text text-anchor="middle" x="210" y="-387.5" font-family="Helvetica,sans-Serif" font-size="10.00">ACSConfig::getRecOpts</text>
</a>
</g>
</g>
<!-- Node1&#45;&gt;Node7 -->
<g id="edge4" class="edge">
<title>Node1&#45;&gt;Node7</title>
<path fill="none" stroke="midnightblue" d="M60.33,-266.59C71.85,-288.51 103.17,-342.57 145,-371 150.66,-374.84 157.1,-377.92 163.68,-380.39"/>
</g>
<!-- Node15 -->
<g id="node6" class="node">
<title>Node15</title>
<g id="a_node6"><a xlink:href="GinAR__main_8cpp.html#a66a725f08fab953bf5032ef5093949e6" target="_top" xlink:title="Loading float ambiguity data from Observations (WL, cycle slip &amp; elevation)">
<polygon fill="white" stroke="red" points="168.5,-342.5 168.5,-361.5 251.5,-361.5 251.5,-342.5 168.5,-342.5"/>
<text text-anchor="middle" x="210" y="-349.5" font-family="Helvetica,sans-Serif" font-size="10.00">LoadFromObs</text>
</a>
</g>
</g>
<!-- Node1&#45;&gt;Node15 -->
<g id="edge5" class="edge">
<title>Node1&#45;&gt;Node15</title>
<path fill="none" stroke="midnightblue" d="M64.2,-266.63C79.17,-282.66 111.48,-314.85 145,-333 152.24,-336.92 160.38,-340.12 168.38,-342.71"/>
</g>
<!-- Node38 -->
<g id="node7" class="node">
<title>Node38</title>
<g id="a_node7"><a xlink:href="GinARpivot_8cpp.html#a00fa2ae3af0a9c725884d6b32254ace2" target="_top" xlink:title="Update network pivot.">
<polygon fill="white" stroke="red" points="165.5,-304.5 165.5,-323.5 254.5,-323.5 254.5,-304.5 165.5,-304.5"/>
<text text-anchor="middle" x="210" y="-311.5" font-family="Helvetica,sans-Serif" font-size="10.00">updt_net_pivot</text>
</a>
</g>
</g>
<!-- Node1&#45;&gt;Node38 -->
<g id="edge8" class="edge">
<title>Node1&#45;&gt;Node38</title>
<path fill="none" stroke="midnightblue" d="M76.21,-266.58C94.18,-274.71 121.01,-286.38 145,-295 154.38,-298.37 164.68,-301.62 174.22,-304.45"/>
</g>
<!-- Node53 -->
<g id="node8" class="node">
<title>Node53</title>
<g id="a_node8"><a xlink:href="GinARWLamb_8cpp.html#a12713865301eea1dac84952dd9fd1149" target="_top" xlink:title="Update WL ambiguities and save then to archive.">
<polygon fill="white" stroke="red" points="164,-266.5 164,-285.5 256,-285.5 256,-266.5 164,-266.5"/>
<text text-anchor="middle" x="210" y="-273.5" font-family="Helvetica,sans-Serif" font-size="10.00">updat_WLambg</text>
</a>
</g>
</g>
<!-- Node1&#45;&gt;Node53 -->
<g id="edge10" class="edge">
<title>Node1&#45;&gt;Node53</title>
<path fill="none" stroke="midnightblue" d="M109.19,-263.65C127,-265.85 146.63,-268.28 163.74,-270.4"/>
</g>
<!-- Node96 -->
<g id="node9" class="node">
<title>Node96</title>
<g id="a_node9"><a xlink:href="GinARoutpt_8cpp.html#a15eeefdc06bd3997b9c8dd4bbc9c4088" target="_top" xlink:title="Output ambiguity measurments/states.">
<polygon fill="white" stroke="red" points="182.5,-228.5 182.5,-247.5 237.5,-247.5 237.5,-228.5 182.5,-228.5"/>
<text text-anchor="middle" x="210" y="-235.5" font-family="Helvetica,sans-Serif" font-size="10.00">artrcout</text>
</a>
</g>
</g>
<!-- Node1&#45;&gt;Node96 -->
<g id="edge11" class="edge">
<title>Node1&#45;&gt;Node96</title>
<path fill="none" stroke="midnightblue" d="M109.19,-250.35C133.91,-247.29 162.16,-243.8 182.28,-241.31"/>
</g>
<!-- Node102 -->
<g id="node10" class="node">
<title>Node102</title>
<g id="a_node10"><a xlink:href="GinAR__main_8cpp.html#a48fa415df652066004129736fa989e44" target="_top" xlink:title="Loading float ambiguity data from KF.">
<polygon fill="white" stroke="red" points="171.5,-190.5 171.5,-209.5 248.5,-209.5 248.5,-190.5 171.5,-190.5"/>
<text text-anchor="middle" x="210" y="-197.5" font-family="Helvetica,sans-Serif" font-size="10.00">LoadFromFlt</text>
</a>
</g>
</g>
<!-- Node1&#45;&gt;Node102 -->
<g id="edge13" class="edge">
<title>Node1&#45;&gt;Node102</title>
<path fill="none" stroke="midnightblue" d="M76.21,-247.42C94.18,-239.29 121.01,-227.62 145,-219 154.38,-215.63 164.68,-212.38 174.22,-209.55"/>
</g>
<!-- Node105 -->
<g id="node11" class="node">
<title>Node105</title>
<g id="a_node11"><a xlink:href="GinARNLamb_8cpp.html#a150b7e4a892320cadb8bfd4c813a1aca" target="_top" xlink:title="Update float ambiguity estimates.">
<polygon fill="white" stroke="red" points="168,-152.5 168,-171.5 252,-171.5 252,-152.5 168,-152.5"/>
<text text-anchor="middle" x="210" y="-159.5" font-family="Helvetica,sans-Serif" font-size="10.00">updat_ambigt</text>
</a>
</g>
</g>
<!-- Node1&#45;&gt;Node105 -->
<g id="edge16" class="edge">
<title>Node1&#45;&gt;Node105</title>
<path fill="none" stroke="midnightblue" d="M64.2,-247.37C79.17,-231.34 111.48,-199.15 145,-181 152.03,-177.19 159.92,-174.06 167.7,-171.51"/>
</g>
<!-- Node110 -->
<g id="node12" class="node">
<title>Node110</title>
<g id="a_node12"><a xlink:href="GinARNLamb_8cpp.html#ad93bb9c322526f57beacb5aeb5c4e66a" target="_top" xlink:title="Apply archived Z&#45;ambiguities to float solution.">
<polygon fill="white" stroke="red" points="168.5,-114.5 168.5,-133.5 251.5,-133.5 251.5,-114.5 168.5,-114.5"/>
<text text-anchor="middle" x="210" y="-121.5" font-family="Helvetica,sans-Serif" font-size="10.00">apply_ambigt</text>
</a>
</g>
</g>
<!-- Node1&#45;&gt;Node110 -->
<g id="edge19" class="edge">
<title>Node1&#45;&gt;Node110</title>
<path fill="none" stroke="midnightblue" d="M60.33,-247.41C71.85,-225.49 103.17,-171.43 145,-143 152,-138.24 160.21,-134.66 168.37,-131.96"/>
</g>
<!-- Node111 -->
<g id="node13" class="node">
<title>Node111</title>
<g id="a_node13"><a xlink:href="GinARoutpt_8cpp.html#a2952ccee33c3cebafed9b014755ce986" target="_top" xlink:title="Output phase biases.">
<polygon fill="white" stroke="red" points="181.5,-76.5 181.5,-95.5 238.5,-95.5 238.5,-76.5 181.5,-76.5"/>
<text text-anchor="middle" x="210" y="-83.5" font-family="Helvetica,sans-Serif" font-size="10.00">arbiaout</text>
</a>
</g>
</g>
<!-- Node1&#45;&gt;Node111 -->
<g id="edge21" class="edge">
<title>Node1&#45;&gt;Node111</title>
<path fill="none" stroke="midnightblue" d="M58.34,-247.5C66.83,-220.79 94.58,-144.42 145,-105 155.41,-96.86 169.24,-92.2 181.38,-89.54"/>
</g>
<!-- Node116 -->
<g id="node14" class="node">
<title>Node116</title>
<g id="a_node14"><a xlink:href="GinARoutpt_8cpp.html#ac899b04de8df209c6b867571e95b26eb" target="_top" xlink:title="Export AR Ionosphere measurments.">
<polygon fill="white" stroke="red" points="181.5,-38.5 181.5,-57.5 238.5,-57.5 238.5,-38.5 181.5,-38.5"/>
<text text-anchor="middle" x="210" y="-45.5" font-family="Helvetica,sans-Serif" font-size="10.00">arionout</text>
</a>
</g>
</g>
<!-- Node1&#45;&gt;Node116 -->
<g id="edge23" class="edge">
<title>Node1&#45;&gt;Node116</title>
<path fill="none" stroke="midnightblue" d="M57.16,-247.44C63.03,-216.45 85.8,-117.84 145,-67 155.11,-58.32 169.05,-53.6 181.34,-51.04"/>
</g>
<!-- Node79 -->
<g id="node15" class="node">
<title>Node79</title>
<g id="a_node15"><a xlink:href="structKFState.html#a0c84e911a5ea760fe728baec661e33f0" target="_top" xlink:title="Output keys and states in human readable format.">
<polygon fill="white" stroke="black" points="148.5,-0.5 148.5,-19.5 271.5,-19.5 271.5,-0.5 148.5,-0.5"/>
<text text-anchor="middle" x="210" y="-7.5" font-family="Helvetica,sans-Serif" font-size="10.00">KFState::outputStates</text>
</a>
</g>
</g>
<!-- Node1&#45;&gt;Node79 -->
<g id="edge24" class="edge">
<title>Node1&#45;&gt;Node79</title>
<path fill="none" stroke="midnightblue" d="M56.37,-247.08C59.98,-211.84 77.02,-91.4 145,-29 149.18,-25.16 154.11,-22.09 159.34,-19.64"/>
</g>
<!-- Node15&#45;&gt;Node2 -->
<g id="edge6" class="edge">
<title>Node15&#45;&gt;Node2</title>
<path fill="none" stroke="midnightblue" d="M251.75,-344.22C259.91,-341.51 268.08,-337.87 275,-333 315.32,-304.61 343.8,-250.52 354.18,-228.59"/>
</g>
<!-- Node15&#45;&gt;Node3 -->
<g id="edge7" class="edge">
<title>Node15&#45;&gt;Node3</title>
<path fill="none" stroke="midnightblue" d="M251.64,-346.6C260.28,-343.76 268.69,-339.47 275,-333 317.77,-289.18 270.28,-245.74 311,-200 314.43,-196.15 318.74,-193.07 323.36,-190.61"/>
</g>
<!-- Node38&#45;&gt;Node2 -->
<g id="edge9" class="edge">
<title>Node38&#45;&gt;Node2</title>
<path fill="none" stroke="midnightblue" d="M253.08,-304.46C260.63,-301.93 268.24,-298.81 275,-295 306.93,-276.99 336.77,-244.74 350.53,-228.66"/>
</g>
<!-- Node96&#45;&gt;Node2 -->
<g id="edge12" class="edge">
<title>Node96&#45;&gt;Node2</title>
<path fill="none" stroke="midnightblue" d="M237.71,-234.56C261.87,-231.45 297.59,-226.85 323.92,-223.45"/>
</g>
<!-- Node102&#45;&gt;Node2 -->
<g id="edge14" class="edge">
<title>Node102&#45;&gt;Node2</title>
<path fill="none" stroke="midnightblue" d="M248.6,-204.84C271.82,-207.83 301.38,-211.64 324,-214.56"/>
</g>
<!-- Node102&#45;&gt;Node3 -->
<g id="edge15" class="edge">
<title>Node102&#45;&gt;Node3</title>
<path fill="none" stroke="midnightblue" d="M248.6,-195.16C267.55,-192.72 290.73,-189.73 310.91,-187.13"/>
</g>
<!-- Node105&#45;&gt;Node2 -->
<g id="edge17" class="edge">
<title>Node105&#45;&gt;Node2</title>
<path fill="none" stroke="midnightblue" d="M247.65,-171.53C256.71,-174.25 266.31,-177.46 275,-181 291.75,-187.83 294.58,-192.41 311,-200 318.09,-203.28 325.92,-206.55 333.15,-209.43"/>
</g>
<!-- Node105&#45;&gt;Node3 -->
<g id="edge18" class="edge">
<title>Node105&#45;&gt;Node3</title>
<path fill="none" stroke="midnightblue" d="M252.09,-167.29C270.33,-169.64 291.91,-172.42 310.86,-174.86"/>
</g>
<!-- Node110&#45;&gt;Node2 -->
<g id="edge20" class="edge">
<title>Node110&#45;&gt;Node2</title>
<path fill="none" stroke="midnightblue" d="M251.68,-131.3C259.93,-134.05 268.16,-137.82 275,-143 298.89,-161.09 287.97,-180.84 311,-200 315.51,-203.75 320.85,-206.83 326.29,-209.33"/>
</g>
<!-- Node111&#45;&gt;Node2 -->
<g id="edge22" class="edge">
<title>Node111&#45;&gt;Node2</title>
<path fill="none" stroke="midnightblue" d="M238.65,-88.62C251.09,-91.09 265.15,-95.85 275,-105 308.08,-135.73 279.37,-167.78 311,-200 314.73,-203.8 319.33,-206.87 324.17,-209.33"/>
</g>
<!-- Node79&#45;&gt;Node2 -->
<g id="edge25" class="edge">
<title>Node79&#45;&gt;Node2</title>
<path fill="none" stroke="midnightblue" d="M262.56,-19.63C267.19,-22.09 271.46,-25.17 275,-29 327.65,-86.1 261.03,-140.54 311,-200 314.43,-204.08 318.86,-207.29 323.63,-209.82"/>
</g>
<!-- Node79&#45;&gt;Node3 -->
<g id="edge26" class="edge">
<title>Node79&#45;&gt;Node3</title>
<path fill="none" stroke="midnightblue" d="M258.89,-19.62C264.67,-22.07 270.22,-25.14 275,-29 323.75,-68.31 348.41,-144.08 355.94,-171.12"/>
</g>
</g>
</svg>
        <g id="navigator" transform="translate(0 0)" fill="#404254">
                <rect fill="#f2f5e9" fill-opacity="0.5" stroke="#606060" stroke-width=".5" x="0" y="0" width="60" height="60"/>
                <use id="zoomplus" xlink:href="#zoomPlus" x="17" y="9" onmousedown="handleZoom(evt,'in')"/>
                <use id="zoomminus" xlink:href="#zoomMin" x="42" y="9" onmousedown="handleZoom(evt,'out')"/>
                <use id="reset" xlink:href="#resetDef" x="30" y="36" onmousedown="handleReset()"/>
                <g id="arrowUp" xlink:href="#dirArrow" transform="translate(30 24)" onmousedown="handlePan(0,-1)">
                  <use xlink:href="#rim" fill="#404040">
                        <set attributeName="fill" to="#808080" begin="arrowUp.mouseover" end="arrowUp.mouseout"/>
                  </use>
                  <path fill="none" stroke="white" stroke-width="1.5" d="M0,-3.0v7 M-2.5,-0.5L0,-3.0L2.5,-0.5"/>
                </g>
                <g id="arrowRight" xlink:href="#dirArrow" transform="rotate(90) translate(36 -43)" onmousedown="handlePan(1,0)">
                  <use xlink:href="#rim" fill="#404040">
                        <set attributeName="fill" to="#808080" begin="arrowRight.mouseover" end="arrowRight.mouseout"/>
                  </use>
                  <path fill="none" stroke="white" stroke-width="1.5" d="M0,-3.0v7 M-2.5,-0.5L0,-3.0L2.5,-0.5"/>
                </g>
                <g id="arrowDown" xlink:href="#dirArrow" transform="rotate(180) translate(-30 -48)" onmousedown="handlePan(0,1)">
                  <use xlink:href="#rim" fill="#404040">
                        <set attributeName="fill" to="#808080" begin="arrowDown.mouseover" end="arrowDown.mouseout"/>
                  </use>
                  <path fill="none" stroke="white" stroke-width="1.5" d="M0,-3.0v7 M-2.5,-0.5L0,-3.0L2.5,-0.5"/>
                </g>
                <g id="arrowLeft" xlink:href="#dirArrow" transform="rotate(270) translate(-36 17)" onmousedown="handlePan(-1,0)">
                  <use xlink:href="#rim" fill="#404040">
                        <set attributeName="fill" to="#808080" begin="arrowLeft.mouseover" end="arrowLeft.mouseout"/>
                  </use>
                  <path fill="none" stroke="white" stroke-width="1.5" d="M0,-3.0v7 M-2.5,-0.5L0,-3.0L2.5,-0.5"/>
                </g>
        </g>
        <svg viewBox="0 0 15 15" width="100%" height="30px" preserveAspectRatio="xMaxYMin meet">
         <g id="arrow_out" transform="scale(0.3 0.3)">
          <a xlink:href="GinAR__main_8cpp_a5d80c7f56e03c96dc400839ceca50698_cgraph_org.svg" target="_base">
           <rect id="button" ry="5" rx="5" y="6" x="6" height="38" width="38"
                fill="#f2f5e9" fill-opacity="0.5" stroke="#606060" stroke-width="1.0"/>
           <path id="arrow"
             d="M 11.500037,31.436501 C 11.940474,20.09759 22.043105,11.32322 32.158766,21.979434 L 37.068811,17.246167 C 37.068811,17.246167 37.088388,32 37.088388,32 L 22.160133,31.978069 C 22.160133,31.978069 26.997745,27.140456 26.997745,27.140456 C 18.528582,18.264221 13.291696,25.230495 11.500037,31.436501 z"
             style="fill:#404040;"/>
          </a>
         </g>
        </svg>
</svg>
