<?xml version="1.0" encoding="UTF-8" standalone="no"?>
<!DOCTYPE svg PUBLIC "-//W3C//DTD SVG 1.1//EN"
 "http://www.w3.org/Graphics/SVG/1.1/DTD/svg11.dtd">
<!-- Generated by graphviz version 2.43.0 (0)
 -->
<!-- Title: init_net_pivot Pages: 1 -->
<svg width="547pt" height="369pt"
 viewBox="0.00 0.00 547.00 368.81" xmlns="http://www.w3.org/2000/svg" xmlns:xlink="http://www.w3.org/1999/xlink">
<g id="graph0" class="graph" transform="scale(1 1) rotate(0) translate(4 364.81)">
<title>init_net_pivot</title>
<polygon fill="white" stroke="transparent" points="-4,4 -4,-364.81 543,-364.81 543,4 -4,4"/>
<!-- Node1 -->
<g id="node1" class="node">
<title>Node1</title>
<g id="a_node1"><a xlink:title="Initialize Network pivot.">
<polygon fill="#bfbfbf" stroke="black" points="0,-189.31 0,-208.31 83,-208.31 83,-189.31 0,-189.31"/>
<text text-anchor="middle" x="41.5" y="-196.31" font-family="Helvetica,sans-Serif" font-size="10.00">init_net_pivot</text>
</a>
</g>
</g>
<!-- Node2 -->
<g id="node2" class="node">
<title>Node2</title>
<g id="a_node2"><a xlink:href="GinARWLamb_8cpp.html#a847f714757d3b9ed6d45bae0778972b0" target="_top" xlink:title="Remove ambiguities and biases for systems, end user.">
<polygon fill="white" stroke="black" points="119,-341.31 119,-360.31 194,-360.31 194,-341.31 119,-341.31"/>
<text text-anchor="middle" x="156.5" y="-348.31" font-family="Helvetica,sans-Serif" font-size="10.00">reset_WLfilt</text>
</a>
</g>
</g>
<!-- Node1&#45;&gt;Node2 -->
<g id="edge1" class="edge">
<title>Node1&#45;&gt;Node2</title>
<path fill="none" stroke="midnightblue" d="M46.45,-208.45C56.11,-231.18 82.82,-289.04 119,-326.81 124.35,-332.39 131.23,-337.34 137.58,-341.26"/>
</g>
<!-- Node5 -->
<g id="node4" class="node">
<title>Node5</title>
<g id="a_node4"><a xlink:href="streamTrace_8cpp.html#ae00e6addd3bdf3a7fd41a254eb9aec89" target="_top" xlink:title=" ">
<polygon fill="white" stroke="black" points="468,-170.31 468,-189.31 539,-189.31 539,-170.31 468,-170.31"/>
<text text-anchor="middle" x="503.5" y="-177.31" font-family="Helvetica,sans-Serif" font-size="10.00">tracepdeex</text>
</a>
</g>
</g>
<!-- Node1&#45;&gt;Node5 -->
<g id="edge5" class="edge">
<title>Node1&#45;&gt;Node5</title>
<path fill="none" stroke="midnightblue" d="M68.91,-208.45C133.12,-230.36 301.67,-278.63 432,-233.81 457.66,-224.98 481.36,-202.77 493.67,-189.75"/>
</g>
<!-- Node12 -->
<g id="node6" class="node">
<title>Node12</title>
<g id="a_node6"><a xlink:href="GinARpivot_8cpp.html#aa6bd501576fa27cf1dc55b457809b0e4" target="_top" xlink:title="Add ambiguity to pivot tree.">
<polygon fill="white" stroke="black" points="242.5,-37.31 242.5,-56.31 306.5,-56.31 306.5,-37.31 242.5,-37.31"/>
<text text-anchor="middle" x="274.5" y="-44.31" font-family="Helvetica,sans-Serif" font-size="10.00">Link_amb</text>
</a>
</g>
</g>
<!-- Node1&#45;&gt;Node12 -->
<g id="edge6" class="edge">
<title>Node1&#45;&gt;Node12</title>
<path fill="none" stroke="midnightblue" d="M83.2,-204.83C116.69,-207.41 163.46,-205.26 194,-179.81 234.81,-145.79 194.47,-105.31 230,-65.81 233.42,-62.01 237.73,-58.93 242.3,-56.46"/>
</g>
<!-- Node13 -->
<g id="node7" class="node">
<title>Node13</title>
<g id="a_node7"><a xlink:href="GinARpivot_8cpp.html#a50a6ec448f33d1f09d19f2fb10e02299" target="_top" xlink:title="Reset receiver on network pivot.">
<polygon fill="white" stroke="black" points="124,-151.31 124,-170.31 189,-170.31 189,-151.31 124,-151.31"/>
<text text-anchor="middle" x="156.5" y="-158.31" font-family="Helvetica,sans-Serif" font-size="10.00">Reset_rec</text>
</a>
</g>
</g>
<!-- Node1&#45;&gt;Node13 -->
<g id="edge7" class="edge">
<title>Node1&#45;&gt;Node13</title>
<path fill="none" stroke="midnightblue" d="M71.01,-189.22C88.14,-183.46 109.87,-176.15 126.99,-170.39"/>
</g>
<!-- Node16 -->
<g id="node9" class="node">
<title>Node16</title>
<g id="a_node9"><a xlink:href="GinARpivot_8cpp.html#a21c1788df5b3f78e43a230b1b1fc3a07" target="_top" xlink:title="Reset satellite on network pivot.">
<polygon fill="white" stroke="black" points="124,-113.31 124,-132.31 189,-132.31 189,-113.31 124,-113.31"/>
<text text-anchor="middle" x="156.5" y="-120.31" font-family="Helvetica,sans-Serif" font-size="10.00">Reset_sat</text>
</a>
</g>
</g>
<!-- Node1&#45;&gt;Node16 -->
<g id="edge14" class="edge">
<title>Node1&#45;&gt;Node16</title>
<path fill="none" stroke="midnightblue" d="M54.27,-189.1C68.93,-177.23 95.01,-156.85 119,-141.81 124.2,-138.54 130.03,-135.33 135.48,-132.5"/>
</g>
<!-- Node3 -->
<g id="node3" class="node">
<title>Node3</title>
<g id="a_node3"><a xlink:href="GinARWLamb_8cpp.html#aff0cccb14678a58071b729bac061e776" target="_top" xlink:title="save Resolved WL ambiguities">
<polygon fill="white" stroke="red" points="355,-75.31 355,-94.31 432,-94.31 432,-75.31 355,-75.31"/>
<text text-anchor="middle" x="393.5" y="-82.31" font-family="Helvetica,sans-Serif" font-size="10.00">WL_newsect</text>
</a>
</g>
</g>
<!-- Node2&#45;&gt;Node3 -->
<g id="edge2" class="edge">
<title>Node2&#45;&gt;Node3</title>
<path fill="none" stroke="midnightblue" d="M167.32,-341.1C193.06,-315.5 264.32,-243.73 319,-179.81 344.76,-149.7 372.77,-111.95 385.5,-94.49"/>
</g>
<!-- Node3&#45;&gt;Node5 -->
<g id="edge3" class="edge">
<title>Node3&#45;&gt;Node5</title>
<path fill="none" stroke="midnightblue" d="M411.1,-94.34C417.82,-98.47 425.5,-103.56 432,-108.81 456.33,-128.45 481.3,-155.57 493.98,-169.94"/>
</g>
<!-- Node6 -->
<g id="node5" class="node">
<title>Node6</title>
<g id="a_node5"><a xlink:href="structSatSys.html#aec6d07b90d1e8172b8b6a6966abef4fd" target="_top" xlink:title="Returns a std::string of this satellite&#39;s id.">
<polygon fill="white" stroke="red" points="471,-37.31 471,-56.31 536,-56.31 536,-37.31 471,-37.31"/>
<text text-anchor="middle" x="503.5" y="-44.31" font-family="Helvetica,sans-Serif" font-size="10.00">SatSys::id</text>
</a>
</g>
</g>
<!-- Node3&#45;&gt;Node6 -->
<g id="edge4" class="edge">
<title>Node3&#45;&gt;Node6</title>
<path fill="none" stroke="midnightblue" d="M421.75,-75.22C438.12,-69.46 458.89,-62.15 475.26,-56.39"/>
</g>
<!-- Node13&#45;&gt;Node5 -->
<g id="edge8" class="edge">
<title>Node13&#45;&gt;Node5</title>
<path fill="none" stroke="midnightblue" d="M166.71,-170.42C179.51,-183.01 204.05,-204.46 230,-212.81 315.47,-240.29 344.36,-232.3 432,-212.81 452.18,-208.32 473.42,-197.41 487.25,-189.35"/>
</g>
<!-- Node13&#45;&gt;Node6 -->
<g id="edge13" class="edge">
<title>Node13&#45;&gt;Node6</title>
<path fill="none" stroke="midnightblue" d="M182.59,-151.14C186.84,-148.61 190.88,-145.53 194,-141.81 228.16,-101.11 187.14,-59.21 230,-27.81 307.46,28.96 432.88,-15.97 481.92,-37.23"/>
</g>
<!-- Node13&#45;&gt;Node12 -->
<g id="edge12" class="edge">
<title>Node13&#45;&gt;Node12</title>
<path fill="none" stroke="midnightblue" d="M181.43,-151.21C185.98,-148.63 190.43,-145.51 194,-141.81 219.93,-114.89 203.17,-91.83 230,-65.81 233.9,-62.02 238.69,-58.92 243.64,-56.41"/>
</g>
<!-- Node14 -->
<g id="node8" class="node">
<title>Node14</title>
<g id="a_node8"><a xlink:href="GinARWLamb_8cpp.html#a9b4b3f98983e846523263881d690dfaf" target="_top" xlink:title="Remove ambiguities and biases for receivers, network.">
<polygon fill="white" stroke="red" points="230,-151.31 230,-170.31 319,-170.31 319,-151.31 230,-151.31"/>
<text text-anchor="middle" x="274.5" y="-158.31" font-family="Helvetica,sans-Serif" font-size="10.00">remov_WLrecv</text>
</a>
</g>
</g>
<!-- Node13&#45;&gt;Node14 -->
<g id="edge9" class="edge">
<title>Node13&#45;&gt;Node14</title>
<path fill="none" stroke="midnightblue" d="M189.2,-160.81C201.67,-160.81 216.21,-160.81 229.67,-160.81"/>
</g>
<!-- Node14&#45;&gt;Node3 -->
<g id="edge11" class="edge">
<title>Node14&#45;&gt;Node3</title>
<path fill="none" stroke="midnightblue" d="M293.96,-151.21C301.8,-146.99 310.96,-141.85 319,-136.81 340.98,-123.02 365.36,-105.25 379.79,-94.46"/>
</g>
<!-- Node14&#45;&gt;Node5 -->
<g id="edge10" class="edge">
<title>Node14&#45;&gt;Node5</title>
<path fill="none" stroke="midnightblue" d="M319.27,-164.47C362.56,-168.09 427.94,-173.57 467.78,-176.9"/>
</g>
<!-- Node16&#45;&gt;Node5 -->
<g id="edge15" class="edge">
<title>Node16&#45;&gt;Node5</title>
<path fill="none" stroke="midnightblue" d="M178.68,-132.32C183.9,-135.06 189.32,-138.28 194,-141.81 212.57,-155.81 208.78,-170.27 230,-179.81 308.97,-215.28 414.29,-200.04 467.93,-188.46"/>
</g>
<!-- Node16&#45;&gt;Node6 -->
<g id="edge16" class="edge">
<title>Node16&#45;&gt;Node6</title>
<path fill="none" stroke="midnightblue" d="M189.05,-125.25C222.97,-126.52 277.61,-124.56 319,-103.81 339.8,-93.38 334.26,-76.35 355,-65.81 391.6,-47.2 439.63,-44.38 470.78,-44.91"/>
</g>
<!-- Node16&#45;&gt;Node12 -->
<g id="edge20" class="edge">
<title>Node16&#45;&gt;Node12</title>
<path fill="none" stroke="midnightblue" d="M168.16,-112.99C181.76,-100.81 206.37,-79.94 230,-65.81 235.8,-62.34 242.35,-59.14 248.57,-56.4"/>
</g>
<!-- Node17 -->
<g id="node10" class="node">
<title>Node17</title>
<g id="a_node10"><a xlink:href="GinARWLamb_8cpp.html#a860a609b53dc98b39334196fb6e0183e" target="_top" xlink:title="Remove ambiguities and biases for satellites, network.">
<polygon fill="white" stroke="red" points="230,-75.31 230,-94.31 319,-94.31 319,-75.31 230,-75.31"/>
<text text-anchor="middle" x="274.5" y="-82.31" font-family="Helvetica,sans-Serif" font-size="10.00">remov_WLsate</text>
</a>
</g>
</g>
<!-- Node16&#45;&gt;Node17 -->
<g id="edge17" class="edge">
<title>Node16&#45;&gt;Node17</title>
<path fill="none" stroke="midnightblue" d="M186.77,-113.22C204.36,-107.46 226.65,-100.15 244.24,-94.39"/>
</g>
<!-- Node17&#45;&gt;Node3 -->
<g id="edge19" class="edge">
<title>Node17&#45;&gt;Node3</title>
<path fill="none" stroke="midnightblue" d="M319.07,-84.81C330.76,-84.81 343.31,-84.81 354.66,-84.81"/>
</g>
<!-- Node17&#45;&gt;Node5 -->
<g id="edge18" class="edge">
<title>Node17&#45;&gt;Node5</title>
<path fill="none" stroke="midnightblue" d="M298.52,-94.44C342.14,-112.69 436.36,-152.12 479.76,-170.29"/>
</g>
</g>
</svg>
