<?xml version="1.0" encoding="UTF-8" standalone="no"?>
<!DOCTYPE svg PUBLIC "-//W3C//DTD SVG 1.1//EN"
 "http://www.w3.org/Graphics/SVG/1.1/DTD/svg11.dtd">
<!-- Generated by graphviz version 2.43.0 (0)
 -->
<!-- Title: sys_frq Pages: 1 -->
<svg width="320pt" height="218pt"
 viewBox="0.00 0.00 320.00 218.00" xmlns="http://www.w3.org/2000/svg" xmlns:xlink="http://www.w3.org/1999/xlink">
<g id="graph0" class="graph" transform="scale(1 1) rotate(0) translate(4 214)">
<title>sys_frq</title>
<polygon fill="white" stroke="transparent" points="-4,4 -4,-214 316,-214 316,4 -4,4"/>
<!-- Node1 -->
<g id="node1" class="node">
<title>Node1</title>
<g id="a_node1"><a xlink:title="Default frequencies for each system.">
<polygon fill="#bfbfbf" stroke="black" points="260,-95.5 260,-114.5 312,-114.5 312,-95.5 260,-95.5"/>
<text text-anchor="middle" x="286" y="-102.5" font-family="Helvetica,sans-Serif" font-size="10.00">sys_frq</text>
</a>
</g>
</g>
<!-- Node2 -->
<g id="node2" class="node">
<title>Node2</title>
<g id="a_node2"><a xlink:href="GinAR__main_8cpp.html#a66a725f08fab953bf5032ef5093949e6" target="_top" xlink:title="Loading float ambiguity data from Observations (WL, cycle slip &amp; elevation)">
<polygon fill="white" stroke="red" points="130.5,-190.5 130.5,-209.5 213.5,-209.5 213.5,-190.5 130.5,-190.5"/>
<text text-anchor="middle" x="172" y="-197.5" font-family="Helvetica,sans-Serif" font-size="10.00">LoadFromObs</text>
</a>
</g>
</g>
<!-- Node1&#45;&gt;Node2 -->
<g id="edge1" class="edge">
<title>Node1&#45;&gt;Node2</title>
<path fill="none" stroke="midnightblue" d="M279.68,-114.55C270.37,-130.46 249.65,-162.47 224,-181 218.79,-184.76 212.75,-187.87 206.69,-190.4"/>
</g>
<!-- Node7 -->
<g id="node3" class="node">
<title>Node7</title>
<g id="a_node3"><a xlink:href="GinAR__main_8cpp.html#a48fa415df652066004129736fa989e44" target="_top" xlink:title="Loading float ambiguity data from KF.">
<polygon fill="white" stroke="red" points="133.5,-152.5 133.5,-171.5 210.5,-171.5 210.5,-152.5 133.5,-152.5"/>
<text text-anchor="middle" x="172" y="-159.5" font-family="Helvetica,sans-Serif" font-size="10.00">LoadFromFlt</text>
</a>
</g>
</g>
<!-- Node1&#45;&gt;Node7 -->
<g id="edge2" class="edge">
<title>Node1&#45;&gt;Node7</title>
<path fill="none" stroke="midnightblue" d="M271.4,-114.58C259.33,-122.81 241.02,-134.63 224,-143 216.96,-146.46 209.13,-149.67 201.75,-152.44"/>
</g>
<!-- Node13 -->
<g id="node4" class="node">
<title>Node13</title>
<g id="a_node4"><a xlink:href="GinAR__main_8cpp.html#ae68f0d04a4be7a5163423b22108b8586" target="_top" xlink:title="Loading configuration options from acsConfig.">
<polygon fill="white" stroke="red" points="120,-114.5 120,-133.5 224,-133.5 224,-114.5 120,-114.5"/>
<text text-anchor="middle" x="172" y="-121.5" font-family="Helvetica,sans-Serif" font-size="10.00">config_AmbigResl</text>
</a>
</g>
</g>
<!-- Node1&#45;&gt;Node13 -->
<g id="edge3" class="edge">
<title>Node1&#45;&gt;Node13</title>
<path fill="none" stroke="midnightblue" d="M259.87,-109.26C249.29,-111.06 236.57,-113.22 224.18,-115.32"/>
</g>
<!-- Node14 -->
<g id="node5" class="node">
<title>Node14</title>
<g id="a_node5"><a xlink:href="GinARNLamb_8cpp.html#ac4b99b950a4d40abefe99b35c1142570" target="_top" xlink:title="Check Z&#45;transformed ambiguities and remove old entries.">
<polygon fill="white" stroke="black" points="142,-76.5 142,-95.5 202,-95.5 202,-76.5 142,-76.5"/>
<text text-anchor="middle" x="172" y="-83.5" font-family="Helvetica,sans-Serif" font-size="10.00">chk_arch</text>
</a>
</g>
</g>
<!-- Node1&#45;&gt;Node14 -->
<g id="edge4" class="edge">
<title>Node1&#45;&gt;Node14</title>
<path fill="none" stroke="midnightblue" d="M259.87,-100.74C242.71,-97.83 219.93,-93.96 202.01,-90.92"/>
</g>
<!-- Node15 -->
<g id="node6" class="node">
<title>Node15</title>
<g id="a_node6"><a xlink:href="GinARNLamb_8cpp.html#a150b7e4a892320cadb8bfd4c813a1aca" target="_top" xlink:title="Update float ambiguity estimates.">
<polygon fill="white" stroke="red" points="0,-57.5 0,-76.5 84,-76.5 84,-57.5 0,-57.5"/>
<text text-anchor="middle" x="42" y="-64.5" font-family="Helvetica,sans-Serif" font-size="10.00">updat_ambigt</text>
</a>
</g>
</g>
<!-- Node1&#45;&gt;Node15 -->
<g id="edge6" class="edge">
<title>Node1&#45;&gt;Node15</title>
<path fill="none" stroke="midnightblue" d="M273.8,-95.29C262.22,-85.96 243.19,-72.49 224,-67 177.47,-53.69 121.42,-56.4 84.15,-60.66"/>
</g>
<!-- Node16 -->
<g id="node7" class="node">
<title>Node16</title>
<g id="a_node7"><a xlink:href="GinARoutpt_8cpp.html#a2952ccee33c3cebafed9b014755ce986" target="_top" xlink:title="Output phase biases.">
<polygon fill="white" stroke="red" points="143.5,-0.5 143.5,-19.5 200.5,-19.5 200.5,-0.5 143.5,-0.5"/>
<text text-anchor="middle" x="172" y="-7.5" font-family="Helvetica,sans-Serif" font-size="10.00">arbiaout</text>
</a>
</g>
</g>
<!-- Node1&#45;&gt;Node16 -->
<g id="edge7" class="edge">
<title>Node1&#45;&gt;Node16</title>
<path fill="none" stroke="midnightblue" d="M278.56,-95.12C268.44,-80.24 247.54,-51.91 224,-34 216.37,-28.19 207.11,-23.32 198.58,-19.51"/>
</g>
<!-- Node14&#45;&gt;Node15 -->
<g id="edge5" class="edge">
<title>Node14&#45;&gt;Node15</title>
<path fill="none" stroke="midnightblue" d="M141.95,-81.69C124.84,-79.15 102.92,-75.89 84.06,-73.1"/>
</g>
</g>
</svg>
