<?xml version="1.0" encoding="UTF-8" standalone="no"?>
<!DOCTYPE svg PUBLIC "-//W3C//DTD SVG 1.1//EN"
 "http://www.w3.org/Graphics/SVG/1.1/DTD/svg11.dtd">
<!-- Generated by graphviz version 2.43.0 (0)
 -->
<!-- Title: WL_newsect Pages: 1 -->
<svg width="582pt" height="237pt"
 viewBox="0.00 0.00 582.00 237.07" xmlns="http://www.w3.org/2000/svg" xmlns:xlink="http://www.w3.org/1999/xlink">
<g id="graph0" class="graph" transform="scale(1 1) rotate(0) translate(4 233.07)">
<title>WL_newsect</title>
<polygon fill="white" stroke="transparent" points="-4,4 -4,-233.07 578,-233.07 578,4 -4,4"/>
<!-- Node1 -->
<g id="node1" class="node">
<title>Node1</title>
<g id="a_node1"><a xlink:title="save Resolved WL ambiguities">
<polygon fill="#bfbfbf" stroke="black" points="497,-95.57 497,-114.57 574,-114.57 574,-95.57 497,-95.57"/>
<text text-anchor="middle" x="535.5" y="-102.57" font-family="Helvetica,sans-Serif" font-size="10.00">WL_newsect</text>
</a>
</g>
</g>
<!-- Node2 -->
<g id="node2" class="node">
<title>Node2</title>
<g id="a_node2"><a xlink:href="GinARWLamb_8cpp.html#a847f714757d3b9ed6d45bae0778972b0" target="_top" xlink:title="Remove ambiguities and biases for systems, end user.">
<polygon fill="white" stroke="black" points="379,-171.57 379,-190.57 454,-190.57 454,-171.57 379,-171.57"/>
<text text-anchor="middle" x="416.5" y="-178.57" font-family="Helvetica,sans-Serif" font-size="10.00">reset_WLfilt</text>
</a>
</g>
</g>
<!-- Node1&#45;&gt;Node2 -->
<g id="edge1" class="edge">
<title>Node1&#45;&gt;Node2</title>
<path fill="none" stroke="midnightblue" d="M523.67,-114.88C509.85,-127.04 484.88,-147.89 461,-162.07 455.19,-165.52 448.64,-168.71 442.42,-171.45"/>
</g>
<!-- Node15 -->
<g id="node6" class="node">
<title>Node15</title>
<g id="a_node6"><a xlink:href="GinARWLamb_8cpp.html#ab95d4f2ff0f6e0d2b92d4d4d14f7f787" target="_top" xlink:title="Update WL filter.">
<polygon fill="white" stroke="black" points="377.5,-133.57 377.5,-152.57 455.5,-152.57 455.5,-133.57 377.5,-133.57"/>
<text text-anchor="middle" x="416.5" y="-140.57" font-family="Helvetica,sans-Serif" font-size="10.00">updat_WLfilt</text>
</a>
</g>
</g>
<!-- Node1&#45;&gt;Node15 -->
<g id="edge5" class="edge">
<title>Node1&#45;&gt;Node15</title>
<path fill="none" stroke="midnightblue" d="M504.98,-114.66C487.24,-120.42 464.75,-127.73 447.01,-133.49"/>
</g>
<!-- Node16 -->
<g id="node7" class="node">
<title>Node16</title>
<g id="a_node7"><a xlink:href="GinARWLamb_8cpp.html#a12713865301eea1dac84952dd9fd1149" target="_top" xlink:title="Update WL ambiguities and save then to archive.">
<polygon fill="white" stroke="red" points="244,-133.57 244,-152.57 336,-152.57 336,-133.57 244,-133.57"/>
<text text-anchor="middle" x="290" y="-140.57" font-family="Helvetica,sans-Serif" font-size="10.00">updat_WLambg</text>
</a>
</g>
</g>
<!-- Node1&#45;&gt;Node16 -->
<g id="edge17" class="edge">
<title>Node1&#45;&gt;Node16</title>
<path fill="none" stroke="midnightblue" d="M526.18,-95.47C513.67,-81.84 488.5,-57.49 461,-48.07 423.58,-35.26 405.42,-26.92 372,-48.07 340.42,-68.06 362.99,-98.22 336,-124.07 332.08,-127.83 327.31,-130.89 322.36,-133.38"/>
</g>
<!-- Node17 -->
<g id="node8" class="node">
<title>Node17</title>
<g id="a_node8"><a xlink:href="GinARWLamb_8cpp.html#a860a609b53dc98b39334196fb6e0183e" target="_top" xlink:title="Remove ambiguities and biases for satellites, network.">
<polygon fill="white" stroke="black" points="372,-95.57 372,-114.57 461,-114.57 461,-95.57 372,-95.57"/>
<text text-anchor="middle" x="416.5" y="-102.57" font-family="Helvetica,sans-Serif" font-size="10.00">remov_WLsate</text>
</a>
</g>
</g>
<!-- Node1&#45;&gt;Node17 -->
<g id="edge7" class="edge">
<title>Node1&#45;&gt;Node17</title>
<path fill="none" stroke="midnightblue" d="M496.84,-105.07C485.48,-105.07 472.92,-105.07 461.2,-105.07"/>
</g>
<!-- Node19 -->
<g id="node10" class="node">
<title>Node19</title>
<g id="a_node10"><a xlink:href="GinARWLamb_8cpp.html#a9b4b3f98983e846523263881d690dfaf" target="_top" xlink:title="Remove ambiguities and biases for receivers, network.">
<polygon fill="white" stroke="black" points="372,-57.57 372,-76.57 461,-76.57 461,-57.57 372,-57.57"/>
<text text-anchor="middle" x="416.5" y="-64.57" font-family="Helvetica,sans-Serif" font-size="10.00">remov_WLrecv</text>
</a>
</g>
</g>
<!-- Node1&#45;&gt;Node19 -->
<g id="edge12" class="edge">
<title>Node1&#45;&gt;Node19</title>
<path fill="none" stroke="midnightblue" d="M504.98,-95.48C487.24,-89.72 464.75,-82.42 447.01,-76.66"/>
</g>
<!-- Node3 -->
<g id="node3" class="node">
<title>Node3</title>
<g id="a_node3"><a xlink:href="GinARpivot_8cpp.html#a82123e7131dcf632ddf6dc4baf239255" target="_top" xlink:title="Update User Pivot.">
<polygon fill="white" stroke="red" points="245.5,-209.57 245.5,-228.57 334.5,-228.57 334.5,-209.57 245.5,-209.57"/>
<text text-anchor="middle" x="290" y="-216.57" font-family="Helvetica,sans-Serif" font-size="10.00">updt_usr_pivot</text>
</a>
</g>
</g>
<!-- Node2&#45;&gt;Node3 -->
<g id="edge2" class="edge">
<title>Node2&#45;&gt;Node3</title>
<path fill="none" stroke="midnightblue" d="M384.08,-190.66C365.21,-196.42 341.28,-203.73 322.41,-209.49"/>
</g>
<!-- Node12 -->
<g id="node4" class="node">
<title>Node12</title>
<g id="a_node4"><a xlink:href="GinARpivot_8cpp.html#a548fc349652c3ac40da0eaf20d244b7e" target="_top" xlink:title="Initialize Network pivot.">
<polygon fill="white" stroke="black" points="125,-133.57 125,-152.57 208,-152.57 208,-133.57 125,-133.57"/>
<text text-anchor="middle" x="166.5" y="-140.57" font-family="Helvetica,sans-Serif" font-size="10.00">init_net_pivot</text>
</a>
</g>
</g>
<!-- Node2&#45;&gt;Node12 -->
<g id="edge3" class="edge">
<title>Node2&#45;&gt;Node12</title>
<path fill="none" stroke="midnightblue" d="M378.83,-178.43C343.97,-175.59 290.15,-170.32 244,-162.07 230.12,-159.59 215.03,-156.03 201.95,-152.66"/>
</g>
<!-- Node13 -->
<g id="node5" class="node">
<title>Node13</title>
<g id="a_node5"><a xlink:href="GinARpivot_8cpp.html#a00fa2ae3af0a9c725884d6b32254ace2" target="_top" xlink:title="Update network pivot.">
<polygon fill="white" stroke="red" points="0,-57.57 0,-76.57 89,-76.57 89,-57.57 0,-57.57"/>
<text text-anchor="middle" x="44.5" y="-64.57" font-family="Helvetica,sans-Serif" font-size="10.00">updt_net_pivot</text>
</a>
</g>
</g>
<!-- Node12&#45;&gt;Node13 -->
<g id="edge4" class="edge">
<title>Node12&#45;&gt;Node13</title>
<path fill="none" stroke="midnightblue" d="M148.85,-133.43C141.49,-129.11 132.77,-123.91 125,-119.07 101.9,-104.68 75.55,-87.24 59.74,-76.66"/>
</g>
<!-- Node15&#45;&gt;Node16 -->
<g id="edge6" class="edge">
<title>Node15&#45;&gt;Node16</title>
<path fill="none" stroke="midnightblue" d="M377.47,-143.07C364.45,-143.07 349.77,-143.07 336.24,-143.07"/>
</g>
<!-- Node17&#45;&gt;Node13 -->
<g id="edge11" class="edge">
<title>Node17&#45;&gt;Node13</title>
<path fill="none" stroke="midnightblue" d="M381.31,-95.56C367.37,-92.03 351.01,-88.34 336,-86.07 249.04,-72.93 146.09,-68.88 89.06,-67.63"/>
</g>
<!-- Node18 -->
<g id="node9" class="node">
<title>Node18</title>
<g id="a_node9"><a xlink:href="GinARpivot_8cpp.html#a21c1788df5b3f78e43a230b1b1fc3a07" target="_top" xlink:title="Reset satellite on network pivot.">
<polygon fill="white" stroke="black" points="257.5,-95.57 257.5,-114.57 322.5,-114.57 322.5,-95.57 257.5,-95.57"/>
<text text-anchor="middle" x="290" y="-102.57" font-family="Helvetica,sans-Serif" font-size="10.00">Reset_sat</text>
</a>
</g>
</g>
<!-- Node17&#45;&gt;Node18 -->
<g id="edge8" class="edge">
<title>Node17&#45;&gt;Node18</title>
<path fill="none" stroke="midnightblue" d="M371.96,-105.07C355.69,-105.07 337.54,-105.07 322.56,-105.07"/>
</g>
<!-- Node18&#45;&gt;Node12 -->
<g id="edge9" class="edge">
<title>Node18&#45;&gt;Node12</title>
<path fill="none" stroke="midnightblue" d="M258.34,-114.66C239.92,-120.42 216.57,-127.73 198.15,-133.49"/>
</g>
<!-- Node18&#45;&gt;Node13 -->
<g id="edge10" class="edge">
<title>Node18&#45;&gt;Node13</title>
<path fill="none" stroke="midnightblue" d="M257.21,-100.7C224.14,-96.08 170.88,-88.47 125,-81.07 113.38,-79.2 100.82,-77.05 89.2,-75"/>
</g>
<!-- Node19&#45;&gt;Node13 -->
<g id="edge16" class="edge">
<title>Node19&#45;&gt;Node13</title>
<path fill="none" stroke="midnightblue" d="M406.34,-57.46C392.58,-43.81 365.1,-19.43 336,-10.07 235.45,22.25 109.14,-34.05 63.21,-57.52"/>
</g>
<!-- Node20 -->
<g id="node11" class="node">
<title>Node20</title>
<g id="a_node11"><a xlink:href="GinARpivot_8cpp.html#a50a6ec448f33d1f09d19f2fb10e02299" target="_top" xlink:title="Reset receiver on network pivot.">
<polygon fill="white" stroke="black" points="257.5,-19.57 257.5,-38.57 322.5,-38.57 322.5,-19.57 257.5,-19.57"/>
<text text-anchor="middle" x="290" y="-26.57" font-family="Helvetica,sans-Serif" font-size="10.00">Reset_rec</text>
</a>
</g>
</g>
<!-- Node19&#45;&gt;Node20 -->
<g id="edge13" class="edge">
<title>Node19&#45;&gt;Node20</title>
<path fill="none" stroke="midnightblue" d="M384.08,-57.48C365.21,-51.72 341.28,-44.42 322.41,-38.66"/>
</g>
<!-- Node20&#45;&gt;Node12 -->
<g id="edge14" class="edge">
<title>Node20&#45;&gt;Node12</title>
<path fill="none" stroke="midnightblue" d="M278.64,-38.79C255.69,-60.33 200.76,-111.86 177.83,-133.38"/>
</g>
<!-- Node20&#45;&gt;Node13 -->
<g id="edge15" class="edge">
<title>Node20&#45;&gt;Node13</title>
<path fill="none" stroke="midnightblue" d="M257.21,-33.45C224.14,-38.06 170.88,-45.68 125,-53.07 113.38,-54.95 100.82,-57.1 89.2,-59.14"/>
</g>
</g>
</svg>
