<?xml version="1.0" encoding="UTF-8" standalone="no"?>
<!DOCTYPE svg PUBLIC "-//W3C//DTD SVG 1.1//EN"
 "http://www.w3.org/Graphics/SVG/1.1/DTD/svg11.dtd">
<!-- Generated by graphviz version 2.43.0 (0)
 -->
<!-- Title: smoothdAmbigResl Pages: 1 -->
<svg width="412pt" height="395pt"
 viewBox="0.00 0.00 412.00 395.25" xmlns="http://www.w3.org/2000/svg" xmlns:xlink="http://www.w3.org/1999/xlink">
<g id="graph0" class="graph" transform="scale(1 1) rotate(0) translate(4 391.25)">
<title>smoothdAmbigResl</title>
<polygon fill="white" stroke="transparent" points="-4,4 -4,-391.25 408,-391.25 408,4 -4,4"/>
<!-- Node1 -->
<g id="node1" class="node">
<title>Node1</title>
<g id="a_node1"><a xlink:title="Ambiguity resolution on smoothed KF solutions.">
<polygon fill="#bfbfbf" stroke="black" points="0,-190.5 0,-209.5 112,-209.5 112,-190.5 0,-190.5"/>
<text text-anchor="middle" x="56" y="-197.5" font-family="Helvetica,sans-Serif" font-size="10.00">smoothdAmbigResl</text>
</a>
</g>
</g>
<!-- Node2 -->
<g id="node2" class="node">
<title>Node2</title>
<g id="a_node2"><a xlink:href="streamTrace_8cpp.html#ae00e6addd3bdf3a7fd41a254eb9aec89" target="_top" xlink:title=" ">
<polygon fill="white" stroke="black" points="320,-190.5 320,-209.5 391,-209.5 391,-190.5 320,-190.5"/>
<text text-anchor="middle" x="355.5" y="-197.5" font-family="Helvetica,sans-Serif" font-size="10.00">tracepdeex</text>
</a>
</g>
</g>
<!-- Node1&#45;&gt;Node2 -->
<g id="edge1" class="edge">
<title>Node1&#45;&gt;Node2</title>
<path fill="none" stroke="midnightblue" d="M58.83,-209.88C64.98,-239.95 88.05,-330.5 148,-366 195.04,-393.86 224.46,-394.68 271,-366 329.22,-330.11 348.28,-239.82 353.11,-209.85"/>
</g>
<!-- Node3 -->
<g id="node3" class="node">
<title>Node3</title>
<g id="a_node3"><a xlink:href="structGTime.html#a64394968bbfdecbbeec4ba5134fdb682" target="_top" xlink:title=" ">
<polygon fill="white" stroke="red" points="307,-152.5 307,-171.5 404,-171.5 404,-152.5 307,-152.5"/>
<text text-anchor="middle" x="355.5" y="-159.5" font-family="Helvetica,sans-Serif" font-size="10.00">GTime::to_string</text>
</a>
</g>
</g>
<!-- Node1&#45;&gt;Node3 -->
<g id="edge2" class="edge">
<title>Node1&#45;&gt;Node3</title>
<path fill="none" stroke="midnightblue" d="M60.1,-209.78C68.89,-235.7 96.77,-305.98 148,-333 196.35,-358.5 228.12,-366.91 271,-333 325.45,-289.94 261.67,-233.58 307,-181 310.36,-177.1 314.64,-173.99 319.25,-171.51"/>
</g>
<!-- Node6 -->
<g id="node4" class="node">
<title>Node6</title>
<g id="a_node4"><a xlink:href="GinAR__main_8cpp.html#abfd3ee0f4426056acecc54f389deb7eb" target="_top" xlink:title="Eliminated ambiguity measurements older than (current time &#45; max hold epocs) for the specified receiv...">
<polygon fill="white" stroke="black" points="164.5,-304.5 164.5,-323.5 254.5,-323.5 254.5,-304.5 164.5,-304.5"/>
<text text-anchor="middle" x="209.5" y="-311.5" font-family="Helvetica,sans-Serif" font-size="10.00">clean_obsolete</text>
</a>
</g>
</g>
<!-- Node1&#45;&gt;Node6 -->
<g id="edge3" class="edge">
<title>Node1&#45;&gt;Node6</title>
<path fill="none" stroke="midnightblue" d="M63.59,-209.61C77.17,-228.68 110.16,-271.51 148,-295 154.17,-298.83 161.18,-301.95 168.19,-304.47"/>
</g>
<!-- Node7 -->
<g id="node5" class="node">
<title>Node7</title>
<g id="a_node5"><a xlink:href="GinAR__main_8cpp.html#a48fa415df652066004129736fa989e44" target="_top" xlink:title="Loading float ambiguity data from KF.">
<polygon fill="white" stroke="red" points="171,-266.5 171,-285.5 248,-285.5 248,-266.5 171,-266.5"/>
<text text-anchor="middle" x="209.5" y="-273.5" font-family="Helvetica,sans-Serif" font-size="10.00">LoadFromFlt</text>
</a>
</g>
</g>
<!-- Node1&#45;&gt;Node7 -->
<g id="edge4" class="edge">
<title>Node1&#45;&gt;Node7</title>
<path fill="none" stroke="midnightblue" d="M69.96,-209.62C87.09,-221.97 118.54,-243.42 148,-257 155.8,-260.59 164.46,-263.76 172.74,-266.43"/>
</g>
<!-- Node15 -->
<g id="node6" class="node">
<title>Node15</title>
<g id="a_node6"><a xlink:href="GinARpivot_8cpp.html#a82123e7131dcf632ddf6dc4baf239255" target="_top" xlink:title="Update User Pivot.">
<polygon fill="white" stroke="red" points="165,-228.5 165,-247.5 254,-247.5 254,-228.5 165,-228.5"/>
<text text-anchor="middle" x="209.5" y="-235.5" font-family="Helvetica,sans-Serif" font-size="10.00">updt_usr_pivot</text>
</a>
</g>
</g>
<!-- Node1&#45;&gt;Node15 -->
<g id="edge7" class="edge">
<title>Node1&#45;&gt;Node15</title>
<path fill="none" stroke="midnightblue" d="M95.23,-209.59C118.28,-215.37 147.54,-222.71 170.55,-228.48"/>
</g>
<!-- Node22 -->
<g id="node7" class="node">
<title>Node22</title>
<g id="a_node7"><a xlink:href="GinARpivot_8cpp.html#a00fa2ae3af0a9c725884d6b32254ace2" target="_top" xlink:title="Update network pivot.">
<polygon fill="white" stroke="red" points="165,-190.5 165,-209.5 254,-209.5 254,-190.5 165,-190.5"/>
<text text-anchor="middle" x="209.5" y="-197.5" font-family="Helvetica,sans-Serif" font-size="10.00">updt_net_pivot</text>
</a>
</g>
</g>
<!-- Node1&#45;&gt;Node22 -->
<g id="edge9" class="edge">
<title>Node1&#45;&gt;Node22</title>
<path fill="none" stroke="midnightblue" d="M112.12,-200C129.38,-200 148.19,-200 164.57,-200"/>
</g>
<!-- Node32 -->
<g id="node8" class="node">
<title>Node32</title>
<g id="a_node8"><a xlink:href="GinARNLamb_8cpp.html#a150b7e4a892320cadb8bfd4c813a1aca" target="_top" xlink:title="Update float ambiguity estimates.">
<polygon fill="white" stroke="red" points="167.5,-152.5 167.5,-171.5 251.5,-171.5 251.5,-152.5 167.5,-152.5"/>
<text text-anchor="middle" x="209.5" y="-159.5" font-family="Helvetica,sans-Serif" font-size="10.00">updat_ambigt</text>
</a>
</g>
</g>
<!-- Node1&#45;&gt;Node32 -->
<g id="edge11" class="edge">
<title>Node1&#45;&gt;Node32</title>
<path fill="none" stroke="midnightblue" d="M95.23,-190.41C118.28,-184.63 147.54,-177.29 170.55,-171.52"/>
</g>
<!-- Node51 -->
<g id="node9" class="node">
<title>Node51</title>
<g id="a_node9"><a xlink:href="GinARNLamb_8cpp.html#ad93bb9c322526f57beacb5aeb5c4e66a" target="_top" xlink:title="Apply archived Z&#45;ambiguities to float solution.">
<polygon fill="white" stroke="red" points="168,-114.5 168,-133.5 251,-133.5 251,-114.5 168,-114.5"/>
<text text-anchor="middle" x="209.5" y="-121.5" font-family="Helvetica,sans-Serif" font-size="10.00">apply_ambigt</text>
</a>
</g>
</g>
<!-- Node1&#45;&gt;Node51 -->
<g id="edge14" class="edge">
<title>Node1&#45;&gt;Node51</title>
<path fill="none" stroke="midnightblue" d="M69.96,-190.38C87.09,-178.03 118.54,-156.58 148,-143 155.8,-139.41 164.46,-136.24 172.74,-133.57"/>
</g>
<!-- Node73 -->
<g id="node10" class="node">
<title>Node73</title>
<g id="a_node10"><a xlink:href="GinARoutpt_8cpp.html#a2952ccee33c3cebafed9b014755ce986" target="_top" xlink:title="Output phase biases.">
<polygon fill="white" stroke="red" points="181,-76.5 181,-95.5 238,-95.5 238,-76.5 181,-76.5"/>
<text text-anchor="middle" x="209.5" y="-83.5" font-family="Helvetica,sans-Serif" font-size="10.00">arbiaout</text>
</a>
</g>
</g>
<!-- Node1&#45;&gt;Node73 -->
<g id="edge16" class="edge">
<title>Node1&#45;&gt;Node73</title>
<path fill="none" stroke="midnightblue" d="M63.59,-190.39C77.17,-171.32 110.16,-128.49 148,-105 157.91,-98.84 169.99,-94.53 180.74,-91.59"/>
</g>
<!-- Node81 -->
<g id="node11" class="node">
<title>Node81</title>
<g id="a_node11"><a xlink:href="GinARoutpt_8cpp.html#a15eeefdc06bd3997b9c8dd4bbc9c4088" target="_top" xlink:title="Output ambiguity measurments/states.">
<polygon fill="white" stroke="red" points="182,-38.5 182,-57.5 237,-57.5 237,-38.5 182,-38.5"/>
<text text-anchor="middle" x="209.5" y="-45.5" font-family="Helvetica,sans-Serif" font-size="10.00">artrcout</text>
</a>
</g>
</g>
<!-- Node1&#45;&gt;Node81 -->
<g id="edge18" class="edge">
<title>Node1&#45;&gt;Node81</title>
<path fill="none" stroke="midnightblue" d="M60.91,-190.33C71.28,-165.89 101.91,-101.14 148,-67 157.82,-59.73 170.5,-55.19 181.71,-52.38"/>
</g>
<!-- Node86 -->
<g id="node12" class="node">
<title>Node86</title>
<g id="a_node12"><a xlink:href="structKFState.html#a0c84e911a5ea760fe728baec661e33f0" target="_top" xlink:title="Output keys and states in human readable format.">
<polygon fill="white" stroke="black" points="148,-0.5 148,-19.5 271,-19.5 271,-0.5 148,-0.5"/>
<text text-anchor="middle" x="209.5" y="-7.5" font-family="Helvetica,sans-Serif" font-size="10.00">KFState::outputStates</text>
</a>
</g>
</g>
<!-- Node1&#45;&gt;Node86 -->
<g id="edge20" class="edge">
<title>Node1&#45;&gt;Node86</title>
<path fill="none" stroke="midnightblue" d="M59.39,-190.21C66.99,-161.1 93.41,-74.33 148,-29 152.66,-25.13 158.11,-22.05 163.79,-19.59"/>
</g>
<!-- Node7&#45;&gt;Node2 -->
<g id="edge5" class="edge">
<title>Node7&#45;&gt;Node2</title>
<path fill="none" stroke="midnightblue" d="M247,-266.45C255.08,-263.81 263.47,-260.65 271,-257 298.48,-243.67 327.18,-222.13 342.74,-209.7"/>
</g>
<!-- Node7&#45;&gt;Node3 -->
<g id="edge6" class="edge">
<title>Node7&#45;&gt;Node3</title>
<path fill="none" stroke="midnightblue" d="M248.18,-269.4C256.38,-266.61 264.52,-262.64 271,-257 299.19,-232.46 279.77,-206.6 307,-181 311.01,-177.23 315.87,-174.17 320.92,-171.7"/>
</g>
<!-- Node15&#45;&gt;Node2 -->
<g id="edge8" class="edge">
<title>Node15&#45;&gt;Node2</title>
<path fill="none" stroke="midnightblue" d="M246.84,-228.41C269.17,-222.52 297.62,-215.01 319.66,-209.19"/>
</g>
<!-- Node22&#45;&gt;Node2 -->
<g id="edge10" class="edge">
<title>Node22&#45;&gt;Node2</title>
<path fill="none" stroke="midnightblue" d="M254.1,-200C275.12,-200 300,-200 319.73,-200"/>
</g>
<!-- Node32&#45;&gt;Node2 -->
<g id="edge12" class="edge">
<title>Node32&#45;&gt;Node2</title>
<path fill="none" stroke="midnightblue" d="M246.84,-171.59C269.17,-177.48 297.62,-184.99 319.66,-190.81"/>
</g>
<!-- Node32&#45;&gt;Node3 -->
<g id="edge13" class="edge">
<title>Node32&#45;&gt;Node3</title>
<path fill="none" stroke="midnightblue" d="M251.76,-162C268.97,-162 289.05,-162 306.88,-162"/>
</g>
<!-- Node51&#45;&gt;Node2 -->
<g id="edge15" class="edge">
<title>Node51&#45;&gt;Node2</title>
<path fill="none" stroke="midnightblue" d="M250.83,-133.5C257.83,-136.02 264.84,-139.15 271,-143 290.73,-155.33 287.75,-167.93 307,-181 312.44,-184.69 318.7,-187.84 324.86,-190.44"/>
</g>
<!-- Node73&#45;&gt;Node2 -->
<g id="edge17" class="edge">
<title>Node73&#45;&gt;Node2</title>
<path fill="none" stroke="midnightblue" d="M238.18,-89.73C249.41,-92.42 261.87,-97.05 271,-105 299.19,-129.54 279.77,-155.4 307,-181 311.01,-184.77 315.87,-187.83 320.92,-190.3"/>
</g>
<!-- Node81&#45;&gt;Node2 -->
<g id="edge19" class="edge">
<title>Node81&#45;&gt;Node2</title>
<path fill="none" stroke="midnightblue" d="M237.19,-50.8C248.92,-53.31 262.04,-58.05 271,-67 308.6,-104.54 270.86,-142.05 307,-181 310.63,-184.91 315.16,-188.03 319.98,-190.51"/>
</g>
<!-- Node86&#45;&gt;Node2 -->
<g id="edge21" class="edge">
<title>Node86&#45;&gt;Node2</title>
<path fill="none" stroke="midnightblue" d="M258.29,-19.59C263.02,-22.05 267.4,-25.13 271,-29 318.3,-79.82 261.67,-128.42 307,-181 310.48,-185.04 314.94,-188.22 319.72,-190.74"/>
</g>
<!-- Node86&#45;&gt;Node3 -->
<g id="edge22" class="edge">
<title>Node86&#45;&gt;Node3</title>
<path fill="none" stroke="midnightblue" d="M254.02,-19.52C260.07,-21.99 265.94,-25.1 271,-29 315.25,-63.15 342.17,-127.89 351.15,-152.33"/>
</g>
</g>
</svg>
