<?xml version="1.0" encoding="UTF-8" standalone="no"?>
<!DOCTYPE svg PUBLIC "-//W3C//DTD SVG 1.1//EN"
 "http://www.w3.org/Graphics/SVG/1.1/DTD/svg11.dtd">
<!-- Generated by graphviz version 2.43.0 (0)
 -->
<!-- Title: apply_ambigt Pages: 1 -->
<svg width="606pt" height="566pt"
 viewBox="0.00 0.00 606.00 566.32" xmlns="http://www.w3.org/2000/svg" xmlns:xlink="http://www.w3.org/1999/xlink">
<g id="graph0" class="graph" transform="scale(1 1) rotate(0) translate(4 562.32)">
<title>apply_ambigt</title>
<polygon fill="white" stroke="transparent" points="-4,4 -4,-562.32 602,-562.32 602,4 -4,4"/>
<!-- Node1 -->
<g id="node1" class="node">
<title>Node1</title>
<g id="a_node1"><a xlink:title="Apply archived Z&#45;ambiguities to float solution.">
<polygon fill="#bfbfbf" stroke="black" points="0,-437.5 0,-456.5 83,-456.5 83,-437.5 0,-437.5"/>
<text text-anchor="middle" x="41.5" y="-444.5" font-family="Helvetica,sans-Serif" font-size="10.00">apply_ambigt</text>
</a>
</g>
</g>
<!-- Node2 -->
<g id="node2" class="node">
<title>Node2</title>
<g id="a_node2"><a xlink:href="streamTrace_8cpp.html#ae00e6addd3bdf3a7fd41a254eb9aec89" target="_top" xlink:title=" ">
<polygon fill="white" stroke="black" points="527,-389.5 527,-408.5 598,-408.5 598,-389.5 527,-389.5"/>
<text text-anchor="middle" x="562.5" y="-396.5" font-family="Helvetica,sans-Serif" font-size="10.00">tracepdeex</text>
</a>
</g>
</g>
<!-- Node1&#45;&gt;Node2 -->
<g id="edge1" class="edge">
<title>Node1&#45;&gt;Node2</title>
<path fill="none" stroke="midnightblue" d="M46.68,-456.63C56.1,-476.97 81.18,-523.9 119,-542 182.74,-572.51 207.94,-551.21 278,-542 375.16,-529.22 408.64,-538.11 491,-485 522.15,-464.91 546.23,-426.58 556.33,-408.67"/>
</g>
<!-- Node3 -->
<g id="node3" class="node">
<title>Node3</title>
<g id="a_node3"><a xlink:href="structKFMeasEntry.html#a56ed46a7048dcd7e87e75eebc342dc7d" target="_top" xlink:title="Adds the actual measurement value for this measurement.">
<polygon fill="white" stroke="black" points="134,-513.5 134,-532.5 263,-532.5 263,-513.5 134,-513.5"/>
<text text-anchor="middle" x="198.5" y="-520.5" font-family="Helvetica,sans-Serif" font-size="10.00">KFMeasEntry::setValue</text>
</a>
</g>
</g>
<!-- Node1&#45;&gt;Node3 -->
<g id="edge2" class="edge">
<title>Node1&#45;&gt;Node3</title>
<path fill="none" stroke="midnightblue" d="M52.51,-456.59C66.35,-469.32 92.61,-491.61 119,-504 127.12,-507.81 136.09,-510.91 144.97,-513.4"/>
</g>
<!-- Node4 -->
<g id="node4" class="node">
<title>Node4</title>
<g id="a_node4"><a xlink:href="structKFMeasEntry.html#a1054abe38550bcd614c1a3c1afe752ee" target="_top" xlink:title="Adds the measurement noise entry for this measurement.">
<polygon fill="white" stroke="black" points="134,-475.5 134,-494.5 263,-494.5 263,-475.5 134,-475.5"/>
<text text-anchor="middle" x="198.5" y="-482.5" font-family="Helvetica,sans-Serif" font-size="10.00">KFMeasEntry::setNoise</text>
</a>
</g>
</g>
<!-- Node1&#45;&gt;Node4 -->
<g id="edge3" class="edge">
<title>Node1&#45;&gt;Node4</title>
<path fill="none" stroke="midnightblue" d="M80.62,-456.52C92.87,-459.56 106.51,-462.94 119,-466 131.67,-469.11 145.49,-472.46 157.96,-475.48"/>
</g>
<!-- Node5 -->
<g id="node5" class="node">
<title>Node5</title>
<g id="a_node5"><a xlink:href="trop_8cpp.html#aee11659ecea14ca59feae2dbe9f160d5" target="_top" xlink:title="coefficients multiplication">
<polygon fill="white" stroke="black" points="179.5,-437.5 179.5,-456.5 217.5,-456.5 217.5,-437.5 179.5,-437.5"/>
<text text-anchor="middle" x="198.5" y="-444.5" font-family="Helvetica,sans-Serif" font-size="10.00">coef</text>
</a>
</g>
</g>
<!-- Node1&#45;&gt;Node5 -->
<g id="edge4" class="edge">
<title>Node1&#45;&gt;Node5</title>
<path fill="none" stroke="midnightblue" d="M83.22,-447C114.44,-447 156.01,-447 179.44,-447"/>
</g>
<!-- Node6 -->
<g id="node6" class="node">
<title>Node6</title>
<g id="a_node6"><a xlink:href="structKFMeasEntry.html#aa07d07ef75fccb307a91283ec47b38a8" target="_top" xlink:title="Adds a design matrix entry for this measurement.">
<polygon fill="white" stroke="black" points="121,-399.5 121,-418.5 276,-418.5 276,-399.5 121,-399.5"/>
<text text-anchor="middle" x="198.5" y="-406.5" font-family="Helvetica,sans-Serif" font-size="10.00">KFMeasEntry::addDsgnEntry</text>
</a>
</g>
</g>
<!-- Node1&#45;&gt;Node6 -->
<g id="edge5" class="edge">
<title>Node1&#45;&gt;Node6</title>
<path fill="none" stroke="midnightblue" d="M80.62,-437.48C92.87,-434.44 106.51,-431.06 119,-428 131.67,-424.89 145.49,-421.54 157.96,-418.52"/>
</g>
<!-- Node7 -->
<g id="node7" class="node">
<title>Node7</title>
<g id="a_node7"><a xlink:href="structKFState.html#a4422abfc2efdc898a2558d57be35e863" target="_top" xlink:title="Combine a list of KFMeasEntrys into a single KFMeas object for used in the filter.">
<polygon fill="white" stroke="black" points="119,-361.5 119,-380.5 278,-380.5 278,-361.5 119,-361.5"/>
<text text-anchor="middle" x="198.5" y="-368.5" font-family="Helvetica,sans-Serif" font-size="10.00">KFState::combineKFMeasList</text>
</a>
</g>
</g>
<!-- Node1&#45;&gt;Node7 -->
<g id="edge6" class="edge">
<title>Node1&#45;&gt;Node7</title>
<path fill="none" stroke="midnightblue" d="M52.51,-437.41C66.35,-424.68 92.61,-402.39 119,-390 127.12,-386.19 136.09,-383.09 144.97,-380.6"/>
</g>
<!-- Node10 -->
<g id="node10" class="node">
<title>Node10</title>
<g id="a_node10"><a xlink:href="structKFState.html#a21a4858020ad706771efeea814d6c43f" target="_top" xlink:title="Kalman filter operation.">
<polygon fill="white" stroke="black" points="137.5,-228.5 137.5,-247.5 259.5,-247.5 259.5,-228.5 137.5,-228.5"/>
<text text-anchor="middle" x="198.5" y="-235.5" font-family="Helvetica,sans-Serif" font-size="10.00">KFState::filterKalman</text>
</a>
</g>
</g>
<!-- Node1&#45;&gt;Node10 -->
<g id="edge9" class="edge">
<title>Node1&#45;&gt;Node10</title>
<path fill="none" stroke="midnightblue" d="M49.56,-437.48C75.38,-402.66 164.51,-282.49 190.4,-247.58"/>
</g>
<!-- Node8 -->
<g id="node8" class="node">
<title>Node8</title>
<g id="a_node8"><a xlink:href="structGTime.html#aaa8a379d11cd6c040a6bbe680c0e913e" target="_top" xlink:title="Uninitialised time for comparisons.">
<polygon fill="white" stroke="black" points="357.5,-456.5 357.5,-475.5 447.5,-475.5 447.5,-456.5 357.5,-456.5"/>
<text text-anchor="middle" x="402.5" y="-463.5" font-family="Helvetica,sans-Serif" font-size="10.00">GTime::noTime</text>
</a>
</g>
</g>
<!-- Node7&#45;&gt;Node8 -->
<g id="edge7" class="edge">
<title>Node7&#45;&gt;Node8</title>
<path fill="none" stroke="midnightblue" d="M260.33,-380.63C266.61,-383.09 272.65,-386.16 278,-390 302.34,-407.47 289.45,-429.82 314,-447 326.61,-455.82 342.55,-460.67 357.36,-463.28"/>
</g>
<!-- Node9 -->
<g id="node9" class="node">
<title>Node9</title>
<g id="a_node9"><a xlink:href="structKFState.html#a5aeeee0f20df8cc8c4747c1b5b18212f" target="_top" xlink:title="Finds the position in the KF state vector of particular states.">
<polygon fill="white" stroke="black" points="344.5,-418.5 344.5,-437.5 460.5,-437.5 460.5,-418.5 344.5,-418.5"/>
<text text-anchor="middle" x="402.5" y="-425.5" font-family="Helvetica,sans-Serif" font-size="10.00">KFState::getKFIndex</text>
</a>
</g>
</g>
<!-- Node7&#45;&gt;Node9 -->
<g id="edge8" class="edge">
<title>Node7&#45;&gt;Node9</title>
<path fill="none" stroke="midnightblue" d="M247.4,-380.59C257.64,-383.19 268.29,-386.33 278,-390 294.92,-396.4 297,-402.8 314,-409 324.37,-412.78 335.72,-415.93 346.7,-418.5"/>
</g>
<!-- Node10&#45;&gt;Node8 -->
<g id="edge10" class="edge">
<title>Node10&#45;&gt;Node8</title>
<path fill="none" stroke="midnightblue" d="M207.28,-247.55C222.44,-266.53 256.36,-310.71 278,-352 298.96,-391.99 279.79,-417.53 314,-447 325.89,-457.25 342.02,-462.37 357.19,-464.81"/>
</g>
<!-- Node11 -->
<g id="node11" class="node">
<title>Node11</title>
<g id="a_node11"><a xlink:href="algebraTrace_8hpp.html#a912bbc3ba390c6b3a01f7cae26a53588" target="_top" xlink:title="Output filter state to a file for later reading.">
<polygon fill="white" stroke="red" points="359.5,-380.5 359.5,-399.5 445.5,-399.5 445.5,-380.5 359.5,-380.5"/>
<text text-anchor="middle" x="402.5" y="-387.5" font-family="Helvetica,sans-Serif" font-size="10.00">spitFilterToFile</text>
</a>
</g>
</g>
<!-- Node10&#45;&gt;Node11 -->
<g id="edge11" class="edge">
<title>Node10&#45;&gt;Node11</title>
<path fill="none" stroke="midnightblue" d="M204.73,-247.56C218.79,-272.34 260.07,-338.9 314,-371 327.62,-379.11 344.28,-383.77 359.39,-386.45"/>
</g>
<!-- Node14 -->
<g id="node12" class="node">
<title>Node14</title>
<g id="a_node12"><a xlink:href="structKFState.html#a1d84b2acc0006963bdea090daa78685a" target="_top" xlink:title="Compare variances of measurements and pre&#45;filtered states to detect unreasonable values Ref: Wang et ...">
<polygon fill="white" stroke="black" points="328,-342.5 328,-361.5 477,-361.5 477,-342.5 328,-342.5"/>
<text text-anchor="middle" x="402.5" y="-349.5" font-family="Helvetica,sans-Serif" font-size="10.00">KFState::preFitSigmaCheck</text>
</a>
</g>
</g>
<!-- Node10&#45;&gt;Node14 -->
<g id="edge12" class="edge">
<title>Node10&#45;&gt;Node14</title>
<path fill="none" stroke="midnightblue" d="M207.92,-247.56C225.55,-266.92 268.48,-310.83 314,-333 321.97,-336.88 330.72,-339.97 339.52,-342.44"/>
</g>
<!-- Node15 -->
<g id="node13" class="node">
<title>Node15</title>
<g id="a_node13"><a xlink:href="structKFState.html#adc93fe4d98f33b24037d09e712e8400a" target="_top" xlink:title=" ">
<polygon fill="white" stroke="black" points="314.5,-304.5 314.5,-323.5 490.5,-323.5 490.5,-304.5 314.5,-304.5"/>
<text text-anchor="middle" x="402.5" y="-311.5" font-family="Helvetica,sans-Serif" font-size="10.00">KFState::doStateRejectCallbacks</text>
</a>
</g>
</g>
<!-- Node10&#45;&gt;Node15 -->
<g id="edge13" class="edge">
<title>Node10&#45;&gt;Node15</title>
<path fill="none" stroke="midnightblue" d="M215.62,-247.64C237.29,-260.21 277.34,-282.12 314,-295 324.56,-298.71 336.1,-301.84 347.24,-304.41"/>
</g>
<!-- Node16 -->
<g id="node14" class="node">
<title>Node16</title>
<g id="a_node14"><a xlink:href="structKFState.html#ae6e89a4dca53b4c6f8a5eadb1f61dd5c" target="_top" xlink:title=" ">
<polygon fill="white" stroke="black" points="314,-266.5 314,-285.5 491,-285.5 491,-266.5 314,-266.5"/>
<text text-anchor="middle" x="402.5" y="-273.5" font-family="Helvetica,sans-Serif" font-size="10.00">KFState::doMeasRejectCallbacks</text>
</a>
</g>
</g>
<!-- Node10&#45;&gt;Node16 -->
<g id="edge14" class="edge">
<title>Node10&#45;&gt;Node16</title>
<path fill="none" stroke="midnightblue" d="M250.21,-247.54C280.95,-253.32 320.03,-260.67 350.77,-266.46"/>
</g>
<!-- Node17 -->
<g id="node15" class="node">
<title>Node17</title>
<g id="a_node15"><a xlink:href="structKFState.html#a5b591c7386c7fb734067424a097ca118" target="_top" xlink:title="Kalman filter.">
<polygon fill="white" stroke="black" points="357,-228.5 357,-247.5 448,-247.5 448,-228.5 357,-228.5"/>
<text text-anchor="middle" x="402.5" y="-235.5" font-family="Helvetica,sans-Serif" font-size="10.00">KFState::kFilter</text>
</a>
</g>
</g>
<!-- Node10&#45;&gt;Node17 -->
<g id="edge15" class="edge">
<title>Node10&#45;&gt;Node17</title>
<path fill="none" stroke="midnightblue" d="M259.56,-238C290.73,-238 328.16,-238 356.75,-238"/>
</g>
<!-- Node18 -->
<g id="node16" class="node">
<title>Node18</title>
<g id="a_node16"><a xlink:href="structKFState.html#aab4e5ed0ddc781d8b4db8de02af119cc" target="_top" xlink:title="Compare variances of measurements and filtered states to detect unreasonable values.">
<polygon fill="white" stroke="red" points="323,-190.5 323,-209.5 482,-209.5 482,-190.5 323,-190.5"/>
<text text-anchor="middle" x="402.5" y="-197.5" font-family="Helvetica,sans-Serif" font-size="10.00">KFState::postFitSigmaChecks</text>
</a>
</g>
</g>
<!-- Node10&#45;&gt;Node18 -->
<g id="edge17" class="edge">
<title>Node10&#45;&gt;Node18</title>
<path fill="none" stroke="midnightblue" d="M250.21,-228.46C280.95,-222.68 320.03,-215.33 350.77,-209.54"/>
</g>
<!-- Node27 -->
<g id="node17" class="node">
<title>Node27</title>
<g id="a_node17"><a xlink:href="structKFState.html#a2280e82ccd3ebdefc388756580e5fad7" target="_top" xlink:title="Compute Chi&#45;square increment based on pre&#45;fit residuals (innovations)">
<polygon fill="white" stroke="black" points="334,-152.5 334,-171.5 471,-171.5 471,-152.5 334,-152.5"/>
<text text-anchor="middle" x="402.5" y="-159.5" font-family="Helvetica,sans-Serif" font-size="10.00">KFState::innovChiSquare</text>
</a>
</g>
</g>
<!-- Node10&#45;&gt;Node27 -->
<g id="edge18" class="edge">
<title>Node10&#45;&gt;Node27</title>
<path fill="none" stroke="midnightblue" d="M215.62,-228.36C237.29,-215.79 277.34,-193.88 314,-181 324.56,-177.29 336.1,-174.16 347.24,-171.59"/>
</g>
<!-- Node28 -->
<g id="node18" class="node">
<title>Node28</title>
<g id="a_node18"><a xlink:href="structKFState.html#a67bbec17e7e74bf5de0d83098281bfc0" target="_top" xlink:title="Compute Chi&#45;square increment based on post&#45;fit residuals.">
<polygon fill="white" stroke="black" points="334,-114.5 334,-133.5 471,-133.5 471,-114.5 334,-114.5"/>
<text text-anchor="middle" x="402.5" y="-121.5" font-family="Helvetica,sans-Serif" font-size="10.00">KFState::measChiSquare</text>
</a>
</g>
</g>
<!-- Node10&#45;&gt;Node28 -->
<g id="edge19" class="edge">
<title>Node10&#45;&gt;Node28</title>
<path fill="none" stroke="midnightblue" d="M207.92,-228.44C225.55,-209.08 268.48,-165.17 314,-143 321.97,-139.12 330.72,-136.03 339.52,-133.56"/>
</g>
<!-- Node29 -->
<g id="node19" class="node">
<title>Node29</title>
<g id="a_node19"><a xlink:href="structKFState.html#aa963c92f094f4c0f9d43eea2661723dd" target="_top" xlink:title="Compute Chi&#45;square increment based on the change of fitting solution.">
<polygon fill="white" stroke="black" points="335,-76.5 335,-95.5 470,-95.5 470,-76.5 335,-76.5"/>
<text text-anchor="middle" x="402.5" y="-83.5" font-family="Helvetica,sans-Serif" font-size="10.00">KFState::stateChiSquare</text>
</a>
</g>
</g>
<!-- Node10&#45;&gt;Node29 -->
<g id="edge20" class="edge">
<title>Node10&#45;&gt;Node29</title>
<path fill="none" stroke="midnightblue" d="M204.73,-228.44C218.79,-203.66 260.07,-137.1 314,-105 320.55,-101.1 327.79,-98 335.23,-95.54"/>
</g>
<!-- Node30 -->
<g id="node20" class="node">
<title>Node30</title>
<g id="a_node20"><a xlink:href="mongoWrite_8cpp.html#a2b60515d35b3ad7ac783de1d8539495f" target="_top" xlink:title=" ">
<polygon fill="white" stroke="black" points="358,-38.5 358,-57.5 447,-57.5 447,-38.5 358,-38.5"/>
<text text-anchor="middle" x="402.5" y="-45.5" font-family="Helvetica,sans-Serif" font-size="10.00">mongoTestStat</text>
</a>
</g>
</g>
<!-- Node10&#45;&gt;Node30 -->
<g id="edge21" class="edge">
<title>Node10&#45;&gt;Node30</title>
<path fill="none" stroke="midnightblue" d="M202.93,-228.36C213.95,-198.91 251.37,-109.6 314,-67 326.85,-58.26 343.02,-53.45 357.94,-50.83"/>
</g>
<!-- Node31 -->
<g id="node21" class="node">
<title>Node31</title>
<g id="a_node21"><a xlink:href="structKFState.html#a34fe78e0ab7a8f1d122ceabddc29b207" target="_top" xlink:title="Clears and initialises the state transition matrix to identity at the beginning of an epoch.">
<polygon fill="white" stroke="black" points="337.5,-0.5 337.5,-19.5 467.5,-19.5 467.5,-0.5 337.5,-0.5"/>
<text text-anchor="middle" x="402.5" y="-7.5" font-family="Helvetica,sans-Serif" font-size="10.00">KFState::initFilterEpoch</text>
</a>
</g>
</g>
<!-- Node10&#45;&gt;Node31 -->
<g id="edge22" class="edge">
<title>Node10&#45;&gt;Node31</title>
<path fill="none" stroke="midnightblue" d="M201.77,-228.2C210.11,-194.51 242.41,-82.49 314,-29 320.97,-23.79 329.08,-19.95 337.5,-17.13"/>
</g>
<!-- Node17&#45;&gt;Node2 -->
<g id="edge16" class="edge">
<title>Node17&#45;&gt;Node2</title>
<path fill="none" stroke="midnightblue" d="M448.17,-240C463.02,-242.56 478.86,-247.54 491,-257 535.94,-292.02 554.3,-363.25 559.68,-389.23"/>
</g>
</g>
</svg>
