<?xml version="1.0" encoding="UTF-8" standalone="no"?>
<!DOCTYPE svg PUBLIC "-//W3C//DTD SVG 1.1//EN"
 "http://www.w3.org/Graphics/SVG/1.1/DTD/svg11.dtd">
<!-- Generated by graphviz version 2.43.0 (0)
 -->
<!-- Title: GNSS_AR Pages: 1 -->
<svg width="315pt" height="142pt"
 viewBox="0.00 0.00 315.00 142.00" xmlns="http://www.w3.org/2000/svg" xmlns:xlink="http://www.w3.org/1999/xlink">
<g id="graph0" class="graph" transform="scale(1 1) rotate(0) translate(4 138)">
<title>GNSS_AR</title>
<polygon fill="white" stroke="transparent" points="-4,4 -4,-138 311,-138 311,4 -4,4"/>
<!-- Node1 -->
<g id="node1" class="node">
<title>Node1</title>
<g id="a_node1"><a xlink:title="Ambiguity resolution function for Ginan.">
<polygon fill="#bfbfbf" stroke="black" points="0,-57.5 0,-76.5 62,-76.5 62,-57.5 0,-57.5"/>
<text text-anchor="middle" x="31" y="-64.5" font-family="Helvetica,sans-Serif" font-size="10.00">GNSS_AR</text>
</a>
</g>
</g>
<!-- Node2 -->
<g id="node2" class="node">
<title>Node2</title>
<g id="a_node2"><a xlink:href="GNSSambres_8cpp.html#a8292074e76cf91e136884467b24318a0" target="_top" xlink:title="Simple integer Rounding.">
<polygon fill="white" stroke="red" points="102,-114.5 102,-133.5 185,-133.5 185,-114.5 102,-114.5"/>
<text text-anchor="middle" x="143.5" y="-121.5" font-family="Helvetica,sans-Serif" font-size="10.00">simple_round</text>
</a>
</g>
</g>
<!-- Node1&#45;&gt;Node2 -->
<g id="edge1" class="edge">
<title>Node1&#45;&gt;Node2</title>
<path fill="none" stroke="midnightblue" d="M50.74,-76.67C68.39,-85.77 95.03,-99.52 115.07,-109.85"/>
<polygon fill="midnightblue" stroke="midnightblue" points="113.54,-113 124.03,-114.47 116.75,-106.78 113.54,-113"/>
</g>
<!-- Node5 -->
<g id="node3" class="node">
<title>Node5</title>
<g id="a_node3"><a xlink:href="GNSSambres_8cpp.html#a8accdee2bb076bf972dd7b830eeee7c6" target="_top" xlink:title="Iterative Rounding.">
<polygon fill="white" stroke="red" points="225,-57.5 225,-76.5 307,-76.5 307,-57.5 225,-57.5"/>
<text text-anchor="middle" x="266" y="-64.5" font-family="Helvetica,sans-Serif" font-size="10.00">interat_round</text>
</a>
</g>
</g>
<!-- Node1&#45;&gt;Node5 -->
<g id="edge2" class="edge">
<title>Node1&#45;&gt;Node5</title>
<path fill="none" stroke="midnightblue" d="M62.46,-67C101.11,-67 168.3,-67 214.63,-67"/>
<polygon fill="midnightblue" stroke="midnightblue" points="214.76,-70.5 224.76,-67 214.76,-63.5 214.76,-70.5"/>
</g>
<!-- Node6 -->
<g id="node4" class="node">
<title>Node6</title>
<g id="a_node4"><a xlink:href="GNSSambres_8cpp.html#aef54301ffffc81fa6b235e40904b934e" target="_top" xlink:title="Integer bootstrapping.">
<polygon fill="white" stroke="red" points="100,-38.5 100,-57.5 187,-57.5 187,-38.5 100,-38.5"/>
<text text-anchor="middle" x="143.5" y="-45.5" font-family="Helvetica,sans-Serif" font-size="10.00">integer_bootst</text>
</a>
</g>
</g>
<!-- Node1&#45;&gt;Node6 -->
<g id="edge3" class="edge">
<title>Node1&#45;&gt;Node6</title>
<path fill="none" stroke="midnightblue" d="M62.19,-61.81C70.83,-60.32 80.49,-58.66 90.05,-57.02"/>
<polygon fill="midnightblue" stroke="midnightblue" points="90.65,-60.47 99.92,-55.32 89.47,-53.57 90.65,-60.47"/>
</g>
<!-- Node7 -->
<g id="node5" class="node">
<title>Node7</title>
<g id="a_node5"><a xlink:href="GNSSambres_8cpp.html#aab3dd27d035c545c6c854a6906616e79" target="_top" xlink:title="Lambda algorithm and its variations (ILQ, Common set, BIE)">
<polygon fill="white" stroke="red" points="98,-0.5 98,-19.5 189,-19.5 189,-0.5 98,-0.5"/>
<text text-anchor="middle" x="143.5" y="-7.5" font-family="Helvetica,sans-Serif" font-size="10.00">lambda_search</text>
</a>
</g>
</g>
<!-- Node1&#45;&gt;Node7 -->
<g id="edge5" class="edge">
<title>Node1&#45;&gt;Node7</title>
<path fill="none" stroke="midnightblue" d="M47.45,-57.41C60.65,-49.38 80.26,-37.86 98,-29 101.62,-27.19 105.45,-25.4 109.28,-23.67"/>
<polygon fill="midnightblue" stroke="midnightblue" points="110.95,-26.76 118.71,-19.54 108.14,-20.35 110.95,-26.76"/>
</g>
<!-- Node6&#45;&gt;Node5 -->
<g id="edge4" class="edge">
<title>Node6&#45;&gt;Node5</title>
<path fill="none" stroke="midnightblue" d="M187.32,-54.75C196.17,-56.15 205.57,-57.63 214.65,-59.06"/>
<polygon fill="midnightblue" stroke="midnightblue" points="214.31,-62.55 224.73,-60.65 215.4,-55.64 214.31,-62.55"/>
</g>
</g>
</svg>
