<?xml version="1.0" encoding="UTF-8" standalone="no"?>
<!DOCTYPE svg PUBLIC "-//W3C//DTD SVG 1.1//EN"
 "http://www.w3.org/Graphics/SVG/1.1/DTD/svg11.dtd">
<!-- Generated by graphviz version 2.43.0 (0)
 -->
<!-- Title: writeGPX Pages: 1 -->
<svg width="266pt" height="78pt"
 viewBox="0.00 0.00 266.00 77.50" xmlns="http://www.w3.org/2000/svg" xmlns:xlink="http://www.w3.org/1999/xlink">
<g id="graph0" class="graph" transform="scale(1 1) rotate(0) translate(4 73.5)">
<title>writeGPX</title>
<polygon fill="white" stroke="transparent" points="-4,4 -4,-73.5 262,-73.5 262,4 -4,4"/>
<!-- Node1 -->
<g id="node1" class="node">
<title>Node1</title>
<g id="a_node1"><a xlink:title=" ">
<polygon fill="#bfbfbf" stroke="black" points="196,-28 196,-47 258,-47 258,-28 196,-28"/>
<text text-anchor="middle" x="227" y="-35" font-family="Helvetica,sans-Serif" font-size="10.00">writeGPX</text>
</a>
</g>
</g>
<!-- Node2 -->
<g id="node2" class="node">
<title>Node2</title>
<g id="a_node2"><a xlink:href="rtsSmoothing_8cpp.html#aee37f31d0741db7c12b59e837714c170" target="_top" xlink:title=" ">
<polygon fill="white" stroke="red" points="34,-50 34,-69 126,-69 126,-50 34,-50"/>
<text text-anchor="middle" x="80" y="-57" font-family="Helvetica,sans-Serif" font-size="10.00">postRTSActions</text>
</a>
</g>
</g>
<!-- Node1&#45;&gt;Node2 -->
<g id="edge1" class="edge">
<title>Node1&#45;&gt;Node2</title>
<path fill="none" stroke="midnightblue" d="M186.05,-43.56C167.49,-46.38 145.33,-49.74 126.16,-52.65"/>
<polygon fill="midnightblue" stroke="midnightblue" points="186.59,-47.02 195.96,-42.06 185.54,-40.1 186.59,-47.02"/>
</g>
<!-- Node5 -->
<g id="node3" class="node">
<title>Node5</title>
<g id="a_node3"><a xlink:href="main_8cpp.html#a185ebe45a74ed9f7e7093979bea18755" target="_top" xlink:title=" ">
<polygon fill="white" stroke="red" points="0,-0.5 0,-30.5 160,-30.5 160,-0.5 0,-0.5"/>
<text text-anchor="start" x="8" y="-18.5" font-family="Helvetica,sans-Serif" font-size="10.00">mainPerEpochPostProcessing</text>
<text text-anchor="middle" x="80" y="-7.5" font-family="Helvetica,sans-Serif" font-size="10.00">AndOutputs</text>
</a>
</g>
</g>
<!-- Node1&#45;&gt;Node5 -->
<g id="edge2" class="edge">
<title>Node1&#45;&gt;Node5</title>
<path fill="none" stroke="midnightblue" d="M186.05,-31.44C177.9,-30.2 169.05,-28.86 160.08,-27.5"/>
<polygon fill="midnightblue" stroke="midnightblue" points="185.54,-34.9 195.96,-32.94 186.59,-27.98 185.54,-34.9"/>
</g>
</g>
</svg>
