<?xml version="1.0" encoding="UTF-8" standalone="no"?>
<!DOCTYPE svg PUBLIC "-//W3C//DTD SVG 1.1//EN"
 "http://www.w3.org/Graphics/SVG/1.1/DTD/svg11.dtd">
<!-- Generated by graphviz version 2.43.0 (0)
 -->
<!-- Title: time2yds Pages: 1 -->
<svg width="219pt" height="104pt"
 viewBox="0.00 0.00 219.00 104.00" xmlns="http://www.w3.org/2000/svg" xmlns:xlink="http://www.w3.org/1999/xlink">
<g id="graph0" class="graph" transform="scale(1 1) rotate(0) translate(4 100)">
<title>time2yds</title>
<polygon fill="white" stroke="transparent" points="-4,4 -4,-100 215,-100 215,4 -4,4"/>
<!-- Node1 -->
<g id="node1" class="node">
<title>Node1</title>
<g id="a_node1"><a xlink:title=" ">
<polygon fill="#bfbfbf" stroke="black" points="0,-38.5 0,-57.5 62,-57.5 62,-38.5 0,-38.5"/>
<text text-anchor="middle" x="31" y="-45.5" font-family="Helvetica,sans-Serif" font-size="10.00">time2yds</text>
</a>
</g>
</g>
<!-- Node2 -->
<g id="node2" class="node">
<title>Node2</title>
<g id="a_node2"><a xlink:href="gTime_8cpp.html#a210bda8e07fa8a70ce6c79948e42efe0" target="_top" xlink:title=" ">
<polygon fill="white" stroke="black" points="117.5,-76.5 117.5,-95.5 191.5,-95.5 191.5,-76.5 117.5,-76.5"/>
<text text-anchor="middle" x="154.5" y="-83.5" font-family="Helvetica,sans-Serif" font-size="10.00">time2epoch</text>
</a>
</g>
</g>
<!-- Node1&#45;&gt;Node2 -->
<g id="edge1" class="edge">
<title>Node1&#45;&gt;Node2</title>
<path fill="none" stroke="midnightblue" d="M62.03,-57.39C80.59,-63.2 104.32,-70.62 122.97,-76.45"/>
</g>
<!-- Node3 -->
<g id="node3" class="node">
<title>Node3</title>
<g id="a_node3"><a xlink:href="structDuration.html#aa0e0c9082c2072b733d2c5ef7dc55973" target="_top" xlink:title=" ">
<polygon fill="white" stroke="black" points="108.5,-38.5 108.5,-57.5 200.5,-57.5 200.5,-38.5 108.5,-38.5"/>
<text text-anchor="middle" x="154.5" y="-45.5" font-family="Helvetica,sans-Serif" font-size="10.00">Duration::to_int</text>
</a>
</g>
</g>
<!-- Node1&#45;&gt;Node3 -->
<g id="edge2" class="edge">
<title>Node1&#45;&gt;Node3</title>
<path fill="none" stroke="midnightblue" d="M62.03,-48C75.95,-48 92.78,-48 108.19,-48"/>
</g>
<!-- Node4 -->
<g id="node4" class="node">
<title>Node4</title>
<g id="a_node4"><a xlink:href="structDuration.html#a76e22d65c9f48ad9eb4e65cce4c8e415" target="_top" xlink:title=" ">
<polygon fill="white" stroke="black" points="98,-0.5 98,-19.5 211,-19.5 211,-0.5 98,-0.5"/>
<text text-anchor="middle" x="154.5" y="-7.5" font-family="Helvetica,sans-Serif" font-size="10.00">Duration::to_double</text>
</a>
</g>
</g>
<!-- Node1&#45;&gt;Node4 -->
<g id="edge3" class="edge">
<title>Node1&#45;&gt;Node4</title>
<path fill="none" stroke="midnightblue" d="M62.03,-38.61C80.59,-32.8 104.32,-25.38 122.97,-19.55"/>
</g>
</g>
</svg>
