<?xml version="1.0" encoding="UTF-8" standalone="no"?>
<!DOCTYPE svg PUBLIC "-//W3C//DTD SVG 1.1//EN"
 "http://www.w3.org/Graphics/SVG/1.1/DTD/svg11.dtd">
<!-- Generated by graphviz version 2.43.0 (0)
 -->
<!-- Title: time2gpst Pages: 1 -->
<!--zoomable 1236 -->
<svg id="main" version="1.1" xmlns="http://www.w3.org/2000/svg" xmlns:xlink="http://www.w3.org/1999/xlink" xml:space="preserve" onload="init(evt)">
<style type="text/css"><![CDATA[
.edge:hover path { stroke: red; }
.edge:hover polygon { stroke: red; fill: red; }
]]></style>
<script type="text/javascript"><![CDATA[
var edges = document.getElementsByTagName('g');
if (edges && edges.length) {
  for (var i=0;i<edges.length;i++) {
    if (edges[i].id.substr(0,4)=='edge') {
      edges[i].setAttribute('class','edge');
    }
  }
}
]]></script>
        <defs>
                <circle id="rim" cx="0" cy="0" r="7"/>
                <circle id="rim2" cx="0" cy="0" r="3.5"/>
                <g id="zoomPlus">
                        <use xlink:href="#rim" fill="#404040">
                                <set attributeName="fill" to="#808080" begin="zoomplus.mouseover" end="zoomplus.mouseout"/>
                        </use>
                        <path d="M-4,0h8M0,-4v8" fill="none" stroke="white" stroke-width="1.5" pointer-events="none"/>
                </g>
                <g id="zoomMin">
                        <use xlink:href="#rim" fill="#404040">
                                <set attributeName="fill" to="#808080" begin="zoomminus.mouseover" end="zoomminus.mouseout"/>
                        </use>
                        <path d="M-4,0h8" fill="none" stroke="white" stroke-width="1.5" pointer-events="none"/>
                </g>
                <g id="dirArrow">
                        <path fill="none" stroke="white" stroke-width="1.5" d="M0,-3.0v7 M-2.5,-0.5L0,-3.0L2.5,-0.5"/>
                </g>
               <g id="resetDef">
                       <use xlink:href="#rim2" fill="#404040">
                               <set attributeName="fill" to="#808080" begin="reset.mouseover" end="reset.mouseout"/>
                       </use>
               </g>
        </defs>

<script type="text/javascript">
var viewWidth = 497;
var viewHeight = 1236;
var sectionId = 'dynsection-26';
</script>
<script xlink:href="svgpan.js"/>
<svg id="graph" class="graph">
<g id="viewport">
<title>time2gpst</title>
<polygon fill="white" stroke="transparent" points="-4,4 -4,-1232 493,-1232 493,4 -4,4"/>
<!-- Node1 -->
<g id="node1" class="node">
<title>Node1</title>
<g id="a_node1"><a xlink:title=" ">
<polygon fill="#bfbfbf" stroke="black" points="423,-619.5 423,-638.5 489,-638.5 489,-619.5 423,-619.5"/>
<text text-anchor="middle" x="456" y="-626.5" font-family="Helvetica,sans-Serif" font-size="10.00">time2gpst</text>
</a>
</g>
</g>
<!-- Node2 -->
<g id="node2" class="node">
<title>Node2</title>
<g id="a_node2"><a xlink:href="rinex_8cpp.html#a6613c8a15b270944e8f29ebf0357c3b0" target="_top" xlink:title="Decode geo ephemeris.">
<polygon fill="white" stroke="red" points="261.5,-1208.5 261.5,-1227.5 337.5,-1227.5 337.5,-1208.5 261.5,-1208.5"/>
<text text-anchor="middle" x="299.5" y="-1215.5" font-family="Helvetica,sans-Serif" font-size="10.00">decodeSeph</text>
</a>
</g>
</g>
<!-- Node1&#45;&gt;Node2 -->
<g id="edge1" class="edge">
<title>Node1&#45;&gt;Node2</title>
<path fill="none" stroke="midnightblue" d="M455.25,-638.86C456.76,-706.87 462.34,-1106.34 387,-1194 374.91,-1208.06 355.37,-1214.24 337.92,-1216.82"/>
</g>
<!-- Node16 -->
<g id="node3" class="node">
<title>Node16</title>
<g id="a_node3"><a xlink:href="acsQC_8cpp.html#a099d227578f6d7896777651aca60fe1b" target="_top" xlink:title="Cycle slip detection and repair.">
<polygon fill="white" stroke="red" points="55.5,-904.5 55.5,-923.5 120.5,-923.5 120.5,-904.5 55.5,-904.5"/>
<text text-anchor="middle" x="88" y="-911.5" font-family="Helvetica,sans-Serif" font-size="10.00">detectslip</text>
</a>
</g>
</g>
<!-- Node1&#45;&gt;Node16 -->
<g id="edge2" class="edge">
<title>Node1&#45;&gt;Node16</title>
<path fill="none" stroke="midnightblue" d="M454.51,-638.86C450.94,-708.55 427.97,-1124.93 387,-1161 328.62,-1212.39 278.13,-1201.94 212,-1161 122.19,-1105.39 95.84,-962.33 90.26,-923.72"/>
</g>
<!-- Node19 -->
<g id="node4" class="node">
<title>Node19</title>
<g id="a_node4"><a xlink:href="rinex_8cpp.html#a30b3cdcd487d258c340534e7ddbde2e1" target="_top" xlink:title="Decode glonass ephemeris.">
<polygon fill="white" stroke="red" points="261,-1132.5 261,-1151.5 338,-1151.5 338,-1132.5 261,-1132.5"/>
<text text-anchor="middle" x="299.5" y="-1139.5" font-family="Helvetica,sans-Serif" font-size="10.00">decodeGeph</text>
</a>
</g>
</g>
<!-- Node1&#45;&gt;Node19 -->
<g id="edge3" class="edge">
<title>Node1&#45;&gt;Node19</title>
<path fill="none" stroke="midnightblue" d="M455.11,-638.86C455.62,-701.96 455.28,-1049.07 387,-1123 374.69,-1136.33 355.35,-1141.41 338.08,-1143.01"/>
</g>
<!-- Node20 -->
<g id="node5" class="node">
<title>Node20</title>
<g id="a_node5"><a xlink:href="ppp__user_8cpp.html#a2e076a3f51f99801075781e364f639bb" target="_top" xlink:title=" ">
<polygon fill="white" stroke="red" points="265,-1094.5 265,-1113.5 334,-1113.5 334,-1094.5 265,-1094.5"/>
<text text-anchor="middle" x="299.5" y="-1101.5" font-family="Helvetica,sans-Serif" font-size="10.00">pppoutstat</text>
</a>
</g>
</g>
<!-- Node1&#45;&gt;Node20 -->
<g id="edge4" class="edge">
<title>Node1&#45;&gt;Node20</title>
<path fill="none" stroke="midnightblue" d="M454.99,-638.87C454.71,-699.15 450.24,-1017.29 387,-1085 373.67,-1099.27 352.28,-1104.06 334.1,-1105.26"/>
</g>
<!-- Node22 -->
<g id="node6" class="node">
<title>Node22</title>
<g id="a_node6"><a xlink:href="sp3Write_8cpp.html#aed29c95c9a69a1717d95e354d190d5df" target="_top" xlink:title=" ">
<polygon fill="white" stroke="red" points="252,-1056.5 252,-1075.5 347,-1075.5 347,-1056.5 252,-1056.5"/>
<text text-anchor="middle" x="299.5" y="-1063.5" font-family="Helvetica,sans-Serif" font-size="10.00">writeSp3Header</text>
</a>
</g>
</g>
<!-- Node1&#45;&gt;Node22 -->
<g id="edge5" class="edge">
<title>Node1&#45;&gt;Node22</title>
<path fill="none" stroke="midnightblue" d="M454.84,-638.78C453.73,-695.87 445.25,-985.46 387,-1047 376.75,-1057.83 361.85,-1063.18 347.29,-1065.65"/>
</g>
<!-- Node6 -->
<g id="node7" class="node">
<title>Node6</title>
<g id="a_node7"><a xlink:href="brdc2sp3__main_8cpp.html#a3c04138a5bfe5d72780bb7e82a18e627" target="_top" xlink:title=" ">
<polygon fill="white" stroke="black" points="279,-1018.5 279,-1037.5 320,-1037.5 320,-1018.5 279,-1018.5"/>
<text text-anchor="middle" x="299.5" y="-1025.5" font-family="Helvetica,sans-Serif" font-size="10.00">main</text>
</a>
</g>
</g>
<!-- Node1&#45;&gt;Node6 -->
<g id="edge6" class="edge">
<title>Node1&#45;&gt;Node6</title>
<path fill="none" stroke="midnightblue" d="M454.68,-638.59C452.69,-692.12 440.31,-953.57 387,-1009 369.84,-1026.84 340.05,-1029.76 320.31,-1029.46"/>
</g>
<!-- Node27 -->
<g id="node8" class="node">
<title>Node27</title>
<g id="a_node8"><a xlink:href="ionoMeas_8cpp.html#a64f11294b91f69a27d286d8f6346b116" target="_top" xlink:title=" ">
<polygon fill="white" stroke="red" points="221,-980.5 221,-999.5 378,-999.5 378,-980.5 221,-980.5"/>
<text text-anchor="middle" x="299.5" y="-987.5" font-family="Helvetica,sans-Serif" font-size="10.00">writeReceiverMeasurements</text>
</a>
</g>
</g>
<!-- Node1&#45;&gt;Node27 -->
<g id="edge7" class="edge">
<title>Node1&#45;&gt;Node27</title>
<path fill="none" stroke="midnightblue" d="M454.47,-638.61C451.51,-688.94 435.31,-921.72 387,-971 383.34,-974.73 379.13,-977.81 374.57,-980.34"/>
</g>
<!-- Node29 -->
<g id="node9" class="node">
<title>Node29</title>
<g id="a_node9"><a xlink:href="ionoMeas_8cpp.html#a3dce4bc6a3c8a98b9f14fd6804d330c3" target="_top" xlink:title=" ">
<polygon fill="white" stroke="red" points="237,-942.5 237,-961.5 362,-961.5 362,-942.5 237,-942.5"/>
<text text-anchor="middle" x="299.5" y="-949.5" font-family="Helvetica,sans-Serif" font-size="10.00">update_receivr_measr</text>
</a>
</g>
</g>
<!-- Node1&#45;&gt;Node29 -->
<g id="edge8" class="edge">
<title>Node1&#45;&gt;Node29</title>
<path fill="none" stroke="midnightblue" d="M454.2,-638.77C450.14,-685.97 430.3,-889.87 387,-933 380.14,-939.84 371.41,-944.46 362.16,-947.54"/>
</g>
<!-- Node30 -->
<g id="node10" class="node">
<title>Node30</title>
<g id="a_node10"><a xlink:href="acsQC_8cpp.html#ae52b478bb7d30e6aaf8f0e6b4e526681" target="_top" xlink:title="Cycle slip detection and repair for dual&#45;frequency.">
<polygon fill="white" stroke="black" points="267,-904.5 267,-923.5 332,-923.5 332,-904.5 267,-904.5"/>
<text text-anchor="middle" x="299.5" y="-911.5" font-family="Helvetica,sans-Serif" font-size="10.00">cycleslip2</text>
</a>
</g>
</g>
<!-- Node1&#45;&gt;Node30 -->
<g id="edge9" class="edge">
<title>Node1&#45;&gt;Node30</title>
<path fill="none" stroke="midnightblue" d="M453.88,-638.69C448.66,-682.07 425.39,-857.9 387,-895 372.63,-908.89 350.55,-913.57 332.29,-914.82"/>
</g>
<!-- Node31 -->
<g id="node11" class="node">
<title>Node31</title>
<g id="a_node11"><a xlink:href="ionexWrite_8cpp.html#a5071cc56abab8807ec53478520546afa" target="_top" xlink:title=" ">
<polygon fill="white" stroke="red" points="250.5,-866.5 250.5,-885.5 348.5,-885.5 348.5,-866.5 250.5,-866.5"/>
<text text-anchor="middle" x="299.5" y="-873.5" font-family="Helvetica,sans-Serif" font-size="10.00">writeIonexEpoch</text>
</a>
</g>
</g>
<!-- Node1&#45;&gt;Node31 -->
<g id="edge11" class="edge">
<title>Node1&#45;&gt;Node31</title>
<path fill="none" stroke="midnightblue" d="M455.31,-638.53C455.9,-673.47 452.97,-795.71 387,-857 376.64,-866.63 362.55,-871.79 348.76,-874.45"/>
</g>
<!-- Node34 -->
<g id="node12" class="node">
<title>Node34</title>
<g id="a_node12"><a xlink:href="structRtcmDecoder.html#a1396a506d3b48a90a3c160f80a78173a" target="_top" xlink:title=" ">
<polygon fill="white" stroke="black" points="226,-828.5 226,-847.5 373,-847.5 373,-828.5 226,-828.5"/>
<text text-anchor="middle" x="299.5" y="-835.5" font-family="Helvetica,sans-Serif" font-size="10.00">RtcmDecoder::adjgpsweek</text>
</a>
</g>
</g>
<!-- Node1&#45;&gt;Node34 -->
<g id="edge12" class="edge">
<title>Node1&#45;&gt;Node34</title>
<path fill="none" stroke="midnightblue" d="M454.65,-638.66C452.99,-669.98 443.28,-769.47 387,-819 382.73,-822.76 377.89,-825.83 372.73,-828.33"/>
</g>
<!-- Node35 -->
<g id="node13" class="node">
<title>Node35</title>
<g id="a_node13"><a xlink:href="structRtcmDecoder.html#a6673aa5a16d7e997de9ce5e43fac7860" target="_top" xlink:title=" ">
<polygon fill="white" stroke="red" points="0,-410.5 0,-429.5 176,-429.5 176,-410.5 0,-410.5"/>
<text text-anchor="middle" x="88" y="-417.5" font-family="Helvetica,sans-Serif" font-size="10.00">RtcmDecoder::decodeEphemeris</text>
</a>
</g>
</g>
<!-- Node1&#45;&gt;Node35 -->
<g id="edge25" class="edge">
<title>Node1&#45;&gt;Node35</title>
<path fill="none" stroke="midnightblue" d="M454.96,-619.43C454.24,-587.53 447.17,-484.31 387,-439 354.85,-414.79 252.1,-412.96 176.2,-415.26"/>
</g>
<!-- Node41 -->
<g id="node14" class="node">
<title>Node41</title>
<g id="a_node14"><a xlink:href="gTime_8cpp.html#aacaf6ccad3d0a2026f8bb4273dfc225d" target="_top" xlink:title=" ">
<polygon fill="white" stroke="black" points="262,-790.5 262,-809.5 337,-809.5 337,-790.5 262,-790.5"/>
<text text-anchor="middle" x="299.5" y="-797.5" font-family="Helvetica,sans-Serif" font-size="10.00">adjgpsweek</text>
</a>
</g>
</g>
<!-- Node1&#45;&gt;Node41 -->
<g id="edge14" class="edge">
<title>Node1&#45;&gt;Node41</title>
<path fill="none" stroke="midnightblue" d="M453.7,-638.63C449.53,-665.68 433.86,-742.86 387,-781 373.17,-792.26 354.11,-797.22 337.4,-799.27"/>
</g>
<!-- Node42 -->
<g id="node15" class="node">
<title>Node42</title>
<g id="a_node15"><a xlink:href="rinexNavWrite_8cpp.html#aaab5fb708037f164d86cfa62039eb845" target="_top" xlink:title=" ">
<polygon fill="white" stroke="red" points="251.5,-752.5 251.5,-771.5 347.5,-771.5 347.5,-752.5 251.5,-752.5"/>
<text text-anchor="middle" x="299.5" y="-759.5" font-family="Helvetica,sans-Serif" font-size="10.00">rinexNavHeader</text>
</a>
</g>
</g>
<!-- Node1&#45;&gt;Node42 -->
<g id="edge15" class="edge">
<title>Node1&#45;&gt;Node42</title>
<path fill="none" stroke="midnightblue" d="M452.14,-638.77C445.07,-661.08 424.58,-715.91 387,-743 375.65,-751.18 361.44,-755.95 347.84,-758.69"/>
</g>
<!-- Node45 -->
<g id="node16" class="node">
<title>Node45</title>
<g id="a_node16"><a xlink:href="acsQC_8cpp.html#a50b9ebf4a56ec6edec979531b0515887" target="_top" xlink:title="Cycle slip detection and repair for triple&#45;frequency.">
<polygon fill="white" stroke="black" points="267,-714.5 267,-733.5 332,-733.5 332,-714.5 267,-714.5"/>
<text text-anchor="middle" x="299.5" y="-721.5" font-family="Helvetica,sans-Serif" font-size="10.00">cycleslip3</text>
</a>
</g>
</g>
<!-- Node1&#45;&gt;Node45 -->
<g id="edge16" class="edge">
<title>Node1&#45;&gt;Node45</title>
<path fill="none" stroke="midnightblue" d="M449.24,-638.69C438.94,-655.1 415.74,-688.21 387,-705 370.4,-714.69 349.39,-719.45 332.23,-721.78"/>
</g>
<!-- Node46 -->
<g id="node17" class="node">
<title>Node46</title>
<g id="a_node17"><a xlink:href="rinexNavWrite_8cpp.html#a44ce18e58314bf68508dc220c1e807cc" target="_top" xlink:title=" ">
<polygon fill="white" stroke="red" points="242,-676.5 242,-695.5 357,-695.5 357,-676.5 242,-676.5"/>
<text text-anchor="middle" x="299.5" y="-683.5" font-family="Helvetica,sans-Serif" font-size="10.00">outputNavRinexEOP</text>
</a>
</g>
</g>
<!-- Node1&#45;&gt;Node46 -->
<g id="edge18" class="edge">
<title>Node1&#45;&gt;Node46</title>
<path fill="none" stroke="midnightblue" d="M437.49,-638.59C423.98,-645.72 404.68,-655.32 387,-662 372.13,-667.62 355.38,-672.57 340.6,-676.49"/>
</g>
<!-- Node49 -->
<g id="node18" class="node">
<title>Node49</title>
<g id="a_node18"><a xlink:href="GinARoutpt_8cpp.html#a2952ccee33c3cebafed9b014755ce986" target="_top" xlink:title="Output phase biases.">
<polygon fill="white" stroke="red" points="59.5,-353.5 59.5,-372.5 116.5,-372.5 116.5,-353.5 59.5,-353.5"/>
<text text-anchor="middle" x="88" y="-360.5" font-family="Helvetica,sans-Serif" font-size="10.00">arbiaout</text>
</a>
</g>
</g>
<!-- Node1&#45;&gt;Node49 -->
<g id="edge19" class="edge">
<title>Node1&#45;&gt;Node49</title>
<path fill="none" stroke="midnightblue" d="M429.34,-638.61C380.58,-655.03 273.9,-681.89 212,-629 134.01,-562.36 238.72,-482.18 176,-401 161.69,-382.48 136.49,-372.81 116.88,-367.88"/>
</g>
<!-- Node54 -->
<g id="node19" class="node">
<title>Node54</title>
<g id="a_node19"><a xlink:href="structRtcmDecoder.html#a30e1272fcf539706e94183c7835a36e0" target="_top" xlink:title=" ">
<polygon fill="white" stroke="red" points="231,-600.5 231,-619.5 368,-619.5 368,-600.5 231,-600.5"/>
<text text-anchor="middle" x="299.5" y="-607.5" font-family="Helvetica,sans-Serif" font-size="10.00">RtcmDecoder::tow2Time</text>
</a>
</g>
</g>
<!-- Node1&#45;&gt;Node54 -->
<g id="edge20" class="edge">
<title>Node1&#45;&gt;Node54</title>
<path fill="none" stroke="midnightblue" d="M422.99,-625.06C407.08,-623.11 387.22,-620.66 368.15,-618.32"/>
</g>
<!-- Node57 -->
<g id="node20" class="node">
<title>Node57</title>
<g id="a_node20"><a xlink:href="rinexNavWrite_8cpp.html#a1f47486483dce4060d409ab0a0e43698" target="_top" xlink:title=" ">
<polygon fill="white" stroke="red" points="242,-562.5 242,-581.5 357,-581.5 357,-562.5 242,-562.5"/>
<text text-anchor="middle" x="299.5" y="-569.5" font-family="Helvetica,sans-Serif" font-size="10.00">outputNavRinexSTO</text>
</a>
</g>
</g>
<!-- Node1&#45;&gt;Node57 -->
<g id="edge21" class="edge">
<title>Node1&#45;&gt;Node57</title>
<path fill="none" stroke="midnightblue" d="M440.75,-619.4C427.39,-610.8 406.6,-598.44 387,-591 377.08,-587.23 366.23,-584.12 355.66,-581.57"/>
</g>
<!-- Node58 -->
<g id="node21" class="node">
<title>Node58</title>
<g id="a_node21"><a xlink:href="rinexNavWrite_8cpp.html#a751a48d904460a987ac675171d6d9239" target="_top" xlink:title=" ">
<polygon fill="white" stroke="red" points="239.5,-524.5 239.5,-543.5 359.5,-543.5 359.5,-524.5 239.5,-524.5"/>
<text text-anchor="middle" x="299.5" y="-531.5" font-family="Helvetica,sans-Serif" font-size="10.00">outputNavRinexCeph</text>
</a>
</g>
</g>
<!-- Node1&#45;&gt;Node58 -->
<g id="edge22" class="edge">
<title>Node1&#45;&gt;Node58</title>
<path fill="none" stroke="midnightblue" d="M449.24,-619.31C438.94,-602.9 415.74,-569.79 387,-553 378.64,-548.12 369.15,-544.48 359.6,-541.79"/>
</g>
<!-- Node59 -->
<g id="node22" class="node">
<title>Node59</title>
<g id="a_node22"><a xlink:href="rinexNavWrite_8cpp.html#a46fd4ea12d70dbba01d33413b01d175f" target="_top" xlink:title=" ">
<polygon fill="white" stroke="red" points="239,-486.5 239,-505.5 360,-505.5 360,-486.5 239,-486.5"/>
<text text-anchor="middle" x="299.5" y="-493.5" font-family="Helvetica,sans-Serif" font-size="10.00">outputNavRinexGeph</text>
</a>
</g>
</g>
<!-- Node1&#45;&gt;Node59 -->
<g id="edge23" class="edge">
<title>Node1&#45;&gt;Node59</title>
<path fill="none" stroke="midnightblue" d="M452.14,-619.23C445.07,-596.92 424.58,-542.09 387,-515 379.02,-509.25 369.62,-505.18 360.01,-502.32"/>
</g>
<!-- Node60 -->
<g id="node23" class="node">
<title>Node60</title>
<g id="a_node23"><a xlink:href="GinARoutpt_8cpp.html#a15eeefdc06bd3997b9c8dd4bbc9c4088" target="_top" xlink:title="Output ambiguity measurments/states.">
<polygon fill="white" stroke="red" points="272,-448.5 272,-467.5 327,-467.5 327,-448.5 272,-448.5"/>
<text text-anchor="middle" x="299.5" y="-455.5" font-family="Helvetica,sans-Serif" font-size="10.00">artrcout</text>
</a>
</g>
</g>
<!-- Node1&#45;&gt;Node60 -->
<g id="edge24" class="edge">
<title>Node1&#45;&gt;Node60</title>
<path fill="none" stroke="midnightblue" d="M453.7,-619.37C449.53,-592.32 433.86,-515.14 387,-477 370.19,-463.31 345.65,-458.94 327,-457.77"/>
</g>
<!-- Node61 -->
<g id="node24" class="node">
<title>Node61</title>
<g id="a_node24"><a xlink:href="structRtcmTrace.html#a6a1c3b7cb0f2b3e1e694a6772e4206b1" target="_top" xlink:title=" ">
<polygon fill="white" stroke="black" points="232.5,-372.5 232.5,-391.5 366.5,-391.5 366.5,-372.5 232.5,-372.5"/>
<text text-anchor="middle" x="299.5" y="-379.5" font-family="Helvetica,sans-Serif" font-size="10.00">RtcmTrace::traceBroEph</text>
</a>
</g>
</g>
<!-- Node1&#45;&gt;Node61 -->
<g id="edge26" class="edge">
<title>Node1&#45;&gt;Node61</title>
<path fill="none" stroke="midnightblue" d="M455.12,-619.32C455.02,-584.91 449.89,-467.31 387,-406 380.53,-399.69 372.55,-395.01 364.08,-391.54"/>
</g>
<!-- Node62 -->
<g id="node25" class="node">
<title>Node62</title>
<g id="a_node25"><a xlink:href="biasSINEXwrite_8cpp.html#a3193a7ae3e27dfbd3caaaba922a113cb" target="_top" xlink:title="Store bias output to write into bias SINEX files.">
<polygon fill="white" stroke="red" points="267.5,-334.5 267.5,-353.5 331.5,-353.5 331.5,-334.5 267.5,-334.5"/>
<text text-anchor="middle" x="299.5" y="-341.5" font-family="Helvetica,sans-Serif" font-size="10.00">outp_bias</text>
</a>
</g>
</g>
<!-- Node1&#45;&gt;Node62 -->
<g id="edge28" class="edge">
<title>Node1&#45;&gt;Node62</title>
<path fill="none" stroke="midnightblue" d="M453.88,-619.31C448.66,-575.93 425.39,-400.1 387,-363 372.52,-349 350.21,-344.36 331.87,-343.15"/>
</g>
<!-- Node63 -->
<g id="node26" class="node">
<title>Node63</title>
<g id="a_node26"><a xlink:href="rinexNavWrite_8cpp.html#af49aa619a891c6d00f32ac721ab01cd0" target="_top" xlink:title=" ">
<polygon fill="white" stroke="red" points="243,-296.5 243,-315.5 356,-315.5 356,-296.5 243,-296.5"/>
<text text-anchor="middle" x="299.5" y="-303.5" font-family="Helvetica,sans-Serif" font-size="10.00">outputNavRinexEph</text>
</a>
</g>
</g>
<!-- Node1&#45;&gt;Node63 -->
<g id="edge30" class="edge">
<title>Node1&#45;&gt;Node63</title>
<path fill="none" stroke="midnightblue" d="M454.2,-619.23C450.14,-572.03 430.3,-368.13 387,-325 378.72,-316.75 367.73,-311.73 356.38,-308.74"/>
</g>
<!-- Node64 -->
<g id="node27" class="node">
<title>Node64</title>
<g id="a_node27"><a xlink:href="structNtripUploader.html#a0763f31214a177f3d9be2301138fd0e7" target="_top" xlink:title=" ">
<polygon fill="white" stroke="red" points="212,-229 212,-259 387,-259 387,-229 212,-229"/>
<text text-anchor="start" x="220" y="-247" font-family="Helvetica,sans-Serif" font-size="10.00">NtripUploader::messageTimeout</text>
<text text-anchor="middle" x="299.5" y="-236" font-family="Helvetica,sans-Serif" font-size="10.00">_hanlder</text>
</a>
</g>
</g>
<!-- Node1&#45;&gt;Node64 -->
<g id="edge31" class="edge">
<title>Node1&#45;&gt;Node64</title>
<path fill="none" stroke="midnightblue" d="M454.21,-619.26C450.02,-569.27 428.83,-341.7 387,-287 377.53,-274.61 363.52,-265.55 349.52,-259.03"/>
</g>
<!-- Node67 -->
<g id="node28" class="node">
<title>Node67</title>
<g id="a_node28"><a xlink:href="linearCombo_8cpp.html#aa1b18e5a14543945bb9c7929e8aa4fce" target="_top" xlink:title="Function to prepare some predefined linear combinations from an observation.">
<polygon fill="white" stroke="black" points="275.5,-190.5 275.5,-209.5 323.5,-209.5 323.5,-190.5 275.5,-190.5"/>
<text text-anchor="middle" x="299.5" y="-197.5" font-family="Helvetica,sans-Serif" font-size="10.00">obs2lc</text>
</a>
</g>
</g>
<!-- Node1&#45;&gt;Node67 -->
<g id="edge33" class="edge">
<title>Node1&#45;&gt;Node67</title>
<path fill="none" stroke="midnightblue" d="M454.8,-619.43C453.44,-563.62 443.8,-280.46 387,-220 370.96,-202.92 343.47,-199.08 323.79,-198.77"/>
</g>
<!-- Node68 -->
<g id="node29" class="node">
<title>Node68</title>
<g id="a_node29"><a xlink:href="linearCombo_8cpp.html#a600e3c4eaf808e42c88785d56dc70350" target="_top" xlink:title="Function to prepare some predefined linear combinations from a list of observations.">
<polygon fill="white" stroke="red" points="61.5,-152.5 61.5,-171.5 114.5,-171.5 114.5,-152.5 61.5,-152.5"/>
<text text-anchor="middle" x="88" y="-159.5" font-family="Helvetica,sans-Serif" font-size="10.00">obs2lcs</text>
</a>
</g>
</g>
<!-- Node1&#45;&gt;Node68 -->
<g id="edge36" class="edge">
<title>Node1&#45;&gt;Node68</title>
<path fill="none" stroke="midnightblue" d="M455.28,-619.11C456.81,-555.8 461.73,-208 387,-143 306.03,-72.57 161.17,-128.46 108.67,-152.44"/>
</g>
<!-- Node69 -->
<g id="node30" class="node">
<title>Node69</title>
<g id="a_node30"><a xlink:href="corrections_8cpp.html#a62c81439777b5986075d04b0d9a13082" target="_top" xlink:title=" ">
<polygon fill="white" stroke="red" points="268.5,-152.5 268.5,-171.5 330.5,-171.5 330.5,-152.5 268.5,-152.5"/>
<text text-anchor="middle" x="299.5" y="-159.5" font-family="Helvetica,sans-Serif" font-size="10.00">ionmodel</text>
</a>
</g>
</g>
<!-- Node1&#45;&gt;Node69 -->
<g id="edge35" class="edge">
<title>Node1&#45;&gt;Node69</title>
<path fill="none" stroke="midnightblue" d="M454.96,-619.3C454.52,-560.08 449.24,-247.46 387,-181 372.81,-165.85 349.53,-161.39 330.7,-160.57"/>
</g>
<!-- Node78 -->
<g id="node31" class="node">
<title>Node78</title>
<g id="a_node31"><a xlink:href="rinex_8cpp.html#a49860903ba3deda27374072016e16fbb" target="_top" xlink:title="Decode CNVX ephemeris.">
<polygon fill="white" stroke="red" points="261,-76.5 261,-95.5 338,-95.5 338,-76.5 261,-76.5"/>
<text text-anchor="middle" x="299.5" y="-83.5" font-family="Helvetica,sans-Serif" font-size="10.00">decodeCeph</text>
</a>
</g>
</g>
<!-- Node1&#45;&gt;Node78 -->
<g id="edge37" class="edge">
<title>Node1&#45;&gt;Node78</title>
<path fill="none" stroke="midnightblue" d="M455.13,-619.12C455.81,-554.29 456.43,-189.93 387,-110 374.94,-96.12 355.62,-89.93 338.29,-87.3"/>
</g>
<!-- Node79 -->
<g id="node32" class="node">
<title>Node79</title>
<g id="a_node32"><a xlink:href="rinex_8cpp.html#abf5c2200567764637e86c93fa34ea658" target="_top" xlink:title="Decode STO message.">
<polygon fill="white" stroke="red" points="265.5,-38.5 265.5,-57.5 333.5,-57.5 333.5,-38.5 265.5,-38.5"/>
<text text-anchor="middle" x="299.5" y="-45.5" font-family="Helvetica,sans-Serif" font-size="10.00">decodeSto</text>
</a>
</g>
</g>
<!-- Node1&#45;&gt;Node79 -->
<g id="edge38" class="edge">
<title>Node1&#45;&gt;Node79</title>
<path fill="none" stroke="midnightblue" d="M454.49,-619.14C450.67,-547.59 425.83,-109.74 387,-67 373.77,-52.43 352.14,-47.68 333.82,-46.58"/>
</g>
<!-- Node80 -->
<g id="node33" class="node">
<title>Node80</title>
<g id="a_node33"><a xlink:href="rinex_8cpp.html#a47e197e8bad4103334d186f5fde306eb" target="_top" xlink:title="Decode EOP message.">
<polygon fill="white" stroke="red" points="264.5,-0.5 264.5,-19.5 334.5,-19.5 334.5,-0.5 264.5,-0.5"/>
<text text-anchor="middle" x="299.5" y="-7.5" font-family="Helvetica,sans-Serif" font-size="10.00">decodeEop</text>
</a>
</g>
</g>
<!-- Node1&#45;&gt;Node80 -->
<g id="edge39" class="edge">
<title>Node1&#45;&gt;Node80</title>
<path fill="none" stroke="midnightblue" d="M454.58,-619.43C451.26,-546.09 428.42,-74.94 387,-29 374.03,-14.61 352.87,-9.78 334.73,-8.59"/>
</g>
<!-- Node30&#45;&gt;Node16 -->
<g id="edge10" class="edge">
<title>Node30&#45;&gt;Node16</title>
<path fill="none" stroke="midnightblue" d="M266.68,-914C227.19,-914 160.24,-914 120.77,-914"/>
</g>
<!-- Node34&#45;&gt;Node35 -->
<g id="edge13" class="edge">
<title>Node34&#45;&gt;Node35</title>
<path fill="none" stroke="midnightblue" d="M225.67,-828.33C220.71,-825.82 216.07,-822.75 212,-819 90.66,-707.32 87.85,-479.03 88.72,-429.58"/>
</g>
<!-- Node45&#45;&gt;Node16 -->
<g id="edge17" class="edge">
<title>Node45&#45;&gt;Node16</title>
<path fill="none" stroke="midnightblue" d="M266.76,-725.49C249.39,-727.59 228.19,-732.36 212,-743 147.22,-785.6 105.38,-874.91 92.91,-904.36"/>
</g>
<!-- Node61&#45;&gt;Node35 -->
<g id="edge27" class="edge">
<title>Node61&#45;&gt;Node35</title>
<path fill="none" stroke="midnightblue" d="M245.9,-391.54C214.03,-397.32 173.5,-404.67 141.62,-410.46"/>
</g>
<!-- Node62&#45;&gt;Node49 -->
<g id="edge29" class="edge">
<title>Node62&#45;&gt;Node49</title>
<path fill="none" stroke="midnightblue" d="M267.14,-346.84C226.27,-350.55 155.46,-356.97 116.56,-360.5"/>
</g>
<!-- Node64&#45;&gt;Node64 -->
<g id="edge32" class="edge">
<title>Node64&#45;&gt;Node64</title>
<path fill="none" stroke="midnightblue" d="M326.69,-259.16C333.24,-268.56 324.18,-277.5 299.5,-277.5 274.82,-277.5 265.76,-268.56 272.31,-259.16"/>
</g>
<!-- Node67&#45;&gt;Node68 -->
<g id="edge34" class="edge">
<title>Node67&#45;&gt;Node68</title>
<path fill="none" stroke="midnightblue" d="M275.28,-195.79C235.75,-188.62 155.7,-174.1 114.61,-166.64"/>
</g>
</g>
</svg>
        <g id="navigator" transform="translate(0 0)" fill="#404254">
                <rect fill="#f2f5e9" fill-opacity="0.5" stroke="#606060" stroke-width=".5" x="0" y="0" width="60" height="60"/>
                <use id="zoomplus" xlink:href="#zoomPlus" x="17" y="9" onmousedown="handleZoom(evt,'in')"/>
                <use id="zoomminus" xlink:href="#zoomMin" x="42" y="9" onmousedown="handleZoom(evt,'out')"/>
                <use id="reset" xlink:href="#resetDef" x="30" y="36" onmousedown="handleReset()"/>
                <g id="arrowUp" xlink:href="#dirArrow" transform="translate(30 24)" onmousedown="handlePan(0,-1)">
                  <use xlink:href="#rim" fill="#404040">
                        <set attributeName="fill" to="#808080" begin="arrowUp.mouseover" end="arrowUp.mouseout"/>
                  </use>
                  <path fill="none" stroke="white" stroke-width="1.5" d="M0,-3.0v7 M-2.5,-0.5L0,-3.0L2.5,-0.5"/>
                </g>
                <g id="arrowRight" xlink:href="#dirArrow" transform="rotate(90) translate(36 -43)" onmousedown="handlePan(1,0)">
                  <use xlink:href="#rim" fill="#404040">
                        <set attributeName="fill" to="#808080" begin="arrowRight.mouseover" end="arrowRight.mouseout"/>
                  </use>
                  <path fill="none" stroke="white" stroke-width="1.5" d="M0,-3.0v7 M-2.5,-0.5L0,-3.0L2.5,-0.5"/>
                </g>
                <g id="arrowDown" xlink:href="#dirArrow" transform="rotate(180) translate(-30 -48)" onmousedown="handlePan(0,1)">
                  <use xlink:href="#rim" fill="#404040">
                        <set attributeName="fill" to="#808080" begin="arrowDown.mouseover" end="arrowDown.mouseout"/>
                  </use>
                  <path fill="none" stroke="white" stroke-width="1.5" d="M0,-3.0v7 M-2.5,-0.5L0,-3.0L2.5,-0.5"/>
                </g>
                <g id="arrowLeft" xlink:href="#dirArrow" transform="rotate(270) translate(-36 17)" onmousedown="handlePan(-1,0)">
                  <use xlink:href="#rim" fill="#404040">
                        <set attributeName="fill" to="#808080" begin="arrowLeft.mouseover" end="arrowLeft.mouseout"/>
                  </use>
                  <path fill="none" stroke="white" stroke-width="1.5" d="M0,-3.0v7 M-2.5,-0.5L0,-3.0L2.5,-0.5"/>
                </g>
        </g>
        <svg viewBox="0 0 15 15" width="100%" height="30px" preserveAspectRatio="xMaxYMin meet">
         <g id="arrow_out" transform="scale(0.3 0.3)">
          <a xlink:href="gTime_8hpp_a4f7f1adc4cf9176be8d9a04b3dab1f6e_icgraph_org.svg" target="_base">
           <rect id="button" ry="5" rx="5" y="6" x="6" height="38" width="38"
                fill="#f2f5e9" fill-opacity="0.5" stroke="#606060" stroke-width="1.0"/>
           <path id="arrow"
             d="M 11.500037,31.436501 C 11.940474,20.09759 22.043105,11.32322 32.158766,21.979434 L 37.068811,17.246167 C 37.068811,17.246167 37.088388,32 37.088388,32 L 22.160133,31.978069 C 22.160133,31.978069 26.997745,27.140456 26.997745,27.140456 C 18.528582,18.264221 13.291696,25.230495 11.500037,31.436501 z"
             style="fill:#404040;"/>
          </a>
         </g>
        </svg>
</svg>
