<?xml version="1.0" encoding="UTF-8" standalone="no"?>
<!DOCTYPE svg PUBLIC "-//W3C//DTD SVG 1.1//EN"
 "http://www.w3.org/Graphics/SVG/1.1/DTD/svg11.dtd">
<!-- Generated by graphviz version 2.43.0 (0)
 -->
<!-- Title: yds2time Pages: 1 -->
<svg width="265pt" height="180pt"
 viewBox="0.00 0.00 265.00 180.00" xmlns="http://www.w3.org/2000/svg" xmlns:xlink="http://www.w3.org/1999/xlink">
<g id="graph0" class="graph" transform="scale(1 1) rotate(0) translate(4 176)">
<title>yds2time</title>
<polygon fill="white" stroke="transparent" points="-4,4 -4,-176 261,-176 261,4 -4,4"/>
<!-- Node1 -->
<g id="node1" class="node">
<title>Node1</title>
<g id="a_node1"><a xlink:title=" ">
<polygon fill="#bfbfbf" stroke="black" points="195,-76.5 195,-95.5 257,-95.5 257,-76.5 195,-76.5"/>
<text text-anchor="middle" x="226" y="-83.5" font-family="Helvetica,sans-Serif" font-size="10.00">yds2time</text>
</a>
</g>
</g>
<!-- Node2 -->
<g id="node2" class="node">
<title>Node2</title>
<g id="a_node2"><a xlink:href="sinex_8cpp.html#ade90173e39d6fd3da1b76fa092107ede" target="_top" xlink:title=" ">
<polygon fill="white" stroke="red" points="21.5,-152.5 21.5,-171.5 137.5,-171.5 137.5,-152.5 21.5,-152.5"/>
<text text-anchor="middle" x="79.5" y="-159.5" font-family="Helvetica,sans-Serif" font-size="10.00">parse_snx_receivers</text>
</a>
</g>
</g>
<!-- Node1&#45;&gt;Node2 -->
<g id="edge1" class="edge">
<title>Node1&#45;&gt;Node2</title>
<path fill="none" stroke="midnightblue" d="M216.64,-95.65C205.01,-108.44 182.7,-130.82 159,-143 151.52,-146.85 143.23,-149.93 134.93,-152.41"/>
</g>
<!-- Node7 -->
<g id="node3" class="node">
<title>Node7</title>
<g id="a_node3"><a xlink:href="sinex_8cpp.html#a3d3d66a353270215f4141338f0c3a82e" target="_top" xlink:title=" ">
<polygon fill="white" stroke="red" points="21.5,-114.5 21.5,-133.5 137.5,-133.5 137.5,-114.5 21.5,-114.5"/>
<text text-anchor="middle" x="79.5" y="-121.5" font-family="Helvetica,sans-Serif" font-size="10.00">parse_snx_antennas</text>
</a>
</g>
</g>
<!-- Node1&#45;&gt;Node7 -->
<g id="edge2" class="edge">
<title>Node1&#45;&gt;Node7</title>
<path fill="none" stroke="midnightblue" d="M194.85,-94.97C183.62,-98.24 170.76,-101.89 159,-105 146.8,-108.23 133.48,-111.54 121.33,-114.47"/>
</g>
<!-- Node8 -->
<g id="node4" class="node">
<title>Node8</title>
<g id="a_node4"><a xlink:href="sinex_8cpp.html#ab8695a6ca620f537ebb155fc912d8956" target="_top" xlink:title=" ">
<polygon fill="white" stroke="red" points="6.5,-76.5 6.5,-95.5 152.5,-95.5 152.5,-76.5 6.5,-76.5"/>
<text text-anchor="middle" x="79.5" y="-83.5" font-family="Helvetica,sans-Serif" font-size="10.00">parse_snx_siteEccentricity</text>
</a>
</g>
</g>
<!-- Node1&#45;&gt;Node8 -->
<g id="edge3" class="edge">
<title>Node1&#45;&gt;Node8</title>
<path fill="none" stroke="midnightblue" d="M194.71,-86C182.38,-86 167.55,-86 152.73,-86"/>
</g>
<!-- Node9 -->
<g id="node5" class="node">
<title>Node9</title>
<g id="a_node5"><a xlink:href="sinex_8cpp.html#ad9c72e556c88b288d2967405d1084978" target="_top" xlink:title=" ">
<polygon fill="white" stroke="red" points="0,-38.5 0,-57.5 159,-57.5 159,-38.5 0,-38.5"/>
<text text-anchor="middle" x="79.5" y="-45.5" font-family="Helvetica,sans-Serif" font-size="10.00">parse_snx_solutionEstimates</text>
</a>
</g>
</g>
<!-- Node1&#45;&gt;Node9 -->
<g id="edge4" class="edge">
<title>Node1&#45;&gt;Node9</title>
<path fill="none" stroke="midnightblue" d="M194.85,-77.03C183.62,-73.76 170.76,-70.11 159,-67 146.8,-63.77 133.48,-60.46 121.33,-57.53"/>
</g>
<!-- Node10 -->
<g id="node6" class="node">
<title>Node10</title>
<g id="a_node6"><a xlink:href="sinex_8cpp.html#af6a5f07daf9e8d4806b3d9db1509e4c2" target="_top" xlink:title=" ">
<polygon fill="white" stroke="red" points="47,-0.5 47,-19.5 112,-19.5 112,-0.5 47,-0.5"/>
<text text-anchor="middle" x="79.5" y="-7.5" font-family="Helvetica,sans-Serif" font-size="10.00">getstnsnx</text>
</a>
</g>
</g>
<!-- Node1&#45;&gt;Node10 -->
<g id="edge5" class="edge">
<title>Node1&#45;&gt;Node10</title>
<path fill="none" stroke="midnightblue" d="M216.64,-76.35C205.01,-63.56 182.7,-41.18 159,-29 144.53,-21.56 127.06,-16.96 112.27,-14.16"/>
</g>
</g>
</svg>
