<?xml version="1.0" encoding="UTF-8" standalone="no"?>
<!DOCTYPE svg PUBLIC "-//W3C//DTD SVG 1.1//EN"
 "http://www.w3.org/Graphics/SVG/1.1/DTD/svg11.dtd">
<!-- Generated by graphviz version 2.43.0 (0)
 -->
<!-- Title: bdt2time Pages: 1 -->
<svg width="182pt" height="180pt"
 viewBox="0.00 0.00 182.00 180.00" xmlns="http://www.w3.org/2000/svg" xmlns:xlink="http://www.w3.org/1999/xlink">
<g id="graph0" class="graph" transform="scale(1 1) rotate(0) translate(4 176)">
<title>bdt2time</title>
<polygon fill="white" stroke="transparent" points="-4,4 -4,-176 178,-176 178,4 -4,4"/>
<!-- Node1 -->
<g id="node1" class="node">
<title>Node1</title>
<g id="a_node1"><a xlink:title=" ">
<polygon fill="#bfbfbf" stroke="black" points="113,-76.5 113,-95.5 174,-95.5 174,-76.5 113,-76.5"/>
<text text-anchor="middle" x="143.5" y="-83.5" font-family="Helvetica,sans-Serif" font-size="10.00">bdt2time</text>
</a>
</g>
</g>
<!-- Node2 -->
<g id="node2" class="node">
<title>Node2</title>
<g id="a_node2"><a xlink:href="rinex_8cpp.html#a98a2dc67757d3341b779c2d60a4f64e3" target="_top" xlink:title="Decode nav header.">
<polygon fill="white" stroke="red" points="0,-152.5 0,-171.5 77,-171.5 77,-152.5 0,-152.5"/>
<text text-anchor="middle" x="38.5" y="-159.5" font-family="Helvetica,sans-Serif" font-size="10.00">decodeNavh</text>
</a>
</g>
</g>
<!-- Node1&#45;&gt;Node2 -->
<g id="edge1" class="edge">
<title>Node1&#45;&gt;Node2</title>
<path fill="none" stroke="midnightblue" d="M132.92,-95.71C120.68,-107.77 98.51,-128.52 77,-143 71.91,-146.42 66.13,-149.65 60.65,-152.43"/>
</g>
<!-- Node15 -->
<g id="node3" class="node">
<title>Node15</title>
<g id="a_node3"><a xlink:href="rinex_8cpp.html#ae3132fbeb0a7c18e3316f143ae063998" target="_top" xlink:title="Decode ephemeris.">
<polygon fill="white" stroke="red" points="3.5,-114.5 3.5,-133.5 73.5,-133.5 73.5,-114.5 3.5,-114.5"/>
<text text-anchor="middle" x="38.5" y="-121.5" font-family="Helvetica,sans-Serif" font-size="10.00">decodeEph</text>
</a>
</g>
</g>
<!-- Node1&#45;&gt;Node15 -->
<g id="edge2" class="edge">
<title>Node1&#45;&gt;Node15</title>
<path fill="none" stroke="midnightblue" d="M116.51,-95.59C100.89,-101.35 81.1,-108.65 65.48,-114.41"/>
</g>
<!-- Node18 -->
<g id="node4" class="node">
<title>Node18</title>
<g id="a_node4"><a xlink:href="rinex_8cpp.html#a49860903ba3deda27374072016e16fbb" target="_top" xlink:title="Decode CNVX ephemeris.">
<polygon fill="white" stroke="red" points="0,-76.5 0,-95.5 77,-95.5 77,-76.5 0,-76.5"/>
<text text-anchor="middle" x="38.5" y="-83.5" font-family="Helvetica,sans-Serif" font-size="10.00">decodeCeph</text>
</a>
</g>
</g>
<!-- Node1&#45;&gt;Node18 -->
<g id="edge3" class="edge">
<title>Node1&#45;&gt;Node18</title>
<path fill="none" stroke="midnightblue" d="M112.98,-86C101.81,-86 88.93,-86 77.11,-86"/>
</g>
<!-- Node19 -->
<g id="node5" class="node">
<title>Node19</title>
<g id="a_node5"><a xlink:href="rinex_8cpp.html#abf5c2200567764637e86c93fa34ea658" target="_top" xlink:title="Decode STO message.">
<polygon fill="white" stroke="red" points="4.5,-38.5 4.5,-57.5 72.5,-57.5 72.5,-38.5 4.5,-38.5"/>
<text text-anchor="middle" x="38.5" y="-45.5" font-family="Helvetica,sans-Serif" font-size="10.00">decodeSto</text>
</a>
</g>
</g>
<!-- Node1&#45;&gt;Node19 -->
<g id="edge4" class="edge">
<title>Node1&#45;&gt;Node19</title>
<path fill="none" stroke="midnightblue" d="M116.51,-76.41C100.89,-70.65 81.1,-63.35 65.48,-57.59"/>
</g>
<!-- Node20 -->
<g id="node6" class="node">
<title>Node20</title>
<g id="a_node6"><a xlink:href="rinex_8cpp.html#a47e197e8bad4103334d186f5fde306eb" target="_top" xlink:title="Decode EOP message.">
<polygon fill="white" stroke="red" points="3.5,-0.5 3.5,-19.5 73.5,-19.5 73.5,-0.5 3.5,-0.5"/>
<text text-anchor="middle" x="38.5" y="-7.5" font-family="Helvetica,sans-Serif" font-size="10.00">decodeEop</text>
</a>
</g>
</g>
<!-- Node1&#45;&gt;Node20 -->
<g id="edge5" class="edge">
<title>Node1&#45;&gt;Node20</title>
<path fill="none" stroke="midnightblue" d="M132.92,-76.29C120.68,-64.23 98.51,-43.48 77,-29 71.91,-25.58 66.13,-22.35 60.65,-19.57"/>
</g>
</g>
</svg>
