<?xml version="1.0" encoding="UTF-8" standalone="no"?>
<!DOCTYPE svg PUBLIC "-//W3C//DTD SVG 1.1//EN"
 "http://www.w3.org/Graphics/SVG/1.1/DTD/svg11.dtd">
<!-- Generated by graphviz version 2.43.0 (0)
 -->
<!-- Title: utc2gpst Pages: 1 -->
<svg width="469pt" height="484pt"
 viewBox="0.00 0.00 469.00 484.00" xmlns="http://www.w3.org/2000/svg" xmlns:xlink="http://www.w3.org/1999/xlink">
<g id="graph0" class="graph" transform="scale(1 1) rotate(0) translate(4 480)">
<title>utc2gpst</title>
<polygon fill="white" stroke="transparent" points="-4,4 -4,-480 465,-480 465,4 -4,4"/>
<!-- Node1 -->
<g id="node1" class="node">
<title>Node1</title>
<g id="a_node1"><a xlink:title=" ">
<polygon fill="#bfbfbf" stroke="black" points="402,-228.5 402,-247.5 461,-247.5 461,-228.5 402,-228.5"/>
<text text-anchor="middle" x="431.5" y="-235.5" font-family="Helvetica,sans-Serif" font-size="10.00">utc2gpst</text>
</a>
</g>
</g>
<!-- Node2 -->
<g id="node2" class="node">
<title>Node2</title>
<g id="a_node2"><a xlink:href="orbex_8cpp.html#af4e4e0c61f116bf2323bcf62b451d458" target="_top" xlink:title="Read EPHEMERIS/DATA block.">
<polygon fill="white" stroke="red" points="246,-456.5 246,-475.5 332,-475.5 332,-456.5 246,-456.5"/>
<text text-anchor="middle" x="289" y="-463.5" font-family="Helvetica,sans-Serif" font-size="10.00">readOrbexEph</text>
</a>
</g>
</g>
<!-- Node1&#45;&gt;Node2 -->
<g id="edge1" class="edge">
<title>Node1&#45;&gt;Node2</title>
<path fill="none" stroke="midnightblue" d="M430.63,-247.58C430.53,-280.58 425.55,-390.6 366,-447 356.82,-455.7 344.28,-460.58 332.03,-463.28"/>
</g>
<!-- Node7 -->
<g id="node3" class="node">
<title>Node7</title>
<g id="a_node3"><a xlink:href="rinexNavWrite_8cpp.html#aaab5fb708037f164d86cfa62039eb845" target="_top" xlink:title=" ">
<polygon fill="white" stroke="red" points="241,-418.5 241,-437.5 337,-437.5 337,-418.5 241,-418.5"/>
<text text-anchor="middle" x="289" y="-425.5" font-family="Helvetica,sans-Serif" font-size="10.00">rinexNavHeader</text>
</a>
</g>
</g>
<!-- Node1&#45;&gt;Node7 -->
<g id="edge2" class="edge">
<title>Node1&#45;&gt;Node7</title>
<path fill="none" stroke="midnightblue" d="M429.59,-247.85C426.43,-276.34 413.37,-359.6 366,-404 358.02,-411.48 347.73,-416.62 337.32,-420.17"/>
</g>
<!-- Node10 -->
<g id="node4" class="node">
<title>Node10</title>
<g id="a_node4"><a xlink:href="structRtcmDecoder.html#a424082e15bbf15120f1fc5f0635b01b9" target="_top" xlink:title=" ">
<polygon fill="white" stroke="red" points="0,-304.5 0,-323.5 176,-323.5 176,-304.5 0,-304.5"/>
<text text-anchor="middle" x="88" y="-311.5" font-family="Helvetica,sans-Serif" font-size="10.00">RtcmDecoder::decodeEphemeris</text>
</a>
</g>
</g>
<!-- Node1&#45;&gt;Node10 -->
<g id="edge3" class="edge">
<title>Node1&#45;&gt;Node10</title>
<path fill="none" stroke="midnightblue" d="M429.26,-247.65C425.4,-273.25 411.02,-342.8 366,-371 278,-426.13 146.34,-351.26 103.22,-323.57"/>
</g>
<!-- Node13 -->
<g id="node5" class="node">
<title>Node13</title>
<g id="a_node5"><a xlink:href="sp3_8cpp.html#a312f81af37fc5915220869ee56af6c91" target="_top" xlink:title="read an epoch of data from an sp3 precise ephemeris file">
<polygon fill="white" stroke="red" points="261,-342.5 261,-361.5 317,-361.5 317,-342.5 261,-342.5"/>
<text text-anchor="middle" x="289" y="-349.5" font-family="Helvetica,sans-Serif" font-size="10.00">readsp3</text>
</a>
</g>
</g>
<!-- Node1&#45;&gt;Node13 -->
<g id="edge4" class="edge">
<title>Node1&#45;&gt;Node13</title>
<path fill="none" stroke="midnightblue" d="M426.81,-247.52C418.82,-266.83 398.03,-310.63 366,-333 351.73,-342.97 332.73,-347.72 317.3,-349.98"/>
</g>
<!-- Node15 -->
<g id="node6" class="node">
<title>Node15</title>
<g id="a_node6"><a xlink:href="rinex_8cpp.html#a7c94412d5804d2eed866516b7a6c7f62" target="_top" xlink:title="Read rinex obs.">
<polygon fill="white" stroke="red" points="251,-304.5 251,-323.5 327,-323.5 327,-304.5 251,-304.5"/>
<text text-anchor="middle" x="289" y="-311.5" font-family="Helvetica,sans-Serif" font-size="10.00">readRnxObs</text>
</a>
</g>
</g>
<!-- Node1&#45;&gt;Node15 -->
<g id="edge5" class="edge">
<title>Node1&#45;&gt;Node15</title>
<path fill="none" stroke="midnightblue" d="M422.36,-247.63C411.03,-260.4 389.28,-282.75 366,-295 354.08,-301.27 340.02,-305.53 327.25,-308.4"/>
</g>
<!-- Node19 -->
<g id="node7" class="node">
<title>Node19</title>
<g id="a_node7"><a xlink:href="rinexObsWrite_8cpp.html#ae906450c46f7919003bbbefbf7327b1f" target="_top" xlink:title=" ">
<polygon fill="white" stroke="red" points="227.5,-266.5 227.5,-285.5 350.5,-285.5 350.5,-266.5 227.5,-266.5"/>
<text text-anchor="middle" x="289" y="-273.5" font-family="Helvetica,sans-Serif" font-size="10.00">writeRinexObsHeader</text>
</a>
</g>
</g>
<!-- Node1&#45;&gt;Node19 -->
<g id="edge6" class="edge">
<title>Node1&#45;&gt;Node19</title>
<path fill="none" stroke="midnightblue" d="M402,-246.67C390.8,-250.01 377.83,-253.78 366,-257 354.19,-260.21 341.29,-263.52 329.53,-266.45"/>
</g>
<!-- Node23 -->
<g id="node8" class="node">
<title>Node23</title>
<g id="a_node8"><a xlink:href="structRtcmDecoder.html#af4dcc94b23423696a4e8025d8235a1b1" target="_top" xlink:title=" ">
<polygon fill="white" stroke="red" points="221.5,-228.5 221.5,-247.5 356.5,-247.5 356.5,-228.5 221.5,-228.5"/>
<text text-anchor="middle" x="289" y="-235.5" font-family="Helvetica,sans-Serif" font-size="10.00">RtcmDecoder::rtcmTime</text>
</a>
</g>
</g>
<!-- Node1&#45;&gt;Node23 -->
<g id="edge7" class="edge">
<title>Node1&#45;&gt;Node23</title>
<path fill="none" stroke="midnightblue" d="M401.73,-238C388.64,-238 372.56,-238 356.73,-238"/>
</g>
<!-- Node29 -->
<g id="node9" class="node">
<title>Node29</title>
<g id="a_node9"><a xlink:href="structRtcmDecoder.html#a5ab6d5d8cf33f0742a012d6cdd4e52ae" target="_top" xlink:title=" ">
<polygon fill="white" stroke="red" points="225.5,-190.5 225.5,-209.5 352.5,-209.5 352.5,-190.5 225.5,-190.5"/>
<text text-anchor="middle" x="289" y="-197.5" font-family="Helvetica,sans-Serif" font-size="10.00">RtcmDecoder::getGpst</text>
</a>
</g>
</g>
<!-- Node1&#45;&gt;Node29 -->
<g id="edge9" class="edge">
<title>Node1&#45;&gt;Node29</title>
<path fill="none" stroke="midnightblue" d="M402,-229.33C390.8,-225.99 377.83,-222.22 366,-219 354.19,-215.79 341.29,-212.48 329.53,-209.55"/>
</g>
<!-- Node28 -->
<g id="node10" class="node">
<title>Node28</title>
<g id="a_node10"><a xlink:href="structRtcmDecoder.html#abc932e406e362c53a3493cc39b40514b" target="_top" xlink:title=" ">
<polygon fill="white" stroke="red" points="212,-152.5 212,-171.5 366,-171.5 366,-152.5 212,-152.5"/>
<text text-anchor="middle" x="289" y="-159.5" font-family="Helvetica,sans-Serif" font-size="10.00">RtcmDecoder::decodeMSM7</text>
</a>
</g>
</g>
<!-- Node1&#45;&gt;Node28 -->
<g id="edge10" class="edge">
<title>Node1&#45;&gt;Node28</title>
<path fill="none" stroke="midnightblue" d="M422.36,-228.37C411.03,-215.6 389.28,-193.25 366,-181 358.66,-177.14 350.5,-174.04 342.33,-171.55"/>
</g>
<!-- Node6 -->
<g id="node11" class="node">
<title>Node6</title>
<g id="a_node11"><a xlink:href="main_8cpp.html#a3c04138a5bfe5d72780bb7e82a18e627" target="_top" xlink:title=" ">
<polygon fill="white" stroke="black" points="268.5,-114.5 268.5,-133.5 309.5,-133.5 309.5,-114.5 268.5,-114.5"/>
<text text-anchor="middle" x="289" y="-121.5" font-family="Helvetica,sans-Serif" font-size="10.00">main</text>
</a>
</g>
</g>
<!-- Node1&#45;&gt;Node6 -->
<g id="edge11" class="edge">
<title>Node1&#45;&gt;Node6</title>
<path fill="none" stroke="midnightblue" d="M426.81,-228.48C418.82,-209.17 398.03,-165.37 366,-143 349.27,-131.32 326.06,-126.8 309.7,-125.07"/>
</g>
<!-- Node31 -->
<g id="node12" class="node">
<title>Node31</title>
<g id="a_node12"><a xlink:href="rinex_8cpp.html#a30b3cdcd487d258c340534e7ddbde2e1" target="_top" xlink:title="Decode glonass ephemeris.">
<polygon fill="white" stroke="red" points="250.5,-76.5 250.5,-95.5 327.5,-95.5 327.5,-76.5 250.5,-76.5"/>
<text text-anchor="middle" x="289" y="-83.5" font-family="Helvetica,sans-Serif" font-size="10.00">decodeGeph</text>
</a>
</g>
</g>
<!-- Node1&#45;&gt;Node31 -->
<g id="edge12" class="edge">
<title>Node1&#45;&gt;Node31</title>
<path fill="none" stroke="midnightblue" d="M428.7,-228.22C423.63,-203.5 406.84,-138.17 366,-105 355.23,-96.25 340.98,-91.46 327.73,-88.86"/>
</g>
<!-- Node34 -->
<g id="node13" class="node">
<title>Node34</title>
<g id="a_node13"><a xlink:href="rtkcmn_8cpp.html#a304b15df0b6ab1452fd1f31277dad490" target="_top" xlink:title="eci to ecef transformation matrix">
<polygon fill="white" stroke="red" points="260,-38.5 260,-57.5 318,-57.5 318,-38.5 260,-38.5"/>
<text text-anchor="middle" x="289" y="-45.5" font-family="Helvetica,sans-Serif" font-size="10.00">eci2ecef</text>
</a>
</g>
</g>
<!-- Node1&#45;&gt;Node34 -->
<g id="edge13" class="edge">
<title>Node1&#45;&gt;Node34</title>
<path fill="none" stroke="midnightblue" d="M429.86,-228.13C427.39,-198.82 416,-111.52 366,-67 353,-55.42 334,-50.67 318.25,-48.82"/>
</g>
<!-- Node81 -->
<g id="node14" class="node">
<title>Node81</title>
<g id="a_node14"><a xlink:href="tides_8cpp.html#a3faed0b0aa3e0d79b8615c68c7e085a0" target="_top" xlink:title=" ">
<polygon fill="white" stroke="red" points="261,-0.5 261,-19.5 317,-19.5 317,-0.5 261,-0.5"/>
<text text-anchor="middle" x="289" y="-7.5" font-family="Helvetica,sans-Serif" font-size="10.00">tidedisp</text>
</a>
</g>
</g>
<!-- Node1&#45;&gt;Node81 -->
<g id="edge14" class="edge">
<title>Node1&#45;&gt;Node81</title>
<path fill="none" stroke="midnightblue" d="M430.63,-228.42C430.53,-195.42 425.55,-85.4 366,-29 352.97,-16.66 333.17,-11.99 317.04,-10.37"/>
</g>
<!-- Node23&#45;&gt;Node10 -->
<g id="edge8" class="edge">
<title>Node23&#45;&gt;Node10</title>
<path fill="none" stroke="midnightblue" d="M243.78,-247.56C233.25,-250.24 222.13,-253.42 212,-257 173.38,-270.64 130.44,-292.07 106.89,-304.4"/>
</g>
</g>
</svg>
