<?xml version="1.0" encoding="UTF-8" standalone="no"?>
<!DOCTYPE svg PUBLIC "-//W3C//DTD SVG 1.1//EN"
 "http://www.w3.org/Graphics/SVG/1.1/DTD/svg11.dtd">
<!-- Generated by graphviz version 2.43.0 (0)
 -->
<!-- Title: epoch2yds Pages: 1 -->
<svg width="441pt" height="294pt"
 viewBox="0.00 0.00 441.00 294.00" xmlns="http://www.w3.org/2000/svg" xmlns:xlink="http://www.w3.org/1999/xlink">
<g id="graph0" class="graph" transform="scale(1 1) rotate(0) translate(4 290)">
<title>epoch2yds</title>
<polygon fill="white" stroke="transparent" points="-4,4 -4,-290 437,-290 437,4 -4,4"/>
<!-- Node1 -->
<g id="node1" class="node">
<title>Node1</title>
<g id="a_node1"><a xlink:title=" ">
<polygon fill="#bfbfbf" stroke="black" points="364,-133.5 364,-152.5 433,-152.5 433,-133.5 364,-133.5"/>
<text text-anchor="middle" x="398.5" y="-140.5" font-family="Helvetica,sans-Serif" font-size="10.00">epoch2yds</text>
</a>
</g>
</g>
<!-- Node2 -->
<g id="node2" class="node">
<title>Node2</title>
<g id="a_node2"><a xlink:href="structRtcmDecoder.html#a424082e15bbf15120f1fc5f0635b01b9" target="_top" xlink:title=" ">
<polygon fill="white" stroke="red" points="152,-266.5 152,-285.5 328,-285.5 328,-266.5 152,-266.5"/>
<text text-anchor="middle" x="240" y="-273.5" font-family="Helvetica,sans-Serif" font-size="10.00">RtcmDecoder::decodeEphemeris</text>
</a>
</g>
</g>
<!-- Node1&#45;&gt;Node2 -->
<g id="edge1" class="edge">
<title>Node1&#45;&gt;Node2</title>
<path fill="none" stroke="midnightblue" d="M394.51,-152.78C387.15,-175.1 365.94,-229.96 328,-257 322.59,-260.86 316.54,-263.96 310.22,-266.44"/>
</g>
<!-- Node5 -->
<g id="node3" class="node">
<title>Node5</title>
<g id="a_node3"><a xlink:href="structRtcmTrace.html#a1e29763105f2e550eaa74be6aacbfaae" target="_top" xlink:title=" ">
<polygon fill="white" stroke="red" points="167,-228.5 167,-247.5 313,-247.5 313,-228.5 167,-228.5"/>
<text text-anchor="middle" x="240" y="-235.5" font-family="Helvetica,sans-Serif" font-size="10.00">RtcmTrace::traceSsrCodeB</text>
</a>
</g>
</g>
<!-- Node1&#45;&gt;Node5 -->
<g id="edge2" class="edge">
<title>Node1&#45;&gt;Node5</title>
<path fill="none" stroke="midnightblue" d="M391.56,-152.69C380.96,-169.1 357.13,-202.22 328,-219 321.3,-222.86 313.9,-225.93 306.33,-228.39"/>
</g>
<!-- Node11 -->
<g id="node4" class="node">
<title>Node11</title>
<g id="a_node4"><a xlink:href="structRtcmTrace.html#a38ba4e7165a181b4cff99118dab1e012" target="_top" xlink:title=" ">
<polygon fill="white" stroke="red" points="168,-190.5 168,-209.5 312,-209.5 312,-190.5 168,-190.5"/>
<text text-anchor="middle" x="240" y="-197.5" font-family="Helvetica,sans-Serif" font-size="10.00">RtcmTrace::traceSsrPhasB</text>
</a>
</g>
</g>
<!-- Node1&#45;&gt;Node11 -->
<g id="edge3" class="edge">
<title>Node1&#45;&gt;Node11</title>
<path fill="none" stroke="midnightblue" d="M382.91,-152.59C369.23,-161.18 347.97,-173.54 328,-181 317.86,-184.79 306.76,-187.93 295.99,-190.49"/>
</g>
<!-- Node13 -->
<g id="node5" class="node">
<title>Node13</title>
<g id="a_node5"><a xlink:href="sinex_8cpp.html#ab52fc6aa89ee3cb1c9db7c0ebff41378" target="_top" xlink:title=" ">
<polygon fill="white" stroke="black" points="196.5,-152.5 196.5,-171.5 283.5,-171.5 283.5,-152.5 196.5,-152.5"/>
<text text-anchor="middle" x="240" y="-159.5" font-family="Helvetica,sans-Serif" font-size="10.00">sinex_add_file</text>
</a>
</g>
</g>
<!-- Node1&#45;&gt;Node13 -->
<g id="edge4" class="edge">
<title>Node1&#45;&gt;Node13</title>
<path fill="none" stroke="midnightblue" d="M363.93,-147.08C340.49,-149.92 309,-153.74 283.76,-156.81"/>
</g>
<!-- Node14 -->
<g id="node6" class="node">
<title>Node14</title>
<g id="a_node6"><a xlink:href="pea__snx_8cpp.html#a6b5f4d774fbaf2921b08fe116510c5bf" target="_top" xlink:title=" ">
<polygon fill="white" stroke="red" points="0,-114.5 0,-133.5 116,-133.5 116,-114.5 0,-114.5"/>
<text text-anchor="middle" x="58" y="-121.5" font-family="Helvetica,sans-Serif" font-size="10.00">sinexPostProcessing</text>
</a>
</g>
</g>
<!-- Node1&#45;&gt;Node14 -->
<g id="edge7" class="edge">
<title>Node1&#45;&gt;Node14</title>
<path fill="none" stroke="midnightblue" d="M384.5,-133.27C371.14,-123.93 349.32,-110.45 328,-105 246.35,-84.14 146.53,-102.01 94.46,-114.45"/>
</g>
<!-- Node17 -->
<g id="node7" class="node">
<title>Node17</title>
<g id="a_node7"><a xlink:href="tropSinex_8cpp.html#a8b6e41cc22808aa9045176f6997e1057" target="_top" xlink:title=" ">
<polygon fill="white" stroke="red" points="185,-114.5 185,-133.5 295,-133.5 295,-114.5 185,-114.5"/>
<text text-anchor="middle" x="240" y="-121.5" font-family="Helvetica,sans-Serif" font-size="10.00">setTropHeaderData</text>
</a>
</g>
</g>
<!-- Node1&#45;&gt;Node17 -->
<g id="edge6" class="edge">
<title>Node1&#45;&gt;Node17</title>
<path fill="none" stroke="midnightblue" d="M363.93,-138.92C343.9,-136.49 318,-133.35 295.14,-130.57"/>
</g>
<!-- Node25 -->
<g id="node8" class="node">
<title>Node25</title>
<g id="a_node8"><a xlink:href="pea__snx_8cpp.html#a8e1c8eabbdcd632cd47f48b220ce3d25" target="_top" xlink:title=" ">
<polygon fill="white" stroke="red" points="171,-38.5 171,-57.5 309,-57.5 309,-38.5 171,-38.5"/>
<text text-anchor="middle" x="240" y="-45.5" font-family="Helvetica,sans-Serif" font-size="10.00">sinexPerEpochPerStation</text>
</a>
</g>
</g>
<!-- Node1&#45;&gt;Node25 -->
<g id="edge8" class="edge">
<title>Node1&#45;&gt;Node25</title>
<path fill="none" stroke="midnightblue" d="M390.59,-133.13C379.28,-117.74 355.34,-88.12 328,-72 317.34,-65.71 304.97,-61.02 292.97,-57.54"/>
</g>
<!-- Node27 -->
<g id="node9" class="node">
<title>Node27</title>
<g id="a_node9"><a xlink:href="ppp_8cpp.html#ad779b8fc6690a4089c1a6a0c56c972cf" target="_top" xlink:title=" ">
<polygon fill="white" stroke="red" points="184.5,-0.5 184.5,-19.5 295.5,-19.5 295.5,-0.5 184.5,-0.5"/>
<text text-anchor="middle" x="240" y="-7.5" font-family="Helvetica,sans-Serif" font-size="10.00">selectAprioriSource</text>
</a>
</g>
</g>
<!-- Node1&#45;&gt;Node27 -->
<g id="edge9" class="edge">
<title>Node1&#45;&gt;Node27</title>
<path fill="none" stroke="midnightblue" d="M394.51,-133.22C387.15,-110.9 365.94,-56.04 328,-29 318.56,-22.27 307.18,-17.85 295.81,-14.97"/>
</g>
<!-- Node13&#45;&gt;Node14 -->
<g id="edge5" class="edge">
<title>Node13&#45;&gt;Node14</title>
<path fill="none" stroke="midnightblue" d="M196.34,-152.99C168.58,-147.13 132.43,-139.5 104.18,-133.54"/>
</g>
</g>
</svg>
