<?xml version="1.0" encoding="UTF-8" standalone="no"?>
<!DOCTYPE svg PUBLIC "-//W3C//DTD SVG 1.1//EN"
 "http://www.w3.org/Graphics/SVG/1.1/DTD/svg11.dtd">
<!-- Generated by graphviz version 2.43.0 (0)
 -->
<!-- Title: currentLogptime Pages: 1 -->
<svg width="242pt" height="66pt"
 viewBox="0.00 0.00 242.00 66.00" xmlns="http://www.w3.org/2000/svg" xmlns:xlink="http://www.w3.org/1999/xlink">
<g id="graph0" class="graph" transform="scale(1 1) rotate(0) translate(4 62)">
<title>currentLogptime</title>
<polygon fill="white" stroke="transparent" points="-4,4 -4,-62 238,-62 238,4 -4,4"/>
<!-- Node1 -->
<g id="node1" class="node">
<title>Node1</title>
<g id="a_node1"><a xlink:title="Returns (posix) for current epoch.">
<polygon fill="#bfbfbf" stroke="black" points="0,-19.5 0,-38.5 97,-38.5 97,-19.5 0,-19.5"/>
<text text-anchor="middle" x="48.5" y="-26.5" font-family="Helvetica,sans-Serif" font-size="10.00">currentLogptime</text>
</a>
</g>
</g>
<!-- Node2 -->
<g id="node2" class="node">
<title>Node2</title>
<g id="a_node2"><a xlink:href="structGTime.html#a72505f23b2252f690f124c2eaf026f91" target="_top" xlink:title=" ">
<polygon fill="white" stroke="black" points="133,-38.5 133,-57.5 234,-57.5 234,-38.5 133,-38.5"/>
<text text-anchor="middle" x="183.5" y="-45.5" font-family="Helvetica,sans-Serif" font-size="10.00">GTime::floorTime</text>
</a>
</g>
</g>
<!-- Node1&#45;&gt;Node2 -->
<g id="edge1" class="edge">
<title>Node1&#45;&gt;Node2</title>
<path fill="none" stroke="midnightblue" d="M97.14,-35.81C105.5,-37 114.29,-38.26 122.92,-39.49"/>
<polygon fill="midnightblue" stroke="midnightblue" points="122.55,-42.97 132.95,-40.92 123.54,-36.04 122.55,-42.97"/>
</g>
<!-- Node3 -->
<g id="node3" class="node">
<title>Node3</title>
<g id="a_node3"><a xlink:href="structGTime.html#aaa8a379d11cd6c040a6bbe680c0e913e" target="_top" xlink:title="Uninitialised time for comparisons.">
<polygon fill="white" stroke="black" points="137.5,-0.5 137.5,-19.5 229.5,-19.5 229.5,-0.5 137.5,-0.5"/>
<text text-anchor="middle" x="183.5" y="-7.5" font-family="Helvetica,sans-Serif" font-size="10.00">GTime::noTime</text>
</a>
</g>
</g>
<!-- Node1&#45;&gt;Node3 -->
<g id="edge2" class="edge">
<title>Node1&#45;&gt;Node3</title>
<path fill="none" stroke="midnightblue" d="M97.14,-22.19C106.98,-20.79 117.42,-19.3 127.49,-17.86"/>
<polygon fill="midnightblue" stroke="midnightblue" points="128.01,-21.32 137.41,-16.44 127.02,-14.39 128.01,-21.32"/>
</g>
</g>
</svg>
