<?xml version="1.0" encoding="UTF-8" standalone="no"?>
<!DOCTYPE svg PUBLIC "-//W3C//DTD SVG 1.1//EN"
 "http://www.w3.org/Graphics/SVG/1.1/DTD/svg11.dtd">
<!-- Generated by graphviz version 2.43.0 (0)
 -->
<!-- Title: timeget Pages: 1 -->
<svg width="486pt" height="476pt"
 viewBox="0.00 0.00 486.00 476.00" xmlns="http://www.w3.org/2000/svg" xmlns:xlink="http://www.w3.org/1999/xlink">
<g id="graph0" class="graph" transform="scale(1 1) rotate(0) translate(4 472)">
<title>timeget</title>
<polygon fill="white" stroke="transparent" points="-4,4 -4,-472 482,-472 482,4 -4,4"/>
<!-- Node1 -->
<g id="node1" class="node">
<title>Node1</title>
<g id="a_node1"><a xlink:title="get current time in utc">
<polygon fill="#bfbfbf" stroke="black" points="423,-212.5 423,-231.5 478,-231.5 478,-212.5 423,-212.5"/>
<text text-anchor="middle" x="450.5" y="-219.5" font-family="Helvetica,sans-Serif" font-size="10.00">timeget</text>
</a>
</g>
</g>
<!-- Node2 -->
<g id="node2" class="node">
<title>Node2</title>
<g id="a_node2"><a xlink:href="brdc2sp3__main_8cpp.html#a02a9f009b09cf915dfae28a26bec455c" target="_top" xlink:title=" ">
<polygon fill="white" stroke="red" points="251.5,-448.5 251.5,-467.5 347.5,-467.5 347.5,-448.5 251.5,-448.5"/>
<text text-anchor="middle" x="299.5" y="-455.5" font-family="Helvetica,sans-Serif" font-size="10.00">print_SP3header</text>
</a>
</g>
</g>
<!-- Node1&#45;&gt;Node2 -->
<g id="edge1" class="edge">
<title>Node1&#45;&gt;Node2</title>
<path fill="none" stroke="midnightblue" d="M449.91,-231.52C450.82,-265.35 449.06,-380.8 387,-439 376.46,-448.89 361.99,-454.07 347.91,-456.68"/>
</g>
<!-- Node4 -->
<g id="node3" class="node">
<title>Node4</title>
<g id="a_node3"><a xlink:href="biasSINEXwrite_8cpp.html#a6c7bad6904e92e16df26708e1e2d02cc" target="_top" xlink:title="Write bias SINEX head.">
<polygon fill="white" stroke="red" points="244,-410.5 244,-429.5 355,-429.5 355,-410.5 244,-410.5"/>
<text text-anchor="middle" x="299.5" y="-417.5" font-family="Helvetica,sans-Serif" font-size="10.00">write_bSINEX_head</text>
</a>
</g>
</g>
<!-- Node1&#45;&gt;Node4 -->
<g id="edge2" class="edge">
<title>Node1&#45;&gt;Node4</title>
<path fill="none" stroke="midnightblue" d="M449.24,-231.52C447.89,-261.45 439.45,-354.48 387,-401 378.14,-408.86 366.79,-413.7 355.24,-416.64"/>
</g>
<!-- Node8 -->
<g id="node4" class="node">
<title>Node8</title>
<g id="a_node4"><a xlink:href="gTime_8cpp.html#aacaf6ccad3d0a2026f8bb4273dfc225d" target="_top" xlink:title=" ">
<polygon fill="white" stroke="black" points="262,-372.5 262,-391.5 337,-391.5 337,-372.5 262,-372.5"/>
<text text-anchor="middle" x="299.5" y="-379.5" font-family="Helvetica,sans-Serif" font-size="10.00">adjgpsweek</text>
</a>
</g>
</g>
<!-- Node1&#45;&gt;Node8 -->
<g id="edge3" class="edge">
<title>Node1&#45;&gt;Node8</title>
<path fill="none" stroke="midnightblue" d="M448.23,-231.67C444.3,-257.39 429.93,-327.94 387,-363 373.19,-374.28 354.13,-379.24 337.42,-381.29"/>
</g>
<!-- Node9 -->
<g id="node5" class="node">
<title>Node9</title>
<g id="a_node5"><a xlink:href="rinexNavWrite_8cpp.html#aaab5fb708037f164d86cfa62039eb845" target="_top" xlink:title=" ">
<polygon fill="white" stroke="red" points="251.5,-334.5 251.5,-353.5 347.5,-353.5 347.5,-334.5 251.5,-334.5"/>
<text text-anchor="middle" x="299.5" y="-341.5" font-family="Helvetica,sans-Serif" font-size="10.00">rinexNavHeader</text>
</a>
</g>
</g>
<!-- Node1&#45;&gt;Node9 -->
<g id="edge4" class="edge">
<title>Node1&#45;&gt;Node9</title>
<path fill="none" stroke="midnightblue" d="M446.05,-231.75C438.54,-251.53 418.8,-296.48 387,-320 375.6,-328.43 361.37,-333.9 347.77,-337.45"/>
</g>
<!-- Node13 -->
<g id="node6" class="node">
<title>Node13</title>
<g id="a_node6"><a xlink:href="structRtcmDecoder.html#a6673aa5a16d7e997de9ce5e43fac7860" target="_top" xlink:title=" ">
<polygon fill="white" stroke="red" points="0,-186.5 0,-205.5 176,-205.5 176,-186.5 0,-186.5"/>
<text text-anchor="middle" x="88" y="-193.5" font-family="Helvetica,sans-Serif" font-size="10.00">RtcmDecoder::decodeEphemeris</text>
</a>
</g>
</g>
<!-- Node1&#45;&gt;Node13 -->
<g id="edge5" class="edge">
<title>Node1&#45;&gt;Node13</title>
<path fill="none" stroke="midnightblue" d="M443.74,-231.85C434.2,-247.07 413.5,-275.72 387,-287 315.44,-317.47 285.87,-311.35 212,-287 162.3,-270.61 116.25,-225.56 97.67,-205.66"/>
</g>
<!-- Node19 -->
<g id="node7" class="node">
<title>Node19</title>
<g id="a_node7"><a xlink:href="structNtripUploader.html#a0763f31214a177f3d9be2301138fd0e7" target="_top" xlink:title=" ">
<polygon fill="white" stroke="red" points="212,-229 212,-259 387,-259 387,-229 212,-229"/>
<text text-anchor="start" x="220" y="-247" font-family="Helvetica,sans-Serif" font-size="10.00">NtripUploader::messageTimeout</text>
<text text-anchor="middle" x="299.5" y="-236" font-family="Helvetica,sans-Serif" font-size="10.00">_hanlder</text>
</a>
</g>
</g>
<!-- Node1&#45;&gt;Node19 -->
<g id="edge6" class="edge">
<title>Node1&#45;&gt;Node19</title>
<path fill="none" stroke="midnightblue" d="M422.86,-225.93C412.57,-227.45 400.16,-229.29 387.24,-231.19"/>
</g>
<!-- Node22 -->
<g id="node8" class="node">
<title>Node22</title>
<g id="a_node8"><a xlink:href="rinexObsWrite_8cpp.html#ae906450c46f7919003bbbefbf7327b1f" target="_top" xlink:title=" ">
<polygon fill="white" stroke="red" points="238,-190.5 238,-209.5 361,-209.5 361,-190.5 238,-190.5"/>
<text text-anchor="middle" x="299.5" y="-197.5" font-family="Helvetica,sans-Serif" font-size="10.00">writeRinexObsHeader</text>
</a>
</g>
</g>
<!-- Node1&#45;&gt;Node22 -->
<g id="edge8" class="edge">
<title>Node1&#45;&gt;Node22</title>
<path fill="none" stroke="midnightblue" d="M422.86,-218.07C405.7,-215.53 382.67,-212.13 361.21,-208.96"/>
</g>
<!-- Node26 -->
<g id="node9" class="node">
<title>Node26</title>
<g id="a_node9"><a xlink:href="ionexWrite_8cpp.html#a0a2ca7ea882fd150b6ac0cd0daa17884" target="_top" xlink:title=" ">
<polygon fill="white" stroke="red" points="252.5,-152.5 252.5,-171.5 346.5,-171.5 346.5,-152.5 252.5,-152.5"/>
<text text-anchor="middle" x="299.5" y="-159.5" font-family="Helvetica,sans-Serif" font-size="10.00">writeIonexHead</text>
</a>
</g>
</g>
<!-- Node1&#45;&gt;Node26 -->
<g id="edge9" class="edge">
<title>Node1&#45;&gt;Node26</title>
<path fill="none" stroke="midnightblue" d="M437.8,-212.43C425.77,-203.06 406.14,-189.06 387,-181 374.39,-175.69 360.09,-171.78 346.8,-168.93"/>
</g>
<!-- Node29 -->
<g id="node10" class="node">
<title>Node29</title>
<g id="a_node10"><a xlink:href="structRtcmDecoder.html#ac8a62e36b397dfb8333cd13b47b9b5de" target="_top" xlink:title=" ">
<polygon fill="white" stroke="red" points="233,-114.5 233,-133.5 366,-133.5 366,-114.5 233,-114.5"/>
<text text-anchor="middle" x="299.5" y="-121.5" font-family="Helvetica,sans-Serif" font-size="10.00">RtcmDecoder::nowTime</text>
</a>
</g>
</g>
<!-- Node1&#45;&gt;Node29 -->
<g id="edge10" class="edge">
<title>Node1&#45;&gt;Node29</title>
<path fill="none" stroke="midnightblue" d="M444.8,-212.47C435.95,-195.6 415.17,-160.62 387,-143 380.61,-139.01 373.5,-135.84 366.18,-133.34"/>
</g>
<!-- Node34 -->
<g id="node11" class="node">
<title>Node34</title>
<g id="a_node11"><a xlink:href="structRtcmDecoder.html#a5ab6d5d8cf33f0742a012d6cdd4e52ae" target="_top" xlink:title=" ">
<polygon fill="white" stroke="red" points="236,-76.5 236,-95.5 363,-95.5 363,-76.5 236,-76.5"/>
<text text-anchor="middle" x="299.5" y="-83.5" font-family="Helvetica,sans-Serif" font-size="10.00">RtcmDecoder::getGpst</text>
</a>
</g>
</g>
<!-- Node1&#45;&gt;Node34 -->
<g id="edge11" class="edge">
<title>Node1&#45;&gt;Node34</title>
<path fill="none" stroke="midnightblue" d="M447.28,-212.33C441.56,-189.7 424.08,-133.09 387,-105 380.01,-99.71 371.85,-95.83 363.38,-93"/>
</g>
<!-- Node36 -->
<g id="node12" class="node">
<title>Node36</title>
<g id="a_node12"><a xlink:href="sp3Write_8cpp.html#aed29c95c9a69a1717d95e354d190d5df" target="_top" xlink:title=" ">
<polygon fill="white" stroke="red" points="252,-38.5 252,-57.5 347,-57.5 347,-38.5 252,-38.5"/>
<text text-anchor="middle" x="299.5" y="-45.5" font-family="Helvetica,sans-Serif" font-size="10.00">writeSp3Header</text>
</a>
</g>
</g>
<!-- Node1&#45;&gt;Node36 -->
<g id="edge13" class="edge">
<title>Node1&#45;&gt;Node36</title>
<path fill="none" stroke="midnightblue" d="M448.64,-212.2C445.66,-184.69 433.31,-106.15 387,-67 375.96,-57.67 361.37,-52.63 347.32,-49.99"/>
</g>
<!-- Node7 -->
<g id="node13" class="node">
<title>Node7</title>
<g id="a_node13"><a xlink:href="main_8cpp.html#a3c04138a5bfe5d72780bb7e82a18e627" target="_top" xlink:title=" ">
<polygon fill="white" stroke="black" points="279,-0.5 279,-19.5 320,-19.5 320,-0.5 279,-0.5"/>
<text text-anchor="middle" x="299.5" y="-7.5" font-family="Helvetica,sans-Serif" font-size="10.00">main</text>
</a>
</g>
</g>
<!-- Node1&#45;&gt;Node7 -->
<g id="edge14" class="edge">
<title>Node1&#45;&gt;Node7</title>
<path fill="none" stroke="midnightblue" d="M449.51,-212.21C448.99,-180.49 442.82,-79.65 387,-29 368.78,-12.47 339.55,-9.18 320.18,-9.04"/>
</g>
<!-- Node19&#45;&gt;Node19 -->
<g id="edge7" class="edge">
<title>Node19&#45;&gt;Node19</title>
<path fill="none" stroke="midnightblue" d="M325.64,-259.16C331.94,-268.56 323.23,-277.5 299.5,-277.5 275.77,-277.5 267.06,-268.56 273.36,-259.16"/>
</g>
<!-- Node34&#45;&gt;Node13 -->
<g id="edge12" class="edge">
<title>Node34&#45;&gt;Node13</title>
<path fill="none" stroke="midnightblue" d="M239.26,-95.52C229.92,-98.01 220.54,-101.12 212,-105 165.09,-126.32 118.64,-167.59 98.89,-186.32"/>
</g>
</g>
</svg>
