<?xml version="1.0" encoding="UTF-8" standalone="no"?>
<!DOCTYPE svg PUBLIC "-//W3C//DTD SVG 1.1//EN"
 "http://www.w3.org/Graphics/SVG/1.1/DTD/svg11.dtd">
<!-- Generated by graphviz version 2.43.0 (0)
 -->
<!-- Title: str2num Pages: 1 -->
<!--zoomable 674 -->
<svg id="main" version="1.1" xmlns="http://www.w3.org/2000/svg" xmlns:xlink="http://www.w3.org/1999/xlink" xml:space="preserve" onload="init(evt)">
<style type="text/css"><![CDATA[
.edge:hover path { stroke: red; }
.edge:hover polygon { stroke: red; fill: red; }
]]></style>
<script type="text/javascript"><![CDATA[
var edges = document.getElementsByTagName('g');
if (edges && edges.length) {
  for (var i=0;i<edges.length;i++) {
    if (edges[i].id.substr(0,4)=='edge') {
      edges[i].setAttribute('class','edge');
    }
  }
}
]]></script>
        <defs>
                <circle id="rim" cx="0" cy="0" r="7"/>
                <circle id="rim2" cx="0" cy="0" r="3.5"/>
                <g id="zoomPlus">
                        <use xlink:href="#rim" fill="#404040">
                                <set attributeName="fill" to="#808080" begin="zoomplus.mouseover" end="zoomplus.mouseout"/>
                        </use>
                        <path d="M-4,0h8M0,-4v8" fill="none" stroke="white" stroke-width="1.5" pointer-events="none"/>
                </g>
                <g id="zoomMin">
                        <use xlink:href="#rim" fill="#404040">
                                <set attributeName="fill" to="#808080" begin="zoomminus.mouseover" end="zoomminus.mouseout"/>
                        </use>
                        <path d="M-4,0h8" fill="none" stroke="white" stroke-width="1.5" pointer-events="none"/>
                </g>
                <g id="dirArrow">
                        <path fill="none" stroke="white" stroke-width="1.5" d="M0,-3.0v7 M-2.5,-0.5L0,-3.0L2.5,-0.5"/>
                </g>
               <g id="resetDef">
                       <use xlink:href="#rim2" fill="#404040">
                               <set attributeName="fill" to="#808080" begin="reset.mouseover" end="reset.mouseout"/>
                       </use>
               </g>
        </defs>

<script type="text/javascript">
var viewWidth = 324;
var viewHeight = 674;
var sectionId = 'dynsection-10';
</script>
<script xlink:href="svgpan.js"/>
<svg id="graph" class="graph">
<g id="viewport">
<title>str2num</title>
<polygon fill="white" stroke="transparent" points="-4,4 -4,-670 320,-670 320,4 -4,4"/>
<!-- Node1 -->
<g id="node1" class="node">
<title>Node1</title>
<g id="a_node1"><a xlink:title=" ">
<polygon fill="#bfbfbf" stroke="black" points="259,-323.5 259,-342.5 316,-342.5 316,-323.5 259,-323.5"/>
<text text-anchor="middle" x="287.5" y="-330.5" font-family="Helvetica,sans-Serif" font-size="10.00">str2num</text>
</a>
</g>
</g>
<!-- Node2 -->
<g id="node2" class="node">
<title>Node2</title>
<g id="a_node2"><a xlink:href="rinex_8cpp.html#a792445378357d92f2cba6dc7ec14c75b" target="_top" xlink:title="Read rinex navigation data body.">
<polygon fill="white" stroke="red" points="123.5,-646.5 123.5,-665.5 206.5,-665.5 206.5,-646.5 123.5,-646.5"/>
<text text-anchor="middle" x="165" y="-653.5" font-family="Helvetica,sans-Serif" font-size="10.00">readRnxNavB</text>
</a>
</g>
</g>
<!-- Node1&#45;&gt;Node2 -->
<g id="edge1" class="edge">
<title>Node1&#45;&gt;Node2</title>
<path fill="none" stroke="midnightblue" d="M284.91,-352.8C279.67,-413.31 261.06,-594.25 223,-637 218.56,-641.99 212.78,-645.67 206.6,-648.38"/>
<polygon fill="midnightblue" stroke="midnightblue" points="288.41,-352.93 285.76,-342.67 281.43,-352.34 288.41,-352.93"/>
</g>
<!-- Node6 -->
<g id="node3" class="node">
<title>Node6</title>
<g id="a_node3"><a xlink:href="ephPrecise_8cpp.html#af673ac04c3dea7304383eb4ef76318ba" target="_top" xlink:title="read dcb parameters file">
<polygon fill="white" stroke="red" points="137,-608.5 137,-627.5 193,-627.5 193,-608.5 137,-608.5"/>
<text text-anchor="middle" x="165" y="-615.5" font-family="Helvetica,sans-Serif" font-size="10.00">readdcb</text>
</a>
</g>
</g>
<!-- Node1&#45;&gt;Node6 -->
<g id="edge2" class="edge">
<title>Node1&#45;&gt;Node6</title>
<path fill="none" stroke="midnightblue" d="M284.27,-352.81C277.66,-408.09 256.54,-562.4 223,-599 215.32,-607.38 203.85,-612.07 193.2,-614.69"/>
<polygon fill="midnightblue" stroke="midnightblue" points="287.78,-352.93 285.46,-342.59 280.82,-352.12 287.78,-352.93"/>
</g>
<!-- Node11 -->
<g id="node4" class="node">
<title>Node11</title>
<g id="a_node4"><a xlink:href="rinex_8cpp.html#a88f2d75f4dbbc4569d0fc07e474d63cc" target="_top" xlink:title="Decode obs epoch.">
<polygon fill="white" stroke="red" points="115,-570.5 115,-589.5 215,-589.5 215,-570.5 115,-570.5"/>
<text text-anchor="middle" x="165" y="-577.5" font-family="Helvetica,sans-Serif" font-size="10.00">decodeObsEpoch</text>
</a>
</g>
</g>
<!-- Node1&#45;&gt;Node11 -->
<g id="edge3" class="edge">
<title>Node1&#45;&gt;Node11</title>
<path fill="none" stroke="midnightblue" d="M286.84,-352.93C286.48,-396.63 279.41,-501.69 223,-561 219.33,-564.85 214.87,-567.93 210.06,-570.38"/>
<polygon fill="midnightblue" stroke="midnightblue" points="290.34,-352.75 286.81,-342.76 283.34,-352.78 290.34,-352.75"/>
</g>
<!-- Node14 -->
<g id="node5" class="node">
<title>Node14</title>
<g id="a_node5"><a xlink:href="rinex_8cpp.html#a31dd08ba5cac291e98978728ec29f60c" target="_top" xlink:title="Read rinex clock.">
<polygon fill="white" stroke="red" points="128.5,-532.5 128.5,-551.5 201.5,-551.5 201.5,-532.5 128.5,-532.5"/>
<text text-anchor="middle" x="165" y="-539.5" font-family="Helvetica,sans-Serif" font-size="10.00">readRnxClk</text>
</a>
</g>
</g>
<!-- Node1&#45;&gt;Node14 -->
<g id="edge4" class="edge">
<title>Node1&#45;&gt;Node14</title>
<path fill="none" stroke="midnightblue" d="M285.48,-353.22C282.47,-391.63 270.49,-475.55 223,-523 217.17,-528.82 209.51,-532.86 201.71,-535.66"/>
<polygon fill="midnightblue" stroke="midnightblue" points="289,-353.06 286.16,-342.85 282.02,-352.6 289,-353.06"/>
</g>
<!-- Node15 -->
<g id="node6" class="node">
<title>Node15</title>
<g id="a_node6"><a xlink:href="rinex_8cpp.html#aeb9ed7a2f9c56ac369434c213abaed3e" target="_top" xlink:title="Decode geo nav header.">
<polygon fill="white" stroke="black" points="122.5,-494.5 122.5,-513.5 207.5,-513.5 207.5,-494.5 122.5,-494.5"/>
<text text-anchor="middle" x="165" y="-501.5" font-family="Helvetica,sans-Serif" font-size="10.00">decodeHnavH</text>
</a>
</g>
</g>
<!-- Node1&#45;&gt;Node15 -->
<g id="edge5" class="edge">
<title>Node1&#45;&gt;Node15</title>
<path fill="none" stroke="midnightblue" d="M283.6,-352.73C277.85,-384.92 261.99,-448.79 223,-485 218.57,-489.12 213.22,-492.34 207.59,-494.87"/>
<polygon fill="midnightblue" stroke="midnightblue" points="287.07,-353.19 285.24,-342.76 280.16,-352.06 287.07,-353.19"/>
</g>
<!-- Node16 -->
<g id="node7" class="node">
<title>Node16</title>
<g id="a_node7"><a xlink:href="rinex_8cpp.html#a8751d1a1d98fb7862f17d0a3ebc22310" target="_top" xlink:title="Read rinex header.">
<polygon fill="white" stroke="red" points="3,-380.5 3,-399.5 68,-399.5 68,-380.5 3,-380.5"/>
<text text-anchor="middle" x="35.5" y="-387.5" font-family="Helvetica,sans-Serif" font-size="10.00">readRnxH</text>
</a>
</g>
</g>
<!-- Node1&#45;&gt;Node16 -->
<g id="edge20" class="edge">
<title>Node1&#45;&gt;Node16</title>
<path fill="none" stroke="midnightblue" d="M286.79,-313.21C286.16,-273.14 278.35,-182.86 223,-143 181.16,-112.87 148.16,-111.95 107,-143 67.31,-172.95 43.27,-338.15 37.73,-380.24"/>
<polygon fill="midnightblue" stroke="midnightblue" points="283.29,-313.31 286.8,-323.3 290.29,-313.3 283.29,-313.31"/>
</g>
<!-- Node17 -->
<g id="node8" class="node">
<title>Node17</title>
<g id="a_node8"><a xlink:href="rinex_8cpp.html#a7a60f187ca9defbaa801f242efb7f18b" target="_top" xlink:title="Decode nav header.">
<polygon fill="white" stroke="black" points="125.5,-456.5 125.5,-475.5 204.5,-475.5 204.5,-456.5 125.5,-456.5"/>
<text text-anchor="middle" x="165" y="-463.5" font-family="Helvetica,sans-Serif" font-size="10.00">decodeNavH</text>
</a>
</g>
</g>
<!-- Node1&#45;&gt;Node17 -->
<g id="edge7" class="edge">
<title>Node1&#45;&gt;Node17</title>
<path fill="none" stroke="midnightblue" d="M280.75,-352.04C272.17,-377.28 253.67,-421.57 223,-447 217.62,-451.46 211.15,-454.89 204.53,-457.52"/>
<polygon fill="midnightblue" stroke="midnightblue" points="284.08,-353.09 283.82,-342.5 277.42,-350.95 284.08,-353.09"/>
</g>
<!-- Node18 -->
<g id="node9" class="node">
<title>Node18</title>
<g id="a_node9"><a xlink:href="rinex_8cpp.html#a435e959376f897a6b62de80b86e0d451" target="_top" xlink:title="Decode obs data.">
<polygon fill="white" stroke="red" points="118,-418.5 118,-437.5 212,-437.5 212,-418.5 118,-418.5"/>
<text text-anchor="middle" x="165" y="-425.5" font-family="Helvetica,sans-Serif" font-size="10.00">decodeObsData</text>
</a>
</g>
</g>
<!-- Node1&#45;&gt;Node18 -->
<g id="edge9" class="edge">
<title>Node1&#45;&gt;Node18</title>
<path fill="none" stroke="midnightblue" d="M275.53,-351.23C264.32,-368.41 245.42,-393.72 223,-409 217.4,-412.82 210.97,-415.92 204.49,-418.43"/>
<polygon fill="midnightblue" stroke="midnightblue" points="278.57,-352.97 280.94,-342.64 272.65,-349.24 278.57,-352.97"/>
</g>
<!-- Node19 -->
<g id="node10" class="node">
<title>Node19</title>
<g id="a_node10"><a xlink:href="rinex_8cpp.html#a3ae01240baac2b9246e1d1f4ad068eaf" target="_top" xlink:title="Decode gnav header.">
<polygon fill="white" stroke="black" points="122.5,-380.5 122.5,-399.5 207.5,-399.5 207.5,-380.5 122.5,-380.5"/>
<text text-anchor="middle" x="165" y="-387.5" font-family="Helvetica,sans-Serif" font-size="10.00">decodeGnavH</text>
</a>
</g>
</g>
<!-- Node1&#45;&gt;Node19 -->
<g id="edge10" class="edge">
<title>Node1&#45;&gt;Node19</title>
<path fill="none" stroke="midnightblue" d="M263.62,-348.34C251.82,-355.82 237,-364.57 223,-371 215.32,-374.53 206.8,-377.72 198.73,-380.45"/>
<polygon fill="midnightblue" stroke="midnightblue" points="265.87,-351.06 272.36,-342.68 262.07,-345.18 265.87,-351.06"/>
</g>
<!-- Node20 -->
<g id="node11" class="node">
<title>Node20</title>
<g id="a_node11"><a xlink:href="rinex_8cpp.html#a774458b36a7a13e1263568e05106dc83" target="_top" xlink:title="Decode obs header.">
<polygon fill="white" stroke="black" points="126,-342.5 126,-361.5 204,-361.5 204,-342.5 126,-342.5"/>
<text text-anchor="middle" x="165" y="-349.5" font-family="Helvetica,sans-Serif" font-size="10.00">decodeObsH</text>
</a>
</g>
</g>
<!-- Node1&#45;&gt;Node20 -->
<g id="edge12" class="edge">
<title>Node1&#45;&gt;Node20</title>
<path fill="none" stroke="midnightblue" d="M248.87,-338.93C234.59,-341.19 218.33,-343.75 204.02,-346.01"/>
<polygon fill="midnightblue" stroke="midnightblue" points="249.52,-342.37 258.85,-337.36 248.43,-335.46 249.52,-342.37"/>
</g>
<!-- Node21 -->
<g id="node12" class="node">
<title>Node21</title>
<g id="a_node12"><a xlink:href="orbex_8cpp.html#aee81025026cfd3a1c193d9eb64df2895" target="_top" xlink:title="Read EPHEMERIS/DATA block Note: Only ATT record type is supported currently.">
<polygon fill="white" stroke="red" points="122,-304.5 122,-323.5 208,-323.5 208,-304.5 122,-304.5"/>
<text text-anchor="middle" x="165" y="-311.5" font-family="Helvetica,sans-Serif" font-size="10.00">readOrbexEph</text>
</a>
</g>
</g>
<!-- Node1&#45;&gt;Node21 -->
<g id="edge14" class="edge">
<title>Node1&#45;&gt;Node21</title>
<path fill="none" stroke="midnightblue" d="M248.9,-327.07C235.98,-325.03 221.43,-322.74 208.17,-320.65"/>
<polygon fill="midnightblue" stroke="midnightblue" points="248.43,-330.54 258.85,-328.64 249.52,-323.63 248.43,-330.54"/>
</g>
<!-- Node25 -->
<g id="node13" class="node">
<title>Node25</title>
<g id="a_node13"><a xlink:href="orbex_8cpp.html#a22504f72305e51c2d74ec94b113744df" target="_top" xlink:title="Read and check the two header lines from an orbex file.">
<polygon fill="white" stroke="red" points="113.5,-266.5 113.5,-285.5 216.5,-285.5 216.5,-266.5 113.5,-266.5"/>
<text text-anchor="middle" x="165" y="-273.5" font-family="Helvetica,sans-Serif" font-size="10.00">readOrbexHeader</text>
</a>
</g>
</g>
<!-- Node1&#45;&gt;Node25 -->
<g id="edge15" class="edge">
<title>Node1&#45;&gt;Node25</title>
<path fill="none" stroke="midnightblue" d="M263.62,-317.66C251.82,-310.18 237,-301.43 223,-295 215.32,-291.47 206.8,-288.28 198.73,-285.55"/>
<polygon fill="midnightblue" stroke="midnightblue" points="262.07,-320.82 272.36,-323.32 265.87,-314.94 262.07,-320.82"/>
</g>
<!-- Node26 -->
<g id="node14" class="node">
<title>Node26</title>
<g id="a_node14"><a xlink:href="sp3_8cpp.html#a02d321d95cd2020d9ad64a3abfba6216" target="_top" xlink:title="read an epoch of data from an sp3 precise ephemeris file">
<polygon fill="white" stroke="red" points="137,-228.5 137,-247.5 193,-247.5 193,-228.5 137,-228.5"/>
<text text-anchor="middle" x="165" y="-235.5" font-family="Helvetica,sans-Serif" font-size="10.00">readsp3</text>
</a>
</g>
</g>
<!-- Node1&#45;&gt;Node26 -->
<g id="edge16" class="edge">
<title>Node1&#45;&gt;Node26</title>
<path fill="none" stroke="midnightblue" d="M275.53,-314.77C264.32,-297.59 245.42,-272.28 223,-257 214.12,-250.95 203.16,-246.69 193.23,-243.76"/>
<polygon fill="midnightblue" stroke="midnightblue" points="272.65,-316.76 280.94,-323.36 278.57,-313.03 272.65,-316.76"/>
</g>
<!-- Node28 -->
<g id="node15" class="node">
<title>Node28</title>
<g id="a_node15"><a xlink:href="erp_8cpp.html#a65e5b05849c2712fe7fc84de6140b13f" target="_top" xlink:title="read IERS final EOP products">
<polygon fill="white" stroke="red" points="125,-190.5 125,-209.5 205,-209.5 205,-190.5 125,-190.5"/>
<text text-anchor="middle" x="165" y="-197.5" font-family="Helvetica,sans-Serif" font-size="10.00">readIersFinal</text>
</a>
</g>
</g>
<!-- Node1&#45;&gt;Node28 -->
<g id="edge17" class="edge">
<title>Node1&#45;&gt;Node28</title>
<path fill="none" stroke="midnightblue" d="M280.75,-313.96C272.17,-288.72 253.67,-244.43 223,-219 217.78,-214.67 211.54,-211.32 205.12,-208.72"/>
<polygon fill="midnightblue" stroke="midnightblue" points="277.42,-315.05 283.82,-323.5 284.08,-312.91 277.42,-315.05"/>
</g>
<!-- Node30 -->
<g id="node16" class="node">
<title>Node30</title>
<g id="a_node16"><a xlink:href="ionex_8cpp.html#ad8d9b28daf532c13a9a7e71912cae79f" target="_top" xlink:title="read ionex dcb aux data">
<polygon fill="white" stroke="black" points="123.5,-152.5 123.5,-171.5 206.5,-171.5 206.5,-152.5 123.5,-152.5"/>
<text text-anchor="middle" x="165" y="-159.5" font-family="Helvetica,sans-Serif" font-size="10.00">readionexdcb</text>
</a>
</g>
</g>
<!-- Node1&#45;&gt;Node30 -->
<g id="edge18" class="edge">
<title>Node1&#45;&gt;Node30</title>
<path fill="none" stroke="midnightblue" d="M283.6,-313.27C277.85,-281.08 261.99,-217.21 223,-181 218.34,-176.67 212.66,-173.32 206.72,-170.74"/>
<polygon fill="midnightblue" stroke="midnightblue" points="280.16,-313.94 285.24,-323.24 287.07,-312.81 280.16,-313.94"/>
</g>
<!-- Node31 -->
<g id="node17" class="node">
<title>Node31</title>
<g id="a_node17"><a xlink:href="ionex_8cpp.html#aaa98d3b461d6df7be466702f97817da4" target="_top" xlink:title=" ">
<polygon fill="white" stroke="red" points="0,-95.5 0,-114.5 71,-114.5 71,-95.5 0,-95.5"/>
<text text-anchor="middle" x="35.5" y="-102.5" font-family="Helvetica,sans-Serif" font-size="10.00">readionexh</text>
</a>
</g>
</g>
<!-- Node1&#45;&gt;Node31 -->
<g id="edge22" class="edge">
<title>Node1&#45;&gt;Node31</title>
<path fill="none" stroke="midnightblue" d="M284.88,-313.34C279.8,-257.14 262.14,-97.89 223,-67 170.35,-25.44 83.93,-73.69 50.4,-95.44"/>
<polygon fill="midnightblue" stroke="midnightblue" points="281.4,-313.75 285.75,-323.41 288.37,-313.14 281.4,-313.75"/>
</g>
<!-- Node33 -->
<g id="node18" class="node">
<title>Node33</title>
<g id="a_node18"><a xlink:href="tides_8cpp.html#a1425ef4f680e83dce84af83d374efa25" target="_top" xlink:title="Read ocean pole load tide coefficients.">
<polygon fill="white" stroke="red" points="107,-76.5 107,-95.5 223,-95.5 223,-76.5 107,-76.5"/>
<text text-anchor="middle" x="165" y="-83.5" font-family="Helvetica,sans-Serif" font-size="10.00">readOceanPoleCoeff</text>
</a>
</g>
</g>
<!-- Node1&#45;&gt;Node33 -->
<g id="edge21" class="edge">
<title>Node1&#45;&gt;Node33</title>
<path fill="none" stroke="midnightblue" d="M286.33,-312.94C284.92,-270.29 275.81,-169.62 223,-110 217.45,-103.73 209.99,-99.05 202.3,-95.58"/>
<polygon fill="midnightblue" stroke="midnightblue" points="282.84,-313.21 286.56,-323.14 289.84,-313.06 282.84,-313.21"/>
</g>
<!-- Node35 -->
<g id="node19" class="node">
<title>Node35</title>
<g id="a_node19"><a xlink:href="ionex_8cpp.html#abf1aa645c47caa10ebb6f4447dc72cbc" target="_top" xlink:title=" ">
<polygon fill="white" stroke="red" points="129.5,-0.5 129.5,-19.5 200.5,-19.5 200.5,-0.5 129.5,-0.5"/>
<text text-anchor="middle" x="165" y="-7.5" font-family="Helvetica,sans-Serif" font-size="10.00">readionexb</text>
</a>
</g>
</g>
<!-- Node1&#45;&gt;Node35 -->
<g id="edge23" class="edge">
<title>Node1&#45;&gt;Node35</title>
<path fill="none" stroke="midnightblue" d="M284.68,-313.25C278.84,-253.7 258.81,-77.32 223,-34 217.19,-26.97 208.95,-21.96 200.54,-18.4"/>
<polygon fill="midnightblue" stroke="midnightblue" points="281.2,-313.62 285.63,-323.24 288.17,-312.96 281.2,-313.62"/>
</g>
<!-- Node15&#45;&gt;Node16 -->
<g id="edge6" class="edge">
<title>Node15&#45;&gt;Node16</title>
<path fill="none" stroke="midnightblue" d="M115.52,-490.24C112.53,-488.67 109.66,-486.93 107,-485 74.57,-461.5 50.64,-418.68 41.08,-399.61"/>
<polygon fill="midnightblue" stroke="midnightblue" points="114.18,-493.48 124.73,-494.46 117.1,-487.11 114.18,-493.48"/>
</g>
<!-- Node17&#45;&gt;Node16 -->
<g id="edge8" class="edge">
<title>Node17&#45;&gt;Node16</title>
<path fill="none" stroke="midnightblue" d="M119.39,-452.87C115.11,-451.1 110.91,-449.14 107,-447 82.98,-433.85 59.04,-412.24 46.17,-399.75"/>
<polygon fill="midnightblue" stroke="midnightblue" points="118.21,-456.17 128.8,-456.46 120.71,-449.63 118.21,-456.17"/>
</g>
<!-- Node19&#45;&gt;Node16 -->
<g id="edge11" class="edge">
<title>Node19&#45;&gt;Node16</title>
<path fill="none" stroke="midnightblue" d="M112.14,-390C97.27,-390 81.5,-390 68.23,-390"/>
<polygon fill="midnightblue" stroke="midnightblue" points="112.25,-393.5 122.25,-390 112.25,-386.5 112.25,-393.5"/>
</g>
<!-- Node20&#45;&gt;Node16 -->
<g id="edge13" class="edge">
<title>Node20&#45;&gt;Node16</title>
<path fill="none" stroke="midnightblue" d="M121.86,-364.56C104.38,-369.77 84.43,-375.71 68.22,-380.55"/>
<polygon fill="midnightblue" stroke="midnightblue" points="123.24,-367.8 131.83,-361.59 121.24,-361.09 123.24,-367.8"/>
</g>
<!-- Node30&#45;&gt;Node31 -->
<g id="edge19" class="edge">
<title>Node30&#45;&gt;Node31</title>
<path fill="none" stroke="midnightblue" d="M133.23,-148.24C109.93,-137.83 78.53,-123.79 57.91,-114.57"/>
<polygon fill="midnightblue" stroke="midnightblue" points="132.1,-151.57 142.66,-152.46 134.96,-145.18 132.1,-151.57"/>
</g>
</g>
</svg>
        <g id="navigator" transform="translate(0 0)" fill="#404254">
                <rect fill="#f2f5e9" fill-opacity="0.5" stroke="#606060" stroke-width=".5" x="0" y="0" width="60" height="60"/>
                <use id="zoomplus" xlink:href="#zoomPlus" x="17" y="9" onmousedown="handleZoom(evt,'in')"/>
                <use id="zoomminus" xlink:href="#zoomMin" x="42" y="9" onmousedown="handleZoom(evt,'out')"/>
                <use id="reset" xlink:href="#resetDef" x="30" y="36" onmousedown="handleReset()"/>
                <g id="arrowUp" xlink:href="#dirArrow" transform="translate(30 24)" onmousedown="handlePan(0,-1)">
                  <use xlink:href="#rim" fill="#404040">
                        <set attributeName="fill" to="#808080" begin="arrowUp.mouseover" end="arrowUp.mouseout"/>
                  </use>
                  <path fill="none" stroke="white" stroke-width="1.5" d="M0,-3.0v7 M-2.5,-0.5L0,-3.0L2.5,-0.5"/>
                </g>
                <g id="arrowRight" xlink:href="#dirArrow" transform="rotate(90) translate(36 -43)" onmousedown="handlePan(1,0)">
                  <use xlink:href="#rim" fill="#404040">
                        <set attributeName="fill" to="#808080" begin="arrowRight.mouseover" end="arrowRight.mouseout"/>
                  </use>
                  <path fill="none" stroke="white" stroke-width="1.5" d="M0,-3.0v7 M-2.5,-0.5L0,-3.0L2.5,-0.5"/>
                </g>
                <g id="arrowDown" xlink:href="#dirArrow" transform="rotate(180) translate(-30 -48)" onmousedown="handlePan(0,1)">
                  <use xlink:href="#rim" fill="#404040">
                        <set attributeName="fill" to="#808080" begin="arrowDown.mouseover" end="arrowDown.mouseout"/>
                  </use>
                  <path fill="none" stroke="white" stroke-width="1.5" d="M0,-3.0v7 M-2.5,-0.5L0,-3.0L2.5,-0.5"/>
                </g>
                <g id="arrowLeft" xlink:href="#dirArrow" transform="rotate(270) translate(-36 17)" onmousedown="handlePan(-1,0)">
                  <use xlink:href="#rim" fill="#404040">
                        <set attributeName="fill" to="#808080" begin="arrowLeft.mouseover" end="arrowLeft.mouseout"/>
                  </use>
                  <path fill="none" stroke="white" stroke-width="1.5" d="M0,-3.0v7 M-2.5,-0.5L0,-3.0L2.5,-0.5"/>
                </g>
        </g>
        <svg viewBox="0 0 15 15" width="100%" height="30px" preserveAspectRatio="xMaxYMin meet">
         <g id="arrow_out" transform="scale(0.3 0.3)">
          <a xlink:href="gTime_8hpp_aca21817ee2127e89013ae4252c5f9abe_icgraph_org.svg" target="_base">
           <rect id="button" ry="5" rx="5" y="6" x="6" height="38" width="38"
                fill="#f2f5e9" fill-opacity="0.5" stroke="#606060" stroke-width="1.0"/>
           <path id="arrow"
             d="M 11.500037,31.436501 C 11.940474,20.09759 22.043105,11.32322 32.158766,21.979434 L 37.068811,17.246167 C 37.068811,17.246167 37.088388,32 37.088388,32 L 22.160133,31.978069 C 22.160133,31.978069 26.997745,27.140456 26.997745,27.140456 C 18.528582,18.264221 13.291696,25.230495 11.500037,31.436501 z"
             style="fill:#404040;"/>
          </a>
         </g>
        </svg>
</svg>
