<?xml version="1.0" encoding="UTF-8" standalone="no"?>
<!DOCTYPE svg PUBLIC "-//W3C//DTD SVG 1.1//EN"
 "http://www.w3.org/Graphics/SVG/1.1/DTD/svg11.dtd">
<!-- Generated by graphviz version 2.43.0 (0)
 -->
<!-- Title: gpst2utc Pages: 1 -->
<svg width="328pt" height="446pt"
 viewBox="0.00 0.00 328.00 446.00" xmlns="http://www.w3.org/2000/svg" xmlns:xlink="http://www.w3.org/1999/xlink">
<g id="graph0" class="graph" transform="scale(1 1) rotate(0) translate(4 442)">
<title>gpst2utc</title>
<polygon fill="white" stroke="transparent" points="-4,4 -4,-442 324,-442 324,4 -4,4"/>
<!-- Node1 -->
<g id="node1" class="node">
<title>Node1</title>
<g id="a_node1"><a xlink:title=" ">
<polygon fill="#bfbfbf" stroke="black" points="261,-209.5 261,-228.5 320,-228.5 320,-209.5 261,-209.5"/>
<text text-anchor="middle" x="290.5" y="-216.5" font-family="Helvetica,sans-Serif" font-size="10.00">gpst2utc</text>
</a>
</g>
</g>
<!-- Node2 -->
<g id="node2" class="node">
<title>Node2</title>
<g id="a_node2"><a xlink:href="GinAR__main_8cpp.html#a676cd5ea061291498888f4a5bbf5a525" target="_top" xlink:title=" ">
<polygon fill="white" stroke="red" points="126,-418.5 126,-437.5 203,-437.5 203,-418.5 126,-418.5"/>
<text text-anchor="middle" x="164.5" y="-425.5" font-family="Helvetica,sans-Serif" font-size="10.00">eclipse_safe</text>
</a>
</g>
</g>
<!-- Node1&#45;&gt;Node2 -->
<g id="edge1" class="edge">
<title>Node1&#45;&gt;Node2</title>
<path fill="none" stroke="midnightblue" d="M289.13,-228.88C287.44,-260 277.94,-357.01 225,-409 218.97,-414.93 211.08,-419 203.04,-421.81"/>
</g>
<!-- Node8 -->
<g id="node3" class="node">
<title>Node8</title>
<g id="a_node3"><a xlink:href="rinexNavWrite_8cpp.html#a46fd4ea12d70dbba01d33413b01d175f" target="_top" xlink:title=" ">
<polygon fill="white" stroke="red" points="104,-380.5 104,-399.5 225,-399.5 225,-380.5 104,-380.5"/>
<text text-anchor="middle" x="164.5" y="-387.5" font-family="Helvetica,sans-Serif" font-size="10.00">outputNavRinexGeph</text>
</a>
</g>
</g>
<!-- Node1&#45;&gt;Node8 -->
<g id="edge2" class="edge">
<title>Node1&#45;&gt;Node8</title>
<path fill="none" stroke="midnightblue" d="M288.19,-228.79C284.1,-255.59 269.06,-330.83 225,-371 220.75,-374.87 215.71,-377.96 210.39,-380.41"/>
</g>
<!-- Node13 -->
<g id="node4" class="node">
<title>Node13</title>
<g id="a_node4"><a xlink:href="ionoSpherical_8cpp.html#a32460ecb229f47f08516ff7a35f45f47" target="_top" xlink:title=" ">
<polygon fill="white" stroke="red" points="112.5,-342.5 112.5,-361.5 216.5,-361.5 216.5,-342.5 112.5,-342.5"/>
<text text-anchor="middle" x="164.5" y="-349.5" font-family="Helvetica,sans-Serif" font-size="10.00">Ipp_check_sphhar</text>
</a>
</g>
</g>
<!-- Node1&#45;&gt;Node13 -->
<g id="edge3" class="edge">
<title>Node1&#45;&gt;Node13</title>
<path fill="none" stroke="midnightblue" d="M286.27,-228.56C278.75,-249.43 258.19,-299.48 225,-328 217.82,-334.17 208.85,-338.89 200.07,-342.44"/>
</g>
<!-- Node23 -->
<g id="node5" class="node">
<title>Node23</title>
<g id="a_node5"><a xlink:href="ppppp__obs_8cpp.html#a3db2ffced7ab37c4874c3a53fcb7953e" target="_top" xlink:title=" ">
<polygon fill="white" stroke="red" points="0,-228.5 0,-247.5 68,-247.5 68,-228.5 0,-228.5"/>
<text text-anchor="middle" x="34" y="-235.5" font-family="Helvetica,sans-Serif" font-size="10.00">stationPPP</text>
</a>
</g>
</g>
<!-- Node1&#45;&gt;Node23 -->
<g id="edge4" class="edge">
<title>Node1&#45;&gt;Node23</title>
<path fill="none" stroke="midnightblue" d="M284.94,-228.53C276.14,-245.64 255,-281.11 225,-295 176.2,-317.59 154.6,-313.2 104,-295 77.68,-285.54 54.26,-261.2 42.67,-247.59"/>
</g>
<!-- Node25 -->
<g id="node6" class="node">
<title>Node25</title>
<g id="a_node6"><a xlink:href="brdc2sp3__main_8cpp.html#a4d3471358091d3a4ea528b47af119710" target="_top" xlink:title=" ">
<polygon fill="white" stroke="red" points="125,-266.5 125,-285.5 204,-285.5 204,-266.5 125,-266.5"/>
<text text-anchor="middle" x="164.5" y="-273.5" font-family="Helvetica,sans-Serif" font-size="10.00">BS_satantoff</text>
</a>
</g>
</g>
<!-- Node1&#45;&gt;Node25 -->
<g id="edge5" class="edge">
<title>Node1&#45;&gt;Node25</title>
<path fill="none" stroke="midnightblue" d="M275.14,-228.72C262.39,-237.05 243.03,-248.93 225,-257 217.08,-260.54 208.3,-263.73 199.97,-266.43"/>
</g>
<!-- Node27 -->
<g id="node7" class="node">
<title>Node27</title>
<g id="a_node7"><a xlink:href="erp_8cpp.html#a3426e4aadb744b593070c3c185c8141e" target="_top" xlink:title="Get earth rotation parameter values.">
<polygon fill="white" stroke="black" points="140.5,-228.5 140.5,-247.5 188.5,-247.5 188.5,-228.5 140.5,-228.5"/>
<text text-anchor="middle" x="164.5" y="-235.5" font-family="Helvetica,sans-Serif" font-size="10.00">geterp</text>
</a>
</g>
</g>
<!-- Node1&#45;&gt;Node27 -->
<g id="edge6" class="edge">
<title>Node1&#45;&gt;Node27</title>
<path fill="none" stroke="midnightblue" d="M260.74,-223.41C238.85,-226.76 209.1,-231.32 188.71,-234.44"/>
</g>
<!-- Node28 -->
<g id="node8" class="node">
<title>Node28</title>
<g id="a_node8"><a xlink:href="gTime_8cpp.html#a8170f12d60a7f1e8ed3463383f3b6f1a" target="_top" xlink:title=" ">
<polygon fill="white" stroke="red" points="133.5,-190.5 133.5,-209.5 195.5,-209.5 195.5,-190.5 133.5,-190.5"/>
<text text-anchor="middle" x="164.5" y="-197.5" font-family="Helvetica,sans-Serif" font-size="10.00">gpst2mjd</text>
</a>
</g>
</g>
<!-- Node1&#45;&gt;Node28 -->
<g id="edge7" class="edge">
<title>Node1&#45;&gt;Node28</title>
<path fill="none" stroke="midnightblue" d="M260.74,-214.59C241.28,-211.61 215.62,-207.68 195.83,-204.65"/>
</g>
<!-- Node34 -->
<g id="node9" class="node">
<title>Node34</title>
<g id="a_node9"><a xlink:href="preceph_8cpp.html#ae70ebf01aa8f9bfaf78bebc55f62b99b" target="_top" xlink:title=" ">
<polygon fill="white" stroke="red" points="133,-152.5 133,-171.5 196,-171.5 196,-152.5 133,-152.5"/>
<text text-anchor="middle" x="164.5" y="-159.5" font-family="Helvetica,sans-Serif" font-size="10.00">satAntOff</text>
</a>
</g>
</g>
<!-- Node1&#45;&gt;Node34 -->
<g id="edge8" class="edge">
<title>Node1&#45;&gt;Node34</title>
<path fill="none" stroke="midnightblue" d="M275.14,-209.28C262.39,-200.95 243.03,-189.07 225,-181 215.89,-176.93 205.65,-173.33 196.26,-170.39"/>
</g>
<!-- Node45 -->
<g id="node10" class="node">
<title>Node45</title>
<g id="a_node10"><a xlink:href="ppp_8cpp.html#ad3feecafa11a2ea6ce4db54fba1b5a24" target="_top" xlink:title="exclude meas of eclipsing satellite (block IIA)">
<polygon fill="white" stroke="red" points="129.5,-114.5 129.5,-133.5 199.5,-133.5 199.5,-114.5 129.5,-114.5"/>
<text text-anchor="middle" x="164.5" y="-121.5" font-family="Helvetica,sans-Serif" font-size="10.00">testeclipse</text>
</a>
</g>
</g>
<!-- Node1&#45;&gt;Node45 -->
<g id="edge10" class="edge">
<title>Node1&#45;&gt;Node45</title>
<path fill="none" stroke="midnightblue" d="M283.84,-209.33C273.93,-193.23 251.93,-160.95 225,-143 217.42,-137.95 208.41,-134.16 199.72,-131.36"/>
</g>
<!-- Node46 -->
<g id="node11" class="node">
<title>Node46</title>
<g id="a_node11"><a xlink:href="ppp_8cpp.html#a4e1c6c21b8c1cf98a28f01035f547b2e" target="_top" xlink:title="Satellite attitude model.">
<polygon fill="white" stroke="red" points="136,-76.5 136,-95.5 193,-95.5 193,-76.5 136,-76.5"/>
<text text-anchor="middle" x="164.5" y="-83.5" font-family="Helvetica,sans-Serif" font-size="10.00">sat_yaw</text>
</a>
</g>
</g>
<!-- Node1&#45;&gt;Node46 -->
<g id="edge11" class="edge">
<title>Node1&#45;&gt;Node46</title>
<path fill="none" stroke="midnightblue" d="M286.76,-209.47C280,-187.67 260.47,-133.83 225,-105 215.91,-97.61 203.9,-93.08 193.05,-90.3"/>
</g>
<!-- Node37 -->
<g id="node12" class="node">
<title>Node37</title>
<g id="a_node12"><a xlink:href="ppp__network_8cpp.html#adbcdcf140ee377fae3dd4ea16d34e4af" target="_top" xlink:title="PPP observed&#45;minus&#45;computed.">
<polygon fill="white" stroke="red" points="136.5,-38.5 136.5,-57.5 192.5,-57.5 192.5,-38.5 136.5,-38.5"/>
<text text-anchor="middle" x="164.5" y="-45.5" font-family="Helvetica,sans-Serif" font-size="10.00">pppomc</text>
</a>
</g>
</g>
<!-- Node1&#45;&gt;Node37 -->
<g id="edge12" class="edge">
<title>Node1&#45;&gt;Node37</title>
<path fill="none" stroke="midnightblue" d="M288.19,-209.21C284.1,-182.41 269.06,-107.17 225,-67 216.11,-58.89 203.74,-54.24 192.58,-51.58"/>
</g>
<!-- Node38 -->
<g id="node13" class="node">
<title>Node38</title>
<g id="a_node13"><a xlink:href="ppp__user_8cpp.html#a70cbdeafd26c3c4a863baa1a23e760a8" target="_top" xlink:title=" ">
<polygon fill="white" stroke="red" points="141.5,-0.5 141.5,-19.5 187.5,-19.5 187.5,-0.5 141.5,-0.5"/>
<text text-anchor="middle" x="164.5" y="-7.5" font-family="Helvetica,sans-Serif" font-size="10.00">pppos</text>
</a>
</g>
</g>
<!-- Node1&#45;&gt;Node38 -->
<g id="edge13" class="edge">
<title>Node1&#45;&gt;Node38</title>
<path fill="none" stroke="midnightblue" d="M289.13,-209.12C287.44,-178 277.94,-80.99 225,-29 215.02,-19.2 199.99,-14.45 187.53,-12.15"/>
</g>
<!-- Node34&#45;&gt;Node23 -->
<g id="edge9" class="edge">
<title>Node34&#45;&gt;Node23</title>
<path fill="none" stroke="midnightblue" d="M132.92,-169.33C123.35,-172.26 112.95,-176.12 104,-181 80.27,-193.96 56.92,-215.63 44.4,-228.19"/>
</g>
</g>
</svg>
