<?xml version="1.0" encoding="UTF-8" standalone="no"?>
<!DOCTYPE svg PUBLIC "-//W3C//DTD SVG 1.1//EN"
 "http://www.w3.org/Graphics/SVG/1.1/DTD/svg11.dtd">
<!-- Generated by graphviz version 2.43.0 (0)
 -->
<!-- Title: /ginan/src/cpp/orbprop/iers2010.hpp Pages: 1 -->
<svg width="976pt" height="173pt"
 viewBox="0.00 0.00 975.50 173.00" xmlns="http://www.w3.org/2000/svg" xmlns:xlink="http://www.w3.org/1999/xlink">
<g id="graph0" class="graph" transform="scale(1 1) rotate(0) translate(4 169)">
<title>/ginan/src/cpp/orbprop/iers2010.hpp</title>
<polygon fill="white" stroke="transparent" points="-4,4 -4,-169 971.5,-169 971.5,4 -4,4"/>
<!-- Node1 -->
<g id="node1" class="node">
<title>Node1</title>
<g id="a_node1"><a xlink:title=" ">
<polygon fill="#bfbfbf" stroke="black" points="468.5,-134.5 468.5,-164.5 593.5,-164.5 593.5,-134.5 468.5,-134.5"/>
<text text-anchor="start" x="476.5" y="-152.5" font-family="Helvetica,sans-Serif" font-size="10.00">/ginan/src/cpp/orbprop</text>
<text text-anchor="middle" x="531" y="-141.5" font-family="Helvetica,sans-Serif" font-size="10.00">/iers2010.hpp</text>
</a>
</g>
</g>
<!-- Node2 -->
<g id="node2" class="node">
<title>Node2</title>
<g id="a_node2"><a xlink:href="debug_8cpp.html" target="_top" xlink:title=" ">
<polygon fill="white" stroke="black" points="0,-0.5 0,-30.5 130,-30.5 130,-0.5 0,-0.5"/>
<text text-anchor="start" x="8" y="-18.5" font-family="Helvetica,sans-Serif" font-size="10.00">/ginan/src/cpp/common</text>
<text text-anchor="middle" x="65" y="-7.5" font-family="Helvetica,sans-Serif" font-size="10.00">/debug.cpp</text>
</a>
</g>
</g>
<!-- Node1&#45;&gt;Node2 -->
<g id="edge1" class="edge">
<title>Node1&#45;&gt;Node2</title>
<path fill="none" stroke="midnightblue" d="M458.48,-133.29C416.12,-123.99 361.77,-111.35 314,-98 239.09,-77.07 153.15,-47.74 104.35,-30.57"/>
<polygon fill="midnightblue" stroke="midnightblue" points="457.91,-136.75 468.43,-135.46 459.41,-129.91 457.91,-136.75"/>
</g>
<!-- Node3 -->
<g id="node3" class="node">
<title>Node3</title>
<g id="a_node3"><a xlink:href="tides_8cpp.html" target="_top" xlink:title=" ">
<polygon fill="white" stroke="black" points="148,-0.5 148,-30.5 278,-30.5 278,-0.5 148,-0.5"/>
<text text-anchor="start" x="156" y="-18.5" font-family="Helvetica,sans-Serif" font-size="10.00">/ginan/src/cpp/common</text>
<text text-anchor="middle" x="213" y="-7.5" font-family="Helvetica,sans-Serif" font-size="10.00">/tides.cpp</text>
</a>
</g>
</g>
<!-- Node1&#45;&gt;Node3 -->
<g id="edge2" class="edge">
<title>Node1&#45;&gt;Node3</title>
<path fill="none" stroke="midnightblue" d="M476.22,-131.33C448.33,-122.17 414.06,-110.28 384,-98 332.09,-76.79 273.48,-47.68 240.11,-30.6"/>
<polygon fill="midnightblue" stroke="midnightblue" points="475.21,-134.68 485.8,-134.45 477.37,-128.02 475.21,-134.68"/>
</g>
<!-- Node4 -->
<g id="node4" class="node">
<title>Node4</title>
<g id="a_node4"><a xlink:href="coordinates_8cpp.html" target="_top" xlink:title=" ">
<polygon fill="white" stroke="black" points="296.5,-0.5 296.5,-30.5 421.5,-30.5 421.5,-0.5 296.5,-0.5"/>
<text text-anchor="start" x="304.5" y="-18.5" font-family="Helvetica,sans-Serif" font-size="10.00">/ginan/src/cpp/orbprop</text>
<text text-anchor="middle" x="359" y="-7.5" font-family="Helvetica,sans-Serif" font-size="10.00">/coordinates.cpp</text>
</a>
</g>
</g>
<!-- Node1&#45;&gt;Node4 -->
<g id="edge3" class="edge">
<title>Node1&#45;&gt;Node4</title>
<path fill="none" stroke="midnightblue" d="M472.67,-130.86C452.67,-122.95 431.05,-112.14 414,-98 391.27,-79.15 374.14,-48.56 365.43,-30.7"/>
<polygon fill="midnightblue" stroke="midnightblue" points="471.43,-134.14 482.02,-134.41 473.91,-127.59 471.43,-134.14"/>
</g>
<!-- Node5 -->
<g id="node5" class="node">
<title>Node5</title>
<g id="a_node5"><a xlink:href="coordinates_8hpp.html" target="_top" xlink:title=" ">
<polygon fill="white" stroke="red" points="423.5,-67.5 423.5,-97.5 548.5,-97.5 548.5,-67.5 423.5,-67.5"/>
<text text-anchor="start" x="431.5" y="-85.5" font-family="Helvetica,sans-Serif" font-size="10.00">/ginan/src/cpp/orbprop</text>
<text text-anchor="middle" x="486" y="-74.5" font-family="Helvetica,sans-Serif" font-size="10.00">/coordinates.hpp</text>
</a>
</g>
</g>
<!-- Node1&#45;&gt;Node5 -->
<g id="edge4" class="edge">
<title>Node1&#45;&gt;Node5</title>
<path fill="none" stroke="midnightblue" d="M515.53,-126.16C508.97,-116.68 501.52,-105.92 495.75,-97.58"/>
<polygon fill="midnightblue" stroke="midnightblue" points="512.67,-128.17 521.24,-134.4 518.42,-124.18 512.67,-128.17"/>
</g>
<!-- Node26 -->
<g id="node6" class="node">
<title>Node26</title>
<g id="a_node6"><a xlink:href="iers2010_8cpp.html" target="_top" xlink:title=" ">
<polygon fill="white" stroke="black" points="439.5,-0.5 439.5,-30.5 564.5,-30.5 564.5,-0.5 439.5,-0.5"/>
<text text-anchor="start" x="447.5" y="-18.5" font-family="Helvetica,sans-Serif" font-size="10.00">/ginan/src/cpp/orbprop</text>
<text text-anchor="middle" x="502" y="-7.5" font-family="Helvetica,sans-Serif" font-size="10.00">/iers2010.cpp</text>
</a>
</g>
</g>
<!-- Node1&#45;&gt;Node26 -->
<g id="edge12" class="edge">
<title>Node1&#45;&gt;Node26</title>
<path fill="none" stroke="midnightblue" d="M546.97,-125.81C556.59,-109.19 565.47,-86.27 557,-67 550.38,-51.93 536.79,-39.38 524.78,-30.56"/>
<polygon fill="midnightblue" stroke="midnightblue" points="543.98,-123.99 541.66,-134.33 549.92,-127.69 543.98,-123.99"/>
</g>
<!-- Node27 -->
<g id="node7" class="node">
<title>Node27</title>
<g id="a_node7"><a xlink:href="orbitProp_8cpp.html" target="_top" xlink:title=" ">
<polygon fill="white" stroke="black" points="582.5,-0.5 582.5,-30.5 707.5,-30.5 707.5,-0.5 582.5,-0.5"/>
<text text-anchor="start" x="590.5" y="-18.5" font-family="Helvetica,sans-Serif" font-size="10.00">/ginan/src/cpp/orbprop</text>
<text text-anchor="middle" x="645" y="-7.5" font-family="Helvetica,sans-Serif" font-size="10.00">/orbitProp.cpp</text>
</a>
</g>
</g>
<!-- Node1&#45;&gt;Node27 -->
<g id="edge13" class="edge">
<title>Node1&#45;&gt;Node27</title>
<path fill="none" stroke="midnightblue" d="M549.96,-126.54C573.53,-99.25 613.06,-53.48 632.89,-30.52"/>
<polygon fill="midnightblue" stroke="midnightblue" points="547.09,-124.52 543.2,-134.37 552.39,-129.09 547.09,-124.52"/>
</g>
<!-- Node29 -->
<g id="node8" class="node">
<title>Node29</title>
<g id="a_node8"><a xlink:href="tideCoeff_8cpp.html" target="_top" xlink:title=" ">
<polygon fill="white" stroke="black" points="725.5,-0.5 725.5,-30.5 850.5,-30.5 850.5,-0.5 725.5,-0.5"/>
<text text-anchor="start" x="733.5" y="-18.5" font-family="Helvetica,sans-Serif" font-size="10.00">/ginan/src/cpp/orbprop</text>
<text text-anchor="middle" x="788" y="-7.5" font-family="Helvetica,sans-Serif" font-size="10.00">/tideCoeff.cpp</text>
</a>
</g>
</g>
<!-- Node1&#45;&gt;Node29 -->
<g id="edge14" class="edge">
<title>Node1&#45;&gt;Node29</title>
<path fill="none" stroke="midnightblue" d="M567.41,-129.8C619.51,-103.04 714.17,-54.42 760.69,-30.52"/>
<polygon fill="midnightblue" stroke="midnightblue" points="565.8,-126.69 558.5,-134.37 569,-132.92 565.8,-126.69"/>
</g>
<!-- Node39 -->
<g id="node9" class="node">
<title>Node39</title>
<g id="a_node9"><a xlink:href="slrRec_8cpp.html" target="_top" xlink:title=" ">
<polygon fill="white" stroke="black" points="868.5,-0.5 868.5,-30.5 967.5,-30.5 967.5,-0.5 868.5,-0.5"/>
<text text-anchor="start" x="876.5" y="-18.5" font-family="Helvetica,sans-Serif" font-size="10.00">/ginan/src/cpp/slr</text>
<text text-anchor="middle" x="918" y="-7.5" font-family="Helvetica,sans-Serif" font-size="10.00">/slrRec.cpp</text>
</a>
</g>
</g>
<!-- Node1&#45;&gt;Node39 -->
<g id="edge15" class="edge">
<title>Node1&#45;&gt;Node39</title>
<path fill="none" stroke="midnightblue" d="M581.59,-131.24C659.02,-104.83 805.41,-54.9 876.79,-30.56"/>
<polygon fill="midnightblue" stroke="midnightblue" points="580.38,-127.96 572.05,-134.5 582.64,-134.58 580.38,-127.96"/>
</g>
<!-- Node5&#45;&gt;Node2 -->
<g id="edge5" class="edge">
<title>Node5&#45;&gt;Node2</title>
<path fill="none" stroke="midnightblue" d="M413.4,-71.99C343.08,-62.53 233.52,-47.13 139,-31 136.16,-30.52 133.26,-30.01 130.34,-29.48"/>
<polygon fill="midnightblue" stroke="midnightblue" points="413.11,-75.48 423.48,-73.34 414.04,-68.54 413.11,-75.48"/>
</g>
<!-- Node5&#45;&gt;Node3 -->
<g id="edge6" class="edge">
<title>Node5&#45;&gt;Node3</title>
<path fill="none" stroke="midnightblue" d="M417.2,-65.12C372.53,-54.48 314.9,-40.76 272.27,-30.61"/>
<polygon fill="midnightblue" stroke="midnightblue" points="416.56,-68.56 427.1,-67.48 418.18,-61.75 416.56,-68.56"/>
</g>
<!-- Node5&#45;&gt;Node4 -->
<g id="edge7" class="edge">
<title>Node5&#45;&gt;Node4</title>
<path fill="none" stroke="midnightblue" d="M449.3,-62.71C429.27,-52.46 404.88,-39.98 386.5,-30.58"/>
<polygon fill="midnightblue" stroke="midnightblue" points="447.95,-65.96 458.44,-67.4 451.14,-59.72 447.95,-65.96"/>
</g>
<!-- Node5&#45;&gt;Node26 -->
<g id="edge8" class="edge">
<title>Node5&#45;&gt;Node26</title>
<path fill="none" stroke="midnightblue" d="M491.93,-57.4C494.16,-48.37 496.61,-38.41 498.54,-30.58"/>
<polygon fill="midnightblue" stroke="midnightblue" points="488.46,-56.85 489.47,-67.4 495.26,-58.52 488.46,-56.85"/>
</g>
<!-- Node5&#45;&gt;Node27 -->
<g id="edge9" class="edge">
<title>Node5&#45;&gt;Node27</title>
<path fill="none" stroke="midnightblue" d="M529.92,-63.54C555.37,-53.14 586.93,-40.24 610.57,-30.58"/>
<polygon fill="midnightblue" stroke="midnightblue" points="528.43,-60.37 520.5,-67.4 531.08,-66.85 528.43,-60.37"/>
</g>
<!-- Node5&#45;&gt;Node29 -->
<g id="edge10" class="edge">
<title>Node5&#45;&gt;Node29</title>
<path fill="none" stroke="midnightblue" d="M558.52,-65.89C609.38,-54.95 676.69,-40.46 725.25,-30.01"/>
<polygon fill="midnightblue" stroke="midnightblue" points="557.61,-62.51 548.57,-68.03 559.09,-69.35 557.61,-62.51"/>
</g>
<!-- Node5&#45;&gt;Node39 -->
<g id="edge11" class="edge">
<title>Node5&#45;&gt;Node39</title>
<path fill="none" stroke="midnightblue" d="M559.04,-73.94C634.5,-65.58 755.53,-50.66 859,-31 862.01,-30.43 865.09,-29.8 868.19,-29.14"/>
<polygon fill="midnightblue" stroke="midnightblue" points="558.25,-70.5 548.7,-75.07 559.02,-77.46 558.25,-70.5"/>
</g>
</g>
</svg>
