<?xml version="1.0" encoding="UTF-8" standalone="no"?>
<!DOCTYPE svg PUBLIC "-//W3C//DTD SVG 1.1//EN"
 "http://www.w3.org/Graphics/SVG/1.1/DTD/svg11.dtd">
<!-- Generated by graphviz version 2.43.0 (0)
 -->
<!-- Title: Graphical Class Hierarchy Pages: 1 -->
<svg width="295pt" height="180pt"
 viewBox="0.00 0.00 295.00 180.00" xmlns="http://www.w3.org/2000/svg" xmlns:xlink="http://www.w3.org/1999/xlink">
<g id="graph0" class="graph" transform="scale(1 1) rotate(0) translate(4 176)">
<title>Graphical Class Hierarchy</title>
<polygon fill="white" stroke="transparent" points="-4,4 -4,-176 291,-176 291,4 -4,4"/>
<!-- Node0 -->
<g id="node1" class="node">
<title>Node0</title>
<g id="a_node1"><a xlink:title=" ">
<polygon fill="white" stroke="#bfbfbf" points="0,-65.5 0,-106.5 122,-106.5 122,-65.5 0,-65.5"/>
<text text-anchor="start" x="8" y="-94.5" font-family="Helvetica,sans-Serif" font-size="10.00">boost::log::sinks::</text>
<text text-anchor="start" x="8" y="-83.5" font-family="Helvetica,sans-Serif" font-size="10.00">basic_formatted_sink</text>
<text text-anchor="middle" x="61" y="-72.5" font-family="Helvetica,sans-Serif" font-size="10.00">_backend</text>
</a>
</g>
</g>
<!-- Node1 -->
<g id="node2" class="node">
<title>Node1</title>
<g id="a_node2"><a xlink:href="structConsoleLog.html" target="_top" xlink:title=" ">
<polygon fill="white" stroke="black" points="186,-152.5 186,-171.5 259,-171.5 259,-152.5 186,-152.5"/>
<text text-anchor="middle" x="222.5" y="-159.5" font-family="Helvetica,sans-Serif" font-size="10.00">ConsoleLog</text>
</a>
</g>
</g>
<!-- Node0&#45;&gt;Node1 -->
<g id="edge1" class="edge">
<title>Node0&#45;&gt;Node1</title>
<path fill="none" stroke="midnightblue" d="M92.53,-106.75C110.9,-118.56 135.1,-132.96 158,-143 166.75,-146.84 176.5,-150.18 185.68,-152.95"/>
</g>
<!-- Node2 -->
<g id="node3" class="node">
<title>Node2</title>
<g id="a_node3"><a xlink:href="structErrorExit.html" target="_top" xlink:title=" ">
<polygon fill="white" stroke="black" points="193,-114.5 193,-133.5 252,-133.5 252,-114.5 193,-114.5"/>
<text text-anchor="middle" x="222.5" y="-121.5" font-family="Helvetica,sans-Serif" font-size="10.00">ErrorExit</text>
</a>
</g>
</g>
<!-- Node0&#45;&gt;Node2 -->
<g id="edge2" class="edge">
<title>Node0&#45;&gt;Node2</title>
<path fill="none" stroke="midnightblue" d="M122.3,-100.37C146.47,-106.12 173.18,-112.49 192.79,-117.16"/>
</g>
<!-- Node3 -->
<g id="node4" class="node">
<title>Node3</title>
<g id="a_node4"><a xlink:href="structFileLog.html" target="_top" xlink:title=" ">
<polygon fill="white" stroke="black" points="197.5,-76.5 197.5,-95.5 247.5,-95.5 247.5,-76.5 197.5,-76.5"/>
<text text-anchor="middle" x="222.5" y="-83.5" font-family="Helvetica,sans-Serif" font-size="10.00">FileLog</text>
</a>
</g>
</g>
<!-- Node0&#45;&gt;Node3 -->
<g id="edge3" class="edge">
<title>Node0&#45;&gt;Node3</title>
<path fill="none" stroke="midnightblue" d="M122.3,-86C148.41,-86 177.49,-86 197.37,-86"/>
</g>
<!-- Node4 -->
<g id="node5" class="node">
<title>Node4</title>
<g id="a_node5"><a xlink:href="structGooeySinkBackend.html" target="_top" xlink:title=" ">
<polygon fill="white" stroke="black" points="167.5,-38.5 167.5,-57.5 277.5,-57.5 277.5,-38.5 167.5,-38.5"/>
<text text-anchor="middle" x="222.5" y="-45.5" font-family="Helvetica,sans-Serif" font-size="10.00">GooeySinkBackend</text>
</a>
</g>
</g>
<!-- Node0&#45;&gt;Node4 -->
<g id="edge4" class="edge">
<title>Node0&#45;&gt;Node4</title>
<path fill="none" stroke="midnightblue" d="M122.3,-71.63C142.06,-66.93 163.52,-61.81 181.41,-57.55"/>
</g>
<!-- Node5 -->
<g id="node6" class="node">
<title>Node5</title>
<g id="a_node6"><a xlink:href="structMongoLogSinkBackend.html" target="_top" xlink:title=" ">
<polygon fill="white" stroke="black" points="158,-0.5 158,-19.5 287,-19.5 287,-0.5 158,-0.5"/>
<text text-anchor="middle" x="222.5" y="-7.5" font-family="Helvetica,sans-Serif" font-size="10.00">MongoLogSinkBackend</text>
</a>
</g>
</g>
<!-- Node0&#45;&gt;Node5 -->
<g id="edge5" class="edge">
<title>Node0&#45;&gt;Node5</title>
<path fill="none" stroke="midnightblue" d="M92.53,-65.25C110.9,-53.44 135.1,-39.04 158,-29 166.22,-25.4 175.33,-22.22 184.01,-19.56"/>
</g>
</g>
</svg>
