<?xml version="1.0" encoding="UTF-8" standalone="no"?>
<!DOCTYPE svg PUBLIC "-//W3C//DTD SVG 1.1//EN"
 "http://www.w3.org/Graphics/SVG/1.1/DTD/svg11.dtd">
<!-- Generated by graphviz version 2.43.0 (0)
 -->
<!-- Title: /data/staging/ginan/src/cpp/common/instrument.hpp Pages: 1 -->
<svg width="2147pt" height="173pt"
 viewBox="0.00 0.00 2147.00 173.00" xmlns="http://www.w3.org/2000/svg" xmlns:xlink="http://www.w3.org/1999/xlink">
<g id="graph0" class="graph" transform="scale(1 1) rotate(0) translate(4 169)">
<title>/data/staging/ginan/src/cpp/common/instrument.hpp</title>
<polygon fill="white" stroke="transparent" points="-4,4 -4,-169 2143,-169 2143,4 -4,4"/>
<!-- Node1 -->
<g id="node1" class="node">
<title>Node1</title>
<g id="a_node1"><a xlink:title=" ">
<polygon fill="#bfbfbf" stroke="black" points="1291.5,-134.5 1291.5,-164.5 1468.5,-164.5 1468.5,-134.5 1291.5,-134.5"/>
<text text-anchor="start" x="1299.5" y="-152.5" font-family="Helvetica,sans-Serif" font-size="10.00">/data/staging/ginan</text>
<text text-anchor="middle" x="1380" y="-141.5" font-family="Helvetica,sans-Serif" font-size="10.00">/src/cpp/common/instrument.hpp</text>
</a>
</g>
</g>
<!-- Node2 -->
<g id="node2" class="node">
<title>Node2</title>
<g id="a_node2"><a xlink:href="algebra_8cpp.html" target="_top" xlink:title="This software uses specialised kalman filter classes to perform filtering.">
<polygon fill="white" stroke="black" points="0,-67.5 0,-97.5 160,-97.5 160,-67.5 0,-67.5"/>
<text text-anchor="start" x="8" y="-85.5" font-family="Helvetica,sans-Serif" font-size="10.00">/data/staging/ginan</text>
<text text-anchor="middle" x="80" y="-74.5" font-family="Helvetica,sans-Serif" font-size="10.00">/src/cpp/common/algebra.cpp</text>
</a>
</g>
</g>
<!-- Node1&#45;&gt;Node2 -->
<g id="edge1" class="edge">
<title>Node1&#45;&gt;Node2</title>
<path fill="none" stroke="midnightblue" d="M1291.24,-148.43C1090.68,-147.49 587.42,-140.65 169,-98 166.2,-97.71 163.35,-97.4 160.47,-97.05"/>
</g>
<!-- Node3 -->
<g id="node3" class="node">
<title>Node3</title>
<g id="a_node3"><a xlink:href="erp_8cpp.html" target="_top" xlink:title=" ">
<polygon fill="white" stroke="black" points="178.5,-67.5 178.5,-97.5 317.5,-97.5 317.5,-67.5 178.5,-67.5"/>
<text text-anchor="start" x="186.5" y="-85.5" font-family="Helvetica,sans-Serif" font-size="10.00">/data/staging/ginan</text>
<text text-anchor="middle" x="248" y="-74.5" font-family="Helvetica,sans-Serif" font-size="10.00">/src/cpp/common/erp.cpp</text>
</a>
</g>
</g>
<!-- Node1&#45;&gt;Node3 -->
<g id="edge2" class="edge">
<title>Node1&#45;&gt;Node3</title>
<path fill="none" stroke="midnightblue" d="M1291.27,-148.24C1109.66,-146.82 682.68,-138.99 327,-98 323.95,-97.65 320.85,-97.25 317.71,-96.82"/>
</g>
<!-- Node4 -->
<g id="node4" class="node">
<title>Node4</title>
<g id="a_node4"><a xlink:href="instrument_8cpp.html" target="_top" xlink:title=" ">
<polygon fill="white" stroke="black" points="336,-67.5 336,-97.5 512,-97.5 512,-67.5 336,-67.5"/>
<text text-anchor="start" x="344" y="-85.5" font-family="Helvetica,sans-Serif" font-size="10.00">/data/staging/ginan</text>
<text text-anchor="middle" x="424" y="-74.5" font-family="Helvetica,sans-Serif" font-size="10.00">/src/cpp/common/instrument.cpp</text>
</a>
</g>
</g>
<!-- Node1&#45;&gt;Node4 -->
<g id="edge3" class="edge">
<title>Node1&#45;&gt;Node4</title>
<path fill="none" stroke="midnightblue" d="M1291.37,-145.91C1135.32,-140.77 801.46,-127.15 521,-98 518.12,-97.7 515.2,-97.38 512.25,-97.03"/>
</g>
<!-- Node5 -->
<g id="node5" class="node">
<title>Node5</title>
<g id="a_node5"><a xlink:href="mongo_8cpp.html" target="_top" xlink:title=" ">
<polygon fill="white" stroke="black" points="530.5,-67.5 530.5,-97.5 687.5,-97.5 687.5,-67.5 530.5,-67.5"/>
<text text-anchor="start" x="538.5" y="-85.5" font-family="Helvetica,sans-Serif" font-size="10.00">/data/staging/ginan</text>
<text text-anchor="middle" x="609" y="-74.5" font-family="Helvetica,sans-Serif" font-size="10.00">/src/cpp/common/mongo.cpp</text>
</a>
</g>
</g>
<!-- Node1&#45;&gt;Node5 -->
<g id="edge4" class="edge">
<title>Node1&#45;&gt;Node5</title>
<path fill="none" stroke="midnightblue" d="M1291.48,-144.18C1161.82,-137.34 912.78,-122.24 702,-98 697.29,-97.46 692.46,-96.85 687.59,-96.21"/>
</g>
<!-- Node6 -->
<g id="node6" class="node">
<title>Node6</title>
<g id="a_node6"><a xlink:href="mongoWrite_8cpp.html" target="_top" xlink:title=" ">
<polygon fill="white" stroke="black" points="607.5,-0.5 607.5,-30.5 790.5,-30.5 790.5,-0.5 607.5,-0.5"/>
<text text-anchor="start" x="615.5" y="-18.5" font-family="Helvetica,sans-Serif" font-size="10.00">/data/staging/ginan</text>
<text text-anchor="middle" x="699" y="-7.5" font-family="Helvetica,sans-Serif" font-size="10.00">/src/cpp/common/mongoWrite.cpp</text>
</a>
</g>
</g>
<!-- Node1&#45;&gt;Node6 -->
<g id="edge5" class="edge">
<title>Node1&#45;&gt;Node6</title>
<path fill="none" stroke="midnightblue" d="M1291.36,-146.56C1125.15,-142.19 779.33,-129.42 735,-98 712.79,-82.26 704.1,-49.64 700.84,-30.79"/>
</g>
<!-- Node7 -->
<g id="node7" class="node">
<title>Node7</title>
<g id="a_node7"><a xlink:href="rinexObsWrite_8cpp.html" target="_top" xlink:title=" ">
<polygon fill="white" stroke="black" points="744.5,-67.5 744.5,-97.5 937.5,-97.5 937.5,-67.5 744.5,-67.5"/>
<text text-anchor="start" x="752.5" y="-85.5" font-family="Helvetica,sans-Serif" font-size="10.00">/data/staging/ginan</text>
<text text-anchor="middle" x="841" y="-74.5" font-family="Helvetica,sans-Serif" font-size="10.00">/src/cpp/common/rinexObsWrite.cpp</text>
</a>
</g>
</g>
<!-- Node1&#45;&gt;Node7 -->
<g id="edge6" class="edge">
<title>Node1&#45;&gt;Node7</title>
<path fill="none" stroke="midnightblue" d="M1291.2,-138.67C1203.63,-128.84 1066.01,-113.08 947,-98 943.96,-97.61 940.87,-97.22 937.75,-96.82"/>
</g>
<!-- Node8 -->
<g id="node8" class="node">
<title>Node8</title>
<g id="a_node8"><a xlink:href="testUtils_8cpp.html" target="_top" xlink:title=" ">
<polygon fill="white" stroke="black" points="956,-67.5 956,-97.5 1120,-97.5 1120,-67.5 956,-67.5"/>
<text text-anchor="start" x="964" y="-85.5" font-family="Helvetica,sans-Serif" font-size="10.00">/data/staging/ginan</text>
<text text-anchor="middle" x="1038" y="-74.5" font-family="Helvetica,sans-Serif" font-size="10.00">/src/cpp/common/testUtils.cpp</text>
</a>
</g>
</g>
<!-- Node1&#45;&gt;Node8 -->
<g id="edge7" class="edge">
<title>Node1&#45;&gt;Node8</title>
<path fill="none" stroke="midnightblue" d="M1306.21,-134.48C1248.78,-123.56 1169.43,-108.48 1111.95,-97.55"/>
</g>
<!-- Node9 -->
<g id="node9" class="node">
<title>Node9</title>
<g id="a_node9"><a xlink:href="tropSinex_8cpp.html" target="_top" xlink:title=" ">
<polygon fill="white" stroke="black" points="809,-0.5 809,-30.5 979,-30.5 979,-0.5 809,-0.5"/>
<text text-anchor="start" x="817" y="-18.5" font-family="Helvetica,sans-Serif" font-size="10.00">/data/staging/ginan</text>
<text text-anchor="middle" x="894" y="-7.5" font-family="Helvetica,sans-Serif" font-size="10.00">/src/cpp/common/tropSinex.cpp</text>
</a>
</g>
</g>
<!-- Node1&#45;&gt;Node9 -->
<g id="edge8" class="edge">
<title>Node1&#45;&gt;Node9</title>
<path fill="none" stroke="midnightblue" d="M1291.43,-136.73C1251.93,-129.18 1205.68,-117.09 1167,-98 1147.46,-88.35 1148.65,-76.44 1129,-67 1102.72,-54.37 1035.1,-40.48 979.11,-30.47"/>
</g>
<!-- Node10 -->
<g id="node10" class="node">
<title>Node10</title>
<g id="a_node10"><a xlink:href="coordinates_8hpp.html" target="_top" xlink:title=" ">
<polygon fill="white" stroke="red" points="1176,-67.5 1176,-97.5 1352,-97.5 1352,-67.5 1176,-67.5"/>
<text text-anchor="start" x="1184" y="-85.5" font-family="Helvetica,sans-Serif" font-size="10.00">/data/staging/ginan</text>
<text text-anchor="middle" x="1264" y="-74.5" font-family="Helvetica,sans-Serif" font-size="10.00">/src/cpp/orbprop/coordinates.hpp</text>
</a>
</g>
</g>
<!-- Node1&#45;&gt;Node10 -->
<g id="edge9" class="edge">
<title>Node1&#45;&gt;Node10</title>
<path fill="none" stroke="midnightblue" d="M1354.83,-134.4C1335.37,-123.49 1308.57,-108.47 1289.12,-97.58"/>
</g>
<!-- Node33 -->
<g id="node11" class="node">
<title>Node33</title>
<g id="a_node11"><a xlink:href="orbitProp_8cpp.html" target="_top" xlink:title=" ">
<polygon fill="white" stroke="black" points="997,-0.5 997,-30.5 1159,-30.5 1159,-0.5 997,-0.5"/>
<text text-anchor="start" x="1005" y="-18.5" font-family="Helvetica,sans-Serif" font-size="10.00">/data/staging/ginan</text>
<text text-anchor="middle" x="1078" y="-7.5" font-family="Helvetica,sans-Serif" font-size="10.00">/src/cpp/orbprop/orbitProp.cpp</text>
</a>
</g>
</g>
<!-- Node1&#45;&gt;Node33 -->
<g id="edge19" class="edge">
<title>Node1&#45;&gt;Node33</title>
<path fill="none" stroke="midnightblue" d="M1381.04,-134.44C1381.55,-116.16 1379.44,-84.5 1361,-67 1357.28,-63.47 1241.49,-43.62 1159.19,-29.89"/>
</g>
<!-- Node35 -->
<g id="node12" class="node">
<title>Node35</title>
<g id="a_node12"><a xlink:href="main_8cpp.html" target="_top" xlink:title=" ">
<polygon fill="white" stroke="black" points="1177.5,-0.5 1177.5,-30.5 1300.5,-30.5 1300.5,-0.5 1177.5,-0.5"/>
<text text-anchor="start" x="1185.5" y="-18.5" font-family="Helvetica,sans-Serif" font-size="10.00">/data/staging/ginan</text>
<text text-anchor="middle" x="1239" y="-7.5" font-family="Helvetica,sans-Serif" font-size="10.00">/src/cpp/pea/main.cpp</text>
</a>
</g>
</g>
<!-- Node1&#45;&gt;Node35 -->
<g id="edge20" class="edge">
<title>Node1&#45;&gt;Node35</title>
<path fill="none" stroke="midnightblue" d="M1388.22,-134.39C1397.2,-116.9 1408.51,-86.98 1394,-67 1387.7,-58.33 1334.57,-42.23 1292.25,-30.54"/>
</g>
<!-- Node37 -->
<g id="node13" class="node">
<title>Node37</title>
<g id="a_node13"><a xlink:href="networkEstimator_8cpp.html" target="_top" xlink:title=" ">
<polygon fill="white" stroke="black" points="1318.5,-0.5 1318.5,-30.5 1503.5,-30.5 1503.5,-0.5 1318.5,-0.5"/>
<text text-anchor="start" x="1326.5" y="-18.5" font-family="Helvetica,sans-Serif" font-size="10.00">/data/staging/ginan</text>
<text text-anchor="middle" x="1411" y="-7.5" font-family="Helvetica,sans-Serif" font-size="10.00">/src/cpp/pea/networkEstimator.cpp</text>
</a>
</g>
</g>
<!-- Node1&#45;&gt;Node37 -->
<g id="edge21" class="edge">
<title>Node1&#45;&gt;Node37</title>
<path fill="none" stroke="midnightblue" d="M1401.3,-134.38C1412.73,-125.46 1425.73,-112.84 1432,-98 1441.56,-75.39 1429.53,-47.36 1420.13,-30.76"/>
</g>
<!-- Node38 -->
<g id="node14" class="node">
<title>Node38</title>
<g id="a_node14"><a xlink:href="ppp_8cpp.html" target="_top" xlink:title="Precise point positioning.">
<polygon fill="white" stroke="black" points="1521,-0.5 1521,-30.5 1637,-30.5 1637,-0.5 1521,-0.5"/>
<text text-anchor="start" x="1529" y="-18.5" font-family="Helvetica,sans-Serif" font-size="10.00">/data/staging/ginan</text>
<text text-anchor="middle" x="1579" y="-7.5" font-family="Helvetica,sans-Serif" font-size="10.00">/src/cpp/pea/ppp.cpp</text>
</a>
</g>
</g>
<!-- Node1&#45;&gt;Node38 -->
<g id="edge22" class="edge">
<title>Node1&#45;&gt;Node38</title>
<path fill="none" stroke="midnightblue" d="M1401.3,-134.37C1439.6,-108.97 1519.67,-55.86 1557.86,-30.52"/>
</g>
<!-- Node40 -->
<g id="node15" class="node">
<title>Node40</title>
<g id="a_node15"><a xlink:href="ppp__obs_8cpp.html" target="_top" xlink:title=" ">
<polygon fill="white" stroke="black" points="1655.5,-0.5 1655.5,-30.5 1794.5,-30.5 1794.5,-0.5 1655.5,-0.5"/>
<text text-anchor="start" x="1663.5" y="-18.5" font-family="Helvetica,sans-Serif" font-size="10.00">/data/staging/ginan</text>
<text text-anchor="middle" x="1725" y="-7.5" font-family="Helvetica,sans-Serif" font-size="10.00">/src/cpp/pea/ppp_obs.cpp</text>
</a>
</g>
</g>
<!-- Node1&#45;&gt;Node40 -->
<g id="edge24" class="edge">
<title>Node1&#45;&gt;Node40</title>
<path fill="none" stroke="midnightblue" d="M1468.51,-143.34C1547.37,-137.1 1655.36,-124.03 1689,-98 1710.53,-81.34 1719.47,-49.07 1722.96,-30.52"/>
</g>
<!-- Node41 -->
<g id="node16" class="node">
<title>Node41</title>
<g id="a_node16"><a xlink:href="ppp__pseudoobs_8cpp.html" target="_top" xlink:title=" ">
<polygon fill="white" stroke="black" points="1813,-0.5 1813,-30.5 1987,-30.5 1987,-0.5 1813,-0.5"/>
<text text-anchor="start" x="1821" y="-18.5" font-family="Helvetica,sans-Serif" font-size="10.00">/data/staging/ginan</text>
<text text-anchor="middle" x="1900" y="-7.5" font-family="Helvetica,sans-Serif" font-size="10.00">/src/cpp/pea/ppp_pseudoobs.cpp</text>
</a>
</g>
</g>
<!-- Node1&#45;&gt;Node41 -->
<g id="edge25" class="edge">
<title>Node1&#45;&gt;Node41</title>
<path fill="none" stroke="midnightblue" d="M1468.52,-143.69C1537.03,-137.94 1633.49,-125.38 1714,-98 1740.93,-88.84 1744.24,-79.07 1770,-67 1799.38,-53.24 1833.62,-40.05 1859.59,-30.6"/>
</g>
<!-- Node42 -->
<g id="node17" class="node">
<title>Node42</title>
<g id="a_node17"><a xlink:href="ppp__slr_8cpp.html" target="_top" xlink:title=" ">
<polygon fill="white" stroke="black" points="2005,-0.5 2005,-30.5 2139,-30.5 2139,-0.5 2005,-0.5"/>
<text text-anchor="start" x="2013" y="-18.5" font-family="Helvetica,sans-Serif" font-size="10.00">/data/staging/ginan</text>
<text text-anchor="middle" x="2072" y="-7.5" font-family="Helvetica,sans-Serif" font-size="10.00">/src/cpp/pea/ppp_slr.cpp</text>
</a>
</g>
</g>
<!-- Node1&#45;&gt;Node42 -->
<g id="edge26" class="edge">
<title>Node1&#45;&gt;Node42</title>
<path fill="none" stroke="midnightblue" d="M1468.56,-147.68C1546.51,-144.4 1661.94,-133.22 1756,-98 1779.43,-89.22 1779.8,-76.37 1803,-67 1883.91,-34.33 1910.26,-47.18 1996,-31 1998.9,-30.45 2001.87,-29.89 2004.87,-29.32"/>
</g>
<!-- Node49 -->
<g id="node18" class="node">
<title>Node49</title>
<g id="a_node18"><a xlink:href="ppp__ambres_8cpp.html" target="_top" xlink:title=" ">
<polygon fill="white" stroke="black" points="1522,-67.5 1522,-97.5 1680,-97.5 1680,-67.5 1522,-67.5"/>
<text text-anchor="start" x="1530" y="-85.5" font-family="Helvetica,sans-Serif" font-size="10.00">/data/staging/ginan</text>
<text text-anchor="middle" x="1601" y="-74.5" font-family="Helvetica,sans-Serif" font-size="10.00">/src/cpp/pea/ppp_ambres.cpp</text>
</a>
</g>
</g>
<!-- Node1&#45;&gt;Node49 -->
<g id="edge23" class="edge">
<title>Node1&#45;&gt;Node49</title>
<path fill="none" stroke="midnightblue" d="M1427.68,-134.48C1464.73,-123.58 1515.9,-108.53 1553.02,-97.61"/>
</g>
<!-- Node50 -->
<g id="node19" class="node">
<title>Node50</title>
<g id="a_node19"><a xlink:href="ppppp_8cpp.html" target="_top" xlink:title=" ">
<polygon fill="white" stroke="black" points="1812,-67.5 1812,-97.5 1940,-97.5 1940,-67.5 1812,-67.5"/>
<text text-anchor="start" x="1820" y="-85.5" font-family="Helvetica,sans-Serif" font-size="10.00">/data/staging/ginan</text>
<text text-anchor="middle" x="1876" y="-74.5" font-family="Helvetica,sans-Serif" font-size="10.00">/src/cpp/pea/ppppp.cpp</text>
</a>
</g>
</g>
<!-- Node1&#45;&gt;Node50 -->
<g id="edge27" class="edge">
<title>Node1&#45;&gt;Node50</title>
<path fill="none" stroke="midnightblue" d="M1468.7,-139.44C1553.47,-130.39 1684.74,-115.35 1798,-98 1802.49,-97.31 1807.12,-96.56 1811.78,-95.77"/>
</g>
<!-- Node51 -->
<g id="node20" class="node">
<title>Node51</title>
<g id="a_node20"><a xlink:href="preprocessor_8cpp.html" target="_top" xlink:title=" ">
<polygon fill="white" stroke="black" points="1958.5,-67.5 1958.5,-97.5 2119.5,-97.5 2119.5,-67.5 1958.5,-67.5"/>
<text text-anchor="start" x="1966.5" y="-85.5" font-family="Helvetica,sans-Serif" font-size="10.00">/data/staging/ginan</text>
<text text-anchor="middle" x="2039" y="-74.5" font-family="Helvetica,sans-Serif" font-size="10.00">/src/cpp/pea/preprocessor.cpp</text>
</a>
</g>
</g>
<!-- Node1&#45;&gt;Node51 -->
<g id="edge28" class="edge">
<title>Node1&#45;&gt;Node51</title>
<path fill="none" stroke="midnightblue" d="M1468.91,-142.58C1581.06,-134.66 1779.73,-119.12 1949,-98 1951.98,-97.63 1955.02,-97.23 1958.09,-96.81"/>
</g>
<!-- Node10&#45;&gt;Node6 -->
<g id="edge10" class="edge">
<title>Node10&#45;&gt;Node6</title>
<path fill="none" stroke="midnightblue" d="M1175.75,-71.97C1046.34,-57.99 818.34,-33.31 800,-31 796.92,-30.61 793.8,-30.21 790.64,-29.8"/>
</g>
<!-- Node10&#45;&gt;Node9 -->
<g id="edge11" class="edge">
<title>Node10&#45;&gt;Node9</title>
<path fill="none" stroke="midnightblue" d="M1184.17,-67.48C1122.03,-56.56 1036.19,-41.48 974,-30.55"/>
</g>
<!-- Node10&#45;&gt;Node33 -->
<g id="edge12" class="edge">
<title>Node10&#45;&gt;Node33</title>
<path fill="none" stroke="midnightblue" d="M1223.64,-67.4C1192.44,-56.49 1149.46,-41.47 1118.28,-30.58"/>
</g>
<!-- Node10&#45;&gt;Node35 -->
<g id="edge13" class="edge">
<title>Node10&#45;&gt;Node35</title>
<path fill="none" stroke="midnightblue" d="M1258.58,-67.4C1254.38,-56.49 1248.6,-41.47 1244.41,-30.58"/>
</g>
<!-- Node10&#45;&gt;Node37 -->
<g id="edge14" class="edge">
<title>Node10&#45;&gt;Node37</title>
<path fill="none" stroke="midnightblue" d="M1295.9,-67.4C1320.55,-56.49 1354.52,-41.47 1379.17,-30.58"/>
</g>
<!-- Node10&#45;&gt;Node38 -->
<g id="edge15" class="edge">
<title>Node10&#45;&gt;Node38</title>
<path fill="none" stroke="midnightblue" d="M1334.07,-67.47C1383.76,-57.46 1452.01,-43.6 1512,-31 1514.91,-30.39 1517.89,-29.76 1520.9,-29.12"/>
</g>
<!-- Node10&#45;&gt;Node40 -->
<g id="edge16" class="edge">
<title>Node10&#45;&gt;Node40</title>
<path fill="none" stroke="midnightblue" d="M1352.18,-71.11C1429.72,-61.68 1545.56,-46.85 1646,-31 1649.03,-30.52 1652.12,-30.02 1655.25,-29.5"/>
</g>
<!-- Node10&#45;&gt;Node41 -->
<g id="edge17" class="edge">
<title>Node10&#45;&gt;Node41</title>
<path fill="none" stroke="midnightblue" d="M1352.08,-74.8C1459.12,-66.31 1645.11,-50.41 1804,-31 1806.93,-30.64 1809.9,-30.27 1812.91,-29.87"/>
</g>
<!-- Node10&#45;&gt;Node42 -->
<g id="edge18" class="edge">
<title>Node10&#45;&gt;Node42</title>
<path fill="none" stroke="midnightblue" d="M1352.12,-76.02C1532.83,-64.68 1933.7,-39.06 1996,-31 1998.93,-30.62 2001.92,-30.2 2004.93,-29.75"/>
</g>
</g>
</svg>
