<?xml version="1.0" encoding="UTF-8" standalone="no"?>
<!DOCTYPE svg PUBLIC "-//W3C//DTD SVG 1.1//EN"
 "http://www.w3.org/Graphics/SVG/1.1/DTD/svg11.dtd">
<!-- Generated by graphviz version 2.43.0 (0)
 -->
<!-- Title: writeIonexHead Pages: 1 -->
<svg width="209pt" height="66pt"
 viewBox="0.00 0.00 209.00 66.00" xmlns="http://www.w3.org/2000/svg" xmlns:xlink="http://www.w3.org/1999/xlink">
<g id="graph0" class="graph" transform="scale(1 1) rotate(0) translate(4 62)">
<title>writeIonexHead</title>
<polygon fill="white" stroke="transparent" points="-4,4 -4,-62 205,-62 205,4 -4,4"/>
<!-- Node1 -->
<g id="node1" class="node">
<title>Node1</title>
<g id="a_node1"><a xlink:title=" ">
<polygon fill="#bfbfbf" stroke="black" points="0,-19.5 0,-38.5 94,-38.5 94,-19.5 0,-19.5"/>
<text text-anchor="middle" x="47" y="-26.5" font-family="Helvetica,sans-Serif" font-size="10.00">writeIonexHead</text>
</a>
</g>
</g>
<!-- Node2 -->
<g id="node2" class="node">
<title>Node2</title>
<g id="a_node2"><a xlink:href="trace_8cpp.html#ae00e6addd3bdf3a7fd41a254eb9aec89" target="_top" xlink:title=" ">
<polygon fill="white" stroke="black" points="130,-38.5 130,-57.5 201,-57.5 201,-38.5 130,-38.5"/>
<text text-anchor="middle" x="165.5" y="-45.5" font-family="Helvetica,sans-Serif" font-size="10.00">tracepdeex</text>
</a>
</g>
</g>
<!-- Node1&#45;&gt;Node2 -->
<g id="edge1" class="edge">
<title>Node1&#45;&gt;Node2</title>
<path fill="none" stroke="midnightblue" d="M94.04,-36.51C106,-38.46 118.68,-40.53 129.93,-42.36"/>
</g>
<!-- Node3 -->
<g id="node3" class="node">
<title>Node3</title>
<g id="a_node3"><a xlink:href="gTime_8cpp.html#abc73cf336f9fa1b3622c933d5925e073" target="_top" xlink:title=" ">
<polygon fill="white" stroke="black" points="137.5,-0.5 137.5,-19.5 193.5,-19.5 193.5,-0.5 137.5,-0.5"/>
<text text-anchor="middle" x="165.5" y="-7.5" font-family="Helvetica,sans-Serif" font-size="10.00">timeGet</text>
</a>
</g>
</g>
<!-- Node1&#45;&gt;Node3 -->
<g id="edge2" class="edge">
<title>Node1&#45;&gt;Node3</title>
<path fill="none" stroke="midnightblue" d="M94.04,-21.49C108.67,-19.1 124.38,-16.54 137.24,-14.45"/>
</g>
</g>
</svg>
