<?xml version="1.0" encoding="UTF-8" standalone="no"?>
<!DOCTYPE svg PUBLIC "-//W3C//DTD SVG 1.1//EN"
 "http://www.w3.org/Graphics/SVG/1.1/DTD/svg11.dtd">
<!-- Generated by graphviz version 2.43.0 (0)
 -->
<!-- Title: interpTec Pages: 1 -->
<svg width="211pt" height="142pt"
 viewBox="0.00 0.00 211.00 142.00" xmlns="http://www.w3.org/2000/svg" xmlns:xlink="http://www.w3.org/1999/xlink">
<g id="graph0" class="graph" transform="scale(1 1) rotate(0) translate(4 138)">
<title>interpTec</title>
<polygon fill="white" stroke="transparent" points="-4,4 -4,-138 207,-138 207,4 -4,4"/>
<!-- Node1 -->
<g id="node1" class="node">
<title>Node1</title>
<g id="a_node1"><a xlink:title="interpolate tec grid data">
<polygon fill="#bfbfbf" stroke="black" points="0,-57.5 0,-76.5 61,-76.5 61,-57.5 0,-57.5"/>
<text text-anchor="middle" x="30.5" y="-64.5" font-family="Helvetica,sans-Serif" font-size="10.00">interpTec</text>
</a>
</g>
</g>
<!-- Node2 -->
<g id="node2" class="node">
<title>Node2</title>
<g id="a_node2"><a xlink:href="trace_8cpp.html#ae00e6addd3bdf3a7fd41a254eb9aec89" target="_top" xlink:title=" ">
<polygon fill="white" stroke="black" points="114.5,-114.5 114.5,-133.5 185.5,-133.5 185.5,-114.5 114.5,-114.5"/>
<text text-anchor="middle" x="150" y="-121.5" font-family="Helvetica,sans-Serif" font-size="10.00">tracepdeex</text>
</a>
</g>
</g>
<!-- Node1&#45;&gt;Node2 -->
<g id="edge1" class="edge">
<title>Node1&#45;&gt;Node2</title>
<path fill="none" stroke="midnightblue" d="M46.19,-76.52C59.21,-84.72 78.9,-96.52 97,-105 104.31,-108.42 112.42,-111.65 120.02,-114.43"/>
</g>
<!-- Node3 -->
<g id="node3" class="node">
<title>Node3</title>
<g id="a_node3"><a xlink:href="structVectorPos.html#ae607eb1f43de3cf1aaa024c2fdabc514" target="_top" xlink:title=" ">
<polygon fill="white" stroke="black" points="98,-76.5 98,-95.5 202,-95.5 202,-76.5 98,-76.5"/>
<text text-anchor="middle" x="150" y="-83.5" font-family="Helvetica,sans-Serif" font-size="10.00">VectorPos::latDeg</text>
</a>
</g>
</g>
<!-- Node1&#45;&gt;Node3 -->
<g id="edge2" class="edge">
<title>Node1&#45;&gt;Node3</title>
<path fill="none" stroke="midnightblue" d="M61.15,-71.79C72.3,-73.6 85.32,-75.7 97.87,-77.73"/>
</g>
<!-- Node4 -->
<g id="node4" class="node">
<title>Node4</title>
<g id="a_node4"><a xlink:href="structVectorPos.html#aa693d5a52133cfb55040b768c6175bae" target="_top" xlink:title=" ">
<polygon fill="white" stroke="black" points="97,-38.5 97,-57.5 203,-57.5 203,-38.5 97,-38.5"/>
<text text-anchor="middle" x="150" y="-45.5" font-family="Helvetica,sans-Serif" font-size="10.00">VectorPos::lonDeg</text>
</a>
</g>
</g>
<!-- Node1&#45;&gt;Node4 -->
<g id="edge3" class="edge">
<title>Node1&#45;&gt;Node4</title>
<path fill="none" stroke="midnightblue" d="M61.15,-62.21C72.03,-60.45 84.69,-58.4 96.95,-56.42"/>
</g>
<!-- Node5 -->
<g id="node5" class="node">
<title>Node5</title>
<g id="a_node5"><a xlink:href="ionex_8cpp.html#ad807b8edebc780f30d8c6ee46bb5640b" target="_top" xlink:title=" ">
<polygon fill="white" stroke="black" points="117.5,-0.5 117.5,-19.5 182.5,-19.5 182.5,-0.5 117.5,-0.5"/>
<text text-anchor="middle" x="150" y="-7.5" font-family="Helvetica,sans-Serif" font-size="10.00">dataindex</text>
</a>
</g>
</g>
<!-- Node1&#45;&gt;Node5 -->
<g id="edge4" class="edge">
<title>Node1&#45;&gt;Node5</title>
<path fill="none" stroke="midnightblue" d="M46.19,-57.48C59.21,-49.28 78.9,-37.48 97,-29 104.31,-25.58 112.42,-22.35 120.02,-19.57"/>
</g>
</g>
</svg>
