<?xml version="1.0" encoding="UTF-8" standalone="no"?>
<!DOCTYPE svg PUBLIC "-//W3C//DTD SVG 1.1//EN"
 "http://www.w3.org/Graphics/SVG/1.1/DTD/svg11.dtd">
<!-- Generated by graphviz version 2.43.0 (0)
 -->
<!-- Title: ionexFileWrite Pages: 1 -->
<svg width="357pt" height="120pt"
 viewBox="0.00 0.00 357.00 120.43" xmlns="http://www.w3.org/2000/svg" xmlns:xlink="http://www.w3.org/1999/xlink">
<g id="graph0" class="graph" transform="scale(1 1) rotate(0) translate(4 116.43)">
<title>ionexFileWrite</title>
<polygon fill="white" stroke="transparent" points="-4,4 -4,-116.43 353,-116.43 353,4 -4,4"/>
<!-- Node1 -->
<g id="node1" class="node">
<title>Node1</title>
<g id="a_node1"><a xlink:title=" ">
<polygon fill="#bfbfbf" stroke="black" points="0,-35.93 0,-54.93 86,-54.93 86,-35.93 0,-35.93"/>
<text text-anchor="middle" x="43" y="-42.93" font-family="Helvetica,sans-Serif" font-size="10.00">ionexFileWrite</text>
</a>
</g>
</g>
<!-- Node2 -->
<g id="node2" class="node">
<title>Node2</title>
<g id="a_node2"><a xlink:href="structKFState.html#a765a6e81d5496447499234a8ea8c3b46" target="_top" xlink:title="Returns the standard deviation of a state within the kalman filter object.">
<polygon fill="white" stroke="black" points="122,-92.93 122,-111.93 242,-111.93 242,-92.93 122,-92.93"/>
<text text-anchor="middle" x="182" y="-99.93" font-family="Helvetica,sans-Serif" font-size="10.00">KFState::getKFSigma</text>
</a>
</g>
</g>
<!-- Node1&#45;&gt;Node2 -->
<g id="edge1" class="edge">
<title>Node1&#45;&gt;Node2</title>
<path fill="none" stroke="midnightblue" d="M61.95,-55.08C77.55,-63.25 100.9,-74.94 122,-83.43 130.49,-86.84 139.84,-90.09 148.55,-92.89"/>
</g>
<!-- Node3 -->
<g id="node3" class="node">
<title>Node3</title>
<g id="a_node3"><a xlink:href="ionexWrite_8cpp.html#aa6127ca1dabcc43e97f8f0e8d096fbf8" target="_top" xlink:title=" ">
<polygon fill="white" stroke="red" points="135,-54.93 135,-73.93 229,-73.93 229,-54.93 135,-54.93"/>
<text text-anchor="middle" x="182" y="-61.93" font-family="Helvetica,sans-Serif" font-size="10.00">writeIonexHead</text>
</a>
</g>
</g>
<!-- Node1&#45;&gt;Node3 -->
<g id="edge2" class="edge">
<title>Node1&#45;&gt;Node3</title>
<path fill="none" stroke="midnightblue" d="M86.22,-51.29C101.63,-53.42 119.13,-55.85 134.87,-58.03"/>
</g>
<!-- Node4 -->
<g id="node4" class="node">
<title>Node4</title>
<g id="a_node4"><a xlink:href="trace_8cpp.html#ae00e6addd3bdf3a7fd41a254eb9aec89" target="_top" xlink:title=" ">
<polygon fill="white" stroke="black" points="278,-16.93 278,-35.93 349,-35.93 349,-16.93 278,-16.93"/>
<text text-anchor="middle" x="313.5" y="-23.93" font-family="Helvetica,sans-Serif" font-size="10.00">tracepdeex</text>
</a>
</g>
</g>
<!-- Node1&#45;&gt;Node4 -->
<g id="edge6" class="edge">
<title>Node1&#45;&gt;Node4</title>
<path fill="none" stroke="midnightblue" d="M58.49,-35.87C73.61,-26.51 98.37,-12.88 122,-7.43 173.97,4.55 189.13,-0.43 242,-7.43 256.07,-9.29 271.33,-13.16 284.03,-16.93"/>
</g>
<!-- Node6 -->
<g id="node5" class="node">
<title>Node6</title>
<g id="a_node5"><a xlink:href="ionexWrite_8cpp.html#a401780ddd6b92872ea505333773822c9" target="_top" xlink:title=" ">
<polygon fill="white" stroke="red" points="133,-16.93 133,-35.93 231,-35.93 231,-16.93 133,-16.93"/>
<text text-anchor="middle" x="182" y="-23.93" font-family="Helvetica,sans-Serif" font-size="10.00">writeIonexEpoch</text>
</a>
</g>
</g>
<!-- Node1&#45;&gt;Node6 -->
<g id="edge4" class="edge">
<title>Node1&#45;&gt;Node6</title>
<path fill="none" stroke="midnightblue" d="M86.22,-39.58C101,-37.53 117.71,-35.21 132.93,-33.1"/>
</g>
<!-- Node3&#45;&gt;Node4 -->
<g id="edge3" class="edge">
<title>Node3&#45;&gt;Node4</title>
<path fill="none" stroke="midnightblue" d="M215.68,-54.84C235.31,-49.08 260.2,-41.78 279.83,-36.02"/>
</g>
<!-- Node6&#45;&gt;Node4 -->
<g id="edge5" class="edge">
<title>Node6&#45;&gt;Node4</title>
<path fill="none" stroke="midnightblue" d="M231.22,-26.43C246.75,-26.43 263.65,-26.43 277.99,-26.43"/>
</g>
</g>
</svg>
