<?xml version="1.0" encoding="UTF-8" standalone="no"?>
<!DOCTYPE svg PUBLIC "-//W3C//DTD SVG 1.1//EN"
 "http://www.w3.org/Graphics/SVG/1.1/DTD/svg11.dtd">
<!-- Generated by graphviz version 2.43.0 (0)
 -->
<!-- Title: readionexb Pages: 1 -->
<svg width="275pt" height="180pt"
 viewBox="0.00 0.00 275.00 180.00" xmlns="http://www.w3.org/2000/svg" xmlns:xlink="http://www.w3.org/1999/xlink">
<g id="graph0" class="graph" transform="scale(1 1) rotate(0) translate(4 176)">
<title>readionexb</title>
<polygon fill="white" stroke="transparent" points="-4,4 -4,-176 271,-176 271,4 -4,4"/>
<!-- Node1 -->
<g id="node1" class="node">
<title>Node1</title>
<g id="a_node1"><a xlink:title=" ">
<polygon fill="#bfbfbf" stroke="black" points="0,-76.5 0,-95.5 71,-95.5 71,-76.5 0,-76.5"/>
<text text-anchor="middle" x="35.5" y="-83.5" font-family="Helvetica,sans-Serif" font-size="10.00">readionexb</text>
</a>
</g>
</g>
<!-- Node2 -->
<g id="node2" class="node">
<title>Node2</title>
<g id="a_node2"><a xlink:href="gTime_8cpp.html#a0080e8d8e9f572cc3a823740536abce4" target="_top" xlink:title=" ">
<polygon fill="white" stroke="red" points="110.5,-152.5 110.5,-171.5 168.5,-171.5 168.5,-152.5 110.5,-152.5"/>
<text text-anchor="middle" x="139.5" y="-159.5" font-family="Helvetica,sans-Serif" font-size="10.00">str2time</text>
</a>
</g>
</g>
<!-- Node1&#45;&gt;Node2 -->
<g id="edge1" class="edge">
<title>Node1&#45;&gt;Node2</title>
<path fill="none" stroke="midnightblue" d="M47.6,-95.78C61.19,-107.55 85.09,-127.64 107,-143 108.87,-144.31 110.83,-145.63 112.82,-146.92"/>
<polygon fill="midnightblue" stroke="midnightblue" points="111.22,-150.04 121.55,-152.36 114.92,-144.1 111.22,-150.04"/>
</g>
<!-- Node6 -->
<g id="node3" class="node">
<title>Node6</title>
<g id="a_node3"><a xlink:href="ionex_8cpp.html#a8287976c6b8f8b6c87f8d68d8f615305" target="_top" xlink:title=" ">
<polygon fill="white" stroke="black" points="117,-114.5 117,-133.5 162,-133.5 162,-114.5 117,-114.5"/>
<text text-anchor="middle" x="139.5" y="-121.5" font-family="Helvetica,sans-Serif" font-size="10.00">nitem</text>
</a>
</g>
</g>
<!-- Node1&#45;&gt;Node6 -->
<g id="edge2" class="edge">
<title>Node1&#45;&gt;Node6</title>
<path fill="none" stroke="midnightblue" d="M62.24,-95.59C75.95,-100.7 92.93,-107.02 107.38,-112.41"/>
<polygon fill="midnightblue" stroke="midnightblue" points="106.31,-115.74 116.91,-115.96 108.76,-109.18 106.31,-115.74"/>
</g>
<!-- Node7 -->
<g id="node4" class="node">
<title>Node7</title>
<g id="a_node4"><a xlink:href="ionex_8cpp.html#a4cdcbe25d10984efad8cc563076c441a" target="_top" xlink:title=" ">
<polygon fill="white" stroke="black" points="208,-76.5 208,-95.5 267,-95.5 267,-76.5 208,-76.5"/>
<text text-anchor="middle" x="237.5" y="-83.5" font-family="Helvetica,sans-Serif" font-size="10.00">getindex</text>
</a>
</g>
</g>
<!-- Node1&#45;&gt;Node7 -->
<g id="edge5" class="edge">
<title>Node1&#45;&gt;Node7</title>
<path fill="none" stroke="midnightblue" d="M64.97,-76.5C77.67,-72.73 92.93,-68.86 107,-67 135.64,-63.21 143.41,-62.88 172,-67 181.5,-68.37 191.56,-70.82 200.83,-73.52"/>
<polygon fill="midnightblue" stroke="midnightblue" points="199.93,-76.9 210.52,-76.5 201.99,-70.21 199.93,-76.9"/>
</g>
<!-- Node8 -->
<g id="node5" class="node">
<title>Node8</title>
<g id="a_node5"><a xlink:href="gTime_8cpp.html#aca21817ee2127e89013ae4252c5f9abe" target="_top" xlink:title=" ">
<polygon fill="white" stroke="black" points="111,-76.5 111,-95.5 168,-95.5 168,-76.5 111,-76.5"/>
<text text-anchor="middle" x="139.5" y="-83.5" font-family="Helvetica,sans-Serif" font-size="10.00">str2num</text>
</a>
</g>
</g>
<!-- Node1&#45;&gt;Node8 -->
<g id="edge4" class="edge">
<title>Node1&#45;&gt;Node8</title>
<path fill="none" stroke="midnightblue" d="M71.03,-86C80.54,-86 90.9,-86 100.59,-86"/>
<polygon fill="midnightblue" stroke="midnightblue" points="100.76,-89.5 110.76,-86 100.76,-82.5 100.76,-89.5"/>
</g>
<!-- Node9 -->
<g id="node6" class="node">
<title>Node9</title>
<g id="a_node6"><a xlink:href="ionex_8cpp.html#ad807b8edebc780f30d8c6ee46bb5640b" target="_top" xlink:title=" ">
<polygon fill="white" stroke="black" points="107,-0.5 107,-19.5 172,-19.5 172,-0.5 107,-0.5"/>
<text text-anchor="middle" x="139.5" y="-7.5" font-family="Helvetica,sans-Serif" font-size="10.00">dataindex</text>
</a>
</g>
</g>
<!-- Node1&#45;&gt;Node9 -->
<g id="edge6" class="edge">
<title>Node1&#45;&gt;Node9</title>
<path fill="none" stroke="midnightblue" d="M49.42,-76.37C66.59,-63.58 97.13,-40.83 117.6,-25.57"/>
<polygon fill="midnightblue" stroke="midnightblue" points="119.76,-28.33 125.69,-19.55 115.58,-22.72 119.76,-28.33"/>
</g>
<!-- Node6&#45;&gt;Node7 -->
<g id="edge3" class="edge">
<title>Node6&#45;&gt;Node7</title>
<path fill="none" stroke="midnightblue" d="M162.28,-115.38C174.3,-110.62 189.49,-104.61 202.98,-99.27"/>
<polygon fill="midnightblue" stroke="midnightblue" points="204.43,-102.46 212.44,-95.52 201.86,-95.95 204.43,-102.46"/>
</g>
</g>
</svg>
