<?xml version="1.0" encoding="UTF-8" standalone="no"?>
<!DOCTYPE svg PUBLIC "-//W3C//DTD SVG 1.1//EN"
 "http://www.w3.org/Graphics/SVG/1.1/DTD/svg11.dtd">
<!-- Generated by graphviz version 2.43.0 (0)
 -->
<!-- Title: Ipp_in_range Pages: 1 -->
<svg width="228pt" height="142pt"
 viewBox="0.00 0.00 228.00 142.00" xmlns="http://www.w3.org/2000/svg" xmlns:xlink="http://www.w3.org/1999/xlink">
<g id="graph0" class="graph" transform="scale(1 1) rotate(0) translate(4 138)">
<title>Ipp_in_range</title>
<polygon fill="white" stroke="transparent" points="-4,4 -4,-138 224,-138 224,4 -4,4"/>
<!-- Node1 -->
<g id="node1" class="node">
<title>Node1</title>
<g id="a_node1"><a xlink:title=" ">
<polygon fill="#bfbfbf" stroke="black" points="0,-57.5 0,-76.5 79,-76.5 79,-57.5 0,-57.5"/>
<text text-anchor="middle" x="39.5" y="-64.5" font-family="Helvetica,sans-Serif" font-size="10.00">Ipp_in_range</text>
</a>
</g>
</g>
<!-- Node2 -->
<g id="node2" class="node">
<title>Node2</title>
<g id="a_node2"><a xlink:href="ionoSpherical_8cpp.html#a32460ecb229f47f08516ff7a35f45f47" target="_top" xlink:title="rotates the Ionosphere piercing point time: I time of observations (to update the rotation matrix) IP...">
<polygon fill="white" stroke="red" points="115.5,-114.5 115.5,-133.5 219.5,-133.5 219.5,-114.5 115.5,-114.5"/>
<text text-anchor="middle" x="167.5" y="-121.5" font-family="Helvetica,sans-Serif" font-size="10.00">Ipp_check_sphhar</text>
</a>
</g>
</g>
<!-- Node1&#45;&gt;Node2 -->
<g id="edge1" class="edge">
<title>Node1&#45;&gt;Node2</title>
<path fill="none" stroke="midnightblue" d="M57.98,-76.66C72.9,-84.72 95.05,-96.27 115,-105 122.6,-108.32 130.98,-111.58 138.73,-114.44"/>
</g>
<!-- Node4 -->
<g id="node3" class="node">
<title>Node4</title>
<g id="a_node3"><a xlink:href="ionoSphericalCaps_8cpp.html#a906282f60e53b02995e06f9048079b78" target="_top" xlink:title=" ">
<polygon fill="white" stroke="red" points="115,-76.5 115,-95.5 220,-95.5 220,-76.5 115,-76.5"/>
<text text-anchor="middle" x="167.5" y="-83.5" font-family="Helvetica,sans-Serif" font-size="10.00">Ipp_check_sphcap</text>
</a>
</g>
</g>
<!-- Node1&#45;&gt;Node4 -->
<g id="edge2" class="edge">
<title>Node1&#45;&gt;Node4</title>
<path fill="none" stroke="midnightblue" d="M79.33,-72.86C90.47,-74.53 102.79,-76.39 114.58,-78.17"/>
</g>
<!-- Node6 -->
<g id="node4" class="node">
<title>Node6</title>
<g id="a_node4"><a xlink:href="ionoBSplines_8cpp.html#a9279d53ea1351ca8e31451171ee0bd71" target="_top" xlink:title=" ">
<polygon fill="white" stroke="black" points="117.5,-38.5 117.5,-57.5 217.5,-57.5 217.5,-38.5 117.5,-38.5"/>
<text text-anchor="middle" x="167.5" y="-45.5" font-family="Helvetica,sans-Serif" font-size="10.00">Ipp_check_bsplin</text>
</a>
</g>
</g>
<!-- Node1&#45;&gt;Node6 -->
<g id="edge3" class="edge">
<title>Node1&#45;&gt;Node6</title>
<path fill="none" stroke="midnightblue" d="M79.33,-61.14C91.34,-59.33 104.72,-57.32 117.32,-55.42"/>
</g>
<!-- Node7 -->
<g id="node5" class="node">
<title>Node7</title>
<g id="a_node5"><a xlink:href="ionoLocalSTEC_8cpp.html#a3990134c925629dc9bb29c7dccc049f8" target="_top" xlink:title="Checks if the Ionosphere Piercing Point falls in area of coverage.">
<polygon fill="white" stroke="black" points="118,-0.5 118,-19.5 217,-19.5 217,-0.5 118,-0.5"/>
<text text-anchor="middle" x="167.5" y="-7.5" font-family="Helvetica,sans-Serif" font-size="10.00">Ipp_check_local_</text>
</a>
</g>
</g>
<!-- Node1&#45;&gt;Node7 -->
<g id="edge4" class="edge">
<title>Node1&#45;&gt;Node7</title>
<path fill="none" stroke="midnightblue" d="M57.98,-57.34C72.9,-49.28 95.05,-37.73 115,-29 122.6,-25.68 130.98,-22.42 138.73,-19.56"/>
</g>
</g>
</svg>
