<?xml version="1.0" encoding="UTF-8" standalone="no"?>
<!DOCTYPE svg PUBLIC "-//W3C//DTD SVG 1.1//EN"
 "http://www.w3.org/Graphics/SVG/1.1/DTD/svg11.dtd">
<!-- Generated by graphviz version 2.43.0 (0)
 -->
<!-- Title: ippCheckSphhar Pages: 1 -->
<svg width="353pt" height="256pt"
 viewBox="0.00 0.00 353.00 256.00" xmlns="http://www.w3.org/2000/svg" xmlns:xlink="http://www.w3.org/1999/xlink">
<g id="graph0" class="graph" transform="scale(1 1) rotate(0) translate(4 252)">
<title>ippCheckSphhar</title>
<polygon fill="white" stroke="transparent" points="-4,4 -4,-252 349,-252 349,4 -4,4"/>
<!-- Node1 -->
<g id="node1" class="node">
<title>Node1</title>
<g id="a_node1"><a xlink:title="rotates the Ionosphere piercing point time: I time of observations (to update the rotation matrix) IP...">
<polygon fill="#bfbfbf" stroke="black" points="0,-114.5 0,-133.5 95,-133.5 95,-114.5 0,-114.5"/>
<text text-anchor="middle" x="47.5" y="-121.5" font-family="Helvetica,sans-Serif" font-size="10.00">ippCheckSphhar</text>
</a>
</g>
</g>
<!-- Node2 -->
<g id="node2" class="node">
<title>Node2</title>
<g id="a_node2"><a xlink:href="structGTime.html#aaa8a379d11cd6c040a6bbe680c0e913e" target="_top" xlink:title="Uninitialised time for comparisons.">
<polygon fill="white" stroke="black" points="131,-228.5 131,-247.5 223,-247.5 223,-228.5 131,-228.5"/>
<text text-anchor="middle" x="177" y="-235.5" font-family="Helvetica,sans-Serif" font-size="10.00">GTime::noTime</text>
</a>
</g>
</g>
<!-- Node1&#45;&gt;Node2 -->
<g id="edge1" class="edge">
<title>Node1&#45;&gt;Node2</title>
<path fill="none" stroke="midnightblue" d="M54.64,-133.64C67.01,-152.39 96.7,-194.12 131,-219 133.38,-220.73 135.94,-222.34 138.59,-223.82"/>
<polygon fill="midnightblue" stroke="midnightblue" points="137.3,-227.09 147.81,-228.43 140.43,-220.83 137.3,-227.09"/>
</g>
<!-- Node3 -->
<g id="node3" class="node">
<title>Node3</title>
<g id="a_node3"><a xlink:href="planets_8cpp.html#afa5d7098a27c088c2dae5e00aced234b" target="_top" xlink:title=" ">
<polygon fill="white" stroke="red" points="134,-190.5 134,-209.5 220,-209.5 220,-190.5 134,-190.5"/>
<text text-anchor="middle" x="177" y="-197.5" font-family="Helvetica,sans-Serif" font-size="10.00">planetPosEcef</text>
</a>
</g>
</g>
<!-- Node1&#45;&gt;Node3 -->
<g id="edge2" class="edge">
<title>Node1&#45;&gt;Node3</title>
<path fill="none" stroke="midnightblue" d="M60.57,-133.52C76.2,-145.57 104.6,-166.51 131,-181 134.32,-182.82 137.85,-184.58 141.41,-186.26"/>
<polygon fill="midnightblue" stroke="midnightblue" points="140.25,-189.57 150.81,-190.44 143.1,-183.18 140.25,-189.57"/>
</g>
<!-- Node8 -->
<g id="node4" class="node">
<title>Node8</title>
<g id="a_node4"><a xlink:href="utils_8cpp.html#ae91d83cf693cdc7e1efacbe4d8d9656e" target="_top" xlink:title=" ">
<polygon fill="white" stroke="black" points="146.5,-152.5 146.5,-171.5 207.5,-171.5 207.5,-152.5 146.5,-152.5"/>
<text text-anchor="middle" x="177" y="-159.5" font-family="Helvetica,sans-Serif" font-size="10.00">ecef2pos</text>
</a>
</g>
</g>
<!-- Node1&#45;&gt;Node8 -->
<g id="edge3" class="edge">
<title>Node1&#45;&gt;Node8</title>
<path fill="none" stroke="midnightblue" d="M80.67,-133.59C97.73,-138.67 118.82,-144.96 136.82,-150.32"/>
<polygon fill="midnightblue" stroke="midnightblue" points="135.88,-153.69 146.46,-153.2 137.87,-146.98 135.88,-153.69"/>
</g>
<!-- Node9 -->
<g id="node5" class="node">
<title>Node9</title>
<g id="a_node5"><a xlink:href="structVectorPos.html#a63e862a389b3548bc5b4aedabd94540b" target="_top" xlink:title=" ">
<polygon fill="white" stroke="black" points="260.5,-109.5 260.5,-128.5 343.5,-128.5 343.5,-109.5 260.5,-109.5"/>
<text text-anchor="middle" x="302" y="-116.5" font-family="Helvetica,sans-Serif" font-size="10.00">VectorPos::lat</text>
</a>
</g>
</g>
<!-- Node1&#45;&gt;Node9 -->
<g id="edge4" class="edge">
<title>Node1&#45;&gt;Node9</title>
<path fill="none" stroke="midnightblue" d="M95.11,-123.08C139.13,-122.21 204.99,-120.9 250.3,-120"/>
<polygon fill="midnightblue" stroke="midnightblue" points="250.57,-123.5 260.5,-119.8 250.43,-116.5 250.57,-123.5"/>
</g>
<!-- Node10 -->
<g id="node6" class="node">
<title>Node10</title>
<g id="a_node6"><a xlink:href="structVectorPos.html#ab7ade23bd200ec4145eb389b58737dee" target="_top" xlink:title=" ">
<polygon fill="white" stroke="black" points="259,-66.5 259,-85.5 345,-85.5 345,-66.5 259,-66.5"/>
<text text-anchor="middle" x="302" y="-73.5" font-family="Helvetica,sans-Serif" font-size="10.00">VectorPos::lon</text>
</a>
</g>
</g>
<!-- Node1&#45;&gt;Node10 -->
<g id="edge5" class="edge">
<title>Node1&#45;&gt;Node10</title>
<path fill="none" stroke="midnightblue" d="M95.11,-115.14C138.69,-106.85 203.68,-94.5 248.95,-85.9"/>
<polygon fill="midnightblue" stroke="midnightblue" points="249.69,-89.32 258.86,-84.01 248.38,-82.44 249.69,-89.32"/>
</g>
<!-- Node11 -->
<g id="node7" class="node">
<title>Node11</title>
<g id="a_node7"><a xlink:href="structVectorPos.html#a9517f77c95322d34dc896a88db4a804f" target="_top" xlink:title=" ">
<polygon fill="white" stroke="black" points="259,-19.5 259,-38.5 345,-38.5 345,-19.5 259,-19.5"/>
<text text-anchor="middle" x="302" y="-26.5" font-family="Helvetica,sans-Serif" font-size="10.00">VectorPos::hgt</text>
</a>
</g>
</g>
<!-- Node1&#45;&gt;Node11 -->
<g id="edge6" class="edge">
<title>Node1&#45;&gt;Node11</title>
<path fill="none" stroke="midnightblue" d="M68.62,-114.35C85.19,-106.55 109.38,-95.51 131,-87 174.71,-69.79 225.84,-52.75 260.52,-41.64"/>
<polygon fill="midnightblue" stroke="midnightblue" points="261.82,-44.9 270.29,-38.53 259.7,-38.23 261.82,-44.9"/>
</g>
<!-- Node12 -->
<g id="node8" class="node">
<title>Node12</title>
<g id="a_node8"><a xlink:href="coordinates_8cpp.html#a726b77659a6e94017c3acc10bca86a29" target="_top" xlink:title="Transform geodetic postion to ecef.">
<polygon fill="white" stroke="black" points="146.5,-0.5 146.5,-19.5 207.5,-19.5 207.5,-0.5 146.5,-0.5"/>
<text text-anchor="middle" x="177" y="-7.5" font-family="Helvetica,sans-Serif" font-size="10.00">pos2ecef</text>
</a>
</g>
</g>
<!-- Node1&#45;&gt;Node12 -->
<g id="edge7" class="edge">
<title>Node1&#45;&gt;Node12</title>
<path fill="none" stroke="midnightblue" d="M55.57,-114.34C68.83,-96.69 99,-58.8 131,-34 135.46,-30.54 140.49,-27.32 145.53,-24.43"/>
<polygon fill="midnightblue" stroke="midnightblue" points="147.34,-27.42 154.49,-19.6 144.02,-21.26 147.34,-27.42"/>
</g>
<!-- Node12&#45;&gt;Node9 -->
<g id="edge8" class="edge">
<title>Node12&#45;&gt;Node9</title>
<path fill="none" stroke="midnightblue" d="M185.51,-19.54C198.97,-36.24 228.67,-71.25 259,-95 263.19,-98.28 267.88,-101.41 272.57,-104.26"/>
<polygon fill="midnightblue" stroke="midnightblue" points="271.02,-107.41 281.44,-109.36 274.51,-101.34 271.02,-107.41"/>
</g>
<!-- Node12&#45;&gt;Node10 -->
<g id="edge9" class="edge">
<title>Node12&#45;&gt;Node10</title>
<path fill="none" stroke="midnightblue" d="M195.89,-19.6C216.47,-30.64 250.49,-48.9 274.24,-61.64"/>
<polygon fill="midnightblue" stroke="midnightblue" points="272.63,-64.75 283.09,-66.39 275.94,-58.58 272.63,-64.75"/>
</g>
<!-- Node12&#45;&gt;Node11 -->
<g id="edge10" class="edge">
<title>Node12&#45;&gt;Node11</title>
<path fill="none" stroke="midnightblue" d="M207.77,-14.6C220.13,-16.51 234.84,-18.78 248.89,-20.95"/>
<polygon fill="midnightblue" stroke="midnightblue" points="248.53,-24.44 258.95,-22.5 249.6,-17.52 248.53,-24.44"/>
</g>
</g>
</svg>
