<?xml version="1.0" encoding="UTF-8" standalone="no"?>
<!DOCTYPE svg PUBLIC "-//W3C//DTD SVG 1.1//EN"
 "http://www.w3.org/Graphics/SVG/1.1/DTD/svg11.dtd">
<!-- Generated by graphviz version 2.43.0 (0)
 -->
<!-- Title: ionCoefLocal Pages: 1 -->
<svg width="340pt" height="80pt"
 viewBox="0.00 0.00 340.00 79.68" xmlns="http://www.w3.org/2000/svg" xmlns:xlink="http://www.w3.org/1999/xlink">
<g id="graph0" class="graph" transform="scale(1 1) rotate(0) translate(4 75.68)">
<title>ionCoefLocal</title>
<polygon fill="white" stroke="transparent" points="-4,4 -4,-75.68 336,-75.68 336,4 -4,4"/>
<!-- Node1 -->
<g id="node1" class="node">
<title>Node1</title>
<g id="a_node1"><a xlink:title="calcuates the partials of observations with respect to basis functions">
<polygon fill="#bfbfbf" stroke="black" points="0,-14.18 0,-33.18 80,-33.18 80,-14.18 0,-14.18"/>
<text text-anchor="middle" x="40" y="-21.18" font-family="Helvetica,sans-Serif" font-size="10.00">ionCoefLocal</text>
</a>
</g>
</g>
<!-- Node2 -->
<g id="node2" class="node">
<title>Node2</title>
<g id="a_node2"><a xlink:href="ionoLocalSTEC_8cpp.html#aa2f5c1791aaf5fe105b3a611026a3da0" target="_top" xlink:title=" ">
<polygon fill="white" stroke="black" points="116,-52.18 116,-71.18 225,-71.18 225,-52.18 116,-52.18"/>
<text text-anchor="middle" x="170.5" y="-59.18" font-family="Helvetica,sans-Serif" font-size="10.00">ionCoefPolynomial</text>
</a>
</g>
</g>
<!-- Node1&#45;&gt;Node2 -->
<g id="edge1" class="edge">
<title>Node1&#45;&gt;Node2</title>
<path fill="none" stroke="midnightblue" d="M73.43,-33.27C89.71,-38.08 109.64,-43.98 127.12,-49.15"/>
<polygon fill="midnightblue" stroke="midnightblue" points="126.5,-52.61 137.08,-52.09 128.49,-45.9 126.5,-52.61"/>
</g>
<!-- Node3 -->
<g id="node3" class="node">
<title>Node3</title>
<g id="a_node3"><a xlink:href="trace_8hpp.html#a984a9b0c40d65d46f2c73a021a7b7de3" target="_top" xlink:title=" ">
<polygon fill="white" stroke="black" points="261,-14.18 261,-33.18 332,-33.18 332,-14.18 261,-14.18"/>
<text text-anchor="middle" x="296.5" y="-21.18" font-family="Helvetica,sans-Serif" font-size="10.00">tracepdeex</text>
</a>
</g>
</g>
<!-- Node1&#45;&gt;Node3 -->
<g id="edge4" class="edge">
<title>Node1&#45;&gt;Node3</title>
<path fill="none" stroke="midnightblue" d="M71.32,-14.17C84.85,-10.41 101.07,-6.54 116,-4.68 164.07,1.32 176.97,1.68 225,-4.68 235.67,-6.09 247.01,-8.65 257.41,-11.45"/>
<polygon fill="midnightblue" stroke="midnightblue" points="256.46,-14.82 267.03,-14.17 258.37,-8.08 256.46,-14.82"/>
</g>
<!-- Node4 -->
<g id="node4" class="node">
<title>Node4</title>
<g id="a_node4"><a xlink:href="ionoLocalSTEC_8cpp.html#a0fc11c5af2593ba1d061c51abf507a98" target="_top" xlink:title=" ">
<polygon fill="white" stroke="red" points="129.5,-14.18 129.5,-33.18 211.5,-33.18 211.5,-14.18 129.5,-14.18"/>
<text text-anchor="middle" x="170.5" y="-21.18" font-family="Helvetica,sans-Serif" font-size="10.00">IrregGridCoef</text>
</a>
</g>
</g>
<!-- Node1&#45;&gt;Node4 -->
<g id="edge3" class="edge">
<title>Node1&#45;&gt;Node4</title>
<path fill="none" stroke="midnightblue" d="M80.25,-23.68C92.48,-23.68 106.14,-23.68 119.03,-23.68"/>
<polygon fill="midnightblue" stroke="midnightblue" points="119.16,-27.18 129.16,-23.68 119.16,-20.18 119.16,-27.18"/>
</g>
<!-- Node2&#45;&gt;Node3 -->
<g id="edge2" class="edge">
<title>Node2&#45;&gt;Node3</title>
<path fill="none" stroke="midnightblue" d="M202.79,-52.09C218.5,-47.27 237.74,-41.38 254.61,-36.21"/>
<polygon fill="midnightblue" stroke="midnightblue" points="255.68,-39.54 264.22,-33.26 253.63,-32.85 255.68,-39.54"/>
</g>
</g>
</svg>
