<?xml version="1.0" encoding="UTF-8" standalone="no"?>
<!DOCTYPE svg PUBLIC "-//W3C//DTD SVG 1.1//EN"
 "http://www.w3.org/Graphics/SVG/1.1/DTD/svg11.dtd">
<!-- Generated by graphviz version 2.43.0 (0)
 -->
<!-- Title: configIonModelSphhar Pages: 1 -->
<svg width="260pt" height="66pt"
 viewBox="0.00 0.00 260.00 66.00" xmlns="http://www.w3.org/2000/svg" xmlns:xlink="http://www.w3.org/1999/xlink">
<g id="graph0" class="graph" transform="scale(1 1) rotate(0) translate(4 62)">
<title>configIonModelSphhar</title>
<polygon fill="white" stroke="transparent" points="-4,4 -4,-62 256,-62 256,4 -4,4"/>
<!-- Node1 -->
<g id="node1" class="node">
<title>Node1</title>
<g id="a_node1"><a xlink:title="configures the spherical harmonics model.">
<polygon fill="#bfbfbf" stroke="black" points="127,-19.5 127,-38.5 252,-38.5 252,-19.5 127,-19.5"/>
<text text-anchor="middle" x="189.5" y="-26.5" font-family="Helvetica,sans-Serif" font-size="10.00">configIonModelSphhar</text>
</a>
</g>
</g>
<!-- Node2 -->
<g id="node2" class="node">
<title>Node2</title>
<g id="a_node2"><a xlink:href="ionoModel_8cpp.html#ad4f7bf2fa0a4a8e87b6f7edf86fc119b" target="_top" xlink:title=" ">
<polygon fill="white" stroke="red" points="0,-38.5 0,-57.5 91,-57.5 91,-38.5 0,-38.5"/>
<text text-anchor="middle" x="45.5" y="-45.5" font-family="Helvetica,sans-Serif" font-size="10.00">configIonModel</text>
</a>
</g>
</g>
<!-- Node1&#45;&gt;Node2 -->
<g id="edge1" class="edge">
<title>Node1&#45;&gt;Node2</title>
<path fill="none" stroke="midnightblue" d="M116.49,-38.64C107.83,-39.79 99.19,-40.95 91.09,-42.03"/>
<polygon fill="midnightblue" stroke="midnightblue" points="117.18,-42.07 126.63,-37.28 116.25,-35.14 117.18,-42.07"/>
</g>
<!-- Node10 -->
<g id="node3" class="node">
<title>Node10</title>
<g id="a_node3"><a xlink:href="ionoSpherical_8cpp.html#ad01dd353d17b69b39684a5bb3169fea5" target="_top" xlink:title=" ">
<polygon fill="white" stroke="red" points="2.5,-0.5 2.5,-19.5 88.5,-19.5 88.5,-0.5 2.5,-0.5"/>
<text text-anchor="middle" x="45.5" y="-7.5" font-family="Helvetica,sans-Serif" font-size="10.00">getEpcSsrIono</text>
</a>
</g>
</g>
<!-- Node1&#45;&gt;Node10 -->
<g id="edge2" class="edge">
<title>Node1&#45;&gt;Node10</title>
<path fill="none" stroke="midnightblue" d="M116.64,-19.38C107.02,-18.1 97.43,-16.82 88.57,-15.63"/>
<polygon fill="midnightblue" stroke="midnightblue" points="116.25,-22.86 126.63,-20.72 117.18,-15.93 116.25,-22.86"/>
</g>
</g>
</svg>
