<?xml version="1.0" encoding="UTF-8" standalone="no"?>
<!DOCTYPE svg PUBLIC "-//W3C//DTD SVG 1.1//EN"
 "http://www.w3.org/Graphics/SVG/1.1/DTD/svg11.dtd">
<!-- Generated by graphviz version 2.43.0 (0)
 -->
<!-- Title: ionModelCoef Pages: 1 -->
<svg width="217pt" height="142pt"
 viewBox="0.00 0.00 217.00 142.00" xmlns="http://www.w3.org/2000/svg" xmlns:xlink="http://www.w3.org/1999/xlink">
<g id="graph0" class="graph" transform="scale(1 1) rotate(0) translate(4 138)">
<title>ionModelCoef</title>
<polygon fill="white" stroke="transparent" points="-4,4 -4,-138 213,-138 213,4 -4,4"/>
<!-- Node1 -->
<g id="node1" class="node">
<title>Node1</title>
<g id="a_node1"><a xlink:title=" ">
<polygon fill="#bfbfbf" stroke="black" points="0,-57.5 0,-76.5 84,-76.5 84,-57.5 0,-57.5"/>
<text text-anchor="middle" x="42" y="-64.5" font-family="Helvetica,sans-Serif" font-size="10.00">ionModelCoef</text>
</a>
</g>
</g>
<!-- Node2 -->
<g id="node2" class="node">
<title>Node2</title>
<g id="a_node2"><a xlink:href="ionoSpherical_8cpp.html#aeb48df0b01dbc59042702f65f0c33275" target="_top" xlink:title="Evaluates spherical harmonics basis functions int ind I obs I Ionosphere measurement struct latIPP &#45; ...">
<polygon fill="white" stroke="red" points="120.5,-114.5 120.5,-133.5 208.5,-133.5 208.5,-114.5 120.5,-114.5"/>
<text text-anchor="middle" x="164.5" y="-121.5" font-family="Helvetica,sans-Serif" font-size="10.00">ionCoefSphhar</text>
</a>
</g>
</g>
<!-- Node1&#45;&gt;Node2 -->
<g id="edge1" class="edge">
<title>Node1&#45;&gt;Node2</title>
<path fill="none" stroke="midnightblue" d="M61.87,-76.62C77.38,-84.45 99.99,-95.7 120,-105 123.68,-106.71 127.55,-108.46 131.4,-110.18"/>
<polygon fill="midnightblue" stroke="midnightblue" points="130.27,-113.51 140.83,-114.34 133.09,-107.1 130.27,-113.51"/>
</g>
<!-- Node4 -->
<g id="node3" class="node">
<title>Node4</title>
<g id="a_node3"><a xlink:href="ionoSphericalCaps_8cpp.html#ad60c18efacdc8835040dc2758dd0f7e1" target="_top" xlink:title="Evaluates spherical cap harmonics basis functions int ind I Basis function number obs I Ionosphere me...">
<polygon fill="white" stroke="red" points="120,-76.5 120,-95.5 209,-95.5 209,-76.5 120,-76.5"/>
<text text-anchor="middle" x="164.5" y="-83.5" font-family="Helvetica,sans-Serif" font-size="10.00">ionCoefSphcap</text>
</a>
</g>
</g>
<!-- Node1&#45;&gt;Node4 -->
<g id="edge2" class="edge">
<title>Node1&#45;&gt;Node4</title>
<path fill="none" stroke="midnightblue" d="M84.13,-73.49C92.36,-74.78 101.13,-76.17 109.72,-77.52"/>
<polygon fill="midnightblue" stroke="midnightblue" points="109.25,-80.99 119.67,-79.09 110.34,-74.07 109.25,-80.99"/>
</g>
<!-- Node6 -->
<g id="node4" class="node">
<title>Node6</title>
<g id="a_node4"><a xlink:href="ionoBSplines_8cpp.html#aea80ea81c569de9a47760e98fa6c92cf" target="_top" xlink:title="Evaluates B&#45;splines basis functions int ind I Basis function number meas I Ionosphere measurement str...">
<polygon fill="white" stroke="black" points="122.5,-38.5 122.5,-57.5 206.5,-57.5 206.5,-38.5 122.5,-38.5"/>
<text text-anchor="middle" x="164.5" y="-45.5" font-family="Helvetica,sans-Serif" font-size="10.00">ionCoefBsplin</text>
</a>
</g>
</g>
<!-- Node1&#45;&gt;Node6 -->
<g id="edge3" class="edge">
<title>Node1&#45;&gt;Node6</title>
<path fill="none" stroke="midnightblue" d="M84.13,-60.51C93.14,-59.09 102.79,-57.57 112.15,-56.1"/>
<polygon fill="midnightblue" stroke="midnightblue" points="112.81,-59.54 122.14,-54.52 111.72,-52.62 112.81,-59.54"/>
</g>
<!-- Node7 -->
<g id="node5" class="node">
<title>Node7</title>
<g id="a_node5"><a xlink:href="ionoLocalSTEC_8cpp.html#ad63cf6910bd223eb6900bfa300c53233" target="_top" xlink:title="calcuates the partials of observations with respect to basis functions">
<polygon fill="white" stroke="red" points="124.5,-0.5 124.5,-19.5 204.5,-19.5 204.5,-0.5 124.5,-0.5"/>
<text text-anchor="middle" x="164.5" y="-7.5" font-family="Helvetica,sans-Serif" font-size="10.00">ionCoefLocal</text>
</a>
</g>
</g>
<!-- Node1&#45;&gt;Node7 -->
<g id="edge4" class="edge">
<title>Node1&#45;&gt;Node7</title>
<path fill="none" stroke="midnightblue" d="M61.87,-57.38C77.38,-49.55 99.99,-38.3 120,-29 123.68,-27.29 127.55,-25.54 131.4,-23.82"/>
<polygon fill="midnightblue" stroke="midnightblue" points="133.09,-26.9 140.83,-19.66 130.27,-20.49 133.09,-26.9"/>
</g>
</g>
</svg>
