<?xml version="1.0" encoding="UTF-8" standalone="no"?>
<!DOCTYPE svg PUBLIC "-//W3C//DTD SVG 1.1//EN"
 "http://www.w3.org/Graphics/SVG/1.1/DTD/svg11.dtd">
<!-- Generated by graphviz version 2.43.0 (0)
 -->
<!-- Title: ionosphereSsrUpdate Pages: 1 -->
<svg width="369pt" height="79pt"
 viewBox="0.00 0.00 369.00 78.89" xmlns="http://www.w3.org/2000/svg" xmlns:xlink="http://www.w3.org/1999/xlink">
<g id="graph0" class="graph" transform="scale(1 1) rotate(0) translate(4 74.89)">
<title>ionosphereSsrUpdate</title>
<polygon fill="white" stroke="transparent" points="-4,4 -4,-74.89 365,-74.89 365,4 -4,4"/>
<!-- Node1 -->
<g id="node1" class="node">
<title>Node1</title>
<g id="a_node1"><a xlink:title=" ">
<polygon fill="#bfbfbf" stroke="black" points="0,-13.39 0,-32.39 121,-32.39 121,-13.39 0,-13.39"/>
<text text-anchor="middle" x="60.5" y="-20.39" font-family="Helvetica,sans-Serif" font-size="10.00">ionosphereSsrUpdate</text>
</a>
</g>
</g>
<!-- Node2 -->
<g id="node2" class="node">
<title>Node2</title>
<g id="a_node2"><a xlink:href="ionoSpherical_8cpp.html#a647350388a58e3ea86294f8b76ec539a" target="_top" xlink:title=" ">
<polygon fill="white" stroke="red" points="157,-51.39 157,-70.39 254,-70.39 254,-51.39 157,-51.39"/>
<text text-anchor="middle" x="205.5" y="-58.39" font-family="Helvetica,sans-Serif" font-size="10.00">ionOutputSphcal</text>
</a>
</g>
</g>
<!-- Node1&#45;&gt;Node2 -->
<g id="edge1" class="edge">
<title>Node1&#45;&gt;Node2</title>
<path fill="none" stroke="midnightblue" d="M97.58,-32.47C119.26,-38.24 146.75,-45.54 168.43,-51.3"/>
</g>
<!-- Node3 -->
<g id="node3" class="node">
<title>Node3</title>
<g id="a_node3"><a xlink:href="trace_8cpp.html#ae00e6addd3bdf3a7fd41a254eb9aec89" target="_top" xlink:title=" ">
<polygon fill="white" stroke="black" points="290,-13.39 290,-32.39 361,-32.39 361,-13.39 290,-13.39"/>
<text text-anchor="middle" x="325.5" y="-20.39" font-family="Helvetica,sans-Serif" font-size="10.00">tracepdeex</text>
</a>
</g>
</g>
<!-- Node1&#45;&gt;Node3 -->
<g id="edge4" class="edge">
<title>Node1&#45;&gt;Node3</title>
<path fill="none" stroke="midnightblue" d="M100.27,-13.38C117.52,-9.61 138.16,-5.74 157,-3.89 199.9,0.34 211.26,1.77 254,-3.89 268.07,-5.75 283.33,-9.62 296.03,-13.38"/>
</g>
<!-- Node5 -->
<g id="node4" class="node">
<title>Node5</title>
<g id="a_node4"><a xlink:href="ionoLocalSTEC_8cpp.html#a3cbf18fb13afe8f7b3787785d9a13f64" target="_top" xlink:title=" ">
<polygon fill="white" stroke="red" points="160.5,-13.39 160.5,-32.39 250.5,-32.39 250.5,-13.39 160.5,-13.39"/>
<text text-anchor="middle" x="205.5" y="-20.39" font-family="Helvetica,sans-Serif" font-size="10.00">ionOutputLocal</text>
</a>
</g>
</g>
<!-- Node1&#45;&gt;Node5 -->
<g id="edge3" class="edge">
<title>Node1&#45;&gt;Node5</title>
<path fill="none" stroke="midnightblue" d="M121.32,-22.89C134.33,-22.89 147.87,-22.89 160.15,-22.89"/>
</g>
<!-- Node2&#45;&gt;Node3 -->
<g id="edge2" class="edge">
<title>Node2&#45;&gt;Node3</title>
<path fill="none" stroke="midnightblue" d="M236.28,-51.3C254.16,-45.54 276.85,-38.23 294.73,-32.47"/>
</g>
</g>
</svg>
