<?xml version="1.0" encoding="UTF-8" standalone="no"?>
<!DOCTYPE svg PUBLIC "-//W3C//DTD SVG 1.1//EN"
 "http://www.w3.org/Graphics/SVG/1.1/DTD/svg11.dtd">
<!-- Generated by graphviz version 2.43.0 (0)
 -->
<!-- Title: ionVtecSphhar Pages: 1 -->
<svg width="247pt" height="218pt"
 viewBox="0.00 0.00 247.00 218.00" xmlns="http://www.w3.org/2000/svg" xmlns:xlink="http://www.w3.org/1999/xlink">
<g id="graph0" class="graph" transform="scale(1 1) rotate(0) translate(4 214)">
<title>ionVtecSphhar</title>
<polygon fill="white" stroke="transparent" points="-4,4 -4,-214 243,-214 243,4 -4,4"/>
<!-- Node1 -->
<g id="node1" class="node">
<title>Node1</title>
<g id="a_node1"><a xlink:title="Estimate Ionosphere VTEC using Spherical Cap Harmonic models gtime_t time I time of solutions (not us...">
<polygon fill="#bfbfbf" stroke="black" points="0,-95.5 0,-114.5 87,-114.5 87,-95.5 0,-95.5"/>
<text text-anchor="middle" x="43.5" y="-102.5" font-family="Helvetica,sans-Serif" font-size="10.00">ionVtecSphhar</text>
</a>
</g>
</g>
<!-- Node2 -->
<g id="node2" class="node">
<title>Node2</title>
<g id="a_node2"><a xlink:href="ionoSpherical_8cpp.html#a5b7bfe4a5b9c8c410133e7e6efbfc753" target="_top" xlink:title="rotates the Ionosphere piercing point time: I time of observations (to update the rotation matrix) IP...">
<polygon fill="white" stroke="red" points="133.5,-190.5 133.5,-209.5 228.5,-209.5 228.5,-190.5 133.5,-190.5"/>
<text text-anchor="middle" x="181" y="-197.5" font-family="Helvetica,sans-Serif" font-size="10.00">ippCheckSphhar</text>
</a>
</g>
</g>
<!-- Node1&#45;&gt;Node2 -->
<g id="edge1" class="edge">
<title>Node1&#45;&gt;Node2</title>
<path fill="none" stroke="midnightblue" d="M51.93,-114.58C64.77,-130.53 92.68,-162.6 123,-181 126.41,-183.07 130.08,-184.95 133.85,-186.64"/>
<polygon fill="midnightblue" stroke="midnightblue" points="132.76,-189.98 143.34,-190.48 135.38,-183.49 132.76,-189.98"/>
</g>
<!-- Node14 -->
<g id="node3" class="node">
<title>Node14</title>
<g id="a_node3"><a xlink:href="structVectorPos.html#ae607eb1f43de3cf1aaa024c2fdabc514" target="_top" xlink:title=" ">
<polygon fill="white" stroke="black" points="129.5,-152.5 129.5,-171.5 232.5,-171.5 232.5,-152.5 129.5,-152.5"/>
<text text-anchor="middle" x="181" y="-159.5" font-family="Helvetica,sans-Serif" font-size="10.00">VectorPos::latDeg</text>
</a>
</g>
</g>
<!-- Node1&#45;&gt;Node14 -->
<g id="edge2" class="edge">
<title>Node1&#45;&gt;Node14</title>
<path fill="none" stroke="midnightblue" d="M62.6,-114.59C78.32,-122.71 101.82,-134.39 123,-143 128.19,-145.11 133.72,-147.18 139.21,-149.12"/>
<polygon fill="midnightblue" stroke="midnightblue" points="138.37,-152.53 148.97,-152.46 140.65,-145.91 138.37,-152.53"/>
</g>
<!-- Node15 -->
<g id="node4" class="node">
<title>Node15</title>
<g id="a_node4"><a xlink:href="structVectorPos.html#aa693d5a52133cfb55040b768c6175bae" target="_top" xlink:title=" ">
<polygon fill="white" stroke="black" points="128.5,-114.5 128.5,-133.5 233.5,-133.5 233.5,-114.5 128.5,-114.5"/>
<text text-anchor="middle" x="181" y="-121.5" font-family="Helvetica,sans-Serif" font-size="10.00">VectorPos::lonDeg</text>
</a>
</g>
</g>
<!-- Node1&#45;&gt;Node15 -->
<g id="edge3" class="edge">
<title>Node1&#45;&gt;Node15</title>
<path fill="none" stroke="midnightblue" d="M87,-110.96C96.88,-112.35 107.6,-113.85 118.13,-115.32"/>
<polygon fill="midnightblue" stroke="midnightblue" points="117.74,-118.8 128.13,-116.73 118.71,-111.87 117.74,-118.8"/>
</g>
<!-- Node16 -->
<g id="node5" class="node">
<title>Node16</title>
<g id="a_node5"><a xlink:href="tropGPT2_8cpp.html#aa061d99eb567e08008ee2e0b0463926d" target="_top" xlink:title="coefficients multiplication">
<polygon fill="white" stroke="black" points="162,-76.5 162,-95.5 200,-95.5 200,-76.5 162,-76.5"/>
<text text-anchor="middle" x="181" y="-83.5" font-family="Helvetica,sans-Serif" font-size="10.00">coef</text>
</a>
</g>
</g>
<!-- Node1&#45;&gt;Node16 -->
<g id="edge4" class="edge">
<title>Node1&#45;&gt;Node16</title>
<path fill="none" stroke="midnightblue" d="M87,-99.04C108.12,-96.08 133.06,-92.58 151.79,-89.96"/>
<polygon fill="midnightblue" stroke="midnightblue" points="152.35,-93.41 161.76,-88.56 151.37,-86.48 152.35,-93.41"/>
</g>
<!-- Node17 -->
<g id="node6" class="node">
<title>Node17</title>
<g id="a_node6"><a xlink:href="ionoSpherical_8cpp.html#aeb48df0b01dbc59042702f65f0c33275" target="_top" xlink:title="Evaluates spherical harmonics basis functions int ind I obs I Ionosphere measurement struct latIPP &#45; ...">
<polygon fill="white" stroke="red" points="137,-38.5 137,-57.5 225,-57.5 225,-38.5 137,-38.5"/>
<text text-anchor="middle" x="181" y="-45.5" font-family="Helvetica,sans-Serif" font-size="10.00">ionCoefSphhar</text>
</a>
</g>
</g>
<!-- Node1&#45;&gt;Node17 -->
<g id="edge5" class="edge">
<title>Node1&#45;&gt;Node17</title>
<path fill="none" stroke="midnightblue" d="M62.6,-95.41C78.32,-87.29 101.82,-75.61 123,-67 128.19,-64.89 133.72,-62.82 139.21,-60.88"/>
<polygon fill="midnightblue" stroke="midnightblue" points="140.65,-64.09 148.97,-57.54 138.37,-57.47 140.65,-64.09"/>
</g>
<!-- Node19 -->
<g id="node7" class="node">
<title>Node19</title>
<g id="a_node7"><a xlink:href="structKFState.html#adf65ad6aa025b3b6279a476d00b1c0fc" target="_top" xlink:title="Returns the value and variance of a state within the kalman filter object.">
<polygon fill="white" stroke="black" points="123,-0.5 123,-19.5 239,-19.5 239,-0.5 123,-0.5"/>
<text text-anchor="middle" x="181" y="-7.5" font-family="Helvetica,sans-Serif" font-size="10.00">KFState::getKFValue</text>
</a>
</g>
</g>
<!-- Node1&#45;&gt;Node19 -->
<g id="edge6" class="edge">
<title>Node1&#45;&gt;Node19</title>
<path fill="none" stroke="midnightblue" d="M51.93,-95.42C64.77,-79.47 92.68,-47.4 123,-29 126.41,-26.93 130.08,-25.05 133.85,-23.36"/>
<polygon fill="midnightblue" stroke="midnightblue" points="135.38,-26.51 143.34,-19.52 132.76,-20.02 135.38,-26.51"/>
</g>
</g>
</svg>
