<?xml version="1.0" encoding="UTF-8" standalone="no"?>
<!DOCTYPE svg PUBLIC "-//W3C//DTD SVG 1.1//EN"
 "http://www.w3.org/Graphics/SVG/1.1/DTD/svg11.dtd">
<!-- Generated by graphviz version 2.43.0 (0)
 -->
<!-- Title: /data/staging/ginan/src/cpp/iono/ionoModel.hpp Pages: 1 -->
<svg width="2455pt" height="117pt"
 viewBox="0.00 0.00 2454.50 117.00" xmlns="http://www.w3.org/2000/svg" xmlns:xlink="http://www.w3.org/1999/xlink">
<g id="graph0" class="graph" transform="scale(1 1) rotate(0) translate(4 113)">
<title>/data/staging/ginan/src/cpp/iono/ionoModel.hpp</title>
<polygon fill="white" stroke="transparent" points="-4,4 -4,-113 2450.5,-113 2450.5,4 -4,4"/>
<!-- Node1 -->
<g id="node1" class="node">
<title>Node1</title>
<g id="a_node1"><a xlink:title=" ">
<polygon fill="#bfbfbf" stroke="black" points="1225,-78.5 1225,-108.5 1378,-108.5 1378,-78.5 1225,-78.5"/>
<text text-anchor="start" x="1233" y="-96.5" font-family="Helvetica,sans-Serif" font-size="10.00">/data/staging/ginan</text>
<text text-anchor="middle" x="1301.5" y="-85.5" font-family="Helvetica,sans-Serif" font-size="10.00">/src/cpp/iono/ionoModel.hpp</text>
</a>
</g>
</g>
<!-- Node2 -->
<g id="node2" class="node">
<title>Node2</title>
<g id="a_node2"><a xlink:href="biasSINEXwrite_8cpp.html" target="_top" xlink:title=" ">
<polygon fill="white" stroke="black" points="0,-6 0,-36 197,-36 197,-6 0,-6"/>
<text text-anchor="start" x="8" y="-24" font-family="Helvetica,sans-Serif" font-size="10.00">/data/staging/ginan</text>
<text text-anchor="middle" x="98.5" y="-13" font-family="Helvetica,sans-Serif" font-size="10.00">/src/cpp/common/biasSINEXwrite.cpp</text>
</a>
</g>
</g>
<!-- Node1&#45;&gt;Node2 -->
<g id="edge1" class="edge">
<title>Node1&#45;&gt;Node2</title>
<path fill="none" stroke="midnightblue" d="M1224.88,-92.57C1045.96,-91.94 586.98,-85.79 206.5,-42 193.43,-40.5 179.56,-38.35 166.27,-36.02"/>
</g>
<!-- Node3 -->
<g id="node3" class="node">
<title>Node3</title>
<g id="a_node3"><a xlink:href="rtsSmoothing_8cpp.html" target="_top" xlink:title=" ">
<polygon fill="white" stroke="black" points="215.5,-6 215.5,-36 403.5,-36 403.5,-6 215.5,-6"/>
<text text-anchor="start" x="223.5" y="-24" font-family="Helvetica,sans-Serif" font-size="10.00">/data/staging/ginan</text>
<text text-anchor="middle" x="309.5" y="-13" font-family="Helvetica,sans-Serif" font-size="10.00">/src/cpp/common/rtsSmoothing.cpp</text>
</a>
</g>
</g>
<!-- Node1&#45;&gt;Node3 -->
<g id="edge2" class="edge">
<title>Node1&#45;&gt;Node3</title>
<path fill="none" stroke="midnightblue" d="M1224.78,-91.62C1070.4,-89.09 711.43,-79.34 412.5,-42 400.21,-40.46 387.18,-38.33 374.67,-36.03"/>
</g>
<!-- Node4 -->
<g id="node4" class="node">
<title>Node4</title>
<g id="a_node4"><a xlink:href="ionexWrite_8cpp.html" target="_top" xlink:title=" ">
<polygon fill="white" stroke="black" points="422,-6 422,-36 577,-36 577,-6 422,-6"/>
<text text-anchor="start" x="430" y="-24" font-family="Helvetica,sans-Serif" font-size="10.00">/data/staging/ginan</text>
<text text-anchor="middle" x="499.5" y="-13" font-family="Helvetica,sans-Serif" font-size="10.00">/src/cpp/iono/ionexWrite.cpp</text>
</a>
</g>
</g>
<!-- Node1&#45;&gt;Node4 -->
<g id="edge3" class="edge">
<title>Node1&#45;&gt;Node4</title>
<path fill="none" stroke="midnightblue" d="M1224.89,-90.99C1093.55,-87.53 817.27,-76.46 586.5,-42 576.23,-40.47 565.38,-38.37 554.95,-36.1"/>
</g>
<!-- Node5 -->
<g id="node5" class="node">
<title>Node5</title>
<g id="a_node5"><a xlink:href="ionoBSplines_8cpp.html" target="_top" xlink:title=" ">
<polygon fill="white" stroke="black" points="595.5,-6 595.5,-36 759.5,-36 759.5,-6 595.5,-6"/>
<text text-anchor="start" x="603.5" y="-24" font-family="Helvetica,sans-Serif" font-size="10.00">/data/staging/ginan</text>
<text text-anchor="middle" x="677.5" y="-13" font-family="Helvetica,sans-Serif" font-size="10.00">/src/cpp/iono/ionoBSplines.cpp</text>
</a>
</g>
</g>
<!-- Node1&#45;&gt;Node5 -->
<g id="edge4" class="edge">
<title>Node1&#45;&gt;Node5</title>
<path fill="none" stroke="midnightblue" d="M1224.79,-88.18C1120.89,-81.65 929.89,-67.28 768.5,-42 758.11,-40.37 747.13,-38.28 736.53,-36.07"/>
</g>
<!-- Node6 -->
<g id="node6" class="node">
<title>Node6</title>
<g id="a_node6"><a xlink:href="ionoLocalSTEC_8cpp.html" target="_top" xlink:title=" ">
<polygon fill="white" stroke="black" points="778,-6 778,-36 951,-36 951,-6 778,-6"/>
<text text-anchor="start" x="786" y="-24" font-family="Helvetica,sans-Serif" font-size="10.00">/data/staging/ginan</text>
<text text-anchor="middle" x="864.5" y="-13" font-family="Helvetica,sans-Serif" font-size="10.00">/src/cpp/iono/ionoLocalSTEC.cpp</text>
</a>
</g>
</g>
<!-- Node1&#45;&gt;Node6 -->
<g id="edge5" class="edge">
<title>Node1&#45;&gt;Node6</title>
<path fill="none" stroke="midnightblue" d="M1224.88,-82.55C1155.42,-73.2 1050.34,-58.25 959.5,-42 949.46,-40.2 938.86,-38.14 928.53,-36.03"/>
</g>
<!-- Node7 -->
<g id="node7" class="node">
<title>Node7</title>
<g id="a_node7"><a xlink:href="ionoMeas_8cpp.html" target="_top" xlink:title=" ">
<polygon fill="white" stroke="black" points="969,-6 969,-36 1118,-36 1118,-6 969,-6"/>
<text text-anchor="start" x="977" y="-24" font-family="Helvetica,sans-Serif" font-size="10.00">/data/staging/ginan</text>
<text text-anchor="middle" x="1043.5" y="-13" font-family="Helvetica,sans-Serif" font-size="10.00">/src/cpp/iono/ionoMeas.cpp</text>
</a>
</g>
</g>
<!-- Node1&#45;&gt;Node7 -->
<g id="edge6" class="edge">
<title>Node1&#45;&gt;Node7</title>
<path fill="none" stroke="midnightblue" d="M1250.22,-78.49C1205.25,-66.2 1140.2,-48.42 1095.13,-36.11"/>
</g>
<!-- Node8 -->
<g id="node8" class="node">
<title>Node8</title>
<g id="a_node8"><a xlink:href="ionoModel_8cpp.html" target="_top" xlink:title=" ">
<polygon fill="white" stroke="black" points="1136.5,-6 1136.5,-36 1288.5,-36 1288.5,-6 1136.5,-6"/>
<text text-anchor="start" x="1144.5" y="-24" font-family="Helvetica,sans-Serif" font-size="10.00">/data/staging/ginan</text>
<text text-anchor="middle" x="1212.5" y="-13" font-family="Helvetica,sans-Serif" font-size="10.00">/src/cpp/iono/ionoModel.cpp</text>
</a>
</g>
</g>
<!-- Node1&#45;&gt;Node8 -->
<g id="edge7" class="edge">
<title>Node1&#45;&gt;Node8</title>
<path fill="none" stroke="midnightblue" d="M1283.49,-78.23C1267.95,-65.92 1245.63,-48.24 1230.18,-36"/>
</g>
<!-- Node9 -->
<g id="node9" class="node">
<title>Node9</title>
<g id="a_node9"><a xlink:href="ionoSpherical_8cpp.html" target="_top" xlink:title=" ">
<polygon fill="white" stroke="black" points="1307,-6 1307,-36 1474,-36 1474,-6 1307,-6"/>
<text text-anchor="start" x="1315" y="-24" font-family="Helvetica,sans-Serif" font-size="10.00">/data/staging/ginan</text>
<text text-anchor="middle" x="1390.5" y="-13" font-family="Helvetica,sans-Serif" font-size="10.00">/src/cpp/iono/ionoSpherical.cpp</text>
</a>
</g>
</g>
<!-- Node1&#45;&gt;Node9 -->
<g id="edge8" class="edge">
<title>Node1&#45;&gt;Node9</title>
<path fill="none" stroke="midnightblue" d="M1319.51,-78.23C1335.05,-65.92 1357.37,-48.24 1372.82,-36"/>
</g>
<!-- Node10 -->
<g id="node10" class="node">
<title>Node10</title>
<g id="a_node10"><a xlink:href="ionoSphericalCaps_8cpp.html" target="_top" xlink:title=" ">
<polygon fill="white" stroke="black" points="1492,-0.5 1492,-41.5 1639,-41.5 1639,-0.5 1492,-0.5"/>
<text text-anchor="start" x="1500" y="-29.5" font-family="Helvetica,sans-Serif" font-size="10.00">/data/staging/ginan</text>
<text text-anchor="start" x="1500" y="-18.5" font-family="Helvetica,sans-Serif" font-size="10.00">/src/cpp/iono/ionoSpherical</text>
<text text-anchor="middle" x="1565.5" y="-7.5" font-family="Helvetica,sans-Serif" font-size="10.00">Caps.cpp</text>
</a>
</g>
</g>
<!-- Node1&#45;&gt;Node10 -->
<g id="edge9" class="edge">
<title>Node1&#45;&gt;Node10</title>
<path fill="none" stroke="midnightblue" d="M1353.97,-78.49C1393.6,-67.91 1448.46,-53.25 1492.38,-41.53"/>
</g>
<!-- Node11 -->
<g id="node11" class="node">
<title>Node11</title>
<g id="a_node11"><a xlink:href="prototypeCmpSSRDecode_8cpp.html" target="_top" xlink:title=" ">
<polygon fill="white" stroke="black" points="1657.5,-0.5 1657.5,-41.5 1809.5,-41.5 1809.5,-0.5 1657.5,-0.5"/>
<text text-anchor="start" x="1665.5" y="-29.5" font-family="Helvetica,sans-Serif" font-size="10.00">/data/staging/ginan</text>
<text text-anchor="start" x="1665.5" y="-18.5" font-family="Helvetica,sans-Serif" font-size="10.00">/src/cpp/other_ssr/prototype</text>
<text text-anchor="middle" x="1733.5" y="-7.5" font-family="Helvetica,sans-Serif" font-size="10.00">CmpSSRDecode.cpp</text>
</a>
</g>
</g>
<!-- Node1&#45;&gt;Node11 -->
<g id="edge10" class="edge">
<title>Node1&#45;&gt;Node11</title>
<path fill="none" stroke="midnightblue" d="M1378.31,-83.26C1448.84,-74.32 1556.1,-59.56 1648.5,-42 1651.33,-41.46 1654.21,-40.89 1657.11,-40.3"/>
</g>
<!-- Node12 -->
<g id="node12" class="node">
<title>Node12</title>
<g id="a_node12"><a xlink:href="main_8cpp.html" target="_top" xlink:title=" ">
<polygon fill="white" stroke="black" points="1828,-6 1828,-36 1951,-36 1951,-6 1828,-6"/>
<text text-anchor="start" x="1836" y="-24" font-family="Helvetica,sans-Serif" font-size="10.00">/data/staging/ginan</text>
<text text-anchor="middle" x="1889.5" y="-13" font-family="Helvetica,sans-Serif" font-size="10.00">/src/cpp/pea/main.cpp</text>
</a>
</g>
</g>
<!-- Node1&#45;&gt;Node12 -->
<g id="edge11" class="edge">
<title>Node1&#45;&gt;Node12</title>
<path fill="none" stroke="midnightblue" d="M1378.31,-89.25C1479.81,-83.99 1663.84,-71.1 1818.5,-42 1826.93,-40.41 1835.81,-38.29 1844.33,-36.01"/>
</g>
<!-- Node13 -->
<g id="node13" class="node">
<title>Node13</title>
<g id="a_node13"><a xlink:href="ppp__obs_8cpp.html" target="_top" xlink:title=" ">
<polygon fill="white" stroke="black" points="1969,-6 1969,-36 2108,-36 2108,-6 1969,-6"/>
<text text-anchor="start" x="1977" y="-24" font-family="Helvetica,sans-Serif" font-size="10.00">/data/staging/ginan</text>
<text text-anchor="middle" x="2038.5" y="-13" font-family="Helvetica,sans-Serif" font-size="10.00">/src/cpp/pea/ppp_obs.cpp</text>
</a>
</g>
</g>
<!-- Node1&#45;&gt;Node13 -->
<g id="edge12" class="edge">
<title>Node1&#45;&gt;Node13</title>
<path fill="none" stroke="midnightblue" d="M1378.12,-90.96C1501.53,-87.51 1751.63,-76.51 1960.5,-42 1969.88,-40.45 1979.78,-38.31 1989.26,-36.01"/>
</g>
<!-- Node14 -->
<g id="node14" class="node">
<title>Node14</title>
<g id="a_node14"><a xlink:href="ppp__pseudoobs_8cpp.html" target="_top" xlink:title=" ">
<polygon fill="white" stroke="black" points="2126.5,-6 2126.5,-36 2300.5,-36 2300.5,-6 2126.5,-6"/>
<text text-anchor="start" x="2134.5" y="-24" font-family="Helvetica,sans-Serif" font-size="10.00">/data/staging/ginan</text>
<text text-anchor="middle" x="2213.5" y="-13" font-family="Helvetica,sans-Serif" font-size="10.00">/src/cpp/pea/ppp_pseudoobs.cpp</text>
</a>
</g>
</g>
<!-- Node1&#45;&gt;Node14 -->
<g id="edge13" class="edge">
<title>Node1&#45;&gt;Node14</title>
<path fill="none" stroke="midnightblue" d="M1378.07,-91.42C1523.03,-88.57 1847.23,-78.32 2117.5,-42 2128.97,-40.46 2141.13,-38.32 2152.79,-36.02"/>
</g>
<!-- Node15 -->
<g id="node15" class="node">
<title>Node15</title>
<g id="a_node15"><a xlink:href="ppppp_8cpp.html" target="_top" xlink:title=" ">
<polygon fill="white" stroke="black" points="2318.5,-6 2318.5,-36 2446.5,-36 2446.5,-6 2318.5,-6"/>
<text text-anchor="start" x="2326.5" y="-24" font-family="Helvetica,sans-Serif" font-size="10.00">/data/staging/ginan</text>
<text text-anchor="middle" x="2382.5" y="-13" font-family="Helvetica,sans-Serif" font-size="10.00">/src/cpp/pea/ppppp.cpp</text>
</a>
</g>
</g>
<!-- Node1&#45;&gt;Node15 -->
<g id="edge14" class="edge">
<title>Node1&#45;&gt;Node15</title>
<path fill="none" stroke="midnightblue" d="M1378.1,-90.82C1581.23,-86.01 2130.32,-70.68 2309.5,-42 2318.58,-40.55 2328.16,-38.39 2337.27,-36.03"/>
</g>
</g>
</svg>
