<?xml version="1.0" encoding="UTF-8" standalone="no"?>
<!DOCTYPE svg PUBLIC "-//W3C//DTD SVG 1.1//EN"
 "http://www.w3.org/Graphics/SVG/1.1/DTD/svg11.dtd">
<!-- Generated by graphviz version 2.43.0 (0)
 -->
<!-- Title: legendre_function Pages: 1 -->
<svg width="400pt" height="78pt"
 viewBox="0.00 0.00 400.00 78.06" xmlns="http://www.w3.org/2000/svg" xmlns:xlink="http://www.w3.org/1999/xlink">
<g id="graph0" class="graph" transform="scale(1 1) rotate(0) translate(4 74.06)">
<title>legendre_function</title>
<polygon fill="white" stroke="transparent" points="-4,4 -4,-74.06 396,-74.06 396,4 -4,4"/>
<!-- Node1 -->
<g id="node1" class="node">
<title>Node1</title>
<g id="a_node1"><a xlink:title=" ">
<polygon fill="#bfbfbf" stroke="black" points="288,-12.56 288,-31.56 392,-31.56 392,-12.56 288,-12.56"/>
<text text-anchor="middle" x="340" y="-19.56" font-family="Helvetica,sans-Serif" font-size="10.00">legendre_function</text>
</a>
</g>
</g>
<!-- Node2 -->
<g id="node2" class="node">
<title>Node2</title>
<g id="a_node2"><a xlink:href="ionoSphericalCaps_8cpp.html#aeae450fade955270a49bb037102ae974" target="_top" xlink:title=" ">
<polygon fill="white" stroke="black" points="177,-50.56 177,-69.56 238,-69.56 238,-50.56 177,-50.56"/>
<text text-anchor="middle" x="207.5" y="-57.56" font-family="Helvetica,sans-Serif" font-size="10.00">bisection</text>
</a>
</g>
</g>
<!-- Node1&#45;&gt;Node2 -->
<g id="edge1" class="edge">
<title>Node1&#45;&gt;Node2</title>
<path fill="none" stroke="midnightblue" d="M306.07,-31.65C285.23,-37.72 258.51,-45.5 238.3,-51.39"/>
</g>
<!-- Node3 -->
<g id="node3" class="node">
<title>Node3</title>
<g id="a_node3"><a xlink:href="ionoSphericalCaps_8cpp.html#ab87ec60257db51dd5d9d6cdc66cdd905" target="_top" xlink:title="Initializes Spherical caps Ionosphere model The following configursation parameters are used.">
<polygon fill="white" stroke="red" points="0,-12.56 0,-31.56 127,-31.56 127,-12.56 0,-12.56"/>
<text text-anchor="middle" x="63.5" y="-19.56" font-family="Helvetica,sans-Serif" font-size="10.00">configIonModelSphcap</text>
</a>
</g>
</g>
<!-- Node1&#45;&gt;Node3 -->
<g id="edge4" class="edge">
<title>Node1&#45;&gt;Node3</title>
<path fill="none" stroke="midnightblue" d="M303.73,-12.55C288.02,-8.79 269.22,-4.92 252,-3.06 212.67,1.18 202.38,0.7 163,-3.06 143.58,-4.92 122.3,-8.79 104.5,-12.55"/>
</g>
<!-- Node7 -->
<g id="node4" class="node">
<title>Node7</title>
<g id="a_node4"><a xlink:href="ionoSphericalCaps_8cpp.html#a05c8d9e608a7de0fc0e5feb960eb2e71" target="_top" xlink:title="Evaluates spherical cap harmonics basis functions int ind I Basis function number obs I Ionosphere me...">
<polygon fill="white" stroke="red" points="163,-12.56 163,-31.56 252,-31.56 252,-12.56 163,-12.56"/>
<text text-anchor="middle" x="207.5" y="-19.56" font-family="Helvetica,sans-Serif" font-size="10.00">ionCoefSphcap</text>
</a>
</g>
</g>
<!-- Node1&#45;&gt;Node7 -->
<g id="edge3" class="edge">
<title>Node1&#45;&gt;Node7</title>
<path fill="none" stroke="midnightblue" d="M287.8,-22.06C276.09,-22.06 263.74,-22.06 252.37,-22.06"/>
</g>
<!-- Node2&#45;&gt;Node3 -->
<g id="edge2" class="edge">
<title>Node2&#45;&gt;Node3</title>
<path fill="none" stroke="midnightblue" d="M176.73,-52.1C154.37,-46.11 123.65,-37.89 100,-31.56"/>
</g>
</g>
</svg>
