<?xml version="1.0" encoding="UTF-8" standalone="no"?>
<!DOCTYPE svg PUBLIC "-//W3C//DTD SVG 1.1//EN"
 "http://www.w3.org/Graphics/SVG/1.1/DTD/svg11.dtd">
<!-- Generated by graphviz version 2.43.0 (0)
 -->
<!-- Title: writeIonStec Pages: 1 -->
<svg width="237pt" height="66pt"
 viewBox="0.00 0.00 237.00 66.00" xmlns="http://www.w3.org/2000/svg" xmlns:xlink="http://www.w3.org/1999/xlink">
<g id="graph0" class="graph" transform="scale(1 1) rotate(0) translate(4 62)">
<title>writeIonStec</title>
<polygon fill="white" stroke="transparent" points="-4,4 -4,-62 233,-62 233,4 -4,4"/>
<!-- Node1 -->
<g id="node1" class="node">
<title>Node1</title>
<g id="a_node1"><a xlink:title=" ">
<polygon fill="#bfbfbf" stroke="black" points="0,-19.5 0,-38.5 77,-38.5 77,-19.5 0,-19.5"/>
<text text-anchor="middle" x="38.5" y="-26.5" font-family="Helvetica,sans-Serif" font-size="10.00">writeIonStec</text>
</a>
</g>
</g>
<!-- Node2 -->
<g id="node2" class="node">
<title>Node2</title>
<g id="a_node2"><a xlink:href="trace_8hpp.html#a984a9b0c40d65d46f2c73a021a7b7de3" target="_top" xlink:title=" ">
<polygon fill="white" stroke="black" points="135.5,-38.5 135.5,-57.5 206.5,-57.5 206.5,-38.5 135.5,-38.5"/>
<text text-anchor="middle" x="171" y="-45.5" font-family="Helvetica,sans-Serif" font-size="10.00">tracepdeex</text>
</a>
</g>
</g>
<!-- Node1&#45;&gt;Node2 -->
<g id="edge1" class="edge">
<title>Node1&#45;&gt;Node2</title>
<path fill="none" stroke="midnightblue" d="M77.25,-34.5C92.31,-36.69 109.78,-39.23 125.46,-41.51"/>
<polygon fill="midnightblue" stroke="midnightblue" points="125.06,-44.99 135.46,-42.97 126.07,-38.07 125.06,-44.99"/>
</g>
<!-- Node3 -->
<g id="node3" class="node">
<title>Node3</title>
<g id="a_node3"><a xlink:href="structKFState.html#adf65ad6aa025b3b6279a476d00b1c0fc" target="_top" xlink:title="Returns the value and variance of a state within the kalman filter object.">
<polygon fill="white" stroke="black" points="113,-0.5 113,-19.5 229,-19.5 229,-0.5 113,-0.5"/>
<text text-anchor="middle" x="171" y="-7.5" font-family="Helvetica,sans-Serif" font-size="10.00">KFState::getKFValue</text>
</a>
</g>
</g>
<!-- Node1&#45;&gt;Node3 -->
<g id="edge2" class="edge">
<title>Node1&#45;&gt;Node3</title>
<path fill="none" stroke="midnightblue" d="M77.25,-23.5C85.34,-22.33 94.13,-21.05 102.96,-19.76"/>
<polygon fill="midnightblue" stroke="midnightblue" points="103.52,-23.22 112.91,-18.31 102.51,-16.29 103.52,-23.22"/>
</g>
</g>
</svg>
