<?xml version="1.0" encoding="UTF-8" standalone="no"?>
<!DOCTYPE svg PUBLIC "-//W3C//DTD SVG 1.1//EN"
 "http://www.w3.org/Graphics/SVG/1.1/DTD/svg11.dtd">
<!-- Generated by graphviz version 2.43.0 (0)
 -->
<!-- Title: ippCheckBsplin Pages: 1 -->
<svg width="241pt" height="66pt"
 viewBox="0.00 0.00 241.00 66.00" xmlns="http://www.w3.org/2000/svg" xmlns:xlink="http://www.w3.org/1999/xlink">
<g id="graph0" class="graph" transform="scale(1 1) rotate(0) translate(4 62)">
<title>ippCheckBsplin</title>
<polygon fill="white" stroke="transparent" points="-4,4 -4,-62 237,-62 237,4 -4,4"/>
<!-- Node1 -->
<g id="node1" class="node">
<title>Node1</title>
<g id="a_node1"><a xlink:title="checks if the Ionosphere Piercing Point falls in area of coverage time: I time of observations (not u...">
<polygon fill="#bfbfbf" stroke="black" points="0,-19.5 0,-38.5 92,-38.5 92,-19.5 0,-19.5"/>
<text text-anchor="middle" x="46" y="-26.5" font-family="Helvetica,sans-Serif" font-size="10.00">ippCheckBsplin</text>
</a>
</g>
</g>
<!-- Node2 -->
<g id="node2" class="node">
<title>Node2</title>
<g id="a_node2"><a xlink:href="structVectorPos.html#ae607eb1f43de3cf1aaa024c2fdabc514" target="_top" xlink:title=" ">
<polygon fill="white" stroke="black" points="129,-38.5 129,-57.5 232,-57.5 232,-38.5 129,-38.5"/>
<text text-anchor="middle" x="180.5" y="-45.5" font-family="Helvetica,sans-Serif" font-size="10.00">VectorPos::latDeg</text>
</a>
</g>
</g>
<!-- Node1&#45;&gt;Node2 -->
<g id="edge1" class="edge">
<title>Node1&#45;&gt;Node2</title>
<path fill="none" stroke="midnightblue" d="M92.23,-35.49C100.73,-36.7 109.74,-38 118.62,-39.27"/>
<polygon fill="midnightblue" stroke="midnightblue" points="118.16,-42.74 128.56,-40.7 119.16,-35.81 118.16,-42.74"/>
</g>
<!-- Node3 -->
<g id="node3" class="node">
<title>Node3</title>
<g id="a_node3"><a xlink:href="structVectorPos.html#aa693d5a52133cfb55040b768c6175bae" target="_top" xlink:title=" ">
<polygon fill="white" stroke="black" points="128,-0.5 128,-19.5 233,-19.5 233,-0.5 128,-0.5"/>
<text text-anchor="middle" x="180.5" y="-7.5" font-family="Helvetica,sans-Serif" font-size="10.00">VectorPos::lonDeg</text>
</a>
</g>
</g>
<!-- Node1&#45;&gt;Node3 -->
<g id="edge2" class="edge">
<title>Node1&#45;&gt;Node3</title>
<path fill="none" stroke="midnightblue" d="M92.23,-22.51C100.42,-21.34 109.09,-20.1 117.66,-18.87"/>
<polygon fill="midnightblue" stroke="midnightblue" points="118.24,-22.32 127.64,-17.44 117.24,-15.39 118.24,-22.32"/>
</g>
</g>
</svg>
