<?xml version="1.0" encoding="UTF-8" standalone="no"?>
<!DOCTYPE svg PUBLIC "-//W3C//DTD SVG 1.1//EN"
 "http://www.w3.org/Graphics/SVG/1.1/DTD/svg11.dtd">
<!-- Generated by graphviz version 2.43.0 (0)
 -->
<!-- Title: configIonModelSphcap Pages: 1 -->
<svg width="373pt" height="66pt"
 viewBox="0.00 0.00 373.00 66.00" xmlns="http://www.w3.org/2000/svg" xmlns:xlink="http://www.w3.org/1999/xlink">
<g id="graph0" class="graph" transform="scale(1 1) rotate(0) translate(4 62)">
<title>configIonModelSphcap</title>
<polygon fill="white" stroke="transparent" points="-4,4 -4,-62 369,-62 369,4 -4,4"/>
<!-- Node1 -->
<g id="node1" class="node">
<title>Node1</title>
<g id="a_node1"><a xlink:title="Initializes Spherical caps Ionosphere model The following configursation parameters are used.">
<polygon fill="#bfbfbf" stroke="black" points="0,-19.5 0,-38.5 127,-38.5 127,-19.5 0,-19.5"/>
<text text-anchor="middle" x="63.5" y="-26.5" font-family="Helvetica,sans-Serif" font-size="10.00">configIonModelSphcap</text>
</a>
</g>
</g>
<!-- Node2 -->
<g id="node2" class="node">
<title>Node2</title>
<g id="a_node2"><a xlink:href="ionoSphericalCaps_8cpp.html#af477ddd9f2fb1146ce390c17b7f60ed8" target="_top" xlink:title=" ">
<polygon fill="white" stroke="black" points="260.5,-0.5 260.5,-19.5 364.5,-19.5 364.5,-0.5 260.5,-0.5"/>
<text text-anchor="middle" x="312.5" y="-7.5" font-family="Helvetica,sans-Serif" font-size="10.00">legendre_function</text>
</a>
</g>
</g>
<!-- Node1&#45;&gt;Node2 -->
<g id="edge1" class="edge">
<title>Node1&#45;&gt;Node2</title>
<path fill="none" stroke="midnightblue" d="M93.12,-38.52C125.34,-47.84 179.07,-59.13 224,-48 241.56,-43.65 243.48,-36.37 260,-29 267.49,-25.66 275.75,-22.42 283.43,-19.59"/>
</g>
<!-- Node3 -->
<g id="node3" class="node">
<title>Node3</title>
<g id="a_node3"><a xlink:href="ionoSphericalCaps_8cpp.html#aeae450fade955270a49bb037102ae974" target="_top" xlink:title=" ">
<polygon fill="white" stroke="black" points="163,-19.5 163,-38.5 224,-38.5 224,-19.5 163,-19.5"/>
<text text-anchor="middle" x="193.5" y="-26.5" font-family="Helvetica,sans-Serif" font-size="10.00">bisection</text>
</a>
</g>
</g>
<!-- Node1&#45;&gt;Node3 -->
<g id="edge2" class="edge">
<title>Node1&#45;&gt;Node3</title>
<path fill="none" stroke="midnightblue" d="M127,-29C139.57,-29 152.21,-29 162.99,-29"/>
</g>
<!-- Node4 -->
<g id="node4" class="node">
<title>Node4</title>
<g id="a_node4"><a xlink:href="ionoSphericalCaps_8cpp.html#a704ddd2715658506643c09ff2ec2918a" target="_top" xlink:title=" ">
<polygon fill="white" stroke="black" points="260,-38.5 260,-57.5 365,-57.5 365,-38.5 260,-38.5"/>
<text text-anchor="middle" x="312.5" y="-45.5" font-family="Helvetica,sans-Serif" font-size="10.00">legendre_derivatv</text>
</a>
</g>
</g>
<!-- Node1&#45;&gt;Node4 -->
<g id="edge5" class="edge">
<title>Node1&#45;&gt;Node4</title>
<path fill="none" stroke="midnightblue" d="M93.12,-19.48C125.34,-10.16 179.07,1.13 224,-10 241.56,-14.35 243.48,-21.63 260,-29 267.49,-32.34 275.75,-35.58 283.43,-38.41"/>
</g>
<!-- Node3&#45;&gt;Node2 -->
<g id="edge4" class="edge">
<title>Node3&#45;&gt;Node2</title>
<path fill="none" stroke="midnightblue" d="M224.02,-24.21C234.99,-22.42 247.78,-20.35 260.13,-18.34"/>
</g>
<!-- Node3&#45;&gt;Node4 -->
<g id="edge3" class="edge">
<title>Node3&#45;&gt;Node4</title>
<path fill="none" stroke="midnightblue" d="M224.02,-33.79C234.86,-35.55 247.46,-37.6 259.67,-39.58"/>
</g>
</g>
</svg>
