<?xml version="1.0" encoding="UTF-8" standalone="no"?>
<!DOCTYPE svg PUBLIC "-//W3C//DTD SVG 1.1//EN"
 "http://www.w3.org/Graphics/SVG/1.1/DTD/svg11.dtd">
<!-- Generated by graphviz version 2.43.0 (0)
 -->
<!-- Title: configIonModel Pages: 1 -->
<svg width="263pt" height="104pt"
 viewBox="0.00 0.00 263.00 104.00" xmlns="http://www.w3.org/2000/svg" xmlns:xlink="http://www.w3.org/1999/xlink">
<g id="graph0" class="graph" transform="scale(1 1) rotate(0) translate(4 100)">
<title>configIonModel</title>
<polygon fill="white" stroke="transparent" points="-4,4 -4,-100 259,-100 259,4 -4,4"/>
<!-- Node1 -->
<g id="node1" class="node">
<title>Node1</title>
<g id="a_node1"><a xlink:title=" ">
<polygon fill="#bfbfbf" stroke="black" points="0,-38.5 0,-57.5 92,-57.5 92,-38.5 0,-38.5"/>
<text text-anchor="middle" x="46" y="-45.5" font-family="Helvetica,sans-Serif" font-size="10.00">configIonModel</text>
</a>
</g>
</g>
<!-- Node2 -->
<g id="node2" class="node">
<title>Node2</title>
<g id="a_node2"><a xlink:href="ionoSpherical_8cpp.html#aaf1305d09e1001b88ffa391feb9c4aa5" target="_top" xlink:title="configures the spherical harmonics model.">
<polygon fill="white" stroke="red" points="129,-76.5 129,-95.5 254,-95.5 254,-76.5 129,-76.5"/>
<text text-anchor="middle" x="191.5" y="-83.5" font-family="Helvetica,sans-Serif" font-size="10.00">configIonModelSphhar</text>
</a>
</g>
</g>
<!-- Node1&#45;&gt;Node2 -->
<g id="edge1" class="edge">
<title>Node1&#45;&gt;Node2</title>
<path fill="none" stroke="midnightblue" d="M83.21,-57.59C104.96,-63.35 132.55,-70.65 154.3,-76.41"/>
</g>
<!-- Node5 -->
<g id="node3" class="node">
<title>Node5</title>
<g id="a_node3"><a xlink:href="ionoSphericalCaps_8cpp.html#ab87ec60257db51dd5d9d6cdc66cdd905" target="_top" xlink:title="Initializes Spherical caps Ionosphere model The following configursation parameters are used.">
<polygon fill="white" stroke="red" points="128,-38.5 128,-57.5 255,-57.5 255,-38.5 128,-38.5"/>
<text text-anchor="middle" x="191.5" y="-45.5" font-family="Helvetica,sans-Serif" font-size="10.00">configIonModelSphcap</text>
</a>
</g>
</g>
<!-- Node1&#45;&gt;Node5 -->
<g id="edge2" class="edge">
<title>Node1&#45;&gt;Node5</title>
<path fill="none" stroke="midnightblue" d="M92.01,-48C103.35,-48 115.74,-48 127.78,-48"/>
</g>
<!-- Node9 -->
<g id="node4" class="node">
<title>Node9</title>
<g id="a_node4"><a xlink:href="ionoBSplines_8cpp.html#a9d6710d2c096916cec5404de45e8ac96" target="_top" xlink:title="Initializes grid map model The following configursation parameters are used.">
<polygon fill="white" stroke="black" points="130.5,-0.5 130.5,-19.5 252.5,-19.5 252.5,-0.5 130.5,-0.5"/>
<text text-anchor="middle" x="191.5" y="-7.5" font-family="Helvetica,sans-Serif" font-size="10.00">configIonModelBsplin</text>
</a>
</g>
</g>
<!-- Node1&#45;&gt;Node9 -->
<g id="edge3" class="edge">
<title>Node1&#45;&gt;Node9</title>
<path fill="none" stroke="midnightblue" d="M83.21,-38.41C104.96,-32.65 132.55,-25.35 154.3,-19.59"/>
</g>
</g>
</svg>
