<?xml version="1.0" encoding="UTF-8" standalone="no"?>
<!DOCTYPE svg PUBLIC "-//W3C//DTD SVG 1.1//EN"
 "http://www.w3.org/Graphics/SVG/1.1/DTD/svg11.dtd">
<!-- Generated by graphviz version 2.43.0 (0)
 -->
<!-- Title: getEpcSsrIono Pages: 1 -->
<svg width="352pt" height="256pt"
 viewBox="0.00 0.00 352.00 256.00" xmlns="http://www.w3.org/2000/svg" xmlns:xlink="http://www.w3.org/1999/xlink">
<g id="graph0" class="graph" transform="scale(1 1) rotate(0) translate(4 252)">
<title>getEpcSsrIono</title>
<polygon fill="white" stroke="transparent" points="-4,4 -4,-252 348,-252 348,4 -4,4"/>
<!-- Node1 -->
<g id="node1" class="node">
<title>Node1</title>
<g id="a_node1"><a xlink:title=" ">
<polygon fill="#bfbfbf" stroke="black" points="0,-114.5 0,-133.5 86,-133.5 86,-114.5 0,-114.5"/>
<text text-anchor="middle" x="43" y="-121.5" font-family="Helvetica,sans-Serif" font-size="10.00">getEpcSsrIono</text>
</a>
</g>
</g>
<!-- Node2 -->
<g id="node2" class="node">
<title>Node2</title>
<g id="a_node2"><a xlink:href="ionoSpherical_8cpp.html#a4a53e2c2efbd68f38326d2203c00cb72" target="_top" xlink:title="configures the spherical harmonics model.">
<polygon fill="white" stroke="red" points="122,-228.5 122,-247.5 247,-247.5 247,-228.5 122,-228.5"/>
<text text-anchor="middle" x="184.5" y="-235.5" font-family="Helvetica,sans-Serif" font-size="10.00">configIonModelSphhar</text>
</a>
</g>
</g>
<!-- Node1&#45;&gt;Node2 -->
<g id="edge1" class="edge">
<title>Node1&#45;&gt;Node2</title>
<path fill="none" stroke="midnightblue" d="M50.11,-133.77C61.91,-151.93 89.56,-191.12 122,-214 127.73,-218.04 134.22,-221.52 140.8,-224.47"/>
<polygon fill="midnightblue" stroke="midnightblue" points="139.83,-227.86 150.41,-228.43 142.5,-221.39 139.83,-227.86"/>
</g>
<!-- Node6 -->
<g id="node3" class="node">
<title>Node6</title>
<g id="a_node3"><a xlink:href="utils_8cpp.html#ae91d83cf693cdc7e1efacbe4d8d9656e" target="_top" xlink:title=" ">
<polygon fill="white" stroke="black" points="283,-152.5 283,-171.5 344,-171.5 344,-152.5 283,-152.5"/>
<text text-anchor="middle" x="313.5" y="-159.5" font-family="Helvetica,sans-Serif" font-size="10.00">ecef2pos</text>
</a>
</g>
</g>
<!-- Node1&#45;&gt;Node6 -->
<g id="edge2" class="edge">
<title>Node1&#45;&gt;Node6</title>
<path fill="none" stroke="midnightblue" d="M52.95,-133.61C66.4,-147.26 93.3,-171.63 122,-181 173.45,-197.79 236.52,-185.54 275.61,-174.39"/>
<polygon fill="midnightblue" stroke="midnightblue" points="276.66,-177.73 285.25,-171.53 274.67,-171.02 276.66,-177.73"/>
</g>
<!-- Node7 -->
<g id="node4" class="node">
<title>Node7</title>
<g id="a_node4"><a xlink:href="ionModels_8cpp.html#ad21f16251002ad73463ac689903d5c91" target="_top" xlink:title=" ">
<polygon fill="white" stroke="red" points="159.5,-152.5 159.5,-171.5 209.5,-171.5 209.5,-152.5 159.5,-152.5"/>
<text text-anchor="middle" x="184.5" y="-159.5" font-family="Helvetica,sans-Serif" font-size="10.00">ionppp</text>
</a>
</g>
</g>
<!-- Node1&#45;&gt;Node7 -->
<g id="edge3" class="edge">
<title>Node1&#45;&gt;Node7</title>
<path fill="none" stroke="midnightblue" d="M79.2,-133.59C100.7,-139.45 128.07,-146.9 149.37,-152.7"/>
<polygon fill="midnightblue" stroke="midnightblue" points="148.72,-156.15 159.29,-155.41 150.56,-149.4 148.72,-156.15"/>
</g>
<!-- Node10 -->
<g id="node5" class="node">
<title>Node10</title>
<g id="a_node5"><a xlink:href="ionoSpherical_8cpp.html#a5b7bfe4a5b9c8c410133e7e6efbfc753" target="_top" xlink:title="rotates the Ionosphere piercing point time: I time of observations (to update the rotation matrix) IP...">
<polygon fill="white" stroke="red" points="137,-114.5 137,-133.5 232,-133.5 232,-114.5 137,-114.5"/>
<text text-anchor="middle" x="184.5" y="-121.5" font-family="Helvetica,sans-Serif" font-size="10.00">ippCheckSphhar</text>
</a>
</g>
</g>
<!-- Node1&#45;&gt;Node10 -->
<g id="edge4" class="edge">
<title>Node1&#45;&gt;Node10</title>
<path fill="none" stroke="midnightblue" d="M86.23,-124C98.89,-124 112.98,-124 126.42,-124"/>
<polygon fill="midnightblue" stroke="midnightblue" points="126.54,-127.5 136.54,-124 126.54,-120.5 126.54,-127.5"/>
</g>
<!-- Node19 -->
<g id="node6" class="node">
<title>Node19</title>
<g id="a_node6"><a xlink:href="structVectorPos.html#ae607eb1f43de3cf1aaa024c2fdabc514" target="_top" xlink:title=" ">
<polygon fill="white" stroke="black" points="133,-76.5 133,-95.5 236,-95.5 236,-76.5 133,-76.5"/>
<text text-anchor="middle" x="184.5" y="-83.5" font-family="Helvetica,sans-Serif" font-size="10.00">VectorPos::latDeg</text>
</a>
</g>
</g>
<!-- Node1&#45;&gt;Node19 -->
<g id="edge6" class="edge">
<title>Node1&#45;&gt;Node19</title>
<path fill="none" stroke="midnightblue" d="M79.2,-114.41C97.21,-109.51 119.33,-103.48 138.56,-98.24"/>
<polygon fill="midnightblue" stroke="midnightblue" points="139.58,-101.59 148.31,-95.59 137.74,-94.84 139.58,-101.59"/>
</g>
<!-- Node20 -->
<g id="node7" class="node">
<title>Node20</title>
<g id="a_node7"><a xlink:href="structVectorPos.html#aa693d5a52133cfb55040b768c6175bae" target="_top" xlink:title=" ">
<polygon fill="white" stroke="black" points="132,-38.5 132,-57.5 237,-57.5 237,-38.5 132,-38.5"/>
<text text-anchor="middle" x="184.5" y="-45.5" font-family="Helvetica,sans-Serif" font-size="10.00">VectorPos::lonDeg</text>
</a>
</g>
</g>
<!-- Node1&#45;&gt;Node20 -->
<g id="edge7" class="edge">
<title>Node1&#45;&gt;Node20</title>
<path fill="none" stroke="midnightblue" d="M54.61,-114.45C68.95,-101.97 95.77,-80.17 122,-67 126.39,-64.8 131.08,-62.79 135.85,-60.98"/>
<polygon fill="midnightblue" stroke="midnightblue" points="137.38,-64.15 145.65,-57.53 135.06,-57.54 137.38,-64.15"/>
</g>
<!-- Node21 -->
<g id="node8" class="node">
<title>Node21</title>
<g id="a_node8"><a xlink:href="ionoSpherical_8cpp.html#aeb48df0b01dbc59042702f65f0c33275" target="_top" xlink:title="Evaluates spherical harmonics basis functions int ind I obs I Ionosphere measurement struct latIPP &#45; ...">
<polygon fill="white" stroke="red" points="140.5,-0.5 140.5,-19.5 228.5,-19.5 228.5,-0.5 140.5,-0.5"/>
<text text-anchor="middle" x="184.5" y="-7.5" font-family="Helvetica,sans-Serif" font-size="10.00">ionCoefSphhar</text>
</a>
</g>
</g>
<!-- Node1&#45;&gt;Node21 -->
<g id="edge8" class="edge">
<title>Node1&#45;&gt;Node21</title>
<path fill="none" stroke="midnightblue" d="M49.29,-114.34C60.28,-95.18 87.46,-52.2 122,-29 125.06,-26.95 128.34,-25.11 131.75,-23.46"/>
<polygon fill="midnightblue" stroke="midnightblue" points="133.15,-26.67 140.98,-19.54 130.41,-20.23 133.15,-26.67"/>
</g>
<!-- Node10&#45;&gt;Node6 -->
<g id="edge5" class="edge">
<title>Node10&#45;&gt;Node6</title>
<path fill="none" stroke="midnightblue" d="M217.55,-133.59C234.26,-138.59 254.85,-144.75 272.58,-150.06"/>
<polygon fill="midnightblue" stroke="midnightblue" points="272.06,-153.55 282.64,-153.07 274.07,-146.85 272.06,-153.55"/>
</g>
</g>
</svg>
