<?xml version="1.0" encoding="UTF-8" standalone="no"?>
<!DOCTYPE svg PUBLIC "-//W3C//DTD SVG 1.1//EN"
 "http://www.w3.org/Graphics/SVG/1.1/DTD/svg11.dtd">
<!-- Generated by graphviz version 2.43.0 (0)
 -->
<!-- Title: ionVtecBsplin Pages: 1 -->
<svg width="384pt" height="218pt"
 viewBox="0.00 0.00 384.00 218.00" xmlns="http://www.w3.org/2000/svg" xmlns:xlink="http://www.w3.org/1999/xlink">
<g id="graph0" class="graph" transform="scale(1 1) rotate(0) translate(4 214)">
<title>ionVtecBsplin</title>
<polygon fill="white" stroke="transparent" points="-4,4 -4,-214 380,-214 380,4 -4,4"/>
<!-- Node1 -->
<g id="node1" class="node">
<title>Node1</title>
<g id="a_node1"><a xlink:title="Estimate Ionosphere VTEC using Ionospheric gridmaps Ion_pp I Ionosphere Piercing Point layer I Layer ...">
<polygon fill="#bfbfbf" stroke="black" points="0,-95.5 0,-114.5 83,-114.5 83,-95.5 0,-95.5"/>
<text text-anchor="middle" x="41.5" y="-102.5" font-family="Helvetica,sans-Serif" font-size="10.00">ionVtecBsplin</text>
</a>
</g>
</g>
<!-- Node2 -->
<g id="node2" class="node">
<title>Node2</title>
<g id="a_node2"><a xlink:href="ionoBSplines_8cpp.html#a7002ebc4f104e21e0a2a24917ac32098" target="_top" xlink:title="checks if the Ionosphere Piercing Point falls in area of coverage time: I time of observations (not u...">
<polygon fill="white" stroke="black" points="131,-190.5 131,-209.5 223,-209.5 223,-190.5 131,-190.5"/>
<text text-anchor="middle" x="177" y="-197.5" font-family="Helvetica,sans-Serif" font-size="10.00">ippCheckBsplin</text>
</a>
</g>
</g>
<!-- Node1&#45;&gt;Node2 -->
<g id="edge1" class="edge">
<title>Node1&#45;&gt;Node2</title>
<path fill="none" stroke="midnightblue" d="M51.04,-114.88C64.32,-129.77 91.29,-158.11 119,-176 125,-179.87 131.73,-183.36 138.41,-186.39"/>
<polygon fill="midnightblue" stroke="midnightblue" points="137.48,-189.8 148.06,-190.5 140.23,-183.36 137.48,-189.8"/>
</g>
<!-- Node3 -->
<g id="node3" class="node">
<title>Node3</title>
<g id="a_node3"><a xlink:href="structVectorPos.html#ae607eb1f43de3cf1aaa024c2fdabc514" target="_top" xlink:title=" ">
<polygon fill="white" stroke="black" points="272,-171.5 272,-190.5 375,-190.5 375,-171.5 272,-171.5"/>
<text text-anchor="middle" x="323.5" y="-178.5" font-family="Helvetica,sans-Serif" font-size="10.00">VectorPos::latDeg</text>
</a>
</g>
</g>
<!-- Node1&#45;&gt;Node3 -->
<g id="edge4" class="edge">
<title>Node1&#45;&gt;Node3</title>
<path fill="none" stroke="midnightblue" d="M62.58,-114.59C77.79,-121.57 99.36,-130.83 119,-137 166.05,-151.79 220.75,-163.31 261.58,-170.85"/>
<polygon fill="midnightblue" stroke="midnightblue" points="261.19,-174.34 271.65,-172.68 262.44,-167.45 261.19,-174.34"/>
</g>
<!-- Node4 -->
<g id="node4" class="node">
<title>Node4</title>
<g id="a_node4"><a xlink:href="structVectorPos.html#aa693d5a52133cfb55040b768c6175bae" target="_top" xlink:title=" ">
<polygon fill="white" stroke="black" points="271,-133.5 271,-152.5 376,-152.5 376,-133.5 271,-133.5"/>
<text text-anchor="middle" x="323.5" y="-140.5" font-family="Helvetica,sans-Serif" font-size="10.00">VectorPos::lonDeg</text>
</a>
</g>
</g>
<!-- Node1&#45;&gt;Node4 -->
<g id="edge5" class="edge">
<title>Node1&#45;&gt;Node4</title>
<path fill="none" stroke="midnightblue" d="M83.21,-110.53C129.81,-116.85 206.63,-127.28 260.64,-134.6"/>
<polygon fill="midnightblue" stroke="midnightblue" points="260.4,-138.1 270.78,-135.98 261.34,-131.17 260.4,-138.1"/>
</g>
<!-- Node5 -->
<g id="node5" class="node">
<title>Node5</title>
<g id="a_node5"><a xlink:href="tropGPT2_8cpp.html#aa061d99eb567e08008ee2e0b0463926d" target="_top" xlink:title="coefficients multiplication">
<polygon fill="white" stroke="black" points="158,-76.5 158,-95.5 196,-95.5 196,-76.5 158,-76.5"/>
<text text-anchor="middle" x="177" y="-83.5" font-family="Helvetica,sans-Serif" font-size="10.00">coef</text>
</a>
</g>
</g>
<!-- Node1&#45;&gt;Node5 -->
<g id="edge6" class="edge">
<title>Node1&#45;&gt;Node5</title>
<path fill="none" stroke="midnightblue" d="M83.28,-99.2C104.15,-96.23 129.02,-92.69 147.75,-90.02"/>
<polygon fill="midnightblue" stroke="midnightblue" points="148.32,-93.47 157.73,-88.6 147.33,-86.54 148.32,-93.47"/>
</g>
<!-- Node6 -->
<g id="node6" class="node">
<title>Node6</title>
<g id="a_node6"><a xlink:href="ionoBSplines_8cpp.html#aea80ea81c569de9a47760e98fa6c92cf" target="_top" xlink:title="Evaluates B&#45;splines basis functions int ind I Basis function number meas I Ionosphere measurement str...">
<polygon fill="white" stroke="black" points="135,-38.5 135,-57.5 219,-57.5 219,-38.5 135,-38.5"/>
<text text-anchor="middle" x="177" y="-45.5" font-family="Helvetica,sans-Serif" font-size="10.00">ionCoefBsplin</text>
</a>
</g>
</g>
<!-- Node1&#45;&gt;Node6 -->
<g id="edge7" class="edge">
<title>Node1&#45;&gt;Node6</title>
<path fill="none" stroke="midnightblue" d="M60.1,-95.38C75.4,-87.23 98.3,-75.54 119,-67 124.12,-64.89 129.57,-62.83 135,-60.9"/>
<polygon fill="midnightblue" stroke="midnightblue" points="136.33,-64.14 144.65,-57.58 134.05,-57.52 136.33,-64.14"/>
</g>
<!-- Node7 -->
<g id="node7" class="node">
<title>Node7</title>
<g id="a_node7"><a xlink:href="structKFState.html#adf65ad6aa025b3b6279a476d00b1c0fc" target="_top" xlink:title="Returns the value and variance of a state within the kalman filter object.">
<polygon fill="white" stroke="black" points="119,-0.5 119,-19.5 235,-19.5 235,-0.5 119,-0.5"/>
<text text-anchor="middle" x="177" y="-7.5" font-family="Helvetica,sans-Serif" font-size="10.00">KFState::getKFValue</text>
</a>
</g>
</g>
<!-- Node1&#45;&gt;Node7 -->
<g id="edge8" class="edge">
<title>Node1&#45;&gt;Node7</title>
<path fill="none" stroke="midnightblue" d="M49.68,-95.41C62.11,-79.45 89.19,-47.36 119,-29 122.35,-26.94 125.95,-25.07 129.66,-23.38"/>
<polygon fill="midnightblue" stroke="midnightblue" points="131.07,-26.59 139,-19.56 128.42,-20.11 131.07,-26.59"/>
</g>
<!-- Node2&#45;&gt;Node3 -->
<g id="edge2" class="edge">
<title>Node2&#45;&gt;Node3</title>
<path fill="none" stroke="midnightblue" d="M223.32,-194.04C235.47,-192.44 248.8,-190.69 261.64,-189"/>
<polygon fill="midnightblue" stroke="midnightblue" points="262.35,-192.44 271.8,-187.67 261.43,-185.5 262.35,-192.44"/>
</g>
<!-- Node2&#45;&gt;Node4 -->
<g id="edge3" class="edge">
<title>Node2&#45;&gt;Node4</title>
<path fill="none" stroke="midnightblue" d="M200.84,-190.41C219.62,-182.59 246.94,-171.35 271,-162 275.93,-160.09 281.13,-158.11 286.27,-156.19"/>
<polygon fill="midnightblue" stroke="midnightblue" points="287.81,-159.35 295.97,-152.59 285.38,-152.79 287.81,-159.35"/>
</g>
</g>
</svg>
