<?xml version="1.0" encoding="UTF-8" standalone="no"?>
<!DOCTYPE svg PUBLIC "-//W3C//DTD SVG 1.1//EN"
 "http://www.w3.org/Graphics/SVG/1.1/DTD/svg11.dtd">
<!-- Generated by graphviz version 2.43.0 (0)
 -->
<!-- Title: obsIonoData Pages: 1 -->
<svg width="251pt" height="370pt"
 viewBox="0.00 0.00 251.00 370.00" xmlns="http://www.w3.org/2000/svg" xmlns:xlink="http://www.w3.org/1999/xlink">
<g id="graph0" class="graph" transform="scale(1 1) rotate(0) translate(4 366)">
<title>obsIonoData</title>
<polygon fill="white" stroke="transparent" points="-4,4 -4,-366 247,-366 247,4 -4,4"/>
<!-- Node1 -->
<g id="node1" class="node">
<title>Node1</title>
<g id="a_node1"><a xlink:title=" ">
<polygon fill="#bfbfbf" stroke="black" points="0,-171.5 0,-190.5 78,-190.5 78,-171.5 0,-171.5"/>
<text text-anchor="middle" x="39" y="-178.5" font-family="Helvetica,sans-Serif" font-size="10.00">obsIonoData</text>
</a>
</g>
</g>
<!-- Node2 -->
<g id="node2" class="node">
<title>Node2</title>
<g id="a_node2"><a xlink:href="ionoModel_8cpp.html#ad4f7bf2fa0a4a8e87b6f7edf86fc119b" target="_top" xlink:title=" ">
<polygon fill="white" stroke="red" points="133,-342.5 133,-361.5 224,-361.5 224,-342.5 133,-342.5"/>
<text text-anchor="middle" x="178.5" y="-349.5" font-family="Helvetica,sans-Serif" font-size="10.00">configIonModel</text>
</a>
</g>
</g>
<!-- Node1&#45;&gt;Node2 -->
<g id="edge1" class="edge">
<title>Node1&#45;&gt;Node2</title>
<path fill="none" stroke="midnightblue" d="M41.92,-190.86C47.7,-217.83 67.47,-293.47 114,-333 116.89,-335.45 120.08,-337.59 123.46,-339.45"/>
<polygon fill="midnightblue" stroke="midnightblue" points="122.19,-342.72 132.74,-343.76 125.14,-336.37 122.19,-342.72"/>
</g>
<!-- Node6 -->
<g id="node3" class="node">
<title>Node6</title>
<g id="a_node3"><a xlink:href="trace_8hpp.html#a984a9b0c40d65d46f2c73a021a7b7de3" target="_top" xlink:title=" ">
<polygon fill="white" stroke="black" points="143,-304.5 143,-323.5 214,-323.5 214,-304.5 143,-304.5"/>
<text text-anchor="middle" x="178.5" y="-311.5" font-family="Helvetica,sans-Serif" font-size="10.00">tracepdeex</text>
</a>
</g>
</g>
<!-- Node1&#45;&gt;Node6 -->
<g id="edge2" class="edge">
<title>Node1&#45;&gt;Node6</title>
<path fill="none" stroke="midnightblue" d="M43.52,-190.59C52.07,-212.5 76.04,-266.57 114,-295 119.63,-299.22 126.19,-302.5 132.92,-305.06"/>
<polygon fill="midnightblue" stroke="midnightblue" points="132.22,-308.52 142.81,-308.32 134.41,-301.87 132.22,-308.52"/>
</g>
<!-- Node13 -->
<g id="node4" class="node">
<title>Node13</title>
<g id="a_node4"><a xlink:href="structACSConfig.html#acbb130e061ba4b7bf620e4fb68e1b794" target="_top" xlink:title="Set receiver options for a specific receiver using a hierarchy of sources.">
<polygon fill="white" stroke="red" points="114,-266.5 114,-285.5 243,-285.5 243,-266.5 114,-266.5"/>
<text text-anchor="middle" x="178.5" y="-273.5" font-family="Helvetica,sans-Serif" font-size="10.00">ACSConfig::getRecOpts</text>
</a>
</g>
</g>
<!-- Node1&#45;&gt;Node13 -->
<g id="edge3" class="edge">
<title>Node1&#45;&gt;Node13</title>
<path fill="none" stroke="midnightblue" d="M46.81,-190.7C58.64,-206.83 84.55,-239.15 114,-257 117.44,-259.09 121.13,-260.96 124.94,-262.63"/>
<polygon fill="midnightblue" stroke="midnightblue" points="123.96,-266.01 134.55,-266.41 126.52,-259.5 123.96,-266.01"/>
</g>
<!-- Node27 -->
<g id="node5" class="node">
<title>Node27</title>
<g id="a_node5"><a xlink:href="acsQC_8cpp.html#abd57aff1d197b2747eab5e751cbb0b57" target="_top" xlink:title=" ">
<polygon fill="white" stroke="black" points="149.5,-228.5 149.5,-247.5 207.5,-247.5 207.5,-228.5 149.5,-228.5"/>
<text text-anchor="middle" x="178.5" y="-235.5" font-family="Helvetica,sans-Serif" font-size="10.00">satFreqs</text>
</a>
</g>
</g>
<!-- Node1&#45;&gt;Node27 -->
<g id="edge4" class="edge">
<title>Node1&#45;&gt;Node27</title>
<path fill="none" stroke="midnightblue" d="M56.63,-190.66C71.37,-198.95 93.63,-210.81 114,-219 122.13,-222.27 131.05,-225.28 139.56,-227.89"/>
<polygon fill="midnightblue" stroke="midnightblue" points="138.72,-231.29 149.3,-230.76 140.7,-224.58 138.72,-231.29"/>
</g>
<!-- Node28 -->
<g id="node6" class="node">
<title>Node28</title>
<g id="a_node6"><a xlink:href="linearCombo_8cpp.html#afdd3451cef793c3574f718f2f79d9278" target="_top" xlink:title="Create combinations between specific observation values.">
<polygon fill="white" stroke="black" points="156.5,-190.5 156.5,-209.5 200.5,-209.5 200.5,-190.5 156.5,-190.5"/>
<text text-anchor="middle" x="178.5" y="-197.5" font-family="Helvetica,sans-Serif" font-size="10.00">getLC</text>
</a>
</g>
</g>
<!-- Node1&#45;&gt;Node28 -->
<g id="edge5" class="edge">
<title>Node1&#45;&gt;Node28</title>
<path fill="none" stroke="midnightblue" d="M78.3,-186.29C99.82,-189.27 126.33,-192.93 146.52,-195.72"/>
<polygon fill="midnightblue" stroke="midnightblue" points="146.07,-199.19 156.45,-197.09 147.02,-192.26 146.07,-199.19"/>
</g>
<!-- Node29 -->
<g id="node7" class="node">
<title>Node29</title>
<g id="a_node7"><a xlink:href="utils_8cpp.html#ae91d83cf693cdc7e1efacbe4d8d9656e" target="_top" xlink:title=" ">
<polygon fill="white" stroke="black" points="148,-152.5 148,-171.5 209,-171.5 209,-152.5 148,-152.5"/>
<text text-anchor="middle" x="178.5" y="-159.5" font-family="Helvetica,sans-Serif" font-size="10.00">ecef2pos</text>
</a>
</g>
</g>
<!-- Node1&#45;&gt;Node29 -->
<g id="edge6" class="edge">
<title>Node1&#45;&gt;Node29</title>
<path fill="none" stroke="midnightblue" d="M78.3,-175.71C96.81,-173.15 119,-170.08 137.7,-167.5"/>
<polygon fill="midnightblue" stroke="midnightblue" points="138.25,-170.96 147.68,-166.12 137.3,-164.02 138.25,-170.96"/>
</g>
<!-- Node30 -->
<g id="node8" class="node">
<title>Node30</title>
<g id="a_node8"><a xlink:href="ionModels_8cpp.html#ad21f16251002ad73463ac689903d5c91" target="_top" xlink:title=" ">
<polygon fill="white" stroke="red" points="153.5,-114.5 153.5,-133.5 203.5,-133.5 203.5,-114.5 153.5,-114.5"/>
<text text-anchor="middle" x="178.5" y="-121.5" font-family="Helvetica,sans-Serif" font-size="10.00">ionppp</text>
</a>
</g>
</g>
<!-- Node1&#45;&gt;Node30 -->
<g id="edge7" class="edge">
<title>Node1&#45;&gt;Node30</title>
<path fill="none" stroke="midnightblue" d="M56.63,-171.34C71.37,-163.05 93.63,-151.19 114,-143 123.43,-139.21 133.91,-135.77 143.59,-132.89"/>
<polygon fill="midnightblue" stroke="midnightblue" points="144.67,-136.23 153.32,-130.11 142.74,-129.5 144.67,-136.23"/>
</g>
<!-- Node33 -->
<g id="node9" class="node">
<title>Node33</title>
<g id="a_node9"><a xlink:href="structVectorPos.html#ae607eb1f43de3cf1aaa024c2fdabc514" target="_top" xlink:title=" ">
<polygon fill="white" stroke="black" points="127,-76.5 127,-95.5 230,-95.5 230,-76.5 127,-76.5"/>
<text text-anchor="middle" x="178.5" y="-83.5" font-family="Helvetica,sans-Serif" font-size="10.00">VectorPos::latDeg</text>
</a>
</g>
</g>
<!-- Node1&#45;&gt;Node33 -->
<g id="edge8" class="edge">
<title>Node1&#45;&gt;Node33</title>
<path fill="none" stroke="midnightblue" d="M46.81,-171.3C58.64,-155.17 84.55,-122.85 114,-105 117.44,-102.91 121.13,-101.04 124.94,-99.37"/>
<polygon fill="midnightblue" stroke="midnightblue" points="126.52,-102.5 134.55,-95.59 123.96,-95.99 126.52,-102.5"/>
</g>
<!-- Node34 -->
<g id="node10" class="node">
<title>Node34</title>
<g id="a_node10"><a xlink:href="structVectorPos.html#aa693d5a52133cfb55040b768c6175bae" target="_top" xlink:title=" ">
<polygon fill="white" stroke="black" points="126,-38.5 126,-57.5 231,-57.5 231,-38.5 126,-38.5"/>
<text text-anchor="middle" x="178.5" y="-45.5" font-family="Helvetica,sans-Serif" font-size="10.00">VectorPos::lonDeg</text>
</a>
</g>
</g>
<!-- Node1&#45;&gt;Node34 -->
<g id="edge9" class="edge">
<title>Node1&#45;&gt;Node34</title>
<path fill="none" stroke="midnightblue" d="M43.52,-171.41C52.07,-149.5 76.04,-95.43 114,-67 116.5,-65.13 119.18,-63.44 121.98,-61.92"/>
<polygon fill="midnightblue" stroke="midnightblue" points="123.65,-65 131.23,-57.6 120.69,-58.66 123.65,-65"/>
</g>
<!-- Node35 -->
<g id="node11" class="node">
<title>Node35</title>
<g id="a_node11"><a xlink:href="ionoMeas_8cpp.html#aaa78d117a09d3be383cccb2ba2a56df5" target="_top" xlink:title=" ">
<polygon fill="white" stroke="red" points="143,-0.5 143,-19.5 214,-19.5 214,-0.5 143,-0.5"/>
<text text-anchor="middle" x="178.5" y="-7.5" font-family="Helvetica,sans-Serif" font-size="10.00">ippInRange</text>
</a>
</g>
</g>
<!-- Node1&#45;&gt;Node35 -->
<g id="edge10" class="edge">
<title>Node1&#45;&gt;Node35</title>
<path fill="none" stroke="midnightblue" d="M41.92,-171.14C47.7,-144.17 67.47,-68.53 114,-29 119.61,-24.24 126.37,-20.67 133.37,-17.99"/>
<polygon fill="midnightblue" stroke="midnightblue" points="134.54,-21.29 142.97,-14.87 132.38,-14.64 134.54,-21.29"/>
</g>
</g>
</svg>
