<?xml version="1.0" encoding="UTF-8" standalone="no"?>
<!DOCTYPE svg PUBLIC "-//W3C//DTD SVG 1.1//EN"
 "http://www.w3.org/Graphics/SVG/1.1/DTD/svg11.dtd">
<!-- Generated by graphviz version 2.43.0 (0)
 -->
<!-- Title: ionVtecBsplin Pages: 1 -->
<svg width="244pt" height="218pt"
 viewBox="0.00 0.00 244.00 218.00" xmlns="http://www.w3.org/2000/svg" xmlns:xlink="http://www.w3.org/1999/xlink">
<g id="graph0" class="graph" transform="scale(1 1) rotate(0) translate(4 214)">
<title>ionVtecBsplin</title>
<polygon fill="white" stroke="transparent" points="-4,4 -4,-214 240,-214 240,4 -4,4"/>
<!-- Node1 -->
<g id="node1" class="node">
<title>Node1</title>
<g id="a_node1"><a xlink:title="Estimate Ionosphere VTEC using Ionospheric gridmaps Ion_pp I Ionosphere Piercing Point layer I Layer ...">
<polygon fill="#bfbfbf" stroke="black" points="0,-95.5 0,-114.5 83,-114.5 83,-95.5 0,-95.5"/>
<text text-anchor="middle" x="41.5" y="-102.5" font-family="Helvetica,sans-Serif" font-size="10.00">ionVtecBsplin</text>
</a>
</g>
</g>
<!-- Node2 -->
<g id="node2" class="node">
<title>Node2</title>
<g id="a_node2"><a xlink:href="ionoBSplines_8cpp.html#a7002ebc4f104e21e0a2a24917ac32098" target="_top" xlink:title="checks if the Ionosphere Piercing Point falls in area of coverage time: I time of observations (not u...">
<polygon fill="white" stroke="black" points="131.5,-190.5 131.5,-209.5 223.5,-209.5 223.5,-190.5 131.5,-190.5"/>
<text text-anchor="middle" x="177.5" y="-197.5" font-family="Helvetica,sans-Serif" font-size="10.00">ippCheckBsplin</text>
</a>
</g>
</g>
<!-- Node1&#45;&gt;Node2 -->
<g id="edge1" class="edge">
<title>Node1&#45;&gt;Node2</title>
<path fill="none" stroke="midnightblue" d="M49.67,-114.6C62.1,-130.57 89.17,-162.68 119,-181 125.18,-184.8 132.21,-187.93 139.18,-190.47"/>
</g>
<!-- Node3 -->
<g id="node3" class="node">
<title>Node3</title>
<g id="a_node3"><a xlink:href="structVectorPos.html#a63e862a389b3548bc5b4aedabd94540b" target="_top" xlink:title=" ">
<polygon fill="white" stroke="black" points="135.5,-152.5 135.5,-171.5 219.5,-171.5 219.5,-152.5 135.5,-152.5"/>
<text text-anchor="middle" x="177.5" y="-159.5" font-family="Helvetica,sans-Serif" font-size="10.00">VectorPos::lat</text>
</a>
</g>
</g>
<!-- Node1&#45;&gt;Node3 -->
<g id="edge2" class="edge">
<title>Node1&#45;&gt;Node3</title>
<path fill="none" stroke="midnightblue" d="M60.1,-114.64C75.4,-122.79 98.29,-134.48 119,-143 127.27,-146.4 136.38,-149.63 144.87,-152.44"/>
</g>
<!-- Node4 -->
<g id="node4" class="node">
<title>Node4</title>
<g id="a_node4"><a xlink:href="structVectorPos.html#ab7ade23bd200ec4145eb389b58737dee" target="_top" xlink:title=" ">
<polygon fill="white" stroke="black" points="134.5,-114.5 134.5,-133.5 220.5,-133.5 220.5,-114.5 134.5,-114.5"/>
<text text-anchor="middle" x="177.5" y="-121.5" font-family="Helvetica,sans-Serif" font-size="10.00">VectorPos::lon</text>
</a>
</g>
</g>
<!-- Node1&#45;&gt;Node4 -->
<g id="edge3" class="edge">
<title>Node1&#45;&gt;Node4</title>
<path fill="none" stroke="midnightblue" d="M83.07,-110.75C99.24,-113.05 117.87,-115.69 134.21,-118"/>
</g>
<!-- Node5 -->
<g id="node5" class="node">
<title>Node5</title>
<g id="a_node5"><a xlink:href="trop_8cpp.html#aee11659ecea14ca59feae2dbe9f160d5" target="_top" xlink:title="coefficients multiplication">
<polygon fill="white" stroke="black" points="158.5,-76.5 158.5,-95.5 196.5,-95.5 196.5,-76.5 158.5,-76.5"/>
<text text-anchor="middle" x="177.5" y="-83.5" font-family="Helvetica,sans-Serif" font-size="10.00">coef</text>
</a>
</g>
</g>
<!-- Node1&#45;&gt;Node5 -->
<g id="edge4" class="edge">
<title>Node1&#45;&gt;Node5</title>
<path fill="none" stroke="midnightblue" d="M83.07,-99.25C108.18,-95.69 139.19,-91.29 158.41,-88.57"/>
</g>
<!-- Node6 -->
<g id="node6" class="node">
<title>Node6</title>
<g id="a_node6"><a xlink:href="ionoBSplines_8cpp.html#abc213394b9281fb041bf47dc6c752b5a" target="_top" xlink:title="Evaluates B&#45;splines basis functions int ind I Basis function number meas I Ionosphere measurement str...">
<polygon fill="white" stroke="black" points="135.5,-38.5 135.5,-57.5 219.5,-57.5 219.5,-38.5 135.5,-38.5"/>
<text text-anchor="middle" x="177.5" y="-45.5" font-family="Helvetica,sans-Serif" font-size="10.00">ionCoefBsplin</text>
</a>
</g>
</g>
<!-- Node1&#45;&gt;Node6 -->
<g id="edge5" class="edge">
<title>Node1&#45;&gt;Node6</title>
<path fill="none" stroke="midnightblue" d="M60.1,-95.36C75.4,-87.21 98.29,-75.52 119,-67 127.27,-63.6 136.38,-60.37 144.87,-57.56"/>
</g>
<!-- Node7 -->
<g id="node7" class="node">
<title>Node7</title>
<g id="a_node7"><a xlink:href="structKFState.html#a405c50a3085d8328e81dcd6786f775d3" target="_top" xlink:title="Returns the value and variance of a state within the kalman filter object.">
<polygon fill="white" stroke="black" points="119,-0.5 119,-19.5 236,-19.5 236,-0.5 119,-0.5"/>
<text text-anchor="middle" x="177.5" y="-7.5" font-family="Helvetica,sans-Serif" font-size="10.00">KFState::getKFValue</text>
</a>
</g>
</g>
<!-- Node1&#45;&gt;Node7 -->
<g id="edge6" class="edge">
<title>Node1&#45;&gt;Node7</title>
<path fill="none" stroke="midnightblue" d="M49.67,-95.4C62.1,-79.43 89.17,-47.32 119,-29 125.18,-25.2 132.21,-22.07 139.18,-19.53"/>
</g>
</g>
</svg>
