<?xml version="1.0" encoding="UTF-8" standalone="no"?>
<!DOCTYPE svg PUBLIC "-//W3C//DTD SVG 1.1//EN"
 "http://www.w3.org/Graphics/SVG/1.1/DTD/svg11.dtd">
<!-- Generated by graphviz version 2.43.0 (0)
 -->
<!-- Title: newLambda Pages: 1 -->
<svg width="229pt" height="256pt"
 viewBox="0.00 0.00 229.00 256.00" xmlns="http://www.w3.org/2000/svg" xmlns:xlink="http://www.w3.org/1999/xlink">
<g id="graph0" class="graph" transform="scale(1 1) rotate(0) translate(4 252)">
<title>newLambda</title>
<polygon fill="white" stroke="transparent" points="-4,4 -4,-252 225,-252 225,4 -4,4"/>
<!-- Node1 -->
<g id="node1" class="node">
<title>Node1</title>
<g id="a_node1"><a xlink:title=" ">
<polygon fill="#bfbfbf" stroke="black" points="0,-114.5 0,-133.5 76,-133.5 76,-114.5 0,-114.5"/>
<text text-anchor="middle" x="38" y="-121.5" font-family="Helvetica,sans-Serif" font-size="10.00">newLambda</text>
</a>
</g>
</g>
<!-- Node2 -->
<g id="node2" class="node">
<title>Node2</title>
<g id="a_node2"><a xlink:href="ppppp__ambres_8cpp.html#a63e7f5650d24785329449d8f7d490398" target="_top" xlink:title=" ">
<polygon fill="white" stroke="black" points="141.5,-228.5 141.5,-247.5 191.5,-247.5 191.5,-228.5 141.5,-228.5"/>
<text text-anchor="middle" x="166.5" y="-235.5" font-family="Helvetica,sans-Serif" font-size="10.00">newLD</text>
</a>
</g>
</g>
<!-- Node1&#45;&gt;Node2 -->
<g id="edge1" class="edge">
<title>Node1&#45;&gt;Node2</title>
<path fill="none" stroke="midnightblue" d="M43.87,-133.55C54.01,-152.52 79.19,-195.16 112,-219 120.69,-225.32 131.68,-229.7 141.43,-232.65"/>
</g>
<!-- Node3 -->
<g id="node3" class="node">
<title>Node3</title>
<g id="a_node3"><a xlink:href="ppppp__ambres_8cpp.html#a0087cbdd5452be6f913e149b0c4f6490" target="_top" xlink:title=" ">
<polygon fill="white" stroke="red" points="123.5,-190.5 123.5,-209.5 209.5,-209.5 209.5,-190.5 123.5,-190.5"/>
<text text-anchor="middle" x="166.5" y="-197.5" font-family="Helvetica,sans-Serif" font-size="10.00">newReduction</text>
</a>
</g>
</g>
<!-- Node1&#45;&gt;Node3 -->
<g id="edge2" class="edge">
<title>Node1&#45;&gt;Node3</title>
<path fill="none" stroke="midnightblue" d="M49.12,-133.65C62.56,-146.04 87.47,-167.54 112,-181 118.65,-184.65 126.14,-187.83 133.37,-190.48"/>
</g>
<!-- Node5 -->
<g id="node4" class="node">
<title>Node5</title>
<g id="a_node4"><a xlink:href="ppppp__ambres_8cpp.html#af5b38b8640cc5e4113d7df6a148b7b22" target="_top" xlink:title=" ">
<polygon fill="white" stroke="red" points="122,-152.5 122,-171.5 211,-171.5 211,-152.5 122,-152.5"/>
<text text-anchor="middle" x="166.5" y="-159.5" font-family="Helvetica,sans-Serif" font-size="10.00">newNormcdfar</text>
</a>
</g>
</g>
<!-- Node1&#45;&gt;Node5 -->
<g id="edge3" class="edge">
<title>Node1&#45;&gt;Node5</title>
<path fill="none" stroke="midnightblue" d="M70.92,-133.59C90.1,-139.35 114.41,-146.65 133.59,-152.41"/>
</g>
<!-- Node8 -->
<g id="node5" class="node">
<title>Node8</title>
<g id="a_node5"><a xlink:href="ppppp__ambres_8cpp.html#a37aa1051c0c3358e79565505bd4a605b" target="_top" xlink:title=" ">
<polygon fill="white" stroke="red" points="131,-114.5 131,-133.5 202,-133.5 202,-114.5 131,-114.5"/>
<text text-anchor="middle" x="166.5" y="-121.5" font-family="Helvetica,sans-Serif" font-size="10.00">newFFratio</text>
</a>
</g>
</g>
<!-- Node1&#45;&gt;Node8 -->
<g id="edge4" class="edge">
<title>Node1&#45;&gt;Node8</title>
<path fill="none" stroke="midnightblue" d="M76.27,-124C93.47,-124 113.77,-124 130.66,-124"/>
</g>
<!-- Node10 -->
<g id="node6" class="node">
<title>Node10</title>
<g id="a_node6"><a xlink:href="ppppp__ambres_8cpp.html#a6fe0c913b634982bfd5b884fc3d396fa" target="_top" xlink:title=" ">
<polygon fill="white" stroke="black" points="112,-76.5 112,-95.5 221,-95.5 221,-76.5 112,-76.5"/>
<text text-anchor="middle" x="166.5" y="-83.5" font-family="Helvetica,sans-Serif" font-size="10.00">newLambdaSearch</text>
</a>
</g>
</g>
<!-- Node1&#45;&gt;Node10 -->
<g id="edge5" class="edge">
<title>Node1&#45;&gt;Node10</title>
<path fill="none" stroke="midnightblue" d="M70.92,-114.41C90.1,-108.65 114.41,-101.35 133.59,-95.59"/>
</g>
<!-- Node11 -->
<g id="node7" class="node">
<title>Node11</title>
<g id="a_node7"><a xlink:href="algebra__old_8cpp.html#a54fd9b64416949c38e879ac889964d2a" target="_top" xlink:title=" ">
<polygon fill="white" stroke="red" points="145,-38.5 145,-57.5 188,-57.5 188,-38.5 145,-38.5"/>
<text text-anchor="middle" x="166.5" y="-45.5" font-family="Helvetica,sans-Serif" font-size="10.00">solve</text>
</a>
</g>
</g>
<!-- Node1&#45;&gt;Node11 -->
<g id="edge6" class="edge">
<title>Node1&#45;&gt;Node11</title>
<path fill="none" stroke="midnightblue" d="M49.12,-114.35C62.56,-101.96 87.47,-80.46 112,-67 122.28,-61.36 134.56,-56.85 144.77,-53.65"/>
</g>
<!-- Node19 -->
<g id="node8" class="node">
<title>Node19</title>
<g id="a_node8"><a xlink:href="trace_8cpp.html#ae00e6addd3bdf3a7fd41a254eb9aec89" target="_top" xlink:title=" ">
<polygon fill="white" stroke="black" points="131,-0.5 131,-19.5 202,-19.5 202,-0.5 131,-0.5"/>
<text text-anchor="middle" x="166.5" y="-7.5" font-family="Helvetica,sans-Serif" font-size="10.00">tracepdeex</text>
</a>
</g>
</g>
<!-- Node1&#45;&gt;Node19 -->
<g id="edge7" class="edge">
<title>Node1&#45;&gt;Node19</title>
<path fill="none" stroke="midnightblue" d="M43.87,-114.45C54.01,-95.48 79.19,-52.84 112,-29 117.66,-24.89 124.3,-21.59 130.93,-18.98"/>
</g>
</g>
</svg>
