<?xml version="1.0" encoding="UTF-8" standalone="no"?>
<!DOCTYPE svg PUBLIC "-//W3C//DTD SVG 1.1//EN"
 "http://www.w3.org/Graphics/SVG/1.1/DTD/svg11.dtd">
<!-- Generated by graphviz version 2.43.0 (0)
 -->
<!-- Title: search Pages: 1 -->
<svg width="184pt" height="66pt"
 viewBox="0.00 0.00 184.00 66.00" xmlns="http://www.w3.org/2000/svg" xmlns:xlink="http://www.w3.org/1999/xlink">
<g id="graph0" class="graph" transform="scale(1 1) rotate(0) translate(4 62)">
<title>search</title>
<polygon fill="white" stroke="transparent" points="-4,4 -4,-62 180,-62 180,4 -4,4"/>
<!-- Node1 -->
<g id="node1" class="node">
<title>Node1</title>
<g id="a_node1"><a xlink:title=" ">
<polygon fill="#bfbfbf" stroke="black" points="127,-19.5 127,-38.5 176,-38.5 176,-19.5 127,-19.5"/>
<text text-anchor="middle" x="151.5" y="-26.5" font-family="Helvetica,sans-Serif" font-size="10.00">search</text>
</a>
</g>
</g>
<!-- Node2 -->
<g id="node2" class="node">
<title>Node2</title>
<g id="a_node2"><a xlink:href="GNSSambres_8cpp.html#aab3dd27d035c545c6c854a6906616e79" target="_top" xlink:title="Lambda algorithm and its variations (ILQ, Common set, BIE)">
<polygon fill="white" stroke="red" points="0,-38.5 0,-57.5 91,-57.5 91,-38.5 0,-38.5"/>
<text text-anchor="middle" x="45.5" y="-45.5" font-family="Helvetica,sans-Serif" font-size="10.00">lambda_search</text>
</a>
</g>
</g>
<!-- Node1&#45;&gt;Node2 -->
<g id="edge1" class="edge">
<title>Node1&#45;&gt;Node2</title>
<path fill="none" stroke="midnightblue" d="M116.99,-35.12C108.8,-36.62 99.92,-38.24 91.3,-39.81"/>
<polygon fill="midnightblue" stroke="midnightblue" points="117.69,-38.55 126.9,-33.31 116.43,-31.67 117.69,-38.55"/>
</g>
<!-- Node12 -->
<g id="node3" class="node">
<title>Node12</title>
<g id="a_node3"><a xlink:href="lambda_8cpp.html#a364f9f201016e3baff0a9366158a823b" target="_top" xlink:title=" ">
<polygon fill="white" stroke="red" points="19,-0.5 19,-19.5 72,-19.5 72,-0.5 19,-0.5"/>
<text text-anchor="middle" x="45.5" y="-7.5" font-family="Helvetica,sans-Serif" font-size="10.00">lambda</text>
</a>
</g>
</g>
<!-- Node1&#45;&gt;Node12 -->
<g id="edge2" class="edge">
<title>Node1&#45;&gt;Node12</title>
<path fill="none" stroke="midnightblue" d="M116.81,-22.85C102.32,-20.2 85.66,-17.15 72.19,-14.69"/>
<polygon fill="midnightblue" stroke="midnightblue" points="116.43,-26.33 126.9,-24.69 117.69,-19.45 116.43,-26.33"/>
</g>
</g>
</svg>
