<?xml version="1.0" encoding="UTF-8" standalone="no"?>
<!DOCTYPE svg PUBLIC "-//W3C//DTD SVG 1.1//EN"
 "http://www.w3.org/Graphics/SVG/1.1/DTD/svg11.dtd">
<!-- Generated by graphviz version 2.43.0 (0)
 -->
<!-- Title: lambda Pages: 1 -->
<svg width="331pt" height="367pt"
 viewBox="0.00 0.00 331.00 366.64" xmlns="http://www.w3.org/2000/svg" xmlns:xlink="http://www.w3.org/1999/xlink">
<g id="graph0" class="graph" transform="scale(1 1) rotate(0) translate(4 362.64)">
<title>lambda</title>
<polygon fill="white" stroke="transparent" points="-4,4 -4,-362.64 327,-362.64 327,4 -4,4"/>
<!-- Node1 -->
<g id="node1" class="node">
<title>Node1</title>
<g id="a_node1"><a xlink:title=" ">
<polygon fill="#bfbfbf" stroke="black" points="0,-190.5 0,-209.5 53,-209.5 53,-190.5 0,-190.5"/>
<text text-anchor="middle" x="26.5" y="-197.5" font-family="Helvetica,sans-Serif" font-size="10.00">lambda</text>
</a>
</g>
</g>
<!-- Node2 -->
<g id="node2" class="node">
<title>Node2</title>
<g id="a_node2"><a xlink:href="algebra__old_8cpp.html#a446a2803e5eaeb996733dd8d73966f00" target="_top" xlink:title=" ">
<polygon fill="white" stroke="red" points="202,-304.5 202,-323.5 245,-323.5 245,-304.5 202,-304.5"/>
<text text-anchor="middle" x="223.5" y="-311.5" font-family="Helvetica,sans-Serif" font-size="10.00">zeros</text>
</a>
</g>
</g>
<!-- Node1&#45;&gt;Node2 -->
<g id="edge1" class="edge">
<title>Node1&#45;&gt;Node2</title>
<path fill="none" stroke="midnightblue" d="M28.52,-209.64C31.81,-235.18 44.63,-304.63 89,-333 124.9,-355.95 177.23,-336.67 204.48,-323.6"/>
</g>
<!-- Node3 -->
<g id="node3" class="node">
<title>Node3</title>
<g id="a_node3"><a xlink:href="algebra__old_8cpp.html#a1d2c1ecab5b17dcc773fcd83c0b87b7e" target="_top" xlink:title=" ">
<polygon fill="white" stroke="red" points="287,-266.5 287,-285.5 323,-285.5 323,-266.5 287,-266.5"/>
<text text-anchor="middle" x="305" y="-273.5" font-family="Helvetica,sans-Serif" font-size="10.00">mat</text>
</a>
</g>
</g>
<!-- Node1&#45;&gt;Node3 -->
<g id="edge3" class="edge">
<title>Node1&#45;&gt;Node3</title>
<path fill="none" stroke="midnightblue" d="M28.52,-209.64C31.81,-235.18 44.63,-304.63 89,-333 149.66,-371.78 184.99,-361.76 251,-333 273.3,-323.29 290.44,-299.05 298.66,-285.52"/>
</g>
<!-- Node5 -->
<g id="node4" class="node">
<title>Node5</title>
<g id="a_node4"><a xlink:href="algebra__old_8cpp.html#adfe9cb36e0f4af6b1ca11bdfbe66e55c" target="_top" xlink:title=" ">
<polygon fill="white" stroke="black" points="107,-304.5 107,-323.5 142,-323.5 142,-304.5 107,-304.5"/>
<text text-anchor="middle" x="124.5" y="-311.5" font-family="Helvetica,sans-Serif" font-size="10.00">eye</text>
</a>
</g>
</g>
<!-- Node1&#45;&gt;Node5 -->
<g id="edge4" class="edge">
<title>Node1&#45;&gt;Node5</title>
<path fill="none" stroke="midnightblue" d="M32.61,-209.77C42.07,-227.26 63.68,-264.47 89,-290 94.34,-295.39 101.04,-300.36 107.11,-304.36"/>
</g>
<!-- Node6 -->
<g id="node5" class="node">
<title>Node6</title>
<g id="a_node5"><a xlink:href="lambda_8cpp.html#a95d9f9037b4b559cb1af6c1d66f26728" target="_top" xlink:title=" ">
<polygon fill="white" stroke="black" points="209,-266.5 209,-285.5 238,-285.5 238,-266.5 209,-266.5"/>
<text text-anchor="middle" x="223.5" y="-273.5" font-family="Helvetica,sans-Serif" font-size="10.00">LD</text>
</a>
</g>
</g>
<!-- Node1&#45;&gt;Node6 -->
<g id="edge6" class="edge">
<title>Node1&#45;&gt;Node6</title>
<path fill="none" stroke="midnightblue" d="M34.63,-209.55C45.01,-222.65 65.6,-245.86 89,-257 129.37,-276.22 183.81,-277.34 208.86,-276.67"/>
</g>
<!-- Node7 -->
<g id="node6" class="node">
<title>Node7</title>
<g id="a_node6"><a xlink:href="lambda_8cpp.html#a483a1d235f923852347ceb16f2944efe" target="_top" xlink:title=" ">
<polygon fill="white" stroke="red" points="93.5,-228.5 93.5,-247.5 155.5,-247.5 155.5,-228.5 93.5,-228.5"/>
<text text-anchor="middle" x="124.5" y="-235.5" font-family="Helvetica,sans-Serif" font-size="10.00">reduction</text>
</a>
</g>
</g>
<!-- Node1&#45;&gt;Node7 -->
<g id="edge8" class="edge">
<title>Node1&#45;&gt;Node7</title>
<path fill="none" stroke="midnightblue" d="M51.72,-209.59C66.28,-215.35 84.73,-222.65 99.28,-228.41"/>
</g>
<!-- Node10 -->
<g id="node7" class="node">
<title>Node10</title>
<g id="a_node7"><a xlink:href="lambda_8cpp.html#a62e489eccec78e79da165885d8ab994d" target="_top" xlink:title=" ">
<polygon fill="white" stroke="red" points="91,-190.5 91,-209.5 158,-209.5 158,-190.5 91,-190.5"/>
<text text-anchor="middle" x="124.5" y="-197.5" font-family="Helvetica,sans-Serif" font-size="10.00">normcdfar</text>
</a>
</g>
</g>
<!-- Node1&#45;&gt;Node10 -->
<g id="edge9" class="edge">
<title>Node1&#45;&gt;Node10</title>
<path fill="none" stroke="midnightblue" d="M53.23,-200C64.78,-200 78.54,-200 90.81,-200"/>
</g>
<!-- Node13 -->
<g id="node8" class="node">
<title>Node13</title>
<g id="a_node8"><a xlink:href="lambda_8cpp.html#a1555fac516bd89d1cc6559c9cc79dc28" target="_top" xlink:title=" ">
<polygon fill="white" stroke="red" points="101,-152.5 101,-171.5 148,-171.5 148,-152.5 101,-152.5"/>
<text text-anchor="middle" x="124.5" y="-159.5" font-family="Helvetica,sans-Serif" font-size="10.00">ffratio</text>
</a>
</g>
</g>
<!-- Node1&#45;&gt;Node13 -->
<g id="edge10" class="edge">
<title>Node1&#45;&gt;Node13</title>
<path fill="none" stroke="midnightblue" d="M51.72,-190.41C66.83,-184.43 86.15,-176.79 100.93,-170.93"/>
</g>
<!-- Node15 -->
<g id="node9" class="node">
<title>Node15</title>
<g id="a_node9"><a xlink:href="algebra__old_8cpp.html#adc33998911a24938042604ba1f8e6196" target="_top" xlink:title=" ">
<polygon fill="white" stroke="black" points="196,-52.5 196,-71.5 251,-71.5 251,-52.5 196,-52.5"/>
<text text-anchor="middle" x="223.5" y="-59.5" font-family="Helvetica,sans-Serif" font-size="10.00">matmul</text>
</a>
</g>
</g>
<!-- Node1&#45;&gt;Node15 -->
<g id="edge11" class="edge">
<title>Node1&#45;&gt;Node15</title>
<path fill="none" stroke="midnightblue" d="M36.43,-190.31C47.86,-178.27 68.61,-157.54 89,-143 118.14,-122.22 129.43,-123.62 160,-105 177.55,-94.31 196.92,-80.68 209.37,-71.67"/>
</g>
<!-- Node16 -->
<g id="node10" class="node">
<title>Node16</title>
<g id="a_node10"><a xlink:href="lambda_8cpp.html#a7a45f828294c77c7e36d0a8cbfa229a3" target="_top" xlink:title=" ">
<polygon fill="white" stroke="black" points="100,-76.5 100,-95.5 149,-95.5 149,-76.5 100,-76.5"/>
<text text-anchor="middle" x="124.5" y="-83.5" font-family="Helvetica,sans-Serif" font-size="10.00">search</text>
</a>
</g>
</g>
<!-- Node1&#45;&gt;Node16 -->
<g id="edge12" class="edge">
<title>Node1&#45;&gt;Node16</title>
<path fill="none" stroke="midnightblue" d="M32.61,-190.23C42.07,-172.74 63.68,-135.53 89,-110 94.34,-104.61 101.04,-99.64 107.11,-95.64"/>
</g>
<!-- Node17 -->
<g id="node11" class="node">
<title>Node17</title>
<g id="a_node11"><a xlink:href="algebra__old_8cpp.html#a54fd9b64416949c38e879ac889964d2a" target="_top" xlink:title=" ">
<polygon fill="white" stroke="red" points="103,-38.5 103,-57.5 146,-57.5 146,-38.5 103,-38.5"/>
<text text-anchor="middle" x="124.5" y="-45.5" font-family="Helvetica,sans-Serif" font-size="10.00">solve</text>
</a>
</g>
</g>
<!-- Node1&#45;&gt;Node17 -->
<g id="edge15" class="edge">
<title>Node1&#45;&gt;Node17</title>
<path fill="none" stroke="midnightblue" d="M29.7,-190.47C35.57,-166.88 53.62,-104.96 89,-67 92.82,-62.9 97.74,-59.47 102.65,-56.72"/>
</g>
<!-- Node23 -->
<g id="node12" class="node">
<title>Node23</title>
<g id="a_node12"><a xlink:href="streamTrace_8cpp.html#ae00e6addd3bdf3a7fd41a254eb9aec89" target="_top" xlink:title=" ">
<polygon fill="white" stroke="black" points="89,-0.5 89,-19.5 160,-19.5 160,-0.5 89,-0.5"/>
<text text-anchor="middle" x="124.5" y="-7.5" font-family="Helvetica,sans-Serif" font-size="10.00">tracepdeex</text>
</a>
</g>
</g>
<!-- Node1&#45;&gt;Node23 -->
<g id="edge18" class="edge">
<title>Node1&#45;&gt;Node23</title>
<path fill="none" stroke="midnightblue" d="M28.58,-190.3C32.16,-162.18 46,-79.4 89,-29 92.2,-25.25 96.32,-22.11 100.6,-19.53"/>
</g>
<!-- Node2&#45;&gt;Node3 -->
<g id="edge2" class="edge">
<title>Node2&#45;&gt;Node3</title>
<path fill="none" stroke="midnightblue" d="M244.56,-304.41C257.62,-298.17 274.48,-290.11 286.91,-284.17"/>
</g>
<!-- Node5&#45;&gt;Node2 -->
<g id="edge5" class="edge">
<title>Node5&#45;&gt;Node2</title>
<path fill="none" stroke="midnightblue" d="M142.4,-314C158.9,-314 184.04,-314 201.75,-314"/>
</g>
<!-- Node6&#45;&gt;Node3 -->
<g id="edge7" class="edge">
<title>Node6&#45;&gt;Node3</title>
<path fill="none" stroke="midnightblue" d="M238.35,-276C251.87,-276 272.48,-276 286.99,-276"/>
</g>
<!-- Node16&#45;&gt;Node2 -->
<g id="edge13" class="edge">
<title>Node16&#45;&gt;Node2</title>
<path fill="none" stroke="midnightblue" d="M132.6,-95.59C140.38,-106.54 152.73,-125.23 160,-143 186.29,-207.25 157.34,-237.34 196,-295 198.4,-298.57 201.7,-301.7 205.17,-304.33"/>
</g>
<!-- Node16&#45;&gt;Node3 -->
<g id="edge14" class="edge">
<title>Node16&#45;&gt;Node3</title>
<path fill="none" stroke="midnightblue" d="M134.6,-95.68C165.15,-128.2 263.87,-233.28 294.71,-266.11"/>
</g>
<!-- Node17&#45;&gt;Node3 -->
<g id="edge16" class="edge">
<title>Node17&#45;&gt;Node3</title>
<path fill="none" stroke="midnightblue" d="M145.46,-57.7C150.39,-60.44 155.54,-63.61 160,-67 206.04,-101.99 218.27,-112.32 251,-160 275.81,-196.14 293.95,-245.77 300.89,-266.4"/>
</g>
<!-- Node17&#45;&gt;Node15 -->
<g id="edge17" class="edge">
<title>Node17&#45;&gt;Node15</title>
<path fill="none" stroke="midnightblue" d="M146.07,-50.97C160.53,-53.06 180.01,-55.87 195.69,-58.13"/>
</g>
</g>
</svg>
