<?xml version="1.0" encoding="UTF-8" standalone="no"?>
<!DOCTYPE svg PUBLIC "-//W3C//DTD SVG 1.1//EN"
 "http://www.w3.org/Graphics/SVG/1.1/DTD/svg11.dtd">
<!-- Generated by graphviz version 2.43.0 (0)
 -->
<!-- Title: obs2lc Pages: 1 -->
<svg width="199pt" height="218pt"
 viewBox="0.00 0.00 199.00 218.00" xmlns="http://www.w3.org/2000/svg" xmlns:xlink="http://www.w3.org/1999/xlink">
<g id="graph0" class="graph" transform="scale(1 1) rotate(0) translate(4 214)">
<title>obs2lc</title>
<polygon fill="white" stroke="transparent" points="-4,4 -4,-214 195,-214 195,4 -4,4"/>
<!-- Node1 -->
<g id="node1" class="node">
<title>Node1</title>
<g id="a_node1"><a xlink:title="Function to prepare some predefined linear combinations from an observation.">
<polygon fill="#bfbfbf" stroke="black" points="0,-95.5 0,-114.5 48,-114.5 48,-95.5 0,-95.5"/>
<text text-anchor="middle" x="24" y="-102.5" font-family="Helvetica,sans-Serif" font-size="10.00">obs2lc</text>
</a>
</g>
</g>
<!-- Node2 -->
<g id="node2" class="node">
<title>Node2</title>
<g id="a_node2"><a xlink:href="structSatSys.html#aec6d07b90d1e8172b8b6a6966abef4fd" target="_top" xlink:title="Returns a std::string of this satellite&#39;s id.">
<polygon fill="white" stroke="red" points="105,-190.5 105,-209.5 170,-209.5 170,-190.5 105,-190.5"/>
<text text-anchor="middle" x="137.5" y="-197.5" font-family="Helvetica,sans-Serif" font-size="10.00">SatSys::id</text>
</a>
</g>
</g>
<!-- Node1&#45;&gt;Node2 -->
<g id="edge1" class="edge">
<title>Node1&#45;&gt;Node2</title>
<path fill="none" stroke="midnightblue" d="M30.04,-114.58C38.9,-130.54 58.74,-162.62 84,-181 90.19,-185.5 97.56,-189.04 104.79,-191.77"/>
</g>
<!-- Node5 -->
<g id="node3" class="node">
<title>Node5</title>
<g id="a_node3"><a xlink:href="gTime_8cpp.html#abf196aa655d8ca10168c2301a68a8101" target="_top" xlink:title=" ">
<polygon fill="white" stroke="red" points="104.5,-152.5 104.5,-171.5 170.5,-171.5 170.5,-152.5 104.5,-152.5"/>
<text text-anchor="middle" x="137.5" y="-159.5" font-family="Helvetica,sans-Serif" font-size="10.00">time2gpst</text>
</a>
</g>
</g>
<!-- Node1&#45;&gt;Node5 -->
<g id="edge2" class="edge">
<title>Node1&#45;&gt;Node5</title>
<path fill="none" stroke="midnightblue" d="M38.08,-114.65C49.72,-122.93 67.4,-134.78 84,-143 91.12,-146.53 99.07,-149.74 106.58,-152.49"/>
</g>
<!-- Node7 -->
<g id="node4" class="node">
<title>Node7</title>
<g id="a_node4"><a xlink:href="streamTrace_8cpp.html#ae00e6addd3bdf3a7fd41a254eb9aec89" target="_top" xlink:title=" ">
<polygon fill="white" stroke="black" points="102,-114.5 102,-133.5 173,-133.5 173,-114.5 102,-114.5"/>
<text text-anchor="middle" x="137.5" y="-121.5" font-family="Helvetica,sans-Serif" font-size="10.00">tracepdeex</text>
</a>
</g>
</g>
<!-- Node1&#45;&gt;Node7 -->
<g id="edge3" class="edge">
<title>Node1&#45;&gt;Node7</title>
<path fill="none" stroke="midnightblue" d="M48.1,-108.94C63.67,-111.59 84.47,-115.13 101.99,-118.12"/>
</g>
<!-- Node8 -->
<g id="node5" class="node">
<title>Node8</title>
<g id="a_node5"><a xlink:href="linearCombo_8cpp.html#a41701e6aeffecf451235e8fb75aad602" target="_top" xlink:title="Prepare a base object for linear combinations using observation data.">
<polygon fill="white" stroke="black" points="94.5,-76.5 94.5,-95.5 180.5,-95.5 180.5,-76.5 94.5,-76.5"/>
<text text-anchor="middle" x="137.5" y="-83.5" font-family="Helvetica,sans-Serif" font-size="10.00">lcPrepareBase</text>
</a>
</g>
</g>
<!-- Node1&#45;&gt;Node8 -->
<g id="edge4" class="edge">
<title>Node1&#45;&gt;Node8</title>
<path fill="none" stroke="midnightblue" d="M48.1,-101.06C61.5,-98.78 78.78,-95.84 94.5,-93.16"/>
</g>
<!-- Node9 -->
<g id="node6" class="node">
<title>Node9</title>
<g id="a_node6"><a xlink:href="linearCombo_8cpp.html#afdd3451cef793c3574f718f2f79d9278" target="_top" xlink:title="Create combinations between specific observation values.">
<polygon fill="white" stroke="black" points="115.5,-38.5 115.5,-57.5 159.5,-57.5 159.5,-38.5 115.5,-38.5"/>
<text text-anchor="middle" x="137.5" y="-45.5" font-family="Helvetica,sans-Serif" font-size="10.00">getLC</text>
</a>
</g>
</g>
<!-- Node1&#45;&gt;Node9 -->
<g id="edge5" class="edge">
<title>Node1&#45;&gt;Node9</title>
<path fill="none" stroke="midnightblue" d="M38.08,-95.35C49.72,-87.07 67.4,-75.22 84,-67 93.99,-62.05 105.6,-57.72 115.36,-54.44"/>
</g>
<!-- Node10 -->
<g id="node7" class="node">
<title>Node10</title>
<g id="a_node7"><a xlink:href="structTestStack.html#aff20cea87ae5eee6108b33d022913707" target="_top" xlink:title="Compare matrix against test dataset.">
<polygon fill="white" stroke="red" points="84,-0.5 84,-19.5 191,-19.5 191,-0.5 84,-0.5"/>
<text text-anchor="middle" x="137.5" y="-7.5" font-family="Helvetica,sans-Serif" font-size="10.00">TestStack::testMat</text>
</a>
</g>
</g>
<!-- Node1&#45;&gt;Node10 -->
<g id="edge6" class="edge">
<title>Node1&#45;&gt;Node10</title>
<path fill="none" stroke="midnightblue" d="M30.04,-95.42C38.9,-79.46 58.74,-47.38 84,-29 89.25,-25.18 95.35,-22.06 101.49,-19.53"/>
</g>
</g>
</svg>
