<?xml version="1.0" encoding="UTF-8" standalone="no"?>
<!DOCTYPE svg PUBLIC "-//W3C//DTD SVG 1.1//EN"
 "http://www.w3.org/Graphics/SVG/1.1/DTD/svg11.dtd">
<!-- Generated by graphviz version 2.43.0 (0)
 -->
<!-- Title: configAtmosRegions Pages: 1 -->
<svg width="449pt" height="122pt"
 viewBox="0.00 0.00 449.00 121.56" xmlns="http://www.w3.org/2000/svg" xmlns:xlink="http://www.w3.org/1999/xlink">
<g id="graph0" class="graph" transform="scale(1 1) rotate(0) translate(4 117.56)">
<title>configAtmosRegions</title>
<polygon fill="white" stroke="transparent" points="-4,4 -4,-117.56 445,-117.56 445,4 -4,4"/>
<!-- Node1 -->
<g id="node1" class="node">
<title>Node1</title>
<g id="a_node1"><a xlink:title=" ">
<polygon fill="#bfbfbf" stroke="black" points="0,-37.06 0,-56.06 116,-56.06 116,-37.06 0,-37.06"/>
<text text-anchor="middle" x="58" y="-44.06" font-family="Helvetica,sans-Serif" font-size="10.00">configAtmosRegions</text>
</a>
</g>
</g>
<!-- Node2 -->
<g id="node2" class="node">
<title>Node2</title>
<g id="a_node2"><a xlink:href="localAtmosRegion_8cpp.html#a40c00393e2fa6653758c1c872b1b8461" target="_top" xlink:title="Initializes local ionosphere maps Parameters are set from files indicated by nav.SSRAtmMap....">
<polygon fill="white" stroke="black" points="152,-94.06 152,-113.06 286,-113.06 286,-94.06 152,-94.06"/>
<text text-anchor="middle" x="219" y="-101.06" font-family="Helvetica,sans-Serif" font-size="10.00">configAtmosRegion_File</text>
</a>
</g>
</g>
<!-- Node1&#45;&gt;Node2 -->
<g id="edge1" class="edge">
<title>Node1&#45;&gt;Node2</title>
<path fill="none" stroke="midnightblue" d="M80.54,-56.13C99.23,-64.25 127.12,-75.92 152,-84.56 158.51,-86.82 165.44,-89.02 172.28,-91.09"/>
<polygon fill="midnightblue" stroke="midnightblue" points="171.58,-94.53 182.16,-94 173.55,-87.82 171.58,-94.53"/>
</g>
<!-- Node3 -->
<g id="node3" class="node">
<title>Node3</title>
<g id="a_node3"><a xlink:href="tropModels_8cpp.html#a5df81a2c6ef5746f8fd10e2384f07809" target="_top" xlink:title=" ">
<polygon fill="white" stroke="black" points="322,-37.06 322,-56.06 441,-56.06 441,-37.06 322,-37.06"/>
<text text-anchor="middle" x="381.5" y="-44.06" font-family="Helvetica,sans-Serif" font-size="10.00">defineLocalTropBasis</text>
</a>
</g>
</g>
<!-- Node1&#45;&gt;Node3 -->
<g id="edge5" class="edge">
<title>Node1&#45;&gt;Node3</title>
<path fill="none" stroke="midnightblue" d="M76.53,-36.98C94.77,-27.6 124.45,-13.97 152,-8.56 210.44,2.92 227.53,2.76 286,-8.56 309.8,-13.16 335.21,-23.74 353.68,-32.56"/>
<polygon fill="midnightblue" stroke="midnightblue" points="352.15,-35.71 362.67,-36.98 355.24,-29.42 352.15,-35.71"/>
</g>
<!-- Node4 -->
<g id="node4" class="node">
<title>Node4</title>
<g id="a_node4"><a xlink:href="structACSConfig.html#acbb130e061ba4b7bf620e4fb68e1b794" target="_top" xlink:title="Set receiver options for a specific receiver using a hierarchy of sources.">
<polygon fill="white" stroke="red" points="154.5,-56.06 154.5,-75.06 283.5,-75.06 283.5,-56.06 154.5,-56.06"/>
<text text-anchor="middle" x="219" y="-63.06" font-family="Helvetica,sans-Serif" font-size="10.00">ACSConfig::getRecOpts</text>
</a>
</g>
</g>
<!-- Node1&#45;&gt;Node4 -->
<g id="edge3" class="edge">
<title>Node1&#45;&gt;Node4</title>
<path fill="none" stroke="midnightblue" d="M116.4,-53.42C125.48,-54.5 134.98,-55.64 144.37,-56.76"/>
<polygon fill="midnightblue" stroke="midnightblue" points="144.14,-60.26 154.49,-57.97 144.97,-53.31 144.14,-60.26"/>
</g>
<!-- Node18 -->
<g id="node5" class="node">
<title>Node18</title>
<g id="a_node5"><a xlink:href="utils_8cpp.html#ae91d83cf693cdc7e1efacbe4d8d9656e" target="_top" xlink:title=" ">
<polygon fill="white" stroke="black" points="188.5,-18.06 188.5,-37.06 249.5,-37.06 249.5,-18.06 188.5,-18.06"/>
<text text-anchor="middle" x="219" y="-25.06" font-family="Helvetica,sans-Serif" font-size="10.00">ecef2pos</text>
</a>
</g>
</g>
<!-- Node1&#45;&gt;Node18 -->
<g id="edge4" class="edge">
<title>Node1&#45;&gt;Node18</title>
<path fill="none" stroke="midnightblue" d="M116.4,-39.7C136.97,-37.24 159.67,-34.53 178.4,-32.29"/>
<polygon fill="midnightblue" stroke="midnightblue" points="178.84,-35.76 188.35,-31.1 178.01,-28.81 178.84,-35.76"/>
</g>
<!-- Node2&#45;&gt;Node3 -->
<g id="edge2" class="edge">
<title>Node2&#45;&gt;Node3</title>
<path fill="none" stroke="midnightblue" d="M255.83,-93.96C265.67,-91.13 276.3,-87.89 286,-84.56 307.4,-77.2 331.03,-67.7 349.3,-60.04"/>
<polygon fill="midnightblue" stroke="midnightblue" points="350.74,-63.23 358.59,-56.11 348.02,-56.78 350.74,-63.23"/>
</g>
</g>
</svg>
