<?xml version="1.0" encoding="UTF-8" standalone="no"?>
<!DOCTYPE svg PUBLIC "-//W3C//DTD SVG 1.1//EN"
 "http://www.w3.org/Graphics/SVG/1.1/DTD/svg11.dtd">
<!-- Generated by graphviz version 2.43.0 (0)
 -->
<!-- Title: mainOncePerEpochPerStation Pages: 1 -->
<!--zoomable 598 -->
<svg id="main" version="1.1" xmlns="http://www.w3.org/2000/svg" xmlns:xlink="http://www.w3.org/1999/xlink" xml:space="preserve" onload="init(evt)">
<style type="text/css"><![CDATA[
.edge:hover path { stroke: red; }
.edge:hover polygon { stroke: red; fill: red; }
]]></style>
<script type="text/javascript"><![CDATA[
var edges = document.getElementsByTagName('g');
if (edges && edges.length) {
  for (var i=0;i<edges.length;i++) {
    if (edges[i].id.substr(0,4)=='edge') {
      edges[i].setAttribute('class','edge');
    }
  }
}
]]></script>
        <defs>
                <circle id="rim" cx="0" cy="0" r="7"/>
                <circle id="rim2" cx="0" cy="0" r="3.5"/>
                <g id="zoomPlus">
                        <use xlink:href="#rim" fill="#404040">
                                <set attributeName="fill" to="#808080" begin="zoomplus.mouseover" end="zoomplus.mouseout"/>
                        </use>
                        <path d="M-4,0h8M0,-4v8" fill="none" stroke="white" stroke-width="1.5" pointer-events="none"/>
                </g>
                <g id="zoomMin">
                        <use xlink:href="#rim" fill="#404040">
                                <set attributeName="fill" to="#808080" begin="zoomminus.mouseover" end="zoomminus.mouseout"/>
                        </use>
                        <path d="M-4,0h8" fill="none" stroke="white" stroke-width="1.5" pointer-events="none"/>
                </g>
                <g id="dirArrow">
                        <path fill="none" stroke="white" stroke-width="1.5" d="M0,-3.0v7 M-2.5,-0.5L0,-3.0L2.5,-0.5"/>
                </g>
               <g id="resetDef">
                       <use xlink:href="#rim2" fill="#404040">
                               <set attributeName="fill" to="#808080" begin="reset.mouseover" end="reset.mouseout"/>
                       </use>
               </g>
        </defs>

<script type="text/javascript">
var viewWidth = 490;
var viewHeight = 598;
var sectionId = 'dynsection-18';
</script>
<script xlink:href="svgpan.js"/>
<svg id="graph" class="graph">
<g id="viewport">
<title>mainOncePerEpochPerStation</title>
<polygon fill="white" stroke="transparent" points="-4,4 -4,-594 486,-594 486,4 -4,4"/>
<!-- Node1 -->
<g id="node1" class="node">
<title>Node1</title>
<g id="a_node1"><a xlink:title="Perform operations for each station This function occurs in parallel with other stations &#45; ensure tha...">
<polygon fill="#bfbfbf" stroke="black" points="0,-285.5 0,-304.5 161,-304.5 161,-285.5 0,-285.5"/>
<text text-anchor="middle" x="80.5" y="-292.5" font-family="Helvetica,sans-Serif" font-size="10.00">mainOncePerEpochPerStation</text>
</a>
</g>
</g>
<!-- Node2 -->
<g id="node2" class="node">
<title>Node2</title>
<g id="a_node2"><a xlink:href="pea__snx_8cpp.html#a8e1c8eabbdcd632cd47f48b220ce3d25" target="_top" xlink:title=" ">
<polygon fill="white" stroke="red" points="197,-570.5 197,-589.5 335,-589.5 335,-570.5 197,-570.5"/>
<text text-anchor="middle" x="266" y="-577.5" font-family="Helvetica,sans-Serif" font-size="10.00">sinexPerEpochPerStation</text>
</a>
</g>
</g>
<!-- Node1&#45;&gt;Node2 -->
<g id="edge1" class="edge">
<title>Node1&#45;&gt;Node2</title>
<path fill="none" stroke="midnightblue" d="M82.96,-304.64C89.2,-342.42 116.99,-481.95 197,-556 203.8,-562.29 212.35,-566.95 221.07,-570.4"/>
</g>
<!-- Node12 -->
<g id="node3" class="node">
<title>Node12</title>
<g id="a_node3"><a xlink:href="streamTrace_8hpp.html#a11d8bb0b71dca46dd29f27f595c70ddf" target="_top" xlink:title=" ">
<polygon fill="white" stroke="black" points="389,-551.5 389,-570.5 464,-570.5 464,-551.5 389,-551.5"/>
<text text-anchor="middle" x="426.5" y="-558.5" font-family="Helvetica,sans-Serif" font-size="10.00">getTraceFile</text>
</a>
</g>
</g>
<!-- Node1&#45;&gt;Node12 -->
<g id="edge3" class="edge">
<title>Node1&#45;&gt;Node12</title>
<path fill="none" stroke="midnightblue" d="M83.23,-304.8C90.1,-340.67 119.03,-465.75 197,-523 226.9,-544.96 332.39,-555 388.98,-558.9"/>
</g>
<!-- Node15 -->
<g id="node4" class="node">
<title>Node15</title>
<g id="a_node4"><a xlink:href="structGTime.html#aaa8a379d11cd6c040a6bbe680c0e913e" target="_top" xlink:title="Uninitialised time for comparisons.">
<polygon fill="white" stroke="black" points="221,-494.5 221,-513.5 311,-513.5 311,-494.5 221,-494.5"/>
<text text-anchor="middle" x="266" y="-501.5" font-family="Helvetica,sans-Serif" font-size="10.00">GTime::noTime</text>
</a>
</g>
</g>
<!-- Node1&#45;&gt;Node15 -->
<g id="edge4" class="edge">
<title>Node1&#45;&gt;Node15</title>
<path fill="none" stroke="midnightblue" d="M84.86,-304.63C95.91,-334.98 134.09,-429.54 197,-480 204.81,-486.27 214.38,-490.96 223.85,-494.45"/>
</g>
<!-- Node16 -->
<g id="node5" class="node">
<title>Node16</title>
<g id="a_node5"><a xlink:href="ppp_8cpp.html#ad779b8fc6690a4089c1a6a0c56c972cf" target="_top" xlink:title=" ">
<polygon fill="white" stroke="red" points="371,-304.5 371,-323.5 482,-323.5 482,-304.5 371,-304.5"/>
<text text-anchor="middle" x="426.5" y="-311.5" font-family="Helvetica,sans-Serif" font-size="10.00">selectAprioriSource</text>
</a>
</g>
</g>
<!-- Node1&#45;&gt;Node16 -->
<g id="edge5" class="edge">
<title>Node1&#45;&gt;Node16</title>
<path fill="none" stroke="midnightblue" d="M85.14,-304.56C96.51,-332.82 134.35,-415.92 197,-447 251.94,-474.26 280.79,-475.68 335,-447 386.1,-419.96 413.73,-349.69 422.44,-323.78"/>
</g>
<!-- Node17 -->
<g id="node6" class="node">
<title>Node17</title>
<g id="a_node6"><a xlink:href="ionoMeas_8cpp.html#a3dce4bc6a3c8a98b9f14fd6804d330c3" target="_top" xlink:title=" ">
<polygon fill="white" stroke="red" points="203.5,-418.5 203.5,-437.5 328.5,-437.5 328.5,-418.5 203.5,-418.5"/>
<text text-anchor="middle" x="266" y="-425.5" font-family="Helvetica,sans-Serif" font-size="10.00">update_receivr_measr</text>
</a>
</g>
</g>
<!-- Node1&#45;&gt;Node17 -->
<g id="edge6" class="edge">
<title>Node1&#45;&gt;Node17</title>
<path fill="none" stroke="midnightblue" d="M88.42,-304.59C104.75,-326.51 148.02,-380.58 197,-409 203.68,-412.87 211.19,-415.99 218.72,-418.49"/>
</g>
<!-- Node42 -->
<g id="node7" class="node">
<title>Node42</title>
<g id="a_node7"><a xlink:href="ppp_8cpp.html#ad3feecafa11a2ea6ce4db54fba1b5a24" target="_top" xlink:title="exclude meas of eclipsing satellite (block IIA)">
<polygon fill="white" stroke="red" points="231,-380.5 231,-399.5 301,-399.5 301,-380.5 231,-380.5"/>
<text text-anchor="middle" x="266" y="-387.5" font-family="Helvetica,sans-Serif" font-size="10.00">testeclipse</text>
</a>
</g>
</g>
<!-- Node1&#45;&gt;Node42 -->
<g id="edge7" class="edge">
<title>Node1&#45;&gt;Node42</title>
<path fill="none" stroke="midnightblue" d="M93.25,-304.53C113.35,-320.42 156.15,-352.4 197,-371 207.6,-375.82 219.69,-379.69 230.72,-382.63"/>
</g>
<!-- Node43 -->
<g id="node8" class="node">
<title>Node43</title>
<g id="a_node8"><a xlink:href="ppp__user_8cpp.html#a70cbdeafd26c3c4a863baa1a23e760a8" target="_top" xlink:title=" ">
<polygon fill="white" stroke="red" points="243,-342.5 243,-361.5 289,-361.5 289,-342.5 243,-342.5"/>
<text text-anchor="middle" x="266" y="-349.5" font-family="Helvetica,sans-Serif" font-size="10.00">pppos</text>
</a>
</g>
</g>
<!-- Node1&#45;&gt;Node43 -->
<g id="edge8" class="edge">
<title>Node1&#45;&gt;Node43</title>
<path fill="none" stroke="midnightblue" d="M109.39,-304.57C132.72,-312.48 166.91,-323.85 197,-333 212.25,-337.64 229.54,-342.46 242.88,-346.09"/>
</g>
<!-- Node176 -->
<g id="node9" class="node">
<title>Node176</title>
<g id="a_node9"><a xlink:href="structKFState.html#a0c84e911a5ea760fe728baec661e33f0" target="_top" xlink:title="Output keys and states in human readable format.">
<polygon fill="white" stroke="red" points="204.5,-304.5 204.5,-323.5 327.5,-323.5 327.5,-304.5 204.5,-304.5"/>
<text text-anchor="middle" x="266" y="-311.5" font-family="Helvetica,sans-Serif" font-size="10.00">KFState::outputStates</text>
</a>
</g>
</g>
<!-- Node1&#45;&gt;Node176 -->
<g id="edge9" class="edge">
<title>Node1&#45;&gt;Node176</title>
<path fill="none" stroke="midnightblue" d="M161.19,-303.25C175.69,-304.75 190.61,-306.3 204.45,-307.73"/>
</g>
<!-- Node177 -->
<g id="node10" class="node">
<title>Node177</title>
<g id="a_node10"><a xlink:href="ppp__user_8cpp.html#a2e076a3f51f99801075781e364f639bb" target="_top" xlink:title=" ">
<polygon fill="white" stroke="red" points="231.5,-266.5 231.5,-285.5 300.5,-285.5 300.5,-266.5 231.5,-266.5"/>
<text text-anchor="middle" x="266" y="-273.5" font-family="Helvetica,sans-Serif" font-size="10.00">pppoutstat</text>
</a>
</g>
</g>
<!-- Node1&#45;&gt;Node177 -->
<g id="edge10" class="edge">
<title>Node1&#45;&gt;Node177</title>
<path fill="none" stroke="midnightblue" d="M161.19,-286.75C185.75,-284.21 211.49,-281.54 231.2,-279.5"/>
</g>
<!-- Node178 -->
<g id="node11" class="node">
<title>Node178</title>
<g id="a_node11"><a xlink:href="GinAR__main_8cpp.html#a2915994c25f6d35e139cd4d2dca3f418" target="_top" xlink:title="Ambiguity resolution for end user solutions.">
<polygon fill="white" stroke="red" points="212,-228.5 212,-247.5 320,-247.5 320,-228.5 212,-228.5"/>
<text text-anchor="middle" x="266" y="-235.5" font-family="Helvetica,sans-Serif" font-size="10.00">enduserAmbigResl</text>
</a>
</g>
</g>
<!-- Node1&#45;&gt;Node178 -->
<g id="edge11" class="edge">
<title>Node1&#45;&gt;Node178</title>
<path fill="none" stroke="midnightblue" d="M109.39,-285.43C132.72,-277.52 166.91,-266.15 197,-257 207.55,-253.79 219.09,-250.49 229.62,-247.56"/>
</g>
<!-- Node179 -->
<g id="node12" class="node">
<title>Node179</title>
<g id="a_node12"><a xlink:href="ppp_8cpp.html#a952c5db3b307d745174a68045264f9e6" target="_top" xlink:title="Compare estimated station position with benchmark in SINEX file.">
<polygon fill="white" stroke="red" points="213,-190.5 213,-209.5 319,-209.5 319,-190.5 213,-190.5"/>
<text text-anchor="middle" x="266" y="-197.5" font-family="Helvetica,sans-Serif" font-size="10.00">outputPPPSolution</text>
</a>
</g>
</g>
<!-- Node1&#45;&gt;Node179 -->
<g id="edge12" class="edge">
<title>Node1&#45;&gt;Node179</title>
<path fill="none" stroke="midnightblue" d="M93.25,-285.47C113.35,-269.58 156.15,-237.6 197,-219 205.14,-215.29 214.17,-212.15 222.92,-209.56"/>
</g>
<!-- Node181 -->
<g id="node13" class="node">
<title>Node181</title>
<g id="a_node13"><a xlink:href="ppp__network_8cpp.html#adbcdcf140ee377fae3dd4ea16d34e4af" target="_top" xlink:title="PPP observed&#45;minus&#45;computed.">
<polygon fill="white" stroke="red" points="238,-152.5 238,-171.5 294,-171.5 294,-152.5 238,-152.5"/>
<text text-anchor="middle" x="266" y="-159.5" font-family="Helvetica,sans-Serif" font-size="10.00">pppomc</text>
</a>
</g>
</g>
<!-- Node1&#45;&gt;Node181 -->
<g id="edge13" class="edge">
<title>Node1&#45;&gt;Node181</title>
<path fill="none" stroke="midnightblue" d="M88.42,-285.41C104.75,-263.49 148.02,-209.42 197,-181 209.51,-173.74 224.94,-169.14 237.93,-166.28"/>
</g>
<!-- Node197 -->
<g id="node14" class="node">
<title>Node197</title>
<g id="a_node14"><a xlink:href="rtsSmoothing_8cpp.html#a38ab8796647005faee38cdd21deaf19b" target="_top" xlink:title=" ">
<polygon fill="white" stroke="red" points="227,-114.5 227,-133.5 305,-133.5 305,-114.5 227,-114.5"/>
<text text-anchor="middle" x="266" y="-121.5" font-family="Helvetica,sans-Serif" font-size="10.00">RTS_Process</text>
</a>
</g>
</g>
<!-- Node1&#45;&gt;Node197 -->
<g id="edge15" class="edge">
<title>Node1&#45;&gt;Node197</title>
<path fill="none" stroke="midnightblue" d="M85.96,-285.45C98.98,-258.6 139.7,-181.93 197,-143 205.82,-137.01 216.5,-132.89 226.76,-130.07"/>
</g>
<!-- Node244 -->
<g id="node15" class="node">
<title>Node244</title>
<g id="a_node15"><a xlink:href="mongoWrite_8cpp.html#a4140cbc1fb306e5c1ffefc5b83f3dd8b" target="_top" xlink:title=" ">
<polygon fill="white" stroke="black" points="225.5,-76.5 225.5,-95.5 306.5,-95.5 306.5,-76.5 225.5,-76.5"/>
<text text-anchor="middle" x="266" y="-83.5" font-family="Helvetica,sans-Serif" font-size="10.00">mongoStates</text>
</a>
</g>
</g>
<!-- Node1&#45;&gt;Node244 -->
<g id="edge16" class="edge">
<title>Node1&#45;&gt;Node244</title>
<path fill="none" stroke="midnightblue" d="M84.49,-285.36C94.69,-254.14 131.16,-154.9 197,-105 205.21,-98.78 215.35,-94.6 225.27,-91.78"/>
</g>
<!-- Node291 -->
<g id="node16" class="node">
<title>Node291</title>
<g id="a_node16"><a xlink:href="rinexObsWrite_8cpp.html#af7eadb428495fbb18290cca5f8aa774c" target="_top" xlink:title=" ">
<polygon fill="white" stroke="red" points="222,-38.5 222,-57.5 310,-57.5 310,-38.5 222,-38.5"/>
<text text-anchor="middle" x="266" y="-45.5" font-family="Helvetica,sans-Serif" font-size="10.00">writeRinexObs</text>
</a>
</g>
</g>
<!-- Node1&#45;&gt;Node291 -->
<g id="edge17" class="edge">
<title>Node1&#45;&gt;Node291</title>
<path fill="none" stroke="midnightblue" d="M83.44,-285.48C91.04,-250.55 122.22,-128.36 197,-67 204.11,-61.17 212.89,-57.12 221.75,-54.32"/>
</g>
<!-- Node245 -->
<g id="node17" class="node">
<title>Node245</title>
<g id="a_node17"><a xlink:href="gpx_8cpp.html#aabd3316037a7ed7d17d00ba919f38917" target="_top" xlink:title=" ">
<polygon fill="white" stroke="red" points="235,-0.5 235,-19.5 297,-19.5 297,-0.5 235,-0.5"/>
<text text-anchor="middle" x="266" y="-7.5" font-family="Helvetica,sans-Serif" font-size="10.00">writeGPX</text>
</a>
</g>
</g>
<!-- Node1&#45;&gt;Node245 -->
<g id="edge18" class="edge">
<title>Node1&#45;&gt;Node245</title>
<path fill="none" stroke="midnightblue" d="M82.72,-285.28C88.1,-246.57 113.31,-101.93 197,-29 207.44,-19.9 221.92,-15.13 234.83,-12.64"/>
</g>
<!-- Node2&#45;&gt;Node12 -->
<g id="edge2" class="edge">
<title>Node2&#45;&gt;Node12</title>
<path fill="none" stroke="midnightblue" d="M335.14,-571.83C353.6,-569.62 372.88,-567.31 388.86,-565.39"/>
</g>
<!-- Node181&#45;&gt;Node16 -->
<g id="edge14" class="edge">
<title>Node181&#45;&gt;Node16</title>
<path fill="none" stroke="midnightblue" d="M294.07,-165.12C307.37,-167.71 323.05,-172.42 335,-181 381.5,-214.4 411.56,-279.59 421.69,-304.24"/>
</g>
</g>
</svg>
        <g id="navigator" transform="translate(0 0)" fill="#404254">
                <rect fill="#f2f5e9" fill-opacity="0.5" stroke="#606060" stroke-width=".5" x="0" y="0" width="60" height="60"/>
                <use id="zoomplus" xlink:href="#zoomPlus" x="17" y="9" onmousedown="handleZoom(evt,'in')"/>
                <use id="zoomminus" xlink:href="#zoomMin" x="42" y="9" onmousedown="handleZoom(evt,'out')"/>
                <use id="reset" xlink:href="#resetDef" x="30" y="36" onmousedown="handleReset()"/>
                <g id="arrowUp" xlink:href="#dirArrow" transform="translate(30 24)" onmousedown="handlePan(0,-1)">
                  <use xlink:href="#rim" fill="#404040">
                        <set attributeName="fill" to="#808080" begin="arrowUp.mouseover" end="arrowUp.mouseout"/>
                  </use>
                  <path fill="none" stroke="white" stroke-width="1.5" d="M0,-3.0v7 M-2.5,-0.5L0,-3.0L2.5,-0.5"/>
                </g>
                <g id="arrowRight" xlink:href="#dirArrow" transform="rotate(90) translate(36 -43)" onmousedown="handlePan(1,0)">
                  <use xlink:href="#rim" fill="#404040">
                        <set attributeName="fill" to="#808080" begin="arrowRight.mouseover" end="arrowRight.mouseout"/>
                  </use>
                  <path fill="none" stroke="white" stroke-width="1.5" d="M0,-3.0v7 M-2.5,-0.5L0,-3.0L2.5,-0.5"/>
                </g>
                <g id="arrowDown" xlink:href="#dirArrow" transform="rotate(180) translate(-30 -48)" onmousedown="handlePan(0,1)">
                  <use xlink:href="#rim" fill="#404040">
                        <set attributeName="fill" to="#808080" begin="arrowDown.mouseover" end="arrowDown.mouseout"/>
                  </use>
                  <path fill="none" stroke="white" stroke-width="1.5" d="M0,-3.0v7 M-2.5,-0.5L0,-3.0L2.5,-0.5"/>
                </g>
                <g id="arrowLeft" xlink:href="#dirArrow" transform="rotate(270) translate(-36 17)" onmousedown="handlePan(-1,0)">
                  <use xlink:href="#rim" fill="#404040">
                        <set attributeName="fill" to="#808080" begin="arrowLeft.mouseover" end="arrowLeft.mouseout"/>
                  </use>
                  <path fill="none" stroke="white" stroke-width="1.5" d="M0,-3.0v7 M-2.5,-0.5L0,-3.0L2.5,-0.5"/>
                </g>
        </g>
        <svg viewBox="0 0 15 15" width="100%" height="30px" preserveAspectRatio="xMaxYMin meet">
         <g id="arrow_out" transform="scale(0.3 0.3)">
          <a xlink:href="main_8cpp_a7e63aa887c069bdb77cd28a88ad18562_cgraph_org.svg" target="_base">
           <rect id="button" ry="5" rx="5" y="6" x="6" height="38" width="38"
                fill="#f2f5e9" fill-opacity="0.5" stroke="#606060" stroke-width="1.0"/>
           <path id="arrow"
             d="M 11.500037,31.436501 C 11.940474,20.09759 22.043105,11.32322 32.158766,21.979434 L 37.068811,17.246167 C 37.068811,17.246167 37.088388,32 37.088388,32 L 22.160133,31.978069 C 22.160133,31.978069 26.997745,27.140456 26.997745,27.140456 C 18.528582,18.264221 13.291696,25.230495 11.500037,31.436501 z"
             style="fill:#404040;"/>
          </a>
         </g>
        </svg>
</svg>
