<?xml version="1.0" encoding="UTF-8" standalone="no"?>
<!DOCTYPE svg PUBLIC "-//W3C//DTD SVG 1.1//EN"
 "http://www.w3.org/Graphics/SVG/1.1/DTD/svg11.dtd">
<!-- Generated by graphviz version 2.43.0 (0)
 -->
<!-- Title: outputPredictedStates Pages: 1 -->
<svg width="288pt" height="218pt"
 viewBox="0.00 0.00 288.00 218.00" xmlns="http://www.w3.org/2000/svg" xmlns:xlink="http://www.w3.org/1999/xlink">
<g id="graph0" class="graph" transform="scale(1 1) rotate(0) translate(4 214)">
<title>outputPredictedStates</title>
<polygon fill="white" stroke="transparent" points="-4,4 -4,-214 284,-214 284,4 -4,4"/>
<!-- Node1 -->
<g id="node1" class="node">
<title>Node1</title>
<g id="a_node1"><a xlink:title=" ">
<polygon fill="#bfbfbf" stroke="black" points="0,-95.5 0,-114.5 125,-114.5 125,-95.5 0,-95.5"/>
<text text-anchor="middle" x="62.5" y="-102.5" font-family="Helvetica,sans-Serif" font-size="10.00">outputPredictedStates</text>
</a>
</g>
</g>
<!-- Node2 -->
<g id="node2" class="node">
<title>Node2</title>
<g id="a_node2"><a xlink:href="tropGPT2_8cpp.html#a09f11d2057b22449a395bd4f02513a61" target="_top" xlink:title=" ">
<polygon fill="white" stroke="black" points="202,-190.5 202,-209.5 239,-209.5 239,-190.5 202,-190.5"/>
<text text-anchor="middle" x="220.5" y="-197.5" font-family="Helvetica,sans-Serif" font-size="10.00">sign</text>
</a>
</g>
</g>
<!-- Node1&#45;&gt;Node2 -->
<g id="edge1" class="edge">
<title>Node1&#45;&gt;Node2</title>
<path fill="none" stroke="midnightblue" d="M73.47,-114.74C90.25,-130.64 125.74,-162.28 161,-181 170.66,-186.13 181.95,-190.19 192.03,-193.23"/>
<polygon fill="midnightblue" stroke="midnightblue" points="191.39,-196.68 201.97,-196.02 193.28,-189.94 191.39,-196.68"/>
</g>
<!-- Node3 -->
<g id="node3" class="node">
<title>Node3</title>
<g id="a_node3"><a xlink:href="structKFState.html#a1c382a18272a685b261e23117e2e700b" target="_top" xlink:title="Get a portion of the state vector by passing a list of keys.">
<polygon fill="white" stroke="red" points="161,-152.5 161,-171.5 280,-171.5 280,-152.5 161,-152.5"/>
<text text-anchor="middle" x="220.5" y="-159.5" font-family="Helvetica,sans-Serif" font-size="10.00">KFState::getSubState</text>
</a>
</g>
</g>
<!-- Node1&#45;&gt;Node3 -->
<g id="edge2" class="edge">
<title>Node1&#45;&gt;Node3</title>
<path fill="none" stroke="midnightblue" d="M87,-114.6C106.66,-122.52 135.51,-133.9 161,-143 166.94,-145.12 173.25,-147.27 179.45,-149.33"/>
<polygon fill="midnightblue" stroke="midnightblue" points="178.43,-152.68 189.02,-152.47 180.61,-146.03 178.43,-152.68"/>
</g>
<!-- Node5 -->
<g id="node4" class="node">
<title>Node5</title>
<g id="a_node4"><a xlink:href="mongoWrite_8cpp.html#a7b0669675f4db278af7db5cb0b0dee6a" target="_top" xlink:title=" ">
<polygon fill="white" stroke="red" points="180,-114.5 180,-133.5 261,-133.5 261,-114.5 180,-114.5"/>
<text text-anchor="middle" x="220.5" y="-121.5" font-family="Helvetica,sans-Serif" font-size="10.00">mongoStates</text>
</a>
</g>
</g>
<!-- Node1&#45;&gt;Node5 -->
<g id="edge3" class="edge">
<title>Node1&#45;&gt;Node5</title>
<path fill="none" stroke="midnightblue" d="M125.16,-112.51C139.96,-114.31 155.58,-116.22 169.77,-117.94"/>
<polygon fill="midnightblue" stroke="midnightblue" points="169.46,-121.43 179.81,-119.17 170.3,-114.48 169.46,-121.43"/>
</g>
<!-- Node17 -->
<g id="node5" class="node">
<title>Node17</title>
<g id="a_node5"><a xlink:href="orbitProp_8cpp.html#a84ea4a595fee39a326c22ebfe3086dc5" target="_top" xlink:title=" ">
<polygon fill="white" stroke="red" points="179,-76.5 179,-95.5 262,-95.5 262,-76.5 179,-76.5"/>
<text text-anchor="middle" x="220.5" y="-83.5" font-family="Helvetica,sans-Serif" font-size="10.00">prepareOrbits</text>
</a>
</g>
</g>
<!-- Node1&#45;&gt;Node17 -->
<g id="edge4" class="edge">
<title>Node1&#45;&gt;Node17</title>
<path fill="none" stroke="midnightblue" d="M125.16,-97.49C139.54,-95.74 154.71,-93.89 168.57,-92.2"/>
<polygon fill="midnightblue" stroke="midnightblue" points="169.38,-95.63 178.88,-90.95 168.53,-88.68 169.38,-95.63"/>
</g>
<!-- Node37 -->
<g id="node6" class="node">
<title>Node37</title>
<g id="a_node6"><a xlink:href="orbitProp_8cpp.html#a1db465a9ca0f8b1b1cf7fe88975f6df8" target="_top" xlink:title=" ">
<polygon fill="white" stroke="black" points="175.5,-38.5 175.5,-57.5 265.5,-57.5 265.5,-38.5 175.5,-38.5"/>
<text text-anchor="middle" x="220.5" y="-45.5" font-family="Helvetica,sans-Serif" font-size="10.00">integrateOrbits</text>
</a>
</g>
</g>
<!-- Node1&#45;&gt;Node37 -->
<g id="edge5" class="edge">
<title>Node1&#45;&gt;Node37</title>
<path fill="none" stroke="midnightblue" d="M87,-95.4C106.66,-87.48 135.51,-76.1 161,-67 166.94,-64.88 173.25,-62.73 179.45,-60.67"/>
<polygon fill="midnightblue" stroke="midnightblue" points="180.61,-63.97 189.02,-57.53 178.43,-57.32 180.61,-63.97"/>
</g>
<!-- Node38 -->
<g id="node7" class="node">
<title>Node38</title>
<g id="a_node7"><a xlink:href="structGTime.html#a98fdbaaec5a132a7e694f28b4f1907cb" target="_top" xlink:title=" ">
<polygon fill="white" stroke="black" points="171.5,-0.5 171.5,-19.5 269.5,-19.5 269.5,-0.5 171.5,-0.5"/>
<text text-anchor="middle" x="220.5" y="-7.5" font-family="Helvetica,sans-Serif" font-size="10.00">GTime::to_string</text>
</a>
</g>
</g>
<!-- Node1&#45;&gt;Node38 -->
<g id="edge6" class="edge">
<title>Node1&#45;&gt;Node38</title>
<path fill="none" stroke="midnightblue" d="M73.47,-95.26C90.25,-79.36 125.74,-47.72 161,-29 165.03,-26.86 169.36,-24.9 173.75,-23.13"/>
<polygon fill="midnightblue" stroke="midnightblue" points="175.27,-26.3 183.42,-19.54 172.83,-19.74 175.27,-26.3"/>
</g>
</g>
</svg>
