<?xml version="1.0" encoding="UTF-8" standalone="no"?>
<!DOCTYPE svg PUBLIC "-//W3C//DTD SVG 1.1//EN"
 "http://www.w3.org/Graphics/SVG/1.1/DTD/svg11.dtd">
<!-- Generated by graphviz version 2.43.0 (0)
 -->
<!-- Title: mainPerEpochPostProcessingAndOutputs Pages: 1 -->
<svg width="490pt" height="1054pt"
 viewBox="0.00 0.00 490.00 1054.00" xmlns="http://www.w3.org/2000/svg" xmlns:xlink="http://www.w3.org/1999/xlink">
<g id="graph0" class="graph" transform="scale(1 1) rotate(0) translate(4 1050)">
<title>mainPerEpochPostProcessingAndOutputs</title>
<polygon fill="white" stroke="transparent" points="-4,4 -4,-1050 486,-1050 486,4 -4,4"/>
<!-- Node1 -->
<g id="node1" class="node">
<title>Node1</title>
<g id="a_node1"><a xlink:title=" ">
<polygon fill="#bfbfbf" stroke="black" points="0,-508 0,-538 160,-538 160,-508 0,-508"/>
<text text-anchor="start" x="8" y="-526" font-family="Helvetica,sans-Serif" font-size="10.00">mainPerEpochPostProcessing</text>
<text text-anchor="middle" x="80" y="-515" font-family="Helvetica,sans-Serif" font-size="10.00">AndOutputs</text>
</a>
</g>
</g>
<!-- Node2 -->
<g id="node2" class="node">
<title>Node2</title>
<g id="a_node2"><a xlink:href="trace_8hpp.html#af5320371d0f15d74154b2b32d315684d" target="_top" xlink:title=" ">
<polygon fill="white" stroke="black" points="222.5,-1026.5 222.5,-1045.5 297.5,-1045.5 297.5,-1026.5 222.5,-1026.5"/>
<text text-anchor="middle" x="260" y="-1033.5" font-family="Helvetica,sans-Serif" font-size="10.00">getTraceFile</text>
</a>
</g>
</g>
<!-- Node1&#45;&gt;Node2 -->
<g id="edge1" class="edge">
<title>Node1&#45;&gt;Node2</title>
<path fill="none" stroke="midnightblue" d="M82.64,-538.02C90.99,-612.08 130.96,-937.67 196,-1012 200.61,-1017.27 206.5,-1021.38 212.83,-1024.6"/>
<polygon fill="midnightblue" stroke="midnightblue" points="211.74,-1027.94 222.31,-1028.69 214.52,-1021.51 211.74,-1027.94"/>
</g>
<!-- Node3 -->
<g id="node3" class="node">
<title>Node3</title>
<g id="a_node3"><a xlink:href="mongoWrite_8cpp.html#a7b0669675f4db278af7db5cb0b0dee6a" target="_top" xlink:title=" ">
<polygon fill="white" stroke="red" points="380.5,-418.5 380.5,-437.5 461.5,-437.5 461.5,-418.5 380.5,-418.5"/>
<text text-anchor="middle" x="421" y="-425.5" font-family="Helvetica,sans-Serif" font-size="10.00">mongoStates</text>
</a>
</g>
</g>
<!-- Node1&#45;&gt;Node3 -->
<g id="edge2" class="edge">
<title>Node1&#45;&gt;Node3</title>
<path fill="none" stroke="midnightblue" d="M82.42,-538.47C89.47,-611.7 123.38,-922.42 196,-979 240.88,-1013.96 280.46,-1015.61 324,-979 329.26,-974.58 400.38,-546.54 416.69,-448.05"/>
<polygon fill="midnightblue" stroke="midnightblue" points="420.18,-448.38 418.36,-437.95 413.27,-447.24 420.18,-448.38"/>
</g>
<!-- Node15 -->
<g id="node4" class="node">
<title>Node15</title>
<g id="a_node4"><a xlink:href="ppp__ambres_8cpp.html#ac60a10fa51dfc292692db9b9e6f7af30" target="_top" xlink:title=" ">
<polygon fill="white" stroke="red" points="196,-950.5 196,-969.5 324,-969.5 324,-950.5 196,-950.5"/>
<text text-anchor="middle" x="260" y="-957.5" font-family="Helvetica,sans-Serif" font-size="10.00">fixAndHoldAmbiguities</text>
</a>
</g>
</g>
<!-- Node1&#45;&gt;Node15 -->
<g id="edge3" class="edge">
<title>Node1&#45;&gt;Node15</title>
<path fill="none" stroke="midnightblue" d="M80.33,-538.03C78.54,-597.95 80.09,-822.22 196,-941 197.41,-942.44 198.92,-943.77 200.51,-945.01"/>
<polygon fill="midnightblue" stroke="midnightblue" points="198.75,-948.03 209.09,-950.37 202.47,-942.1 198.75,-948.03"/>
</g>
<!-- Node62 -->
<g id="node5" class="node">
<title>Node62</title>
<g id="a_node5"><a xlink:href="ionoModel_8cpp.html#a5f0f6db30db859a82f3e12712e1233da" target="_top" xlink:title=" ">
<polygon fill="white" stroke="red" points="199.5,-912.5 199.5,-931.5 320.5,-931.5 320.5,-912.5 199.5,-912.5"/>
<text text-anchor="middle" x="260" y="-919.5" font-family="Helvetica,sans-Serif" font-size="10.00">ionosphereSsrUpdate</text>
</a>
</g>
</g>
<!-- Node1&#45;&gt;Node62 -->
<g id="edge4" class="edge">
<title>Node1&#45;&gt;Node62</title>
<path fill="none" stroke="midnightblue" d="M80.82,-538.22C81.01,-594.99 89.45,-796.56 196,-903 197.45,-904.45 199.02,-905.8 200.66,-907.04"/>
<polygon fill="midnightblue" stroke="midnightblue" points="199.14,-910.21 209.5,-912.43 202.78,-904.23 199.14,-910.21"/>
</g>
<!-- Node65 -->
<g id="node6" class="node">
<title>Node65</title>
<g id="a_node6"><a xlink:href="ionoMeas_8cpp.html#a63c952812e5a8af831965fca844a038f" target="_top" xlink:title=" ">
<polygon fill="white" stroke="red" points="196,-874.5 196,-893.5 324,-893.5 324,-874.5 196,-874.5"/>
<text text-anchor="middle" x="260" y="-881.5" font-family="Helvetica,sans-Serif" font-size="10.00">obsIonoDataFromFilter</text>
</a>
</g>
</g>
<!-- Node1&#45;&gt;Node65 -->
<g id="edge5" class="edge">
<title>Node1&#45;&gt;Node65</title>
<path fill="none" stroke="midnightblue" d="M81.41,-538.17C83.7,-591.27 98.61,-770.62 196,-865 197.63,-866.58 199.39,-868.03 201.25,-869.36"/>
<polygon fill="midnightblue" stroke="midnightblue" points="199.53,-872.41 209.93,-874.46 203.08,-866.38 199.53,-872.41"/>
</g>
<!-- Node66 -->
<g id="node7" class="node">
<title>Node66</title>
<g id="a_node7"><a xlink:href="ionoModel_8cpp.html#ae7821a74f98f349d4508712aeced88e1" target="_top" xlink:title="Updating the ionosphere model parameters The ionosphere model should be initialized by calling &#39;confi...">
<polygon fill="white" stroke="red" points="213.5,-836.5 213.5,-855.5 306.5,-855.5 306.5,-836.5 213.5,-836.5"/>
<text text-anchor="middle" x="260" y="-843.5" font-family="Helvetica,sans-Serif" font-size="10.00">filterIonosphere</text>
</a>
</g>
</g>
<!-- Node1&#45;&gt;Node66 -->
<g id="edge6" class="edge">
<title>Node1&#45;&gt;Node66</title>
<path fill="none" stroke="midnightblue" d="M82.14,-538.21C86.68,-587.53 107.73,-744.6 196,-827 198.46,-829.3 201.2,-831.32 204.1,-833.1"/>
<polygon fill="midnightblue" stroke="midnightblue" points="202.75,-836.34 213.25,-837.73 205.91,-830.09 202.75,-836.34"/>
</g>
<!-- Node57 -->
<g id="node8" class="node">
<title>Node57</title>
<g id="a_node8"><a xlink:href="structKFState.html#a0c84e911a5ea760fe728baec661e33f0" target="_top" xlink:title="Output keys and states in human readable format.">
<polygon fill="white" stroke="red" points="360,-798.5 360,-817.5 482,-817.5 482,-798.5 360,-798.5"/>
<text text-anchor="middle" x="421" y="-805.5" font-family="Helvetica,sans-Serif" font-size="10.00">KFState::outputStates</text>
</a>
</g>
</g>
<!-- Node1&#45;&gt;Node57 -->
<g id="edge11" class="edge">
<title>Node1&#45;&gt;Node57</title>
<path fill="none" stroke="midnightblue" d="M84.09,-538.25C93.26,-579.39 124.26,-693.41 196,-751 209.19,-761.59 302.18,-782.96 364.13,-796.31"/>
<polygon fill="midnightblue" stroke="midnightblue" points="363.65,-799.79 374.17,-798.46 365.12,-792.94 363.65,-799.79"/>
</g>
<!-- Node109 -->
<g id="node9" class="node">
<title>Node109</title>
<g id="a_node9"><a xlink:href="minimumConstraints_8cpp.html#aa40934b017f373d875c3470591eff52e" target="_top" xlink:title=" ">
<polygon fill="white" stroke="red" points="233.5,-798.5 233.5,-817.5 286.5,-817.5 286.5,-798.5 233.5,-798.5"/>
<text text-anchor="middle" x="260" y="-805.5" font-family="Helvetica,sans-Serif" font-size="10.00">mincon</text>
</a>
</g>
</g>
<!-- Node1&#45;&gt;Node109 -->
<g id="edge8" class="edge">
<title>Node1&#45;&gt;Node109</title>
<path fill="none" stroke="midnightblue" d="M83.5,-538.31C91.53,-582.63 120.62,-712.37 196,-784 203.7,-791.32 213.86,-796.46 223.76,-800.06"/>
<polygon fill="midnightblue" stroke="midnightblue" points="222.89,-803.45 233.48,-803.16 225.02,-796.78 222.89,-803.45"/>
</g>
<!-- Node128 -->
<g id="node10" class="node">
<title>Node128</title>
<g id="a_node10"><a xlink:href="minimumConstraints_8cpp.html#ab6be6b79385844aff6e5935fe285c44a" target="_top" xlink:title=" ">
<polygon fill="white" stroke="red" points="196,-722.5 196,-741.5 324,-741.5 324,-722.5 196,-722.5"/>
<text text-anchor="middle" x="260" y="-729.5" font-family="Helvetica,sans-Serif" font-size="10.00">outputMinconStatistics</text>
</a>
</g>
</g>
<!-- Node1&#45;&gt;Node128 -->
<g id="edge12" class="edge">
<title>Node1&#45;&gt;Node128</title>
<path fill="none" stroke="midnightblue" d="M85.88,-538.16C98.26,-574.11 134.3,-665.15 196,-713 198.33,-714.81 200.82,-716.44 203.43,-717.92"/>
<polygon fill="midnightblue" stroke="midnightblue" points="202.13,-721.18 212.66,-722.38 205.18,-714.87 202.13,-721.18"/>
</g>
<!-- Node129 -->
<g id="node11" class="node">
<title>Node129</title>
<g id="a_node11"><a xlink:href="erp_8cpp.html#ab3d1603dc3b9792fd8a9116558ba1d49" target="_top" xlink:title=" ">
<polygon fill="white" stroke="red" points="198.5,-684.5 198.5,-703.5 321.5,-703.5 321.5,-684.5 198.5,-684.5"/>
<text text-anchor="middle" x="260" y="-691.5" font-family="Helvetica,sans-Serif" font-size="10.00">writeErpFromNetwork</text>
</a>
</g>
</g>
<!-- Node1&#45;&gt;Node129 -->
<g id="edge13" class="edge">
<title>Node1&#45;&gt;Node129</title>
<path fill="none" stroke="midnightblue" d="M88.22,-538.03C103.64,-568.53 142.77,-637.95 196,-675 198.85,-676.99 201.92,-678.77 205.1,-680.37"/>
<polygon fill="midnightblue" stroke="midnightblue" points="203.76,-683.6 214.32,-684.4 206.57,-677.19 203.76,-683.6"/>
</g>
<!-- Node135 -->
<g id="node12" class="node">
<title>Node135</title>
<g id="a_node12"><a xlink:href="rinexClkWrite_8cpp.html#a6899905797825f1814f596eb94ea6aaf" target="_top" xlink:title=" ">
<polygon fill="white" stroke="red" points="220,-646.5 220,-665.5 300,-665.5 300,-646.5 220,-646.5"/>
<text text-anchor="middle" x="260" y="-653.5" font-family="Helvetica,sans-Serif" font-size="10.00">outputClocks</text>
</a>
</g>
</g>
<!-- Node1&#45;&gt;Node135 -->
<g id="edge14" class="edge">
<title>Node1&#45;&gt;Node135</title>
<path fill="none" stroke="midnightblue" d="M92.32,-538.3C111.15,-562.71 151.31,-610.4 196,-637 200.43,-639.64 205.25,-641.93 210.19,-643.93"/>
<polygon fill="midnightblue" stroke="midnightblue" points="209.17,-647.28 219.76,-647.4 211.56,-640.7 209.17,-647.28"/>
</g>
<!-- Node180 -->
<g id="node13" class="node">
<title>Node180</title>
<g id="a_node13"><a xlink:href="tropSinex_8cpp.html#a7d4d797b1dca3898283e8b3d00b0e60f" target="_top" xlink:title="Output troposphere SINEX data.">
<polygon fill="white" stroke="red" points="212.5,-608.5 212.5,-627.5 307.5,-627.5 307.5,-608.5 212.5,-608.5"/>
<text text-anchor="middle" x="260" y="-615.5" font-family="Helvetica,sans-Serif" font-size="10.00">outputTropSinex</text>
</a>
</g>
</g>
<!-- Node1&#45;&gt;Node180 -->
<g id="edge15" class="edge">
<title>Node1&#45;&gt;Node180</title>
<path fill="none" stroke="midnightblue" d="M99.91,-538.02C121.9,-554.86 159.81,-582.03 196,-599 200.91,-601.3 206.17,-603.41 211.48,-605.3"/>
<polygon fill="midnightblue" stroke="midnightblue" points="210.43,-608.64 221.02,-608.5 212.65,-602 210.43,-608.64"/>
</g>
<!-- Node223 -->
<g id="node14" class="node">
<title>Node223</title>
<g id="a_node14"><a xlink:href="rtsSmoothing_8cpp.html#a97a246c19cbbc06a85a687849917dcd9" target="_top" xlink:title=" ">
<polygon fill="white" stroke="red" points="219,-570.5 219,-589.5 301,-589.5 301,-570.5 219,-570.5"/>
<text text-anchor="middle" x="260" y="-577.5" font-family="Helvetica,sans-Serif" font-size="10.00">rtsSmoothing</text>
</a>
</g>
</g>
<!-- Node1&#45;&gt;Node223 -->
<g id="edge16" class="edge">
<title>Node1&#45;&gt;Node223</title>
<path fill="none" stroke="midnightblue" d="M125.69,-538.07C146.95,-545.16 172.74,-553.65 196,-561 202.73,-563.13 209.89,-565.34 216.87,-567.46"/>
<polygon fill="midnightblue" stroke="midnightblue" points="216.32,-570.95 226.9,-570.5 218.34,-564.25 216.32,-570.95"/>
</g>
<!-- Node319 -->
<g id="node15" class="node">
<title>Node319</title>
<g id="a_node15"><a xlink:href="ppp_8cpp.html#a7dfa3201f248f86e7eac9d9db1f3661b" target="_top" xlink:title=" ">
<polygon fill="white" stroke="red" points="212.5,-532.5 212.5,-551.5 307.5,-551.5 307.5,-532.5 212.5,-532.5"/>
<text text-anchor="middle" x="260" y="-539.5" font-family="Helvetica,sans-Serif" font-size="10.00">outputPppNmea</text>
</a>
</g>
</g>
<!-- Node1&#45;&gt;Node319 -->
<g id="edge17" class="edge">
<title>Node1&#45;&gt;Node319</title>
<path fill="none" stroke="midnightblue" d="M160.11,-531.44C174.32,-532.96 188.86,-534.51 202.28,-535.95"/>
<polygon fill="midnightblue" stroke="midnightblue" points="201.98,-539.43 212.29,-537.01 202.72,-532.47 201.98,-539.43"/>
</g>
<!-- Node309 -->
<g id="node16" class="node">
<title>Node309</title>
<g id="a_node16"><a xlink:href="cost_8cpp.html#abc021ac32635abe4cf6daef44cabb888" target="_top" xlink:title="Outputs troposphere COST file.">
<polygon fill="white" stroke="red" points="225,-494.5 225,-513.5 295,-513.5 295,-494.5 225,-494.5"/>
<text text-anchor="middle" x="260" y="-501.5" font-family="Helvetica,sans-Serif" font-size="10.00">outputCost</text>
</a>
</g>
</g>
<!-- Node1&#45;&gt;Node309 -->
<g id="edge18" class="edge">
<title>Node1&#45;&gt;Node309</title>
<path fill="none" stroke="midnightblue" d="M160.11,-514.56C178.69,-512.57 197.86,-510.53 214.32,-508.77"/>
<polygon fill="midnightblue" stroke="midnightblue" points="215.13,-512.2 224.7,-507.66 214.39,-505.24 215.13,-512.2"/>
</g>
<!-- Node314 -->
<g id="node17" class="node">
<title>Node314</title>
<g id="a_node17"><a xlink:href="gpx_8cpp.html#a6a003c9cf2dd5732000ebbaf4dd8a6b7" target="_top" xlink:title=" ">
<polygon fill="white" stroke="red" points="229,-456.5 229,-475.5 291,-475.5 291,-456.5 229,-456.5"/>
<text text-anchor="middle" x="260" y="-463.5" font-family="Helvetica,sans-Serif" font-size="10.00">writeGPX</text>
</a>
</g>
</g>
<!-- Node1&#45;&gt;Node314 -->
<g id="edge19" class="edge">
<title>Node1&#45;&gt;Node314</title>
<path fill="none" stroke="midnightblue" d="M125.69,-507.93C146.95,-500.84 172.74,-492.35 196,-485 203.42,-482.65 211.36,-480.21 219.01,-477.89"/>
<polygon fill="midnightblue" stroke="midnightblue" points="220.27,-481.17 228.83,-474.92 218.24,-474.46 220.27,-481.17"/>
</g>
<!-- Node320 -->
<g id="node18" class="node">
<title>Node320</title>
<g id="a_node18"><a xlink:href="summary_8cpp.html#a12c28641db36becdeac64e075107d855" target="_top" xlink:title=" ">
<polygon fill="white" stroke="red" points="213.5,-418.5 213.5,-437.5 306.5,-437.5 306.5,-418.5 213.5,-418.5"/>
<text text-anchor="middle" x="260" y="-425.5" font-family="Helvetica,sans-Serif" font-size="10.00">outputStatistics</text>
</a>
</g>
</g>
<!-- Node1&#45;&gt;Node320 -->
<g id="edge20" class="edge">
<title>Node1&#45;&gt;Node320</title>
<path fill="none" stroke="midnightblue" d="M99.91,-507.98C121.9,-491.14 159.81,-463.97 196,-447 200.91,-444.7 206.17,-442.59 211.48,-440.7"/>
<polygon fill="midnightblue" stroke="midnightblue" points="212.65,-444 221.02,-437.5 210.43,-437.36 212.65,-444"/>
</g>
<!-- Node321 -->
<g id="node19" class="node">
<title>Node321</title>
<g id="a_node19"><a xlink:href="rinexNavWrite_8cpp.html#afee81a93c5a36815f71f855f32c34608" target="_top" xlink:title=" ">
<polygon fill="white" stroke="red" points="215.5,-380.5 215.5,-399.5 304.5,-399.5 304.5,-380.5 215.5,-380.5"/>
<text text-anchor="middle" x="260" y="-387.5" font-family="Helvetica,sans-Serif" font-size="10.00">writeRinexNav</text>
</a>
</g>
</g>
<!-- Node1&#45;&gt;Node321 -->
<g id="edge21" class="edge">
<title>Node1&#45;&gt;Node321</title>
<path fill="none" stroke="midnightblue" d="M92.32,-507.7C111.15,-483.29 151.31,-435.6 196,-409 199.59,-406.86 203.44,-404.95 207.4,-403.24"/>
<polygon fill="midnightblue" stroke="midnightblue" points="208.72,-406.48 216.78,-399.6 206.19,-399.95 208.72,-406.48"/>
</g>
<!-- Node292 -->
<g id="node20" class="node">
<title>Node292</title>
<g id="a_node20"><a xlink:href="sp3Write_8cpp.html#aa684817008c29bcd43c77bdda90b8a31" target="_top" xlink:title=" ">
<polygon fill="white" stroke="red" points="227,-342.5 227,-361.5 293,-361.5 293,-342.5 227,-342.5"/>
<text text-anchor="middle" x="260" y="-349.5" font-family="Helvetica,sans-Serif" font-size="10.00">outputSp3</text>
</a>
</g>
</g>
<!-- Node1&#45;&gt;Node292 -->
<g id="edge22" class="edge">
<title>Node1&#45;&gt;Node292</title>
<path fill="none" stroke="midnightblue" d="M88.22,-507.97C103.64,-477.47 142.77,-408.05 196,-371 202.32,-366.6 209.69,-363.2 217.11,-360.58"/>
<polygon fill="midnightblue" stroke="midnightblue" points="218.3,-363.87 226.81,-357.56 216.22,-357.19 218.3,-363.87"/>
</g>
<!-- Node234 -->
<g id="node21" class="node">
<title>Node234</title>
<g id="a_node21"><a xlink:href="orbexWrite_8cpp.html#aa8eb53893e56ecf819a9b98f86c354e6" target="_top" xlink:title="Output ORBEX files.">
<polygon fill="white" stroke="red" points="221.5,-304.5 221.5,-323.5 298.5,-323.5 298.5,-304.5 221.5,-304.5"/>
<text text-anchor="middle" x="260" y="-311.5" font-family="Helvetica,sans-Serif" font-size="10.00">outputOrbex</text>
</a>
</g>
</g>
<!-- Node1&#45;&gt;Node234 -->
<g id="edge23" class="edge">
<title>Node1&#45;&gt;Node234</title>
<path fill="none" stroke="midnightblue" d="M85.88,-507.84C98.26,-471.89 134.3,-380.85 196,-333 200.68,-329.37 206.06,-326.43 211.65,-324.05"/>
<polygon fill="midnightblue" stroke="midnightblue" points="213,-327.28 221.18,-320.55 210.59,-320.71 213,-327.28"/>
</g>
<!-- Node296 -->
<g id="node22" class="node">
<title>Node296</title>
<g id="a_node22"><a xlink:href="ionexWrite_8cpp.html#a7b2949688f6e69a8f781983db81dc08b" target="_top" xlink:title=" ">
<polygon fill="white" stroke="red" points="216.5,-266.5 216.5,-285.5 303.5,-285.5 303.5,-266.5 216.5,-266.5"/>
<text text-anchor="middle" x="260" y="-273.5" font-family="Helvetica,sans-Serif" font-size="10.00">ionexFileWrite</text>
</a>
</g>
</g>
<!-- Node1&#45;&gt;Node296 -->
<g id="edge24" class="edge">
<title>Node1&#45;&gt;Node296</title>
<path fill="none" stroke="midnightblue" d="M84.23,-507.92C93.75,-467.2 125.54,-354.14 196,-295 199.3,-292.23 202.99,-289.87 206.89,-287.85"/>
<polygon fill="midnightblue" stroke="midnightblue" points="208.52,-290.95 216.27,-283.73 205.71,-284.54 208.52,-290.95"/>
</g>
<!-- Node308 -->
<g id="node23" class="node">
<title>Node308</title>
<g id="a_node23"><a xlink:href="ionoMeas_8cpp.html#ae9c0cc10cf38de05ca01a55f8c8efd06" target="_top" xlink:title=" ">
<polygon fill="white" stroke="red" points="221.5,-228.5 221.5,-247.5 298.5,-247.5 298.5,-228.5 221.5,-228.5"/>
<text text-anchor="middle" x="260" y="-235.5" font-family="Helvetica,sans-Serif" font-size="10.00">writeIonStec</text>
</a>
</g>
</g>
<!-- Node1&#45;&gt;Node308 -->
<g id="edge25" class="edge">
<title>Node1&#45;&gt;Node308</title>
<path fill="none" stroke="midnightblue" d="M83.06,-507.78C90.01,-462.53 116.74,-327.62 196,-257 200.54,-252.96 205.9,-249.78 211.57,-247.27"/>
<polygon fill="midnightblue" stroke="midnightblue" points="213.12,-250.43 221.27,-243.66 210.68,-243.87 213.12,-250.43"/>
</g>
<!-- Node339 -->
<g id="node24" class="node">
<title>Node339</title>
<g id="a_node24"><a xlink:href="biasSINEXwrite_8cpp.html#a6c7446a6a1e0b4bd45275115a06b5c46" target="_top" xlink:title="Write stored bias output to SINEX file Return number of written biases (&#45;1 if file not found)">
<polygon fill="white" stroke="red" points="215.5,-190.5 215.5,-209.5 304.5,-209.5 304.5,-190.5 215.5,-190.5"/>
<text text-anchor="middle" x="260" y="-197.5" font-family="Helvetica,sans-Serif" font-size="10.00">writeBiasSinex</text>
</a>
</g>
</g>
<!-- Node1&#45;&gt;Node339 -->
<g id="edge26" class="edge">
<title>Node1&#45;&gt;Node339</title>
<path fill="none" stroke="midnightblue" d="M82.14,-507.79C86.68,-458.47 107.73,-301.4 196,-219 198.97,-216.23 202.33,-213.86 205.91,-211.84"/>
<polygon fill="midnightblue" stroke="midnightblue" points="207.62,-214.9 215.19,-207.49 204.65,-208.56 207.62,-214.9"/>
</g>
<!-- Node232 -->
<g id="node25" class="node">
<title>Node232</title>
<g id="a_node25"><a xlink:href="orbitProp_8cpp.html#a03c4ef0fbfbbf301403de6a3a8e27cc3" target="_top" xlink:title=" ">
<polygon fill="white" stroke="red" points="208.5,-152.5 208.5,-171.5 311.5,-171.5 311.5,-152.5 208.5,-152.5"/>
<text text-anchor="middle" x="260" y="-159.5" font-family="Helvetica,sans-Serif" font-size="10.00">outputOrbitConfig</text>
</a>
</g>
</g>
<!-- Node1&#45;&gt;Node232 -->
<g id="edge27" class="edge">
<title>Node1&#45;&gt;Node232</title>
<path fill="none" stroke="midnightblue" d="M81.41,-507.83C83.7,-454.73 98.61,-275.38 196,-181 197.63,-179.42 199.39,-177.97 201.25,-176.64"/>
<polygon fill="midnightblue" stroke="midnightblue" points="203.08,-179.62 209.93,-171.54 199.53,-173.59 203.08,-179.62"/>
</g>
<!-- Node367 -->
<g id="node26" class="node">
<title>Node367</title>
<g id="a_node26"><a xlink:href="mongoWrite_8cpp.html#a5cadd0b1a16ece0f12724f6f750b19ce" target="_top" xlink:title=" ">
<polygon fill="white" stroke="red" points="204,-114.5 204,-133.5 316,-133.5 316,-114.5 204,-114.5"/>
<text text-anchor="middle" x="260" y="-121.5" font-family="Helvetica,sans-Serif" font-size="10.00">mongoMeasSatStat</text>
</a>
</g>
</g>
<!-- Node1&#45;&gt;Node367 -->
<g id="edge28" class="edge">
<title>Node1&#45;&gt;Node367</title>
<path fill="none" stroke="midnightblue" d="M80.82,-507.78C81.01,-451.01 89.45,-249.44 196,-143 197.45,-141.55 199.02,-140.2 200.66,-138.96"/>
<polygon fill="midnightblue" stroke="midnightblue" points="202.78,-141.77 209.5,-133.57 199.14,-135.79 202.78,-141.77"/>
</g>
<!-- Node368 -->
<g id="node27" class="node">
<title>Node368</title>
<g id="a_node27"><a xlink:href="ppp_8cpp.html#a1a529bfb379c76f71546a80022b8f123" target="_top" xlink:title=" ">
<polygon fill="white" stroke="red" points="220,-76.5 220,-95.5 300,-95.5 300,-76.5 220,-76.5"/>
<text text-anchor="middle" x="260" y="-83.5" font-family="Helvetica,sans-Serif" font-size="10.00">outputApriori</text>
</a>
</g>
</g>
<!-- Node1&#45;&gt;Node368 -->
<g id="edge29" class="edge">
<title>Node1&#45;&gt;Node368</title>
<path fill="none" stroke="midnightblue" d="M80.33,-507.97C78.54,-448.05 80.09,-223.78 196,-105 200.14,-100.76 205.19,-97.45 210.61,-94.88"/>
<polygon fill="midnightblue" stroke="midnightblue" points="211.95,-98.12 219.99,-91.21 209.4,-91.6 211.95,-98.12"/>
</g>
<!-- Node370 -->
<g id="node28" class="node">
<title>Node370</title>
<g id="a_node28"><a xlink:href="main_8cpp.html#a47923d108129a8e2dc5d741ac5202f3a" target="_top" xlink:title=" ">
<polygon fill="white" stroke="red" points="197.5,-38.5 197.5,-57.5 322.5,-57.5 322.5,-38.5 197.5,-38.5"/>
<text text-anchor="middle" x="260" y="-45.5" font-family="Helvetica,sans-Serif" font-size="10.00">outputPredictedStates</text>
</a>
</g>
</g>
<!-- Node1&#45;&gt;Node370 -->
<g id="edge31" class="edge">
<title>Node1&#45;&gt;Node370</title>
<path fill="none" stroke="midnightblue" d="M82.8,-507.96C91.62,-436.68 132.42,-133.57 196,-67 197.39,-65.54 198.89,-64.2 200.47,-62.95"/>
<polygon fill="midnightblue" stroke="midnightblue" points="202.43,-65.86 209.01,-57.55 198.69,-59.94 202.43,-65.86"/>
</g>
<!-- Node375 -->
<g id="node29" class="node">
<title>Node375</title>
<g id="a_node29"><a xlink:href="mongoWrite_8cpp.html#a0936cc081f59031ee1253c909285838c" target="_top" xlink:title="Write states generating SSR corrections to Mongo DB.">
<polygon fill="white" stroke="red" points="210,-0.5 210,-19.5 310,-19.5 310,-0.5 210,-0.5"/>
<text text-anchor="middle" x="260" y="-7.5" font-family="Helvetica,sans-Serif" font-size="10.00">prepareSsrStates</text>
</a>
</g>
</g>
<!-- Node1&#45;&gt;Node375 -->
<g id="edge33" class="edge">
<title>Node1&#45;&gt;Node375</title>
<path fill="none" stroke="midnightblue" d="M82.51,-507.73C90.25,-432.47 127.78,-101.74 196,-29 197.59,-27.31 199.32,-25.76 201.16,-24.36"/>
<polygon fill="midnightblue" stroke="midnightblue" points="203.17,-27.23 209.86,-19.01 199.51,-21.27 203.17,-27.23"/>
</g>
<!-- Node66&#45;&gt;Node57 -->
<g id="edge7" class="edge">
<title>Node66&#45;&gt;Node57</title>
<path fill="none" stroke="midnightblue" d="M301.12,-836.41C322.1,-831.4 347.98,-825.21 370.23,-819.89"/>
<polygon fill="midnightblue" stroke="midnightblue" points="371.25,-823.25 380.17,-817.52 369.63,-816.44 371.25,-823.25"/>
</g>
<!-- Node109&#45;&gt;Node3 -->
<g id="edge10" class="edge">
<title>Node109&#45;&gt;Node3</title>
<path fill="none" stroke="midnightblue" d="M275.63,-798.39C289.96,-788.24 311.42,-770.97 324,-751 388.49,-648.62 411.44,-500.84 417.87,-447.84"/>
<polygon fill="midnightblue" stroke="midnightblue" points="421.37,-448.1 419.03,-437.76 414.41,-447.3 421.37,-448.1"/>
</g>
<!-- Node109&#45;&gt;Node57 -->
<g id="edge9" class="edge">
<title>Node109&#45;&gt;Node57</title>
<path fill="none" stroke="midnightblue" d="M286.55,-808C303.67,-808 327.13,-808 349.6,-808"/>
<polygon fill="midnightblue" stroke="midnightblue" points="349.83,-811.5 359.83,-808 349.83,-804.5 349.83,-811.5"/>
</g>
<!-- Node368&#45;&gt;Node3 -->
<g id="edge30" class="edge">
<title>Node368&#45;&gt;Node3</title>
<path fill="none" stroke="midnightblue" d="M300.24,-91.41C308.98,-94.24 317.55,-98.52 324,-105 410.33,-191.68 419.68,-352.29 420.21,-408.2"/>
<polygon fill="midnightblue" stroke="midnightblue" points="416.71,-408.47 420.21,-418.47 423.71,-408.47 416.71,-408.47"/>
</g>
<!-- Node370&#45;&gt;Node3 -->
<g id="edge32" class="edge">
<title>Node370&#45;&gt;Node3</title>
<path fill="none" stroke="midnightblue" d="M310.94,-57.6C315.78,-60.06 320.27,-63.14 324,-67 372.7,-117.34 407.56,-339.74 417.27,-408"/>
<polygon fill="midnightblue" stroke="midnightblue" points="413.85,-408.82 418.7,-418.24 420.78,-407.85 413.85,-408.82"/>
</g>
</g>
</svg>
