<?xml version="1.0" encoding="UTF-8" standalone="no"?>
<!DOCTYPE svg PUBLIC "-//W3C//DTD SVG 1.1//EN"
 "http://www.w3.org/Graphics/SVG/1.1/DTD/svg11.dtd">
<!-- Generated by graphviz version 2.43.0 (0)
 -->
<!-- Title: mainOncePerEpochPerStation Pages: 1 -->
<svg width="508pt" height="438pt"
 viewBox="0.00 0.00 508.00 438.26" xmlns="http://www.w3.org/2000/svg" xmlns:xlink="http://www.w3.org/1999/xlink">
<g id="graph0" class="graph" transform="scale(1 1) rotate(0) translate(4 434.26)">
<title>mainOncePerEpochPerStation</title>
<polygon fill="white" stroke="transparent" points="-4,4 -4,-434.26 504,-434.26 504,4 -4,4"/>
<!-- Node1 -->
<g id="node1" class="node">
<title>Node1</title>
<g id="a_node1"><a xlink:title="Perform operations for each station This function occurs in parallel with other stations &#45; ensure tha...">
<polygon fill="#bfbfbf" stroke="black" points="0,-209.5 0,-228.5 161,-228.5 161,-209.5 0,-209.5"/>
<text text-anchor="middle" x="80.5" y="-216.5" font-family="Helvetica,sans-Serif" font-size="10.00">mainOncePerEpochPerStation</text>
</a>
</g>
</g>
<!-- Node2 -->
<g id="node2" class="node">
<title>Node2</title>
<g id="a_node2"><a xlink:href="trace_8hpp.html#af5320371d0f15d74154b2b32d315684d" target="_top" xlink:title=" ">
<polygon fill="white" stroke="black" points="398,-337.5 398,-356.5 473,-356.5 473,-337.5 398,-337.5"/>
<text text-anchor="middle" x="435.5" y="-344.5" font-family="Helvetica,sans-Serif" font-size="10.00">getTraceFile</text>
</a>
</g>
</g>
<!-- Node1&#45;&gt;Node2 -->
<g id="edge1" class="edge">
<title>Node1&#45;&gt;Node2</title>
<path fill="none" stroke="midnightblue" d="M83.87,-228.93C92.36,-261.95 124.66,-368.32 197,-409 250.46,-439.06 279.43,-434.95 335,-409 357.58,-398.45 350.18,-379.71 371,-366 376.3,-362.51 382.26,-359.64 388.35,-357.29"/>
<polygon fill="midnightblue" stroke="midnightblue" points="389.63,-360.56 397.96,-354.01 387.36,-353.93 389.63,-360.56"/>
</g>
<!-- Node3 -->
<g id="node3" class="node">
<title>Node3</title>
<g id="a_node3"><a xlink:href="pea__snx_8cpp.html#a998d8ea068788de9c3ca4f572a114e44" target="_top" xlink:title=" ">
<polygon fill="white" stroke="red" points="197,-380.5 197,-399.5 335,-399.5 335,-380.5 197,-380.5"/>
<text text-anchor="middle" x="266" y="-387.5" font-family="Helvetica,sans-Serif" font-size="10.00">sinexPerEpochPerStation</text>
</a>
</g>
</g>
<!-- Node1&#45;&gt;Node3 -->
<g id="edge2" class="edge">
<title>Node1&#45;&gt;Node3</title>
<path fill="none" stroke="midnightblue" d="M85.96,-228.55C98.98,-255.4 139.7,-332.07 197,-371 199.93,-372.99 203.06,-374.77 206.31,-376.37"/>
<polygon fill="midnightblue" stroke="midnightblue" points="205.16,-379.68 215.73,-380.39 207.91,-373.25 205.16,-379.68"/>
</g>
<!-- Node4 -->
<g id="node4" class="node">
<title>Node4</title>
<g id="a_node4"><a xlink:href="structGTime.html#aaa8a379d11cd6c040a6bbe680c0e913e" target="_top" xlink:title="Uninitialised time for comparisons.">
<polygon fill="white" stroke="black" points="389.5,-294.5 389.5,-313.5 481.5,-313.5 481.5,-294.5 389.5,-294.5"/>
<text text-anchor="middle" x="435.5" y="-301.5" font-family="Helvetica,sans-Serif" font-size="10.00">GTime::noTime</text>
</a>
</g>
</g>
<!-- Node1&#45;&gt;Node4 -->
<g id="edge16" class="edge">
<title>Node1&#45;&gt;Node4</title>
<path fill="none" stroke="midnightblue" d="M114.79,-209.41C165.78,-196.74 264.66,-180.23 335,-219 361.24,-233.46 348.3,-256.44 371,-276 377.63,-281.71 385.6,-286.43 393.62,-290.27"/>
<polygon fill="midnightblue" stroke="midnightblue" points="392.43,-293.57 402.99,-294.37 395.23,-287.16 392.43,-293.57"/>
</g>
<!-- Node9 -->
<g id="node5" class="node">
<title>Node9</title>
<g id="a_node5"><a xlink:href="structACSConfig.html#acbb130e061ba4b7bf620e4fb68e1b794" target="_top" xlink:title="Set receiver options for a specific receiver using a hierarchy of sources.">
<polygon fill="white" stroke="red" points="371,-247.5 371,-266.5 500,-266.5 500,-247.5 371,-247.5"/>
<text text-anchor="middle" x="435.5" y="-254.5" font-family="Helvetica,sans-Serif" font-size="10.00">ACSConfig::getRecOpts</text>
</a>
</g>
</g>
<!-- Node1&#45;&gt;Node9 -->
<g id="edge19" class="edge">
<title>Node1&#45;&gt;Node9</title>
<path fill="none" stroke="midnightblue" d="M91.56,-209.33C110.4,-191.99 153.08,-156.15 197,-143 255.75,-125.4 279.16,-117.62 335,-143 378.24,-162.65 410.03,-211.41 424.98,-238.35"/>
<polygon fill="midnightblue" stroke="midnightblue" points="421.91,-240.04 429.71,-247.2 428.08,-236.73 421.91,-240.04"/>
</g>
<!-- Node25 -->
<g id="node6" class="node">
<title>Node25</title>
<g id="a_node6"><a xlink:href="preprocessor_8cpp.html#a66089b6d3c4e1fd48ff14fd9d0a1f933" target="_top" xlink:title=" ">
<polygon fill="white" stroke="red" points="226,-342.5 226,-361.5 306,-361.5 306,-342.5 226,-342.5"/>
<text text-anchor="middle" x="266" y="-349.5" font-family="Helvetica,sans-Serif" font-size="10.00">preprocessor</text>
</a>
</g>
</g>
<!-- Node1&#45;&gt;Node25 -->
<g id="edge6" class="edge">
<title>Node1&#45;&gt;Node25</title>
<path fill="none" stroke="midnightblue" d="M88.42,-228.59C104.75,-250.51 148.02,-304.58 197,-333 202.91,-336.43 209.48,-339.27 216.13,-341.61"/>
<polygon fill="midnightblue" stroke="midnightblue" points="215.28,-345.01 225.87,-344.69 217.39,-338.34 215.28,-345.01"/>
</g>
<!-- Node93 -->
<g id="node7" class="node">
<title>Node93</title>
<g id="a_node7"><a xlink:href="preprocessor_8cpp.html#a5bf581abef6389557c3fdd95086a5c42" target="_top" xlink:title=" ">
<polygon fill="white" stroke="red" points="225.5,-304.5 225.5,-323.5 306.5,-323.5 306.5,-304.5 225.5,-304.5"/>
<text text-anchor="middle" x="266" y="-311.5" font-family="Helvetica,sans-Serif" font-size="10.00">obsVariances</text>
</a>
</g>
</g>
<!-- Node1&#45;&gt;Node93 -->
<g id="edge9" class="edge">
<title>Node1&#45;&gt;Node93</title>
<path fill="none" stroke="midnightblue" d="M94.84,-228.5C115.81,-243.14 158.13,-271.45 197,-290 205.55,-294.08 214.98,-297.84 224.03,-301.12"/>
<polygon fill="midnightblue" stroke="midnightblue" points="223.04,-304.48 233.64,-304.48 225.35,-297.88 223.04,-304.48"/>
</g>
<!-- Node94 -->
<g id="node8" class="node">
<title>Node94</title>
<g id="a_node8"><a xlink:href="spp_8cpp.html#a333c250ce5992cffbf4b29bdb31ad957" target="_top" xlink:title="Compute receiver position, velocity, clock bias by single&#45;point positioning with pseudorange observab...">
<polygon fill="white" stroke="red" points="418,-375.5 418,-394.5 453,-394.5 453,-375.5 418,-375.5"/>
<text text-anchor="middle" x="435.5" y="-382.5" font-family="Helvetica,sans-Serif" font-size="10.00">SPP</text>
</a>
</g>
</g>
<!-- Node1&#45;&gt;Node94 -->
<g id="edge11" class="edge">
<title>Node1&#45;&gt;Node94</title>
<path fill="none" stroke="midnightblue" d="M109.39,-228.6C132.7,-236.53 166.89,-247.91 197,-257 257.9,-275.39 285.74,-254.75 335,-295 362.4,-317.39 343.85,-343.31 371,-366 381.31,-374.62 395.43,-379.33 407.74,-381.9"/>
<polygon fill="midnightblue" stroke="midnightblue" points="407.5,-385.41 417.94,-383.66 408.68,-378.51 407.5,-385.41"/>
</g>
<!-- Node172 -->
<g id="node9" class="node">
<title>Node172</title>
<g id="a_node9"><a xlink:href="ppp_8cpp.html#ac02b107ae8826ef55bf8e6e156ef8b63" target="_top" xlink:title="Compare estimated station position with benchmark in SINEX file.">
<polygon fill="white" stroke="red" points="210.5,-228.5 210.5,-247.5 321.5,-247.5 321.5,-228.5 210.5,-228.5"/>
<text text-anchor="middle" x="266" y="-235.5" font-family="Helvetica,sans-Serif" font-size="10.00">selectAprioriSource</text>
</a>
</g>
</g>
<!-- Node1&#45;&gt;Node172 -->
<g id="edge12" class="edge">
<title>Node1&#45;&gt;Node172</title>
<path fill="none" stroke="midnightblue" d="M161.19,-227.25C174.31,-228.61 187.77,-230 200.47,-231.32"/>
<polygon fill="midnightblue" stroke="midnightblue" points="200.16,-234.81 210.47,-232.35 200.88,-227.84 200.16,-234.81"/>
</g>
<!-- Node173 -->
<g id="node10" class="node">
<title>Node173</title>
<g id="a_node10"><a xlink:href="ionoMeas_8cpp.html#ab3f111d5e6d66de4751fbce467a29372" target="_top" xlink:title=" ">
<polygon fill="white" stroke="red" points="227,-152.5 227,-171.5 305,-171.5 305,-152.5 227,-152.5"/>
<text text-anchor="middle" x="266" y="-159.5" font-family="Helvetica,sans-Serif" font-size="10.00">obsIonoData</text>
</a>
</g>
</g>
<!-- Node1&#45;&gt;Node173 -->
<g id="edge17" class="edge">
<title>Node1&#45;&gt;Node173</title>
<path fill="none" stroke="midnightblue" d="M112.21,-209.46C143.04,-199.88 190.7,-185.08 224.58,-174.55"/>
<polygon fill="midnightblue" stroke="midnightblue" points="225.67,-177.88 234.19,-171.57 223.6,-171.2 225.67,-177.88"/>
</g>
<!-- Node197 -->
<g id="node11" class="node">
<title>Node197</title>
<g id="a_node11"><a xlink:href="attitude_8cpp.html#aa53a61f369f0b0065ee1a804f3285b41" target="_top" xlink:title="Attitude of receiver.">
<polygon fill="white" stroke="red" points="243,-76.5 243,-95.5 289,-95.5 289,-76.5 243,-76.5"/>
<text text-anchor="middle" x="266" y="-83.5" font-family="Helvetica,sans-Serif" font-size="10.00">recAtt</text>
</a>
</g>
</g>
<!-- Node1&#45;&gt;Node197 -->
<g id="edge20" class="edge">
<title>Node1&#45;&gt;Node197</title>
<path fill="none" stroke="midnightblue" d="M89.16,-209.45C106.35,-188.59 150.16,-138.58 197,-110 207.99,-103.29 221.13,-98.1 232.92,-94.29"/>
<polygon fill="midnightblue" stroke="midnightblue" points="234.27,-97.53 242.83,-91.29 232.25,-90.83 234.27,-97.53"/>
</g>
<!-- Node210 -->
<g id="node12" class="node">
<title>Node210</title>
<g id="a_node12"><a xlink:href="attitude_8cpp.html#a360c3ba909b48b37e45577a4f2cc0970" target="_top" xlink:title="exclude meas of eclipsing satellite (block IIA)">
<polygon fill="white" stroke="red" points="231,-38.5 231,-57.5 301,-57.5 301,-38.5 231,-38.5"/>
<text text-anchor="middle" x="266" y="-45.5" font-family="Helvetica,sans-Serif" font-size="10.00">testEclipse</text>
</a>
</g>
</g>
<!-- Node1&#45;&gt;Node210 -->
<g id="edge21" class="edge">
<title>Node1&#45;&gt;Node210</title>
<path fill="none" stroke="midnightblue" d="M85.96,-209.45C98.98,-182.6 139.7,-105.93 197,-67 204.21,-62.1 212.67,-58.45 221.12,-55.75"/>
<polygon fill="midnightblue" stroke="midnightblue" points="222.29,-59.05 230.97,-52.98 220.4,-52.32 222.29,-59.05"/>
</g>
<!-- Node211 -->
<g id="node13" class="node">
<title>Node211</title>
<g id="a_node13"><a xlink:href="rinexObsWrite_8cpp.html#ab670aa3a5c9514ee0611a095462c18aa" target="_top" xlink:title=" ">
<polygon fill="white" stroke="red" points="222,-0.5 222,-19.5 310,-19.5 310,-0.5 222,-0.5"/>
<text text-anchor="middle" x="266" y="-7.5" font-family="Helvetica,sans-Serif" font-size="10.00">writeRinexObs</text>
</a>
</g>
</g>
<!-- Node1&#45;&gt;Node211 -->
<g id="edge22" class="edge">
<title>Node1&#45;&gt;Node211</title>
<path fill="none" stroke="midnightblue" d="M84.49,-209.36C94.69,-178.14 131.16,-78.9 197,-29 201.52,-25.58 206.62,-22.77 211.96,-20.47"/>
<polygon fill="midnightblue" stroke="midnightblue" points="213.56,-23.6 221.72,-16.85 211.13,-17.04 213.56,-23.6"/>
</g>
<!-- Node3&#45;&gt;Node2 -->
<g id="edge5" class="edge">
<title>Node3&#45;&gt;Node2</title>
<path fill="none" stroke="midnightblue" d="M304.17,-380.46C328.87,-374.12 361.5,-365.74 387.92,-358.96"/>
<polygon fill="midnightblue" stroke="midnightblue" points="388.9,-362.32 397.72,-356.44 387.16,-355.54 388.9,-362.32"/>
</g>
<!-- Node3&#45;&gt;Node4 -->
<g id="edge3" class="edge">
<title>Node3&#45;&gt;Node4</title>
<path fill="none" stroke="midnightblue" d="M315.39,-380.4C322.27,-377.94 329.03,-374.86 335,-371 355.94,-357.48 350.68,-342.43 371,-328 376.75,-323.92 383.27,-320.44 389.9,-317.49"/>
<polygon fill="midnightblue" stroke="midnightblue" points="391.65,-320.56 399.61,-313.56 389.02,-314.07 391.65,-320.56"/>
</g>
<!-- Node3&#45;&gt;Node9 -->
<g id="edge4" class="edge">
<title>Node3&#45;&gt;Node9</title>
<path fill="none" stroke="midnightblue" d="M319.99,-380.47C325.44,-378 330.59,-374.89 335,-371 366.06,-343.57 341.98,-314.57 371,-285 376.64,-279.26 383.66,-274.6 390.95,-270.86"/>
<polygon fill="midnightblue" stroke="midnightblue" points="392.62,-273.95 400.26,-266.6 389.71,-267.58 392.62,-273.95"/>
</g>
<!-- Node25&#45;&gt;Node2 -->
<g id="edge7" class="edge">
<title>Node25&#45;&gt;Node2</title>
<path fill="none" stroke="midnightblue" d="M306.27,-350.83C330.58,-350.1 361.92,-349.17 387.54,-348.4"/>
<polygon fill="midnightblue" stroke="midnightblue" points="387.88,-351.89 397.77,-348.1 387.67,-344.9 387.88,-351.89"/>
</g>
<!-- Node25&#45;&gt;Node9 -->
<g id="edge8" class="edge">
<title>Node25&#45;&gt;Node9</title>
<path fill="none" stroke="midnightblue" d="M306.33,-345.67C316.26,-342.86 326.5,-338.81 335,-333 357.01,-317.95 350.12,-301.59 371,-285 378.2,-279.28 386.74,-274.49 395.2,-270.57"/>
<polygon fill="midnightblue" stroke="midnightblue" points="396.82,-273.68 404.62,-266.52 394.05,-267.25 396.82,-273.68"/>
</g>
<!-- Node93&#45;&gt;Node9 -->
<g id="edge10" class="edge">
<title>Node93&#45;&gt;Node9</title>
<path fill="none" stroke="midnightblue" d="M295.04,-304.46C322.94,-294.97 365.93,-280.33 396.81,-269.83"/>
<polygon fill="midnightblue" stroke="midnightblue" points="398.03,-273.11 406.37,-266.57 395.78,-266.48 398.03,-273.11"/>
</g>
<!-- Node172&#45;&gt;Node2 -->
<g id="edge15" class="edge">
<title>Node172&#45;&gt;Node2</title>
<path fill="none" stroke="midnightblue" d="M308.62,-247.54C317.96,-251.03 327.36,-255.72 335,-262 359.31,-282 346.91,-302.73 371,-323 376.21,-327.38 382.3,-331.01 388.62,-334"/>
<polygon fill="midnightblue" stroke="midnightblue" points="387.37,-337.27 397.94,-337.94 390.09,-330.83 387.37,-337.27"/>
</g>
<!-- Node172&#45;&gt;Node9 -->
<g id="edge13" class="edge">
<title>Node172&#45;&gt;Node9</title>
<path fill="none" stroke="midnightblue" d="M321.85,-244.22C334.31,-245.64 347.76,-247.16 360.87,-248.65"/>
<polygon fill="midnightblue" stroke="midnightblue" points="360.47,-252.13 370.8,-249.77 361.26,-245.17 360.47,-252.13"/>
</g>
<!-- Node172&#45;&gt;Node94 -->
<g id="edge14" class="edge">
<title>Node172&#45;&gt;Node94</title>
<path fill="none" stroke="midnightblue" d="M312.39,-247.61C320.71,-251.04 328.73,-255.7 335,-262 369.48,-296.69 335.69,-332.16 371,-366 380.87,-375.45 395.24,-380.23 407.82,-382.63"/>
<polygon fill="midnightblue" stroke="midnightblue" points="407.42,-386.1 417.83,-384.13 408.46,-379.18 407.42,-386.1"/>
</g>
<!-- Node173&#45;&gt;Node9 -->
<g id="edge18" class="edge">
<title>Node173&#45;&gt;Node9</title>
<path fill="none" stroke="midnightblue" d="M299.95,-171.56C311.34,-175.4 324,-180.28 335,-186 365.01,-201.61 396.23,-225.31 415.51,-240.97"/>
<polygon fill="midnightblue" stroke="midnightblue" points="413.3,-243.69 423.25,-247.34 417.76,-238.28 413.3,-243.69"/>
</g>
</g>
</svg>
