<?xml version="1.0" encoding="UTF-8" standalone="no"?>
<!DOCTYPE svg PUBLIC "-//W3C//DTD SVG 1.1//EN"
 "http://www.w3.org/Graphics/SVG/1.1/DTD/svg11.dtd">
<!-- Generated by graphviz version 2.43.0 (0)
 -->
<!-- Title: reloadInputFiles Pages: 1 -->
<svg width="267pt" height="522pt"
 viewBox="0.00 0.00 267.00 522.00" xmlns="http://www.w3.org/2000/svg" xmlns:xlink="http://www.w3.org/1999/xlink">
<g id="graph0" class="graph" transform="scale(1 1) rotate(0) translate(4 518)">
<title>reloadInputFiles</title>
<polygon fill="white" stroke="transparent" points="-4,4 -4,-518 263,-518 263,4 -4,4"/>
<!-- Node1 -->
<g id="node1" class="node">
<title>Node1</title>
<g id="a_node1"><a xlink:title=" ">
<polygon fill="#bfbfbf" stroke="black" points="0,-247.5 0,-266.5 94,-266.5 94,-247.5 0,-247.5"/>
<text text-anchor="middle" x="47" y="-254.5" font-family="Helvetica,sans-Serif" font-size="10.00">reloadInputFiles</text>
</a>
</g>
</g>
<!-- Node2 -->
<g id="node2" class="node">
<title>Node2</title>
<g id="a_node2"><a xlink:href="main_8cpp.html#a32bd79fa27f816f5f13badbebe4e15b2" target="_top" xlink:title="Create a station object from a file.">
<polygon fill="white" stroke="red" points="140,-494.5 140,-513.5 249,-513.5 249,-494.5 140,-494.5"/>
<text text-anchor="middle" x="194.5" y="-501.5" font-family="Helvetica,sans-Serif" font-size="10.00">addStationDataFile</text>
</a>
</g>
</g>
<!-- Node1&#45;&gt;Node2 -->
<g id="edge1" class="edge">
<title>Node1&#45;&gt;Node2</title>
<path fill="none" stroke="midnightblue" d="M48.51,-266.89C50.89,-302.05 63.72,-422.24 130,-485 134.09,-488.88 138.95,-491.97 144.12,-494.43"/>
</g>
<!-- Node12 -->
<g id="node3" class="node">
<title>Node12</title>
<g id="a_node3"><a xlink:href="main_8cpp.html#a34804c3a0ffc29cad1548a9a3af91d45" target="_top" xlink:title=" ">
<polygon fill="white" stroke="red" points="140,-456.5 140,-475.5 249,-475.5 249,-456.5 140,-456.5"/>
<text text-anchor="middle" x="194.5" y="-463.5" font-family="Helvetica,sans-Serif" font-size="10.00">removeInvalidFiles</text>
</a>
</g>
</g>
<!-- Node1&#45;&gt;Node12 -->
<g id="edge2" class="edge">
<title>Node1&#45;&gt;Node12</title>
<path fill="none" stroke="midnightblue" d="M49.26,-266.54C53.85,-297.46 72.56,-395.9 130,-447 134.38,-450.9 139.54,-454 144.99,-456.47"/>
</g>
<!-- Node13 -->
<g id="node4" class="node">
<title>Node13</title>
<g id="a_node4"><a xlink:href="main_8cpp.html#a044cd088d8a6d17451b655ea49b820f7" target="_top" xlink:title=" ">
<polygon fill="white" stroke="red" points="157,-418.5 157,-437.5 232,-437.5 232,-418.5 157,-418.5"/>
<text text-anchor="middle" x="194.5" y="-425.5" font-family="Helvetica,sans-Serif" font-size="10.00">fileChanged</text>
</a>
</g>
</g>
<!-- Node1&#45;&gt;Node13 -->
<g id="edge3" class="edge">
<title>Node1&#45;&gt;Node13</title>
<path fill="none" stroke="midnightblue" d="M50.47,-266.87C57.73,-293.89 81.64,-369.62 130,-409 137.67,-415.25 147.36,-419.44 156.84,-422.26"/>
</g>
<!-- Node14 -->
<g id="node5" class="node">
<title>Node14</title>
<g id="a_node5"><a xlink:href="antenna_8cpp.html#ae23e7dede27378f5a445120a5ae13e62" target="_top" xlink:title="Read antex file.">
<polygon fill="white" stroke="red" points="159.5,-380.5 159.5,-399.5 229.5,-399.5 229.5,-380.5 159.5,-380.5"/>
<text text-anchor="middle" x="194.5" y="-387.5" font-family="Helvetica,sans-Serif" font-size="10.00">readantexf</text>
</a>
</g>
</g>
<!-- Node1&#45;&gt;Node14 -->
<g id="edge4" class="edge">
<title>Node1&#45;&gt;Node14</title>
<path fill="none" stroke="midnightblue" d="M52.2,-266.59C62.3,-288.51 90.09,-342.57 130,-371 138.62,-377.14 149.25,-381.32 159.32,-384.16"/>
</g>
<!-- Node17 -->
<g id="node6" class="node">
<title>Node17</title>
<g id="a_node6"><a xlink:href="erp_8cpp.html#a78f79d88229277c3a4097793046f4d9b" target="_top" xlink:title="read earth rotation parameters">
<polygon fill="white" stroke="black" points="167.5,-342.5 167.5,-361.5 221.5,-361.5 221.5,-342.5 167.5,-342.5"/>
<text text-anchor="middle" x="194.5" y="-349.5" font-family="Helvetica,sans-Serif" font-size="10.00">readerp</text>
</a>
</g>
</g>
<!-- Node1&#45;&gt;Node17 -->
<g id="edge5" class="edge">
<title>Node1&#45;&gt;Node17</title>
<path fill="none" stroke="midnightblue" d="M55.79,-266.66C69.26,-282.74 98.48,-314.99 130,-333 141.49,-339.56 155.47,-344.07 167.39,-347.03"/>
</g>
<!-- Node18 -->
<g id="node7" class="node">
<title>Node18</title>
<g id="a_node7"><a xlink:href="common_2orbits_8cpp.html#acb6ef72cfd9fedf32fed4c3e94c57ae6" target="_top" xlink:title="read orbit file from POD">
<polygon fill="white" stroke="red" points="164,-304.5 164,-323.5 225,-323.5 225,-304.5 164,-304.5"/>
<text text-anchor="middle" x="194.5" y="-311.5" font-family="Helvetica,sans-Serif" font-size="10.00">readorbit</text>
</a>
</g>
</g>
<!-- Node1&#45;&gt;Node18 -->
<g id="edge6" class="edge">
<title>Node1&#45;&gt;Node18</title>
<path fill="none" stroke="midnightblue" d="M66.56,-266.53C82.97,-274.73 107.7,-286.55 130,-295 140.87,-299.12 153.04,-302.95 163.81,-306.07"/>
</g>
<!-- Node26 -->
<g id="node8" class="node">
<title>Node26</title>
<g id="a_node8"><a xlink:href="sp3_8cpp.html#a7bb0b718cb690d2c707c50b532302c01" target="_top" xlink:title=" ">
<polygon fill="white" stroke="red" points="166.5,-266.5 166.5,-285.5 222.5,-285.5 222.5,-266.5 166.5,-266.5"/>
<text text-anchor="middle" x="194.5" y="-273.5" font-family="Helvetica,sans-Serif" font-size="10.00">orb2sp3</text>
</a>
</g>
</g>
<!-- Node1&#45;&gt;Node26 -->
<g id="edge7" class="edge">
<title>Node1&#45;&gt;Node26</title>
<path fill="none" stroke="midnightblue" d="M94.04,-263.01C117.85,-266.12 146.09,-269.81 166.39,-272.46"/>
</g>
<!-- Node28 -->
<g id="node9" class="node">
<title>Node28</title>
<g id="a_node9"><a xlink:href="sp3_8cpp.html#a318ada9d3e4098983bc500ae3985f4e3" target="_top" xlink:title=" ">
<polygon fill="white" stroke="red" points="151.5,-228.5 151.5,-247.5 237.5,-247.5 237.5,-228.5 151.5,-228.5"/>
<text text-anchor="middle" x="194.5" y="-235.5" font-family="Helvetica,sans-Serif" font-size="10.00">readSp3ToNav</text>
</a>
</g>
</g>
<!-- Node1&#45;&gt;Node28 -->
<g id="edge8" class="edge">
<title>Node1&#45;&gt;Node28</title>
<path fill="none" stroke="midnightblue" d="M94.04,-250.99C112.35,-248.6 133.29,-245.86 151.22,-243.52"/>
</g>
<!-- Node34 -->
<g id="node10" class="node">
<title>Node34</title>
<g id="a_node10"><a xlink:href="structFileRinexStream.html#a0af61622a3f9a050593e179fbe51c6b0" target="_top" xlink:title=" ">
<polygon fill="white" stroke="red" points="130,-190.5 130,-209.5 259,-209.5 259,-190.5 130,-190.5"/>
<text text-anchor="middle" x="194.5" y="-197.5" font-family="Helvetica,sans-Serif" font-size="10.00">FileRinexStream::parse</text>
</a>
</g>
</g>
<!-- Node1&#45;&gt;Node34 -->
<g id="edge9" class="edge">
<title>Node1&#45;&gt;Node34</title>
<path fill="none" stroke="midnightblue" d="M66.56,-247.47C82.97,-239.27 107.7,-227.45 130,-219 139.04,-215.57 148.98,-212.35 158.26,-209.57"/>
</g>
<!-- Node73 -->
<g id="node11" class="node">
<title>Node73</title>
<g id="a_node11"><a xlink:href="preceph_8cpp.html#af673ac04c3dea7304383eb4ef76318ba" target="_top" xlink:title=" ">
<polygon fill="white" stroke="red" points="166.5,-152.5 166.5,-171.5 222.5,-171.5 222.5,-152.5 166.5,-152.5"/>
<text text-anchor="middle" x="194.5" y="-159.5" font-family="Helvetica,sans-Serif" font-size="10.00">readdcb</text>
</a>
</g>
</g>
<!-- Node1&#45;&gt;Node73 -->
<g id="edge10" class="edge">
<title>Node1&#45;&gt;Node73</title>
<path fill="none" stroke="midnightblue" d="M55.79,-247.34C69.26,-231.26 98.48,-199.01 130,-181 141.19,-174.61 154.74,-170.17 166.45,-167.2"/>
</g>
<!-- Node74 -->
<g id="node12" class="node">
<title>Node74</title>
<g id="a_node12"><a xlink:href="biasSINEXread_8cpp.html#aa6bc06db6eefa65ed8451221a83d74f2" target="_top" xlink:title="Read and store values from SINEX files.">
<polygon fill="white" stroke="red" points="151.5,-114.5 151.5,-133.5 237.5,-133.5 237.5,-114.5 151.5,-114.5"/>
<text text-anchor="middle" x="194.5" y="-121.5" font-family="Helvetica,sans-Serif" font-size="10.00">readBiasSinex</text>
</a>
</g>
</g>
<!-- Node1&#45;&gt;Node74 -->
<g id="edge11" class="edge">
<title>Node1&#45;&gt;Node74</title>
<path fill="none" stroke="midnightblue" d="M52.2,-247.41C62.3,-225.49 90.09,-171.43 130,-143 136.37,-138.46 143.84,-134.99 151.37,-132.34"/>
</g>
<!-- Node80 -->
<g id="node13" class="node">
<title>Node80</title>
<g id="a_node13"><a xlink:href="ionex_8cpp.html#af7d8f9d6888c0958e6ae592714f26f0d" target="_top" xlink:title=" ">
<polygon fill="white" stroke="red" points="168,-76.5 168,-95.5 221,-95.5 221,-76.5 168,-76.5"/>
<text text-anchor="middle" x="194.5" y="-83.5" font-family="Helvetica,sans-Serif" font-size="10.00">readtec</text>
</a>
</g>
</g>
<!-- Node1&#45;&gt;Node80 -->
<g id="edge12" class="edge">
<title>Node1&#45;&gt;Node80</title>
<path fill="none" stroke="midnightblue" d="M50.47,-247.13C57.73,-220.11 81.64,-144.38 130,-105 140.71,-96.28 155.33,-91.56 167.84,-89.01"/>
</g>
<!-- Node87 -->
<g id="node14" class="node">
<title>Node87</title>
<g id="a_node14"><a xlink:href="sinex_8cpp.html#aa7095ca5f93f6529a75020f467ac4f7a" target="_top" xlink:title=" ">
<polygon fill="white" stroke="red" points="159.5,-38.5 159.5,-57.5 229.5,-57.5 229.5,-38.5 159.5,-38.5"/>
<text text-anchor="middle" x="194.5" y="-45.5" font-family="Helvetica,sans-Serif" font-size="10.00">read_sinex</text>
</a>
</g>
</g>
<!-- Node1&#45;&gt;Node87 -->
<g id="edge13" class="edge">
<title>Node1&#45;&gt;Node87</title>
<path fill="none" stroke="midnightblue" d="M49.26,-247.46C53.85,-216.54 72.56,-118.1 130,-67 138.17,-59.73 149.02,-55.24 159.44,-52.47"/>
</g>
<!-- Node142 -->
<g id="node15" class="node">
<title>Node142</title>
<g id="a_node15"><a xlink:href="common_2orbits_8cpp.html#abe596310a545360e2a3c23c0d7600c52" target="_top" xlink:title=" ">
<polygon fill="white" stroke="black" points="164.5,-0.5 164.5,-19.5 224.5,-19.5 224.5,-0.5 164.5,-0.5"/>
<text text-anchor="middle" x="194.5" y="-7.5" font-family="Helvetica,sans-Serif" font-size="10.00">readegm</text>
</a>
</g>
</g>
<!-- Node1&#45;&gt;Node142 -->
<g id="edge14" class="edge">
<title>Node1&#45;&gt;Node142</title>
<path fill="none" stroke="midnightblue" d="M48.51,-247.11C50.89,-211.95 63.72,-91.76 130,-29 139.27,-20.22 152.44,-15.48 164.39,-12.93"/>
</g>
</g>
</svg>
