<?xml version="1.0" encoding="UTF-8" standalone="no"?>
<!DOCTYPE svg PUBLIC "-//W3C//DTD SVG 1.1//EN"
 "http://www.w3.org/Graphics/SVG/1.1/DTD/svg11.dtd">
<!-- Generated by graphviz version 2.43.0 (0)
 -->
<!-- Title: mainOncePerEpochPerSatellite Pages: 1 -->
<svg width="604pt" height="312pt"
 viewBox="0.00 0.00 604.00 312.01" xmlns="http://www.w3.org/2000/svg" xmlns:xlink="http://www.w3.org/1999/xlink">
<g id="graph0" class="graph" transform="scale(1 1) rotate(0) translate(4 308.01)">
<title>mainOncePerEpochPerSatellite</title>
<polygon fill="white" stroke="transparent" points="-4,4 -4,-308.01 600,-308.01 600,4 -4,4"/>
<!-- Node1 -->
<g id="node1" class="node">
<title>Node1</title>
<g id="a_node1"><a xlink:title=" ">
<polygon fill="#bfbfbf" stroke="black" points="0,-152.5 0,-171.5 167,-171.5 167,-152.5 0,-152.5"/>
<text text-anchor="middle" x="83.5" y="-159.5" font-family="Helvetica,sans-Serif" font-size="10.00">mainOncePerEpochPerSatellite</text>
</a>
</g>
</g>
<!-- Node2 -->
<g id="node2" class="node">
<title>Node2</title>
<g id="a_node2"><a xlink:href="structACSConfig.html#aeba33c340b4695e47f2d41bf97402400" target="_top" xlink:title="Set satellite options for a specific satellite using a hierarchy of sources.">
<polygon fill="white" stroke="red" points="328,-190.5 328,-209.5 456,-209.5 456,-190.5 328,-190.5"/>
<text text-anchor="middle" x="392" y="-197.5" font-family="Helvetica,sans-Serif" font-size="10.00">ACSConfig::getSatOpts</text>
</a>
</g>
</g>
<!-- Node1&#45;&gt;Node2 -->
<g id="edge1" class="edge">
<title>Node1&#45;&gt;Node2</title>
<path fill="none" stroke="midnightblue" d="M89.55,-171.51C103.53,-196.7 145.56,-264.9 203,-290 239.25,-305.84 258.29,-310.7 292,-290 322.15,-271.48 300.88,-241.72 328,-219 332.64,-215.11 338.06,-212.02 343.74,-209.56"/>
</g>
<!-- Node3 -->
<g id="node3" class="node">
<title>Node3</title>
<g id="a_node3"><a xlink:href="structSatSys.html#aec6d07b90d1e8172b8b6a6966abef4fd" target="_top" xlink:title="Returns a std::string of this satellite&#39;s id.">
<polygon fill="white" stroke="red" points="511.5,-228.5 511.5,-247.5 576.5,-247.5 576.5,-228.5 511.5,-228.5"/>
<text text-anchor="middle" x="544" y="-235.5" font-family="Helvetica,sans-Serif" font-size="10.00">SatSys::id</text>
</a>
</g>
</g>
<!-- Node1&#45;&gt;Node3 -->
<g id="edge6" class="edge">
<title>Node1&#45;&gt;Node3</title>
<path fill="none" stroke="midnightblue" d="M102.19,-171.57C125.02,-183.67 166.2,-204.65 203,-219 308.94,-260.3 342.95,-269.2 456,-257 474.6,-254.99 495.05,-250.64 511.45,-246.6"/>
</g>
<!-- Node12 -->
<g id="node4" class="node">
<title>Node12</title>
<g id="a_node4"><a xlink:href="structSatSys.html#a01de9e9cee76346f43550516bba9558e" target="_top" xlink:title=" ">
<polygon fill="white" stroke="black" points="492,-152.5 492,-171.5 596,-171.5 596,-152.5 492,-152.5"/>
<text text-anchor="middle" x="544" y="-159.5" font-family="Helvetica,sans-Serif" font-size="10.00">SatSys::blockType</text>
</a>
</g>
</g>
<!-- Node1&#45;&gt;Node12 -->
<g id="edge9" class="edge">
<title>Node1&#45;&gt;Node12</title>
<path fill="none" stroke="midnightblue" d="M167,-162C261.36,-162 412.95,-162 491.73,-162"/>
</g>
<!-- Node13 -->
<g id="node5" class="node">
<title>Node13</title>
<g id="a_node5"><a xlink:href="structSatSys.html#a1da3994cf03ff0ec115928954c9307bb" target="_top" xlink:title=" ">
<polygon fill="white" stroke="black" points="507.5,-76.5 507.5,-95.5 580.5,-95.5 580.5,-76.5 507.5,-76.5"/>
<text text-anchor="middle" x="544" y="-83.5" font-family="Helvetica,sans-Serif" font-size="10.00">SatSys::svn</text>
</a>
</g>
</g>
<!-- Node1&#45;&gt;Node13 -->
<g id="edge5" class="edge">
<title>Node1&#45;&gt;Node13</title>
<path fill="none" stroke="midnightblue" d="M96.55,-171.73C130.57,-197.96 229.02,-265.16 292,-219 334.86,-187.59 286.57,-138.27 328,-105 379.13,-63.94 460.83,-70.14 507.41,-78.17"/>
</g>
<!-- Node20 -->
<g id="node6" class="node">
<title>Node20</title>
<g id="a_node6"><a xlink:href="structSatSys.html#a2ddfec2df97dea21d4c8b04502d75c3a" target="_top" xlink:title=" ">
<polygon fill="white" stroke="black" points="203,-190.5 203,-209.5 292,-209.5 292,-190.5 203,-190.5"/>
<text text-anchor="middle" x="247.5" y="-197.5" font-family="Helvetica,sans-Serif" font-size="10.00">SatSys::setSvn</text>
</a>
</g>
</g>
<!-- Node1&#45;&gt;Node20 -->
<g id="edge7" class="edge">
<title>Node1&#45;&gt;Node20</title>
<path fill="none" stroke="midnightblue" d="M125.38,-171.59C150.03,-177.37 181.32,-184.71 205.91,-190.48"/>
</g>
<!-- Node21 -->
<g id="node7" class="node">
<title>Node21</title>
<g id="a_node7"><a xlink:href="structSatSys.html#aa2f7732319c19c6aa872606483a9c471" target="_top" xlink:title=" ">
<polygon fill="white" stroke="black" points="332,-114.5 332,-133.5 452,-133.5 452,-114.5 332,-114.5"/>
<text text-anchor="middle" x="392" y="-121.5" font-family="Helvetica,sans-Serif" font-size="10.00">SatSys::setBlockType</text>
</a>
</g>
</g>
<!-- Node1&#45;&gt;Node21 -->
<g id="edge10" class="edge">
<title>Node1&#45;&gt;Node21</title>
<path fill="none" stroke="midnightblue" d="M161.45,-152.46C214.29,-145.91 283.38,-137.34 331.91,-131.33"/>
</g>
<!-- Node22 -->
<g id="node8" class="node">
<title>Node22</title>
<g id="a_node8"><a xlink:href="ephemeris_8cpp.html#a86b1602f8ee3a6b7220b506825592953" target="_top" xlink:title="compute satellite position and clock satellite clock does not include code bias correction (tgd or bg...">
<polygon fill="white" stroke="red" points="367.5,-228.5 367.5,-247.5 416.5,-247.5 416.5,-228.5 367.5,-228.5"/>
<text text-anchor="middle" x="392" y="-235.5" font-family="Helvetica,sans-Serif" font-size="10.00">satpos</text>
</a>
</g>
</g>
<!-- Node1&#45;&gt;Node22 -->
<g id="edge12" class="edge">
<title>Node1&#45;&gt;Node22</title>
<path fill="none" stroke="midnightblue" d="M167.16,-156.37C206.71,-156.89 253.68,-162.4 292,-181 312.93,-191.16 308.2,-206.79 328,-219 339.96,-226.38 354.97,-231.05 367.34,-233.92"/>
</g>
<!-- Node42 -->
<g id="node9" class="node">
<title>Node42</title>
<g id="a_node9"><a xlink:href="erp_8cpp.html#a6c6ecf3c5c7d4367d78ad08621996580" target="_top" xlink:title="Get earth rotation parameter values.">
<polygon fill="white" stroke="red" points="223.5,-38.5 223.5,-57.5 271.5,-57.5 271.5,-38.5 223.5,-38.5"/>
<text text-anchor="middle" x="247.5" y="-45.5" font-family="Helvetica,sans-Serif" font-size="10.00">getErp</text>
</a>
</g>
</g>
<!-- Node1&#45;&gt;Node42 -->
<g id="edge14" class="edge">
<title>Node1&#45;&gt;Node42</title>
<path fill="none" stroke="midnightblue" d="M95.86,-152.48C116.51,-135.38 161.86,-98.77 203,-72 210.81,-66.92 219.77,-61.85 227.52,-57.7"/>
</g>
<!-- Node55 -->
<g id="node10" class="node">
<title>Node55</title>
<g id="a_node10"><a xlink:href="attitude_8cpp.html#a4df4c941d10f377f53aaecc12b7bedb7" target="_top" xlink:title="Update sat nominal/model yaws.">
<polygon fill="white" stroke="red" points="204.5,-0.5 204.5,-19.5 290.5,-19.5 290.5,-0.5 204.5,-0.5"/>
<text text-anchor="middle" x="247.5" y="-7.5" font-family="Helvetica,sans-Serif" font-size="10.00">updateSatAtts</text>
</a>
</g>
</g>
<!-- Node1&#45;&gt;Node55 -->
<g id="edge15" class="edge">
<title>Node1&#45;&gt;Node55</title>
<path fill="none" stroke="midnightblue" d="M90.86,-152.35C107,-128.5 151.93,-66.04 203,-29 208.07,-25.32 213.96,-22.16 219.75,-19.52"/>
</g>
<!-- Node2&#45;&gt;Node3 -->
<g id="edge2" class="edge">
<title>Node2&#45;&gt;Node3</title>
<path fill="none" stroke="midnightblue" d="M430.85,-209.59C455.67,-215.88 487.76,-224.01 511.25,-229.96"/>
</g>
<!-- Node2&#45;&gt;Node12 -->
<g id="edge3" class="edge">
<title>Node2&#45;&gt;Node12</title>
<path fill="none" stroke="midnightblue" d="M430.85,-190.41C453.68,-184.63 482.64,-177.29 505.42,-171.52"/>
</g>
<!-- Node2&#45;&gt;Node13 -->
<g id="edge4" class="edge">
<title>Node2&#45;&gt;Node13</title>
<path fill="none" stroke="midnightblue" d="M405.53,-190.48C433.7,-169.07 501.76,-117.34 530.19,-95.74"/>
</g>
<!-- Node20&#45;&gt;Node13 -->
<g id="edge8" class="edge">
<title>Node20&#45;&gt;Node13</title>
<path fill="none" stroke="midnightblue" d="M251.02,-190.26C258.12,-165.11 280.9,-98.19 328,-72 389.62,-37.73 477.06,-61.52 518.89,-76.45"/>
</g>
<!-- Node21&#45;&gt;Node12 -->
<g id="edge11" class="edge">
<title>Node21&#45;&gt;Node12</title>
<path fill="none" stroke="midnightblue" d="M430.85,-133.59C453.68,-139.37 482.64,-146.71 505.42,-152.48"/>
</g>
<!-- Node22&#45;&gt;Node3 -->
<g id="edge13" class="edge">
<title>Node22&#45;&gt;Node3</title>
<path fill="none" stroke="midnightblue" d="M416.77,-238C442.29,-238 482.99,-238 511.24,-238"/>
</g>
<!-- Node55&#45;&gt;Node2 -->
<g id="edge16" class="edge">
<title>Node55&#45;&gt;Node2</title>
<path fill="none" stroke="midnightblue" d="M279.7,-19.65C284.27,-22.13 288.58,-25.2 292,-29 327.53,-68.51 299.3,-98.29 328,-143 340.75,-162.86 362.17,-180.16 376.44,-190.34"/>
</g>
</g>
</svg>
