<?xml version="1.0" encoding="UTF-8" standalone="no"?>
<!DOCTYPE svg PUBLIC "-//W3C//DTD SVG 1.1//EN"
 "http://www.w3.org/Graphics/SVG/1.1/DTD/svg11.dtd">
<!-- Generated by graphviz version 2.43.0 (0)
 -->
<!-- Title: createTracefiles Pages: 1 -->
<svg width="388pt" height="201pt"
 viewBox="0.00 0.00 388.00 200.88" xmlns="http://www.w3.org/2000/svg" xmlns:xlink="http://www.w3.org/1999/xlink">
<g id="graph0" class="graph" transform="scale(1 1) rotate(0) translate(4 196.88)">
<title>createTracefiles</title>
<polygon fill="white" stroke="transparent" points="-4,4 -4,-196.88 384,-196.88 384,4 -4,4"/>
<!-- Node1 -->
<g id="node1" class="node">
<title>Node1</title>
<g id="a_node1"><a xlink:title="Create new empty trace files only when required when the filename is changed.">
<polygon fill="#bfbfbf" stroke="black" points="0,-78.38 0,-97.38 95,-97.38 95,-78.38 0,-78.38"/>
<text text-anchor="middle" x="47.5" y="-85.38" font-family="Helvetica,sans-Serif" font-size="10.00">createTracefiles</text>
</a>
</g>
</g>
<!-- Node2 -->
<g id="node2" class="node">
<title>Node2</title>
<g id="a_node2"><a xlink:href="main_8cpp.html#abd3e80e328e3d4afed1001aa34ca9d16" target="_top" xlink:title="Returns (posix) for current epoch.">
<polygon fill="white" stroke="red" points="148.5,-173.38 148.5,-192.38 245.5,-192.38 245.5,-173.38 148.5,-173.38"/>
<text text-anchor="middle" x="197" y="-180.38" font-family="Helvetica,sans-Serif" font-size="10.00">currentLogptime</text>
</a>
</g>
</g>
<!-- Node1&#45;&gt;Node2 -->
<g id="edge1" class="edge">
<title>Node1&#45;&gt;Node2</title>
<path fill="none" stroke="midnightblue" d="M56.34,-97.56C69.89,-113.66 99.3,-145.96 131,-163.88 137.76,-167.69 145.35,-170.81 152.9,-173.32"/>
</g>
<!-- Node5 -->
<g id="node3" class="node">
<title>Node5</title>
<g id="a_node3"><a xlink:href="main_8cpp.html#a2206cd179576b10f99dbe50e8e7ddc5a" target="_top" xlink:title="Create directories if required.">
<polygon fill="white" stroke="red" points="146.5,-135.38 146.5,-154.38 247.5,-154.38 247.5,-135.38 146.5,-135.38"/>
<text text-anchor="middle" x="197" y="-142.38" font-family="Helvetica,sans-Serif" font-size="10.00">createDirectories</text>
</a>
</g>
</g>
<!-- Node1&#45;&gt;Node5 -->
<g id="edge2" class="edge">
<title>Node1&#45;&gt;Node5</title>
<path fill="none" stroke="midnightblue" d="M67.17,-97.44C83.68,-105.65 108.55,-117.48 131,-125.88 140.25,-129.34 150.43,-132.57 159.93,-135.36"/>
</g>
<!-- Node8 -->
<g id="node4" class="node">
<title>Node8</title>
<g id="a_node4"><a xlink:href="main_8cpp.html#a260404f91dd3104c4f794029943c96ab" target="_top" xlink:title=" ">
<polygon fill="white" stroke="red" points="141,-97.38 141,-116.38 253,-116.38 253,-97.38 141,-97.38"/>
<text text-anchor="middle" x="197" y="-104.38" font-family="Helvetica,sans-Serif" font-size="10.00">createNewTraceFile</text>
</a>
</g>
</g>
<!-- Node1&#45;&gt;Node8 -->
<g id="edge3" class="edge">
<title>Node1&#45;&gt;Node8</title>
<path fill="none" stroke="midnightblue" d="M95.17,-93.89C109.69,-95.76 125.83,-97.84 140.87,-99.77"/>
</g>
<!-- Node7 -->
<g id="node5" class="node">
<title>Node7</title>
<g id="a_node5"><a xlink:href="acsConfig_8cpp.html#a611c3086ccdeb877c19a6b1d603227a4" target="_top" xlink:title="search for and replace section of string">
<polygon fill="white" stroke="black" points="299,-21.38 299,-40.38 380,-40.38 380,-21.38 299,-21.38"/>
<text text-anchor="middle" x="339.5" y="-28.38" font-family="Helvetica,sans-Serif" font-size="10.00">replaceString</text>
</a>
</g>
</g>
<!-- Node1&#45;&gt;Node7 -->
<g id="edge8" class="edge">
<title>Node1&#45;&gt;Node7</title>
<path fill="none" stroke="midnightblue" d="M55.05,-78.28C67.48,-61.05 96.35,-25.4 131,-11.88 192.84,12.27 272.64,-7.96 312.88,-21.36"/>
</g>
<!-- Node11 -->
<g id="node6" class="node">
<title>Node11</title>
<g id="a_node6"><a xlink:href="algebraTrace_8hpp.html#a912bbc3ba390c6b3a01f7cae26a53588" target="_top" xlink:title="Output filter state to a file for later reading.">
<polygon fill="white" stroke="black" points="154,-59.38 154,-78.38 240,-78.38 240,-59.38 154,-59.38"/>
<text text-anchor="middle" x="197" y="-66.38" font-family="Helvetica,sans-Serif" font-size="10.00">spitFilterToFile</text>
</a>
</g>
</g>
<!-- Node1&#45;&gt;Node11 -->
<g id="edge5" class="edge">
<title>Node1&#45;&gt;Node11</title>
<path fill="none" stroke="midnightblue" d="M95.17,-81.86C113.91,-79.45 135.35,-76.69 153.63,-74.33"/>
</g>
<!-- Node12 -->
<g id="node7" class="node">
<title>Node12</title>
<g id="a_node7"><a xlink:href="rinexClkWrite_8cpp.html#a87a652e05ec91c35c1e56c0650176dfa" target="_top" xlink:title=" ">
<polygon fill="white" stroke="red" points="131,-21.38 131,-40.38 263,-40.38 263,-21.38 131,-21.38"/>
<text text-anchor="middle" x="197" y="-28.38" font-family="Helvetica,sans-Serif" font-size="10.00">getSysOutputFilenames</text>
</a>
</g>
</g>
<!-- Node1&#45;&gt;Node12 -->
<g id="edge6" class="edge">
<title>Node1&#45;&gt;Node12</title>
<path fill="none" stroke="midnightblue" d="M67.17,-78.32C83.68,-70.1 108.55,-58.27 131,-49.88 140.25,-46.41 150.43,-43.18 159.93,-40.39"/>
</g>
<!-- Node8&#45;&gt;Node7 -->
<g id="edge4" class="edge">
<title>Node8&#45;&gt;Node7</title>
<path fill="none" stroke="midnightblue" d="M239.09,-97.32C247.22,-94.75 255.54,-91.62 263,-87.88 288.54,-75.05 314.24,-53.32 328.08,-40.72"/>
</g>
<!-- Node12&#45;&gt;Node7 -->
<g id="edge7" class="edge">
<title>Node12&#45;&gt;Node7</title>
<path fill="none" stroke="midnightblue" d="M263.31,-30.88C275.5,-30.88 287.88,-30.88 298.98,-30.88"/>
</g>
</g>
</svg>
