<?xml version="1.0" encoding="UTF-8" standalone="no"?>
<!DOCTYPE svg PUBLIC "-//W3C//DTD SVG 1.1//EN"
 "http://www.w3.org/Graphics/SVG/1.1/DTD/svg11.dtd">
<!-- Generated by graphviz version 2.43.0 (0)
 -->
<!-- Title: reloadInputFiles Pages: 1 -->
<svg width="254pt" height="864pt"
 viewBox="0.00 0.00 254.00 864.00" xmlns="http://www.w3.org/2000/svg" xmlns:xlink="http://www.w3.org/1999/xlink">
<g id="graph0" class="graph" transform="scale(1 1) rotate(0) translate(4 860)">
<title>reloadInputFiles</title>
<polygon fill="white" stroke="transparent" points="-4,4 -4,-860 250,-860 250,4 -4,4"/>
<!-- Node1 -->
<g id="node1" class="node">
<title>Node1</title>
<g id="a_node1"><a xlink:title=" ">
<polygon fill="#bfbfbf" stroke="black" points="0,-418.5 0,-437.5 94,-437.5 94,-418.5 0,-418.5"/>
<text text-anchor="middle" x="47" y="-425.5" font-family="Helvetica,sans-Serif" font-size="10.00">reloadInputFiles</text>
</a>
</g>
</g>
<!-- Node2 -->
<g id="node2" class="node">
<title>Node2</title>
<g id="a_node2"><a xlink:href="main_8cpp.html#a34804c3a0ffc29cad1548a9a3af91d45" target="_top" xlink:title=" ">
<polygon fill="white" stroke="red" points="133.5,-836.5 133.5,-855.5 242.5,-855.5 242.5,-836.5 133.5,-836.5"/>
<text text-anchor="middle" x="188" y="-843.5" font-family="Helvetica,sans-Serif" font-size="10.00">removeInvalidFiles</text>
</a>
</g>
</g>
<!-- Node1&#45;&gt;Node2 -->
<g id="edge1" class="edge">
<title>Node1&#45;&gt;Node2</title>
<path fill="none" stroke="midnightblue" d="M48.7,-437.63C52.85,-492.58 76.02,-766.17 130,-827 133.46,-830.9 137.75,-834 142.4,-836.47"/>
</g>
<!-- Node4 -->
<g id="node3" class="node">
<title>Node4</title>
<g id="a_node3"><a xlink:href="main_8cpp.html#a044cd088d8a6d17451b655ea49b820f7" target="_top" xlink:title=" ">
<polygon fill="white" stroke="red" points="150.5,-798.5 150.5,-817.5 225.5,-817.5 225.5,-798.5 150.5,-798.5"/>
<text text-anchor="middle" x="188" y="-805.5" font-family="Helvetica,sans-Serif" font-size="10.00">fileChanged</text>
</a>
</g>
</g>
<!-- Node1&#45;&gt;Node4 -->
<g id="edge2" class="edge">
<title>Node1&#45;&gt;Node4</title>
<path fill="none" stroke="midnightblue" d="M48.93,-437.72C54.08,-489.7 80.69,-734.59 130,-789 135.39,-794.95 142.7,-799.04 150.28,-801.85"/>
</g>
<!-- Node5 -->
<g id="node4" class="node">
<title>Node5</title>
<g id="a_node4"><a xlink:href="antenna_8cpp.html#ae23e7dede27378f5a445120a5ae13e62" target="_top" xlink:title="Read antex file.">
<polygon fill="white" stroke="red" points="153,-760.5 153,-779.5 223,-779.5 223,-760.5 153,-760.5"/>
<text text-anchor="middle" x="188" y="-767.5" font-family="Helvetica,sans-Serif" font-size="10.00">readantexf</text>
</a>
</g>
</g>
<!-- Node1&#45;&gt;Node5 -->
<g id="edge3" class="edge">
<title>Node1&#45;&gt;Node5</title>
<path fill="none" stroke="midnightblue" d="M49.2,-437.64C55.4,-486.14 85.3,-702.9 130,-751 136.04,-757.49 144.35,-761.77 152.76,-764.59"/>
</g>
<!-- Node15 -->
<g id="node5" class="node">
<title>Node15</title>
<g id="a_node5"><a xlink:href="common_2orbits_8cpp.html#acb6ef72cfd9fedf32fed4c3e94c57ae6" target="_top" xlink:title="read orbit file from POD">
<polygon fill="white" stroke="red" points="157.5,-722.5 157.5,-741.5 218.5,-741.5 218.5,-722.5 157.5,-722.5"/>
<text text-anchor="middle" x="188" y="-729.5" font-family="Helvetica,sans-Serif" font-size="10.00">readorbit</text>
</a>
</g>
</g>
<!-- Node1&#45;&gt;Node15 -->
<g id="edge4" class="edge">
<title>Node1&#45;&gt;Node15</title>
<path fill="none" stroke="midnightblue" d="M47.77,-437.65C47.33,-477.46 51.05,-630.7 130,-713 137.22,-720.53 147.5,-725.07 157.34,-727.82"/>
</g>
<!-- Node23 -->
<g id="node6" class="node">
<title>Node23</title>
<g id="a_node6"><a xlink:href="sp3_8cpp.html#a7bb0b718cb690d2c707c50b532302c01" target="_top" xlink:title=" ">
<polygon fill="white" stroke="black" points="160,-684.5 160,-703.5 216,-703.5 216,-684.5 160,-684.5"/>
<text text-anchor="middle" x="188" y="-691.5" font-family="Helvetica,sans-Serif" font-size="10.00">orb2sp3</text>
</a>
</g>
</g>
<!-- Node1&#45;&gt;Node23 -->
<g id="edge5" class="edge">
<title>Node1&#45;&gt;Node23</title>
<path fill="none" stroke="midnightblue" d="M48.26,-437.6C49.78,-474 60.07,-604.99 130,-675 137.96,-682.97 149.35,-687.6 159.86,-690.28"/>
</g>
<!-- Node24 -->
<g id="node7" class="node">
<title>Node24</title>
<g id="a_node7"><a xlink:href="sp3_8cpp.html#a318ada9d3e4098983bc500ae3985f4e3" target="_top" xlink:title=" ">
<polygon fill="white" stroke="red" points="145,-646.5 145,-665.5 231,-665.5 231,-646.5 145,-646.5"/>
<text text-anchor="middle" x="188" y="-653.5" font-family="Helvetica,sans-Serif" font-size="10.00">readSp3ToNav</text>
</a>
</g>
</g>
<!-- Node1&#45;&gt;Node24 -->
<g id="edge6" class="edge">
<title>Node1&#45;&gt;Node24</title>
<path fill="none" stroke="midnightblue" d="M48.96,-437.93C52.69,-471.1 69.22,-579.31 130,-637 134.24,-641.02 139.35,-644.19 144.75,-646.69"/>
</g>
<!-- Node29 -->
<g id="node8" class="node">
<title>Node29</title>
<g id="a_node8"><a xlink:href="orbex_8cpp.html#a1dfbfc8e61777c0b2063a98292a9afe1" target="_top" xlink:title="Read an ORBEX file into navigation data struct.">
<polygon fill="white" stroke="red" points="154,-608.5 154,-627.5 222,-627.5 222,-608.5 154,-608.5"/>
<text text-anchor="middle" x="188" y="-615.5" font-family="Helvetica,sans-Serif" font-size="10.00">readOrbex</text>
</a>
</g>
</g>
<!-- Node1&#45;&gt;Node29 -->
<g id="edge7" class="edge">
<title>Node1&#45;&gt;Node29</title>
<path fill="none" stroke="midnightblue" d="M49.88,-437.73C55.98,-466.68 77.9,-553.05 130,-599 136.73,-604.93 145.37,-609.02 153.88,-611.84"/>
</g>
<!-- Node35 -->
<g id="node9" class="node">
<title>Node35</title>
<g id="a_node9"><a xlink:href="erp_8cpp.html#a76c420194b20727ba241223dad38241c" target="_top" xlink:title="read earth rotation parameters">
<polygon fill="white" stroke="red" points="161,-570.5 161,-589.5 215,-589.5 215,-570.5 161,-570.5"/>
<text text-anchor="middle" x="188" y="-577.5" font-family="Helvetica,sans-Serif" font-size="10.00">readErp</text>
</a>
</g>
</g>
<!-- Node1&#45;&gt;Node35 -->
<g id="edge8" class="edge">
<title>Node1&#45;&gt;Node35</title>
<path fill="none" stroke="midnightblue" d="M51.28,-437.62C60.05,-461.95 86.41,-526.47 130,-561 138.83,-568 150.35,-572.47 160.73,-575.31"/>
</g>
<!-- Node41 -->
<g id="node10" class="node">
<title>Node41</title>
<g id="a_node10"><a xlink:href="ephPrecise_8cpp.html#af673ac04c3dea7304383eb4ef76318ba" target="_top" xlink:title="read dcb parameters file">
<polygon fill="white" stroke="red" points="160,-532.5 160,-551.5 216,-551.5 216,-532.5 160,-532.5"/>
<text text-anchor="middle" x="188" y="-539.5" font-family="Helvetica,sans-Serif" font-size="10.00">readdcb</text>
</a>
</g>
</g>
<!-- Node1&#45;&gt;Node41 -->
<g id="edge9" class="edge">
<title>Node1&#45;&gt;Node41</title>
<path fill="none" stroke="midnightblue" d="M53.74,-437.58C65.6,-456.61 94.7,-499.35 130,-523 138.93,-528.98 149.9,-533.22 159.82,-536.16"/>
</g>
<!-- Node46 -->
<g id="node11" class="node">
<title>Node46</title>
<g id="a_node11"><a xlink:href="biasSINEXread_8cpp.html#a9de856d6ae992fe8b154b1a7d847f057" target="_top" xlink:title="Read single bias SINEX file.">
<polygon fill="white" stroke="red" points="145,-494.5 145,-513.5 231,-513.5 231,-494.5 145,-494.5"/>
<text text-anchor="middle" x="188" y="-501.5" font-family="Helvetica,sans-Serif" font-size="10.00">readBiasSinex</text>
</a>
</g>
</g>
<!-- Node1&#45;&gt;Node46 -->
<g id="edge10" class="edge">
<title>Node1&#45;&gt;Node46</title>
<path fill="none" stroke="midnightblue" d="M59.55,-437.64C74.84,-450.01 103.03,-471.48 130,-485 137.18,-488.6 145.2,-491.75 152.9,-494.4"/>
</g>
<!-- Node51 -->
<g id="node12" class="node">
<title>Node51</title>
<g id="a_node12"><a xlink:href="ionex_8cpp.html#a3a4e74c6fefa94fe02fb7f63f8c6bf55" target="_top" xlink:title="read ionex tec grid file">
<polygon fill="white" stroke="red" points="161,-456.5 161,-475.5 215,-475.5 215,-456.5 161,-456.5"/>
<text text-anchor="middle" x="188" y="-463.5" font-family="Helvetica,sans-Serif" font-size="10.00">readTec</text>
</a>
</g>
</g>
<!-- Node1&#45;&gt;Node51 -->
<g id="edge11" class="edge">
<title>Node1&#45;&gt;Node51</title>
<path fill="none" stroke="midnightblue" d="M83.08,-437.59C107.2,-444.19 138.74,-452.81 160.71,-458.81"/>
</g>
<!-- Node58 -->
<g id="node13" class="node">
<title>Node58</title>
<g id="a_node13"><a xlink:href="geomagField_8cpp.html#ad1877a5076ce9da964052260c9330d92" target="_top" xlink:title="Read the IGRF file Only support the latest generations of IGRF file from IGRF&#45;11.">
<polygon fill="white" stroke="red" points="157,-418.5 157,-437.5 219,-437.5 219,-418.5 157,-418.5"/>
<text text-anchor="middle" x="188" y="-425.5" font-family="Helvetica,sans-Serif" font-size="10.00">readIGRF</text>
</a>
</g>
</g>
<!-- Node1&#45;&gt;Node58 -->
<g id="edge12" class="edge">
<title>Node1&#45;&gt;Node58</title>
<path fill="none" stroke="midnightblue" d="M94.28,-428C114.82,-428 138.41,-428 156.65,-428"/>
</g>
<!-- Node59 -->
<g id="node14" class="node">
<title>Node59</title>
<g id="a_node14"><a xlink:href="beast_8cpp.html#a1041b4dad6470c517fc27524af8f4648" target="_top" xlink:title=" ">
<polygon fill="white" stroke="black" points="172,-380.5 172,-399.5 204,-399.5 204,-380.5 172,-380.5"/>
<text text-anchor="middle" x="188" y="-387.5" font-family="Helvetica,sans-Serif" font-size="10.00">fail</text>
</a>
</g>
</g>
<!-- Node1&#45;&gt;Node59 -->
<g id="edge13" class="edge">
<title>Node1&#45;&gt;Node59</title>
<path fill="none" stroke="midnightblue" d="M83.08,-418.41C111.71,-410.58 150.77,-399.91 171.91,-394.13"/>
</g>
<!-- Node60 -->
<g id="node15" class="node">
<title>Node60</title>
<g id="a_node15"><a xlink:href="sinex_8cpp.html#a4e1feec33e7e733fe8203f9edf11f2ad" target="_top" xlink:title=" ">
<polygon fill="white" stroke="red" points="155.5,-342.5 155.5,-361.5 220.5,-361.5 220.5,-342.5 155.5,-342.5"/>
<text text-anchor="middle" x="188" y="-349.5" font-family="Helvetica,sans-Serif" font-size="10.00">readSinex</text>
</a>
</g>
</g>
<!-- Node1&#45;&gt;Node60 -->
<g id="edge14" class="edge">
<title>Node1&#45;&gt;Node60</title>
<path fill="none" stroke="midnightblue" d="M59.55,-418.36C74.84,-405.99 103.03,-384.52 130,-371 137.93,-367.03 146.87,-363.6 155.29,-360.79"/>
</g>
<!-- Node111 -->
<g id="node16" class="node">
<title>Node111</title>
<g id="a_node16"><a xlink:href="vmf3_8cpp.html#a4947dc4385283653a98fe84379767af8" target="_top" xlink:title="read vmf3 grid">
<polygon fill="white" stroke="red" points="156,-304.5 156,-323.5 220,-323.5 220,-304.5 156,-304.5"/>
<text text-anchor="middle" x="188" y="-311.5" font-family="Helvetica,sans-Serif" font-size="10.00">readvmf3</text>
</a>
</g>
</g>
<!-- Node1&#45;&gt;Node111 -->
<g id="edge15" class="edge">
<title>Node1&#45;&gt;Node111</title>
<path fill="none" stroke="midnightblue" d="M53.74,-418.42C65.6,-399.39 94.7,-356.65 130,-333 137.71,-327.83 146.95,-323.96 155.72,-321.11"/>
</g>
<!-- Node112 -->
<g id="node17" class="node">
<title>Node112</title>
<g id="a_node17"><a xlink:href="vmf3_8cpp.html#af888cb766e12f03306822b6878ed62e8" target="_top" xlink:title="read orography file">
<polygon fill="white" stroke="black" points="158,-266.5 158,-285.5 218,-285.5 218,-266.5 158,-266.5"/>
<text text-anchor="middle" x="188" y="-273.5" font-family="Helvetica,sans-Serif" font-size="10.00">readorog</text>
</a>
</g>
</g>
<!-- Node1&#45;&gt;Node112 -->
<g id="edge16" class="edge">
<title>Node1&#45;&gt;Node112</title>
<path fill="none" stroke="midnightblue" d="M51.28,-418.38C60.05,-394.05 86.41,-329.53 130,-295 138.01,-288.65 148.24,-284.38 157.82,-281.52"/>
</g>
<!-- Node113 -->
<g id="node18" class="node">
<title>Node113</title>
<g id="a_node18"><a xlink:href="trop_8cpp.html#a98ff29b9f5c2aee1d3bd8390f7aa6477" target="_top" xlink:title="read GPT grid file">
<polygon fill="white" stroke="black" points="159.5,-228.5 159.5,-247.5 216.5,-247.5 216.5,-228.5 159.5,-228.5"/>
<text text-anchor="middle" x="188" y="-235.5" font-family="Helvetica,sans-Serif" font-size="10.00">readgrid</text>
</a>
</g>
</g>
<!-- Node1&#45;&gt;Node113 -->
<g id="edge17" class="edge">
<title>Node1&#45;&gt;Node113</title>
<path fill="none" stroke="midnightblue" d="M49.88,-418.27C55.98,-389.32 77.9,-302.95 130,-257 138.21,-249.76 149.28,-245.26 159.48,-242.47"/>
</g>
<!-- Node114 -->
<g id="node19" class="node">
<title>Node114</title>
<g id="a_node19"><a xlink:href="slrObs_8cpp.html#a15786adbb4dc583f63d95e8a0f35d999" target="_top" xlink:title="Read sat ID file.">
<polygon fill="white" stroke="red" points="156.5,-190.5 156.5,-209.5 219.5,-209.5 219.5,-190.5 156.5,-190.5"/>
<text text-anchor="middle" x="188" y="-197.5" font-family="Helvetica,sans-Serif" font-size="10.00">readSatId</text>
</a>
</g>
</g>
<!-- Node1&#45;&gt;Node114 -->
<g id="edge18" class="edge">
<title>Node1&#45;&gt;Node114</title>
<path fill="none" stroke="midnightblue" d="M48.96,-418.07C52.69,-384.9 69.22,-276.69 130,-219 137.19,-212.18 146.89,-207.8 156.25,-205"/>
</g>
<!-- Node115 -->
<g id="node20" class="node">
<title>Node115</title>
<g id="a_node20"><a xlink:href="slrObs_8cpp.html#a38ee0a5d01fed7dee3c29841ca02b54a" target="_top" xlink:title="Extracts observations from a given CRD (.npt) file.">
<polygon fill="white" stroke="red" points="160.5,-152.5 160.5,-171.5 215.5,-171.5 215.5,-152.5 160.5,-152.5"/>
<text text-anchor="middle" x="188" y="-159.5" font-family="Helvetica,sans-Serif" font-size="10.00">readCrd</text>
</a>
</g>
</g>
<!-- Node1&#45;&gt;Node115 -->
<g id="edge19" class="edge">
<title>Node1&#45;&gt;Node115</title>
<path fill="none" stroke="midnightblue" d="M48.26,-418.4C49.78,-382 60.07,-251.01 130,-181 138.11,-172.88 149.77,-168.23 160.44,-165.57"/>
</g>
<!-- Node120 -->
<g id="node21" class="node">
<title>Node120</title>
<g id="a_node21"><a xlink:href="slrObs_8cpp.html#a8f4c7f3ebd17e93d03acee01f5e9862e" target="_top" xlink:title="Outputs a tabular file with SLR observations in time&#45;order.">
<polygon fill="white" stroke="red" points="132.5,-114.5 132.5,-133.5 243.5,-133.5 243.5,-114.5 132.5,-114.5"/>
<text text-anchor="middle" x="188" y="-121.5" font-family="Helvetica,sans-Serif" font-size="10.00">outputSortedSlrObs</text>
</a>
</g>
</g>
<!-- Node1&#45;&gt;Node120 -->
<g id="edge20" class="edge">
<title>Node1&#45;&gt;Node120</title>
<path fill="none" stroke="midnightblue" d="M47.77,-418.35C47.33,-378.54 51.05,-225.3 130,-143 133.75,-139.09 138.34,-135.98 143.25,-133.51"/>
</g>
<!-- Node124 -->
<g id="node22" class="node">
<title>Node124</title>
<g id="a_node22"><a xlink:href="slrCom_8cpp.html#a0f6749d2eb66a808d36ff88e7408581f" target="_top" xlink:title="Read SLR spherical satellite centre&#45;of&#45;mass (CoM) file.">
<polygon fill="white" stroke="black" points="157.5,-76.5 157.5,-95.5 218.5,-95.5 218.5,-76.5 157.5,-76.5"/>
<text text-anchor="middle" x="188" y="-83.5" font-family="Helvetica,sans-Serif" font-size="10.00">readCom</text>
</a>
</g>
</g>
<!-- Node1&#45;&gt;Node124 -->
<g id="edge21" class="edge">
<title>Node1&#45;&gt;Node124</title>
<path fill="none" stroke="midnightblue" d="M49.2,-418.36C55.4,-369.86 85.3,-153.1 130,-105 137.1,-97.36 147.35,-92.79 157.21,-90.06"/>
</g>
<!-- Node125 -->
<g id="node23" class="node">
<title>Node125</title>
<g id="a_node23"><a xlink:href="structStaticField.html#a7d90700be77e407d795f3fe8a1d29fea" target="_top" xlink:title="Read the static gravity field.">
<polygon fill="white" stroke="red" points="130,-38.5 130,-57.5 246,-57.5 246,-38.5 130,-38.5"/>
<text text-anchor="middle" x="188" y="-45.5" font-family="Helvetica,sans-Serif" font-size="10.00">StaticField::readegm</text>
</a>
</g>
</g>
<!-- Node1&#45;&gt;Node125 -->
<g id="edge22" class="edge">
<title>Node1&#45;&gt;Node125</title>
<path fill="none" stroke="midnightblue" d="M48.93,-418.28C54.08,-366.3 80.69,-121.41 130,-67 133.5,-63.14 137.81,-60.06 142.48,-57.6"/>
</g>
<!-- Node126 -->
<g id="node24" class="node">
<title>Node126</title>
<g id="a_node24"><a xlink:href="main_8cpp.html#a54d210f60c2488eb2654eaf7a3bbf6c4" target="_top" xlink:title="Create a station object from an input.">
<polygon fill="white" stroke="red" points="142,-0.5 142,-19.5 234,-19.5 234,-0.5 142,-0.5"/>
<text text-anchor="middle" x="188" y="-7.5" font-family="Helvetica,sans-Serif" font-size="10.00">addStationData</text>
</a>
</g>
</g>
<!-- Node1&#45;&gt;Node126 -->
<g id="edge23" class="edge">
<title>Node1&#45;&gt;Node126</title>
<path fill="none" stroke="midnightblue" d="M48.7,-418.37C52.85,-363.42 76.02,-89.83 130,-29 133.46,-25.1 137.75,-22 142.4,-19.53"/>
</g>
</g>
</svg>
