<?xml version="1.0" encoding="UTF-8" standalone="no"?>
<!DOCTYPE svg PUBLIC "-//W3C//DTD SVG 1.1//EN"
 "http://www.w3.org/Graphics/SVG/1.1/DTD/svg11.dtd">
<!-- Generated by graphviz version 2.43.0 (0)
 -->
<!-- Title: mincon Pages: 1 -->
<svg width="257pt" height="230pt"
 viewBox="0.00 0.00 257.00 230.00" xmlns="http://www.w3.org/2000/svg" xmlns:xlink="http://www.w3.org/1999/xlink">
<g id="graph0" class="graph" transform="scale(1 1) rotate(0) translate(4 226)">
<title>mincon</title>
<polygon fill="white" stroke="transparent" points="-4,4 -4,-226 253,-226 253,4 -4,4"/>
<!-- Node1 -->
<g id="node1" class="node">
<title>Node1</title>
<g id="a_node1"><a xlink:title=" ">
<polygon fill="#bfbfbf" stroke="black" points="196,-104.5 196,-123.5 249,-123.5 249,-104.5 196,-104.5"/>
<text text-anchor="middle" x="222.5" y="-111.5" font-family="Helvetica,sans-Serif" font-size="10.00">mincon</text>
</a>
</g>
</g>
<!-- Node2 -->
<g id="node2" class="node">
<title>Node2</title>
<g id="a_node2"><a xlink:href="compare_8cpp.html#aa8c289d9d4e60f862fb0a60566b76bd0" target="_top" xlink:title=" ">
<polygon fill="white" stroke="red" points="35.5,-202.5 35.5,-221.5 124.5,-221.5 124.5,-202.5 35.5,-202.5"/>
<text text-anchor="middle" x="80" y="-209.5" font-family="Helvetica,sans-Serif" font-size="10.00">compareOrbits</text>
</a>
</g>
</g>
<!-- Node1&#45;&gt;Node2 -->
<g id="edge1" class="edge">
<title>Node1&#45;&gt;Node2</title>
<path fill="none" stroke="midnightblue" d="M211.8,-132.82C201.43,-151.02 183.3,-177.98 160,-193 149.45,-199.8 136.69,-204.17 124.52,-206.98"/>
<polygon fill="midnightblue" stroke="midnightblue" points="215.03,-134.2 216.74,-123.74 208.88,-130.85 215.03,-134.2"/>
</g>
<!-- Node6 -->
<g id="node3" class="node">
<title>Node6</title>
<g id="a_node3"><a xlink:href="debug_8cpp.html#a80d24c0bf09dad23394c5fcac25aa80b" target="_top" xlink:title=" ">
<polygon fill="white" stroke="black" points="38.5,-164.5 38.5,-183.5 121.5,-183.5 121.5,-164.5 38.5,-164.5"/>
<text text-anchor="middle" x="80" y="-171.5" font-family="Helvetica,sans-Serif" font-size="10.00">minimumTest</text>
</a>
</g>
</g>
<!-- Node1&#45;&gt;Node6 -->
<g id="edge2" class="edge">
<title>Node1&#45;&gt;Node6</title>
<path fill="none" stroke="midnightblue" d="M201.9,-129.67C190.31,-138.25 174.99,-148.45 160,-155 147.98,-160.25 134.27,-164.2 121.68,-167.09"/>
<polygon fill="midnightblue" stroke="midnightblue" points="204.15,-132.35 209.98,-123.5 199.91,-126.79 204.15,-132.35"/>
</g>
<!-- Node7 -->
<g id="node4" class="node">
<title>Node7</title>
<g id="a_node4"><a xlink:href="minimumConstraints_8cpp.html#aeb8c374e79e38289a66b8b65d6574141" target="_top" xlink:title=" ">
<polygon fill="white" stroke="red" points="42.5,-126.5 42.5,-145.5 117.5,-145.5 117.5,-126.5 42.5,-126.5"/>
<text text-anchor="middle" x="80" y="-133.5" font-family="Helvetica,sans-Serif" font-size="10.00">minconOnly</text>
</a>
</g>
</g>
<!-- Node1&#45;&gt;Node7 -->
<g id="edge3" class="edge">
<title>Node1&#45;&gt;Node7</title>
<path fill="none" stroke="midnightblue" d="M185.69,-119.61C164.87,-122.87 138.69,-126.97 117.72,-130.25"/>
<polygon fill="midnightblue" stroke="midnightblue" points="186.39,-123.04 195.73,-118.04 185.31,-116.12 186.39,-123.04"/>
</g>
<!-- Node8 -->
<g id="node5" class="node">
<title>Node8</title>
<g id="a_node5"><a xlink:href="main_8cpp.html#a185ebe45a74ed9f7e7093979bea18755" target="_top" xlink:title=" ">
<polygon fill="white" stroke="red" points="0,-77 0,-107 160,-107 160,-77 0,-77"/>
<text text-anchor="start" x="8" y="-95" font-family="Helvetica,sans-Serif" font-size="10.00">mainPerEpochPostProcessing</text>
<text text-anchor="middle" x="80" y="-84" font-family="Helvetica,sans-Serif" font-size="10.00">AndOutputs</text>
</a>
</g>
</g>
<!-- Node1&#45;&gt;Node8 -->
<g id="edge4" class="edge">
<title>Node1&#45;&gt;Node8</title>
<path fill="none" stroke="midnightblue" d="M185.76,-108.4C177.8,-107.16 169.05,-105.79 160.1,-104.39"/>
<polygon fill="midnightblue" stroke="midnightblue" points="185.31,-111.88 195.73,-109.96 186.39,-104.96 185.31,-111.88"/>
</g>
<!-- Node10 -->
<g id="node6" class="node">
<title>Node10</title>
<g id="a_node6"><a xlink:href="main_8cpp.html#a2b0d1066eac1a878cf982adcdd550ce1" target="_top" xlink:title=" ">
<polygon fill="white" stroke="red" points="22.5,-38.5 22.5,-57.5 137.5,-57.5 137.5,-38.5 22.5,-38.5"/>
<text text-anchor="middle" x="80" y="-45.5" font-family="Helvetica,sans-Serif" font-size="10.00">mainPostProcessing</text>
</a>
</g>
</g>
<!-- Node1&#45;&gt;Node10 -->
<g id="edge5" class="edge">
<title>Node1&#45;&gt;Node10</title>
<path fill="none" stroke="midnightblue" d="M203.79,-97.76C192.12,-87.86 176.08,-75.67 160,-68 151.06,-63.74 141.1,-60.31 131.35,-57.58"/>
<polygon fill="midnightblue" stroke="midnightblue" points="201.62,-100.52 211.45,-104.47 206.23,-95.25 201.62,-100.52"/>
</g>
<!-- Node11 -->
<g id="node7" class="node">
<title>Node11</title>
<g id="a_node7"><a xlink:href="ppp__pseudoobs_8cpp.html#adbd609c578a9ecb55f36c3908efa85ee" target="_top" xlink:title=" ">
<polygon fill="white" stroke="red" points="25,-0.5 25,-19.5 135,-19.5 135,-0.5 25,-0.5"/>
<text text-anchor="middle" x="80" y="-7.5" font-family="Helvetica,sans-Serif" font-size="10.00">receiverPseudoObs</text>
</a>
</g>
</g>
<!-- Node1&#45;&gt;Node11 -->
<g id="edge6" class="edge">
<title>Node1&#45;&gt;Node11</title>
<path fill="none" stroke="midnightblue" d="M212.91,-95.22C202.97,-75.65 184.74,-45.57 160,-29 152.62,-24.05 144.08,-20.39 135.41,-17.68"/>
<polygon fill="midnightblue" stroke="midnightblue" points="209.83,-96.9 217.34,-104.37 216.13,-93.84 209.83,-96.9"/>
</g>
</g>
</svg>
