<?xml version="1.0" encoding="UTF-8" standalone="no"?>
<!DOCTYPE svg PUBLIC "-//W3C//DTD SVG 1.1//EN"
 "http://www.w3.org/Graphics/SVG/1.1/DTD/svg11.dtd">
<!-- Generated by graphviz version 2.43.0 (0)
 -->
<!-- Title: mongoOutput Pages: 1 -->
<svg width="228pt" height="66pt"
 viewBox="0.00 0.00 228.00 66.00" xmlns="http://www.w3.org/2000/svg" xmlns:xlink="http://www.w3.org/1999/xlink">
<g id="graph0" class="graph" transform="scale(1 1) rotate(0) translate(4 62)">
<title>mongoOutput</title>
<polygon fill="white" stroke="transparent" points="-4,4 -4,-62 224,-62 224,4 -4,4"/>
<!-- Node1 -->
<g id="node1" class="node">
<title>Node1</title>
<g id="a_node1"><a xlink:title=" ">
<polygon fill="#bfbfbf" stroke="black" points="137,-19.5 137,-38.5 220,-38.5 220,-19.5 137,-19.5"/>
<text text-anchor="middle" x="178.5" y="-26.5" font-family="Helvetica,sans-Serif" font-size="10.00">mongoOutput</text>
</a>
</g>
</g>
<!-- Node2 -->
<g id="node2" class="node">
<title>Node2</title>
<g id="a_node2"><a xlink:href="mongoWrite_8cpp.html#ad99e3f029b681676da8bbf077cdb62a7" target="_top" xlink:title=" ">
<polygon fill="white" stroke="red" points="0,-38.5 0,-57.5 101,-57.5 101,-38.5 0,-38.5"/>
<text text-anchor="middle" x="50.5" y="-45.5" font-family="Helvetica,sans-Serif" font-size="10.00">mongoQueueRun</text>
</a>
</g>
</g>
<!-- Node1&#45;&gt;Node2 -->
<g id="edge1" class="edge">
<title>Node1&#45;&gt;Node2</title>
<path fill="none" stroke="midnightblue" d="M126.84,-36.64C118.41,-37.91 109.66,-39.23 101.25,-40.5"/>
<polygon fill="midnightblue" stroke="midnightblue" points="127.57,-40.07 136.94,-35.12 126.53,-33.15 127.57,-40.07"/>
</g>
<!-- Node21 -->
<g id="node3" class="node">
<title>Node21</title>
<g id="a_node3"><a xlink:href="mongoWrite_8cpp.html#a0936cc081f59031ee1253c909285838c" target="_top" xlink:title="Write states generating SSR corrections to Mongo DB.">
<polygon fill="white" stroke="red" points="0.5,-0.5 0.5,-19.5 100.5,-19.5 100.5,-0.5 0.5,-0.5"/>
<text text-anchor="middle" x="50.5" y="-7.5" font-family="Helvetica,sans-Serif" font-size="10.00">prepareSsrStates</text>
</a>
</g>
</g>
<!-- Node1&#45;&gt;Node21 -->
<g id="edge2" class="edge">
<title>Node1&#45;&gt;Node21</title>
<path fill="none" stroke="midnightblue" d="M127,-21.38C118.36,-20.08 109.4,-18.73 100.8,-17.43"/>
<polygon fill="midnightblue" stroke="midnightblue" points="126.53,-24.85 136.94,-22.88 127.57,-17.93 126.53,-24.85"/>
</g>
</g>
</svg>
