<?xml version="1.0" encoding="UTF-8" standalone="no"?>
<!DOCTYPE svg PUBLIC "-//W3C//DTD SVG 1.1//EN"
 "http://www.w3.org/Graphics/SVG/1.1/DTD/svg11.dtd">
<!-- Generated by graphviz version 2.43.0 (0)
 -->
<!-- Title: mongoReadGloEphemeris Pages: 1 -->
<svg width="363pt" height="57pt"
 viewBox="0.00 0.00 363.00 57.00" xmlns="http://www.w3.org/2000/svg" xmlns:xlink="http://www.w3.org/1999/xlink">
<g id="graph0" class="graph" transform="scale(1 1) rotate(0) translate(4 53)">
<title>mongoReadGloEphemeris</title>
<polygon fill="white" stroke="transparent" points="-4,4 -4,-53 359,-53 359,4 -4,4"/>
<!-- Node1 -->
<g id="node1" class="node">
<title>Node1</title>
<g id="a_node1"><a xlink:title="Read GLO ephemeris from Mongo DB.">
<polygon fill="#bfbfbf" stroke="black" points="212,-6 212,-25 355,-25 355,-6 212,-6"/>
<text text-anchor="middle" x="283.5" y="-13" font-family="Helvetica,sans-Serif" font-size="10.00">mongoReadGloEphemeris</text>
</a>
</g>
</g>
<!-- Node2 -->
<g id="node2" class="node">
<title>Node2</title>
<g id="a_node2"><a xlink:href="structNtripUploader.html#a391d7d2c8f7b72a659bd35d8242fb30a" target="_top" xlink:title=" ">
<polygon fill="white" stroke="red" points="0,-0.5 0,-30.5 176,-30.5 176,-0.5 0,-0.5"/>
<text text-anchor="start" x="8" y="-18.5" font-family="Helvetica,sans-Serif" font-size="10.00">NtripUploader::messageTimeout</text>
<text text-anchor="middle" x="88" y="-7.5" font-family="Helvetica,sans-Serif" font-size="10.00">_handler</text>
</a>
</g>
</g>
<!-- Node1&#45;&gt;Node2 -->
<g id="edge1" class="edge">
<title>Node1&#45;&gt;Node2</title>
<path fill="none" stroke="midnightblue" d="M201.69,-15.5C193.3,-15.5 184.74,-15.5 176.29,-15.5"/>
<polygon fill="midnightblue" stroke="midnightblue" points="201.82,-19 211.82,-15.5 201.82,-12 201.82,-19"/>
</g>
<!-- Node2&#45;&gt;Node2 -->
<g id="edge2" class="edge">
<title>Node2&#45;&gt;Node2</title>
<path fill="none" stroke="midnightblue" d="M122.47,-40.96C118.19,-45.68 106.7,-49 88,-49 57.31,-49 46.04,-40.06 54.19,-30.66"/>
<polygon fill="midnightblue" stroke="midnightblue" points="125.94,-40.41 121.81,-30.66 118.96,-40.86 125.94,-40.41"/>
</g>
</g>
</svg>
