<?xml version="1.0" encoding="UTF-8" standalone="no"?>
<!DOCTYPE svg PUBLIC "-//W3C//DTD SVG 1.1//EN"
 "http://www.w3.org/Graphics/SVG/1.1/DTD/svg11.dtd">
<!-- Generated by graphviz version 2.43.0 (0)
 -->
<!-- Title: mongoTrace Pages: 1 -->
<svg width="221pt" height="66pt"
 viewBox="0.00 0.00 221.00 66.00" xmlns="http://www.w3.org/2000/svg" xmlns:xlink="http://www.w3.org/1999/xlink">
<g id="graph0" class="graph" transform="scale(1 1) rotate(0) translate(4 62)">
<title>mongoTrace</title>
<polygon fill="white" stroke="transparent" points="-4,4 -4,-62 217,-62 217,4 -4,4"/>
<!-- Node1 -->
<g id="node1" class="node">
<title>Node1</title>
<g id="a_node1"><a xlink:title=" ">
<polygon fill="#bfbfbf" stroke="black" points="137,-19.5 137,-38.5 213,-38.5 213,-19.5 137,-19.5"/>
<text text-anchor="middle" x="175" y="-26.5" font-family="Helvetica,sans-Serif" font-size="10.00">mongoTrace</text>
</a>
</g>
</g>
<!-- Node2 -->
<g id="node2" class="node">
<title>Node2</title>
<g id="a_node2"><a xlink:href="mongoWrite_8cpp.html#ad99e3f029b681676da8bbf077cdb62a7" target="_top" xlink:title=" ">
<polygon fill="white" stroke="red" points="0,-38.5 0,-57.5 101,-57.5 101,-38.5 0,-38.5"/>
<text text-anchor="middle" x="50.5" y="-45.5" font-family="Helvetica,sans-Serif" font-size="10.00">mongoQueueRun</text>
</a>
</g>
</g>
<!-- Node1&#45;&gt;Node2 -->
<g id="edge1" class="edge">
<title>Node1&#45;&gt;Node2</title>
<path fill="none" stroke="midnightblue" d="M126.86,-36.31C118.43,-37.62 109.62,-38.98 101.13,-40.3"/>
<polygon fill="midnightblue" stroke="midnightblue" points="127.57,-39.74 136.91,-34.75 126.5,-32.83 127.57,-39.74"/>
</g>
<!-- Node34 -->
<g id="node3" class="node">
<title>Node34</title>
<g id="a_node3"><a xlink:href="trace_8cpp.html#acc3444976498a9f591577d7344658aab" target="_top" xlink:title=" ">
<polygon fill="white" stroke="red" points="19.5,-0.5 19.5,-19.5 81.5,-19.5 81.5,-0.5 19.5,-0.5"/>
<text text-anchor="middle" x="50.5" y="-7.5" font-family="Helvetica,sans-Serif" font-size="10.00">traceJson</text>
</a>
</g>
</g>
<!-- Node1&#45;&gt;Node34 -->
<g id="edge2" class="edge">
<title>Node1&#45;&gt;Node34</title>
<path fill="none" stroke="midnightblue" d="M126.72,-21.67C111.66,-19.33 95.41,-16.81 81.88,-14.71"/>
<polygon fill="midnightblue" stroke="midnightblue" points="126.5,-25.17 136.91,-23.25 127.57,-18.26 126.5,-25.17"/>
</g>
</g>
</svg>
