<?xml version="1.0" encoding="UTF-8" standalone="no"?>
<!DOCTYPE svg PUBLIC "-//W3C//DTD SVG 1.1//EN"
 "http://www.w3.org/Graphics/SVG/1.1/DTD/svg11.dtd">
<!-- Generated by graphviz version 2.43.0 (0)
 -->
<!-- Title: mongoReadPhaseBias Pages: 1 -->
<svg width="345pt" height="57pt"
 viewBox="0.00 0.00 345.00 57.00" xmlns="http://www.w3.org/2000/svg" xmlns:xlink="http://www.w3.org/1999/xlink">
<g id="graph0" class="graph" transform="scale(1 1) rotate(0) translate(4 53)">
<title>mongoReadPhaseBias</title>
<polygon fill="white" stroke="transparent" points="-4,4 -4,-53 341,-53 341,4 -4,4"/>
<!-- Node1 -->
<g id="node1" class="node">
<title>Node1</title>
<g id="a_node1"><a xlink:title="Read phase biases from Mongo DB.">
<polygon fill="#bfbfbf" stroke="black" points="212,-6 212,-25 337,-25 337,-6 212,-6"/>
<text text-anchor="middle" x="274.5" y="-13" font-family="Helvetica,sans-Serif" font-size="10.00">mongoReadPhaseBias</text>
</a>
</g>
</g>
<!-- Node2 -->
<g id="node2" class="node">
<title>Node2</title>
<g id="a_node2"><a xlink:href="structNtripUploader.html#a391d7d2c8f7b72a659bd35d8242fb30a" target="_top" xlink:title=" ">
<polygon fill="white" stroke="red" points="0,-0.5 0,-30.5 176,-30.5 176,-0.5 0,-0.5"/>
<text text-anchor="start" x="8" y="-18.5" font-family="Helvetica,sans-Serif" font-size="10.00">NtripUploader::messageTimeout</text>
<text text-anchor="middle" x="88" y="-7.5" font-family="Helvetica,sans-Serif" font-size="10.00">_handler</text>
</a>
</g>
</g>
<!-- Node1&#45;&gt;Node2 -->
<g id="edge1" class="edge">
<title>Node1&#45;&gt;Node2</title>
<path fill="none" stroke="midnightblue" d="M201.75,-15.5C193.39,-15.5 184.8,-15.5 176.26,-15.5"/>
<polygon fill="midnightblue" stroke="midnightblue" points="201.81,-19 211.81,-15.5 201.81,-12 201.81,-19"/>
</g>
<!-- Node2&#45;&gt;Node2 -->
<g id="edge2" class="edge">
<title>Node2&#45;&gt;Node2</title>
<path fill="none" stroke="midnightblue" d="M121.05,-40.96C116.95,-45.68 105.93,-49 88,-49 58.57,-49 47.77,-40.06 55.59,-30.66"/>
<polygon fill="midnightblue" stroke="midnightblue" points="124.52,-40.42 120.41,-30.66 117.54,-40.86 124.52,-40.42"/>
</g>
</g>
</svg>
