<?xml version="1.0" encoding="UTF-8" standalone="no"?>
<!DOCTYPE svg PUBLIC "-//W3C//DTD SVG 1.1//EN"
 "http://www.w3.org/Graphics/SVG/1.1/DTD/svg11.dtd">
<!-- Generated by graphviz version 2.43.0 (0)
 -->
<!-- Title: queueMongo Pages: 1 -->
<svg width="248pt" height="142pt"
 viewBox="0.00 0.00 248.00 142.00" xmlns="http://www.w3.org/2000/svg" xmlns:xlink="http://www.w3.org/1999/xlink">
<g id="graph0" class="graph" transform="scale(1 1) rotate(0) translate(4 138)">
<title>queueMongo</title>
<polygon fill="white" stroke="transparent" points="-4,4 -4,-138 244,-138 244,4 -4,4"/>
<!-- Node1 -->
<g id="node1" class="node">
<title>Node1</title>
<g id="a_node1"><a xlink:title=" ">
<polygon fill="#bfbfbf" stroke="black" points="160,-57.5 160,-76.5 240,-76.5 240,-57.5 160,-57.5"/>
<text text-anchor="middle" x="200" y="-64.5" font-family="Helvetica,sans-Serif" font-size="10.00">queueMongo</text>
</a>
</g>
</g>
<!-- Node2 -->
<g id="node2" class="node">
<title>Node2</title>
<g id="a_node2"><a xlink:href="mongoWrite_8cpp.html#a395a12da0442b7fb0cba81d33b20c6b7" target="_top" xlink:title=" ">
<polygon fill="white" stroke="red" points="24,-114.5 24,-133.5 100,-133.5 100,-114.5 24,-114.5"/>
<text text-anchor="middle" x="62" y="-121.5" font-family="Helvetica,sans-Serif" font-size="10.00">mongoTrace</text>
</a>
</g>
</g>
<!-- Node1&#45;&gt;Node2 -->
<g id="edge1" class="edge">
<title>Node1&#45;&gt;Node2</title>
<path fill="none" stroke="midnightblue" d="M172.95,-81.55C158.75,-89.14 140.7,-98.22 124,-105 115.47,-108.46 106.06,-111.68 97.23,-114.44"/>
<polygon fill="midnightblue" stroke="midnightblue" points="174.98,-84.43 182.1,-76.59 171.64,-78.28 174.98,-84.43"/>
</g>
<!-- Node42 -->
<g id="node3" class="node">
<title>Node42</title>
<g id="a_node3"><a xlink:href="mongoWrite_8cpp.html#ab86d06e07422b3ad53e5172a8b939ecb" target="_top" xlink:title=" ">
<polygon fill="white" stroke="red" points="0,-76.5 0,-95.5 124,-95.5 124,-76.5 0,-76.5"/>
<text text-anchor="middle" x="62" y="-83.5" font-family="Helvetica,sans-Serif" font-size="10.00">mongoMeasResiduals</text>
</a>
</g>
</g>
<!-- Node1&#45;&gt;Node42 -->
<g id="edge2" class="edge">
<title>Node1&#45;&gt;Node42</title>
<path fill="none" stroke="midnightblue" d="M149.73,-73.88C141.38,-75.05 132.63,-76.27 124.03,-77.47"/>
<polygon fill="midnightblue" stroke="midnightblue" points="150.24,-77.35 159.66,-72.5 149.28,-70.41 150.24,-77.35"/>
</g>
<!-- Node56 -->
<g id="node4" class="node">
<title>Node56</title>
<g id="a_node4"><a xlink:href="mongoWrite_8cpp.html#a7b0669675f4db278af7db5cb0b0dee6a" target="_top" xlink:title=" ">
<polygon fill="white" stroke="red" points="21.5,-38.5 21.5,-57.5 102.5,-57.5 102.5,-38.5 21.5,-38.5"/>
<text text-anchor="middle" x="62" y="-45.5" font-family="Helvetica,sans-Serif" font-size="10.00">mongoStates</text>
</a>
</g>
</g>
<!-- Node1&#45;&gt;Node56 -->
<g id="edge3" class="edge">
<title>Node1&#45;&gt;Node56</title>
<path fill="none" stroke="midnightblue" d="M149.74,-60.12C134.29,-57.96 117.43,-55.6 102.72,-53.55"/>
<polygon fill="midnightblue" stroke="midnightblue" points="149.28,-63.59 159.66,-61.5 150.24,-56.65 149.28,-63.59"/>
</g>
<!-- Node59 -->
<g id="node5" class="node">
<title>Node59</title>
<g id="a_node5"><a xlink:href="mongoWrite_8cpp.html#ab38867aee797f9c3fd724e2f6d7c22bf" target="_top" xlink:title=" ">
<polygon fill="white" stroke="red" points="20.5,-0.5 20.5,-19.5 103.5,-19.5 103.5,-0.5 20.5,-0.5"/>
<text text-anchor="middle" x="62" y="-7.5" font-family="Helvetica,sans-Serif" font-size="10.00">mongoOutput</text>
</a>
</g>
</g>
<!-- Node1&#45;&gt;Node59 -->
<g id="edge4" class="edge">
<title>Node1&#45;&gt;Node59</title>
<path fill="none" stroke="midnightblue" d="M172.95,-52.45C158.75,-44.86 140.7,-35.78 124,-29 115.47,-25.54 106.06,-22.32 97.23,-19.56"/>
<polygon fill="midnightblue" stroke="midnightblue" points="171.64,-55.72 182.1,-57.41 174.98,-49.57 171.64,-55.72"/>
</g>
</g>
</svg>
