<?xml version="1.0" encoding="UTF-8" standalone="no"?>
<!DOCTYPE svg PUBLIC "-//W3C//DTD SVG 1.1//EN"
 "http://www.w3.org/Graphics/SVG/1.1/DTD/svg11.dtd">
<!-- Generated by graphviz version 2.43.0 (0)
 -->
<!-- Title: mongoStates Pages: 1 -->
<svg width="674pt" height="218pt"
 viewBox="0.00 0.00 674.00 218.00" xmlns="http://www.w3.org/2000/svg" xmlns:xlink="http://www.w3.org/1999/xlink">
<g id="graph0" class="graph" transform="scale(1 1) rotate(0) translate(4 214)">
<title>mongoStates</title>
<polygon fill="white" stroke="transparent" points="-4,4 -4,-214 670,-214 670,4 -4,4"/>
<!-- Node1 -->
<g id="node1" class="node">
<title>Node1</title>
<g id="a_node1"><a xlink:title=" ">
<polygon fill="#bfbfbf" stroke="black" points="585,-76.5 585,-95.5 666,-95.5 666,-76.5 585,-76.5"/>
<text text-anchor="middle" x="625.5" y="-83.5" font-family="Helvetica,sans-Serif" font-size="10.00">mongoStates</text>
</a>
</g>
</g>
<!-- Node2 -->
<g id="node2" class="node">
<title>Node2</title>
<g id="a_node2"><a xlink:href="rtsSmoothing_8cpp.html#a6cf4aace63327cf45591794467688765" target="_top" xlink:title=" ">
<polygon fill="white" stroke="black" points="456,-152.5 456,-171.5 549,-171.5 549,-152.5 456,-152.5"/>
<text text-anchor="middle" x="502.5" y="-159.5" font-family="Helvetica,sans-Serif" font-size="10.00">postRTSActions</text>
</a>
</g>
</g>
<!-- Node1&#45;&gt;Node2 -->
<g id="edge1" class="edge">
<title>Node1&#45;&gt;Node2</title>
<path fill="none" stroke="midnightblue" d="M611.45,-95.69C596.64,-106.52 571.6,-124.32 549,-138 540.6,-143.09 531.01,-148.23 522.82,-152.45"/>
</g>
<!-- Node5 -->
<g id="node5" class="node">
<title>Node5</title>
<g id="a_node5"><a xlink:href="main_8cpp.html#a7e63aa887c069bdb77cd28a88ad18562" target="_top" xlink:title="Perform operations for each station This function occurs in parallel with other stations &#45; ensure tha...">
<polygon fill="white" stroke="red" points="0,-125.5 0,-144.5 161,-144.5 161,-125.5 0,-125.5"/>
<text text-anchor="middle" x="80.5" y="-132.5" font-family="Helvetica,sans-Serif" font-size="10.00">mainOncePerEpochPerStation</text>
</a>
</g>
</g>
<!-- Node1&#45;&gt;Node5 -->
<g id="edge7" class="edge">
<title>Node1&#45;&gt;Node5</title>
<path fill="none" stroke="midnightblue" d="M584.99,-92.24C573.41,-93.94 560.71,-95.67 549,-97 413.07,-112.41 254.21,-123.96 161.06,-130.08"/>
</g>
<!-- Node8 -->
<g id="node6" class="node">
<title>Node8</title>
<g id="a_node6"><a xlink:href="main_8cpp.html#a052aae1f895ebdbdaf816f70d9287e78" target="_top" xlink:title=" ">
<polygon fill="white" stroke="red" points="0.5,-60 0.5,-90 160.5,-90 160.5,-60 0.5,-60"/>
<text text-anchor="start" x="8.5" y="-78" font-family="Helvetica,sans-Serif" font-size="10.00">mainPerEpochPostProcessing</text>
<text text-anchor="middle" x="80.5" y="-67" font-family="Helvetica,sans-Serif" font-size="10.00">AndOutputs</text>
</a>
</g>
</g>
<!-- Node1&#45;&gt;Node8 -->
<g id="edge8" class="edge">
<title>Node1&#45;&gt;Node8</title>
<path fill="none" stroke="midnightblue" d="M584.57,-85.19C495.42,-83.39 278.76,-79 160.96,-76.61"/>
</g>
<!-- Node10 -->
<g id="node7" class="node">
<title>Node10</title>
<g id="a_node7"><a xlink:href="ppp_8cpp.html#acaf9f9b65e2c225585368eca0023995c" target="_top" xlink:title=" ">
<polygon fill="white" stroke="black" points="313,-38.5 313,-57.5 420,-57.5 420,-38.5 313,-38.5"/>
<text text-anchor="middle" x="366.5" y="-45.5" font-family="Helvetica,sans-Serif" font-size="10.00">outputDeltaClocks</text>
</a>
</g>
</g>
<!-- Node1&#45;&gt;Node10 -->
<g id="edge9" class="edge">
<title>Node1&#45;&gt;Node10</title>
<path fill="none" stroke="midnightblue" d="M584.99,-78.27C573.41,-76.12 560.72,-73.86 549,-72 505.68,-65.12 456.32,-58.69 420.02,-54.21"/>
</g>
<!-- Node11 -->
<g id="node8" class="node">
<title>Node11</title>
<g id="a_node8"><a xlink:href="ppp_8cpp.html#a2819b8840bd01cf172f0bda75f89efcc" target="_top" xlink:title=" ">
<polygon fill="white" stroke="black" points="197,-0.5 197,-19.5 277,-19.5 277,-0.5 197,-0.5"/>
<text text-anchor="middle" x="237" y="-7.5" font-family="Helvetica,sans-Serif" font-size="10.00">outputApriori</text>
</a>
</g>
</g>
<!-- Node1&#45;&gt;Node11 -->
<g id="edge11" class="edge">
<title>Node1&#45;&gt;Node11</title>
<path fill="none" stroke="midnightblue" d="M604.06,-76.36C589.08,-69.61 568.12,-60.79 549,-55 453.98,-26.2 336.88,-15.61 277.12,-11.89"/>
</g>
<!-- Node3 -->
<g id="node3" class="node">
<title>Node3</title>
<g id="a_node3"><a xlink:href="rtsSmoothing_8cpp.html#a4e8aaa5b04173a1f1c784b486954de3a" target="_top" xlink:title="Output filter states from a reversed binary trace file.">
<polygon fill="white" stroke="black" points="329.5,-190.5 329.5,-209.5 403.5,-209.5 403.5,-190.5 329.5,-190.5"/>
<text text-anchor="middle" x="366.5" y="-197.5" font-family="Helvetica,sans-Serif" font-size="10.00">RTS_Output</text>
</a>
</g>
</g>
<!-- Node2&#45;&gt;Node3 -->
<g id="edge2" class="edge">
<title>Node2&#45;&gt;Node3</title>
<path fill="none" stroke="midnightblue" d="M467.69,-171.59C447.37,-177.35 421.61,-184.65 401.3,-190.41"/>
</g>
<!-- Node4 -->
<g id="node4" class="node">
<title>Node4</title>
<g id="a_node4"><a xlink:href="rtsSmoothing_8cpp.html#a38ab8796647005faee38cdd21deaf19b" target="_top" xlink:title=" ">
<polygon fill="white" stroke="red" points="198,-152.5 198,-171.5 276,-171.5 276,-152.5 198,-152.5"/>
<text text-anchor="middle" x="237" y="-159.5" font-family="Helvetica,sans-Serif" font-size="10.00">RTS_Process</text>
</a>
</g>
</g>
<!-- Node2&#45;&gt;Node4 -->
<g id="edge6" class="edge">
<title>Node2&#45;&gt;Node4</title>
<path fill="none" stroke="midnightblue" d="M455.9,-162C405.08,-162 323.81,-162 276.2,-162"/>
</g>
<!-- Node3&#45;&gt;Node4 -->
<g id="edge3" class="edge">
<title>Node3&#45;&gt;Node4</title>
<path fill="none" stroke="midnightblue" d="M333.33,-190.41C314,-184.65 289.49,-177.35 270.16,-171.59"/>
</g>
<!-- Node4&#45;&gt;Node5 -->
<g id="edge4" class="edge">
<title>Node4&#45;&gt;Node5</title>
<path fill="none" stroke="midnightblue" d="M197.81,-155.33C179.13,-152.06 156.32,-148.08 135.87,-144.5"/>
</g>
<!-- Node4&#45;&gt;Node8 -->
<g id="edge5" class="edge">
<title>Node4&#45;&gt;Node8</title>
<path fill="none" stroke="midnightblue" d="M220.97,-152.33C205.97,-142.78 182.16,-127.92 161,-116 145.04,-107 126.9,-97.59 111.98,-90.05"/>
</g>
<!-- Node10&#45;&gt;Node8 -->
<g id="edge10" class="edge">
<title>Node10&#45;&gt;Node8</title>
<path fill="none" stroke="midnightblue" d="M312.75,-53.02C270,-57.08 209.1,-62.87 160.53,-67.49"/>
</g>
<!-- Node11&#45;&gt;Node8 -->
<g id="edge12" class="edge">
<title>Node11&#45;&gt;Node8</title>
<path fill="none" stroke="midnightblue" d="M213.2,-19.59C187.94,-30.22 146.86,-47.5 117.29,-59.94"/>
</g>
</g>
</svg>
