<?xml version="1.0" encoding="UTF-8" standalone="no"?>
<!DOCTYPE svg PUBLIC "-//W3C//DTD SVG 1.1//EN"
 "http://www.w3.org/Graphics/SVG/1.1/DTD/svg11.dtd">
<!-- Generated by graphviz version 2.43.0 (0)
 -->
<!-- Title: /data/staging/ginan/src/cpp/common/mongo.hpp Pages: 1 -->
<svg width="803pt" height="173pt"
 viewBox="0.00 0.00 803.27 173.00" xmlns="http://www.w3.org/2000/svg" xmlns:xlink="http://www.w3.org/1999/xlink">
<g id="graph0" class="graph" transform="scale(1 1) rotate(0) translate(4 169)">
<title>/data/staging/ginan/src/cpp/common/mongo.hpp</title>
<polygon fill="white" stroke="transparent" points="-4,4 -4,-169 799.27,-169 799.27,4 -4,4"/>
<!-- Node1 -->
<g id="node1" class="node">
<title>Node1</title>
<g id="a_node1"><a xlink:title=" ">
<polygon fill="#bfbfbf" stroke="black" points="264.27,-134.5 264.27,-164.5 422.27,-164.5 422.27,-134.5 264.27,-134.5"/>
<text text-anchor="start" x="272.27" y="-152.5" font-family="Helvetica,sans-Serif" font-size="10.00">/data/staging/ginan</text>
<text text-anchor="middle" x="343.27" y="-141.5" font-family="Helvetica,sans-Serif" font-size="10.00">/src/cpp/common/mongo.hpp</text>
</a>
</g>
</g>
<!-- Node2 -->
<g id="node2" class="node">
<title>Node2</title>
<g id="a_node2"><a xlink:href="algebra_8cpp.html" target="_top" xlink:title="This software uses specialised kalman filter classes to perform filtering.">
<polygon fill="white" stroke="black" points="81.27,-0.5 81.27,-30.5 241.27,-30.5 241.27,-0.5 81.27,-0.5"/>
<text text-anchor="start" x="89.27" y="-18.5" font-family="Helvetica,sans-Serif" font-size="10.00">/data/staging/ginan</text>
<text text-anchor="middle" x="161.27" y="-7.5" font-family="Helvetica,sans-Serif" font-size="10.00">/src/cpp/common/algebra.cpp</text>
</a>
</g>
</g>
<!-- Node1&#45;&gt;Node2 -->
<g id="edge1" class="edge">
<title>Node1&#45;&gt;Node2</title>
<path fill="none" stroke="midnightblue" d="M263.95,-148C175.5,-145.55 40.6,-135.56 8.27,-98 -20.19,-64.92 32.67,-43.17 83.87,-30.52"/>
</g>
<!-- Node3 -->
<g id="node3" class="node">
<title>Node3</title>
<g id="a_node3"><a xlink:href="mongo_8cpp.html" target="_top" xlink:title=" ">
<polygon fill="white" stroke="black" points="17.77,-67.5 17.77,-97.5 174.77,-97.5 174.77,-67.5 17.77,-67.5"/>
<text text-anchor="start" x="25.77" y="-85.5" font-family="Helvetica,sans-Serif" font-size="10.00">/data/staging/ginan</text>
<text text-anchor="middle" x="96.27" y="-74.5" font-family="Helvetica,sans-Serif" font-size="10.00">/src/cpp/common/mongo.cpp</text>
</a>
</g>
</g>
<!-- Node1&#45;&gt;Node3 -->
<g id="edge2" class="edge">
<title>Node1&#45;&gt;Node3</title>
<path fill="none" stroke="midnightblue" d="M289.98,-134.48C248.57,-123.58 191.39,-108.53 149.89,-97.61"/>
</g>
<!-- Node4 -->
<g id="node4" class="node">
<title>Node4</title>
<g id="a_node4"><a xlink:href="mongoRead_8hpp.html" target="_top" xlink:title=" ">
<polygon fill="white" stroke="red" points="193.27,-67.5 193.27,-97.5 375.27,-97.5 375.27,-67.5 193.27,-67.5"/>
<text text-anchor="start" x="201.27" y="-85.5" font-family="Helvetica,sans-Serif" font-size="10.00">/data/staging/ginan</text>
<text text-anchor="middle" x="284.27" y="-74.5" font-family="Helvetica,sans-Serif" font-size="10.00">/src/cpp/common/mongoRead.hpp</text>
</a>
</g>
</g>
<!-- Node1&#45;&gt;Node4 -->
<g id="edge3" class="edge">
<title>Node1&#45;&gt;Node4</title>
<path fill="none" stroke="midnightblue" d="M330.47,-134.4C320.57,-123.49 306.94,-108.47 297.05,-97.58"/>
</g>
<!-- Node12 -->
<g id="node5" class="node">
<title>Node12</title>
<g id="a_node5"><a xlink:href="mongoWrite_8cpp.html" target="_top" xlink:title=" ">
<polygon fill="white" stroke="black" points="371.77,-0.5 371.77,-30.5 554.77,-30.5 554.77,-0.5 371.77,-0.5"/>
<text text-anchor="start" x="379.77" y="-18.5" font-family="Helvetica,sans-Serif" font-size="10.00">/data/staging/ginan</text>
<text text-anchor="middle" x="463.27" y="-7.5" font-family="Helvetica,sans-Serif" font-size="10.00">/src/cpp/common/mongoWrite.cpp</text>
</a>
</g>
</g>
<!-- Node1&#45;&gt;Node12 -->
<g id="edge4" class="edge">
<title>Node1&#45;&gt;Node12</title>
<path fill="none" stroke="midnightblue" d="M356.11,-134.37C379.21,-108.97 427.49,-55.86 450.52,-30.52"/>
</g>
<!-- Node13 -->
<g id="node6" class="node">
<title>Node13</title>
<g id="a_node6"><a xlink:href="mongoWrite_8hpp.html" target="_top" xlink:title=" ">
<polygon fill="white" stroke="red" points="431.27,-67.5 431.27,-97.5 615.27,-97.5 615.27,-67.5 431.27,-67.5"/>
<text text-anchor="start" x="439.27" y="-85.5" font-family="Helvetica,sans-Serif" font-size="10.00">/data/staging/ginan</text>
<text text-anchor="middle" x="523.27" y="-74.5" font-family="Helvetica,sans-Serif" font-size="10.00">/src/cpp/common/mongoWrite.hpp</text>
</a>
</g>
</g>
<!-- Node1&#45;&gt;Node13 -->
<g id="edge5" class="edge">
<title>Node1&#45;&gt;Node13</title>
<path fill="none" stroke="midnightblue" d="M382.33,-134.4C412.52,-123.49 454.12,-108.47 484.29,-97.58"/>
</g>
<!-- Node20 -->
<g id="node7" class="node">
<title>Node20</title>
<g id="a_node7"><a xlink:href="orbitProp_8cpp.html" target="_top" xlink:title=" ">
<polygon fill="white" stroke="black" points="633.27,-67.5 633.27,-97.5 795.27,-97.5 795.27,-67.5 633.27,-67.5"/>
<text text-anchor="start" x="641.27" y="-85.5" font-family="Helvetica,sans-Serif" font-size="10.00">/data/staging/ginan</text>
<text text-anchor="middle" x="714.27" y="-74.5" font-family="Helvetica,sans-Serif" font-size="10.00">/src/cpp/orbprop/orbitProp.cpp</text>
</a>
</g>
</g>
<!-- Node1&#45;&gt;Node20 -->
<g id="edge8" class="edge">
<title>Node1&#45;&gt;Node20</title>
<path fill="none" stroke="midnightblue" d="M422.41,-134.64C484.87,-123.69 571.63,-108.49 634.3,-97.51"/>
</g>
<!-- Node13&#45;&gt;Node2 -->
<g id="edge6" class="edge">
<title>Node13&#45;&gt;Node2</title>
<path fill="none" stroke="midnightblue" d="M445.17,-67.48C384.37,-56.56 300.39,-41.48 239.55,-30.55"/>
</g>
<!-- Node13&#45;&gt;Node12 -->
<g id="edge7" class="edge">
<title>Node13&#45;&gt;Node12</title>
<path fill="none" stroke="midnightblue" d="M510.25,-67.4C500.19,-56.49 486.32,-41.47 476.27,-30.58"/>
</g>
</g>
</svg>
