<?xml version="1.0" encoding="UTF-8" standalone="no"?>
<!DOCTYPE svg PUBLIC "-//W3C//DTD SVG 1.1//EN"
 "http://www.w3.org/Graphics/SVG/1.1/DTD/svg11.dtd">
<!-- Generated by graphviz version 2.43.0 (0)
 -->
<!-- Title: /data/staging/ginan/src/cpp/common/navigation.hpp Pages: 1 -->
<!--zoomable 240 -->
<svg id="main" version="1.1" xmlns="http://www.w3.org/2000/svg" xmlns:xlink="http://www.w3.org/1999/xlink" xml:space="preserve" onload="init(evt)">
<style type="text/css"><![CDATA[
.edge:hover path { stroke: red; }
.edge:hover polygon { stroke: red; fill: red; }
]]></style>
<script type="text/javascript"><![CDATA[
var edges = document.getElementsByTagName('g');
if (edges && edges.length) {
  for (var i=0;i<edges.length;i++) {
    if (edges[i].id.substr(0,4)=='edge') {
      edges[i].setAttribute('class','edge');
    }
  }
}
]]></script>
        <defs>
                <circle id="rim" cx="0" cy="0" r="7"/>
                <circle id="rim2" cx="0" cy="0" r="3.5"/>
                <g id="zoomPlus">
                        <use xlink:href="#rim" fill="#404040">
                                <set attributeName="fill" to="#808080" begin="zoomplus.mouseover" end="zoomplus.mouseout"/>
                        </use>
                        <path d="M-4,0h8M0,-4v8" fill="none" stroke="white" stroke-width="1.5" pointer-events="none"/>
                </g>
                <g id="zoomMin">
                        <use xlink:href="#rim" fill="#404040">
                                <set attributeName="fill" to="#808080" begin="zoomminus.mouseover" end="zoomminus.mouseout"/>
                        </use>
                        <path d="M-4,0h8" fill="none" stroke="white" stroke-width="1.5" pointer-events="none"/>
                </g>
                <g id="dirArrow">
                        <path fill="none" stroke="white" stroke-width="1.5" d="M0,-3.0v7 M-2.5,-0.5L0,-3.0L2.5,-0.5"/>
                </g>
               <g id="resetDef">
                       <use xlink:href="#rim2" fill="#404040">
                               <set attributeName="fill" to="#808080" begin="reset.mouseover" end="reset.mouseout"/>
                       </use>
               </g>
        </defs>

<script type="text/javascript">
var viewWidth = 5738;
var viewHeight = 240;
var sectionId = 'dynsection-0';
</script>
<script xlink:href="svgpan.js"/>
<svg id="graph" class="graph">
<g id="viewport">
<title>/data/staging/ginan/src/cpp/common/navigation.hpp</title>
<polygon fill="white" stroke="transparent" points="-4,4 -4,-236 5734,-236 5734,4 -4,4"/>
<!-- Node1 -->
<g id="node1" class="node">
<title>Node1</title>
<g id="a_node1"><a xlink:title=" ">
<polygon fill="#bfbfbf" stroke="black" points="3167.5,-201.5 3167.5,-231.5 3343.5,-231.5 3343.5,-201.5 3167.5,-201.5"/>
<text text-anchor="start" x="3175.5" y="-219.5" font-family="Helvetica,sans-Serif" font-size="10.00">/data/staging/ginan</text>
<text text-anchor="middle" x="3255.5" y="-208.5" font-family="Helvetica,sans-Serif" font-size="10.00">/src/cpp/common/navigation.hpp</text>
</a>
</g>
</g>
<!-- Node2 -->
<g id="node2" class="node">
<title>Node2</title>
<g id="a_node2"><a xlink:href="acsQC_8hpp.html" target="_top" xlink:title=" ">
<polygon fill="white" stroke="red" points="0,-134.5 0,-164.5 155,-164.5 155,-134.5 0,-134.5"/>
<text text-anchor="start" x="8" y="-152.5" font-family="Helvetica,sans-Serif" font-size="10.00">/data/staging/ginan</text>
<text text-anchor="middle" x="77.5" y="-141.5" font-family="Helvetica,sans-Serif" font-size="10.00">/src/cpp/common/acsQC.hpp</text>
</a>
</g>
</g>
<!-- Node1&#45;&gt;Node2 -->
<g id="edge1" class="edge">
<title>Node1&#45;&gt;Node2</title>
<path fill="none" stroke="midnightblue" d="M3167.19,-215.73C2727.82,-216.59 774.57,-217.37 169.5,-165 164.83,-164.6 160.03,-164.1 155.21,-163.53"/>
</g>
<!-- Node39 -->
<g id="node3" class="node">
<title>Node39</title>
<g id="a_node3"><a xlink:href="algebraTrace_8cpp.html" target="_top" xlink:title=" ">
<polygon fill="white" stroke="black" points="151.5,-67.5 151.5,-97.5 337.5,-97.5 337.5,-67.5 151.5,-67.5"/>
<text text-anchor="start" x="159.5" y="-85.5" font-family="Helvetica,sans-Serif" font-size="10.00">/data/staging/ginan</text>
<text text-anchor="middle" x="244.5" y="-74.5" font-family="Helvetica,sans-Serif" font-size="10.00">/src/cpp/common/algebraTrace.cpp</text>
</a>
</g>
</g>
<!-- Node1&#45;&gt;Node39 -->
<g id="edge2" class="edge">
<title>Node1&#45;&gt;Node39</title>
<path fill="none" stroke="midnightblue" d="M3167.44,-215.73C2672.25,-216.81 254.9,-219.29 201.5,-165 182.2,-145.38 208.25,-115.34 227.42,-97.73"/>
</g>
<!-- Node40 -->
<g id="node4" class="node">
<title>Node40</title>
<g id="a_node4"><a xlink:href="algebraTrace_8hpp.html" target="_top" xlink:title=" ">
<polygon fill="white" stroke="red" points="211,-134.5 211,-164.5 398,-164.5 398,-134.5 211,-134.5"/>
<text text-anchor="start" x="219" y="-152.5" font-family="Helvetica,sans-Serif" font-size="10.00">/data/staging/ginan</text>
<text text-anchor="middle" x="304.5" y="-141.5" font-family="Helvetica,sans-Serif" font-size="10.00">/src/cpp/common/algebraTrace.hpp</text>
</a>
</g>
</g>
<!-- Node1&#45;&gt;Node40 -->
<g id="edge3" class="edge">
<title>Node1&#45;&gt;Node40</title>
<path fill="none" stroke="midnightblue" d="M3167.49,-215.41C2749.56,-214.73 962.51,-209.28 406.5,-165 403.74,-164.78 400.93,-164.53 398.11,-164.26"/>
</g>
<!-- Node42 -->
<g id="node5" class="node">
<title>Node42</title>
<g id="a_node5"><a xlink:href="debug_8cpp.html" target="_top" xlink:title=" ">
<polygon fill="white" stroke="black" points="969,-67.5 969,-97.5 1122,-97.5 1122,-67.5 969,-67.5"/>
<text text-anchor="start" x="977" y="-85.5" font-family="Helvetica,sans-Serif" font-size="10.00">/data/staging/ginan</text>
<text text-anchor="middle" x="1045.5" y="-74.5" font-family="Helvetica,sans-Serif" font-size="10.00">/src/cpp/common/debug.cpp</text>
</a>
</g>
</g>
<!-- Node1&#45;&gt;Node42 -->
<g id="edge20" class="edge">
<title>Node1&#45;&gt;Node42</title>
<path fill="none" stroke="midnightblue" d="M3167.22,-215.2C2754.68,-213.58 1035.11,-204.48 996.5,-165 976.65,-144.7 1005.59,-114.89 1026.72,-97.51"/>
</g>
<!-- Node11 -->
<g id="node6" class="node">
<title>Node11</title>
<g id="a_node6"><a xlink:href="networkEstimator_8cpp.html" target="_top" xlink:title=" ">
<polygon fill="white" stroke="black" points="4570,-67.5 4570,-97.5 4755,-97.5 4755,-67.5 4570,-67.5"/>
<text text-anchor="start" x="4578" y="-85.5" font-family="Helvetica,sans-Serif" font-size="10.00">/data/staging/ginan</text>
<text text-anchor="middle" x="4662.5" y="-74.5" font-family="Helvetica,sans-Serif" font-size="10.00">/src/cpp/pea/networkEstimator.cpp</text>
</a>
</g>
</g>
<!-- Node1&#45;&gt;Node11 -->
<g id="edge49" class="edge">
<title>Node1&#45;&gt;Node11</title>
<path fill="none" stroke="midnightblue" d="M3343.54,-215.41C3642.51,-214.69 4602.99,-208.98 4651.5,-165 4670.01,-148.22 4668.35,-116.3 4665.45,-97.77"/>
</g>
<!-- Node8 -->
<g id="node7" class="node">
<title>Node8</title>
<g id="a_node7"><a xlink:href="antenna_8cpp.html" target="_top" xlink:title=" ">
<polygon fill="white" stroke="black" points="416,-134.5 416,-164.5 579,-164.5 579,-134.5 416,-134.5"/>
<text text-anchor="start" x="424" y="-152.5" font-family="Helvetica,sans-Serif" font-size="10.00">/data/staging/ginan</text>
<text text-anchor="middle" x="497.5" y="-141.5" font-family="Helvetica,sans-Serif" font-size="10.00">/src/cpp/common/antenna.cpp</text>
</a>
</g>
</g>
<!-- Node1&#45;&gt;Node8 -->
<g id="edge7" class="edge">
<title>Node1&#45;&gt;Node8</title>
<path fill="none" stroke="midnightblue" d="M3167.45,-215.5C2765.86,-215.25 1105.31,-211.38 587.5,-165 584.82,-164.76 582.1,-164.49 579.36,-164.19"/>
</g>
<!-- Node9 -->
<g id="node8" class="node">
<title>Node9</title>
<g id="a_node8"><a xlink:href="attitude_8cpp.html" target="_top" xlink:title=" ">
<polygon fill="white" stroke="black" points="597,-134.5 597,-164.5 758,-164.5 758,-134.5 597,-134.5"/>
<text text-anchor="start" x="605" y="-152.5" font-family="Helvetica,sans-Serif" font-size="10.00">/data/staging/ginan</text>
<text text-anchor="middle" x="677.5" y="-141.5" font-family="Helvetica,sans-Serif" font-size="10.00">/src/cpp/common/attitude.cpp</text>
</a>
</g>
</g>
<!-- Node1&#45;&gt;Node9 -->
<g id="edge8" class="edge">
<title>Node1&#45;&gt;Node9</title>
<path fill="none" stroke="midnightblue" d="M3167.31,-215.38C2782.33,-214.61 1246.96,-208.79 766.5,-165 763.85,-164.76 761.16,-164.49 758.44,-164.19"/>
</g>
<!-- Node100 -->
<g id="node9" class="node">
<title>Node100</title>
<g id="a_node9"><a xlink:href="biasSINEX_8hpp.html" target="_top" xlink:title=" ">
<polygon fill="white" stroke="red" points="776,-134.5 776,-164.5 949,-164.5 949,-134.5 776,-134.5"/>
<text text-anchor="start" x="784" y="-152.5" font-family="Helvetica,sans-Serif" font-size="10.00">/data/staging/ginan</text>
<text text-anchor="middle" x="862.5" y="-141.5" font-family="Helvetica,sans-Serif" font-size="10.00">/src/cpp/common/biasSINEX.hpp</text>
</a>
</g>
</g>
<!-- Node1&#45;&gt;Node100 -->
<g id="edge9" class="edge">
<title>Node1&#45;&gt;Node100</title>
<path fill="none" stroke="midnightblue" d="M3167.33,-214.98C2801.71,-212.61 1403.43,-201.29 963.5,-165 958.82,-164.61 954.03,-164.15 949.2,-163.64"/>
</g>
<!-- Node44 -->
<g id="node10" class="node">
<title>Node44</title>
<g id="a_node10"><a xlink:href="ephPrecise_8cpp.html" target="_top" xlink:title=" ">
<polygon fill="white" stroke="black" points="774.5,-67.5 774.5,-97.5 950.5,-97.5 950.5,-67.5 774.5,-67.5"/>
<text text-anchor="start" x="782.5" y="-85.5" font-family="Helvetica,sans-Serif" font-size="10.00">/data/staging/ginan</text>
<text text-anchor="middle" x="862.5" y="-74.5" font-family="Helvetica,sans-Serif" font-size="10.00">/src/cpp/common/ephPrecise.cpp</text>
</a>
</g>
</g>
<!-- Node1&#45;&gt;Node44 -->
<g id="edge23" class="edge">
<title>Node1&#45;&gt;Node44</title>
<path fill="none" stroke="midnightblue" d="M3167.29,-214.6C2814.78,-210.78 1522.29,-194.83 1440.5,-165 1419.7,-157.41 1422.09,-142.14 1401.5,-134 1309.85,-97.77 1057.4,-109.29 959.5,-98 956.62,-97.67 953.7,-97.32 950.75,-96.95"/>
</g>
<!-- Node57 -->
<g id="node11" class="node">
<title>Node57</title>
<g id="a_node11"><a xlink:href="rinex_8cpp.html" target="_top" xlink:title=" ">
<polygon fill="white" stroke="black" points="1575.5,-67.5 1575.5,-97.5 1723.5,-97.5 1723.5,-67.5 1575.5,-67.5"/>
<text text-anchor="start" x="1583.5" y="-85.5" font-family="Helvetica,sans-Serif" font-size="10.00">/data/staging/ginan</text>
<text text-anchor="middle" x="1649.5" y="-74.5" font-family="Helvetica,sans-Serif" font-size="10.00">/src/cpp/common/rinex.cpp</text>
</a>
</g>
</g>
<!-- Node1&#45;&gt;Node57 -->
<g id="edge35" class="edge">
<title>Node1&#45;&gt;Node57</title>
<path fill="none" stroke="midnightblue" d="M3167.17,-213.23C3102.31,-208.77 3013.36,-196.71 2941.5,-165 2921.24,-156.06 2923.25,-141.72 2902.5,-134 2874.74,-123.68 1988.68,-94.41 1723.66,-85.87"/>
</g>
<!-- Node83 -->
<g id="node12" class="node">
<title>Node83</title>
<g id="a_node12"><a xlink:href="ionoModel_8hpp.html" target="_top" xlink:title=" ">
<polygon fill="white" stroke="red" points="4184,-67.5 4184,-97.5 4337,-97.5 4337,-67.5 4184,-67.5"/>
<text text-anchor="start" x="4192" y="-85.5" font-family="Helvetica,sans-Serif" font-size="10.00">/data/staging/ginan</text>
<text text-anchor="middle" x="4260.5" y="-74.5" font-family="Helvetica,sans-Serif" font-size="10.00">/src/cpp/iono/ionoModel.hpp</text>
</a>
</g>
</g>
<!-- Node1&#45;&gt;Node83 -->
<g id="edge45" class="edge">
<title>Node1&#45;&gt;Node83</title>
<path fill="none" stroke="midnightblue" d="M3343.74,-213.84C3579.28,-209.02 4207.35,-193.55 4241.5,-165 4261.12,-148.6 4262.74,-116.23 4261.84,-97.6"/>
</g>
<!-- Node89 -->
<g id="node13" class="node">
<title>Node89</title>
<g id="a_node13"><a xlink:href="ppp__pseudoobs_8cpp.html" target="_top" xlink:title=" ">
<polygon fill="white" stroke="black" points="4585.5,-0.5 4585.5,-30.5 4759.5,-30.5 4759.5,-0.5 4585.5,-0.5"/>
<text text-anchor="start" x="4593.5" y="-18.5" font-family="Helvetica,sans-Serif" font-size="10.00">/data/staging/ginan</text>
<text text-anchor="middle" x="4672.5" y="-7.5" font-family="Helvetica,sans-Serif" font-size="10.00">/src/cpp/pea/ppp_pseudoobs.cpp</text>
</a>
</g>
</g>
<!-- Node1&#45;&gt;Node89 -->
<g id="edge53" class="edge">
<title>Node1&#45;&gt;Node89</title>
<path fill="none" stroke="midnightblue" d="M3343.52,-214.72C3704.22,-211.32 5051.84,-196.51 5082.5,-165 5182.93,-61.76 4907.65,-29.95 4759.62,-20.42"/>
</g>
<!-- Node53 -->
<g id="node14" class="node">
<title>Node53</title>
<g id="a_node14"><a xlink:href="ppppp_8cpp.html" target="_top" xlink:title=" ">
<polygon fill="white" stroke="black" points="4983.5,-0.5 4983.5,-30.5 5111.5,-30.5 5111.5,-0.5 4983.5,-0.5"/>
<text text-anchor="start" x="4991.5" y="-18.5" font-family="Helvetica,sans-Serif" font-size="10.00">/data/staging/ginan</text>
<text text-anchor="middle" x="5047.5" y="-7.5" font-family="Helvetica,sans-Serif" font-size="10.00">/src/cpp/pea/ppppp.cpp</text>
</a>
</g>
</g>
<!-- Node1&#45;&gt;Node53 -->
<g id="edge55" class="edge">
<title>Node1&#45;&gt;Node53</title>
<path fill="none" stroke="midnightblue" d="M3343.6,-214.97C3729.01,-212.43 5249.15,-200.22 5283.5,-165 5293.12,-155.14 5290.75,-145.71 5283.5,-134 5246.21,-73.78 5167.77,-43.43 5111.55,-28.84"/>
</g>
<!-- Node71 -->
<g id="node15" class="node">
<title>Node71</title>
<g id="a_node15"><a xlink:href="otherSSR_8hpp.html" target="_top" xlink:title=" ">
<polygon fill="white" stroke="red" points="4355.5,-67.5 4355.5,-97.5 4525.5,-97.5 4525.5,-67.5 4355.5,-67.5"/>
<text text-anchor="start" x="4363.5" y="-85.5" font-family="Helvetica,sans-Serif" font-size="10.00">/data/staging/ginan</text>
<text text-anchor="middle" x="4440.5" y="-74.5" font-family="Helvetica,sans-Serif" font-size="10.00">/src/cpp/other_ssr/otherSSR.hpp</text>
</a>
</g>
</g>
<!-- Node1&#45;&gt;Node71 -->
<g id="edge48" class="edge">
<title>Node1&#45;&gt;Node71</title>
<path fill="none" stroke="midnightblue" d="M3343.53,-215.59C3640.1,-215.46 4586.76,-211.41 4631.5,-165 4670.03,-125.03 4593.09,-103.65 4525.65,-92.97"/>
</g>
<!-- Node12 -->
<g id="node16" class="node">
<title>Node12</title>
<g id="a_node16"><a xlink:href="ppp_8cpp.html" target="_top" xlink:title="Precise point positioning.">
<polygon fill="white" stroke="black" points="4799.5,-67.5 4799.5,-97.5 4915.5,-97.5 4915.5,-67.5 4799.5,-67.5"/>
<text text-anchor="start" x="4807.5" y="-85.5" font-family="Helvetica,sans-Serif" font-size="10.00">/data/staging/ginan</text>
<text text-anchor="middle" x="4857.5" y="-74.5" font-family="Helvetica,sans-Serif" font-size="10.00">/src/cpp/pea/ppp.cpp</text>
</a>
</g>
</g>
<!-- Node1&#45;&gt;Node12 -->
<g id="edge51" class="edge">
<title>Node1&#45;&gt;Node12</title>
<path fill="none" stroke="midnightblue" d="M3343.52,-214.38C3675.99,-209.95 4837.84,-192.51 4864.5,-165 4881.7,-147.26 4872.28,-115.98 4864.49,-97.77"/>
</g>
<!-- Node99 -->
<g id="node17" class="node">
<title>Node99</title>
<g id="a_node17"><a xlink:href="spp_8cpp.html" target="_top" xlink:title=" ">
<polygon fill="white" stroke="black" points="5282.5,-67.5 5282.5,-97.5 5398.5,-97.5 5398.5,-67.5 5282.5,-67.5"/>
<text text-anchor="start" x="5290.5" y="-85.5" font-family="Helvetica,sans-Serif" font-size="10.00">/data/staging/ginan</text>
<text text-anchor="middle" x="5340.5" y="-74.5" font-family="Helvetica,sans-Serif" font-size="10.00">/src/cpp/pea/spp.cpp</text>
</a>
</g>
</g>
<!-- Node1&#45;&gt;Node99 -->
<g id="edge56" class="edge">
<title>Node1&#45;&gt;Node99</title>
<path fill="none" stroke="midnightblue" d="M3343.82,-214.75C3732.92,-211.25 5276.8,-195.46 5316.5,-165 5337.1,-149.2 5340.72,-116.6 5340.97,-97.77"/>
</g>
<!-- Node102 -->
<g id="node18" class="node">
<title>Node102</title>
<g id="a_node18"><a xlink:href="ionex_8cpp.html" target="_top" xlink:title=" ">
<polygon fill="white" stroke="black" points="5417,-67.5 5417,-97.5 5550,-97.5 5550,-67.5 5417,-67.5"/>
<text text-anchor="start" x="5425" y="-85.5" font-family="Helvetica,sans-Serif" font-size="10.00">/data/staging/ginan</text>
<text text-anchor="middle" x="5483.5" y="-74.5" font-family="Helvetica,sans-Serif" font-size="10.00">/src/cpp/rtklib/ionex.cpp</text>
</a>
</g>
</g>
<!-- Node1&#45;&gt;Node102 -->
<g id="edge57" class="edge">
<title>Node1&#45;&gt;Node102</title>
<path fill="none" stroke="midnightblue" d="M3343.57,-215.89C3715.25,-217.18 5145.51,-218.61 5339.5,-165 5345.97,-163.21 5419.83,-120.55 5459.17,-97.68"/>
</g>
<!-- Node103 -->
<g id="node19" class="node">
<title>Node103</title>
<g id="a_node19"><a xlink:href="ephBroadcast_8cpp.html" target="_top" xlink:title=" ">
<polygon fill="white" stroke="black" points="1005.5,-134.5 1005.5,-164.5 1195.5,-164.5 1195.5,-134.5 1005.5,-134.5"/>
<text text-anchor="start" x="1013.5" y="-152.5" font-family="Helvetica,sans-Serif" font-size="10.00">/data/staging/ginan</text>
<text text-anchor="middle" x="1100.5" y="-141.5" font-family="Helvetica,sans-Serif" font-size="10.00">/src/cpp/common/ephBroadcast.cpp</text>
</a>
</g>
</g>
<!-- Node1&#45;&gt;Node103 -->
<g id="edge21" class="edge">
<title>Node1&#45;&gt;Node103</title>
<path fill="none" stroke="midnightblue" d="M3167.24,-214.67C2826.24,-211.24 1594.56,-196.89 1204.5,-165 1201.59,-164.76 1198.64,-164.5 1195.67,-164.21"/>
</g>
<!-- Node104 -->
<g id="node20" class="node">
<title>Node104</title>
<g id="a_node20"><a xlink:href="ephKalman_8cpp.html" target="_top" xlink:title=" ">
<polygon fill="white" stroke="black" points="1214,-134.5 1214,-164.5 1393,-164.5 1393,-134.5 1214,-134.5"/>
<text text-anchor="start" x="1222" y="-152.5" font-family="Helvetica,sans-Serif" font-size="10.00">/data/staging/ginan</text>
<text text-anchor="middle" x="1303.5" y="-141.5" font-family="Helvetica,sans-Serif" font-size="10.00">/src/cpp/common/ephKalman.cpp</text>
</a>
</g>
</g>
<!-- Node1&#45;&gt;Node104 -->
<g id="edge22" class="edge">
<title>Node1&#45;&gt;Node104</title>
<path fill="none" stroke="midnightblue" d="M3167.38,-214.39C2848.58,-210.19 1755.74,-193.94 1407.5,-165 1402.78,-164.61 1397.94,-164.14 1393.06,-163.63"/>
</g>
<!-- Node105 -->
<g id="node21" class="node">
<title>Node105</title>
<g id="a_node21"><a xlink:href="ephSSR_8cpp.html" target="_top" xlink:title=" ">
<polygon fill="white" stroke="black" points="1449.5,-134.5 1449.5,-164.5 1609.5,-164.5 1609.5,-134.5 1449.5,-134.5"/>
<text text-anchor="start" x="1457.5" y="-152.5" font-family="Helvetica,sans-Serif" font-size="10.00">/data/staging/ginan</text>
<text text-anchor="middle" x="1529.5" y="-141.5" font-family="Helvetica,sans-Serif" font-size="10.00">/src/cpp/common/ephSSR.cpp</text>
</a>
</g>
</g>
<!-- Node1&#45;&gt;Node105 -->
<g id="edge24" class="edge">
<title>Node1&#45;&gt;Node105</title>
<path fill="none" stroke="midnightblue" d="M3167.42,-214.3C2872.8,-210.06 1923.1,-194.38 1618.5,-165 1615.7,-164.73 1612.84,-164.43 1609.97,-164.09"/>
</g>
<!-- Node48 -->
<g id="node22" class="node">
<title>Node48</title>
<g id="a_node22"><a xlink:href="ephemeris_8cpp.html" target="_top" xlink:title=" ">
<polygon fill="white" stroke="black" points="1628,-134.5 1628,-164.5 1803,-164.5 1803,-134.5 1628,-134.5"/>
<text text-anchor="start" x="1636" y="-152.5" font-family="Helvetica,sans-Serif" font-size="10.00">/data/staging/ginan</text>
<text text-anchor="middle" x="1715.5" y="-141.5" font-family="Helvetica,sans-Serif" font-size="10.00">/src/cpp/common/ephemeris.cpp</text>
</a>
</g>
</g>
<!-- Node1&#45;&gt;Node48 -->
<g id="edge25" class="edge">
<title>Node1&#45;&gt;Node48</title>
<path fill="none" stroke="midnightblue" d="M3167.37,-215.94C2941.48,-216.3 2323.54,-212.47 1811.5,-165 1808.73,-164.74 1805.92,-164.46 1803.08,-164.15"/>
</g>
<!-- Node106 -->
<g id="node23" class="node">
<title>Node106</title>
<g id="a_node23"><a xlink:href="erp_8cpp.html" target="_top" xlink:title=" ">
<polygon fill="white" stroke="black" points="1821,-134.5 1821,-164.5 1960,-164.5 1960,-134.5 1821,-134.5"/>
<text text-anchor="start" x="1829" y="-152.5" font-family="Helvetica,sans-Serif" font-size="10.00">/data/staging/ginan</text>
<text text-anchor="middle" x="1890.5" y="-141.5" font-family="Helvetica,sans-Serif" font-size="10.00">/src/cpp/common/erp.cpp</text>
</a>
</g>
</g>
<!-- Node1&#45;&gt;Node106 -->
<g id="edge26" class="edge">
<title>Node1&#45;&gt;Node106</title>
<path fill="none" stroke="midnightblue" d="M3167.48,-213.71C2916.69,-208.33 2201.55,-191.1 1968.5,-165 1965.76,-164.69 1962.98,-164.35 1960.17,-163.97"/>
</g>
<!-- Node107 -->
<g id="node24" class="node">
<title>Node107</title>
<g id="a_node24"><a xlink:href="gTime_8cpp.html" target="_top" xlink:title=" ">
<polygon fill="white" stroke="black" points="1978,-134.5 1978,-164.5 2131,-164.5 2131,-134.5 1978,-134.5"/>
<text text-anchor="start" x="1986" y="-152.5" font-family="Helvetica,sans-Serif" font-size="10.00">/data/staging/ginan</text>
<text text-anchor="middle" x="2054.5" y="-141.5" font-family="Helvetica,sans-Serif" font-size="10.00">/src/cpp/common/gTime.cpp</text>
</a>
</g>
</g>
<!-- Node1&#45;&gt;Node107 -->
<g id="edge27" class="edge">
<title>Node1&#45;&gt;Node107</title>
<path fill="none" stroke="midnightblue" d="M3167.48,-214.86C2979.38,-212.74 2524.52,-203.69 2145.5,-165 2140.88,-164.53 2136.15,-163.98 2131.37,-163.37"/>
</g>
<!-- Node108 -->
<g id="node25" class="node">
<title>Node108</title>
<g id="a_node25"><a xlink:href="ntripBroadcast_8hpp.html" target="_top" xlink:title=" ">
<polygon fill="white" stroke="red" points="2177,-67.5 2177,-97.5 2372,-97.5 2372,-67.5 2177,-67.5"/>
<text text-anchor="start" x="2185" y="-85.5" font-family="Helvetica,sans-Serif" font-size="10.00">/data/staging/ginan</text>
<text text-anchor="middle" x="2274.5" y="-74.5" font-family="Helvetica,sans-Serif" font-size="10.00">/src/cpp/common/ntripBroadcast.hpp</text>
</a>
</g>
</g>
<!-- Node1&#45;&gt;Node108 -->
<g id="edge28" class="edge">
<title>Node1&#45;&gt;Node108</title>
<path fill="none" stroke="midnightblue" d="M3167.41,-214.64C2916.25,-211.77 2212.44,-200.57 2178.5,-165 2153.82,-139.14 2199.83,-113.07 2236.29,-97.6"/>
</g>
<!-- Node109 -->
<g id="node26" class="node">
<title>Node109</title>
<g id="a_node26"><a xlink:href="ntripTrace_8hpp.html" target="_top" xlink:title=" ">
<polygon fill="white" stroke="red" points="2188,-134.5 2188,-164.5 2361,-164.5 2361,-134.5 2188,-134.5"/>
<text text-anchor="start" x="2196" y="-152.5" font-family="Helvetica,sans-Serif" font-size="10.00">/data/staging/ginan</text>
<text text-anchor="middle" x="2274.5" y="-141.5" font-family="Helvetica,sans-Serif" font-size="10.00">/src/cpp/common/ntripTrace.hpp</text>
</a>
</g>
</g>
<!-- Node1&#45;&gt;Node109 -->
<g id="edge29" class="edge">
<title>Node1&#45;&gt;Node109</title>
<path fill="none" stroke="midnightblue" d="M3167.25,-213.23C3007.67,-208.52 2660.64,-195.45 2369.5,-165 2366.76,-164.71 2363.98,-164.4 2361.18,-164.08"/>
</g>
<!-- Node115 -->
<g id="node27" class="node">
<title>Node115</title>
<g id="a_node27"><a xlink:href="orbex_8cpp.html" target="_top" xlink:title=" ">
<polygon fill="white" stroke="black" points="2379,-134.5 2379,-164.5 2530,-164.5 2530,-134.5 2379,-134.5"/>
<text text-anchor="start" x="2387" y="-152.5" font-family="Helvetica,sans-Serif" font-size="10.00">/data/staging/ginan</text>
<text text-anchor="middle" x="2454.5" y="-141.5" font-family="Helvetica,sans-Serif" font-size="10.00">/src/cpp/common/orbex.cpp</text>
</a>
</g>
</g>
<!-- Node1&#45;&gt;Node115 -->
<g id="edge32" class="edge">
<title>Node1&#45;&gt;Node115</title>
<path fill="none" stroke="midnightblue" d="M3167.48,-212.16C3031.98,-206.36 2764.27,-192.37 2538.5,-165 2535.71,-164.66 2532.87,-164.29 2530,-163.9"/>
</g>
<!-- Node25 -->
<g id="node28" class="node">
<title>Node25</title>
<g id="a_node28"><a xlink:href="orbexWrite_8cpp.html" target="_top" xlink:title=" ">
<polygon fill="white" stroke="black" points="2548,-134.5 2548,-164.5 2725,-164.5 2725,-134.5 2548,-134.5"/>
<text text-anchor="start" x="2556" y="-152.5" font-family="Helvetica,sans-Serif" font-size="10.00">/data/staging/ginan</text>
<text text-anchor="middle" x="2636.5" y="-141.5" font-family="Helvetica,sans-Serif" font-size="10.00">/src/cpp/common/orbexWrite.cpp</text>
</a>
</g>
</g>
<!-- Node1&#45;&gt;Node25 -->
<g id="edge33" class="edge">
<title>Node1&#45;&gt;Node25</title>
<path fill="none" stroke="midnightblue" d="M3167.14,-208.36C3063.21,-199.64 2885.54,-183.71 2733.5,-165 2730.71,-164.66 2727.88,-164.3 2725.02,-163.93"/>
</g>
<!-- Node56 -->
<g id="node29" class="node">
<title>Node56</title>
<g id="a_node29"><a xlink:href="common_2orbits_8cpp.html" target="_top" xlink:title=" ">
<polygon fill="white" stroke="black" points="2743,-134.5 2743,-164.5 2894,-164.5 2894,-134.5 2743,-134.5"/>
<text text-anchor="start" x="2751" y="-152.5" font-family="Helvetica,sans-Serif" font-size="10.00">/data/staging/ginan</text>
<text text-anchor="middle" x="2818.5" y="-141.5" font-family="Helvetica,sans-Serif" font-size="10.00">/src/cpp/common/orbits.cpp</text>
</a>
</g>
</g>
<!-- Node1&#45;&gt;Node56 -->
<g id="edge34" class="edge">
<title>Node1&#45;&gt;Node56</title>
<path fill="none" stroke="midnightblue" d="M3167.38,-203.05C3097.21,-193.05 2996.51,-178.49 2908.5,-165 2903.81,-164.28 2898.98,-163.53 2894.11,-162.77"/>
</g>
<!-- Node35 -->
<g id="node30" class="node">
<title>Node35</title>
<g id="a_node30"><a xlink:href="rinexClkWrite_8cpp.html" target="_top" xlink:title=" ">
<polygon fill="white" stroke="black" points="2950.5,-134.5 2950.5,-164.5 3140.5,-164.5 3140.5,-134.5 2950.5,-134.5"/>
<text text-anchor="start" x="2958.5" y="-152.5" font-family="Helvetica,sans-Serif" font-size="10.00">/data/staging/ginan</text>
<text text-anchor="middle" x="3045.5" y="-141.5" font-family="Helvetica,sans-Serif" font-size="10.00">/src/cpp/common/rinexClkWrite.cpp</text>
</a>
</g>
</g>
<!-- Node1&#45;&gt;Node35 -->
<g id="edge36" class="edge">
<title>Node1&#45;&gt;Node35</title>
<path fill="none" stroke="midnightblue" d="M3210.19,-201.48C3174.98,-190.58 3126.37,-175.53 3091.09,-164.61"/>
</g>
<!-- Node59 -->
<g id="node31" class="node">
<title>Node59</title>
<g id="a_node31"><a xlink:href="rinexNavWrite_8cpp.html" target="_top" xlink:title=" ">
<polygon fill="white" stroke="black" points="3158.5,-134.5 3158.5,-164.5 3352.5,-164.5 3352.5,-134.5 3158.5,-134.5"/>
<text text-anchor="start" x="3166.5" y="-152.5" font-family="Helvetica,sans-Serif" font-size="10.00">/data/staging/ginan</text>
<text text-anchor="middle" x="3255.5" y="-141.5" font-family="Helvetica,sans-Serif" font-size="10.00">/src/cpp/common/rinexNavWrite.cpp</text>
</a>
</g>
</g>
<!-- Node1&#45;&gt;Node59 -->
<g id="edge37" class="edge">
<title>Node1&#45;&gt;Node59</title>
<path fill="none" stroke="midnightblue" d="M3255.5,-201.4C3255.5,-190.49 3255.5,-175.47 3255.5,-164.58"/>
</g>
<!-- Node116 -->
<g id="node32" class="node">
<title>Node116</title>
<g id="a_node32"><a xlink:href="rtcmEncoder_8hpp.html" target="_top" xlink:title=" ">
<polygon fill="white" stroke="red" points="3370,-134.5 3370,-164.5 3555,-164.5 3555,-134.5 3370,-134.5"/>
<text text-anchor="start" x="3378" y="-152.5" font-family="Helvetica,sans-Serif" font-size="10.00">/data/staging/ginan</text>
<text text-anchor="middle" x="3462.5" y="-141.5" font-family="Helvetica,sans-Serif" font-size="10.00">/src/cpp/common/rtcmEncoder.hpp</text>
</a>
</g>
</g>
<!-- Node1&#45;&gt;Node116 -->
<g id="edge38" class="edge">
<title>Node1&#45;&gt;Node116</title>
<path fill="none" stroke="midnightblue" d="M3300.16,-201.48C3334.87,-190.58 3382.79,-175.53 3417.56,-164.61"/>
</g>
<!-- Node62 -->
<g id="node33" class="node">
<title>Node62</title>
<g id="a_node33"><a xlink:href="sinex_8cpp.html" target="_top" xlink:title=" ">
<polygon fill="white" stroke="black" points="3573,-134.5 3573,-164.5 3722,-164.5 3722,-134.5 3573,-134.5"/>
<text text-anchor="start" x="3581" y="-152.5" font-family="Helvetica,sans-Serif" font-size="10.00">/data/staging/ginan</text>
<text text-anchor="middle" x="3647.5" y="-141.5" font-family="Helvetica,sans-Serif" font-size="10.00">/src/cpp/common/sinex.cpp</text>
</a>
</g>
</g>
<!-- Node1&#45;&gt;Node62 -->
<g id="edge41" class="edge">
<title>Node1&#45;&gt;Node62</title>
<path fill="none" stroke="midnightblue" d="M3342.16,-201.49C3403.89,-191.46 3488.82,-177.57 3563.5,-165 3566.56,-164.48 3569.69,-163.96 3572.85,-163.42"/>
</g>
<!-- Node118 -->
<g id="node34" class="node">
<title>Node118</title>
<g id="a_node34"><a xlink:href="sp3_8cpp.html" target="_top" xlink:title=" ">
<polygon fill="white" stroke="black" points="3740.5,-134.5 3740.5,-164.5 3880.5,-164.5 3880.5,-134.5 3740.5,-134.5"/>
<text text-anchor="start" x="3748.5" y="-152.5" font-family="Helvetica,sans-Serif" font-size="10.00">/data/staging/ginan</text>
<text text-anchor="middle" x="3810.5" y="-141.5" font-family="Helvetica,sans-Serif" font-size="10.00">/src/cpp/common/sp3.cpp</text>
</a>
</g>
</g>
<!-- Node1&#45;&gt;Node118 -->
<g id="edge42" class="edge">
<title>Node1&#45;&gt;Node118</title>
<path fill="none" stroke="midnightblue" d="M3343.72,-208.07C3439.28,-199.57 3596.08,-184.3 3730.5,-165 3733.71,-164.54 3737,-164.04 3740.31,-163.52"/>
</g>
<!-- Node36 -->
<g id="node35" class="node">
<title>Node36</title>
<g id="a_node35"><a xlink:href="sp3Write_8cpp.html" target="_top" xlink:title=" ">
<polygon fill="white" stroke="red" points="3899,-134.5 3899,-164.5 4066,-164.5 4066,-134.5 3899,-134.5"/>
<text text-anchor="start" x="3907" y="-152.5" font-family="Helvetica,sans-Serif" font-size="10.00">/data/staging/ginan</text>
<text text-anchor="middle" x="3982.5" y="-141.5" font-family="Helvetica,sans-Serif" font-size="10.00">/src/cpp/common/sp3Write.cpp</text>
</a>
</g>
</g>
<!-- Node1&#45;&gt;Node36 -->
<g id="edge43" class="edge">
<title>Node1&#45;&gt;Node36</title>
<path fill="none" stroke="midnightblue" d="M3343.65,-210.58C3466.3,-203.25 3695.26,-187.85 3889.5,-165 3892.58,-164.64 3895.72,-164.25 3898.89,-163.84"/>
</g>
<!-- Node119 -->
<g id="node36" class="node">
<title>Node119</title>
<g id="a_node36"><a xlink:href="trace_8cpp.html" target="_top" xlink:title=" ">
<polygon fill="white" stroke="black" points="4084.5,-134.5 4084.5,-164.5 4232.5,-164.5 4232.5,-134.5 4084.5,-134.5"/>
<text text-anchor="start" x="4092.5" y="-152.5" font-family="Helvetica,sans-Serif" font-size="10.00">/data/staging/ginan</text>
<text text-anchor="middle" x="4158.5" y="-141.5" font-family="Helvetica,sans-Serif" font-size="10.00">/src/cpp/common/trace.cpp</text>
</a>
</g>
</g>
<!-- Node1&#45;&gt;Node119 -->
<g id="edge44" class="edge">
<title>Node1&#45;&gt;Node119</title>
<path fill="none" stroke="midnightblue" d="M3343.65,-213.22C3494.02,-208.64 3809.55,-195.94 4074.5,-165 4077.73,-164.62 4081.03,-164.2 4084.36,-163.75"/>
</g>
<!-- Node54 -->
<g id="node37" class="node">
<title>Node54</title>
<g id="a_node37"><a xlink:href="orbitProp_8cpp.html" target="_top" xlink:title=" ">
<polygon fill="white" stroke="black" points="4288.5,-134.5 4288.5,-164.5 4450.5,-164.5 4450.5,-134.5 4288.5,-134.5"/>
<text text-anchor="start" x="4296.5" y="-152.5" font-family="Helvetica,sans-Serif" font-size="10.00">/data/staging/ginan</text>
<text text-anchor="middle" x="4369.5" y="-141.5" font-family="Helvetica,sans-Serif" font-size="10.00">/src/cpp/orbprop/orbitProp.cpp</text>
</a>
</g>
</g>
<!-- Node1&#45;&gt;Node54 -->
<g id="edge46" class="edge">
<title>Node1&#45;&gt;Node54</title>
<path fill="none" stroke="midnightblue" d="M3343.64,-214.15C3520.54,-210.79 3931.29,-199.61 4274.5,-165 4279.06,-164.54 4283.75,-164.01 4288.46,-163.43"/>
</g>
<!-- Node120 -->
<g id="node38" class="node">
<title>Node120</title>
<g id="a_node38"><a xlink:href="planets_8cpp.html" target="_top" xlink:title=" ">
<polygon fill="white" stroke="black" points="4468.5,-134.5 4468.5,-164.5 4622.5,-164.5 4622.5,-134.5 4468.5,-134.5"/>
<text text-anchor="start" x="4476.5" y="-152.5" font-family="Helvetica,sans-Serif" font-size="10.00">/data/staging/ginan</text>
<text text-anchor="middle" x="4545.5" y="-141.5" font-family="Helvetica,sans-Serif" font-size="10.00">/src/cpp/orbprop/planets.cpp</text>
</a>
</g>
</g>
<!-- Node1&#45;&gt;Node120 -->
<g id="edge47" class="edge">
<title>Node1&#45;&gt;Node120</title>
<path fill="none" stroke="midnightblue" d="M3343.77,-215.57C3543.2,-214.91 4043.62,-208.61 4459.5,-165 4462.36,-164.7 4465.27,-164.36 4468.21,-164"/>
</g>
<!-- Node91 -->
<g id="node39" class="node">
<title>Node91</title>
<g id="a_node39"><a xlink:href="pea__snx_8cpp.html" target="_top" xlink:title=" ">
<polygon fill="white" stroke="black" points="4717,-134.5 4717,-164.5 4856,-164.5 4856,-134.5 4717,-134.5"/>
<text text-anchor="start" x="4725" y="-152.5" font-family="Helvetica,sans-Serif" font-size="10.00">/data/staging/ginan</text>
<text text-anchor="middle" x="4786.5" y="-141.5" font-family="Helvetica,sans-Serif" font-size="10.00">/src/cpp/pea/pea_snx.cpp</text>
</a>
</g>
</g>
<!-- Node1&#45;&gt;Node91 -->
<g id="edge50" class="edge">
<title>Node1&#45;&gt;Node91</title>
<path fill="none" stroke="midnightblue" d="M3343.63,-214C3615.19,-209.12 4436.83,-192.44 4702.5,-165 4707.21,-164.51 4712.06,-163.92 4716.93,-163.26"/>
</g>
<!-- Node13 -->
<g id="node40" class="node">
<title>Node13</title>
<g id="a_node40"><a xlink:href="ppp__network_8cpp.html" target="_top" xlink:title=" ">
<polygon fill="white" stroke="black" points="4913,-134.5 4913,-164.5 5074,-164.5 5074,-134.5 4913,-134.5"/>
<text text-anchor="start" x="4921" y="-152.5" font-family="Helvetica,sans-Serif" font-size="10.00">/data/staging/ginan</text>
<text text-anchor="middle" x="4993.5" y="-141.5" font-family="Helvetica,sans-Serif" font-size="10.00">/src/cpp/pea/ppp_network.cpp</text>
</a>
</g>
</g>
<!-- Node1&#45;&gt;Node13 -->
<g id="edge52" class="edge">
<title>Node1&#45;&gt;Node13</title>
<path fill="none" stroke="midnightblue" d="M3343.63,-214.2C3639.01,-209.61 4592.55,-192.95 4898.5,-165 4903.24,-164.57 4908.09,-164.05 4912.99,-163.48"/>
</g>
<!-- Node16 -->
<g id="node41" class="node">
<title>Node16</title>
<g id="a_node41"><a xlink:href="ppp__user_8cpp.html" target="_top" xlink:title=" ">
<polygon fill="white" stroke="black" points="5131,-134.5 5131,-164.5 5274,-164.5 5274,-134.5 5131,-134.5"/>
<text text-anchor="start" x="5139" y="-152.5" font-family="Helvetica,sans-Serif" font-size="10.00">/data/staging/ginan</text>
<text text-anchor="middle" x="5202.5" y="-141.5" font-family="Helvetica,sans-Serif" font-size="10.00">/src/cpp/pea/ppp_user.cpp</text>
</a>
</g>
</g>
<!-- Node1&#45;&gt;Node16 -->
<g id="edge54" class="edge">
<title>Node1&#45;&gt;Node16</title>
<path fill="none" stroke="midnightblue" d="M3343.71,-214.74C3664.15,-211.74 4766.06,-199.13 5116.5,-165 5121.17,-164.55 5125.97,-163.99 5130.8,-163.36"/>
</g>
<!-- Node121 -->
<g id="node42" class="node">
<title>Node121</title>
<g id="a_node42"><a xlink:href="rtkcmn_8cpp.html" target="_top" xlink:title=" ">
<polygon fill="white" stroke="black" points="5406.5,-134.5 5406.5,-164.5 5546.5,-164.5 5546.5,-134.5 5406.5,-134.5"/>
<text text-anchor="start" x="5414.5" y="-152.5" font-family="Helvetica,sans-Serif" font-size="10.00">/data/staging/ginan</text>
<text text-anchor="middle" x="5476.5" y="-141.5" font-family="Helvetica,sans-Serif" font-size="10.00">/src/cpp/rtklib/rtkcmn.cpp</text>
</a>
</g>
</g>
<!-- Node1&#45;&gt;Node121 -->
<g id="edge58" class="edge">
<title>Node1&#45;&gt;Node121</title>
<path fill="none" stroke="midnightblue" d="M3343.6,-215.15C3693.42,-213.49 4985.17,-204.75 5392.5,-165 5397.07,-164.55 5401.76,-164 5406.48,-163.38"/>
</g>
<!-- Node93 -->
<g id="node43" class="node">
<title>Node93</title>
<g id="a_node43"><a xlink:href="slr_8hpp.html" target="_top" xlink:title=" ">
<polygon fill="white" stroke="red" points="5564.5,-134.5 5564.5,-164.5 5674.5,-164.5 5674.5,-134.5 5564.5,-134.5"/>
<text text-anchor="start" x="5572.5" y="-152.5" font-family="Helvetica,sans-Serif" font-size="10.00">/data/staging/ginan</text>
<text text-anchor="middle" x="5619.5" y="-141.5" font-family="Helvetica,sans-Serif" font-size="10.00">/src/cpp/slr/slr.hpp</text>
</a>
</g>
</g>
<!-- Node1&#45;&gt;Node93 -->
<g id="edge59" class="edge">
<title>Node1&#45;&gt;Node93</title>
<path fill="none" stroke="midnightblue" d="M3343.77,-215.93C3710.57,-217.35 5115.73,-219.09 5555.5,-165 5558.44,-164.64 5561.44,-164.2 5564.47,-163.71"/>
</g>
<!-- Node94 -->
<g id="node44" class="node">
<title>Node94</title>
<g id="a_node44"><a xlink:href="slrCom_8cpp.html" target="_top" xlink:title=" ">
<polygon fill="white" stroke="black" points="5603,-67.5 5603,-97.5 5730,-97.5 5730,-67.5 5603,-67.5"/>
<text text-anchor="start" x="5611" y="-85.5" font-family="Helvetica,sans-Serif" font-size="10.00">/data/staging/ginan</text>
<text text-anchor="middle" x="5666.5" y="-74.5" font-family="Helvetica,sans-Serif" font-size="10.00">/src/cpp/slr/slrCom.cpp</text>
</a>
</g>
</g>
<!-- Node1&#45;&gt;Node94 -->
<g id="edge62" class="edge">
<title>Node1&#45;&gt;Node94</title>
<path fill="none" stroke="midnightblue" d="M3343.84,-215.34C3775.27,-214.35 5641.76,-207.62 5683.5,-165 5701.1,-147.03 5686.92,-115.84 5676.03,-97.7"/>
</g>
<!-- Node40&#45;&gt;Node39 -->
<g id="edge4" class="edge">
<title>Node40&#45;&gt;Node39</title>
<path fill="none" stroke="midnightblue" d="M291.48,-134.4C281.42,-123.49 267.55,-108.47 257.49,-97.58"/>
</g>
<!-- Node40&#45;&gt;Node42 -->
<g id="edge5" class="edge">
<title>Node40&#45;&gt;Node42</title>
<path fill="none" stroke="midnightblue" d="M398.12,-134.91C400.94,-134.59 403.74,-134.29 406.5,-134 651.49,-108.65 714.86,-126.51 959.5,-98 962.51,-97.65 965.57,-97.27 968.66,-96.85"/>
</g>
<!-- Node40&#45;&gt;Node11 -->
<g id="edge6" class="edge">
<title>Node40&#45;&gt;Node11</title>
<path fill="none" stroke="midnightblue" d="M398.1,-134.7C400.93,-134.44 403.74,-134.21 406.5,-134 1321.29,-65.29 3618.82,-153.71 4534.5,-98 4546,-97.3 4558.05,-96.3 4569.96,-95.14"/>
</g>
<!-- Node100&#45;&gt;Node11 -->
<g id="edge16" class="edge">
<title>Node100&#45;&gt;Node11</title>
<path fill="none" stroke="midnightblue" d="M949.26,-137.86C964.96,-136.29 981.2,-134.9 996.5,-134 2566.29,-41.3 2964.95,-194.63 4534.5,-98 4546,-97.29 4558.05,-96.28 4569.96,-95.12"/>
</g>
<!-- Node100&#45;&gt;Node44 -->
<g id="edge10" class="edge">
<title>Node100&#45;&gt;Node44</title>
<path fill="none" stroke="midnightblue" d="M862.5,-134.4C862.5,-123.49 862.5,-108.47 862.5,-97.58"/>
</g>
<!-- Node100&#45;&gt;Node57 -->
<g id="edge11" class="edge">
<title>Node100&#45;&gt;Node57</title>
<path fill="none" stroke="midnightblue" d="M949.32,-138.71C965.01,-137.06 981.24,-135.42 996.5,-134 1205.96,-114.57 1453.7,-96.85 1575.01,-88.52"/>
</g>
<!-- Node100&#45;&gt;Node83 -->
<g id="edge12" class="edge">
<title>Node100&#45;&gt;Node83</title>
<path fill="none" stroke="midnightblue" d="M949.26,-137.93C964.96,-136.35 981.2,-134.94 996.5,-134 1323.43,-113.83 3721.82,-88.9 4183.67,-84.26"/>
</g>
<!-- Node100&#45;&gt;Node71 -->
<g id="edge15" class="edge">
<title>Node100&#45;&gt;Node71</title>
<path fill="none" stroke="midnightblue" d="M949.26,-137.87C964.96,-136.3 981.2,-134.91 996.5,-134 1739.46,-89.91 3603.68,-158.3 4345.5,-98 4348.74,-97.74 4352.04,-97.43 4355.37,-97.09"/>
</g>
<!-- Node100&#45;&gt;Node12 -->
<g id="edge17" class="edge">
<title>Node100&#45;&gt;Node12</title>
<path fill="none" stroke="midnightblue" d="M949.25,-137.85C964.96,-136.29 981.2,-134.9 996.5,-134 1832.21,-84.91 3929.12,-165.99 4763.5,-98 4775.19,-97.05 4787.62,-95.51 4799.49,-93.78"/>
</g>
<!-- Node100&#45;&gt;Node99 -->
<g id="edge18" class="edge">
<title>Node100&#45;&gt;Node99</title>
<path fill="none" stroke="midnightblue" d="M949.25,-137.85C964.96,-136.28 981.2,-134.9 996.5,-134 1867.93,-82.98 4051.79,-117.21 4924.5,-98 5052.2,-95.19 5201.87,-89.35 5282.3,-86"/>
</g>
<!-- Node100&#45;&gt;Node102 -->
<g id="edge19" class="edge">
<title>Node100&#45;&gt;Node102</title>
<path fill="none" stroke="midnightblue" d="M949.25,-137.84C964.96,-136.27 981.2,-134.89 996.5,-134 1485.8,-105.6 4919.74,-146.12 5407.5,-98 5410.57,-97.7 5413.71,-97.33 5416.87,-96.92"/>
</g>
<!-- Node83&#45;&gt;Node89 -->
<g id="edge13" class="edge">
<title>Node83&#45;&gt;Node89</title>
<path fill="none" stroke="midnightblue" d="M4337.39,-68.48C4340.46,-67.98 4343.51,-67.48 4346.5,-67 4427.35,-53.92 4519.59,-39.7 4585.28,-29.69"/>
</g>
<!-- Node83&#45;&gt;Node53 -->
<g id="edge14" class="edge">
<title>Node83&#45;&gt;Node53</title>
<path fill="none" stroke="midnightblue" d="M4337.34,-68.17C4340.43,-67.75 4343.49,-67.36 4346.5,-67 4468.86,-52.31 4834.58,-29.36 4983.42,-20.33"/>
</g>
<!-- Node109&#45;&gt;Node71 -->
<g id="edge31" class="edge">
<title>Node109&#45;&gt;Node71</title>
<path fill="none" stroke="midnightblue" d="M2361.16,-134.79C2363.97,-134.5 2366.76,-134.23 2369.5,-134 3244.71,-59.57 3470.29,-172.43 4345.5,-98 4348.74,-97.72 4352.04,-97.41 4355.37,-97.05"/>
</g>
<!-- Node109&#45;&gt;Node108 -->
<g id="edge30" class="edge">
<title>Node109&#45;&gt;Node108</title>
<path fill="none" stroke="midnightblue" d="M2274.5,-134.4C2274.5,-123.49 2274.5,-108.47 2274.5,-97.58"/>
</g>
<!-- Node116&#45;&gt;Node42 -->
<g id="edge39" class="edge">
<title>Node116&#45;&gt;Node42</title>
<path fill="none" stroke="midnightblue" d="M3369.81,-134.74C3367.01,-134.47 3364.24,-134.22 3361.5,-134 2566.2,-69.18 2364.21,-117.1 1566.5,-98 1408.65,-94.22 1223.92,-88.86 1122.3,-85.82"/>
</g>
<!-- Node116&#45;&gt;Node108 -->
<g id="edge40" class="edge">
<title>Node116&#45;&gt;Node108</title>
<path fill="none" stroke="midnightblue" d="M3369.8,-134.84C3367.01,-134.54 3364.23,-134.26 3361.5,-134 2997.57,-99.5 2562.77,-88.3 2372.16,-84.89"/>
</g>
<!-- Node93&#45;&gt;Node11 -->
<g id="edge60" class="edge">
<title>Node93&#45;&gt;Node11</title>
<path fill="none" stroke="midnightblue" d="M5564.45,-135.38C5561.43,-134.87 5558.44,-134.4 5555.5,-134 5218.22,-88.22 5129.79,-125.17 4790.5,-98 4779.02,-97.08 4766.98,-95.94 4755.06,-94.72"/>
</g>
<!-- Node93&#45;&gt;Node94 -->
<g id="edge61" class="edge">
<title>Node93&#45;&gt;Node94</title>
<path fill="none" stroke="midnightblue" d="M5629.7,-134.4C5637.58,-123.49 5648.44,-108.47 5656.32,-97.58"/>
</g>
</g>
</svg>
        <g id="navigator" transform="translate(0 0)" fill="#404254">
                <rect fill="#f2f5e9" fill-opacity="0.5" stroke="#606060" stroke-width=".5" x="0" y="0" width="60" height="60"/>
                <use id="zoomplus" xlink:href="#zoomPlus" x="17" y="9" onmousedown="handleZoom(evt,'in')"/>
                <use id="zoomminus" xlink:href="#zoomMin" x="42" y="9" onmousedown="handleZoom(evt,'out')"/>
                <use id="reset" xlink:href="#resetDef" x="30" y="36" onmousedown="handleReset()"/>
                <g id="arrowUp" xlink:href="#dirArrow" transform="translate(30 24)" onmousedown="handlePan(0,-1)">
                  <use xlink:href="#rim" fill="#404040">
                        <set attributeName="fill" to="#808080" begin="arrowUp.mouseover" end="arrowUp.mouseout"/>
                  </use>
                  <path fill="none" stroke="white" stroke-width="1.5" d="M0,-3.0v7 M-2.5,-0.5L0,-3.0L2.5,-0.5"/>
                </g>
                <g id="arrowRight" xlink:href="#dirArrow" transform="rotate(90) translate(36 -43)" onmousedown="handlePan(1,0)">
                  <use xlink:href="#rim" fill="#404040">
                        <set attributeName="fill" to="#808080" begin="arrowRight.mouseover" end="arrowRight.mouseout"/>
                  </use>
                  <path fill="none" stroke="white" stroke-width="1.5" d="M0,-3.0v7 M-2.5,-0.5L0,-3.0L2.5,-0.5"/>
                </g>
                <g id="arrowDown" xlink:href="#dirArrow" transform="rotate(180) translate(-30 -48)" onmousedown="handlePan(0,1)">
                  <use xlink:href="#rim" fill="#404040">
                        <set attributeName="fill" to="#808080" begin="arrowDown.mouseover" end="arrowDown.mouseout"/>
                  </use>
                  <path fill="none" stroke="white" stroke-width="1.5" d="M0,-3.0v7 M-2.5,-0.5L0,-3.0L2.5,-0.5"/>
                </g>
                <g id="arrowLeft" xlink:href="#dirArrow" transform="rotate(270) translate(-36 17)" onmousedown="handlePan(-1,0)">
                  <use xlink:href="#rim" fill="#404040">
                        <set attributeName="fill" to="#808080" begin="arrowLeft.mouseover" end="arrowLeft.mouseout"/>
                  </use>
                  <path fill="none" stroke="white" stroke-width="1.5" d="M0,-3.0v7 M-2.5,-0.5L0,-3.0L2.5,-0.5"/>
                </g>
        </g>
        <svg viewBox="0 0 15 15" width="100%" height="30px" preserveAspectRatio="xMaxYMin meet">
         <g id="arrow_out" transform="scale(0.3 0.3)">
          <a xlink:href="navigation_8hpp__dep__incl_org.svg" target="_base">
           <rect id="button" ry="5" rx="5" y="6" x="6" height="38" width="38"
                fill="#f2f5e9" fill-opacity="0.5" stroke="#606060" stroke-width="1.0"/>
           <path id="arrow"
             d="M 11.500037,31.436501 C 11.940474,20.09759 22.043105,11.32322 32.158766,21.979434 L 37.068811,17.246167 C 37.068811,17.246167 37.088388,32 37.088388,32 L 22.160133,31.978069 C 22.160133,31.978069 26.997745,27.140456 26.997745,27.140456 C 18.528582,18.264221 13.291696,25.230495 11.500037,31.436501 z"
             style="fill:#404040;"/>
          </a>
         </g>
        </svg>
</svg>
