<?xml version="1.0" encoding="UTF-8" standalone="no"?>
<!DOCTYPE svg PUBLIC "-//W3C//DTD SVG 1.1//EN"
 "http://www.w3.org/Graphics/SVG/1.1/DTD/svg11.dtd">
<!-- Generated by graphviz version 2.43.0 (0)
 -->
<!-- Title: /data/acs/ginan/src/cpp/common/navigation.hpp Pages: 1 -->
<!--zoomable 251 -->
<svg id="main" version="1.1" xmlns="http://www.w3.org/2000/svg" xmlns:xlink="http://www.w3.org/1999/xlink" xml:space="preserve" onload="init(evt)">
<style type="text/css"><![CDATA[
.edge:hover path { stroke: red; }
.edge:hover polygon { stroke: red; fill: red; }
]]></style>
<script type="text/javascript"><![CDATA[
var edges = document.getElementsByTagName('g');
if (edges && edges.length) {
  for (var i=0;i<edges.length;i++) {
    if (edges[i].id.substr(0,4)=='edge') {
      edges[i].setAttribute('class','edge');
    }
  }
}
]]></script>
        <defs>
                <circle id="rim" cx="0" cy="0" r="7"/>
                <circle id="rim2" cx="0" cy="0" r="3.5"/>
                <g id="zoomPlus">
                        <use xlink:href="#rim" fill="#404040">
                                <set attributeName="fill" to="#808080" begin="zoomplus.mouseover" end="zoomplus.mouseout"/>
                        </use>
                        <path d="M-4,0h8M0,-4v8" fill="none" stroke="white" stroke-width="1.5" pointer-events="none"/>
                </g>
                <g id="zoomMin">
                        <use xlink:href="#rim" fill="#404040">
                                <set attributeName="fill" to="#808080" begin="zoomminus.mouseover" end="zoomminus.mouseout"/>
                        </use>
                        <path d="M-4,0h8" fill="none" stroke="white" stroke-width="1.5" pointer-events="none"/>
                </g>
                <g id="dirArrow">
                        <path fill="none" stroke="white" stroke-width="1.5" d="M0,-3.0v7 M-2.5,-0.5L0,-3.0L2.5,-0.5"/>
                </g>
               <g id="resetDef">
                       <use xlink:href="#rim2" fill="#404040">
                               <set attributeName="fill" to="#808080" begin="reset.mouseover" end="reset.mouseout"/>
                       </use>
               </g>
        </defs>

<script type="text/javascript">
var viewWidth = 3700;
var viewHeight = 251;
var sectionId = 'dynsection-0';
</script>
<script xlink:href="svgpan.js"/>
<svg id="graph" class="graph">
<g id="viewport">
<title>/data/acs/ginan/src/cpp/common/navigation.hpp</title>
<polygon fill="white" stroke="transparent" points="-4,4 -4,-247 3696,-247 3696,4 -4,4"/>
<!-- Node1 -->
<g id="node1" class="node">
<title>Node1</title>
<g id="a_node1"><a xlink:title=" ">
<polygon fill="#bfbfbf" stroke="black" points="1921.5,-212.5 1921.5,-242.5 2079.5,-242.5 2079.5,-212.5 1921.5,-212.5"/>
<text text-anchor="start" x="1929.5" y="-230.5" font-family="Helvetica,sans-Serif" font-size="10.00">/data/acs/ginan/src</text>
<text text-anchor="middle" x="2000.5" y="-219.5" font-family="Helvetica,sans-Serif" font-size="10.00">/cpp/common/navigation.hpp</text>
</a>
</g>
</g>
<!-- Node2 -->
<g id="node2" class="node">
<title>Node2</title>
<g id="a_node2"><a xlink:href="brdc2sp3__main_8cpp.html" target="_top" xlink:title=" ">
<polygon fill="white" stroke="black" points="0,-134.5 0,-175.5 131,-175.5 131,-134.5 0,-134.5"/>
<text text-anchor="start" x="8" y="-163.5" font-family="Helvetica,sans-Serif" font-size="10.00">/data/acs/ginan/src</text>
<text text-anchor="start" x="8" y="-152.5" font-family="Helvetica,sans-Serif" font-size="10.00">/cpp/brdc2sp3/brdc2sp3</text>
<text text-anchor="middle" x="65.5" y="-141.5" font-family="Helvetica,sans-Serif" font-size="10.00">_main.cpp</text>
</a>
</g>
</g>
<!-- Node1&#45;&gt;Node2 -->
<g id="edge1" class="edge">
<title>Node1&#45;&gt;Node2</title>
<path fill="none" stroke="midnightblue" d="M1921.31,-226.84C1612.83,-227.8 491.27,-227.56 139.5,-176 136.73,-175.59 133.93,-175.12 131.1,-174.59"/>
</g>
<!-- Node3 -->
<g id="node3" class="node">
<title>Node3</title>
<g id="a_node3"><a xlink:href="acsQC_8hpp.html" target="_top" xlink:title=" ">
<polygon fill="white" stroke="red" points="149,-140 149,-170 286,-170 286,-140 149,-140"/>
<text text-anchor="start" x="157" y="-158" font-family="Helvetica,sans-Serif" font-size="10.00">/data/acs/ginan/src</text>
<text text-anchor="middle" x="217.5" y="-147" font-family="Helvetica,sans-Serif" font-size="10.00">/cpp/common/acsQC.hpp</text>
</a>
</g>
</g>
<!-- Node1&#45;&gt;Node3 -->
<g id="edge2" class="edge">
<title>Node1&#45;&gt;Node3</title>
<path fill="none" stroke="midnightblue" d="M1921.34,-226.32C1630.29,-225.31 619.86,-218.75 300.5,-176 290.07,-174.6 279.04,-172.44 268.55,-170.05"/>
</g>
<!-- Node11 -->
<g id="node4" class="node">
<title>Node11</title>
<g id="a_node4"><a xlink:href="acsStream_8cpp.html" target="_top" xlink:title=" ">
<polygon fill="white" stroke="black" points="753.5,-0.5 753.5,-30.5 911.5,-30.5 911.5,-0.5 753.5,-0.5"/>
<text text-anchor="start" x="761.5" y="-18.5" font-family="Helvetica,sans-Serif" font-size="10.00">/data/acs/ginan/src</text>
<text text-anchor="middle" x="832.5" y="-7.5" font-family="Helvetica,sans-Serif" font-size="10.00">/cpp/common/acsStream.cpp</text>
</a>
</g>
</g>
<!-- Node1&#45;&gt;Node11 -->
<g id="edge3" class="edge">
<title>Node1&#45;&gt;Node11</title>
<path fill="none" stroke="midnightblue" d="M1921.44,-226.95C1601.47,-228.4 416.87,-230.09 359.5,-176 324.18,-142.7 320.02,-103.08 352.5,-67 378.78,-37.81 624.06,-24.29 753.44,-19.14"/>
</g>
<!-- Node43 -->
<g id="node5" class="node">
<title>Node43</title>
<g id="a_node5"><a xlink:href="algebraTrace_8cpp.html" target="_top" xlink:title=" ">
<polygon fill="white" stroke="black" points="362,-67.5 362,-97.5 531,-97.5 531,-67.5 362,-67.5"/>
<text text-anchor="start" x="370" y="-85.5" font-family="Helvetica,sans-Serif" font-size="10.00">/data/acs/ginan/src</text>
<text text-anchor="middle" x="446.5" y="-74.5" font-family="Helvetica,sans-Serif" font-size="10.00">/cpp/common/algebraTrace.cpp</text>
</a>
</g>
</g>
<!-- Node1&#45;&gt;Node43 -->
<g id="edge4" class="edge">
<title>Node1&#45;&gt;Node43</title>
<path fill="none" stroke="midnightblue" d="M1921.48,-225.53C1599.05,-221.4 398.77,-204.13 371.5,-176 358.51,-162.6 362.73,-150.48 371.5,-134 380.13,-117.79 396.54,-105.85 411.81,-97.66"/>
</g>
<!-- Node44 -->
<g id="node6" class="node">
<title>Node44</title>
<g id="a_node6"><a xlink:href="algebraTrace_8hpp.html" target="_top" xlink:title=" ">
<polygon fill="white" stroke="red" points="380.5,-140 380.5,-170 550.5,-170 550.5,-140 380.5,-140"/>
<text text-anchor="start" x="388.5" y="-158" font-family="Helvetica,sans-Serif" font-size="10.00">/data/acs/ginan/src</text>
<text text-anchor="middle" x="465.5" y="-147" font-family="Helvetica,sans-Serif" font-size="10.00">/cpp/common/algebraTrace.hpp</text>
</a>
</g>
</g>
<!-- Node1&#45;&gt;Node44 -->
<g id="edge5" class="edge">
<title>Node1&#45;&gt;Node44</title>
<path fill="none" stroke="midnightblue" d="M1921.1,-225.54C1659.5,-222.11 826.28,-208.8 559.5,-176 547.83,-174.56 535.45,-172.4 523.65,-170.02"/>
</g>
<!-- Node46 -->
<g id="node7" class="node">
<title>Node46</title>
<g id="a_node7"><a xlink:href="debug_8cpp.html" target="_top" xlink:title=" ">
<polygon fill="white" stroke="black" points="767.5,-67.5 767.5,-97.5 903.5,-97.5 903.5,-67.5 767.5,-67.5"/>
<text text-anchor="start" x="775.5" y="-85.5" font-family="Helvetica,sans-Serif" font-size="10.00">/data/acs/ginan/src</text>
<text text-anchor="middle" x="835.5" y="-74.5" font-family="Helvetica,sans-Serif" font-size="10.00">/cpp/common/debug.cpp</text>
</a>
</g>
</g>
<!-- Node1&#45;&gt;Node46 -->
<g id="edge17" class="edge">
<title>Node1&#45;&gt;Node46</title>
<path fill="none" stroke="midnightblue" d="M1921.12,-226.23C1689.24,-224.96 1023.73,-217.69 935.5,-176 912.74,-165.25 915.76,-151.33 897.5,-134 883.71,-120.9 866.92,-107.36 854.29,-97.6"/>
</g>
<!-- Node48 -->
<g id="node8" class="node">
<title>Node48</title>
<g id="a_node8"><a xlink:href="networkEstimator_8cpp.html" target="_top" xlink:title=" ">
<polygon fill="white" stroke="black" points="1096.5,-67.5 1096.5,-97.5 1264.5,-97.5 1264.5,-67.5 1096.5,-67.5"/>
<text text-anchor="start" x="1104.5" y="-85.5" font-family="Helvetica,sans-Serif" font-size="10.00">/data/acs/ginan/src</text>
<text text-anchor="middle" x="1180.5" y="-74.5" font-family="Helvetica,sans-Serif" font-size="10.00">/cpp/pea/networkEstimator.cpp</text>
</a>
</g>
</g>
<!-- Node1&#45;&gt;Node48 -->
<g id="edge35" class="edge">
<title>Node1&#45;&gt;Node48</title>
<path fill="none" stroke="midnightblue" d="M2079.59,-225.3C2228.6,-222.22 2538.95,-211.56 2571.5,-176 2584.1,-162.23 2584.52,-147.38 2571.5,-134 2521.2,-82.29 1345.34,-104.57 1273.5,-98 1270.57,-97.73 1267.59,-97.43 1264.59,-97.1"/>
</g>
<!-- Node9 -->
<g id="node9" class="node">
<title>Node9</title>
<g id="a_node9"><a xlink:href="antenna_8cpp.html" target="_top" xlink:title=" ">
<polygon fill="white" stroke="black" points="568.5,-140 568.5,-170 714.5,-170 714.5,-140 568.5,-140"/>
<text text-anchor="start" x="576.5" y="-158" font-family="Helvetica,sans-Serif" font-size="10.00">/data/acs/ginan/src</text>
<text text-anchor="middle" x="641.5" y="-147" font-family="Helvetica,sans-Serif" font-size="10.00">/cpp/common/antenna.cpp</text>
</a>
</g>
</g>
<!-- Node1&#45;&gt;Node9 -->
<g id="edge9" class="edge">
<title>Node1&#45;&gt;Node9</title>
<path fill="none" stroke="midnightblue" d="M1921.36,-225.44C1680.17,-221.88 956.54,-208.69 723.5,-176 713.34,-174.57 702.61,-172.43 692.37,-170.07"/>
</g>
<!-- Node78 -->
<g id="node10" class="node">
<title>Node78</title>
<g id="a_node10"><a xlink:href="biasSINEX_8hpp.html" target="_top" xlink:title=" ">
<polygon fill="white" stroke="red" points="732.5,-140 732.5,-170 888.5,-170 888.5,-140 732.5,-140"/>
<text text-anchor="start" x="740.5" y="-158" font-family="Helvetica,sans-Serif" font-size="10.00">/data/acs/ginan/src</text>
<text text-anchor="middle" x="810.5" y="-147" font-family="Helvetica,sans-Serif" font-size="10.00">/cpp/common/biasSINEX.hpp</text>
</a>
</g>
</g>
<!-- Node1&#45;&gt;Node78 -->
<g id="edge10" class="edge">
<title>Node1&#45;&gt;Node78</title>
<path fill="none" stroke="midnightblue" d="M1921.5,-224.59C1704.04,-219.07 1099.76,-201.79 902.5,-176 891.32,-174.54 879.48,-172.41 868.15,-170.08"/>
</g>
<!-- Node14 -->
<g id="node11" class="node">
<title>Node14</title>
<g id="a_node11"><a xlink:href="preceph_8cpp.html" target="_top" xlink:title=" ">
<polygon fill="white" stroke="black" points="1283,-67.5 1283,-97.5 1428,-97.5 1428,-67.5 1283,-67.5"/>
<text text-anchor="start" x="1291" y="-85.5" font-family="Helvetica,sans-Serif" font-size="10.00">/data/acs/ginan/src</text>
<text text-anchor="middle" x="1355.5" y="-74.5" font-family="Helvetica,sans-Serif" font-size="10.00">/cpp/common/preceph.cpp</text>
</a>
</g>
</g>
<!-- Node1&#45;&gt;Node14 -->
<g id="edge27" class="edge">
<title>Node1&#45;&gt;Node14</title>
<path fill="none" stroke="midnightblue" d="M1921.28,-221.2C1833.56,-214.25 1698.55,-200.03 1653.5,-176 1631.29,-164.15 1637.43,-146.37 1615.5,-134 1584.11,-116.29 1493.68,-101.34 1428.28,-92.4"/>
</g>
<!-- Node67 -->
<g id="node12" class="node">
<title>Node67</title>
<g id="a_node12"><a xlink:href="ionoModel_8hpp.html" target="_top" xlink:title=" ">
<polygon fill="white" stroke="red" points="1484.5,-67.5 1484.5,-97.5 1620.5,-97.5 1620.5,-67.5 1484.5,-67.5"/>
<text text-anchor="start" x="1492.5" y="-85.5" font-family="Helvetica,sans-Serif" font-size="10.00">/data/acs/ginan/src</text>
<text text-anchor="middle" x="1552.5" y="-74.5" font-family="Helvetica,sans-Serif" font-size="10.00">/cpp/iono/ionoModel.hpp</text>
</a>
</g>
</g>
<!-- Node1&#45;&gt;Node67 -->
<g id="edge34" class="edge">
<title>Node1&#45;&gt;Node67</title>
<path fill="none" stroke="midnightblue" d="M2079.59,-225.3C2228.6,-222.22 2538.95,-211.56 2571.5,-176 2584.1,-162.23 2584.44,-147.45 2571.5,-134 2535.18,-96.27 1681.54,-103.86 1629.5,-98 1626.66,-97.68 1623.77,-97.32 1620.85,-96.91"/>
</g>
<!-- Node22 -->
<g id="node13" class="node">
<title>Node22</title>
<g id="a_node13"><a xlink:href="ppp_8cpp.html" target="_top" xlink:title="Precise point positioning.">
<polygon fill="white" stroke="black" points="1638.5,-67.5 1638.5,-97.5 1746.5,-97.5 1746.5,-67.5 1638.5,-67.5"/>
<text text-anchor="start" x="1646.5" y="-85.5" font-family="Helvetica,sans-Serif" font-size="10.00">/data/acs/ginan/src</text>
<text text-anchor="middle" x="1692.5" y="-74.5" font-family="Helvetica,sans-Serif" font-size="10.00">/cpp/pea/ppp.cpp</text>
</a>
</g>
</g>
<!-- Node1&#45;&gt;Node22 -->
<g id="edge37" class="edge">
<title>Node1&#45;&gt;Node22</title>
<path fill="none" stroke="midnightblue" d="M2079.51,-224.31C2274.12,-218.53 2762.56,-201.53 2786.5,-176 2799.27,-162.38 2799.47,-147.43 2786.5,-134 2746.69,-92.77 1812.32,-105.46 1755.5,-98 1752.61,-97.62 1749.65,-97.17 1746.68,-96.66"/>
</g>
<!-- Node76 -->
<g id="node14" class="node">
<title>Node76</title>
<g id="a_node14"><a xlink:href="spp_8cpp.html" target="_top" xlink:title=" ">
<polygon fill="white" stroke="black" points="1764.5,-67.5 1764.5,-97.5 1872.5,-97.5 1872.5,-67.5 1764.5,-67.5"/>
<text text-anchor="start" x="1772.5" y="-85.5" font-family="Helvetica,sans-Serif" font-size="10.00">/data/acs/ginan/src</text>
<text text-anchor="middle" x="1818.5" y="-74.5" font-family="Helvetica,sans-Serif" font-size="10.00">/cpp/pea/spp.cpp</text>
</a>
</g>
</g>
<!-- Node1&#45;&gt;Node76 -->
<g id="edge42" class="edge">
<title>Node1&#45;&gt;Node76</title>
<path fill="none" stroke="midnightblue" d="M2079.65,-226.74C2375.06,-227.25 3398.75,-225.45 3446.5,-176 3459.47,-162.57 3459.55,-147.35 3446.5,-134 3416.11,-102.9 1924.65,-103.4 1881.5,-98 1878.6,-97.64 1875.65,-97.2 1872.67,-96.7"/>
</g>
<!-- Node81 -->
<g id="node15" class="node">
<title>Node81</title>
<g id="a_node15"><a xlink:href="ionex_8cpp.html" target="_top" xlink:title=" ">
<polygon fill="white" stroke="black" points="1890.5,-67.5 1890.5,-97.5 2006.5,-97.5 2006.5,-67.5 1890.5,-67.5"/>
<text text-anchor="start" x="1898.5" y="-85.5" font-family="Helvetica,sans-Serif" font-size="10.00">/data/acs/ginan/src</text>
<text text-anchor="middle" x="1948.5" y="-74.5" font-family="Helvetica,sans-Serif" font-size="10.00">/cpp/rtklib/ionex.cpp</text>
</a>
</g>
</g>
<!-- Node1&#45;&gt;Node81 -->
<g id="edge43" class="edge">
<title>Node1&#45;&gt;Node81</title>
<path fill="none" stroke="midnightblue" d="M2079.59,-226.8C2379.15,-227.57 3429.57,-226.63 3478.5,-176 3491.47,-162.58 3491.54,-147.36 3478.5,-134 3450.13,-104.92 2056.84,-102.76 2016.5,-98 2013.26,-97.62 2009.95,-97.16 2006.62,-96.63"/>
</g>
<!-- Node75 -->
<g id="node16" class="node">
<title>Node75</title>
<g id="a_node16"><a xlink:href="rinex_8cpp.html" target="_top" xlink:title=" ">
<polygon fill="white" stroke="black" points="2025,-67.5 2025,-97.5 2138,-97.5 2138,-67.5 2025,-67.5"/>
<text text-anchor="start" x="2033" y="-85.5" font-family="Helvetica,sans-Serif" font-size="10.00">/data/acs/ginan/src</text>
<text text-anchor="middle" x="2081.5" y="-74.5" font-family="Helvetica,sans-Serif" font-size="10.00">/cpp/rtklib/rinex.cpp</text>
</a>
</g>
</g>
<!-- Node1&#45;&gt;Node75 -->
<g id="edge44" class="edge">
<title>Node1&#45;&gt;Node75</title>
<path fill="none" stroke="midnightblue" d="M2079.52,-226.84C2381.34,-227.74 3446.91,-227.29 3496.5,-176 3509.47,-162.58 3509.52,-147.37 3496.5,-134 3444.2,-80.28 2221.92,-107.08 2147.5,-98 2144.47,-97.63 2141.38,-97.19 2138.26,-96.69"/>
</g>
<!-- Node12 -->
<g id="node17" class="node">
<title>Node12</title>
<g id="a_node17"><a xlink:href="ephemeris_8cpp.html" target="_top" xlink:title=" ">
<polygon fill="white" stroke="black" points="944.5,-140 944.5,-170 1102.5,-170 1102.5,-140 944.5,-140"/>
<text text-anchor="start" x="952.5" y="-158" font-family="Helvetica,sans-Serif" font-size="10.00">/data/acs/ginan/src</text>
<text text-anchor="middle" x="1023.5" y="-147" font-family="Helvetica,sans-Serif" font-size="10.00">/cpp/common/ephemeris.cpp</text>
</a>
</g>
</g>
<!-- Node1&#45;&gt;Node12 -->
<g id="edge18" class="edge">
<title>Node1&#45;&gt;Node12</title>
<path fill="none" stroke="midnightblue" d="M1921.28,-226.42C1765.42,-225.28 1408.27,-217.86 1111.5,-176 1100.8,-174.49 1089.47,-172.34 1078.63,-170.01"/>
</g>
<!-- Node82 -->
<g id="node18" class="node">
<title>Node82</title>
<g id="a_node18"><a xlink:href="erp_8cpp.html" target="_top" xlink:title=" ">
<polygon fill="white" stroke="black" points="1120.5,-140 1120.5,-170 1242.5,-170 1242.5,-140 1120.5,-140"/>
<text text-anchor="start" x="1128.5" y="-158" font-family="Helvetica,sans-Serif" font-size="10.00">/data/acs/ginan/src</text>
<text text-anchor="middle" x="1181.5" y="-147" font-family="Helvetica,sans-Serif" font-size="10.00">/cpp/common/erp.cpp</text>
</a>
</g>
</g>
<!-- Node1&#45;&gt;Node82 -->
<g id="edge19" class="edge">
<title>Node1&#45;&gt;Node82</title>
<path fill="none" stroke="midnightblue" d="M1921.46,-226.12C1784.92,-224.36 1496.46,-215.76 1256.5,-176 1247.46,-174.5 1237.93,-172.39 1228.81,-170.09"/>
</g>
<!-- Node83 -->
<g id="node19" class="node">
<title>Node83</title>
<g id="a_node19"><a xlink:href="ntripBroadcast_8hpp.html" target="_top" xlink:title=" ">
<polygon fill="white" stroke="red" points="1367.5,-0.5 1367.5,-30.5 1545.5,-30.5 1545.5,-0.5 1367.5,-0.5"/>
<text text-anchor="start" x="1375.5" y="-18.5" font-family="Helvetica,sans-Serif" font-size="10.00">/data/acs/ginan/src</text>
<text text-anchor="middle" x="1456.5" y="-7.5" font-family="Helvetica,sans-Serif" font-size="10.00">/cpp/common/ntripBroadcast.hpp</text>
</a>
</g>
</g>
<!-- Node1&#45;&gt;Node83 -->
<g id="edge20" class="edge">
<title>Node1&#45;&gt;Node83</title>
<path fill="none" stroke="midnightblue" d="M1921.3,-224.2C1747.8,-218.67 1345.13,-203.09 1289.5,-176 1266.87,-164.98 1273.27,-146.63 1251.5,-134 1186.95,-96.55 1134.27,-156.15 1087.5,-98 1078.86,-87.26 1078.44,-77.38 1087.5,-67 1123.1,-26.19 1270.09,-17.17 1367.46,-15.8"/>
</g>
<!-- Node84 -->
<g id="node20" class="node">
<title>Node84</title>
<g id="a_node20"><a xlink:href="ntripTrace_8hpp.html" target="_top" xlink:title=" ">
<polygon fill="white" stroke="red" points="1299,-140 1299,-170 1454,-170 1454,-140 1299,-140"/>
<text text-anchor="start" x="1307" y="-158" font-family="Helvetica,sans-Serif" font-size="10.00">/data/acs/ginan/src</text>
<text text-anchor="middle" x="1376.5" y="-147" font-family="Helvetica,sans-Serif" font-size="10.00">/cpp/common/ntripTrace.hpp</text>
</a>
</g>
</g>
<!-- Node1&#45;&gt;Node84 -->
<g id="edge21" class="edge">
<title>Node1&#45;&gt;Node84</title>
<path fill="none" stroke="midnightblue" d="M1921.38,-222.34C1816.27,-216.07 1625.05,-202.05 1463.5,-176 1453.4,-174.37 1442.73,-172.25 1432.45,-170.01"/>
</g>
<!-- Node92 -->
<g id="node21" class="node">
<title>Node92</title>
<g id="a_node21"><a xlink:href="rtcmEncoder_8hpp.html" target="_top" xlink:title=" ">
<polygon fill="white" stroke="red" points="2156.5,-67.5 2156.5,-97.5 2324.5,-97.5 2324.5,-67.5 2156.5,-67.5"/>
<text text-anchor="start" x="2164.5" y="-85.5" font-family="Helvetica,sans-Serif" font-size="10.00">/data/acs/ginan/src</text>
<text text-anchor="middle" x="2240.5" y="-74.5" font-family="Helvetica,sans-Serif" font-size="10.00">/cpp/common/rtcmEncoder.hpp</text>
</a>
</g>
</g>
<!-- Node1&#45;&gt;Node92 -->
<g id="edge30" class="edge">
<title>Node1&#45;&gt;Node92</title>
<path fill="none" stroke="midnightblue" d="M2011.72,-212.33C2031.25,-187.8 2070.19,-139.52 2078.5,-134 2104.39,-116.81 2136.46,-105.21 2165.21,-97.51"/>
</g>
<!-- Node13 -->
<g id="node22" class="node">
<title>Node13</title>
<g id="a_node22"><a xlink:href="common_2orbits_8cpp.html" target="_top" xlink:title=" ">
<polygon fill="white" stroke="black" points="1472.5,-140 1472.5,-170 1606.5,-170 1606.5,-140 1472.5,-140"/>
<text text-anchor="start" x="1480.5" y="-158" font-family="Helvetica,sans-Serif" font-size="10.00">/data/acs/ginan/src</text>
<text text-anchor="middle" x="1539.5" y="-147" font-family="Helvetica,sans-Serif" font-size="10.00">/cpp/common/orbits.cpp</text>
</a>
</g>
</g>
<!-- Node1&#45;&gt;Node13 -->
<g id="edge26" class="edge">
<title>Node1&#45;&gt;Node13</title>
<path fill="none" stroke="midnightblue" d="M1921.5,-218.56C1844.35,-210.21 1723.82,-195.56 1620.5,-176 1611.53,-174.3 1602.08,-172.23 1592.91,-170.07"/>
</g>
<!-- Node15 -->
<g id="node23" class="node">
<title>Node15</title>
<g id="a_node23"><a xlink:href="rinexClkWrite_8cpp.html" target="_top" xlink:title=" ">
<polygon fill="white" stroke="black" points="1663,-140 1663,-170 1836,-170 1836,-140 1663,-140"/>
<text text-anchor="start" x="1671" y="-158" font-family="Helvetica,sans-Serif" font-size="10.00">/data/acs/ginan/src</text>
<text text-anchor="middle" x="1749.5" y="-147" font-family="Helvetica,sans-Serif" font-size="10.00">/cpp/common/rinexClkWrite.cpp</text>
</a>
</g>
</g>
<!-- Node1&#45;&gt;Node15 -->
<g id="edge28" class="edge">
<title>Node1&#45;&gt;Node15</title>
<path fill="none" stroke="midnightblue" d="M1950.61,-212.49C1906.86,-200.2 1843.57,-182.42 1799.72,-170.11"/>
</g>
<!-- Node56 -->
<g id="node24" class="node">
<title>Node56</title>
<g id="a_node24"><a xlink:href="rinexNavWrite_8cpp.html" target="_top" xlink:title=" ">
<polygon fill="white" stroke="black" points="1854.5,-140 1854.5,-170 2030.5,-170 2030.5,-140 1854.5,-140"/>
<text text-anchor="start" x="1862.5" y="-158" font-family="Helvetica,sans-Serif" font-size="10.00">/data/acs/ginan/src</text>
<text text-anchor="middle" x="1942.5" y="-147" font-family="Helvetica,sans-Serif" font-size="10.00">/cpp/common/rinexNavWrite.cpp</text>
</a>
</g>
</g>
<!-- Node1&#45;&gt;Node56 -->
<g id="edge29" class="edge">
<title>Node1&#45;&gt;Node56</title>
<path fill="none" stroke="midnightblue" d="M1988.76,-212.23C1978.7,-200 1964.28,-182.47 1954.22,-170.25"/>
</g>
<!-- Node94 -->
<g id="node25" class="node">
<title>Node94</title>
<g id="a_node25"><a xlink:href="sp3_8cpp.html" target="_top" xlink:title=" ">
<polygon fill="white" stroke="black" points="2087,-140 2087,-170 2210,-170 2210,-140 2087,-140"/>
<text text-anchor="start" x="2095" y="-158" font-family="Helvetica,sans-Serif" font-size="10.00">/data/acs/ginan/src</text>
<text text-anchor="middle" x="2148.5" y="-147" font-family="Helvetica,sans-Serif" font-size="10.00">/cpp/common/sp3.cpp</text>
</a>
</g>
</g>
<!-- Node1&#45;&gt;Node94 -->
<g id="edge31" class="edge">
<title>Node1&#45;&gt;Node94</title>
<path fill="none" stroke="midnightblue" d="M2030.09,-212.4C2055.91,-200.11 2093.16,-182.36 2118.96,-170.07"/>
</g>
<!-- Node16 -->
<g id="node26" class="node">
<title>Node16</title>
<g id="a_node26"><a xlink:href="sp3Write_8cpp.html" target="_top" xlink:title=" ">
<polygon fill="white" stroke="black" points="2228,-140 2228,-170 2377,-170 2377,-140 2228,-140"/>
<text text-anchor="start" x="2236" y="-158" font-family="Helvetica,sans-Serif" font-size="10.00">/data/acs/ginan/src</text>
<text text-anchor="middle" x="2302.5" y="-147" font-family="Helvetica,sans-Serif" font-size="10.00">/cpp/common/sp3Write.cpp</text>
</a>
</g>
</g>
<!-- Node1&#45;&gt;Node16 -->
<g id="edge32" class="edge">
<title>Node1&#45;&gt;Node16</title>
<path fill="none" stroke="midnightblue" d="M2062.37,-212.4C2106.25,-202.36 2166.52,-188.49 2219.5,-176 2227.58,-174.1 2236.09,-172.07 2244.47,-170.06"/>
</g>
<!-- Node95 -->
<g id="node27" class="node">
<title>Node95</title>
<g id="a_node27"><a xlink:href="streamTrace_8cpp.html" target="_top" xlink:title=" ">
<polygon fill="white" stroke="black" points="2395,-140 2395,-170 2562,-170 2562,-140 2395,-140"/>
<text text-anchor="start" x="2403" y="-158" font-family="Helvetica,sans-Serif" font-size="10.00">/data/acs/ginan/src</text>
<text text-anchor="middle" x="2478.5" y="-147" font-family="Helvetica,sans-Serif" font-size="10.00">/cpp/common/streamTrace.cpp</text>
</a>
</g>
</g>
<!-- Node1&#45;&gt;Node95 -->
<g id="edge33" class="edge">
<title>Node1&#45;&gt;Node95</title>
<path fill="none" stroke="midnightblue" d="M2079.53,-218.13C2157.75,-209.38 2280.79,-194.37 2386.5,-176 2396.48,-174.26 2407.03,-172.2 2417.28,-170.06"/>
</g>
<!-- Node73 -->
<g id="node28" class="node">
<title>Node73</title>
<g id="a_node28"><a xlink:href="pea__snx_8cpp.html" target="_top" xlink:title=" ">
<polygon fill="white" stroke="black" points="2655.5,-140 2655.5,-170 2777.5,-170 2777.5,-140 2655.5,-140"/>
<text text-anchor="start" x="2663.5" y="-158" font-family="Helvetica,sans-Serif" font-size="10.00">/data/acs/ginan/src</text>
<text text-anchor="middle" x="2716.5" y="-147" font-family="Helvetica,sans-Serif" font-size="10.00">/cpp/pea/pea_snx.cpp</text>
</a>
</g>
</g>
<!-- Node1&#45;&gt;Node73 -->
<g id="edge36" class="edge">
<title>Node1&#45;&gt;Node73</title>
<path fill="none" stroke="midnightblue" d="M2079.52,-224.89C2201.09,-221.38 2440.97,-210.34 2641.5,-176 2650.53,-174.45 2660.06,-172.32 2669.18,-170.01"/>
</g>
<!-- Node23 -->
<g id="node29" class="node">
<title>Node23</title>
<g id="a_node29"><a xlink:href="ppp__network_8cpp.html" target="_top" xlink:title=" ">
<polygon fill="white" stroke="black" points="2833.5,-140 2833.5,-170 2977.5,-170 2977.5,-140 2833.5,-140"/>
<text text-anchor="start" x="2841.5" y="-158" font-family="Helvetica,sans-Serif" font-size="10.00">/data/acs/ginan/src</text>
<text text-anchor="middle" x="2905.5" y="-147" font-family="Helvetica,sans-Serif" font-size="10.00">/cpp/pea/ppp_network.cpp</text>
</a>
</g>
</g>
<!-- Node1&#45;&gt;Node23 -->
<g id="edge38" class="edge">
<title>Node1&#45;&gt;Node23</title>
<path fill="none" stroke="midnightblue" d="M2079.73,-226C2226.45,-224.09 2550.09,-215.35 2819.5,-176 2829.81,-174.49 2840.72,-172.38 2851.17,-170.08"/>
</g>
<!-- Node24 -->
<g id="node30" class="node">
<title>Node24</title>
<g id="a_node30"><a xlink:href="ppp__user_8cpp.html" target="_top" xlink:title=" ">
<polygon fill="white" stroke="black" points="2996,-140 2996,-170 3121,-170 3121,-140 2996,-140"/>
<text text-anchor="start" x="3004" y="-158" font-family="Helvetica,sans-Serif" font-size="10.00">/data/acs/ginan/src</text>
<text text-anchor="middle" x="3058.5" y="-147" font-family="Helvetica,sans-Serif" font-size="10.00">/cpp/pea/ppp_user.cpp</text>
</a>
</g>
</g>
<!-- Node1&#45;&gt;Node24 -->
<g id="edge39" class="edge">
<title>Node1&#45;&gt;Node24</title>
<path fill="none" stroke="midnightblue" d="M2079.81,-224.69C2281.91,-219.7 2812.56,-204.26 2986.5,-176 2995.46,-174.54 3004.91,-172.39 3013.9,-170.03"/>
</g>
<!-- Node53 -->
<g id="node31" class="node">
<title>Node53</title>
<g id="a_node31"><a xlink:href="ppppp_8cpp.html" target="_top" xlink:title=" ">
<polygon fill="white" stroke="black" points="3139,-140 3139,-170 3250,-170 3250,-140 3139,-140"/>
<text text-anchor="start" x="3147" y="-158" font-family="Helvetica,sans-Serif" font-size="10.00">/data/acs/ginan/src</text>
<text text-anchor="middle" x="3194.5" y="-147" font-family="Helvetica,sans-Serif" font-size="10.00">/cpp/pea/ppppp.cpp</text>
</a>
</g>
</g>
<!-- Node1&#45;&gt;Node53 -->
<g id="edge40" class="edge">
<title>Node1&#45;&gt;Node53</title>
<path fill="none" stroke="midnightblue" d="M2079.54,-225.62C2301.62,-222.71 2928.14,-211.52 3130.5,-176 3138.53,-174.59 3146.95,-172.46 3154.95,-170.1"/>
</g>
<!-- Node74 -->
<g id="node32" class="node">
<title>Node74</title>
<g id="a_node32"><a xlink:href="ppppp__pseudoobs_8cpp.html" target="_top" xlink:title=" ">
<polygon fill="white" stroke="black" points="3268,-140 3268,-170 3437,-170 3437,-140 3268,-140"/>
<text text-anchor="start" x="3276" y="-158" font-family="Helvetica,sans-Serif" font-size="10.00">/data/acs/ginan/src</text>
<text text-anchor="middle" x="3352.5" y="-147" font-family="Helvetica,sans-Serif" font-size="10.00">/cpp/pea/ppppp_pseudoobs.cpp</text>
</a>
</g>
</g>
<!-- Node1&#45;&gt;Node74 -->
<g id="edge41" class="edge">
<title>Node1&#45;&gt;Node74</title>
<path fill="none" stroke="midnightblue" d="M2079.75,-225.1C2318.69,-220.61 3029.73,-205.1 3259.5,-176 3270.97,-174.55 3283.12,-172.39 3294.72,-170.03"/>
</g>
<!-- Node96 -->
<g id="node33" class="node">
<title>Node96</title>
<g id="a_node33"><a xlink:href="rtkcmn_8cpp.html" target="_top" xlink:title=" ">
<polygon fill="white" stroke="black" points="3569,-140 3569,-170 3692,-170 3692,-140 3569,-140"/>
<text text-anchor="start" x="3577" y="-158" font-family="Helvetica,sans-Serif" font-size="10.00">/data/acs/ginan/src</text>
<text text-anchor="middle" x="3630.5" y="-147" font-family="Helvetica,sans-Serif" font-size="10.00">/cpp/rtklib/rtkcmn.cpp</text>
</a>
</g>
</g>
<!-- Node1&#45;&gt;Node96 -->
<g id="edge45" class="edge">
<title>Node1&#45;&gt;Node96</title>
<path fill="none" stroke="midnightblue" d="M2079.9,-226.28C2354.88,-225.13 3265.53,-218.17 3554.5,-176 3564.09,-174.6 3574.2,-172.44 3583.81,-170.05"/>
</g>
<!-- Node44&#45;&gt;Node43 -->
<g id="edge6" class="edge">
<title>Node44&#45;&gt;Node43</title>
<path fill="none" stroke="midnightblue" d="M461.66,-139.73C458.36,-127.5 453.63,-109.97 450.34,-97.75"/>
</g>
<!-- Node44&#45;&gt;Node46 -->
<g id="edge7" class="edge">
<title>Node44&#45;&gt;Node46</title>
<path fill="none" stroke="midnightblue" d="M530.17,-139.98C539.99,-137.93 550.01,-135.88 559.5,-134 630.22,-120.01 711.42,-105.32 767.34,-95.41"/>
</g>
<!-- Node44&#45;&gt;Node48 -->
<g id="edge8" class="edge">
<title>Node44&#45;&gt;Node48</title>
<path fill="none" stroke="midnightblue" d="M525.72,-139.99C536.9,-137.73 548.52,-135.61 559.5,-134 660.71,-119.18 951.31,-98.7 1096.23,-89"/>
</g>
<!-- Node78&#45;&gt;Node14 -->
<g id="edge11" class="edge">
<title>Node78&#45;&gt;Node14</title>
<path fill="none" stroke="midnightblue" d="M888.76,-140.83C904.23,-138.41 920.36,-136.02 935.5,-134 1085.25,-114.06 1123.92,-119.17 1273.5,-98 1276.51,-97.57 1279.57,-97.12 1282.66,-96.65"/>
</g>
<!-- Node78&#45;&gt;Node67 -->
<g id="edge12" class="edge">
<title>Node78&#45;&gt;Node67</title>
<path fill="none" stroke="midnightblue" d="M888.7,-140.42C904.18,-138.03 920.33,-135.76 935.5,-134 1157.26,-108.34 1214.33,-119.85 1436.5,-98 1452.05,-96.47 1468.74,-94.55 1484.48,-92.61"/>
</g>
<!-- Node78&#45;&gt;Node22 -->
<g id="edge13" class="edge">
<title>Node78&#45;&gt;Node22</title>
<path fill="none" stroke="midnightblue" d="M888.68,-140.18C904.16,-137.81 920.31,-135.6 935.5,-134 1242.65,-101.56 1323.62,-140.8 1629.5,-98 1632.39,-97.6 1635.34,-97.12 1638.32,-96.6"/>
</g>
<!-- Node78&#45;&gt;Node76 -->
<g id="edge14" class="edge">
<title>Node78&#45;&gt;Node76</title>
<path fill="none" stroke="midnightblue" d="M888.67,-140.08C904.15,-137.72 920.3,-135.54 935.5,-134 1298.43,-97.12 1394.03,-147.11 1755.5,-98 1758.39,-97.61 1761.35,-97.14 1764.32,-96.63"/>
</g>
<!-- Node78&#45;&gt;Node81 -->
<g id="edge15" class="edge">
<title>Node78&#45;&gt;Node81</title>
<path fill="none" stroke="midnightblue" d="M888.66,-140.01C904.14,-137.66 920.3,-135.5 935.5,-134 1354.22,-92.69 1464.06,-150.7 1881.5,-98 1884.33,-97.64 1887.23,-97.22 1890.14,-96.76"/>
</g>
<!-- Node78&#45;&gt;Node75 -->
<g id="edge16" class="edge">
<title>Node78&#45;&gt;Node75</title>
<path fill="none" stroke="midnightblue" d="M888.66,-139.95C904.13,-137.61 920.3,-135.46 935.5,-134 1413.56,-87.97 1538.97,-157.78 2015.5,-98 2018.53,-97.62 2021.62,-97.17 2024.73,-96.66"/>
</g>
<!-- Node84&#45;&gt;Node83 -->
<g id="edge22" class="edge">
<title>Node84&#45;&gt;Node83</title>
<path fill="none" stroke="midnightblue" d="M1396.94,-139.86C1410.14,-129.69 1426.63,-114.84 1436.5,-98 1449.03,-76.63 1453.74,-47.7 1455.49,-30.68"/>
</g>
<!-- Node84&#45;&gt;Node92 -->
<g id="edge23" class="edge">
<title>Node84&#45;&gt;Node92</title>
<path fill="none" stroke="midnightblue" d="M1430.99,-139.95C1441.71,-137.62 1452.91,-135.48 1463.5,-134 1764.97,-91.74 1844.71,-129.49 2147.5,-98 2150.43,-97.7 2153.4,-97.36 2156.4,-97.01"/>
</g>
<!-- Node92&#45;&gt;Node11 -->
<g id="edge24" class="edge">
<title>Node92&#45;&gt;Node11</title>
<path fill="none" stroke="midnightblue" d="M2156.41,-67.94C2153.4,-67.6 2150.43,-67.28 2147.5,-67 2024.99,-55.14 1176.9,-27.46 911.62,-19"/>
</g>
<!-- Node92&#45;&gt;Node83 -->
<g id="edge25" class="edge">
<title>Node92&#45;&gt;Node83</title>
<path fill="none" stroke="midnightblue" d="M2156.39,-68.07C2153.39,-67.69 2150.42,-67.33 2147.5,-67 1932.09,-42.38 1677.45,-27.39 1545.62,-20.68"/>
</g>
</g>
</svg>
        <g id="navigator" transform="translate(0 0)" fill="#404254">
                <rect fill="#f2f5e9" fill-opacity="0.5" stroke="#606060" stroke-width=".5" x="0" y="0" width="60" height="60"/>
                <use id="zoomplus" xlink:href="#zoomPlus" x="17" y="9" onmousedown="handleZoom(evt,'in')"/>
                <use id="zoomminus" xlink:href="#zoomMin" x="42" y="9" onmousedown="handleZoom(evt,'out')"/>
                <use id="reset" xlink:href="#resetDef" x="30" y="36" onmousedown="handleReset()"/>
                <g id="arrowUp" xlink:href="#dirArrow" transform="translate(30 24)" onmousedown="handlePan(0,-1)">
                  <use xlink:href="#rim" fill="#404040">
                        <set attributeName="fill" to="#808080" begin="arrowUp.mouseover" end="arrowUp.mouseout"/>
                  </use>
                  <path fill="none" stroke="white" stroke-width="1.5" d="M0,-3.0v7 M-2.5,-0.5L0,-3.0L2.5,-0.5"/>
                </g>
                <g id="arrowRight" xlink:href="#dirArrow" transform="rotate(90) translate(36 -43)" onmousedown="handlePan(1,0)">
                  <use xlink:href="#rim" fill="#404040">
                        <set attributeName="fill" to="#808080" begin="arrowRight.mouseover" end="arrowRight.mouseout"/>
                  </use>
                  <path fill="none" stroke="white" stroke-width="1.5" d="M0,-3.0v7 M-2.5,-0.5L0,-3.0L2.5,-0.5"/>
                </g>
                <g id="arrowDown" xlink:href="#dirArrow" transform="rotate(180) translate(-30 -48)" onmousedown="handlePan(0,1)">
                  <use xlink:href="#rim" fill="#404040">
                        <set attributeName="fill" to="#808080" begin="arrowDown.mouseover" end="arrowDown.mouseout"/>
                  </use>
                  <path fill="none" stroke="white" stroke-width="1.5" d="M0,-3.0v7 M-2.5,-0.5L0,-3.0L2.5,-0.5"/>
                </g>
                <g id="arrowLeft" xlink:href="#dirArrow" transform="rotate(270) translate(-36 17)" onmousedown="handlePan(-1,0)">
                  <use xlink:href="#rim" fill="#404040">
                        <set attributeName="fill" to="#808080" begin="arrowLeft.mouseover" end="arrowLeft.mouseout"/>
                  </use>
                  <path fill="none" stroke="white" stroke-width="1.5" d="M0,-3.0v7 M-2.5,-0.5L0,-3.0L2.5,-0.5"/>
                </g>
        </g>
        <svg viewBox="0 0 15 15" width="100%" height="30px" preserveAspectRatio="xMaxYMin meet">
         <g id="arrow_out" transform="scale(0.3 0.3)">
          <a xlink:href="navigation_8hpp__dep__incl_org.svg" target="_base">
           <rect id="button" ry="5" rx="5" y="6" x="6" height="38" width="38"
                fill="#f2f5e9" fill-opacity="0.5" stroke="#606060" stroke-width="1.0"/>
           <path id="arrow"
             d="M 11.500037,31.436501 C 11.940474,20.09759 22.043105,11.32322 32.158766,21.979434 L 37.068811,17.246167 C 37.068811,17.246167 37.088388,32 37.088388,32 L 22.160133,31.978069 C 22.160133,31.978069 26.997745,27.140456 26.997745,27.140456 C 18.528582,18.264221 13.291696,25.230495 11.500037,31.436501 z"
             style="fill:#404040;"/>
          </a>
         </g>
        </svg>
</svg>
