<?xml version="1.0" encoding="UTF-8" standalone="no"?>
<!DOCTYPE svg PUBLIC "-//W3C//DTD SVG 1.1//EN"
 "http://www.w3.org/Graphics/SVG/1.1/DTD/svg11.dtd">
<!-- Generated by graphviz version 2.43.0 (0)
 -->
<!-- Title: /ginan/src/cpp/common/ntripSocket.hpp Pages: 1 -->
<svg width="336pt" height="240pt"
 viewBox="0.00 0.00 336.01 240.00" xmlns="http://www.w3.org/2000/svg" xmlns:xlink="http://www.w3.org/1999/xlink">
<g id="graph0" class="graph" transform="scale(1 1) rotate(0) translate(4 236)">
<title>/ginan/src/cpp/common/ntripSocket.hpp</title>
<polygon fill="white" stroke="transparent" points="-4,4 -4,-236 332.01,-236 332.01,4 -4,4"/>
<!-- Node1 -->
<g id="node1" class="node">
<title>Node1</title>
<g id="a_node1"><a xlink:title=" ">
<polygon fill="#bfbfbf" stroke="black" points="90.51,-201.5 90.51,-231.5 220.51,-231.5 220.51,-201.5 90.51,-201.5"/>
<text text-anchor="start" x="98.51" y="-219.5" font-family="Helvetica,sans-Serif" font-size="10.00">/ginan/src/cpp/common</text>
<text text-anchor="middle" x="155.51" y="-208.5" font-family="Helvetica,sans-Serif" font-size="10.00">/ntripSocket.hpp</text>
</a>
</g>
</g>
<!-- Node2 -->
<g id="node2" class="node">
<title>Node2</title>
<g id="a_node2"><a xlink:href="ntripBroadcast_8hpp.html" target="_top" xlink:title=" ">
<polygon fill="white" stroke="red" points="164.51,-67.5 164.51,-97.5 294.51,-97.5 294.51,-67.5 164.51,-67.5"/>
<text text-anchor="start" x="172.51" y="-85.5" font-family="Helvetica,sans-Serif" font-size="10.00">/ginan/src/cpp/common</text>
<text text-anchor="middle" x="229.51" y="-74.5" font-family="Helvetica,sans-Serif" font-size="10.00">/ntripBroadcast.hpp</text>
</a>
</g>
</g>
<!-- Node1&#45;&gt;Node2 -->
<g id="edge1" class="edge">
<title>Node1&#45;&gt;Node2</title>
<path fill="none" stroke="midnightblue" d="M80.57,-201.41C31.55,-188.79 -18.9,-167.1 7.51,-134 26.87,-109.75 105.98,-96.25 164.27,-89.44"/>
<polygon fill="midnightblue" stroke="midnightblue" points="79.78,-204.82 90.33,-203.81 81.46,-198.02 79.78,-204.82"/>
</g>
<!-- Node4 -->
<g id="node3" class="node">
<title>Node4</title>
<g id="a_node3"><a xlink:href="main_8cpp.html" target="_top" xlink:title=" ">
<polygon fill="white" stroke="black" points="223.01,-0.5 223.01,-30.5 328.01,-30.5 328.01,-0.5 223.01,-0.5"/>
<text text-anchor="start" x="231.01" y="-18.5" font-family="Helvetica,sans-Serif" font-size="10.00">/ginan/src/cpp/pea</text>
<text text-anchor="middle" x="275.51" y="-7.5" font-family="Helvetica,sans-Serif" font-size="10.00">/main.cpp</text>
</a>
</g>
</g>
<!-- Node1&#45;&gt;Node4 -->
<g id="edge6" class="edge">
<title>Node1&#45;&gt;Node4</title>
<path fill="none" stroke="midnightblue" d="M230.83,-207.99C258.29,-201.19 286.7,-188.5 303.51,-165 328.86,-129.58 314.42,-109.17 303.51,-67 300.1,-53.8 292.41,-40.37 285.95,-30.69"/>
<polygon fill="midnightblue" stroke="midnightblue" points="229.77,-204.64 220.77,-210.24 231.3,-211.47 229.77,-204.64"/>
</g>
<!-- Node5 -->
<g id="node4" class="node">
<title>Node5</title>
<g id="a_node4"><a xlink:href="ntripSocket_8cpp.html" target="_top" xlink:title=" ">
<polygon fill="white" stroke="black" points="16.51,-134.5 16.51,-164.5 146.51,-164.5 146.51,-134.5 16.51,-134.5"/>
<text text-anchor="start" x="24.51" y="-152.5" font-family="Helvetica,sans-Serif" font-size="10.00">/ginan/src/cpp/common</text>
<text text-anchor="middle" x="81.51" y="-141.5" font-family="Helvetica,sans-Serif" font-size="10.00">/ntripSocket.cpp</text>
</a>
</g>
</g>
<!-- Node1&#45;&gt;Node5 -->
<g id="edge3" class="edge">
<title>Node1&#45;&gt;Node5</title>
<path fill="none" stroke="midnightblue" d="M131.72,-194.6C120.54,-184.78 107.52,-173.34 97.54,-164.58"/>
<polygon fill="midnightblue" stroke="midnightblue" points="129.63,-197.43 139.46,-201.4 134.25,-192.17 129.63,-197.43"/>
</g>
<!-- Node6 -->
<g id="node5" class="node">
<title>Node6</title>
<g id="a_node5"><a xlink:href="streamNtrip_8hpp.html" target="_top" xlink:title=" ">
<polygon fill="white" stroke="red" points="164.51,-134.5 164.51,-164.5 294.51,-164.5 294.51,-134.5 164.51,-134.5"/>
<text text-anchor="start" x="172.51" y="-152.5" font-family="Helvetica,sans-Serif" font-size="10.00">/ginan/src/cpp/common</text>
<text text-anchor="middle" x="229.51" y="-141.5" font-family="Helvetica,sans-Serif" font-size="10.00">/streamNtrip.hpp</text>
</a>
</g>
</g>
<!-- Node1&#45;&gt;Node6 -->
<g id="edge4" class="edge">
<title>Node1&#45;&gt;Node6</title>
<path fill="none" stroke="midnightblue" d="M179.31,-194.6C190.48,-184.78 203.51,-173.34 213.49,-164.58"/>
<polygon fill="midnightblue" stroke="midnightblue" points="176.77,-192.17 171.57,-201.4 181.39,-197.43 176.77,-192.17"/>
</g>
<!-- Node2&#45;&gt;Node4 -->
<g id="edge2" class="edge">
<title>Node2&#45;&gt;Node4</title>
<path fill="none" stroke="midnightblue" d="M245.33,-59.16C252.03,-49.68 259.65,-38.92 265.55,-30.58"/>
<polygon fill="midnightblue" stroke="midnightblue" points="242.41,-57.21 239.49,-67.4 248.13,-61.26 242.41,-57.21"/>
</g>
<!-- Node6&#45;&gt;Node2 -->
<g id="edge5" class="edge">
<title>Node6&#45;&gt;Node2</title>
<path fill="none" stroke="midnightblue" d="M229.51,-124.11C229.51,-115.15 229.51,-105.32 229.51,-97.58"/>
<polygon fill="midnightblue" stroke="midnightblue" points="226.01,-124.4 229.51,-134.4 233.01,-124.4 226.01,-124.4"/>
</g>
</g>
</svg>
