<?xml version="1.0" encoding="UTF-8" standalone="no"?>
<!DOCTYPE svg PUBLIC "-//W3C//DTD SVG 1.1//EN"
 "http://www.w3.org/Graphics/SVG/1.1/DTD/svg11.dtd">
<!-- Generated by graphviz version 2.43.0 (0)
 -->
<!-- Title: /data/acs/ginan/src/cpp/common/observations.hpp Pages: 1 -->
<!--zoomable 240 -->
<svg id="main" version="1.1" xmlns="http://www.w3.org/2000/svg" xmlns:xlink="http://www.w3.org/1999/xlink" xml:space="preserve" onload="init(evt)">
<style type="text/css"><![CDATA[
.edge:hover path { stroke: red; }
.edge:hover polygon { stroke: red; fill: red; }
]]></style>
<script type="text/javascript"><![CDATA[
var edges = document.getElementsByTagName('g');
if (edges && edges.length) {
  for (var i=0;i<edges.length;i++) {
    if (edges[i].id.substr(0,4)=='edge') {
      edges[i].setAttribute('class','edge');
    }
  }
}
]]></script>
        <defs>
                <circle id="rim" cx="0" cy="0" r="7"/>
                <circle id="rim2" cx="0" cy="0" r="3.5"/>
                <g id="zoomPlus">
                        <use xlink:href="#rim" fill="#404040">
                                <set attributeName="fill" to="#808080" begin="zoomplus.mouseover" end="zoomplus.mouseout"/>
                        </use>
                        <path d="M-4,0h8M0,-4v8" fill="none" stroke="white" stroke-width="1.5" pointer-events="none"/>
                </g>
                <g id="zoomMin">
                        <use xlink:href="#rim" fill="#404040">
                                <set attributeName="fill" to="#808080" begin="zoomminus.mouseover" end="zoomminus.mouseout"/>
                        </use>
                        <path d="M-4,0h8" fill="none" stroke="white" stroke-width="1.5" pointer-events="none"/>
                </g>
                <g id="dirArrow">
                        <path fill="none" stroke="white" stroke-width="1.5" d="M0,-3.0v7 M-2.5,-0.5L0,-3.0L2.5,-0.5"/>
                </g>
               <g id="resetDef">
                       <use xlink:href="#rim2" fill="#404040">
                               <set attributeName="fill" to="#808080" begin="reset.mouseover" end="reset.mouseout"/>
                       </use>
               </g>
        </defs>

<script type="text/javascript">
var viewWidth = 2618;
var viewHeight = 240;
var sectionId = 'dynsection-0';
</script>
<script xlink:href="svgpan.js"/>
<svg id="graph" class="graph">
<g id="viewport">
<title>/data/acs/ginan/src/cpp/common/observations.hpp</title>
<polygon fill="white" stroke="transparent" points="-4,4 -4,-236 2614,-236 2614,4 -4,4"/>
<!-- Node1 -->
<g id="node1" class="node">
<title>Node1</title>
<g id="a_node1"><a xlink:title=" ">
<polygon fill="#bfbfbf" stroke="black" points="1386,-201.5 1386,-231.5 1556,-231.5 1556,-201.5 1386,-201.5"/>
<text text-anchor="start" x="1394" y="-219.5" font-family="Helvetica,sans-Serif" font-size="10.00">/data/acs/ginan/src</text>
<text text-anchor="middle" x="1471" y="-208.5" font-family="Helvetica,sans-Serif" font-size="10.00">/cpp/common/observations.hpp</text>
</a>
</g>
</g>
<!-- Node2 -->
<g id="node2" class="node">
<title>Node2</title>
<g id="a_node2"><a xlink:href="GNSSambres_8hpp.html" target="_top" xlink:title=" ">
<polygon fill="white" stroke="red" points="0,-134.5 0,-164.5 164,-164.5 164,-134.5 0,-134.5"/>
<text text-anchor="start" x="8" y="-152.5" font-family="Helvetica,sans-Serif" font-size="10.00">/data/acs/ginan/src</text>
<text text-anchor="middle" x="82" y="-141.5" font-family="Helvetica,sans-Serif" font-size="10.00">/cpp/ambres/GNSSambres.hpp</text>
</a>
</g>
</g>
<!-- Node1&#45;&gt;Node2 -->
<g id="edge1" class="edge">
<title>Node1&#45;&gt;Node2</title>
<path fill="none" stroke="midnightblue" d="M1385.68,-215.43C1178.35,-214.56 631.73,-207.99 178,-165 173.47,-164.57 168.83,-164.07 164.15,-163.52"/>
</g>
<!-- Node9 -->
<g id="node3" class="node">
<title>Node9</title>
<g id="a_node3"><a xlink:href="mongoWrite_8cpp.html" target="_top" xlink:title=" ">
<polygon fill="white" stroke="black" points="806,-67.5 806,-97.5 972,-97.5 972,-67.5 806,-67.5"/>
<text text-anchor="start" x="814" y="-85.5" font-family="Helvetica,sans-Serif" font-size="10.00">/data/acs/ginan/src</text>
<text text-anchor="middle" x="889" y="-74.5" font-family="Helvetica,sans-Serif" font-size="10.00">/cpp/common/mongoWrite.cpp</text>
</a>
</g>
</g>
<!-- Node1&#45;&gt;Node9 -->
<g id="edge30" class="edge">
<title>Node1&#45;&gt;Node9</title>
<path fill="none" stroke="midnightblue" d="M1385.94,-208.43C1339.54,-201.88 1282.29,-189.27 1236,-165 1218.18,-155.66 1221.06,-142.88 1203,-134 1182.56,-123.95 1058.03,-105.88 972.07,-94.3"/>
</g>
<!-- Node14 -->
<g id="node4" class="node">
<title>Node14</title>
<g id="a_node4"><a xlink:href="preprocessor_8cpp.html" target="_top" xlink:title=" ">
<polygon fill="white" stroke="black" points="928,-0.5 928,-30.5 1072,-30.5 1072,-0.5 928,-0.5"/>
<text text-anchor="start" x="936" y="-18.5" font-family="Helvetica,sans-Serif" font-size="10.00">/data/acs/ginan/src</text>
<text text-anchor="middle" x="1000" y="-7.5" font-family="Helvetica,sans-Serif" font-size="10.00">/cpp/pea/preprocessor.cpp</text>
</a>
</g>
</g>
<!-- Node1&#45;&gt;Node14 -->
<g id="edge51" class="edge">
<title>Node1&#45;&gt;Node14</title>
<path fill="none" stroke="midnightblue" d="M1556.18,-215.47C1816.42,-213.96 2575.91,-198.41 2449,-67 2400.75,-17.04 1358.28,-15.69 1072.11,-16.27"/>
</g>
<!-- Node15 -->
<g id="node5" class="node">
<title>Node15</title>
<g id="a_node5"><a xlink:href="acsQC_8cpp.html" target="_top" xlink:title=" ">
<polygon fill="white" stroke="black" points="220.5,-0.5 220.5,-30.5 357.5,-30.5 357.5,-0.5 220.5,-0.5"/>
<text text-anchor="start" x="228.5" y="-18.5" font-family="Helvetica,sans-Serif" font-size="10.00">/data/acs/ginan/src</text>
<text text-anchor="middle" x="289" y="-7.5" font-family="Helvetica,sans-Serif" font-size="10.00">/cpp/common/acsQC.cpp</text>
</a>
</g>
</g>
<!-- Node1&#45;&gt;Node15 -->
<g id="edge4" class="edge">
<title>Node1&#45;&gt;Node15</title>
<path fill="none" stroke="midnightblue" d="M1385.53,-215.21C1112.63,-213.86 277.69,-206.34 238,-165 201,-126.46 250.55,-59.88 275.81,-30.8"/>
</g>
<!-- Node16 -->
<g id="node6" class="node">
<title>Node16</title>
<g id="a_node6"><a xlink:href="acsQC_8hpp.html" target="_top" xlink:title=" ">
<polygon fill="white" stroke="red" points="303.5,-67.5 303.5,-97.5 440.5,-97.5 440.5,-67.5 303.5,-67.5"/>
<text text-anchor="start" x="311.5" y="-85.5" font-family="Helvetica,sans-Serif" font-size="10.00">/data/acs/ginan/src</text>
<text text-anchor="middle" x="372" y="-74.5" font-family="Helvetica,sans-Serif" font-size="10.00">/cpp/common/acsQC.hpp</text>
</a>
</g>
</g>
<!-- Node1&#45;&gt;Node16 -->
<g id="edge5" class="edge">
<title>Node1&#45;&gt;Node16</title>
<path fill="none" stroke="midnightblue" d="M1385.82,-215.18C1114.86,-213.73 288.3,-205.96 249,-165 221.15,-135.98 273.73,-111.9 318.55,-97.62"/>
</g>
<!-- Node81 -->
<g id="node7" class="node">
<title>Node81</title>
<g id="a_node7"><a xlink:href="corrections_8cpp.html" target="_top" xlink:title=" ">
<polygon fill="white" stroke="black" points="258,-134.5 258,-164.5 418,-164.5 418,-134.5 258,-134.5"/>
<text text-anchor="start" x="266" y="-152.5" font-family="Helvetica,sans-Serif" font-size="10.00">/data/acs/ginan/src</text>
<text text-anchor="middle" x="338" y="-141.5" font-family="Helvetica,sans-Serif" font-size="10.00">/cpp/common/corrections.cpp</text>
</a>
</g>
</g>
<!-- Node1&#45;&gt;Node81 -->
<g id="edge8" class="edge">
<title>Node1&#45;&gt;Node81</title>
<path fill="none" stroke="midnightblue" d="M1385.83,-214.64C1207.48,-212.12 781.84,-202.37 427,-165 424.2,-164.7 421.35,-164.38 418.48,-164.03"/>
</g>
<!-- Node98 -->
<g id="node8" class="node">
<title>Node98</title>
<g id="a_node8"><a xlink:href="corrections_8hpp.html" target="_top" xlink:title=" ">
<polygon fill="white" stroke="red" points="436.5,-134.5 436.5,-164.5 597.5,-164.5 597.5,-134.5 436.5,-134.5"/>
<text text-anchor="start" x="444.5" y="-152.5" font-family="Helvetica,sans-Serif" font-size="10.00">/data/acs/ginan/src</text>
<text text-anchor="middle" x="517" y="-141.5" font-family="Helvetica,sans-Serif" font-size="10.00">/cpp/common/corrections.hpp</text>
</a>
</g>
</g>
<!-- Node1&#45;&gt;Node98 -->
<g id="edge9" class="edge">
<title>Node1&#45;&gt;Node98</title>
<path fill="none" stroke="midnightblue" d="M1385.74,-213.11C1231.16,-208.19 894.46,-194.79 612,-165 607.27,-164.5 602.42,-163.93 597.53,-163.32"/>
</g>
<!-- Node41 -->
<g id="node9" class="node">
<title>Node41</title>
<g id="a_node9"><a xlink:href="ionoMeas_8cpp.html" target="_top" xlink:title=" ">
<polygon fill="white" stroke="black" points="1387.5,-67.5 1387.5,-97.5 1518.5,-97.5 1518.5,-67.5 1387.5,-67.5"/>
<text text-anchor="start" x="1395.5" y="-85.5" font-family="Helvetica,sans-Serif" font-size="10.00">/data/acs/ginan/src</text>
<text text-anchor="middle" x="1453" y="-74.5" font-family="Helvetica,sans-Serif" font-size="10.00">/cpp/iono/ionoMeas.cpp</text>
</a>
</g>
</g>
<!-- Node1&#45;&gt;Node41 -->
<g id="edge39" class="edge">
<title>Node1&#45;&gt;Node41</title>
<path fill="none" stroke="midnightblue" d="M1556.02,-210.82C1668.53,-203.73 1855.19,-188.57 1876,-165 1885.12,-154.67 1885.23,-144.23 1876,-134 1823.93,-76.27 1604.91,-109.39 1528,-98 1524.98,-97.55 1521.9,-97.07 1518.79,-96.56"/>
</g>
<!-- Node45 -->
<g id="node10" class="node">
<title>Node45</title>
<g id="a_node10"><a xlink:href="ppp_8cpp.html" target="_top" xlink:title="Precise point positioning.">
<polygon fill="white" stroke="black" points="1537,-67.5 1537,-97.5 1645,-97.5 1645,-67.5 1537,-67.5"/>
<text text-anchor="start" x="1545" y="-85.5" font-family="Helvetica,sans-Serif" font-size="10.00">/data/acs/ginan/src</text>
<text text-anchor="middle" x="1591" y="-74.5" font-family="Helvetica,sans-Serif" font-size="10.00">/cpp/pea/ppp.cpp</text>
</a>
</g>
</g>
<!-- Node1&#45;&gt;Node45 -->
<g id="edge47" class="edge">
<title>Node1&#45;&gt;Node45</title>
<path fill="none" stroke="midnightblue" d="M1556.21,-214.6C1713.98,-212.04 2038.75,-202.25 2073,-165 2082.33,-154.86 2082.32,-144.15 2073,-134 2041.4,-99.57 1700.16,-105.26 1654,-98 1651.12,-97.55 1648.17,-97.04 1645.2,-96.48"/>
</g>
<!-- Node74 -->
<g id="node11" class="node">
<title>Node74</title>
<g id="a_node11"><a xlink:href="ppp__network_8cpp.html" target="_top" xlink:title=" ">
<polygon fill="white" stroke="black" points="1663,-67.5 1663,-97.5 1807,-97.5 1807,-67.5 1663,-67.5"/>
<text text-anchor="start" x="1671" y="-85.5" font-family="Helvetica,sans-Serif" font-size="10.00">/data/acs/ginan/src</text>
<text text-anchor="middle" x="1735" y="-74.5" font-family="Helvetica,sans-Serif" font-size="10.00">/cpp/pea/ppp_network.cpp</text>
</a>
</g>
</g>
<!-- Node1&#45;&gt;Node74 -->
<g id="edge48" class="edge">
<title>Node1&#45;&gt;Node74</title>
<path fill="none" stroke="midnightblue" d="M1556.1,-214.81C1717.35,-212.63 2054.56,-203.45 2090,-165 2156.44,-92.92 2218.36,-159.92 1817,-98 1813.86,-97.52 1810.65,-97.01 1807.41,-96.48"/>
</g>
<!-- Node75 -->
<g id="node12" class="node">
<title>Node75</title>
<g id="a_node12"><a xlink:href="ppp__user_8cpp.html" target="_top" xlink:title=" ">
<polygon fill="white" stroke="black" points="1825.5,-67.5 1825.5,-97.5 1950.5,-97.5 1950.5,-67.5 1825.5,-67.5"/>
<text text-anchor="start" x="1833.5" y="-85.5" font-family="Helvetica,sans-Serif" font-size="10.00">/data/acs/ginan/src</text>
<text text-anchor="middle" x="1888" y="-74.5" font-family="Helvetica,sans-Serif" font-size="10.00">/cpp/pea/ppp_user.cpp</text>
</a>
</g>
</g>
<!-- Node1&#45;&gt;Node75 -->
<g id="edge49" class="edge">
<title>Node1&#45;&gt;Node75</title>
<path fill="none" stroke="midnightblue" d="M1556.07,-215.2C1724.02,-213.72 2085.26,-205.78 2123,-165 2132.36,-154.89 2131.66,-144.72 2123,-134 2121.62,-132.29 2019.95,-110.89 1950.8,-96.5"/>
</g>
<!-- Node76 -->
<g id="node13" class="node">
<title>Node76</title>
<g id="a_node13"><a xlink:href="ppppp_8cpp.html" target="_top" xlink:title=" ">
<polygon fill="white" stroke="black" points="2136.5,-67.5 2136.5,-97.5 2247.5,-97.5 2247.5,-67.5 2136.5,-67.5"/>
<text text-anchor="start" x="2144.5" y="-85.5" font-family="Helvetica,sans-Serif" font-size="10.00">/data/acs/ginan/src</text>
<text text-anchor="middle" x="2192" y="-74.5" font-family="Helvetica,sans-Serif" font-size="10.00">/cpp/pea/ppppp.cpp</text>
</a>
</g>
</g>
<!-- Node1&#45;&gt;Node76 -->
<g id="edge50" class="edge">
<title>Node1&#45;&gt;Node76</title>
<path fill="none" stroke="midnightblue" d="M1556.27,-213.3C1725.35,-208.32 2091.05,-194.28 2140,-165 2165.49,-149.75 2180.59,-116.63 2187.48,-97.64"/>
</g>
<!-- Node30 -->
<g id="node14" class="node">
<title>Node30</title>
<g id="a_node14"><a xlink:href="debug_8cpp.html" target="_top" xlink:title=" ">
<polygon fill="white" stroke="black" points="494,-67.5 494,-97.5 630,-97.5 630,-67.5 494,-67.5"/>
<text text-anchor="start" x="502" y="-85.5" font-family="Helvetica,sans-Serif" font-size="10.00">/data/acs/ginan/src</text>
<text text-anchor="middle" x="562" y="-74.5" font-family="Helvetica,sans-Serif" font-size="10.00">/cpp/common/debug.cpp</text>
</a>
</g>
</g>
<!-- Node1&#45;&gt;Node30 -->
<g id="edge15" class="edge">
<title>Node1&#45;&gt;Node30</title>
<path fill="none" stroke="midnightblue" d="M1385.83,-213.66C1188.43,-208.92 711.37,-194.53 645,-165 628.12,-157.49 592.96,-119.07 574.28,-97.77"/>
</g>
<!-- Node23 -->
<g id="node15" class="node">
<title>Node23</title>
<g id="a_node15"><a xlink:href="ephemeris_8hpp.html" target="_top" xlink:title=" ">
<polygon fill="white" stroke="red" points="654,-134.5 654,-164.5 812,-164.5 812,-134.5 654,-134.5"/>
<text text-anchor="start" x="662" y="-152.5" font-family="Helvetica,sans-Serif" font-size="10.00">/data/acs/ginan/src</text>
<text text-anchor="middle" x="733" y="-141.5" font-family="Helvetica,sans-Serif" font-size="10.00">/cpp/common/ephemeris.hpp</text>
</a>
</g>
</g>
<!-- Node1&#45;&gt;Node23 -->
<g id="edge16" class="edge">
<title>Node1&#45;&gt;Node23</title>
<path fill="none" stroke="midnightblue" d="M1385.98,-211.29C1261.44,-204.58 1022.27,-189.65 820,-165 817.42,-164.69 814.79,-164.35 812.14,-163.99"/>
</g>
<!-- Node99 -->
<g id="node16" class="node">
<title>Node99</title>
<g id="a_node16"><a xlink:href="linearCombo_8hpp.html" target="_top" xlink:title=" ">
<polygon fill="white" stroke="red" points="829.5,-134.5 829.5,-164.5 998.5,-164.5 998.5,-134.5 829.5,-134.5"/>
<text text-anchor="start" x="837.5" y="-152.5" font-family="Helvetica,sans-Serif" font-size="10.00">/data/acs/ginan/src</text>
<text text-anchor="middle" x="914" y="-141.5" font-family="Helvetica,sans-Serif" font-size="10.00">/cpp/common/linearCombo.hpp</text>
</a>
</g>
</g>
<!-- Node1&#45;&gt;Node99 -->
<g id="edge20" class="edge">
<title>Node1&#45;&gt;Node99</title>
<path fill="none" stroke="midnightblue" d="M1385.87,-207.09C1293.63,-197.76 1142.2,-181.79 1012,-165 1007.65,-164.44 1003.19,-163.85 998.7,-163.23"/>
</g>
<!-- Node66 -->
<g id="node17" class="node">
<title>Node66</title>
<g id="a_node17"><a xlink:href="mongo_8cpp.html" target="_top" xlink:title=" ">
<polygon fill="white" stroke="black" points="648,-67.5 648,-97.5 788,-97.5 788,-67.5 648,-67.5"/>
<text text-anchor="start" x="656" y="-85.5" font-family="Helvetica,sans-Serif" font-size="10.00">/data/acs/ginan/src</text>
<text text-anchor="middle" x="718" y="-74.5" font-family="Helvetica,sans-Serif" font-size="10.00">/cpp/common/mongo.cpp</text>
</a>
</g>
</g>
<!-- Node1&#45;&gt;Node66 -->
<g id="edge26" class="edge">
<title>Node1&#45;&gt;Node66</title>
<path fill="none" stroke="midnightblue" d="M1385.78,-211.03C1279.51,-204.5 1104.56,-190.26 1045,-165 1024.93,-156.49 1026.84,-143.03 1007,-134 920.81,-94.78 890.24,-114.55 797,-98 794.12,-97.49 791.17,-96.96 788.2,-96.43"/>
</g>
<!-- Node84 -->
<g id="node18" class="node">
<title>Node84</title>
<g id="a_node18"><a xlink:href="mongo_8hpp.html" target="_top" xlink:title=" ">
<polygon fill="white" stroke="red" points="1054,-134.5 1054,-164.5 1194,-164.5 1194,-134.5 1054,-134.5"/>
<text text-anchor="start" x="1062" y="-152.5" font-family="Helvetica,sans-Serif" font-size="10.00">/data/acs/ginan/src</text>
<text text-anchor="middle" x="1124" y="-141.5" font-family="Helvetica,sans-Serif" font-size="10.00">/cpp/common/mongo.hpp</text>
</a>
</g>
</g>
<!-- Node1&#45;&gt;Node84 -->
<g id="edge27" class="edge">
<title>Node1&#45;&gt;Node84</title>
<path fill="none" stroke="midnightblue" d="M1396.13,-201.48C1336.16,-190.24 1252.65,-174.6 1194,-163.61"/>
</g>
<!-- Node88 -->
<g id="node19" class="node">
<title>Node88</title>
<g id="a_node19"><a xlink:href="rinexObsWrite_8cpp.html" target="_top" xlink:title=" ">
<polygon fill="white" stroke="black" points="1028,-67.5 1028,-97.5 1204,-97.5 1204,-67.5 1028,-67.5"/>
<text text-anchor="start" x="1036" y="-85.5" font-family="Helvetica,sans-Serif" font-size="10.00">/data/acs/ginan/src</text>
<text text-anchor="middle" x="1116" y="-74.5" font-family="Helvetica,sans-Serif" font-size="10.00">/cpp/common/rinexObsWrite.cpp</text>
</a>
</g>
</g>
<!-- Node1&#45;&gt;Node88 -->
<g id="edge31" class="edge">
<title>Node1&#45;&gt;Node88</title>
<path fill="none" stroke="midnightblue" d="M1391.64,-201.5C1356.13,-193.51 1314.38,-181.7 1279,-165 1257.69,-154.95 1256.54,-145.53 1236,-134 1210.28,-119.56 1179.6,-106.72 1155.7,-97.6"/>
</g>
<!-- Node100 -->
<g id="node20" class="node">
<title>Node100</title>
<g id="a_node20"><a xlink:href="rinexObsWrite_8hpp.html" target="_top" xlink:title=" ">
<polygon fill="white" stroke="red" points="1288,-134.5 1288,-164.5 1464,-164.5 1464,-134.5 1288,-134.5"/>
<text text-anchor="start" x="1296" y="-152.5" font-family="Helvetica,sans-Serif" font-size="10.00">/data/acs/ginan/src</text>
<text text-anchor="middle" x="1376" y="-141.5" font-family="Helvetica,sans-Serif" font-size="10.00">/cpp/common/rinexObsWrite.hpp</text>
</a>
</g>
</g>
<!-- Node1&#45;&gt;Node100 -->
<g id="edge32" class="edge">
<title>Node1&#45;&gt;Node100</title>
<path fill="none" stroke="midnightblue" d="M1450.39,-201.4C1434.45,-190.49 1412.5,-175.47 1396.57,-164.58"/>
</g>
<!-- Node65 -->
<g id="node21" class="node">
<title>Node65</title>
<g id="a_node21"><a xlink:href="rtcmEncoder_8hpp.html" target="_top" xlink:title=" ">
<polygon fill="white" stroke="red" points="1482,-134.5 1482,-164.5 1650,-164.5 1650,-134.5 1482,-134.5"/>
<text text-anchor="start" x="1490" y="-152.5" font-family="Helvetica,sans-Serif" font-size="10.00">/data/acs/ginan/src</text>
<text text-anchor="middle" x="1566" y="-141.5" font-family="Helvetica,sans-Serif" font-size="10.00">/cpp/common/rtcmEncoder.hpp</text>
</a>
</g>
</g>
<!-- Node1&#45;&gt;Node65 -->
<g id="edge34" class="edge">
<title>Node1&#45;&gt;Node65</title>
<path fill="none" stroke="midnightblue" d="M1491.61,-201.4C1507.55,-190.49 1529.5,-175.47 1545.43,-164.58"/>
</g>
<!-- Node72 -->
<g id="node22" class="node">
<title>Node72</title>
<g id="a_node22"><a xlink:href="streamTrace_8cpp.html" target="_top" xlink:title=" ">
<polygon fill="white" stroke="black" points="1667.5,-134.5 1667.5,-164.5 1834.5,-164.5 1834.5,-134.5 1667.5,-134.5"/>
<text text-anchor="start" x="1675.5" y="-152.5" font-family="Helvetica,sans-Serif" font-size="10.00">/data/acs/ginan/src</text>
<text text-anchor="middle" x="1751" y="-141.5" font-family="Helvetica,sans-Serif" font-size="10.00">/cpp/common/streamTrace.cpp</text>
</a>
</g>
</g>
<!-- Node1&#45;&gt;Node72 -->
<g id="edge37" class="edge">
<title>Node1&#45;&gt;Node72</title>
<path fill="none" stroke="midnightblue" d="M1531.41,-201.48C1578.35,-190.58 1643.18,-175.53 1690.21,-164.61"/>
</g>
<!-- Node40 -->
<g id="node23" class="node">
<title>Node40</title>
<g id="a_node23"><a xlink:href="ionoBSplines_8cpp.html" target="_top" xlink:title=" ">
<polygon fill="white" stroke="black" points="1222.5,-67.5 1222.5,-97.5 1369.5,-97.5 1369.5,-67.5 1222.5,-67.5"/>
<text text-anchor="start" x="1230.5" y="-85.5" font-family="Helvetica,sans-Serif" font-size="10.00">/data/acs/ginan/src</text>
<text text-anchor="middle" x="1296" y="-74.5" font-family="Helvetica,sans-Serif" font-size="10.00">/cpp/iono/ionoBSplines.cpp</text>
</a>
</g>
</g>
<!-- Node1&#45;&gt;Node40 -->
<g id="edge38" class="edge">
<title>Node1&#45;&gt;Node40</title>
<path fill="none" stroke="midnightblue" d="M1556.44,-209.8C1660.65,-201.95 1825.35,-186.34 1844,-165 1853.07,-154.62 1853.36,-144.11 1844,-134 1808.8,-95.97 1430.42,-104.47 1379,-98 1375.95,-97.62 1372.85,-97.2 1369.71,-96.75"/>
</g>
<!-- Node38 -->
<g id="node24" class="node">
<title>Node38</title>
<g id="a_node24"><a xlink:href="ionoModel_8hpp.html" target="_top" xlink:title=" ">
<polygon fill="white" stroke="red" points="1928,-134.5 1928,-164.5 2064,-164.5 2064,-134.5 1928,-134.5"/>
<text text-anchor="start" x="1936" y="-152.5" font-family="Helvetica,sans-Serif" font-size="10.00">/data/acs/ginan/src</text>
<text text-anchor="middle" x="1996" y="-141.5" font-family="Helvetica,sans-Serif" font-size="10.00">/cpp/iono/ionoModel.hpp</text>
</a>
</g>
</g>
<!-- Node1&#45;&gt;Node38 -->
<g id="edge40" class="edge">
<title>Node1&#45;&gt;Node38</title>
<path fill="none" stroke="midnightblue" d="M1556.13,-207.37C1645.47,-198.46 1789.9,-183.03 1914,-165 1918.44,-164.36 1923,-163.65 1927.59,-162.92"/>
</g>
<!-- Node43 -->
<g id="node25" class="node">
<title>Node43</title>
<g id="a_node25"><a xlink:href="ionoSpherical_8cpp.html" target="_top" xlink:title=" ">
<polygon fill="white" stroke="black" points="1969,-67.5 1969,-97.5 2119,-97.5 2119,-67.5 1969,-67.5"/>
<text text-anchor="start" x="1977" y="-85.5" font-family="Helvetica,sans-Serif" font-size="10.00">/data/acs/ginan/src</text>
<text text-anchor="middle" x="2044" y="-74.5" font-family="Helvetica,sans-Serif" font-size="10.00">/cpp/iono/ionoSpherical.cpp</text>
</a>
</g>
</g>
<!-- Node1&#45;&gt;Node43 -->
<g id="edge45" class="edge">
<title>Node1&#45;&gt;Node43</title>
<path fill="none" stroke="midnightblue" d="M1556.21,-214.6C1713.98,-212.04 2038.75,-202.25 2073,-165 2090.59,-145.88 2071.16,-115.38 2056.71,-97.62"/>
</g>
<!-- Node44 -->
<g id="node26" class="node">
<title>Node44</title>
<g id="a_node26"><a xlink:href="ionoSphericalCaps_8cpp.html" target="_top" xlink:title=" ">
<polygon fill="white" stroke="black" points="2266,-67.5 2266,-97.5 2440,-97.5 2440,-67.5 2266,-67.5"/>
<text text-anchor="start" x="2274" y="-85.5" font-family="Helvetica,sans-Serif" font-size="10.00">/data/acs/ginan/src</text>
<text text-anchor="middle" x="2353" y="-74.5" font-family="Helvetica,sans-Serif" font-size="10.00">/cpp/iono/ionoSphericalCaps.cpp</text>
</a>
</g>
</g>
<!-- Node1&#45;&gt;Node44 -->
<g id="edge46" class="edge">
<title>Node1&#45;&gt;Node44</title>
<path fill="none" stroke="midnightblue" d="M1556.15,-214.43C1676.23,-211.6 1901.7,-201.4 2090,-165 2172.84,-148.99 2266.47,-116.31 2316.63,-97.56"/>
</g>
<!-- Node101 -->
<g id="node27" class="node">
<title>Node101</title>
<g id="a_node27"><a xlink:href="rinex_8hpp.html" target="_top" xlink:title=" ">
<polygon fill="white" stroke="red" points="2496,-134.5 2496,-164.5 2610,-164.5 2610,-134.5 2496,-134.5"/>
<text text-anchor="start" x="2504" y="-152.5" font-family="Helvetica,sans-Serif" font-size="10.00">/data/acs/ginan/src</text>
<text text-anchor="middle" x="2553" y="-141.5" font-family="Helvetica,sans-Serif" font-size="10.00">/cpp/rtklib/rinex.hpp</text>
</a>
</g>
</g>
<!-- Node1&#45;&gt;Node101 -->
<g id="edge52" class="edge">
<title>Node1&#45;&gt;Node101</title>
<path fill="none" stroke="midnightblue" d="M1556.26,-215.59C1730.76,-214.82 2140.92,-208.09 2482,-165 2486.49,-164.43 2491.13,-163.74 2495.77,-162.96"/>
</g>
<!-- Node2&#45;&gt;Node9 -->
<g id="edge2" class="edge">
<title>Node2&#45;&gt;Node9</title>
<path fill="none" stroke="midnightblue" d="M164.37,-141C191.33,-138.64 221.43,-136.1 249,-134 492.37,-115.44 554.42,-125.03 797,-98 799.89,-97.68 802.83,-97.33 805.8,-96.96"/>
</g>
<!-- Node2&#45;&gt;Node14 -->
<g id="edge3" class="edge">
<title>Node2&#45;&gt;Node14</title>
<path fill="none" stroke="midnightblue" d="M164.35,-140.73C191.31,-138.36 221.42,-135.88 249,-134 330.24,-128.48 918.48,-150.18 981,-98 1000.63,-81.62 1002.25,-49.24 1001.34,-30.6"/>
</g>
<!-- Node16&#45;&gt;Node14 -->
<g id="edge7" class="edge">
<title>Node16&#45;&gt;Node14</title>
<path fill="none" stroke="midnightblue" d="M440.68,-72.35C455.3,-70.5 470.65,-68.62 485,-67 642.78,-49.14 828.19,-31.87 927.86,-22.89"/>
</g>
<!-- Node16&#45;&gt;Node15 -->
<g id="edge6" class="edge">
<title>Node16&#45;&gt;Node15</title>
<path fill="none" stroke="midnightblue" d="M353.99,-67.4C340.07,-56.49 320.89,-41.47 306.97,-30.58"/>
</g>
<!-- Node98&#45;&gt;Node41 -->
<g id="edge10" class="edge">
<title>Node98&#45;&gt;Node41</title>
<path fill="none" stroke="midnightblue" d="M597.84,-138.55C613.47,-136.85 629.73,-135.24 645,-134 970.55,-107.6 1054.78,-137.51 1379,-98 1381.73,-97.67 1384.51,-97.29 1387.31,-96.88"/>
</g>
<!-- Node98&#45;&gt;Node45 -->
<g id="edge11" class="edge">
<title>Node98&#45;&gt;Node45</title>
<path fill="none" stroke="midnightblue" d="M597.83,-138.45C613.46,-136.76 629.73,-135.17 645,-134 1036.61,-103.88 1138.72,-150.27 1528,-98 1530.89,-97.61 1533.85,-97.15 1536.82,-96.64"/>
</g>
<!-- Node98&#45;&gt;Node74 -->
<g id="edge12" class="edge">
<title>Node98&#45;&gt;Node74</title>
<path fill="none" stroke="midnightblue" d="M597.82,-138.39C613.46,-136.7 629.72,-135.14 645,-134 1092.49,-100.72 1207.81,-145.65 1654,-98 1656.84,-97.7 1659.73,-97.35 1662.65,-96.97"/>
</g>
<!-- Node98&#45;&gt;Node75 -->
<g id="edge13" class="edge">
<title>Node98&#45;&gt;Node75</title>
<path fill="none" stroke="midnightblue" d="M597.82,-138.33C613.45,-136.65 629.72,-135.1 645,-134 1164.35,-96.66 1298.73,-157.61 1816,-98 1819.04,-97.65 1822.14,-97.24 1825.27,-96.78"/>
</g>
<!-- Node98&#45;&gt;Node76 -->
<g id="edge14" class="edge">
<title>Node98&#45;&gt;Node76</title>
<path fill="none" stroke="midnightblue" d="M597.81,-138.25C613.45,-136.57 629.72,-135.05 645,-134 1302.76,-88.85 1473.72,-179.24 2128,-98 2130.71,-97.66 2133.48,-97.26 2136.27,-96.81"/>
</g>
<!-- Node23&#45;&gt;Node45 -->
<g id="edge17" class="edge">
<title>Node23&#45;&gt;Node45</title>
<path fill="none" stroke="midnightblue" d="M812.13,-134.92C814.78,-134.59 817.41,-134.28 820,-134 1133.24,-100.05 1215.94,-141.5 1528,-98 1530.89,-97.6 1533.84,-97.13 1536.82,-96.61"/>
</g>
<!-- Node23&#45;&gt;Node74 -->
<g id="edge18" class="edge">
<title>Node23&#45;&gt;Node74</title>
<path fill="none" stroke="midnightblue" d="M812.13,-134.89C814.78,-134.57 817.41,-134.27 820,-134 1189,-95.43 1285.24,-138.78 1654,-98 1656.84,-97.69 1659.73,-97.33 1662.65,-96.95"/>
</g>
<!-- Node23&#45;&gt;Node75 -->
<g id="edge19" class="edge">
<title>Node23&#45;&gt;Node75</title>
<path fill="none" stroke="midnightblue" d="M812.13,-134.87C814.78,-134.55 817.41,-134.26 820,-134 1260.71,-89.5 1376.09,-149.9 1816,-98 1819.04,-97.64 1822.14,-97.22 1825.27,-96.76"/>
</g>
<!-- Node99&#45;&gt;Node16 -->
<g id="edge21" class="edge">
<title>Node99&#45;&gt;Node16</title>
<path fill="none" stroke="midnightblue" d="M829.38,-135.13C826.55,-134.74 823.75,-134.36 821,-134 672.09,-114.43 634.16,-115.56 485,-98 470.66,-96.31 455.31,-94.41 440.69,-92.55"/>
</g>
<!-- Node99&#45;&gt;Node45 -->
<g id="edge23" class="edge">
<title>Node99&#45;&gt;Node45</title>
<path fill="none" stroke="midnightblue" d="M998.52,-138.7C1013.97,-137.03 1029.96,-135.39 1045,-134 1259.35,-114.16 1315.16,-130.23 1528,-98 1530.89,-97.56 1533.83,-97.07 1536.8,-96.52"/>
</g>
<!-- Node99&#45;&gt;Node74 -->
<g id="edge24" class="edge">
<title>Node99&#45;&gt;Node74</title>
<path fill="none" stroke="midnightblue" d="M998.5,-138.5C1013.96,-136.86 1029.95,-135.28 1045,-134 1315.17,-111.08 1384.75,-129.94 1654,-98 1656.84,-97.66 1659.73,-97.29 1662.64,-96.89"/>
</g>
<!-- Node99&#45;&gt;Node75 -->
<g id="edge25" class="edge">
<title>Node99&#45;&gt;Node75</title>
<path fill="none" stroke="midnightblue" d="M998.84,-138.31C1014.19,-136.7 1030.06,-135.17 1045,-134 1386.98,-107.12 1475.54,-139.98 1816,-98 1819.04,-97.63 1822.14,-97.19 1825.26,-96.72"/>
</g>
<!-- Node99&#45;&gt;Node30 -->
<g id="edge22" class="edge">
<title>Node99&#45;&gt;Node30</title>
<path fill="none" stroke="midnightblue" d="M837.23,-134.5C782.06,-124.41 705.93,-110.45 639,-98 636.06,-97.45 633.05,-96.89 630.02,-96.33"/>
</g>
<!-- Node84&#45;&gt;Node9 -->
<g id="edge29" class="edge">
<title>Node84&#45;&gt;Node9</title>
<path fill="none" stroke="midnightblue" d="M1073.3,-134.48C1033.9,-123.58 979.5,-108.53 940.02,-97.61"/>
</g>
<!-- Node84&#45;&gt;Node66 -->
<g id="edge28" class="edge">
<title>Node84&#45;&gt;Node66</title>
<path fill="none" stroke="midnightblue" d="M1053.89,-136.27C1049.19,-135.49 1044.53,-134.73 1040,-134 932.2,-116.71 904.71,-115.86 797,-98 794.11,-97.52 791.16,-97.02 788.19,-96.51"/>
</g>
<!-- Node100&#45;&gt;Node88 -->
<g id="edge33" class="edge">
<title>Node100&#45;&gt;Node88</title>
<path fill="none" stroke="midnightblue" d="M1319.9,-134.48C1276.31,-123.58 1216.12,-108.53 1172.44,-97.61"/>
</g>
<!-- Node65&#45;&gt;Node9 -->
<g id="edge36" class="edge">
<title>Node65&#45;&gt;Node9</title>
<path fill="none" stroke="midnightblue" d="M1481.89,-135.09C1478.89,-134.71 1475.92,-134.34 1473,-134 1271.97,-110.39 1220.5,-117.22 1019,-98 1003.85,-96.56 987.73,-94.87 972.18,-93.18"/>
</g>
<!-- Node65&#45;&gt;Node66 -->
<g id="edge35" class="edge">
<title>Node65&#45;&gt;Node66</title>
<path fill="none" stroke="midnightblue" d="M1481.9,-135C1478.9,-134.64 1475.93,-134.31 1473,-134 1173.75,-102.78 1095.8,-133.23 797,-98 794.09,-97.66 791.13,-97.27 788.14,-96.86"/>
</g>
<!-- Node38&#45;&gt;Node41 -->
<g id="edge42" class="edge">
<title>Node38&#45;&gt;Node41</title>
<path fill="none" stroke="midnightblue" d="M1927.61,-135.97C1923.01,-135.27 1918.44,-134.6 1914,-134 1743.24,-110.98 1698.57,-122.38 1528,-98 1524.98,-97.57 1521.9,-97.1 1518.79,-96.6"/>
</g>
<!-- Node38&#45;&gt;Node40 -->
<g id="edge41" class="edge">
<title>Node38&#45;&gt;Node40</title>
<path fill="none" stroke="midnightblue" d="M1927.84,-139.69C1910.92,-137.66 1892.81,-135.62 1876,-134 1655.56,-112.71 1598.8,-125.09 1379,-98 1375.95,-97.62 1372.84,-97.21 1369.71,-96.77"/>
</g>
<!-- Node38&#45;&gt;Node43 -->
<g id="edge43" class="edge">
<title>Node38&#45;&gt;Node43</title>
<path fill="none" stroke="midnightblue" d="M2006.42,-134.4C2014.47,-123.49 2025.56,-108.47 2033.61,-97.58"/>
</g>
<!-- Node38&#45;&gt;Node44 -->
<g id="edge44" class="edge">
<title>Node38&#45;&gt;Node44</title>
<path fill="none" stroke="midnightblue" d="M2064.41,-136.04C2124.85,-125.04 2212.9,-109.01 2275.83,-97.55"/>
</g>
</g>
</svg>
        <g id="navigator" transform="translate(0 0)" fill="#404254">
                <rect fill="#f2f5e9" fill-opacity="0.5" stroke="#606060" stroke-width=".5" x="0" y="0" width="60" height="60"/>
                <use id="zoomplus" xlink:href="#zoomPlus" x="17" y="9" onmousedown="handleZoom(evt,'in')"/>
                <use id="zoomminus" xlink:href="#zoomMin" x="42" y="9" onmousedown="handleZoom(evt,'out')"/>
                <use id="reset" xlink:href="#resetDef" x="30" y="36" onmousedown="handleReset()"/>
                <g id="arrowUp" xlink:href="#dirArrow" transform="translate(30 24)" onmousedown="handlePan(0,-1)">
                  <use xlink:href="#rim" fill="#404040">
                        <set attributeName="fill" to="#808080" begin="arrowUp.mouseover" end="arrowUp.mouseout"/>
                  </use>
                  <path fill="none" stroke="white" stroke-width="1.5" d="M0,-3.0v7 M-2.5,-0.5L0,-3.0L2.5,-0.5"/>
                </g>
                <g id="arrowRight" xlink:href="#dirArrow" transform="rotate(90) translate(36 -43)" onmousedown="handlePan(1,0)">
                  <use xlink:href="#rim" fill="#404040">
                        <set attributeName="fill" to="#808080" begin="arrowRight.mouseover" end="arrowRight.mouseout"/>
                  </use>
                  <path fill="none" stroke="white" stroke-width="1.5" d="M0,-3.0v7 M-2.5,-0.5L0,-3.0L2.5,-0.5"/>
                </g>
                <g id="arrowDown" xlink:href="#dirArrow" transform="rotate(180) translate(-30 -48)" onmousedown="handlePan(0,1)">
                  <use xlink:href="#rim" fill="#404040">
                        <set attributeName="fill" to="#808080" begin="arrowDown.mouseover" end="arrowDown.mouseout"/>
                  </use>
                  <path fill="none" stroke="white" stroke-width="1.5" d="M0,-3.0v7 M-2.5,-0.5L0,-3.0L2.5,-0.5"/>
                </g>
                <g id="arrowLeft" xlink:href="#dirArrow" transform="rotate(270) translate(-36 17)" onmousedown="handlePan(-1,0)">
                  <use xlink:href="#rim" fill="#404040">
                        <set attributeName="fill" to="#808080" begin="arrowLeft.mouseover" end="arrowLeft.mouseout"/>
                  </use>
                  <path fill="none" stroke="white" stroke-width="1.5" d="M0,-3.0v7 M-2.5,-0.5L0,-3.0L2.5,-0.5"/>
                </g>
        </g>
        <svg viewBox="0 0 15 15" width="100%" height="30px" preserveAspectRatio="xMaxYMin meet">
         <g id="arrow_out" transform="scale(0.3 0.3)">
          <a xlink:href="observations_8hpp__dep__incl_org.svg" target="_base">
           <rect id="button" ry="5" rx="5" y="6" x="6" height="38" width="38"
                fill="#f2f5e9" fill-opacity="0.5" stroke="#606060" stroke-width="1.0"/>
           <path id="arrow"
             d="M 11.500037,31.436501 C 11.940474,20.09759 22.043105,11.32322 32.158766,21.979434 L 37.068811,17.246167 C 37.068811,17.246167 37.088388,32 37.088388,32 L 22.160133,31.978069 C 22.160133,31.978069 26.997745,27.140456 26.997745,27.140456 C 18.528582,18.264221 13.291696,25.230495 11.500037,31.436501 z"
             style="fill:#404040;"/>
          </a>
         </g>
        </svg>
</svg>
