<?xml version="1.0" encoding="UTF-8" standalone="no"?>
<!DOCTYPE svg PUBLIC "-//W3C//DTD SVG 1.1//EN"
 "http://www.w3.org/Graphics/SVG/1.1/DTD/svg11.dtd">
<!-- Generated by graphviz version 2.43.0 (0)
 -->
<!-- Title: /ginan/src/cpp/common/observations.hpp Pages: 1 -->
<svg width="3084pt" height="240pt"
 viewBox="0.00 0.00 3083.65 240.00" xmlns="http://www.w3.org/2000/svg" xmlns:xlink="http://www.w3.org/1999/xlink">
<g id="graph0" class="graph" transform="scale(1 1) rotate(0) translate(4 236)">
<title>/ginan/src/cpp/common/observations.hpp</title>
<polygon fill="white" stroke="transparent" points="-4,4 -4,-236 3079.65,-236 3079.65,4 -4,4"/>
<!-- Node1 -->
<g id="node1" class="node">
<title>Node1</title>
<g id="a_node1"><a xlink:title=" ">
<polygon fill="#bfbfbf" stroke="black" points="1574.15,-201.5 1574.15,-231.5 1704.15,-231.5 1704.15,-201.5 1574.15,-201.5"/>
<text text-anchor="start" x="1582.15" y="-219.5" font-family="Helvetica,sans-Serif" font-size="10.00">/ginan/src/cpp/common</text>
<text text-anchor="middle" x="1639.15" y="-208.5" font-family="Helvetica,sans-Serif" font-size="10.00">/observations.hpp</text>
</a>
</g>
</g>
<!-- Node2 -->
<g id="node2" class="node">
<title>Node2</title>
<g id="a_node2"><a xlink:href="GNSSambres_8hpp.html" target="_top" xlink:title=" ">
<polygon fill="white" stroke="red" points="838.15,-67.5 838.15,-97.5 962.15,-97.5 962.15,-67.5 838.15,-67.5"/>
<text text-anchor="start" x="846.15" y="-85.5" font-family="Helvetica,sans-Serif" font-size="10.00">/ginan/src/cpp/ambres</text>
<text text-anchor="middle" x="900.15" y="-74.5" font-family="Helvetica,sans-Serif" font-size="10.00">/GNSSambres.hpp</text>
</a>
</g>
</g>
<!-- Node1&#45;&gt;Node2 -->
<g id="edge1" class="edge">
<title>Node1&#45;&gt;Node2</title>
<path fill="none" stroke="midnightblue" d="M1563.66,-214.58C1246.19,-210.54 34.58,-193.29 7.15,-165 -2.44,-155.11 -2.31,-144.01 7.15,-134 35.67,-103.83 639.83,-88.82 837.89,-84.7"/>
<polygon fill="midnightblue" stroke="midnightblue" points="1564.08,-218.09 1574.13,-214.71 1564.17,-211.09 1564.08,-218.09"/>
</g>
<!-- Node5 -->
<g id="node3" class="node">
<title>Node5</title>
<g id="a_node3"><a xlink:href="mongoWrite_8cpp.html" target="_top" xlink:title=" ">
<polygon fill="white" stroke="black" points="1028.15,-0.5 1028.15,-30.5 1158.15,-30.5 1158.15,-0.5 1028.15,-0.5"/>
<text text-anchor="start" x="1036.15" y="-18.5" font-family="Helvetica,sans-Serif" font-size="10.00">/ginan/src/cpp/common</text>
<text text-anchor="middle" x="1093.15" y="-7.5" font-family="Helvetica,sans-Serif" font-size="10.00">/mongoWrite.cpp</text>
</a>
</g>
</g>
<!-- Node1&#45;&gt;Node5 -->
<g id="edge17" class="edge">
<title>Node1&#45;&gt;Node5</title>
<path fill="none" stroke="midnightblue" d="M1563.6,-212.73C1477.57,-208.12 1343.91,-196.05 1305.15,-165 1268.7,-135.79 1301.6,-98.56 1267.15,-67 1237.58,-39.91 1194.31,-27.28 1158.31,-21.42"/>
<polygon fill="midnightblue" stroke="midnightblue" points="1563.68,-216.24 1573.85,-213.26 1564.04,-209.25 1563.68,-216.24"/>
</g>
<!-- Node11 -->
<g id="node4" class="node">
<title>Node11</title>
<g id="a_node4"><a xlink:href="preprocessor_8cpp.html" target="_top" xlink:title=" ">
<polygon fill="white" stroke="black" points="1909.65,-0.5 1909.65,-30.5 2014.65,-30.5 2014.65,-0.5 1909.65,-0.5"/>
<text text-anchor="start" x="1917.65" y="-18.5" font-family="Helvetica,sans-Serif" font-size="10.00">/ginan/src/cpp/pea</text>
<text text-anchor="middle" x="1962.15" y="-7.5" font-family="Helvetica,sans-Serif" font-size="10.00">/preprocessor.cpp</text>
</a>
</g>
</g>
<!-- Node1&#45;&gt;Node11 -->
<g id="edge41" class="edge">
<title>Node1&#45;&gt;Node11</title>
<path fill="none" stroke="midnightblue" d="M1714.67,-214.67C1949.27,-211.74 2651.75,-200.06 2685.15,-165 2780.95,-64.46 2196.24,-27.72 2014.68,-18.81"/>
<polygon fill="midnightblue" stroke="midnightblue" points="1714.48,-211.18 1704.53,-214.8 1714.57,-218.18 1714.48,-211.18"/>
</g>
<!-- Node12 -->
<g id="node5" class="node">
<title>Node12</title>
<g id="a_node5"><a xlink:href="acsQC_8cpp.html" target="_top" xlink:title=" ">
<polygon fill="white" stroke="black" points="16.15,-134.5 16.15,-164.5 146.15,-164.5 146.15,-134.5 16.15,-134.5"/>
<text text-anchor="start" x="24.15" y="-152.5" font-family="Helvetica,sans-Serif" font-size="10.00">/ginan/src/cpp/common</text>
<text text-anchor="middle" x="81.15" y="-141.5" font-family="Helvetica,sans-Serif" font-size="10.00">/acsQC.cpp</text>
</a>
</g>
</g>
<!-- Node1&#45;&gt;Node12 -->
<g id="edge4" class="edge">
<title>Node1&#45;&gt;Node12</title>
<path fill="none" stroke="midnightblue" d="M1563.62,-214.39C1302.16,-210.33 436.47,-194.91 160.15,-165 155.72,-164.52 151.16,-163.93 146.57,-163.27"/>
<polygon fill="midnightblue" stroke="midnightblue" points="1563.73,-217.9 1573.78,-214.55 1563.83,-210.9 1563.73,-217.9"/>
</g>
<!-- Node13 -->
<g id="node6" class="node">
<title>Node13</title>
<g id="a_node6"><a xlink:href="attitude_8cpp.html" target="_top" xlink:title=" ">
<polygon fill="white" stroke="black" points="980.15,-67.5 980.15,-97.5 1110.15,-97.5 1110.15,-67.5 980.15,-67.5"/>
<text text-anchor="start" x="988.15" y="-85.5" font-family="Helvetica,sans-Serif" font-size="10.00">/ginan/src/cpp/common</text>
<text text-anchor="middle" x="1045.15" y="-74.5" font-family="Helvetica,sans-Serif" font-size="10.00">/attitude.cpp</text>
</a>
</g>
</g>
<!-- Node1&#45;&gt;Node13 -->
<g id="edge5" class="edge">
<title>Node1&#45;&gt;Node13</title>
<path fill="none" stroke="midnightblue" d="M1563.83,-215.73C1273.55,-216.27 241.12,-214.67 193.15,-165 183.58,-155.09 183.64,-143.96 193.15,-134 223.03,-102.71 928.2,-103.17 971.15,-98 974.01,-97.66 976.93,-97.26 979.87,-96.83"/>
<polygon fill="midnightblue" stroke="midnightblue" points="1563.85,-219.23 1573.84,-215.71 1563.84,-212.23 1563.85,-219.23"/>
</g>
<!-- Node14 -->
<g id="node7" class="node">
<title>Node14</title>
<g id="a_node7"><a xlink:href="customDecoder_8cpp.html" target="_top" xlink:title=" ">
<polygon fill="white" stroke="black" points="202.15,-134.5 202.15,-164.5 332.15,-164.5 332.15,-134.5 202.15,-134.5"/>
<text text-anchor="start" x="210.15" y="-152.5" font-family="Helvetica,sans-Serif" font-size="10.00">/ginan/src/cpp/common</text>
<text text-anchor="middle" x="267.15" y="-141.5" font-family="Helvetica,sans-Serif" font-size="10.00">/customDecoder.cpp</text>
</a>
</g>
</g>
<!-- Node1&#45;&gt;Node14 -->
<g id="edge6" class="edge">
<title>Node1&#45;&gt;Node14</title>
<path fill="none" stroke="midnightblue" d="M1563.62,-213.97C1324.28,-208.88 584.46,-191.39 346.15,-165 341.72,-164.51 337.16,-163.91 332.57,-163.25"/>
<polygon fill="midnightblue" stroke="midnightblue" points="1563.89,-217.47 1573.96,-214.18 1564.04,-210.47 1563.89,-217.47"/>
</g>
<!-- Node15 -->
<g id="node8" class="node">
<title>Node15</title>
<g id="a_node8"><a xlink:href="debug_8cpp.html" target="_top" xlink:title=" ">
<polygon fill="white" stroke="black" points="1128.15,-67.5 1128.15,-97.5 1258.15,-97.5 1258.15,-67.5 1128.15,-67.5"/>
<text text-anchor="start" x="1136.15" y="-85.5" font-family="Helvetica,sans-Serif" font-size="10.00">/ginan/src/cpp/common</text>
<text text-anchor="middle" x="1193.15" y="-74.5" font-family="Helvetica,sans-Serif" font-size="10.00">/debug.cpp</text>
</a>
</g>
</g>
<!-- Node1&#45;&gt;Node15 -->
<g id="edge7" class="edge">
<title>Node1&#45;&gt;Node15</title>
<path fill="none" stroke="midnightblue" d="M1563.57,-215.32C1297.83,-214.34 420.31,-207.84 379.15,-165 369.61,-155.06 369.65,-143.98 379.15,-134 407.54,-104.2 1078.29,-102.97 1119.15,-98 1122.01,-97.65 1124.93,-97.26 1127.87,-96.83"/>
<polygon fill="midnightblue" stroke="midnightblue" points="1563.87,-218.82 1573.88,-215.36 1563.9,-211.83 1563.87,-218.82"/>
</g>
<!-- Node16 -->
<g id="node9" class="node">
<title>Node16</title>
<g id="a_node9"><a xlink:href="ephBroadcast_8cpp.html" target="_top" xlink:title=" ">
<polygon fill="white" stroke="black" points="388.15,-134.5 388.15,-164.5 518.15,-164.5 518.15,-134.5 388.15,-134.5"/>
<text text-anchor="start" x="396.15" y="-152.5" font-family="Helvetica,sans-Serif" font-size="10.00">/ginan/src/cpp/common</text>
<text text-anchor="middle" x="453.15" y="-141.5" font-family="Helvetica,sans-Serif" font-size="10.00">/ephBroadcast.cpp</text>
</a>
</g>
</g>
<!-- Node1&#45;&gt;Node16 -->
<g id="edge8" class="edge">
<title>Node1&#45;&gt;Node16</title>
<path fill="none" stroke="midnightblue" d="M1563.86,-215.92C1383.95,-216.07 915.13,-211.56 527.15,-165 524.29,-164.66 521.38,-164.27 518.44,-163.84"/>
<polygon fill="midnightblue" stroke="midnightblue" points="1564.02,-219.42 1574.01,-215.9 1564.01,-212.42 1564.02,-219.42"/>
</g>
<!-- Node17 -->
<g id="node10" class="node">
<title>Node17</title>
<g id="a_node10"><a xlink:href="ephKalman_8cpp.html" target="_top" xlink:title=" ">
<polygon fill="white" stroke="black" points="536.15,-134.5 536.15,-164.5 666.15,-164.5 666.15,-134.5 536.15,-134.5"/>
<text text-anchor="start" x="544.15" y="-152.5" font-family="Helvetica,sans-Serif" font-size="10.00">/ginan/src/cpp/common</text>
<text text-anchor="middle" x="601.15" y="-141.5" font-family="Helvetica,sans-Serif" font-size="10.00">/ephKalman.cpp</text>
</a>
</g>
</g>
<!-- Node1&#45;&gt;Node17 -->
<g id="edge9" class="edge">
<title>Node1&#45;&gt;Node17</title>
<path fill="none" stroke="midnightblue" d="M1563.61,-215.16C1400.67,-213.64 1004.32,-205.67 675.15,-165 672.29,-164.65 669.38,-164.25 666.44,-163.81"/>
<polygon fill="midnightblue" stroke="midnightblue" points="1563.97,-218.66 1574,-215.25 1564.03,-211.66 1563.97,-218.66"/>
</g>
<!-- Node18 -->
<g id="node11" class="node">
<title>Node18</title>
<g id="a_node11"><a xlink:href="ephemeris_8hpp.html" target="_top" xlink:title=" ">
<polygon fill="white" stroke="red" points="684.15,-134.5 684.15,-164.5 814.15,-164.5 814.15,-134.5 684.15,-134.5"/>
<text text-anchor="start" x="692.15" y="-152.5" font-family="Helvetica,sans-Serif" font-size="10.00">/ginan/src/cpp/common</text>
<text text-anchor="middle" x="749.15" y="-141.5" font-family="Helvetica,sans-Serif" font-size="10.00">/ephemeris.hpp</text>
</a>
</g>
</g>
<!-- Node1&#45;&gt;Node18 -->
<g id="edge10" class="edge">
<title>Node1&#45;&gt;Node18</title>
<path fill="none" stroke="midnightblue" d="M1564.02,-214.15C1419.83,-210.84 1094.51,-199.83 823.15,-165 820.3,-164.63 817.38,-164.22 814.45,-163.78"/>
<polygon fill="midnightblue" stroke="midnightblue" points="1564.01,-217.65 1574.09,-214.38 1564.17,-210.66 1564.01,-217.65"/>
</g>
<!-- Node54 -->
<g id="node12" class="node">
<title>Node54</title>
<g id="a_node12"><a xlink:href="ppp_8cpp.html" target="_top" xlink:title=" ">
<polygon fill="white" stroke="black" points="1588.65,-67.5 1588.65,-97.5 1693.65,-97.5 1693.65,-67.5 1588.65,-67.5"/>
<text text-anchor="start" x="1596.65" y="-85.5" font-family="Helvetica,sans-Serif" font-size="10.00">/ginan/src/cpp/pea</text>
<text text-anchor="middle" x="1641.15" y="-74.5" font-family="Helvetica,sans-Serif" font-size="10.00">/ppp.cpp</text>
</a>
</g>
</g>
<!-- Node1&#45;&gt;Node54 -->
<g id="edge39" class="edge">
<title>Node1&#45;&gt;Node54</title>
<path fill="none" stroke="midnightblue" d="M1714.54,-214.55C1943.79,-211.28 2618.97,-198.83 2651.15,-165 2660.65,-155.02 2660.71,-143.93 2651.15,-134 2614.56,-95.99 1754.43,-105.13 1702.15,-98 1699.46,-97.63 1696.71,-97.2 1693.94,-96.71"/>
<polygon fill="midnightblue" stroke="midnightblue" points="1714.24,-211.05 1704.29,-214.69 1714.34,-218.05 1714.24,-211.05"/>
</g>
<!-- Node88 -->
<g id="node13" class="node">
<title>Node88</title>
<g id="a_node13"><a xlink:href="slrSat_8cpp.html" target="_top" xlink:title=" ">
<polygon fill="white" stroke="black" points="1711.65,-67.5 1711.65,-97.5 1810.65,-97.5 1810.65,-67.5 1711.65,-67.5"/>
<text text-anchor="start" x="1719.65" y="-85.5" font-family="Helvetica,sans-Serif" font-size="10.00">/ginan/src/cpp/slr</text>
<text text-anchor="middle" x="1761.15" y="-74.5" font-family="Helvetica,sans-Serif" font-size="10.00">/slrSat.cpp</text>
</a>
</g>
</g>
<!-- Node1&#45;&gt;Node88 -->
<g id="edge44" class="edge">
<title>Node1&#45;&gt;Node88</title>
<path fill="none" stroke="midnightblue" d="M1714.68,-215.28C1978.11,-214.16 2842.57,-207.26 2883.15,-165 2892.7,-155.06 2892.73,-143.91 2883.15,-134 2842.04,-91.48 1877.72,-106.22 1819.15,-98 1816.38,-97.61 1813.54,-97.14 1810.69,-96.62"/>
<polygon fill="midnightblue" stroke="midnightblue" points="1714.43,-211.78 1704.45,-215.33 1714.46,-218.78 1714.43,-211.78"/>
</g>
<!-- Node59 -->
<g id="node14" class="node">
<title>Node59</title>
<g id="a_node14"><a xlink:href="ionModels_8cpp.html" target="_top" xlink:title=" ">
<polygon fill="white" stroke="black" points="832.15,-134.5 832.15,-164.5 962.15,-164.5 962.15,-134.5 832.15,-134.5"/>
<text text-anchor="start" x="840.15" y="-152.5" font-family="Helvetica,sans-Serif" font-size="10.00">/ginan/src/cpp/common</text>
<text text-anchor="middle" x="897.15" y="-141.5" font-family="Helvetica,sans-Serif" font-size="10.00">/ionModels.cpp</text>
</a>
</g>
</g>
<!-- Node1&#45;&gt;Node59 -->
<g id="edge14" class="edge">
<title>Node1&#45;&gt;Node59</title>
<path fill="none" stroke="midnightblue" d="M1563.78,-212.7C1439.74,-207.45 1184.99,-193.93 971.15,-165 968.3,-164.61 965.39,-164.19 962.45,-163.73"/>
<polygon fill="midnightblue" stroke="midnightblue" points="1563.79,-216.21 1573.93,-213.13 1564.09,-209.21 1563.79,-216.21"/>
</g>
<!-- Node60 -->
<g id="node15" class="node">
<title>Node60</title>
<g id="a_node15"><a xlink:href="linearCombo_8cpp.html" target="_top" xlink:title=" ">
<polygon fill="white" stroke="black" points="980.15,-134.5 980.15,-164.5 1110.15,-164.5 1110.15,-134.5 980.15,-134.5"/>
<text text-anchor="start" x="988.15" y="-152.5" font-family="Helvetica,sans-Serif" font-size="10.00">/ginan/src/cpp/common</text>
<text text-anchor="middle" x="1045.15" y="-141.5" font-family="Helvetica,sans-Serif" font-size="10.00">/linearCombo.cpp</text>
</a>
</g>
</g>
<!-- Node1&#45;&gt;Node60 -->
<g id="edge15" class="edge">
<title>Node1&#45;&gt;Node60</title>
<path fill="none" stroke="midnightblue" d="M1563.91,-210.49C1462.54,-203.21 1276.64,-188.02 1119.15,-165 1116.3,-164.58 1113.4,-164.13 1110.46,-163.65"/>
<polygon fill="midnightblue" stroke="midnightblue" points="1563.83,-213.99 1574.06,-211.21 1564.33,-207.01 1563.83,-213.99"/>
</g>
<!-- Node89 -->
<g id="node16" class="node">
<title>Node89</title>
<g id="a_node16"><a xlink:href="mongo_8cpp.html" target="_top" xlink:title=" ">
<polygon fill="white" stroke="black" points="1128.15,-134.5 1128.15,-164.5 1258.15,-164.5 1258.15,-134.5 1128.15,-134.5"/>
<text text-anchor="start" x="1136.15" y="-152.5" font-family="Helvetica,sans-Serif" font-size="10.00">/ginan/src/cpp/common</text>
<text text-anchor="middle" x="1193.15" y="-141.5" font-family="Helvetica,sans-Serif" font-size="10.00">/mongo.cpp</text>
</a>
</g>
</g>
<!-- Node1&#45;&gt;Node89 -->
<g id="edge16" class="edge">
<title>Node1&#45;&gt;Node89</title>
<path fill="none" stroke="midnightblue" d="M1563.86,-206.14C1489.57,-196.67 1372.83,-181.16 1272.15,-165 1267.61,-164.27 1262.92,-163.49 1258.21,-162.68"/>
<polygon fill="midnightblue" stroke="midnightblue" points="1563.69,-209.65 1574.05,-207.44 1564.58,-202.7 1563.69,-209.65"/>
</g>
<!-- Node90 -->
<g id="node17" class="node">
<title>Node90</title>
<g id="a_node17"><a xlink:href="receiver_8hpp.html" target="_top" xlink:title=" ">
<polygon fill="white" stroke="red" points="1314.15,-134.5 1314.15,-164.5 1444.15,-164.5 1444.15,-134.5 1314.15,-134.5"/>
<text text-anchor="start" x="1322.15" y="-152.5" font-family="Helvetica,sans-Serif" font-size="10.00">/ginan/src/cpp/common</text>
<text text-anchor="middle" x="1379.15" y="-141.5" font-family="Helvetica,sans-Serif" font-size="10.00">/receiver.hpp</text>
</a>
</g>
</g>
<!-- Node1&#45;&gt;Node90 -->
<g id="edge18" class="edge">
<title>Node1&#45;&gt;Node90</title>
<path fill="none" stroke="midnightblue" d="M1573.09,-198.98C1530.62,-188.37 1476.03,-174.72 1435.6,-164.61"/>
<polygon fill="midnightblue" stroke="midnightblue" points="1572.51,-202.45 1583.06,-201.48 1574.2,-195.66 1572.51,-202.45"/>
</g>
<!-- Node93 -->
<g id="node18" class="node">
<title>Node93</title>
<g id="a_node18"><a xlink:href="rinexObsWrite_8cpp.html" target="_top" xlink:title=" ">
<polygon fill="white" stroke="black" points="1314.15,-67.5 1314.15,-97.5 1444.15,-97.5 1444.15,-67.5 1314.15,-67.5"/>
<text text-anchor="start" x="1322.15" y="-85.5" font-family="Helvetica,sans-Serif" font-size="10.00">/ginan/src/cpp/common</text>
<text text-anchor="middle" x="1379.15" y="-74.5" font-family="Helvetica,sans-Serif" font-size="10.00">/rinexObsWrite.cpp</text>
</a>
</g>
</g>
<!-- Node1&#45;&gt;Node93 -->
<g id="edge28" class="edge">
<title>Node1&#45;&gt;Node93</title>
<path fill="none" stroke="midnightblue" d="M1573.14,-198.48C1546.74,-190.29 1516.62,-179.13 1491.15,-165 1472.09,-154.43 1470.62,-147.04 1453.15,-134 1435.96,-121.15 1415.8,-107.48 1400.87,-97.61"/>
<polygon fill="midnightblue" stroke="midnightblue" points="1572.47,-201.94 1583.05,-201.48 1574.49,-195.24 1572.47,-201.94"/>
</g>
<!-- Node44 -->
<g id="node19" class="node">
<title>Node44</title>
<g id="a_node19"><a xlink:href="ionoMeas_8cpp.html" target="_top" xlink:title=" ">
<polygon fill="white" stroke="black" points="1462.15,-67.5 1462.15,-97.5 1570.15,-97.5 1570.15,-67.5 1462.15,-67.5"/>
<text text-anchor="start" x="1470.15" y="-85.5" font-family="Helvetica,sans-Serif" font-size="10.00">/ginan/src/cpp/iono</text>
<text text-anchor="middle" x="1516.15" y="-74.5" font-family="Helvetica,sans-Serif" font-size="10.00">/ionoMeas.cpp</text>
</a>
</g>
</g>
<!-- Node1&#45;&gt;Node44 -->
<g id="edge36" class="edge">
<title>Node1&#45;&gt;Node44</title>
<path fill="none" stroke="midnightblue" d="M1714.49,-215.72C1886.64,-215.43 2297.29,-209.99 2339.15,-165 2348.54,-154.91 2348.66,-143.97 2339.15,-134 2309.98,-103.41 1621.03,-103.76 1579.15,-98 1576.26,-97.6 1573.31,-97.14 1570.34,-96.62"/>
<polygon fill="midnightblue" stroke="midnightblue" points="1714.24,-212.22 1704.24,-215.73 1714.24,-219.22 1714.24,-212.22"/>
</g>
<!-- Node51 -->
<g id="node20" class="node">
<title>Node51</title>
<g id="a_node20"><a xlink:href="ppppp_8cpp.html" target="_top" xlink:title=" ">
<polygon fill="white" stroke="black" points="1828.65,-67.5 1828.65,-97.5 1933.65,-97.5 1933.65,-67.5 1828.65,-67.5"/>
<text text-anchor="start" x="1836.65" y="-85.5" font-family="Helvetica,sans-Serif" font-size="10.00">/ginan/src/cpp/pea</text>
<text text-anchor="middle" x="1881.15" y="-74.5" font-family="Helvetica,sans-Serif" font-size="10.00">/ppppp.cpp</text>
</a>
</g>
</g>
<!-- Node1&#45;&gt;Node51 -->
<g id="edge40" class="edge">
<title>Node1&#45;&gt;Node51</title>
<path fill="none" stroke="midnightblue" d="M1714.25,-214.62C1945.83,-211.53 2635.34,-199.46 2668.15,-165 2677.65,-155.02 2677.58,-144.05 2668.15,-134 2643.01,-107.19 2106.24,-89.82 1933.91,-84.92"/>
<polygon fill="midnightblue" stroke="midnightblue" points="1714.18,-211.12 1704.23,-214.75 1714.27,-218.12 1714.18,-211.12"/>
</g>
<!-- Node106 -->
<g id="node21" class="node">
<title>Node106</title>
<g id="a_node21"><a xlink:href="slrRec_8cpp.html" target="_top" xlink:title=" ">
<polygon fill="white" stroke="black" points="2304.65,-67.5 2304.65,-97.5 2403.65,-97.5 2403.65,-67.5 2304.65,-67.5"/>
<text text-anchor="start" x="2312.65" y="-85.5" font-family="Helvetica,sans-Serif" font-size="10.00">/ginan/src/cpp/slr</text>
<text text-anchor="middle" x="2354.15" y="-74.5" font-family="Helvetica,sans-Serif" font-size="10.00">/slrRec.cpp</text>
</a>
</g>
</g>
<!-- Node1&#45;&gt;Node106 -->
<g id="edge43" class="edge">
<title>Node1&#45;&gt;Node106</title>
<path fill="none" stroke="midnightblue" d="M1714.68,-215.28C1978.11,-214.16 2842.57,-207.26 2883.15,-165 2892.7,-155.06 2892.42,-144.19 2883.15,-134 2851.27,-98.93 2529.7,-87.62 2404.07,-84.53"/>
<polygon fill="midnightblue" stroke="midnightblue" points="1714.43,-211.78 1704.45,-215.33 1714.46,-218.78 1714.43,-211.78"/>
</g>
<!-- Node107 -->
<g id="node22" class="node">
<title>Node107</title>
<g id="a_node22"><a xlink:href="rinexObsWrite_8hpp.html" target="_top" xlink:title=" ">
<polygon fill="white" stroke="red" points="1500.15,-134.5 1500.15,-164.5 1630.15,-164.5 1630.15,-134.5 1500.15,-134.5"/>
<text text-anchor="start" x="1508.15" y="-152.5" font-family="Helvetica,sans-Serif" font-size="10.00">/ginan/src/cpp/common</text>
<text text-anchor="middle" x="1565.15" y="-141.5" font-family="Helvetica,sans-Serif" font-size="10.00">/rinexObsWrite.hpp</text>
</a>
</g>
</g>
<!-- Node1&#45;&gt;Node107 -->
<g id="edge29" class="edge">
<title>Node1&#45;&gt;Node107</title>
<path fill="none" stroke="midnightblue" d="M1615.36,-194.6C1604.18,-184.78 1591.16,-173.34 1581.18,-164.58"/>
<polygon fill="midnightblue" stroke="midnightblue" points="1613.27,-197.43 1623.1,-201.4 1617.89,-192.17 1613.27,-197.43"/>
</g>
<!-- Node99 -->
<g id="node23" class="node">
<title>Node99</title>
<g id="a_node23"><a xlink:href="rtcmDecoder_8hpp.html" target="_top" xlink:title=" ">
<polygon fill="white" stroke="red" points="1648.15,-134.5 1648.15,-164.5 1778.15,-164.5 1778.15,-134.5 1648.15,-134.5"/>
<text text-anchor="start" x="1656.15" y="-152.5" font-family="Helvetica,sans-Serif" font-size="10.00">/ginan/src/cpp/common</text>
<text text-anchor="middle" x="1713.15" y="-141.5" font-family="Helvetica,sans-Serif" font-size="10.00">/rtcmDecoder.hpp</text>
</a>
</g>
</g>
<!-- Node1&#45;&gt;Node99 -->
<g id="edge31" class="edge">
<title>Node1&#45;&gt;Node99</title>
<path fill="none" stroke="midnightblue" d="M1662.95,-194.6C1674.12,-184.78 1687.15,-173.34 1697.13,-164.58"/>
<polygon fill="midnightblue" stroke="midnightblue" points="1660.41,-192.17 1655.21,-201.4 1665.03,-197.43 1660.41,-192.17"/>
</g>
<!-- Node71 -->
<g id="node24" class="node">
<title>Node71</title>
<g id="a_node24"><a xlink:href="trace_8cpp.html" target="_top" xlink:title=" ">
<polygon fill="white" stroke="black" points="1796.15,-134.5 1796.15,-164.5 1926.15,-164.5 1926.15,-134.5 1796.15,-134.5"/>
<text text-anchor="start" x="1804.15" y="-152.5" font-family="Helvetica,sans-Serif" font-size="10.00">/ginan/src/cpp/common</text>
<text text-anchor="middle" x="1861.15" y="-141.5" font-family="Helvetica,sans-Serif" font-size="10.00">/trace.cpp</text>
</a>
</g>
</g>
<!-- Node1&#45;&gt;Node71 -->
<g id="edge32" class="edge">
<title>Node1&#45;&gt;Node71</title>
<path fill="none" stroke="midnightblue" d="M1696.94,-198.58C1733,-188.02 1778.87,-174.59 1812.96,-164.61"/>
<polygon fill="midnightblue" stroke="midnightblue" points="1695.66,-195.31 1687.05,-201.48 1697.63,-202.02 1695.66,-195.31"/>
</g>
<!-- Node24 -->
<g id="node25" class="node">
<title>Node24</title>
<g id="a_node25"><a xlink:href="ubxDecoder_8cpp.html" target="_top" xlink:title=" ">
<polygon fill="white" stroke="black" points="1944.15,-134.5 1944.15,-164.5 2074.15,-164.5 2074.15,-134.5 1944.15,-134.5"/>
<text text-anchor="start" x="1952.15" y="-152.5" font-family="Helvetica,sans-Serif" font-size="10.00">/ginan/src/cpp/common</text>
<text text-anchor="middle" x="2009.15" y="-141.5" font-family="Helvetica,sans-Serif" font-size="10.00">/ubxDecoder.cpp</text>
</a>
</g>
</g>
<!-- Node1&#45;&gt;Node24 -->
<g id="edge33" class="edge">
<title>Node1&#45;&gt;Node24</title>
<path fill="none" stroke="midnightblue" d="M1714.32,-203.2C1774.2,-193.27 1860.14,-178.75 1935.15,-165 1937.99,-164.48 1940.88,-163.94 1943.8,-163.4"/>
<polygon fill="midnightblue" stroke="midnightblue" points="1713.49,-199.79 1704.2,-204.87 1714.63,-206.69 1713.49,-199.79"/>
</g>
<!-- Node42 -->
<g id="node26" class="node">
<title>Node42</title>
<g id="a_node26"><a xlink:href="ionoBSplines_8cpp.html" target="_top" xlink:title=" ">
<polygon fill="white" stroke="black" points="2092.15,-134.5 2092.15,-164.5 2200.15,-164.5 2200.15,-134.5 2092.15,-134.5"/>
<text text-anchor="start" x="2100.15" y="-152.5" font-family="Helvetica,sans-Serif" font-size="10.00">/ginan/src/cpp/iono</text>
<text text-anchor="middle" x="2146.15" y="-141.5" font-family="Helvetica,sans-Serif" font-size="10.00">/ionoBSplines.cpp</text>
</a>
</g>
</g>
<!-- Node1&#45;&gt;Node42 -->
<g id="edge34" class="edge">
<title>Node1&#45;&gt;Node42</title>
<path fill="none" stroke="midnightblue" d="M1714.41,-209.55C1803.02,-201.94 1954.44,-187.06 2083.15,-165 2086.03,-164.51 2088.97,-163.96 2091.94,-163.39"/>
<polygon fill="midnightblue" stroke="midnightblue" points="1713.85,-206.09 1704.19,-210.42 1714.45,-213.06 1713.85,-206.09"/>
</g>
<!-- Node43 -->
<g id="node27" class="node">
<title>Node43</title>
<g id="a_node27"><a xlink:href="ionoLocalSTEC_8cpp.html" target="_top" xlink:title=" ">
<polygon fill="white" stroke="black" points="2218.65,-134.5 2218.65,-164.5 2329.65,-164.5 2329.65,-134.5 2218.65,-134.5"/>
<text text-anchor="start" x="2226.65" y="-152.5" font-family="Helvetica,sans-Serif" font-size="10.00">/ginan/src/cpp/iono</text>
<text text-anchor="middle" x="2274.15" y="-141.5" font-family="Helvetica,sans-Serif" font-size="10.00">/ionoLocalSTEC.cpp</text>
</a>
</g>
</g>
<!-- Node1&#45;&gt;Node43 -->
<g id="edge35" class="edge">
<title>Node1&#45;&gt;Node43</title>
<path fill="none" stroke="midnightblue" d="M1714.74,-211.96C1824.26,-206.12 2033.21,-192.3 2209.15,-165 2212.24,-164.52 2215.4,-163.98 2218.58,-163.4"/>
<polygon fill="midnightblue" stroke="midnightblue" points="1714.26,-208.48 1704.46,-212.5 1714.63,-215.47 1714.26,-208.48"/>
</g>
<!-- Node46 -->
<g id="node28" class="node">
<title>Node46</title>
<g id="a_node28"><a xlink:href="ionoSpherical_8cpp.html" target="_top" xlink:title=" ">
<polygon fill="white" stroke="black" points="2386.15,-134.5 2386.15,-164.5 2494.15,-164.5 2494.15,-134.5 2386.15,-134.5"/>
<text text-anchor="start" x="2394.15" y="-152.5" font-family="Helvetica,sans-Serif" font-size="10.00">/ginan/src/cpp/iono</text>
<text text-anchor="middle" x="2440.15" y="-141.5" font-family="Helvetica,sans-Serif" font-size="10.00">/ionoSpherical.cpp</text>
</a>
</g>
</g>
<!-- Node1&#45;&gt;Node46 -->
<g id="edge37" class="edge">
<title>Node1&#45;&gt;Node46</title>
<path fill="none" stroke="midnightblue" d="M1714.28,-213.82C1847.43,-210.07 2133.31,-198.52 2372.15,-165 2376.7,-164.36 2381.39,-163.59 2386.09,-162.75"/>
<polygon fill="midnightblue" stroke="midnightblue" points="1714.09,-210.33 1704.19,-214.1 1714.28,-217.32 1714.09,-210.33"/>
</g>
<!-- Node47 -->
<g id="node29" class="node">
<title>Node47</title>
<g id="a_node29"><a xlink:href="ionoSphericalCaps_8cpp.html" target="_top" xlink:title=" ">
<polygon fill="white" stroke="black" points="2512.15,-134.5 2512.15,-164.5 2642.15,-164.5 2642.15,-134.5 2512.15,-134.5"/>
<text text-anchor="start" x="2520.15" y="-152.5" font-family="Helvetica,sans-Serif" font-size="10.00">/ginan/src/cpp/iono</text>
<text text-anchor="middle" x="2577.15" y="-141.5" font-family="Helvetica,sans-Serif" font-size="10.00">/ionoSphericalCaps.cpp</text>
</a>
</g>
</g>
<!-- Node1&#45;&gt;Node47 -->
<g id="edge38" class="edge">
<title>Node1&#45;&gt;Node47</title>
<path fill="none" stroke="midnightblue" d="M1714.23,-214.52C1864.56,-211.8 2212.99,-201.74 2503.15,-165 2506.01,-164.64 2508.92,-164.23 2511.86,-163.79"/>
<polygon fill="midnightblue" stroke="midnightblue" points="1714.13,-211.02 1704.19,-214.69 1714.25,-218.02 1714.13,-211.02"/>
</g>
<!-- Node109 -->
<g id="node30" class="node">
<title>Node109</title>
<g id="a_node30"><a xlink:href="slrObs_8cpp.html" target="_top" xlink:title=" ">
<polygon fill="white" stroke="black" points="2774.65,-134.5 2774.65,-164.5 2873.65,-164.5 2873.65,-134.5 2774.65,-134.5"/>
<text text-anchor="start" x="2782.65" y="-152.5" font-family="Helvetica,sans-Serif" font-size="10.00">/ginan/src/cpp/slr</text>
<text text-anchor="middle" x="2824.15" y="-141.5" font-family="Helvetica,sans-Serif" font-size="10.00">/slrObs.cpp</text>
</a>
</g>
</g>
<!-- Node1&#45;&gt;Node109 -->
<g id="edge42" class="edge">
<title>Node1&#45;&gt;Node109</title>
<path fill="none" stroke="midnightblue" d="M1714.2,-213.86C1931.26,-208.84 2557.15,-192.35 2760.15,-165 2764.78,-164.38 2769.57,-163.58 2774.35,-162.68"/>
<polygon fill="midnightblue" stroke="midnightblue" points="1714.09,-210.36 1704.18,-214.09 1714.26,-217.36 1714.09,-210.36"/>
</g>
<!-- Node82 -->
<g id="node31" class="node">
<title>Node82</title>
<g id="a_node31"><a xlink:href="tropModels_8cpp.html" target="_top" xlink:title=" ">
<polygon fill="white" stroke="black" points="2968.65,-134.5 2968.65,-164.5 3075.65,-164.5 3075.65,-134.5 2968.65,-134.5"/>
<text text-anchor="start" x="2976.65" y="-152.5" font-family="Helvetica,sans-Serif" font-size="10.00">/ginan/src/cpp/trop</text>
<text text-anchor="middle" x="3022.15" y="-141.5" font-family="Helvetica,sans-Serif" font-size="10.00">/tropModels.cpp</text>
</a>
</g>
</g>
<!-- Node1&#45;&gt;Node82 -->
<g id="edge45" class="edge">
<title>Node1&#45;&gt;Node82</title>
<path fill="none" stroke="midnightblue" d="M1714.38,-214.31C1956.16,-210.22 2711.66,-195.28 2954.15,-165 2958.82,-164.42 2963.65,-163.67 2968.48,-162.84"/>
<polygon fill="midnightblue" stroke="midnightblue" points="1714.23,-210.81 1704.29,-214.48 1714.34,-217.81 1714.23,-210.81"/>
</g>
<!-- Node2&#45;&gt;Node5 -->
<g id="edge2" class="edge">
<title>Node2&#45;&gt;Node5</title>
<path fill="none" stroke="midnightblue" d="M951.84,-64.09C983,-53.6 1022.16,-40.41 1051.36,-30.58"/>
<polygon fill="midnightblue" stroke="midnightblue" points="950.39,-60.89 942.03,-67.4 952.63,-67.52 950.39,-60.89"/>
</g>
<!-- Node2&#45;&gt;Node11 -->
<g id="edge3" class="edge">
<title>Node2&#45;&gt;Node11</title>
<path fill="none" stroke="midnightblue" d="M972.59,-66.95C1335.72,-21.68 1762.64,-16.72 1909.53,-16.4"/>
<polygon fill="midnightblue" stroke="midnightblue" points="971.89,-63.51 962.4,-68.24 972.76,-70.46 971.89,-63.51"/>
</g>
<!-- Node18&#45;&gt;Node13 -->
<g id="edge11" class="edge">
<title>Node18&#45;&gt;Node13</title>
<path fill="none" stroke="midnightblue" d="M822.85,-132.32C871.5,-121.63 934.61,-107.77 981.15,-97.55"/>
<polygon fill="midnightblue" stroke="midnightblue" points="822.03,-128.91 813.02,-134.48 823.53,-135.75 822.03,-128.91"/>
</g>
<!-- Node18&#45;&gt;Node54 -->
<g id="edge12" class="edge">
<title>Node18&#45;&gt;Node54</title>
<path fill="none" stroke="midnightblue" d="M824.41,-133.98C1158.85,-94.54 1249.25,-144.04 1579.15,-98 1582.22,-97.57 1585.36,-97.06 1588.51,-96.5"/>
<polygon fill="midnightblue" stroke="midnightblue" points="823.95,-130.51 814.44,-135.17 824.79,-137.46 823.95,-130.51"/>
</g>
<!-- Node18&#45;&gt;Node88 -->
<g id="edge13" class="edge">
<title>Node18&#45;&gt;Node88</title>
<path fill="none" stroke="midnightblue" d="M824.55,-133.97C1213.26,-89.37 1318.34,-152.46 1702.15,-98 1705.18,-97.57 1708.28,-97.05 1711.4,-96.47"/>
<polygon fill="midnightblue" stroke="midnightblue" points="823.97,-130.51 814.44,-135.15 824.78,-137.47 823.97,-130.51"/>
</g>
<!-- Node90&#45;&gt;Node2 -->
<g id="edge19" class="edge">
<title>Node90&#45;&gt;Node2</title>
<path fill="none" stroke="midnightblue" d="M1303.82,-138.67C1291.57,-137.09 1279.01,-135.49 1267.15,-134 1135.66,-117.49 1101.96,-119.28 971.15,-98 968.3,-97.54 965.38,-97.04 962.44,-96.52"/>
<polygon fill="midnightblue" stroke="midnightblue" points="1303.65,-142.17 1314.02,-139.98 1304.55,-135.23 1303.65,-142.17"/>
</g>
<!-- Node90&#45;&gt;Node11 -->
<g id="edge26" class="edge">
<title>Node90&#45;&gt;Node11</title>
<path fill="none" stroke="midnightblue" d="M1454.44,-138.24C1466.7,-136.72 1479.27,-135.24 1491.15,-134 1541.15,-128.77 1903.86,-130.57 1942.15,-98 1961.68,-81.39 1963.81,-49.09 1963.24,-30.53"/>
<polygon fill="midnightblue" stroke="midnightblue" points="1453.72,-134.8 1444.24,-139.53 1454.6,-141.75 1453.72,-134.8"/>
</g>
<!-- Node90&#45;&gt;Node13 -->
<g id="edge20" class="edge">
<title>Node90&#45;&gt;Node13</title>
<path fill="none" stroke="midnightblue" d="M1303.84,-133.91C1251.93,-123.84 1181.35,-110.13 1119.15,-98 1116.33,-97.45 1113.44,-96.88 1110.52,-96.31"/>
<polygon fill="midnightblue" stroke="midnightblue" points="1303.48,-137.4 1313.97,-135.87 1304.82,-130.53 1303.48,-137.4"/>
</g>
<!-- Node90&#45;&gt;Node15 -->
<g id="edge21" class="edge">
<title>Node90&#45;&gt;Node15</title>
<path fill="none" stroke="midnightblue" d="M1329.34,-131.09C1299.31,-120.6 1261.57,-107.41 1233.43,-97.58"/>
<polygon fill="midnightblue" stroke="midnightblue" points="1328.2,-134.4 1338.79,-134.4 1330.51,-127.79 1328.2,-134.4"/>
</g>
<!-- Node90&#45;&gt;Node54 -->
<g id="edge24" class="edge">
<title>Node90&#45;&gt;Node54</title>
<path fill="none" stroke="midnightblue" d="M1445.48,-132.04C1489.73,-121.07 1547.13,-106.83 1588.3,-96.61"/>
<polygon fill="midnightblue" stroke="midnightblue" points="1444.54,-128.67 1435.68,-134.48 1446.23,-135.47 1444.54,-128.67"/>
</g>
<!-- Node90&#45;&gt;Node93 -->
<g id="edge22" class="edge">
<title>Node90&#45;&gt;Node93</title>
<path fill="none" stroke="midnightblue" d="M1379.15,-124.11C1379.15,-115.15 1379.15,-105.32 1379.15,-97.58"/>
<polygon fill="midnightblue" stroke="midnightblue" points="1375.65,-124.4 1379.15,-134.4 1382.65,-124.4 1375.65,-124.4"/>
</g>
<!-- Node90&#45;&gt;Node44 -->
<g id="edge23" class="edge">
<title>Node90&#45;&gt;Node44</title>
<path fill="none" stroke="midnightblue" d="M1418.16,-129.99C1439.88,-119.69 1466.48,-107.07 1486.48,-97.58"/>
<polygon fill="midnightblue" stroke="midnightblue" points="1416.41,-126.95 1408.88,-134.4 1419.42,-133.27 1416.41,-126.95"/>
</g>
<!-- Node90&#45;&gt;Node51 -->
<g id="edge25" class="edge">
<title>Node90&#45;&gt;Node51</title>
<path fill="none" stroke="midnightblue" d="M1454.47,-138.54C1466.73,-136.98 1479.29,-135.42 1491.15,-134 1636.77,-116.58 1674.6,-122.74 1819.15,-98 1822.2,-97.48 1825.33,-96.9 1828.48,-96.27"/>
<polygon fill="midnightblue" stroke="midnightblue" points="1453.75,-135.11 1444.27,-139.85 1454.64,-142.05 1453.75,-135.11"/>
</g>
<!-- Node90&#45;&gt;Node106 -->
<g id="edge27" class="edge">
<title>Node90&#45;&gt;Node106</title>
<path fill="none" stroke="midnightblue" d="M1454.42,-138.02C1466.68,-136.52 1479.26,-135.12 1491.15,-134 1799.72,-105.03 2172.01,-89.94 2304.44,-85.19"/>
<polygon fill="midnightblue" stroke="midnightblue" points="1453.7,-134.58 1444.21,-139.29 1454.57,-141.53 1453.7,-134.58"/>
</g>
<!-- Node107&#45;&gt;Node93 -->
<g id="edge30" class="edge">
<title>Node107&#45;&gt;Node93</title>
<path fill="none" stroke="midnightblue" d="M1515.34,-131.09C1485.31,-120.6 1447.57,-107.41 1419.43,-97.58"/>
<polygon fill="midnightblue" stroke="midnightblue" points="1514.2,-134.4 1524.79,-134.4 1516.51,-127.79 1514.2,-134.4"/>
</g>
</g>
</svg>
