<?xml version="1.0" encoding="UTF-8" standalone="no"?>
<!DOCTYPE svg PUBLIC "-//W3C//DTD SVG 1.1//EN"
 "http://www.w3.org/Graphics/SVG/1.1/DTD/svg11.dtd">
<!-- Generated by graphviz version 2.43.0 (0)
 -->
<!-- Title: outputOrbit Pages: 1 -->
<svg width="384pt" height="370pt"
 viewBox="0.00 0.00 384.00 370.00" xmlns="http://www.w3.org/2000/svg" xmlns:xlink="http://www.w3.org/1999/xlink">
<g id="graph0" class="graph" transform="scale(1 1) rotate(0) translate(4 366)">
<title>outputOrbit</title>
<polygon fill="white" stroke="transparent" points="-4,4 -4,-366 380,-366 380,4 -4,4"/>
<!-- Node1 -->
<g id="node1" class="node">
<title>Node1</title>
<g id="a_node1"><a xlink:title="Output orbit file compatible with the pod.">
<polygon fill="#bfbfbf" stroke="black" points="0,-171.5 0,-190.5 72,-190.5 72,-171.5 0,-171.5"/>
<text text-anchor="middle" x="36" y="-178.5" font-family="Helvetica,sans-Serif" font-size="10.00">outputOrbit</text>
</a>
</g>
</g>
<!-- Node2 -->
<g id="node2" class="node">
<title>Node2</title>
<g id="a_node2"><a xlink:href="gTime_8cpp.html#a7a747c44ca37f2ebe379fc4309d3cfba" target="_top" xlink:title=" ">
<polygon fill="white" stroke="black" points="135,-342.5 135,-361.5 209,-361.5 209,-342.5 135,-342.5"/>
<text text-anchor="middle" x="172" y="-349.5" font-family="Helvetica,sans-Serif" font-size="10.00">time2epoch</text>
</a>
</g>
</g>
<!-- Node1&#45;&gt;Node2 -->
<g id="edge1" class="edge">
<title>Node1&#45;&gt;Node2</title>
<path fill="none" stroke="midnightblue" d="M38.72,-190.85C43.95,-217.79 62.19,-293.36 108,-333 115.52,-339.5 125.2,-343.78 134.71,-346.59"/>
</g>
<!-- Node3 -->
<g id="node3" class="node">
<title>Node3</title>
<g id="a_node3"><a xlink:href="gTime_8cpp.html#a282534ac1ef65d4844290ce80bf76fed" target="_top" xlink:title="YMDHMS to Julian Day &#160;&#160;return : julian day.">
<polygon fill="white" stroke="black" points="135,-304.5 135,-323.5 209,-323.5 209,-304.5 135,-304.5"/>
<text text-anchor="middle" x="172" y="-311.5" font-family="Helvetica,sans-Serif" font-size="10.00">ymdhms2jd</text>
</a>
</g>
</g>
<!-- Node1&#45;&gt;Node3 -->
<g id="edge2" class="edge">
<title>Node1&#45;&gt;Node3</title>
<path fill="none" stroke="midnightblue" d="M40.27,-190.58C48.24,-212.48 70.79,-266.51 108,-295 115.8,-300.97 125.47,-305.08 134.87,-307.89"/>
</g>
<!-- Node4 -->
<g id="node4" class="node">
<title>Node4</title>
<g id="a_node4"><a xlink:href="streamTrace_8cpp.html#ae00e6addd3bdf3a7fd41a254eb9aec89" target="_top" xlink:title=" ">
<polygon fill="white" stroke="black" points="136.5,-266.5 136.5,-285.5 207.5,-285.5 207.5,-266.5 136.5,-266.5"/>
<text text-anchor="middle" x="172" y="-273.5" font-family="Helvetica,sans-Serif" font-size="10.00">tracepdeex</text>
</a>
</g>
</g>
<!-- Node1&#45;&gt;Node4 -->
<g id="edge3" class="edge">
<title>Node1&#45;&gt;Node4</title>
<path fill="none" stroke="midnightblue" d="M43.44,-190.7C54.66,-206.84 79.32,-239.17 108,-257 116.54,-262.31 126.65,-266.21 136.25,-269.05"/>
</g>
<!-- Node5 -->
<g id="node5" class="node">
<title>Node5</title>
<g id="a_node5"><a xlink:href="structKFState.html#a291ac2a8a4612b3575dbc864d43fa0f7" target="_top" xlink:title="Returns the value and variance of a state within the kalman filter object.">
<polygon fill="white" stroke="black" points="113.5,-228.5 113.5,-247.5 230.5,-247.5 230.5,-228.5 113.5,-228.5"/>
<text text-anchor="middle" x="172" y="-235.5" font-family="Helvetica,sans-Serif" font-size="10.00">KFState::getKFValue</text>
</a>
</g>
</g>
<!-- Node1&#45;&gt;Node5 -->
<g id="edge4" class="edge">
<title>Node1&#45;&gt;Node5</title>
<path fill="none" stroke="midnightblue" d="M52.63,-190.53C66.73,-198.85 88.23,-210.82 108,-219 116.55,-222.54 126,-225.74 134.92,-228.46"/>
</g>
<!-- Node6 -->
<g id="node6" class="node">
<title>Node6</title>
<g id="a_node6"><a xlink:href="structSatSys.html#aa31d14f6b8c2100c085c732b9a3fef3f" target="_top" xlink:title="Constructs a SatSys object from it&#39;s hash uid.">
<polygon fill="white" stroke="black" points="120,-190.5 120,-209.5 224,-209.5 224,-190.5 120,-190.5"/>
<text text-anchor="middle" x="172" y="-197.5" font-family="Helvetica,sans-Serif" font-size="10.00">SatSys::fromHash</text>
</a>
</g>
</g>
<!-- Node1&#45;&gt;Node6 -->
<g id="edge5" class="edge">
<title>Node1&#45;&gt;Node6</title>
<path fill="none" stroke="midnightblue" d="M72.21,-185.99C86.78,-188.06 103.98,-190.5 119.9,-192.75"/>
</g>
<!-- Node7 -->
<g id="node7" class="node">
<title>Node7</title>
<g id="a_node7"><a xlink:href="structACSConfig.html#a9f893b7ab2412f42ef7a02423d755940" target="_top" xlink:title="Set satellite options for a specific satellite using a hierarchy of sources.">
<polygon fill="white" stroke="red" points="108,-152.5 108,-171.5 236,-171.5 236,-152.5 108,-152.5"/>
<text text-anchor="middle" x="172" y="-159.5" font-family="Helvetica,sans-Serif" font-size="10.00">ACSConfig::getSatOpts</text>
</a>
</g>
</g>
<!-- Node1&#45;&gt;Node7 -->
<g id="edge6" class="edge">
<title>Node1&#45;&gt;Node7</title>
<path fill="none" stroke="midnightblue" d="M72.21,-176.01C83.14,-174.46 95.54,-172.7 107.78,-170.96"/>
</g>
<!-- Node8 -->
<g id="node8" class="node">
<title>Node8</title>
<g id="a_node8"><a xlink:href="structSatSys.html#aec6d07b90d1e8172b8b6a6966abef4fd" target="_top" xlink:title="Returns a std::string of this satellite&#39;s id.">
<polygon fill="white" stroke="red" points="291.5,-152.5 291.5,-171.5 356.5,-171.5 356.5,-152.5 291.5,-152.5"/>
<text text-anchor="middle" x="324" y="-159.5" font-family="Helvetica,sans-Serif" font-size="10.00">SatSys::id</text>
</a>
</g>
</g>
<!-- Node1&#45;&gt;Node8 -->
<g id="edge10" class="edge">
<title>Node1&#45;&gt;Node8</title>
<path fill="none" stroke="midnightblue" d="M50.06,-171.45C63.71,-162.09 86.17,-148.48 108,-143 171.61,-127.05 248.72,-141.78 291.15,-152.71"/>
</g>
<!-- Node11 -->
<g id="node9" class="node">
<title>Node11</title>
<g id="a_node9"><a xlink:href="structSatSys.html#a01de9e9cee76346f43550516bba9558e" target="_top" xlink:title=" ">
<polygon fill="white" stroke="black" points="272,-114.5 272,-133.5 376,-133.5 376,-114.5 272,-114.5"/>
<text text-anchor="middle" x="324" y="-121.5" font-family="Helvetica,sans-Serif" font-size="10.00">SatSys::blockType</text>
</a>
</g>
</g>
<!-- Node1&#45;&gt;Node11 -->
<g id="edge12" class="edge">
<title>Node1&#45;&gt;Node11</title>
<path fill="none" stroke="midnightblue" d="M46.53,-171.46C59.26,-159.43 83.12,-139.33 108,-131 161.65,-113.04 227.1,-113.88 271.59,-117.57"/>
</g>
<!-- Node20 -->
<g id="node10" class="node">
<title>Node20</title>
<g id="a_node10"><a xlink:href="structSatSys.html#a1da3994cf03ff0ec115928954c9307bb" target="_top" xlink:title=" ">
<polygon fill="white" stroke="black" points="287.5,-76.5 287.5,-95.5 360.5,-95.5 360.5,-76.5 287.5,-76.5"/>
<text text-anchor="middle" x="324" y="-83.5" font-family="Helvetica,sans-Serif" font-size="10.00">SatSys::svn</text>
</a>
</g>
</g>
<!-- Node1&#45;&gt;Node20 -->
<g id="edge11" class="edge">
<title>Node1&#45;&gt;Node20</title>
<path fill="none" stroke="midnightblue" d="M47.7,-171.32C60.9,-159.91 84.49,-141.21 108,-131 167.81,-105.01 243.65,-93.66 287.41,-88.99"/>
</g>
<!-- Node21 -->
<g id="node11" class="node">
<title>Node21</title>
<g id="a_node11"><a xlink:href="algebra_8cpp.html#a304f0d512353a3c5a991c2439ea73287" target="_top" xlink:title=" ">
<polygon fill="white" stroke="black" points="109,-0.5 109,-19.5 235,-19.5 235,-0.5 109,-0.5"/>
<text text-anchor="middle" x="172" y="-7.5" font-family="Helvetica,sans-Serif" font-size="10.00">initialStateFromConfig</text>
</a>
</g>
</g>
<!-- Node1&#45;&gt;Node21 -->
<g id="edge13" class="edge">
<title>Node1&#45;&gt;Node21</title>
<path fill="none" stroke="midnightblue" d="M39.06,-171.26C45.03,-145.3 64.77,-73.66 108,-34 114.81,-27.75 123.42,-23.07 132.07,-19.59"/>
</g>
<!-- Node7&#45;&gt;Node8 -->
<g id="edge7" class="edge">
<title>Node7&#45;&gt;Node8</title>
<path fill="none" stroke="midnightblue" d="M236.18,-162C255.23,-162 275.33,-162 291.39,-162"/>
</g>
<!-- Node7&#45;&gt;Node11 -->
<g id="edge8" class="edge">
<title>Node7&#45;&gt;Node11</title>
<path fill="none" stroke="midnightblue" d="M210.85,-152.41C233.68,-146.63 262.64,-139.29 285.42,-133.52"/>
</g>
<!-- Node7&#45;&gt;Node20 -->
<g id="edge9" class="edge">
<title>Node7&#45;&gt;Node20</title>
<path fill="none" stroke="midnightblue" d="M188.01,-152.3C207.05,-140.26 241.13,-119.51 272,-105 279.27,-101.58 287.33,-98.34 294.86,-95.53"/>
</g>
</g>
</svg>
