<?xml version="1.0" encoding="UTF-8" standalone="no"?>
<!DOCTYPE svg PUBLIC "-//W3C//DTD SVG 1.1//EN"
 "http://www.w3.org/Graphics/SVG/1.1/DTD/svg11.dtd">
<!-- Generated by graphviz version 2.43.0 (0)
 -->
<!-- Title: /data/staging/ginan/src/cpp/common/orbits.hpp Pages: 1 -->
<svg width="572pt" height="173pt"
 viewBox="0.00 0.00 572.00 173.00" xmlns="http://www.w3.org/2000/svg" xmlns:xlink="http://www.w3.org/1999/xlink">
<g id="graph0" class="graph" transform="scale(1 1) rotate(0) translate(4 169)">
<title>/data/staging/ginan/src/cpp/common/orbits.hpp</title>
<polygon fill="white" stroke="transparent" points="-4,4 -4,-169 568,-169 568,4 -4,4"/>
<!-- Node1 -->
<g id="node1" class="node">
<title>Node1</title>
<g id="a_node1"><a xlink:title=" ">
<polygon fill="#bfbfbf" stroke="black" points="221.5,-134.5 221.5,-164.5 373.5,-164.5 373.5,-134.5 221.5,-134.5"/>
<text text-anchor="start" x="229.5" y="-152.5" font-family="Helvetica,sans-Serif" font-size="10.00">/data/staging/ginan</text>
<text text-anchor="middle" x="297.5" y="-141.5" font-family="Helvetica,sans-Serif" font-size="10.00">/src/cpp/common/orbits.hpp</text>
</a>
</g>
</g>
<!-- Node2 -->
<g id="node2" class="node">
<title>Node2</title>
<g id="a_node2"><a xlink:href="ephemeris_8cpp.html" target="_top" xlink:title=" ">
<polygon fill="white" stroke="black" points="0,-0.5 0,-30.5 175,-30.5 175,-0.5 0,-0.5"/>
<text text-anchor="start" x="8" y="-18.5" font-family="Helvetica,sans-Serif" font-size="10.00">/data/staging/ginan</text>
<text text-anchor="middle" x="87.5" y="-7.5" font-family="Helvetica,sans-Serif" font-size="10.00">/src/cpp/common/ephemeris.cpp</text>
</a>
</g>
</g>
<!-- Node1&#45;&gt;Node2 -->
<g id="edge1" class="edge">
<title>Node1&#45;&gt;Node2</title>
<path fill="none" stroke="midnightblue" d="M221.45,-140.4C167.43,-132.9 101.56,-119.58 84.5,-98 69.31,-78.79 76.02,-48.32 81.97,-30.59"/>
</g>
<!-- Node3 -->
<g id="node3" class="node">
<title>Node3</title>
<g id="a_node3"><a xlink:href="navigation_8hpp.html" target="_top" xlink:title=" ">
<polygon fill="white" stroke="red" points="93.5,-67.5 93.5,-97.5 269.5,-97.5 269.5,-67.5 93.5,-67.5"/>
<text text-anchor="start" x="101.5" y="-85.5" font-family="Helvetica,sans-Serif" font-size="10.00">/data/staging/ginan</text>
<text text-anchor="middle" x="181.5" y="-74.5" font-family="Helvetica,sans-Serif" font-size="10.00">/src/cpp/common/navigation.hpp</text>
</a>
</g>
</g>
<!-- Node1&#45;&gt;Node3 -->
<g id="edge2" class="edge">
<title>Node1&#45;&gt;Node3</title>
<path fill="none" stroke="midnightblue" d="M272.33,-134.4C252.87,-123.49 226.07,-108.47 206.62,-97.58"/>
</g>
<!-- Node115 -->
<g id="node4" class="node">
<title>Node115</title>
<g id="a_node4"><a xlink:href="common_2orbits_8cpp.html" target="_top" xlink:title=" ">
<polygon fill="white" stroke="black" points="204,-0.5 204,-30.5 355,-30.5 355,-0.5 204,-0.5"/>
<text text-anchor="start" x="212" y="-18.5" font-family="Helvetica,sans-Serif" font-size="10.00">/data/staging/ginan</text>
<text text-anchor="middle" x="279.5" y="-7.5" font-family="Helvetica,sans-Serif" font-size="10.00">/src/cpp/common/orbits.cpp</text>
</a>
</g>
</g>
<!-- Node1&#45;&gt;Node115 -->
<g id="edge6" class="edge">
<title>Node1&#45;&gt;Node115</title>
<path fill="none" stroke="midnightblue" d="M295.57,-134.37C292.11,-108.97 284.87,-55.86 281.41,-30.52"/>
</g>
<!-- Node13 -->
<g id="node5" class="node">
<title>Node13</title>
<g id="a_node5"><a xlink:href="networkEstimator_8cpp.html" target="_top" xlink:title=" ">
<polygon fill="white" stroke="black" points="379,-0.5 379,-30.5 564,-30.5 564,-0.5 379,-0.5"/>
<text text-anchor="start" x="387" y="-18.5" font-family="Helvetica,sans-Serif" font-size="10.00">/data/staging/ginan</text>
<text text-anchor="middle" x="471.5" y="-7.5" font-family="Helvetica,sans-Serif" font-size="10.00">/src/cpp/pea/networkEstimator.cpp</text>
</a>
</g>
</g>
<!-- Node1&#45;&gt;Node13 -->
<g id="edge8" class="edge">
<title>Node1&#45;&gt;Node13</title>
<path fill="none" stroke="midnightblue" d="M373.9,-141.84C404.45,-135.25 437.34,-122.5 458.5,-98 474.7,-79.24 474.94,-48.62 473.4,-30.73"/>
</g>
<!-- Node12 -->
<g id="node6" class="node">
<title>Node12</title>
<g id="a_node6"><a xlink:href="main_8cpp.html" target="_top" xlink:title=" ">
<polygon fill="white" stroke="black" points="326,-67.5 326,-97.5 449,-97.5 449,-67.5 326,-67.5"/>
<text text-anchor="start" x="334" y="-85.5" font-family="Helvetica,sans-Serif" font-size="10.00">/data/staging/ginan</text>
<text text-anchor="middle" x="387.5" y="-74.5" font-family="Helvetica,sans-Serif" font-size="10.00">/src/cpp/pea/main.cpp</text>
</a>
</g>
</g>
<!-- Node1&#45;&gt;Node12 -->
<g id="edge7" class="edge">
<title>Node1&#45;&gt;Node12</title>
<path fill="none" stroke="midnightblue" d="M317.03,-134.4C332.12,-123.49 352.92,-108.47 368.01,-97.58"/>
</g>
<!-- Node3&#45;&gt;Node2 -->
<g id="edge3" class="edge">
<title>Node3&#45;&gt;Node2</title>
<path fill="none" stroke="midnightblue" d="M161.1,-67.4C145.34,-56.49 123.61,-41.47 107.86,-30.58"/>
</g>
<!-- Node3&#45;&gt;Node115 -->
<g id="edge4" class="edge">
<title>Node3&#45;&gt;Node115</title>
<path fill="none" stroke="midnightblue" d="M202.76,-67.4C219.2,-56.49 241.85,-41.47 258.28,-30.58"/>
</g>
<!-- Node3&#45;&gt;Node13 -->
<g id="edge5" class="edge">
<title>Node3&#45;&gt;Node13</title>
<path fill="none" stroke="midnightblue" d="M244.07,-67.48C292.69,-56.58 359.83,-41.53 408.54,-30.61"/>
</g>
</g>
</svg>
