<?xml version="1.0" encoding="UTF-8" standalone="no"?>
<!DOCTYPE svg PUBLIC "-//W3C//DTD SVG 1.1//EN"
 "http://www.w3.org/Graphics/SVG/1.1/DTD/svg11.dtd">
<!-- Generated by graphviz version 2.43.0 (0)
 -->
<!-- Title: /data/acs/ginan/src/cpp/common/orbits.hpp Pages: 1 -->
<svg width="3730pt" height="385pt"
 viewBox="0.00 0.00 3729.75 385.00" xmlns="http://www.w3.org/2000/svg" xmlns:xlink="http://www.w3.org/1999/xlink">
<g id="graph0" class="graph" transform="scale(1 1) rotate(0) translate(4 381)">
<title>/data/acs/ginan/src/cpp/common/orbits.hpp</title>
<polygon fill="white" stroke="transparent" points="-4,4 -4,-381 3725.75,-381 3725.75,4 -4,4"/>
<!-- Node1 -->
<g id="node1" class="node">
<title>Node1</title>
<g id="a_node1"><a xlink:title=" ">
<polygon fill="#bfbfbf" stroke="black" points="3264.5,-346.5 3264.5,-376.5 3398.5,-376.5 3398.5,-346.5 3264.5,-346.5"/>
<text text-anchor="start" x="3272.5" y="-364.5" font-family="Helvetica,sans-Serif" font-size="10.00">/data/acs/ginan/src</text>
<text text-anchor="middle" x="3331.5" y="-353.5" font-family="Helvetica,sans-Serif" font-size="10.00">/cpp/common/orbits.hpp</text>
</a>
</g>
</g>
<!-- Node2 -->
<g id="node2" class="node">
<title>Node2</title>
<g id="a_node2"><a xlink:href="navigation_8hpp.html" target="_top" xlink:title=" ">
<polygon fill="white" stroke="black" points="1979.5,-279.5 1979.5,-309.5 2137.5,-309.5 2137.5,-279.5 1979.5,-279.5"/>
<text text-anchor="start" x="1987.5" y="-297.5" font-family="Helvetica,sans-Serif" font-size="10.00">/data/acs/ginan/src</text>
<text text-anchor="middle" x="2058.5" y="-286.5" font-family="Helvetica,sans-Serif" font-size="10.00">/cpp/common/navigation.hpp</text>
</a>
</g>
</g>
<!-- Node1&#45;&gt;Node2 -->
<g id="edge1" class="edge">
<title>Node1&#45;&gt;Node2</title>
<path fill="none" stroke="midnightblue" d="M3264.4,-357.07C3048.13,-346.03 2369.91,-311.4 2137.54,-299.54"/>
</g>
<!-- Node22 -->
<g id="node9" class="node">
<title>Node22</title>
<g id="a_node9"><a xlink:href="main_8cpp.html" target="_top" xlink:title=" ">
<polygon fill="white" stroke="black" points="1380.5,-0.5 1380.5,-30.5 1488.5,-30.5 1488.5,-0.5 1380.5,-0.5"/>
<text text-anchor="start" x="1388.5" y="-18.5" font-family="Helvetica,sans-Serif" font-size="10.00">/data/acs/ginan/src</text>
<text text-anchor="middle" x="1434.5" y="-7.5" font-family="Helvetica,sans-Serif" font-size="10.00">/cpp/pea/main.cpp</text>
</a>
</g>
</g>
<!-- Node1&#45;&gt;Node22 -->
<g id="edge53" class="edge">
<title>Node1&#45;&gt;Node22</title>
<path fill="none" stroke="midnightblue" d="M3398.81,-350.87C3510.15,-333.04 3720.5,-290.42 3720.5,-223 3720.5,-223 3720.5,-223 3720.5,-148.5 3720.5,-32.97 1834.93,-18.41 1488.75,-16.71"/>
</g>
<!-- Node49 -->
<g id="node10" class="node">
<title>Node49</title>
<g id="a_node10"><a xlink:href="networkEstimator_8cpp.html" target="_top" xlink:title=" ">
<polygon fill="white" stroke="black" points="2543.5,-134.5 2543.5,-164.5 2711.5,-164.5 2711.5,-134.5 2543.5,-134.5"/>
<text text-anchor="start" x="2551.5" y="-152.5" font-family="Helvetica,sans-Serif" font-size="10.00">/data/acs/ginan/src</text>
<text text-anchor="middle" x="2627.5" y="-141.5" font-family="Helvetica,sans-Serif" font-size="10.00">/cpp/pea/networkEstimator.cpp</text>
</a>
</g>
</g>
<!-- Node1&#45;&gt;Node49 -->
<g id="edge54" class="edge">
<title>Node1&#45;&gt;Node49</title>
<path fill="none" stroke="midnightblue" d="M3398.54,-354.67C3528.98,-340.99 3796.14,-300.2 3701.5,-201 3667.49,-165.36 2959.11,-154.16 2711.8,-151.33"/>
</g>
<!-- Node14 -->
<g id="node24" class="node">
<title>Node14</title>
<g id="a_node24"><a xlink:href="common_2orbits_8cpp.html" target="_top" xlink:title=" ">
<polygon fill="white" stroke="black" points="1472.5,-207 1472.5,-237 1606.5,-237 1606.5,-207 1472.5,-207"/>
<text text-anchor="start" x="1480.5" y="-225" font-family="Helvetica,sans-Serif" font-size="10.00">/data/acs/ginan/src</text>
<text text-anchor="middle" x="1539.5" y="-214" font-family="Helvetica,sans-Serif" font-size="10.00">/cpp/common/orbits.cpp</text>
</a>
</g>
</g>
<!-- Node1&#45;&gt;Node14 -->
<g id="edge52" class="edge">
<title>Node1&#45;&gt;Node14</title>
<path fill="none" stroke="midnightblue" d="M3264.41,-355.9C2956.78,-334.78 1694.22,-247.98 1653.5,-243 1638.24,-241.13 1621.92,-238.6 1606.54,-235.96"/>
</g>
<!-- Node3 -->
<g id="node3" class="node">
<title>Node3</title>
<g id="a_node3"><a xlink:href="brdc2sp3__main_8cpp.html" target="_top" xlink:title=" ">
<polygon fill="white" stroke="black" points="0,-201.5 0,-242.5 131,-242.5 131,-201.5 0,-201.5"/>
<text text-anchor="start" x="8" y="-230.5" font-family="Helvetica,sans-Serif" font-size="10.00">/data/acs/ginan/src</text>
<text text-anchor="start" x="8" y="-219.5" font-family="Helvetica,sans-Serif" font-size="10.00">/cpp/brdc2sp3/brdc2sp3</text>
<text text-anchor="middle" x="65.5" y="-208.5" font-family="Helvetica,sans-Serif" font-size="10.00">_main.cpp</text>
</a>
</g>
</g>
<!-- Node2&#45;&gt;Node3 -->
<g id="edge2" class="edge">
<title>Node2&#45;&gt;Node3</title>
<path fill="none" stroke="midnightblue" d="M1979.27,-293.92C1664.67,-295.2 503.18,-296.16 139.5,-243 136.73,-242.6 133.93,-242.12 131.1,-241.6"/>
</g>
<!-- Node4 -->
<g id="node4" class="node">
<title>Node4</title>
<g id="a_node4"><a xlink:href="acsQC_8hpp.html" target="_top" xlink:title=" ">
<polygon fill="white" stroke="red" points="149,-207 149,-237 286,-237 286,-207 149,-207"/>
<text text-anchor="start" x="157" y="-225" font-family="Helvetica,sans-Serif" font-size="10.00">/data/acs/ginan/src</text>
<text text-anchor="middle" x="217.5" y="-214" font-family="Helvetica,sans-Serif" font-size="10.00">/cpp/common/acsQC.hpp</text>
</a>
</g>
</g>
<!-- Node2&#45;&gt;Node4 -->
<g id="edge3" class="edge">
<title>Node2&#45;&gt;Node4</title>
<path fill="none" stroke="midnightblue" d="M1979.46,-293.41C1682.25,-292.73 631.81,-287.19 300.5,-243 290.07,-241.61 279.04,-239.45 268.55,-237.06"/>
</g>
<!-- Node12 -->
<g id="node5" class="node">
<title>Node12</title>
<g id="a_node5"><a xlink:href="acsStream_8cpp.html" target="_top" xlink:title=" ">
<polygon fill="white" stroke="black" points="1297.5,-67.5 1297.5,-97.5 1455.5,-97.5 1455.5,-67.5 1297.5,-67.5"/>
<text text-anchor="start" x="1305.5" y="-85.5" font-family="Helvetica,sans-Serif" font-size="10.00">/data/acs/ginan/src</text>
<text text-anchor="middle" x="1376.5" y="-74.5" font-family="Helvetica,sans-Serif" font-size="10.00">/cpp/common/acsStream.cpp</text>
</a>
</g>
</g>
<!-- Node2&#45;&gt;Node12 -->
<g id="edge4" class="edge">
<title>Node2&#45;&gt;Node12</title>
<path fill="none" stroke="midnightblue" d="M1979.25,-292.56C1647.92,-288.47 389.34,-271.11 359.5,-243 324.16,-209.72 319.03,-169.16 352.5,-134 384.94,-99.92 1062.72,-87.68 1297.37,-84.46"/>
</g>
<!-- Node44 -->
<g id="node6" class="node">
<title>Node44</title>
<g id="a_node6"><a xlink:href="algebraTrace_8cpp.html" target="_top" xlink:title=" ">
<polygon fill="white" stroke="black" points="362,-134.5 362,-164.5 531,-164.5 531,-134.5 362,-134.5"/>
<text text-anchor="start" x="370" y="-152.5" font-family="Helvetica,sans-Serif" font-size="10.00">/data/acs/ginan/src</text>
<text text-anchor="middle" x="446.5" y="-141.5" font-family="Helvetica,sans-Serif" font-size="10.00">/cpp/common/algebraTrace.cpp</text>
</a>
</g>
</g>
<!-- Node2&#45;&gt;Node44 -->
<g id="edge5" class="edge">
<title>Node2&#45;&gt;Node44</title>
<path fill="none" stroke="midnightblue" d="M1979.47,-292.62C1649.78,-288.75 399.84,-272.2 371.5,-243 358.5,-229.6 362.73,-217.48 371.5,-201 380.13,-184.79 396.54,-172.85 411.81,-164.66"/>
</g>
<!-- Node45 -->
<g id="node7" class="node">
<title>Node45</title>
<g id="a_node7"><a xlink:href="algebraTrace_8hpp.html" target="_top" xlink:title=" ">
<polygon fill="white" stroke="red" points="380.5,-207 380.5,-237 550.5,-237 550.5,-207 380.5,-207"/>
<text text-anchor="start" x="388.5" y="-225" font-family="Helvetica,sans-Serif" font-size="10.00">/data/acs/ginan/src</text>
<text text-anchor="middle" x="465.5" y="-214" font-family="Helvetica,sans-Serif" font-size="10.00">/cpp/common/algebraTrace.hpp</text>
</a>
</g>
</g>
<!-- Node2&#45;&gt;Node45 -->
<g id="edge6" class="edge">
<title>Node2&#45;&gt;Node45</title>
<path fill="none" stroke="midnightblue" d="M1979.2,-292.67C1710.85,-289.57 838.16,-277.07 559.5,-243 547.82,-241.57 535.45,-239.41 523.65,-237.04"/>
</g>
<!-- Node47 -->
<g id="node8" class="node">
<title>Node47</title>
<g id="a_node8"><a xlink:href="debug_8cpp.html" target="_top" xlink:title=" ">
<polygon fill="white" stroke="black" points="586.5,-134.5 586.5,-164.5 722.5,-164.5 722.5,-134.5 586.5,-134.5"/>
<text text-anchor="start" x="594.5" y="-152.5" font-family="Helvetica,sans-Serif" font-size="10.00">/data/acs/ginan/src</text>
<text text-anchor="middle" x="654.5" y="-141.5" font-family="Helvetica,sans-Serif" font-size="10.00">/cpp/common/debug.cpp</text>
</a>
</g>
</g>
<!-- Node2&#45;&gt;Node47 -->
<g id="edge21" class="edge">
<title>Node2&#45;&gt;Node47</title>
<path fill="none" stroke="midnightblue" d="M1979.1,-293.44C1738.65,-292.79 1029.13,-287.1 935.5,-243 912.73,-232.27 919.34,-213.51 897.5,-201 843.75,-170.22 773.74,-158.08 722.69,-153.36"/>
</g>
<!-- Node2&#45;&gt;Node49 -->
<g id="edge41" class="edge">
<title>Node2&#45;&gt;Node49</title>
<path fill="none" stroke="midnightblue" d="M2137.7,-291.13C2280.32,-286.14 2568.8,-272.51 2603.5,-243 2626.38,-223.55 2628.9,-185.36 2628.42,-164.66"/>
</g>
<!-- Node10 -->
<g id="node11" class="node">
<title>Node10</title>
<g id="a_node11"><a xlink:href="antenna_8cpp.html" target="_top" xlink:title=" ">
<polygon fill="white" stroke="black" points="568.5,-207 568.5,-237 714.5,-237 714.5,-207 568.5,-207"/>
<text text-anchor="start" x="576.5" y="-225" font-family="Helvetica,sans-Serif" font-size="10.00">/data/acs/ginan/src</text>
<text text-anchor="middle" x="641.5" y="-214" font-family="Helvetica,sans-Serif" font-size="10.00">/cpp/common/antenna.cpp</text>
</a>
</g>
</g>
<!-- Node2&#45;&gt;Node10 -->
<g id="edge11" class="edge">
<title>Node2&#45;&gt;Node10</title>
<path fill="none" stroke="midnightblue" d="M1979.3,-292.6C1730.77,-289.43 968.29,-277.13 723.5,-243 713.34,-241.58 702.61,-239.45 692.37,-237.09"/>
</g>
<!-- Node78 -->
<g id="node12" class="node">
<title>Node78</title>
<g id="a_node12"><a xlink:href="biasSINEX_8hpp.html" target="_top" xlink:title=" ">
<polygon fill="white" stroke="red" points="732.5,-207 732.5,-237 888.5,-237 888.5,-207 732.5,-207"/>
<text text-anchor="start" x="740.5" y="-225" font-family="Helvetica,sans-Serif" font-size="10.00">/data/acs/ginan/src</text>
<text text-anchor="middle" x="810.5" y="-214" font-family="Helvetica,sans-Serif" font-size="10.00">/cpp/common/biasSINEX.hpp</text>
</a>
</g>
</g>
<!-- Node2&#45;&gt;Node78 -->
<g id="edge12" class="edge">
<title>Node2&#45;&gt;Node78</title>
<path fill="none" stroke="midnightblue" d="M1979.4,-291.8C1754.03,-286.68 1111.43,-270.07 902.5,-243 891.15,-241.53 879.13,-239.37 867.66,-237"/>
</g>
<!-- Node15 -->
<g id="node13" class="node">
<title>Node15</title>
<g id="a_node13"><a xlink:href="preceph_8cpp.html" target="_top" xlink:title=" ">
<polygon fill="white" stroke="black" points="887,-134.5 887,-164.5 1032,-164.5 1032,-134.5 887,-134.5"/>
<text text-anchor="start" x="895" y="-152.5" font-family="Helvetica,sans-Serif" font-size="10.00">/data/acs/ginan/src</text>
<text text-anchor="middle" x="959.5" y="-141.5" font-family="Helvetica,sans-Serif" font-size="10.00">/cpp/common/preceph.cpp</text>
</a>
</g>
</g>
<!-- Node2&#45;&gt;Node15 -->
<g id="edge33" class="edge">
<title>Node2&#45;&gt;Node15</title>
<path fill="none" stroke="midnightblue" d="M1979.47,-290.15C1878.05,-284.74 1708.58,-271.65 1653.5,-243 1631.17,-231.38 1638.17,-211.95 1615.5,-201 1504.01,-147.14 1182.64,-177.89 1059.5,-165 1050.6,-164.07 1041.28,-162.93 1032.06,-161.71"/>
</g>
<!-- Node67 -->
<g id="node14" class="node">
<title>Node67</title>
<g id="a_node14"><a xlink:href="ionoModel_8hpp.html" target="_top" xlink:title=" ">
<polygon fill="white" stroke="red" points="1068.5,-134.5 1068.5,-164.5 1204.5,-164.5 1204.5,-134.5 1068.5,-134.5"/>
<text text-anchor="start" x="1076.5" y="-152.5" font-family="Helvetica,sans-Serif" font-size="10.00">/data/acs/ginan/src</text>
<text text-anchor="middle" x="1136.5" y="-141.5" font-family="Helvetica,sans-Serif" font-size="10.00">/cpp/iono/ionoModel.hpp</text>
</a>
</g>
</g>
<!-- Node2&#45;&gt;Node67 -->
<g id="edge40" class="edge">
<title>Node2&#45;&gt;Node67</title>
<path fill="none" stroke="midnightblue" d="M2137.63,-291.42C2274.13,-287.01 2542.03,-274.42 2570.5,-243 2583.03,-229.17 2583.51,-214.38 2570.5,-201 2545.68,-175.48 1325.03,-167.18 1289.5,-165 1261.67,-163.29 1231.07,-160.56 1204.59,-157.93"/>
</g>
<!-- Node23 -->
<g id="node15" class="node">
<title>Node23</title>
<g id="a_node15"><a xlink:href="ppp_8cpp.html" target="_top" xlink:title="Precise point positioning.">
<polygon fill="white" stroke="black" points="1298.5,-134.5 1298.5,-164.5 1406.5,-164.5 1406.5,-134.5 1298.5,-134.5"/>
<text text-anchor="start" x="1306.5" y="-152.5" font-family="Helvetica,sans-Serif" font-size="10.00">/data/acs/ginan/src</text>
<text text-anchor="middle" x="1352.5" y="-141.5" font-family="Helvetica,sans-Serif" font-size="10.00">/cpp/pea/ppp.cpp</text>
</a>
</g>
</g>
<!-- Node2&#45;&gt;Node23 -->
<g id="edge43" class="edge">
<title>Node2&#45;&gt;Node23</title>
<path fill="none" stroke="midnightblue" d="M2137.52,-293.95C2316.94,-294.16 2742.96,-289.66 2786.5,-243 2799.23,-229.35 2799.52,-214.37 2786.5,-201 2733.34,-146.42 1491.09,-174.59 1415.5,-165 1412.61,-164.63 1409.65,-164.19 1406.67,-163.69"/>
</g>
<!-- Node76 -->
<g id="node16" class="node">
<title>Node76</title>
<g id="a_node16"><a xlink:href="spp_8cpp.html" target="_top" xlink:title=" ">
<polygon fill="white" stroke="black" points="1424.5,-134.5 1424.5,-164.5 1532.5,-164.5 1532.5,-134.5 1424.5,-134.5"/>
<text text-anchor="start" x="1432.5" y="-152.5" font-family="Helvetica,sans-Serif" font-size="10.00">/data/acs/ginan/src</text>
<text text-anchor="middle" x="1478.5" y="-141.5" font-family="Helvetica,sans-Serif" font-size="10.00">/cpp/pea/spp.cpp</text>
</a>
</g>
</g>
<!-- Node2&#45;&gt;Node76 -->
<g id="edge48" class="edge">
<title>Node2&#45;&gt;Node76</title>
<path fill="none" stroke="midnightblue" d="M2137.66,-293.62C2425.32,-293.67 3400.86,-290.33 3446.5,-243 3459.46,-229.56 3459.57,-214.32 3446.5,-201 3409.43,-163.22 1594.03,-171.47 1541.5,-165 1538.6,-164.64 1535.65,-164.21 1532.67,-163.72"/>
</g>
<!-- Node81 -->
<g id="node17" class="node">
<title>Node81</title>
<g id="a_node17"><a xlink:href="ionex_8cpp.html" target="_top" xlink:title=" ">
<polygon fill="white" stroke="black" points="1550.5,-134.5 1550.5,-164.5 1666.5,-164.5 1666.5,-134.5 1550.5,-134.5"/>
<text text-anchor="start" x="1558.5" y="-152.5" font-family="Helvetica,sans-Serif" font-size="10.00">/data/acs/ginan/src</text>
<text text-anchor="middle" x="1608.5" y="-141.5" font-family="Helvetica,sans-Serif" font-size="10.00">/cpp/rtklib/ionex.cpp</text>
</a>
</g>
</g>
<!-- Node2&#45;&gt;Node81 -->
<g id="edge49" class="edge">
<title>Node2&#45;&gt;Node81</title>
<path fill="none" stroke="midnightblue" d="M2137.97,-293.69C2430.34,-293.99 3431.71,-291.48 3478.5,-243 3491.46,-229.57 3491.57,-214.33 3478.5,-201 3443.43,-165.23 1725.25,-170.83 1675.5,-165 1672.66,-164.67 1669.77,-164.27 1666.85,-163.82"/>
</g>
<!-- Node75 -->
<g id="node18" class="node">
<title>Node75</title>
<g id="a_node18"><a xlink:href="rinex_8cpp.html" target="_top" xlink:title=" ">
<polygon fill="white" stroke="black" points="1685,-134.5 1685,-164.5 1798,-164.5 1798,-134.5 1685,-134.5"/>
<text text-anchor="start" x="1693" y="-152.5" font-family="Helvetica,sans-Serif" font-size="10.00">/data/acs/ginan/src</text>
<text text-anchor="middle" x="1741.5" y="-141.5" font-family="Helvetica,sans-Serif" font-size="10.00">/cpp/rtklib/rinex.cpp</text>
</a>
</g>
</g>
<!-- Node2&#45;&gt;Node75 -->
<g id="edge50" class="edge">
<title>Node2&#45;&gt;Node75</title>
<path fill="none" stroke="midnightblue" d="M2137.54,-293.76C2434.39,-294.37 3468.3,-292.9 3516.5,-243 3529.47,-229.57 3529.56,-214.34 3516.5,-201 3484.03,-167.82 1891.78,-168.71 1845.5,-165 1830.05,-163.76 1813.4,-161.75 1798.04,-159.61"/>
</g>
<!-- Node13 -->
<g id="node19" class="node">
<title>Node13</title>
<g id="a_node19"><a xlink:href="ephemeris_8cpp.html" target="_top" xlink:title=" ">
<polygon fill="white" stroke="black" points="944.5,-207 944.5,-237 1102.5,-237 1102.5,-207 944.5,-207"/>
<text text-anchor="start" x="952.5" y="-225" font-family="Helvetica,sans-Serif" font-size="10.00">/data/acs/ginan/src</text>
<text text-anchor="middle" x="1023.5" y="-214" font-family="Helvetica,sans-Serif" font-size="10.00">/cpp/common/ephemeris.cpp</text>
</a>
</g>
</g>
<!-- Node2&#45;&gt;Node13 -->
<g id="edge22" class="edge">
<title>Node2&#45;&gt;Node13</title>
<path fill="none" stroke="midnightblue" d="M1979.49,-293.81C1816.43,-293.47 1431.12,-287.51 1111.5,-243 1100.79,-241.51 1089.46,-239.37 1078.63,-237.04"/>
</g>
<!-- Node82 -->
<g id="node20" class="node">
<title>Node82</title>
<g id="a_node20"><a xlink:href="erp_8cpp.html" target="_top" xlink:title=" ">
<polygon fill="white" stroke="black" points="1120.5,-207 1120.5,-237 1242.5,-237 1242.5,-207 1120.5,-207"/>
<text text-anchor="start" x="1128.5" y="-225" font-family="Helvetica,sans-Serif" font-size="10.00">/data/acs/ginan/src</text>
<text text-anchor="middle" x="1181.5" y="-214" font-family="Helvetica,sans-Serif" font-size="10.00">/cpp/common/erp.cpp</text>
</a>
</g>
</g>
<!-- Node2&#45;&gt;Node82 -->
<g id="edge23" class="edge">
<title>Node2&#45;&gt;Node82</title>
<path fill="none" stroke="midnightblue" d="M1979.37,-293.68C1834.83,-292.87 1518.8,-285.8 1256.5,-243 1247.32,-241.5 1237.64,-239.36 1228.4,-237.03"/>
</g>
<!-- Node83 -->
<g id="node21" class="node">
<title>Node83</title>
<g id="a_node21"><a xlink:href="ntripBroadcast_8hpp.html" target="_top" xlink:title=" ">
<polygon fill="white" stroke="red" points="1547.5,-67.5 1547.5,-97.5 1725.5,-97.5 1725.5,-67.5 1547.5,-67.5"/>
<text text-anchor="start" x="1555.5" y="-85.5" font-family="Helvetica,sans-Serif" font-size="10.00">/data/acs/ginan/src</text>
<text text-anchor="middle" x="1636.5" y="-74.5" font-family="Helvetica,sans-Serif" font-size="10.00">/cpp/common/ntripBroadcast.hpp</text>
</a>
</g>
</g>
<!-- Node2&#45;&gt;Node83 -->
<g id="edge24" class="edge">
<title>Node2&#45;&gt;Node83</title>
<path fill="none" stroke="midnightblue" d="M1979.23,-294.28C1792.26,-295.28 1335.91,-292.56 1289.5,-243 1256.39,-207.64 1257.81,-170.64 1289.5,-134 1306.2,-114.69 1450.01,-99 1547.18,-90.48"/>
</g>
<!-- Node84 -->
<g id="node22" class="node">
<title>Node84</title>
<g id="a_node22"><a xlink:href="ntripTrace_8hpp.html" target="_top" xlink:title=" ">
<polygon fill="white" stroke="red" points="1299,-207 1299,-237 1454,-237 1454,-207 1299,-207"/>
<text text-anchor="start" x="1307" y="-225" font-family="Helvetica,sans-Serif" font-size="10.00">/data/acs/ginan/src</text>
<text text-anchor="middle" x="1376.5" y="-214" font-family="Helvetica,sans-Serif" font-size="10.00">/cpp/common/ntripTrace.hpp</text>
</a>
</g>
</g>
<!-- Node2&#45;&gt;Node84 -->
<g id="edge26" class="edge">
<title>Node2&#45;&gt;Node84</title>
<path fill="none" stroke="midnightblue" d="M1979.15,-290.33C1864.69,-284.96 1646.84,-271.71 1463.5,-243 1453.39,-241.42 1442.72,-239.32 1432.43,-237.08"/>
</g>
<!-- Node92 -->
<g id="node23" class="node">
<title>Node92</title>
<g id="a_node23"><a xlink:href="rtcmEncoder_8hpp.html" target="_top" xlink:title=" ">
<polygon fill="white" stroke="red" points="1854.5,-134.5 1854.5,-164.5 2022.5,-164.5 2022.5,-134.5 1854.5,-134.5"/>
<text text-anchor="start" x="1862.5" y="-152.5" font-family="Helvetica,sans-Serif" font-size="10.00">/data/acs/ginan/src</text>
<text text-anchor="middle" x="1938.5" y="-141.5" font-family="Helvetica,sans-Serif" font-size="10.00">/cpp/common/rtcmEncoder.hpp</text>
</a>
</g>
</g>
<!-- Node2&#45;&gt;Node92 -->
<g id="edge36" class="edge">
<title>Node2&#45;&gt;Node92</title>
<path fill="none" stroke="midnightblue" d="M2059.23,-279.42C2059.52,-259.82 2057.27,-224.14 2039.5,-201 2026.49,-184.05 2006.24,-172.38 1987.29,-164.57"/>
</g>
<!-- Node2&#45;&gt;Node14 -->
<g id="edge32" class="edge">
<title>Node2&#45;&gt;Node14</title>
<path fill="none" stroke="midnightblue" d="M1979.33,-287.42C1891.26,-279.96 1744.98,-265.45 1620.5,-243 1611.38,-241.35 1601.75,-239.28 1592.45,-237.1"/>
</g>
<!-- Node16 -->
<g id="node25" class="node">
<title>Node16</title>
<g id="a_node25"><a xlink:href="rinexClkWrite_8cpp.html" target="_top" xlink:title=" ">
<polygon fill="white" stroke="black" points="1663,-207 1663,-237 1836,-237 1836,-207 1663,-207"/>
<text text-anchor="start" x="1671" y="-225" font-family="Helvetica,sans-Serif" font-size="10.00">/data/acs/ginan/src</text>
<text text-anchor="middle" x="1749.5" y="-214" font-family="Helvetica,sans-Serif" font-size="10.00">/cpp/common/rinexClkWrite.cpp</text>
</a>
</g>
</g>
<!-- Node2&#45;&gt;Node16 -->
<g id="edge34" class="edge">
<title>Node2&#45;&gt;Node16</title>
<path fill="none" stroke="midnightblue" d="M1997.08,-279.49C1943.14,-267.18 1865.05,-249.36 1811.07,-237.05"/>
</g>
<!-- Node56 -->
<g id="node26" class="node">
<title>Node56</title>
<g id="a_node26"><a xlink:href="rinexNavWrite_8cpp.html" target="_top" xlink:title=" ">
<polygon fill="white" stroke="black" points="1854.5,-207 1854.5,-237 2030.5,-237 2030.5,-207 1854.5,-207"/>
<text text-anchor="start" x="1862.5" y="-225" font-family="Helvetica,sans-Serif" font-size="10.00">/data/acs/ginan/src</text>
<text text-anchor="middle" x="1942.5" y="-214" font-family="Helvetica,sans-Serif" font-size="10.00">/cpp/common/rinexNavWrite.cpp</text>
</a>
</g>
</g>
<!-- Node2&#45;&gt;Node56 -->
<g id="edge35" class="edge">
<title>Node2&#45;&gt;Node56</title>
<path fill="none" stroke="midnightblue" d="M2035.3,-279.4C2015.07,-267.11 1985.88,-249.36 1965.66,-237.07"/>
</g>
<!-- Node94 -->
<g id="node27" class="node">
<title>Node94</title>
<g id="a_node27"><a xlink:href="sp3_8cpp.html" target="_top" xlink:title=" ">
<polygon fill="white" stroke="black" points="2087,-207 2087,-237 2210,-237 2210,-207 2087,-207"/>
<text text-anchor="start" x="2095" y="-225" font-family="Helvetica,sans-Serif" font-size="10.00">/data/acs/ginan/src</text>
<text text-anchor="middle" x="2148.5" y="-214" font-family="Helvetica,sans-Serif" font-size="10.00">/cpp/common/sp3.cpp</text>
</a>
</g>
</g>
<!-- Node2&#45;&gt;Node94 -->
<g id="edge37" class="edge">
<title>Node2&#45;&gt;Node94</title>
<path fill="none" stroke="midnightblue" d="M2076.71,-279.23C2092.43,-266.92 2115,-249.24 2130.62,-237"/>
</g>
<!-- Node17 -->
<g id="node28" class="node">
<title>Node17</title>
<g id="a_node28"><a xlink:href="sp3Write_8cpp.html" target="_top" xlink:title=" ">
<polygon fill="white" stroke="black" points="2228,-207 2228,-237 2377,-237 2377,-207 2228,-207"/>
<text text-anchor="start" x="2236" y="-225" font-family="Helvetica,sans-Serif" font-size="10.00">/data/acs/ginan/src</text>
<text text-anchor="middle" x="2302.5" y="-214" font-family="Helvetica,sans-Serif" font-size="10.00">/cpp/common/sp3Write.cpp</text>
</a>
</g>
</g>
<!-- Node2&#45;&gt;Node17 -->
<g id="edge38" class="edge">
<title>Node2&#45;&gt;Node17</title>
<path fill="none" stroke="midnightblue" d="M2107,-279.49C2149.53,-267.2 2211.05,-249.42 2253.68,-237.11"/>
</g>
<!-- Node95 -->
<g id="node29" class="node">
<title>Node95</title>
<g id="a_node29"><a xlink:href="streamTrace_8cpp.html" target="_top" xlink:title=" ">
<polygon fill="white" stroke="black" points="2395,-207 2395,-237 2562,-237 2562,-207 2395,-207"/>
<text text-anchor="start" x="2403" y="-225" font-family="Helvetica,sans-Serif" font-size="10.00">/data/acs/ginan/src</text>
<text text-anchor="middle" x="2478.5" y="-214" font-family="Helvetica,sans-Serif" font-size="10.00">/cpp/common/streamTrace.cpp</text>
</a>
</g>
</g>
<!-- Node2&#45;&gt;Node95 -->
<g id="edge39" class="edge">
<title>Node2&#45;&gt;Node95</title>
<path fill="none" stroke="midnightblue" d="M2137.68,-282.6C2204.04,-273.14 2301.19,-258.56 2385.5,-243 2395.33,-241.19 2405.7,-239.11 2415.82,-237"/>
</g>
<!-- Node73 -->
<g id="node30" class="node">
<title>Node73</title>
<g id="a_node30"><a xlink:href="pea__snx_8cpp.html" target="_top" xlink:title=" ">
<polygon fill="white" stroke="black" points="2655.5,-207 2655.5,-237 2777.5,-237 2777.5,-207 2655.5,-207"/>
<text text-anchor="start" x="2663.5" y="-225" font-family="Helvetica,sans-Serif" font-size="10.00">/data/acs/ginan/src</text>
<text text-anchor="middle" x="2716.5" y="-214" font-family="Helvetica,sans-Serif" font-size="10.00">/cpp/pea/pea_snx.cpp</text>
</a>
</g>
</g>
<!-- Node2&#45;&gt;Node73 -->
<g id="edge42" class="edge">
<title>Node2&#45;&gt;Node73</title>
<path fill="none" stroke="midnightblue" d="M2137.8,-291.01C2250.5,-286.47 2463.13,-274.26 2641.5,-243 2650.39,-241.44 2659.77,-239.33 2668.76,-237.06"/>
</g>
<!-- Node24 -->
<g id="node31" class="node">
<title>Node24</title>
<g id="a_node31"><a xlink:href="ppp__network_8cpp.html" target="_top" xlink:title=" ">
<polygon fill="white" stroke="black" points="2833.5,-207 2833.5,-237 2977.5,-237 2977.5,-207 2833.5,-207"/>
<text text-anchor="start" x="2841.5" y="-225" font-family="Helvetica,sans-Serif" font-size="10.00">/data/acs/ginan/src</text>
<text text-anchor="middle" x="2905.5" y="-214" font-family="Helvetica,sans-Serif" font-size="10.00">/cpp/pea/ppp_network.cpp</text>
</a>
</g>
</g>
<!-- Node2&#45;&gt;Node24 -->
<g id="edge44" class="edge">
<title>Node2&#45;&gt;Node24</title>
<path fill="none" stroke="midnightblue" d="M2137.55,-292.47C2276.32,-289.72 2572.45,-279.68 2819.5,-243 2829.81,-241.47 2840.71,-239.34 2851.16,-237.04"/>
</g>
<!-- Node25 -->
<g id="node32" class="node">
<title>Node25</title>
<g id="a_node32"><a xlink:href="ppp__user_8cpp.html" target="_top" xlink:title=" ">
<polygon fill="white" stroke="black" points="2996,-207 2996,-237 3121,-237 3121,-207 2996,-207"/>
<text text-anchor="start" x="3004" y="-225" font-family="Helvetica,sans-Serif" font-size="10.00">/data/acs/ginan/src</text>
<text text-anchor="middle" x="3058.5" y="-214" font-family="Helvetica,sans-Serif" font-size="10.00">/cpp/pea/ppp_user.cpp</text>
</a>
</g>
</g>
<!-- Node2&#45;&gt;Node25 -->
<g id="edge45" class="edge">
<title>Node2&#45;&gt;Node25</title>
<path fill="none" stroke="midnightblue" d="M2137.71,-291.39C2331.23,-285.9 2824.1,-269.65 2986.5,-243 2995.46,-241.53 3004.91,-239.37 3013.9,-237"/>
</g>
<!-- Node54 -->
<g id="node33" class="node">
<title>Node54</title>
<g id="a_node33"><a xlink:href="ppppp_8cpp.html" target="_top" xlink:title=" ">
<polygon fill="white" stroke="black" points="3139,-207 3139,-237 3250,-237 3250,-207 3139,-207"/>
<text text-anchor="start" x="3147" y="-225" font-family="Helvetica,sans-Serif" font-size="10.00">/data/acs/ginan/src</text>
<text text-anchor="middle" x="3194.5" y="-214" font-family="Helvetica,sans-Serif" font-size="10.00">/cpp/pea/ppppp.cpp</text>
</a>
</g>
</g>
<!-- Node2&#45;&gt;Node54 -->
<g id="edge46" class="edge">
<title>Node2&#45;&gt;Node54</title>
<path fill="none" stroke="midnightblue" d="M2137.61,-292.34C2351.66,-288.81 2938.91,-276.27 3129.5,-243 3137.64,-241.58 3146.19,-239.44 3154.32,-237.08"/>
</g>
<!-- Node74 -->
<g id="node34" class="node">
<title>Node74</title>
<g id="a_node34"><a xlink:href="ppppp__pseudoobs_8cpp.html" target="_top" xlink:title=" ">
<polygon fill="white" stroke="black" points="3268,-207 3268,-237 3437,-237 3437,-207 3268,-207"/>
<text text-anchor="start" x="3276" y="-225" font-family="Helvetica,sans-Serif" font-size="10.00">/data/acs/ginan/src</text>
<text text-anchor="middle" x="3352.5" y="-214" font-family="Helvetica,sans-Serif" font-size="10.00">/cpp/pea/ppppp_pseudoobs.cpp</text>
</a>
</g>
</g>
<!-- Node2&#45;&gt;Node74 -->
<g id="edge47" class="edge">
<title>Node2&#45;&gt;Node74</title>
<path fill="none" stroke="midnightblue" d="M2137.77,-291.92C2369.23,-287.05 3041.49,-270.82 3259.5,-243 3270.97,-241.54 3283.12,-239.38 3294.72,-237.01"/>
</g>
<!-- Node96 -->
<g id="node35" class="node">
<title>Node96</title>
<g id="a_node35"><a xlink:href="rtkcmn_8cpp.html" target="_top" xlink:title=" ">
<polygon fill="white" stroke="black" points="3569,-207 3569,-237 3692,-237 3692,-207 3569,-207"/>
<text text-anchor="start" x="3577" y="-225" font-family="Helvetica,sans-Serif" font-size="10.00">/data/acs/ginan/src</text>
<text text-anchor="middle" x="3630.5" y="-214" font-family="Helvetica,sans-Serif" font-size="10.00">/cpp/rtklib/rtkcmn.cpp</text>
</a>
</g>
</g>
<!-- Node2&#45;&gt;Node96 -->
<g id="edge51" class="edge">
<title>Node2&#45;&gt;Node96</title>
<path fill="none" stroke="midnightblue" d="M2137.71,-293.16C2405.73,-291.64 3277.29,-283.63 3554.5,-243 3564.08,-241.6 3574.2,-239.43 3583.81,-237.04"/>
</g>
<!-- Node45&#45;&gt;Node44 -->
<g id="edge7" class="edge">
<title>Node45&#45;&gt;Node44</title>
<path fill="none" stroke="midnightblue" d="M461.66,-206.73C458.36,-194.5 453.63,-176.97 450.34,-164.75"/>
</g>
<!-- Node45&#45;&gt;Node47 -->
<g id="edge8" class="edge">
<title>Node45&#45;&gt;Node47</title>
<path fill="none" stroke="midnightblue" d="M503.29,-206.9C536.26,-194.61 583.83,-176.86 616.77,-164.57"/>
</g>
<!-- Node45&#45;&gt;Node22 -->
<g id="edge9" class="edge">
<title>Node45&#45;&gt;Node22</title>
<path fill="none" stroke="midnightblue" d="M531.23,-206.99C540.72,-204.97 550.36,-202.93 559.5,-201 635.92,-184.87 655.14,-181.42 731.5,-165 929.07,-122.52 977.64,-108.12 1175.5,-67 1246.14,-52.32 1327.9,-36.59 1380.35,-26.66"/>
</g>
<!-- Node45&#45;&gt;Node49 -->
<g id="edge10" class="edge">
<title>Node45&#45;&gt;Node49</title>
<path fill="none" stroke="midnightblue" d="M523.14,-206.98C535.09,-204.57 547.65,-202.39 559.5,-201 561.07,-200.82 2155.59,-161.99 2543.29,-152.55"/>
</g>
<!-- Node78&#45;&gt;Node22 -->
<g id="edge16" class="edge">
<title>Node78&#45;&gt;Node22</title>
<path fill="none" stroke="midnightblue" d="M888.79,-208.11C904.26,-205.66 920.38,-203.19 935.5,-201 1058.8,-183.16 1105.58,-227.25 1213.5,-165 1261.01,-137.6 1244.03,-99.1 1288.5,-67 1315.68,-47.38 1351.13,-34.88 1380.29,-27.22"/>
</g>
<!-- Node78&#45;&gt;Node15 -->
<g id="edge13" class="edge">
<title>Node78&#45;&gt;Node15</title>
<path fill="none" stroke="midnightblue" d="M840.29,-206.9C866.28,-194.61 903.79,-176.86 929.76,-164.57"/>
</g>
<!-- Node78&#45;&gt;Node67 -->
<g id="edge14" class="edge">
<title>Node78&#45;&gt;Node67</title>
<path fill="none" stroke="midnightblue" d="M875.3,-206.99C932.21,-194.68 1014.59,-176.86 1071.55,-164.55"/>
</g>
<!-- Node78&#45;&gt;Node23 -->
<g id="edge17" class="edge">
<title>Node78&#45;&gt;Node23</title>
<path fill="none" stroke="midnightblue" d="M888.77,-207.94C904.24,-205.51 920.37,-203.09 935.5,-201 1073.34,-182 1108.45,-182.43 1246.5,-165 1263.36,-162.87 1281.71,-160.41 1298.33,-158.13"/>
</g>
<!-- Node78&#45;&gt;Node76 -->
<g id="edge18" class="edge">
<title>Node78&#45;&gt;Node76</title>
<path fill="none" stroke="midnightblue" d="M888.71,-207.45C904.18,-205.07 920.33,-202.78 935.5,-201 1147.98,-176.08 1203.99,-197.08 1415.5,-165 1418.39,-164.56 1421.33,-164.06 1424.3,-163.52"/>
</g>
<!-- Node78&#45;&gt;Node81 -->
<g id="edge19" class="edge">
<title>Node78&#45;&gt;Node81</title>
<path fill="none" stroke="midnightblue" d="M888.69,-207.27C904.16,-204.89 920.32,-202.66 935.5,-201 1203.71,-171.65 1274.19,-201.64 1541.5,-165 1544.45,-164.6 1547.46,-164.13 1550.49,-163.63"/>
</g>
<!-- Node78&#45;&gt;Node75 -->
<g id="edge20" class="edge">
<title>Node78&#45;&gt;Node75</title>
<path fill="none" stroke="midnightblue" d="M888.67,-207.14C904.15,-204.78 920.31,-202.58 935.5,-201 1263.01,-166.94 1349.11,-208.48 1675.5,-165 1678.52,-164.6 1681.61,-164.13 1684.73,-163.61"/>
</g>
<!-- Node67&#45;&gt;Node22 -->
<g id="edge15" class="edge">
<title>Node67&#45;&gt;Node22</title>
<path fill="none" stroke="midnightblue" d="M1146.71,-134.3C1160.74,-115.86 1187.78,-84.02 1218.5,-67 1269.03,-39 1334.5,-26.48 1380.06,-20.9"/>
</g>
<!-- Node83&#45;&gt;Node22 -->
<g id="edge25" class="edge">
<title>Node83&#45;&gt;Node22</title>
<path fill="none" stroke="midnightblue" d="M1592.67,-67.4C1558.79,-56.49 1512.11,-41.47 1478.25,-30.58"/>
</g>
<!-- Node84&#45;&gt;Node83 -->
<g id="edge27" class="edge">
<title>Node84&#45;&gt;Node83</title>
<path fill="none" stroke="midnightblue" d="M1432.93,-206.98C1443.06,-204.76 1453.56,-202.66 1463.5,-201 1539.1,-188.39 1755.21,-221.95 1806.5,-165 1837.71,-130.34 1781.5,-109.01 1725.52,-96.92"/>
</g>
<!-- Node84&#45;&gt;Node92 -->
<g id="edge28" class="edge">
<title>Node84&#45;&gt;Node92</title>
<path fill="none" stroke="midnightblue" d="M1432.92,-206.9C1443.05,-204.69 1453.56,-202.61 1463.5,-201 1629.65,-174.09 1673.41,-185.32 1840.5,-165 1845.02,-164.45 1849.66,-163.86 1854.34,-163.24"/>
</g>
<!-- Node92&#45;&gt;Node12 -->
<g id="edge29" class="edge">
<title>Node92&#45;&gt;Node12</title>
<path fill="none" stroke="midnightblue" d="M1854.36,-138.77C1746.58,-126.3 1561.13,-104.85 1455.75,-92.67"/>
</g>
<!-- Node92&#45;&gt;Node22 -->
<g id="edge31" class="edge">
<title>Node92&#45;&gt;Node22</title>
<path fill="none" stroke="midnightblue" d="M1909.12,-134.44C1870.09,-116.31 1798.58,-84.97 1734.5,-67 1650.21,-43.36 1549.31,-29.16 1488.64,-22.09"/>
</g>
<!-- Node92&#45;&gt;Node83 -->
<g id="edge30" class="edge">
<title>Node92&#45;&gt;Node83</title>
<path fill="none" stroke="midnightblue" d="M1873.34,-134.48C1822.62,-123.56 1752.56,-108.48 1701.8,-97.55"/>
</g>
</g>
</svg>
