<?xml version="1.0" encoding="UTF-8" standalone="no"?>
<!DOCTYPE svg PUBLIC "-//W3C//DTD SVG 1.1//EN"
 "http://www.w3.org/Graphics/SVG/1.1/DTD/svg11.dtd">
<!-- Generated by graphviz version 2.43.0 (0)
 -->
<!-- Title: integrateOrbits Pages: 1 -->
<svg width="259pt" height="66pt"
 viewBox="0.00 0.00 259.00 66.00" xmlns="http://www.w3.org/2000/svg" xmlns:xlink="http://www.w3.org/1999/xlink">
<g id="graph0" class="graph" transform="scale(1 1) rotate(0) translate(4 62)">
<title>integrateOrbits</title>
<polygon fill="white" stroke="transparent" points="-4,4 -4,-62 255,-62 255,4 -4,4"/>
<!-- Node1 -->
<g id="node1" class="node">
<title>Node1</title>
<g id="a_node1"><a xlink:title=" ">
<polygon fill="#bfbfbf" stroke="black" points="161,-19.5 161,-38.5 251,-38.5 251,-19.5 161,-19.5"/>
<text text-anchor="middle" x="206" y="-26.5" font-family="Helvetica,sans-Serif" font-size="10.00">integrateOrbits</text>
</a>
</g>
</g>
<!-- Node2 -->
<g id="node2" class="node">
<title>Node2</title>
<g id="a_node2"><a xlink:href="orbitProp_8cpp.html#ac187c34f2edcea140a2372d5e60ee676" target="_top" xlink:title="Use models to predict orbital motion and prepare state transition equations to implement those predic...">
<polygon fill="white" stroke="red" points="22.5,-38.5 22.5,-57.5 102.5,-57.5 102.5,-38.5 22.5,-38.5"/>
<text text-anchor="middle" x="62.5" y="-45.5" font-family="Helvetica,sans-Serif" font-size="10.00">predictOrbits</text>
</a>
</g>
</g>
<!-- Node1&#45;&gt;Node2 -->
<g id="edge1" class="edge">
<title>Node1&#45;&gt;Node2</title>
<path fill="none" stroke="midnightblue" d="M150.42,-36.33C134.6,-38.45 117.64,-40.73 102.94,-42.7"/>
<polygon fill="midnightblue" stroke="midnightblue" points="151.17,-39.76 160.62,-34.96 150.24,-32.82 151.17,-39.76"/>
</g>
<!-- Node7 -->
<g id="node3" class="node">
<title>Node7</title>
<g id="a_node3"><a xlink:href="main_8cpp.html#a47923d108129a8e2dc5d741ac5202f3a" target="_top" xlink:title=" ">
<polygon fill="white" stroke="red" points="0,-0.5 0,-19.5 125,-19.5 125,-0.5 0,-0.5"/>
<text text-anchor="middle" x="62.5" y="-7.5" font-family="Helvetica,sans-Serif" font-size="10.00">outputPredictedStates</text>
</a>
</g>
</g>
<!-- Node1&#45;&gt;Node7 -->
<g id="edge2" class="edge">
<title>Node1&#45;&gt;Node7</title>
<path fill="none" stroke="midnightblue" d="M150.62,-21.7C142.27,-20.58 133.59,-19.41 125.09,-18.27"/>
<polygon fill="midnightblue" stroke="midnightblue" points="150.24,-25.18 160.62,-23.04 151.17,-18.24 150.24,-25.18"/>
</g>
</g>
</svg>
