<?xml version="1.0" encoding="UTF-8" standalone="no"?>
<!DOCTYPE svg PUBLIC "-//W3C//DTD SVG 1.1//EN"
 "http://www.w3.org/Graphics/SVG/1.1/DTD/svg11.dtd">
<!-- Generated by graphviz version 2.43.0 (0)
 -->
<!-- Title: propagateFull Pages: 1 -->
<svg width="217pt" height="64pt"
 viewBox="0.00 0.00 217.00 64.00" xmlns="http://www.w3.org/2000/svg" xmlns:xlink="http://www.w3.org/1999/xlink">
<g id="graph0" class="graph" transform="scale(1 1) rotate(0) translate(4 60)">
<title>propagateFull</title>
<!-- Node1 -->
<g id="Node000001" class="node">
<title>Node1</title>
<g id="a_Node000001"><a xlink:href="orbits_8cpp.html#ab65265e5f03f6db38c93debf3c916f84" target="_top" xlink:title=" ">
<path fill="#fff0f0" stroke="red" stroke-width="2" d="M76.67,-37C76.67,-37 6.33,-37 6.33,-37 3.17,-37 0,-33.83 0,-30.67 0,-30.67 0,-24.33 0,-24.33 0,-21.17 3.17,-18 6.33,-18 6.33,-18 76.67,-18 76.67,-18 79.83,-18 83,-21.17 83,-24.33 83,-24.33 83,-30.67 83,-30.67 83,-33.83 79.83,-37 76.67,-37"/>
<text text-anchor="middle" x="41.5" y="-25" font-family="Helvetica,sans-Serif" font-size="10.00">propagateFull</text>
</a>
</g>
</g>
<!-- Node2 -->
<g id="Node000002" class="node">
<title>Node2</title>
<g id="a_Node000002"><a xlink:href="erp_8cpp.html#afe3874cc58d609f4ccc2b03a5ef632b8" target="_top" xlink:title="Get earth rotation parameter values.">
<path fill="#fff0f0" stroke="red" d="M181.67,-56C181.67,-56 146.33,-56 146.33,-56 143.17,-56 140,-52.83 140,-49.67 140,-49.67 140,-43.33 140,-43.33 140,-40.17 143.17,-37 146.33,-37 146.33,-37 181.67,-37 181.67,-37 184.83,-37 188,-40.17 188,-43.33 188,-43.33 188,-49.67 188,-49.67 188,-52.83 184.83,-56 181.67,-56"/>
<text text-anchor="middle" x="164" y="-44" font-family="Helvetica,sans-Serif" font-size="10.00">getErp</text>
</a>
</g>
</g>
<!-- Node1&#45;&gt;Node2 -->
<g id="edge1_Node000001_Node000002" class="edge">
<title>Node1&#45;&gt;Node2</title>
<g id="a_edge1_Node000001_Node000002"><a xlink:title=" ">
<path fill="none" stroke="#63b8ff" d="M83.3,-33.93C98.46,-36.32 115.47,-39 129.86,-41.27"/>
<polygon fill="#63b8ff" stroke="#63b8ff" points="129.4,-44.74 139.82,-42.85 130.49,-37.83 129.4,-44.74"/>
</a>
</g>
</g>
<!-- Node26 -->
<g id="Node000026" class="node">
<title>Node26</title>
<g id="a_Node000026"><a xlink:href="orbitProp_8cpp.html#a1db465a9ca0f8b1b1cf7fe88975f6df8" target="_top" xlink:title=" ">
<path fill="#fff0f0" stroke="red" d="M202.67,-19C202.67,-19 125.33,-19 125.33,-19 122.17,-19 119,-15.83 119,-12.67 119,-12.67 119,-6.33 119,-6.33 119,-3.17 122.17,0 125.33,0 125.33,0 202.67,0 202.67,0 205.83,0 209,-3.17 209,-6.33 209,-6.33 209,-12.67 209,-12.67 209,-15.83 205.83,-19 202.67,-19"/>
<text text-anchor="middle" x="164" y="-7" font-family="Helvetica,sans-Serif" font-size="10.00">integrateOrbits</text>
</a>
</g>
</g>
<!-- Node1&#45;&gt;Node26 -->
<g id="edge2_Node000001_Node000026" class="edge">
<title>Node1&#45;&gt;Node26</title>
<g id="a_edge2_Node000001_Node000026"><a xlink:title=" ">
<path fill="none" stroke="#63b8ff" d="M83.3,-21.41C91.54,-20.17 100.33,-18.86 108.95,-17.57"/>
<polygon fill="#63b8ff" stroke="#63b8ff" points="109.57,-21.02 118.94,-16.08 108.54,-14.1 109.57,-21.02"/>
</a>
</g>
</g>
</g>
</svg>
