<?xml version="1.0" encoding="UTF-8" standalone="no"?>
<!DOCTYPE svg PUBLIC "-//W3C//DTD SVG 1.1//EN"
 "http://www.w3.org/Graphics/SVG/1.1/DTD/svg11.dtd">
<!-- Generated by graphviz version 2.43.0 (0)
 -->
<!-- Title: decodeigsSSR Pages: 1 -->
<svg width="247pt" height="370pt"
 viewBox="0.00 0.00 247.00 370.00" xmlns="http://www.w3.org/2000/svg" xmlns:xlink="http://www.w3.org/1999/xlink">
<g id="graph0" class="graph" transform="scale(1 1) rotate(0) translate(4 366)">
<title>decodeigsSSR</title>
<polygon fill="white" stroke="transparent" points="-4,4 -4,-366 243,-366 243,4 -4,4"/>
<!-- Node1 -->
<g id="node1" class="node">
<title>Node1</title>
<g id="a_node1"><a xlink:title=" ">
<polygon fill="#bfbfbf" stroke="black" points="0,-171.5 0,-190.5 85,-190.5 85,-171.5 0,-171.5"/>
<text text-anchor="middle" x="42.5" y="-178.5" font-family="Helvetica,sans-Serif" font-size="10.00">decodeigsSSR</text>
</a>
</g>
</g>
<!-- Node2 -->
<g id="node2" class="node">
<title>Node2</title>
<g id="a_node2"><a xlink:href="rtcmDecoder_8cpp.html#a85a03123ae20efc3b06434f616140943" target="_top" xlink:title="extract unsigned bits from byte data">
<polygon fill="white" stroke="black" points="154.5,-342.5 154.5,-361.5 205.5,-361.5 205.5,-342.5 154.5,-342.5"/>
<text text-anchor="middle" x="180" y="-349.5" font-family="Helvetica,sans-Serif" font-size="10.00">getbitu</text>
</a>
</g>
</g>
<!-- Node1&#45;&gt;Node2 -->
<g id="edge1" class="edge">
<title>Node1&#45;&gt;Node2</title>
<path fill="none" stroke="midnightblue" d="M45.72,-190.8C52.29,-217.63 74.19,-292.94 121,-333 127.71,-338.74 136.2,-342.76 144.6,-345.57"/>
<polygon fill="midnightblue" stroke="midnightblue" points="143.74,-348.96 154.31,-348.34 145.66,-342.23 143.74,-348.96"/>
</g>
<!-- Node3 -->
<g id="node3" class="node">
<title>Node3</title>
<g id="a_node3"><a xlink:href="prototypeIgsSSREncode_8cpp.html#a184a80ad4a12bcffae9429ecfc8fb64b" target="_top" xlink:title=" ">
<polygon fill="white" stroke="black" points="135,-304.5 135,-323.5 225,-323.5 225,-304.5 135,-304.5"/>
<text text-anchor="middle" x="180" y="-311.5" font-family="Helvetica,sans-Serif" font-size="10.00">IGS_SSR_group</text>
</a>
</g>
</g>
<!-- Node1&#45;&gt;Node3 -->
<g id="edge2" class="edge">
<title>Node1&#45;&gt;Node3</title>
<path fill="none" stroke="midnightblue" d="M47.37,-190.52C56.71,-212.29 82.57,-266.07 121,-295 123.5,-296.88 126.2,-298.58 129.01,-300.12"/>
<polygon fill="midnightblue" stroke="midnightblue" points="127.76,-303.4 138.3,-304.49 130.74,-297.06 127.76,-303.4"/>
</g>
<!-- Node4 -->
<g id="node4" class="node">
<title>Node4</title>
<g id="a_node4"><a xlink:href="prototypeIgsSSRDecode_8cpp.html#aceada2a0110bf7d459a3f1c94bffd19b" target="_top" xlink:title=" ">
<polygon fill="white" stroke="red" points="121,-266.5 121,-285.5 239,-285.5 239,-266.5 121,-266.5"/>
<text text-anchor="middle" x="180" y="-273.5" font-family="Helvetica,sans-Serif" font-size="10.00">decodeigsSSR_type1</text>
</a>
</g>
</g>
<!-- Node1&#45;&gt;Node4 -->
<g id="edge3" class="edge">
<title>Node1&#45;&gt;Node4</title>
<path fill="none" stroke="midnightblue" d="M50.79,-190.6C63.41,-206.58 90.89,-238.7 121,-257 124.42,-259.08 128.09,-260.95 131.86,-262.65"/>
<polygon fill="midnightblue" stroke="midnightblue" points="130.79,-265.99 141.37,-266.48 133.4,-259.49 130.79,-265.99"/>
</g>
<!-- Node13 -->
<g id="node5" class="node">
<title>Node13</title>
<g id="a_node5"><a xlink:href="prototypeIgsSSRDecode_8cpp.html#a91f3475d9c3dd88792324a011d597918" target="_top" xlink:title=" ">
<polygon fill="white" stroke="red" points="121,-228.5 121,-247.5 239,-247.5 239,-228.5 121,-228.5"/>
<text text-anchor="middle" x="180" y="-235.5" font-family="Helvetica,sans-Serif" font-size="10.00">decodeigsSSR_type2</text>
</a>
</g>
</g>
<!-- Node1&#45;&gt;Node13 -->
<g id="edge4" class="edge">
<title>Node1&#45;&gt;Node13</title>
<path fill="none" stroke="midnightblue" d="M61.34,-190.63C76.84,-198.79 100.04,-210.48 121,-219 126.21,-221.12 131.76,-223.18 137.28,-225.11"/>
<polygon fill="midnightblue" stroke="midnightblue" points="136.51,-228.54 147.1,-228.43 138.75,-221.91 136.51,-228.54"/>
</g>
<!-- Node14 -->
<g id="node6" class="node">
<title>Node14</title>
<g id="a_node6"><a xlink:href="prototypeIgsSSRDecode_8cpp.html#a763dadb437e94655b4c4ab05830c7efa" target="_top" xlink:title=" ">
<polygon fill="white" stroke="red" points="121,-190.5 121,-209.5 239,-209.5 239,-190.5 121,-190.5"/>
<text text-anchor="middle" x="180" y="-197.5" font-family="Helvetica,sans-Serif" font-size="10.00">decodeigsSSR_type3</text>
</a>
</g>
</g>
<!-- Node1&#45;&gt;Node14 -->
<g id="edge5" class="edge">
<title>Node1&#45;&gt;Node14</title>
<path fill="none" stroke="midnightblue" d="M85.26,-186.86C93.31,-187.98 101.93,-189.19 110.57,-190.41"/>
<polygon fill="midnightblue" stroke="midnightblue" points="110.3,-193.9 120.69,-191.82 111.27,-186.97 110.3,-193.9"/>
</g>
<!-- Node15 -->
<g id="node7" class="node">
<title>Node15</title>
<g id="a_node7"><a xlink:href="prototypeIgsSSRDecode_8cpp.html#ab6cefeb3a0e33cc2695ae53181b52644" target="_top" xlink:title=" ">
<polygon fill="white" stroke="red" points="121,-152.5 121,-171.5 239,-171.5 239,-152.5 121,-152.5"/>
<text text-anchor="middle" x="180" y="-159.5" font-family="Helvetica,sans-Serif" font-size="10.00">decodeigsSSR_type4</text>
</a>
</g>
</g>
<!-- Node1&#45;&gt;Node15 -->
<g id="edge6" class="edge">
<title>Node1&#45;&gt;Node15</title>
<path fill="none" stroke="midnightblue" d="M85.26,-175.14C93.31,-174.02 101.93,-172.81 110.57,-171.59"/>
<polygon fill="midnightblue" stroke="midnightblue" points="111.27,-175.03 120.69,-170.18 110.3,-168.1 111.27,-175.03"/>
</g>
<!-- Node16 -->
<g id="node8" class="node">
<title>Node16</title>
<g id="a_node8"><a xlink:href="prototypeIgsSSRDecode_8cpp.html#a5620a5359184703cf42d5a08c894b2e5" target="_top" xlink:title=" ">
<polygon fill="white" stroke="red" points="121,-114.5 121,-133.5 239,-133.5 239,-114.5 121,-114.5"/>
<text text-anchor="middle" x="180" y="-121.5" font-family="Helvetica,sans-Serif" font-size="10.00">decodeigsSSR_type5</text>
</a>
</g>
</g>
<!-- Node1&#45;&gt;Node16 -->
<g id="edge7" class="edge">
<title>Node1&#45;&gt;Node16</title>
<path fill="none" stroke="midnightblue" d="M61.34,-171.37C76.84,-163.21 100.04,-151.52 121,-143 126.21,-140.88 131.76,-138.82 137.28,-136.89"/>
<polygon fill="midnightblue" stroke="midnightblue" points="138.75,-140.09 147.1,-133.57 136.51,-133.46 138.75,-140.09"/>
</g>
<!-- Node17 -->
<g id="node9" class="node">
<title>Node17</title>
<g id="a_node9"><a xlink:href="prototypeIgsSSRDecode_8cpp.html#a3e3cd021dda475685751a829bc5d7283" target="_top" xlink:title=" ">
<polygon fill="white" stroke="red" points="121,-76.5 121,-95.5 239,-95.5 239,-76.5 121,-76.5"/>
<text text-anchor="middle" x="180" y="-83.5" font-family="Helvetica,sans-Serif" font-size="10.00">decodeigsSSR_type6</text>
</a>
</g>
</g>
<!-- Node1&#45;&gt;Node17 -->
<g id="edge8" class="edge">
<title>Node1&#45;&gt;Node17</title>
<path fill="none" stroke="midnightblue" d="M50.79,-171.4C63.41,-155.42 90.89,-123.3 121,-105 124.42,-102.92 128.09,-101.05 131.86,-99.35"/>
<polygon fill="midnightblue" stroke="midnightblue" points="133.4,-102.51 141.37,-95.52 130.79,-96.01 133.4,-102.51"/>
</g>
<!-- Node18 -->
<g id="node10" class="node">
<title>Node18</title>
<g id="a_node10"><a xlink:href="prototypeIgsSSRDecode_8cpp.html#a52483b82b940e41a9ecf30d3f7ac5609" target="_top" xlink:title=" ">
<polygon fill="white" stroke="red" points="121,-38.5 121,-57.5 239,-57.5 239,-38.5 121,-38.5"/>
<text text-anchor="middle" x="180" y="-45.5" font-family="Helvetica,sans-Serif" font-size="10.00">decodeigsSSR_type7</text>
</a>
</g>
</g>
<!-- Node1&#45;&gt;Node18 -->
<g id="edge9" class="edge">
<title>Node1&#45;&gt;Node18</title>
<path fill="none" stroke="midnightblue" d="M47.37,-171.48C56.71,-149.71 82.57,-95.93 121,-67 123.5,-65.12 126.2,-63.42 129.01,-61.88"/>
<polygon fill="midnightblue" stroke="midnightblue" points="130.74,-64.94 138.3,-57.51 127.76,-58.6 130.74,-64.94"/>
</g>
<!-- Node19 -->
<g id="node11" class="node">
<title>Node19</title>
<g id="a_node11"><a xlink:href="prototypeIgsSSRDecode_8cpp.html#abb805948265150eec95f44b3f7d6ad35" target="_top" xlink:title=" ">
<polygon fill="white" stroke="red" points="121,-0.5 121,-19.5 239,-19.5 239,-0.5 121,-0.5"/>
<text text-anchor="middle" x="180" y="-7.5" font-family="Helvetica,sans-Serif" font-size="10.00">decodeigsSSR_type8</text>
</a>
</g>
</g>
<!-- Node1&#45;&gt;Node19 -->
<g id="edge10" class="edge">
<title>Node1&#45;&gt;Node19</title>
<path fill="none" stroke="midnightblue" d="M45.72,-171.2C52.29,-144.37 74.19,-69.06 121,-29 122.97,-27.31 125.1,-25.77 127.33,-24.37"/>
<polygon fill="midnightblue" stroke="midnightblue" points="129.15,-27.37 136.37,-19.61 125.89,-21.17 129.15,-27.37"/>
</g>
</g>
</svg>
