<?xml version="1.0" encoding="UTF-8" standalone="no"?>
<!DOCTYPE svg PUBLIC "-//W3C//DTD SVG 1.1//EN"
 "http://www.w3.org/Graphics/SVG/1.1/DTD/svg11.dtd">
<!-- Generated by graphviz version 2.43.0 (0)
 -->
<!-- Title: encodeIGS_ATM Pages: 1 -->
<svg width="210pt" height="104pt"
 viewBox="0.00 0.00 210.00 104.00" xmlns="http://www.w3.org/2000/svg" xmlns:xlink="http://www.w3.org/1999/xlink">
<g id="graph0" class="graph" transform="scale(1 1) rotate(0) translate(4 100)">
<title>encodeIGS_ATM</title>
<polygon fill="white" stroke="transparent" points="-4,4 -4,-100 206,-100 206,4 -4,4"/>
<!-- Node1 -->
<g id="node1" class="node">
<title>Node1</title>
<g id="a_node1"><a xlink:title=" ">
<polygon fill="#bfbfbf" stroke="black" points="0,-38.5 0,-57.5 95,-57.5 95,-38.5 0,-38.5"/>
<text text-anchor="middle" x="47.5" y="-45.5" font-family="Helvetica,sans-Serif" font-size="10.00">encodeIGS_ATM</text>
</a>
</g>
</g>
<!-- Node2 -->
<g id="node2" class="node">
<title>Node2</title>
<g id="a_node2"><a xlink:href="trace_8hpp.html#a984a9b0c40d65d46f2c73a021a7b7de3" target="_top" xlink:title=" ">
<polygon fill="white" stroke="black" points="131,-76.5 131,-95.5 202,-95.5 202,-76.5 131,-76.5"/>
<text text-anchor="middle" x="166.5" y="-83.5" font-family="Helvetica,sans-Serif" font-size="10.00">tracepdeex</text>
</a>
</g>
</g>
<!-- Node1&#45;&gt;Node2 -->
<g id="edge1" class="edge">
<title>Node1&#45;&gt;Node2</title>
<path fill="none" stroke="midnightblue" d="M78.02,-57.59C92.71,-62.36 110.66,-68.19 126.47,-73.32"/>
<polygon fill="midnightblue" stroke="midnightblue" points="125.39,-76.65 135.99,-76.41 127.56,-70 125.39,-76.65"/>
</g>
<!-- Node3 -->
<g id="node3" class="node">
<title>Node3</title>
<g id="a_node3"><a xlink:href="rtcmEncoder_8cpp.html#af0d5eab5e18729b5d6b67194e94979a0" target="_top" xlink:title="increasingly set unsigned bits to byte data">
<polygon fill="white" stroke="red" points="134,-38.5 134,-57.5 199,-57.5 199,-38.5 134,-38.5"/>
<text text-anchor="middle" x="166.5" y="-45.5" font-family="Helvetica,sans-Serif" font-size="10.00">setbituInc</text>
</a>
</g>
</g>
<!-- Node1&#45;&gt;Node3 -->
<g id="edge2" class="edge">
<title>Node1&#45;&gt;Node3</title>
<path fill="none" stroke="midnightblue" d="M95.08,-48C104.52,-48 114.4,-48 123.67,-48"/>
<polygon fill="midnightblue" stroke="midnightblue" points="123.82,-51.5 133.82,-48 123.82,-44.5 123.82,-51.5"/>
</g>
<!-- Node5 -->
<g id="node4" class="node">
<title>Node5</title>
<g id="a_node4"><a xlink:href="rtcmEncoder_8cpp.html#a831abe42902c0ceadba66974c93a637b" target="_top" xlink:title="increasingly set signed bits to byte data">
<polygon fill="white" stroke="red" points="134.5,-0.5 134.5,-19.5 198.5,-19.5 198.5,-0.5 134.5,-0.5"/>
<text text-anchor="middle" x="166.5" y="-7.5" font-family="Helvetica,sans-Serif" font-size="10.00">setbitsInc</text>
</a>
</g>
</g>
<!-- Node1&#45;&gt;Node5 -->
<g id="edge3" class="edge">
<title>Node1&#45;&gt;Node5</title>
<path fill="none" stroke="midnightblue" d="M78.02,-38.41C92.71,-33.64 110.66,-27.81 126.47,-22.68"/>
<polygon fill="midnightblue" stroke="midnightblue" points="127.56,-26 135.99,-19.59 125.39,-19.35 127.56,-26"/>
</g>
</g>
</svg>
