<?xml version="1.0" encoding="UTF-8" standalone="no"?>
<!DOCTYPE svg PUBLIC "-//W3C//DTD SVG 1.1//EN"
 "http://www.w3.org/Graphics/SVG/1.1/DTD/svg11.dtd">
<!-- Generated by graphviz version 2.43.0 (0)
 -->
<!-- Title: decodeigsSSR Pages: 1 -->
<svg width="247pt" height="332pt"
 viewBox="0.00 0.00 247.00 332.00" xmlns="http://www.w3.org/2000/svg" xmlns:xlink="http://www.w3.org/1999/xlink">
<g id="graph0" class="graph" transform="scale(1 1) rotate(0) translate(4 328)">
<title>decodeigsSSR</title>
<polygon fill="white" stroke="transparent" points="-4,4 -4,-328 243,-328 243,4 -4,4"/>
<!-- Node1 -->
<g id="node1" class="node">
<title>Node1</title>
<g id="a_node1"><a xlink:title=" ">
<polygon fill="#bfbfbf" stroke="black" points="0,-152.5 0,-171.5 85,-171.5 85,-152.5 0,-152.5"/>
<text text-anchor="middle" x="42.5" y="-159.5" font-family="Helvetica,sans-Serif" font-size="10.00">decodeigsSSR</text>
</a>
</g>
</g>
<!-- Node2 -->
<g id="node2" class="node">
<title>Node2</title>
<g id="a_node2"><a xlink:href="rtcmDecoder_8cpp.html#a85a03123ae20efc3b06434f616140943" target="_top" xlink:title="extract unsigned bits from byte data">
<polygon fill="white" stroke="black" points="154.5,-304.5 154.5,-323.5 205.5,-323.5 205.5,-304.5 154.5,-304.5"/>
<text text-anchor="middle" x="180" y="-311.5" font-family="Helvetica,sans-Serif" font-size="10.00">getbitu</text>
</a>
</g>
</g>
<!-- Node1&#45;&gt;Node2 -->
<g id="edge1" class="edge">
<title>Node1&#45;&gt;Node2</title>
<path fill="none" stroke="midnightblue" d="M46.43,-171.63C54.33,-195.99 78.4,-260.56 121,-295 130.48,-302.66 143.14,-307.27 154.22,-310.03"/>
</g>
<!-- Node3 -->
<g id="node3" class="node">
<title>Node3</title>
<g id="a_node3"><a xlink:href="prototypeIgsSSRDecode_8cpp.html#aceada2a0110bf7d459a3f1c94bffd19b" target="_top" xlink:title=" ">
<polygon fill="white" stroke="red" points="121,-266.5 121,-285.5 239,-285.5 239,-266.5 121,-266.5"/>
<text text-anchor="middle" x="180" y="-273.5" font-family="Helvetica,sans-Serif" font-size="10.00">decodeigsSSR_type1</text>
</a>
</g>
</g>
<!-- Node1&#45;&gt;Node3 -->
<g id="edge2" class="edge">
<title>Node1&#45;&gt;Node3</title>
<path fill="none" stroke="midnightblue" d="M48.77,-171.61C59.73,-190.69 86.78,-233.51 121,-257 126.59,-260.84 133.01,-263.94 139.5,-266.44"/>
</g>
<!-- Node12 -->
<g id="node4" class="node">
<title>Node12</title>
<g id="a_node4"><a xlink:href="prototypeIgsSSRDecode_8cpp.html#a91f3475d9c3dd88792324a011d597918" target="_top" xlink:title=" ">
<polygon fill="white" stroke="red" points="121,-228.5 121,-247.5 239,-247.5 239,-228.5 121,-228.5"/>
<text text-anchor="middle" x="180" y="-235.5" font-family="Helvetica,sans-Serif" font-size="10.00">decodeigsSSR_type2</text>
</a>
</g>
</g>
<!-- Node1&#45;&gt;Node12 -->
<g id="edge3" class="edge">
<title>Node1&#45;&gt;Node12</title>
<path fill="none" stroke="midnightblue" d="M54.31,-171.7C68.64,-184.15 95.16,-205.7 121,-219 128.16,-222.69 136.18,-225.86 143.92,-228.5"/>
</g>
<!-- Node13 -->
<g id="node5" class="node">
<title>Node13</title>
<g id="a_node5"><a xlink:href="prototypeIgsSSRDecode_8cpp.html#a763dadb437e94655b4c4ab05830c7efa" target="_top" xlink:title=" ">
<polygon fill="white" stroke="red" points="121,-190.5 121,-209.5 239,-209.5 239,-190.5 121,-190.5"/>
<text text-anchor="middle" x="180" y="-197.5" font-family="Helvetica,sans-Serif" font-size="10.00">decodeigsSSR_type3</text>
</a>
</g>
</g>
<!-- Node1&#45;&gt;Node13 -->
<g id="edge4" class="edge">
<title>Node1&#45;&gt;Node13</title>
<path fill="none" stroke="midnightblue" d="M77.69,-171.59C98.23,-177.35 124.28,-184.65 144.82,-190.41"/>
</g>
<!-- Node14 -->
<g id="node6" class="node">
<title>Node14</title>
<g id="a_node6"><a xlink:href="prototypeIgsSSRDecode_8cpp.html#ab6cefeb3a0e33cc2695ae53181b52644" target="_top" xlink:title=" ">
<polygon fill="white" stroke="red" points="121,-152.5 121,-171.5 239,-171.5 239,-152.5 121,-152.5"/>
<text text-anchor="middle" x="180" y="-159.5" font-family="Helvetica,sans-Serif" font-size="10.00">decodeigsSSR_type4</text>
</a>
</g>
</g>
<!-- Node1&#45;&gt;Node14 -->
<g id="edge5" class="edge">
<title>Node1&#45;&gt;Node14</title>
<path fill="none" stroke="midnightblue" d="M85.26,-162C96.46,-162 108.77,-162 120.69,-162"/>
</g>
<!-- Node15 -->
<g id="node7" class="node">
<title>Node15</title>
<g id="a_node7"><a xlink:href="prototypeIgsSSRDecode_8cpp.html#a5620a5359184703cf42d5a08c894b2e5" target="_top" xlink:title=" ">
<polygon fill="white" stroke="red" points="121,-114.5 121,-133.5 239,-133.5 239,-114.5 121,-114.5"/>
<text text-anchor="middle" x="180" y="-121.5" font-family="Helvetica,sans-Serif" font-size="10.00">decodeigsSSR_type5</text>
</a>
</g>
</g>
<!-- Node1&#45;&gt;Node15 -->
<g id="edge6" class="edge">
<title>Node1&#45;&gt;Node15</title>
<path fill="none" stroke="midnightblue" d="M77.69,-152.41C98.23,-146.65 124.28,-139.35 144.82,-133.59"/>
</g>
<!-- Node16 -->
<g id="node8" class="node">
<title>Node16</title>
<g id="a_node8"><a xlink:href="prototypeIgsSSRDecode_8cpp.html#a3e3cd021dda475685751a829bc5d7283" target="_top" xlink:title=" ">
<polygon fill="white" stroke="red" points="121,-76.5 121,-95.5 239,-95.5 239,-76.5 121,-76.5"/>
<text text-anchor="middle" x="180" y="-83.5" font-family="Helvetica,sans-Serif" font-size="10.00">decodeigsSSR_type6</text>
</a>
</g>
</g>
<!-- Node1&#45;&gt;Node16 -->
<g id="edge7" class="edge">
<title>Node1&#45;&gt;Node16</title>
<path fill="none" stroke="midnightblue" d="M54.31,-152.3C68.64,-139.85 95.16,-118.3 121,-105 128.16,-101.31 136.18,-98.14 143.92,-95.5"/>
</g>
<!-- Node17 -->
<g id="node9" class="node">
<title>Node17</title>
<g id="a_node9"><a xlink:href="prototypeIgsSSRDecode_8cpp.html#a52483b82b940e41a9ecf30d3f7ac5609" target="_top" xlink:title=" ">
<polygon fill="white" stroke="red" points="121,-38.5 121,-57.5 239,-57.5 239,-38.5 121,-38.5"/>
<text text-anchor="middle" x="180" y="-45.5" font-family="Helvetica,sans-Serif" font-size="10.00">decodeigsSSR_type7</text>
</a>
</g>
</g>
<!-- Node1&#45;&gt;Node17 -->
<g id="edge8" class="edge">
<title>Node1&#45;&gt;Node17</title>
<path fill="none" stroke="midnightblue" d="M48.77,-152.39C59.73,-133.31 86.78,-90.49 121,-67 126.59,-63.16 133.01,-60.06 139.5,-57.56"/>
</g>
<!-- Node18 -->
<g id="node10" class="node">
<title>Node18</title>
<g id="a_node10"><a xlink:href="prototypeIgsSSRDecode_8cpp.html#abb805948265150eec95f44b3f7d6ad35" target="_top" xlink:title=" ">
<polygon fill="white" stroke="red" points="121,-0.5 121,-19.5 239,-19.5 239,-0.5 121,-0.5"/>
<text text-anchor="middle" x="180" y="-7.5" font-family="Helvetica,sans-Serif" font-size="10.00">decodeigsSSR_type8</text>
</a>
</g>
</g>
<!-- Node1&#45;&gt;Node18 -->
<g id="edge9" class="edge">
<title>Node1&#45;&gt;Node18</title>
<path fill="none" stroke="midnightblue" d="M46.43,-152.37C54.33,-128.01 78.4,-63.44 121,-29 125.78,-25.14 131.37,-22.05 137.16,-19.58"/>
</g>
</g>
</svg>
