<?xml version="1.0" encoding="UTF-8" standalone="no"?>
<!DOCTYPE svg PUBLIC "-//W3C//DTD SVG 1.1//EN"
 "http://www.w3.org/Graphics/SVG/1.1/DTD/svg11.dtd">
<!-- Generated by graphviz version 2.43.0 (0)
 -->
<!-- Title: IGS_SSR_subtype Pages: 1 -->
<svg width="241pt" height="256pt"
 viewBox="0.00 0.00 241.00 256.00" xmlns="http://www.w3.org/2000/svg" xmlns:xlink="http://www.w3.org/1999/xlink">
<g id="graph0" class="graph" transform="scale(1 1) rotate(0) translate(4 252)">
<title>IGS_SSR_subtype</title>
<polygon fill="white" stroke="transparent" points="-4,4 -4,-252 237,-252 237,4 -4,4"/>
<!-- Node1 -->
<g id="node1" class="node">
<title>Node1</title>
<g id="a_node1"><a xlink:title=" ">
<polygon fill="#bfbfbf" stroke="black" points="132,-114.5 132,-133.5 233,-133.5 233,-114.5 132,-114.5"/>
<text text-anchor="middle" x="182.5" y="-121.5" font-family="Helvetica,sans-Serif" font-size="10.00">IGS_SSR_subtype</text>
</a>
</g>
</g>
<!-- Node2 -->
<g id="node2" class="node">
<title>Node2</title>
<g id="a_node2"><a xlink:href="prototypeIgsSSREncode_8cpp.html#a5860e21c82b09ac4b4f9051c19ad626d" target="_top" xlink:title=" ">
<polygon fill="white" stroke="red" points="0.5,-228.5 0.5,-247.5 95.5,-247.5 95.5,-228.5 0.5,-228.5"/>
<text text-anchor="middle" x="48" y="-235.5" font-family="Helvetica,sans-Serif" font-size="10.00">encodeIGS_ORB</text>
</a>
</g>
</g>
<!-- Node1&#45;&gt;Node2 -->
<g id="edge1" class="edge">
<title>Node1&#45;&gt;Node2</title>
<path fill="none" stroke="midnightblue" d="M175.09,-133.67C162.18,-152.48 131.26,-194.3 96,-219 90.81,-222.64 84.82,-225.73 78.89,-228.3"/>
</g>
<!-- Node6 -->
<g id="node3" class="node">
<title>Node6</title>
<g id="a_node3"><a xlink:href="prototypeIgsSSREncode_8cpp.html#abe906d6281cf96f532c4c915582eed18" target="_top" xlink:title=" ">
<polygon fill="white" stroke="red" points="0.5,-190.5 0.5,-209.5 95.5,-209.5 95.5,-190.5 0.5,-190.5"/>
<text text-anchor="middle" x="48" y="-197.5" font-family="Helvetica,sans-Serif" font-size="10.00">encodeIGS_URA</text>
</a>
</g>
</g>
<!-- Node1&#45;&gt;Node6 -->
<g id="edge2" class="edge">
<title>Node1&#45;&gt;Node6</title>
<path fill="none" stroke="midnightblue" d="M168.97,-133.54C152.74,-145.62 123.29,-166.58 96,-181 89.46,-184.45 82.16,-187.69 75.29,-190.47"/>
</g>
<!-- Node7 -->
<g id="node4" class="node">
<title>Node7</title>
<g id="a_node4"><a xlink:href="prototypeIgsSSREncode_8cpp.html#aed2001951dab0df50a3e8890f6303240" target="_top" xlink:title=" ">
<polygon fill="white" stroke="red" points="2,-152.5 2,-171.5 94,-171.5 94,-152.5 2,-152.5"/>
<text text-anchor="middle" x="48" y="-159.5" font-family="Helvetica,sans-Serif" font-size="10.00">encodeIGS_CLK</text>
</a>
</g>
</g>
<!-- Node1&#45;&gt;Node7 -->
<g id="edge3" class="edge">
<title>Node1&#45;&gt;Node7</title>
<path fill="none" stroke="midnightblue" d="M148.06,-133.59C127.98,-139.35 102.51,-146.65 82.42,-152.41"/>
</g>
<!-- Node8 -->
<g id="node5" class="node">
<title>Node8</title>
<g id="a_node5"><a xlink:href="prototypeIgsSSREncode_8cpp.html#a0b52ed993dfc6fdce07c1047d9f7d228" target="_top" xlink:title=" ">
<polygon fill="white" stroke="red" points="0,-114.5 0,-133.5 96,-133.5 96,-114.5 0,-114.5"/>
<text text-anchor="middle" x="48" y="-121.5" font-family="Helvetica,sans-Serif" font-size="10.00">encodeIGS_CMB</text>
</a>
</g>
</g>
<!-- Node1&#45;&gt;Node8 -->
<g id="edge4" class="edge">
<title>Node1&#45;&gt;Node8</title>
<path fill="none" stroke="midnightblue" d="M131.78,-124C120.18,-124 107.86,-124 96.36,-124"/>
</g>
<!-- Node9 -->
<g id="node6" class="node">
<title>Node9</title>
<g id="a_node6"><a xlink:href="prototypeIgsSSREncode_8cpp.html#a72d4233d3708a4ab1551b1139e6afb27" target="_top" xlink:title=" ">
<polygon fill="white" stroke="red" points="0.5,-76.5 0.5,-95.5 95.5,-95.5 95.5,-76.5 0.5,-76.5"/>
<text text-anchor="middle" x="48" y="-83.5" font-family="Helvetica,sans-Serif" font-size="10.00">encodeIGS_HRC</text>
</a>
</g>
</g>
<!-- Node1&#45;&gt;Node9 -->
<g id="edge5" class="edge">
<title>Node1&#45;&gt;Node9</title>
<path fill="none" stroke="midnightblue" d="M148.06,-114.41C127.98,-108.65 102.51,-101.35 82.42,-95.59"/>
</g>
<!-- Node10 -->
<g id="node7" class="node">
<title>Node10</title>
<g id="a_node7"><a xlink:href="prototypeIgsSSREncode_8cpp.html#af3fc3638b16db1676d10fa1a4179860a" target="_top" xlink:title=" ">
<polygon fill="white" stroke="red" points="0.5,-38.5 0.5,-57.5 95.5,-57.5 95.5,-38.5 0.5,-38.5"/>
<text text-anchor="middle" x="48" y="-45.5" font-family="Helvetica,sans-Serif" font-size="10.00">encodeIGS_COD</text>
</a>
</g>
</g>
<!-- Node1&#45;&gt;Node10 -->
<g id="edge6" class="edge">
<title>Node1&#45;&gt;Node10</title>
<path fill="none" stroke="midnightblue" d="M168.97,-114.46C152.74,-102.38 123.29,-81.42 96,-67 89.46,-63.55 82.16,-60.31 75.29,-57.53"/>
</g>
<!-- Node11 -->
<g id="node8" class="node">
<title>Node11</title>
<g id="a_node8"><a xlink:href="prototypeIgsSSREncode_8cpp.html#a41fe2e1f1e8daaa5fb8158f1b7196681" target="_top" xlink:title=" ">
<polygon fill="white" stroke="red" points="1.5,-0.5 1.5,-19.5 94.5,-19.5 94.5,-0.5 1.5,-0.5"/>
<text text-anchor="middle" x="48" y="-7.5" font-family="Helvetica,sans-Serif" font-size="10.00">encodeIGS_PHS</text>
</a>
</g>
</g>
<!-- Node1&#45;&gt;Node11 -->
<g id="edge7" class="edge">
<title>Node1&#45;&gt;Node11</title>
<path fill="none" stroke="midnightblue" d="M175.09,-114.33C162.18,-95.52 131.26,-53.7 96,-29 90.81,-25.36 84.82,-22.27 78.89,-19.7"/>
</g>
</g>
</svg>
