<?xml version="1.0" encoding="UTF-8" standalone="no"?>
<!DOCTYPE svg PUBLIC "-//W3C//DTD SVG 1.1//EN"
 "http://www.w3.org/Graphics/SVG/1.1/DTD/svg11.dtd">
<!-- Generated by graphviz version 2.43.0 (0)
 -->
<!-- Title: sinexPerEpochPerStation Pages: 1 -->
<svg width="343pt" height="66pt"
 viewBox="0.00 0.00 343.00 66.00" xmlns="http://www.w3.org/2000/svg" xmlns:xlink="http://www.w3.org/1999/xlink">
<g id="graph0" class="graph" transform="scale(1 1) rotate(0) translate(4 62)">
<title>sinexPerEpochPerStation</title>
<polygon fill="white" stroke="transparent" points="-4,4 -4,-62 339,-62 339,4 -4,4"/>
<!-- Node1 -->
<g id="node1" class="node">
<title>Node1</title>
<g id="a_node1"><a xlink:title=" ">
<polygon fill="#bfbfbf" stroke="black" points="197,-19.5 197,-38.5 335,-38.5 335,-19.5 197,-19.5"/>
<text text-anchor="middle" x="266" y="-26.5" font-family="Helvetica,sans-Serif" font-size="10.00">sinexPerEpochPerStation</text>
</a>
</g>
</g>
<!-- Node2 -->
<g id="node2" class="node">
<title>Node2</title>
<g id="a_node2"><a xlink:href="main_8cpp.html#ab77d7fcf500a5bd2bd66022986edada0" target="_top" xlink:title="Perform operations for each station This function occurs in parallel with other stations &#45; ensure tha...">
<polygon fill="white" stroke="red" points="0,-38.5 0,-57.5 161,-57.5 161,-38.5 0,-38.5"/>
<text text-anchor="middle" x="80.5" y="-45.5" font-family="Helvetica,sans-Serif" font-size="10.00">mainOncePerEpochPerStation</text>
</a>
</g>
</g>
<!-- Node1&#45;&gt;Node2 -->
<g id="edge1" class="edge">
<title>Node1&#45;&gt;Node2</title>
<path fill="none" stroke="midnightblue" d="M196.93,-36.05C185.3,-37.25 173.13,-38.51 161.23,-39.74"/>
</g>
<!-- Node6 -->
<g id="node3" class="node">
<title>Node6</title>
<g id="a_node3"><a xlink:href="minimumConstraints_8cpp.html#a91e7c5f0512892cbb8ff736bb4fc35d7" target="_top" xlink:title=" ">
<polygon fill="white" stroke="red" points="43,-0.5 43,-19.5 118,-19.5 118,-0.5 43,-0.5"/>
<text text-anchor="middle" x="80.5" y="-7.5" font-family="Helvetica,sans-Serif" font-size="10.00">minconOnly</text>
</a>
</g>
</g>
<!-- Node1&#45;&gt;Node6 -->
<g id="edge2" class="edge">
<title>Node1&#45;&gt;Node6</title>
<path fill="none" stroke="midnightblue" d="M196.93,-21.95C170.21,-19.19 140.61,-16.12 118.07,-13.79"/>
</g>
</g>
</svg>
