<?xml version="1.0" encoding="UTF-8" standalone="no"?>
<!DOCTYPE svg PUBLIC "-//W3C//DTD SVG 1.1//EN"
 "http://www.w3.org/Graphics/SVG/1.1/DTD/svg11.dtd">
<!-- Generated by graphviz version 2.43.0 (0)
 -->
<!-- Title: Output_To_Files Pages: 1 -->
<svg width="209pt" height="66pt"
 viewBox="0.00 0.00 209.00 66.00" xmlns="http://www.w3.org/2000/svg" xmlns:xlink="http://www.w3.org/1999/xlink">
<g id="graph0" class="graph" transform="scale(1 1) rotate(0) translate(4 62)">
<title>Output_To_Files</title>
<polygon fill="white" stroke="transparent" points="-4,4 -4,-62 205,-62 205,4 -4,4"/>
<!-- Node1 -->
<g id="node1" class="node">
<title>Node1</title>
<g id="a_node1"><a xlink:title="Output results to standardised file formats.">
<polygon fill="#bfbfbf" stroke="black" points="0,-19.5 0,-38.5 92,-38.5 92,-19.5 0,-19.5"/>
<text text-anchor="middle" x="46" y="-26.5" font-family="Helvetica,sans-Serif" font-size="10.00">Output_To_Files</text>
</a>
</g>
</g>
<!-- Node2 -->
<g id="node2" class="node">
<title>Node2</title>
<g id="a_node2"><a xlink:href="Pea_8cpp.html#a754b582a4856b9f33ac94e0cde9bc9ce" target="_top" xlink:title="Provide satellite orbit data.">
<polygon fill="white" stroke="black" points="133.5,-38.5 133.5,-57.5 195.5,-57.5 195.5,-38.5 133.5,-38.5"/>
<text text-anchor="middle" x="164.5" y="-45.5" font-family="Helvetica,sans-Serif" font-size="10.00">SP3_Files</text>
</a>
</g>
</g>
<!-- Node1&#45;&gt;Node2 -->
<g id="edge1" class="edge">
<title>Node1&#45;&gt;Node2</title>
<path fill="none" stroke="midnightblue" d="M92.04,-36.35C105.87,-38.6 120.75,-41.03 133.33,-43.08"/>
</g>
<!-- Node3 -->
<g id="node3" class="node">
<title>Node3</title>
<g id="a_node3"><a xlink:href="Pea_8cpp.html#a7a1a9d633f0be2af0ce76ee3b1c1de95" target="_top" xlink:title="Provide receiver station coordinates and metadata.">
<polygon fill="white" stroke="black" points="128,-0.5 128,-19.5 201,-19.5 201,-0.5 128,-0.5"/>
<text text-anchor="middle" x="164.5" y="-7.5" font-family="Helvetica,sans-Serif" font-size="10.00">SINEX_Files</text>
</a>
</g>
</g>
<!-- Node1&#45;&gt;Node3 -->
<g id="edge2" class="edge">
<title>Node1&#45;&gt;Node3</title>
<path fill="none" stroke="midnightblue" d="M92.04,-21.65C103.95,-19.71 116.64,-17.64 127.97,-15.8"/>
</g>
</g>
</svg>
