<?xml version="1.0" encoding="UTF-8" standalone="no"?>
<!DOCTYPE svg PUBLIC "-//W3C//DTD SVG 1.1//EN"
 "http://www.w3.org/Graphics/SVG/1.1/DTD/svg11.dtd">
<!-- Generated by graphviz version 2.43.0 (0)
 -->
<!-- Title: Model_Atmosphere Pages: 1 -->
<svg width="296pt" height="66pt"
 viewBox="0.00 0.00 296.00 66.00" xmlns="http://www.w3.org/2000/svg" xmlns:xlink="http://www.w3.org/1999/xlink">
<g id="graph0" class="graph" transform="scale(1 1) rotate(0) translate(4 62)">
<title>Model_Atmosphere</title>
<polygon fill="white" stroke="transparent" points="-4,4 -4,-62 292,-62 292,4 -4,4"/>
<!-- Node1 -->
<g id="node1" class="node">
<title>Node1</title>
<g id="a_node1"><a xlink:title="Determine the contribution to pseudoranges from refractive delays due to the atmosphsere.">
<polygon fill="#bfbfbf" stroke="black" points="177,-19.5 177,-38.5 288,-38.5 288,-19.5 177,-19.5"/>
<text text-anchor="middle" x="232.5" y="-26.5" font-family="Helvetica,sans-Serif" font-size="10.00">Model_Atmosphere</text>
</a>
</g>
</g>
<!-- Node2 -->
<g id="node2" class="node">
<title>Node2</title>
<g id="a_node2"><a xlink:href="Pea_8cpp.html#a28bdee4d916aa4bfbb3418db80ea2a12" target="_top" xlink:title="Use precise scientific models and corrections from analysis centers to produce the best possible para...">
<polygon fill="white" stroke="red" points="0,-38.5 0,-57.5 141,-57.5 141,-38.5 0,-38.5"/>
<text text-anchor="middle" x="70.5" y="-45.5" font-family="Helvetica,sans-Serif" font-size="10.00">Precise_Point_Positioning</text>
</a>
</g>
</g>
<!-- Node1&#45;&gt;Node2 -->
<g id="edge1" class="edge">
<title>Node1&#45;&gt;Node2</title>
<path fill="none" stroke="midnightblue" d="M176.88,-35.49C165.39,-36.85 153.11,-38.31 141.15,-39.73"/>
</g>
<!-- Node10 -->
<g id="node3" class="node">
<title>Node10</title>
<g id="a_node3"><a xlink:href="Pea_8cpp.html#aea90df44dba5dfb10e593090b2f3236a" target="_top" xlink:title="Use simple geometric and atmospheric models to estimate parameters.">
<polygon fill="white" stroke="red" points="2.5,-0.5 2.5,-19.5 138.5,-19.5 138.5,-0.5 2.5,-0.5"/>
<text text-anchor="middle" x="70.5" y="-7.5" font-family="Helvetica,sans-Serif" font-size="10.00">Single_Point_Positioning</text>
</a>
</g>
</g>
<!-- Node1&#45;&gt;Node10 -->
<g id="edge2" class="edge">
<title>Node1&#45;&gt;Node10</title>
<path fill="none" stroke="midnightblue" d="M176.88,-22.51C164.57,-21.05 151.37,-19.48 138.61,-17.97"/>
</g>
</g>
</svg>
