<?xml version="1.0" encoding="UTF-8" standalone="no"?>
<!DOCTYPE svg PUBLIC "-//W3C//DTD SVG 1.1//EN"
 "http://www.w3.org/Graphics/SVG/1.1/DTD/svg11.dtd">
<!-- Generated by graphviz version 2.43.0 (0)
 -->
<!-- Title: ginanCommitVersion Pages: 1 -->
<svg width="275pt" height="142pt"
 viewBox="0.00 0.00 275.00 142.00" xmlns="http://www.w3.org/2000/svg" xmlns:xlink="http://www.w3.org/1999/xlink">
<g id="graph0" class="graph" transform="scale(1 1) rotate(0) translate(4 138)">
<title>ginanCommitVersion</title>
<polygon fill="white" stroke="transparent" points="-4,4 -4,-138 271,-138 271,4 -4,4"/>
<!-- Node1 -->
<g id="node1" class="node">
<title>Node1</title>
<g id="a_node1"><a xlink:title=" ">
<polygon fill="#bfbfbf" stroke="black" points="148,-57.5 148,-76.5 267,-76.5 267,-57.5 148,-57.5"/>
<text text-anchor="middle" x="207.5" y="-64.5" font-family="Helvetica,sans-Serif" font-size="10.00">ginanCommitVersion</text>
</a>
</g>
</g>
<!-- Node2 -->
<g id="node2" class="node">
<title>Node2</title>
<g id="a_node2"><a xlink:href="erp_8cpp.html#af7d1a2cc7083f35bd4abd4879cfb0ef3" target="_top" xlink:title=" ">
<polygon fill="white" stroke="red" points="27.5,-114.5 27.5,-133.5 84.5,-133.5 84.5,-114.5 27.5,-114.5"/>
<text text-anchor="middle" x="56" y="-121.5" font-family="Helvetica,sans-Serif" font-size="10.00">writeErp</text>
</a>
</g>
</g>
<!-- Node1&#45;&gt;Node2 -->
<g id="edge1" class="edge">
<title>Node1&#45;&gt;Node2</title>
<path fill="none" stroke="midnightblue" d="M183.71,-76.53C164.65,-84.42 136.68,-95.78 112,-105 103.1,-108.32 93.33,-111.77 84.51,-114.8"/>
</g>
<!-- Node14 -->
<g id="node3" class="node">
<title>Node14</title>
<g id="a_node3"><a xlink:href="main_8cpp.html#a260404f91dd3104c4f794029943c96ab" target="_top" xlink:title=" ">
<polygon fill="white" stroke="red" points="0,-76.5 0,-95.5 112,-95.5 112,-76.5 0,-76.5"/>
<text text-anchor="middle" x="56" y="-83.5" font-family="Helvetica,sans-Serif" font-size="10.00">createNewTraceFile</text>
</a>
</g>
</g>
<!-- Node1&#45;&gt;Node14 -->
<g id="edge2" class="edge">
<title>Node1&#45;&gt;Node14</title>
<path fill="none" stroke="midnightblue" d="M147.84,-74.45C136.06,-75.95 123.72,-77.52 112.07,-79"/>
</g>
<!-- Node10 -->
<g id="node4" class="node">
<title>Node10</title>
<g id="a_node4"><a xlink:href="main_8cpp.html#a2c1eabb2ea9b242d8d9fd2c1795849e9" target="_top" xlink:title=" ">
<polygon fill="white" stroke="red" points="34,-38.5 34,-57.5 78,-57.5 78,-38.5 34,-38.5"/>
<text text-anchor="middle" x="56" y="-45.5" font-family="Helvetica,sans-Serif" font-size="10.00">ginan</text>
</a>
</g>
</g>
<!-- Node1&#45;&gt;Node10 -->
<g id="edge3" class="edge">
<title>Node1&#45;&gt;Node10</title>
<path fill="none" stroke="midnightblue" d="M147.84,-59.55C123.3,-56.43 96.33,-53 78.2,-50.69"/>
</g>
<!-- Node16 -->
<g id="node5" class="node">
<title>Node16</title>
<g id="a_node5"><a xlink:href="common_2orbits_8cpp.html#adbf44cc33c6497cf698ffbae0894eb14" target="_top" xlink:title="Output orbit file compatible with the pod.">
<polygon fill="white" stroke="red" points="20,-0.5 20,-19.5 92,-19.5 92,-0.5 20,-0.5"/>
<text text-anchor="middle" x="56" y="-7.5" font-family="Helvetica,sans-Serif" font-size="10.00">outputOrbit</text>
</a>
</g>
</g>
<!-- Node1&#45;&gt;Node16 -->
<g id="edge4" class="edge">
<title>Node1&#45;&gt;Node16</title>
<path fill="none" stroke="midnightblue" d="M183.71,-57.47C164.65,-49.58 136.68,-38.22 112,-29 103.48,-25.82 94.16,-22.53 85.64,-19.59"/>
</g>
</g>
</svg>
