<?xml version="1.0" encoding="UTF-8" standalone="no"?>
<!DOCTYPE svg PUBLIC "-//W3C//DTD SVG 1.1//EN"
 "http://www.w3.org/Graphics/SVG/1.1/DTD/svg11.dtd">
<!-- Generated by graphviz version 2.43.0 (0)
 -->
<!-- Title: planetPosEcef Pages: 1 -->
<svg width="216pt" height="104pt"
 viewBox="0.00 0.00 216.00 104.00" xmlns="http://www.w3.org/2000/svg" xmlns:xlink="http://www.w3.org/1999/xlink">
<g id="graph0" class="graph" transform="scale(1 1) rotate(0) translate(4 100)">
<title>planetPosEcef</title>
<polygon fill="white" stroke="transparent" points="-4,4 -4,-100 212,-100 212,4 -4,4"/>
<!-- Node1 -->
<g id="node1" class="node">
<title>Node1</title>
<g id="a_node1"><a xlink:title=" ">
<polygon fill="#bfbfbf" stroke="black" points="0,-38.5 0,-57.5 86,-57.5 86,-38.5 0,-38.5"/>
<text text-anchor="middle" x="43" y="-45.5" font-family="Helvetica,sans-Serif" font-size="10.00">planetPosEcef</text>
</a>
</g>
</g>
<!-- Node2 -->
<g id="node2" class="node">
<title>Node2</title>
<g id="a_node2"><a xlink:href="planets_8cpp.html#afbf4e9cc2d2186afa47982484f72b357" target="_top" xlink:title=" ">
<polygon fill="white" stroke="red" points="133,-76.5 133,-95.5 197,-95.5 197,-76.5 133,-76.5"/>
<text text-anchor="middle" x="165" y="-83.5" font-family="Helvetica,sans-Serif" font-size="10.00">jplEphPos</text>
</a>
</g>
</g>
<!-- Node1&#45;&gt;Node2 -->
<g id="edge1" class="edge">
<title>Node1&#45;&gt;Node2</title>
<path fill="none" stroke="midnightblue" d="M74.28,-57.59C89.35,-62.36 107.75,-68.19 123.97,-73.32"/>
<polygon fill="midnightblue" stroke="midnightblue" points="123.14,-76.73 133.73,-76.41 125.25,-70.06 123.14,-76.73"/>
</g>
<!-- Node4 -->
<g id="node3" class="node">
<title>Node4</title>
<g id="a_node3"><a xlink:href="structSofa.html#a580972a0f3f8972b911908a3f8e8a80e" target="_top" xlink:title=" ">
<polygon fill="white" stroke="black" points="126.5,-38.5 126.5,-57.5 203.5,-57.5 203.5,-38.5 126.5,-38.5"/>
<text text-anchor="middle" x="165" y="-45.5" font-family="Helvetica,sans-Serif" font-size="10.00">Sofa::iauEpv</text>
</a>
</g>
</g>
<!-- Node1&#45;&gt;Node4 -->
<g id="edge2" class="edge">
<title>Node1&#45;&gt;Node4</title>
<path fill="none" stroke="midnightblue" d="M86.31,-48C96.02,-48 106.42,-48 116.34,-48"/>
<polygon fill="midnightblue" stroke="midnightblue" points="116.47,-51.5 126.47,-48 116.47,-44.5 116.47,-51.5"/>
</g>
<!-- Node5 -->
<g id="node4" class="node">
<title>Node5</title>
<g id="a_node4"><a xlink:href="structSofa.html#ac3a02f652ff7b705f8a55c64aeec7e60" target="_top" xlink:title=" ">
<polygon fill="white" stroke="black" points="122,-0.5 122,-19.5 208,-19.5 208,-0.5 122,-0.5"/>
<text text-anchor="middle" x="165" y="-7.5" font-family="Helvetica,sans-Serif" font-size="10.00">Sofa::iauMoon</text>
</a>
</g>
</g>
<!-- Node1&#45;&gt;Node5 -->
<g id="edge3" class="edge">
<title>Node1&#45;&gt;Node5</title>
<path fill="none" stroke="midnightblue" d="M74.28,-38.41C89.35,-33.64 107.75,-27.81 123.97,-22.68"/>
<polygon fill="midnightblue" stroke="midnightblue" points="125.25,-25.94 133.73,-19.59 123.14,-19.27 125.25,-25.94"/>
</g>
</g>
</svg>
