<?xml version="1.0" encoding="UTF-8" standalone="no"?>
<!DOCTYPE svg PUBLIC "-//W3C//DTD SVG 1.1//EN"
 "http://www.w3.org/Graphics/SVG/1.1/DTD/svg11.dtd">
<!-- Generated by graphviz version 2.43.0 (0)
 -->
<!-- Title: orbitGlitchReaction Pages: 1 -->
<svg width="332pt" height="47pt"
 viewBox="0.00 0.00 332.00 47.00" xmlns="http://www.w3.org/2000/svg" xmlns:xlink="http://www.w3.org/1999/xlink">
<g id="graph0" class="graph" transform="scale(1 1) rotate(0) translate(4 43)">
<title>orbitGlitchReaction</title>
<polygon fill="white" stroke="transparent" points="-4,4 -4,-43 328,-43 328,4 -4,4"/>
<!-- Node1 -->
<g id="node1" class="node">
<title>Node1</title>
<g id="a_node1"><a xlink:title="Remove any states connected to a bad clock if it glitches.">
<polygon fill="#bfbfbf" stroke="black" points="214,-19.5 214,-38.5 324,-38.5 324,-19.5 214,-19.5"/>
<text text-anchor="middle" x="269" y="-26.5" font-family="Helvetica,sans-Serif" font-size="10.00">orbitGlitchReaction</text>
</a>
</g>
</g>
<!-- Node2 -->
<g id="node2" class="node">
<title>Node2</title>
<g id="a_node2"><a xlink:href="main_8cpp.html#a2c1eabb2ea9b242d8d9fd2c1795849e9" target="_top" xlink:title=" ">
<polygon fill="white" stroke="red" points="0,-19.5 0,-38.5 44,-38.5 44,-19.5 0,-19.5"/>
<text text-anchor="middle" x="22" y="-26.5" font-family="Helvetica,sans-Serif" font-size="10.00">ginan</text>
</a>
</g>
</g>
<!-- Node1&#45;&gt;Node2 -->
<g id="edge1" class="edge">
<title>Node1&#45;&gt;Node2</title>
<path fill="none" stroke="midnightblue" d="M203.63,-29C150.81,-29 79.23,-29 44.15,-29"/>
<polygon fill="midnightblue" stroke="midnightblue" points="203.93,-32.5 213.93,-29 203.93,-25.5 203.93,-32.5"/>
</g>
<!-- Node4 -->
<g id="node3" class="node">
<title>Node4</title>
<g id="a_node3"><a xlink:href="ppp__callbacks_8cpp.html#ae51c6d3f48fb68834b6cb66a0a708f2a" target="_top" xlink:title="Call state rejection functions when a measurement is a pseudo observation.">
<polygon fill="white" stroke="black" points="80,-0.5 80,-19.5 178,-19.5 178,-0.5 80,-0.5"/>
<text text-anchor="middle" x="129" y="-7.5" font-family="Helvetica,sans-Serif" font-size="10.00">pseudoMeasTest</text>
</a>
</g>
</g>
<!-- Node1&#45;&gt;Node4 -->
<g id="edge2" class="edge">
<title>Node1&#45;&gt;Node4</title>
<path fill="none" stroke="midnightblue" d="M203.8,-20.16C195.18,-18.97 186.45,-17.77 178.16,-16.63"/>
<polygon fill="midnightblue" stroke="midnightblue" points="203.47,-23.65 213.85,-21.55 204.43,-16.71 203.47,-23.65"/>
</g>
<!-- Node4&#45;&gt;Node2 -->
<g id="edge3" class="edge">
<title>Node4&#45;&gt;Node2</title>
<path fill="none" stroke="midnightblue" d="M69.82,-20.53C60.66,-22.19 51.72,-23.8 44.16,-25.17"/>
<polygon fill="midnightblue" stroke="midnightblue" points="70.59,-23.95 79.8,-18.72 69.34,-17.06 70.59,-23.95"/>
</g>
</g>
</svg>
