<?xml version="1.0" encoding="UTF-8" standalone="no"?>
<!DOCTYPE svg PUBLIC "-//W3C//DTD SVG 1.1//EN"
 "http://www.w3.org/Graphics/SVG/1.1/DTD/svg11.dtd">
<!-- Generated by graphviz version 2.43.0 (0)
 -->
<!-- Title: initPseudoObs Pages: 1 -->
<svg width="257pt" height="142pt"
 viewBox="0.00 0.00 257.00 142.00" xmlns="http://www.w3.org/2000/svg" xmlns:xlink="http://www.w3.org/1999/xlink">
<g id="graph0" class="graph" transform="scale(1 1) rotate(0) translate(4 138)">
<title>initPseudoObs</title>
<polygon fill="white" stroke="transparent" points="-4,4 -4,-138 253,-138 253,4 -4,4"/>
<!-- Node1 -->
<g id="node1" class="node">
<title>Node1</title>
<g id="a_node1"><a xlink:title=" ">
<polygon fill="#bfbfbf" stroke="black" points="0,-57.5 0,-76.5 86,-76.5 86,-57.5 0,-57.5"/>
<text text-anchor="middle" x="43" y="-64.5" font-family="Helvetica,sans-Serif" font-size="10.00">initPseudoObs</text>
</a>
</g>
</g>
<!-- Node2 -->
<g id="node2" class="node">
<title>Node2</title>
<g id="a_node2"><a xlink:href="structACSConfig.html#a20ca3689eafecfa2b7e656c28e340256" target="_top" xlink:title="Set satellite options for a specific satellite using a hierarchy of sources.">
<polygon fill="white" stroke="red" points="122,-114.5 122,-133.5 249,-133.5 249,-114.5 122,-114.5"/>
<text text-anchor="middle" x="185.5" y="-121.5" font-family="Helvetica,sans-Serif" font-size="10.00">ACSConfig::getSatOpts</text>
</a>
</g>
</g>
<!-- Node1&#45;&gt;Node2 -->
<g id="edge1" class="edge">
<title>Node1&#45;&gt;Node2</title>
<path fill="none" stroke="midnightblue" d="M61.61,-76.57C77.19,-84.8 100.69,-96.63 122,-105 127.61,-107.2 133.59,-109.31 139.54,-111.27"/>
<polygon fill="midnightblue" stroke="midnightblue" points="138.86,-114.73 149.45,-114.41 140.98,-108.05 138.86,-114.73"/>
</g>
<!-- Node22 -->
<g id="node3" class="node">
<title>Node22</title>
<g id="a_node3"><a xlink:href="algebra_8cpp.html#a4a6a1ebf759ddc5d9d6d1de14269c5af" target="_top" xlink:title=" ">
<polygon fill="white" stroke="black" points="123,-76.5 123,-95.5 248,-95.5 248,-76.5 123,-76.5"/>
<text text-anchor="middle" x="185.5" y="-83.5" font-family="Helvetica,sans-Serif" font-size="10.00">initialStateFromConfig</text>
</a>
</g>
</g>
<!-- Node1&#45;&gt;Node22 -->
<g id="edge2" class="edge">
<title>Node1&#45;&gt;Node22</title>
<path fill="none" stroke="midnightblue" d="M86.15,-72.7C94.64,-73.85 103.79,-75.09 112.96,-76.33"/>
<polygon fill="midnightblue" stroke="midnightblue" points="112.52,-79.8 122.9,-77.67 113.45,-72.86 112.52,-79.8"/>
</g>
<!-- Node23 -->
<g id="node4" class="node">
<title>Node23</title>
<g id="a_node4"><a xlink:href="structKFState.html#a8f43fca242e78201e48996ebbb4fd69f" target="_top" xlink:title="Tries to add a state to the filter object.">
<polygon fill="white" stroke="black" points="127.5,-38.5 127.5,-57.5 243.5,-57.5 243.5,-38.5 127.5,-38.5"/>
<text text-anchor="middle" x="185.5" y="-45.5" font-family="Helvetica,sans-Serif" font-size="10.00">KFState::addKFState</text>
</a>
</g>
</g>
<!-- Node1&#45;&gt;Node23 -->
<g id="edge3" class="edge">
<title>Node1&#45;&gt;Node23</title>
<path fill="none" stroke="midnightblue" d="M86.15,-61.3C95.96,-59.97 106.63,-58.53 117.21,-57.1"/>
<polygon fill="midnightblue" stroke="midnightblue" points="117.86,-60.54 127.3,-55.73 116.92,-53.61 117.86,-60.54"/>
</g>
<!-- Node24 -->
<g id="node5" class="node">
<title>Node24</title>
<g id="a_node5"><a xlink:href="orbitProp_8cpp.html#af767655776834883fe2de1b5a692456c" target="_top" xlink:title=" ">
<polygon fill="white" stroke="red" points="142,-0.5 142,-19.5 229,-19.5 229,-0.5 142,-0.5"/>
<text text-anchor="middle" x="185.5" y="-7.5" font-family="Helvetica,sans-Serif" font-size="10.00">addEmpStates</text>
</a>
</g>
</g>
<!-- Node1&#45;&gt;Node24 -->
<g id="edge4" class="edge">
<title>Node1&#45;&gt;Node24</title>
<path fill="none" stroke="midnightblue" d="M61.61,-57.43C77.19,-49.2 100.69,-37.37 122,-29 127.61,-26.8 133.59,-24.69 139.54,-22.73"/>
<polygon fill="midnightblue" stroke="midnightblue" points="140.98,-25.95 149.45,-19.59 138.86,-19.27 140.98,-25.95"/>
</g>
</g>
</svg>
