<?xml version="1.0" encoding="UTF-8" standalone="no"?>
<!DOCTYPE svg PUBLIC "-//W3C//DTD SVG 1.1//EN"
 "http://www.w3.org/Graphics/SVG/1.1/DTD/svg11.dtd">
<!-- Generated by graphviz version 2.43.0 (0)
 -->
<!-- Title: selectAprioriSource Pages: 1 -->
<svg width="436pt" height="294pt"
 viewBox="0.00 0.00 436.00 294.00" xmlns="http://www.w3.org/2000/svg" xmlns:xlink="http://www.w3.org/1999/xlink">
<g id="graph0" class="graph" transform="scale(1 1) rotate(0) translate(4 290)">
<title>selectAprioriSource</title>
<polygon fill="white" stroke="transparent" points="-4,4 -4,-290 432,-290 432,4 -4,4"/>
<!-- Node1 -->
<g id="node1" class="node">
<title>Node1</title>
<g id="a_node1"><a xlink:title="Compare estimated station position with benchmark in SINEX file.">
<polygon fill="#bfbfbf" stroke="black" points="0,-133.5 0,-152.5 111,-152.5 111,-133.5 0,-133.5"/>
<text text-anchor="middle" x="55.5" y="-140.5" font-family="Helvetica,sans-Serif" font-size="10.00">selectAprioriSource</text>
</a>
</g>
</g>
<!-- Node2 -->
<g id="node2" class="node">
<title>Node2</title>
<g id="a_node2"><a xlink:href="structACSConfig.html#acbb130e061ba4b7bf620e4fb68e1b794" target="_top" xlink:title="Set receiver options for a specific receiver using a hierarchy of sources.">
<polygon fill="white" stroke="red" points="147,-266.5 147,-285.5 276,-285.5 276,-266.5 147,-266.5"/>
<text text-anchor="middle" x="211.5" y="-273.5" font-family="Helvetica,sans-Serif" font-size="10.00">ACSConfig::getRecOpts</text>
</a>
</g>
</g>
<!-- Node1&#45;&gt;Node2 -->
<g id="edge1" class="edge">
<title>Node1&#45;&gt;Node2</title>
<path fill="none" stroke="midnightblue" d="M62.04,-152.58C74.57,-173.48 107.15,-223.58 147,-252 152.74,-256.09 159.26,-259.58 165.89,-262.53"/>
<polygon fill="midnightblue" stroke="midnightblue" points="165.01,-265.95 175.59,-266.46 167.64,-259.46 165.01,-265.95"/>
</g>
<!-- Node16 -->
<g id="node3" class="node">
<title>Node16</title>
<g id="a_node3"><a xlink:href="structKFState.html#adf65ad6aa025b3b6279a476d00b1c0fc" target="_top" xlink:title="Returns the value and variance of a state within the kalman filter object.">
<polygon fill="white" stroke="black" points="312,-171.5 312,-190.5 428,-190.5 428,-171.5 312,-171.5"/>
<text text-anchor="middle" x="370" y="-178.5" font-family="Helvetica,sans-Serif" font-size="10.00">KFState::getKFValue</text>
</a>
</g>
</g>
<!-- Node1&#45;&gt;Node16 -->
<g id="edge2" class="edge">
<title>Node1&#45;&gt;Node16</title>
<path fill="none" stroke="midnightblue" d="M63.92,-152.62C77.92,-169.88 110.18,-205.59 147,-219 200.87,-238.62 220.35,-232.78 276,-219 293.56,-214.65 295.36,-207.11 312,-200 317.04,-197.85 322.4,-195.78 327.76,-193.85"/>
<polygon fill="midnightblue" stroke="midnightblue" points="328.99,-197.13 337.3,-190.54 326.7,-190.51 328.99,-197.13"/>
</g>
<!-- Node17 -->
<g id="node4" class="node">
<title>Node17</title>
<g id="a_node4"><a xlink:href="spp_8cpp.html#a333c250ce5992cffbf4b29bdb31ad957" target="_top" xlink:title="Compute receiver position, velocity, clock bias by single&#45;point positioning with pseudorange observab...">
<polygon fill="white" stroke="red" points="194,-190.5 194,-209.5 229,-209.5 229,-190.5 194,-190.5"/>
<text text-anchor="middle" x="211.5" y="-197.5" font-family="Helvetica,sans-Serif" font-size="10.00">SPP</text>
</a>
</g>
</g>
<!-- Node1&#45;&gt;Node17 -->
<g id="edge3" class="edge">
<title>Node1&#45;&gt;Node17</title>
<path fill="none" stroke="midnightblue" d="M77.46,-152.55C95.64,-160.66 122.78,-172.32 147,-181 159.03,-185.31 172.56,-189.45 184.04,-192.77"/>
<polygon fill="midnightblue" stroke="midnightblue" points="183.32,-196.2 193.9,-195.56 185.23,-189.47 183.32,-196.2"/>
</g>
<!-- Node26 -->
<g id="node5" class="node">
<title>Node26</title>
<g id="a_node5"><a xlink:href="trace_8hpp.html#a984a9b0c40d65d46f2c73a021a7b7de3" target="_top" xlink:title=" ">
<polygon fill="white" stroke="black" points="334.5,-209.5 334.5,-228.5 405.5,-228.5 405.5,-209.5 334.5,-209.5"/>
<text text-anchor="middle" x="370" y="-216.5" font-family="Helvetica,sans-Serif" font-size="10.00">tracepdeex</text>
</a>
</g>
</g>
<!-- Node1&#45;&gt;Node26 -->
<g id="edge7" class="edge">
<title>Node1&#45;&gt;Node26</title>
<path fill="none" stroke="midnightblue" d="M90.59,-133.42C136,-122.7 217.43,-110.72 276,-143 302.24,-157.46 288.41,-181.52 312,-200 315.85,-203.02 320.21,-205.57 324.75,-207.72"/>
<polygon fill="midnightblue" stroke="midnightblue" points="323.66,-211.05 334.24,-211.6 326.31,-204.58 323.66,-211.05"/>
</g>
<!-- Node117 -->
<g id="node6" class="node">
<title>Node117</title>
<g id="a_node6"><a xlink:href="trace_8hpp.html#af5320371d0f15d74154b2b32d315684d" target="_top" xlink:title=" ">
<polygon fill="white" stroke="black" points="174,-152.5 174,-171.5 249,-171.5 249,-152.5 174,-152.5"/>
<text text-anchor="middle" x="211.5" y="-159.5" font-family="Helvetica,sans-Serif" font-size="10.00">getTraceFile</text>
</a>
</g>
</g>
<!-- Node1&#45;&gt;Node117 -->
<g id="edge6" class="edge">
<title>Node1&#45;&gt;Node117</title>
<path fill="none" stroke="midnightblue" d="M111.23,-149.75C128.41,-151.87 147.21,-154.19 163.79,-156.24"/>
<polygon fill="midnightblue" stroke="midnightblue" points="163.43,-159.72 173.78,-157.47 164.29,-152.77 163.43,-159.72"/>
</g>
<!-- Node33 -->
<g id="node7" class="node">
<title>Node33</title>
<g id="a_node7"><a xlink:href="ephPrecise_8cpp.html#a7152f02ef77017fa75612ac13eeda408" target="_top" xlink:title="clock by precise clock">
<polygon fill="white" stroke="red" points="184,-76.5 184,-95.5 239,-95.5 239,-76.5 184,-76.5"/>
<text text-anchor="middle" x="211.5" y="-83.5" font-family="Helvetica,sans-Serif" font-size="10.00">pephclk</text>
</a>
</g>
</g>
<!-- Node1&#45;&gt;Node33 -->
<g id="edge8" class="edge">
<title>Node1&#45;&gt;Node33</title>
<path fill="none" stroke="midnightblue" d="M82.28,-133.46C107.71,-124.05 146.78,-109.59 175.11,-99.1"/>
<polygon fill="midnightblue" stroke="midnightblue" points="176.48,-102.33 184.64,-95.57 174.05,-95.76 176.48,-102.33"/>
</g>
<!-- Node76 -->
<g id="node8" class="node">
<title>Node76</title>
<g id="a_node8"><a xlink:href="utils_8cpp.html#ae91d83cf693cdc7e1efacbe4d8d9656e" target="_top" xlink:title=" ">
<polygon fill="white" stroke="black" points="181,-38.5 181,-57.5 242,-57.5 242,-38.5 181,-38.5"/>
<text text-anchor="middle" x="211.5" y="-45.5" font-family="Helvetica,sans-Serif" font-size="10.00">ecef2pos</text>
</a>
</g>
</g>
<!-- Node1&#45;&gt;Node76 -->
<g id="edge9" class="edge">
<title>Node1&#45;&gt;Node76</title>
<path fill="none" stroke="midnightblue" d="M65.32,-133.38C80.51,-117.37 113.23,-85.21 147,-67 154.42,-63 162.79,-59.73 170.96,-57.11"/>
<polygon fill="midnightblue" stroke="midnightblue" points="172.15,-60.41 180.75,-54.22 170.16,-53.69 172.15,-60.41"/>
</g>
<!-- Node89 -->
<g id="node9" class="node">
<title>Node89</title>
<g id="a_node9"><a xlink:href="coordinates_8cpp.html#a8473fa1efe21e24084f708ed9e9df38e" target="_top" xlink:title=" ">
<polygon fill="white" stroke="red" points="182.5,-0.5 182.5,-19.5 240.5,-19.5 240.5,-0.5 182.5,-0.5"/>
<text text-anchor="middle" x="211.5" y="-7.5" font-family="Helvetica,sans-Serif" font-size="10.00">pos2enu</text>
</a>
</g>
</g>
<!-- Node1&#45;&gt;Node89 -->
<g id="edge10" class="edge">
<title>Node1&#45;&gt;Node89</title>
<path fill="none" stroke="midnightblue" d="M61.41,-133.42C73.14,-111.52 104.94,-57.48 147,-29 154.61,-23.84 163.66,-20.05 172.51,-17.28"/>
<polygon fill="midnightblue" stroke="midnightblue" points="173.62,-20.61 182.32,-14.56 171.75,-13.86 173.62,-20.61"/>
</g>
<!-- Node17&#45;&gt;Node16 -->
<g id="edge5" class="edge">
<title>Node17&#45;&gt;Node16</title>
<path fill="none" stroke="midnightblue" d="M229.25,-197.97C246.66,-195.85 275.04,-192.41 301.7,-189.17"/>
<polygon fill="midnightblue" stroke="midnightblue" points="302.3,-192.62 311.8,-187.94 301.45,-185.68 302.3,-192.62"/>
</g>
<!-- Node17&#45;&gt;Node26 -->
<g id="edge4" class="edge">
<title>Node17&#45;&gt;Node26</title>
<path fill="none" stroke="midnightblue" d="M229.25,-202.03C251.73,-204.76 292.52,-209.71 324.25,-213.57"/>
<polygon fill="midnightblue" stroke="midnightblue" points="323.85,-217.04 334.19,-214.77 324.69,-210.09 323.85,-217.04"/>
</g>
</g>
</svg>
