<?xml version="1.0" encoding="UTF-8" standalone="no"?>
<!DOCTYPE svg PUBLIC "-//W3C//DTD SVG 1.1//EN"
 "http://www.w3.org/Graphics/SVG/1.1/DTD/svg11.dtd">
<!-- Generated by graphviz version 2.43.0 (0)
 -->
<!-- Title: /data/acs/ginan/src/cpp/pea/ppp.hpp Pages: 1 -->
<svg width="1773pt" height="173pt"
 viewBox="0.00 0.00 1773.00 173.00" xmlns="http://www.w3.org/2000/svg" xmlns:xlink="http://www.w3.org/1999/xlink">
<g id="graph0" class="graph" transform="scale(1 1) rotate(0) translate(4 169)">
<title>/data/acs/ginan/src/cpp/pea/ppp.hpp</title>
<polygon fill="white" stroke="transparent" points="-4,4 -4,-169 1769,-169 1769,4 -4,4"/>
<!-- Node1 -->
<g id="node1" class="node">
<title>Node1</title>
<g id="a_node1"><a xlink:title=" ">
<polygon fill="#bfbfbf" stroke="black" points="1190,-134.5 1190,-164.5 1298,-164.5 1298,-134.5 1190,-134.5"/>
<text text-anchor="start" x="1198" y="-152.5" font-family="Helvetica,sans-Serif" font-size="10.00">/data/acs/ginan/src</text>
<text text-anchor="middle" x="1244" y="-141.5" font-family="Helvetica,sans-Serif" font-size="10.00">/cpp/pea/ppp.hpp</text>
</a>
</g>
</g>
<!-- Node2 -->
<g id="node2" class="node">
<title>Node2</title>
<g id="a_node2"><a xlink:href="attitude_8cpp.html" target="_top" xlink:title=" ">
<polygon fill="white" stroke="black" points="0,-67.5 0,-97.5 144,-97.5 144,-67.5 0,-67.5"/>
<text text-anchor="start" x="8" y="-85.5" font-family="Helvetica,sans-Serif" font-size="10.00">/data/acs/ginan/src</text>
<text text-anchor="middle" x="72" y="-74.5" font-family="Helvetica,sans-Serif" font-size="10.00">/cpp/common/attitude.cpp</text>
</a>
</g>
</g>
<!-- Node1&#45;&gt;Node2 -->
<g id="edge1" class="edge">
<title>Node1&#45;&gt;Node2</title>
<path fill="none" stroke="midnightblue" d="M1189.88,-148.5C1030.5,-147.95 549.18,-142.44 153,-98 150.16,-97.68 147.27,-97.32 144.35,-96.94"/>
</g>
<!-- Node3 -->
<g id="node3" class="node">
<title>Node3</title>
<g id="a_node3"><a xlink:href="biasSINEXwrite_8cpp.html" target="_top" xlink:title=" ">
<polygon fill="white" stroke="black" points="162,-67.5 162,-97.5 342,-97.5 342,-67.5 162,-67.5"/>
<text text-anchor="start" x="170" y="-85.5" font-family="Helvetica,sans-Serif" font-size="10.00">/data/acs/ginan/src</text>
<text text-anchor="middle" x="252" y="-74.5" font-family="Helvetica,sans-Serif" font-size="10.00">/cpp/common/biasSINEXwrite.cpp</text>
</a>
</g>
</g>
<!-- Node1&#45;&gt;Node3 -->
<g id="edge2" class="edge">
<title>Node1&#45;&gt;Node3</title>
<path fill="none" stroke="midnightblue" d="M1189.76,-147.11C1050.29,-143.18 667.9,-130.1 351,-98 348.06,-97.7 345.08,-97.38 342.07,-97.04"/>
</g>
<!-- Node4 -->
<g id="node4" class="node">
<title>Node4</title>
<g id="a_node4"><a xlink:href="cost_8cpp.html" target="_top" xlink:title=" ">
<polygon fill="white" stroke="black" points="360,-67.5 360,-97.5 486,-97.5 486,-67.5 360,-67.5"/>
<text text-anchor="start" x="368" y="-85.5" font-family="Helvetica,sans-Serif" font-size="10.00">/data/acs/ginan/src</text>
<text text-anchor="middle" x="423" y="-74.5" font-family="Helvetica,sans-Serif" font-size="10.00">/cpp/common/cost.cpp</text>
</a>
</g>
</g>
<!-- Node1&#45;&gt;Node4 -->
<g id="edge3" class="edge">
<title>Node1&#45;&gt;Node4</title>
<path fill="none" stroke="midnightblue" d="M1189.71,-147.28C1065.96,-143.98 753.68,-132.62 495,-98 492.09,-97.61 489.13,-97.17 486.14,-96.7"/>
</g>
<!-- Node5 -->
<g id="node5" class="node">
<title>Node5</title>
<g id="a_node5"><a xlink:href="orbexWrite_8cpp.html" target="_top" xlink:title=" ">
<polygon fill="white" stroke="black" points="504,-67.5 504,-97.5 664,-97.5 664,-67.5 504,-67.5"/>
<text text-anchor="start" x="512" y="-85.5" font-family="Helvetica,sans-Serif" font-size="10.00">/data/acs/ginan/src</text>
<text text-anchor="middle" x="584" y="-74.5" font-family="Helvetica,sans-Serif" font-size="10.00">/cpp/common/orbexWrite.cpp</text>
</a>
</g>
</g>
<!-- Node1&#45;&gt;Node5 -->
<g id="edge4" class="edge">
<title>Node1&#45;&gt;Node5</title>
<path fill="none" stroke="midnightblue" d="M1189.93,-145.04C1088.39,-138.26 862.34,-121.76 673,-98 670.05,-97.63 667.05,-97.23 664.01,-96.82"/>
</g>
<!-- Node6 -->
<g id="node6" class="node">
<title>Node6</title>
<g id="a_node6"><a xlink:href="rtsSmoothing_8cpp.html" target="_top" xlink:title=" ">
<polygon fill="white" stroke="black" points="682.5,-67.5 682.5,-97.5 853.5,-97.5 853.5,-67.5 682.5,-67.5"/>
<text text-anchor="start" x="690.5" y="-85.5" font-family="Helvetica,sans-Serif" font-size="10.00">/data/acs/ginan/src</text>
<text text-anchor="middle" x="768" y="-74.5" font-family="Helvetica,sans-Serif" font-size="10.00">/cpp/common/rtsSmoothing.cpp</text>
</a>
</g>
</g>
<!-- Node1&#45;&gt;Node6 -->
<g id="edge5" class="edge">
<title>Node1&#45;&gt;Node6</title>
<path fill="none" stroke="midnightblue" d="M1189.69,-141.64C1115.74,-132.23 979.26,-114.58 863,-98 859.94,-97.56 856.83,-97.12 853.69,-96.66"/>
</g>
<!-- Node7 -->
<g id="node7" class="node">
<title>Node7</title>
<g id="a_node7"><a xlink:href="station_8hpp.html" target="_top" xlink:title=" ">
<polygon fill="white" stroke="red" points="872,-67.5 872,-97.5 1012,-97.5 1012,-67.5 872,-67.5"/>
<text text-anchor="start" x="880" y="-85.5" font-family="Helvetica,sans-Serif" font-size="10.00">/data/acs/ginan/src</text>
<text text-anchor="middle" x="942" y="-74.5" font-family="Helvetica,sans-Serif" font-size="10.00">/cpp/common/station.hpp</text>
</a>
</g>
</g>
<!-- Node1&#45;&gt;Node7 -->
<g id="edge6" class="edge">
<title>Node1&#45;&gt;Node7</title>
<path fill="none" stroke="midnightblue" d="M1189.66,-136.8C1138.46,-125.78 1061.68,-109.26 1007.2,-97.53"/>
</g>
<!-- Node18 -->
<g id="node8" class="node">
<title>Node18</title>
<g id="a_node8"><a xlink:href="main_8cpp.html" target="_top" xlink:title=" ">
<polygon fill="white" stroke="black" points="580,-0.5 580,-30.5 688,-30.5 688,-0.5 580,-0.5"/>
<text text-anchor="start" x="588" y="-18.5" font-family="Helvetica,sans-Serif" font-size="10.00">/data/acs/ginan/src</text>
<text text-anchor="middle" x="634" y="-7.5" font-family="Helvetica,sans-Serif" font-size="10.00">/cpp/pea/main.cpp</text>
</a>
</g>
</g>
<!-- Node1&#45;&gt;Node18 -->
<g id="edge16" class="edge">
<title>Node1&#45;&gt;Node18</title>
<path fill="none" stroke="midnightblue" d="M1241.88,-134.48C1238.22,-115.63 1228.77,-82.66 1206,-67 1112.58,-2.73 809.15,-47.77 697,-31 694.11,-30.57 691.16,-30.08 688.19,-29.54"/>
</g>
<!-- Node27 -->
<g id="node9" class="node">
<title>Node27</title>
<g id="a_node9"><a xlink:href="networkEstimator_8cpp.html" target="_top" xlink:title=" ">
<polygon fill="white" stroke="black" points="706,-0.5 706,-30.5 874,-30.5 874,-0.5 706,-0.5"/>
<text text-anchor="start" x="714" y="-18.5" font-family="Helvetica,sans-Serif" font-size="10.00">/data/acs/ginan/src</text>
<text text-anchor="middle" x="790" y="-7.5" font-family="Helvetica,sans-Serif" font-size="10.00">/cpp/pea/networkEstimator.cpp</text>
</a>
</g>
</g>
<!-- Node1&#45;&gt;Node27 -->
<g id="edge17" class="edge">
<title>Node1&#45;&gt;Node27</title>
<path fill="none" stroke="midnightblue" d="M1248.05,-134.24C1252.26,-116.04 1256.09,-84.78 1239,-67 1183.9,-9.68 961.87,-41.13 883,-31 880.08,-30.63 877.12,-30.23 874.12,-29.82"/>
</g>
<!-- Node38 -->
<g id="node10" class="node">
<title>Node38</title>
<g id="a_node10"><a xlink:href="ppp_8cpp.html" target="_top" xlink:title="Precise point positioning.">
<polygon fill="white" stroke="black" points="892,-0.5 892,-30.5 1000,-30.5 1000,-0.5 892,-0.5"/>
<text text-anchor="start" x="900" y="-18.5" font-family="Helvetica,sans-Serif" font-size="10.00">/data/acs/ginan/src</text>
<text text-anchor="middle" x="946" y="-7.5" font-family="Helvetica,sans-Serif" font-size="10.00">/cpp/pea/ppp.cpp</text>
</a>
</g>
</g>
<!-- Node1&#45;&gt;Node38 -->
<g id="edge18" class="edge">
<title>Node1&#45;&gt;Node38</title>
<path fill="none" stroke="midnightblue" d="M1257.91,-134.32C1273.45,-116.76 1294.29,-86.76 1277,-67 1237.44,-21.77 1068.12,-41.75 1009,-31 1006.13,-30.48 1003.19,-29.91 1000.23,-29.32"/>
</g>
<!-- Node56 -->
<g id="node11" class="node">
<title>Node56</title>
<g id="a_node11"><a xlink:href="ppp__callbacks_8cpp.html" target="_top" xlink:title=" ">
<polygon fill="white" stroke="black" points="1018,-0.5 1018,-30.5 1168,-30.5 1168,-0.5 1018,-0.5"/>
<text text-anchor="start" x="1026" y="-18.5" font-family="Helvetica,sans-Serif" font-size="10.00">/data/acs/ginan/src</text>
<text text-anchor="middle" x="1093" y="-7.5" font-family="Helvetica,sans-Serif" font-size="10.00">/cpp/pea/ppp_callbacks.cpp</text>
</a>
</g>
</g>
<!-- Node1&#45;&gt;Node56 -->
<g id="edge19" class="edge">
<title>Node1&#45;&gt;Node56</title>
<path fill="none" stroke="midnightblue" d="M1271.36,-134.39C1298.81,-118.39 1334.43,-91.35 1315,-67 1310.15,-60.93 1227.5,-43.26 1164.45,-30.53"/>
</g>
<!-- Node49 -->
<g id="node12" class="node">
<title>Node49</title>
<g id="a_node12"><a xlink:href="ppp__network_8cpp.html" target="_top" xlink:title=" ">
<polygon fill="white" stroke="black" points="1186,-0.5 1186,-30.5 1330,-30.5 1330,-0.5 1186,-0.5"/>
<text text-anchor="start" x="1194" y="-18.5" font-family="Helvetica,sans-Serif" font-size="10.00">/data/acs/ginan/src</text>
<text text-anchor="middle" x="1258" y="-7.5" font-family="Helvetica,sans-Serif" font-size="10.00">/cpp/pea/ppp_network.cpp</text>
</a>
</g>
</g>
<!-- Node1&#45;&gt;Node49 -->
<g id="edge20" class="edge">
<title>Node1&#45;&gt;Node49</title>
<path fill="none" stroke="midnightblue" d="M1298.15,-136.72C1318.99,-129.27 1340.71,-117.25 1353,-98 1360.42,-86.39 1360.1,-78.81 1353,-67 1342.8,-50.03 1324.76,-38.45 1307.12,-30.72"/>
</g>
<!-- Node52 -->
<g id="node13" class="node">
<title>Node52</title>
<g id="a_node13"><a xlink:href="ppp__user_8cpp.html" target="_top" xlink:title=" ">
<polygon fill="white" stroke="black" points="1348.5,-0.5 1348.5,-30.5 1473.5,-30.5 1473.5,-0.5 1348.5,-0.5"/>
<text text-anchor="start" x="1356.5" y="-18.5" font-family="Helvetica,sans-Serif" font-size="10.00">/data/acs/ginan/src</text>
<text text-anchor="middle" x="1411" y="-7.5" font-family="Helvetica,sans-Serif" font-size="10.00">/cpp/pea/ppp_user.cpp</text>
</a>
</g>
</g>
<!-- Node1&#45;&gt;Node52 -->
<g id="edge21" class="edge">
<title>Node1&#45;&gt;Node52</title>
<path fill="none" stroke="midnightblue" d="M1298.2,-135.82C1322.11,-128.07 1349.2,-116.06 1369,-98 1389.35,-79.44 1401.37,-48.75 1407.03,-30.79"/>
</g>
<!-- Node39 -->
<g id="node14" class="node">
<title>Node39</title>
<g id="a_node14"><a xlink:href="ppppp_8cpp.html" target="_top" xlink:title=" ">
<polygon fill="white" stroke="black" points="1491.5,-0.5 1491.5,-30.5 1602.5,-30.5 1602.5,-0.5 1491.5,-0.5"/>
<text text-anchor="start" x="1499.5" y="-18.5" font-family="Helvetica,sans-Serif" font-size="10.00">/data/acs/ginan/src</text>
<text text-anchor="middle" x="1547" y="-7.5" font-family="Helvetica,sans-Serif" font-size="10.00">/cpp/pea/ppppp.cpp</text>
</a>
</g>
</g>
<!-- Node1&#45;&gt;Node39 -->
<g id="edge22" class="edge">
<title>Node1&#45;&gt;Node39</title>
<path fill="none" stroke="midnightblue" d="M1292.38,-134.44C1322.15,-125.24 1360.82,-112.31 1394,-98 1441.4,-77.56 1493.95,-47.93 1523.49,-30.6"/>
</g>
<!-- Node20 -->
<g id="node15" class="node">
<title>Node20</title>
<g id="a_node15"><a xlink:href="preprocessor_8cpp.html" target="_top" xlink:title=" ">
<polygon fill="white" stroke="black" points="1621,-0.5 1621,-30.5 1765,-30.5 1765,-0.5 1621,-0.5"/>
<text text-anchor="start" x="1629" y="-18.5" font-family="Helvetica,sans-Serif" font-size="10.00">/data/acs/ginan/src</text>
<text text-anchor="middle" x="1693" y="-7.5" font-family="Helvetica,sans-Serif" font-size="10.00">/cpp/pea/preprocessor.cpp</text>
</a>
</g>
</g>
<!-- Node1&#45;&gt;Node20 -->
<g id="edge23" class="edge">
<title>Node1&#45;&gt;Node20</title>
<path fill="none" stroke="midnightblue" d="M1298.17,-136.73C1337.45,-127.63 1391.59,-113.93 1438,-98 1470.95,-86.69 1477.13,-78.55 1510,-67 1550.89,-52.63 1598.06,-39.7 1634.26,-30.52"/>
</g>
<!-- Node121 -->
<g id="node16" class="node">
<title>Node121</title>
<g id="a_node16"><a xlink:href="walkthrough_8cpp.html" target="_top" xlink:title=" ">
<polygon fill="white" stroke="black" points="1030.5,-67.5 1030.5,-97.5 1197.5,-97.5 1197.5,-67.5 1030.5,-67.5"/>
<text text-anchor="start" x="1038.5" y="-85.5" font-family="Helvetica,sans-Serif" font-size="10.00">/data/acs/ginan/src</text>
<text text-anchor="middle" x="1114" y="-74.5" font-family="Helvetica,sans-Serif" font-size="10.00">/cpp/common/walkthrough.cpp</text>
</a>
</g>
</g>
<!-- Node1&#45;&gt;Node121 -->
<g id="edge15" class="edge">
<title>Node1&#45;&gt;Node121</title>
<path fill="none" stroke="midnightblue" d="M1215.79,-134.4C1193.99,-123.49 1163.94,-108.47 1142.15,-97.58"/>
</g>
<!-- Node57 -->
<g id="node17" class="node">
<title>Node57</title>
<g id="a_node17"><a xlink:href="spp_8cpp.html" target="_top" xlink:title=" ">
<polygon fill="white" stroke="black" points="1519,-67.5 1519,-97.5 1627,-97.5 1627,-67.5 1519,-67.5"/>
<text text-anchor="start" x="1527" y="-85.5" font-family="Helvetica,sans-Serif" font-size="10.00">/data/acs/ginan/src</text>
<text text-anchor="middle" x="1573" y="-74.5" font-family="Helvetica,sans-Serif" font-size="10.00">/cpp/pea/spp.cpp</text>
</a>
</g>
</g>
<!-- Node1&#45;&gt;Node57 -->
<g id="edge24" class="edge">
<title>Node1&#45;&gt;Node57</title>
<path fill="none" stroke="midnightblue" d="M1298.05,-138.35C1350.87,-128.36 1433.54,-112.53 1505,-98 1509.49,-97.09 1514.15,-96.12 1518.83,-95.15"/>
</g>
<!-- Node7&#45;&gt;Node18 -->
<g id="edge7" class="edge">
<title>Node7&#45;&gt;Node18</title>
<path fill="none" stroke="midnightblue" d="M871.95,-67.5C822.9,-57.6 755.87,-43.84 697,-31 694.15,-30.38 691.23,-29.73 688.28,-29.08"/>
</g>
<!-- Node7&#45;&gt;Node27 -->
<g id="edge8" class="edge">
<title>Node7&#45;&gt;Node27</title>
<path fill="none" stroke="midnightblue" d="M909.02,-67.4C883.52,-56.49 848.4,-41.47 822.92,-30.58"/>
</g>
<!-- Node7&#45;&gt;Node38 -->
<g id="edge9" class="edge">
<title>Node7&#45;&gt;Node38</title>
<path fill="none" stroke="midnightblue" d="M942.87,-67.4C943.54,-56.49 944.46,-41.47 945.13,-30.58"/>
</g>
<!-- Node7&#45;&gt;Node56 -->
<g id="edge10" class="edge">
<title>Node7&#45;&gt;Node56</title>
<path fill="none" stroke="midnightblue" d="M974.76,-67.4C1000.09,-56.49 1034.99,-41.47 1060.3,-30.58"/>
</g>
<!-- Node7&#45;&gt;Node49 -->
<g id="edge11" class="edge">
<title>Node7&#45;&gt;Node49</title>
<path fill="none" stroke="midnightblue" d="M1010.18,-67.48C1063.25,-56.56 1136.56,-41.48 1189.67,-30.55"/>
</g>
<!-- Node7&#45;&gt;Node52 -->
<g id="edge12" class="edge">
<title>Node7&#45;&gt;Node52</title>
<path fill="none" stroke="midnightblue" d="M1012.17,-68.36C1015.15,-67.89 1018.1,-67.43 1021,-67 1161.7,-46.15 1198.49,-53.06 1339,-31 1342.02,-30.53 1345.11,-30.01 1348.23,-29.47"/>
</g>
<!-- Node7&#45;&gt;Node39 -->
<g id="edge13" class="edge">
<title>Node7&#45;&gt;Node39</title>
<path fill="none" stroke="midnightblue" d="M1012.15,-68.23C1015.14,-67.79 1018.1,-67.38 1021,-67 1225.23,-40.37 1279.37,-61.84 1483,-31 1485.7,-30.59 1488.46,-30.13 1491.24,-29.63"/>
</g>
<!-- Node7&#45;&gt;Node20 -->
<g id="edge14" class="edge">
<title>Node7&#45;&gt;Node20</title>
<path fill="none" stroke="midnightblue" d="M1012.14,-68.17C1015.13,-67.75 1018.09,-67.35 1021,-67 1282.22,-35.19 1350.71,-62.24 1612,-31 1614.84,-30.66 1617.73,-30.29 1620.64,-29.88"/>
</g>
</g>
</svg>
