<?xml version="1.0" encoding="UTF-8" standalone="no"?>
<!DOCTYPE svg PUBLIC "-//W3C//DTD SVG 1.1//EN"
 "http://www.w3.org/Graphics/SVG/1.1/DTD/svg11.dtd">
<!-- Generated by graphviz version 2.43.0 (0)
 -->
<!-- Title: pppSatPCO Pages: 1 -->
<svg width="240pt" height="104pt"
 viewBox="0.00 0.00 240.00 104.00" xmlns="http://www.w3.org/2000/svg" xmlns:xlink="http://www.w3.org/1999/xlink">
<g id="graph0" class="graph" transform="scale(1 1) rotate(0) translate(4 100)">
<title>pppSatPCO</title>
<polygon fill="white" stroke="transparent" points="-4,4 -4,-100 236,-100 236,4 -4,4"/>
<!-- Node1 -->
<g id="node1" class="node">
<title>Node1</title>
<g id="a_node1"><a xlink:title=" ">
<polygon fill="#bfbfbf" stroke="black" points="0,-38.5 0,-57.5 71,-57.5 71,-38.5 0,-38.5"/>
<text text-anchor="middle" x="35.5" y="-45.5" font-family="Helvetica,sans-Serif" font-size="10.00">pppSatPCO</text>
</a>
</g>
</g>
<!-- Node2 -->
<g id="node2" class="node">
<title>Node2</title>
<g id="a_node2"><a xlink:href="antenna_8cpp.html#aa781255f62e500233148b6f4a9240740" target="_top" xlink:title="fetch pco">
<polygon fill="white" stroke="red" points="144.5,-76.5 144.5,-95.5 194.5,-95.5 194.5,-76.5 144.5,-76.5"/>
<text text-anchor="middle" x="169.5" y="-83.5" font-family="Helvetica,sans-Serif" font-size="10.00">antPco</text>
</a>
</g>
</g>
<!-- Node1&#45;&gt;Node2 -->
<g id="edge1" class="edge">
<title>Node1&#45;&gt;Node2</title>
<path fill="none" stroke="midnightblue" d="M69.81,-57.59C89.58,-63.28 114.59,-70.48 134.48,-76.21"/>
<polygon fill="midnightblue" stroke="midnightblue" points="133.79,-79.65 144.37,-79.05 135.72,-72.92 133.79,-79.65"/>
</g>
<!-- Node5 -->
<g id="node3" class="node">
<title>Node5</title>
<g id="a_node3"><a xlink:href="coordinates_8cpp.html#a10be80caafde8ea24dcfaf9296cb2daa" target="_top" xlink:title="transform vector in ecef frame to body">
<polygon fill="white" stroke="black" points="135.5,-38.5 135.5,-57.5 203.5,-57.5 203.5,-38.5 135.5,-38.5"/>
<text text-anchor="middle" x="169.5" y="-45.5" font-family="Helvetica,sans-Serif" font-size="10.00">ecef2body</text>
</a>
</g>
</g>
<!-- Node1&#45;&gt;Node5 -->
<g id="edge2" class="edge">
<title>Node1&#45;&gt;Node5</title>
<path fill="none" stroke="midnightblue" d="M71.18,-48C87.78,-48 107.83,-48 125.4,-48"/>
<polygon fill="midnightblue" stroke="midnightblue" points="125.41,-51.5 135.41,-48 125.41,-44.5 125.41,-51.5"/>
</g>
<!-- Node6 -->
<g id="node4" class="node">
<title>Node6</title>
<g id="a_node4"><a xlink:href="algebra_8cpp.html#a4a6a1ebf759ddc5d9d6d1de14269c5af" target="_top" xlink:title=" ">
<polygon fill="white" stroke="black" points="107,-0.5 107,-19.5 232,-19.5 232,-0.5 107,-0.5"/>
<text text-anchor="middle" x="169.5" y="-7.5" font-family="Helvetica,sans-Serif" font-size="10.00">initialStateFromConfig</text>
</a>
</g>
</g>
<!-- Node1&#45;&gt;Node6 -->
<g id="edge3" class="edge">
<title>Node1&#45;&gt;Node6</title>
<path fill="none" stroke="midnightblue" d="M69.81,-38.41C86.69,-33.55 107.39,-27.59 125.47,-22.39"/>
<polygon fill="midnightblue" stroke="midnightblue" points="126.56,-25.72 135.2,-19.59 124.62,-18.99 126.56,-25.72"/>
</g>
</g>
</svg>
