<?xml version="1.0" encoding="UTF-8" standalone="no"?>
<!DOCTYPE svg PUBLIC "-//W3C//DTD SVG 1.1//EN"
 "http://www.w3.org/Graphics/SVG/1.1/DTD/svg11.dtd">
<!-- Generated by graphviz version 2.43.0 (0)
 -->
<!-- Title: pppos Pages: 1 -->
<svg width="271pt" height="278pt"
 viewBox="0.00 0.00 271.00 278.34" xmlns="http://www.w3.org/2000/svg" xmlns:xlink="http://www.w3.org/1999/xlink">
<g id="graph0" class="graph" transform="scale(1 1) rotate(0) translate(4 274.34)">
<title>pppos</title>
<polygon fill="white" stroke="transparent" points="-4,4 -4,-274.34 267,-274.34 267,4 -4,4"/>
<!-- Node1 -->
<g id="node1" class="node">
<title>Node1</title>
<g id="a_node1"><a xlink:title=" ">
<polygon fill="#bfbfbf" stroke="black" points="0,-133.5 0,-152.5 46,-152.5 46,-133.5 0,-133.5"/>
<text text-anchor="middle" x="23" y="-140.5" font-family="Helvetica,sans-Serif" font-size="10.00">pppos</text>
</a>
</g>
</g>
<!-- Node2 -->
<g id="node2" class="node">
<title>Node2</title>
<g id="a_node2"><a xlink:href="streamTrace_8cpp.html#ae00e6addd3bdf3a7fd41a254eb9aec89" target="_top" xlink:title=" ">
<polygon fill="white" stroke="black" points="192,-123.5 192,-142.5 263,-142.5 263,-123.5 192,-123.5"/>
<text text-anchor="middle" x="227.5" y="-130.5" font-family="Helvetica,sans-Serif" font-size="10.00">tracepdeex</text>
</a>
</g>
</g>
<!-- Node1&#45;&gt;Node2 -->
<g id="edge1" class="edge">
<title>Node1&#45;&gt;Node2</title>
<path fill="none" stroke="midnightblue" d="M25.49,-152.61C29.62,-175.56 43.57,-233.44 82,-257 110.04,-274.19 128.62,-275.22 156,-257 190.5,-234.04 169.75,-205.96 192,-171 198.79,-160.33 208.67,-149.8 216.11,-142.54"/>
</g>
<!-- Node3 -->
<g id="node3" class="node">
<title>Node3</title>
<g id="a_node3"><a xlink:href="ephemeris_8cpp.html#acf14c43fc8c865aae63cb7408d64d0d5" target="_top" xlink:title="satellite positions and clocks.">
<polygon fill="white" stroke="red" points="92,-228.5 92,-247.5 146,-247.5 146,-228.5 92,-228.5"/>
<text text-anchor="middle" x="119" y="-235.5" font-family="Helvetica,sans-Serif" font-size="10.00">satposs</text>
</a>
</g>
</g>
<!-- Node1&#45;&gt;Node3 -->
<g id="edge2" class="edge">
<title>Node1&#45;&gt;Node3</title>
<path fill="none" stroke="midnightblue" d="M30.69,-152.97C40.73,-167.47 60.78,-194.75 82,-214 87.9,-219.35 95.08,-224.39 101.48,-228.45"/>
</g>
<!-- Node62 -->
<g id="node4" class="node">
<title>Node62</title>
<g id="a_node4"><a xlink:href="rtkcmn_8cpp.html#ae91d83cf693cdc7e1efacbe4d8d9656e" target="_top" xlink:title=" ">
<polygon fill="white" stroke="black" points="197,-180.5 197,-199.5 258,-199.5 258,-180.5 197,-180.5"/>
<text text-anchor="middle" x="227.5" y="-187.5" font-family="Helvetica,sans-Serif" font-size="10.00">ecef2pos</text>
</a>
</g>
</g>
<!-- Node1&#45;&gt;Node62 -->
<g id="edge4" class="edge">
<title>Node1&#45;&gt;Node62</title>
<path fill="none" stroke="midnightblue" d="M35.06,-152.8C46.09,-161.93 63.95,-175 82,-181 120.16,-193.69 167.07,-194.04 196.88,-192.51"/>
</g>
<!-- Node63 -->
<g id="node5" class="node">
<title>Node63</title>
<g id="a_node5"><a xlink:href="ppp_8cpp.html#a31da24b9718095fb343b7da6a677c72d" target="_top" xlink:title="ionospheric model">
<polygon fill="white" stroke="red" points="82,-152.5 82,-171.5 156,-171.5 156,-152.5 82,-152.5"/>
<text text-anchor="middle" x="119" y="-159.5" font-family="Helvetica,sans-Serif" font-size="10.00">model_iono</text>
</a>
</g>
</g>
<!-- Node1&#45;&gt;Node63 -->
<g id="edge5" class="edge">
<title>Node1&#45;&gt;Node63</title>
<path fill="none" stroke="midnightblue" d="M46.28,-147.5C56.92,-149.65 69.92,-152.28 81.92,-154.71"/>
</g>
<!-- Node72 -->
<g id="node6" class="node">
<title>Node72</title>
<g id="a_node6"><a xlink:href="tides_8cpp.html#a3faed0b0aa3e0d79b8615c68c7e085a0" target="_top" xlink:title=" ">
<polygon fill="white" stroke="red" points="91,-114.5 91,-133.5 147,-133.5 147,-114.5 91,-114.5"/>
<text text-anchor="middle" x="119" y="-121.5" font-family="Helvetica,sans-Serif" font-size="10.00">tidedisp</text>
</a>
</g>
</g>
<!-- Node1&#45;&gt;Node72 -->
<g id="edge6" class="edge">
<title>Node1&#45;&gt;Node72</title>
<path fill="none" stroke="midnightblue" d="M46.28,-138.5C59.63,-135.8 76.71,-132.35 90.85,-129.49"/>
</g>
<!-- Node54 -->
<g id="node7" class="node">
<title>Node54</title>
<g id="a_node7"><a xlink:href="gTime_8cpp.html#a853f281ccd45b714eb3edb14259a982a" target="_top" xlink:title=" ">
<polygon fill="white" stroke="red" points="89.5,-76.5 89.5,-95.5 148.5,-95.5 148.5,-76.5 89.5,-76.5"/>
<text text-anchor="middle" x="119" y="-83.5" font-family="Helvetica,sans-Serif" font-size="10.00">gpst2utc</text>
</a>
</g>
</g>
<!-- Node1&#45;&gt;Node54 -->
<g id="edge8" class="edge">
<title>Node1&#45;&gt;Node54</title>
<path fill="none" stroke="midnightblue" d="M38.06,-133.25C49.67,-125.34 66.65,-114.05 82,-105 87.48,-101.77 93.55,-98.46 99.13,-95.53"/>
</g>
<!-- Node82 -->
<g id="node8" class="node">
<title>Node82</title>
<g id="a_node8"><a xlink:href="ppp__user_8cpp.html#ac0b785b6dec8932f23a644d4c41788de" target="_top" xlink:title=" ">
<polygon fill="white" stroke="red" points="87.5,-38.5 87.5,-57.5 150.5,-57.5 150.5,-38.5 87.5,-38.5"/>
<text text-anchor="middle" x="119" y="-45.5" font-family="Helvetica,sans-Serif" font-size="10.00">ppp_filter</text>
</a>
</g>
</g>
<!-- Node1&#45;&gt;Node82 -->
<g id="edge9" class="edge">
<title>Node1&#45;&gt;Node82</title>
<path fill="none" stroke="midnightblue" d="M29.65,-133.03C38.92,-117.36 58.69,-86.73 82,-67 86.21,-63.44 91.19,-60.28 96.09,-57.62"/>
</g>
<!-- Node158 -->
<g id="node9" class="node">
<title>Node158</title>
<g id="a_node9"><a xlink:href="ppp__user_8cpp.html#a1cdb5bdf7cff2c403618b96a17aea52a" target="_top" xlink:title=" ">
<polygon fill="white" stroke="red" points="82,-0.5 82,-19.5 156,-19.5 156,-0.5 82,-0.5"/>
<text text-anchor="middle" x="119" y="-7.5" font-family="Helvetica,sans-Serif" font-size="10.00">update_stat</text>
</a>
</g>
</g>
<!-- Node1&#45;&gt;Node158 -->
<g id="edge12" class="edge">
<title>Node1&#45;&gt;Node158</title>
<path fill="none" stroke="midnightblue" d="M26.73,-133.24C33.14,-111.9 50.99,-60.48 82,-29 85.67,-25.27 90.23,-22.12 94.85,-19.51"/>
</g>
<!-- Node3&#45;&gt;Node2 -->
<g id="edge3" class="edge">
<title>Node3&#45;&gt;Node2</title>
<path fill="none" stroke="midnightblue" d="M129.83,-228.31C150.12,-208.31 196.43,-162.65 216.7,-142.67"/>
</g>
<!-- Node72&#45;&gt;Node2 -->
<g id="edge7" class="edge">
<title>Node72&#45;&gt;Node2</title>
<path fill="none" stroke="midnightblue" d="M147.15,-126.29C160.71,-127.44 177.27,-128.84 191.74,-130.06"/>
</g>
<!-- Node82&#45;&gt;Node2 -->
<g id="edge11" class="edge">
<title>Node82&#45;&gt;Node2</title>
<path fill="none" stroke="midnightblue" d="M140.37,-57.54C145.63,-60.33 151.17,-63.56 156,-67 180.31,-84.32 204.9,-109.46 217.62,-123.18"/>
</g>
<!-- Node82&#45;&gt;Node62 -->
<g id="edge10" class="edge">
<title>Node82&#45;&gt;Node62</title>
<path fill="none" stroke="midnightblue" d="M143.72,-57.53C148.2,-60.11 152.56,-63.25 156,-67 183.75,-97.22 169.9,-117.44 192,-152 198.82,-162.66 208.69,-173.19 216.12,-180.45"/>
</g>
</g>
</svg>
