<?xml version="1.0" encoding="UTF-8" standalone="no"?>
<!DOCTYPE svg PUBLIC "-//W3C//DTD SVG 1.1//EN"
 "http://www.w3.org/Graphics/SVG/1.1/DTD/svg11.dtd">
<!-- Generated by graphviz version 2.43.0 (0)
 -->
<!-- Title: PPP Pages: 1 -->
<svg width="272pt" height="85pt"
 viewBox="0.00 0.00 272.00 85.00" xmlns="http://www.w3.org/2000/svg" xmlns:xlink="http://www.w3.org/1999/xlink">
<g id="graph0" class="graph" transform="scale(1 1) rotate(0) translate(4 81)">
<title>PPP</title>
<polygon fill="white" stroke="transparent" points="-4,4 -4,-81 268,-81 268,4 -4,4"/>
<!-- Node1 -->
<g id="node1" class="node">
<title>Node1</title>
<g id="a_node1"><a xlink:title=" ">
<polygon fill="#bfbfbf" stroke="black" points="229,-19.5 229,-38.5 264,-38.5 264,-19.5 229,-19.5"/>
<text text-anchor="middle" x="246.5" y="-26.5" font-family="Helvetica,sans-Serif" font-size="10.00">PPP</text>
</a>
</g>
</g>
<!-- Node2 -->
<g id="node2" class="node">
<title>Node2</title>
<g id="a_node2"><a xlink:href="main_8cpp.html#adec1174713b31a762011c372983df1e5" target="_top" xlink:title=" ">
<polygon fill="white" stroke="red" points="82,-57.5 82,-76.5 193,-76.5 193,-57.5 82,-57.5"/>
<text text-anchor="middle" x="137.5" y="-64.5" font-family="Helvetica,sans-Serif" font-size="10.00">mainOncePerEpoch</text>
</a>
</g>
</g>
<!-- Node1&#45;&gt;Node2 -->
<g id="edge1" class="edge">
<title>Node1&#45;&gt;Node2</title>
<path fill="none" stroke="midnightblue" d="M228.97,-35.04C218.64,-38.8 205.06,-43.72 193,-48 184.22,-51.12 174.63,-54.48 165.97,-57.49"/>
</g>
<!-- Node5 -->
<g id="node3" class="node">
<title>Node5</title>
<g id="a_node3"><a xlink:href="ppp__user_8cpp.html#a36a79c2aba8e8ad20aa9616988ec3269" target="_top" xlink:title=" ">
<polygon fill="white" stroke="black" points="106,-19.5 106,-38.5 169,-38.5 169,-19.5 106,-19.5"/>
<text text-anchor="middle" x="137.5" y="-26.5" font-family="Helvetica,sans-Serif" font-size="10.00">ppp_filter</text>
</a>
</g>
</g>
<!-- Node1&#45;&gt;Node5 -->
<g id="edge2" class="edge">
<title>Node1&#45;&gt;Node5</title>
<path fill="none" stroke="midnightblue" d="M228.78,-29C212.91,-29 188.67,-29 169.31,-29"/>
</g>
<!-- Node6 -->
<g id="node4" class="node">
<title>Node6</title>
<g id="a_node4"><a xlink:href="ppp__user_8cpp.html#a70cbdeafd26c3c4a863baa1a23e760a8" target="_top" xlink:title="precise point positioning">
<polygon fill="white" stroke="red" points="0,-0.5 0,-19.5 46,-19.5 46,-0.5 0,-0.5"/>
<text text-anchor="middle" x="23" y="-7.5" font-family="Helvetica,sans-Serif" font-size="10.00">pppos</text>
</a>
</g>
</g>
<!-- Node1&#45;&gt;Node6 -->
<g id="edge4" class="edge">
<title>Node1&#45;&gt;Node6</title>
<path fill="none" stroke="midnightblue" d="M228.89,-21.3C218.76,-17.04 205.41,-12.18 193,-10 140.98,-0.88 78.56,-4.58 46.09,-7.59"/>
</g>
<!-- Node5&#45;&gt;Node6 -->
<g id="edge3" class="edge">
<title>Node5&#45;&gt;Node6</title>
<path fill="none" stroke="midnightblue" d="M105.76,-23.81C86.89,-20.62 63.17,-16.62 46.14,-13.74"/>
</g>
</g>
</svg>
