<?xml version="1.0" encoding="UTF-8" standalone="no"?>
<!DOCTYPE svg PUBLIC "-//W3C//DTD SVG 1.1//EN"
 "http://www.w3.org/Graphics/SVG/1.1/DTD/svg11.dtd">
<!-- Generated by graphviz version 2.43.0 (0)
 -->
<!-- Title: orbitPseudoObs Pages: 1 -->
<svg width="460pt" height="446pt"
 viewBox="0.00 0.00 460.00 446.00" xmlns="http://www.w3.org/2000/svg" xmlns:xlink="http://www.w3.org/1999/xlink">
<g id="graph0" class="graph" transform="scale(1 1) rotate(0) translate(4 442)">
<title>orbitPseudoObs</title>
<polygon fill="white" stroke="transparent" points="-4,4 -4,-442 456,-442 456,4 -4,4"/>
<!-- Node1 -->
<g id="node1" class="node">
<title>Node1</title>
<g id="a_node1"><a xlink:title=" ">
<polygon fill="#bfbfbf" stroke="black" points="0,-209.5 0,-228.5 93,-228.5 93,-209.5 0,-209.5"/>
<text text-anchor="middle" x="46.5" y="-216.5" font-family="Helvetica,sans-Serif" font-size="10.00">orbitPseudoObs</text>
</a>
</g>
</g>
<!-- Node2 -->
<g id="node2" class="node">
<title>Node2</title>
<g id="a_node2"><a xlink:href="erp_8cpp.html#a6c6ecf3c5c7d4367d78ad08621996580" target="_top" xlink:title="Get earth rotation parameter values.">
<polygon fill="white" stroke="red" points="185.5,-418.5 185.5,-437.5 233.5,-437.5 233.5,-418.5 185.5,-418.5"/>
<text text-anchor="middle" x="209.5" y="-425.5" font-family="Helvetica,sans-Serif" font-size="10.00">getErp</text>
</a>
</g>
</g>
<!-- Node1&#45;&gt;Node2 -->
<g id="edge1" class="edge">
<title>Node1&#45;&gt;Node2</title>
<path fill="none" stroke="midnightblue" d="M48.62,-228.67C52.77,-259.99 70.26,-359.51 129,-409 144.74,-422.26 168.15,-426.59 185.5,-427.86"/>
</g>
<!-- Node6 -->
<g id="node3" class="node">
<title>Node6</title>
<g id="a_node3"><a xlink:href="structACSConfig.html#aeba33c340b4695e47f2d41bf97402400" target="_top" xlink:title="Set satellite options for a specific satellite using a hierarchy of sources.">
<polygon fill="white" stroke="red" points="145.5,-380.5 145.5,-399.5 273.5,-399.5 273.5,-380.5 145.5,-380.5"/>
<text text-anchor="middle" x="209.5" y="-387.5" font-family="Helvetica,sans-Serif" font-size="10.00">ACSConfig::getSatOpts</text>
</a>
</g>
</g>
<!-- Node1&#45;&gt;Node6 -->
<g id="edge2" class="edge">
<title>Node1&#45;&gt;Node6</title>
<path fill="none" stroke="midnightblue" d="M49.72,-228.63C56.48,-255.66 79.43,-332.8 129,-371 134.06,-374.9 139.79,-378.01 145.81,-380.5"/>
</g>
<!-- Node24 -->
<g id="node4" class="node">
<title>Node24</title>
<g id="a_node4"><a xlink:href="ephemeris_8cpp.html#a86b1602f8ee3a6b7220b506825592953" target="_top" xlink:title="compute satellite position and clock satellite clock does not include code bias correction (tgd or bg...">
<polygon fill="white" stroke="red" points="185,-342.5 185,-361.5 234,-361.5 234,-342.5 185,-342.5"/>
<text text-anchor="middle" x="209.5" y="-349.5" font-family="Helvetica,sans-Serif" font-size="10.00">satpos</text>
</a>
</g>
</g>
<!-- Node1&#45;&gt;Node24 -->
<g id="edge3" class="edge">
<title>Node1&#45;&gt;Node24</title>
<path fill="none" stroke="midnightblue" d="M52.09,-228.79C62.6,-250.12 90.49,-301.03 129,-328 145.65,-339.66 168.08,-345.76 184.87,-348.88"/>
</g>
<!-- Node53 -->
<g id="node5" class="node">
<title>Node53</title>
<g id="a_node5"><a xlink:href="algebra_8cpp.html#a304f0d512353a3c5a991c2439ea73287" target="_top" xlink:title=" ">
<polygon fill="white" stroke="black" points="326,-247.5 326,-266.5 452,-266.5 452,-247.5 326,-247.5"/>
<text text-anchor="middle" x="389" y="-254.5" font-family="Helvetica,sans-Serif" font-size="10.00">initialStateFromConfig</text>
</a>
</g>
</g>
<!-- Node1&#45;&gt;Node53 -->
<g id="edge4" class="edge">
<title>Node1&#45;&gt;Node53</title>
<path fill="none" stroke="midnightblue" d="M53.94,-228.59C66.17,-245.82 94.62,-281.46 129,-295 195.58,-321.23 219.66,-308.16 290,-295 318.88,-289.6 350.19,-275.96 369.46,-266.58"/>
</g>
<!-- Node54 -->
<g id="node6" class="node">
<title>Node54</title>
<g id="a_node6"><a xlink:href="structKFState.html#a405c50a3085d8328e81dcd6786f775d3" target="_top" xlink:title="Returns the value and variance of a state within the kalman filter object.">
<polygon fill="white" stroke="black" points="151,-266.5 151,-285.5 268,-285.5 268,-266.5 151,-266.5"/>
<text text-anchor="middle" x="209.5" y="-273.5" font-family="Helvetica,sans-Serif" font-size="10.00">KFState::getKFValue</text>
</a>
</g>
</g>
<!-- Node1&#45;&gt;Node54 -->
<g id="edge5" class="edge">
<title>Node1&#45;&gt;Node54</title>
<path fill="none" stroke="midnightblue" d="M69.43,-228.52C85.72,-235.43 108.56,-244.79 129,-252 143.68,-257.18 160.13,-262.26 174.23,-266.4"/>
</g>
<!-- Node55 -->
<g id="node7" class="node">
<title>Node55</title>
<g id="a_node7"><a xlink:href="structKFState.html#a8713f4fe8effc58341d60afc0085f953" target="_top" xlink:title="Tries to add a state to the filter object.">
<polygon fill="white" stroke="black" points="330.5,-152.5 330.5,-171.5 447.5,-171.5 447.5,-152.5 330.5,-152.5"/>
<text text-anchor="middle" x="389" y="-159.5" font-family="Helvetica,sans-Serif" font-size="10.00">KFState::addKFState</text>
</a>
</g>
</g>
<!-- Node1&#45;&gt;Node55 -->
<g id="edge6" class="edge">
<title>Node1&#45;&gt;Node55</title>
<path fill="none" stroke="midnightblue" d="M93.12,-225.97C142.56,-231.92 223.34,-236.98 290,-219 324.21,-209.78 358.76,-185.34 376.26,-171.65"/>
</g>
<!-- Node56 -->
<g id="node8" class="node">
<title>Node56</title>
<g id="a_node8"><a xlink:href="structKFMeasEntry.html#a5acb825be0bbd5c284f5922b2fa82242" target="_top" xlink:title="Adds a design matrix entry for this measurement.">
<polygon fill="white" stroke="black" points="132,-190.5 132,-209.5 287,-209.5 287,-190.5 132,-190.5"/>
<text text-anchor="middle" x="209.5" y="-197.5" font-family="Helvetica,sans-Serif" font-size="10.00">KFMeasEntry::addDsgnEntry</text>
</a>
</g>
</g>
<!-- Node1&#45;&gt;Node56 -->
<g id="edge7" class="edge">
<title>Node1&#45;&gt;Node56</title>
<path fill="none" stroke="midnightblue" d="M93.21,-213.61C105.29,-212.18 118.67,-210.6 131.91,-209.04"/>
</g>
<!-- Node57 -->
<g id="node9" class="node">
<title>Node57</title>
<g id="a_node9"><a xlink:href="structKFState.html#a33ad852c99520415337196b0c62f0909" target="_top" xlink:title="Adds dynamics to a filter state by inserting off&#45;diagonal, time dependent elements to transition matr...">
<polygon fill="white" stroke="black" points="141,-152.5 141,-171.5 278,-171.5 278,-152.5 141,-152.5"/>
<text text-anchor="middle" x="209.5" y="-159.5" font-family="Helvetica,sans-Serif" font-size="10.00">KFState::setKFTransRate</text>
</a>
</g>
</g>
<!-- Node1&#45;&gt;Node57 -->
<g id="edge8" class="edge">
<title>Node1&#45;&gt;Node57</title>
<path fill="none" stroke="midnightblue" d="M65.19,-209.48C81.42,-201.06 106.3,-188.91 129,-181 139.32,-177.4 150.62,-174.25 161.38,-171.6"/>
</g>
<!-- Node58 -->
<g id="node10" class="node">
<title>Node58</title>
<g id="a_node10"><a xlink:href="structKFMeasEntry.html#ac15ff59e0acb09be8ed75ccee2411dd2" target="_top" xlink:title="Adds the innovation value for this measurement.">
<polygon fill="white" stroke="black" points="145.5,-114.5 145.5,-133.5 273.5,-133.5 273.5,-114.5 145.5,-114.5"/>
<text text-anchor="middle" x="209.5" y="-121.5" font-family="Helvetica,sans-Serif" font-size="10.00">KFMeasEntry::setInnov</text>
</a>
</g>
</g>
<!-- Node1&#45;&gt;Node58 -->
<g id="edge10" class="edge">
<title>Node1&#45;&gt;Node58</title>
<path fill="none" stroke="midnightblue" d="M54.91,-209.4C68.02,-193.12 96.95,-160.2 129,-143 136.25,-139.11 144.3,-136 152.41,-133.53"/>
</g>
<!-- Node59 -->
<g id="node11" class="node">
<title>Node59</title>
<g id="a_node11"><a xlink:href="structKFMeasEntry.html#a7b34625115c46a7943e1ac8ffb7478e9" target="_top" xlink:title="Adds a noise element for this measurement.">
<polygon fill="white" stroke="red" points="130.5,-76.5 130.5,-95.5 288.5,-95.5 288.5,-76.5 130.5,-76.5"/>
<text text-anchor="middle" x="209.5" y="-83.5" font-family="Helvetica,sans-Serif" font-size="10.00">KFMeasEntry::addNoiseEntry</text>
</a>
</g>
</g>
<!-- Node1&#45;&gt;Node59 -->
<g id="edge11" class="edge">
<title>Node1&#45;&gt;Node59</title>
<path fill="none" stroke="midnightblue" d="M51.55,-209.26C61.33,-187.01 88.43,-132.3 129,-105 134.77,-101.12 141.24,-98.03 147.94,-95.56"/>
</g>
<!-- Node61 -->
<g id="node12" class="node">
<title>Node61</title>
<g id="a_node12"><a xlink:href="structKFState.html#af61c11042a105999c159c7461696eacf" target="_top" xlink:title=" ">
<polygon fill="white" stroke="black" points="129,-38.5 129,-57.5 290,-57.5 290,-38.5 129,-38.5"/>
<text text-anchor="middle" x="209.5" y="-45.5" font-family="Helvetica,sans-Serif" font-size="10.00">KFState::setExponentialNoise</text>
</a>
</g>
</g>
<!-- Node1&#45;&gt;Node61 -->
<g id="edge12" class="edge">
<title>Node1&#45;&gt;Node61</title>
<path fill="none" stroke="midnightblue" d="M49.72,-209.37C56.48,-182.34 79.43,-105.2 129,-67 134.06,-63.1 139.79,-59.99 145.81,-57.5"/>
</g>
<!-- Node62 -->
<g id="node13" class="node">
<title>Node62</title>
<g id="a_node13"><a xlink:href="orbitProp_8cpp.html#a91e0d42d2968da7ac434bf2dc8ff526f" target="_top" xlink:title=" ">
<polygon fill="white" stroke="black" points="152,-0.5 152,-19.5 267,-19.5 267,-0.5 152,-0.5"/>
<text text-anchor="middle" x="209.5" y="-7.5" font-family="Helvetica,sans-Serif" font-size="10.00">addKFSatEMPStates</text>
</a>
</g>
</g>
<!-- Node1&#45;&gt;Node62 -->
<g id="edge13" class="edge">
<title>Node1&#45;&gt;Node62</title>
<path fill="none" stroke="midnightblue" d="M48.62,-209.33C52.77,-178.01 70.26,-78.49 129,-29 135.62,-23.42 143.6,-19.42 151.91,-16.57"/>
</g>
<!-- Node57&#45;&gt;Node55 -->
<g id="edge9" class="edge">
<title>Node57&#45;&gt;Node55</title>
<path fill="none" stroke="midnightblue" d="M278.11,-162C295.35,-162 313.73,-162 330.42,-162"/>
</g>
<!-- Node62&#45;&gt;Node53 -->
<g id="edge14" class="edge">
<title>Node62&#45;&gt;Node53</title>
<path fill="none" stroke="midnightblue" d="M267.16,-15.32C275.66,-18.31 283.68,-22.67 290,-29 339.04,-78.14 295.28,-118.74 326,-181 339.26,-207.88 363.59,-233.72 377.51,-247.25"/>
</g>
<!-- Node62&#45;&gt;Node55 -->
<g id="edge15" class="edge">
<title>Node62&#45;&gt;Node55</title>
<path fill="none" stroke="midnightblue" d="M267.29,-18.36C275.31,-20.99 283.14,-24.45 290,-29 339.25,-61.64 372.7,-127.87 383.88,-152.5"/>
</g>
</g>
</svg>
