<?xml version="1.0" encoding="UTF-8" standalone="no"?>
<!DOCTYPE svg PUBLIC "-//W3C//DTD SVG 1.1//EN"
 "http://www.w3.org/Graphics/SVG/1.1/DTD/svg11.dtd">
<!-- Generated by graphviz version 2.43.0 (0)
 -->
<!-- Title: satQuat Pages: 1 -->
<svg width="174pt" height="66pt"
 viewBox="0.00 0.00 174.00 66.00" xmlns="http://www.w3.org/2000/svg" xmlns:xlink="http://www.w3.org/1999/xlink">
<g id="graph0" class="graph" transform="scale(1 1) rotate(0) translate(4 62)">
<title>satQuat</title>
<polygon fill="white" stroke="transparent" points="-4,4 -4,-62 170,-62 170,4 -4,4"/>
<!-- Node1 -->
<g id="node1" class="node">
<title>Node1</title>
<g id="a_node1"><a xlink:title="Satellite attitude &#45; calculates attitude of satellite as a quaternion (ECEF) Also transforms coordina...">
<polygon fill="#bfbfbf" stroke="black" points="0,-19.5 0,-38.5 55,-38.5 55,-19.5 0,-19.5"/>
<text text-anchor="middle" x="27.5" y="-26.5" font-family="Helvetica,sans-Serif" font-size="10.00">satQuat</text>
</a>
</g>
</g>
<!-- Node2 -->
<g id="node2" class="node">
<title>Node2</title>
<g id="a_node2"><a xlink:href="attitude_8cpp.html#a9f0fa1f1a86bfae5e0569b3b9b37811e" target="_top" xlink:title="Calculates satellite attitude &#45; unit vectors of satellite&#45;fixed coordinates (ECEF) Returns false if n...">
<polygon fill="white" stroke="red" points="105.5,-38.5 105.5,-57.5 151.5,-57.5 151.5,-38.5 105.5,-38.5"/>
<text text-anchor="middle" x="128.5" y="-45.5" font-family="Helvetica,sans-Serif" font-size="10.00">satAtt</text>
</a>
</g>
</g>
<!-- Node1&#45;&gt;Node2 -->
<g id="edge1" class="edge">
<title>Node1&#45;&gt;Node2</title>
<path fill="none" stroke="midnightblue" d="M55.03,-34.09C70.72,-37.1 90.37,-40.87 105.25,-43.73"/>
</g>
<!-- Node16 -->
<g id="node3" class="node">
<title>Node16</title>
<g id="a_node3"><a xlink:href="attitude_8cpp.html#a1a74c02f9b5272b79ed718d28dcc3429" target="_top" xlink:title="Converts coords of frame A (expressed in frame G) into transformation matrix from A to G E....">
<polygon fill="white" stroke="black" points="91,-0.5 91,-19.5 166,-19.5 166,-0.5 91,-0.5"/>
<text text-anchor="middle" x="128.5" y="-7.5" font-family="Helvetica,sans-Serif" font-size="10.00">rotBasisMat</text>
</a>
</g>
</g>
<!-- Node1&#45;&gt;Node16 -->
<g id="edge2" class="edge">
<title>Node1&#45;&gt;Node16</title>
<path fill="none" stroke="midnightblue" d="M55.03,-23.91C66.03,-21.8 78.97,-19.31 90.85,-17.03"/>
</g>
</g>
</svg>
