<?xml version="1.0" encoding="UTF-8" standalone="no"?>
<!DOCTYPE svg PUBLIC "-//W3C//DTD SVG 1.1//EN"
 "http://www.w3.org/Graphics/SVG/1.1/DTD/svg11.dtd">
<!-- Generated by graphviz version 2.43.0 (0)
 -->
<!-- Title: PPP Pages: 1 -->
<svg width="391pt" height="1142pt"
 viewBox="0.00 0.00 391.00 1142.00" xmlns="http://www.w3.org/2000/svg" xmlns:xlink="http://www.w3.org/1999/xlink">
<g id="graph0" class="graph" transform="scale(1 1) rotate(0) translate(4 1138)">
<title>PPP</title>
<polygon fill="white" stroke="transparent" points="-4,4 -4,-1138 387,-1138 387,4 -4,4"/>
<!-- Node1 -->
<g id="node1" class="node">
<title>Node1</title>
<g id="a_node1"><a xlink:title=" ">
<polygon fill="#bfbfbf" stroke="black" points="0,-563.5 0,-582.5 35,-582.5 35,-563.5 0,-563.5"/>
<text text-anchor="middle" x="17.5" y="-570.5" font-family="Helvetica,sans-Serif" font-size="10.00">PPP</text>
</a>
</g>
</g>
<!-- Node2 -->
<g id="node2" class="node">
<title>Node2</title>
<g id="a_node2"><a xlink:href="networkEstimator_8cpp.html#a6f931c9f8705f676bf9484e521e15643" target="_top" xlink:title="Remove ambiguity states from filter when they deemed old or bad This effectively reinitialises them o...">
<polygon fill="white" stroke="red" points="85,-1114.5 85,-1133.5 216,-1133.5 216,-1114.5 85,-1114.5"/>
<text text-anchor="middle" x="150.5" y="-1121.5" font-family="Helvetica,sans-Serif" font-size="10.00">removeBadAmbiguities</text>
</a>
</g>
</g>
<!-- Node1&#45;&gt;Node2 -->
<g id="edge1" class="edge">
<title>Node1&#45;&gt;Node2</title>
<path fill="none" stroke="midnightblue" d="M18.79,-582.76C20.95,-651.71 35.29,-1063.95 71,-1105 74.86,-1109.44 79.57,-1112.94 84.75,-1115.68"/>
</g>
<!-- Node18 -->
<g id="node3" class="node">
<title>Node18</title>
<g id="a_node3"><a xlink:href="networkEstimator_8cpp.html#a3d11452be1ce2ea58117c7fd3ac9f981" target="_top" xlink:title="Remove ambiguity states from filter when they deemed old or bad This effectively reinitialises them o...">
<polygon fill="white" stroke="red" points="84.5,-1076.5 84.5,-1095.5 216.5,-1095.5 216.5,-1076.5 84.5,-1076.5"/>
<text text-anchor="middle" x="150.5" y="-1083.5" font-family="Helvetica,sans-Serif" font-size="10.00">removeBadIonospheres</text>
</a>
</g>
</g>
<!-- Node1&#45;&gt;Node18 -->
<g id="edge2" class="edge">
<title>Node1&#45;&gt;Node18</title>
<path fill="none" stroke="midnightblue" d="M18.88,-582.9C21.49,-649.36 37.82,-1029.14 71,-1067 74.79,-1071.32 79.38,-1074.75 84.41,-1077.45"/>
</g>
<!-- Node19 -->
<g id="node4" class="node">
<title>Node19</title>
<g id="a_node4"><a xlink:href="structKFState.html#a405c50a3085d8328e81dcd6786f775d3" target="_top" xlink:title="Returns the value and variance of a state within the kalman filter object.">
<polygon fill="white" stroke="black" points="266,-620.5 266,-639.5 383,-639.5 383,-620.5 266,-620.5"/>
<text text-anchor="middle" x="324.5" y="-627.5" font-family="Helvetica,sans-Serif" font-size="10.00">KFState::getKFValue</text>
</a>
</g>
</g>
<!-- Node1&#45;&gt;Node19 -->
<g id="edge39" class="edge">
<title>Node1&#45;&gt;Node19</title>
<path fill="none" stroke="midnightblue" d="M19.05,-563.26C22.42,-505.28 41.16,-207.11 71,-181 124.18,-134.47 175.17,-136.41 230,-181 301.66,-239.27 320.23,-560.69 323.08,-620.44"/>
</g>
<!-- Node20 -->
<g id="node5" class="node">
<title>Node20</title>
<g id="a_node5"><a xlink:href="networkEstimator_8cpp.html#a1b145154bdf2c87b17222894b3d8b80f" target="_top" xlink:title=" ">
<polygon fill="white" stroke="black" points="85.5,-1038.5 85.5,-1057.5 215.5,-1057.5 215.5,-1038.5 85.5,-1038.5"/>
<text text-anchor="middle" x="150.5" y="-1045.5" font-family="Helvetica,sans-Serif" font-size="10.00">incrementOutageCount</text>
</a>
</g>
</g>
<!-- Node1&#45;&gt;Node20 -->
<g id="edge4" class="edge">
<title>Node1&#45;&gt;Node20</title>
<path fill="none" stroke="midnightblue" d="M18.95,-582.54C21.99,-645.01 40.25,-994.22 71,-1029 74.99,-1033.52 79.86,-1037.05 85.19,-1039.81"/>
</g>
<!-- Node21 -->
<g id="node6" class="node">
<title>Node21</title>
<g id="a_node6"><a xlink:href="ppppp_8cpp.html#a0544cce952f9b2692ee25b1aa22753c0" target="_top" xlink:title="Prepare receiver clocks using spp values to minimise pre&#45;fit residuals.">
<polygon fill="white" stroke="red" points="100,-1000.5 100,-1019.5 201,-1019.5 201,-1000.5 100,-1000.5"/>
<text text-anchor="middle" x="150.5" y="-1007.5" font-family="Helvetica,sans-Serif" font-size="10.00">updateRecClocks</text>
</a>
</g>
</g>
<!-- Node1&#45;&gt;Node21 -->
<g id="edge5" class="edge">
<title>Node1&#45;&gt;Node21</title>
<path fill="none" stroke="midnightblue" d="M18.29,-582.74C17.25,-639.6 14.84,-928.14 71,-991 78.47,-999.37 88.94,-1004.36 99.8,-1007.27"/>
</g>
<!-- Node25 -->
<g id="node7" class="node">
<title>Node25</title>
<g id="a_node7"><a xlink:href="orbitProp_8cpp.html#ac187c34f2edcea140a2372d5e60ee676" target="_top" xlink:title="Use models to predict orbital motion and prepare state transition equations to implement those predic...">
<polygon fill="white" stroke="red" points="110.5,-962.5 110.5,-981.5 190.5,-981.5 190.5,-962.5 110.5,-962.5"/>
<text text-anchor="middle" x="150.5" y="-969.5" font-family="Helvetica,sans-Serif" font-size="10.00">predictOrbits</text>
</a>
</g>
</g>
<!-- Node1&#45;&gt;Node25 -->
<g id="edge6" class="edge">
<title>Node1&#45;&gt;Node25</title>
<path fill="none" stroke="midnightblue" d="M18.42,-582.55C18.19,-635.87 19.73,-896.32 71,-953 80.97,-964.02 96.14,-969.18 110.5,-971.43"/>
</g>
<!-- Node33 -->
<g id="node8" class="node">
<title>Node33</title>
<g id="a_node8"><a xlink:href="structKFState.html#a7f8e4b9291361c063cef8d9178f07707" target="_top" xlink:title="Add process noise and dynamics to filter object according to time gap.">
<polygon fill="white" stroke="red" points="83.5,-924.5 83.5,-943.5 217.5,-943.5 217.5,-924.5 83.5,-924.5"/>
<text text-anchor="middle" x="150.5" y="-931.5" font-family="Helvetica,sans-Serif" font-size="10.00">KFState::stateTransition</text>
</a>
</g>
</g>
<!-- Node1&#45;&gt;Node33 -->
<g id="edge7" class="edge">
<title>Node1&#45;&gt;Node33</title>
<path fill="none" stroke="midnightblue" d="M18.58,-582.57C19.22,-632.69 24.68,-864.56 71,-915 74.51,-918.82 78.64,-921.94 83.15,-924.47"/>
</g>
<!-- Node38 -->
<g id="node9" class="node">
<title>Node38</title>
<g id="a_node9"><a xlink:href="structKFState.html#a0c84e911a5ea760fe728baec661e33f0" target="_top" xlink:title="Output keys and states in human readable format.">
<polygon fill="white" stroke="red" points="89,-886.5 89,-905.5 212,-905.5 212,-886.5 89,-886.5"/>
<text text-anchor="middle" x="150.5" y="-893.5" font-family="Helvetica,sans-Serif" font-size="10.00">KFState::outputStates</text>
</a>
</g>
</g>
<!-- Node1&#45;&gt;Node38 -->
<g id="edge8" class="edge">
<title>Node1&#45;&gt;Node38</title>
<path fill="none" stroke="midnightblue" d="M18.79,-582.73C20.39,-629.72 29.65,-832.81 71,-877 75.98,-882.32 82.18,-886.27 88.89,-889.18"/>
</g>
<!-- Node39 -->
<g id="node10" class="node">
<title>Node39</title>
<g id="a_node10"><a xlink:href="trace_8cpp.html#ae00e6addd3bdf3a7fd41a254eb9aec89" target="_top" xlink:title=" ">
<polygon fill="white" stroke="black" points="289,-658.5 289,-677.5 360,-677.5 360,-658.5 289,-658.5"/>
<text text-anchor="middle" x="324.5" y="-665.5" font-family="Helvetica,sans-Serif" font-size="10.00">tracepdeex</text>
</a>
</g>
</g>
<!-- Node1&#45;&gt;Node39 -->
<g id="edge40" class="edge">
<title>Node1&#45;&gt;Node39</title>
<path fill="none" stroke="midnightblue" d="M19.05,-563.26C22.42,-505.28 41.16,-207.11 71,-181 124.18,-134.47 178.15,-132.99 230,-181 306.53,-251.87 201.7,-566.87 266,-649 271.64,-656.2 280.09,-660.7 288.78,-663.51"/>
</g>
<!-- Node41 -->
<g id="node11" class="node">
<title>Node41</title>
<g id="a_node11"><a xlink:href="ppp__pseudoobs_8cpp.html#a949a10f89de8232ebeb49ad5d912ba80" target="_top" xlink:title=" ">
<polygon fill="white" stroke="red" points="104,-848.5 104,-867.5 197,-867.5 197,-848.5 104,-848.5"/>
<text text-anchor="middle" x="150.5" y="-855.5" font-family="Helvetica,sans-Serif" font-size="10.00">orbitPseudoObs</text>
</a>
</g>
</g>
<!-- Node1&#45;&gt;Node41 -->
<g id="edge10" class="edge">
<title>Node1&#45;&gt;Node41</title>
<path fill="none" stroke="midnightblue" d="M19.05,-582.65C21.69,-625.83 34.52,-800.94 71,-839 79.63,-848.01 91.75,-853.05 103.89,-855.8"/>
</g>
<!-- Node85 -->
<g id="node12" class="node">
<title>Node85</title>
<g id="a_node12"><a xlink:href="ppp__obs_8cpp.html#aa6a7c175b1b4ea3c417b058d36edc96d" target="_top" xlink:title=" ">
<polygon fill="white" stroke="red" points="116.5,-810.5 116.5,-829.5 184.5,-829.5 184.5,-810.5 116.5,-810.5"/>
<text text-anchor="middle" x="150.5" y="-817.5" font-family="Helvetica,sans-Serif" font-size="10.00">stationPPP</text>
</a>
</g>
</g>
<!-- Node1&#45;&gt;Node85 -->
<g id="edge12" class="edge">
<title>Node1&#45;&gt;Node85</title>
<path fill="none" stroke="midnightblue" d="M19.38,-582.56C23.17,-621.69 39.37,-769.01 71,-801 82.73,-812.86 100.52,-817.8 116.2,-819.69"/>
</g>
<!-- Node216 -->
<g id="node13" class="node">
<title>Node216</title>
<g id="a_node13"><a xlink:href="ppp__slr_8cpp.html#a8a0fd95f3ae58d8d033b52aa2811c60c" target="_top" xlink:title=" ">
<polygon fill="white" stroke="red" points="119,-772.5 119,-791.5 182,-791.5 182,-772.5 119,-772.5"/>
<text text-anchor="middle" x="150.5" y="-779.5" font-family="Helvetica,sans-Serif" font-size="10.00">stationSlr</text>
</a>
</g>
</g>
<!-- Node1&#45;&gt;Node216 -->
<g id="edge15" class="edge">
<title>Node1&#45;&gt;Node216</title>
<path fill="none" stroke="midnightblue" d="M18.03,-582.55C17.05,-613.51 18.39,-712.05 71,-763 83.59,-775.19 102.6,-780.01 118.76,-781.74"/>
</g>
<!-- Node246 -->
<g id="node14" class="node">
<title>Node246</title>
<g id="a_node14"><a xlink:href="ppp__pseudoobs_8cpp.html#aa248470eac1bf78565ee912282a5894d" target="_top" xlink:title=" ">
<polygon fill="white" stroke="red" points="98.5,-734.5 98.5,-753.5 202.5,-753.5 202.5,-734.5 98.5,-734.5"/>
<text text-anchor="middle" x="150.5" y="-741.5" font-family="Helvetica,sans-Serif" font-size="10.00">stationPseudoObs</text>
</a>
</g>
</g>
<!-- Node1&#45;&gt;Node246 -->
<g id="edge18" class="edge">
<title>Node1&#45;&gt;Node246</title>
<path fill="none" stroke="midnightblue" d="M18.79,-582.52C20.15,-609.28 27.83,-685.75 71,-725 78.57,-731.89 88.21,-736.39 98.12,-739.31"/>
</g>
<!-- Node274 -->
<g id="node15" class="node">
<title>Node274</title>
<g id="a_node15"><a xlink:href="ppp__pseudoobs_8cpp.html#a2ad06f6b437e388988c6294bff3c23e1" target="_top" xlink:title=" ">
<polygon fill="white" stroke="red" points="104.5,-696.5 104.5,-715.5 196.5,-715.5 196.5,-696.5 104.5,-696.5"/>
<text text-anchor="middle" x="150.5" y="-703.5" font-family="Helvetica,sans-Serif" font-size="10.00">ionoPseudoObs</text>
</a>
</g>
</g>
<!-- Node1&#45;&gt;Node274 -->
<g id="edge20" class="edge">
<title>Node1&#45;&gt;Node274</title>
<path fill="none" stroke="midnightblue" d="M20.04,-582.67C24.1,-604.77 37.18,-659.18 71,-687 80.42,-694.75 92.51,-699.43 104.35,-702.22"/>
</g>
<!-- Node284 -->
<g id="node16" class="node">
<title>Node284</title>
<g id="a_node16"><a xlink:href="ppp__pseudoobs_8cpp.html#ae0c41e2e4663de24e52dcc5be1df9bda" target="_top" xlink:title=" ">
<polygon fill="white" stroke="red" points="105,-658.5 105,-677.5 196,-677.5 196,-658.5 105,-658.5"/>
<text text-anchor="middle" x="150.5" y="-665.5" font-family="Helvetica,sans-Serif" font-size="10.00">biasPseudoObs</text>
</a>
</g>
</g>
<!-- Node1&#45;&gt;Node284 -->
<g id="edge22" class="edge">
<title>Node1&#45;&gt;Node284</title>
<path fill="none" stroke="midnightblue" d="M22.38,-582.63C29.48,-598.94 46.15,-631.93 71,-649 80.94,-655.83 93.06,-660.21 104.77,-663.02"/>
</g>
<!-- Node292 -->
<g id="node17" class="node">
<title>Node292</title>
<g id="a_node17"><a xlink:href="ppp__pseudoobs_8cpp.html#a02995a7f24f39419730eea3b664553cf" target="_top" xlink:title=" ">
<polygon fill="white" stroke="red" points="101.5,-620.5 101.5,-639.5 199.5,-639.5 199.5,-620.5 101.5,-620.5"/>
<text text-anchor="middle" x="150.5" y="-627.5" font-family="Helvetica,sans-Serif" font-size="10.00">ambgPseudoObs</text>
</a>
</g>
</g>
<!-- Node1&#45;&gt;Node292 -->
<g id="edge24" class="edge">
<title>Node1&#45;&gt;Node292</title>
<path fill="none" stroke="midnightblue" d="M28.98,-582.5C39.05,-591.15 55.06,-603.65 71,-611 80.42,-615.34 90.96,-618.76 101.17,-621.43"/>
</g>
<!-- Node293 -->
<g id="node18" class="node">
<title>Node293</title>
<g id="a_node18"><a xlink:href="ppp__pseudoobs_8cpp.html#a7d44bfc5636f42952bed064438699ba7" target="_top" xlink:title=" ">
<polygon fill="white" stroke="red" points="107.5,-582.5 107.5,-601.5 193.5,-601.5 193.5,-582.5 107.5,-582.5"/>
<text text-anchor="middle" x="150.5" y="-589.5" font-family="Helvetica,sans-Serif" font-size="10.00">initPseudoObs</text>
</a>
</g>
</g>
<!-- Node1&#45;&gt;Node293 -->
<g id="edge27" class="edge">
<title>Node1&#45;&gt;Node293</title>
<path fill="none" stroke="midnightblue" d="M35.09,-575.41C53.2,-578.03 82.89,-582.34 107.49,-585.91"/>
</g>
<!-- Node251 -->
<g id="node19" class="node">
<title>Node251</title>
<g id="a_node19"><a xlink:href="structKFState.html#a4422abfc2efdc898a2558d57be35e863" target="_top" xlink:title="Combine a list of KFMeasEntrys into a single KFMeas object for used in the filter.">
<polygon fill="white" stroke="red" points="71,-544.5 71,-563.5 230,-563.5 230,-544.5 71,-544.5"/>
<text text-anchor="middle" x="150.5" y="-551.5" font-family="Helvetica,sans-Serif" font-size="10.00">KFState::combineKFMeasList</text>
</a>
</g>
</g>
<!-- Node1&#45;&gt;Node251 -->
<g id="edge28" class="edge">
<title>Node1&#45;&gt;Node251</title>
<path fill="none" stroke="midnightblue" d="M35.09,-570.59C47.62,-568.78 65.7,-566.15 83.8,-563.53"/>
</g>
<!-- Node294 -->
<g id="node20" class="node">
<title>Node294</title>
<g id="a_node20"><a xlink:href="ppppp_8cpp.html#a9708c2a33c0c4b5de10dc20d49674b78" target="_top" xlink:title="Replace individual measurements with linear combinations.">
<polygon fill="white" stroke="black" points="113.5,-506.5 113.5,-525.5 187.5,-525.5 187.5,-506.5 113.5,-506.5"/>
<text text-anchor="middle" x="150.5" y="-513.5" font-family="Helvetica,sans-Serif" font-size="10.00">makeGFLCs</text>
</a>
</g>
</g>
<!-- Node1&#45;&gt;Node294 -->
<g id="edge29" class="edge">
<title>Node1&#45;&gt;Node294</title>
<path fill="none" stroke="midnightblue" d="M28.98,-563.5C39.05,-554.85 55.06,-542.35 71,-535 84.24,-528.89 99.68,-524.61 113.35,-521.68"/>
</g>
<!-- Node295 -->
<g id="node21" class="node">
<title>Node295</title>
<g id="a_node21"><a xlink:href="ppppp_8cpp.html#ab39f6a00173914f1c8ad883df1e43fe0" target="_top" xlink:title="Replace individual measurements with linear combinations.">
<polygon fill="white" stroke="black" points="115.5,-468.5 115.5,-487.5 185.5,-487.5 185.5,-468.5 115.5,-468.5"/>
<text text-anchor="middle" x="150.5" y="-475.5" font-family="Helvetica,sans-Serif" font-size="10.00">makeIFLCs</text>
</a>
</g>
</g>
<!-- Node1&#45;&gt;Node295 -->
<g id="edge30" class="edge">
<title>Node1&#45;&gt;Node295</title>
<path fill="none" stroke="midnightblue" d="M22.38,-563.37C29.48,-547.06 46.15,-514.07 71,-497 83.94,-488.11 100.59,-483.36 115.22,-480.83"/>
</g>
<!-- Node296 -->
<g id="node22" class="node">
<title>Node296</title>
<g id="a_node22"><a xlink:href="ppppp_8cpp.html#a1362ae79f7531374dde5ae0fa5d88a01" target="_top" xlink:title="Replace individual measurements with linear combinations.">
<polygon fill="white" stroke="red" points="110.5,-430.5 110.5,-449.5 190.5,-449.5 190.5,-430.5 110.5,-430.5"/>
<text text-anchor="middle" x="150.5" y="-437.5" font-family="Helvetica,sans-Serif" font-size="10.00">makeRTKLCs</text>
</a>
</g>
</g>
<!-- Node1&#45;&gt;Node296 -->
<g id="edge31" class="edge">
<title>Node1&#45;&gt;Node296</title>
<path fill="none" stroke="midnightblue" d="M20.04,-563.33C24.1,-541.23 37.18,-486.82 71,-459 82.05,-449.91 96.75,-445.05 110.45,-442.49"/>
</g>
<!-- Node297 -->
<g id="node23" class="node">
<title>Node297</title>
<g id="a_node23"><a xlink:href="ppppp_8cpp.html#a5a2aaee25cc743373260ea51a5386e2d" target="_top" xlink:title=" ">
<polygon fill="white" stroke="black" points="88,-392.5 88,-411.5 213,-411.5 213,-392.5 88,-392.5"/>
<text text-anchor="middle" x="150.5" y="-399.5" font-family="Helvetica,sans-Serif" font-size="10.00">explainMeasurements</text>
</a>
</g>
</g>
<!-- Node1&#45;&gt;Node297 -->
<g id="edge32" class="edge">
<title>Node1&#45;&gt;Node297</title>
<path fill="none" stroke="midnightblue" d="M18.79,-563.48C20.15,-536.72 27.83,-460.25 71,-421 75.88,-416.57 81.61,-413.12 87.72,-410.45"/>
</g>
<!-- Node298 -->
<g id="node24" class="node">
<title>Node298</title>
<g id="a_node24"><a xlink:href="structKFState.html#a56a457141bb1f7f33cd473b008e27e92" target="_top" xlink:title=" ">
<polygon fill="white" stroke="red" points="83.5,-343 83.5,-373 217.5,-373 217.5,-343 83.5,-343"/>
<text text-anchor="start" x="91.5" y="-361" font-family="Helvetica,sans-Serif" font-size="10.00">KFState::leastSquareInit</text>
<text text-anchor="middle" x="150.5" y="-350" font-family="Helvetica,sans-Serif" font-size="10.00">StatesA</text>
</a>
</g>
</g>
<!-- Node1&#45;&gt;Node298 -->
<g id="edge33" class="edge">
<title>Node1&#45;&gt;Node298</title>
<path fill="none" stroke="midnightblue" d="M18.17,-563.17C17.68,-532.18 20.46,-435.53 71,-383 74.67,-379.19 78.92,-375.95 83.5,-373.21"/>
</g>
<!-- Node299 -->
<g id="node25" class="node">
<title>Node299</title>
<g id="a_node25"><a xlink:href="ppppp_8cpp.html#a4aea1f2b0f7af8da92374b03825a0976" target="_top" xlink:title=" ">
<polygon fill="white" stroke="red" points="115.5,-304.5 115.5,-323.5 185.5,-323.5 185.5,-304.5 115.5,-304.5"/>
<text text-anchor="middle" x="150.5" y="-311.5" font-family="Helvetica,sans-Serif" font-size="10.00">chunkFilter</text>
</a>
</g>
</g>
<!-- Node1&#45;&gt;Node299 -->
<g id="edge34" class="edge">
<title>Node1&#45;&gt;Node299</title>
<path fill="none" stroke="midnightblue" d="M19.26,-563.49C22.66,-523.18 37.82,-366.92 71,-333 82.47,-321.27 99.85,-316.3 115.35,-314.35"/>
</g>
<!-- Node255 -->
<g id="node26" class="node">
<title>Node255</title>
<g id="a_node26"><a xlink:href="structKFState.html#ae99b9a0b478d94b6cff9ba2328914178" target="_top" xlink:title="Kalman filter operation.">
<polygon fill="white" stroke="red" points="89.5,-266.5 89.5,-285.5 211.5,-285.5 211.5,-266.5 89.5,-266.5"/>
<text text-anchor="middle" x="150.5" y="-273.5" font-family="Helvetica,sans-Serif" font-size="10.00">KFState::filterKalman</text>
</a>
</g>
</g>
<!-- Node1&#45;&gt;Node255 -->
<g id="edge35" class="edge">
<title>Node1&#45;&gt;Node255</title>
<path fill="none" stroke="midnightblue" d="M18.96,-563.22C21.28,-518.63 33.02,-334.96 71,-295 76.12,-289.61 82.48,-285.64 89.36,-282.73"/>
</g>
<!-- Node300 -->
<g id="node27" class="node">
<title>Node300</title>
<g id="a_node27"><a xlink:href="networkEstimator_8cpp.html#a4aec9796d8fba83efe8e2557b89d508a" target="_top" xlink:title=" ">
<polygon fill="white" stroke="red" points="102,-228.5 102,-247.5 199,-247.5 199,-228.5 102,-228.5"/>
<text text-anchor="middle" x="150.5" y="-235.5" font-family="Helvetica,sans-Serif" font-size="10.00">postFilterChecks</text>
</a>
</g>
</g>
<!-- Node1&#45;&gt;Node300 -->
<g id="edge36" class="edge">
<title>Node1&#45;&gt;Node300</title>
<path fill="none" stroke="midnightblue" d="M18.72,-563.22C20.02,-515 28.12,-303.13 71,-257 79.02,-248.37 90.23,-243.36 101.67,-240.52"/>
</g>
<!-- Node304 -->
<g id="node28" class="node">
<title>Node304</title>
<g id="a_node28"><a xlink:href="ppp__ambres_8cpp.html#af1cdd13433e600a199742087c8078181" target="_top" xlink:title=" ">
<polygon fill="white" stroke="red" points="124,-190.5 124,-209.5 177,-209.5 177,-190.5 124,-190.5"/>
<text text-anchor="middle" x="150.5" y="-197.5" font-family="Helvetica,sans-Serif" font-size="10.00">PPP_AR</text>
</a>
</g>
</g>
<!-- Node1&#45;&gt;Node304 -->
<g id="edge37" class="edge">
<title>Node1&#45;&gt;Node304</title>
<path fill="none" stroke="midnightblue" d="M18.53,-563.44C18.89,-512.29 23.12,-271.41 71,-219 84.24,-204.51 106.48,-200.18 123.91,-199.24"/>
</g>
<!-- Node314 -->
<g id="node29" class="node">
<title>Node314</title>
<g id="a_node29"><a xlink:href="ppp_8cpp.html#a952c5db3b307d745174a68045264f9e6" target="_top" xlink:title="Compare estimated station position with benchmark in SINEX file.">
<polygon fill="white" stroke="red" points="97.5,-76.5 97.5,-95.5 203.5,-95.5 203.5,-76.5 97.5,-76.5"/>
<text text-anchor="middle" x="150.5" y="-83.5" font-family="Helvetica,sans-Serif" font-size="10.00">outputPPPSolution</text>
</a>
</g>
</g>
<!-- Node1&#45;&gt;Node314 -->
<g id="edge41" class="edge">
<title>Node1&#45;&gt;Node314</title>
<path fill="none" stroke="midnightblue" d="M18.97,-563.34C22.1,-500.05 40.88,-146.24 71,-110 77.74,-101.89 87.14,-96.46 97.11,-92.85"/>
</g>
<!-- Node315 -->
<g id="node30" class="node">
<title>Node315</title>
<g id="a_node30"><a xlink:href="ionoModel_8cpp.html#a5f0f6db30db859a82f3e12712e1233da" target="_top" xlink:title=" ">
<polygon fill="white" stroke="red" points="90,-38.5 90,-57.5 211,-57.5 211,-38.5 90,-38.5"/>
<text text-anchor="middle" x="150.5" y="-45.5" font-family="Helvetica,sans-Serif" font-size="10.00">ionosphereSsrUpdate</text>
</a>
</g>
</g>
<!-- Node1&#45;&gt;Node315 -->
<g id="edge43" class="edge">
<title>Node1&#45;&gt;Node315</title>
<path fill="none" stroke="midnightblue" d="M18.84,-563.29C21.29,-496.45 37,-105.9 71,-67 76.08,-61.19 82.59,-57.01 89.7,-54.01"/>
</g>
<!-- Node318 -->
<g id="node31" class="node">
<title>Node318</title>
<g id="a_node31"><a xlink:href="ionoMeas_8cpp.html#a2005a7695bfb7b9a595eb802265219d7" target="_top" xlink:title=" ">
<polygon fill="white" stroke="red" points="102,-0.5 102,-19.5 199,-19.5 199,-0.5 102,-0.5"/>
<text text-anchor="middle" x="150.5" y="-7.5" font-family="Helvetica,sans-Serif" font-size="10.00">ginan2IonoMeas</text>
</a>
</g>
</g>
<!-- Node1&#45;&gt;Node318 -->
<g id="edge45" class="edge">
<title>Node1&#45;&gt;Node318</title>
<path fill="none" stroke="midnightblue" d="M18.76,-563.47C20.77,-494.32 34.46,-71.1 71,-29 78.81,-20 90.09,-14.88 101.67,-12.06"/>
</g>
<!-- Node18&#45;&gt;Node19 -->
<g id="edge3" class="edge">
<title>Node18&#45;&gt;Node19</title>
<path fill="none" stroke="midnightblue" d="M216.68,-1077.53C221.69,-1074.81 226.25,-1071.36 230,-1067 290.75,-996.27 208.19,-722.15 266,-649 269.06,-645.12 272.94,-642.03 277.23,-639.56"/>
</g>
<!-- Node38&#45;&gt;Node39 -->
<g id="edge9" class="edge">
<title>Node38&#45;&gt;Node39</title>
<path fill="none" stroke="midnightblue" d="M212.11,-887.44C218.58,-884.8 224.72,-881.39 230,-877 296.01,-822.1 317.19,-711.05 322.2,-677.69"/>
</g>
<!-- Node41&#45;&gt;Node19 -->
<g id="edge11" class="edge">
<title>Node41&#45;&gt;Node19</title>
<path fill="none" stroke="midnightblue" d="M197.15,-855.84C209.29,-853.09 221.4,-848.04 230,-839 289.23,-776.72 209.36,-713.65 266,-649 269.39,-645.13 273.6,-642.04 278.17,-639.58"/>
</g>
<!-- Node85&#45;&gt;Node19 -->
<g id="edge14" class="edge">
<title>Node85&#45;&gt;Node19</title>
<path fill="none" stroke="midnightblue" d="M184.77,-819.66C200.44,-817.77 218.23,-812.83 230,-801 278.97,-751.79 219.08,-700.17 266,-649 269.55,-645.13 273.91,-642.04 278.62,-639.58"/>
</g>
<!-- Node85&#45;&gt;Node39 -->
<g id="edge13" class="edge">
<title>Node85&#45;&gt;Node39</title>
<path fill="none" stroke="midnightblue" d="M184.58,-817.32C199.48,-814.83 216.67,-810.08 230,-801 277.83,-768.44 309.01,-702.74 319.54,-677.86"/>
</g>
<!-- Node216&#45;&gt;Node19 -->
<g id="edge17" class="edge">
<title>Node216&#45;&gt;Node19</title>
<path fill="none" stroke="midnightblue" d="M182.07,-781.56C198.17,-779.77 217.19,-774.96 230,-763 268.83,-726.74 228.68,-686.82 266,-649 269.84,-645.11 274.49,-642.01 279.47,-639.55"/>
</g>
<!-- Node216&#45;&gt;Node39 -->
<g id="edge16" class="edge">
<title>Node216&#45;&gt;Node39</title>
<path fill="none" stroke="midnightblue" d="M182.03,-778.63C197.2,-775.99 215.36,-771.29 230,-763 269.46,-740.64 303.31,-696.83 317,-677.53"/>
</g>
<!-- Node246&#45;&gt;Node19 -->
<g id="edge19" class="edge">
<title>Node246&#45;&gt;Node19</title>
<path fill="none" stroke="midnightblue" d="M202.73,-738.54C212.53,-735.66 222.17,-731.37 230,-725 258.99,-701.41 237.99,-673.75 266,-649 270.41,-645.1 275.64,-642 281.13,-639.53"/>
</g>
<!-- Node274&#45;&gt;Node19 -->
<g id="edge21" class="edge">
<title>Node274&#45;&gt;Node19</title>
<path fill="none" stroke="midnightblue" d="M196.8,-699.69C208.14,-696.88 219.93,-692.83 230,-687 250.13,-675.34 246.36,-661.47 266,-649 271.95,-645.22 278.72,-642.12 285.48,-639.6"/>
</g>
<!-- Node284&#45;&gt;Node39 -->
<g id="edge23" class="edge">
<title>Node284&#45;&gt;Node39</title>
<path fill="none" stroke="midnightblue" d="M196.24,-668C225.11,-668 262.1,-668 288.75,-668"/>
</g>
<!-- Node292&#45;&gt;Node19 -->
<g id="edge25" class="edge">
<title>Node292&#45;&gt;Node19</title>
<path fill="none" stroke="midnightblue" d="M199.87,-630C220.34,-630 244.35,-630 265.74,-630"/>
</g>
<!-- Node292&#45;&gt;Node39 -->
<g id="edge26" class="edge">
<title>Node292&#45;&gt;Node39</title>
<path fill="none" stroke="midnightblue" d="M194.9,-639.59C223.96,-646.01 261.7,-654.35 288.77,-660.33"/>
</g>
<!-- Node304&#45;&gt;Node39 -->
<g id="edge38" class="edge">
<title>Node304&#45;&gt;Node39</title>
<path fill="none" stroke="midnightblue" d="M177,-198.97C194.63,-199.75 217.14,-203.99 230,-219 292.39,-291.82 206.63,-573.7 266,-649 271.66,-656.18 280.12,-660.68 288.81,-663.48"/>
</g>
<!-- Node314&#45;&gt;Node39 -->
<g id="edge42" class="edge">
<title>Node314&#45;&gt;Node39</title>
<path fill="none" stroke="midnightblue" d="M203.78,-92.47C213.87,-96.1 223.36,-101.62 230,-110 304.58,-204.06 192.48,-554.1 266,-649 271.6,-656.23 280.04,-660.74 288.73,-663.54"/>
</g>
<!-- Node315&#45;&gt;Node39 -->
<g id="edge44" class="edge">
<title>Node315&#45;&gt;Node39</title>
<path fill="none" stroke="midnightblue" d="M211.14,-53.65C218.36,-56.69 224.96,-60.98 230,-67 313.24,-166.31 186.89,-546.37 266,-649 271.58,-656.24 280.01,-660.76 288.71,-663.56"/>
</g>
<!-- Node318&#45;&gt;Node19 -->
<g id="edge47" class="edge">
<title>Node318&#45;&gt;Node19</title>
<path fill="none" stroke="midnightblue" d="M199.39,-12.47C210.83,-15.31 222.02,-20.33 230,-29 314.01,-120.3 322.57,-550.42 323.41,-620.37"/>
</g>
<!-- Node318&#45;&gt;Node39 -->
<g id="edge46" class="edge">
<title>Node318&#45;&gt;Node39</title>
<path fill="none" stroke="midnightblue" d="M199.15,-11.76C210.88,-14.56 222.27,-19.74 230,-29 318.45,-134.94 181.95,-539.54 266,-649 271.63,-656.34 280.19,-660.88 288.99,-663.67"/>
</g>
</g>
</svg>
