<?xml version="1.0" encoding="UTF-8" standalone="no"?>
<!DOCTYPE svg PUBLIC "-//W3C//DTD SVG 1.1//EN"
 "http://www.w3.org/Graphics/SVG/1.1/DTD/svg11.dtd">
<!-- Generated by graphviz version 2.43.0 (0)
 -->
<!-- Title: pppos Pages: 1 -->
<svg width="798pt" height="1636pt"
 viewBox="0.00 0.00 798.00 1636.00" xmlns="http://www.w3.org/2000/svg" xmlns:xlink="http://www.w3.org/1999/xlink">
<g id="graph0" class="graph" transform="scale(1 1) rotate(0) translate(4 1632)">
<title>pppos</title>
<polygon fill="white" stroke="transparent" points="-4,4 -4,-1632 794,-1632 794,4 -4,4"/>
<!-- Node1 -->
<g id="node1" class="node">
<title>Node1</title>
<g id="a_node1"><a xlink:title=" ">
<polygon fill="#bfbfbf" stroke="black" points="0,-1323.5 0,-1342.5 46,-1342.5 46,-1323.5 0,-1323.5"/>
<text text-anchor="middle" x="23" y="-1330.5" font-family="Helvetica,sans-Serif" font-size="10.00">pppos</text>
</a>
</g>
</g>
<!-- Node2 -->
<g id="node2" class="node">
<title>Node2</title>
<g id="a_node2"><a xlink:href="streamTrace_8cpp.html#ae00e6addd3bdf3a7fd41a254eb9aec89" target="_top" xlink:title=" ">
<polygon fill="white" stroke="black" points="432.5,-943.5 432.5,-962.5 503.5,-962.5 503.5,-943.5 432.5,-943.5"/>
<text text-anchor="middle" x="468" y="-950.5" font-family="Helvetica,sans-Serif" font-size="10.00">tracepdeex</text>
</a>
</g>
</g>
<!-- Node1&#45;&gt;Node2 -->
<g id="edge1" class="edge">
<title>Node1&#45;&gt;Node2</title>
<path fill="none" stroke="midnightblue" d="M25.97,-1342.77C31.01,-1365.07 46.55,-1419.88 82,-1447 182.92,-1524.22 273.96,-1556.56 367,-1470 448.24,-1394.42 333.48,-1058.47 403,-972 410.19,-963.06 421.39,-958.19 432.42,-955.58"/>
</g>
<!-- Node3 -->
<g id="node3" class="node">
<title>Node3</title>
<g id="a_node3"><a xlink:href="ephemeris_8cpp.html#acf14c43fc8c865aae63cb7408d64d0d5" target="_top" xlink:title="satellite positions and clocks.">
<polygon fill="white" stroke="black" points="92,-1418.5 92,-1437.5 146,-1437.5 146,-1418.5 92,-1418.5"/>
<text text-anchor="middle" x="119" y="-1425.5" font-family="Helvetica,sans-Serif" font-size="10.00">satposs</text>
</a>
</g>
</g>
<!-- Node1&#45;&gt;Node3 -->
<g id="edge2" class="edge">
<title>Node1&#45;&gt;Node3</title>
<path fill="none" stroke="midnightblue" d="M30.69,-1342.97C40.73,-1357.47 60.78,-1384.75 82,-1404 87.9,-1409.35 95.08,-1414.39 101.48,-1418.45"/>
</g>
<!-- Node62 -->
<g id="node11" class="node">
<title>Node62</title>
<g id="a_node11"><a xlink:href="rtkcmn_8cpp.html#ae91d83cf693cdc7e1efacbe4d8d9656e" target="_top" xlink:title=" ">
<polygon fill="white" stroke="black" points="437.5,-981.5 437.5,-1000.5 498.5,-1000.5 498.5,-981.5 437.5,-981.5"/>
<text text-anchor="middle" x="468" y="-988.5" font-family="Helvetica,sans-Serif" font-size="10.00">ecef2pos</text>
</a>
</g>
</g>
<!-- Node1&#45;&gt;Node62 -->
<g id="edge14" class="edge">
<title>Node1&#45;&gt;Node62</title>
<path fill="none" stroke="midnightblue" d="M34.57,-1342.7C45.5,-1352.03 63.54,-1365.49 82,-1371 203.38,-1407.22 271.99,-1454.77 367,-1371 414.88,-1328.78 380.56,-1145.76 403,-1086 416,-1051.37 443.9,-1016.91 458.18,-1000.66"/>
</g>
<!-- Node63 -->
<g id="node12" class="node">
<title>Node63</title>
<g id="a_node12"><a xlink:href="ppp_8cpp.html#a31da24b9718095fb343b7da6a677c72d" target="_top" xlink:title="ionospheric model">
<polygon fill="white" stroke="black" points="82,-1342.5 82,-1361.5 156,-1361.5 156,-1342.5 82,-1342.5"/>
<text text-anchor="middle" x="119" y="-1349.5" font-family="Helvetica,sans-Serif" font-size="10.00">model_iono</text>
</a>
</g>
</g>
<!-- Node1&#45;&gt;Node63 -->
<g id="edge15" class="edge">
<title>Node1&#45;&gt;Node63</title>
<path fill="none" stroke="midnightblue" d="M46.28,-1337.5C56.92,-1339.65 69.92,-1342.28 81.92,-1344.71"/>
</g>
<!-- Node72 -->
<g id="node16" class="node">
<title>Node72</title>
<g id="a_node16"><a xlink:href="tides_8cpp.html#a3faed0b0aa3e0d79b8615c68c7e085a0" target="_top" xlink:title=" ">
<polygon fill="white" stroke="black" points="251.5,-1532.5 251.5,-1551.5 307.5,-1551.5 307.5,-1532.5 251.5,-1532.5"/>
<text text-anchor="middle" x="279.5" y="-1539.5" font-family="Helvetica,sans-Serif" font-size="10.00">tidedisp</text>
</a>
</g>
</g>
<!-- Node1&#45;&gt;Node72 -->
<g id="edge19" class="edge">
<title>Node1&#45;&gt;Node72</title>
<path fill="none" stroke="midnightblue" d="M46.26,-1326.67C73.97,-1320.14 121.8,-1313.4 156,-1333 196.23,-1356.05 258.04,-1494.45 274.41,-1532.39"/>
</g>
<!-- Node54 -->
<g id="node26" class="node">
<title>Node54</title>
<g id="a_node26"><a xlink:href="gTime_8cpp.html#a853f281ccd45b714eb3edb14259a982a" target="_top" xlink:title=" ">
<polygon fill="white" stroke="red" points="89.5,-1266.5 89.5,-1285.5 148.5,-1285.5 148.5,-1266.5 89.5,-1266.5"/>
<text text-anchor="middle" x="119" y="-1273.5" font-family="Helvetica,sans-Serif" font-size="10.00">gpst2utc</text>
</a>
</g>
</g>
<!-- Node1&#45;&gt;Node54 -->
<g id="edge33" class="edge">
<title>Node1&#45;&gt;Node54</title>
<path fill="none" stroke="midnightblue" d="M39.95,-1323.33C57.34,-1312.79 84.99,-1296.01 102.29,-1285.53"/>
</g>
<!-- Node82 -->
<g id="node27" class="node">
<title>Node82</title>
<g id="a_node27"><a xlink:href="ppp__user_8cpp.html#ac0b785b6dec8932f23a644d4c41788de" target="_top" xlink:title=" ">
<polygon fill="white" stroke="black" points="87.5,-734.5 87.5,-753.5 150.5,-753.5 150.5,-734.5 87.5,-734.5"/>
<text text-anchor="middle" x="119" y="-741.5" font-family="Helvetica,sans-Serif" font-size="10.00">ppp_filter</text>
</a>
</g>
</g>
<!-- Node1&#45;&gt;Node82 -->
<g id="edge34" class="edge">
<title>Node1&#45;&gt;Node82</title>
<path fill="none" stroke="midnightblue" d="M25.55,-1323.27C36.77,-1252.97 105.3,-823.6 116.46,-753.64"/>
</g>
<!-- Node158 -->
<g id="node51" class="node">
<title>Node158</title>
<g id="a_node51"><a xlink:href="ppp__user_8cpp.html#a1cdb5bdf7cff2c403618b96a17aea52a" target="_top" xlink:title=" ">
<polygon fill="white" stroke="black" points="82,-696.5 82,-715.5 156,-715.5 156,-696.5 82,-696.5"/>
<text text-anchor="middle" x="119" y="-703.5" font-family="Helvetica,sans-Serif" font-size="10.00">update_stat</text>
</a>
</g>
</g>
<!-- Node1&#45;&gt;Node158 -->
<g id="edge81" class="edge">
<title>Node1&#45;&gt;Node158</title>
<path fill="none" stroke="midnightblue" d="M24.37,-1323.4C27.27,-1249.83 47.19,-776.98 82,-725 84.52,-721.24 88.03,-718.18 91.87,-715.69"/>
</g>
<!-- Node3&#45;&gt;Node2 -->
<g id="edge3" class="edge">
<title>Node3&#45;&gt;Node2</title>
<path fill="none" stroke="midnightblue" d="M140.18,-1437.63C186.94,-1458.37 303.51,-1500.81 367,-1442 443.85,-1370.81 337.19,-1053.5 403,-972 410.21,-963.07 421.41,-958.21 432.45,-955.6"/>
</g>
<!-- Node4 -->
<g id="node4" class="node">
<title>Node4</title>
<g id="a_node4"><a xlink:href="structGTime.html#a64394968bbfdecbbeec4ba5134fdb682" target="_top" xlink:title=" ">
<polygon fill="white" stroke="black" points="419.5,-867.5 419.5,-886.5 516.5,-886.5 516.5,-867.5 419.5,-867.5"/>
<text text-anchor="middle" x="468" y="-874.5" font-family="Helvetica,sans-Serif" font-size="10.00">GTime::to_string</text>
</a>
</g>
</g>
<!-- Node3&#45;&gt;Node4 -->
<g id="edge4" class="edge">
<title>Node3&#45;&gt;Node4</title>
<path fill="none" stroke="midnightblue" d="M146.26,-1430.95C197.62,-1435.1 311.22,-1435.92 367,-1371 435.99,-1290.71 336.53,-978.38 403,-896 407.29,-890.68 413.01,-886.8 419.26,-883.98"/>
</g>
<!-- Node7 -->
<g id="node7" class="node">
<title>Node7</title>
<g id="a_node7"><a xlink:href="preceph_8cpp.html#a2e21e986800a930603c04dea42c199be" target="_top" xlink:title=" ">
<polygon fill="white" stroke="black" points="252,-582.5 252,-601.5 307,-601.5 307,-582.5 252,-582.5"/>
<text text-anchor="middle" x="279.5" y="-589.5" font-family="Helvetica,sans-Serif" font-size="10.00">pephclk</text>
</a>
</g>
</g>
<!-- Node3&#45;&gt;Node7 -->
<g id="edge7" class="edge">
<title>Node3&#45;&gt;Node7</title>
<path fill="none" stroke="midnightblue" d="M128.37,-1418.3C137.08,-1407.55 150.23,-1389.31 156,-1371 181.41,-1290.37 137.48,-675.61 192,-611 206.38,-593.96 232.22,-590.13 251.93,-590.01"/>
</g>
<!-- Node8 -->
<g id="node8" class="node">
<title>Node8</title>
<g id="a_node8"><a xlink:href="ephemeris_8cpp.html#a5e9656cbaa8bb74ade4b33d285159524" target="_top" xlink:title=" ">
<polygon fill="white" stroke="red" points="255,-544.5 255,-563.5 304,-563.5 304,-544.5 255,-544.5"/>
<text text-anchor="middle" x="279.5" y="-551.5" font-family="Helvetica,sans-Serif" font-size="10.00">ephclk</text>
</a>
</g>
</g>
<!-- Node3&#45;&gt;Node8 -->
<g id="edge9" class="edge">
<title>Node3&#45;&gt;Node8</title>
<path fill="none" stroke="midnightblue" d="M128.38,-1418.3C137.09,-1407.56 150.25,-1389.31 156,-1371 182.59,-1286.32 134.83,-640.89 192,-573 207.05,-555.12 234.72,-551.78 254.72,-552.01"/>
</g>
<!-- Node12 -->
<g id="node9" class="node">
<title>Node12</title>
<g id="a_node9"><a xlink:href="ephemeris_8cpp.html#a00df4213eb6f901bcb5928f44a24bd4d" target="_top" xlink:title=" ">
<polygon fill="white" stroke="red" points="255,-468.5 255,-487.5 304,-487.5 304,-468.5 255,-468.5"/>
<text text-anchor="middle" x="279.5" y="-475.5" font-family="Helvetica,sans-Serif" font-size="10.00">satpos</text>
</a>
</g>
</g>
<!-- Node3&#45;&gt;Node12 -->
<g id="edge10" class="edge">
<title>Node3&#45;&gt;Node12</title>
<path fill="none" stroke="midnightblue" d="M128.39,-1418.31C137.12,-1407.56 150.29,-1389.32 156,-1371 184.93,-1278.21 129.54,-571.47 192,-497 207.02,-479.09 234.7,-475.75 254.71,-475.99"/>
</g>
<!-- Node58 -->
<g id="node10" class="node">
<title>Node58</title>
<g id="a_node10"><a xlink:href="structTestStack.html#aff20cea87ae5eee6108b33d022913707" target="_top" xlink:title="Compare matrix against test dataset.">
<polygon fill="white" stroke="red" points="414.5,-430.5 414.5,-449.5 521.5,-449.5 521.5,-430.5 414.5,-430.5"/>
<text text-anchor="middle" x="468" y="-437.5" font-family="Helvetica,sans-Serif" font-size="10.00">TestStack::testMat</text>
</a>
</g>
</g>
<!-- Node3&#45;&gt;Node58 -->
<g id="edge13" class="edge">
<title>Node3&#45;&gt;Node58</title>
<path fill="none" stroke="midnightblue" d="M128.4,-1418.31C137.13,-1407.57 150.3,-1389.33 156,-1371 186.1,-1274.16 121.36,-531.76 192,-459 221.67,-428.44 343.03,-431.19 414.23,-435.71"/>
</g>
<!-- Node5 -->
<g id="node5" class="node">
<title>Node5</title>
<g id="a_node5"><a xlink:href="gTime_8cpp.html#a016d7b64e67752afcd07e5074a3cc516" target="_top" xlink:title=" ">
<polygon fill="white" stroke="black" points="595.5,-1019.5 595.5,-1038.5 653.5,-1038.5 653.5,-1019.5 595.5,-1019.5"/>
<text text-anchor="middle" x="624.5" y="-1026.5" font-family="Helvetica,sans-Serif" font-size="10.00">time2str</text>
</a>
</g>
</g>
<!-- Node4&#45;&gt;Node5 -->
<g id="edge5" class="edge">
<title>Node4&#45;&gt;Node5</title>
<path fill="none" stroke="midnightblue" d="M515.22,-886.53C521.53,-889 527.67,-892.1 533,-896 579.23,-929.77 609.45,-994.74 619.66,-1019.29"/>
</g>
<!-- Node6 -->
<g id="node6" class="node">
<title>Node6</title>
<g id="a_node6"><a xlink:href="gTime_8cpp.html#a7a747c44ca37f2ebe379fc4309d3cfba" target="_top" xlink:title=" ">
<polygon fill="white" stroke="black" points="716,-1133.5 716,-1152.5 790,-1152.5 790,-1133.5 716,-1133.5"/>
<text text-anchor="middle" x="753" y="-1140.5" font-family="Helvetica,sans-Serif" font-size="10.00">time2epoch</text>
</a>
</g>
</g>
<!-- Node5&#45;&gt;Node6 -->
<g id="edge6" class="edge">
<title>Node5&#45;&gt;Node6</title>
<path fill="none" stroke="midnightblue" d="M653.64,-1035.36C662.61,-1038.26 672.22,-1042.34 680,-1048 712.63,-1071.74 737.33,-1114.43 747.24,-1133.43"/>
</g>
<!-- Node7&#45;&gt;Node4 -->
<g id="edge8" class="edge">
<title>Node7&#45;&gt;Node4</title>
<path fill="none" stroke="midnightblue" d="M307.3,-590.55C326.6,-591.04 351.81,-595.1 367,-611 432.11,-679.15 357.24,-737.59 403,-820 414.41,-840.55 436.12,-857.45 451.06,-867.37"/>
</g>
<!-- Node12&#45;&gt;Node2 -->
<g id="edge11" class="edge">
<title>Node12&#45;&gt;Node2</title>
<path fill="none" stroke="midnightblue" d="M304.11,-476.15C324.01,-476.01 351.62,-479.41 367,-497 431.13,-570.36 341.56,-858.37 403,-934 410.23,-942.91 421.45,-947.77 432.47,-950.38"/>
</g>
<!-- Node12&#45;&gt;Node4 -->
<g id="edge12" class="edge">
<title>Node12&#45;&gt;Node4</title>
<path fill="none" stroke="midnightblue" d="M304.38,-476.26C324.17,-476.23 351.47,-479.74 367,-497 415.31,-550.68 369.84,-755.84 403,-820 413.73,-840.75 435.37,-857.49 450.5,-867.33"/>
</g>
<!-- Node64 -->
<g id="node13" class="node">
<title>Node64</title>
<g id="a_node13"><a xlink:href="ionex_8cpp.html#abd23ed48e711dd45a8a2f0ea0d2260d0" target="_top" xlink:title="ionosphere model by tec grid data Before calling the function, read tec grid data by calling readtec(...">
<polygon fill="white" stroke="red" points="256,-1342.5 256,-1361.5 303,-1361.5 303,-1342.5 256,-1342.5"/>
<text text-anchor="middle" x="279.5" y="-1349.5" font-family="Helvetica,sans-Serif" font-size="10.00">iontec</text>
</a>
</g>
</g>
<!-- Node63&#45;&gt;Node64 -->
<g id="edge16" class="edge">
<title>Node63&#45;&gt;Node64</title>
<path fill="none" stroke="midnightblue" d="M156.36,-1352C186.89,-1352 229.56,-1352 255.55,-1352"/>
</g>
<!-- Node69 -->
<g id="node14" class="node">
<title>Node69</title>
<g id="a_node14"><a xlink:href="ephemeris_8cpp.html#ad506cac35e66f4336a1e14217d7c60e5" target="_top" xlink:title=" ">
<polygon fill="white" stroke="red" points="235,-1304.5 235,-1323.5 324,-1323.5 324,-1304.5 235,-1304.5"/>
<text text-anchor="middle" x="279.5" y="-1311.5" font-family="Helvetica,sans-Serif" font-size="10.00">seleph&lt; ION &gt;</text>
</a>
</g>
</g>
<!-- Node63&#45;&gt;Node69 -->
<g id="edge17" class="edge">
<title>Node63&#45;&gt;Node69</title>
<path fill="none" stroke="midnightblue" d="M155.08,-1342.43C166.8,-1339.32 179.94,-1335.92 192,-1333 205.9,-1329.64 221.12,-1326.22 234.86,-1323.21"/>
</g>
<!-- Node70 -->
<g id="node15" class="node">
<title>Node70</title>
<g id="a_node15"><a xlink:href="corrections_8cpp.html#a62c81439777b5986075d04b0d9a13082" target="_top" xlink:title=" ">
<polygon fill="white" stroke="red" points="248.5,-1266.5 248.5,-1285.5 310.5,-1285.5 310.5,-1266.5 248.5,-1266.5"/>
<text text-anchor="middle" x="279.5" y="-1273.5" font-family="Helvetica,sans-Serif" font-size="10.00">ionmodel</text>
</a>
</g>
</g>
<!-- Node63&#45;&gt;Node70 -->
<g id="edge18" class="edge">
<title>Node63&#45;&gt;Node70</title>
<path fill="none" stroke="midnightblue" d="M129.27,-1342.3C142.12,-1329.46 166.65,-1307.03 192,-1295 209.64,-1286.63 231.07,-1281.89 248.18,-1279.24"/>
</g>
<!-- Node72&#45;&gt;Node2 -->
<g id="edge23" class="edge">
<title>Node72&#45;&gt;Node2</title>
<path fill="none" stroke="midnightblue" d="M307.55,-1542.23C327.24,-1540.83 352.84,-1535.41 367,-1518 443.74,-1423.68 327.11,-1067.01 403,-972 410.16,-963.03 421.36,-958.16 432.39,-955.56"/>
</g>
<!-- Node72&#45;&gt;Node4 -->
<g id="edge24" class="edge">
<title>Node72&#45;&gt;Node4</title>
<path fill="none" stroke="midnightblue" d="M293.05,-1532.26C312.88,-1516.01 350.87,-1481.29 367,-1442 413.17,-1329.51 327.11,-991.01 403,-896 407.27,-890.66 412.97,-886.77 419.21,-883.95"/>
</g>
<!-- Node72&#45;&gt;Node6 -->
<g id="edge20" class="edge">
<title>Node72&#45;&gt;Node6</title>
<path fill="none" stroke="midnightblue" d="M306.26,-1551.52C354,-1567.47 458.16,-1594.32 533,-1556 698.79,-1471.12 743.33,-1206.5 750.78,-1152.63"/>
</g>
<!-- Node47 -->
<g id="node17" class="node">
<title>Node47</title>
<g id="a_node17"><a xlink:href="gTime_8cpp.html#abb00b59d1e35b7cc9e031a5faf536f9e" target="_top" xlink:title=" ">
<polygon fill="white" stroke="red" points="438.5,-1342.5 438.5,-1361.5 497.5,-1361.5 497.5,-1342.5 438.5,-1342.5"/>
<text text-anchor="middle" x="468" y="-1349.5" font-family="Helvetica,sans-Serif" font-size="10.00">utc2gpst</text>
</a>
</g>
</g>
<!-- Node72&#45;&gt;Node47 -->
<g id="edge21" class="edge">
<title>Node72&#45;&gt;Node47</title>
<path fill="none" stroke="midnightblue" d="M307.52,-1541.41C326.66,-1539.53 351.59,-1533.89 367,-1518 413.83,-1469.72 356.6,-1419.7 403,-1371 412.11,-1361.43 425.8,-1356.62 438.18,-1354.22"/>
</g>
<!-- Node73 -->
<g id="node18" class="node">
<title>Node73</title>
<g id="a_node18"><a xlink:href="gTime_8cpp.html#a282534ac1ef65d4844290ce80bf76fed" target="_top" xlink:title="YMDHMS to Julian Day &#160;&#160;return : julian day.">
<polygon fill="white" stroke="black" points="431,-1095.5 431,-1114.5 505,-1114.5 505,-1095.5 431,-1095.5"/>
<text text-anchor="middle" x="468" y="-1102.5" font-family="Helvetica,sans-Serif" font-size="10.00">ymdhms2jd</text>
</a>
</g>
</g>
<!-- Node72&#45;&gt;Node73 -->
<g id="edge22" class="edge">
<title>Node72&#45;&gt;Node73</title>
<path fill="none" stroke="midnightblue" d="M307.59,-1541.89C327.04,-1540.28 352.31,-1534.76 367,-1518 404.88,-1474.81 388.04,-1317.47 403,-1262 418.63,-1204.02 449.99,-1138.75 462.09,-1114.63"/>
</g>
<!-- Node74 -->
<g id="node19" class="node">
<title>Node74</title>
<g id="a_node19"><a xlink:href="erp_8cpp.html#a16f89bd9c40ebe924feb3a4e23bc0c6f" target="_top" xlink:title="Get earth rotation parameter values.">
<polygon fill="white" stroke="black" points="444,-1380.5 444,-1399.5 492,-1399.5 492,-1380.5 444,-1380.5"/>
<text text-anchor="middle" x="468" y="-1387.5" font-family="Helvetica,sans-Serif" font-size="10.00">geterp</text>
</a>
</g>
</g>
<!-- Node72&#45;&gt;Node74 -->
<g id="edge25" class="edge">
<title>Node72&#45;&gt;Node74</title>
<path fill="none" stroke="midnightblue" d="M307.89,-1540.88C326.72,-1538.72 351.1,-1532.94 367,-1518 402.65,-1484.51 368.86,-1449.03 403,-1414 413.85,-1402.87 430.36,-1396.84 443.89,-1393.62"/>
</g>
<!-- Node75 -->
<g id="node20" class="node">
<title>Node75</title>
<g id="a_node20"><a xlink:href="rtkcmn_8cpp.html#a59a54664edbf3bc2ebeb1f5e5e7a67d0" target="_top" xlink:title=" ">
<polygon fill="white" stroke="black" points="595.5,-1133.5 595.5,-1152.5 653.5,-1152.5 653.5,-1133.5 595.5,-1133.5"/>
<text text-anchor="middle" x="624.5" y="-1140.5" font-family="Helvetica,sans-Serif" font-size="10.00">xyz2enu</text>
</a>
</g>
</g>
<!-- Node72&#45;&gt;Node75 -->
<g id="edge26" class="edge">
<title>Node72&#45;&gt;Node75</title>
<path fill="none" stroke="midnightblue" d="M307.84,-1549.58C359.16,-1561.98 470.37,-1579.92 533,-1523 567.88,-1491.3 557.82,-1359.78 569,-1314 584.3,-1251.34 610.49,-1178.21 619.96,-1152.51"/>
</g>
<!-- Node42 -->
<g id="node21" class="node">
<title>Node42</title>
<g id="a_node21"><a xlink:href="rtkcmn_8cpp.html#ac9a81e78329f3b0dafee87842d6c1027" target="_top" xlink:title="get sun and moon position in ecef">
<polygon fill="white" stroke="red" points="428.5,-1608.5 428.5,-1627.5 507.5,-1627.5 507.5,-1608.5 428.5,-1608.5"/>
<text text-anchor="middle" x="468" y="-1615.5" font-family="Helvetica,sans-Serif" font-size="10.00">sunmoonpos</text>
</a>
</g>
</g>
<!-- Node72&#45;&gt;Node42 -->
<g id="edge27" class="edge">
<title>Node72&#45;&gt;Node42</title>
<path fill="none" stroke="midnightblue" d="M302.51,-1551.68C326.94,-1562.34 367.6,-1579.86 403,-1594 415.34,-1598.93 429.13,-1604.14 440.75,-1608.44"/>
</g>
<!-- Node76 -->
<g id="node22" class="node">
<title>Node76</title>
<g id="a_node22"><a xlink:href="tides_8cpp.html#a1d0911c3f8047cac2e12d8c8fdf957d2" target="_top" xlink:title=" ">
<polygon fill="white" stroke="red" points="436,-1494.5 436,-1513.5 500,-1513.5 500,-1494.5 436,-1494.5"/>
<text text-anchor="middle" x="468" y="-1501.5" font-family="Helvetica,sans-Serif" font-size="10.00">tide_solid</text>
</a>
</g>
</g>
<!-- Node72&#45;&gt;Node76 -->
<g id="edge28" class="edge">
<title>Node72&#45;&gt;Node76</title>
<path fill="none" stroke="midnightblue" d="M307.62,-1536.47C341.66,-1529.54 399.94,-1517.66 435.8,-1510.36"/>
</g>
<!-- Node78 -->
<g id="node23" class="node">
<title>Node78</title>
<g id="a_node23"><a xlink:href="tides_8cpp.html#abf02a9eaf9a87a687a1f1e451e7dc316" target="_top" xlink:title=" ">
<polygon fill="white" stroke="red" points="590.5,-1323.5 590.5,-1342.5 658.5,-1342.5 658.5,-1323.5 590.5,-1323.5"/>
<text text-anchor="middle" x="624.5" y="-1330.5" font-family="Helvetica,sans-Serif" font-size="10.00">tide_oload</text>
</a>
</g>
</g>
<!-- Node72&#45;&gt;Node78 -->
<g id="edge29" class="edge">
<title>Node72&#45;&gt;Node78</title>
<path fill="none" stroke="midnightblue" d="M307.69,-1540.14C326.18,-1537.62 350.24,-1531.72 367,-1518 394.37,-1495.59 375.78,-1469.6 403,-1447 449.31,-1408.55 479.93,-1437.41 533,-1409 566.83,-1390.89 599.52,-1358.69 614.69,-1342.64"/>
</g>
<!-- Node79 -->
<g id="node24" class="node">
<title>Node79</title>
<g id="a_node24"><a xlink:href="algebra__old_8cpp.html#adc33998911a24938042604ba1f8e6196" target="_top" xlink:title=" ">
<polygon fill="white" stroke="black" points="597,-1057.5 597,-1076.5 652,-1076.5 652,-1057.5 597,-1057.5"/>
<text text-anchor="middle" x="624.5" y="-1064.5" font-family="Helvetica,sans-Serif" font-size="10.00">matmul</text>
</a>
</g>
</g>
<!-- Node72&#45;&gt;Node79 -->
<g id="edge31" class="edge">
<title>Node72&#45;&gt;Node79</title>
<path fill="none" stroke="midnightblue" d="M307.75,-1541.63C327.01,-1539.86 351.98,-1534.25 367,-1518 423.86,-1456.49 369.29,-1409.68 403,-1333 442.14,-1243.98 481.94,-1239.77 533,-1157 551.57,-1126.89 542.37,-1109.29 569,-1086 576.85,-1079.14 587.31,-1074.72 596.97,-1071.89"/>
</g>
<!-- Node80 -->
<g id="node25" class="node">
<title>Node80</title>
<g id="a_node25"><a xlink:href="tides_8cpp.html#af30520a7f3dd68d03d68ee72c789fcda" target="_top" xlink:title=" ">
<polygon fill="white" stroke="red" points="437,-1456.5 437,-1475.5 499,-1475.5 499,-1456.5 437,-1456.5"/>
<text text-anchor="middle" x="468" y="-1463.5" font-family="Helvetica,sans-Serif" font-size="10.00">tide_pole</text>
</a>
</g>
</g>
<!-- Node72&#45;&gt;Node80 -->
<g id="edge32" class="edge">
<title>Node72&#45;&gt;Node80</title>
<path fill="none" stroke="midnightblue" d="M307.87,-1537.82C325.55,-1534.32 348.6,-1528.2 367,-1518 385.98,-1507.47 384.11,-1495.7 403,-1485 413.39,-1479.12 425.78,-1474.89 436.88,-1471.94"/>
</g>
<!-- Node78&#45;&gt;Node6 -->
<g id="edge30" class="edge">
<title>Node78&#45;&gt;Node6</title>
<path fill="none" stroke="midnightblue" d="M631.95,-1323.32C653.6,-1290.8 723.56,-1185.72 745.41,-1152.89"/>
</g>
<!-- Node82&#45;&gt;Node2 -->
<g id="edge47" class="edge">
<title>Node82&#45;&gt;Node2</title>
<path fill="none" stroke="midnightblue" d="M122.42,-753.74C129.05,-778.36 149.88,-843.49 192,-877 263.9,-934.21 375.99,-948.42 432.28,-951.9"/>
</g>
<!-- Node82&#45;&gt;Node5 -->
<g id="edge36" class="edge">
<title>Node82&#45;&gt;Node5</title>
<path fill="none" stroke="midnightblue" d="M120.2,-753.66C121.55,-808.74 131.28,-1082.49 192,-1133 221.14,-1157.24 501.53,-1145.13 533,-1124 564.03,-1103.17 541.2,-1072.98 569,-1048 576.38,-1041.37 586.2,-1037.03 595.47,-1034.19"/>
</g>
<!-- Node82&#45;&gt;Node6 -->
<g id="edge37" class="edge">
<title>Node82&#45;&gt;Node6</title>
<path fill="none" stroke="midnightblue" d="M120.26,-753.59C121.95,-808.28 133.26,-1080.19 192,-1133 348.37,-1273.58 640.16,-1183.79 727,-1152.52"/>
</g>
<!-- Node82&#45;&gt;Node7 -->
<g id="edge65" class="edge">
<title>Node82&#45;&gt;Node7</title>
<path fill="none" stroke="midnightblue" d="M144.38,-734.5C148.7,-731.94 152.83,-728.8 156,-725 190.05,-684.21 152.78,-646.85 192,-611 208.11,-596.27 232.97,-592.03 251.9,-591.18"/>
</g>
<!-- Node82&#45;&gt;Node58 -->
<g id="edge70" class="edge">
<title>Node82&#45;&gt;Node58</title>
<path fill="none" stroke="midnightblue" d="M146.13,-734.31C149.98,-731.83 153.48,-728.76 156,-725 203.18,-654.51 129.26,-402.08 192,-345 249.53,-292.66 294.77,-316.16 367,-345 411.03,-362.58 446.77,-409.8 460.71,-430.29"/>
</g>
<!-- Node82&#45;&gt;Node62 -->
<g id="edge43" class="edge">
<title>Node82&#45;&gt;Node62</title>
<path fill="none" stroke="midnightblue" d="M121.19,-753.77C125.24,-782.81 141.23,-869.33 192,-914 263.47,-976.88 382.42,-988.75 437.43,-990.76"/>
</g>
<!-- Node82&#45;&gt;Node73 -->
<g id="edge38" class="edge">
<title>Node82&#45;&gt;Node73</title>
<path fill="none" stroke="midnightblue" d="M120.38,-753.5C122.69,-805.38 136.53,-1053.78 192,-1100 263.35,-1159.46 385.02,-1131.45 439.37,-1114.57"/>
</g>
<!-- Node83 -->
<g id="node28" class="node">
<title>Node83</title>
<g id="a_node28"><a xlink:href="structKFState.html#a34fe78e0ab7a8f1d122ceabddc29b207" target="_top" xlink:title="Clears and initialises the state transition matrix to identity at the beginning of an epoch.">
<polygon fill="white" stroke="black" points="403,-658.5 403,-677.5 533,-677.5 533,-658.5 403,-658.5"/>
<text text-anchor="middle" x="468" y="-665.5" font-family="Helvetica,sans-Serif" font-size="10.00">KFState::initFilterEpoch</text>
</a>
</g>
</g>
<!-- Node82&#45;&gt;Node83 -->
<g id="edge35" class="edge">
<title>Node82&#45;&gt;Node83</title>
<path fill="none" stroke="midnightblue" d="M120.58,-753.6C123.79,-802.81 141.01,-1026.12 192,-1067 252.69,-1115.65 309.04,-1118.86 367,-1067 420.82,-1018.84 374.51,-810.37 403,-744 414.91,-716.26 440.44,-690.93 455.41,-677.68"/>
</g>
<!-- Node84 -->
<g id="node29" class="node">
<title>Node84</title>
<g id="a_node29"><a xlink:href="structACSConfig.html#a7ddfbaf20a1c9181d73d0dabe92beace" target="_top" xlink:title="Set receiver options for a specific receiver using a hierarchy of sources.">
<polygon fill="white" stroke="red" points="403,-753.5 403,-772.5 533,-772.5 533,-753.5 403,-753.5"/>
<text text-anchor="middle" x="468" y="-760.5" font-family="Helvetica,sans-Serif" font-size="10.00">ACSConfig::getRecOpts</text>
</a>
</g>
</g>
<!-- Node82&#45;&gt;Node84 -->
<g id="edge39" class="edge">
<title>Node82&#45;&gt;Node84</title>
<path fill="none" stroke="midnightblue" d="M120.58,-753.6C123.79,-802.81 141.01,-1026.12 192,-1067 252.69,-1115.65 308.66,-1118.44 367,-1067 462.77,-982.57 320.37,-879.33 403,-782 406.3,-778.11 410.36,-775 414.81,-772.51"/>
</g>
<!-- Node40 -->
<g id="node30" class="node">
<title>Node40</title>
<g id="a_node30"><a xlink:href="structKFState.html#a291ac2a8a4612b3575dbc864d43fa0f7" target="_top" xlink:title="Returns the value and variance of a state within the kalman filter object.">
<polygon fill="white" stroke="black" points="221,-1038.5 221,-1057.5 338,-1057.5 338,-1038.5 221,-1038.5"/>
<text text-anchor="middle" x="279.5" y="-1045.5" font-family="Helvetica,sans-Serif" font-size="10.00">KFState::getKFValue</text>
</a>
</g>
</g>
<!-- Node82&#45;&gt;Node40 -->
<g id="edge40" class="edge">
<title>Node82&#45;&gt;Node40</title>
<path fill="none" stroke="midnightblue" d="M121.17,-753.55C126.8,-797.95 152.45,-983.7 192,-1024 199.86,-1032.01 210.14,-1037.41 220.86,-1041.04"/>
</g>
<!-- Node92 -->
<g id="node31" class="node">
<title>Node92</title>
<g id="a_node31"><a xlink:href="ppp_8cpp.html#ad779b8fc6690a4089c1a6a0c56c972cf" target="_top" xlink:title=" ">
<polygon fill="white" stroke="red" points="569,-1095.5 569,-1114.5 680,-1114.5 680,-1095.5 569,-1095.5"/>
<text text-anchor="middle" x="624.5" y="-1102.5" font-family="Helvetica,sans-Serif" font-size="10.00">selectAprioriSource</text>
</a>
</g>
</g>
<!-- Node82&#45;&gt;Node92 -->
<g id="edge41" class="edge">
<title>Node82&#45;&gt;Node92</title>
<path fill="none" stroke="midnightblue" d="M120.25,-753.89C121.64,-787.99 130.88,-901.86 192,-963 206.83,-977.83 495.03,-1066.08 591.98,-1095.48"/>
</g>
<!-- Node94 -->
<g id="node32" class="node">
<title>Node94</title>
<g id="a_node32"><a xlink:href="rtkcmn_8cpp.html#a1926e232cdab381c3ccfc8abca86b2a8" target="_top" xlink:title=" ">
<polygon fill="white" stroke="black" points="437,-905.5 437,-924.5 499,-924.5 499,-905.5 437,-905.5"/>
<text text-anchor="middle" x="468" y="-912.5" font-family="Helvetica,sans-Serif" font-size="10.00">enu2ecef</text>
</a>
</g>
</g>
<!-- Node82&#45;&gt;Node94 -->
<g id="edge44" class="edge">
<title>Node82&#45;&gt;Node94</title>
<path fill="none" stroke="midnightblue" d="M122.08,-753.71C128.01,-778.85 147.54,-846.19 192,-877 267.27,-929.16 382.29,-924.83 436.6,-919.13"/>
</g>
<!-- Node95 -->
<g id="node33" class="node">
<title>Node95</title>
<g id="a_node33"><a xlink:href="ppp_8cpp.html#ab64566108038907ed6df48da876f33c3" target="_top" xlink:title=" ">
<polygon fill="white" stroke="red" points="234.5,-848.5 234.5,-867.5 324.5,-867.5 324.5,-848.5 234.5,-848.5"/>
<text text-anchor="middle" x="279.5" y="-855.5" font-family="Helvetica,sans-Serif" font-size="10.00">pppCorrections</text>
</a>
</g>
</g>
<!-- Node82&#45;&gt;Node95 -->
<g id="edge48" class="edge">
<title>Node82&#45;&gt;Node95</title>
<path fill="none" stroke="midnightblue" d="M124.38,-753.61C133.78,-773.06 157.83,-817.14 192,-839 204.56,-847.04 220.02,-851.71 234.38,-854.42"/>
</g>
<!-- Node112 -->
<g id="node34" class="node">
<title>Node112</title>
<g id="a_node34"><a xlink:href="ppp__user_8cpp.html#a123a4552194f4fd53016c9609a867d17" target="_top" xlink:title=" ">
<polygon fill="white" stroke="red" points="243.5,-810.5 243.5,-829.5 315.5,-829.5 315.5,-810.5 243.5,-810.5"/>
<text text-anchor="middle" x="279.5" y="-817.5" font-family="Helvetica,sans-Serif" font-size="10.00">udbias_ppp</text>
</a>
</g>
</g>
<!-- Node82&#45;&gt;Node112 -->
<g id="edge55" class="edge">
<title>Node82&#45;&gt;Node112</title>
<path fill="none" stroke="midnightblue" d="M129.27,-753.7C142.12,-766.54 166.65,-788.97 192,-801 207.98,-808.58 227.05,-813.18 243.22,-815.95"/>
</g>
<!-- Node114 -->
<g id="node35" class="node">
<title>Node114</title>
<g id="a_node35"><a xlink:href="algebra_8cpp.html#a304f0d512353a3c5a991c2439ea73287" target="_top" xlink:title=" ">
<polygon fill="white" stroke="black" points="405,-791.5 405,-810.5 531,-810.5 531,-791.5 405,-791.5"/>
<text text-anchor="middle" x="468" y="-798.5" font-family="Helvetica,sans-Serif" font-size="10.00">initialStateFromConfig</text>
</a>
</g>
</g>
<!-- Node82&#45;&gt;Node114 -->
<g id="edge60" class="edge">
<title>Node82&#45;&gt;Node114</title>
<path fill="none" stroke="midnightblue" d="M150.74,-742.41C198.17,-740.84 291.59,-741.22 367,-763 384.38,-768.02 386.25,-775.17 403,-782 411.69,-785.54 421.29,-788.75 430.35,-791.47"/>
</g>
<!-- Node115 -->
<g id="node36" class="node">
<title>Node115</title>
<g id="a_node36"><a xlink:href="structSatSys.html#a94d754d9f279f1cd3332d9d6ee27da21" target="_top" xlink:title="Returns the bias group associated with this satellite.">
<polygon fill="white" stroke="black" points="227,-772.5 227,-791.5 332,-791.5 332,-772.5 227,-772.5"/>
<text text-anchor="middle" x="279.5" y="-779.5" font-family="Helvetica,sans-Serif" font-size="10.00">SatSys::biasGroup</text>
</a>
</g>
</g>
<!-- Node82&#45;&gt;Node115 -->
<g id="edge59" class="edge">
<title>Node82&#45;&gt;Node115</title>
<path fill="none" stroke="midnightblue" d="M150.56,-751.33C175.66,-757.34 211.39,-765.91 238.72,-772.46"/>
</g>
<!-- Node116 -->
<g id="node37" class="node">
<title>Node116</title>
<g id="a_node37"><a xlink:href="structKFState.html#ae544a260c4983f5a1b06f71ddad7338f" target="_top" xlink:title="Adds dynamics to a filter state by inserting off&#45;diagonal, non&#45;time dependent elements to transition ...">
<polygon fill="white" stroke="red" points="222,-696.5 222,-715.5 337,-715.5 337,-696.5 222,-696.5"/>
<text text-anchor="middle" x="279.5" y="-703.5" font-family="Helvetica,sans-Serif" font-size="10.00">KFState::setKFTrans</text>
</a>
</g>
</g>
<!-- Node82&#45;&gt;Node116 -->
<g id="edge61" class="edge">
<title>Node82&#45;&gt;Node116</title>
<path fill="none" stroke="midnightblue" d="M150.56,-736.67C175.66,-730.66 211.39,-722.09 238.72,-715.54"/>
</g>
<!-- Node118 -->
<g id="node38" class="node">
<title>Node118</title>
<g id="a_node38"><a xlink:href="structKFState.html#a170d9c3a01bee9ec1f7264615b087c58" target="_top" xlink:title="Add process noise and dynamics to filter object according to time gap.">
<polygon fill="white" stroke="red" points="212.5,-658.5 212.5,-677.5 346.5,-677.5 346.5,-658.5 212.5,-658.5"/>
<text text-anchor="middle" x="279.5" y="-665.5" font-family="Helvetica,sans-Serif" font-size="10.00">KFState::stateTransition</text>
</a>
</g>
</g>
<!-- Node82&#45;&gt;Node118 -->
<g id="edge62" class="edge">
<title>Node82&#45;&gt;Node118</title>
<path fill="none" stroke="midnightblue" d="M140.89,-734.45C146.03,-731.71 151.38,-728.5 156,-725 174.53,-710.94 171.75,-698.44 192,-687 198.83,-683.14 206.37,-680.07 214.06,-677.62"/>
</g>
<!-- Node124 -->
<g id="node39" class="node">
<title>Node124</title>
<g id="a_node39"><a xlink:href="structACSConfig.html#a9f893b7ab2412f42ef7a02423d755940" target="_top" xlink:title="Set satellite options for a specific satellite using a hierarchy of sources.">
<polygon fill="white" stroke="red" points="215.5,-620.5 215.5,-639.5 343.5,-639.5 343.5,-620.5 215.5,-620.5"/>
<text text-anchor="middle" x="279.5" y="-627.5" font-family="Helvetica,sans-Serif" font-size="10.00">ACSConfig::getSatOpts</text>
</a>
</g>
</g>
<!-- Node82&#45;&gt;Node124 -->
<g id="edge64" class="edge">
<title>Node82&#45;&gt;Node124</title>
<path fill="none" stroke="midnightblue" d="M143.6,-734.36C148.09,-731.79 152.48,-728.67 156,-725 181.85,-698.01 162.76,-672.28 192,-649 198.86,-643.54 206.95,-639.57 215.39,-636.7"/>
</g>
<!-- Node128 -->
<g id="node40" class="node">
<title>Node128</title>
<g id="a_node40"><a xlink:href="ppp_8cpp.html#ac69b900e214bc27892a8c55b60a872a0" target="_top" xlink:title=" ">
<polygon fill="white" stroke="red" points="244,-506.5 244,-525.5 315,-525.5 315,-506.5 244,-506.5"/>
<text text-anchor="middle" x="279.5" y="-513.5" font-family="Helvetica,sans-Serif" font-size="10.00">sbstropcorr</text>
</a>
</g>
</g>
<!-- Node82&#45;&gt;Node128 -->
<g id="edge66" class="edge">
<title>Node82&#45;&gt;Node128</title>
<path fill="none" stroke="midnightblue" d="M145.48,-734.34C149.49,-731.83 153.23,-728.75 156,-725 207.07,-655.87 132.11,-596.65 192,-535 205.28,-521.32 225.99,-516.44 243.82,-515.04"/>
</g>
<!-- Node131 -->
<g id="node41" class="node">
<title>Node131</title>
<g id="a_node41"><a xlink:href="ppp_8cpp.html#ac3b334c7b75e0dda650bd38b16a212f6" target="_top" xlink:title=" ">
<polygon fill="white" stroke="red" points="230.5,-392.5 230.5,-411.5 328.5,-411.5 328.5,-392.5 230.5,-392.5"/>
<text text-anchor="middle" x="279.5" y="-399.5" font-family="Helvetica,sans-Serif" font-size="10.00">trop_model_prec</text>
</a>
</g>
</g>
<!-- Node82&#45;&gt;Node131 -->
<g id="edge68" class="edge">
<title>Node82&#45;&gt;Node131</title>
<path fill="none" stroke="midnightblue" d="M145.69,-734.49C149.68,-731.97 153.36,-728.84 156,-725 231.85,-614.72 104.75,-527.51 192,-426 201.65,-414.77 216.05,-408.57 230.35,-405.21"/>
</g>
<!-- Node97 -->
<g id="node42" class="node">
<title>Node97</title>
<g id="a_node42"><a xlink:href="rtkcmn_8cpp.html#aaab59d0f7176d2bfb38b0f1dfa7507a6" target="_top" xlink:title=" ">
<polygon fill="white" stroke="black" points="254,-354.5 254,-373.5 305,-373.5 305,-354.5 254,-354.5"/>
<text text-anchor="middle" x="279.5" y="-361.5" font-family="Helvetica,sans-Serif" font-size="10.00">sagnac</text>
</a>
</g>
</g>
<!-- Node82&#45;&gt;Node97 -->
<g id="edge69" class="edge">
<title>Node82&#45;&gt;Node97</title>
<path fill="none" stroke="midnightblue" d="M146.1,-734.29C149.95,-731.81 153.46,-728.75 156,-725 198.84,-661.71 141.05,-439.96 192,-383 207.27,-365.92 234.07,-362.29 253.8,-362.23"/>
</g>
<!-- Node138 -->
<g id="node43" class="node">
<title>Node138</title>
<g id="a_node43"><a xlink:href="structKFMeasEntry.html#a4a2241b60370da0d0d1a4c28250bb5b4" target="_top" xlink:title="Adds the innovation value for this measurement.">
<polygon fill="white" stroke="black" points="215.5,-278.5 215.5,-297.5 343.5,-297.5 343.5,-278.5 215.5,-278.5"/>
<text text-anchor="middle" x="279.5" y="-285.5" font-family="Helvetica,sans-Serif" font-size="10.00">KFMeasEntry::setInnov</text>
</a>
</g>
</g>
<!-- Node82&#45;&gt;Node138 -->
<g id="edge71" class="edge">
<title>Node82&#45;&gt;Node138</title>
<path fill="none" stroke="midnightblue" d="M146.15,-734.33C150,-731.84 153.5,-728.77 156,-725 206.95,-648.25 133.11,-382.84 192,-312 198.18,-304.57 206.44,-299.33 215.41,-295.66"/>
</g>
<!-- Node139 -->
<g id="node44" class="node">
<title>Node139</title>
<g id="a_node44"><a xlink:href="structKFMeasEntry.html#a1054abe38550bcd614c1a3c1afe752ee" target="_top" xlink:title="Adds the measurement noise entry for this measurement.">
<polygon fill="white" stroke="black" points="215,-240.5 215,-259.5 344,-259.5 344,-240.5 215,-240.5"/>
<text text-anchor="middle" x="279.5" y="-247.5" font-family="Helvetica,sans-Serif" font-size="10.00">KFMeasEntry::setNoise</text>
</a>
</g>
</g>
<!-- Node82&#45;&gt;Node139 -->
<g id="edge72" class="edge">
<title>Node82&#45;&gt;Node139</title>
<path fill="none" stroke="midnightblue" d="M146.18,-734.34C150.02,-731.86 153.51,-728.78 156,-725 211.87,-640.09 125.23,-345.64 192,-269 198.06,-262.04 206.03,-257.31 214.68,-254.13"/>
</g>
<!-- Node140 -->
<g id="node45" class="node">
<title>Node140</title>
<g id="a_node45"><a xlink:href="structKFMeasEntry.html#aa07d07ef75fccb307a91283ec47b38a8" target="_top" xlink:title="Adds a design matrix entry for this measurement.">
<polygon fill="white" stroke="black" points="202,-202.5 202,-221.5 357,-221.5 357,-202.5 202,-202.5"/>
<text text-anchor="middle" x="279.5" y="-209.5" font-family="Helvetica,sans-Serif" font-size="10.00">KFMeasEntry::addDsgnEntry</text>
</a>
</g>
</g>
<!-- Node82&#45;&gt;Node140 -->
<g id="edge73" class="edge">
<title>Node82&#45;&gt;Node140</title>
<path fill="none" stroke="midnightblue" d="M146.2,-734.36C150.04,-731.87 153.53,-728.79 156,-725 216.22,-632.87 119.95,-314.21 192,-231 195.22,-227.28 198.99,-224.19 203.11,-221.64"/>
</g>
<!-- Node141 -->
<g id="node46" class="node">
<title>Node141</title>
<g id="a_node46"><a xlink:href="structKFState.html#a3808815eb5103a8d8f5514af130a0700" target="_top" xlink:title="Adds dynamics to a filter state by inserting off&#45;diagonal, time dependent elements to transition matr...">
<polygon fill="white" stroke="red" points="211,-164.5 211,-183.5 348,-183.5 348,-164.5 211,-164.5"/>
<text text-anchor="middle" x="279.5" y="-171.5" font-family="Helvetica,sans-Serif" font-size="10.00">KFState::setKFTransRate</text>
</a>
</g>
</g>
<!-- Node82&#45;&gt;Node141 -->
<g id="edge74" class="edge">
<title>Node82&#45;&gt;Node141</title>
<path fill="none" stroke="midnightblue" d="M146.22,-734.37C150.05,-731.88 153.54,-728.79 156,-725 220.58,-625.65 114.67,-282.78 192,-193 197.12,-187.06 203.63,-182.73 210.78,-179.61"/>
</g>
<!-- Node142 -->
<g id="node47" class="node">
<title>Node142</title>
<g id="a_node47"><a xlink:href="GinARWLamb_8cpp.html#aa11b4c1b41a5e7ed3aec7faca15cad1e" target="_top" xlink:title="Remove ambiguity states from filter when they are not measured for an epoch.">
<polygon fill="white" stroke="red" points="192,-126.5 192,-145.5 367,-145.5 367,-126.5 192,-126.5"/>
<text text-anchor="middle" x="279.5" y="-133.5" font-family="Helvetica,sans-Serif" font-size="10.00">removeUnmeasuredAmbiguities</text>
</a>
</g>
</g>
<!-- Node82&#45;&gt;Node142 -->
<g id="edge75" class="edge">
<title>Node82&#45;&gt;Node142</title>
<path fill="none" stroke="midnightblue" d="M146.23,-734.38C150.07,-731.88 153.54,-728.8 156,-725 224.93,-618.43 109.38,-251.35 192,-155 195.2,-151.27 198.96,-148.17 203.07,-145.6"/>
</g>
<!-- Node143 -->
<g id="node48" class="node">
<title>Node143</title>
<g id="a_node48"><a xlink:href="structKFState.html#a4422abfc2efdc898a2558d57be35e863" target="_top" xlink:title="Combine a list of KFMeasEntrys into a single KFMeas object for used in the filter.">
<polygon fill="white" stroke="red" points="200,-88.5 200,-107.5 359,-107.5 359,-88.5 200,-88.5"/>
<text text-anchor="middle" x="279.5" y="-95.5" font-family="Helvetica,sans-Serif" font-size="10.00">KFState::combineKFMeasList</text>
</a>
</g>
</g>
<!-- Node82&#45;&gt;Node143 -->
<g id="edge77" class="edge">
<title>Node82&#45;&gt;Node143</title>
<path fill="none" stroke="midnightblue" d="M146.24,-734.39C150.08,-731.89 153.55,-728.8 156,-725 229.28,-611.21 104.1,-219.92 192,-117 195.2,-113.26 198.94,-110.16 203.06,-107.59"/>
</g>
<!-- Node144 -->
<g id="node49" class="node">
<title>Node144</title>
<g id="a_node49"><a xlink:href="structKFState.html#ae1fc274c403b77dc814ed90763b4dea1" target="_top" xlink:title="Least squares estimator for new kalman filter states.">
<polygon fill="white" stroke="red" points="212.5,-39 212.5,-69 346.5,-69 346.5,-39 212.5,-39"/>
<text text-anchor="start" x="220.5" y="-57" font-family="Helvetica,sans-Serif" font-size="10.00">KFState::leastSquareInit</text>
<text text-anchor="middle" x="279.5" y="-46" font-family="Helvetica,sans-Serif" font-size="10.00">States</text>
</a>
</g>
</g>
<!-- Node82&#45;&gt;Node144 -->
<g id="edge78" class="edge">
<title>Node82&#45;&gt;Node144</title>
<path fill="none" stroke="midnightblue" d="M146.25,-734.39C150.09,-731.9 153.56,-728.81 156,-725 233.64,-603.99 102.43,-191.47 192,-79 197.36,-72.27 204.4,-67.29 212.17,-63.6"/>
</g>
<!-- Node146 -->
<g id="node50" class="node">
<title>Node146</title>
<g id="a_node50"><a xlink:href="structKFState.html#a21a4858020ad706771efeea814d6c43f" target="_top" xlink:title="Kalman filter operation.">
<polygon fill="white" stroke="red" points="218.5,-0.5 218.5,-19.5 340.5,-19.5 340.5,-0.5 218.5,-0.5"/>
<text text-anchor="middle" x="279.5" y="-7.5" font-family="Helvetica,sans-Serif" font-size="10.00">KFState::filterKalman</text>
</a>
</g>
</g>
<!-- Node82&#45;&gt;Node146 -->
<g id="edge79" class="edge">
<title>Node82&#45;&gt;Node146</title>
<path fill="none" stroke="midnightblue" d="M146.27,-734.4C150.1,-731.91 153.57,-728.81 156,-725 197.68,-659.74 141.93,-88.07 192,-29 198.86,-20.91 208.31,-15.8 218.45,-12.65"/>
</g>
<!-- Node92&#45;&gt;Node6 -->
<g id="edge42" class="edge">
<title>Node92&#45;&gt;Node6</title>
<path fill="none" stroke="midnightblue" d="M657.42,-1114.59C676.6,-1120.35 700.91,-1127.65 720.09,-1133.41"/>
</g>
<!-- Node94&#45;&gt;Node75 -->
<g id="edge45" class="edge">
<title>Node94&#45;&gt;Node75</title>
<path fill="none" stroke="midnightblue" d="M499.04,-917.19C511.2,-919.61 524.38,-924.45 533,-934 590.62,-997.77 512.89,-1058.89 569,-1124 575.67,-1131.74 585.68,-1136.33 595.31,-1139.05"/>
</g>
<!-- Node94&#45;&gt;Node79 -->
<g id="edge46" class="edge">
<title>Node94&#45;&gt;Node79</title>
<path fill="none" stroke="midnightblue" d="M499.16,-917.84C511.05,-920.39 523.99,-925.14 533,-934 570.89,-971.24 531.99,-1009.88 569,-1048 576.4,-1055.62 587.01,-1060.19 596.91,-1062.92"/>
</g>
<!-- Node95&#45;&gt;Node2 -->
<g id="edge52" class="edge">
<title>Node95&#45;&gt;Node2</title>
<path fill="none" stroke="midnightblue" d="M324.9,-864.14C339.28,-867.67 354.68,-873.24 367,-882 389.91,-898.29 380.24,-917.51 403,-934 411.64,-940.26 422.33,-944.47 432.49,-947.3"/>
</g>
<!-- Node95&#45;&gt;Node6 -->
<g id="edge49" class="edge">
<title>Node95&#45;&gt;Node6</title>
<path fill="none" stroke="midnightblue" d="M321.8,-848.49C373.46,-838.68 463.58,-828.56 533,-858 661.68,-912.57 732.84,-1089.85 748.62,-1133.31"/>
</g>
<!-- Node95&#45;&gt;Node58 -->
<g id="edge54" class="edge">
<title>Node95&#45;&gt;Node58</title>
<path fill="none" stroke="midnightblue" d="M324.88,-857.86C340.12,-855.55 356.07,-850.25 367,-839 426.89,-777.35 382.39,-732.44 403,-649 422.2,-571.27 453.23,-479.69 463.54,-449.9"/>
</g>
<!-- Node95&#45;&gt;Node62 -->
<g id="edge51" class="edge">
<title>Node95&#45;&gt;Node62</title>
<path fill="none" stroke="midnightblue" d="M288.01,-867.51C305.7,-889.28 352.3,-943.03 403,-972 413.57,-978.04 426.23,-982.32 437.5,-985.27"/>
</g>
<!-- Node95&#45;&gt;Node73 -->
<g id="edge50" class="edge">
<title>Node95&#45;&gt;Node73</title>
<path fill="none" stroke="midnightblue" d="M287.81,-867.68C317.65,-907.2 430,-1056 459.74,-1095.38"/>
</g>
<!-- Node95&#45;&gt;Node94 -->
<g id="edge53" class="edge">
<title>Node95&#45;&gt;Node94</title>
<path fill="none" stroke="midnightblue" d="M318.22,-867.58C333.47,-871.69 351.17,-876.74 367,-882 383.29,-887.41 386.76,-890.44 403,-896 413.97,-899.75 426.13,-903.47 436.88,-906.61"/>
</g>
<!-- Node112&#45;&gt;Node2 -->
<g id="edge56" class="edge">
<title>Node112&#45;&gt;Node2</title>
<path fill="none" stroke="midnightblue" d="M315.55,-820.13C332.83,-821.93 352.92,-826.84 367,-839 401.17,-868.51 369.92,-903.27 403,-934 411.07,-941.49 421.96,-946.04 432.47,-948.8"/>
</g>
<!-- Node112&#45;&gt;Node84 -->
<g id="edge58" class="edge">
<title>Node112&#45;&gt;Node84</title>
<path fill="none" stroke="midnightblue" d="M315.62,-814.51C331.59,-811.45 350.54,-807.03 367,-801 383.99,-794.78 386.25,-788.83 403,-782 411.69,-778.46 421.29,-775.25 430.35,-772.53"/>
</g>
<!-- Node112&#45;&gt;Node114 -->
<g id="edge57" class="edge">
<title>Node112&#45;&gt;Node114</title>
<path fill="none" stroke="midnightblue" d="M315.58,-816.43C340.69,-813.87 375.18,-810.35 404.89,-807.33"/>
</g>
<!-- Node118&#45;&gt;Node83 -->
<g id="edge63" class="edge">
<title>Node118&#45;&gt;Node83</title>
<path fill="none" stroke="midnightblue" d="M346.52,-668C364.85,-668 384.73,-668 402.95,-668"/>
</g>
<!-- Node128&#45;&gt;Node62 -->
<g id="edge67" class="edge">
<title>Node128&#45;&gt;Node62</title>
<path fill="none" stroke="midnightblue" d="M315.33,-514.47C333.43,-515.66 354.35,-520.53 367,-535 431.13,-608.36 341.56,-896.37 403,-972 411.33,-982.26 424.93,-987.15 437.46,-989.41"/>
</g>
<!-- Node142&#45;&gt;Node2 -->
<g id="edge76" class="edge">
<title>Node142&#45;&gt;Node2</title>
<path fill="none" stroke="midnightblue" d="M356,-145.54C360.1,-148.12 363.83,-151.24 367,-155 422.85,-221.25 349.59,-865.77 403,-934 410.07,-943.04 421.25,-947.92 432.29,-950.52"/>
</g>
<!-- Node146&#45;&gt;Node83 -->
<g id="edge80" class="edge">
<title>Node146&#45;&gt;Node83</title>
<path fill="none" stroke="midnightblue" d="M340.79,-12.96C350.78,-16.1 360.11,-21.13 367,-29 430.16,-101.15 384.86,-364.84 403,-459 418.15,-537.62 451.8,-628.62 463.17,-658.18"/>
</g>
<!-- Node158&#45;&gt;Node40 -->
<g id="edge82" class="edge">
<title>Node158&#45;&gt;Node40</title>
<path fill="none" stroke="midnightblue" d="M144.97,-715.54C149.14,-718.08 153.06,-721.2 156,-725 198.5,-779.89 168.17,-811.79 192,-877 215.53,-941.37 257.2,-1012.87 272.58,-1038.35"/>
</g>
</g>
</svg>
