<?xml version="1.0" encoding="UTF-8" standalone="no"?>
<!DOCTYPE svg PUBLIC "-//W3C//DTD SVG 1.1//EN"
 "http://www.w3.org/Graphics/SVG/1.1/DTD/svg11.dtd">
<!-- Generated by graphviz version 2.43.0 (0)
 -->
<!-- Title: orbitGlitchReaction Pages: 1 -->
<svg width="325pt" height="66pt"
 viewBox="0.00 0.00 325.00 66.00" xmlns="http://www.w3.org/2000/svg" xmlns:xlink="http://www.w3.org/1999/xlink">
<g id="graph0" class="graph" transform="scale(1 1) rotate(0) translate(4 62)">
<title>orbitGlitchReaction</title>
<polygon fill="white" stroke="transparent" points="-4,4 -4,-62 321,-62 321,4 -4,4"/>
<!-- Node1 -->
<g id="node1" class="node">
<title>Node1</title>
<g id="a_node1"><a xlink:title=" ">
<polygon fill="#bfbfbf" stroke="black" points="0,-19.5 0,-38.5 110,-38.5 110,-19.5 0,-19.5"/>
<text text-anchor="middle" x="55" y="-26.5" font-family="Helvetica,sans-Serif" font-size="10.00">orbitGlitchReaction</text>
</a>
</g>
</g>
<!-- Node2 -->
<g id="node2" class="node">
<title>Node2</title>
<g id="a_node2"><a xlink:href="structKFState.html#af61c11042a105999c159c7461696eacf" target="_top" xlink:title=" ">
<polygon fill="white" stroke="black" points="151,-38.5 151,-57.5 312,-57.5 312,-38.5 151,-38.5"/>
<text text-anchor="middle" x="231.5" y="-45.5" font-family="Helvetica,sans-Serif" font-size="10.00">KFState::setExponentialNoise</text>
</a>
</g>
</g>
<!-- Node1&#45;&gt;Node2 -->
<g id="edge1" class="edge">
<title>Node1&#45;&gt;Node2</title>
<path fill="none" stroke="midnightblue" d="M110.26,-34.91C123.16,-36.31 137.2,-37.84 150.98,-39.34"/>
</g>
<!-- Node3 -->
<g id="node3" class="node">
<title>Node3</title>
<g id="a_node3"><a xlink:href="structKFState.html#a35b82ca74c6a6795abf1b6e919a4fec1" target="_top" xlink:title="Add process noise and dynamics to filter object manually.">
<polygon fill="white" stroke="red" points="146,-0.5 146,-19.5 317,-19.5 317,-0.5 146,-0.5"/>
<text text-anchor="middle" x="231.5" y="-7.5" font-family="Helvetica,sans-Serif" font-size="10.00">KFState::manualStateTransition</text>
</a>
</g>
</g>
<!-- Node1&#45;&gt;Node3 -->
<g id="edge2" class="edge">
<title>Node1&#45;&gt;Node3</title>
<path fill="none" stroke="midnightblue" d="M110.26,-23.09C121.56,-21.86 133.73,-20.54 145.84,-19.22"/>
</g>
</g>
</svg>
