<?xml version="1.0" encoding="UTF-8" standalone="no"?>
<!DOCTYPE svg PUBLIC "-//W3C//DTD SVG 1.1//EN"
 "http://www.w3.org/Graphics/SVG/1.1/DTD/svg11.dtd">
<!-- Generated by graphviz version 2.43.0 (0)
 -->
<!-- Title: pppIonStec3 Pages: 1 -->
<svg width="246pt" height="142pt"
 viewBox="0.00 0.00 246.00 142.00" xmlns="http://www.w3.org/2000/svg" xmlns:xlink="http://www.w3.org/1999/xlink">
<g id="graph0" class="graph" transform="scale(1 1) rotate(0) translate(4 138)">
<title>pppIonStec3</title>
<polygon fill="white" stroke="transparent" points="-4,4 -4,-138 242,-138 242,4 -4,4"/>
<!-- Node1 -->
<g id="node1" class="node">
<title>Node1</title>
<g id="a_node1"><a xlink:title="3rd order ionospheric correction See ref [1]">
<polygon fill="#bfbfbf" stroke="black" points="0,-57.5 0,-76.5 77,-76.5 77,-57.5 0,-57.5"/>
<text text-anchor="middle" x="38.5" y="-64.5" font-family="Helvetica,sans-Serif" font-size="10.00">pppIonStec3</text>
</a>
</g>
</g>
<!-- Node2 -->
<g id="node2" class="node">
<title>Node2</title>
<g id="a_node2"><a xlink:href="lambda_8cpp.html#a364f9f201016e3baff0a9366158a823b" target="_top" xlink:title=" ">
<polygon fill="white" stroke="red" points="149,-114.5 149,-133.5 202,-133.5 202,-114.5 149,-114.5"/>
<text text-anchor="middle" x="175.5" y="-121.5" font-family="Helvetica,sans-Serif" font-size="10.00">lambda</text>
</a>
</g>
</g>
<!-- Node1&#45;&gt;Node2 -->
<g id="edge1" class="edge">
<title>Node1&#45;&gt;Node2</title>
<path fill="none" stroke="midnightblue" d="M56.03,-76.62C70.67,-84.88 92.79,-96.73 113,-105 121.25,-108.38 130.33,-111.49 138.93,-114.19"/>
<polygon fill="midnightblue" stroke="midnightblue" points="138.12,-117.6 148.71,-117.14 140.15,-110.9 138.12,-117.6"/>
</g>
<!-- Node24 -->
<g id="node3" class="node">
<title>Node24</title>
<g id="a_node3"><a xlink:href="ionModels_8cpp.html#a1ce76f618297ca5c19ad83cef18d3b62" target="_top" xlink:title="ionosphere mapping function">
<polygon fill="white" stroke="black" points="147,-76.5 147,-95.5 204,-95.5 204,-76.5 147,-76.5"/>
<text text-anchor="middle" x="175.5" y="-83.5" font-family="Helvetica,sans-Serif" font-size="10.00">ionmapf</text>
</a>
</g>
</g>
<!-- Node1&#45;&gt;Node24 -->
<g id="edge2" class="edge">
<title>Node1&#45;&gt;Node24</title>
<path fill="none" stroke="midnightblue" d="M77.11,-72.29C95.8,-74.92 118.33,-78.09 137.01,-80.72"/>
<polygon fill="midnightblue" stroke="midnightblue" points="136.55,-84.19 146.94,-82.12 137.53,-77.26 136.55,-84.19"/>
</g>
<!-- Node25 -->
<g id="node4" class="node">
<title>Node25</title>
<g id="a_node4"><a xlink:href="algebra_8cpp.html#a4a6a1ebf759ddc5d9d6d1de14269c5af" target="_top" xlink:title=" ">
<polygon fill="white" stroke="black" points="113,-38.5 113,-57.5 238,-57.5 238,-38.5 113,-38.5"/>
<text text-anchor="middle" x="175.5" y="-45.5" font-family="Helvetica,sans-Serif" font-size="10.00">initialStateFromConfig</text>
</a>
</g>
</g>
<!-- Node1&#45;&gt;Node25 -->
<g id="edge3" class="edge">
<title>Node1&#45;&gt;Node25</title>
<path fill="none" stroke="midnightblue" d="M77.11,-61.71C85.15,-60.57 93.91,-59.34 102.77,-58.1"/>
<polygon fill="midnightblue" stroke="midnightblue" points="103.37,-61.55 112.78,-56.69 102.39,-54.61 103.37,-61.55"/>
</g>
<!-- Node26 -->
<g id="node5" class="node">
<title>Node26</title>
<g id="a_node5"><a xlink:href="ionModels_8cpp.html#a40543623e2cbff738c3ce74aeda214fd" target="_top" xlink:title="ionospheric model">
<polygon fill="white" stroke="red" points="141.5,-0.5 141.5,-19.5 209.5,-19.5 209.5,-0.5 141.5,-0.5"/>
<text text-anchor="middle" x="175.5" y="-7.5" font-family="Helvetica,sans-Serif" font-size="10.00">ionoModel</text>
</a>
</g>
</g>
<!-- Node1&#45;&gt;Node26 -->
<g id="edge4" class="edge">
<title>Node1&#45;&gt;Node26</title>
<path fill="none" stroke="midnightblue" d="M56.03,-57.38C70.67,-49.12 92.79,-37.27 113,-29 118.91,-26.58 125.24,-24.3 131.51,-22.21"/>
<polygon fill="midnightblue" stroke="midnightblue" points="132.79,-25.48 141.25,-19.09 130.65,-18.81 132.79,-25.48"/>
</g>
</g>
</svg>
