<?xml version="1.0" encoding="UTF-8" standalone="no"?>
<!DOCTYPE svg PUBLIC "-//W3C//DTD SVG 1.1//EN"
 "http://www.w3.org/Graphics/SVG/1.1/DTD/svg11.dtd">
<!-- Generated by graphviz version 2.43.0 (0)
 -->
<!-- Title: ionoPseudoObs Pages: 1 -->
<svg width="294pt" height="180pt"
 viewBox="0.00 0.00 294.00 180.00" xmlns="http://www.w3.org/2000/svg" xmlns:xlink="http://www.w3.org/1999/xlink">
<g id="graph0" class="graph" transform="scale(1 1) rotate(0) translate(4 176)">
<title>ionoPseudoObs</title>
<polygon fill="white" stroke="transparent" points="-4,4 -4,-176 290,-176 290,4 -4,4"/>
<!-- Node1 -->
<g id="node1" class="node">
<title>Node1</title>
<g id="a_node1"><a xlink:title=" ">
<polygon fill="#bfbfbf" stroke="black" points="0,-76.5 0,-95.5 92,-95.5 92,-76.5 0,-76.5"/>
<text text-anchor="middle" x="46" y="-83.5" font-family="Helvetica,sans-Serif" font-size="10.00">ionoPseudoObs</text>
</a>
</g>
</g>
<!-- Node2 -->
<g id="node2" class="node">
<title>Node2</title>
<g id="a_node2"><a xlink:href="ionoModel_8cpp.html#a3c49145d4a23afb2c28012e9e286107e" target="_top" xlink:title=" ">
<polygon fill="white" stroke="red" points="171,-152.5 171,-171.5 243,-171.5 243,-152.5 171,-152.5"/>
<text text-anchor="middle" x="207" y="-159.5" font-family="Helvetica,sans-Serif" font-size="10.00">getSSRIono</text>
</a>
</g>
</g>
<!-- Node1&#45;&gt;Node2 -->
<g id="edge1" class="edge">
<title>Node1&#45;&gt;Node2</title>
<path fill="none" stroke="midnightblue" d="M57.71,-95.56C72.49,-108.24 100.44,-130.49 128,-143 141.45,-149.11 157.14,-153.41 170.9,-156.36"/>
</g>
<!-- Node35 -->
<g id="node3" class="node">
<title>Node35</title>
<g id="a_node3"><a xlink:href="structKFState.html#a405c50a3085d8328e81dcd6786f775d3" target="_top" xlink:title="Returns the value and variance of a state within the kalman filter object.">
<polygon fill="white" stroke="black" points="148.5,-114.5 148.5,-133.5 265.5,-133.5 265.5,-114.5 148.5,-114.5"/>
<text text-anchor="middle" x="207" y="-121.5" font-family="Helvetica,sans-Serif" font-size="10.00">KFState::getKFValue</text>
</a>
</g>
</g>
<!-- Node1&#45;&gt;Node35 -->
<g id="edge2" class="edge">
<title>Node1&#45;&gt;Node35</title>
<path fill="none" stroke="midnightblue" d="M87.12,-95.59C111.32,-101.37 142.02,-108.71 166.17,-114.48"/>
</g>
<!-- Node36 -->
<g id="node4" class="node">
<title>Node36</title>
<g id="a_node4"><a xlink:href="structKFMeasEntry.html#a5acb825be0bbd5c284f5922b2fa82242" target="_top" xlink:title="Adds a design matrix entry for this measurement.">
<polygon fill="white" stroke="black" points="129.5,-76.5 129.5,-95.5 284.5,-95.5 284.5,-76.5 129.5,-76.5"/>
<text text-anchor="middle" x="207" y="-83.5" font-family="Helvetica,sans-Serif" font-size="10.00">KFMeasEntry::addDsgnEntry</text>
</a>
</g>
</g>
<!-- Node1&#45;&gt;Node36 -->
<g id="edge3" class="edge">
<title>Node1&#45;&gt;Node36</title>
<path fill="none" stroke="midnightblue" d="M92.14,-86C103.8,-86 116.68,-86 129.46,-86"/>
</g>
<!-- Node37 -->
<g id="node5" class="node">
<title>Node37</title>
<g id="a_node5"><a xlink:href="structKFMeasEntry.html#ac15ff59e0acb09be8ed75ccee2411dd2" target="_top" xlink:title="Adds the innovation value for this measurement.">
<polygon fill="white" stroke="black" points="143,-38.5 143,-57.5 271,-57.5 271,-38.5 143,-38.5"/>
<text text-anchor="middle" x="207" y="-45.5" font-family="Helvetica,sans-Serif" font-size="10.00">KFMeasEntry::setInnov</text>
</a>
</g>
</g>
<!-- Node1&#45;&gt;Node37 -->
<g id="edge4" class="edge">
<title>Node1&#45;&gt;Node37</title>
<path fill="none" stroke="midnightblue" d="M87.12,-76.41C111.32,-70.63 142.02,-63.29 166.17,-57.52"/>
</g>
<!-- Node38 -->
<g id="node6" class="node">
<title>Node38</title>
<g id="a_node6"><a xlink:href="structKFMeasEntry.html#a7b34625115c46a7943e1ac8ffb7478e9" target="_top" xlink:title="Adds a noise element for this measurement.">
<polygon fill="white" stroke="red" points="128,-0.5 128,-19.5 286,-19.5 286,-0.5 128,-0.5"/>
<text text-anchor="middle" x="207" y="-7.5" font-family="Helvetica,sans-Serif" font-size="10.00">KFMeasEntry::addNoiseEntry</text>
</a>
</g>
</g>
<!-- Node1&#45;&gt;Node38 -->
<g id="edge5" class="edge">
<title>Node1&#45;&gt;Node38</title>
<path fill="none" stroke="midnightblue" d="M57.71,-76.44C72.49,-63.76 100.44,-41.51 128,-29 136.38,-25.2 145.62,-22.09 154.72,-19.58"/>
</g>
</g>
</svg>
