<?xml version="1.0" encoding="UTF-8" standalone="no"?>
<!DOCTYPE svg PUBLIC "-//W3C//DTD SVG 1.1//EN"
 "http://www.w3.org/Graphics/SVG/1.1/DTD/svg11.dtd">
<!-- Generated by graphviz version 2.43.0 (0)
 -->
<!-- Title: pppIonStec2 Pages: 1 -->
<svg width="258pt" height="180pt"
 viewBox="0.00 0.00 258.00 180.00" xmlns="http://www.w3.org/2000/svg" xmlns:xlink="http://www.w3.org/1999/xlink">
<g id="graph0" class="graph" transform="scale(1 1) rotate(0) translate(4 176)">
<title>pppIonStec2</title>
<polygon fill="white" stroke="transparent" points="-4,4 -4,-176 254,-176 254,4 -4,4"/>
<!-- Node1 -->
<g id="node1" class="node">
<title>Node1</title>
<g id="a_node1"><a xlink:title="2nd order ionospheric correction See ref [1]">
<polygon fill="#bfbfbf" stroke="black" points="0,-76.5 0,-95.5 77,-95.5 77,-76.5 0,-76.5"/>
<text text-anchor="middle" x="38.5" y="-83.5" font-family="Helvetica,sans-Serif" font-size="10.00">pppIonStec2</text>
</a>
</g>
</g>
<!-- Node2 -->
<g id="node2" class="node">
<title>Node2</title>
<g id="a_node2"><a xlink:href="lambda_8cpp.html#a364f9f201016e3baff0a9366158a823b" target="_top" xlink:title=" ">
<polygon fill="white" stroke="red" points="155,-152.5 155,-171.5 208,-171.5 208,-152.5 155,-152.5"/>
<text text-anchor="middle" x="181.5" y="-159.5" font-family="Helvetica,sans-Serif" font-size="10.00">lambda</text>
</a>
</g>
</g>
<!-- Node1&#45;&gt;Node2 -->
<g id="edge1" class="edge">
<title>Node1&#45;&gt;Node2</title>
<path fill="none" stroke="midnightblue" d="M49.57,-95.9C62.97,-108.56 87.91,-130.35 113,-143 126.15,-149.63 141.95,-154.24 154.96,-157.25"/>
</g>
<!-- Node24 -->
<g id="node3" class="node">
<title>Node24</title>
<g id="a_node3"><a xlink:href="corrections_8cpp.html#aec9a97032eb54cc4407cb4a36dccdcb8" target="_top" xlink:title=" ">
<polygon fill="white" stroke="red" points="156.5,-114.5 156.5,-133.5 206.5,-133.5 206.5,-114.5 156.5,-114.5"/>
<text text-anchor="middle" x="181.5" y="-121.5" font-family="Helvetica,sans-Serif" font-size="10.00">ionppp</text>
</a>
</g>
</g>
<!-- Node1&#45;&gt;Node24 -->
<g id="edge2" class="edge">
<title>Node1&#45;&gt;Node24</title>
<path fill="none" stroke="midnightblue" d="M75.08,-95.59C100.53,-102.45 134.11,-111.5 156.46,-117.52"/>
</g>
<!-- Node27 -->
<g id="node4" class="node">
<title>Node27</title>
<g id="a_node4"><a xlink:href="geomagField_8cpp.html#a59c145bc8f2b7d8ca2fe761d1c093134" target="_top" xlink:title="Compute the geomagnetic field components in ECEF reference system at given time and position.">
<polygon fill="white" stroke="red" points="113,-76.5 113,-95.5 250,-95.5 250,-76.5 113,-76.5"/>
<text text-anchor="middle" x="181.5" y="-83.5" font-family="Helvetica,sans-Serif" font-size="10.00">getGeomagIntensityEcef</text>
</a>
</g>
</g>
<!-- Node1&#45;&gt;Node27 -->
<g id="edge3" class="edge">
<title>Node1&#45;&gt;Node27</title>
<path fill="none" stroke="midnightblue" d="M77.29,-86C88.3,-86 100.68,-86 112.94,-86"/>
</g>
<!-- Node38 -->
<g id="node5" class="node">
<title>Node38</title>
<g id="a_node5"><a xlink:href="algebra_8cpp.html#a304f0d512353a3c5a991c2439ea73287" target="_top" xlink:title=" ">
<polygon fill="white" stroke="black" points="118.5,-38.5 118.5,-57.5 244.5,-57.5 244.5,-38.5 118.5,-38.5"/>
<text text-anchor="middle" x="181.5" y="-45.5" font-family="Helvetica,sans-Serif" font-size="10.00">initialStateFromConfig</text>
</a>
</g>
</g>
<!-- Node1&#45;&gt;Node38 -->
<g id="edge4" class="edge">
<title>Node1&#45;&gt;Node38</title>
<path fill="none" stroke="midnightblue" d="M75.08,-76.41C96.45,-70.65 123.56,-63.35 144.93,-57.59"/>
</g>
<!-- Node39 -->
<g id="node6" class="node">
<title>Node39</title>
<g id="a_node6"><a xlink:href="ppp_8cpp.html#a08fc6acb7b0150a3980428eac9963e59" target="_top" xlink:title="ionospheric model">
<polygon fill="white" stroke="red" points="147.5,-0.5 147.5,-19.5 215.5,-19.5 215.5,-0.5 147.5,-0.5"/>
<text text-anchor="middle" x="181.5" y="-7.5" font-family="Helvetica,sans-Serif" font-size="10.00">ionoModel</text>
</a>
</g>
</g>
<!-- Node1&#45;&gt;Node39 -->
<g id="edge5" class="edge">
<title>Node1&#45;&gt;Node39</title>
<path fill="none" stroke="midnightblue" d="M49.57,-76.1C62.97,-63.44 87.91,-41.65 113,-29 123.65,-23.63 136.04,-19.59 147.28,-16.64"/>
</g>
</g>
</svg>
