<?xml version="1.0" encoding="UTF-8" standalone="no"?>
<!DOCTYPE svg PUBLIC "-//W3C//DTD SVG 1.1//EN"
 "http://www.w3.org/Graphics/SVG/1.1/DTD/svg11.dtd">
<!-- Generated by graphviz version 2.43.0 (0)
 -->
<!-- Title: deweightByState Pages: 1 -->
<svg width="317pt" height="47pt"
 viewBox="0.00 0.00 317.00 47.00" xmlns="http://www.w3.org/2000/svg" xmlns:xlink="http://www.w3.org/1999/xlink">
<g id="graph0" class="graph" transform="scale(1 1) rotate(0) translate(4 43)">
<title>deweightByState</title>
<polygon fill="white" stroke="transparent" points="-4,4 -4,-43 313,-43 313,4 -4,4"/>
<!-- Node1 -->
<g id="node1" class="node">
<title>Node1</title>
<g id="a_node1"><a xlink:title="Deweight measurements attached to worst state.">
<polygon fill="#bfbfbf" stroke="black" points="209,-0.5 209,-19.5 309,-19.5 309,-0.5 209,-0.5"/>
<text text-anchor="middle" x="259" y="-7.5" font-family="Helvetica,sans-Serif" font-size="10.00">deweightByState</text>
</a>
</g>
</g>
<!-- Node2 -->
<g id="node2" class="node">
<title>Node2</title>
<g id="a_node2"><a xlink:href="main_8cpp.html#a8f07d049a66dc863071e0d3248e31435" target="_top" xlink:title=" ">
<polygon fill="white" stroke="black" points="80,-19.5 80,-38.5 173,-38.5 173,-19.5 80,-19.5"/>
<text text-anchor="middle" x="126.5" y="-26.5" font-family="Helvetica,sans-Serif" font-size="10.00">initialiseStation</text>
</a>
</g>
</g>
<!-- Node1&#45;&gt;Node2 -->
<g id="edge1" class="edge">
<title>Node1&#45;&gt;Node2</title>
<path fill="none" stroke="midnightblue" d="M208.66,-17.18C196.97,-18.89 184.55,-20.69 173.04,-22.37"/>
</g>
<!-- Node3 -->
<g id="node3" class="node">
<title>Node3</title>
<g id="a_node3"><a xlink:href="main_8cpp.html#a2c1eabb2ea9b242d8d9fd2c1795849e9" target="_top" xlink:title=" ">
<polygon fill="white" stroke="red" points="0,-0.5 0,-19.5 44,-19.5 44,-0.5 0,-0.5"/>
<text text-anchor="middle" x="22" y="-7.5" font-family="Helvetica,sans-Serif" font-size="10.00">ginan</text>
</a>
</g>
</g>
<!-- Node1&#45;&gt;Node3 -->
<g id="edge3" class="edge">
<title>Node1&#45;&gt;Node3</title>
<path fill="none" stroke="midnightblue" d="M208.74,-10C157.86,-10 80.87,-10 44.05,-10"/>
</g>
<!-- Node2&#45;&gt;Node3 -->
<g id="edge2" class="edge">
<title>Node2&#45;&gt;Node3</title>
<path fill="none" stroke="midnightblue" d="M79.95,-20.56C67.43,-18.24 54.46,-15.83 44.07,-13.91"/>
</g>
</g>
</svg>
