<?xml version="1.0" encoding="UTF-8" standalone="no"?>
<!DOCTYPE svg PUBLIC "-//W3C//DTD SVG 1.1//EN"
 "http://www.w3.org/Graphics/SVG/1.1/DTD/svg11.dtd">
<!-- Generated by graphviz version 2.43.0 (0)
 -->
<!-- Title: pppos Pages: 1 -->
<svg width="482pt" height="313pt"
 viewBox="0.00 0.00 482.00 312.66" xmlns="http://www.w3.org/2000/svg" xmlns:xlink="http://www.w3.org/1999/xlink">
<g id="graph0" class="graph" transform="scale(1 1) rotate(0) translate(4 308.66)">
<title>pppos</title>
<polygon fill="white" stroke="transparent" points="-4,4 -4,-308.66 478,-308.66 478,4 -4,4"/>
<!-- Node1 -->
<g id="node1" class="node">
<title>Node1</title>
<g id="a_node1"><a xlink:title="precise point positioning">
<polygon fill="#bfbfbf" stroke="black" points="0,-152.5 0,-171.5 46,-171.5 46,-152.5 0,-152.5"/>
<text text-anchor="middle" x="23" y="-159.5" font-family="Helvetica,sans-Serif" font-size="10.00">pppos</text>
</a>
</g>
</g>
<!-- Node2 -->
<g id="node2" class="node">
<title>Node2</title>
<g id="a_node2"><a xlink:href="trace_8cpp.html#ae00e6addd3bdf3a7fd41a254eb9aec89" target="_top" xlink:title=" ">
<polygon fill="white" stroke="black" points="403,-157.5 403,-176.5 474,-176.5 474,-157.5 403,-157.5"/>
<text text-anchor="middle" x="438.5" y="-164.5" font-family="Helvetica,sans-Serif" font-size="10.00">tracepdeex</text>
</a>
</g>
</g>
<!-- Node1&#45;&gt;Node2 -->
<g id="edge1" class="edge">
<title>Node1&#45;&gt;Node2</title>
<path fill="none" stroke="midnightblue" d="M26.97,-171.61C33.5,-191.07 51.06,-235.15 82,-257 140.24,-298.13 168.08,-282.63 239,-290 295.58,-295.88 317.78,-318.52 367,-290 410.66,-264.7 429.6,-201.05 435.42,-176.69"/>
</g>
<!-- Node3 -->
<g id="node3" class="node">
<title>Node3</title>
<g id="a_node3"><a xlink:href="structACSConfig.html#aeba33c340b4695e47f2d41bf97402400" target="_top" xlink:title="Set satellite options for a specific satellite using a hierarchy of sources.">
<polygon fill="white" stroke="red" points="239,-261.5 239,-280.5 367,-280.5 367,-261.5 239,-261.5"/>
<text text-anchor="middle" x="303" y="-268.5" font-family="Helvetica,sans-Serif" font-size="10.00">ACSConfig::getSatOpts</text>
</a>
</g>
</g>
<!-- Node1&#45;&gt;Node3 -->
<g id="edge2" class="edge">
<title>Node1&#45;&gt;Node3</title>
<path fill="none" stroke="midnightblue" d="M30.19,-171.7C39.61,-185.59 58.9,-210.94 82,-224 130.28,-251.3 192.69,-262.77 238.7,-267.58"/>
</g>
<!-- Node21 -->
<g id="node4" class="node">
<title>Node21</title>
<g id="a_node4"><a xlink:href="ephemeris_8cpp.html#a082fe4b7393586d8a7a2b1ab32cfe131" target="_top" xlink:title="satellite positions and clocks.">
<polygon fill="white" stroke="red" points="270.5,-214.5 270.5,-233.5 335.5,-233.5 335.5,-214.5 270.5,-214.5"/>
<text text-anchor="middle" x="303" y="-221.5" font-family="Helvetica,sans-Serif" font-size="10.00">satPosClk</text>
</a>
</g>
</g>
<!-- Node1&#45;&gt;Node21 -->
<g id="edge3" class="edge">
<title>Node1&#45;&gt;Node21</title>
<path fill="none" stroke="midnightblue" d="M35.6,-171.68C46.74,-180.4 64.44,-192.78 82,-199 146.13,-221.72 226.75,-224.97 270.4,-224.82"/>
</g>
<!-- Node63 -->
<g id="node5" class="node">
<title>Node63</title>
<g id="a_node5"><a xlink:href="utils_8cpp.html#ae91d83cf693cdc7e1efacbe4d8d9656e" target="_top" xlink:title=" ">
<polygon fill="white" stroke="black" points="272.5,-119.5 272.5,-138.5 333.5,-138.5 333.5,-119.5 272.5,-119.5"/>
<text text-anchor="middle" x="303" y="-126.5" font-family="Helvetica,sans-Serif" font-size="10.00">ecef2pos</text>
</a>
</g>
</g>
<!-- Node1&#45;&gt;Node63 -->
<g id="edge5" class="edge">
<title>Node1&#45;&gt;Node63</title>
<path fill="none" stroke="midnightblue" d="M46.18,-171.09C56.82,-174.98 69.86,-179.06 82,-181 135.11,-189.48 150.79,-193.88 203,-181 236.17,-172.82 270.53,-151.31 288.76,-138.66"/>
</g>
<!-- Node64 -->
<g id="node6" class="node">
<title>Node64</title>
<g id="a_node6"><a xlink:href="ppp_8cpp.html#a08fc6acb7b0150a3980428eac9963e59" target="_top" xlink:title="ionospheric model">
<polygon fill="white" stroke="red" points="108.5,-152.5 108.5,-171.5 176.5,-171.5 176.5,-152.5 108.5,-152.5"/>
<text text-anchor="middle" x="142.5" y="-159.5" font-family="Helvetica,sans-Serif" font-size="10.00">ionoModel</text>
</a>
</g>
</g>
<!-- Node1&#45;&gt;Node64 -->
<g id="edge6" class="edge">
<title>Node1&#45;&gt;Node64</title>
<path fill="none" stroke="midnightblue" d="M46.1,-162C63.65,-162 88.47,-162 108.39,-162"/>
</g>
<!-- Node81 -->
<g id="node7" class="node">
<title>Node81</title>
<g id="a_node7"><a xlink:href="tides_8cpp.html#a76dbcd260bdab5954ea1d50cbe96b09f" target="_top" xlink:title=" ">
<polygon fill="white" stroke="red" points="114,-114.5 114,-133.5 171,-133.5 171,-114.5 114,-114.5"/>
<text text-anchor="middle" x="142.5" y="-121.5" font-family="Helvetica,sans-Serif" font-size="10.00">tideDisp</text>
</a>
</g>
</g>
<!-- Node1&#45;&gt;Node81 -->
<g id="edge7" class="edge">
<title>Node1&#45;&gt;Node81</title>
<path fill="none" stroke="midnightblue" d="M46.02,-154.74C56.85,-151.19 70.1,-146.85 82,-143 92.42,-139.63 103.88,-135.96 113.94,-132.75"/>
</g>
<!-- Node98 -->
<g id="node8" class="node">
<title>Node98</title>
<g id="a_node8"><a xlink:href="ppp__user_8cpp.html#a36a79c2aba8e8ad20aa9616988ec3269" target="_top" xlink:title=" ">
<polygon fill="white" stroke="red" points="111,-76.5 111,-95.5 174,-95.5 174,-76.5 111,-76.5"/>
<text text-anchor="middle" x="142.5" y="-83.5" font-family="Helvetica,sans-Serif" font-size="10.00">ppp_filter</text>
</a>
</g>
</g>
<!-- Node1&#45;&gt;Node98 -->
<g id="edge9" class="edge">
<title>Node1&#45;&gt;Node98</title>
<path fill="none" stroke="midnightblue" d="M31.57,-152.11C41.73,-139.46 60.97,-117.69 82,-105 90.82,-99.68 101.29,-95.69 110.97,-92.78"/>
</g>
<!-- Node173 -->
<g id="node9" class="node">
<title>Node173</title>
<g id="a_node9"><a xlink:href="ppppp_8cpp.html#a2255763e5302a3efaa3437939c5b5722" target="_top" xlink:title=" ">
<polygon fill="white" stroke="red" points="285.5,-43.5 285.5,-62.5 320.5,-62.5 320.5,-43.5 285.5,-43.5"/>
<text text-anchor="middle" x="303" y="-50.5" font-family="Helvetica,sans-Serif" font-size="10.00">PPP</text>
</a>
</g>
</g>
<!-- Node1&#45;&gt;Node173 -->
<g id="edge15" class="edge">
<title>Node1&#45;&gt;Node173</title>
<path fill="none" stroke="midnightblue" d="M26.63,-152.32C32.63,-132.33 49.41,-86.67 82,-67 148.02,-27.15 246.41,-41.36 285.31,-49.21"/>
</g>
<!-- Node339 -->
<g id="node10" class="node">
<title>Node339</title>
<g id="a_node10"><a xlink:href="ppp__user_8cpp.html#a1ff3eb5aa0bb68bd0237678f1776aef8" target="_top" xlink:title="update solution status">
<polygon fill="white" stroke="red" points="82,-0.5 82,-19.5 203,-19.5 203,-0.5 82,-0.5"/>
<text text-anchor="middle" x="142.5" y="-7.5" font-family="Helvetica,sans-Serif" font-size="10.00">updateSolutionStatus</text>
</a>
</g>
</g>
<!-- Node1&#45;&gt;Node339 -->
<g id="edge16" class="edge">
<title>Node1&#45;&gt;Node339</title>
<path fill="none" stroke="midnightblue" d="M25.83,-152.22C30.73,-128.68 46.25,-68.28 82,-34 88.51,-27.76 96.86,-23.06 105.23,-19.56"/>
</g>
<!-- Node21&#45;&gt;Node2 -->
<g id="edge4" class="edge">
<title>Node21&#45;&gt;Node2</title>
<path fill="none" stroke="midnightblue" d="M326.34,-214.46C350.99,-203.94 390.41,-187.11 415.08,-176.57"/>
</g>
<!-- Node81&#45;&gt;Node2 -->
<g id="edge8" class="edge">
<title>Node81&#45;&gt;Node2</title>
<path fill="none" stroke="midnightblue" d="M171.26,-132.16C190.19,-137.43 215.92,-144.02 239,-148 295.97,-157.83 363.09,-162.92 402.86,-165.27"/>
</g>
<!-- Node98&#45;&gt;Node2 -->
<g id="edge11" class="edge">
<title>Node98&#45;&gt;Node2</title>
<path fill="none" stroke="midnightblue" d="M174.11,-83.95C218.45,-82.15 302.3,-83.14 367,-110 392.88,-120.74 416.85,-144.1 429.06,-157.34"/>
</g>
<!-- Node98&#45;&gt;Node3 -->
<g id="edge12" class="edge">
<title>Node98&#45;&gt;Node3</title>
<path fill="none" stroke="midnightblue" d="M174.24,-89.72C184.62,-92.42 195.47,-97.05 203,-105 246.6,-151.01 197.98,-194.68 239,-243 246.05,-251.3 256.05,-257.24 266.01,-261.45"/>
</g>
<!-- Node98&#45;&gt;Node63 -->
<g id="edge10" class="edge">
<title>Node98&#45;&gt;Node63</title>
<path fill="none" stroke="midnightblue" d="M174.06,-94.29C202.4,-101.98 244.29,-113.34 272.34,-120.95"/>
</g>
<!-- Node98&#45;&gt;Node173 -->
<g id="edge13" class="edge">
<title>Node98&#45;&gt;Node173</title>
<path fill="none" stroke="midnightblue" d="M174.06,-79.64C207.16,-72.74 258.78,-62 285.19,-56.5"/>
</g>
<!-- Node173&#45;&gt;Node2 -->
<g id="edge14" class="edge">
<title>Node173&#45;&gt;Node2</title>
<path fill="none" stroke="midnightblue" d="M320.73,-56.72C334.18,-60.31 353.06,-66.72 367,-77 397.84,-99.73 422.25,-139.34 432.4,-157.46"/>
</g>
</g>
</svg>
