<?xml version="1.0" encoding="UTF-8" standalone="no"?>
<!DOCTYPE svg PUBLIC "-//W3C//DTD SVG 1.1//EN"
 "http://www.w3.org/Graphics/SVG/1.1/DTD/svg11.dtd">
<!-- Generated by graphviz version 2.43.0 (0)
 -->
<!-- Title: sat_yaw Pages: 1 -->
<svg width="183pt" height="104pt"
 viewBox="0.00 0.00 183.00 104.00" xmlns="http://www.w3.org/2000/svg" xmlns:xlink="http://www.w3.org/1999/xlink">
<g id="graph0" class="graph" transform="scale(1 1) rotate(0) translate(4 100)">
<title>sat_yaw</title>
<polygon fill="white" stroke="transparent" points="-4,4 -4,-100 179,-100 179,4 -4,4"/>
<!-- Node1 -->
<g id="node1" class="node">
<title>Node1</title>
<g id="a_node1"><a xlink:title="Satellite attitude model.">
<polygon fill="#bfbfbf" stroke="black" points="0,-38.5 0,-57.5 57,-57.5 57,-38.5 0,-38.5"/>
<text text-anchor="middle" x="28.5" y="-45.5" font-family="Helvetica,sans-Serif" font-size="10.00">sat_yaw</text>
</a>
</g>
</g>
<!-- Node2 -->
<g id="node2" class="node">
<title>Node2</title>
<g id="a_node2"><a xlink:href="rtkcmn_8cpp.html#ac9a81e78329f3b0dafee87842d6c1027" target="_top" xlink:title="get sun and moon position in ecef">
<polygon fill="white" stroke="red" points="94.5,-76.5 94.5,-95.5 173.5,-95.5 173.5,-76.5 94.5,-76.5"/>
<text text-anchor="middle" x="134" y="-83.5" font-family="Helvetica,sans-Serif" font-size="10.00">sunmoonpos</text>
</a>
</g>
</g>
<!-- Node1&#45;&gt;Node2 -->
<g id="edge1" class="edge">
<title>Node1&#45;&gt;Node2</title>
<path fill="none" stroke="midnightblue" d="M55.62,-57.59C71.31,-63.35 91.2,-70.65 106.89,-76.41"/>
</g>
<!-- Node15 -->
<g id="node3" class="node">
<title>Node15</title>
<g id="a_node3"><a xlink:href="gTime_8cpp.html#a853f281ccd45b714eb3edb14259a982a" target="_top" xlink:title=" ">
<polygon fill="white" stroke="red" points="104.5,-38.5 104.5,-57.5 163.5,-57.5 163.5,-38.5 104.5,-38.5"/>
<text text-anchor="middle" x="134" y="-45.5" font-family="Helvetica,sans-Serif" font-size="10.00">gpst2utc</text>
</a>
</g>
</g>
<!-- Node1&#45;&gt;Node15 -->
<g id="edge2" class="edge">
<title>Node1&#45;&gt;Node15</title>
<path fill="none" stroke="midnightblue" d="M57.24,-48C71.85,-48 89.74,-48 104.47,-48"/>
</g>
<!-- Node16 -->
<g id="node4" class="node">
<title>Node16</title>
<g id="a_node4"><a xlink:href="ppp_8cpp.html#aeec4be9da926fd56edd154d0e81a5d63" target="_top" xlink:title="Calculate nominal yaw&#45;angle.">
<polygon fill="white" stroke="black" points="93,-0.5 93,-19.5 175,-19.5 175,-0.5 93,-0.5"/>
<text text-anchor="middle" x="134" y="-7.5" font-family="Helvetica,sans-Serif" font-size="10.00">yaw_nominal</text>
</a>
</g>
</g>
<!-- Node1&#45;&gt;Node16 -->
<g id="edge3" class="edge">
<title>Node1&#45;&gt;Node16</title>
<path fill="none" stroke="midnightblue" d="M55.62,-38.41C71.31,-32.65 91.2,-25.35 106.89,-19.59"/>
</g>
</g>
</svg>
