<?xml version="1.0" encoding="UTF-8" standalone="no"?>
<!DOCTYPE svg PUBLIC "-//W3C//DTD SVG 1.1//EN"
 "http://www.w3.org/Graphics/SVG/1.1/DTD/svg11.dtd">
<!-- Generated by graphviz version 2.43.0 (0)
 -->
<!-- Title: pppSatCodeBias Pages: 1 -->
<svg width="267pt" height="104pt"
 viewBox="0.00 0.00 267.00 104.00" xmlns="http://www.w3.org/2000/svg" xmlns:xlink="http://www.w3.org/1999/xlink">
<g id="graph0" class="graph" transform="scale(1 1) rotate(0) translate(4 100)">
<title>pppSatCodeBias</title>
<polygon fill="white" stroke="transparent" points="-4,4 -4,-100 263,-100 263,4 -4,4"/>
<!-- Node1 -->
<g id="node1" class="node">
<title>Node1</title>
<g id="a_node1"><a xlink:title=" ">
<polygon fill="#bfbfbf" stroke="black" points="0,-38.5 0,-57.5 96,-57.5 96,-38.5 0,-38.5"/>
<text text-anchor="middle" x="48" y="-45.5" font-family="Helvetica,sans-Serif" font-size="10.00">pppSatCodeBias</text>
</a>
</g>
</g>
<!-- Node2 -->
<g id="node2" class="node">
<title>Node2</title>
<g id="a_node2"><a xlink:href="biases_8cpp.html#a6f49cb0a55e482e3d3defdb6ab521563" target="_top" xlink:title="Search for hardware biases in phase and code.">
<polygon fill="white" stroke="red" points="169,-76.5 169,-95.5 222,-95.5 222,-76.5 169,-76.5"/>
<text text-anchor="middle" x="195.5" y="-83.5" font-family="Helvetica,sans-Serif" font-size="10.00">getBias</text>
</a>
</g>
</g>
<!-- Node1&#45;&gt;Node2 -->
<g id="edge1" class="edge">
<title>Node1&#45;&gt;Node2</title>
<path fill="none" stroke="midnightblue" d="M85.72,-57.59C108.2,-63.46 136.83,-70.94 159.08,-76.75"/>
<polygon fill="midnightblue" stroke="midnightblue" points="158.24,-80.15 168.8,-79.29 160.01,-73.37 158.24,-80.15"/>
</g>
<!-- Node12 -->
<g id="node3" class="node">
<title>Node12</title>
<g id="a_node3"><a xlink:href="algebra_8cpp.html#a4a6a1ebf759ddc5d9d6d1de14269c5af" target="_top" xlink:title=" ">
<polygon fill="white" stroke="black" points="133,-38.5 133,-57.5 258,-57.5 258,-38.5 133,-38.5"/>
<text text-anchor="middle" x="195.5" y="-45.5" font-family="Helvetica,sans-Serif" font-size="10.00">initialStateFromConfig</text>
</a>
</g>
</g>
<!-- Node1&#45;&gt;Node12 -->
<g id="edge2" class="edge">
<title>Node1&#45;&gt;Node12</title>
<path fill="none" stroke="midnightblue" d="M96.24,-48C104.74,-48 113.77,-48 122.78,-48"/>
<polygon fill="midnightblue" stroke="midnightblue" points="122.92,-51.5 132.92,-48 122.92,-44.5 122.92,-51.5"/>
</g>
<!-- Node13 -->
<g id="node4" class="node">
<title>Node13</title>
<g id="a_node4"><a xlink:href="structACSConfig.html#a20ca3689eafecfa2b7e656c28e340256" target="_top" xlink:title="Set satellite options for a specific satellite using a hierarchy of sources.">
<polygon fill="white" stroke="red" points="132,-0.5 132,-19.5 259,-19.5 259,-0.5 132,-0.5"/>
<text text-anchor="middle" x="195.5" y="-7.5" font-family="Helvetica,sans-Serif" font-size="10.00">ACSConfig::getSatOpts</text>
</a>
</g>
</g>
<!-- Node1&#45;&gt;Node13 -->
<g id="edge3" class="edge">
<title>Node1&#45;&gt;Node13</title>
<path fill="none" stroke="midnightblue" d="M85.72,-38.41C104.66,-33.46 127.96,-27.38 148.13,-22.11"/>
<polygon fill="midnightblue" stroke="midnightblue" points="149.26,-25.43 158.05,-19.52 147.49,-18.66 149.26,-25.43"/>
</g>
</g>
</svg>
