<?xml version="1.0" encoding="UTF-8" standalone="no"?>
<!DOCTYPE svg PUBLIC "-//W3C//DTD SVG 1.1//EN"
 "http://www.w3.org/Graphics/SVG/1.1/DTD/svg11.dtd">
<!-- Generated by graphviz version 2.43.0 (0)
 -->
<!-- Title: outputApriori Pages: 1 -->
<svg width="258pt" height="218pt"
 viewBox="0.00 0.00 258.00 218.00" xmlns="http://www.w3.org/2000/svg" xmlns:xlink="http://www.w3.org/1999/xlink">
<g id="graph0" class="graph" transform="scale(1 1) rotate(0) translate(4 214)">
<title>outputApriori</title>
<polygon fill="white" stroke="transparent" points="-4,4 -4,-214 254,-214 254,4 -4,4"/>
<!-- Node1 -->
<g id="node1" class="node">
<title>Node1</title>
<g id="a_node1"><a xlink:title=" ">
<polygon fill="#bfbfbf" stroke="black" points="0,-95.5 0,-114.5 80,-114.5 80,-95.5 0,-95.5"/>
<text text-anchor="middle" x="40" y="-102.5" font-family="Helvetica,sans-Serif" font-size="10.00">outputApriori</text>
</a>
</g>
</g>
<!-- Node2 -->
<g id="node2" class="node">
<title>Node2</title>
<g id="a_node2"><a xlink:href="structKFState.html#a0d9dacd63c7fa70e7caf8fa3faee0c82" target="_top" xlink:title="Tries to add a state to the filter object.">
<polygon fill="white" stroke="black" points="124.5,-190.5 124.5,-209.5 241.5,-209.5 241.5,-190.5 124.5,-190.5"/>
<text text-anchor="middle" x="183" y="-197.5" font-family="Helvetica,sans-Serif" font-size="10.00">KFState::addKFState</text>
</a>
</g>
</g>
<!-- Node1&#45;&gt;Node2 -->
<g id="edge1" class="edge">
<title>Node1&#45;&gt;Node2</title>
<path fill="none" stroke="midnightblue" d="M47.91,-114.73C59.92,-130.9 86.2,-163.29 116,-181 122.46,-184.84 129.73,-187.94 137.04,-190.43"/>
</g>
<!-- Node3 -->
<g id="node3" class="node">
<title>Node3</title>
<g id="a_node3"><a xlink:href="preceph_8cpp.html#a2e21e986800a930603c04dea42c199be" target="_top" xlink:title=" ">
<polygon fill="white" stroke="red" points="155.5,-152.5 155.5,-171.5 210.5,-171.5 210.5,-152.5 155.5,-152.5"/>
<text text-anchor="middle" x="183" y="-159.5" font-family="Helvetica,sans-Serif" font-size="10.00">pephclk</text>
</a>
</g>
</g>
<!-- Node1&#45;&gt;Node3 -->
<g id="edge2" class="edge">
<title>Node1&#45;&gt;Node3</title>
<path fill="none" stroke="midnightblue" d="M57.56,-114.54C72.49,-122.85 95.22,-134.83 116,-143 128.65,-147.97 143.12,-152.29 155.28,-155.54"/>
</g>
<!-- Node7 -->
<g id="node4" class="node">
<title>Node7</title>
<g id="a_node4"><a xlink:href="structSatSys.html#aa31d14f6b8c2100c085c732b9a3fef3f" target="_top" xlink:title="Constructs a SatSys object from it&#39;s hash uid.">
<polygon fill="white" stroke="black" points="131,-114.5 131,-133.5 235,-133.5 235,-114.5 131,-114.5"/>
<text text-anchor="middle" x="183" y="-121.5" font-family="Helvetica,sans-Serif" font-size="10.00">SatSys::fromHash</text>
</a>
</g>
</g>
<!-- Node1&#45;&gt;Node7 -->
<g id="edge3" class="edge">
<title>Node1&#45;&gt;Node7</title>
<path fill="none" stroke="midnightblue" d="M80.28,-110.29C95.92,-112.4 114.14,-114.86 130.8,-117.1"/>
</g>
<!-- Node8 -->
<g id="node5" class="node">
<title>Node8</title>
<g id="a_node5"><a xlink:href="structSatSys.html#aec6d07b90d1e8172b8b6a6966abef4fd" target="_top" xlink:title="Returns a std::string of this satellite&#39;s id.">
<polygon fill="white" stroke="red" points="150.5,-76.5 150.5,-95.5 215.5,-95.5 215.5,-76.5 150.5,-76.5"/>
<text text-anchor="middle" x="183" y="-83.5" font-family="Helvetica,sans-Serif" font-size="10.00">SatSys::id</text>
</a>
</g>
</g>
<!-- Node1&#45;&gt;Node8 -->
<g id="edge4" class="edge">
<title>Node1&#45;&gt;Node8</title>
<path fill="none" stroke="midnightblue" d="M80.28,-99.71C102.28,-96.74 129.36,-93.09 150.05,-90.31"/>
</g>
<!-- Node11 -->
<g id="node6" class="node">
<title>Node11</title>
<g id="a_node6"><a xlink:href="structKFState.html#a170d9c3a01bee9ec1f7264615b087c58" target="_top" xlink:title="Add process noise and dynamics to filter object according to time gap.">
<polygon fill="white" stroke="red" points="116,-38.5 116,-57.5 250,-57.5 250,-38.5 116,-38.5"/>
<text text-anchor="middle" x="183" y="-45.5" font-family="Helvetica,sans-Serif" font-size="10.00">KFState::stateTransition</text>
</a>
</g>
</g>
<!-- Node1&#45;&gt;Node11 -->
<g id="edge5" class="edge">
<title>Node1&#45;&gt;Node11</title>
<path fill="none" stroke="midnightblue" d="M57.56,-95.46C72.49,-87.15 95.22,-75.17 116,-67 124.99,-63.47 134.9,-60.27 144.24,-57.54"/>
</g>
<!-- Node18 -->
<g id="node7" class="node">
<title>Node18</title>
<g id="a_node7"><a xlink:href="mongoWrite_8cpp.html#a4140cbc1fb306e5c1ffefc5b83f3dd8b" target="_top" xlink:title=" ">
<polygon fill="white" stroke="black" points="142.5,-0.5 142.5,-19.5 223.5,-19.5 223.5,-0.5 142.5,-0.5"/>
<text text-anchor="middle" x="183" y="-7.5" font-family="Helvetica,sans-Serif" font-size="10.00">mongoStates</text>
</a>
</g>
</g>
<!-- Node1&#45;&gt;Node18 -->
<g id="edge6" class="edge">
<title>Node1&#45;&gt;Node18</title>
<path fill="none" stroke="midnightblue" d="M47.91,-95.27C59.92,-79.1 86.2,-46.71 116,-29 124,-24.25 133.25,-20.63 142.24,-17.89"/>
</g>
</g>
</svg>
