<?xml version="1.0" encoding="UTF-8" standalone="no"?>
<!DOCTYPE svg PUBLIC "-//W3C//DTD SVG 1.1//EN"
 "http://www.w3.org/Graphics/SVG/1.1/DTD/svg11.dtd">
<!-- Generated by graphviz version 2.43.0 (0)
 -->
<!-- Title: PPP Pages: 1 -->
<!--zoomable 762 -->
<svg id="main" version="1.1" xmlns="http://www.w3.org/2000/svg" xmlns:xlink="http://www.w3.org/1999/xlink" xml:space="preserve" onload="init(evt)">
<style type="text/css"><![CDATA[
.edge:hover path { stroke: red; }
.edge:hover polygon { stroke: red; fill: red; }
]]></style>
<script type="text/javascript"><![CDATA[
var edges = document.getElementsByTagName('g');
if (edges && edges.length) {
  for (var i=0;i<edges.length;i++) {
    if (edges[i].id.substr(0,4)=='edge') {
      edges[i].setAttribute('class','edge');
    }
  }
}
]]></script>
        <defs>
                <circle id="rim" cx="0" cy="0" r="7"/>
                <circle id="rim2" cx="0" cy="0" r="3.5"/>
                <g id="zoomPlus">
                        <use xlink:href="#rim" fill="#404040">
                                <set attributeName="fill" to="#808080" begin="zoomplus.mouseover" end="zoomplus.mouseout"/>
                        </use>
                        <path d="M-4,0h8M0,-4v8" fill="none" stroke="white" stroke-width="1.5" pointer-events="none"/>
                </g>
                <g id="zoomMin">
                        <use xlink:href="#rim" fill="#404040">
                                <set attributeName="fill" to="#808080" begin="zoomminus.mouseover" end="zoomminus.mouseout"/>
                        </use>
                        <path d="M-4,0h8" fill="none" stroke="white" stroke-width="1.5" pointer-events="none"/>
                </g>
                <g id="dirArrow">
                        <path fill="none" stroke="white" stroke-width="1.5" d="M0,-3.0v7 M-2.5,-0.5L0,-3.0L2.5,-0.5"/>
                </g>
               <g id="resetDef">
                       <use xlink:href="#rim2" fill="#404040">
                               <set attributeName="fill" to="#808080" begin="reset.mouseover" end="reset.mouseout"/>
                       </use>
               </g>
        </defs>

<script type="text/javascript">
var viewWidth = 391;
var viewHeight = 762;
var sectionId = 'dynsection-3';
</script>
<script xlink:href="svgpan.js"/>
<svg id="graph" class="graph">
<g id="viewport">
<title>PPP</title>
<polygon fill="white" stroke="transparent" points="-4,4 -4,-758 387,-758 387,4 -4,4"/>
<!-- Node1 -->
<g id="node1" class="node">
<title>Node1</title>
<g id="a_node1"><a xlink:title=" ">
<polygon fill="#bfbfbf" stroke="black" points="0,-373.5 0,-392.5 35,-392.5 35,-373.5 0,-373.5"/>
<text text-anchor="middle" x="17.5" y="-380.5" font-family="Helvetica,sans-Serif" font-size="10.00">PPP</text>
</a>
</g>
</g>
<!-- Node2 -->
<g id="node2" class="node">
<title>Node2</title>
<g id="a_node2"><a xlink:href="networkEstimator_8cpp.html#a552f5bd62ab4b7d536fa38bf0924a849" target="_top" xlink:title="Remove ambiguity states from filter when they deemed old or bad This effectively reinitialises them o...">
<polygon fill="white" stroke="red" points="85,-734.5 85,-753.5 216,-753.5 216,-734.5 85,-734.5"/>
<text text-anchor="middle" x="150.5" y="-741.5" font-family="Helvetica,sans-Serif" font-size="10.00">removeBadAmbiguities</text>
</a>
</g>
</g>
<!-- Node1&#45;&gt;Node2 -->
<g id="edge1" class="edge">
<title>Node1&#45;&gt;Node2</title>
<path fill="none" stroke="midnightblue" d="M18.58,-392.57C19.22,-442.69 24.68,-674.56 71,-725 74.98,-729.34 79.77,-732.76 85,-735.46"/>
</g>
<!-- Node13 -->
<g id="node3" class="node">
<title>Node13</title>
<g id="a_node3"><a xlink:href="networkEstimator_8cpp.html#a3d11452be1ce2ea58117c7fd3ac9f981" target="_top" xlink:title="Remove ambiguity states from filter when they deemed old or bad This effectively reinitialises them o...">
<polygon fill="white" stroke="red" points="84.5,-696.5 84.5,-715.5 216.5,-715.5 216.5,-696.5 84.5,-696.5"/>
<text text-anchor="middle" x="150.5" y="-703.5" font-family="Helvetica,sans-Serif" font-size="10.00">removeBadIonospheres</text>
</a>
</g>
</g>
<!-- Node1&#45;&gt;Node13 -->
<g id="edge2" class="edge">
<title>Node1&#45;&gt;Node13</title>
<path fill="none" stroke="midnightblue" d="M18.79,-392.73C20.39,-439.72 29.65,-642.81 71,-687 74.83,-691.1 79.38,-694.38 84.33,-696.99"/>
</g>
<!-- Node14 -->
<g id="node4" class="node">
<title>Node14</title>
<g id="a_node4"><a xlink:href="structKFState.html#a1e56cacd1a83d3913b20940b1892d407" target="_top" xlink:title="Returns the value and variance of a state within the kalman filter object.">
<polygon fill="white" stroke="black" points="266,-468.5 266,-487.5 383,-487.5 383,-468.5 266,-468.5"/>
<text text-anchor="middle" x="324.5" y="-475.5" font-family="Helvetica,sans-Serif" font-size="10.00">KFState::getKFValue</text>
</a>
</g>
</g>
<!-- Node1&#45;&gt;Node14 -->
<g id="edge26" class="edge">
<title>Node1&#45;&gt;Node14</title>
<path fill="none" stroke="midnightblue" d="M18.75,-373.31C20.14,-328.29 28.46,-140.26 71,-105 125.41,-59.91 176.85,-58.42 230,-105 275.85,-145.19 246.56,-319.21 266,-377 278.16,-413.14 303.71,-450.97 316.24,-468.29"/>
</g>
<!-- Node15 -->
<g id="node5" class="node">
<title>Node15</title>
<g id="a_node5"><a xlink:href="networkEstimator_8cpp.html#a1b145154bdf2c87b17222894b3d8b80f" target="_top" xlink:title=" ">
<polygon fill="white" stroke="black" points="85.5,-658.5 85.5,-677.5 215.5,-677.5 215.5,-658.5 85.5,-658.5"/>
<text text-anchor="middle" x="150.5" y="-665.5" font-family="Helvetica,sans-Serif" font-size="10.00">incrementOutageCount</text>
</a>
</g>
</g>
<!-- Node1&#45;&gt;Node15 -->
<g id="edge4" class="edge">
<title>Node1&#45;&gt;Node15</title>
<path fill="none" stroke="midnightblue" d="M19.05,-392.65C21.69,-435.83 34.52,-610.94 71,-649 75.07,-653.25 79.93,-656.62 85.19,-659.28"/>
</g>
<!-- Node16 -->
<g id="node6" class="node">
<title>Node16</title>
<g id="a_node6"><a xlink:href="ppppp_8cpp.html#a0544cce952f9b2692ee25b1aa22753c0" target="_top" xlink:title="Update the accelerations applied to orbital elements during the interval between epochs.">
<polygon fill="white" stroke="red" points="100,-620.5 100,-639.5 201,-639.5 201,-620.5 100,-620.5"/>
<text text-anchor="middle" x="150.5" y="-627.5" font-family="Helvetica,sans-Serif" font-size="10.00">updateRecClocks</text>
</a>
</g>
</g>
<!-- Node1&#45;&gt;Node16 -->
<g id="edge5" class="edge">
<title>Node1&#45;&gt;Node16</title>
<path fill="none" stroke="midnightblue" d="M19.38,-392.56C23.17,-431.69 39.37,-579.01 71,-611 78.79,-618.88 89.25,-623.7 99.98,-626.61"/>
</g>
<!-- Node17 -->
<g id="node7" class="node">
<title>Node17</title>
<g id="a_node7"><a xlink:href="trace_8hpp.html#a11d8bb0b71dca46dd29f27f595c70ddf" target="_top" xlink:title=" ">
<polygon fill="white" stroke="black" points="287,-348.5 287,-367.5 362,-367.5 362,-348.5 287,-348.5"/>
<text text-anchor="middle" x="324.5" y="-355.5" font-family="Helvetica,sans-Serif" font-size="10.00">getTraceFile</text>
</a>
</g>
</g>
<!-- Node1&#45;&gt;Node17 -->
<g id="edge20" class="edge">
<title>Node1&#45;&gt;Node17</title>
<path fill="none" stroke="midnightblue" d="M20.92,-373.42C26.26,-354.54 41.04,-312.91 71,-296 132.54,-261.26 162.34,-275.61 230,-296 264.13,-306.29 297.24,-333.55 313.35,-348.26"/>
</g>
<!-- Node20 -->
<g id="node8" class="node">
<title>Node20</title>
<g id="a_node8"><a xlink:href="structKFState.html#a7f8e4b9291361c063cef8d9178f07707" target="_top" xlink:title="Add process noise and dynamics to filter object according to time gap.">
<polygon fill="white" stroke="red" points="83.5,-582.5 83.5,-601.5 217.5,-601.5 217.5,-582.5 83.5,-582.5"/>
<text text-anchor="middle" x="150.5" y="-589.5" font-family="Helvetica,sans-Serif" font-size="10.00">KFState::stateTransition</text>
</a>
</g>
</g>
<!-- Node1&#45;&gt;Node20 -->
<g id="edge7" class="edge">
<title>Node1&#45;&gt;Node20</title>
<path fill="none" stroke="midnightblue" d="M18.03,-392.55C17.05,-423.51 18.39,-522.05 71,-573 74.93,-576.8 79.48,-579.89 84.38,-582.39"/>
</g>
<!-- Node27 -->
<g id="node9" class="node">
<title>Node27</title>
<g id="a_node9"><a xlink:href="structKFState.html#a0c84e911a5ea760fe728baec661e33f0" target="_top" xlink:title="Output keys and states in human readable format.">
<polygon fill="white" stroke="red" points="89,-544.5 89,-563.5 212,-563.5 212,-544.5 89,-544.5"/>
<text text-anchor="middle" x="150.5" y="-551.5" font-family="Helvetica,sans-Serif" font-size="10.00">KFState::outputStates</text>
</a>
</g>
</g>
<!-- Node1&#45;&gt;Node27 -->
<g id="edge8" class="edge">
<title>Node1&#45;&gt;Node27</title>
<path fill="none" stroke="midnightblue" d="M18.79,-392.52C20.15,-419.28 27.83,-495.75 71,-535 76.19,-539.72 82.34,-543.32 88.89,-546.05"/>
</g>
<!-- Node28 -->
<g id="node10" class="node">
<title>Node28</title>
<g id="a_node10"><a xlink:href="trace_8cpp.html#ae00e6addd3bdf3a7fd41a254eb9aec89" target="_top" xlink:title=" ">
<polygon fill="white" stroke="black" points="289,-114.5 289,-133.5 360,-133.5 360,-114.5 289,-114.5"/>
<text text-anchor="middle" x="324.5" y="-121.5" font-family="Helvetica,sans-Serif" font-size="10.00">tracepdeex</text>
</a>
</g>
</g>
<!-- Node1&#45;&gt;Node28 -->
<g id="edge27" class="edge">
<title>Node1&#45;&gt;Node28</title>
<path fill="none" stroke="midnightblue" d="M18.51,-373.32C18.81,-324.71 22.85,-107.81 71,-67 124.91,-21.31 161.96,-47.9 230,-67 262.95,-76.25 295.79,-100.67 312.38,-114.36"/>
</g>
<!-- Node30 -->
<g id="node11" class="node">
<title>Node30</title>
<g id="a_node11"><a xlink:href="ppppp__pseudoobs_8cpp.html#a949a10f89de8232ebeb49ad5d912ba80" target="_top" xlink:title=" ">
<polygon fill="white" stroke="red" points="104,-506.5 104,-525.5 197,-525.5 197,-506.5 104,-506.5"/>
<text text-anchor="middle" x="150.5" y="-513.5" font-family="Helvetica,sans-Serif" font-size="10.00">orbitPseudoObs</text>
</a>
</g>
</g>
<!-- Node1&#45;&gt;Node30 -->
<g id="edge10" class="edge">
<title>Node1&#45;&gt;Node30</title>
<path fill="none" stroke="midnightblue" d="M20.04,-392.67C24.1,-414.77 37.18,-469.18 71,-497 80.31,-504.66 92.23,-509.32 103.95,-512.13"/>
</g>
<!-- Node43 -->
<g id="node12" class="node">
<title>Node43</title>
<g id="a_node12"><a xlink:href="ppppp__pseudoobs_8cpp.html#a10d4a9eb19f6bb8cd1a858520c86b7a3" target="_top" xlink:title=" ">
<polygon fill="white" stroke="red" points="98.5,-468.5 98.5,-487.5 202.5,-487.5 202.5,-468.5 98.5,-468.5"/>
<text text-anchor="middle" x="150.5" y="-475.5" font-family="Helvetica,sans-Serif" font-size="10.00">stationPseudoObs</text>
</a>
</g>
</g>
<!-- Node1&#45;&gt;Node43 -->
<g id="edge12" class="edge">
<title>Node1&#45;&gt;Node43</title>
<path fill="none" stroke="midnightblue" d="M22.38,-392.63C29.48,-408.94 46.15,-441.93 71,-459 79.09,-464.56 88.63,-468.5 98.21,-471.29"/>
</g>
<!-- Node44 -->
<g id="node13" class="node">
<title>Node44</title>
<g id="a_node13"><a xlink:href="ppppp__pseudoobs_8cpp.html#ae0c41e2e4663de24e52dcc5be1df9bda" target="_top" xlink:title=" ">
<polygon fill="white" stroke="red" points="105,-430.5 105,-449.5 196,-449.5 196,-430.5 105,-430.5"/>
<text text-anchor="middle" x="150.5" y="-437.5" font-family="Helvetica,sans-Serif" font-size="10.00">biasPseudoObs</text>
</a>
</g>
</g>
<!-- Node1&#45;&gt;Node44 -->
<g id="edge14" class="edge">
<title>Node1&#45;&gt;Node44</title>
<path fill="none" stroke="midnightblue" d="M28.98,-392.5C39.05,-401.15 55.06,-413.65 71,-421 81.57,-425.87 93.54,-429.58 104.88,-432.37"/>
</g>
<!-- Node47 -->
<g id="node14" class="node">
<title>Node47</title>
<g id="a_node14"><a xlink:href="structKFState.html#a4422abfc2efdc898a2558d57be35e863" target="_top" xlink:title="Combine a list of KFMeasEntrys into a single KFMeas object for used in the filter.">
<polygon fill="white" stroke="red" points="71,-392.5 71,-411.5 230,-411.5 230,-392.5 71,-392.5"/>
<text text-anchor="middle" x="150.5" y="-399.5" font-family="Helvetica,sans-Serif" font-size="10.00">KFState::combineKFMeasList</text>
</a>
</g>
</g>
<!-- Node1&#45;&gt;Node47 -->
<g id="edge17" class="edge">
<title>Node1&#45;&gt;Node47</title>
<path fill="none" stroke="midnightblue" d="M35.09,-385.41C47.62,-387.22 65.7,-389.85 83.8,-392.47"/>
</g>
<!-- Node48 -->
<g id="node15" class="node">
<title>Node48</title>
<g id="a_node15"><a xlink:href="ppppp_8cpp.html#a5485965295cbc1a764c2c64c361f99a9" target="_top" xlink:title="Replace individual measurements with linear combinations.">
<polygon fill="white" stroke="red" points="120,-354.5 120,-373.5 181,-373.5 181,-354.5 120,-354.5"/>
<text text-anchor="middle" x="150.5" y="-361.5" font-family="Helvetica,sans-Serif" font-size="10.00">makeLCs</text>
</a>
</g>
</g>
<!-- Node1&#45;&gt;Node48 -->
<g id="edge18" class="edge">
<title>Node1&#45;&gt;Node48</title>
<path fill="none" stroke="midnightblue" d="M35.09,-380.59C56.37,-377.51 93.63,-372.1 119.84,-368.3"/>
</g>
<!-- Node49 -->
<g id="node16" class="node">
<title>Node49</title>
<g id="a_node16"><a xlink:href="structKFState.html#a56a457141bb1f7f33cd473b008e27e92" target="_top" xlink:title=" ">
<polygon fill="white" stroke="red" points="83.5,-305 83.5,-335 217.5,-335 217.5,-305 83.5,-305"/>
<text text-anchor="start" x="91.5" y="-323" font-family="Helvetica,sans-Serif" font-size="10.00">KFState::leastSquareInit</text>
<text text-anchor="middle" x="150.5" y="-312" font-family="Helvetica,sans-Serif" font-size="10.00">StatesA</text>
</a>
</g>
</g>
<!-- Node1&#45;&gt;Node49 -->
<g id="edge19" class="edge">
<title>Node1&#45;&gt;Node49</title>
<path fill="none" stroke="midnightblue" d="M29.49,-373.43C39.67,-364.97 55.53,-352.81 71,-345 78.41,-341.26 86.49,-337.93 94.55,-335.02"/>
</g>
<!-- Node51 -->
<g id="node17" class="node">
<title>Node51</title>
<g id="a_node17"><a xlink:href="mongoWrite_8cpp.html#a6f0f324277fdce6079133ae9ae57532e" target="_top" xlink:title=" ">
<polygon fill="white" stroke="red" points="81.5,-228.5 81.5,-247.5 219.5,-247.5 219.5,-228.5 81.5,-228.5"/>
<text text-anchor="middle" x="150.5" y="-235.5" font-family="Helvetica,sans-Serif" font-size="10.00">mongoMeasComponents</text>
</a>
</g>
</g>
<!-- Node1&#45;&gt;Node51 -->
<g id="edge21" class="edge">
<title>Node1&#45;&gt;Node51</title>
<path fill="none" stroke="midnightblue" d="M19.92,-373.23C23.76,-350.34 36.5,-292.81 71,-262 78.12,-255.64 86.89,-250.96 95.96,-247.53"/>
</g>
<!-- Node52 -->
<g id="node18" class="node">
<title>Node52</title>
<g id="a_node18"><a xlink:href="structKFState.html#a21a4858020ad706771efeea814d6c43f" target="_top" xlink:title="Kalman filter operation.">
<polygon fill="white" stroke="red" points="89.5,-190.5 89.5,-209.5 211.5,-209.5 211.5,-190.5 89.5,-190.5"/>
<text text-anchor="middle" x="150.5" y="-197.5" font-family="Helvetica,sans-Serif" font-size="10.00">KFState::filterKalman</text>
</a>
</g>
</g>
<!-- Node1&#45;&gt;Node52 -->
<g id="edge22" class="edge">
<title>Node1&#45;&gt;Node52</title>
<path fill="none" stroke="midnightblue" d="M18.52,-373.16C19.15,-344.72 25.03,-261.76 71,-219 76.24,-214.13 82.5,-210.45 89.18,-207.67"/>
</g>
<!-- Node64 -->
<g id="node19" class="node">
<title>Node64</title>
<g id="a_node19"><a xlink:href="networkEstimator_8cpp.html#a4aec9796d8fba83efe8e2557b89d508a" target="_top" xlink:title=" ">
<polygon fill="white" stroke="red" points="102,-152.5 102,-171.5 199,-171.5 199,-152.5 102,-152.5"/>
<text text-anchor="middle" x="150.5" y="-159.5" font-family="Helvetica,sans-Serif" font-size="10.00">postFilterChecks</text>
</a>
</g>
</g>
<!-- Node1&#45;&gt;Node64 -->
<g id="edge23" class="edge">
<title>Node1&#45;&gt;Node64</title>
<path fill="none" stroke="midnightblue" d="M19.7,-373.3C24.4,-336.87 42.71,-208.82 71,-181 79.3,-172.84 90.47,-167.97 101.77,-165.12"/>
</g>
<!-- Node67 -->
<g id="node20" class="node">
<title>Node67</title>
<g id="a_node20"><a xlink:href="ppppp__ambres_8cpp.html#af1cdd13433e600a199742087c8078181" target="_top" xlink:title=" ">
<polygon fill="white" stroke="red" points="124,-114.5 124,-133.5 177,-133.5 177,-114.5 124,-114.5"/>
<text text-anchor="middle" x="150.5" y="-121.5" font-family="Helvetica,sans-Serif" font-size="10.00">PPP_AR</text>
</a>
</g>
</g>
<!-- Node1&#45;&gt;Node67 -->
<g id="edge24" class="edge">
<title>Node1&#45;&gt;Node67</title>
<path fill="none" stroke="midnightblue" d="M19.26,-373.49C22.66,-333.18 37.82,-176.92 71,-143 84.63,-129.07 106.6,-124.66 123.84,-123.55"/>
</g>
<!-- Node82 -->
<g id="node21" class="node">
<title>Node82</title>
<g id="a_node21"><a xlink:href="ppp_8cpp.html#a952c5db3b307d745174a68045264f9e6" target="_top" xlink:title="Compare estimated station position with benchmark in SINEX file.">
<polygon fill="white" stroke="red" points="97.5,-0.5 97.5,-19.5 203.5,-19.5 203.5,-0.5 97.5,-0.5"/>
<text text-anchor="middle" x="150.5" y="-7.5" font-family="Helvetica,sans-Serif" font-size="10.00">outputPPPSolution</text>
</a>
</g>
</g>
<!-- Node1&#45;&gt;Node82 -->
<g id="edge28" class="edge">
<title>Node1&#45;&gt;Node82</title>
<path fill="none" stroke="midnightblue" d="M18.61,-373.29C19.38,-322.4 25.38,-86.89 71,-34 77.89,-26.01 87.35,-20.64 97.33,-17.03"/>
</g>
<!-- Node13&#45;&gt;Node14 -->
<g id="edge3" class="edge">
<title>Node13&#45;&gt;Node14</title>
<path fill="none" stroke="midnightblue" d="M214.47,-696.44C220.07,-693.95 225.36,-690.86 230,-687 296.01,-632.1 317.19,-521.05 322.2,-487.69"/>
</g>
<!-- Node16&#45;&gt;Node17 -->
<g id="edge6" class="edge">
<title>Node16&#45;&gt;Node17</title>
<path fill="none" stroke="midnightblue" d="M201.39,-626.46C211.98,-623.54 222.29,-618.75 230,-611 278.97,-561.79 240.57,-523.6 266,-459 280.04,-423.33 304.91,-384.97 316.81,-367.57"/>
</g>
<!-- Node27&#45;&gt;Node28 -->
<g id="edge9" class="edge">
<title>Node27&#45;&gt;Node28</title>
<path fill="none" stroke="midnightblue" d="M212.06,-547.13C218.78,-544.23 224.99,-540.3 230,-535 290.86,-470.65 246.54,-425.4 266,-339 283.99,-259.09 311.62,-164.09 320.58,-133.79"/>
</g>
<!-- Node30&#45;&gt;Node14 -->
<g id="edge11" class="edge">
<title>Node30&#45;&gt;Node14</title>
<path fill="none" stroke="midnightblue" d="M194.9,-506.41C221.08,-500.63 254.29,-493.29 280.41,-487.52"/>
</g>
<!-- Node43&#45;&gt;Node14 -->
<g id="edge13" class="edge">
<title>Node43&#45;&gt;Node14</title>
<path fill="none" stroke="midnightblue" d="M202.64,-478C222.54,-478 245.45,-478 265.93,-478"/>
</g>
<!-- Node44&#45;&gt;Node14 -->
<g id="edge15" class="edge">
<title>Node44&#45;&gt;Node14</title>
<path fill="none" stroke="midnightblue" d="M194.9,-449.59C221.08,-455.37 254.29,-462.71 280.41,-468.48"/>
</g>
<!-- Node44&#45;&gt;Node28 -->
<g id="edge16" class="edge">
<title>Node44&#45;&gt;Node28</title>
<path fill="none" stroke="midnightblue" d="M196.09,-437.26C208.34,-434.52 220.78,-429.62 230,-421 252.41,-400.05 308.59,-182.73 321.04,-133.76"/>
</g>
<!-- Node67&#45;&gt;Node28 -->
<g id="edge25" class="edge">
<title>Node67&#45;&gt;Node28</title>
<path fill="none" stroke="midnightblue" d="M177.25,-124C206.96,-124 255.94,-124 288.94,-124"/>
</g>
<!-- Node82&#45;&gt;Node28 -->
<g id="edge29" class="edge">
<title>Node82&#45;&gt;Node28</title>
<path fill="none" stroke="midnightblue" d="M195.81,-19.6C207.4,-23.15 219.56,-27.86 230,-34 267.49,-56.04 301.59,-96 316.11,-114.34"/>
</g>
</g>
</svg>
        <g id="navigator" transform="translate(0 0)" fill="#404254">
                <rect fill="#f2f5e9" fill-opacity="0.5" stroke="#606060" stroke-width=".5" x="0" y="0" width="60" height="60"/>
                <use id="zoomplus" xlink:href="#zoomPlus" x="17" y="9" onmousedown="handleZoom(evt,'in')"/>
                <use id="zoomminus" xlink:href="#zoomMin" x="42" y="9" onmousedown="handleZoom(evt,'out')"/>
                <use id="reset" xlink:href="#resetDef" x="30" y="36" onmousedown="handleReset()"/>
                <g id="arrowUp" xlink:href="#dirArrow" transform="translate(30 24)" onmousedown="handlePan(0,-1)">
                  <use xlink:href="#rim" fill="#404040">
                        <set attributeName="fill" to="#808080" begin="arrowUp.mouseover" end="arrowUp.mouseout"/>
                  </use>
                  <path fill="none" stroke="white" stroke-width="1.5" d="M0,-3.0v7 M-2.5,-0.5L0,-3.0L2.5,-0.5"/>
                </g>
                <g id="arrowRight" xlink:href="#dirArrow" transform="rotate(90) translate(36 -43)" onmousedown="handlePan(1,0)">
                  <use xlink:href="#rim" fill="#404040">
                        <set attributeName="fill" to="#808080" begin="arrowRight.mouseover" end="arrowRight.mouseout"/>
                  </use>
                  <path fill="none" stroke="white" stroke-width="1.5" d="M0,-3.0v7 M-2.5,-0.5L0,-3.0L2.5,-0.5"/>
                </g>
                <g id="arrowDown" xlink:href="#dirArrow" transform="rotate(180) translate(-30 -48)" onmousedown="handlePan(0,1)">
                  <use xlink:href="#rim" fill="#404040">
                        <set attributeName="fill" to="#808080" begin="arrowDown.mouseover" end="arrowDown.mouseout"/>
                  </use>
                  <path fill="none" stroke="white" stroke-width="1.5" d="M0,-3.0v7 M-2.5,-0.5L0,-3.0L2.5,-0.5"/>
                </g>
                <g id="arrowLeft" xlink:href="#dirArrow" transform="rotate(270) translate(-36 17)" onmousedown="handlePan(-1,0)">
                  <use xlink:href="#rim" fill="#404040">
                        <set attributeName="fill" to="#808080" begin="arrowLeft.mouseover" end="arrowLeft.mouseout"/>
                  </use>
                  <path fill="none" stroke="white" stroke-width="1.5" d="M0,-3.0v7 M-2.5,-0.5L0,-3.0L2.5,-0.5"/>
                </g>
        </g>
        <svg viewBox="0 0 15 15" width="100%" height="30px" preserveAspectRatio="xMaxYMin meet">
         <g id="arrow_out" transform="scale(0.3 0.3)">
          <a xlink:href="ppppp_8cpp_a936f239adc72073920104f4acc2aea67_cgraph_org.svg" target="_base">
           <rect id="button" ry="5" rx="5" y="6" x="6" height="38" width="38"
                fill="#f2f5e9" fill-opacity="0.5" stroke="#606060" stroke-width="1.0"/>
           <path id="arrow"
             d="M 11.500037,31.436501 C 11.940474,20.09759 22.043105,11.32322 32.158766,21.979434 L 37.068811,17.246167 C 37.068811,17.246167 37.088388,32 37.088388,32 L 22.160133,31.978069 C 22.160133,31.978069 26.997745,27.140456 26.997745,27.140456 C 18.528582,18.264221 13.291696,25.230495 11.500037,31.436501 z"
             style="fill:#404040;"/>
          </a>
         </g>
        </svg>
</svg>
