<?xml version="1.0" encoding="UTF-8" standalone="no"?>
<!DOCTYPE svg PUBLIC "-//W3C//DTD SVG 1.1//EN"
 "http://www.w3.org/Graphics/SVG/1.1/DTD/svg11.dtd">
<!-- Generated by graphviz version 2.43.0 (0)
 -->
<!-- Title: /data/acs/ginan/src/cpp/common/preceph.hpp Pages: 1 -->
<svg width="1069pt" height="106pt"
 viewBox="0.00 0.00 1069.00 106.00" xmlns="http://www.w3.org/2000/svg" xmlns:xlink="http://www.w3.org/1999/xlink">
<g id="graph0" class="graph" transform="scale(1 1) rotate(0) translate(4 102)">
<title>/data/acs/ginan/src/cpp/common/preceph.hpp</title>
<polygon fill="white" stroke="transparent" points="-4,4 -4,-102 1065,-102 1065,4 -4,4"/>
<!-- Node1 -->
<g id="node1" class="node">
<title>Node1</title>
<g id="a_node1"><a xlink:title=" ">
<polygon fill="#bfbfbf" stroke="black" points="512,-67.5 512,-97.5 658,-97.5 658,-67.5 512,-67.5"/>
<text text-anchor="start" x="520" y="-85.5" font-family="Helvetica,sans-Serif" font-size="10.00">/data/acs/ginan/src</text>
<text text-anchor="middle" x="585" y="-74.5" font-family="Helvetica,sans-Serif" font-size="10.00">/cpp/common/preceph.hpp</text>
</a>
</g>
</g>
<!-- Node2 -->
<g id="node2" class="node">
<title>Node2</title>
<g id="a_node2"><a xlink:href="ephemeris_8cpp.html" target="_top" xlink:title=" ">
<polygon fill="white" stroke="black" points="0,-0.5 0,-30.5 158,-30.5 158,-0.5 0,-0.5"/>
<text text-anchor="start" x="8" y="-18.5" font-family="Helvetica,sans-Serif" font-size="10.00">/data/acs/ginan/src</text>
<text text-anchor="middle" x="79" y="-7.5" font-family="Helvetica,sans-Serif" font-size="10.00">/cpp/common/ephemeris.cpp</text>
</a>
</g>
</g>
<!-- Node1&#45;&gt;Node2 -->
<g id="edge1" class="edge">
<title>Node1&#45;&gt;Node2</title>
<path fill="none" stroke="midnightblue" d="M511.63,-73.6C428.06,-64.39 287.49,-48.2 167,-31 164.09,-30.58 161.12,-30.15 158.13,-29.7"/>
</g>
<!-- Node3 -->
<g id="node3" class="node">
<title>Node3</title>
<g id="a_node3"><a xlink:href="preceph_8cpp.html" target="_top" xlink:title=" ">
<polygon fill="white" stroke="black" points="176.5,-0.5 176.5,-30.5 321.5,-30.5 321.5,-0.5 176.5,-0.5"/>
<text text-anchor="start" x="184.5" y="-18.5" font-family="Helvetica,sans-Serif" font-size="10.00">/data/acs/ginan/src</text>
<text text-anchor="middle" x="249" y="-7.5" font-family="Helvetica,sans-Serif" font-size="10.00">/cpp/common/preceph.cpp</text>
</a>
</g>
</g>
<!-- Node1&#45;&gt;Node3 -->
<g id="edge2" class="edge">
<title>Node1&#45;&gt;Node3</title>
<path fill="none" stroke="midnightblue" d="M512.51,-67.48C456.08,-56.56 378.12,-41.48 321.65,-30.55"/>
</g>
<!-- Node4 -->
<g id="node4" class="node">
<title>Node4</title>
<g id="a_node4"><a xlink:href="rinexClkWrite_8cpp.html" target="_top" xlink:title=" ">
<polygon fill="white" stroke="black" points="339.5,-0.5 339.5,-30.5 512.5,-30.5 512.5,-0.5 339.5,-0.5"/>
<text text-anchor="start" x="347.5" y="-18.5" font-family="Helvetica,sans-Serif" font-size="10.00">/data/acs/ginan/src</text>
<text text-anchor="middle" x="426" y="-7.5" font-family="Helvetica,sans-Serif" font-size="10.00">/cpp/common/rinexClkWrite.cpp</text>
</a>
</g>
</g>
<!-- Node1&#45;&gt;Node4 -->
<g id="edge3" class="edge">
<title>Node1&#45;&gt;Node4</title>
<path fill="none" stroke="midnightblue" d="M550.5,-67.4C523.83,-56.49 487.09,-41.47 460.43,-30.58"/>
</g>
<!-- Node5 -->
<g id="node5" class="node">
<title>Node5</title>
<g id="a_node5"><a xlink:href="main_8cpp.html" target="_top" xlink:title=" ">
<polygon fill="white" stroke="black" points="531,-0.5 531,-30.5 639,-30.5 639,-0.5 531,-0.5"/>
<text text-anchor="start" x="539" y="-18.5" font-family="Helvetica,sans-Serif" font-size="10.00">/data/acs/ginan/src</text>
<text text-anchor="middle" x="585" y="-7.5" font-family="Helvetica,sans-Serif" font-size="10.00">/cpp/pea/main.cpp</text>
</a>
</g>
</g>
<!-- Node1&#45;&gt;Node5 -->
<g id="edge4" class="edge">
<title>Node1&#45;&gt;Node5</title>
<path fill="none" stroke="midnightblue" d="M585,-67.4C585,-56.49 585,-41.47 585,-30.58"/>
</g>
<!-- Node6 -->
<g id="node6" class="node">
<title>Node6</title>
<g id="a_node6"><a xlink:href="ppp_8cpp.html" target="_top" xlink:title="Precise point positioning.">
<polygon fill="white" stroke="black" points="657,-0.5 657,-30.5 765,-30.5 765,-0.5 657,-0.5"/>
<text text-anchor="start" x="665" y="-18.5" font-family="Helvetica,sans-Serif" font-size="10.00">/data/acs/ginan/src</text>
<text text-anchor="middle" x="711" y="-7.5" font-family="Helvetica,sans-Serif" font-size="10.00">/cpp/pea/ppp.cpp</text>
</a>
</g>
</g>
<!-- Node1&#45;&gt;Node6 -->
<g id="edge5" class="edge">
<title>Node1&#45;&gt;Node6</title>
<path fill="none" stroke="midnightblue" d="M612.34,-67.4C633.47,-56.49 662.59,-41.47 683.71,-30.58"/>
</g>
<!-- Node7 -->
<g id="node7" class="node">
<title>Node7</title>
<g id="a_node7"><a xlink:href="ppp__user_8cpp.html" target="_top" xlink:title=" ">
<polygon fill="white" stroke="black" points="783.5,-0.5 783.5,-30.5 908.5,-30.5 908.5,-0.5 783.5,-0.5"/>
<text text-anchor="start" x="791.5" y="-18.5" font-family="Helvetica,sans-Serif" font-size="10.00">/data/acs/ginan/src</text>
<text text-anchor="middle" x="846" y="-7.5" font-family="Helvetica,sans-Serif" font-size="10.00">/cpp/pea/ppp_user.cpp</text>
</a>
</g>
</g>
<!-- Node1&#45;&gt;Node7 -->
<g id="edge6" class="edge">
<title>Node1&#45;&gt;Node7</title>
<path fill="none" stroke="midnightblue" d="M641.31,-67.48C685.07,-56.58 745.49,-41.53 789.34,-30.61"/>
</g>
<!-- Node8 -->
<g id="node8" class="node">
<title>Node8</title>
<g id="a_node8"><a xlink:href="ppppp__obs_8cpp.html" target="_top" xlink:title=" ">
<polygon fill="white" stroke="black" points="927,-0.5 927,-30.5 1061,-30.5 1061,-0.5 927,-0.5"/>
<text text-anchor="start" x="935" y="-18.5" font-family="Helvetica,sans-Serif" font-size="10.00">/data/acs/ginan/src</text>
<text text-anchor="middle" x="994" y="-7.5" font-family="Helvetica,sans-Serif" font-size="10.00">/cpp/pea/ppppp_obs.cpp</text>
</a>
</g>
</g>
<!-- Node1&#45;&gt;Node8 -->
<g id="edge7" class="edge">
<title>Node1&#45;&gt;Node8</title>
<path fill="none" stroke="midnightblue" d="M658.21,-71.21C725.77,-61.53 828.81,-46.27 918,-31 920.91,-30.5 923.89,-29.98 926.89,-29.45"/>
</g>
</g>
</svg>
