<?xml version="1.0" encoding="UTF-8" standalone="no"?>
<!DOCTYPE svg PUBLIC "-//W3C//DTD SVG 1.1//EN"
 "http://www.w3.org/Graphics/SVG/1.1/DTD/svg11.dtd">
<!-- Generated by graphviz version 2.43.0 (0)
 -->
<!-- Title: preprocessor Pages: 1 -->
<svg width="418pt" height="446pt"
 viewBox="0.00 0.00 418.00 446.00" xmlns="http://www.w3.org/2000/svg" xmlns:xlink="http://www.w3.org/1999/xlink">
<g id="graph0" class="graph" transform="scale(1 1) rotate(0) translate(4 442)">
<title>preprocessor</title>
<polygon fill="white" stroke="transparent" points="-4,4 -4,-442 414,-442 414,4 -4,4"/>
<!-- Node1 -->
<g id="node1" class="node">
<title>Node1</title>
<g id="a_node1"><a xlink:title=" ">
<polygon fill="#bfbfbf" stroke="black" points="0,-209.5 0,-228.5 80,-228.5 80,-209.5 0,-209.5"/>
<text text-anchor="middle" x="40" y="-216.5" font-family="Helvetica,sans-Serif" font-size="10.00">preprocessor</text>
</a>
</g>
</g>
<!-- Node2 -->
<g id="node2" class="node">
<title>Node2</title>
<g id="a_node2"><a xlink:href="streamTrace_8hpp.html#a11d8bb0b71dca46dd29f27f595c70ddf" target="_top" xlink:title=" ">
<polygon fill="white" stroke="black" points="142.5,-418.5 142.5,-437.5 217.5,-437.5 217.5,-418.5 142.5,-418.5"/>
<text text-anchor="middle" x="180" y="-425.5" font-family="Helvetica,sans-Serif" font-size="10.00">getTraceFile</text>
</a>
</g>
</g>
<!-- Node1&#45;&gt;Node2 -->
<g id="edge1" class="edge">
<title>Node1&#45;&gt;Node2</title>
<path fill="none" stroke="midnightblue" d="M42.17,-228.53C46.36,-258.58 63.25,-352.36 116,-404 123.28,-411.12 132.88,-416.18 142.4,-419.75"/>
</g>
<!-- Node3 -->
<g id="node3" class="node">
<title>Node3</title>
<g id="a_node3"><a xlink:href="structACSConfig.html#a7ddfbaf20a1c9181d73d0dabe92beace" target="_top" xlink:title="Set receiver options for a specific receiver using a hierarchy of sources.">
<polygon fill="white" stroke="red" points="280,-247.5 280,-266.5 410,-266.5 410,-247.5 280,-247.5"/>
<text text-anchor="middle" x="345" y="-254.5" font-family="Helvetica,sans-Serif" font-size="10.00">ACSConfig::getRecOpts</text>
</a>
</g>
</g>
<!-- Node1&#45;&gt;Node3 -->
<g id="edge2" class="edge">
<title>Node1&#45;&gt;Node3</title>
<path fill="none" stroke="midnightblue" d="M42.31,-228.8C46.67,-256.99 63.52,-338.37 116,-371 164.31,-401.04 192.18,-394.48 244,-371 292.68,-348.95 327.04,-290.19 339.18,-266.8"/>
</g>
<!-- Node11 -->
<g id="node4" class="node">
<title>Node11</title>
<g id="a_node4"><a xlink:href="ephemeris_8cpp.html#aecb4df22f46995cce2eb340f5ea24635" target="_top" xlink:title=" ">
<polygon fill="white" stroke="red" points="131.5,-342.5 131.5,-361.5 228.5,-361.5 228.5,-342.5 131.5,-342.5"/>
<text text-anchor="middle" x="180" y="-349.5" font-family="Helvetica,sans-Serif" font-size="10.00">seleph&lt; Geph &gt;</text>
</a>
</g>
</g>
<!-- Node1&#45;&gt;Node11 -->
<g id="edge3" class="edge">
<title>Node1&#45;&gt;Node11</title>
<path fill="none" stroke="midnightblue" d="M44.61,-228.58C53.36,-250.49 77.83,-304.53 116,-333 121.22,-336.89 127.24,-340 133.44,-342.46"/>
</g>
<!-- Node20 -->
<g id="node5" class="node">
<title>Node20</title>
<g id="a_node5"><a xlink:href="ephemeris_8cpp.html#a7da191c91fa26999f40461876ed64cd0" target="_top" xlink:title=" ">
<polygon fill="white" stroke="red" points="135.5,-304.5 135.5,-323.5 224.5,-323.5 224.5,-304.5 135.5,-304.5"/>
<text text-anchor="middle" x="180" y="-311.5" font-family="Helvetica,sans-Serif" font-size="10.00">seleph&lt; Eph &gt;</text>
</a>
</g>
</g>
<!-- Node1&#45;&gt;Node20 -->
<g id="edge4" class="edge">
<title>Node1&#45;&gt;Node20</title>
<path fill="none" stroke="midnightblue" d="M47.94,-228.69C59.98,-244.8 86.31,-277.1 116,-295 122.36,-298.83 129.55,-301.95 136.74,-304.45"/>
</g>
<!-- Node21 -->
<g id="node6" class="node">
<title>Node21</title>
<g id="a_node6"><a xlink:href="rtkcmn_8cpp.html#ae8d22df7b58a50063804205a4bf0f00c" target="_top" xlink:title=" ">
<polygon fill="white" stroke="black" points="146,-266.5 146,-285.5 214,-285.5 214,-266.5 146,-266.5"/>
<text text-anchor="middle" x="180" y="-273.5" font-family="Helvetica,sans-Serif" font-size="10.00">updatenav</text>
</a>
</g>
</g>
<!-- Node1&#45;&gt;Node21 -->
<g id="edge5" class="edge">
<title>Node1&#45;&gt;Node21</title>
<path fill="none" stroke="midnightblue" d="M57.88,-228.63C72.82,-236.9 95.4,-248.75 116,-257 125.54,-260.82 136.16,-264.31 145.92,-267.22"/>
</g>
<!-- Node22 -->
<g id="node7" class="node">
<title>Node22</title>
<g id="a_node7"><a xlink:href="structACSConfig.html#a9f893b7ab2412f42ef7a02423d755940" target="_top" xlink:title="Set satellite options for a specific satellite using a hierarchy of sources.">
<polygon fill="white" stroke="red" points="116,-228.5 116,-247.5 244,-247.5 244,-228.5 116,-228.5"/>
<text text-anchor="middle" x="180" y="-235.5" font-family="Helvetica,sans-Serif" font-size="10.00">ACSConfig::getSatOpts</text>
</a>
</g>
</g>
<!-- Node1&#45;&gt;Node22 -->
<g id="edge6" class="edge">
<title>Node1&#45;&gt;Node22</title>
<path fill="none" stroke="midnightblue" d="M80.18,-224.39C91.33,-225.93 103.78,-227.64 115.97,-229.32"/>
</g>
<!-- Node26 -->
<g id="node8" class="node">
<title>Node26</title>
<g id="a_node8"><a xlink:href="preprocessor_8cpp.html#acd01feb8c83f749ae1e1498358c51728" target="_top" xlink:title=" ">
<polygon fill="white" stroke="black" points="121,-190.5 121,-209.5 239,-209.5 239,-190.5 121,-190.5"/>
<text text-anchor="middle" x="180" y="-197.5" font-family="Helvetica,sans-Serif" font-size="10.00">excludeUnprocessed</text>
</a>
</g>
</g>
<!-- Node1&#45;&gt;Node26 -->
<g id="edge7" class="edge">
<title>Node1&#45;&gt;Node26</title>
<path fill="none" stroke="midnightblue" d="M80.18,-213.61C92.85,-211.86 107.18,-209.89 120.92,-208"/>
</g>
<!-- Node27 -->
<g id="node9" class="node">
<title>Node27</title>
<g id="a_node9"><a xlink:href="ephemeris_8cpp.html#acf14c43fc8c865aae63cb7408d64d0d5" target="_top" xlink:title="satellite positions and clocks.">
<polygon fill="white" stroke="red" points="153,-152.5 153,-171.5 207,-171.5 207,-152.5 153,-152.5"/>
<text text-anchor="middle" x="180" y="-159.5" font-family="Helvetica,sans-Serif" font-size="10.00">satposs</text>
</a>
</g>
</g>
<!-- Node1&#45;&gt;Node27 -->
<g id="edge8" class="edge">
<title>Node1&#45;&gt;Node27</title>
<path fill="none" stroke="midnightblue" d="M57.88,-209.37C72.82,-201.1 95.4,-189.25 116,-181 127.88,-176.24 141.42,-172.01 152.9,-168.76"/>
</g>
<!-- Node77 -->
<g id="node10" class="node">
<title>Node77</title>
<g id="a_node10"><a xlink:href="preprocessor_8cpp.html#a5bf581abef6389557c3fdd95086a5c42" target="_top" xlink:title=" ">
<polygon fill="white" stroke="black" points="139,-114.5 139,-133.5 221,-133.5 221,-114.5 139,-114.5"/>
<text text-anchor="middle" x="180" y="-121.5" font-family="Helvetica,sans-Serif" font-size="10.00">obsVariances</text>
</a>
</g>
</g>
<!-- Node1&#45;&gt;Node77 -->
<g id="edge9" class="edge">
<title>Node1&#45;&gt;Node77</title>
<path fill="none" stroke="midnightblue" d="M47.94,-209.31C59.98,-193.2 86.31,-160.9 116,-143 122.95,-138.81 130.89,-135.49 138.73,-132.87"/>
</g>
<!-- Node78 -->
<g id="node11" class="node">
<title>Node78</title>
<g id="a_node11"><a xlink:href="linearCombo_8cpp.html#a600e3c4eaf808e42c88785d56dc70350" target="_top" xlink:title="Function to prepare some predefined linear combinations from a list of observations.">
<polygon fill="white" stroke="red" points="153.5,-76.5 153.5,-95.5 206.5,-95.5 206.5,-76.5 153.5,-76.5"/>
<text text-anchor="middle" x="180" y="-83.5" font-family="Helvetica,sans-Serif" font-size="10.00">obs2lcs</text>
</a>
</g>
</g>
<!-- Node1&#45;&gt;Node78 -->
<g id="edge11" class="edge">
<title>Node1&#45;&gt;Node78</title>
<path fill="none" stroke="midnightblue" d="M44.61,-209.42C53.36,-187.51 77.83,-133.47 116,-105 126.81,-96.94 141.03,-92.27 153.24,-89.58"/>
</g>
<!-- Node83 -->
<g id="node12" class="node">
<title>Node83</title>
<g id="a_node12"><a xlink:href="acsQC_8cpp.html#ae13db6fb21721c9fcb1eb93ea40ba2ff" target="_top" xlink:title="Detect slips for multiple observations.">
<polygon fill="white" stroke="red" points="145,-38.5 145,-57.5 215,-57.5 215,-38.5 145,-38.5"/>
<text text-anchor="middle" x="180" y="-45.5" font-family="Helvetica,sans-Serif" font-size="10.00">detectslips</text>
</a>
</g>
</g>
<!-- Node1&#45;&gt;Node83 -->
<g id="edge12" class="edge">
<title>Node1&#45;&gt;Node83</title>
<path fill="none" stroke="midnightblue" d="M43,-209.14C48.97,-182.18 69.29,-106.56 116,-67 124.11,-60.13 134.64,-55.75 144.76,-52.95"/>
</g>
<!-- Node118 -->
<g id="node13" class="node">
<title>Node118</title>
<g id="a_node13"><a xlink:href="spp_8cpp.html#a80e3d976b8371ffec2003e91fbd86282" target="_top" xlink:title="Compute receiver position, velocity, clock bias by single&#45;point positioning with pseudorange observab...">
<polygon fill="white" stroke="red" points="157.5,-0.5 157.5,-19.5 202.5,-19.5 202.5,-0.5 157.5,-0.5"/>
<text text-anchor="middle" x="180" y="-7.5" font-family="Helvetica,sans-Serif" font-size="10.00">sppos</text>
</a>
</g>
</g>
<!-- Node1&#45;&gt;Node118 -->
<g id="edge13" class="edge">
<title>Node1&#45;&gt;Node118</title>
<path fill="none" stroke="midnightblue" d="M41.88,-209.49C45.27,-178.63 60.16,-80.39 116,-29 127.26,-18.63 144,-13.91 157.39,-11.77"/>
</g>
<!-- Node77&#45;&gt;Node3 -->
<g id="edge10" class="edge">
<title>Node77&#45;&gt;Node3</title>
<path fill="none" stroke="midnightblue" d="M221.13,-132.44C229.07,-135.1 237.08,-138.55 244,-143 288.5,-171.64 324.77,-225.58 338.3,-247.44"/>
</g>
</g>
</svg>
