<?xml version="1.0" encoding="UTF-8" standalone="no"?>
<!DOCTYPE svg PUBLIC "-//W3C//DTD SVG 1.1//EN"
 "http://www.w3.org/Graphics/SVG/1.1/DTD/svg11.dtd">
<!-- Generated by graphviz version 2.43.0 (0)
 -->
<!-- Title: preprocessor Pages: 1 -->
<svg width="704pt" height="915pt"
 viewBox="0.00 0.00 704.00 914.52" xmlns="http://www.w3.org/2000/svg" xmlns:xlink="http://www.w3.org/1999/xlink">
<g id="graph0" class="graph" transform="scale(1 1) rotate(0) translate(4 910.52)">
<title>preprocessor</title>
<polygon fill="white" stroke="transparent" points="-4,4 -4,-910.52 700,-910.52 700,4 -4,4"/>
<!-- Node1 -->
<g id="node1" class="node">
<title>Node1</title>
<g id="a_node1"><a xlink:title=" ">
<polygon fill="#bfbfbf" stroke="black" points="0,-528.48 0,-547.48 80,-547.48 80,-528.48 0,-528.48"/>
<text text-anchor="middle" x="40" y="-535.48" font-family="Helvetica,sans-Serif" font-size="10.00">preprocessor</text>
</a>
</g>
</g>
<!-- Node2 -->
<g id="node2" class="node">
<title>Node2</title>
<g id="a_node2"><a xlink:href="streamTrace_8hpp.html#a11d8bb0b71dca46dd29f27f595c70ddf" target="_top" xlink:title=" ">
<polygon fill="white" stroke="black" points="137.5,-737.48 137.5,-756.48 212.5,-756.48 212.5,-737.48 137.5,-737.48"/>
<text text-anchor="middle" x="175" y="-744.48" font-family="Helvetica,sans-Serif" font-size="10.00">getTraceFile</text>
</a>
</g>
</g>
<!-- Node1&#45;&gt;Node2 -->
<g id="edge1" class="edge">
<title>Node1&#45;&gt;Node2</title>
<path fill="none" stroke="midnightblue" d="M42.3,-547.87C46.77,-578.18 64.23,-670.84 116,-722.98 122.22,-729.24 130.31,-733.94 138.46,-737.44"/>
</g>
<!-- Node3 -->
<g id="node3" class="node">
<title>Node3</title>
<g id="a_node3"><a xlink:href="structACSConfig.html#a7ddfbaf20a1c9181d73d0dabe92beace" target="_top" xlink:title="Set receiver options for a specific receiver using a hierarchy of sources.">
<polygon fill="white" stroke="black" points="270,-281.48 270,-300.48 400,-300.48 400,-281.48 270,-281.48"/>
<text text-anchor="middle" x="335" y="-288.48" font-family="Helvetica,sans-Serif" font-size="10.00">ACSConfig::getRecOpts</text>
</a>
</g>
</g>
<!-- Node1&#45;&gt;Node3 -->
<g id="edge2" class="edge">
<title>Node1&#45;&gt;Node3</title>
<path fill="none" stroke="midnightblue" d="M42.31,-547.77C46.67,-575.97 63.52,-657.35 116,-689.98 160.54,-717.66 195.21,-725.27 234,-689.98 296.74,-632.9 216.12,-375.48 270,-309.98 273.17,-306.13 277.07,-303.03 281.39,-300.55"/>
</g>
<!-- Node11 -->
<g id="node5" class="node">
<title>Node11</title>
<g id="a_node5"><a xlink:href="ephemeris_8cpp.html#aecb4df22f46995cce2eb340f5ea24635" target="_top" xlink:title=" ">
<polygon fill="white" stroke="black" points="126.5,-661.48 126.5,-680.48 223.5,-680.48 223.5,-661.48 126.5,-661.48"/>
<text text-anchor="middle" x="175" y="-668.48" font-family="Helvetica,sans-Serif" font-size="10.00">seleph&lt; Geph &gt;</text>
</a>
</g>
</g>
<!-- Node1&#45;&gt;Node11 -->
<g id="edge4" class="edge">
<title>Node1&#45;&gt;Node11</title>
<path fill="none" stroke="midnightblue" d="M44.66,-547.5C53.51,-569.27 78.17,-623.05 116,-651.98 121.05,-655.84 126.92,-658.93 132.95,-661.41"/>
</g>
<!-- Node20 -->
<g id="node10" class="node">
<title>Node20</title>
<g id="a_node10"><a xlink:href="ephemeris_8cpp.html#a7da191c91fa26999f40461876ed64cd0" target="_top" xlink:title=" ">
<polygon fill="white" stroke="black" points="130.5,-623.48 130.5,-642.48 219.5,-642.48 219.5,-623.48 130.5,-623.48"/>
<text text-anchor="middle" x="175" y="-630.48" font-family="Helvetica,sans-Serif" font-size="10.00">seleph&lt; Eph &gt;</text>
</a>
</g>
</g>
<!-- Node1&#45;&gt;Node20 -->
<g id="edge9" class="edge">
<title>Node1&#45;&gt;Node20</title>
<path fill="none" stroke="midnightblue" d="M47.98,-547.59C60.09,-563.59 86.53,-595.73 116,-613.98 122.13,-617.77 129.09,-620.89 136.01,-623.42"/>
</g>
<!-- Node21 -->
<g id="node11" class="node">
<title>Node21</title>
<g id="a_node11"><a xlink:href="rtkcmn_8cpp.html#ae8d22df7b58a50063804205a4bf0f00c" target="_top" xlink:title=" ">
<polygon fill="white" stroke="black" points="141,-585.48 141,-604.48 209,-604.48 209,-585.48 141,-585.48"/>
<text text-anchor="middle" x="175" y="-592.48" font-family="Helvetica,sans-Serif" font-size="10.00">updatenav</text>
</a>
</g>
</g>
<!-- Node1&#45;&gt;Node21 -->
<g id="edge11" class="edge">
<title>Node1&#45;&gt;Node21</title>
<path fill="none" stroke="midnightblue" d="M62.28,-547.49C77.27,-554.15 97.81,-563.21 116,-570.98 127.33,-575.81 139.95,-581.05 150.53,-585.4"/>
</g>
<!-- Node22 -->
<g id="node12" class="node">
<title>Node22</title>
<g id="a_node12"><a xlink:href="structACSConfig.html#a9f893b7ab2412f42ef7a02423d755940" target="_top" xlink:title="Set satellite options for a specific satellite using a hierarchy of sources.">
<polygon fill="white" stroke="black" points="271,-243.48 271,-262.48 399,-262.48 399,-243.48 271,-243.48"/>
<text text-anchor="middle" x="335" y="-250.48" font-family="Helvetica,sans-Serif" font-size="10.00">ACSConfig::getSatOpts</text>
</a>
</g>
</g>
<!-- Node1&#45;&gt;Node22 -->
<g id="edge12" class="edge">
<title>Node1&#45;&gt;Node22</title>
<path fill="none" stroke="midnightblue" d="M66.86,-547.49C107.75,-560.7 187.45,-578.65 234,-537.98 323.84,-459.48 192.38,-362.57 270,-271.98 273.32,-268.1 277.39,-265 281.85,-262.52"/>
</g>
<!-- Node26 -->
<g id="node16" class="node">
<title>Node26</title>
<g id="a_node16"><a xlink:href="preprocessor_8cpp.html#acd01feb8c83f749ae1e1498358c51728" target="_top" xlink:title=" ">
<polygon fill="white" stroke="black" points="116,-509.48 116,-528.48 234,-528.48 234,-509.48 116,-509.48"/>
<text text-anchor="middle" x="175" y="-516.48" font-family="Helvetica,sans-Serif" font-size="10.00">excludeUnprocessed</text>
</a>
</g>
</g>
<!-- Node1&#45;&gt;Node26 -->
<g id="edge18" class="edge">
<title>Node1&#45;&gt;Node26</title>
<path fill="none" stroke="midnightblue" d="M80.19,-532.38C91.37,-530.78 103.81,-529 115.87,-527.28"/>
</g>
<!-- Node27 -->
<g id="node17" class="node">
<title>Node27</title>
<g id="a_node17"><a xlink:href="ephemeris_8cpp.html#acf14c43fc8c865aae63cb7408d64d0d5" target="_top" xlink:title="satellite positions and clocks.">
<polygon fill="white" stroke="black" points="148,-471.48 148,-490.48 202,-490.48 202,-471.48 148,-471.48"/>
<text text-anchor="middle" x="175" y="-478.48" font-family="Helvetica,sans-Serif" font-size="10.00">satposs</text>
</a>
</g>
</g>
<!-- Node1&#45;&gt;Node27 -->
<g id="edge19" class="edge">
<title>Node1&#45;&gt;Node27</title>
<path fill="none" stroke="midnightblue" d="M57.93,-528.46C72.91,-520.27 95.5,-508.47 116,-499.98 126.28,-495.72 137.88,-491.76 148,-488.56"/>
</g>
<!-- Node77 -->
<g id="node22" class="node">
<title>Node77</title>
<g id="a_node22"><a xlink:href="preprocessor_8cpp.html#a5bf581abef6389557c3fdd95086a5c42" target="_top" xlink:title=" ">
<polygon fill="white" stroke="black" points="134,-433.48 134,-452.48 216,-452.48 216,-433.48 134,-433.48"/>
<text text-anchor="middle" x="175" y="-440.48" font-family="Helvetica,sans-Serif" font-size="10.00">obsVariances</text>
</a>
</g>
</g>
<!-- Node1&#45;&gt;Node77 -->
<g id="edge30" class="edge">
<title>Node1&#45;&gt;Node77</title>
<path fill="none" stroke="midnightblue" d="M47.98,-528.36C60.09,-512.36 86.53,-480.22 116,-461.98 122.13,-458.18 129.09,-455.06 136.01,-452.53"/>
</g>
<!-- Node78 -->
<g id="node23" class="node">
<title>Node78</title>
<g id="a_node23"><a xlink:href="linearCombo_8cpp.html#a600e3c4eaf808e42c88785d56dc70350" target="_top" xlink:title="Function to prepare some predefined linear combinations from a list of observations.">
<polygon fill="white" stroke="black" points="148.5,-395.48 148.5,-414.48 201.5,-414.48 201.5,-395.48 148.5,-395.48"/>
<text text-anchor="middle" x="175" y="-402.48" font-family="Helvetica,sans-Serif" font-size="10.00">obs2lcs</text>
</a>
</g>
</g>
<!-- Node1&#45;&gt;Node78 -->
<g id="edge32" class="edge">
<title>Node1&#45;&gt;Node78</title>
<path fill="none" stroke="midnightblue" d="M44.66,-528.46C53.51,-506.68 78.17,-452.9 116,-423.98 125.34,-416.83 137.49,-412.31 148.25,-409.48"/>
</g>
<!-- Node83 -->
<g id="node26" class="node">
<title>Node83</title>
<g id="a_node26"><a xlink:href="acsQC_8cpp.html#ae13db6fb21721c9fcb1eb93ea40ba2ff" target="_top" xlink:title="Detect slips for multiple observations.">
<polygon fill="white" stroke="black" points="300,-689.48 300,-708.48 370,-708.48 370,-689.48 300,-689.48"/>
<text text-anchor="middle" x="335" y="-696.48" font-family="Helvetica,sans-Serif" font-size="10.00">detectslips</text>
</a>
</g>
</g>
<!-- Node1&#45;&gt;Node83 -->
<g id="edge40" class="edge">
<title>Node1&#45;&gt;Node83</title>
<path fill="none" stroke="midnightblue" d="M42.31,-528.18C46.67,-499.98 63.52,-418.6 116,-385.98 160.54,-358.29 194.13,-351.91 234,-385.98 311.99,-452.62 229.96,-519.52 270,-613.98 282.98,-644.59 309.35,-674.17 323.86,-689.04"/>
</g>
<!-- Node118 -->
<g id="node31" class="node">
<title>Node118</title>
<g id="a_node31"><a xlink:href="spp_8cpp.html#a80e3d976b8371ffec2003e91fbd86282" target="_top" xlink:title="Compute receiver position, velocity, clock bias by single&#45;point positioning with pseudorange observab...">
<polygon fill="white" stroke="black" points="152.5,-319.48 152.5,-338.48 197.5,-338.48 197.5,-319.48 152.5,-319.48"/>
<text text-anchor="middle" x="175" y="-326.48" font-family="Helvetica,sans-Serif" font-size="10.00">sppos</text>
</a>
</g>
</g>
<!-- Node1&#45;&gt;Node118 -->
<g id="edge51" class="edge">
<title>Node1&#45;&gt;Node118</title>
<path fill="none" stroke="midnightblue" d="M42.3,-528.08C46.77,-497.77 64.23,-405.11 116,-352.98 125.83,-343.08 140.33,-337.08 152.37,-333.55"/>
</g>
<!-- Node4 -->
<g id="node4" class="node">
<title>Node4</title>
<g id="a_node4"><a xlink:href="acsConfig_8cpp.html#a93b507f5cfa7760051904a0a1863118a" target="_top" xlink:title="Set satellite options from yaml.">
<polygon fill="white" stroke="red" points="449.5,-243.48 449.5,-262.48 529.5,-262.48 529.5,-243.48 449.5,-243.48"/>
<text text-anchor="middle" x="489.5" y="-250.48" font-family="Helvetica,sans-Serif" font-size="10.00">getFromYaml</text>
</a>
</g>
</g>
<!-- Node3&#45;&gt;Node4 -->
<g id="edge3" class="edge">
<title>Node3&#45;&gt;Node4</title>
<path fill="none" stroke="midnightblue" d="M374.48,-281.39C397.69,-275.6 427.14,-268.27 450.29,-262.5"/>
</g>
<!-- Node12 -->
<g id="node6" class="node">
<title>Node12</title>
<g id="a_node6"><a xlink:href="ephemeris_8cpp.html#a1c8372fd221a0909216384e0b3fdced5" target="_top" xlink:title="select ephememeris">
<polygon fill="white" stroke="black" points="310.5,-585.48 310.5,-604.48 359.5,-604.48 359.5,-585.48 310.5,-585.48"/>
<text text-anchor="middle" x="335" y="-592.48" font-family="Helvetica,sans-Serif" font-size="10.00">seleph</text>
</a>
</g>
</g>
<!-- Node11&#45;&gt;Node12 -->
<g id="edge5" class="edge">
<title>Node11&#45;&gt;Node12</title>
<path fill="none" stroke="midnightblue" d="M208.95,-661.46C217.25,-658.71 226.06,-655.5 234,-651.98 265.6,-637.96 300.16,-616.86 319.25,-604.65"/>
</g>
<!-- Node13 -->
<g id="node7" class="node">
<title>Node13</title>
<g id="a_node7"><a xlink:href="streamTrace_8cpp.html#ae00e6addd3bdf3a7fd41a254eb9aec89" target="_top" xlink:title=" ">
<polygon fill="white" stroke="black" points="602,-585.48 602,-604.48 673,-604.48 673,-585.48 602,-585.48"/>
<text text-anchor="middle" x="637.5" y="-592.48" font-family="Helvetica,sans-Serif" font-size="10.00">tracepdeex</text>
</a>
</g>
</g>
<!-- Node12&#45;&gt;Node13 -->
<g id="edge6" class="edge">
<title>Node12&#45;&gt;Node13</title>
<path fill="none" stroke="midnightblue" d="M359.58,-594.98C412.29,-594.98 539.9,-594.98 601.74,-594.98"/>
</g>
<!-- Node14 -->
<g id="node8" class="node">
<title>Node14</title>
<g id="a_node8"><a xlink:href="structGTime.html#a64394968bbfdecbbeec4ba5134fdb682" target="_top" xlink:title=" ">
<polygon fill="white" stroke="red" points="441,-433.48 441,-452.48 538,-452.48 538,-433.48 441,-433.48"/>
<text text-anchor="middle" x="489.5" y="-440.48" font-family="Helvetica,sans-Serif" font-size="10.00">GTime::to_string</text>
</a>
</g>
</g>
<!-- Node12&#45;&gt;Node14 -->
<g id="edge7" class="edge">
<title>Node12&#45;&gt;Node14</title>
<path fill="none" stroke="midnightblue" d="M346.05,-585.38C358.72,-573.26 381.12,-551.72 400,-532.98 429.24,-503.95 463.26,-469.02 479.27,-452.51"/>
</g>
<!-- Node17 -->
<g id="node9" class="node">
<title>Node17</title>
<g id="a_node9"><a xlink:href="structSatSys.html#aec6d07b90d1e8172b8b6a6966abef4fd" target="_top" xlink:title="Returns a std::string of this satellite&#39;s id.">
<polygon fill="white" stroke="red" points="457,-319.48 457,-338.48 522,-338.48 522,-319.48 457,-319.48"/>
<text text-anchor="middle" x="489.5" y="-326.48" font-family="Helvetica,sans-Serif" font-size="10.00">SatSys::id</text>
</a>
</g>
</g>
<!-- Node12&#45;&gt;Node17 -->
<g id="edge8" class="edge">
<title>Node12&#45;&gt;Node17</title>
<path fill="none" stroke="midnightblue" d="M343.92,-585.29C357.14,-568.72 383.85,-533.47 400,-499.98 423.08,-452.12 409.36,-431.95 436,-385.98 446.93,-367.12 465.05,-349.3 476.88,-338.76"/>
</g>
<!-- Node20&#45;&gt;Node12 -->
<g id="edge10" class="edge">
<title>Node20&#45;&gt;Node12</title>
<path fill="none" stroke="midnightblue" d="M215.87,-623.39C245.67,-616.22 285.41,-606.66 310.36,-600.66"/>
</g>
<!-- Node22&#45;&gt;Node4 -->
<g id="edge15" class="edge">
<title>Node22&#45;&gt;Node4</title>
<path fill="none" stroke="midnightblue" d="M399.35,-252.98C416.21,-252.98 433.93,-252.98 449.1,-252.98"/>
</g>
<!-- Node22&#45;&gt;Node17 -->
<g id="edge13" class="edge">
<title>Node22&#45;&gt;Node17</title>
<path fill="none" stroke="midnightblue" d="M379.67,-262.58C386.74,-265.07 393.78,-268.16 400,-271.98 419.83,-284.15 416.54,-297.23 436,-309.98 442.32,-314.12 449.67,-317.5 456.82,-320.2"/>
</g>
<!-- Node23 -->
<g id="node13" class="node">
<title>Node23</title>
<g id="a_node13"><a xlink:href="structSatSys.html#a01de9e9cee76346f43550516bba9558e" target="_top" xlink:title=" ">
<polygon fill="white" stroke="black" points="437.5,-281.48 437.5,-300.48 541.5,-300.48 541.5,-281.48 437.5,-281.48"/>
<text text-anchor="middle" x="489.5" y="-288.48" font-family="Helvetica,sans-Serif" font-size="10.00">SatSys::blockType</text>
</a>
</g>
</g>
<!-- Node22&#45;&gt;Node23 -->
<g id="edge14" class="edge">
<title>Node22&#45;&gt;Node23</title>
<path fill="none" stroke="midnightblue" d="M374.48,-262.56C397.69,-268.35 427.14,-275.69 450.29,-281.46"/>
</g>
<!-- Node24 -->
<g id="node14" class="node">
<title>Node24</title>
<g id="a_node14"><a xlink:href="structSatSys.html#a099c890a6a613ec08f3260a51f0544f8" target="_top" xlink:title=" ">
<polygon fill="white" stroke="black" points="439,-205.48 439,-224.48 540,-224.48 540,-205.48 439,-205.48"/>
<text text-anchor="middle" x="489.5" y="-212.48" font-family="Helvetica,sans-Serif" font-size="10.00">SatSys::sysName</text>
</a>
</g>
</g>
<!-- Node22&#45;&gt;Node24 -->
<g id="edge16" class="edge">
<title>Node22&#45;&gt;Node24</title>
<path fill="none" stroke="midnightblue" d="M374.48,-243.39C397.69,-237.6 427.14,-230.27 450.29,-224.5"/>
</g>
<!-- Node25 -->
<g id="node15" class="node">
<title>Node25</title>
<g id="a_node15"><a xlink:href="structSatSys.html#a1da3994cf03ff0ec115928954c9307bb" target="_top" xlink:title=" ">
<polygon fill="white" stroke="black" points="453,-167.48 453,-186.48 526,-186.48 526,-167.48 453,-167.48"/>
<text text-anchor="middle" x="489.5" y="-174.48" font-family="Helvetica,sans-Serif" font-size="10.00">SatSys::svn</text>
</a>
</g>
</g>
<!-- Node22&#45;&gt;Node25 -->
<g id="edge17" class="edge">
<title>Node22&#45;&gt;Node25</title>
<path fill="none" stroke="midnightblue" d="M350.82,-243.46C369.98,-231.41 404.61,-210.47 436,-195.98 443.39,-192.56 451.59,-189.34 459.26,-186.56"/>
</g>
<!-- Node27&#45;&gt;Node13 -->
<g id="edge20" class="edge">
<title>Node27&#45;&gt;Node13</title>
<path fill="none" stroke="midnightblue" d="M202.15,-483.22C213.66,-485.61 226.29,-490.4 234,-499.98 283.19,-561.03 211.8,-798.44 270,-850.98 360.18,-932.38 454.45,-920.16 543,-836.98 616.17,-768.24 513.88,-690.38 579,-613.98 584.87,-607.09 593.28,-602.69 601.87,-599.88"/>
</g>
<!-- Node27&#45;&gt;Node14 -->
<g id="edge21" class="edge">
<title>Node27&#45;&gt;Node14</title>
<path fill="none" stroke="midnightblue" d="M202.15,-489.25C244.6,-501.36 330.73,-520.35 400,-499.98 431.56,-490.69 462.49,-466.28 478.08,-452.61"/>
</g>
<!-- Node28 -->
<g id="node18" class="node">
<title>Node28</title>
<g id="a_node18"><a xlink:href="preceph_8cpp.html#a2e21e986800a930603c04dea42c199be" target="_top" xlink:title=" ">
<polygon fill="white" stroke="black" points="307.5,-471.48 307.5,-490.48 362.5,-490.48 362.5,-471.48 307.5,-471.48"/>
<text text-anchor="middle" x="335" y="-478.48" font-family="Helvetica,sans-Serif" font-size="10.00">pephclk</text>
</a>
</g>
</g>
<!-- Node27&#45;&gt;Node28 -->
<g id="edge22" class="edge">
<title>Node27&#45;&gt;Node28</title>
<path fill="none" stroke="midnightblue" d="M202.09,-480.98C231.19,-480.98 278.02,-480.98 307.34,-480.98"/>
</g>
<!-- Node29 -->
<g id="node19" class="node">
<title>Node29</title>
<g id="a_node19"><a xlink:href="ephemeris_8cpp.html#a5e9656cbaa8bb74ade4b33d285159524" target="_top" xlink:title=" ">
<polygon fill="white" stroke="red" points="310.5,-822.48 310.5,-841.48 359.5,-841.48 359.5,-822.48 310.5,-822.48"/>
<text text-anchor="middle" x="335" y="-829.48" font-family="Helvetica,sans-Serif" font-size="10.00">ephclk</text>
</a>
</g>
</g>
<!-- Node27&#45;&gt;Node29 -->
<g id="edge24" class="edge">
<title>Node27&#45;&gt;Node29</title>
<path fill="none" stroke="midnightblue" d="M202.09,-483.27C213.58,-485.67 226.22,-490.46 234,-499.98 321.23,-606.68 185.04,-699.45 270,-807.98 279.66,-820.31 296.37,-826.3 310.3,-829.22"/>
</g>
<!-- Node33 -->
<g id="node20" class="node">
<title>Node33</title>
<g id="a_node20"><a xlink:href="ephemeris_8cpp.html#a00df4213eb6f901bcb5928f44a24bd4d" target="_top" xlink:title=" ">
<polygon fill="white" stroke="red" points="310.5,-433.48 310.5,-452.48 359.5,-452.48 359.5,-433.48 310.5,-433.48"/>
<text text-anchor="middle" x="335" y="-440.48" font-family="Helvetica,sans-Serif" font-size="10.00">satpos</text>
</a>
</g>
</g>
<!-- Node27&#45;&gt;Node33 -->
<g id="edge25" class="edge">
<title>Node27&#45;&gt;Node33</title>
<path fill="none" stroke="midnightblue" d="M202.09,-474.7C232.24,-467.45 281.42,-455.62 310.45,-448.64"/>
</g>
<!-- Node73 -->
<g id="node21" class="node">
<title>Node73</title>
<g id="a_node21"><a xlink:href="structTestStack.html#aff20cea87ae5eee6108b33d022913707" target="_top" xlink:title="Compare matrix against test dataset.">
<polygon fill="white" stroke="red" points="436,-53.48 436,-72.48 543,-72.48 543,-53.48 436,-53.48"/>
<text text-anchor="middle" x="489.5" y="-60.48" font-family="Helvetica,sans-Serif" font-size="10.00">TestStack::testMat</text>
</a>
</g>
</g>
<!-- Node27&#45;&gt;Node73 -->
<g id="edge29" class="edge">
<title>Node27&#45;&gt;Node73</title>
<path fill="none" stroke="midnightblue" d="M202.14,-478.72C213.64,-476.33 226.28,-471.54 234,-461.98 330.05,-343.09 170.35,-235.86 270,-119.98 310.64,-72.71 385.09,-62.17 435.67,-60.97"/>
</g>
<!-- Node28&#45;&gt;Node14 -->
<g id="edge23" class="edge">
<title>Node28&#45;&gt;Node14</title>
<path fill="none" stroke="midnightblue" d="M362.56,-474.36C386.8,-468.32 422.9,-459.32 450.24,-452.51"/>
</g>
<!-- Node33&#45;&gt;Node13 -->
<g id="edge26" class="edge">
<title>Node33&#45;&gt;Node13</title>
<path fill="none" stroke="midnightblue" d="M359.52,-447.27C372.09,-450.21 387.49,-454.89 400,-461.98 418.89,-472.67 417.87,-483.05 436,-494.98 479.55,-523.62 496.4,-519.62 543,-542.98 570.56,-556.79 601.7,-574.55 620.18,-585.34"/>
</g>
<!-- Node33&#45;&gt;Node14 -->
<g id="edge27" class="edge">
<title>Node33&#45;&gt;Node14</title>
<path fill="none" stroke="midnightblue" d="M359.83,-442.98C381.44,-442.98 413.94,-442.98 440.88,-442.98"/>
</g>
<!-- Node33&#45;&gt;Node17 -->
<g id="edge28" class="edge">
<title>Node33&#45;&gt;Node17</title>
<path fill="none" stroke="midnightblue" d="M348.74,-433.45C377.37,-412.05 446.57,-360.32 475.47,-338.71"/>
</g>
<!-- Node77&#45;&gt;Node3 -->
<g id="edge31" class="edge">
<title>Node77&#45;&gt;Node3</title>
<path fill="none" stroke="midnightblue" d="M216.29,-435.33C222.84,-432.62 229.08,-428.95 234,-423.98 271.37,-386.2 232.11,-347.22 270,-309.98 273.97,-306.08 278.7,-302.97 283.76,-300.5"/>
</g>
<!-- Node78&#45;&gt;Node13 -->
<g id="edge34" class="edge">
<title>Node78&#45;&gt;Node13</title>
<path fill="none" stroke="midnightblue" d="M201.77,-407.23C213.34,-409.61 226.13,-414.4 234,-423.98 317.6,-525.67 190.67,-612.92 270,-717.98 294.13,-749.92 396.76,-780.04 436,-787.98 482.61,-797.4 506.12,-818 543,-787.98 604.24,-738.11 526.46,-672.94 579,-613.98 584.95,-607.3 593.28,-602.97 601.77,-600.15"/>
</g>
<!-- Node79 -->
<g id="node24" class="node">
<title>Node79</title>
<g id="a_node24"><a xlink:href="gTime_8cpp.html#abf196aa655d8ca10168c2301a68a8101" target="_top" xlink:title=" ">
<polygon fill="white" stroke="red" points="604.5,-623.48 604.5,-642.48 670.5,-642.48 670.5,-623.48 604.5,-623.48"/>
<text text-anchor="middle" x="637.5" y="-630.48" font-family="Helvetica,sans-Serif" font-size="10.00">time2gpst</text>
</a>
</g>
</g>
<!-- Node78&#45;&gt;Node79 -->
<g id="edge33" class="edge">
<title>Node78&#45;&gt;Node79</title>
<path fill="none" stroke="midnightblue" d="M201.54,-407.11C213.2,-409.46 226.14,-414.25 234,-423.98 329.01,-541.43 172.62,-646.48 270,-761.98 319.43,-820.6 360.05,-798.43 436,-808.98 483.1,-815.52 502.24,-833.48 543,-808.98 606.46,-770.83 629.16,-673.47 634.9,-642.55"/>
</g>
<!-- Node80 -->
<g id="node25" class="node">
<title>Node80</title>
<g id="a_node25"><a xlink:href="linearCombo_8cpp.html#aa1b18e5a14543945bb9c7929e8aa4fce" target="_top" xlink:title="Function to prepare some predefined linear combinations from an observation.">
<polygon fill="white" stroke="red" points="311,-129.48 311,-148.48 359,-148.48 359,-129.48 311,-129.48"/>
<text text-anchor="middle" x="335" y="-136.48" font-family="Helvetica,sans-Serif" font-size="10.00">obs2lc</text>
</a>
</g>
</g>
<!-- Node78&#45;&gt;Node80 -->
<g id="edge35" class="edge">
<title>Node78&#45;&gt;Node80</title>
<path fill="none" stroke="midnightblue" d="M188.88,-395.45C201.99,-385.12 222.05,-367.47 234,-347.98 261.77,-302.68 246.92,-281.83 270,-233.98 286.15,-200.48 312.86,-165.23 326.08,-148.66"/>
</g>
<!-- Node80&#45;&gt;Node13 -->
<g id="edge38" class="edge">
<title>Node80&#45;&gt;Node13</title>
<path fill="none" stroke="midnightblue" d="M356.41,-129.38C397.02,-111.86 488.7,-80.42 543,-124.98 561.77,-140.38 624.09,-518.7 634.9,-585.08"/>
</g>
<!-- Node80&#45;&gt;Node17 -->
<g id="edge36" class="edge">
<title>Node80&#45;&gt;Node17</title>
<path fill="none" stroke="midnightblue" d="M343.23,-148.65C355.66,-165.48 381.5,-201.49 400,-233.98 418.49,-266.45 408.34,-284.83 436,-309.98 441.88,-315.32 449.38,-319.19 456.86,-321.98"/>
</g>
<!-- Node80&#45;&gt;Node73 -->
<g id="edge39" class="edge">
<title>Node80&#45;&gt;Node73</title>
<path fill="none" stroke="midnightblue" d="M353.93,-129.3C373.83,-118.65 406.99,-101.14 436,-86.98 446.09,-82.05 457.4,-76.84 466.93,-72.54"/>
</g>
<!-- Node80&#45;&gt;Node79 -->
<g id="edge37" class="edge">
<title>Node80&#45;&gt;Node79</title>
<path fill="none" stroke="midnightblue" d="M359.2,-137.54C407.8,-135.09 517.9,-132.55 543,-157.98 614.42,-230.31 516.26,-534 579,-613.98 585.23,-621.92 594.87,-626.57 604.49,-629.29"/>
</g>
<!-- Node83&#45;&gt;Node13 -->
<g id="edge41" class="edge">
<title>Node83&#45;&gt;Node13</title>
<path fill="none" stroke="midnightblue" d="M350.22,-708.54C377.69,-727.01 435.39,-765.79 436,-765.98 481.5,-779.81 505.7,-795.47 543,-765.98 597.45,-722.91 532.08,-665.14 579,-613.98 585.04,-607.39 593.41,-603.08 601.89,-600.27"/>
</g>
<!-- Node84 -->
<g id="node27" class="node">
<title>Node84</title>
<g id="a_node27"><a xlink:href="acsQC_8cpp.html#a7cae7a76a291c0a56b01d929cb94e3ff" target="_top" xlink:title="Detect cycle slip by reported loss of lock.">
<polygon fill="white" stroke="black" points="460.5,-737.48 460.5,-756.48 518.5,-756.48 518.5,-737.48 460.5,-737.48"/>
<text text-anchor="middle" x="489.5" y="-744.48" font-family="Helvetica,sans-Serif" font-size="10.00">detslp_ll</text>
</a>
</g>
</g>
<!-- Node83&#45;&gt;Node84 -->
<g id="edge42" class="edge">
<title>Node83&#45;&gt;Node84</title>
<path fill="none" stroke="midnightblue" d="M366.49,-708.57C393.87,-717.19 433.74,-729.74 460.37,-738.12"/>
</g>
<!-- Node85 -->
<g id="node28" class="node">
<title>Node85</title>
<g id="a_node28"><a xlink:href="acsQC_8cpp.html#a0d2d4fd45a0cdf961784d89cc132442e" target="_top" xlink:title="Detect cycle slip by geometry free phase jump.">
<polygon fill="white" stroke="red" points="458.5,-699.48 458.5,-718.48 520.5,-718.48 520.5,-699.48 458.5,-699.48"/>
<text text-anchor="middle" x="489.5" y="-706.48" font-family="Helvetica,sans-Serif" font-size="10.00">detslp_gf</text>
</a>
</g>
</g>
<!-- Node83&#45;&gt;Node85 -->
<g id="edge44" class="edge">
<title>Node83&#45;&gt;Node85</title>
<path fill="none" stroke="midnightblue" d="M370.22,-701.22C396.66,-702.95 432.89,-705.33 458.26,-706.99"/>
</g>
<!-- Node86 -->
<g id="node29" class="node">
<title>Node86</title>
<g id="a_node29"><a xlink:href="acsQC_8cpp.html#a36663ab87649ee3624e072af7fec6409" target="_top" xlink:title="Detect slip by Melbourne&#45;Wubbena linear combination jump.">
<polygon fill="white" stroke="red" points="454.5,-661.48 454.5,-680.48 524.5,-680.48 524.5,-661.48 454.5,-661.48"/>
<text text-anchor="middle" x="489.5" y="-668.48" font-family="Helvetica,sans-Serif" font-size="10.00">detslp_mw</text>
</a>
</g>
</g>
<!-- Node83&#45;&gt;Node86 -->
<g id="edge46" class="edge">
<title>Node83&#45;&gt;Node86</title>
<path fill="none" stroke="midnightblue" d="M370.22,-692.69C395.34,-688.08 429.3,-681.84 454.39,-677.24"/>
</g>
<!-- Node87 -->
<g id="node30" class="node">
<title>Node87</title>
<g id="a_node30"><a xlink:href="acsQC_8cpp.html#a099d227578f6d7896777651aca60fe1b" target="_top" xlink:title="Cycle slip detection and repair.">
<polygon fill="white" stroke="red" points="457,-623.48 457,-642.48 522,-642.48 522,-623.48 457,-623.48"/>
<text text-anchor="middle" x="489.5" y="-630.48" font-family="Helvetica,sans-Serif" font-size="10.00">detectslip</text>
</a>
</g>
</g>
<!-- Node83&#45;&gt;Node87 -->
<g id="edge48" class="edge">
<title>Node83&#45;&gt;Node87</title>
<path fill="none" stroke="midnightblue" d="M354.94,-689.44C374.88,-679.54 407.3,-663.89 436,-651.98 443.88,-648.71 452.54,-645.44 460.53,-642.56"/>
</g>
<!-- Node84&#45;&gt;Node13 -->
<g id="edge43" class="edge">
<title>Node84&#45;&gt;Node13</title>
<path fill="none" stroke="midnightblue" d="M518.57,-741.94C527.38,-739.13 536.49,-734.76 543,-727.98 579.79,-689.64 541.68,-651.79 579,-613.98 585.2,-607.69 593.53,-603.48 601.91,-600.67"/>
</g>
<!-- Node85&#45;&gt;Node13 -->
<g id="edge45" class="edge">
<title>Node85&#45;&gt;Node13</title>
<path fill="none" stroke="midnightblue" d="M520.77,-702.48C528.7,-699.66 536.76,-695.65 543,-689.98 570.66,-664.83 550.99,-638.73 579,-613.98 585.46,-608.27 593.68,-604.27 601.87,-601.46"/>
</g>
<!-- Node86&#45;&gt;Node13 -->
<g id="edge47" class="edge">
<title>Node86&#45;&gt;Node13</title>
<path fill="none" stroke="midnightblue" d="M524.11,-661.46C530.64,-658.89 537.24,-655.75 543,-651.98 562.46,-639.23 559.36,-626.45 579,-613.98 585.92,-609.58 593.96,-606.1 601.8,-603.38"/>
</g>
<!-- Node87&#45;&gt;Node13 -->
<g id="edge50" class="edge">
<title>Node87&#45;&gt;Node13</title>
<path fill="none" stroke="midnightblue" d="M522.18,-624.73C545.66,-618.62 577.65,-610.29 601.82,-604"/>
</g>
<!-- Node87&#45;&gt;Node79 -->
<g id="edge49" class="edge">
<title>Node87&#45;&gt;Node79</title>
<path fill="none" stroke="midnightblue" d="M522.18,-632.98C546.5,-632.98 579.95,-632.98 604.38,-632.98"/>
</g>
<!-- Node118&#45;&gt;Node13 -->
<g id="edge52" class="edge">
<title>Node118&#45;&gt;Node13</title>
<path fill="none" stroke="midnightblue" d="M197.65,-334.85C210.01,-339.27 224.82,-346.57 234,-357.98 274.82,-408.69 224.08,-453.81 270,-499.98 317.05,-547.28 519.94,-579.3 601.93,-590.53"/>
</g>
<!-- Node118&#45;&gt;Node73 -->
<g id="edge64" class="edge">
<title>Node118&#45;&gt;Node73</title>
<path fill="none" stroke="midnightblue" d="M175.94,-319.43C176.29,-280.17 183.43,-130.31 270,-67.98 325.27,-28.18 410.46,-41.73 456.43,-53.39"/>
</g>
<!-- Node119 -->
<g id="node32" class="node">
<title>Node119</title>
<g id="a_node32"><a xlink:href="spp_8cpp.html#afe946d837e0a89c159b73e50c65e39e4" target="_top" xlink:title="Estimate receiver position and biases using code measurements.">
<polygon fill="white" stroke="red" points="465,-395.48 465,-414.48 514,-414.48 514,-395.48 465,-395.48"/>
<text text-anchor="middle" x="489.5" y="-402.48" font-family="Helvetica,sans-Serif" font-size="10.00">estpos</text>
</a>
</g>
</g>
<!-- Node118&#45;&gt;Node119 -->
<g id="edge53" class="edge">
<title>Node118&#45;&gt;Node119</title>
<path fill="none" stroke="midnightblue" d="M197.54,-335.85C208.86,-339.95 222.69,-345.77 234,-352.98 252.31,-364.64 250.13,-377.24 270,-385.98 335.88,-414.95 423.58,-411.5 464.97,-407.71"/>
</g>
<!-- Node55 -->
<g id="node33" class="node">
<title>Node55</title>
<g id="a_node33"><a xlink:href="structKFState.html#a291ac2a8a4612b3575dbc864d43fa0f7" target="_top" xlink:title="Returns the value and variance of a state within the kalman filter object.">
<polygon fill="white" stroke="black" points="579,-205.48 579,-224.48 696,-224.48 696,-205.48 579,-205.48"/>
<text text-anchor="middle" x="637.5" y="-212.48" font-family="Helvetica,sans-Serif" font-size="10.00">KFState::getKFValue</text>
</a>
</g>
</g>
<!-- Node118&#45;&gt;Node55 -->
<g id="edge63" class="edge">
<title>Node118&#45;&gt;Node55</title>
<path fill="none" stroke="midnightblue" d="M175.96,-319.32C176.39,-279.59 183.8,-127.62 270,-59.98 365.62,15.06 438.45,18.01 543,-43.98 604.99,-80.73 628.55,-174.7 634.72,-205.23"/>
</g>
<!-- Node153 -->
<g id="node34" class="node">
<title>Node153</title>
<g id="a_node34"><a xlink:href="spp_8cpp.html#a9d3fef1e4eab19407853f4c1a975263b" target="_top" xlink:title="Receiver autonomous integrity monitoring (RAIM) failure detection and exclution.">
<polygon fill="white" stroke="red" points="305,-357.48 305,-376.48 365,-376.48 365,-357.48 305,-357.48"/>
<text text-anchor="middle" x="335" y="-364.48" font-family="Helvetica,sans-Serif" font-size="10.00">raim_fde</text>
</a>
</g>
</g>
<!-- Node118&#45;&gt;Node153 -->
<g id="edge56" class="edge">
<title>Node118&#45;&gt;Node153</title>
<path fill="none" stroke="midnightblue" d="M197.64,-334.18C225.44,-340.87 273.82,-352.5 304.85,-359.96"/>
</g>
<!-- Node154 -->
<g id="node35" class="node">
<title>Node154</title>
<g id="a_node35"><a xlink:href="structKFState.html#a0c84e911a5ea760fe728baec661e33f0" target="_top" xlink:title="Output keys and states in human readable format.">
<polygon fill="white" stroke="black" points="273.5,-319.48 273.5,-338.48 396.5,-338.48 396.5,-319.48 273.5,-319.48"/>
<text text-anchor="middle" x="335" y="-326.48" font-family="Helvetica,sans-Serif" font-size="10.00">KFState::outputStates</text>
</a>
</g>
</g>
<!-- Node118&#45;&gt;Node154 -->
<g id="edge60" class="edge">
<title>Node118&#45;&gt;Node154</title>
<path fill="none" stroke="midnightblue" d="M197.64,-328.98C217.08,-328.98 246.57,-328.98 273.16,-328.98"/>
</g>
<!-- Node119&#45;&gt;Node13 -->
<g id="edge54" class="edge">
<title>Node119&#45;&gt;Node13</title>
<path fill="none" stroke="midnightblue" d="M514.09,-409.62C523.88,-412.47 534.83,-416.97 543,-423.98 597.2,-470.45 625.57,-556.48 633.87,-585.29"/>
</g>
<!-- Node119&#45;&gt;Node55 -->
<g id="edge55" class="edge">
<title>Node119&#45;&gt;Node55</title>
<path fill="none" stroke="midnightblue" d="M500.21,-395.24C511.07,-384.17 528.98,-365.36 543,-347.98 578.61,-303.81 615.94,-247.01 630.34,-224.64"/>
</g>
<!-- Node153&#45;&gt;Node13 -->
<g id="edge58" class="edge">
<title>Node153&#45;&gt;Node13</title>
<path fill="none" stroke="midnightblue" d="M365.21,-361.13C408.39,-354.21 489.87,-347.98 543,-385.98 613.16,-436.15 631.56,-551.43 635.54,-585.4"/>
</g>
<!-- Node153&#45;&gt;Node17 -->
<g id="edge59" class="edge">
<title>Node153&#45;&gt;Node17</title>
<path fill="none" stroke="midnightblue" d="M365.04,-359.74C391.31,-353.19 429.91,-343.57 456.94,-336.84"/>
</g>
<!-- Node153&#45;&gt;Node119 -->
<g id="edge57" class="edge">
<title>Node153&#45;&gt;Node119</title>
<path fill="none" stroke="midnightblue" d="M365.04,-374.21C393.91,-381.4 437.65,-392.3 464.58,-399.01"/>
</g>
<!-- Node154&#45;&gt;Node13 -->
<g id="edge61" class="edge">
<title>Node154&#45;&gt;Node13</title>
<path fill="none" stroke="midnightblue" d="M386.24,-338.5C391.3,-340.97 396.03,-344.08 400,-347.98 437.89,-385.22 398.3,-424.53 436,-461.98 471.31,-497.05 500.81,-468.58 543,-494.98 582.69,-519.81 616.67,-565.64 630.22,-585.45"/>
</g>
<!-- Node154&#45;&gt;Node14 -->
<g id="edge62" class="edge">
<title>Node154&#45;&gt;Node14</title>
<path fill="none" stroke="midnightblue" d="M384.76,-338.61C390.27,-341.06 395.51,-344.13 400,-347.98 428.38,-372.3 408.34,-398.83 436,-423.98 440.23,-427.82 445.3,-430.91 450.6,-433.37"/>
</g>
</g>
</svg>
