<?xml version="1.0" encoding="UTF-8" standalone="no"?>
<!DOCTYPE svg PUBLIC "-//W3C//DTD SVG 1.1//EN"
 "http://www.w3.org/Graphics/SVG/1.1/DTD/svg11.dtd">
<!-- Generated by graphviz version 2.43.0 (0)
 -->
<!-- Title: decodeigsSSR_header Pages: 1 -->
<svg width="286pt" height="294pt"
 viewBox="0.00 0.00 286.00 294.00" xmlns="http://www.w3.org/2000/svg" xmlns:xlink="http://www.w3.org/1999/xlink">
<g id="graph0" class="graph" transform="scale(1 1) rotate(0) translate(4 290)">
<title>decodeigsSSR_header</title>
<polygon fill="white" stroke="transparent" points="-4,4 -4,-290 282,-290 282,4 -4,4"/>
<!-- Node1 -->
<g id="node1" class="node">
<title>Node1</title>
<g id="a_node1"><a xlink:title=" ">
<polygon fill="#bfbfbf" stroke="black" points="154,-133.5 154,-152.5 278,-152.5 278,-133.5 154,-133.5"/>
<text text-anchor="middle" x="216" y="-140.5" font-family="Helvetica,sans-Serif" font-size="10.00">decodeigsSSR_header</text>
</a>
</g>
</g>
<!-- Node2 -->
<g id="node2" class="node">
<title>Node2</title>
<g id="a_node2"><a xlink:href="prototypeIgsSSRDecode_8cpp.html#aceada2a0110bf7d459a3f1c94bffd19b" target="_top" xlink:title=" ">
<polygon fill="white" stroke="red" points="0,-266.5 0,-285.5 118,-285.5 118,-266.5 0,-266.5"/>
<text text-anchor="middle" x="59" y="-273.5" font-family="Helvetica,sans-Serif" font-size="10.00">decodeigsSSR_type1</text>
</a>
</g>
</g>
<!-- Node1&#45;&gt;Node2 -->
<g id="edge1" class="edge">
<title>Node1&#45;&gt;Node2</title>
<path fill="none" stroke="midnightblue" d="M209.3,-152.82C196.08,-174.75 161.15,-228.03 118,-257 112.28,-260.84 105.73,-263.95 99.13,-266.46"/>
</g>
<!-- Node6 -->
<g id="node3" class="node">
<title>Node6</title>
<g id="a_node3"><a xlink:href="prototypeIgsSSRDecode_8cpp.html#a91f3475d9c3dd88792324a011d597918" target="_top" xlink:title=" ">
<polygon fill="white" stroke="red" points="0,-228.5 0,-247.5 118,-247.5 118,-228.5 0,-228.5"/>
<text text-anchor="middle" x="59" y="-235.5" font-family="Helvetica,sans-Serif" font-size="10.00">decodeigsSSR_type2</text>
</a>
</g>
</g>
<!-- Node1&#45;&gt;Node6 -->
<g id="edge2" class="edge">
<title>Node1&#45;&gt;Node6</title>
<path fill="none" stroke="midnightblue" d="M205.08,-152.73C188.4,-168.63 153.1,-200.25 118,-219 111.08,-222.69 103.32,-225.84 95.78,-228.45"/>
</g>
<!-- Node7 -->
<g id="node4" class="node">
<title>Node7</title>
<g id="a_node4"><a xlink:href="prototypeIgsSSRDecode_8cpp.html#a3e3cd021dda475685751a829bc5d7283" target="_top" xlink:title=" ">
<polygon fill="white" stroke="red" points="0,-190.5 0,-209.5 118,-209.5 118,-190.5 0,-190.5"/>
<text text-anchor="middle" x="59" y="-197.5" font-family="Helvetica,sans-Serif" font-size="10.00">decodeigsSSR_type6</text>
</a>
</g>
</g>
<!-- Node1&#45;&gt;Node7 -->
<g id="edge3" class="edge">
<title>Node1&#45;&gt;Node7</title>
<path fill="none" stroke="midnightblue" d="M191.62,-152.59C172.06,-160.51 143.36,-171.89 118,-181 109.03,-184.22 99.19,-187.53 90.21,-190.46"/>
</g>
<!-- Node8 -->
<g id="node5" class="node">
<title>Node8</title>
<g id="a_node5"><a xlink:href="prototypeIgsSSRDecode_8cpp.html#a763dadb437e94655b4c4ab05830c7efa" target="_top" xlink:title=" ">
<polygon fill="white" stroke="red" points="0,-152.5 0,-171.5 118,-171.5 118,-152.5 0,-152.5"/>
<text text-anchor="middle" x="59" y="-159.5" font-family="Helvetica,sans-Serif" font-size="10.00">decodeigsSSR_type3</text>
</a>
</g>
</g>
<!-- Node1&#45;&gt;Node8 -->
<g id="edge4" class="edge">
<title>Node1&#45;&gt;Node8</title>
<path fill="none" stroke="midnightblue" d="M153.74,-150.51C141.98,-151.95 129.69,-153.46 118.04,-154.89"/>
</g>
<!-- Node9 -->
<g id="node6" class="node">
<title>Node9</title>
<g id="a_node6"><a xlink:href="prototypeIgsSSRDecode_8cpp.html#ab6cefeb3a0e33cc2695ae53181b52644" target="_top" xlink:title=" ">
<polygon fill="white" stroke="red" points="0,-114.5 0,-133.5 118,-133.5 118,-114.5 0,-114.5"/>
<text text-anchor="middle" x="59" y="-121.5" font-family="Helvetica,sans-Serif" font-size="10.00">decodeigsSSR_type4</text>
</a>
</g>
</g>
<!-- Node1&#45;&gt;Node9 -->
<g id="edge5" class="edge">
<title>Node1&#45;&gt;Node9</title>
<path fill="none" stroke="midnightblue" d="M153.74,-135.49C141.98,-134.05 129.69,-132.54 118.04,-131.11"/>
</g>
<!-- Node10 -->
<g id="node7" class="node">
<title>Node10</title>
<g id="a_node7"><a xlink:href="prototypeIgsSSRDecode_8cpp.html#a5620a5359184703cf42d5a08c894b2e5" target="_top" xlink:title=" ">
<polygon fill="white" stroke="red" points="0,-76.5 0,-95.5 118,-95.5 118,-76.5 0,-76.5"/>
<text text-anchor="middle" x="59" y="-83.5" font-family="Helvetica,sans-Serif" font-size="10.00">decodeigsSSR_type5</text>
</a>
</g>
</g>
<!-- Node1&#45;&gt;Node10 -->
<g id="edge6" class="edge">
<title>Node1&#45;&gt;Node10</title>
<path fill="none" stroke="midnightblue" d="M191.62,-133.41C172.06,-125.49 143.36,-114.11 118,-105 109.03,-101.78 99.19,-98.47 90.21,-95.54"/>
</g>
<!-- Node11 -->
<g id="node8" class="node">
<title>Node11</title>
<g id="a_node8"><a xlink:href="prototypeIgsSSRDecode_8cpp.html#a52483b82b940e41a9ecf30d3f7ac5609" target="_top" xlink:title=" ">
<polygon fill="white" stroke="red" points="0,-38.5 0,-57.5 118,-57.5 118,-38.5 0,-38.5"/>
<text text-anchor="middle" x="59" y="-45.5" font-family="Helvetica,sans-Serif" font-size="10.00">decodeigsSSR_type7</text>
</a>
</g>
</g>
<!-- Node1&#45;&gt;Node11 -->
<g id="edge7" class="edge">
<title>Node1&#45;&gt;Node11</title>
<path fill="none" stroke="midnightblue" d="M205.08,-133.27C188.4,-117.37 153.1,-85.75 118,-67 111.08,-63.31 103.32,-60.16 95.78,-57.55"/>
</g>
<!-- Node12 -->
<g id="node9" class="node">
<title>Node12</title>
<g id="a_node9"><a xlink:href="prototypeIgsSSRDecode_8cpp.html#abb805948265150eec95f44b3f7d6ad35" target="_top" xlink:title=" ">
<polygon fill="white" stroke="red" points="0,-0.5 0,-19.5 118,-19.5 118,-0.5 0,-0.5"/>
<text text-anchor="middle" x="59" y="-7.5" font-family="Helvetica,sans-Serif" font-size="10.00">decodeigsSSR_type8</text>
</a>
</g>
</g>
<!-- Node1&#45;&gt;Node12 -->
<g id="edge8" class="edge">
<title>Node1&#45;&gt;Node12</title>
<path fill="none" stroke="midnightblue" d="M209.3,-133.18C196.08,-111.25 161.15,-57.97 118,-29 112.28,-25.16 105.73,-22.05 99.13,-19.54"/>
</g>
</g>
</svg>
