<?xml version="1.0" encoding="UTF-8" standalone="no"?>
<!DOCTYPE svg PUBLIC "-//W3C//DTD SVG 1.1//EN"
 "http://www.w3.org/Graphics/SVG/1.1/DTD/svg11.dtd">
<!-- Generated by graphviz version 2.43.0 (0)
 -->
<!-- Title: decodeSSR_header Pages: 1 -->
<svg width="283pt" height="408pt"
 viewBox="0.00 0.00 283.00 408.00" xmlns="http://www.w3.org/2000/svg" xmlns:xlink="http://www.w3.org/1999/xlink">
<g id="graph0" class="graph" transform="scale(1 1) rotate(0) translate(4 404)">
<title>decodeSSR_header</title>
<polygon fill="white" stroke="transparent" points="-4,4 -4,-404 279,-404 279,4 -4,4"/>
<!-- Node1 -->
<g id="node1" class="node">
<title>Node1</title>
<g id="a_node1"><a xlink:title=" ">
<polygon fill="#bfbfbf" stroke="black" points="165,-190.5 165,-209.5 275,-209.5 275,-190.5 165,-190.5"/>
<text text-anchor="middle" x="220" y="-197.5" font-family="Helvetica,sans-Serif" font-size="10.00">decodeSSR_header</text>
</a>
</g>
</g>
<!-- Node2 -->
<g id="node2" class="node">
<title>Node2</title>
<g id="a_node2"><a xlink:href="prototypeCmpSSRDecode_8cpp.html#ad787861f672809e001877660a38f95c1" target="_top" xlink:title="Compact SSR message type 1: satellite/code mask.">
<polygon fill="white" stroke="red" points="13,-380.5 13,-399.5 116,-399.5 116,-380.5 13,-380.5"/>
<text text-anchor="middle" x="64.5" y="-387.5" font-family="Helvetica,sans-Serif" font-size="10.00">decodeSSR_mask</text>
</a>
</g>
</g>
<!-- Node1&#45;&gt;Node2 -->
<g id="edge1" class="edge">
<title>Node1&#45;&gt;Node2</title>
<path fill="none" stroke="midnightblue" d="M214.02,-219.94C204.06,-255.61 178.32,-330.41 129,-371 124.29,-374.88 118.81,-377.96 113.08,-380.42"/>
<polygon fill="midnightblue" stroke="midnightblue" points="217.52,-220.39 216.7,-209.82 210.75,-218.59 217.52,-220.39"/>
</g>
<!-- Node6 -->
<g id="node3" class="node">
<title>Node6</title>
<g id="a_node3"><a xlink:href="prototypeCmpSSRDecode_8cpp.html#a80ff502a5d165aeb14577439f8ec63fe" target="_top" xlink:title="Compact SSR message type 5: global satellite phase biases.">
<polygon fill="white" stroke="red" points="2,-342.5 2,-361.5 127,-361.5 127,-342.5 2,-342.5"/>
<text text-anchor="middle" x="64.5" y="-349.5" font-family="Helvetica,sans-Serif" font-size="10.00">decodeSSR_phas_bias</text>
</a>
</g>
</g>
<!-- Node1&#45;&gt;Node6 -->
<g id="edge2" class="edge">
<title>Node1&#45;&gt;Node6</title>
<path fill="none" stroke="midnightblue" d="M211.16,-219.11C198.31,-248.07 170.03,-302.87 129,-333 123.71,-336.88 117.63,-339.98 111.37,-342.44"/>
<polygon fill="midnightblue" stroke="midnightblue" points="214.47,-220.28 215.19,-209.71 208.04,-217.52 214.47,-220.28"/>
</g>
<!-- Node7 -->
<g id="node4" class="node">
<title>Node7</title>
<g id="a_node4"><a xlink:href="prototypeCmpSSRDecode_8cpp.html#ae27b0fff5c7ec85e5baf50ffa6c174dc" target="_top" xlink:title="Compact SSR message type 2: global satellite orbits.">
<polygon fill="white" stroke="red" points="15.5,-304.5 15.5,-323.5 113.5,-323.5 113.5,-304.5 15.5,-304.5"/>
<text text-anchor="middle" x="64.5" y="-311.5" font-family="Helvetica,sans-Serif" font-size="10.00">decodeSSR_orbit</text>
</a>
</g>
</g>
<!-- Node1&#45;&gt;Node7 -->
<g id="edge3" class="edge">
<title>Node1&#45;&gt;Node7</title>
<path fill="none" stroke="midnightblue" d="M206.66,-217.87C191,-239.25 162.02,-274.69 129,-295 122.73,-298.86 115.62,-301.98 108.49,-304.48"/>
<polygon fill="midnightblue" stroke="midnightblue" points="209.57,-219.83 212.53,-209.66 203.87,-215.76 209.57,-219.83"/>
</g>
<!-- Node8 -->
<g id="node5" class="node">
<title>Node8</title>
<g id="a_node5"><a xlink:href="prototypeCmpSSRDecode_8cpp.html#addf598cda6ebf1b393189148608056e1" target="_top" xlink:title="Compact SSR message type 3: global satellite clock offsets.">
<polygon fill="white" stroke="red" points="14,-266.5 14,-285.5 115,-285.5 115,-266.5 14,-266.5"/>
<text text-anchor="middle" x="64.5" y="-273.5" font-family="Helvetica,sans-Serif" font-size="10.00">decodeSSR_clock</text>
</a>
</g>
</g>
<!-- Node1&#45;&gt;Node8 -->
<g id="edge4" class="edge">
<title>Node1&#45;&gt;Node8</title>
<path fill="none" stroke="midnightblue" d="M197.82,-215.77C180.16,-228.33 153.94,-245.63 129,-257 121.04,-260.63 112.21,-263.78 103.73,-266.41"/>
<polygon fill="midnightblue" stroke="midnightblue" points="200.18,-218.39 206.23,-209.69 196.07,-212.71 200.18,-218.39"/>
</g>
<!-- Node9 -->
<g id="node6" class="node">
<title>Node9</title>
<g id="a_node6"><a xlink:href="prototypeCmpSSRDecode_8cpp.html#aece4231cd6215933cb67f695d1ef9e48" target="_top" xlink:title="Compact SSR message type 11: regional satellite orbits and clock offsets.">
<polygon fill="white" stroke="red" points="2.5,-228.5 2.5,-247.5 126.5,-247.5 126.5,-228.5 2.5,-228.5"/>
<text text-anchor="middle" x="64.5" y="-235.5" font-family="Helvetica,sans-Serif" font-size="10.00">decodeSSR_combined</text>
</a>
</g>
</g>
<!-- Node1&#45;&gt;Node9 -->
<g id="edge5" class="edge">
<title>Node1&#45;&gt;Node9</title>
<path fill="none" stroke="midnightblue" d="M170.36,-212.04C148.92,-217.35 124.08,-223.5 103.96,-228.48"/>
<polygon fill="midnightblue" stroke="midnightblue" points="171.4,-215.39 180.27,-209.59 169.72,-208.59 171.4,-215.39"/>
</g>
<!-- Node10 -->
<g id="node7" class="node">
<title>Node10</title>
<g id="a_node7"><a xlink:href="prototypeCmpSSRDecode_8cpp.html#a3b63ded7b1ecb5ff60f33321c24ea824" target="_top" xlink:title="Compact SSR message type 4: global satellite code biases.">
<polygon fill="white" stroke="red" points="2,-190.5 2,-209.5 127,-209.5 127,-190.5 2,-190.5"/>
<text text-anchor="middle" x="64.5" y="-197.5" font-family="Helvetica,sans-Serif" font-size="10.00">decodeSSR_code_bias</text>
</a>
</g>
</g>
<!-- Node1&#45;&gt;Node10 -->
<g id="edge6" class="edge">
<title>Node1&#45;&gt;Node10</title>
<path fill="none" stroke="midnightblue" d="M154.74,-200C145.64,-200 136.3,-200 127.25,-200"/>
<polygon fill="midnightblue" stroke="midnightblue" points="154.88,-203.5 164.88,-200 154.88,-196.5 154.88,-203.5"/>
</g>
<!-- Node11 -->
<g id="node8" class="node">
<title>Node11</title>
<g id="a_node8"><a xlink:href="prototypeCmpSSRDecode_8cpp.html#a3aa3657a509836d3dcba87d23bf860f5" target="_top" xlink:title="User Range Accuracy.">
<polygon fill="white" stroke="red" points="16,-152.5 16,-171.5 113,-171.5 113,-152.5 16,-152.5"/>
<text text-anchor="middle" x="64.5" y="-159.5" font-family="Helvetica,sans-Serif" font-size="10.00">decodeSSR_URA</text>
</a>
</g>
</g>
<!-- Node1&#45;&gt;Node11 -->
<g id="edge7" class="edge">
<title>Node1&#45;&gt;Node11</title>
<path fill="none" stroke="midnightblue" d="M170.36,-187.96C148.92,-182.65 124.08,-176.5 103.96,-171.52"/>
<polygon fill="midnightblue" stroke="midnightblue" points="169.72,-191.41 180.27,-190.41 171.4,-184.61 169.72,-191.41"/>
</g>
<!-- Node12 -->
<g id="node9" class="node">
<title>Node12</title>
<g id="a_node9"><a xlink:href="prototypeCmpSSRDecode_8cpp.html#a3faf903027244bcfe5b7368a2fba6eb6" target="_top" xlink:title="Combined code and phase bias (with potential regional biases)">
<polygon fill="white" stroke="red" points="0.5,-114.5 0.5,-133.5 128.5,-133.5 128.5,-114.5 0.5,-114.5"/>
<text text-anchor="middle" x="64.5" y="-121.5" font-family="Helvetica,sans-Serif" font-size="10.00">decodeSSR_comb_bias</text>
</a>
</g>
</g>
<!-- Node1&#45;&gt;Node12 -->
<g id="edge8" class="edge">
<title>Node1&#45;&gt;Node12</title>
<path fill="none" stroke="midnightblue" d="M197.82,-184.23C180.16,-171.67 153.94,-154.37 129,-143 121.04,-139.37 112.21,-136.22 103.73,-133.59"/>
<polygon fill="midnightblue" stroke="midnightblue" points="196.07,-187.29 206.23,-190.31 200.18,-181.61 196.07,-187.29"/>
</g>
<!-- Node13 -->
<g id="node10" class="node">
<title>Node13</title>
<g id="a_node10"><a xlink:href="prototypeCmpSSRDecode_8cpp.html#a8c718e8df7b25a5dfa2497870e53afd2" target="_top" xlink:title="Compact (polynomial based) salnt TEC maps.">
<polygon fill="white" stroke="red" points="2.5,-76.5 2.5,-95.5 126.5,-95.5 126.5,-76.5 2.5,-76.5"/>
<text text-anchor="middle" x="64.5" y="-83.5" font-family="Helvetica,sans-Serif" font-size="10.00">decodeSSR_slant_TEC</text>
</a>
</g>
</g>
<!-- Node1&#45;&gt;Node13 -->
<g id="edge9" class="edge">
<title>Node1&#45;&gt;Node13</title>
<path fill="none" stroke="midnightblue" d="M206.66,-182.13C191,-160.75 162.02,-125.31 129,-105 122.73,-101.14 115.62,-98.02 108.49,-95.52"/>
<polygon fill="midnightblue" stroke="midnightblue" points="203.87,-184.24 212.53,-190.34 209.57,-180.17 203.87,-184.24"/>
</g>
<!-- Node14 -->
<g id="node11" class="node">
<title>Node14</title>
<g id="a_node11"><a xlink:href="prototypeCmpSSRDecode_8cpp.html#a50839e45f19f77e5908bfd1c9e038846" target="_top" xlink:title="Grid based Ionosphere and troposphere corrections.">
<polygon fill="white" stroke="red" points="4,-38.5 4,-57.5 125,-57.5 125,-38.5 4,-38.5"/>
<text text-anchor="middle" x="64.5" y="-45.5" font-family="Helvetica,sans-Serif" font-size="10.00">decodeSSR_grid_ATM</text>
</a>
</g>
</g>
<!-- Node1&#45;&gt;Node14 -->
<g id="edge10" class="edge">
<title>Node1&#45;&gt;Node14</title>
<path fill="none" stroke="midnightblue" d="M211.16,-180.89C198.31,-151.93 170.03,-97.13 129,-67 123.71,-63.12 117.63,-60.02 111.37,-57.56"/>
<polygon fill="midnightblue" stroke="midnightblue" points="208.04,-182.48 215.19,-190.29 214.47,-179.72 208.04,-182.48"/>
</g>
<!-- Node15 -->
<g id="node12" class="node">
<title>Node15</title>
<g id="a_node12"><a xlink:href="prototypeCmpSSRDecode_8cpp.html#abf7b71d9ca319924c1f90e0c9041eab2" target="_top" xlink:title="Compact (polynomial based) atmospheric corrections.">
<polygon fill="white" stroke="red" points="0,-0.5 0,-19.5 129,-19.5 129,-0.5 0,-0.5"/>
<text text-anchor="middle" x="64.5" y="-7.5" font-family="Helvetica,sans-Serif" font-size="10.00">decodeSSR_comp_ATM</text>
</a>
</g>
</g>
<!-- Node1&#45;&gt;Node15 -->
<g id="edge11" class="edge">
<title>Node1&#45;&gt;Node15</title>
<path fill="none" stroke="midnightblue" d="M214.02,-180.06C204.06,-144.39 178.32,-69.59 129,-29 124.29,-25.12 118.81,-22.04 113.08,-19.58"/>
<polygon fill="midnightblue" stroke="midnightblue" points="210.75,-181.41 216.7,-190.18 217.52,-179.61 210.75,-181.41"/>
</g>
</g>
</svg>
