<?xml version="1.0" encoding="UTF-8" standalone="no"?>
<!DOCTYPE svg PUBLIC "-//W3C//DTD SVG 1.1//EN"
 "http://www.w3.org/Graphics/SVG/1.1/DTD/svg11.dtd">
<!-- Generated by graphviz version 2.43.0 (0)
 -->
<!-- Title: decodeSSR_slant_TEC Pages: 1 -->
<svg width="379pt" height="180pt"
 viewBox="0.00 0.00 379.00 180.00" xmlns="http://www.w3.org/2000/svg" xmlns:xlink="http://www.w3.org/1999/xlink">
<g id="graph0" class="graph" transform="scale(1 1) rotate(0) translate(4 176)">
<title>decodeSSR_slant_TEC</title>
<polygon fill="white" stroke="transparent" points="-4,4 -4,-176 375,-176 375,4 -4,4"/>
<!-- Node1 -->
<g id="node1" class="node">
<title>Node1</title>
<g id="a_node1"><a xlink:title="Compact (polynomial based) salnt TEC maps.">
<polygon fill="#bfbfbf" stroke="black" points="0,-76.5 0,-95.5 124,-95.5 124,-76.5 0,-76.5"/>
<text text-anchor="middle" x="62" y="-83.5" font-family="Helvetica,sans-Serif" font-size="10.00">decodeSSR_slant_TEC</text>
</a>
</g>
</g>
<!-- Node2 -->
<g id="node2" class="node">
<title>Node2</title>
<g id="a_node2"><a xlink:href="prototypeCmpSSRDecode_8cpp.html#a282774baece273841d915eca27bcc898" target="_top" xlink:title=" ">
<polygon fill="white" stroke="black" points="160,-152.5 160,-171.5 270,-171.5 270,-152.5 160,-152.5"/>
<text text-anchor="middle" x="215" y="-159.5" font-family="Helvetica,sans-Serif" font-size="10.00">decodeSSR_header</text>
</a>
</g>
</g>
<!-- Node1&#45;&gt;Node2 -->
<g id="edge1" class="edge">
<title>Node1&#45;&gt;Node2</title>
<path fill="none" stroke="midnightblue" d="M77.31,-95.6C95.83,-107.74 129.35,-128.77 160,-143 167.48,-146.47 175.79,-149.69 183.6,-152.46"/>
</g>
<!-- Node3 -->
<g id="node3" class="node">
<title>Node3</title>
<g id="a_node3"><a xlink:href="rtcmDecoder_8cpp.html#aaa6463f592ed6478626814466d3d02a5" target="_top" xlink:title="increasingly extract unsigned bits from byte data">
<polygon fill="white" stroke="red" points="306,-114.5 306,-133.5 371,-133.5 371,-114.5 306,-114.5"/>
<text text-anchor="middle" x="338.5" y="-121.5" font-family="Helvetica,sans-Serif" font-size="10.00">getbituInc</text>
</a>
</g>
</g>
<!-- Node1&#45;&gt;Node3 -->
<g id="edge4" class="edge">
<title>Node1&#45;&gt;Node3</title>
<path fill="none" stroke="midnightblue" d="M124.09,-88.67C165.52,-91.2 221.38,-96 270,-105 282.69,-107.35 296.44,-111.01 308.2,-114.49"/>
</g>
<!-- Node5 -->
<g id="node4" class="node">
<title>Node5</title>
<g id="a_node4"><a xlink:href="trace_8cpp.html#ae00e6addd3bdf3a7fd41a254eb9aec89" target="_top" xlink:title=" ">
<polygon fill="white" stroke="black" points="179.5,-114.5 179.5,-133.5 250.5,-133.5 250.5,-114.5 179.5,-114.5"/>
<text text-anchor="middle" x="215" y="-121.5" font-family="Helvetica,sans-Serif" font-size="10.00">tracepdeex</text>
</a>
</g>
</g>
<!-- Node1&#45;&gt;Node5 -->
<g id="edge3" class="edge">
<title>Node1&#45;&gt;Node5</title>
<path fill="none" stroke="midnightblue" d="M101.1,-95.59C125.13,-101.64 155.92,-109.38 179.27,-115.26"/>
</g>
<!-- Node6 -->
<g id="node5" class="node">
<title>Node6</title>
<g id="a_node5"><a xlink:href="prototypeCmpSSRDecode_8cpp.html#abc4a6fa9665cfa55e61f706d4d8c5c63" target="_top" xlink:title=" ">
<polygon fill="white" stroke="black" points="184.5,-38.5 184.5,-57.5 245.5,-57.5 245.5,-38.5 184.5,-38.5"/>
<text text-anchor="middle" x="215" y="-45.5" font-family="Helvetica,sans-Serif" font-size="10.00">toh2time</text>
</a>
</g>
</g>
<!-- Node1&#45;&gt;Node6 -->
<g id="edge5" class="edge">
<title>Node1&#45;&gt;Node6</title>
<path fill="none" stroke="midnightblue" d="M101.1,-76.41C126.96,-69.9 160.66,-61.42 184.48,-55.43"/>
</g>
<!-- Node7 -->
<g id="node6" class="node">
<title>Node7</title>
<g id="a_node6"><a xlink:href="rtcmDecoder_8cpp.html#a8f81fd7eaa74dfc180469d0accafb183" target="_top" xlink:title="increasingly extract signed bits from byte data">
<polygon fill="white" stroke="red" points="182.5,-0.5 182.5,-19.5 247.5,-19.5 247.5,-0.5 182.5,-0.5"/>
<text text-anchor="middle" x="215" y="-7.5" font-family="Helvetica,sans-Serif" font-size="10.00">getbitsInc</text>
</a>
</g>
</g>
<!-- Node1&#45;&gt;Node7 -->
<g id="edge6" class="edge">
<title>Node1&#45;&gt;Node7</title>
<path fill="none" stroke="midnightblue" d="M77.31,-76.4C95.83,-64.26 129.35,-43.23 160,-29 167.48,-25.53 175.79,-22.31 183.6,-19.54"/>
</g>
<!-- Node2&#45;&gt;Node3 -->
<g id="edge2" class="edge">
<title>Node2&#45;&gt;Node3</title>
<path fill="none" stroke="midnightblue" d="M246.66,-152.41C265.08,-146.65 288.43,-139.35 306.85,-133.59"/>
</g>
</g>
</svg>
