<?xml version="1.0" encoding="UTF-8" standalone="no"?>
<!DOCTYPE svg PUBLIC "-//W3C//DTD SVG 1.1//EN"
 "http://www.w3.org/Graphics/SVG/1.1/DTD/svg11.dtd">
<!-- Generated by graphviz version 2.43.0 (0)
 -->
<!-- Title: decodeSSR_header Pages: 1 -->
<svg width="219pt" height="66pt"
 viewBox="0.00 0.00 219.00 66.00" xmlns="http://www.w3.org/2000/svg" xmlns:xlink="http://www.w3.org/1999/xlink">
<g id="graph0" class="graph" transform="scale(1 1) rotate(0) translate(4 62)">
<title>decodeSSR_header</title>
<polygon fill="white" stroke="transparent" points="-4,4 -4,-62 215,-62 215,4 -4,4"/>
<!-- Node1 -->
<g id="node1" class="node">
<title>Node1</title>
<g id="a_node1"><a xlink:title=" ">
<polygon fill="#bfbfbf" stroke="black" points="0,-19.5 0,-38.5 110,-38.5 110,-19.5 0,-19.5"/>
<text text-anchor="middle" x="55" y="-26.5" font-family="Helvetica,sans-Serif" font-size="10.00">decodeSSR_header</text>
</a>
</g>
</g>
<!-- Node2 -->
<g id="node2" class="node">
<title>Node2</title>
<g id="a_node2"><a xlink:href="rtcmDecoder_8cpp.html#aaa6463f592ed6478626814466d3d02a5" target="_top" xlink:title="increasingly extract unsigned bits from byte data">
<polygon fill="white" stroke="red" points="146,-38.5 146,-57.5 211,-57.5 211,-38.5 146,-38.5"/>
<text text-anchor="middle" x="178.5" y="-45.5" font-family="Helvetica,sans-Serif" font-size="10.00">getbituInc</text>
</a>
</g>
</g>
<!-- Node1&#45;&gt;Node2 -->
<g id="edge1" class="edge">
<title>Node1&#45;&gt;Node2</title>
<path fill="none" stroke="midnightblue" d="M110.35,-37.5C118.88,-38.83 127.58,-40.19 135.77,-41.47"/>
<polygon fill="midnightblue" stroke="midnightblue" points="135.39,-44.96 145.82,-43.05 136.48,-38.04 135.39,-44.96"/>
</g>
<!-- Node4 -->
<g id="node3" class="node">
<title>Node4</title>
<g id="a_node3"><a xlink:href="prototypeCmpSSRDecode_8cpp.html#abc4a6fa9665cfa55e61f706d4d8c5c63" target="_top" xlink:title=" ">
<polygon fill="white" stroke="black" points="148,-0.5 148,-19.5 209,-19.5 209,-0.5 148,-0.5"/>
<text text-anchor="middle" x="178.5" y="-7.5" font-family="Helvetica,sans-Serif" font-size="10.00">toh2time</text>
</a>
</g>
</g>
<!-- Node1&#45;&gt;Node4 -->
<g id="edge2" class="edge">
<title>Node1&#45;&gt;Node4</title>
<path fill="none" stroke="midnightblue" d="M110.35,-20.5C119.62,-19.05 129.08,-17.57 137.87,-16.2"/>
<polygon fill="midnightblue" stroke="midnightblue" points="138.49,-19.64 147.83,-14.64 137.41,-12.73 138.49,-19.64"/>
</g>
</g>
</svg>
