<?xml version="1.0" encoding="UTF-8" standalone="no"?>
<!DOCTYPE svg PUBLIC "-//W3C//DTD SVG 1.1//EN"
 "http://www.w3.org/Graphics/SVG/1.1/DTD/svg11.dtd">
<!-- Generated by graphviz version 2.43.0 (0)
 -->
<!-- Title: copySSRCorrections Pages: 1 -->
<svg width="287pt" height="370pt"
 viewBox="0.00 0.00 287.00 370.00" xmlns="http://www.w3.org/2000/svg" xmlns:xlink="http://www.w3.org/1999/xlink">
<g id="graph0" class="graph" transform="scale(1 1) rotate(0) translate(4 366)">
<title>copySSRCorrections</title>
<polygon fill="white" stroke="transparent" points="-4,4 -4,-366 283,-366 283,4 -4,4"/>
<!-- Node1 -->
<g id="node1" class="node">
<title>Node1</title>
<g id="a_node1"><a xlink:title=" ">
<polygon fill="#bfbfbf" stroke="black" points="165,-171.5 165,-190.5 279,-190.5 279,-171.5 165,-171.5"/>
<text text-anchor="middle" x="222" y="-178.5" font-family="Helvetica,sans-Serif" font-size="10.00">copySSRCorrections</text>
</a>
</g>
</g>
<!-- Node2 -->
<g id="node2" class="node">
<title>Node2</title>
<g id="a_node2"><a xlink:href="prototypeCmpSSRDecode_8cpp.html#ae27b0fff5c7ec85e5baf50ffa6c174dc" target="_top" xlink:title="Compact SSR message type 2: global satellite orbits.">
<polygon fill="white" stroke="red" points="15.5,-342.5 15.5,-361.5 113.5,-361.5 113.5,-342.5 15.5,-342.5"/>
<text text-anchor="middle" x="64.5" y="-349.5" font-family="Helvetica,sans-Serif" font-size="10.00">decodeSSR_orbit</text>
</a>
</g>
</g>
<!-- Node1&#45;&gt;Node2 -->
<g id="edge1" class="edge">
<title>Node1&#45;&gt;Node2</title>
<path fill="none" stroke="midnightblue" d="M214.47,-200.55C202.64,-232.95 174.59,-297.72 129,-333 123.99,-336.87 118.21,-339.96 112.21,-342.42"/>
<polygon fill="midnightblue" stroke="midnightblue" points="217.85,-201.48 217.86,-190.89 211.25,-199.16 217.85,-201.48"/>
</g>
<!-- Node6 -->
<g id="node3" class="node">
<title>Node6</title>
<g id="a_node3"><a xlink:href="prototypeCmpSSRDecode_8cpp.html#addf598cda6ebf1b393189148608056e1" target="_top" xlink:title="Compact SSR message type 3: global satellite clock offsets.">
<polygon fill="white" stroke="red" points="14,-304.5 14,-323.5 115,-323.5 115,-304.5 14,-304.5"/>
<text text-anchor="middle" x="64.5" y="-311.5" font-family="Helvetica,sans-Serif" font-size="10.00">decodeSSR_clock</text>
</a>
</g>
</g>
<!-- Node1&#45;&gt;Node6 -->
<g id="edge2" class="edge">
<title>Node1&#45;&gt;Node6</title>
<path fill="none" stroke="midnightblue" d="M210.91,-199.51C196.2,-224.79 166.47,-269.84 129,-295 123.27,-298.85 116.73,-301.94 110.09,-304.41"/>
<polygon fill="midnightblue" stroke="midnightblue" points="214.09,-201.01 215.96,-190.58 207.99,-197.56 214.09,-201.01"/>
</g>
<!-- Node7 -->
<g id="node4" class="node">
<title>Node7</title>
<g id="a_node4"><a xlink:href="prototypeCmpSSRDecode_8cpp.html#aece4231cd6215933cb67f695d1ef9e48" target="_top" xlink:title="Compact SSR message type 11: regional satellite orbits and clock offsets.">
<polygon fill="white" stroke="red" points="2.5,-266.5 2.5,-285.5 126.5,-285.5 126.5,-266.5 2.5,-266.5"/>
<text text-anchor="middle" x="64.5" y="-273.5" font-family="Helvetica,sans-Serif" font-size="10.00">decodeSSR_combined</text>
</a>
</g>
</g>
<!-- Node1&#45;&gt;Node7 -->
<g id="edge3" class="edge">
<title>Node1&#45;&gt;Node7</title>
<path fill="none" stroke="midnightblue" d="M204.92,-197.77C187.64,-214.9 158.63,-241.17 129,-257 121.89,-260.8 113.93,-263.94 106.1,-266.5"/>
<polygon fill="midnightblue" stroke="midnightblue" points="207.46,-200.18 212,-190.61 202.48,-195.26 207.46,-200.18"/>
</g>
<!-- Node8 -->
<g id="node5" class="node">
<title>Node8</title>
<g id="a_node5"><a xlink:href="prototypeCmpSSRDecode_8cpp.html#a3b63ded7b1ecb5ff60f33321c24ea824" target="_top" xlink:title="Compact SSR message type 4: global satellite code biases.">
<polygon fill="white" stroke="red" points="2,-228.5 2,-247.5 127,-247.5 127,-228.5 2,-228.5"/>
<text text-anchor="middle" x="64.5" y="-235.5" font-family="Helvetica,sans-Serif" font-size="10.00">decodeSSR_code_bias</text>
</a>
</g>
</g>
<!-- Node1&#45;&gt;Node8 -->
<g id="edge4" class="edge">
<title>Node1&#45;&gt;Node8</title>
<path fill="none" stroke="midnightblue" d="M190.39,-194.56C172.63,-202.19 149.75,-211.63 129,-219 119.57,-222.35 109.21,-225.62 99.65,-228.47"/>
<polygon fill="midnightblue" stroke="midnightblue" points="191.89,-197.72 199.68,-190.53 189.11,-191.29 191.89,-197.72"/>
</g>
<!-- Node9 -->
<g id="node6" class="node">
<title>Node9</title>
<g id="a_node6"><a xlink:href="prototypeCmpSSRDecode_8cpp.html#a3aa3657a509836d3dcba87d23bf860f5" target="_top" xlink:title="User Range Accuracy.">
<polygon fill="white" stroke="red" points="16,-190.5 16,-209.5 113,-209.5 113,-190.5 16,-190.5"/>
<text text-anchor="middle" x="64.5" y="-197.5" font-family="Helvetica,sans-Serif" font-size="10.00">decodeSSR_URA</text>
</a>
</g>
</g>
<!-- Node1&#45;&gt;Node9 -->
<g id="edge5" class="edge">
<title>Node1&#45;&gt;Node9</title>
<path fill="none" stroke="midnightblue" d="M154.78,-189.09C140.77,-190.8 126.25,-192.58 113.09,-194.18"/>
<polygon fill="midnightblue" stroke="midnightblue" points="155.36,-192.55 164.86,-187.86 154.51,-185.6 155.36,-192.55"/>
</g>
<!-- Node10 -->
<g id="node7" class="node">
<title>Node10</title>
<g id="a_node7"><a xlink:href="prototypeCmpSSRDecode_8cpp.html#a80ff502a5d165aeb14577439f8ec63fe" target="_top" xlink:title="Compact SSR message type 5: global satellite phase biases.">
<polygon fill="white" stroke="red" points="2,-152.5 2,-171.5 127,-171.5 127,-152.5 2,-152.5"/>
<text text-anchor="middle" x="64.5" y="-159.5" font-family="Helvetica,sans-Serif" font-size="10.00">decodeSSR_phas_bias</text>
</a>
</g>
</g>
<!-- Node1&#45;&gt;Node10 -->
<g id="edge6" class="edge">
<title>Node1&#45;&gt;Node10</title>
<path fill="none" stroke="midnightblue" d="M154.65,-172.89C145.5,-171.78 136.14,-170.63 127.08,-169.52"/>
<polygon fill="midnightblue" stroke="midnightblue" points="154.51,-176.4 164.86,-174.14 155.36,-169.45 154.51,-176.4"/>
</g>
<!-- Node11 -->
<g id="node8" class="node">
<title>Node11</title>
<g id="a_node8"><a xlink:href="prototypeCmpSSRDecode_8cpp.html#a3faf903027244bcfe5b7368a2fba6eb6" target="_top" xlink:title="Combined code and phase bias (with potential regional biases)">
<polygon fill="white" stroke="red" points="0.5,-114.5 0.5,-133.5 128.5,-133.5 128.5,-114.5 0.5,-114.5"/>
<text text-anchor="middle" x="64.5" y="-121.5" font-family="Helvetica,sans-Serif" font-size="10.00">decodeSSR_comb_bias</text>
</a>
</g>
</g>
<!-- Node1&#45;&gt;Node11 -->
<g id="edge7" class="edge">
<title>Node1&#45;&gt;Node11</title>
<path fill="none" stroke="midnightblue" d="M190.39,-167.44C172.63,-159.81 149.75,-150.37 129,-143 119.57,-139.65 109.21,-136.38 99.65,-133.53"/>
<polygon fill="midnightblue" stroke="midnightblue" points="189.11,-170.71 199.68,-171.47 191.89,-164.28 189.11,-170.71"/>
</g>
<!-- Node12 -->
<g id="node9" class="node">
<title>Node12</title>
<g id="a_node9"><a xlink:href="prototypeCmpSSRDecode_8cpp.html#a8c718e8df7b25a5dfa2497870e53afd2" target="_top" xlink:title="Compact (polynomial based) salnt TEC maps.">
<polygon fill="white" stroke="red" points="2.5,-76.5 2.5,-95.5 126.5,-95.5 126.5,-76.5 2.5,-76.5"/>
<text text-anchor="middle" x="64.5" y="-83.5" font-family="Helvetica,sans-Serif" font-size="10.00">decodeSSR_slant_TEC</text>
</a>
</g>
</g>
<!-- Node1&#45;&gt;Node12 -->
<g id="edge8" class="edge">
<title>Node1&#45;&gt;Node12</title>
<path fill="none" stroke="midnightblue" d="M204.92,-164.23C187.64,-147.1 158.63,-120.83 129,-105 121.89,-101.2 113.93,-98.06 106.1,-95.5"/>
<polygon fill="midnightblue" stroke="midnightblue" points="202.48,-166.74 212,-171.39 207.46,-161.82 202.48,-166.74"/>
</g>
<!-- Node13 -->
<g id="node10" class="node">
<title>Node13</title>
<g id="a_node10"><a xlink:href="prototypeCmpSSRDecode_8cpp.html#a50839e45f19f77e5908bfd1c9e038846" target="_top" xlink:title="Grid based Ionosphere and troposphere corrections.">
<polygon fill="white" stroke="red" points="4,-38.5 4,-57.5 125,-57.5 125,-38.5 4,-38.5"/>
<text text-anchor="middle" x="64.5" y="-45.5" font-family="Helvetica,sans-Serif" font-size="10.00">decodeSSR_grid_ATM</text>
</a>
</g>
</g>
<!-- Node1&#45;&gt;Node13 -->
<g id="edge9" class="edge">
<title>Node1&#45;&gt;Node13</title>
<path fill="none" stroke="midnightblue" d="M210.91,-162.49C196.2,-137.21 166.47,-92.16 129,-67 123.27,-63.15 116.73,-60.06 110.09,-57.59"/>
<polygon fill="midnightblue" stroke="midnightblue" points="207.99,-164.44 215.96,-171.42 214.09,-160.99 207.99,-164.44"/>
</g>
<!-- Node14 -->
<g id="node11" class="node">
<title>Node14</title>
<g id="a_node11"><a xlink:href="prototypeCmpSSRDecode_8cpp.html#abf7b71d9ca319924c1f90e0c9041eab2" target="_top" xlink:title="Compact (polynomial based) atmospheric corrections.">
<polygon fill="white" stroke="red" points="0,-0.5 0,-19.5 129,-19.5 129,-0.5 0,-0.5"/>
<text text-anchor="middle" x="64.5" y="-7.5" font-family="Helvetica,sans-Serif" font-size="10.00">decodeSSR_comp_ATM</text>
</a>
</g>
</g>
<!-- Node1&#45;&gt;Node14 -->
<g id="edge10" class="edge">
<title>Node1&#45;&gt;Node14</title>
<path fill="none" stroke="midnightblue" d="M214.47,-161.45C202.64,-129.05 174.59,-64.28 129,-29 123.99,-25.13 118.21,-22.04 112.21,-19.58"/>
<polygon fill="midnightblue" stroke="midnightblue" points="211.25,-162.84 217.86,-171.11 217.85,-160.52 211.25,-162.84"/>
</g>
</g>
</svg>
