<?xml version="1.0" encoding="UTF-8" standalone="no"?>
<!DOCTYPE svg PUBLIC "-//W3C//DTD SVG 1.1//EN"
 "http://www.w3.org/Graphics/SVG/1.1/DTD/svg11.dtd">
<!-- Generated by graphviz version 2.43.0 (0)
 -->
<!-- Title: processServiceData Pages: 1 -->
<svg width="257pt" height="104pt"
 viewBox="0.00 0.00 257.00 104.00" xmlns="http://www.w3.org/2000/svg" xmlns:xlink="http://www.w3.org/1999/xlink">
<g id="graph0" class="graph" transform="scale(1 1) rotate(0) translate(4 100)">
<title>processServiceData</title>
<polygon fill="white" stroke="transparent" points="-4,4 -4,-100 253,-100 253,4 -4,4"/>
<!-- Node1 -->
<g id="node1" class="node">
<title>Node1</title>
<g id="a_node1"><a xlink:title=" ">
<polygon fill="#bfbfbf" stroke="black" points="0,-38.5 0,-57.5 113,-57.5 113,-38.5 0,-38.5"/>
<text text-anchor="middle" x="56.5" y="-45.5" font-family="Helvetica,sans-Serif" font-size="10.00">processServiceData</text>
</a>
</g>
</g>
<!-- Node2 -->
<g id="node2" class="node">
<title>Node2</title>
<g id="a_node2"><a xlink:href="rtcmDecoder_8cpp.html#a85a03123ae20efc3b06434f616140943" target="_top" xlink:title="extract unsigned bits from byte data">
<polygon fill="white" stroke="black" points="173.5,-76.5 173.5,-95.5 224.5,-95.5 224.5,-76.5 173.5,-76.5"/>
<text text-anchor="middle" x="199" y="-83.5" font-family="Helvetica,sans-Serif" font-size="10.00">getbitu</text>
</a>
</g>
</g>
<!-- Node1&#45;&gt;Node2 -->
<g id="edge1" class="edge">
<title>Node1&#45;&gt;Node2</title>
<path fill="none" stroke="midnightblue" d="M92.95,-57.59C117.99,-64.36 150.92,-73.27 173.18,-79.29"/>
</g>
<!-- Node3 -->
<g id="node3" class="node">
<title>Node3</title>
<g id="a_node3"><a xlink:href="prototypeCmpSSRDecode_8cpp.html#af63dc0e475127ce2f66843624cb1c517" target="_top" xlink:title=" ">
<polygon fill="white" stroke="red" points="149,-38.5 149,-57.5 249,-57.5 249,-38.5 149,-38.5"/>
<text text-anchor="middle" x="199" y="-45.5" font-family="Helvetica,sans-Serif" font-size="10.00">decode_grid_info</text>
</a>
</g>
</g>
<!-- Node1&#45;&gt;Node3 -->
<g id="edge2" class="edge">
<title>Node1&#45;&gt;Node3</title>
<path fill="none" stroke="midnightblue" d="M113.03,-48C124.84,-48 137.24,-48 148.79,-48"/>
</g>
<!-- Node8 -->
<g id="node4" class="node">
<title>Node8</title>
<g id="a_node4"><a xlink:href="trace_8cpp.html#ae00e6addd3bdf3a7fd41a254eb9aec89" target="_top" xlink:title=" ">
<polygon fill="white" stroke="black" points="163.5,-0.5 163.5,-19.5 234.5,-19.5 234.5,-0.5 163.5,-0.5"/>
<text text-anchor="middle" x="199" y="-7.5" font-family="Helvetica,sans-Serif" font-size="10.00">tracepdeex</text>
</a>
</g>
</g>
<!-- Node1&#45;&gt;Node8 -->
<g id="edge3" class="edge">
<title>Node1&#45;&gt;Node8</title>
<path fill="none" stroke="midnightblue" d="M92.95,-38.41C114.42,-32.61 141.67,-25.23 163.04,-19.45"/>
</g>
</g>
</svg>
