<?xml version="1.0" encoding="UTF-8" standalone="no"?>
<!DOCTYPE svg PUBLIC "-//W3C//DTD SVG 1.1//EN"
 "http://www.w3.org/Graphics/SVG/1.1/DTD/svg11.dtd">
<!-- Generated by graphviz version 2.43.0 (0)
 -->
<!-- Title: encodeIGS_CLK Pages: 1 -->
<svg width="237pt" height="142pt"
 viewBox="0.00 0.00 237.00 142.00" xmlns="http://www.w3.org/2000/svg" xmlns:xlink="http://www.w3.org/1999/xlink">
<g id="graph0" class="graph" transform="scale(1 1) rotate(0) translate(4 138)">
<title>encodeIGS_CLK</title>
<polygon fill="white" stroke="transparent" points="-4,4 -4,-138 233,-138 233,4 -4,4"/>
<!-- Node1 -->
<g id="node1" class="node">
<title>Node1</title>
<g id="a_node1"><a xlink:title=" ">
<polygon fill="#bfbfbf" stroke="black" points="0,-57.5 0,-76.5 92,-76.5 92,-57.5 0,-57.5"/>
<text text-anchor="middle" x="46" y="-64.5" font-family="Helvetica,sans-Serif" font-size="10.00">encodeIGS_CLK</text>
</a>
</g>
</g>
<!-- Node2 -->
<g id="node2" class="node">
<title>Node2</title>
<g id="a_node2"><a xlink:href="trace_8hpp.html#a984a9b0c40d65d46f2c73a021a7b7de3" target="_top" xlink:title=" ">
<polygon fill="white" stroke="black" points="143,-114.5 143,-133.5 214,-133.5 214,-114.5 143,-114.5"/>
<text text-anchor="middle" x="178.5" y="-121.5" font-family="Helvetica,sans-Serif" font-size="10.00">tracepdeex</text>
</a>
</g>
</g>
<!-- Node1&#45;&gt;Node2 -->
<g id="edge1" class="edge">
<title>Node1&#45;&gt;Node2</title>
<path fill="none" stroke="midnightblue" d="M66.46,-76.61C82.76,-84.55 106.71,-95.93 128,-105 132.53,-106.93 137.32,-108.88 142.07,-110.76"/>
<polygon fill="midnightblue" stroke="midnightblue" points="141.08,-114.13 151.67,-114.49 143.61,-107.6 141.08,-114.13"/>
</g>
<!-- Node3 -->
<g id="node3" class="node">
<title>Node3</title>
<g id="a_node3"><a xlink:href="prototypeIgsSSREncode_8cpp.html#ade48f828147c8c828b36ef24b68bd9dc" target="_top" xlink:title=" ">
<polygon fill="white" stroke="black" points="128,-76.5 128,-95.5 229,-95.5 229,-76.5 128,-76.5"/>
<text text-anchor="middle" x="178.5" y="-83.5" font-family="Helvetica,sans-Serif" font-size="10.00">IGS_SSR_subtype</text>
</a>
</g>
</g>
<!-- Node1&#45;&gt;Node3 -->
<g id="edge2" class="edge">
<title>Node1&#45;&gt;Node3</title>
<path fill="none" stroke="midnightblue" d="M92.28,-73.59C100.53,-74.79 109.26,-76.06 117.85,-77.32"/>
<polygon fill="midnightblue" stroke="midnightblue" points="117.45,-80.79 127.85,-78.77 118.46,-73.87 117.45,-80.79"/>
</g>
<!-- Node4 -->
<g id="node4" class="node">
<title>Node4</title>
<g id="a_node4"><a xlink:href="rtcmEncoder_8cpp.html#af0d5eab5e18729b5d6b67194e94979a0" target="_top" xlink:title="increasingly set unsigned bits to byte data">
<polygon fill="white" stroke="red" points="146,-38.5 146,-57.5 211,-57.5 211,-38.5 146,-38.5"/>
<text text-anchor="middle" x="178.5" y="-45.5" font-family="Helvetica,sans-Serif" font-size="10.00">setbituInc</text>
</a>
</g>
</g>
<!-- Node1&#45;&gt;Node4 -->
<g id="edge3" class="edge">
<title>Node1&#45;&gt;Node4</title>
<path fill="none" stroke="midnightblue" d="M92.28,-60.41C106.36,-58.36 121.81,-56.11 135.64,-54.09"/>
<polygon fill="midnightblue" stroke="midnightblue" points="136.47,-57.51 145.86,-52.61 135.46,-50.58 136.47,-57.51"/>
</g>
<!-- Node6 -->
<g id="node5" class="node">
<title>Node6</title>
<g id="a_node5"><a xlink:href="rtcmEncoder_8cpp.html#a831abe42902c0ceadba66974c93a637b" target="_top" xlink:title="increasingly set signed bits to byte data">
<polygon fill="white" stroke="red" points="146.5,-0.5 146.5,-19.5 210.5,-19.5 210.5,-0.5 146.5,-0.5"/>
<text text-anchor="middle" x="178.5" y="-7.5" font-family="Helvetica,sans-Serif" font-size="10.00">setbitsInc</text>
</a>
</g>
</g>
<!-- Node1&#45;&gt;Node6 -->
<g id="edge4" class="edge">
<title>Node1&#45;&gt;Node6</title>
<path fill="none" stroke="midnightblue" d="M66.46,-57.39C82.76,-49.45 106.71,-38.07 128,-29 132.53,-27.07 137.32,-25.12 142.07,-23.24"/>
<polygon fill="midnightblue" stroke="midnightblue" points="143.61,-26.4 151.67,-19.51 141.08,-19.87 143.61,-26.4"/>
</g>
</g>
</svg>
