<?xml version="1.0" encoding="UTF-8" standalone="no"?>
<!DOCTYPE svg PUBLIC "-//W3C//DTD SVG 1.1//EN"
 "http://www.w3.org/Graphics/SVG/1.1/DTD/svg11.dtd">
<!-- Generated by graphviz version 2.43.0 (0)
 -->
<!-- Title: decodeSSR_URA Pages: 1 -->
<svg width="389pt" height="180pt"
 viewBox="0.00 0.00 389.00 180.00" xmlns="http://www.w3.org/2000/svg" xmlns:xlink="http://www.w3.org/1999/xlink">
<g id="graph0" class="graph" transform="scale(1 1) rotate(0) translate(4 176)">
<title>decodeSSR_URA</title>
<polygon fill="white" stroke="transparent" points="-4,4 -4,-176 385,-176 385,4 -4,4"/>
<!-- Node1 -->
<g id="node1" class="node">
<title>Node1</title>
<g id="a_node1"><a xlink:title="User Range Accuracy.">
<polygon fill="#bfbfbf" stroke="black" points="0,-76.5 0,-95.5 97,-95.5 97,-76.5 0,-76.5"/>
<text text-anchor="middle" x="48.5" y="-83.5" font-family="Helvetica,sans-Serif" font-size="10.00">decodeSSR_URA</text>
</a>
</g>
</g>
<!-- Node2 -->
<g id="node2" class="node">
<title>Node2</title>
<g id="a_node2"><a xlink:href="prototypeCmpSSRDecode_8cpp.html#a282774baece273841d915eca27bcc898" target="_top" xlink:title=" ">
<polygon fill="white" stroke="red" points="135,-152.5 135,-171.5 245,-171.5 245,-152.5 135,-152.5"/>
<text text-anchor="middle" x="190" y="-159.5" font-family="Helvetica,sans-Serif" font-size="10.00">decodeSSR_header</text>
</a>
</g>
</g>
<!-- Node1&#45;&gt;Node2 -->
<g id="edge1" class="edge">
<title>Node1&#45;&gt;Node2</title>
<path fill="none" stroke="midnightblue" d="M63.3,-95.5C79.55,-106.48 107.56,-124.73 133,-138 139.9,-141.6 147.46,-145.11 154.72,-148.29"/>
<polygon fill="midnightblue" stroke="midnightblue" points="153.8,-151.7 164.37,-152.39 156.54,-145.26 153.8,-151.7"/>
</g>
<!-- Node3 -->
<g id="node3" class="node">
<title>Node3</title>
<g id="a_node3"><a xlink:href="rtcmDecoder_8cpp.html#aaa6463f592ed6478626814466d3d02a5" target="_top" xlink:title="increasingly extract unsigned bits from byte data">
<polygon fill="white" stroke="red" points="299.5,-114.5 299.5,-133.5 364.5,-133.5 364.5,-114.5 299.5,-114.5"/>
<text text-anchor="middle" x="332" y="-121.5" font-family="Helvetica,sans-Serif" font-size="10.00">getbituInc</text>
</a>
</g>
</g>
<!-- Node1&#45;&gt;Node3 -->
<g id="edge4" class="edge">
<title>Node1&#45;&gt;Node3</title>
<path fill="none" stroke="midnightblue" d="M97.25,-92.45C151.11,-99.72 237.85,-111.43 289.15,-118.35"/>
<polygon fill="midnightblue" stroke="midnightblue" points="288.85,-121.84 299.23,-119.71 289.79,-114.9 288.85,-121.84"/>
</g>
<!-- Node6 -->
<g id="node4" class="node">
<title>Node6</title>
<g id="a_node4"><a xlink:href="trace_8hpp.html#a984a9b0c40d65d46f2c73a021a7b7de3" target="_top" xlink:title=" ">
<polygon fill="white" stroke="black" points="296.5,-57.5 296.5,-76.5 367.5,-76.5 367.5,-57.5 296.5,-57.5"/>
<text text-anchor="middle" x="332" y="-64.5" font-family="Helvetica,sans-Serif" font-size="10.00">tracepdeex</text>
</a>
</g>
</g>
<!-- Node1&#45;&gt;Node6 -->
<g id="edge3" class="edge">
<title>Node1&#45;&gt;Node6</title>
<path fill="none" stroke="midnightblue" d="M97.25,-82.78C150.08,-79.21 234.55,-73.51 286.18,-70.03"/>
<polygon fill="midnightblue" stroke="midnightblue" points="286.62,-73.5 296.36,-69.34 286.15,-66.52 286.62,-73.5"/>
</g>
<!-- Node7 -->
<g id="node5" class="node">
<title>Node7</title>
<g id="a_node5"><a xlink:href="structGTime.html#a98fdbaaec5a132a7e694f28b4f1907cb" target="_top" xlink:title=" ">
<polygon fill="white" stroke="black" points="283,-0.5 283,-19.5 381,-19.5 381,-0.5 283,-0.5"/>
<text text-anchor="middle" x="332" y="-7.5" font-family="Helvetica,sans-Serif" font-size="10.00">GTime::to_string</text>
</a>
</g>
</g>
<!-- Node1&#45;&gt;Node7 -->
<g id="edge5" class="edge">
<title>Node1&#45;&gt;Node7</title>
<path fill="none" stroke="midnightblue" d="M84.87,-76.45C135.75,-62.72 229.61,-37.37 285.57,-22.27"/>
<polygon fill="midnightblue" stroke="midnightblue" points="286.81,-25.55 295.56,-19.57 284.99,-18.8 286.81,-25.55"/>
</g>
<!-- Node8 -->
<g id="node6" class="node">
<title>Node8</title>
<g id="a_node6"><a xlink:href="prototypeCmpSSRDecode_8cpp.html#afdf8d88d02894f8e69fd4c8a4c3c9173" target="_top" xlink:title=" ">
<polygon fill="white" stroke="red" points="133,-0.5 133,-19.5 247,-19.5 247,-0.5 133,-0.5"/>
<text text-anchor="middle" x="190" y="-7.5" font-family="Helvetica,sans-Serif" font-size="10.00">copySSRCorrections</text>
</a>
</g>
</g>
<!-- Node1&#45;&gt;Node8 -->
<g id="edge6" class="edge">
<title>Node1&#45;&gt;Node8</title>
<path fill="none" stroke="midnightblue" d="M63.3,-76.5C79.55,-65.52 107.56,-47.27 133,-34 139.9,-30.4 147.46,-26.89 154.72,-23.71"/>
<polygon fill="midnightblue" stroke="midnightblue" points="156.54,-26.74 164.37,-19.61 153.8,-20.3 156.54,-26.74"/>
</g>
<!-- Node2&#45;&gt;Node3 -->
<g id="edge2" class="edge">
<title>Node2&#45;&gt;Node3</title>
<path fill="none" stroke="midnightblue" d="M226.33,-152.41C245.45,-147.22 269.2,-140.77 289.24,-135.34"/>
<polygon fill="midnightblue" stroke="midnightblue" points="290.3,-138.67 299.03,-132.68 288.47,-131.92 290.3,-138.67"/>
</g>
<!-- Node8&#45;&gt;Node6 -->
<g id="edge7" class="edge">
<title>Node8&#45;&gt;Node6</title>
<path fill="none" stroke="midnightblue" d="M214.43,-19.54C237.35,-28.87 272.45,-43.16 298.15,-53.62"/>
<polygon fill="midnightblue" stroke="midnightblue" points="296.91,-56.9 307.49,-57.43 299.55,-50.42 296.91,-56.9"/>
</g>
<!-- Node8&#45;&gt;Node7 -->
<g id="edge8" class="edge">
<title>Node8&#45;&gt;Node7</title>
<path fill="none" stroke="midnightblue" d="M247.14,-10C255.57,-10 264.29,-10 272.77,-10"/>
<polygon fill="midnightblue" stroke="midnightblue" points="272.96,-13.5 282.96,-10 272.96,-6.5 272.96,-13.5"/>
</g>
</g>
</svg>
