<?xml version="1.0" encoding="UTF-8" standalone="no"?>
<!DOCTYPE svg PUBLIC "-//W3C//DTD SVG 1.1//EN"
 "http://www.w3.org/Graphics/SVG/1.1/DTD/svg11.dtd">
<!-- Generated by graphviz version 2.43.0 (0)
 -->
<!-- Title: readrnxh Pages: 1 -->
<svg width="280pt" height="161pt"
 viewBox="0.00 0.00 280.00 160.83" xmlns="http://www.w3.org/2000/svg" xmlns:xlink="http://www.w3.org/1999/xlink">
<g id="graph0" class="graph" transform="scale(1 1) rotate(0) translate(4 156.83)">
<title>readrnxh</title>
<polygon fill="white" stroke="transparent" points="-4,4 -4,-156.83 276,-156.83 276,4 -4,4"/>
<!-- Node1 -->
<g id="node1" class="node">
<title>Node1</title>
<g id="a_node1"><a xlink:title="Read rinex header.">
<polygon fill="#bfbfbf" stroke="black" points="0,-76.5 0,-95.5 60,-95.5 60,-76.5 0,-76.5"/>
<text text-anchor="middle" x="30" y="-83.5" font-family="Helvetica,sans-Serif" font-size="10.00">readrnxh</text>
</a>
</g>
</g>
<!-- Node2 -->
<g id="node2" class="node">
<title>Node2</title>
<g id="a_node2"><a xlink:href="gTime_8cpp.html#aca21817ee2127e89013ae4252c5f9abe" target="_top" xlink:title=" ">
<polygon fill="white" stroke="black" points="215,-76.5 215,-95.5 272,-95.5 272,-76.5 215,-76.5"/>
<text text-anchor="middle" x="243.5" y="-83.5" font-family="Helvetica,sans-Serif" font-size="10.00">str2num</text>
</a>
</g>
</g>
<!-- Node1&#45;&gt;Node2 -->
<g id="edge1" class="edge">
<title>Node1&#45;&gt;Node2</title>
<path fill="none" stroke="midnightblue" d="M38.1,-95.57C48.85,-109.17 70.72,-133.48 96,-143 130.52,-155.99 144.55,-156.19 179,-143 203.9,-133.46 225.18,-109.16 235.62,-95.57"/>
</g>
<!-- Node3 -->
<g id="node3" class="node">
<title>Node3</title>
<g id="a_node3"><a xlink:href="rinex_8cpp.html#a14aeff424f301ac2512155167d548348" target="_top" xlink:title="Decode obs header.">
<polygon fill="white" stroke="black" points="99,-114.5 99,-133.5 176,-133.5 176,-114.5 99,-114.5"/>
<text text-anchor="middle" x="137.5" y="-121.5" font-family="Helvetica,sans-Serif" font-size="10.00">decodeObsh</text>
</a>
</g>
</g>
<!-- Node1&#45;&gt;Node3 -->
<g id="edge2" class="edge">
<title>Node1&#45;&gt;Node3</title>
<path fill="none" stroke="midnightblue" d="M57.62,-95.59C73.62,-101.35 93.89,-108.65 109.89,-114.41"/>
</g>
<!-- Node4 -->
<g id="node4" class="node">
<title>Node4</title>
<g id="a_node4"><a xlink:href="rinex_8cpp.html#a98a2dc67757d3341b779c2d60a4f64e3" target="_top" xlink:title="Decode nav header.">
<polygon fill="white" stroke="red" points="99,-76.5 99,-95.5 176,-95.5 176,-76.5 99,-76.5"/>
<text text-anchor="middle" x="137.5" y="-83.5" font-family="Helvetica,sans-Serif" font-size="10.00">decodeNavh</text>
</a>
</g>
</g>
<!-- Node1&#45;&gt;Node4 -->
<g id="edge4" class="edge">
<title>Node1&#45;&gt;Node4</title>
<path fill="none" stroke="midnightblue" d="M60.11,-86C72.06,-86 86.06,-86 98.78,-86"/>
</g>
<!-- Node9 -->
<g id="node5" class="node">
<title>Node9</title>
<g id="a_node5"><a xlink:href="rinex_8cpp.html#ab0c8334faa319e55082962e09df62b0c" target="_top" xlink:title="Decode gnav header.">
<polygon fill="white" stroke="black" points="96,-38.5 96,-57.5 179,-57.5 179,-38.5 96,-38.5"/>
<text text-anchor="middle" x="137.5" y="-45.5" font-family="Helvetica,sans-Serif" font-size="10.00">decodeGnavh</text>
</a>
</g>
</g>
<!-- Node1&#45;&gt;Node9 -->
<g id="edge6" class="edge">
<title>Node1&#45;&gt;Node9</title>
<path fill="none" stroke="midnightblue" d="M57.62,-76.41C73.62,-70.65 93.89,-63.35 109.89,-57.59"/>
</g>
<!-- Node10 -->
<g id="node6" class="node">
<title>Node10</title>
<g id="a_node6"><a xlink:href="rinex_8cpp.html#ad2d8f37738f720ba76e3354346fc4e17" target="_top" xlink:title="Decode geo nav header.">
<polygon fill="white" stroke="black" points="96,-0.5 96,-19.5 179,-19.5 179,-0.5 96,-0.5"/>
<text text-anchor="middle" x="137.5" y="-7.5" font-family="Helvetica,sans-Serif" font-size="10.00">decodeHnavh</text>
</a>
</g>
</g>
<!-- Node1&#45;&gt;Node10 -->
<g id="edge8" class="edge">
<title>Node1&#45;&gt;Node10</title>
<path fill="none" stroke="midnightblue" d="M40.42,-76.18C52.48,-64 74.4,-43.13 96,-29 101.33,-25.51 107.4,-22.31 113.19,-19.57"/>
</g>
<!-- Node3&#45;&gt;Node2 -->
<g id="edge3" class="edge">
<title>Node3&#45;&gt;Node2</title>
<path fill="none" stroke="midnightblue" d="M164.74,-114.41C180.51,-108.65 200.5,-101.35 216.26,-95.59"/>
</g>
<!-- Node4&#45;&gt;Node2 -->
<g id="edge5" class="edge">
<title>Node4&#45;&gt;Node2</title>
<path fill="none" stroke="midnightblue" d="M176.05,-86C188.85,-86 202.92,-86 214.8,-86"/>
</g>
<!-- Node9&#45;&gt;Node2 -->
<g id="edge7" class="edge">
<title>Node9&#45;&gt;Node2</title>
<path fill="none" stroke="midnightblue" d="M164.74,-57.59C180.51,-63.35 200.5,-70.65 216.26,-76.41"/>
</g>
<!-- Node10&#45;&gt;Node2 -->
<g id="edge9" class="edge">
<title>Node10&#45;&gt;Node2</title>
<path fill="none" stroke="midnightblue" d="M161.84,-19.53C167.63,-22.27 173.69,-25.48 179,-29 200.24,-43.07 221.61,-63.97 233.34,-76.16"/>
</g>
</g>
</svg>
