<?xml version="1.0" encoding="UTF-8" standalone="no"?>
<!DOCTYPE svg PUBLIC "-//W3C//DTD SVG 1.1//EN"
 "http://www.w3.org/Graphics/SVG/1.1/DTD/svg11.dtd">
<!-- Generated by graphviz version 2.43.0 (0)
 -->
<!-- Title: rinexNavHeader Pages: 1 -->
<svg width="223pt" height="294pt"
 viewBox="0.00 0.00 223.00 294.00" xmlns="http://www.w3.org/2000/svg" xmlns:xlink="http://www.w3.org/1999/xlink">
<g id="graph0" class="graph" transform="scale(1 1) rotate(0) translate(4 290)">
<title>rinexNavHeader</title>
<polygon fill="white" stroke="transparent" points="-4,4 -4,-290 219,-290 219,4 -4,4"/>
<!-- Node1 -->
<g id="node1" class="node">
<title>Node1</title>
<g id="a_node1"><a xlink:title=" ">
<polygon fill="#bfbfbf" stroke="black" points="0,-133.5 0,-152.5 96,-152.5 96,-133.5 0,-133.5"/>
<text text-anchor="middle" x="48" y="-140.5" font-family="Helvetica,sans-Serif" font-size="10.00">rinexNavHeader</text>
</a>
</g>
</g>
<!-- Node2 -->
<g id="node2" class="node">
<title>Node2</title>
<g id="a_node2"><a xlink:href="gTime_8cpp.html#abb00b59d1e35b7cc9e031a5faf536f9e" target="_top" xlink:title=" ">
<polygon fill="white" stroke="red" points="144,-266.5 144,-285.5 203,-285.5 203,-266.5 144,-266.5"/>
<text text-anchor="middle" x="173.5" y="-273.5" font-family="Helvetica,sans-Serif" font-size="10.00">utc2gpst</text>
</a>
</g>
</g>
<!-- Node1&#45;&gt;Node2 -->
<g id="edge1" class="edge">
<title>Node1&#45;&gt;Node2</title>
<path fill="none" stroke="midnightblue" d="M53.76,-152.5C64.82,-173.78 94.24,-225.83 132,-257 136.43,-260.66 141.69,-263.79 146.92,-266.39"/>
</g>
<!-- Node4 -->
<g id="node3" class="node">
<title>Node4</title>
<g id="a_node3"><a xlink:href="gTime_8cpp.html#a2a318fa02e2d05aa22eabbcf1a537fcf" target="_top" xlink:title="get current time in utc">
<polygon fill="white" stroke="red" points="146,-228.5 146,-247.5 201,-247.5 201,-228.5 146,-228.5"/>
<text text-anchor="middle" x="173.5" y="-235.5" font-family="Helvetica,sans-Serif" font-size="10.00">timeget</text>
</a>
</g>
</g>
<!-- Node1&#45;&gt;Node4 -->
<g id="edge2" class="edge">
<title>Node1&#45;&gt;Node4</title>
<path fill="none" stroke="midnightblue" d="M57.91,-152.91C72.32,-168.49 102.13,-199 132,-219 137.16,-222.46 143.05,-225.61 148.71,-228.31"/>
</g>
<!-- Node5 -->
<g id="node4" class="node">
<title>Node5</title>
<g id="a_node4"><a xlink:href="gTime_8cpp.html#a016d7b64e67752afcd07e5074a3cc516" target="_top" xlink:title=" ">
<polygon fill="white" stroke="red" points="144.5,-190.5 144.5,-209.5 202.5,-209.5 202.5,-190.5 144.5,-190.5"/>
<text text-anchor="middle" x="173.5" y="-197.5" font-family="Helvetica,sans-Serif" font-size="10.00">time2str</text>
</a>
</g>
</g>
<!-- Node1&#45;&gt;Node5 -->
<g id="edge3" class="edge">
<title>Node1&#45;&gt;Node5</title>
<path fill="none" stroke="midnightblue" d="M69.67,-152.54C92.47,-163.06 128.94,-179.89 151.76,-190.43"/>
</g>
<!-- Node7 -->
<g id="node5" class="node">
<title>Node7</title>
<g id="a_node5"><a xlink:href="rinexObsWrite_8cpp.html#a7392cc91a14f17ab70dd83c89365d9b2" target="_top" xlink:title=" ">
<polygon fill="white" stroke="black" points="132,-152.5 132,-171.5 215,-171.5 215,-152.5 132,-152.5"/>
<text text-anchor="middle" x="173.5" y="-159.5" font-family="Helvetica,sans-Serif" font-size="10.00">rinexSysDesc</text>
</a>
</g>
</g>
<!-- Node1&#45;&gt;Node7 -->
<g id="edge4" class="edge">
<title>Node1&#45;&gt;Node7</title>
<path fill="none" stroke="midnightblue" d="M96.04,-150.24C107.77,-152.04 120.24,-153.96 131.64,-155.71"/>
</g>
<!-- Node8 -->
<g id="node6" class="node">
<title>Node8</title>
<g id="a_node6"><a xlink:href="streamTrace_8cpp.html#ae00e6addd3bdf3a7fd41a254eb9aec89" target="_top" xlink:title=" ">
<polygon fill="white" stroke="black" points="138,-114.5 138,-133.5 209,-133.5 209,-114.5 138,-114.5"/>
<text text-anchor="middle" x="173.5" y="-121.5" font-family="Helvetica,sans-Serif" font-size="10.00">tracepdeex</text>
</a>
</g>
</g>
<!-- Node1&#45;&gt;Node8 -->
<g id="edge5" class="edge">
<title>Node1&#45;&gt;Node8</title>
<path fill="none" stroke="midnightblue" d="M96.04,-135.76C109.95,-133.62 124.91,-131.32 137.88,-129.33"/>
</g>
<!-- Node9 -->
<g id="node7" class="node">
<title>Node9</title>
<g id="a_node7"><a xlink:href="gTime_8cpp.html#a043c97b6d22706c23f55a5d29563d7dd" target="_top" xlink:title=" ">
<polygon fill="white" stroke="red" points="143,-76.5 143,-95.5 204,-95.5 204,-76.5 143,-76.5"/>
<text text-anchor="middle" x="173.5" y="-83.5" font-family="Helvetica,sans-Serif" font-size="10.00">time2bdt</text>
</a>
</g>
</g>
<!-- Node1&#45;&gt;Node9 -->
<g id="edge6" class="edge">
<title>Node1&#45;&gt;Node9</title>
<path fill="none" stroke="midnightblue" d="M69.67,-133.46C92.47,-122.94 128.94,-106.11 151.76,-95.57"/>
</g>
<!-- Node10 -->
<g id="node8" class="node">
<title>Node10</title>
<g id="a_node8"><a xlink:href="gTime_8cpp.html#a0f1c35b5babe507c5b320111c1e634b7" target="_top" xlink:title=" ">
<polygon fill="white" stroke="black" points="144,-38.5 144,-57.5 203,-57.5 203,-38.5 144,-38.5"/>
<text text-anchor="middle" x="173.5" y="-45.5" font-family="Helvetica,sans-Serif" font-size="10.00">gpst2bdt</text>
</a>
</g>
</g>
<!-- Node1&#45;&gt;Node10 -->
<g id="edge7" class="edge">
<title>Node1&#45;&gt;Node10</title>
<path fill="none" stroke="midnightblue" d="M57.91,-133.09C72.32,-117.51 102.13,-87 132,-67 137.16,-63.54 143.05,-60.39 148.71,-57.69"/>
</g>
<!-- Node11 -->
<g id="node9" class="node">
<title>Node11</title>
<g id="a_node9"><a xlink:href="gTime_8cpp.html#abf196aa655d8ca10168c2301a68a8101" target="_top" xlink:title=" ">
<polygon fill="white" stroke="red" points="140.5,-0.5 140.5,-19.5 206.5,-19.5 206.5,-0.5 140.5,-0.5"/>
<text text-anchor="middle" x="173.5" y="-7.5" font-family="Helvetica,sans-Serif" font-size="10.00">time2gpst</text>
</a>
</g>
</g>
<!-- Node1&#45;&gt;Node11 -->
<g id="edge8" class="edge">
<title>Node1&#45;&gt;Node11</title>
<path fill="none" stroke="midnightblue" d="M53.76,-133.5C64.82,-112.22 94.24,-60.17 132,-29 136.43,-25.34 141.69,-22.21 146.92,-19.61"/>
</g>
</g>
</svg>
