<?xml version="1.0" encoding="UTF-8" standalone="no"?>
<!DOCTYPE svg PUBLIC "-//W3C//DTD SVG 1.1//EN"
 "http://www.w3.org/Graphics/SVG/1.1/DTD/svg11.dtd">
<!-- Generated by graphviz version 2.43.0 (0)
 -->
<!-- Title: writeRinexNav Pages: 1 -->
<svg width="553pt" height="522pt"
 viewBox="0.00 0.00 553.00 522.00" xmlns="http://www.w3.org/2000/svg" xmlns:xlink="http://www.w3.org/1999/xlink">
<g id="graph0" class="graph" transform="scale(1 1) rotate(0) translate(4 518)">
<title>writeRinexNav</title>
<polygon fill="white" stroke="transparent" points="-4,4 -4,-518 549,-518 549,4 -4,4"/>
<!-- Node1 -->
<g id="node1" class="node">
<title>Node1</title>
<g id="a_node1"><a xlink:title=" ">
<polygon fill="#bfbfbf" stroke="black" points="0,-380.5 0,-399.5 89,-399.5 89,-380.5 0,-380.5"/>
<text text-anchor="middle" x="44.5" y="-387.5" font-family="Helvetica,sans-Serif" font-size="10.00">writeRinexNav</text>
</a>
</g>
</g>
<!-- Node2 -->
<g id="node2" class="node">
<title>Node2</title>
<g id="a_node2"><a xlink:href="rinexClkWrite_8cpp.html#ae105b449da2c0d5e0ce91380d3b6907b" target="_top" xlink:title=" ">
<polygon fill="white" stroke="black" points="125,-418.5 125,-437.5 257,-437.5 257,-418.5 125,-418.5"/>
<text text-anchor="middle" x="191" y="-425.5" font-family="Helvetica,sans-Serif" font-size="10.00">getSysOutputFilenames</text>
</a>
</g>
</g>
<!-- Node1&#45;&gt;Node2 -->
<g id="edge1" class="edge">
<title>Node1&#45;&gt;Node2</title>
<path fill="none" stroke="midnightblue" d="M81.96,-399.59C103.95,-405.37 131.86,-412.71 153.8,-418.48"/>
</g>
<!-- Node7 -->
<g id="node7" class="node">
<title>Node7</title>
<g id="a_node7"><a xlink:href="rinexNavWrite_8cpp.html#aaab5fb708037f164d86cfa62039eb845" target="_top" xlink:title=" ">
<polygon fill="white" stroke="black" points="305.5,-380.5 305.5,-399.5 401.5,-399.5 401.5,-380.5 305.5,-380.5"/>
<text text-anchor="middle" x="353.5" y="-387.5" font-family="Helvetica,sans-Serif" font-size="10.00">rinexNavHeader</text>
</a>
</g>
</g>
<!-- Node1&#45;&gt;Node7 -->
<g id="edge7" class="edge">
<title>Node1&#45;&gt;Node7</title>
<path fill="none" stroke="midnightblue" d="M89.16,-390C146.44,-390 246.56,-390 305.47,-390"/>
</g>
<!-- Node18 -->
<g id="node16" class="node">
<title>Node18</title>
<g id="a_node16"><a xlink:href="rinexNavWrite_8cpp.html#a13224b67c146a6c8edd36e0e98bb4e76" target="_top" xlink:title=" ">
<polygon fill="white" stroke="black" points="131,-171.5 131,-190.5 251,-190.5 251,-171.5 131,-171.5"/>
<text text-anchor="middle" x="191" y="-178.5" font-family="Helvetica,sans-Serif" font-size="10.00">outputNavRinexBody</text>
</a>
</g>
</g>
<!-- Node1&#45;&gt;Node18 -->
<g id="edge16" class="edge">
<title>Node1&#45;&gt;Node18</title>
<path fill="none" stroke="midnightblue" d="M52.08,-380.48C76.16,-345.66 159.24,-225.49 183.38,-190.58"/>
</g>
<!-- Node3 -->
<g id="node3" class="node">
<title>Node3</title>
<g id="a_node3"><a xlink:href="structGTime.html#a7ed28cc28b05a43069702e96295be269" target="_top" xlink:title=" ">
<polygon fill="white" stroke="black" points="300.5,-494.5 300.5,-513.5 406.5,-513.5 406.5,-494.5 300.5,-494.5"/>
<text text-anchor="middle" x="353.5" y="-501.5" font-family="Helvetica,sans-Serif" font-size="10.00">GTime::roundTime</text>
</a>
</g>
</g>
<!-- Node2&#45;&gt;Node3 -->
<g id="edge2" class="edge">
<title>Node2&#45;&gt;Node3</title>
<path fill="none" stroke="midnightblue" d="M209.28,-437.51C229.2,-448.34 263.05,-466.29 293,-480 304.14,-485.1 316.69,-490.25 327.39,-494.46"/>
</g>
<!-- Node4 -->
<g id="node4" class="node">
<title>Node4</title>
<g id="a_node4"><a xlink:href="acsConfig_8cpp.html#a611c3086ccdeb877c19a6b1d603227a4" target="_top" xlink:title="search for and replace section of string">
<polygon fill="white" stroke="black" points="457,-456.5 457,-475.5 538,-475.5 538,-456.5 457,-456.5"/>
<text text-anchor="middle" x="497.5" y="-463.5" font-family="Helvetica,sans-Serif" font-size="10.00">replaceString</text>
</a>
</g>
</g>
<!-- Node2&#45;&gt;Node4 -->
<g id="edge3" class="edge">
<title>Node2&#45;&gt;Node4</title>
<path fill="none" stroke="midnightblue" d="M237.61,-437.51C254.9,-440.87 274.8,-444.44 293,-447 349.75,-454.97 415.89,-460.45 456.98,-463.4"/>
</g>
<!-- Node5 -->
<g id="node5" class="node">
<title>Node5</title>
<g id="a_node5"><a xlink:href="acsConfig_8cpp.html#a75a34dc41e76a8680e3aa6d62ff4c800" target="_top" xlink:title="Replace macros for times with numeric values.">
<polygon fill="white" stroke="black" points="312.5,-418.5 312.5,-437.5 394.5,-437.5 394.5,-418.5 312.5,-418.5"/>
<text text-anchor="middle" x="353.5" y="-425.5" font-family="Helvetica,sans-Serif" font-size="10.00">replaceTimes</text>
</a>
</g>
</g>
<!-- Node2&#45;&gt;Node5 -->
<g id="edge4" class="edge">
<title>Node2&#45;&gt;Node5</title>
<path fill="none" stroke="midnightblue" d="M257.28,-428C275.85,-428 295.54,-428 312.15,-428"/>
</g>
<!-- Node6 -->
<g id="node6" class="node">
<title>Node6</title>
<g id="a_node6"><a xlink:href="structSatSys.html#abfd7e43b0d57c2718d05ca595ee360dd" target="_top" xlink:title="Returns the character used as a prefix for this system.">
<polygon fill="white" stroke="black" points="450,-228.5 450,-247.5 545,-247.5 545,-228.5 450,-228.5"/>
<text text-anchor="middle" x="497.5" y="-235.5" font-family="Helvetica,sans-Serif" font-size="10.00">SatSys::sysChar</text>
</a>
</g>
</g>
<!-- Node2&#45;&gt;Node6 -->
<g id="edge6" class="edge">
<title>Node2&#45;&gt;Node6</title>
<path fill="none" stroke="midnightblue" d="M206.56,-418.49C225.75,-406.26 260.86,-384.93 293,-371 344.72,-348.58 371.49,-370.01 414,-333 442.19,-308.46 422.86,-282.7 450,-257 454.05,-253.16 458.99,-250.06 464.1,-247.56"/>
</g>
<!-- Node5&#45;&gt;Node4 -->
<g id="edge5" class="edge">
<title>Node5&#45;&gt;Node4</title>
<path fill="none" stroke="midnightblue" d="M390.33,-437.59C411.86,-443.35 439.15,-450.65 460.68,-456.41"/>
</g>
<!-- Node8 -->
<g id="node8" class="node">
<title>Node8</title>
<g id="a_node8"><a xlink:href="gTime_8cpp.html#abb00b59d1e35b7cc9e031a5faf536f9e" target="_top" xlink:title=" ">
<polygon fill="white" stroke="red" points="468,-418.5 468,-437.5 527,-437.5 527,-418.5 468,-418.5"/>
<text text-anchor="middle" x="497.5" y="-425.5" font-family="Helvetica,sans-Serif" font-size="10.00">utc2gpst</text>
</a>
</g>
</g>
<!-- Node7&#45;&gt;Node8 -->
<g id="edge8" class="edge">
<title>Node7&#45;&gt;Node8</title>
<path fill="none" stroke="midnightblue" d="M390.33,-399.59C414.32,-406.01 445.48,-414.35 467.83,-420.33"/>
</g>
<!-- Node10 -->
<g id="node9" class="node">
<title>Node10</title>
<g id="a_node9"><a xlink:href="gTime_8cpp.html#a2a318fa02e2d05aa22eabbcf1a537fcf" target="_top" xlink:title="get current time in utc">
<polygon fill="white" stroke="red" points="470,-380.5 470,-399.5 525,-399.5 525,-380.5 470,-380.5"/>
<text text-anchor="middle" x="497.5" y="-387.5" font-family="Helvetica,sans-Serif" font-size="10.00">timeget</text>
</a>
</g>
</g>
<!-- Node7&#45;&gt;Node10 -->
<g id="edge9" class="edge">
<title>Node7&#45;&gt;Node10</title>
<path fill="none" stroke="midnightblue" d="M401.78,-390C424.37,-390 450.58,-390 469.7,-390"/>
</g>
<!-- Node11 -->
<g id="node10" class="node">
<title>Node11</title>
<g id="a_node10"><a xlink:href="gTime_8cpp.html#a016d7b64e67752afcd07e5074a3cc516" target="_top" xlink:title=" ">
<polygon fill="white" stroke="red" points="468.5,-342.5 468.5,-361.5 526.5,-361.5 526.5,-342.5 468.5,-342.5"/>
<text text-anchor="middle" x="497.5" y="-349.5" font-family="Helvetica,sans-Serif" font-size="10.00">time2str</text>
</a>
</g>
</g>
<!-- Node7&#45;&gt;Node11 -->
<g id="edge10" class="edge">
<title>Node7&#45;&gt;Node11</title>
<path fill="none" stroke="midnightblue" d="M390.33,-380.41C414.49,-373.95 445.91,-365.54 468.29,-359.55"/>
</g>
<!-- Node13 -->
<g id="node11" class="node">
<title>Node13</title>
<g id="a_node11"><a xlink:href="rinexObsWrite_8cpp.html#a7392cc91a14f17ab70dd83c89365d9b2" target="_top" xlink:title=" ">
<polygon fill="white" stroke="black" points="456,-304.5 456,-323.5 539,-323.5 539,-304.5 456,-304.5"/>
<text text-anchor="middle" x="497.5" y="-311.5" font-family="Helvetica,sans-Serif" font-size="10.00">rinexSysDesc</text>
</a>
</g>
</g>
<!-- Node7&#45;&gt;Node13 -->
<g id="edge11" class="edge">
<title>Node7&#45;&gt;Node13</title>
<path fill="none" stroke="midnightblue" d="M384.27,-380.4C394.11,-376.61 404.86,-371.76 414,-366 432.36,-354.42 431.67,-344.62 450,-333 455.75,-329.36 462.31,-326.17 468.65,-323.5"/>
</g>
<!-- Node14 -->
<g id="node12" class="node">
<title>Node14</title>
<g id="a_node12"><a xlink:href="streamTrace_8cpp.html#ae00e6addd3bdf3a7fd41a254eb9aec89" target="_top" xlink:title=" ">
<polygon fill="white" stroke="black" points="462,-266.5 462,-285.5 533,-285.5 533,-266.5 462,-266.5"/>
<text text-anchor="middle" x="497.5" y="-273.5" font-family="Helvetica,sans-Serif" font-size="10.00">tracepdeex</text>
</a>
</g>
</g>
<!-- Node7&#45;&gt;Node14 -->
<g id="edge12" class="edge">
<title>Node7&#45;&gt;Node14</title>
<path fill="none" stroke="midnightblue" d="M389.96,-380.5C398.54,-376.97 407.19,-372.25 414,-366 440.07,-342.08 423.99,-318.98 450,-295 454.1,-291.22 459.06,-288.14 464.19,-285.65"/>
</g>
<!-- Node15 -->
<g id="node13" class="node">
<title>Node15</title>
<g id="a_node13"><a xlink:href="gTime_8cpp.html#a043c97b6d22706c23f55a5d29563d7dd" target="_top" xlink:title=" ">
<polygon fill="white" stroke="red" points="467,-190.5 467,-209.5 528,-209.5 528,-190.5 467,-190.5"/>
<text text-anchor="middle" x="497.5" y="-197.5" font-family="Helvetica,sans-Serif" font-size="10.00">time2bdt</text>
</a>
</g>
</g>
<!-- Node7&#45;&gt;Node15 -->
<g id="edge13" class="edge">
<title>Node7&#45;&gt;Node15</title>
<path fill="none" stroke="midnightblue" d="M368.23,-380.16C381.69,-369.84 401.91,-352.44 414,-333 442.06,-287.88 414,-258.08 450,-219 454.49,-214.13 460.41,-210.47 466.52,-207.74"/>
</g>
<!-- Node16 -->
<g id="node14" class="node">
<title>Node16</title>
<g id="a_node14"><a xlink:href="gTime_8cpp.html#a0f1c35b5babe507c5b320111c1e634b7" target="_top" xlink:title=" ">
<polygon fill="white" stroke="black" points="468,-152.5 468,-171.5 527,-171.5 527,-152.5 468,-152.5"/>
<text text-anchor="middle" x="497.5" y="-159.5" font-family="Helvetica,sans-Serif" font-size="10.00">gpst2bdt</text>
</a>
</g>
</g>
<!-- Node7&#45;&gt;Node16 -->
<g id="edge14" class="edge">
<title>Node7&#45;&gt;Node16</title>
<path fill="none" stroke="midnightblue" d="M368.53,-380.35C382.23,-370.17 402.63,-352.87 414,-333 448.48,-272.74 404.87,-233.75 450,-181 454.65,-175.57 461.09,-171.66 467.7,-168.87"/>
</g>
<!-- Node17 -->
<g id="node15" class="node">
<title>Node17</title>
<g id="a_node15"><a xlink:href="gTime_8cpp.html#abf196aa655d8ca10168c2301a68a8101" target="_top" xlink:title=" ">
<polygon fill="white" stroke="red" points="464.5,-95.5 464.5,-114.5 530.5,-114.5 530.5,-95.5 464.5,-95.5"/>
<text text-anchor="middle" x="497.5" y="-102.5" font-family="Helvetica,sans-Serif" font-size="10.00">time2gpst</text>
</a>
</g>
</g>
<!-- Node7&#45;&gt;Node17 -->
<g id="edge15" class="edge">
<title>Node7&#45;&gt;Node17</title>
<path fill="none" stroke="midnightblue" d="M368.72,-380.45C382.57,-370.35 403.09,-353.12 414,-333 454.98,-257.45 406.07,-216.87 450,-143 457.03,-131.17 469.18,-121.44 479.29,-114.78"/>
</g>
<!-- Node19 -->
<g id="node17" class="node">
<title>Node19</title>
<g id="a_node17"><a xlink:href="ephemeris_8cpp.html#ad506cac35e66f4336a1e14217d7c60e5" target="_top" xlink:title=" ">
<polygon fill="white" stroke="red" points="309,-304.5 309,-323.5 398,-323.5 398,-304.5 309,-304.5"/>
<text text-anchor="middle" x="353.5" y="-311.5" font-family="Helvetica,sans-Serif" font-size="10.00">seleph&lt; ION &gt;</text>
</a>
</g>
</g>
<!-- Node18&#45;&gt;Node19 -->
<g id="edge17" class="edge">
<title>Node18&#45;&gt;Node19</title>
<path fill="none" stroke="midnightblue" d="M197.82,-190.51C211.6,-212.26 248.47,-265.99 293,-295 298.91,-298.85 305.65,-301.97 312.42,-304.48"/>
</g>
<!-- Node24 -->
<g id="node18" class="node">
<title>Node24</title>
<g id="a_node18"><a xlink:href="rinexNavWrite_8cpp.html#aa67df0b1827f3ff1c4da263aed385531" target="_top" xlink:title=" ">
<polygon fill="white" stroke="red" points="297,-266.5 297,-285.5 410,-285.5 410,-266.5 297,-266.5"/>
<text text-anchor="middle" x="353.5" y="-273.5" font-family="Helvetica,sans-Serif" font-size="10.00">outputNavRinexION</text>
</a>
</g>
</g>
<!-- Node18&#45;&gt;Node24 -->
<g id="edge18" class="edge">
<title>Node18&#45;&gt;Node24</title>
<path fill="none" stroke="midnightblue" d="M202.39,-190.74C219.85,-206.63 256.74,-238.26 293,-257 300.13,-260.68 308.11,-263.83 315.85,-266.43"/>
</g>
<!-- Node26 -->
<g id="node19" class="node">
<title>Node26</title>
<g id="a_node19"><a xlink:href="ephemeris_8cpp.html#ac302de8d138d36fb5378742d8b4296da" target="_top" xlink:title=" ">
<polygon fill="white" stroke="red" points="308,-228.5 308,-247.5 399,-247.5 399,-228.5 308,-228.5"/>
<text text-anchor="middle" x="353.5" y="-235.5" font-family="Helvetica,sans-Serif" font-size="10.00">seleph&lt; EOP &gt;</text>
</a>
</g>
</g>
<!-- Node18&#45;&gt;Node26 -->
<g id="edge22" class="edge">
<title>Node18&#45;&gt;Node26</title>
<path fill="none" stroke="midnightblue" d="M216.36,-190.56C236.74,-198.47 266.63,-209.84 293,-219 302.22,-222.2 312.31,-225.5 321.52,-228.44"/>
</g>
<!-- Node27 -->
<g id="node20" class="node">
<title>Node27</title>
<g id="a_node20"><a xlink:href="rinexNavWrite_8cpp.html#a44ce18e58314bf68508dc220c1e807cc" target="_top" xlink:title=" ">
<polygon fill="white" stroke="red" points="296,-190.5 296,-209.5 411,-209.5 411,-190.5 296,-190.5"/>
<text text-anchor="middle" x="353.5" y="-197.5" font-family="Helvetica,sans-Serif" font-size="10.00">outputNavRinexEOP</text>
</a>
</g>
</g>
<!-- Node18&#45;&gt;Node27 -->
<g id="edge23" class="edge">
<title>Node18&#45;&gt;Node27</title>
<path fill="none" stroke="midnightblue" d="M251.31,-188.02C265.86,-189.74 281.41,-191.58 295.84,-193.29"/>
</g>
<!-- Node28 -->
<g id="node21" class="node">
<title>Node28</title>
<g id="a_node21"><a xlink:href="structSatSys.html#aa31d14f6b8c2100c085c732b9a3fef3f" target="_top" xlink:title="Constructs a SatSys object from it&#39;s hash uid.">
<polygon fill="white" stroke="black" points="301.5,-152.5 301.5,-171.5 405.5,-171.5 405.5,-152.5 301.5,-152.5"/>
<text text-anchor="middle" x="353.5" y="-159.5" font-family="Helvetica,sans-Serif" font-size="10.00">SatSys::fromHash</text>
</a>
</g>
</g>
<!-- Node18&#45;&gt;Node28 -->
<g id="edge29" class="edge">
<title>Node18&#45;&gt;Node28</title>
<path fill="none" stroke="midnightblue" d="M251.31,-173.98C267.74,-172.03 285.43,-169.94 301.35,-168.05"/>
</g>
<!-- Node29 -->
<g id="node22" class="node">
<title>Node29</title>
<g id="a_node22"><a xlink:href="ephemeris_8cpp.html#aecb4df22f46995cce2eb340f5ea24635" target="_top" xlink:title=" ">
<polygon fill="white" stroke="red" points="305,-114.5 305,-133.5 402,-133.5 402,-114.5 305,-114.5"/>
<text text-anchor="middle" x="353.5" y="-121.5" font-family="Helvetica,sans-Serif" font-size="10.00">seleph&lt; Geph &gt;</text>
</a>
</g>
</g>
<!-- Node18&#45;&gt;Node29 -->
<g id="edge30" class="edge">
<title>Node18&#45;&gt;Node29</title>
<path fill="none" stroke="midnightblue" d="M216.36,-171.44C236.74,-163.53 266.63,-152.16 293,-143 302.22,-139.8 312.31,-136.5 321.52,-133.56"/>
</g>
<!-- Node30 -->
<g id="node23" class="node">
<title>Node30</title>
<g id="a_node23"><a xlink:href="rinexNavWrite_8cpp.html#a46fd4ea12d70dbba01d33413b01d175f" target="_top" xlink:title=" ">
<polygon fill="white" stroke="red" points="293,-76.5 293,-95.5 414,-95.5 414,-76.5 293,-76.5"/>
<text text-anchor="middle" x="353.5" y="-83.5" font-family="Helvetica,sans-Serif" font-size="10.00">outputNavRinexGeph</text>
</a>
</g>
</g>
<!-- Node18&#45;&gt;Node30 -->
<g id="edge31" class="edge">
<title>Node18&#45;&gt;Node30</title>
<path fill="none" stroke="midnightblue" d="M202.39,-171.26C219.85,-155.37 256.74,-123.74 293,-105 300.13,-101.32 308.11,-98.17 315.85,-95.57"/>
</g>
<!-- Node32 -->
<g id="node24" class="node">
<title>Node32</title>
<g id="a_node24"><a xlink:href="ephemeris_8cpp.html#a7da191c91fa26999f40461876ed64cd0" target="_top" xlink:title=" ">
<polygon fill="white" stroke="red" points="309,-38.5 309,-57.5 398,-57.5 398,-38.5 309,-38.5"/>
<text text-anchor="middle" x="353.5" y="-45.5" font-family="Helvetica,sans-Serif" font-size="10.00">seleph&lt; Eph &gt;</text>
</a>
</g>
</g>
<!-- Node18&#45;&gt;Node32 -->
<g id="edge34" class="edge">
<title>Node18&#45;&gt;Node32</title>
<path fill="none" stroke="midnightblue" d="M197.82,-171.49C211.6,-149.74 248.47,-96.01 293,-67 298.91,-63.15 305.65,-60.03 312.42,-57.52"/>
</g>
<!-- Node33 -->
<g id="node25" class="node">
<title>Node33</title>
<g id="a_node25"><a xlink:href="rinexNavWrite_8cpp.html#af49aa619a891c6d00f32ac721ab01cd0" target="_top" xlink:title=" ">
<polygon fill="white" stroke="red" points="297,-0.5 297,-19.5 410,-19.5 410,-0.5 297,-0.5"/>
<text text-anchor="middle" x="353.5" y="-7.5" font-family="Helvetica,sans-Serif" font-size="10.00">outputNavRinexEph</text>
</a>
</g>
</g>
<!-- Node18&#45;&gt;Node33 -->
<g id="edge35" class="edge">
<title>Node18&#45;&gt;Node33</title>
<path fill="none" stroke="midnightblue" d="M195.77,-171.16C206.6,-144.23 240.41,-68.71 293,-29 298.11,-25.14 304.02,-22.06 310.1,-19.59"/>
</g>
<!-- Node24&#45;&gt;Node6 -->
<g id="edge20" class="edge">
<title>Node24&#45;&gt;Node6</title>
<path fill="none" stroke="midnightblue" d="M390.33,-266.41C411.86,-260.65 439.15,-253.35 460.68,-247.59"/>
</g>
<!-- Node24&#45;&gt;Node14 -->
<g id="edge19" class="edge">
<title>Node24&#45;&gt;Node14</title>
<path fill="none" stroke="midnightblue" d="M410.21,-276C427.62,-276 446.31,-276 461.83,-276"/>
</g>
<!-- Node24&#45;&gt;Node16 -->
<g id="edge21" class="edge">
<title>Node24&#45;&gt;Node16</title>
<path fill="none" stroke="midnightblue" d="M398.94,-266.38C404.4,-263.93 409.59,-260.86 414,-257 442.13,-232.39 422.86,-206.7 450,-181 455.07,-176.2 461.51,-172.55 467.97,-169.79"/>
</g>
<!-- Node27&#45;&gt;Node6 -->
<g id="edge25" class="edge">
<title>Node27&#45;&gt;Node6</title>
<path fill="none" stroke="midnightblue" d="M390.33,-209.59C411.86,-215.35 439.15,-222.65 460.68,-228.41"/>
</g>
<!-- Node27&#45;&gt;Node14 -->
<g id="edge24" class="edge">
<title>Node27&#45;&gt;Node14</title>
<path fill="none" stroke="midnightblue" d="M394.16,-209.57C401.05,-212.09 407.94,-215.19 414,-219 433.7,-231.37 430.8,-243.86 450,-257 455.33,-260.64 461.46,-263.77 467.49,-266.37"/>
</g>
<!-- Node27&#45;&gt;Node15 -->
<g id="edge28" class="edge">
<title>Node27&#45;&gt;Node15</title>
<path fill="none" stroke="midnightblue" d="M411.03,-200C430.06,-200 450.53,-200 466.67,-200"/>
</g>
<!-- Node27&#45;&gt;Node16 -->
<g id="edge26" class="edge">
<title>Node27&#45;&gt;Node16</title>
<path fill="none" stroke="midnightblue" d="M390.33,-190.41C414.32,-183.99 445.48,-175.65 467.83,-169.67"/>
</g>
<!-- Node27&#45;&gt;Node17 -->
<g id="edge27" class="edge">
<title>Node27&#45;&gt;Node17</title>
<path fill="none" stroke="midnightblue" d="M394.16,-190.43C401.05,-187.91 407.94,-184.81 414,-181 433.7,-168.63 432.96,-158.84 450,-143 461,-132.78 474.34,-122.03 483.9,-114.59"/>
</g>
<!-- Node30&#45;&gt;Node14 -->
<g id="edge32" class="edge">
<title>Node30&#45;&gt;Node14</title>
<path fill="none" stroke="midnightblue" d="M401.21,-95.53C405.98,-98 410.39,-101.1 414,-105 461.18,-155.93 404.87,-204.25 450,-257 453.29,-260.84 457.47,-263.92 461.98,-266.38"/>
</g>
<!-- Node30&#45;&gt;Node17 -->
<g id="edge33" class="edge">
<title>Node30&#45;&gt;Node17</title>
<path fill="none" stroke="midnightblue" d="M414.31,-94C431.44,-96.29 449.46,-98.71 464.25,-100.68"/>
</g>
<!-- Node33&#45;&gt;Node14 -->
<g id="edge36" class="edge">
<title>Node33&#45;&gt;Node14</title>
<path fill="none" stroke="midnightblue" d="M402.08,-19.58C406.58,-22.04 410.68,-25.13 414,-29 480.8,-106.86 386.31,-176.57 450,-257 453.14,-260.97 457.24,-264.11 461.71,-266.6"/>
</g>
<!-- Node33&#45;&gt;Node15 -->
<g id="edge39" class="edge">
<title>Node33&#45;&gt;Node15</title>
<path fill="none" stroke="midnightblue" d="M401.21,-19.53C405.98,-22 410.39,-25.1 414,-29 461.18,-79.93 404.87,-128.25 450,-181 454.42,-186.17 460.47,-189.95 466.73,-192.71"/>
</g>
<!-- Node33&#45;&gt;Node16 -->
<g id="edge37" class="edge">
<title>Node33&#45;&gt;Node16</title>
<path fill="none" stroke="midnightblue" d="M399.84,-19.58C405.02,-22.03 409.91,-25.12 414,-29 446.76,-60.07 423.62,-87.36 450,-124 458.28,-135.51 470.89,-145.51 480.89,-152.36"/>
</g>
<!-- Node33&#45;&gt;Node17 -->
<g id="edge38" class="edge">
<title>Node33&#45;&gt;Node17</title>
<path fill="none" stroke="midnightblue" d="M393.01,-19.58C400.23,-22.12 407.53,-25.24 414,-29 445.48,-47.31 474.99,-79.42 488.61,-95.4"/>
</g>
</g>
</svg>
