<?xml version="1.0" encoding="UTF-8" standalone="no"?>
<!DOCTYPE svg PUBLIC "-//W3C//DTD SVG 1.1//EN"
 "http://www.w3.org/Graphics/SVG/1.1/DTD/svg11.dtd">
<!-- Generated by graphviz version 2.43.0 (0)
 -->
<!-- Title: readRnxH Pages: 1 -->
<svg width="394pt" height="248pt"
 viewBox="0.00 0.00 394.00 247.73" xmlns="http://www.w3.org/2000/svg" xmlns:xlink="http://www.w3.org/1999/xlink">
<g id="graph0" class="graph" transform="scale(1 1) rotate(0) translate(4 243.73)">
<title>readRnxH</title>
<polygon fill="white" stroke="transparent" points="-4,4 -4,-243.73 390,-243.73 390,4 -4,4"/>
<!-- Node1 -->
<g id="node1" class="node">
<title>Node1</title>
<g id="a_node1"><a xlink:title="Read rinex header.">
<polygon fill="#bfbfbf" stroke="black" points="0,-114.5 0,-133.5 65,-133.5 65,-114.5 0,-114.5"/>
<text text-anchor="middle" x="32.5" y="-121.5" font-family="Helvetica,sans-Serif" font-size="10.00">readRnxH</text>
</a>
</g>
</g>
<!-- Node2 -->
<g id="node2" class="node">
<title>Node2</title>
<g id="a_node2"><a xlink:href="gTime_8cpp.html#aca21817ee2127e89013ae4252c5f9abe" target="_top" xlink:title=" ">
<polygon fill="white" stroke="black" points="292.5,-76.5 292.5,-95.5 349.5,-95.5 349.5,-76.5 292.5,-76.5"/>
<text text-anchor="middle" x="321" y="-83.5" font-family="Helvetica,sans-Serif" font-size="10.00">str2num</text>
</a>
</g>
</g>
<!-- Node1&#45;&gt;Node2 -->
<g id="edge1" class="edge">
<title>Node1&#45;&gt;Node2</title>
<path fill="none" stroke="midnightblue" d="M36.84,-133.59C44.49,-153.84 65.4,-200.62 101,-219 148,-243.26 176.48,-249.05 220,-219 257.16,-193.35 226.96,-158.57 256,-124 266.64,-111.33 282.64,-101.83 295.98,-95.5"/>
</g>
<!-- Node3 -->
<g id="node3" class="node">
<title>Node3</title>
<g id="a_node3"><a xlink:href="structSatSys.html#a60ae5bbbceb1c203cab6a6bc0d8e12df" target="_top" xlink:title=" ">
<polygon fill="white" stroke="red" points="101,-190.5 101,-209.5 220,-209.5 220,-190.5 101,-190.5"/>
<text text-anchor="middle" x="160.5" y="-197.5" font-family="Helvetica,sans-Serif" font-size="10.00">SatSys::sysFromChar</text>
</a>
</g>
</g>
<!-- Node1&#45;&gt;Node3 -->
<g id="edge2" class="edge">
<title>Node1&#45;&gt;Node3</title>
<path fill="none" stroke="midnightblue" d="M44.31,-133.81C57.13,-145.07 79.47,-163.59 101,-176 110.7,-181.59 121.96,-186.54 131.99,-190.46"/>
</g>
<!-- Node5 -->
<g id="node4" class="node">
<title>Node5</title>
<g id="a_node4"><a xlink:href="structACSConfig.html#a883b2b26e906c5fa7469a81b05524b8d" target="_top" xlink:title="Set receiver options for a specific receiver using a hierarchy of sources.">
<polygon fill="white" stroke="red" points="256,-133.5 256,-152.5 386,-152.5 386,-133.5 256,-133.5"/>
<text text-anchor="middle" x="321" y="-140.5" font-family="Helvetica,sans-Serif" font-size="10.00">ACSConfig::getRecOpts</text>
</a>
</g>
</g>
<!-- Node1&#45;&gt;Node5 -->
<g id="edge3" class="edge">
<title>Node1&#45;&gt;Node5</title>
<path fill="none" stroke="midnightblue" d="M60.72,-133.5C72.88,-137.27 87.49,-141.14 101,-143 152.79,-150.15 212.12,-149.62 255.96,-147.6"/>
</g>
<!-- Node17 -->
<g id="node5" class="node">
<title>Node17</title>
<g id="a_node5"><a xlink:href="rinex_8cpp.html#af70972b806e723e3d028ddc8058d3998" target="_top" xlink:title="Decode obs header.">
<polygon fill="white" stroke="red" points="121.5,-114.5 121.5,-133.5 199.5,-133.5 199.5,-114.5 121.5,-114.5"/>
<text text-anchor="middle" x="160.5" y="-121.5" font-family="Helvetica,sans-Serif" font-size="10.00">decodeObsH</text>
</a>
</g>
</g>
<!-- Node1&#45;&gt;Node17 -->
<g id="edge4" class="edge">
<title>Node1&#45;&gt;Node17</title>
<path fill="none" stroke="midnightblue" d="M65.3,-124C82.35,-124 103.5,-124 121.43,-124"/>
</g>
<!-- Node19 -->
<g id="node6" class="node">
<title>Node19</title>
<g id="a_node6"><a xlink:href="rinex_8cpp.html#a7a60f187ca9defbaa801f242efb7f18b" target="_top" xlink:title="Decode nav header.">
<polygon fill="white" stroke="black" points="121,-76.5 121,-95.5 200,-95.5 200,-76.5 121,-76.5"/>
<text text-anchor="middle" x="160.5" y="-83.5" font-family="Helvetica,sans-Serif" font-size="10.00">decodeNavH</text>
</a>
</g>
</g>
<!-- Node1&#45;&gt;Node19 -->
<g id="edge7" class="edge">
<title>Node1&#45;&gt;Node19</title>
<path fill="none" stroke="midnightblue" d="M65.3,-114.41C84.4,-108.65 108.62,-101.35 127.72,-95.59"/>
</g>
<!-- Node20 -->
<g id="node7" class="node">
<title>Node20</title>
<g id="a_node7"><a xlink:href="rinex_8cpp.html#a3ae01240baac2b9246e1d1f4ad068eaf" target="_top" xlink:title="Decode gnav header.">
<polygon fill="white" stroke="black" points="118,-38.5 118,-57.5 203,-57.5 203,-38.5 118,-38.5"/>
<text text-anchor="middle" x="160.5" y="-45.5" font-family="Helvetica,sans-Serif" font-size="10.00">decodeGnavH</text>
</a>
</g>
</g>
<!-- Node1&#45;&gt;Node20 -->
<g id="edge9" class="edge">
<title>Node1&#45;&gt;Node20</title>
<path fill="none" stroke="midnightblue" d="M42.66,-114.2C54.88,-101.64 77.68,-79.97 101,-67 107.72,-63.26 115.29,-60.12 122.69,-57.54"/>
</g>
<!-- Node21 -->
<g id="node8" class="node">
<title>Node21</title>
<g id="a_node8"><a xlink:href="rinex_8cpp.html#aeb9ed7a2f9c56ac369434c213abaed3e" target="_top" xlink:title="Decode geo nav header.">
<polygon fill="white" stroke="black" points="118,-0.5 118,-19.5 203,-19.5 203,-0.5 118,-0.5"/>
<text text-anchor="middle" x="160.5" y="-7.5" font-family="Helvetica,sans-Serif" font-size="10.00">decodeHnavH</text>
</a>
</g>
</g>
<!-- Node1&#45;&gt;Node21 -->
<g id="edge11" class="edge">
<title>Node1&#45;&gt;Node21</title>
<path fill="none" stroke="midnightblue" d="M37.76,-114.37C46.68,-95.25 69.2,-52.36 101,-29 106.25,-25.14 112.32,-22.05 118.52,-19.57"/>
</g>
<!-- Node17&#45;&gt;Node2 -->
<g id="edge6" class="edge">
<title>Node17&#45;&gt;Node2</title>
<path fill="none" stroke="midnightblue" d="M199.87,-114.8C228.45,-107.95 266.81,-98.75 292.41,-92.61"/>
</g>
<!-- Node17&#45;&gt;Node5 -->
<g id="edge5" class="edge">
<title>Node17&#45;&gt;Node5</title>
<path fill="none" stroke="midnightblue" d="M199.87,-128.6C216.63,-130.61 236.76,-133.02 255.71,-135.29"/>
</g>
<!-- Node19&#45;&gt;Node2 -->
<g id="edge8" class="edge">
<title>Node19&#45;&gt;Node2</title>
<path fill="none" stroke="midnightblue" d="M200.27,-86C228.68,-86 266.58,-86 292.06,-86"/>
</g>
<!-- Node20&#45;&gt;Node2 -->
<g id="edge10" class="edge">
<title>Node20&#45;&gt;Node2</title>
<path fill="none" stroke="midnightblue" d="M201.5,-57.59C229.93,-64.4 267.37,-73.38 292.49,-79.41"/>
</g>
<!-- Node21&#45;&gt;Node2 -->
<g id="edge12" class="edge">
<title>Node21&#45;&gt;Node2</title>
<path fill="none" stroke="midnightblue" d="M195.04,-19.6C203.33,-22.32 212.09,-25.5 220,-29 251.62,-42.97 286.17,-64.09 305.25,-76.32"/>
</g>
</g>
</svg>
