<?xml version="1.0" encoding="UTF-8" standalone="no"?>
<!DOCTYPE svg PUBLIC "-//W3C//DTD SVG 1.1//EN"
 "http://www.w3.org/Graphics/SVG/1.1/DTD/svg11.dtd">
<!-- Generated by graphviz version 2.43.0 (0)
 -->
<!-- Title: updateRinexObsHeader Pages: 1 -->
<svg width="439pt" height="47pt"
 viewBox="0.00 0.00 439.00 47.00" xmlns="http://www.w3.org/2000/svg" xmlns:xlink="http://www.w3.org/1999/xlink">
<g id="graph0" class="graph" transform="scale(1 1) rotate(0) translate(4 43)">
<title>updateRinexObsHeader</title>
<polygon fill="white" stroke="transparent" points="-4,4 -4,-43 435,-43 435,4 -4,4"/>
<!-- Node1 -->
<g id="node1" class="node">
<title>Node1</title>
<g id="a_node1"><a xlink:title=" ">
<polygon fill="#bfbfbf" stroke="black" points="299,-0.5 299,-19.5 431,-19.5 431,-0.5 299,-0.5"/>
<text text-anchor="middle" x="365" y="-7.5" font-family="Helvetica,sans-Serif" font-size="10.00">updateRinexObsHeader</text>
</a>
</g>
</g>
<!-- Node2 -->
<g id="node2" class="node">
<title>Node2</title>
<g id="a_node2"><a xlink:href="rinexObsWrite_8cpp.html#a17ede47eaf17a5f797910579288b6904" target="_top" xlink:title=" ">
<polygon fill="white" stroke="black" points="140,-19.5 140,-38.5 263,-38.5 263,-19.5 140,-19.5"/>
<text text-anchor="middle" x="201.5" y="-26.5" font-family="Helvetica,sans-Serif" font-size="10.00">writeRinexObsHeader</text>
</a>
</g>
</g>
<!-- Node1&#45;&gt;Node2 -->
<g id="edge1" class="edge">
<title>Node1&#45;&gt;Node2</title>
<path fill="none" stroke="midnightblue" d="M298.78,-17.67C286.96,-19.06 274.68,-20.51 263,-21.88"/>
</g>
<!-- Node3 -->
<g id="node3" class="node">
<title>Node3</title>
<g id="a_node3"><a xlink:href="rinexObsWrite_8cpp.html#a865821cc644cd889c68bd7ae1055dc3d" target="_top" xlink:title=" ">
<polygon fill="white" stroke="red" points="0,-0.5 0,-19.5 104,-19.5 104,-0.5 0,-0.5"/>
<text text-anchor="middle" x="52" y="-7.5" font-family="Helvetica,sans-Serif" font-size="10.00">writeRinexObsFile</text>
</a>
</g>
</g>
<!-- Node1&#45;&gt;Node3 -->
<g id="edge3" class="edge">
<title>Node1&#45;&gt;Node3</title>
<path fill="none" stroke="midnightblue" d="M298.8,-10C240.92,-10 157.48,-10 104.25,-10"/>
</g>
<!-- Node2&#45;&gt;Node3 -->
<g id="edge2" class="edge">
<title>Node2&#45;&gt;Node3</title>
<path fill="none" stroke="midnightblue" d="M139.65,-21.16C127.91,-19.65 115.71,-18.08 104.31,-16.61"/>
</g>
</g>
</svg>
