<?xml version="1.0" encoding="UTF-8" standalone="no"?>
<!DOCTYPE svg PUBLIC "-//W3C//DTD SVG 1.1//EN"
 "http://www.w3.org/Graphics/SVG/1.1/DTD/svg11.dtd">
<!-- Generated by graphviz version 2.43.0 (0)
 -->
<!-- Title: writeRinexObsFile Pages: 1 -->
<svg width="447pt" height="180pt"
 viewBox="0.00 0.00 447.00 180.00" xmlns="http://www.w3.org/2000/svg" xmlns:xlink="http://www.w3.org/1999/xlink">
<g id="graph0" class="graph" transform="scale(1 1) rotate(0) translate(4 176)">
<title>writeRinexObsFile</title>
<polygon fill="white" stroke="transparent" points="-4,4 -4,-176 443,-176 443,4 -4,4"/>
<!-- Node1 -->
<g id="node1" class="node">
<title>Node1</title>
<g id="a_node1"><a xlink:title=" ">
<polygon fill="#bfbfbf" stroke="black" points="0,-76.5 0,-95.5 105,-95.5 105,-76.5 0,-76.5"/>
<text text-anchor="middle" x="52.5" y="-83.5" font-family="Helvetica,sans-Serif" font-size="10.00">writeRinexObsFile</text>
</a>
</g>
</g>
<!-- Node2 -->
<g id="node2" class="node">
<title>Node2</title>
<g id="a_node2"><a xlink:href="rinexObsWrite_8cpp.html#a7392cc91a14f17ab70dd83c89365d9b2" target="_top" xlink:title=" ">
<polygon fill="white" stroke="black" points="164.5,-152.5 164.5,-171.5 247.5,-171.5 247.5,-152.5 164.5,-152.5"/>
<text text-anchor="middle" x="206" y="-159.5" font-family="Helvetica,sans-Serif" font-size="10.00">rinexSysDesc</text>
</a>
</g>
</g>
<!-- Node1&#45;&gt;Node2 -->
<g id="edge1" class="edge">
<title>Node1&#45;&gt;Node2</title>
<path fill="none" stroke="midnightblue" d="M65.59,-95.51C81.89,-107.94 112.2,-129.69 141,-143 145.93,-145.28 151.2,-147.36 156.52,-149.24"/>
<polygon fill="midnightblue" stroke="midnightblue" points="155.5,-152.59 166.09,-152.41 157.7,-145.94 155.5,-152.59"/>
</g>
<!-- Node3 -->
<g id="node3" class="node">
<title>Node3</title>
<g id="a_node3"><a xlink:href="rinexObsWrite_8cpp.html#a138826753b7db440e1a7a4b24c48b418" target="_top" xlink:title=" ">
<polygon fill="white" stroke="black" points="141,-114.5 141,-133.5 271,-133.5 271,-114.5 141,-114.5"/>
<text text-anchor="middle" x="206" y="-121.5" font-family="Helvetica,sans-Serif" font-size="10.00">updateRinexObsOutput</text>
</a>
</g>
</g>
<!-- Node1&#45;&gt;Node3 -->
<g id="edge2" class="edge">
<title>Node1&#45;&gt;Node3</title>
<path fill="none" stroke="midnightblue" d="M91.73,-95.59C111.63,-100.58 136.16,-106.73 157.29,-112.03"/>
<polygon fill="midnightblue" stroke="midnightblue" points="156.49,-115.44 167.05,-114.48 158.2,-108.65 156.49,-115.44"/>
</g>
<!-- Node4 -->
<g id="node4" class="node">
<title>Node4</title>
<g id="a_node4"><a xlink:href="rinexObsWrite_8cpp.html#a17ede47eaf17a5f797910579288b6904" target="_top" xlink:title=" ">
<polygon fill="white" stroke="red" points="144.5,-76.5 144.5,-95.5 267.5,-95.5 267.5,-76.5 144.5,-76.5"/>
<text text-anchor="middle" x="206" y="-83.5" font-family="Helvetica,sans-Serif" font-size="10.00">writeRinexObsHeader</text>
</a>
</g>
</g>
<!-- Node1&#45;&gt;Node4 -->
<g id="edge3" class="edge">
<title>Node1&#45;&gt;Node4</title>
<path fill="none" stroke="midnightblue" d="M105.21,-86C114.57,-86 124.46,-86 134.25,-86"/>
<polygon fill="midnightblue" stroke="midnightblue" points="134.38,-89.5 144.38,-86 134.38,-82.5 134.38,-89.5"/>
</g>
<!-- Node9 -->
<g id="node5" class="node">
<title>Node9</title>
<g id="a_node5"><a xlink:href="rinexObsWrite_8cpp.html#ab1a7a3d3255b546c3cea605eb2ea87cb" target="_top" xlink:title=" ">
<polygon fill="white" stroke="red" points="307,-57.5 307,-76.5 439,-76.5 439,-57.5 307,-57.5"/>
<text text-anchor="middle" x="373" y="-64.5" font-family="Helvetica,sans-Serif" font-size="10.00">updateRinexObsHeader</text>
</a>
</g>
</g>
<!-- Node1&#45;&gt;Node9 -->
<g id="edge5" class="edge">
<title>Node1&#45;&gt;Node9</title>
<path fill="none" stroke="midnightblue" d="M88.98,-76.49C104.78,-72.73 123.69,-68.86 141,-67 192.71,-61.45 251.32,-61.52 296.56,-62.95"/>
<polygon fill="midnightblue" stroke="midnightblue" points="296.47,-66.45 306.58,-63.29 296.71,-59.45 296.47,-66.45"/>
</g>
<!-- Node10 -->
<g id="node6" class="node">
<title>Node10</title>
<g id="a_node6"><a xlink:href="rinexObsWrite_8cpp.html#ab174c6561b64f3ba323b1ea016fd5fa9" target="_top" xlink:title=" ">
<polygon fill="white" stroke="red" points="149.5,-0.5 149.5,-19.5 262.5,-19.5 262.5,-0.5 149.5,-0.5"/>
<text text-anchor="middle" x="206" y="-7.5" font-family="Helvetica,sans-Serif" font-size="10.00">writeRinexObsBody</text>
</a>
</g>
</g>
<!-- Node1&#45;&gt;Node10 -->
<g id="edge6" class="edge">
<title>Node1&#45;&gt;Node10</title>
<path fill="none" stroke="midnightblue" d="M67.92,-76.34C84.92,-65.23 114.24,-46.85 141,-34 149.16,-30.08 158.14,-26.37 166.73,-23.08"/>
<polygon fill="midnightblue" stroke="midnightblue" points="168.04,-26.33 176.19,-19.57 165.6,-19.77 168.04,-26.33"/>
</g>
<!-- Node4&#45;&gt;Node9 -->
<g id="edge4" class="edge">
<title>Node4&#45;&gt;Node9</title>
<path fill="none" stroke="midnightblue" d="M267.5,-79.03C276.99,-77.94 286.9,-76.8 296.67,-75.67"/>
<polygon fill="midnightblue" stroke="midnightblue" points="297.25,-79.13 306.78,-74.51 296.45,-72.18 297.25,-79.13"/>
</g>
</g>
</svg>
