<?xml version="1.0" encoding="UTF-8" standalone="no"?>
<!DOCTYPE svg PUBLIC "-//W3C//DTD SVG 1.1//EN"
 "http://www.w3.org/Graphics/SVG/1.1/DTD/svg11.dtd">
<!-- Generated by graphviz version 2.43.0 (0)
 -->
<!-- Title: rinexSysDesc Pages: 1 -->
<svg width="270pt" height="104pt"
 viewBox="0.00 0.00 270.00 104.00" xmlns="http://www.w3.org/2000/svg" xmlns:xlink="http://www.w3.org/1999/xlink">
<g id="graph0" class="graph" transform="scale(1 1) rotate(0) translate(4 100)">
<title>rinexSysDesc</title>
<polygon fill="white" stroke="transparent" points="-4,4 -4,-100 266,-100 266,4 -4,4"/>
<!-- Node1 -->
<g id="node1" class="node">
<title>Node1</title>
<g id="a_node1"><a xlink:title=" ">
<polygon fill="#bfbfbf" stroke="black" points="179,-38.5 179,-57.5 262,-57.5 262,-38.5 179,-38.5"/>
<text text-anchor="middle" x="220.5" y="-45.5" font-family="Helvetica,sans-Serif" font-size="10.00">rinexSysDesc</text>
</a>
</g>
</g>
<!-- Node2 -->
<g id="node2" class="node">
<title>Node2</title>
<g id="a_node2"><a xlink:href="rinexClkWrite_8cpp.html#ae67942b9871d6150658c61b0a205d23c" target="_top" xlink:title=" ">
<polygon fill="white" stroke="red" points="0,-76.5 0,-95.5 143,-95.5 143,-76.5 0,-76.5"/>
<text text-anchor="middle" x="71.5" y="-83.5" font-family="Helvetica,sans-Serif" font-size="10.00">outputRinexClocksHeader</text>
</a>
</g>
</g>
<!-- Node1&#45;&gt;Node2 -->
<g id="edge1" class="edge">
<title>Node1&#45;&gt;Node2</title>
<path fill="none" stroke="midnightblue" d="M172.65,-60.11C152.17,-65.4 128.51,-71.52 109.33,-76.48"/>
<polygon fill="midnightblue" stroke="midnightblue" points="173.6,-63.48 182.41,-57.59 171.85,-56.7 173.6,-63.48"/>
</g>
<!-- Node13 -->
<g id="node3" class="node">
<title>Node13</title>
<g id="a_node3"><a xlink:href="rinexNavWrite_8cpp.html#aaab5fb708037f164d86cfa62039eb845" target="_top" xlink:title=" ">
<polygon fill="white" stroke="red" points="23.5,-38.5 23.5,-57.5 119.5,-57.5 119.5,-38.5 23.5,-38.5"/>
<text text-anchor="middle" x="71.5" y="-45.5" font-family="Helvetica,sans-Serif" font-size="10.00">rinexNavHeader</text>
</a>
</g>
</g>
<!-- Node1&#45;&gt;Node13 -->
<g id="edge2" class="edge">
<title>Node1&#45;&gt;Node13</title>
<path fill="none" stroke="midnightblue" d="M168.75,-48C152.84,-48 135.34,-48 119.69,-48"/>
<polygon fill="midnightblue" stroke="midnightblue" points="168.94,-51.5 178.94,-48 168.94,-44.5 168.94,-51.5"/>
</g>
<!-- Node16 -->
<g id="node4" class="node">
<title>Node16</title>
<g id="a_node4"><a xlink:href="rinexObsWrite_8cpp.html#a865821cc644cd889c68bd7ae1055dc3d" target="_top" xlink:title=" ">
<polygon fill="white" stroke="red" points="19,-0.5 19,-19.5 124,-19.5 124,-0.5 19,-0.5"/>
<text text-anchor="middle" x="71.5" y="-7.5" font-family="Helvetica,sans-Serif" font-size="10.00">writeRinexObsFile</text>
</a>
</g>
</g>
<!-- Node1&#45;&gt;Node16 -->
<g id="edge3" class="edge">
<title>Node1&#45;&gt;Node16</title>
<path fill="none" stroke="midnightblue" d="M172.65,-35.89C152.17,-30.6 128.51,-24.48 109.33,-19.52"/>
<polygon fill="midnightblue" stroke="midnightblue" points="171.85,-39.3 182.41,-38.41 173.6,-32.52 171.85,-39.3"/>
</g>
</g>
</svg>
