<?xml version="1.0" encoding="UTF-8" standalone="no"?>
<!DOCTYPE svg PUBLIC "-//W3C//DTD SVG 1.1//EN"
 "http://www.w3.org/Graphics/SVG/1.1/DTD/svg11.dtd">
<!-- Generated by graphviz version 2.43.0 (0)
 -->
<!-- Title: readrnxnavb Pages: 1 -->
<svg width="199pt" height="332pt"
 viewBox="0.00 0.00 199.00 332.00" xmlns="http://www.w3.org/2000/svg" xmlns:xlink="http://www.w3.org/1999/xlink">
<g id="graph0" class="graph" transform="scale(1 1) rotate(0) translate(4 328)">
<title>readrnxnavb</title>
<polygon fill="white" stroke="transparent" points="-4,4 -4,-328 195,-328 195,4 -4,4"/>
<!-- Node1 -->
<g id="node1" class="node">
<title>Node1</title>
<g id="a_node1"><a xlink:title="Read rinex navigation data body.">
<polygon fill="#bfbfbf" stroke="black" points="0,-152.5 0,-171.5 78,-171.5 78,-152.5 0,-152.5"/>
<text text-anchor="middle" x="39" y="-159.5" font-family="Helvetica,sans-Serif" font-size="10.00">readrnxnavb</text>
</a>
</g>
</g>
<!-- Node2 -->
<g id="node2" class="node">
<title>Node2</title>
<g id="a_node2"><a xlink:href="gTime_8cpp.html#aca21817ee2127e89013ae4252c5f9abe" target="_top" xlink:title=" ">
<polygon fill="white" stroke="black" points="124,-304.5 124,-323.5 181,-323.5 181,-304.5 124,-304.5"/>
<text text-anchor="middle" x="152.5" y="-311.5" font-family="Helvetica,sans-Serif" font-size="10.00">str2num</text>
</a>
</g>
</g>
<!-- Node1&#45;&gt;Node2 -->
<g id="edge1" class="edge">
<title>Node1&#45;&gt;Node2</title>
<path fill="none" stroke="midnightblue" d="M43.11,-171.61C51.23,-195.36 75.15,-257.63 114,-295 117.79,-298.64 122.41,-301.74 127.1,-304.31"/>
</g>
<!-- Node3 -->
<g id="node3" class="node">
<title>Node3</title>
<g id="a_node3"><a xlink:href="gTime_8cpp.html#a2c095eb9298cdfa2742bfc37ad2a0148" target="_top" xlink:title=" ">
<polygon fill="white" stroke="red" points="123.5,-266.5 123.5,-285.5 181.5,-285.5 181.5,-266.5 123.5,-266.5"/>
<text text-anchor="middle" x="152.5" y="-273.5" font-family="Helvetica,sans-Serif" font-size="10.00">str2time</text>
</a>
</g>
</g>
<!-- Node1&#45;&gt;Node3 -->
<g id="edge2" class="edge">
<title>Node1&#45;&gt;Node3</title>
<path fill="none" stroke="midnightblue" d="M45.58,-171.77C56.61,-190.38 82.86,-231.35 114,-257 118.39,-260.62 123.59,-263.8 128.7,-266.47"/>
</g>
<!-- Node5 -->
<g id="node4" class="node">
<title>Node5</title>
<g id="a_node4"><a xlink:href="rinex_8cpp.html#a49860903ba3deda27374072016e16fbb" target="_top" xlink:title="Decode CNVX ephemeris.">
<polygon fill="white" stroke="red" points="114,-228.5 114,-247.5 191,-247.5 191,-228.5 114,-228.5"/>
<text text-anchor="middle" x="152.5" y="-235.5" font-family="Helvetica,sans-Serif" font-size="10.00">decodeCeph</text>
</a>
</g>
</g>
<!-- Node1&#45;&gt;Node5 -->
<g id="edge3" class="edge">
<title>Node1&#45;&gt;Node5</title>
<path fill="none" stroke="midnightblue" d="M51.05,-171.58C65.11,-183.51 90.41,-204.12 114,-219 119.31,-222.35 125.28,-225.59 130.88,-228.42"/>
</g>
<!-- Node15 -->
<g id="node5" class="node">
<title>Node15</title>
<g id="a_node5"><a xlink:href="rinex_8cpp.html#a30b3cdcd487d258c340534e7ddbde2e1" target="_top" xlink:title="Decode glonass ephemeris.">
<polygon fill="white" stroke="red" points="114,-190.5 114,-209.5 191,-209.5 191,-190.5 114,-190.5"/>
<text text-anchor="middle" x="152.5" y="-197.5" font-family="Helvetica,sans-Serif" font-size="10.00">decodeGeph</text>
</a>
</g>
</g>
<!-- Node1&#45;&gt;Node15 -->
<g id="edge4" class="edge">
<title>Node1&#45;&gt;Node15</title>
<path fill="none" stroke="midnightblue" d="M68.14,-171.59C85.04,-177.35 106.47,-184.65 123.37,-190.41"/>
</g>
<!-- Node18 -->
<g id="node6" class="node">
<title>Node18</title>
<g id="a_node6"><a xlink:href="rinex_8cpp.html#a6613c8a15b270944e8f29ebf0357c3b0" target="_top" xlink:title="Decode geo ephemeris.">
<polygon fill="white" stroke="red" points="114.5,-152.5 114.5,-171.5 190.5,-171.5 190.5,-152.5 114.5,-152.5"/>
<text text-anchor="middle" x="152.5" y="-159.5" font-family="Helvetica,sans-Serif" font-size="10.00">decodeSeph</text>
</a>
</g>
</g>
<!-- Node1&#45;&gt;Node18 -->
<g id="edge5" class="edge">
<title>Node1&#45;&gt;Node18</title>
<path fill="none" stroke="midnightblue" d="M78.06,-162C89.79,-162 102.7,-162 114.37,-162"/>
</g>
<!-- Node20 -->
<g id="node7" class="node">
<title>Node20</title>
<g id="a_node7"><a xlink:href="rinex_8cpp.html#ae3132fbeb0a7c18e3316f143ae063998" target="_top" xlink:title="Decode ephemeris.">
<polygon fill="white" stroke="red" points="117.5,-114.5 117.5,-133.5 187.5,-133.5 187.5,-114.5 117.5,-114.5"/>
<text text-anchor="middle" x="152.5" y="-121.5" font-family="Helvetica,sans-Serif" font-size="10.00">decodeEph</text>
</a>
</g>
</g>
<!-- Node1&#45;&gt;Node20 -->
<g id="edge6" class="edge">
<title>Node1&#45;&gt;Node20</title>
<path fill="none" stroke="midnightblue" d="M68.14,-152.41C85.04,-146.65 106.47,-139.35 123.37,-133.59"/>
</g>
<!-- Node26 -->
<g id="node8" class="node">
<title>Node26</title>
<g id="a_node8"><a xlink:href="rinex_8cpp.html#abf5c2200567764637e86c93fa34ea658" target="_top" xlink:title="Decode STO message.">
<polygon fill="white" stroke="red" points="118.5,-76.5 118.5,-95.5 186.5,-95.5 186.5,-76.5 118.5,-76.5"/>
<text text-anchor="middle" x="152.5" y="-83.5" font-family="Helvetica,sans-Serif" font-size="10.00">decodeSto</text>
</a>
</g>
</g>
<!-- Node1&#45;&gt;Node26 -->
<g id="edge7" class="edge">
<title>Node1&#45;&gt;Node26</title>
<path fill="none" stroke="midnightblue" d="M51.05,-152.42C65.11,-140.49 90.41,-119.88 114,-105 119.31,-101.65 125.28,-98.41 130.88,-95.58"/>
</g>
<!-- Node27 -->
<g id="node9" class="node">
<title>Node27</title>
<g id="a_node9"><a xlink:href="rinex_8cpp.html#a47e197e8bad4103334d186f5fde306eb" target="_top" xlink:title="Decode EOP message.">
<polygon fill="white" stroke="red" points="117.5,-38.5 117.5,-57.5 187.5,-57.5 187.5,-38.5 117.5,-38.5"/>
<text text-anchor="middle" x="152.5" y="-45.5" font-family="Helvetica,sans-Serif" font-size="10.00">decodeEop</text>
</a>
</g>
</g>
<!-- Node1&#45;&gt;Node27 -->
<g id="edge8" class="edge">
<title>Node1&#45;&gt;Node27</title>
<path fill="none" stroke="midnightblue" d="M45.58,-152.23C56.61,-133.62 82.86,-92.65 114,-67 118.39,-63.38 123.59,-60.2 128.7,-57.53"/>
</g>
<!-- Node28 -->
<g id="node10" class="node">
<title>Node28</title>
<g id="a_node10"><a xlink:href="rinex_8cpp.html#afc14d56bbd6b9fe0ced3dfc102fcc6a8" target="_top" xlink:title="Decode ION message.">
<polygon fill="white" stroke="red" points="119,-0.5 119,-19.5 186,-19.5 186,-0.5 119,-0.5"/>
<text text-anchor="middle" x="152.5" y="-7.5" font-family="Helvetica,sans-Serif" font-size="10.00">decodeIon</text>
</a>
</g>
</g>
<!-- Node1&#45;&gt;Node28 -->
<g id="edge9" class="edge">
<title>Node1&#45;&gt;Node28</title>
<path fill="none" stroke="midnightblue" d="M43.11,-152.39C51.23,-128.64 75.15,-66.37 114,-29 117.79,-25.36 122.41,-22.26 127.1,-19.69"/>
</g>
</g>
</svg>
