<?xml version="1.0" encoding="UTF-8" standalone="no"?>
<!DOCTYPE svg PUBLIC "-//W3C//DTD SVG 1.1//EN"
 "http://www.w3.org/Graphics/SVG/1.1/DTD/svg11.dtd">
<!-- Generated by graphviz version 2.43.0 (0)
 -->
<!-- Title: outputNavRinexCeph Pages: 1 -->
<svg width="384pt" height="121pt"
 viewBox="0.00 0.00 384.00 121.34" xmlns="http://www.w3.org/2000/svg" xmlns:xlink="http://www.w3.org/1999/xlink">
<g id="graph0" class="graph" transform="scale(1 1) rotate(0) translate(4 117.34)">
<title>outputNavRinexCeph</title>
<polygon fill="white" stroke="transparent" points="-4,4 -4,-117.34 380,-117.34 380,4 -4,4"/>
<!-- Node1 -->
<g id="node1" class="node">
<title>Node1</title>
<g id="a_node1"><a xlink:title=" ">
<polygon fill="#bfbfbf" stroke="black" points="0,-57.5 0,-76.5 120,-76.5 120,-57.5 0,-57.5"/>
<text text-anchor="middle" x="60" y="-64.5" font-family="Helvetica,sans-Serif" font-size="10.00">outputNavRinexCeph</text>
</a>
</g>
</g>
<!-- Node2 -->
<g id="node2" class="node">
<title>Node2</title>
<g id="a_node2"><a xlink:href="trace_8cpp.html#ae00e6addd3bdf3a7fd41a254eb9aec89" target="_top" xlink:title=" ">
<polygon fill="white" stroke="black" points="305,-57.5 305,-76.5 376,-76.5 376,-57.5 305,-57.5"/>
<text text-anchor="middle" x="340.5" y="-64.5" font-family="Helvetica,sans-Serif" font-size="10.00">tracepdeex</text>
</a>
</g>
</g>
<!-- Node1&#45;&gt;Node2 -->
<g id="edge1" class="edge">
<title>Node1&#45;&gt;Node2</title>
<path fill="none" stroke="midnightblue" d="M78.94,-76.58C97.58,-85.96 127.92,-99.59 156,-105 205.32,-114.5 220.3,-117.29 269,-105 290.57,-99.56 312.72,-86.07 326.29,-76.73"/>
</g>
<!-- Node3 -->
<g id="node3" class="node">
<title>Node3</title>
<g id="a_node3"><a xlink:href="structSatSys.html#aec6d07b90d1e8172b8b6a6966abef4fd" target="_top" xlink:title="Returns a std::string of this satellite&#39;s id.">
<polygon fill="white" stroke="red" points="180,-76.5 180,-95.5 245,-95.5 245,-76.5 180,-76.5"/>
<text text-anchor="middle" x="212.5" y="-83.5" font-family="Helvetica,sans-Serif" font-size="10.00">SatSys::id</text>
</a>
</g>
</g>
<!-- Node1&#45;&gt;Node3 -->
<g id="edge2" class="edge">
<title>Node1&#45;&gt;Node3</title>
<path fill="none" stroke="midnightblue" d="M120.05,-74.45C140.47,-77.03 162.57,-79.82 179.92,-82.01"/>
</g>
<!-- Node6 -->
<g id="node4" class="node">
<title>Node6</title>
<g id="a_node4"><a xlink:href="gTime_8cpp.html#a210bda8e07fa8a70ce6c79948e42efe0" target="_top" xlink:title=" ">
<polygon fill="white" stroke="black" points="175.5,-38.5 175.5,-57.5 249.5,-57.5 249.5,-38.5 175.5,-38.5"/>
<text text-anchor="middle" x="212.5" y="-45.5" font-family="Helvetica,sans-Serif" font-size="10.00">time2epoch</text>
</a>
</g>
</g>
<!-- Node1&#45;&gt;Node6 -->
<g id="edge3" class="edge">
<title>Node1&#45;&gt;Node6</title>
<path fill="none" stroke="midnightblue" d="M120.05,-59.55C138.66,-57.2 158.66,-54.67 175.2,-52.58"/>
</g>
<!-- Node7 -->
<g id="node5" class="node">
<title>Node7</title>
<g id="a_node5"><a xlink:href="trace_8cpp.html#a755e8144b75554c3f9f4407284f37437" target="_top" xlink:title=" ">
<polygon fill="white" stroke="black" points="156,-0.5 156,-19.5 269,-19.5 269,-0.5 156,-0.5"/>
<text text-anchor="middle" x="212.5" y="-7.5" font-family="Helvetica,sans-Serif" font-size="10.00">traceFormatedFloat</text>
</a>
</g>
</g>
<!-- Node1&#45;&gt;Node7 -->
<g id="edge4" class="edge">
<title>Node1&#45;&gt;Node7</title>
<path fill="none" stroke="midnightblue" d="M83.91,-57.46C103.07,-49.57 131.18,-38.2 156,-29 164.59,-25.81 174,-22.52 182.6,-19.59"/>
</g>
<!-- Node7&#45;&gt;Node2 -->
<g id="edge5" class="edge">
<title>Node7&#45;&gt;Node2</title>
<path fill="none" stroke="midnightblue" d="M244.38,-19.57C252.49,-22.35 261.16,-25.57 269,-29 288.37,-37.47 309.59,-49.27 323.64,-57.47"/>
</g>
</g>
</svg>
