<?xml version="1.0" encoding="UTF-8" standalone="no"?>
<!DOCTYPE svg PUBLIC "-//W3C//DTD SVG 1.1//EN"
 "http://www.w3.org/Graphics/SVG/1.1/DTD/svg11.dtd">
<!-- Generated by graphviz version 2.43.0 (0)
 -->
<!-- Title: decodeObsH Pages: 1 -->
<svg width="252pt" height="104pt"
 viewBox="0.00 0.00 252.00 104.00" xmlns="http://www.w3.org/2000/svg" xmlns:xlink="http://www.w3.org/1999/xlink">
<g id="graph0" class="graph" transform="scale(1 1) rotate(0) translate(4 100)">
<title>decodeObsH</title>
<polygon fill="white" stroke="transparent" points="-4,4 -4,-100 248,-100 248,4 -4,4"/>
<!-- Node1 -->
<g id="node1" class="node">
<title>Node1</title>
<g id="a_node1"><a xlink:title="Decode obs header.">
<polygon fill="#bfbfbf" stroke="black" points="0,-38.5 0,-57.5 78,-57.5 78,-38.5 0,-38.5"/>
<text text-anchor="middle" x="39" y="-45.5" font-family="Helvetica,sans-Serif" font-size="10.00">decodeObsH</text>
</a>
</g>
</g>
<!-- Node2 -->
<g id="node2" class="node">
<title>Node2</title>
<g id="a_node2"><a xlink:href="structACSConfig.html#a883b2b26e906c5fa7469a81b05524b8d" target="_top" xlink:title="Set receiver options for a specific receiver using a hierarchy of sources.">
<polygon fill="white" stroke="red" points="114,-76.5 114,-95.5 244,-95.5 244,-76.5 114,-76.5"/>
<text text-anchor="middle" x="179" y="-83.5" font-family="Helvetica,sans-Serif" font-size="10.00">ACSConfig::getRecOpts</text>
</a>
</g>
</g>
<!-- Node1&#45;&gt;Node2 -->
<g id="edge1" class="edge">
<title>Node1&#45;&gt;Node2</title>
<path fill="none" stroke="midnightblue" d="M74.82,-57.59C95.74,-63.35 122.27,-70.65 143.19,-76.41"/>
</g>
<!-- Node14 -->
<g id="node3" class="node">
<title>Node14</title>
<g id="a_node3"><a xlink:href="gTime_8cpp.html#aca21817ee2127e89013ae4252c5f9abe" target="_top" xlink:title=" ">
<polygon fill="white" stroke="black" points="150.5,-38.5 150.5,-57.5 207.5,-57.5 207.5,-38.5 150.5,-38.5"/>
<text text-anchor="middle" x="179" y="-45.5" font-family="Helvetica,sans-Serif" font-size="10.00">str2num</text>
</a>
</g>
</g>
<!-- Node1&#45;&gt;Node14 -->
<g id="edge2" class="edge">
<title>Node1&#45;&gt;Node14</title>
<path fill="none" stroke="midnightblue" d="M78.07,-48C100.89,-48 129.4,-48 150.12,-48"/>
</g>
<!-- Node15 -->
<g id="node4" class="node">
<title>Node15</title>
<g id="a_node4"><a xlink:href="rinex_8cpp.html#a6376198348c1ba8648f5bbe2ee58e4ab" target="_top" xlink:title="Set string without tail space.">
<polygon fill="white" stroke="black" points="157,-0.5 157,-19.5 201,-19.5 201,-0.5 157,-0.5"/>
<text text-anchor="middle" x="179" y="-7.5" font-family="Helvetica,sans-Serif" font-size="10.00">setstr</text>
</a>
</g>
</g>
<!-- Node1&#45;&gt;Node15 -->
<g id="edge3" class="edge">
<title>Node1&#45;&gt;Node15</title>
<path fill="none" stroke="midnightblue" d="M74.82,-38.41C100.69,-31.29 135.14,-21.8 156.95,-15.8"/>
</g>
</g>
</svg>
