<?xml version="1.0" encoding="UTF-8" standalone="no"?>
<!DOCTYPE svg PUBLIC "-//W3C//DTD SVG 1.1//EN"
 "http://www.w3.org/Graphics/SVG/1.1/DTD/svg11.dtd">
<!-- Generated by graphviz version 2.43.0 (0)
 -->
<!-- Title: outputNavRinexEOP Pages: 1 -->
<svg width="519pt" height="294pt"
 viewBox="0.00 0.00 519.00 294.00" xmlns="http://www.w3.org/2000/svg" xmlns:xlink="http://www.w3.org/1999/xlink">
<g id="graph0" class="graph" transform="scale(1 1) rotate(0) translate(4 290)">
<title>outputNavRinexEOP</title>
<polygon fill="white" stroke="transparent" points="-4,4 -4,-290 515,-290 515,4 -4,4"/>
<!-- Node1 -->
<g id="node1" class="node">
<title>Node1</title>
<g id="a_node1"><a xlink:title=" ">
<polygon fill="#bfbfbf" stroke="black" points="0,-133.5 0,-152.5 115,-152.5 115,-133.5 0,-133.5"/>
<text text-anchor="middle" x="57.5" y="-140.5" font-family="Helvetica,sans-Serif" font-size="10.00">outputNavRinexEOP</text>
</a>
</g>
</g>
<!-- Node2 -->
<g id="node2" class="node">
<title>Node2</title>
<g id="a_node2"><a xlink:href="streamTrace_8cpp.html#ae00e6addd3bdf3a7fd41a254eb9aec89" target="_top" xlink:title=" ">
<polygon fill="white" stroke="black" points="304.5,-228.5 304.5,-247.5 375.5,-247.5 375.5,-228.5 304.5,-228.5"/>
<text text-anchor="middle" x="340" y="-235.5" font-family="Helvetica,sans-Serif" font-size="10.00">tracepdeex</text>
</a>
</g>
</g>
<!-- Node1&#45;&gt;Node2 -->
<g id="edge1" class="edge">
<title>Node1&#45;&gt;Node2</title>
<path fill="none" stroke="midnightblue" d="M62.75,-152.77C73.5,-176.1 104.29,-234.75 151,-257 205.79,-283.1 279.57,-261.56 316.28,-247.6"/>
</g>
<!-- Node3 -->
<g id="node3" class="node">
<title>Node3</title>
<g id="a_node3"><a xlink:href="structSatSys.html#aec6d07b90d1e8172b8b6a6966abef4fd" target="_top" xlink:title="Returns a std::string of this satellite&#39;s id.">
<polygon fill="white" stroke="black" points="175,-228.5 175,-247.5 240,-247.5 240,-228.5 175,-228.5"/>
<text text-anchor="middle" x="207.5" y="-235.5" font-family="Helvetica,sans-Serif" font-size="10.00">SatSys::id</text>
</a>
</g>
</g>
<!-- Node1&#45;&gt;Node3 -->
<g id="edge2" class="edge">
<title>Node1&#45;&gt;Node3</title>
<path fill="none" stroke="midnightblue" d="M69.26,-152.69C85.88,-167.32 119.24,-195.33 151,-214 160.32,-219.48 171.13,-224.43 180.71,-228.4"/>
</g>
<!-- Node5 -->
<g id="node5" class="node">
<title>Node5</title>
<g id="a_node5"><a xlink:href="structSatSys.html#abfd7e43b0d57c2718d05ca595ee360dd" target="_top" xlink:title="Returns the character used as a prefix for this system.">
<polygon fill="white" stroke="black" points="416,-228.5 416,-247.5 511,-247.5 511,-228.5 416,-228.5"/>
<text text-anchor="middle" x="463.5" y="-235.5" font-family="Helvetica,sans-Serif" font-size="10.00">SatSys::sysChar</text>
</a>
</g>
</g>
<!-- Node1&#45;&gt;Node5 -->
<g id="edge5" class="edge">
<title>Node1&#45;&gt;Node5</title>
<path fill="none" stroke="midnightblue" d="M78.25,-152.64C96.67,-161.26 125.12,-173.64 151,-181 250.23,-209.23 278.79,-198.97 380,-219 394.13,-221.8 409.53,-225.24 423.16,-228.42"/>
</g>
<!-- Node6 -->
<g id="node6" class="node">
<title>Node6</title>
<g id="a_node6"><a xlink:href="gTime_8cpp.html#a7a747c44ca37f2ebe379fc4309d3cfba" target="_top" xlink:title=" ">
<polygon fill="white" stroke="black" points="170.5,-152.5 170.5,-171.5 244.5,-171.5 244.5,-152.5 170.5,-152.5"/>
<text text-anchor="middle" x="207.5" y="-159.5" font-family="Helvetica,sans-Serif" font-size="10.00">time2epoch</text>
</a>
</g>
</g>
<!-- Node1&#45;&gt;Node6 -->
<g id="edge6" class="edge">
<title>Node1&#45;&gt;Node6</title>
<path fill="none" stroke="midnightblue" d="M115.3,-150.29C133.72,-152.66 153.65,-155.22 170.16,-157.34"/>
</g>
<!-- Node7 -->
<g id="node7" class="node">
<title>Node7</title>
<g id="a_node7"><a xlink:href="gTime_8cpp.html#a0f1c35b5babe507c5b320111c1e634b7" target="_top" xlink:title=" ">
<polygon fill="white" stroke="black" points="178,-114.5 178,-133.5 237,-133.5 237,-114.5 178,-114.5"/>
<text text-anchor="middle" x="207.5" y="-121.5" font-family="Helvetica,sans-Serif" font-size="10.00">gpst2bdt</text>
</a>
</g>
</g>
<!-- Node1&#45;&gt;Node7 -->
<g id="edge7" class="edge">
<title>Node1&#45;&gt;Node7</title>
<path fill="none" stroke="midnightblue" d="M115.3,-135.71C136.65,-132.97 160.04,-129.96 177.78,-127.69"/>
</g>
<!-- Node8 -->
<g id="node8" class="node">
<title>Node8</title>
<g id="a_node8"><a xlink:href="streamTrace_8cpp.html#a755e8144b75554c3f9f4407284f37437" target="_top" xlink:title=" ">
<polygon fill="white" stroke="black" points="151,-76.5 151,-95.5 264,-95.5 264,-76.5 151,-76.5"/>
<text text-anchor="middle" x="207.5" y="-83.5" font-family="Helvetica,sans-Serif" font-size="10.00">traceFormatedFloat</text>
</a>
</g>
</g>
<!-- Node1&#45;&gt;Node8 -->
<g id="edge8" class="edge">
<title>Node1&#45;&gt;Node8</title>
<path fill="none" stroke="midnightblue" d="M80.78,-133.41C99.43,-125.49 126.79,-114.11 151,-105 159.58,-101.77 168.99,-98.47 177.58,-95.54"/>
</g>
<!-- Node9 -->
<g id="node9" class="node">
<title>Node9</title>
<g id="a_node9"><a xlink:href="gTime_8cpp.html#abf196aa655d8ca10168c2301a68a8101" target="_top" xlink:title=" ">
<polygon fill="white" stroke="black" points="174.5,-38.5 174.5,-57.5 240.5,-57.5 240.5,-38.5 174.5,-38.5"/>
<text text-anchor="middle" x="207.5" y="-45.5" font-family="Helvetica,sans-Serif" font-size="10.00">time2gpst</text>
</a>
</g>
</g>
<!-- Node1&#45;&gt;Node9 -->
<g id="edge10" class="edge">
<title>Node1&#45;&gt;Node9</title>
<path fill="none" stroke="midnightblue" d="M67.89,-133.28C83.71,-117.42 117.24,-85.83 151,-67 158.2,-62.98 166.41,-59.6 174.25,-56.86"/>
</g>
<!-- Node11 -->
<g id="node11" class="node">
<title>Node11</title>
<g id="a_node11"><a xlink:href="gTime_8cpp.html#a043c97b6d22706c23f55a5d29563d7dd" target="_top" xlink:title=" ">
<polygon fill="white" stroke="black" points="177,-0.5 177,-19.5 238,-19.5 238,-0.5 177,-0.5"/>
<text text-anchor="middle" x="207.5" y="-7.5" font-family="Helvetica,sans-Serif" font-size="10.00">time2bdt</text>
</a>
</g>
</g>
<!-- Node1&#45;&gt;Node11 -->
<g id="edge12" class="edge">
<title>Node1&#45;&gt;Node11</title>
<path fill="none" stroke="midnightblue" d="M63.84,-133.21C76.26,-111.35 109.2,-58.18 151,-29 158.68,-23.64 168.01,-19.67 176.81,-16.8"/>
</g>
<!-- Node4 -->
<g id="node4" class="node">
<title>Node4</title>
<g id="a_node4"><a xlink:href="structSatSys.html#adbdf98ba1ef1f22b6aaed93916529513" target="_top" xlink:title="Sets a 4 character c_string of this satellite&#39;s id.">
<polygon fill="white" stroke="black" points="300,-266.5 300,-285.5 380,-285.5 380,-266.5 300,-266.5"/>
<text text-anchor="middle" x="340" y="-273.5" font-family="Helvetica,sans-Serif" font-size="10.00">SatSys::getId</text>
</a>
</g>
</g>
<!-- Node3&#45;&gt;Node4 -->
<g id="edge3" class="edge">
<title>Node3&#45;&gt;Node4</title>
<path fill="none" stroke="midnightblue" d="M240.09,-247.2C260.16,-253.04 286.07,-260.59 306.34,-266.49"/>
</g>
<!-- Node4&#45;&gt;Node5 -->
<g id="edge4" class="edge">
<title>Node4&#45;&gt;Node5</title>
<path fill="none" stroke="midnightblue" d="M371.66,-266.41C390.08,-260.65 413.43,-253.35 431.85,-247.59"/>
</g>
<!-- Node8&#45;&gt;Node2 -->
<g id="edge9" class="edge">
<title>Node8&#45;&gt;Node2</title>
<path fill="none" stroke="midnightblue" d="M248.31,-95.61C253.94,-98.08 259.38,-101.16 264,-105 305.79,-139.74 328.74,-204.13 336.23,-228.4"/>
</g>
<!-- Node10 -->
<g id="node10" class="node">
<title>Node10</title>
<g id="a_node10"><a xlink:href="gTime_8cpp.html#aa46173b9085096882d09e53d96e9dc41" target="_top" xlink:title=" ">
<polygon fill="white" stroke="black" points="303,-19.5 303,-38.5 377,-38.5 377,-19.5 303,-19.5"/>
<text text-anchor="middle" x="340" y="-26.5" font-family="Helvetica,sans-Serif" font-size="10.00">epoch2time</text>
</a>
</g>
</g>
<!-- Node9&#45;&gt;Node10 -->
<g id="edge11" class="edge">
<title>Node9&#45;&gt;Node10</title>
<path fill="none" stroke="midnightblue" d="M240.76,-43.3C259.63,-40.56 283.49,-37.08 302.98,-34.24"/>
</g>
<!-- Node11&#45;&gt;Node10 -->
<g id="edge13" class="edge">
<title>Node11&#45;&gt;Node10</title>
<path fill="none" stroke="midnightblue" d="M238.11,-14.31C257.36,-17.11 282.59,-20.79 302.99,-23.76"/>
</g>
</g>
</svg>
