<?xml version="1.0" encoding="UTF-8" standalone="no"?>
<!DOCTYPE svg PUBLIC "-//W3C//DTD SVG 1.1//EN"
 "http://www.w3.org/Graphics/SVG/1.1/DTD/svg11.dtd">
<!-- Generated by graphviz version 2.43.0 (0)
 -->
<!-- Title: outputClocks Pages: 1 -->
<svg width="284pt" height="78pt"
 viewBox="0.00 0.00 284.00 77.50" xmlns="http://www.w3.org/2000/svg" xmlns:xlink="http://www.w3.org/1999/xlink">
<g id="graph0" class="graph" transform="scale(1 1) rotate(0) translate(4 73.5)">
<title>outputClocks</title>
<polygon fill="white" stroke="transparent" points="-4,4 -4,-73.5 280,-73.5 280,4 -4,4"/>
<!-- Node1 -->
<g id="node1" class="node">
<title>Node1</title>
<g id="a_node1"><a xlink:title=" ">
<polygon fill="#bfbfbf" stroke="black" points="196,-28 196,-47 276,-47 276,-28 196,-28"/>
<text text-anchor="middle" x="236" y="-35" font-family="Helvetica,sans-Serif" font-size="10.00">outputClocks</text>
</a>
</g>
</g>
<!-- Node2 -->
<g id="node2" class="node">
<title>Node2</title>
<g id="a_node2"><a xlink:href="rtsSmoothing_8cpp.html#aee37f31d0741db7c12b59e837714c170" target="_top" xlink:title=" ">
<polygon fill="white" stroke="red" points="34,-50 34,-69 126,-69 126,-50 34,-50"/>
<text text-anchor="middle" x="80" y="-57" font-family="Helvetica,sans-Serif" font-size="10.00">postRTSActions</text>
</a>
</g>
</g>
<!-- Node1&#45;&gt;Node2 -->
<g id="edge1" class="edge">
<title>Node1&#45;&gt;Node2</title>
<path fill="none" stroke="midnightblue" d="M185.73,-44.54C166.62,-47.27 144.89,-50.37 126.19,-53.04"/>
<polygon fill="midnightblue" stroke="midnightblue" points="186.34,-47.99 195.74,-43.11 185.35,-41.06 186.34,-47.99"/>
</g>
<!-- Node5 -->
<g id="node3" class="node">
<title>Node5</title>
<g id="a_node3"><a xlink:href="main_8cpp.html#a185ebe45a74ed9f7e7093979bea18755" target="_top" xlink:title=" ">
<polygon fill="white" stroke="red" points="0,-0.5 0,-30.5 160,-30.5 160,-0.5 0,-0.5"/>
<text text-anchor="start" x="8" y="-18.5" font-family="Helvetica,sans-Serif" font-size="10.00">mainPerEpochPostProcessing</text>
<text text-anchor="middle" x="80" y="-7.5" font-family="Helvetica,sans-Serif" font-size="10.00">AndOutputs</text>
</a>
</g>
</g>
<!-- Node1&#45;&gt;Node5 -->
<g id="edge2" class="edge">
<title>Node1&#45;&gt;Node5</title>
<path fill="none" stroke="midnightblue" d="M185.65,-30.45C177.46,-29.28 168.79,-28.04 160.07,-26.8"/>
<polygon fill="midnightblue" stroke="midnightblue" points="185.35,-33.94 195.74,-31.89 186.34,-27.01 185.35,-33.94"/>
</g>
</g>
</svg>
