<?xml version="1.0" encoding="UTF-8" standalone="no"?>
<!DOCTYPE svg PUBLIC "-//W3C//DTD SVG 1.1//EN"
 "http://www.w3.org/Graphics/SVG/1.1/DTD/svg11.dtd">
<!-- Generated by graphviz version 2.43.0 (0)
 -->
<!-- Title: outputClocksSet Pages: 1 -->
<svg width="283pt" height="218pt"
 viewBox="0.00 0.00 283.00 218.00" xmlns="http://www.w3.org/2000/svg" xmlns:xlink="http://www.w3.org/1999/xlink">
<g id="graph0" class="graph" transform="scale(1 1) rotate(0) translate(4 214)">
<title>outputClocksSet</title>
<polygon fill="white" stroke="transparent" points="-4,4 -4,-214 279,-214 279,4 -4,4"/>
<!-- Node1 -->
<g id="node1" class="node">
<title>Node1</title>
<g id="a_node1"><a xlink:title=" ">
<polygon fill="#bfbfbf" stroke="black" points="0,-95.5 0,-114.5 96,-114.5 96,-95.5 0,-95.5"/>
<text text-anchor="middle" x="48" y="-102.5" font-family="Helvetica,sans-Serif" font-size="10.00">outputClocksSet</text>
</a>
</g>
</g>
<!-- Node2 -->
<g id="node2" class="node">
<title>Node2</title>
<g id="a_node2"><a xlink:href="rinexClkWrite_8cpp.html#a92a78feb2e24de5b75b3955bed9b8fab" target="_top" xlink:title=" ">
<polygon fill="white" stroke="red" points="150,-190.5 150,-209.5 257,-209.5 257,-190.5 150,-190.5"/>
<text text-anchor="middle" x="203.5" y="-197.5" font-family="Helvetica,sans-Serif" font-size="10.00">getKalmanSatClks</text>
</a>
</g>
</g>
<!-- Node1&#45;&gt;Node2 -->
<g id="edge1" class="edge">
<title>Node1&#45;&gt;Node2</title>
<path fill="none" stroke="midnightblue" d="M56.86,-114.75C70.45,-130.97 99.98,-163.41 132,-181 139,-184.85 146.82,-187.95 154.64,-190.44"/>
</g>
<!-- Node4 -->
<g id="node3" class="node">
<title>Node4</title>
<g id="a_node3"><a xlink:href="rinexClkWrite_8cpp.html#aa82112165bc563ca344f7eb9c751daef" target="_top" xlink:title=" ">
<polygon fill="white" stroke="red" points="147.5,-152.5 147.5,-171.5 259.5,-171.5 259.5,-152.5 147.5,-152.5"/>
<text text-anchor="middle" x="203.5" y="-159.5" font-family="Helvetica,sans-Serif" font-size="10.00">getSatClksFromEph</text>
</a>
</g>
</g>
<!-- Node1&#45;&gt;Node4 -->
<g id="edge2" class="edge">
<title>Node1&#45;&gt;Node4</title>
<path fill="none" stroke="midnightblue" d="M67.42,-114.51C84,-122.8 109.19,-134.77 132,-143 141.78,-146.53 152.52,-149.75 162.62,-152.49"/>
</g>
<!-- Node48 -->
<g id="node4" class="node">
<title>Node48</title>
<g id="a_node4"><a xlink:href="rinexClkWrite_8cpp.html#a0ba2ad835d94106be37f4eaf88a47dbd" target="_top" xlink:title=" ">
<polygon fill="white" stroke="red" points="149,-114.5 149,-133.5 258,-133.5 258,-114.5 149,-114.5"/>
<text text-anchor="middle" x="203.5" y="-121.5" font-family="Helvetica,sans-Serif" font-size="10.00">getKalmanRecClks</text>
</a>
</g>
</g>
<!-- Node1&#45;&gt;Node48 -->
<g id="edge3" class="edge">
<title>Node1&#45;&gt;Node48</title>
<path fill="none" stroke="midnightblue" d="M96.31,-110.86C112.96,-112.92 131.78,-115.25 148.91,-117.37"/>
</g>
<!-- Node49 -->
<g id="node5" class="node">
<title>Node49</title>
<g id="a_node5"><a xlink:href="rinexClkWrite_8cpp.html#a38af028a37fcf21d64d43bb78264ad81" target="_top" xlink:title=" ">
<polygon fill="white" stroke="red" points="150,-76.5 150,-95.5 257,-95.5 257,-76.5 150,-76.5"/>
<text text-anchor="middle" x="203.5" y="-83.5" font-family="Helvetica,sans-Serif" font-size="10.00">getPreciseRecClks</text>
</a>
</g>
</g>
<!-- Node1&#45;&gt;Node49 -->
<g id="edge4" class="edge">
<title>Node1&#45;&gt;Node49</title>
<path fill="none" stroke="midnightblue" d="M96.31,-99.14C113.31,-97.04 132.58,-94.65 150,-92.5"/>
</g>
<!-- Node50 -->
<g id="node6" class="node">
<title>Node50</title>
<g id="a_node6"><a xlink:href="rinexClkWrite_8cpp.html#a22b81026f8927f65ce15fc926aca710b" target="_top" xlink:title=" ">
<polygon fill="white" stroke="red" points="132,-38.5 132,-57.5 275,-57.5 275,-38.5 132,-38.5"/>
<text text-anchor="middle" x="203.5" y="-45.5" font-family="Helvetica,sans-Serif" font-size="10.00">outputRinexClocksHeader</text>
</a>
</g>
</g>
<!-- Node1&#45;&gt;Node50 -->
<g id="edge5" class="edge">
<title>Node1&#45;&gt;Node50</title>
<path fill="none" stroke="midnightblue" d="M67.42,-95.49C84,-87.2 109.19,-75.23 132,-67 141.78,-63.47 152.52,-60.25 162.62,-57.51"/>
</g>
<!-- Node52 -->
<g id="node7" class="node">
<title>Node52</title>
<g id="a_node7"><a xlink:href="rinexClkWrite_8cpp.html#a2d791ebb18371d4a41fa365b14a65987" target="_top" xlink:title=" ">
<polygon fill="white" stroke="red" points="137,-0.5 137,-19.5 270,-19.5 270,-0.5 137,-0.5"/>
<text text-anchor="middle" x="203.5" y="-7.5" font-family="Helvetica,sans-Serif" font-size="10.00">outputRinexClocksBody</text>
</a>
</g>
</g>
<!-- Node1&#45;&gt;Node52 -->
<g id="edge6" class="edge">
<title>Node1&#45;&gt;Node52</title>
<path fill="none" stroke="midnightblue" d="M56.86,-95.25C70.45,-79.03 99.98,-46.59 132,-29 139,-25.15 146.82,-22.05 154.64,-19.56"/>
</g>
</g>
</svg>
