<?xml version="1.0" encoding="UTF-8" standalone="no"?>
<!DOCTYPE svg PUBLIC "-//W3C//DTD SVG 1.1//EN"
 "http://www.w3.org/Graphics/SVG/1.1/DTD/svg11.dtd">
<!-- Generated by graphviz version 2.43.0 (0)
 -->
<!-- Title: getbitsInc Pages: 1 -->
<svg width="464pt" height="522pt"
 viewBox="0.00 0.00 464.00 522.00" xmlns="http://www.w3.org/2000/svg" xmlns:xlink="http://www.w3.org/1999/xlink">
<g id="graph0" class="graph" transform="scale(1 1) rotate(0) translate(4 518)">
<title>getbitsInc</title>
<polygon fill="white" stroke="transparent" points="-4,4 -4,-518 460,-518 460,4 -4,4"/>
<!-- Node1 -->
<g id="node1" class="node">
<title>Node1</title>
<g id="a_node1"><a xlink:title="increasingly extract signed bits from byte data">
<polygon fill="#bfbfbf" stroke="black" points="391,-247.5 391,-266.5 456,-266.5 456,-247.5 391,-247.5"/>
<text text-anchor="middle" x="423.5" y="-254.5" font-family="Helvetica,sans-Serif" font-size="10.00">getbitsInc</text>
</a>
</g>
</g>
<!-- Node2 -->
<g id="node2" class="node">
<title>Node2</title>
<g id="a_node2"><a xlink:href="prototypeIgsSSRDecode_8cpp.html#a52483b82b940e41a9ecf30d3f7ac5609" target="_top" xlink:title=" ">
<polygon fill="white" stroke="red" points="208,-494.5 208,-513.5 326,-513.5 326,-494.5 208,-494.5"/>
<text text-anchor="middle" x="267" y="-501.5" font-family="Helvetica,sans-Serif" font-size="10.00">decodeigsSSR_type7</text>
</a>
</g>
</g>
<!-- Node1&#45;&gt;Node2 -->
<g id="edge1" class="edge">
<title>Node1&#45;&gt;Node2</title>
<path fill="none" stroke="midnightblue" d="M422.9,-276.81C422.66,-321.12 415.5,-428.75 355,-485 346.96,-492.47 336.69,-497.26 326.04,-500.28"/>
<polygon fill="midnightblue" stroke="midnightblue" points="426.4,-276.51 422.84,-266.53 419.4,-276.55 426.4,-276.51"/>
</g>
<!-- Node6 -->
<g id="node3" class="node">
<title>Node6</title>
<g id="a_node3"><a xlink:href="prototypeCmpSSRDecode_8cpp.html#a739d46e0c477691b3ee0fcd54ccf3e39" target="_top" xlink:title=" ">
<polygon fill="white" stroke="red" points="210.5,-456.5 210.5,-475.5 323.5,-475.5 323.5,-456.5 210.5,-456.5"/>
<text text-anchor="middle" x="267" y="-463.5" font-family="Helvetica,sans-Serif" font-size="10.00">decodeCmpSsrField</text>
</a>
</g>
</g>
<!-- Node1&#45;&gt;Node6 -->
<g id="edge2" class="edge">
<title>Node1&#45;&gt;Node6</title>
<path fill="none" stroke="midnightblue" d="M421.54,-276.67C418.54,-315.46 406.16,-401.93 355,-447 346.3,-454.67 335.23,-459.47 323.93,-462.43"/>
<polygon fill="midnightblue" stroke="midnightblue" points="425.04,-276.87 422.18,-266.67 418.05,-276.42 425.04,-276.87"/>
</g>
<!-- Node17 -->
<g id="node4" class="node">
<title>Node17</title>
<g id="a_node4"><a xlink:href="prototypeIgsSSRDecode_8cpp.html#ab6cefeb3a0e33cc2695ae53181b52644" target="_top" xlink:title=" ">
<polygon fill="white" stroke="red" points="208,-418.5 208,-437.5 326,-437.5 326,-418.5 208,-418.5"/>
<text text-anchor="middle" x="267" y="-425.5" font-family="Helvetica,sans-Serif" font-size="10.00">decodeigsSSR_type4</text>
</a>
</g>
</g>
<!-- Node1&#45;&gt;Node17 -->
<g id="edge3" class="edge">
<title>Node1&#45;&gt;Node17</title>
<path fill="none" stroke="midnightblue" d="M419.55,-276.76C413.57,-309.53 396.84,-374.89 355,-409 346.73,-415.74 336.6,-420.23 326.21,-423.19"/>
<polygon fill="midnightblue" stroke="midnightblue" points="423.05,-277.07 421.24,-266.63 416.14,-275.92 423.05,-277.07"/>
</g>
<!-- Node18 -->
<g id="node5" class="node">
<title>Node18</title>
<g id="a_node5"><a xlink:href="prototypeIgsSSRDecode_8cpp.html#aceada2a0110bf7d459a3f1c94bffd19b" target="_top" xlink:title=" ">
<polygon fill="white" stroke="red" points="208,-380.5 208,-399.5 326,-399.5 326,-380.5 208,-380.5"/>
<text text-anchor="middle" x="267" y="-387.5" font-family="Helvetica,sans-Serif" font-size="10.00">decodeigsSSR_type1</text>
</a>
</g>
</g>
<!-- Node1&#45;&gt;Node18 -->
<g id="edge4" class="edge">
<title>Node1&#45;&gt;Node18</title>
<path fill="none" stroke="midnightblue" d="M416.44,-276.55C407.39,-302.37 387.79,-347.31 355,-371 346.48,-377.16 336.35,-381.38 326.06,-384.27"/>
<polygon fill="midnightblue" stroke="midnightblue" points="419.85,-277.37 419.68,-266.78 413.21,-275.17 419.85,-277.37"/>
</g>
<!-- Node19 -->
<g id="node6" class="node">
<title>Node19</title>
<g id="a_node6"><a xlink:href="prototypeIgsSSRDecode_8cpp.html#a763dadb437e94655b4c4ab05830c7efa" target="_top" xlink:title=" ">
<polygon fill="white" stroke="red" points="208,-342.5 208,-361.5 326,-361.5 326,-342.5 208,-342.5"/>
<text text-anchor="middle" x="267" y="-349.5" font-family="Helvetica,sans-Serif" font-size="10.00">decodeigsSSR_type3</text>
</a>
</g>
</g>
<!-- Node1&#45;&gt;Node19 -->
<g id="edge5" class="edge">
<title>Node1&#45;&gt;Node19</title>
<path fill="none" stroke="midnightblue" d="M411.12,-275.48C399.29,-293.06 379.16,-318.85 355,-333 346.2,-338.16 336.15,-341.92 326.08,-344.66"/>
<polygon fill="midnightblue" stroke="midnightblue" points="414.31,-276.99 416.8,-266.69 408.43,-273.19 414.31,-276.99"/>
</g>
<!-- Node20 -->
<g id="node7" class="node">
<title>Node20</title>
<g id="a_node7"><a xlink:href="prototypeIgsSSRDecode_8cpp.html#a3e3cd021dda475685751a829bc5d7283" target="_top" xlink:title=" ">
<polygon fill="white" stroke="red" points="208,-304.5 208,-323.5 326,-323.5 326,-304.5 208,-304.5"/>
<text text-anchor="middle" x="267" y="-311.5" font-family="Helvetica,sans-Serif" font-size="10.00">decodeigsSSR_type6</text>
</a>
</g>
</g>
<!-- Node1&#45;&gt;Node20 -->
<g id="edge6" class="edge">
<title>Node1&#45;&gt;Node20</title>
<path fill="none" stroke="midnightblue" d="M399.82,-272.02C387.1,-279.86 370.68,-289.03 355,-295 345.03,-298.8 334.12,-301.93 323.49,-304.47"/>
<polygon fill="midnightblue" stroke="midnightblue" points="401.79,-274.92 408.37,-266.61 398.04,-269 401.79,-274.92"/>
</g>
<!-- Node21 -->
<g id="node8" class="node">
<title>Node21</title>
<g id="a_node8"><a xlink:href="prototypeIgsSSRDecode_8cpp.html#a91f3475d9c3dd88792324a011d597918" target="_top" xlink:title=" ">
<polygon fill="white" stroke="red" points="208,-266.5 208,-285.5 326,-285.5 326,-266.5 208,-266.5"/>
<text text-anchor="middle" x="267" y="-273.5" font-family="Helvetica,sans-Serif" font-size="10.00">decodeigsSSR_type2</text>
</a>
</g>
</g>
<!-- Node1&#45;&gt;Node21 -->
<g id="edge7" class="edge">
<title>Node1&#45;&gt;Node21</title>
<path fill="none" stroke="midnightblue" d="M380.81,-262.13C364,-264.19 344.32,-266.61 326.15,-268.85"/>
<polygon fill="midnightblue" stroke="midnightblue" points="381.36,-265.59 390.86,-260.89 380.51,-258.64 381.36,-265.59"/>
</g>
<!-- Node22 -->
<g id="node9" class="node">
<title>Node22</title>
<g id="a_node9"><a xlink:href="rtcmDecoder_8cpp.html#ad8dd2031443a023c665ba918bcd91436" target="_top" xlink:title="increasingly extract signed bits from RTCM messages">
<polygon fill="white" stroke="black" points="234.5,-228.5 234.5,-247.5 299.5,-247.5 299.5,-228.5 234.5,-228.5"/>
<text text-anchor="middle" x="267" y="-235.5" font-family="Helvetica,sans-Serif" font-size="10.00">getbitsInc</text>
</a>
</g>
</g>
<!-- Node1&#45;&gt;Node22 -->
<g id="edge8" class="edge">
<title>Node1&#45;&gt;Node22</title>
<path fill="none" stroke="midnightblue" d="M380.72,-251.86C355.17,-248.72 323.02,-244.77 299.6,-241.89"/>
<polygon fill="midnightblue" stroke="midnightblue" points="380.51,-255.36 390.86,-253.11 381.36,-248.41 380.51,-255.36"/>
</g>
<!-- Node23 -->
<g id="node10" class="node">
<title>Node23</title>
<g id="a_node10"><a xlink:href="rtcmDecoder_8cpp.html#ac0235020c0ce59b7095c246bcb8496cb" target="_top" xlink:title="increasingly extract signed bits from RTCM messages with scale factor/resolution applied">
<polygon fill="white" stroke="red" points="221.5,-190.5 221.5,-209.5 312.5,-209.5 312.5,-190.5 221.5,-190.5"/>
<text text-anchor="middle" x="267" y="-197.5" font-family="Helvetica,sans-Serif" font-size="10.00">getbitsIncScale</text>
</a>
</g>
</g>
<!-- Node1&#45;&gt;Node23 -->
<g id="edge9" class="edge">
<title>Node1&#45;&gt;Node23</title>
<path fill="none" stroke="midnightblue" d="M399.82,-241.98C387.1,-234.14 370.68,-224.97 355,-219 341.56,-213.88 326.41,-209.98 312.56,-207.08"/>
<polygon fill="midnightblue" stroke="midnightblue" points="398.04,-245 408.37,-247.39 401.79,-239.08 398.04,-245"/>
</g>
<!-- Node24 -->
<g id="node11" class="node">
<title>Node24</title>
<g id="a_node11"><a xlink:href="structRtcmDecoder.html#adae4ba7ddd9f744631b806a5d550fe39" target="_top" xlink:title="decode RTCM SSR messages">
<polygon fill="white" stroke="red" points="0,-114.5 0,-133.5 143,-133.5 143,-114.5 0,-114.5"/>
<text text-anchor="middle" x="71.5" y="-121.5" font-family="Helvetica,sans-Serif" font-size="10.00">RtcmDecoder::decodeSSR</text>
</a>
</g>
</g>
<!-- Node1&#45;&gt;Node24 -->
<g id="edge14" class="edge">
<title>Node1&#45;&gt;Node24</title>
<path fill="none" stroke="midnightblue" d="M422.35,-237.17C420.85,-197.02 411.08,-106.59 355,-67 268.14,-5.68 130.83,-85.44 86.67,-114.31"/>
<polygon fill="midnightblue" stroke="midnightblue" points="418.86,-237.37 422.59,-247.28 425.86,-237.2 418.86,-237.37"/>
</g>
<!-- Node26 -->
<g id="node12" class="node">
<title>Node26</title>
<g id="a_node12"><a xlink:href="structRtcmDecoder.html#a424082e15bbf15120f1fc5f0635b01b9" target="_top" xlink:title="decode RTCM navigation messages">
<polygon fill="white" stroke="red" points="179,-152.5 179,-171.5 355,-171.5 355,-152.5 179,-152.5"/>
<text text-anchor="middle" x="267" y="-159.5" font-family="Helvetica,sans-Serif" font-size="10.00">RtcmDecoder::decodeEphemeris</text>
</a>
</g>
</g>
<!-- Node1&#45;&gt;Node26 -->
<g id="edge11" class="edge">
<title>Node1&#45;&gt;Node26</title>
<path fill="none" stroke="midnightblue" d="M411.12,-238.52C399.29,-220.94 379.16,-195.15 355,-181 348.33,-177.09 340.95,-173.99 333.38,-171.52"/>
<polygon fill="midnightblue" stroke="midnightblue" points="408.43,-240.81 416.8,-247.31 414.31,-237.01 408.43,-240.81"/>
</g>
<!-- Node27 -->
<g id="node13" class="node">
<title>Node27</title>
<g id="a_node13"><a xlink:href="prototypeIgsSSRDecode_8cpp.html#a5620a5359184703cf42d5a08c894b2e5" target="_top" xlink:title=" ">
<polygon fill="white" stroke="red" points="208,-114.5 208,-133.5 326,-133.5 326,-114.5 208,-114.5"/>
<text text-anchor="middle" x="267" y="-121.5" font-family="Helvetica,sans-Serif" font-size="10.00">decodeigsSSR_type5</text>
</a>
</g>
</g>
<!-- Node1&#45;&gt;Node27 -->
<g id="edge12" class="edge">
<title>Node1&#45;&gt;Node27</title>
<path fill="none" stroke="midnightblue" d="M416.44,-237.45C407.39,-211.63 387.79,-166.69 355,-143 346.48,-136.84 336.35,-132.62 326.06,-129.73"/>
<polygon fill="midnightblue" stroke="midnightblue" points="413.21,-238.83 419.68,-247.22 419.85,-236.63 413.21,-238.83"/>
</g>
<!-- Node28 -->
<g id="node14" class="node">
<title>Node28</title>
<g id="a_node14"><a xlink:href="prototypeCmpSSRDecode_8cpp.html#ac234f37b071bd110061762b1aa22cb69" target="_top" xlink:title=" ">
<polygon fill="white" stroke="red" points="221.5,-76.5 221.5,-95.5 312.5,-95.5 312.5,-76.5 221.5,-76.5"/>
<text text-anchor="middle" x="267" y="-83.5" font-family="Helvetica,sans-Serif" font-size="10.00">decodeGridInfo</text>
</a>
</g>
</g>
<!-- Node1&#45;&gt;Node28 -->
<g id="edge13" class="edge">
<title>Node1&#45;&gt;Node28</title>
<path fill="none" stroke="midnightblue" d="M419.55,-237.24C413.57,-204.47 396.84,-139.11 355,-105 343.14,-95.33 327.44,-90.3 312.64,-87.76"/>
<polygon fill="midnightblue" stroke="midnightblue" points="416.14,-238.08 421.24,-247.37 423.05,-236.93 416.14,-238.08"/>
</g>
<!-- Node31 -->
<g id="node15" class="node">
<title>Node31</title>
<g id="a_node15"><a xlink:href="prototypeIgsSSRDecode_8cpp.html#abb805948265150eec95f44b3f7d6ad35" target="_top" xlink:title=" ">
<polygon fill="white" stroke="red" points="208,-0.5 208,-19.5 326,-19.5 326,-0.5 208,-0.5"/>
<text text-anchor="middle" x="267" y="-7.5" font-family="Helvetica,sans-Serif" font-size="10.00">decodeigsSSR_type8</text>
</a>
</g>
</g>
<!-- Node1&#45;&gt;Node31 -->
<g id="edge15" class="edge">
<title>Node1&#45;&gt;Node31</title>
<path fill="none" stroke="midnightblue" d="M422.52,-237.25C421.46,-193.99 412.68,-90.27 355,-34 347.04,-26.23 336.8,-20.93 326.16,-17.32"/>
<polygon fill="midnightblue" stroke="midnightblue" points="419.02,-237.36 422.65,-247.32 426.02,-237.27 419.02,-237.36"/>
</g>
<!-- Node23&#45;&gt;Node24 -->
<g id="edge10" class="edge">
<title>Node23&#45;&gt;Node24</title>
<path fill="none" stroke="midnightblue" d="M211.24,-190.46C200.4,-187.9 189.22,-184.77 179,-181 144.57,-168.3 107.44,-146.33 87.4,-133.7"/>
<polygon fill="midnightblue" stroke="midnightblue" points="210.54,-193.89 221.06,-192.66 212.07,-187.06 210.54,-193.89"/>
</g>
</g>
</svg>
