<?xml version="1.0" encoding="UTF-8" standalone="no"?>
<!DOCTYPE svg PUBLIC "-//W3C//DTD SVG 1.1//EN"
 "http://www.w3.org/Graphics/SVG/1.1/DTD/svg11.dtd">
<!-- Generated by graphviz version 2.43.0 (0)
 -->
<!-- Title: setbituInc Pages: 1 -->
<!--zoomable 610 -->
<svg id="main" version="1.1" xmlns="http://www.w3.org/2000/svg" xmlns:xlink="http://www.w3.org/1999/xlink" xml:space="preserve" onload="init(evt)">
<style type="text/css"><![CDATA[
.edge:hover path { stroke: red; }
.edge:hover polygon { stroke: red; fill: red; }
]]></style>
<script type="text/javascript"><![CDATA[
var edges = document.getElementsByTagName('g');
if (edges && edges.length) {
  for (var i=0;i<edges.length;i++) {
    if (edges[i].id.substr(0,4)=='edge') {
      edges[i].setAttribute('class','edge');
    }
  }
}
]]></script>
        <defs>
                <circle id="rim" cx="0" cy="0" r="7"/>
                <circle id="rim2" cx="0" cy="0" r="3.5"/>
                <g id="zoomPlus">
                        <use xlink:href="#rim" fill="#404040">
                                <set attributeName="fill" to="#808080" begin="zoomplus.mouseover" end="zoomplus.mouseout"/>
                        </use>
                        <path d="M-4,0h8M0,-4v8" fill="none" stroke="white" stroke-width="1.5" pointer-events="none"/>
                </g>
                <g id="zoomMin">
                        <use xlink:href="#rim" fill="#404040">
                                <set attributeName="fill" to="#808080" begin="zoomminus.mouseover" end="zoomminus.mouseout"/>
                        </use>
                        <path d="M-4,0h8" fill="none" stroke="white" stroke-width="1.5" pointer-events="none"/>
                </g>
                <g id="dirArrow">
                        <path fill="none" stroke="white" stroke-width="1.5" d="M0,-3.0v7 M-2.5,-0.5L0,-3.0L2.5,-0.5"/>
                </g>
               <g id="resetDef">
                       <use xlink:href="#rim2" fill="#404040">
                               <set attributeName="fill" to="#808080" begin="reset.mouseover" end="reset.mouseout"/>
                       </use>
               </g>
        </defs>

<script type="text/javascript">
var viewWidth = 521;
var viewHeight = 610;
var sectionId = 'dynsection-8';
</script>
<script xlink:href="svgpan.js"/>
<svg id="graph" class="graph">
<g id="viewport">
<title>setbituInc</title>
<polygon fill="white" stroke="transparent" points="-4,4 -4,-606 517,-606 517,4 -4,4"/>
<!-- Node1 -->
<g id="node1" class="node">
<title>Node1</title>
<g id="a_node1"><a xlink:title="increasingly set unsigned bits to byte data">
<polygon fill="#bfbfbf" stroke="black" points="448,-297.5 448,-316.5 513,-316.5 513,-297.5 448,-297.5"/>
<text text-anchor="middle" x="480.5" y="-304.5" font-family="Helvetica,sans-Serif" font-size="10.00">setbituInc</text>
</a>
</g>
</g>
<!-- Node2 -->
<g id="node2" class="node">
<title>Node2</title>
<g id="a_node2"><a xlink:href="prototypeIgsSSREncode_8cpp.html#a72d4233d3708a4ab1551b1139e6afb27" target="_top" xlink:title=" ">
<polygon fill="white" stroke="red" points="261.5,-582.5 261.5,-601.5 356.5,-601.5 356.5,-582.5 261.5,-582.5"/>
<text text-anchor="middle" x="309" y="-589.5" font-family="Helvetica,sans-Serif" font-size="10.00">encodeIGS_HRC</text>
</a>
</g>
</g>
<!-- Node1&#45;&gt;Node2 -->
<g id="edge1" class="edge">
<title>Node1&#45;&gt;Node2</title>
<path fill="none" stroke="midnightblue" d="M478.42,-316.72C473.41,-360.22 450.93,-536.5 412,-573 397.28,-586.8 375.92,-592.16 356.54,-593.83"/>
</g>
<!-- Node6 -->
<g id="node3" class="node">
<title>Node6</title>
<g id="a_node3"><a xlink:href="prototypeIgsSSREncode_8cpp.html#a0b52ed993dfc6fdce07c1047d9f7d228" target="_top" xlink:title=" ">
<polygon fill="white" stroke="red" points="261,-544.5 261,-563.5 357,-563.5 357,-544.5 261,-544.5"/>
<text text-anchor="middle" x="309" y="-551.5" font-family="Helvetica,sans-Serif" font-size="10.00">encodeIGS_CMB</text>
</a>
</g>
</g>
<!-- Node1&#45;&gt;Node6 -->
<g id="edge2" class="edge">
<title>Node1&#45;&gt;Node6</title>
<path fill="none" stroke="midnightblue" d="M479.9,-316.6C480.79,-351.78 478.85,-474.75 412,-535 397.22,-548.33 376.19,-553.69 357.07,-555.48"/>
</g>
<!-- Node7 -->
<g id="node4" class="node">
<title>Node7</title>
<g id="a_node4"><a xlink:href="prototypeIgsSSREncode_8cpp.html#aed2001951dab0df50a3e8890f6303240" target="_top" xlink:title=" ">
<polygon fill="white" stroke="red" points="263,-506.5 263,-525.5 355,-525.5 355,-506.5 263,-506.5"/>
<text text-anchor="middle" x="309" y="-513.5" font-family="Helvetica,sans-Serif" font-size="10.00">encodeIGS_CLK</text>
</a>
</g>
</g>
<!-- Node1&#45;&gt;Node7 -->
<g id="edge3" class="edge">
<title>Node1&#45;&gt;Node7</title>
<path fill="none" stroke="midnightblue" d="M479.25,-316.74C477.86,-348.27 468.97,-448.35 412,-497 396.45,-510.28 374.64,-515.52 355.18,-517.23"/>
</g>
<!-- Node8 -->
<g id="node5" class="node">
<title>Node8</title>
<g id="a_node5"><a xlink:href="prototypeIgsSSREncode_8cpp.html#a5860e21c82b09ac4b4f9051c19ad626d" target="_top" xlink:title=" ">
<polygon fill="white" stroke="red" points="261.5,-468.5 261.5,-487.5 356.5,-487.5 356.5,-468.5 261.5,-468.5"/>
<text text-anchor="middle" x="309" y="-475.5" font-family="Helvetica,sans-Serif" font-size="10.00">encodeIGS_ORB</text>
</a>
</g>
</g>
<!-- Node1&#45;&gt;Node8 -->
<g id="edge4" class="edge">
<title>Node1&#45;&gt;Node8</title>
<path fill="none" stroke="midnightblue" d="M478.3,-316.71C474.38,-343.95 459.36,-421.6 412,-459 396.45,-471.28 375.43,-476.52 356.51,-478.49"/>
</g>
<!-- Node9 -->
<g id="node6" class="node">
<title>Node9</title>
<g id="a_node6"><a xlink:href="structRtcmEncoder.html#a0faafc925ae0857559dd9a911cc3b90d" target="_top" xlink:title="encode SSR header information">
<polygon fill="white" stroke="black" points="222.5,-430.5 222.5,-449.5 395.5,-449.5 395.5,-430.5 222.5,-430.5"/>
<text text-anchor="middle" x="309" y="-437.5" font-family="Helvetica,sans-Serif" font-size="10.00">RtcmEncoder::encodeSsrHeader</text>
</a>
</g>
</g>
<!-- Node1&#45;&gt;Node9 -->
<g id="edge5" class="edge">
<title>Node1&#45;&gt;Node9</title>
<path fill="none" stroke="midnightblue" d="M476.84,-316.52C470.09,-338.79 450.08,-394.38 412,-421 406.54,-424.82 400.52,-427.93 394.23,-430.46"/>
</g>
<!-- Node10 -->
<g id="node7" class="node">
<title>Node10</title>
<g id="a_node7"><a xlink:href="structRtcmEncoder.html#a9a9812f3f6389d6d39eb59a0faff70b7" target="_top" xlink:title="encode orbit/clock messages">
<polygon fill="white" stroke="red" points="0,-430.5 0,-449.5 170,-449.5 170,-430.5 0,-430.5"/>
<text text-anchor="middle" x="85" y="-437.5" font-family="Helvetica,sans-Serif" font-size="10.00">RtcmEncoder::encodeSsrOrbClk</text>
</a>
</g>
</g>
<!-- Node1&#45;&gt;Node10 -->
<g id="edge15" class="edge">
<title>Node1&#45;&gt;Node10</title>
<path fill="none" stroke="midnightblue" d="M447.68,-302.38C392.7,-296.2 278.84,-291.53 206,-345 175.87,-367.12 199.17,-397.63 170,-421 165.22,-424.83 159.81,-427.93 154.1,-430.42"/>
</g>
<!-- Node11 -->
<g id="node8" class="node">
<title>Node11</title>
<g id="a_node8"><a xlink:href="structRtcmEncoder.html#adaea4ff6e3c24a71716dd84ee0999fef" target="_top" xlink:title="encode phase bias messages">
<polygon fill="white" stroke="red" points="1.5,-392.5 1.5,-411.5 168.5,-411.5 168.5,-392.5 1.5,-392.5"/>
<text text-anchor="middle" x="85" y="-399.5" font-family="Helvetica,sans-Serif" font-size="10.00">RtcmEncoder::encodeSsrPhase</text>
</a>
</g>
</g>
<!-- Node1&#45;&gt;Node11 -->
<g id="edge14" class="edge">
<title>Node1&#45;&gt;Node11</title>
<path fill="none" stroke="midnightblue" d="M447.98,-304.85C394.9,-302.61 285.71,-303.98 206,-345 185.31,-355.64 190.22,-371.49 170,-383 163.24,-386.85 155.77,-389.91 148.14,-392.36"/>
</g>
<!-- Node12 -->
<g id="node9" class="node">
<title>Node12</title>
<g id="a_node9"><a xlink:href="structRtcmEncoder.html#a18fe202e400a35f110954b78f93647ef" target="_top" xlink:title="encode code bias messages">
<polygon fill="white" stroke="red" points="4,-354.5 4,-373.5 166,-373.5 166,-354.5 4,-354.5"/>
<text text-anchor="middle" x="85" y="-361.5" font-family="Helvetica,sans-Serif" font-size="10.00">RtcmEncoder::encodeSsrCode</text>
</a>
</g>
</g>
<!-- Node1&#45;&gt;Node12 -->
<g id="edge13" class="edge">
<title>Node1&#45;&gt;Node12</title>
<path fill="none" stroke="midnightblue" d="M447.89,-311.19C396.93,-318 293.49,-332 206,-345 186.08,-347.96 164.32,-351.36 144.86,-354.45"/>
</g>
<!-- Node13 -->
<g id="node10" class="node">
<title>Node13</title>
<g id="a_node10"><a xlink:href="structRtcmEncoder.html#a4fe1b66c1ca3051c79202253abf15099" target="_top" xlink:title="encode URA messages">
<polygon fill="white" stroke="red" points="7.5,-316.5 7.5,-335.5 162.5,-335.5 162.5,-316.5 7.5,-316.5"/>
<text text-anchor="middle" x="85" y="-323.5" font-family="Helvetica,sans-Serif" font-size="10.00">RtcmEncoder::encodeSsrUra</text>
</a>
</g>
</g>
<!-- Node1&#45;&gt;Node13 -->
<g id="edge12" class="edge">
<title>Node1&#45;&gt;Node13</title>
<path fill="none" stroke="midnightblue" d="M447.96,-308.52C386.59,-311.49 249.54,-318.1 162.8,-322.29"/>
</g>
<!-- Node14 -->
<g id="node11" class="node">
<title>Node14</title>
<g id="a_node11"><a xlink:href="structRtcmEncoder.html#aec43680779bba008687e1f4f792960e1" target="_top" xlink:title=" ">
<polygon fill="white" stroke="red" points="206,-392.5 206,-411.5 412,-411.5 412,-392.5 206,-392.5"/>
<text text-anchor="middle" x="309" y="-399.5" font-family="Helvetica,sans-Serif" font-size="10.00">RtcmEncoder::encodeTimeStampRTCM</text>
</a>
</g>
</g>
<!-- Node1&#45;&gt;Node14 -->
<g id="edge10" class="edge">
<title>Node1&#45;&gt;Node14</title>
<path fill="none" stroke="midnightblue" d="M474.02,-316.52C463.99,-332.99 441.04,-366.59 412,-383 405.18,-386.85 397.73,-389.95 390.06,-392.43"/>
</g>
<!-- Node17 -->
<g id="node12" class="node">
<title>Node17</title>
<g id="a_node12"><a xlink:href="structRtcmEncoder.html#a3fcbeeb38259b50d2684adf2d36efb9f" target="_top" xlink:title="encode GPS/GAL/BDS/QZS ephemeris messages">
<polygon fill="white" stroke="red" points="222,-354.5 222,-373.5 396,-373.5 396,-354.5 222,-354.5"/>
<text text-anchor="middle" x="309" y="-361.5" font-family="Helvetica,sans-Serif" font-size="10.00">RtcmEncoder::encodeEphemeris</text>
</a>
</g>
</g>
<!-- Node1&#45;&gt;Node17 -->
<g id="edge11" class="edge">
<title>Node1&#45;&gt;Node17</title>
<path fill="none" stroke="midnightblue" d="M462.48,-316.65C449.1,-323.9 429.81,-333.64 412,-340 395.55,-345.87 377.1,-350.71 360.45,-354.47"/>
</g>
<!-- Node18 -->
<g id="node13" class="node">
<title>Node18</title>
<g id="a_node13"><a xlink:href="prototypeIgsSSREncode_8cpp.html#af3fc3638b16db1676d10fa1a4179860a" target="_top" xlink:title=" ">
<polygon fill="white" stroke="red" points="261.5,-164.5 261.5,-183.5 356.5,-183.5 356.5,-164.5 261.5,-164.5"/>
<text text-anchor="middle" x="309" y="-171.5" font-family="Helvetica,sans-Serif" font-size="10.00">encodeIGS_COD</text>
</a>
</g>
</g>
<!-- Node1&#45;&gt;Node18 -->
<g id="edge16" class="edge">
<title>Node1&#45;&gt;Node18</title>
<path fill="none" stroke="midnightblue" d="M476.41,-297.37C469.01,-275.9 448.13,-224 412,-198 395.98,-186.47 375.22,-180.4 356.61,-177.24"/>
</g>
<!-- Node19 -->
<g id="node14" class="node">
<title>Node19</title>
<g id="a_node14"><a xlink:href="structRtcmEncoder.html#a714186471ab96d85b1fac9d1a18789a0" target="_top" xlink:title=" ">
<polygon fill="white" stroke="red" points="234.5,-115 234.5,-145 383.5,-145 383.5,-115 234.5,-115"/>
<text text-anchor="start" x="242.5" y="-133" font-family="Helvetica,sans-Serif" font-size="10.00">RtcmEncoder::encodeWrite</text>
<text text-anchor="middle" x="309" y="-122" font-family="Helvetica,sans-Serif" font-size="10.00">MessageToBuffer</text>
</a>
</g>
</g>
<!-- Node1&#45;&gt;Node19 -->
<g id="edge17" class="edge">
<title>Node1&#45;&gt;Node19</title>
<path fill="none" stroke="midnightblue" d="M478.19,-297.43C473.99,-270.53 458.29,-193.72 412,-155 403.75,-148.1 393.88,-143.05 383.59,-139.37"/>
</g>
<!-- Node20 -->
<g id="node15" class="node">
<title>Node20</title>
<g id="a_node15"><a xlink:href="prototypeIgsSSREncode_8cpp.html#a41fe2e1f1e8daaa5fb8158f1b7196681" target="_top" xlink:title=" ">
<polygon fill="white" stroke="red" points="262.5,-76.5 262.5,-95.5 355.5,-95.5 355.5,-76.5 262.5,-76.5"/>
<text text-anchor="middle" x="309" y="-83.5" font-family="Helvetica,sans-Serif" font-size="10.00">encodeIGS_PHS</text>
</a>
</g>
</g>
<!-- Node1&#45;&gt;Node20 -->
<g id="edge18" class="edge">
<title>Node1&#45;&gt;Node20</title>
<path fill="none" stroke="midnightblue" d="M479.47,-297.13C478.82,-264.2 471.96,-157.19 412,-105 396.65,-91.64 374.97,-86.37 355.55,-84.65"/>
</g>
<!-- Node21 -->
<g id="node16" class="node">
<title>Node21</title>
<g id="a_node16"><a xlink:href="prototypeIgsSSREncode_8cpp.html#abe906d6281cf96f532c4c915582eed18" target="_top" xlink:title=" ">
<polygon fill="white" stroke="red" points="261.5,-38.5 261.5,-57.5 356.5,-57.5 356.5,-38.5 261.5,-38.5"/>
<text text-anchor="middle" x="309" y="-45.5" font-family="Helvetica,sans-Serif" font-size="10.00">encodeIGS_URA</text>
</a>
</g>
</g>
<!-- Node1&#45;&gt;Node21 -->
<g id="edge19" class="edge">
<title>Node1&#45;&gt;Node21</title>
<path fill="none" stroke="midnightblue" d="M480.06,-297.42C481.63,-261.12 481.97,-130.94 412,-67 397.17,-53.45 375.91,-48.1 356.64,-46.38"/>
</g>
<!-- Node22 -->
<g id="node17" class="node">
<title>Node22</title>
<g id="a_node17"><a xlink:href="prototypeIgsSSREncode_8cpp.html#adf3f3613d64a13f4cdccccc258d29585" target="_top" xlink:title=" ">
<polygon fill="white" stroke="red" points="261.5,-0.5 261.5,-19.5 356.5,-19.5 356.5,-0.5 261.5,-0.5"/>
<text text-anchor="middle" x="309" y="-7.5" font-family="Helvetica,sans-Serif" font-size="10.00">encodeIGS_ATM</text>
</a>
</g>
</g>
<!-- Node1&#45;&gt;Node22 -->
<g id="edge20" class="edge">
<title>Node1&#45;&gt;Node22</title>
<path fill="none" stroke="midnightblue" d="M478.55,-297.45C473.97,-253.06 452.56,-67.43 412,-29 397.35,-15.13 376,-9.75 356.61,-8.1"/>
</g>
<!-- Node9&#45;&gt;Node10 -->
<g id="edge6" class="edge">
<title>Node9&#45;&gt;Node10</title>
<path fill="none" stroke="midnightblue" d="M222.49,-440C205.26,-440 187.18,-440 170.01,-440"/>
</g>
<!-- Node9&#45;&gt;Node11 -->
<g id="edge7" class="edge">
<title>Node9&#45;&gt;Node11</title>
<path fill="none" stroke="midnightblue" d="M252.27,-430.46C218.49,-424.68 175.54,-417.33 141.76,-411.54"/>
</g>
<!-- Node9&#45;&gt;Node12 -->
<g id="edge8" class="edge">
<title>Node9&#45;&gt;Node12</title>
<path fill="none" stroke="midnightblue" d="M228.86,-430.45C220.89,-427.97 213.12,-424.87 206,-421 185.56,-409.88 190.22,-394.51 170,-383 163.24,-379.15 155.77,-376.09 148.14,-373.64"/>
</g>
<!-- Node9&#45;&gt;Node13 -->
<g id="edge9" class="edge">
<title>Node9&#45;&gt;Node13</title>
<path fill="none" stroke="midnightblue" d="M222.37,-430.57C216.53,-428 210.99,-424.85 206,-421 176.39,-398.19 199.17,-368.37 170,-345 165.22,-341.17 159.81,-338.07 154.1,-335.58"/>
</g>
</g>
</svg>
        <g id="navigator" transform="translate(0 0)" fill="#404254">
                <rect fill="#f2f5e9" fill-opacity="0.5" stroke="#606060" stroke-width=".5" x="0" y="0" width="60" height="60"/>
                <use id="zoomplus" xlink:href="#zoomPlus" x="17" y="9" onmousedown="handleZoom(evt,'in')"/>
                <use id="zoomminus" xlink:href="#zoomMin" x="42" y="9" onmousedown="handleZoom(evt,'out')"/>
                <use id="reset" xlink:href="#resetDef" x="30" y="36" onmousedown="handleReset()"/>
                <g id="arrowUp" xlink:href="#dirArrow" transform="translate(30 24)" onmousedown="handlePan(0,-1)">
                  <use xlink:href="#rim" fill="#404040">
                        <set attributeName="fill" to="#808080" begin="arrowUp.mouseover" end="arrowUp.mouseout"/>
                  </use>
                  <path fill="none" stroke="white" stroke-width="1.5" d="M0,-3.0v7 M-2.5,-0.5L0,-3.0L2.5,-0.5"/>
                </g>
                <g id="arrowRight" xlink:href="#dirArrow" transform="rotate(90) translate(36 -43)" onmousedown="handlePan(1,0)">
                  <use xlink:href="#rim" fill="#404040">
                        <set attributeName="fill" to="#808080" begin="arrowRight.mouseover" end="arrowRight.mouseout"/>
                  </use>
                  <path fill="none" stroke="white" stroke-width="1.5" d="M0,-3.0v7 M-2.5,-0.5L0,-3.0L2.5,-0.5"/>
                </g>
                <g id="arrowDown" xlink:href="#dirArrow" transform="rotate(180) translate(-30 -48)" onmousedown="handlePan(0,1)">
                  <use xlink:href="#rim" fill="#404040">
                        <set attributeName="fill" to="#808080" begin="arrowDown.mouseover" end="arrowDown.mouseout"/>
                  </use>
                  <path fill="none" stroke="white" stroke-width="1.5" d="M0,-3.0v7 M-2.5,-0.5L0,-3.0L2.5,-0.5"/>
                </g>
                <g id="arrowLeft" xlink:href="#dirArrow" transform="rotate(270) translate(-36 17)" onmousedown="handlePan(-1,0)">
                  <use xlink:href="#rim" fill="#404040">
                        <set attributeName="fill" to="#808080" begin="arrowLeft.mouseover" end="arrowLeft.mouseout"/>
                  </use>
                  <path fill="none" stroke="white" stroke-width="1.5" d="M0,-3.0v7 M-2.5,-0.5L0,-3.0L2.5,-0.5"/>
                </g>
        </g>
        <svg viewBox="0 0 15 15" width="100%" height="30px" preserveAspectRatio="xMaxYMin meet">
         <g id="arrow_out" transform="scale(0.3 0.3)">
          <a xlink:href="rtcmEncoder_8hpp_a76660137eb3166909709e62fe4879c8a_icgraph_org.svg" target="_base">
           <rect id="button" ry="5" rx="5" y="6" x="6" height="38" width="38"
                fill="#f2f5e9" fill-opacity="0.5" stroke="#606060" stroke-width="1.0"/>
           <path id="arrow"
             d="M 11.500037,31.436501 C 11.940474,20.09759 22.043105,11.32322 32.158766,21.979434 L 37.068811,17.246167 C 37.068811,17.246167 37.088388,32 37.088388,32 L 22.160133,31.978069 C 22.160133,31.978069 26.997745,27.140456 26.997745,27.140456 C 18.528582,18.264221 13.291696,25.230495 11.500037,31.436501 z"
             style="fill:#404040;"/>
          </a>
         </g>
        </svg>
</svg>
