<?xml version="1.0" encoding="UTF-8" standalone="no"?>
<!DOCTYPE svg PUBLIC "-//W3C//DTD SVG 1.1//EN"
 "http://www.w3.org/Graphics/SVG/1.1/DTD/svg11.dtd">
<!-- Generated by graphviz version 2.43.0 (0)
 -->
<!-- Title: setbituInc Pages: 1 -->
<svg width="521pt" height="1104pt"
 viewBox="0.00 0.00 521.00 1104.00" xmlns="http://www.w3.org/2000/svg" xmlns:xlink="http://www.w3.org/1999/xlink">
<g id="graph0" class="graph" transform="scale(1 1) rotate(0) translate(4 1100)">
<title>setbituInc</title>
<polygon fill="white" stroke="transparent" points="-4,4 -4,-1100 517,-1100 517,4 -4,4"/>
<!-- Node1 -->
<g id="node1" class="node">
<title>Node1</title>
<g id="a_node1"><a xlink:title="increasingly set unsigned bits to byte data">
<polygon fill="#bfbfbf" stroke="black" points="448,-544.5 448,-563.5 513,-563.5 513,-544.5 448,-544.5"/>
<text text-anchor="middle" x="480.5" y="-551.5" font-family="Helvetica,sans-Serif" font-size="10.00">setbituInc</text>
</a>
</g>
</g>
<!-- Node2 -->
<g id="node2" class="node">
<title>Node2</title>
<g id="a_node2"><a xlink:href="prototypeCmpSSREncode_8cpp.html#a5d34004ef9d3ccd69db0d97fadbbbcd1" target="_top" xlink:title="Encode hybrid orbit and clock message warning: Only global mode supported warning: Requires both orbi...">
<polygon fill="white" stroke="red" points="251,-1076.5 251,-1095.5 367,-1095.5 367,-1076.5 251,-1076.5"/>
<text text-anchor="middle" x="309" y="-1083.5" font-family="Helvetica,sans-Serif" font-size="10.00">encodecompactCMB</text>
</a>
</g>
</g>
<!-- Node1&#45;&gt;Node2 -->
<g id="edge1" class="edge">
<title>Node1&#45;&gt;Node2</title>
<path fill="none" stroke="midnightblue" d="M479.86,-574.03C480.99,-659.71 480.84,-994.39 412,-1067 400.41,-1079.22 383.68,-1085.05 367.11,-1087.53"/>
<polygon fill="midnightblue" stroke="midnightblue" points="483.36,-573.78 479.71,-563.84 476.36,-573.89 483.36,-573.78"/>
</g>
<!-- Node6 -->
<g id="node3" class="node">
<title>Node6</title>
<g id="a_node3"><a xlink:href="prototypeCmpSSREncode_8cpp.html#acff15c3e501f1e5003eb79f7b6747629" target="_top" xlink:title=" ">
<polygon fill="white" stroke="red" points="252.5,-1038.5 252.5,-1057.5 365.5,-1057.5 365.5,-1038.5 252.5,-1038.5"/>
<text text-anchor="middle" x="309" y="-1045.5" font-family="Helvetica,sans-Serif" font-size="10.00">encodecompactCLK</text>
</a>
</g>
</g>
<!-- Node1&#45;&gt;Node6 -->
<g id="edge2" class="edge">
<title>Node1&#45;&gt;Node6</title>
<path fill="none" stroke="midnightblue" d="M479.63,-573.81C479.74,-655.16 475.84,-962.35 412,-1029 400.04,-1041.49 382.7,-1047.28 365.71,-1049.65"/>
<polygon fill="midnightblue" stroke="midnightblue" points="483.13,-573.49 479.59,-563.51 476.13,-573.52 483.13,-573.49"/>
</g>
<!-- Node7 -->
<g id="node4" class="node">
<title>Node7</title>
<g id="a_node4"><a xlink:href="structRtcmEncoder.html#a3fcbeeb38259b50d2684adf2d36efb9f" target="_top" xlink:title="encode GPS/GAL/BDS/QZS ephemeris messages">
<polygon fill="white" stroke="red" points="222,-1000.5 222,-1019.5 396,-1019.5 396,-1000.5 222,-1000.5"/>
<text text-anchor="middle" x="309" y="-1007.5" font-family="Helvetica,sans-Serif" font-size="10.00">RtcmEncoder::encodeEphemeris</text>
</a>
</g>
</g>
<!-- Node1&#45;&gt;Node7 -->
<g id="edge3" class="edge">
<title>Node1&#45;&gt;Node7</title>
<path fill="none" stroke="midnightblue" d="M479.35,-574.19C478.36,-651.92 470.71,-930.45 412,-991 407.36,-995.78 401.93,-999.58 396.04,-1002.58"/>
<polygon fill="midnightblue" stroke="midnightblue" points="482.86,-573.9 479.46,-563.87 475.86,-573.83 482.86,-573.9"/>
</g>
<!-- Node8 -->
<g id="node5" class="node">
<title>Node8</title>
<g id="a_node5"><a xlink:href="structRtcmParser.html#a6138840942a03f0a06ecb288ab412716" target="_top" xlink:title=" ">
<polygon fill="white" stroke="black" points="256.5,-962.5 256.5,-981.5 361.5,-981.5 361.5,-962.5 256.5,-962.5"/>
<text text-anchor="middle" x="309" y="-969.5" font-family="Helvetica,sans-Serif" font-size="10.00">RtcmParser::parse</text>
</a>
</g>
</g>
<!-- Node1&#45;&gt;Node8 -->
<g id="edge4" class="edge">
<title>Node1&#45;&gt;Node8</title>
<path fill="none" stroke="midnightblue" d="M478.9,-573.95C476.32,-646.22 463.79,-892.93 412,-948 399.1,-961.72 379.96,-968.26 361.73,-971.2"/>
<polygon fill="midnightblue" stroke="midnightblue" points="482.41,-573.68 479.24,-563.57 475.42,-573.45 482.41,-573.68"/>
</g>
<!-- Node9 -->
<g id="node6" class="node">
<title>Node9</title>
<g id="a_node6"><a xlink:href="structRtcmEncoder.html#a4fe1b66c1ca3051c79202253abf15099" target="_top" xlink:title="encode URA messages">
<polygon fill="white" stroke="red" points="7.5,-625.5 7.5,-644.5 162.5,-644.5 162.5,-625.5 7.5,-625.5"/>
<text text-anchor="middle" x="85" y="-632.5" font-family="Helvetica,sans-Serif" font-size="10.00">RtcmEncoder::encodeSsrUra</text>
</a>
</g>
</g>
<!-- Node1&#45;&gt;Node9 -->
<g id="edge5" class="edge">
<title>Node1&#45;&gt;Node9</title>
<path fill="none" stroke="midnightblue" d="M477.17,-573.69C470.38,-627.15 448.78,-772.92 412,-801 339.23,-856.55 280.2,-854.64 206,-801 164.65,-771.11 200.75,-732.71 170,-692 153.64,-670.34 126.57,-654.11 107.59,-644.62"/>
<polygon fill="midnightblue" stroke="midnightblue" points="480.64,-574.11 478.39,-563.76 473.69,-573.25 480.64,-574.11"/>
</g>
<!-- Node10 -->
<g id="node7" class="node">
<title>Node10</title>
<g id="a_node7"><a xlink:href="structRtcmEncoder.html#a18fe202e400a35f110954b78f93647ef" target="_top" xlink:title="encode code bias messages">
<polygon fill="white" stroke="red" points="4,-701.5 4,-720.5 166,-720.5 166,-701.5 4,-701.5"/>
<text text-anchor="middle" x="85" y="-708.5" font-family="Helvetica,sans-Serif" font-size="10.00">RtcmEncoder::encodeSsrCode</text>
</a>
</g>
</g>
<!-- Node1&#45;&gt;Node10 -->
<g id="edge6" class="edge">
<title>Node1&#45;&gt;Node10</title>
<path fill="none" stroke="midnightblue" d="M477.17,-573.69C470.38,-627.15 448.78,-772.92 412,-801 339.23,-856.55 287.1,-843.49 206,-801 181.1,-787.95 191.59,-767 170,-749 154.63,-736.19 134.25,-726.83 117.4,-720.6"/>
<polygon fill="midnightblue" stroke="midnightblue" points="480.64,-574.11 478.39,-563.76 473.69,-573.25 480.64,-574.11"/>
</g>
<!-- Node11 -->
<g id="node8" class="node">
<title>Node11</title>
<g id="a_node8"><a xlink:href="structRtcmEncoder.html#adaea4ff6e3c24a71716dd84ee0999fef" target="_top" xlink:title="encode phase bias messages">
<polygon fill="white" stroke="red" points="1.5,-758.5 1.5,-777.5 168.5,-777.5 168.5,-758.5 1.5,-758.5"/>
<text text-anchor="middle" x="85" y="-765.5" font-family="Helvetica,sans-Serif" font-size="10.00">RtcmEncoder::encodeSsrPhase</text>
</a>
</g>
</g>
<!-- Node1&#45;&gt;Node11 -->
<g id="edge7" class="edge">
<title>Node1&#45;&gt;Node11</title>
<path fill="none" stroke="midnightblue" d="M477.17,-573.69C470.38,-627.15 448.78,-772.92 412,-801 339.23,-856.55 296.73,-813.25 206,-801 173.24,-796.58 136.77,-785.65 112.74,-777.58"/>
<polygon fill="midnightblue" stroke="midnightblue" points="480.64,-574.11 478.39,-563.76 473.69,-573.25 480.64,-574.11"/>
</g>
<!-- Node12 -->
<g id="node9" class="node">
<title>Node12</title>
<g id="a_node9"><a xlink:href="structRtcmEncoder.html#a9a9812f3f6389d6d39eb59a0faff70b7" target="_top" xlink:title="encode orbit/clock messages">
<polygon fill="white" stroke="red" points="0,-805.5 0,-824.5 170,-824.5 170,-805.5 0,-805.5"/>
<text text-anchor="middle" x="85" y="-812.5" font-family="Helvetica,sans-Serif" font-size="10.00">RtcmEncoder::encodeSsrOrbClk</text>
</a>
</g>
</g>
<!-- Node1&#45;&gt;Node12 -->
<g id="edge8" class="edge">
<title>Node1&#45;&gt;Node12</title>
<path fill="none" stroke="midnightblue" d="M477.06,-573.94C470.06,-627.47 448.1,-772.2 412,-801 325.43,-870.08 180.96,-841.81 117.51,-824.6"/>
<polygon fill="midnightblue" stroke="midnightblue" points="480.57,-574.07 478.36,-563.71 473.62,-573.19 480.57,-574.07"/>
</g>
<!-- Node13 -->
<g id="node10" class="node">
<title>Node13</title>
<g id="a_node10"><a xlink:href="prototypeCmpSSREncode_8cpp.html#a41aeaca81b4d43a2e0ab3c47603f5c5d" target="_top" xlink:title=" ">
<polygon fill="white" stroke="red" points="251.5,-772.5 251.5,-791.5 366.5,-791.5 366.5,-772.5 251.5,-772.5"/>
<text text-anchor="middle" x="309" y="-779.5" font-family="Helvetica,sans-Serif" font-size="10.00">encodecompactORB</text>
</a>
</g>
</g>
<!-- Node1&#45;&gt;Node13 -->
<g id="edge9" class="edge">
<title>Node1&#45;&gt;Node13</title>
<path fill="none" stroke="midnightblue" d="M479.4,-573.73C478.06,-615.52 468.66,-713.18 412,-763 399.56,-773.94 382.88,-779.47 366.63,-782.07"/>
<polygon fill="midnightblue" stroke="midnightblue" points="482.9,-573.8 479.6,-563.73 475.9,-573.66 482.9,-573.8"/>
</g>
<!-- Node14 -->
<g id="node11" class="node">
<title>Node14</title>
<g id="a_node11"><a xlink:href="prototypeIgsSSREncode_8cpp.html#af3fc3638b16db1676d10fa1a4179860a" target="_top" xlink:title=" ">
<polygon fill="white" stroke="red" points="261.5,-734.5 261.5,-753.5 356.5,-753.5 356.5,-734.5 261.5,-734.5"/>
<text text-anchor="middle" x="309" y="-741.5" font-family="Helvetica,sans-Serif" font-size="10.00">encodeIGS_COD</text>
</a>
</g>
</g>
<!-- Node1&#45;&gt;Node14 -->
<g id="edge10" class="edge">
<title>Node1&#45;&gt;Node14</title>
<path fill="none" stroke="midnightblue" d="M477.77,-573.81C473.5,-609.88 459.11,-686.16 412,-725 396.64,-737.66 375.54,-742.93 356.51,-744.83"/>
<polygon fill="midnightblue" stroke="midnightblue" points="481.28,-573.91 478.83,-563.6 474.32,-573.19 481.28,-573.91"/>
</g>
<!-- Node15 -->
<g id="node12" class="node">
<title>Node15</title>
<g id="a_node12"><a xlink:href="prototypeCmpSSREncode_8cpp.html#a68ab799da815ca06424c11fb8a4417cd" target="_top" xlink:title=" ">
<polygon fill="white" stroke="red" points="251,-696.5 251,-715.5 367,-715.5 367,-696.5 251,-696.5"/>
<text text-anchor="middle" x="309" y="-703.5" font-family="Helvetica,sans-Serif" font-size="10.00">encodecompactMSK</text>
</a>
</g>
</g>
<!-- Node1&#45;&gt;Node15 -->
<g id="edge11" class="edge">
<title>Node1&#45;&gt;Node15</title>
<path fill="none" stroke="midnightblue" d="M474.66,-573.79C466.63,-602.24 447.79,-654.32 412,-682 399.19,-691.91 382.96,-697.82 367.24,-701.33"/>
<polygon fill="midnightblue" stroke="midnightblue" points="478.12,-574.38 477.29,-563.82 471.35,-572.59 478.12,-574.38"/>
</g>
<!-- Node16 -->
<g id="node13" class="node">
<title>Node16</title>
<g id="a_node13"><a xlink:href="prototypeCmpSSREncode_8cpp.html#a4b6189549f9a1dceed6413e8041c685d" target="_top" xlink:title=" ">
<polygon fill="white" stroke="red" points="28.5,-448.5 28.5,-467.5 141.5,-467.5 141.5,-448.5 28.5,-448.5"/>
<text text-anchor="middle" x="85" y="-455.5" font-family="Helvetica,sans-Serif" font-size="10.00">encodecompactSRV</text>
</a>
</g>
</g>
<!-- Node1&#45;&gt;Node16 -->
<g id="edge12" class="edge">
<title>Node1&#45;&gt;Node16</title>
<path fill="none" stroke="midnightblue" d="M472.4,-572.94C462.7,-595.77 442.87,-633.07 412,-649 330.64,-691 286.13,-693.29 206,-649 168.47,-628.26 107.33,-503.22 90.44,-467.52"/>
<polygon fill="midnightblue" stroke="midnightblue" points="475.68,-574.17 476.16,-563.59 469.18,-571.57 475.68,-574.17"/>
</g>
<!-- Node17 -->
<g id="node14" class="node">
<title>Node17</title>
<g id="a_node14"><a xlink:href="structRtcmEncoder.html#a0faafc925ae0857559dd9a911cc3b90d" target="_top" xlink:title="encode SSR header information">
<polygon fill="white" stroke="black" points="222.5,-620.5 222.5,-639.5 395.5,-639.5 395.5,-620.5 222.5,-620.5"/>
<text text-anchor="middle" x="309" y="-627.5" font-family="Helvetica,sans-Serif" font-size="10.00">RtcmEncoder::encodeSsrHeader</text>
</a>
</g>
</g>
<!-- Node1&#45;&gt;Node17 -->
<g id="edge13" class="edge">
<title>Node1&#45;&gt;Node17</title>
<path fill="none" stroke="midnightblue" d="M463.96,-571.28C451.28,-584.28 432.2,-601.42 412,-611 403.78,-614.9 394.83,-618 385.77,-620.46"/>
<polygon fill="midnightblue" stroke="midnightblue" points="466.68,-573.51 470.99,-563.83 461.58,-568.71 466.68,-573.51"/>
</g>
<!-- Node18 -->
<g id="node15" class="node">
<title>Node18</title>
<g id="a_node15"><a xlink:href="structRtcmEncoder.html#aec43680779bba008687e1f4f792960e1" target="_top" xlink:title=" ">
<polygon fill="white" stroke="red" points="206,-582.5 206,-601.5 412,-601.5 412,-582.5 206,-582.5"/>
<text text-anchor="middle" x="309" y="-589.5" font-family="Helvetica,sans-Serif" font-size="10.00">RtcmEncoder::encodeTimeStampRTCM</text>
</a>
</g>
</g>
<!-- Node1&#45;&gt;Node18 -->
<g id="edge18" class="edge">
<title>Node1&#45;&gt;Node18</title>
<path fill="none" stroke="midnightblue" d="M437.94,-566.33C429.4,-568.69 420.44,-571.03 412,-573 397.27,-576.44 381.22,-579.67 366.31,-582.45"/>
<polygon fill="midnightblue" stroke="midnightblue" points="439.04,-569.66 447.72,-563.58 437.15,-562.92 439.04,-569.66"/>
</g>
<!-- Node20 -->
<g id="node16" class="node">
<title>Node20</title>
<g id="a_node16"><a xlink:href="prototypeCmpSSREncode_8cpp.html#a47bc43c7fe02f1df2f66198afbbf509c" target="_top" xlink:title=" ">
<polygon fill="white" stroke="red" points="251.5,-544.5 251.5,-563.5 366.5,-563.5 366.5,-544.5 251.5,-544.5"/>
<text text-anchor="middle" x="309" y="-551.5" font-family="Helvetica,sans-Serif" font-size="10.00">encodecompactATM</text>
</a>
</g>
</g>
<!-- Node1&#45;&gt;Node20 -->
<g id="edge19" class="edge">
<title>Node1&#45;&gt;Node20</title>
<path fill="none" stroke="midnightblue" d="M437.56,-554C416.21,-554 389.93,-554 366.79,-554"/>
<polygon fill="midnightblue" stroke="midnightblue" points="437.62,-557.5 447.62,-554 437.62,-550.5 437.62,-557.5"/>
</g>
<!-- Node21 -->
<g id="node17" class="node">
<title>Node21</title>
<g id="a_node17"><a xlink:href="prototypeIgsSSREncode_8cpp.html#a5860e21c82b09ac4b4f9051c19ad626d" target="_top" xlink:title=" ">
<polygon fill="white" stroke="red" points="261.5,-506.5 261.5,-525.5 356.5,-525.5 356.5,-506.5 261.5,-506.5"/>
<text text-anchor="middle" x="309" y="-513.5" font-family="Helvetica,sans-Serif" font-size="10.00">encodeIGS_ORB</text>
</a>
</g>
</g>
<!-- Node1&#45;&gt;Node21 -->
<g id="edge20" class="edge">
<title>Node1&#45;&gt;Node21</title>
<path fill="none" stroke="midnightblue" d="M437.94,-541.67C429.4,-539.31 420.44,-536.97 412,-535 394.02,-530.8 374.09,-526.92 356.65,-523.78"/>
<polygon fill="midnightblue" stroke="midnightblue" points="437.15,-545.08 447.72,-544.42 439.04,-538.34 437.15,-545.08"/>
</g>
<!-- Node22 -->
<g id="node18" class="node">
<title>Node22</title>
<g id="a_node18"><a xlink:href="structRtcmEncoder.html#a714186471ab96d85b1fac9d1a18789a0" target="_top" xlink:title=" ">
<polygon fill="white" stroke="red" points="234.5,-457 234.5,-487 383.5,-487 383.5,-457 234.5,-457"/>
<text text-anchor="start" x="242.5" y="-475" font-family="Helvetica,sans-Serif" font-size="10.00">RtcmEncoder::encodeWrite</text>
<text text-anchor="middle" x="309" y="-464" font-family="Helvetica,sans-Serif" font-size="10.00">MessageToBuffer</text>
</a>
</g>
</g>
<!-- Node1&#45;&gt;Node22 -->
<g id="edge21" class="edge">
<title>Node1&#45;&gt;Node22</title>
<path fill="none" stroke="midnightblue" d="M463.81,-537.03C451.04,-524.21 431.92,-507.14 412,-497 403.14,-492.49 393.44,-488.77 383.64,-485.71"/>
<polygon fill="midnightblue" stroke="midnightblue" points="461.43,-539.6 470.89,-544.37 466.46,-534.74 461.43,-539.6"/>
</g>
<!-- Node23 -->
<g id="node19" class="node">
<title>Node23</title>
<g id="a_node19"><a xlink:href="prototypeIgsSSREncode_8cpp.html#a41fe2e1f1e8daaa5fb8158f1b7196681" target="_top" xlink:title=" ">
<polygon fill="white" stroke="red" points="262.5,-418.5 262.5,-437.5 355.5,-437.5 355.5,-418.5 262.5,-418.5"/>
<text text-anchor="middle" x="309" y="-425.5" font-family="Helvetica,sans-Serif" font-size="10.00">encodeIGS_PHS</text>
</a>
</g>
</g>
<!-- Node1&#45;&gt;Node23 -->
<g id="edge22" class="edge">
<title>Node1&#45;&gt;Node23</title>
<path fill="none" stroke="midnightblue" d="M472.93,-534.79C463.49,-510.28 443.67,-468.48 412,-447 395.6,-435.88 374.46,-430.8 355.69,-428.64"/>
<polygon fill="midnightblue" stroke="midnightblue" points="469.73,-536.23 476.44,-544.42 476.3,-533.83 469.73,-536.23"/>
</g>
<!-- Node24 -->
<g id="node20" class="node">
<title>Node24</title>
<g id="a_node20"><a xlink:href="prototypeCmpSSREncode_8cpp.html#a98b11d246882d1d0c3ae9a55895c3475" target="_top" xlink:title=" ">
<polygon fill="white" stroke="red" points="251,-380.5 251,-399.5 367,-399.5 367,-380.5 251,-380.5"/>
<text text-anchor="middle" x="309" y="-387.5" font-family="Helvetica,sans-Serif" font-size="10.00">encodecompactCOD</text>
</a>
</g>
</g>
<!-- Node1&#45;&gt;Node24 -->
<g id="edge23" class="edge">
<title>Node1&#45;&gt;Node24</title>
<path fill="none" stroke="midnightblue" d="M476.2,-534.12C469.81,-502.35 452.65,-440.52 412,-409 399.26,-399.12 382.96,-393.83 367.15,-391.12"/>
<polygon fill="midnightblue" stroke="midnightblue" points="472.83,-535.15 478.08,-544.35 479.71,-533.88 472.83,-535.15"/>
</g>
<!-- Node25 -->
<g id="node21" class="node">
<title>Node25</title>
<g id="a_node21"><a xlink:href="prototypeCmpSSREncode_8cpp.html#a6e9d01bf6b6264bf86f3a1f0e9ca47d5" target="_top" xlink:title=" ">
<polygon fill="white" stroke="red" points="251,-342.5 251,-361.5 367,-361.5 367,-342.5 251,-342.5"/>
<text text-anchor="middle" x="309" y="-349.5" font-family="Helvetica,sans-Serif" font-size="10.00">encodecompactGRD</text>
</a>
</g>
</g>
<!-- Node1&#45;&gt;Node25 -->
<g id="edge24" class="edge">
<title>Node1&#45;&gt;Node25</title>
<path fill="none" stroke="midnightblue" d="M478.33,-533.88C474.96,-495.78 461.96,-413.15 412,-371 399.54,-360.49 383.14,-355.03 367.15,-352.38"/>
<polygon fill="midnightblue" stroke="midnightblue" points="474.86,-534.47 479.09,-544.18 481.84,-533.95 474.86,-534.47"/>
</g>
<!-- Node26 -->
<g id="node22" class="node">
<title>Node26</title>
<g id="a_node22"><a xlink:href="prototypeCmpSSREncode_8cpp.html#a3db0d1bf31ba7b7b0ba6727ef58ca482" target="_top" xlink:title=" ">
<polygon fill="white" stroke="black" points="263.5,-304.5 263.5,-323.5 354.5,-323.5 354.5,-304.5 263.5,-304.5"/>
<text text-anchor="middle" x="309" y="-311.5" font-family="Helvetica,sans-Serif" font-size="10.00">encodeGridInfo</text>
</a>
</g>
</g>
<!-- Node1&#45;&gt;Node26 -->
<g id="edge25" class="edge">
<title>Node1&#45;&gt;Node26</title>
<path fill="none" stroke="midnightblue" d="M479.81,-534.05C479.31,-490.44 471.59,-386.25 412,-333 396.55,-319.2 374.4,-313.96 354.69,-312.38"/>
<polygon fill="midnightblue" stroke="midnightblue" points="476.31,-534.21 479.8,-544.21 483.31,-534.22 476.31,-534.21"/>
</g>
<!-- Node27 -->
<g id="node23" class="node">
<title>Node27</title>
<g id="a_node23"><a xlink:href="prototypeIgsSSREncode_8cpp.html#a0b52ed993dfc6fdce07c1047d9f7d228" target="_top" xlink:title=" ">
<polygon fill="white" stroke="red" points="261,-266.5 261,-285.5 357,-285.5 357,-266.5 261,-266.5"/>
<text text-anchor="middle" x="309" y="-273.5" font-family="Helvetica,sans-Serif" font-size="10.00">encodeIGS_CMB</text>
</a>
</g>
</g>
<!-- Node1&#45;&gt;Node27 -->
<g id="edge27" class="edge">
<title>Node1&#45;&gt;Node27</title>
<path fill="none" stroke="midnightblue" d="M477.07,-534.09C469.96,-479.29 447.47,-328.05 412,-295 397.37,-281.37 376.25,-275.99 357.02,-274.26"/>
<polygon fill="midnightblue" stroke="midnightblue" points="473.62,-534.77 478.35,-544.25 480.57,-533.89 473.62,-534.77"/>
</g>
<!-- Node28 -->
<g id="node24" class="node">
<title>Node28</title>
<g id="a_node24"><a xlink:href="prototypeCmpSSREncode_8cpp.html#a1468d4d2dbe32d84739b075117e28a08" target="_top" xlink:title=" ">
<polygon fill="white" stroke="red" points="252.5,-228.5 252.5,-247.5 365.5,-247.5 365.5,-228.5 252.5,-228.5"/>
<text text-anchor="middle" x="309" y="-235.5" font-family="Helvetica,sans-Serif" font-size="10.00">encodecompactPHS</text>
</a>
</g>
</g>
<!-- Node1&#45;&gt;Node28 -->
<g id="edge28" class="edge">
<title>Node1&#45;&gt;Node28</title>
<path fill="none" stroke="midnightblue" d="M477.81,-534.41C472.24,-474.57 452.47,-295.9 412,-257 399.66,-245.14 382.44,-239.47 365.65,-237.02"/>
<polygon fill="midnightblue" stroke="midnightblue" points="474.33,-534.78 478.71,-544.43 481.3,-534.15 474.33,-534.78"/>
</g>
<!-- Node29 -->
<g id="node25" class="node">
<title>Node29</title>
<g id="a_node25"><a xlink:href="prototypeCmpSSREncode_8cpp.html#a46c49d828f858552d52241146c8376d0" target="_top" xlink:title="Encode hybrid code and phase bias message warning 1: Currently only global mode supported.">
<polygon fill="white" stroke="red" points="254,-190.5 254,-209.5 364,-209.5 364,-190.5 254,-190.5"/>
<text text-anchor="middle" x="309" y="-197.5" font-family="Helvetica,sans-Serif" font-size="10.00">encodecompactBIA</text>
</a>
</g>
</g>
<!-- Node1&#45;&gt;Node29 -->
<g id="edge29" class="edge">
<title>Node1&#45;&gt;Node29</title>
<path fill="none" stroke="midnightblue" d="M478.33,-534.07C474.1,-468.89 457.35,-263.69 412,-219 399.43,-206.61 381.53,-200.92 364.23,-198.62"/>
<polygon fill="midnightblue" stroke="midnightblue" points="474.85,-534.47 478.96,-544.23 481.84,-534.03 474.85,-534.47"/>
</g>
<!-- Node30 -->
<g id="node26" class="node">
<title>Node30</title>
<g id="a_node26"><a xlink:href="prototypeCmpSSREncode_8cpp.html#a9cf0998d7d65a64e05e6f918213f78fa" target="_top" xlink:title=" ">
<polygon fill="white" stroke="red" points="252.5,-152.5 252.5,-171.5 365.5,-171.5 365.5,-152.5 252.5,-152.5"/>
<text text-anchor="middle" x="309" y="-159.5" font-family="Helvetica,sans-Serif" font-size="10.00">encodecompactTEC</text>
</a>
</g>
</g>
<!-- Node1&#45;&gt;Node30 -->
<g id="edge30" class="edge">
<title>Node1&#45;&gt;Node30</title>
<path fill="none" stroke="midnightblue" d="M478.78,-534.12C475.83,-464.27 462.34,-231.6 412,-181 399.87,-168.8 382.59,-163.06 365.7,-160.66"/>
<polygon fill="midnightblue" stroke="midnightblue" points="475.29,-534.36 479.18,-544.21 482.28,-534.08 475.29,-534.36"/>
</g>
<!-- Node31 -->
<g id="node27" class="node">
<title>Node31</title>
<g id="a_node27"><a xlink:href="prototypeIgsSSREncode_8cpp.html#aed2001951dab0df50a3e8890f6303240" target="_top" xlink:title=" ">
<polygon fill="white" stroke="red" points="263,-114.5 263,-133.5 355,-133.5 355,-114.5 263,-114.5"/>
<text text-anchor="middle" x="309" y="-121.5" font-family="Helvetica,sans-Serif" font-size="10.00">encodeIGS_CLK</text>
</a>
</g>
</g>
<!-- Node1&#45;&gt;Node31 -->
<g id="edge31" class="edge">
<title>Node1&#45;&gt;Node31</title>
<path fill="none" stroke="midnightblue" d="M479.14,-534.06C477.39,-459.65 467.33,-199.53 412,-143 397.38,-128.07 375.07,-122.77 355.04,-121.43"/>
<polygon fill="midnightblue" stroke="midnightblue" points="475.65,-534.43 479.36,-544.35 482.65,-534.28 475.65,-534.43"/>
</g>
<!-- Node32 -->
<g id="node28" class="node">
<title>Node32</title>
<g id="a_node28"><a xlink:href="prototypeIgsSSREncode_8cpp.html#a72d4233d3708a4ab1551b1139e6afb27" target="_top" xlink:title=" ">
<polygon fill="white" stroke="red" points="261.5,-76.5 261.5,-95.5 356.5,-95.5 356.5,-76.5 261.5,-76.5"/>
<text text-anchor="middle" x="309" y="-83.5" font-family="Helvetica,sans-Serif" font-size="10.00">encodeIGS_HRC</text>
</a>
</g>
</g>
<!-- Node1&#45;&gt;Node32 -->
<g id="edge32" class="edge">
<title>Node1&#45;&gt;Node32</title>
<path fill="none" stroke="midnightblue" d="M479.45,-533.77C478.8,-454.65 472.29,-167.43 412,-105 397.86,-90.36 376.33,-84.94 356.69,-83.46"/>
<polygon fill="midnightblue" stroke="midnightblue" points="475.95,-534.27 479.51,-544.25 482.95,-534.23 475.95,-534.27"/>
</g>
<!-- Node33 -->
<g id="node29" class="node">
<title>Node33</title>
<g id="a_node29"><a xlink:href="prototypeIgsSSREncode_8cpp.html#abe906d6281cf96f532c4c915582eed18" target="_top" xlink:title=" ">
<polygon fill="white" stroke="red" points="261.5,-38.5 261.5,-57.5 356.5,-57.5 356.5,-38.5 261.5,-38.5"/>
<text text-anchor="middle" x="309" y="-45.5" font-family="Helvetica,sans-Serif" font-size="10.00">encodeIGS_URA</text>
</a>
</g>
</g>
<!-- Node1&#45;&gt;Node33 -->
<g id="edge33" class="edge">
<title>Node1&#45;&gt;Node33</title>
<path fill="none" stroke="midnightblue" d="M479.71,-534.2C480.14,-451.59 477.44,-135.55 412,-67 397.88,-52.21 376.23,-46.8 356.51,-45.36"/>
<polygon fill="midnightblue" stroke="midnightblue" points="476.21,-534.23 479.63,-544.26 483.21,-534.28 476.21,-534.23"/>
</g>
<!-- Node34 -->
<g id="node30" class="node">
<title>Node34</title>
<g id="a_node30"><a xlink:href="prototypeIgsSSREncode_8cpp.html#aa4596898d24872dd68632fa953d5108c" target="_top" xlink:title=" ">
<polygon fill="white" stroke="red" points="261.5,-0.5 261.5,-19.5 356.5,-19.5 356.5,-0.5 261.5,-0.5"/>
<text text-anchor="middle" x="309" y="-7.5" font-family="Helvetica,sans-Serif" font-size="10.00">encodeIGS_ATM</text>
</a>
</g>
</g>
<!-- Node1&#45;&gt;Node34 -->
<g id="edge34" class="edge">
<title>Node1&#45;&gt;Node34</title>
<path fill="none" stroke="midnightblue" d="M479.92,-534.33C481.36,-448.01 482.53,-103.62 412,-29 397.96,-14.14 376.32,-8.72 356.57,-7.3"/>
<polygon fill="midnightblue" stroke="midnightblue" points="476.42,-534.29 479.74,-544.35 483.42,-534.42 476.42,-534.29"/>
</g>
<!-- Node17&#45;&gt;Node9 -->
<g id="edge17" class="edge">
<title>Node17&#45;&gt;Node9</title>
<path fill="none" stroke="midnightblue" d="M212.26,-632.16C195.72,-632.53 178.72,-632.91 162.76,-633.27"/>
<polygon fill="midnightblue" stroke="midnightblue" points="212.57,-635.65 222.49,-631.93 212.41,-628.65 212.57,-635.65"/>
</g>
<!-- Node17&#45;&gt;Node10 -->
<g id="edge16" class="edge">
<title>Node17&#45;&gt;Node10</title>
<path fill="none" stroke="midnightblue" d="M272.07,-643.11C227.34,-659.43 152.01,-686.92 112.3,-701.4"/>
<polygon fill="midnightblue" stroke="midnightblue" points="273.47,-646.33 281.66,-639.61 271.07,-639.75 273.47,-646.33"/>
</g>
<!-- Node17&#45;&gt;Node11 -->
<g id="edge15" class="edge">
<title>Node17&#45;&gt;Node11</title>
<path fill="none" stroke="midnightblue" d="M276.25,-644C255.12,-654.19 227.41,-669.27 206,-687 186.8,-702.9 189.85,-714.93 170,-730 153.55,-742.48 132.35,-752.04 115.37,-758.44"/>
<polygon fill="midnightblue" stroke="midnightblue" points="277.89,-647.1 285.45,-639.68 274.92,-640.77 277.89,-647.1"/>
</g>
<!-- Node17&#45;&gt;Node12 -->
<g id="edge14" class="edge">
<title>Node17&#45;&gt;Node12</title>
<path fill="none" stroke="midnightblue" d="M269.77,-643.57C248.43,-652.87 222.84,-667.14 206,-687 175.45,-723.03 203.8,-754 170,-787 161.42,-795.38 150.27,-801.25 138.92,-805.36"/>
<polygon fill="midnightblue" stroke="midnightblue" points="271.33,-646.71 279.22,-639.65 268.65,-640.25 271.33,-646.71"/>
</g>
<!-- Node26&#45;&gt;Node16 -->
<g id="edge26" class="edge">
<title>Node26&#45;&gt;Node16</title>
<path fill="none" stroke="midnightblue" d="M253.08,-317.87C237.2,-320.64 220.3,-325.28 206,-333 152,-362.15 107.86,-424.22 92.16,-448.23"/>
<polygon fill="midnightblue" stroke="midnightblue" points="253.97,-321.27 263.33,-316.31 252.91,-314.35 253.97,-321.27"/>
</g>
</g>
</svg>
