<?xml version="1.0" encoding="UTF-8" standalone="no"?>
<!DOCTYPE svg PUBLIC "-//W3C//DTD SVG 1.1//EN"
 "http://www.w3.org/Graphics/SVG/1.1/DTD/svg11.dtd">
<!-- Generated by graphviz version 2.43.0 (0)
 -->
<!-- Title: /data/acs/ginan/src/cpp/common/rtcmEncoder.hpp Pages: 1 -->
<!--zoomable 173 -->
<svg id="main" version="1.1" xmlns="http://www.w3.org/2000/svg" xmlns:xlink="http://www.w3.org/1999/xlink" xml:space="preserve" onload="init(evt)">
<style type="text/css"><![CDATA[
.edge:hover path { stroke: red; }
.edge:hover polygon { stroke: red; fill: red; }
]]></style>
<script type="text/javascript"><![CDATA[
var edges = document.getElementsByTagName('g');
if (edges && edges.length) {
  for (var i=0;i<edges.length;i++) {
    if (edges[i].id.substr(0,4)=='edge') {
      edges[i].setAttribute('class','edge');
    }
  }
}
]]></script>
        <defs>
                <circle id="rim" cx="0" cy="0" r="7"/>
                <circle id="rim2" cx="0" cy="0" r="3.5"/>
                <g id="zoomPlus">
                        <use xlink:href="#rim" fill="#404040">
                                <set attributeName="fill" to="#808080" begin="zoomplus.mouseover" end="zoomplus.mouseout"/>
                        </use>
                        <path d="M-4,0h8M0,-4v8" fill="none" stroke="white" stroke-width="1.5" pointer-events="none"/>
                </g>
                <g id="zoomMin">
                        <use xlink:href="#rim" fill="#404040">
                                <set attributeName="fill" to="#808080" begin="zoomminus.mouseover" end="zoomminus.mouseout"/>
                        </use>
                        <path d="M-4,0h8" fill="none" stroke="white" stroke-width="1.5" pointer-events="none"/>
                </g>
                <g id="dirArrow">
                        <path fill="none" stroke="white" stroke-width="1.5" d="M0,-3.0v7 M-2.5,-0.5L0,-3.0L2.5,-0.5"/>
                </g>
               <g id="resetDef">
                       <use xlink:href="#rim2" fill="#404040">
                               <set attributeName="fill" to="#808080" begin="reset.mouseover" end="reset.mouseout"/>
                       </use>
               </g>
        </defs>

<script type="text/javascript">
var viewWidth = 1294;
var viewHeight = 173;
var sectionId = 'dynsection-0';
</script>
<script xlink:href="svgpan.js"/>
<svg id="graph" class="graph">
<g id="viewport">
<title>/data/acs/ginan/src/cpp/common/rtcmEncoder.hpp</title>
<polygon fill="white" stroke="transparent" points="-4,4 -4,-169 1289.6,-169 1289.6,4 -4,4"/>
<!-- Node1 -->
<g id="node1" class="node">
<title>Node1</title>
<g id="a_node1"><a xlink:title=" ">
<polygon fill="#bfbfbf" stroke="black" points="685,-134.5 685,-164.5 853,-164.5 853,-134.5 685,-134.5"/>
<text text-anchor="start" x="693" y="-152.5" font-family="Helvetica,sans-Serif" font-size="10.00">/data/acs/ginan/src</text>
<text text-anchor="middle" x="769" y="-141.5" font-family="Helvetica,sans-Serif" font-size="10.00">/cpp/common/rtcmEncoder.hpp</text>
</a>
</g>
</g>
<!-- Node2 -->
<g id="node2" class="node">
<title>Node2</title>
<g id="a_node2"><a xlink:href="debug_8cpp.html" target="_top" xlink:title=" ">
<polygon fill="white" stroke="black" points="0,-67.5 0,-97.5 136,-97.5 136,-67.5 0,-67.5"/>
<text text-anchor="start" x="8" y="-85.5" font-family="Helvetica,sans-Serif" font-size="10.00">/data/acs/ginan/src</text>
<text text-anchor="middle" x="68" y="-74.5" font-family="Helvetica,sans-Serif" font-size="10.00">/cpp/common/debug.cpp</text>
</a>
</g>
</g>
<!-- Node1&#45;&gt;Node2 -->
<g id="edge1" class="edge">
<title>Node1&#45;&gt;Node2</title>
<path fill="none" stroke="midnightblue" d="M684.93,-144.51C564.8,-138.18 337.28,-123.81 145,-98 142.17,-97.62 139.28,-97.2 136.37,-96.76"/>
</g>
<!-- Node3 -->
<g id="node3" class="node">
<title>Node3</title>
<g id="a_node3"><a xlink:href="mongo_8cpp.html" target="_top" xlink:title=" ">
<polygon fill="white" stroke="black" points="154,-67.5 154,-97.5 294,-97.5 294,-67.5 154,-67.5"/>
<text text-anchor="start" x="162" y="-85.5" font-family="Helvetica,sans-Serif" font-size="10.00">/data/acs/ginan/src</text>
<text text-anchor="middle" x="224" y="-74.5" font-family="Helvetica,sans-Serif" font-size="10.00">/cpp/common/mongo.cpp</text>
</a>
</g>
</g>
<!-- Node1&#45;&gt;Node3 -->
<g id="edge2" class="edge">
<title>Node1&#45;&gt;Node3</title>
<path fill="none" stroke="midnightblue" d="M684.58,-141.23C591.05,-132.75 435.87,-117.37 303,-98 300.1,-97.58 297.15,-97.13 294.17,-96.66"/>
</g>
<!-- Node4 -->
<g id="node4" class="node">
<title>Node4</title>
<g id="a_node4"><a xlink:href="mongoRead_8hpp.html" target="_top" xlink:title=" ">
<polygon fill="white" stroke="red" points="312.5,-67.5 312.5,-97.5 477.5,-97.5 477.5,-67.5 312.5,-67.5"/>
<text text-anchor="start" x="320.5" y="-85.5" font-family="Helvetica,sans-Serif" font-size="10.00">/data/acs/ginan/src</text>
<text text-anchor="middle" x="395" y="-74.5" font-family="Helvetica,sans-Serif" font-size="10.00">/cpp/common/mongoRead.hpp</text>
</a>
</g>
</g>
<!-- Node1&#45;&gt;Node4 -->
<g id="edge3" class="edge">
<title>Node1&#45;&gt;Node4</title>
<path fill="none" stroke="midnightblue" d="M688.31,-134.48C625.5,-123.56 538.73,-108.48 475.87,-97.55"/>
</g>
<!-- Node12 -->
<g id="node5" class="node">
<title>Node12</title>
<g id="a_node5"><a xlink:href="mongoWrite_8cpp.html" target="_top" xlink:title=" ">
<polygon fill="white" stroke="black" points="496,-67.5 496,-97.5 662,-97.5 662,-67.5 496,-67.5"/>
<text text-anchor="start" x="504" y="-85.5" font-family="Helvetica,sans-Serif" font-size="10.00">/data/acs/ginan/src</text>
<text text-anchor="middle" x="579" y="-74.5" font-family="Helvetica,sans-Serif" font-size="10.00">/cpp/common/mongoWrite.cpp</text>
</a>
</g>
</g>
<!-- Node1&#45;&gt;Node12 -->
<g id="edge4" class="edge">
<title>Node1&#45;&gt;Node12</title>
<path fill="none" stroke="midnightblue" d="M727.77,-134.4C695.9,-123.49 652,-108.47 620.15,-97.58"/>
</g>
<!-- Node13 -->
<g id="node6" class="node">
<title>Node13</title>
<g id="a_node6"><a xlink:href="ntripBroadcast_8hpp.html" target="_top" xlink:title=" ">
<polygon fill="white" stroke="red" points="680,-67.5 680,-97.5 858,-97.5 858,-67.5 680,-67.5"/>
<text text-anchor="start" x="688" y="-85.5" font-family="Helvetica,sans-Serif" font-size="10.00">/data/acs/ginan/src</text>
<text text-anchor="middle" x="769" y="-74.5" font-family="Helvetica,sans-Serif" font-size="10.00">/cpp/common/ntripBroadcast.hpp</text>
</a>
</g>
</g>
<!-- Node1&#45;&gt;Node13 -->
<g id="edge5" class="edge">
<title>Node1&#45;&gt;Node13</title>
<path fill="none" stroke="midnightblue" d="M769,-134.4C769,-123.49 769,-108.47 769,-97.58"/>
</g>
<!-- Node14 -->
<g id="node7" class="node">
<title>Node14</title>
<g id="a_node7"><a xlink:href="main_8cpp.html" target="_top" xlink:title=" ">
<polygon fill="white" stroke="black" points="1144,-0.5 1144,-30.5 1252,-30.5 1252,-0.5 1144,-0.5"/>
<text text-anchor="start" x="1152" y="-18.5" font-family="Helvetica,sans-Serif" font-size="10.00">/data/acs/ginan/src</text>
<text text-anchor="middle" x="1198" y="-7.5" font-family="Helvetica,sans-Serif" font-size="10.00">/cpp/pea/main.cpp</text>
</a>
</g>
</g>
<!-- Node1&#45;&gt;Node14 -->
<g id="edge11" class="edge">
<title>Node1&#45;&gt;Node14</title>
<path fill="none" stroke="midnightblue" d="M853.26,-146.22C990.78,-141.62 1251.02,-128.89 1279,-98 1301.23,-73.46 1260.57,-46.48 1229.24,-30.54"/>
</g>
<!-- Node15 -->
<g id="node8" class="node">
<title>Node15</title>
<g id="a_node8"><a xlink:href="rtcmDecoder_8cpp.html" target="_top" xlink:title=" ">
<polygon fill="white" stroke="black" points="857.5,-0.5 857.5,-30.5 1026.5,-30.5 1026.5,-0.5 857.5,-0.5"/>
<text text-anchor="start" x="865.5" y="-18.5" font-family="Helvetica,sans-Serif" font-size="10.00">/data/acs/ginan/src</text>
<text text-anchor="middle" x="942" y="-7.5" font-family="Helvetica,sans-Serif" font-size="10.00">/cpp/common/rtcmDecoder.cpp</text>
</a>
</g>
</g>
<!-- Node1&#45;&gt;Node15 -->
<g id="edge7" class="edge">
<title>Node1&#45;&gt;Node15</title>
<path fill="none" stroke="midnightblue" d="M803.39,-134.39C823.02,-125.48 847.52,-112.85 867,-98 893.3,-77.95 918.12,-48.05 931.57,-30.59"/>
</g>
<!-- Node16 -->
<g id="node9" class="node">
<title>Node16</title>
<g id="a_node9"><a xlink:href="rtcmDecoder_8hpp.html" target="_top" xlink:title=" ">
<polygon fill="white" stroke="red" points="914,-67.5 914,-97.5 1084,-97.5 1084,-67.5 914,-67.5"/>
<text text-anchor="start" x="922" y="-85.5" font-family="Helvetica,sans-Serif" font-size="10.00">/data/acs/ginan/src</text>
<text text-anchor="middle" x="999" y="-74.5" font-family="Helvetica,sans-Serif" font-size="10.00">/cpp/common/rtcmDecoder.hpp</text>
</a>
</g>
</g>
<!-- Node1&#45;&gt;Node16 -->
<g id="edge8" class="edge">
<title>Node1&#45;&gt;Node16</title>
<path fill="none" stroke="midnightblue" d="M818.62,-134.48C857.18,-123.58 910.43,-108.53 949.07,-97.61"/>
</g>
<!-- Node27 -->
<g id="node10" class="node">
<title>Node27</title>
<g id="a_node10"><a xlink:href="rtcmEncoder_8cpp.html" target="_top" xlink:title=" ">
<polygon fill="white" stroke="black" points="1102.5,-67.5 1102.5,-97.5 1269.5,-97.5 1269.5,-67.5 1102.5,-67.5"/>
<text text-anchor="start" x="1110.5" y="-85.5" font-family="Helvetica,sans-Serif" font-size="10.00">/data/acs/ginan/src</text>
<text text-anchor="middle" x="1186" y="-74.5" font-family="Helvetica,sans-Serif" font-size="10.00">/cpp/common/rtcmEncoder.cpp</text>
</a>
</g>
</g>
<!-- Node1&#45;&gt;Node27 -->
<g id="edge10" class="edge">
<title>Node1&#45;&gt;Node27</title>
<path fill="none" stroke="midnightblue" d="M853.14,-135.39C925.7,-124.07 1029.93,-107.83 1102.35,-96.54"/>
</g>
<!-- Node13&#45;&gt;Node14 -->
<g id="edge6" class="edge">
<title>Node13&#45;&gt;Node14</title>
<path fill="none" stroke="midnightblue" d="M858.15,-67.99C944.32,-54.94 1072.06,-35.58 1143.88,-24.7"/>
</g>
<!-- Node16&#45;&gt;Node15 -->
<g id="edge9" class="edge">
<title>Node16&#45;&gt;Node15</title>
<path fill="none" stroke="midnightblue" d="M986.63,-67.4C977.07,-56.49 963.9,-41.47 954.34,-30.58"/>
</g>
</g>
</svg>
        <g id="navigator" transform="translate(0 0)" fill="#404254">
                <rect fill="#f2f5e9" fill-opacity="0.5" stroke="#606060" stroke-width=".5" x="0" y="0" width="60" height="60"/>
                <use id="zoomplus" xlink:href="#zoomPlus" x="17" y="9" onmousedown="handleZoom(evt,'in')"/>
                <use id="zoomminus" xlink:href="#zoomMin" x="42" y="9" onmousedown="handleZoom(evt,'out')"/>
                <use id="reset" xlink:href="#resetDef" x="30" y="36" onmousedown="handleReset()"/>
                <g id="arrowUp" xlink:href="#dirArrow" transform="translate(30 24)" onmousedown="handlePan(0,-1)">
                  <use xlink:href="#rim" fill="#404040">
                        <set attributeName="fill" to="#808080" begin="arrowUp.mouseover" end="arrowUp.mouseout"/>
                  </use>
                  <path fill="none" stroke="white" stroke-width="1.5" d="M0,-3.0v7 M-2.5,-0.5L0,-3.0L2.5,-0.5"/>
                </g>
                <g id="arrowRight" xlink:href="#dirArrow" transform="rotate(90) translate(36 -43)" onmousedown="handlePan(1,0)">
                  <use xlink:href="#rim" fill="#404040">
                        <set attributeName="fill" to="#808080" begin="arrowRight.mouseover" end="arrowRight.mouseout"/>
                  </use>
                  <path fill="none" stroke="white" stroke-width="1.5" d="M0,-3.0v7 M-2.5,-0.5L0,-3.0L2.5,-0.5"/>
                </g>
                <g id="arrowDown" xlink:href="#dirArrow" transform="rotate(180) translate(-30 -48)" onmousedown="handlePan(0,1)">
                  <use xlink:href="#rim" fill="#404040">
                        <set attributeName="fill" to="#808080" begin="arrowDown.mouseover" end="arrowDown.mouseout"/>
                  </use>
                  <path fill="none" stroke="white" stroke-width="1.5" d="M0,-3.0v7 M-2.5,-0.5L0,-3.0L2.5,-0.5"/>
                </g>
                <g id="arrowLeft" xlink:href="#dirArrow" transform="rotate(270) translate(-36 17)" onmousedown="handlePan(-1,0)">
                  <use xlink:href="#rim" fill="#404040">
                        <set attributeName="fill" to="#808080" begin="arrowLeft.mouseover" end="arrowLeft.mouseout"/>
                  </use>
                  <path fill="none" stroke="white" stroke-width="1.5" d="M0,-3.0v7 M-2.5,-0.5L0,-3.0L2.5,-0.5"/>
                </g>
        </g>
        <svg viewBox="0 0 15 15" width="100%" height="30px" preserveAspectRatio="xMaxYMin meet">
         <g id="arrow_out" transform="scale(0.3 0.3)">
          <a xlink:href="rtcmEncoder_8hpp__dep__incl_org.svg" target="_base">
           <rect id="button" ry="5" rx="5" y="6" x="6" height="38" width="38"
                fill="#f2f5e9" fill-opacity="0.5" stroke="#606060" stroke-width="1.0"/>
           <path id="arrow"
             d="M 11.500037,31.436501 C 11.940474,20.09759 22.043105,11.32322 32.158766,21.979434 L 37.068811,17.246167 C 37.068811,17.246167 37.088388,32 37.088388,32 L 22.160133,31.978069 C 22.160133,31.978069 26.997745,27.140456 26.997745,27.140456 C 18.528582,18.264221 13.291696,25.230495 11.500037,31.436501 z"
             style="fill:#404040;"/>
          </a>
         </g>
        </svg>
</svg>
