<?xml version="1.0" encoding="UTF-8" standalone="no"?>
<!DOCTYPE svg PUBLIC "-//W3C//DTD SVG 1.1//EN"
 "http://www.w3.org/Graphics/SVG/1.1/DTD/svg11.dtd">
<!-- Generated by graphviz version 2.43.0 (0)
 -->
<!-- Title: getbitu Pages: 1 -->
<!--zoomable 320 -->
<svg id="main" version="1.1" xmlns="http://www.w3.org/2000/svg" xmlns:xlink="http://www.w3.org/1999/xlink" xml:space="preserve" onload="init(evt)">
<style type="text/css"><![CDATA[
.edge:hover path { stroke: red; }
.edge:hover polygon { stroke: red; fill: red; }
]]></style>
<script type="text/javascript"><![CDATA[
var edges = document.getElementsByTagName('g');
if (edges && edges.length) {
  for (var i=0;i<edges.length;i++) {
    if (edges[i].id.substr(0,4)=='edge') {
      edges[i].setAttribute('class','edge');
    }
  }
}
]]></script>
        <defs>
                <circle id="rim" cx="0" cy="0" r="7"/>
                <circle id="rim2" cx="0" cy="0" r="3.5"/>
                <g id="zoomPlus">
                        <use xlink:href="#rim" fill="#404040">
                                <set attributeName="fill" to="#808080" begin="zoomplus.mouseover" end="zoomplus.mouseout"/>
                        </use>
                        <path d="M-4,0h8M0,-4v8" fill="none" stroke="white" stroke-width="1.5" pointer-events="none"/>
                </g>
                <g id="zoomMin">
                        <use xlink:href="#rim" fill="#404040">
                                <set attributeName="fill" to="#808080" begin="zoomminus.mouseover" end="zoomminus.mouseout"/>
                        </use>
                        <path d="M-4,0h8" fill="none" stroke="white" stroke-width="1.5" pointer-events="none"/>
                </g>
                <g id="dirArrow">
                        <path fill="none" stroke="white" stroke-width="1.5" d="M0,-3.0v7 M-2.5,-0.5L0,-3.0L2.5,-0.5"/>
                </g>
               <g id="resetDef">
                       <use xlink:href="#rim2" fill="#404040">
                               <set attributeName="fill" to="#808080" begin="reset.mouseover" end="reset.mouseout"/>
                       </use>
               </g>
        </defs>

<script type="text/javascript">
var viewWidth = 509;
var viewHeight = 320;
var sectionId = 'dynsection-13';
</script>
<script xlink:href="svgpan.js"/>
<svg id="graph" class="graph">
<g id="viewport">
<title>getbitu</title>
<polygon fill="white" stroke="transparent" points="-4,4 -4,-316.01 505,-316.01 505,4 -4,4"/>
<!-- Node1 -->
<g id="node1" class="node">
<title>Node1</title>
<g id="a_node1"><a xlink:title="extract unsigned bits from byte data">
<polygon fill="#bfbfbf" stroke="black" points="450,-149.72 450,-168.72 501,-168.72 501,-149.72 450,-149.72"/>
<text text-anchor="middle" x="475.5" y="-156.72" font-family="Helvetica,sans-Serif" font-size="10.00">getbitu</text>
</a>
</g>
</g>
<!-- Node2 -->
<g id="node2" class="node">
<title>Node2</title>
<g id="a_node2"><a xlink:href="structRtcmDecoder.html#a34dfe8bbed06d1cabb0fed2899584dfd" target="_top" xlink:title=" ">
<polygon fill="white" stroke="black" points="141,-111.72 141,-130.72 265,-130.72 265,-111.72 141,-111.72"/>
<text text-anchor="middle" x="203" y="-118.72" font-family="Helvetica,sans-Serif" font-size="10.00">RtcmDecoder::decode</text>
</a>
</g>
</g>
<!-- Node1&#45;&gt;Node2 -->
<g id="edge1" class="edge">
<title>Node1&#45;&gt;Node2</title>
<path fill="none" stroke="midnightblue" d="M472.11,-179.09C467.26,-209.58 453.15,-267.01 414,-292.22 371.77,-319.4 344.4,-317.49 301,-292.22 238.18,-255.63 212.75,-161.55 205.97,-130.97"/>
<polygon fill="midnightblue" stroke="midnightblue" points="475.63,-179.23 473.55,-168.85 468.69,-178.26 475.63,-179.23"/>
</g>
<!-- Node3 -->
<g id="node3" class="node">
<title>Node3</title>
<g id="a_node3"><a xlink:href="structRtcmParser.html#a6138840942a03f0a06ecb288ab412716" target="_top" xlink:title=" ">
<polygon fill="white" stroke="black" points="0,-92.72 0,-111.72 105,-111.72 105,-92.72 0,-92.72"/>
<text text-anchor="middle" x="52.5" y="-99.72" font-family="Helvetica,sans-Serif" font-size="10.00">RtcmParser::parse</text>
</a>
</g>
</g>
<!-- Node1&#45;&gt;Node3 -->
<g id="edge15" class="edge">
<title>Node1&#45;&gt;Node3</title>
<path fill="none" stroke="midnightblue" d="M472.11,-139.34C467.26,-108.85 453.15,-51.42 414,-26.22 296.75,49.26 117.77,-58.92 67.22,-92.7"/>
<polygon fill="midnightblue" stroke="midnightblue" points="468.69,-140.17 473.55,-149.59 475.63,-139.2 468.69,-140.17"/>
</g>
<!-- Node4 -->
<g id="node4" class="node">
<title>Node4</title>
<g id="a_node4"><a xlink:href="prototypeCmpSSRDecode_8cpp.html#a64568502e5d54f952257863f6a753f7d" target="_top" xlink:title=" ">
<polygon fill="white" stroke="black" points="301,-263.72 301,-282.72 414,-282.72 414,-263.72 301,-263.72"/>
<text text-anchor="middle" x="357.5" y="-270.72" font-family="Helvetica,sans-Serif" font-size="10.00">decodecompactSSR</text>
</a>
</g>
</g>
<!-- Node1&#45;&gt;Node4 -->
<g id="edge3" class="edge">
<title>Node1&#45;&gt;Node4</title>
<path fill="none" stroke="midnightblue" d="M467.05,-178.13C457.71,-199.51 439.75,-233.95 414,-254.22 409.12,-258.06 403.41,-261.15 397.55,-263.63"/>
<polygon fill="midnightblue" stroke="midnightblue" points="470.32,-179.39 470.94,-168.81 463.86,-176.69 470.32,-179.39"/>
</g>
<!-- Node5 -->
<g id="node5" class="node">
<title>Node5</title>
<g id="a_node5"><a xlink:href="rtcmDecoder_8cpp.html#ad48f005e9a609843e1616f9267a27d29" target="_top" xlink:title="extract unsigned bits from RTCM messages">
<polygon fill="white" stroke="black" points="332,-225.72 332,-244.72 383,-244.72 383,-225.72 332,-225.72"/>
<text text-anchor="middle" x="357.5" y="-232.72" font-family="Helvetica,sans-Serif" font-size="10.00">getbitu</text>
</a>
</g>
</g>
<!-- Node1&#45;&gt;Node5 -->
<g id="edge6" class="edge">
<title>Node1&#45;&gt;Node5</title>
<path fill="none" stroke="midnightblue" d="M459.81,-176.57C448.42,-189.08 431.64,-205.58 414,-216.22 404.58,-221.9 393.23,-226.17 383.26,-229.2"/>
<polygon fill="midnightblue" stroke="midnightblue" points="462.48,-178.84 466.47,-169.02 457.23,-174.2 462.48,-178.84"/>
</g>
<!-- Node6 -->
<g id="node6" class="node">
<title>Node6</title>
<g id="a_node6"><a xlink:href="rtcmDecoder_8cpp.html#a2b4fecad74db6a33e3e755d5c55245ad" target="_top" xlink:title="extract signed bits from byte data">
<polygon fill="white" stroke="red" points="332.5,-187.72 332.5,-206.72 382.5,-206.72 382.5,-187.72 332.5,-187.72"/>
<text text-anchor="middle" x="357.5" y="-194.72" font-family="Helvetica,sans-Serif" font-size="10.00">getbits</text>
</a>
</g>
</g>
<!-- Node1&#45;&gt;Node6 -->
<g id="edge7" class="edge">
<title>Node1&#45;&gt;Node6</title>
<path fill="none" stroke="midnightblue" d="M440.35,-170.4C421.82,-176.47 399.37,-183.83 382.67,-189.3"/>
<polygon fill="midnightblue" stroke="midnightblue" points="441.49,-173.71 449.9,-167.28 439.31,-167.06 441.49,-173.71"/>
</g>
<!-- Node32 -->
<g id="node7" class="node">
<title>Node32</title>
<g id="a_node7"><a xlink:href="prototypeCmpSSRDecode_8cpp.html#a8167de7b2614ee14859e06539ffa465c" target="_top" xlink:title=" ">
<polygon fill="white" stroke="red" points="301,-149.72 301,-168.72 414,-168.72 414,-149.72 301,-149.72"/>
<text text-anchor="middle" x="357.5" y="-156.72" font-family="Helvetica,sans-Serif" font-size="10.00">processServiceData</text>
</a>
</g>
</g>
<!-- Node1&#45;&gt;Node32 -->
<g id="edge8" class="edge">
<title>Node1&#45;&gt;Node32</title>
<path fill="none" stroke="midnightblue" d="M439.74,-159.22C431.65,-159.22 422.83,-159.22 414.09,-159.22"/>
<polygon fill="midnightblue" stroke="midnightblue" points="439.9,-162.72 449.9,-159.22 439.9,-155.72 439.9,-162.72"/>
</g>
<!-- Node35 -->
<g id="node8" class="node">
<title>Node35</title>
<g id="a_node8"><a xlink:href="rtcmDecoder_8cpp.html#aaa6463f592ed6478626814466d3d02a5" target="_top" xlink:title="increasingly extract unsigned bits from byte data">
<polygon fill="white" stroke="red" points="325,-111.72 325,-130.72 390,-130.72 390,-111.72 325,-111.72"/>
<text text-anchor="middle" x="357.5" y="-118.72" font-family="Helvetica,sans-Serif" font-size="10.00">getbituInc</text>
</a>
</g>
</g>
<!-- Node1&#45;&gt;Node35 -->
<g id="edge9" class="edge">
<title>Node1&#45;&gt;Node35</title>
<path fill="none" stroke="midnightblue" d="M439.97,-147.91C423.29,-142.44 403.48,-135.95 387.58,-130.74"/>
<polygon fill="midnightblue" stroke="midnightblue" points="439.31,-151.37 449.9,-151.16 441.49,-144.72 439.31,-151.37"/>
</g>
<!-- Node9 -->
<g id="node9" class="node">
<title>Node9</title>
<g id="a_node9"><a xlink:href="prototypeIgsSSRDecode_8cpp.html#a877c5fcee94f02d79c72ae82b423a701" target="_top" xlink:title=" ">
<polygon fill="white" stroke="black" points="315,-73.72 315,-92.72 400,-92.72 400,-73.72 315,-73.72"/>
<text text-anchor="middle" x="357.5" y="-80.72" font-family="Helvetica,sans-Serif" font-size="10.00">decodeigsSSR</text>
</a>
</g>
</g>
<!-- Node1&#45;&gt;Node9 -->
<g id="edge12" class="edge">
<title>Node1&#45;&gt;Node9</title>
<path fill="none" stroke="midnightblue" d="M459.81,-141.86C448.42,-129.35 431.64,-112.85 414,-102.22 407.81,-98.48 400.78,-95.36 393.86,-92.79"/>
<polygon fill="midnightblue" stroke="midnightblue" points="457.23,-144.23 466.47,-149.41 462.48,-139.6 457.23,-144.23"/>
</g>
<!-- Node45 -->
<g id="node10" class="node">
<title>Node45</title>
<g id="a_node10"><a xlink:href="rtcmDecoder_8cpp.html#a48a309e0f4832dd7f5025c0717c5c645" target="_top" xlink:title="extract sign&#45;magnitude bits applied in GLO nav messages from byte data">
<polygon fill="white" stroke="red" points="332,-35.72 332,-54.72 383,-54.72 383,-35.72 332,-35.72"/>
<text text-anchor="middle" x="357.5" y="-42.72" font-family="Helvetica,sans-Serif" font-size="10.00">getbitg</text>
</a>
</g>
</g>
<!-- Node1&#45;&gt;Node45 -->
<g id="edge14" class="edge">
<title>Node1&#45;&gt;Node45</title>
<path fill="none" stroke="midnightblue" d="M467.05,-140.3C457.71,-118.92 439.75,-84.48 414,-64.22 405.12,-57.22 393.5,-52.72 383.2,-49.87"/>
<polygon fill="midnightblue" stroke="midnightblue" points="463.86,-141.74 470.94,-149.62 470.32,-139.04 463.86,-141.74"/>
</g>
<!-- Node2&#45;&gt;Node3 -->
<g id="edge2" class="edge">
<title>Node2&#45;&gt;Node3</title>
<path fill="none" stroke="midnightblue" d="M130.69,-112.09C122.07,-110.99 113.41,-109.88 105.16,-108.83"/>
<polygon fill="midnightblue" stroke="midnightblue" points="130.38,-115.58 140.74,-113.38 131.27,-108.64 130.38,-115.58"/>
</g>
<!-- Node4&#45;&gt;Node2 -->
<g id="edge4" class="edge">
<title>Node4&#45;&gt;Node2</title>
<path fill="none" stroke="midnightblue" d="M309.41,-259.47C306.46,-257.9 303.62,-256.15 301,-254.22 253.84,-219.45 220.01,-155.08 208.4,-130.81"/>
<polygon fill="midnightblue" stroke="midnightblue" points="307.98,-262.67 318.53,-263.71 310.93,-256.32 307.98,-262.67"/>
</g>
<!-- Node4&#45;&gt;Node3 -->
<g id="edge5" class="edge">
<title>Node4&#45;&gt;Node3</title>
<path fill="none" stroke="midnightblue" d="M304.87,-257.91C303.5,-256.77 302.2,-255.54 301,-254.22 254.35,-202.8 319.45,-145.28 265,-102.22 211.43,-59.85 124.05,-79.05 80.28,-92.71"/>
<polygon fill="midnightblue" stroke="midnightblue" points="303.17,-260.99 313.44,-263.58 307.03,-255.15 303.17,-260.99"/>
</g>
<!-- Node35&#45;&gt;Node2 -->
<g id="edge11" class="edge">
<title>Node35&#45;&gt;Node2</title>
<path fill="none" stroke="midnightblue" d="M314.73,-121.22C299.43,-121.22 281.79,-121.22 265.15,-121.22"/>
<polygon fill="midnightblue" stroke="midnightblue" points="314.9,-124.72 324.9,-121.22 314.9,-117.72 314.9,-124.72"/>
</g>
<!-- Node35&#45;&gt;Node3 -->
<g id="edge10" class="edge">
<title>Node35&#45;&gt;Node3</title>
<path fill="none" stroke="midnightblue" d="M314.78,-132.02C271.06,-141.7 200.58,-152.59 141,-140.22 114.89,-134.79 87.02,-121.16 69.92,-111.79"/>
<polygon fill="midnightblue" stroke="midnightblue" points="315.79,-135.38 324.76,-129.73 314.23,-128.56 315.79,-135.38"/>
</g>
<!-- Node9&#45;&gt;Node2 -->
<g id="edge13" class="edge">
<title>Node9&#45;&gt;Node2</title>
<path fill="none" stroke="midnightblue" d="M308.18,-95.26C286.88,-100.57 262.2,-106.71 242.21,-111.7"/>
<polygon fill="midnightblue" stroke="midnightblue" points="309.16,-98.62 318.02,-92.81 307.47,-91.83 309.16,-98.62"/>
</g>
</g>
</svg>
        <g id="navigator" transform="translate(0 0)" fill="#404254">
                <rect fill="#f2f5e9" fill-opacity="0.5" stroke="#606060" stroke-width=".5" x="0" y="0" width="60" height="60"/>
                <use id="zoomplus" xlink:href="#zoomPlus" x="17" y="9" onmousedown="handleZoom(evt,'in')"/>
                <use id="zoomminus" xlink:href="#zoomMin" x="42" y="9" onmousedown="handleZoom(evt,'out')"/>
                <use id="reset" xlink:href="#resetDef" x="30" y="36" onmousedown="handleReset()"/>
                <g id="arrowUp" xlink:href="#dirArrow" transform="translate(30 24)" onmousedown="handlePan(0,-1)">
                  <use xlink:href="#rim" fill="#404040">
                        <set attributeName="fill" to="#808080" begin="arrowUp.mouseover" end="arrowUp.mouseout"/>
                  </use>
                  <path fill="none" stroke="white" stroke-width="1.5" d="M0,-3.0v7 M-2.5,-0.5L0,-3.0L2.5,-0.5"/>
                </g>
                <g id="arrowRight" xlink:href="#dirArrow" transform="rotate(90) translate(36 -43)" onmousedown="handlePan(1,0)">
                  <use xlink:href="#rim" fill="#404040">
                        <set attributeName="fill" to="#808080" begin="arrowRight.mouseover" end="arrowRight.mouseout"/>
                  </use>
                  <path fill="none" stroke="white" stroke-width="1.5" d="M0,-3.0v7 M-2.5,-0.5L0,-3.0L2.5,-0.5"/>
                </g>
                <g id="arrowDown" xlink:href="#dirArrow" transform="rotate(180) translate(-30 -48)" onmousedown="handlePan(0,1)">
                  <use xlink:href="#rim" fill="#404040">
                        <set attributeName="fill" to="#808080" begin="arrowDown.mouseover" end="arrowDown.mouseout"/>
                  </use>
                  <path fill="none" stroke="white" stroke-width="1.5" d="M0,-3.0v7 M-2.5,-0.5L0,-3.0L2.5,-0.5"/>
                </g>
                <g id="arrowLeft" xlink:href="#dirArrow" transform="rotate(270) translate(-36 17)" onmousedown="handlePan(-1,0)">
                  <use xlink:href="#rim" fill="#404040">
                        <set attributeName="fill" to="#808080" begin="arrowLeft.mouseover" end="arrowLeft.mouseout"/>
                  </use>
                  <path fill="none" stroke="white" stroke-width="1.5" d="M0,-3.0v7 M-2.5,-0.5L0,-3.0L2.5,-0.5"/>
                </g>
        </g>
        <svg viewBox="0 0 15 15" width="100%" height="30px" preserveAspectRatio="xMaxYMin meet">
         <g id="arrow_out" transform="scale(0.3 0.3)">
          <a xlink:href="rtcmDecoder_8hpp_a85a03123ae20efc3b06434f616140943_icgraph_org.svg" target="_base">
           <rect id="button" ry="5" rx="5" y="6" x="6" height="38" width="38"
                fill="#f2f5e9" fill-opacity="0.5" stroke="#606060" stroke-width="1.0"/>
           <path id="arrow"
             d="M 11.500037,31.436501 C 11.940474,20.09759 22.043105,11.32322 32.158766,21.979434 L 37.068811,17.246167 C 37.068811,17.246167 37.088388,32 37.088388,32 L 22.160133,31.978069 C 22.160133,31.978069 26.997745,27.140456 26.997745,27.140456 C 18.528582,18.264221 13.291696,25.230495 11.500037,31.436501 z"
             style="fill:#404040;"/>
          </a>
         </g>
        </svg>
</svg>
