<?xml version="1.0" encoding="UTF-8" standalone="no"?>
<!DOCTYPE svg PUBLIC "-//W3C//DTD SVG 1.1//EN"
 "http://www.w3.org/Graphics/SVG/1.1/DTD/svg11.dtd">
<!-- Generated by graphviz version 2.43.0 (0)
 -->
<!-- Title: postRTSActions Pages: 1 -->
<svg width="269pt" height="294pt"
 viewBox="0.00 0.00 269.00 294.00" xmlns="http://www.w3.org/2000/svg" xmlns:xlink="http://www.w3.org/1999/xlink">
<g id="graph0" class="graph" transform="scale(1 1) rotate(0) translate(4 290)">
<title>postRTSActions</title>
<polygon fill="white" stroke="transparent" points="-4,4 -4,-290 265,-290 265,4 -4,4"/>
<!-- Node1 -->
<g id="node1" class="node">
<title>Node1</title>
<g id="a_node1"><a xlink:title=" ">
<polygon fill="#bfbfbf" stroke="black" points="0,-133.5 0,-152.5 93,-152.5 93,-133.5 0,-133.5"/>
<text text-anchor="middle" x="46.5" y="-140.5" font-family="Helvetica,sans-Serif" font-size="10.00">postRTSActions</text>
</a>
</g>
</g>
<!-- Node2 -->
<g id="node2" class="node">
<title>Node2</title>
<g id="a_node2"><a xlink:href="erp_8cpp.html#af664148e1ef8dbeecdf5dfd84dd9436b" target="_top" xlink:title=" ">
<polygon fill="white" stroke="red" points="132,-266.5 132,-285.5 258,-285.5 258,-266.5 132,-266.5"/>
<text text-anchor="middle" x="195" y="-273.5" font-family="Helvetica,sans-Serif" font-size="10.00">writeERPFromNetwork</text>
</a>
</g>
</g>
<!-- Node1&#45;&gt;Node2 -->
<g id="edge1" class="edge">
<title>Node1&#45;&gt;Node2</title>
<path fill="none" stroke="midnightblue" d="M51.65,-152.61C61.62,-174.56 89.12,-228.7 129,-257 134.46,-260.88 140.72,-263.97 147.14,-266.44"/>
</g>
<!-- Node12 -->
<g id="node3" class="node">
<title>Node12</title>
<g id="a_node3"><a xlink:href="algebraTrace_8cpp.html#a82145c4693c5c40f4452f3d32b52e2b8" target="_top" xlink:title=" ">
<polygon fill="white" stroke="black" points="129.5,-228.5 129.5,-247.5 260.5,-247.5 260.5,-228.5 129.5,-228.5"/>
<text text-anchor="middle" x="195" y="-235.5" font-family="Helvetica,sans-Serif" font-size="10.00">tryPrepareFilterPointers</text>
</a>
</g>
</g>
<!-- Node1&#45;&gt;Node12 -->
<g id="edge2" class="edge">
<title>Node1&#45;&gt;Node12</title>
<path fill="none" stroke="midnightblue" d="M55.22,-152.69C68.56,-168.8 97.56,-201.1 129,-219 135.74,-222.84 143.33,-225.96 150.88,-228.48"/>
</g>
<!-- Node13 -->
<g id="node4" class="node">
<title>Node13</title>
<g id="a_node4"><a xlink:href="rinexClkWrite_8cpp.html#ae105b449da2c0d5e0ce91380d3b6907b" target="_top" xlink:title=" ">
<polygon fill="white" stroke="red" points="129,-190.5 129,-209.5 261,-209.5 261,-190.5 129,-190.5"/>
<text text-anchor="middle" x="195" y="-197.5" font-family="Helvetica,sans-Serif" font-size="10.00">getSysOutputFilenames</text>
</a>
</g>
</g>
<!-- Node1&#45;&gt;Node13 -->
<g id="edge3" class="edge">
<title>Node1&#45;&gt;Node13</title>
<path fill="none" stroke="midnightblue" d="M65.93,-152.58C82.23,-160.81 106.79,-172.63 129,-181 138.13,-184.44 148.17,-187.65 157.58,-190.41"/>
</g>
<!-- Node18 -->
<g id="node5" class="node">
<title>Node18</title>
<g id="a_node5"><a xlink:href="rinexClkWrite_8cpp.html#a28b150df3243b4be7af0d94240cedc50" target="_top" xlink:title=" ">
<polygon fill="white" stroke="red" points="155,-152.5 155,-171.5 235,-171.5 235,-152.5 155,-152.5"/>
<text text-anchor="middle" x="195" y="-159.5" font-family="Helvetica,sans-Serif" font-size="10.00">outputClocks</text>
</a>
</g>
</g>
<!-- Node1&#45;&gt;Node18 -->
<g id="edge4" class="edge">
<title>Node1&#45;&gt;Node18</title>
<path fill="none" stroke="midnightblue" d="M93.05,-148.91C112.87,-151.48 135.87,-154.46 154.9,-156.93"/>
</g>
<!-- Node72 -->
<g id="node6" class="node">
<title>Node72</title>
<g id="a_node6"><a xlink:href="tropSinex_8cpp.html#a1ec03512224c86aef8e4e66c21661ecf" target="_top" xlink:title="Export troposphere Sinex data.">
<polygon fill="white" stroke="red" points="147.5,-114.5 147.5,-133.5 242.5,-133.5 242.5,-114.5 147.5,-114.5"/>
<text text-anchor="middle" x="195" y="-121.5" font-family="Helvetica,sans-Serif" font-size="10.00">outputTropSinex</text>
</a>
</g>
</g>
<!-- Node1&#45;&gt;Node72 -->
<g id="edge5" class="edge">
<title>Node1&#45;&gt;Node72</title>
<path fill="none" stroke="midnightblue" d="M93.05,-137.09C110.35,-134.85 130.07,-132.29 147.47,-130.03"/>
</g>
<!-- Node113 -->
<g id="node7" class="node">
<title>Node113</title>
<g id="a_node7"><a xlink:href="structKFState.html#a0c84e911a5ea760fe728baec661e33f0" target="_top" xlink:title="Output keys and states in human readable format.">
<polygon fill="white" stroke="red" points="133.5,-76.5 133.5,-95.5 256.5,-95.5 256.5,-76.5 133.5,-76.5"/>
<text text-anchor="middle" x="195" y="-83.5" font-family="Helvetica,sans-Serif" font-size="10.00">KFState::outputStates</text>
</a>
</g>
</g>
<!-- Node1&#45;&gt;Node113 -->
<g id="edge6" class="edge">
<title>Node1&#45;&gt;Node113</title>
<path fill="none" stroke="midnightblue" d="M65.93,-133.42C82.23,-125.19 106.79,-113.37 129,-105 138.13,-101.56 148.17,-98.35 157.58,-95.59"/>
</g>
<!-- Node114 -->
<g id="node8" class="node">
<title>Node114</title>
<g id="a_node8"><a xlink:href="mongoWrite_8cpp.html#a4140cbc1fb306e5c1ffefc5b83f3dd8b" target="_top" xlink:title=" ">
<polygon fill="white" stroke="black" points="154.5,-38.5 154.5,-57.5 235.5,-57.5 235.5,-38.5 154.5,-38.5"/>
<text text-anchor="middle" x="195" y="-45.5" font-family="Helvetica,sans-Serif" font-size="10.00">mongoStates</text>
</a>
</g>
</g>
<!-- Node1&#45;&gt;Node114 -->
<g id="edge7" class="edge">
<title>Node1&#45;&gt;Node114</title>
<path fill="none" stroke="midnightblue" d="M55.22,-133.31C68.56,-117.2 97.56,-84.9 129,-67 136.77,-62.58 145.65,-59.11 154.3,-56.42"/>
</g>
<!-- Node115 -->
<g id="node9" class="node">
<title>Node115</title>
<g id="a_node9"><a xlink:href="gpx_8cpp.html#aabd3316037a7ed7d17d00ba919f38917" target="_top" xlink:title=" ">
<polygon fill="white" stroke="red" points="164,-0.5 164,-19.5 226,-19.5 226,-0.5 164,-0.5"/>
<text text-anchor="middle" x="195" y="-7.5" font-family="Helvetica,sans-Serif" font-size="10.00">writeGPX</text>
</a>
</g>
</g>
<!-- Node1&#45;&gt;Node115 -->
<g id="edge8" class="edge">
<title>Node1&#45;&gt;Node115</title>
<path fill="none" stroke="midnightblue" d="M51.65,-133.39C61.62,-111.44 89.12,-57.3 129,-29 139.26,-21.72 152.3,-17.2 164,-14.42"/>
</g>
</g>
</svg>
