<?xml version="1.0" encoding="UTF-8" standalone="no"?>
<!DOCTYPE svg PUBLIC "-//W3C//DTD SVG 1.1//EN"
 "http://www.w3.org/Graphics/SVG/1.1/DTD/svg11.dtd">
<!-- Generated by graphviz version 2.43.0 (0)
 -->
<!-- Title: postRTSActions Pages: 1 -->
<svg width="327pt" height="47pt"
 viewBox="0.00 0.00 327.00 47.00" xmlns="http://www.w3.org/2000/svg" xmlns:xlink="http://www.w3.org/1999/xlink">
<g id="graph0" class="graph" transform="scale(1 1) rotate(0) translate(4 43)">
<title>postRTSActions</title>
<polygon fill="white" stroke="transparent" points="-4,4 -4,-43 323,-43 323,4 -4,4"/>
<!-- Node1 -->
<g id="node1" class="node">
<title>Node1</title>
<g id="a_node1"><a xlink:title=" ">
<polygon fill="#bfbfbf" stroke="black" points="227,-0.5 227,-19.5 319,-19.5 319,-0.5 227,-0.5"/>
<text text-anchor="middle" x="273" y="-7.5" font-family="Helvetica,sans-Serif" font-size="10.00">postRTSActions</text>
</a>
</g>
</g>
<!-- Node2 -->
<g id="node2" class="node">
<title>Node2</title>
<g id="a_node2"><a xlink:href="rtsSmoothing_8cpp.html#a958fb7d14a3dce0701755666b0833795" target="_top" xlink:title="Output filter states from a reversed binary trace file.">
<polygon fill="white" stroke="black" points="118,-19.5 118,-38.5 191,-38.5 191,-19.5 118,-19.5"/>
<text text-anchor="middle" x="154.5" y="-26.5" font-family="Helvetica,sans-Serif" font-size="10.00">RTS_Output</text>
</a>
</g>
</g>
<!-- Node1&#45;&gt;Node2 -->
<g id="edge1" class="edge">
<title>Node1&#45;&gt;Node2</title>
<path fill="none" stroke="midnightblue" d="M217.06,-18.96C208.21,-20.4 199.26,-21.86 191.03,-23.2"/>
<polygon fill="midnightblue" stroke="midnightblue" points="217.65,-22.41 226.96,-17.35 216.53,-15.5 217.65,-22.41"/>
</g>
<!-- Node3 -->
<g id="node3" class="node">
<title>Node3</title>
<g id="a_node3"><a xlink:href="rtsSmoothing_8cpp.html#a97a246c19cbbc06a85a687849917dcd9" target="_top" xlink:title=" ">
<polygon fill="white" stroke="red" points="0,-0.5 0,-19.5 82,-19.5 82,-0.5 0,-0.5"/>
<text text-anchor="middle" x="41" y="-7.5" font-family="Helvetica,sans-Serif" font-size="10.00">rtsSmoothing</text>
</a>
</g>
</g>
<!-- Node1&#45;&gt;Node3 -->
<g id="edge3" class="edge">
<title>Node1&#45;&gt;Node3</title>
<path fill="none" stroke="midnightblue" d="M216.61,-10C175.12,-10 119.31,-10 82.07,-10"/>
<polygon fill="midnightblue" stroke="midnightblue" points="216.83,-13.5 226.83,-10 216.83,-6.5 216.83,-13.5"/>
</g>
<!-- Node2&#45;&gt;Node3 -->
<g id="edge2" class="edge">
<title>Node2&#45;&gt;Node3</title>
<path fill="none" stroke="midnightblue" d="M107.81,-21.21C99.35,-19.77 90.57,-18.28 82.28,-16.86"/>
<polygon fill="midnightblue" stroke="midnightblue" points="107.47,-24.71 117.91,-22.94 108.64,-17.81 107.47,-24.71"/>
</g>
</g>
</svg>
