<?xml version="1.0" encoding="UTF-8" standalone="no"?>
<!DOCTYPE svg PUBLIC "-//W3C//DTD SVG 1.1//EN"
 "http://www.w3.org/Graphics/SVG/1.1/DTD/svg11.dtd">
<!-- Generated by graphviz version 2.43.0 (0)
 -->
<!-- Title: postRTSActions Pages: 1 -->
<!--zoomable 522 -->
<svg id="main" version="1.1" xmlns="http://www.w3.org/2000/svg" xmlns:xlink="http://www.w3.org/1999/xlink" xml:space="preserve" onload="init(evt)">
<style type="text/css"><![CDATA[
.edge:hover path { stroke: red; }
.edge:hover polygon { stroke: red; fill: red; }
]]></style>
<script type="text/javascript"><![CDATA[
var edges = document.getElementsByTagName('g');
if (edges && edges.length) {
  for (var i=0;i<edges.length;i++) {
    if (edges[i].id.substr(0,4)=='edge') {
      edges[i].setAttribute('class','edge');
    }
  }
}
]]></script>
        <defs>
                <circle id="rim" cx="0" cy="0" r="7"/>
                <circle id="rim2" cx="0" cy="0" r="3.5"/>
                <g id="zoomPlus">
                        <use xlink:href="#rim" fill="#404040">
                                <set attributeName="fill" to="#808080" begin="zoomplus.mouseover" end="zoomplus.mouseout"/>
                        </use>
                        <path d="M-4,0h8M0,-4v8" fill="none" stroke="white" stroke-width="1.5" pointer-events="none"/>
                </g>
                <g id="zoomMin">
                        <use xlink:href="#rim" fill="#404040">
                                <set attributeName="fill" to="#808080" begin="zoomminus.mouseover" end="zoomminus.mouseout"/>
                        </use>
                        <path d="M-4,0h8" fill="none" stroke="white" stroke-width="1.5" pointer-events="none"/>
                </g>
                <g id="dirArrow">
                        <path fill="none" stroke="white" stroke-width="1.5" d="M0,-3.0v7 M-2.5,-0.5L0,-3.0L2.5,-0.5"/>
                </g>
               <g id="resetDef">
                       <use xlink:href="#rim2" fill="#404040">
                               <set attributeName="fill" to="#808080" begin="reset.mouseover" end="reset.mouseout"/>
                       </use>
               </g>
        </defs>

<script type="text/javascript">
var viewWidth = 421;
var viewHeight = 522;
var sectionId = 'dynsection-0';
</script>
<script xlink:href="svgpan.js"/>
<svg id="graph" class="graph">
<g id="viewport">
<title>postRTSActions</title>
<polygon fill="white" stroke="transparent" points="-4,4 -4,-518 417,-518 417,4 -4,4"/>
<!-- Node1 -->
<g id="node1" class="node">
<title>Node1</title>
<g id="a_node1"><a xlink:title=" ">
<polygon fill="#bfbfbf" stroke="black" points="0,-247.5 0,-266.5 93,-266.5 93,-247.5 0,-247.5"/>
<text text-anchor="middle" x="46.5" y="-254.5" font-family="Helvetica,sans-Serif" font-size="10.00">postRTSActions</text>
</a>
</g>
</g>
<!-- Node2 -->
<g id="node2" class="node">
<title>Node2</title>
<g id="a_node2"><a xlink:href="mongoWrite_8cpp.html#a4140cbc1fb306e5c1ffefc5b83f3dd8b" target="_top" xlink:title=" ">
<polygon fill="white" stroke="red" points="154,-494.5 154,-513.5 235,-513.5 235,-494.5 154,-494.5"/>
<text text-anchor="middle" x="194.5" y="-501.5" font-family="Helvetica,sans-Serif" font-size="10.00">mongoStates</text>
</a>
</g>
</g>
<!-- Node1&#45;&gt;Node2 -->
<g id="edge1" class="edge">
<title>Node1&#45;&gt;Node2</title>
<path fill="none" stroke="midnightblue" d="M47.98,-266.9C50.24,-302.09 62.69,-422.36 129,-485 135.87,-491.49 144.85,-495.78 153.92,-498.61"/>
</g>
<!-- Node4 -->
<g id="node3" class="node">
<title>Node4</title>
<g id="a_node3"><a xlink:href="binaryStore_8cpp.html#af5010818cbd07d597bc06eb117a7f4a1" target="_top" xlink:title=" ">
<polygon fill="white" stroke="red" points="158.5,-456.5 158.5,-475.5 230.5,-475.5 230.5,-456.5 158.5,-456.5"/>
<text text-anchor="middle" x="194.5" y="-463.5" font-family="Helvetica,sans-Serif" font-size="10.00">storeStates</text>
</a>
</g>
</g>
<!-- Node1&#45;&gt;Node4 -->
<g id="edge2" class="edge">
<title>Node1&#45;&gt;Node4</title>
<path fill="none" stroke="midnightblue" d="M48.72,-266.55C53.2,-297.5 71.56,-396.01 129,-447 137.12,-454.21 147.85,-458.69 158.23,-461.47"/>
</g>
<!-- Node5 -->
<g id="node4" class="node">
<title>Node5</title>
<g id="a_node4"><a xlink:href="structKFState.html#a405c50a3085d8328e81dcd6786f775d3" target="_top" xlink:title="Returns the value and variance of a state within the kalman filter object.">
<polygon fill="white" stroke="black" points="296,-266.5 296,-285.5 413,-285.5 413,-266.5 296,-266.5"/>
<text text-anchor="middle" x="354.5" y="-273.5" font-family="Helvetica,sans-Serif" font-size="10.00">KFState::getKFValue</text>
</a>
</g>
</g>
<!-- Node1&#45;&gt;Node5 -->
<g id="edge16" class="edge">
<title>Node1&#45;&gt;Node5</title>
<path fill="none" stroke="midnightblue" d="M48.14,-247.21C50.88,-214.62 64.57,-109.47 129,-67 177.61,-34.96 211.14,-35.33 260,-67 332.38,-113.91 349.24,-231.47 352.69,-266.19"/>
</g>
<!-- Node7 -->
<g id="node5" class="node">
<title>Node7</title>
<g id="a_node5"><a xlink:href="structKFState.html#a0c84e911a5ea760fe728baec661e33f0" target="_top" xlink:title="Output keys and states in human readable format.">
<polygon fill="white" stroke="red" points="133,-418.5 133,-437.5 256,-437.5 256,-418.5 133,-418.5"/>
<text text-anchor="middle" x="194.5" y="-425.5" font-family="Helvetica,sans-Serif" font-size="10.00">KFState::outputStates</text>
</a>
</g>
</g>
<!-- Node1&#45;&gt;Node7 -->
<g id="edge4" class="edge">
<title>Node1&#45;&gt;Node7</title>
<path fill="none" stroke="midnightblue" d="M49.92,-266.88C57.07,-293.92 80.67,-369.71 129,-409 133.8,-412.9 139.38,-416 145.21,-418.47"/>
</g>
<!-- Node10 -->
<g id="node6" class="node">
<title>Node10</title>
<g id="a_node6"><a xlink:href="erp_8cpp.html#ab3d1603dc3b9792fd8a9116558ba1d49" target="_top" xlink:title=" ">
<polygon fill="white" stroke="red" points="133,-380.5 133,-399.5 256,-399.5 256,-380.5 133,-380.5"/>
<text text-anchor="middle" x="194.5" y="-387.5" font-family="Helvetica,sans-Serif" font-size="10.00">writeErpFromNetwork</text>
</a>
</g>
</g>
<!-- Node1&#45;&gt;Node10 -->
<g id="edge5" class="edge">
<title>Node1&#45;&gt;Node10</title>
<path fill="none" stroke="midnightblue" d="M51.65,-266.6C61.64,-288.54 89.15,-342.65 129,-371 134.42,-374.86 140.63,-377.94 147,-380.4"/>
</g>
<!-- Node18 -->
<g id="node7" class="node">
<title>Node18</title>
<g id="a_node7"><a xlink:href="biasSINEXwrite_8cpp.html#afef6efc924f449b2fe170b2e08077d98" target="_top" xlink:title=" ">
<polygon fill="white" stroke="red" points="150,-342.5 150,-361.5 239,-361.5 239,-342.5 150,-342.5"/>
<text text-anchor="middle" x="194.5" y="-349.5" font-family="Helvetica,sans-Serif" font-size="10.00">writeBiasSinex</text>
</a>
</g>
</g>
<!-- Node1&#45;&gt;Node18 -->
<g id="edge7" class="edge">
<title>Node1&#45;&gt;Node18</title>
<path fill="none" stroke="midnightblue" d="M55.22,-266.68C68.57,-282.78 97.58,-315.07 129,-333 135.69,-336.82 143.22,-339.93 150.71,-342.45"/>
</g>
<!-- Node77 -->
<g id="node8" class="node">
<title>Node77</title>
<g id="a_node8"><a xlink:href="algebraTrace_8cpp.html#a82145c4693c5c40f4452f3d32b52e2b8" target="_top" xlink:title=" ">
<polygon fill="white" stroke="black" points="129,-304.5 129,-323.5 260,-323.5 260,-304.5 129,-304.5"/>
<text text-anchor="middle" x="194.5" y="-311.5" font-family="Helvetica,sans-Serif" font-size="10.00">tryPrepareFilterPointers</text>
</a>
</g>
</g>
<!-- Node1&#45;&gt;Node77 -->
<g id="edge8" class="edge">
<title>Node1&#45;&gt;Node77</title>
<path fill="none" stroke="midnightblue" d="M65.93,-266.56C82.23,-274.79 106.8,-286.61 129,-295 138.17,-298.47 148.27,-301.7 157.7,-304.49"/>
</g>
<!-- Node78 -->
<g id="node9" class="node">
<title>Node78</title>
<g id="a_node9"><a xlink:href="rinexClkWrite_8cpp.html#ac4c988a09e44b82ae43f87f1dfc7992c" target="_top" xlink:title=" ">
<polygon fill="white" stroke="red" points="154.5,-266.5 154.5,-285.5 234.5,-285.5 234.5,-266.5 154.5,-266.5"/>
<text text-anchor="middle" x="194.5" y="-273.5" font-family="Helvetica,sans-Serif" font-size="10.00">outputClocks</text>
</a>
</g>
</g>
<!-- Node1&#45;&gt;Node78 -->
<g id="edge9" class="edge">
<title>Node1&#45;&gt;Node78</title>
<path fill="none" stroke="midnightblue" d="M93.29,-262.96C112.86,-265.51 135.48,-268.45 154.26,-270.89"/>
</g>
<!-- Node124 -->
<g id="node10" class="node">
<title>Node124</title>
<g id="a_node10"><a xlink:href="orbexWrite_8cpp.html#aa8eb53893e56ecf819a9b98f86c354e6" target="_top" xlink:title="Output ORBEX files.">
<polygon fill="white" stroke="red" points="156,-228.5 156,-247.5 233,-247.5 233,-228.5 156,-228.5"/>
<text text-anchor="middle" x="194.5" y="-235.5" font-family="Helvetica,sans-Serif" font-size="10.00">outputOrbex</text>
</a>
</g>
</g>
<!-- Node1&#45;&gt;Node124 -->
<g id="edge10" class="edge">
<title>Node1&#45;&gt;Node124</title>
<path fill="none" stroke="midnightblue" d="M93.29,-251.04C113.37,-248.43 136.64,-245.4 155.7,-242.92"/>
</g>
<!-- Node144 -->
<g id="node11" class="node">
<title>Node144</title>
<g id="a_node11"><a xlink:href="sp3Write_8cpp.html#aa684817008c29bcd43c77bdda90b8a31" target="_top" xlink:title=" ">
<polygon fill="white" stroke="red" points="161.5,-190.5 161.5,-209.5 227.5,-209.5 227.5,-190.5 161.5,-190.5"/>
<text text-anchor="middle" x="194.5" y="-197.5" font-family="Helvetica,sans-Serif" font-size="10.00">outputSp3</text>
</a>
</g>
</g>
<!-- Node1&#45;&gt;Node144 -->
<g id="edge11" class="edge">
<title>Node1&#45;&gt;Node144</title>
<path fill="none" stroke="midnightblue" d="M65.93,-247.44C82.23,-239.21 106.8,-227.39 129,-219 139.37,-215.08 150.93,-211.45 161.36,-208.44"/>
</g>
<!-- Node148 -->
<g id="node12" class="node">
<title>Node148</title>
<g id="a_node12"><a xlink:href="tropSinex_8cpp.html#a7d4d797b1dca3898283e8b3d00b0e60f" target="_top" xlink:title="Output troposphere SINEX data.">
<polygon fill="white" stroke="red" points="147,-152.5 147,-171.5 242,-171.5 242,-152.5 147,-152.5"/>
<text text-anchor="middle" x="194.5" y="-159.5" font-family="Helvetica,sans-Serif" font-size="10.00">outputTropSinex</text>
</a>
</g>
</g>
<!-- Node1&#45;&gt;Node148 -->
<g id="edge12" class="edge">
<title>Node1&#45;&gt;Node148</title>
<path fill="none" stroke="midnightblue" d="M55.22,-247.32C68.57,-231.22 97.58,-198.93 129,-181 135.69,-177.18 143.22,-174.07 150.71,-171.55"/>
</g>
<!-- Node181 -->
<g id="node13" class="node">
<title>Node181</title>
<g id="a_node13"><a xlink:href="ionexWrite_8cpp.html#a494d07108f834d3383fd299fc2ac3da5" target="_top" xlink:title=" ">
<polygon fill="white" stroke="red" points="151.5,-114.5 151.5,-133.5 237.5,-133.5 237.5,-114.5 151.5,-114.5"/>
<text text-anchor="middle" x="194.5" y="-121.5" font-family="Helvetica,sans-Serif" font-size="10.00">ionexFileWrite</text>
</a>
</g>
</g>
<!-- Node1&#45;&gt;Node181 -->
<g id="edge14" class="edge">
<title>Node1&#45;&gt;Node181</title>
<path fill="none" stroke="midnightblue" d="M51.65,-247.4C61.64,-225.46 89.15,-171.35 129,-143 135.66,-138.26 143.5,-134.7 151.38,-132.01"/>
</g>
<!-- Node202 -->
<g id="node14" class="node">
<title>Node202</title>
<g id="a_node14"><a xlink:href="gpx_8cpp.html#aabd3316037a7ed7d17d00ba919f38917" target="_top" xlink:title=" ">
<polygon fill="white" stroke="red" points="163.5,-76.5 163.5,-95.5 225.5,-95.5 225.5,-76.5 163.5,-76.5"/>
<text text-anchor="middle" x="194.5" y="-83.5" font-family="Helvetica,sans-Serif" font-size="10.00">writeGPX</text>
</a>
</g>
</g>
<!-- Node1&#45;&gt;Node202 -->
<g id="edge15" class="edge">
<title>Node1&#45;&gt;Node202</title>
<path fill="none" stroke="midnightblue" d="M49.92,-247.12C57.07,-220.08 80.67,-144.29 129,-105 138.69,-97.12 151.55,-92.51 163.23,-89.81"/>
</g>
<!-- Node205 -->
<g id="node15" class="node">
<title>Node205</title>
<g id="a_node15"><a xlink:href="ppp_8cpp.html#a952c5db3b307d745174a68045264f9e6" target="_top" xlink:title="Compare estimated station position with benchmark in SINEX file.">
<polygon fill="white" stroke="red" points="141.5,-0.5 141.5,-19.5 247.5,-19.5 247.5,-0.5 141.5,-0.5"/>
<text text-anchor="middle" x="194.5" y="-7.5" font-family="Helvetica,sans-Serif" font-size="10.00">outputPPPSolution</text>
</a>
</g>
</g>
<!-- Node1&#45;&gt;Node205 -->
<g id="edge17" class="edge">
<title>Node1&#45;&gt;Node205</title>
<path fill="none" stroke="midnightblue" d="M48.21,-247.47C51.23,-213.56 65.94,-97.43 129,-34 135.23,-27.73 143.25,-23.08 151.5,-19.64"/>
</g>
<!-- Node4&#45;&gt;Node5 -->
<g id="edge3" class="edge">
<title>Node4&#45;&gt;Node5</title>
<path fill="none" stroke="midnightblue" d="M230.7,-460.9C240.96,-458.09 251.64,-453.74 260,-447 315.58,-402.19 343.06,-315.08 351,-285.84"/>
</g>
<!-- Node10&#45;&gt;Node5 -->
<g id="edge6" class="edge">
<title>Node10&#45;&gt;Node5</title>
<path fill="none" stroke="midnightblue" d="M239.11,-380.45C246.36,-377.95 253.59,-374.84 260,-371 298.71,-347.8 332.7,-304.82 346.7,-285.66"/>
</g>
<!-- Node148&#45;&gt;Node5 -->
<g id="edge13" class="edge">
<title>Node148&#45;&gt;Node5</title>
<path fill="none" stroke="midnightblue" d="M239.11,-171.55C246.36,-174.05 253.59,-177.16 260,-181 298.71,-204.2 332.7,-247.18 346.7,-266.34"/>
</g>
</g>
</svg>
        <g id="navigator" transform="translate(0 0)" fill="#404254">
                <rect fill="#f2f5e9" fill-opacity="0.5" stroke="#606060" stroke-width=".5" x="0" y="0" width="60" height="60"/>
                <use id="zoomplus" xlink:href="#zoomPlus" x="17" y="9" onmousedown="handleZoom(evt,'in')"/>
                <use id="zoomminus" xlink:href="#zoomMin" x="42" y="9" onmousedown="handleZoom(evt,'out')"/>
                <use id="reset" xlink:href="#resetDef" x="30" y="36" onmousedown="handleReset()"/>
                <g id="arrowUp" xlink:href="#dirArrow" transform="translate(30 24)" onmousedown="handlePan(0,-1)">
                  <use xlink:href="#rim" fill="#404040">
                        <set attributeName="fill" to="#808080" begin="arrowUp.mouseover" end="arrowUp.mouseout"/>
                  </use>
                  <path fill="none" stroke="white" stroke-width="1.5" d="M0,-3.0v7 M-2.5,-0.5L0,-3.0L2.5,-0.5"/>
                </g>
                <g id="arrowRight" xlink:href="#dirArrow" transform="rotate(90) translate(36 -43)" onmousedown="handlePan(1,0)">
                  <use xlink:href="#rim" fill="#404040">
                        <set attributeName="fill" to="#808080" begin="arrowRight.mouseover" end="arrowRight.mouseout"/>
                  </use>
                  <path fill="none" stroke="white" stroke-width="1.5" d="M0,-3.0v7 M-2.5,-0.5L0,-3.0L2.5,-0.5"/>
                </g>
                <g id="arrowDown" xlink:href="#dirArrow" transform="rotate(180) translate(-30 -48)" onmousedown="handlePan(0,1)">
                  <use xlink:href="#rim" fill="#404040">
                        <set attributeName="fill" to="#808080" begin="arrowDown.mouseover" end="arrowDown.mouseout"/>
                  </use>
                  <path fill="none" stroke="white" stroke-width="1.5" d="M0,-3.0v7 M-2.5,-0.5L0,-3.0L2.5,-0.5"/>
                </g>
                <g id="arrowLeft" xlink:href="#dirArrow" transform="rotate(270) translate(-36 17)" onmousedown="handlePan(-1,0)">
                  <use xlink:href="#rim" fill="#404040">
                        <set attributeName="fill" to="#808080" begin="arrowLeft.mouseover" end="arrowLeft.mouseout"/>
                  </use>
                  <path fill="none" stroke="white" stroke-width="1.5" d="M0,-3.0v7 M-2.5,-0.5L0,-3.0L2.5,-0.5"/>
                </g>
        </g>
        <svg viewBox="0 0 15 15" width="100%" height="30px" preserveAspectRatio="xMaxYMin meet">
         <g id="arrow_out" transform="scale(0.3 0.3)">
          <a xlink:href="rtsSmoothing_8cpp_a6cf4aace63327cf45591794467688765_cgraph_org.svg" target="_base">
           <rect id="button" ry="5" rx="5" y="6" x="6" height="38" width="38"
                fill="#f2f5e9" fill-opacity="0.5" stroke="#606060" stroke-width="1.0"/>
           <path id="arrow"
             d="M 11.500037,31.436501 C 11.940474,20.09759 22.043105,11.32322 32.158766,21.979434 L 37.068811,17.246167 C 37.068811,17.246167 37.088388,32 37.088388,32 L 22.160133,31.978069 C 22.160133,31.978069 26.997745,27.140456 26.997745,27.140456 C 18.528582,18.264221 13.291696,25.230495 11.500037,31.436501 z"
             style="fill:#404040;"/>
          </a>
         </g>
        </svg>
</svg>
