<?xml version="1.0" encoding="UTF-8" standalone="no"?>
<!DOCTYPE svg PUBLIC "-//W3C//DTD SVG 1.1//EN"
 "http://www.w3.org/Graphics/SVG/1.1/DTD/svg11.dtd">
<!-- Generated by graphviz version 2.43.0 (0)
 -->
<!-- Title: RTS_Process Pages: 1 -->
<svg width="373pt" height="199pt"
 viewBox="0.00 0.00 373.00 199.00" xmlns="http://www.w3.org/2000/svg" xmlns:xlink="http://www.w3.org/1999/xlink">
<g id="graph0" class="graph" transform="scale(1 1) rotate(0) translate(4 195)">
<title>RTS_Process</title>
<polygon fill="white" stroke="transparent" points="-4,4 -4,-195 369,-195 369,4 -4,4"/>
<!-- Node1 -->
<g id="node1" class="node">
<title>Node1</title>
<g id="a_node1"><a xlink:title=" ">
<polygon fill="#bfbfbf" stroke="black" points="0,-95.5 0,-114.5 78,-114.5 78,-95.5 0,-95.5"/>
<text text-anchor="middle" x="39" y="-102.5" font-family="Helvetica,sans-Serif" font-size="10.00">RTS_Process</text>
</a>
</g>
</g>
<!-- Node2 -->
<g id="node2" class="node">
<title>Node2</title>
<g id="a_node2"><a xlink:href="algebraTrace_8cpp.html#aa526df463f08398d3cb422d191c56cfb" target="_top" xlink:title="Returns the type of object that is located at the specified position in a file.">
<polygon fill="white" stroke="red" points="240.5,-171.5 240.5,-190.5 360.5,-190.5 360.5,-171.5 240.5,-171.5"/>
<text text-anchor="middle" x="300.5" y="-178.5" font-family="Helvetica,sans-Serif" font-size="10.00">getFilterTypeFromFile</text>
</a>
</g>
</g>
<!-- Node1&#45;&gt;Node2 -->
<g id="edge1" class="edge">
<title>Node1&#45;&gt;Node2</title>
<path fill="none" stroke="midnightblue" d="M49.53,-114.53C62.74,-127.08 87.95,-148.77 114,-159 154.3,-174.83 203.01,-180.13 240.41,-181.58"/>
</g>
<!-- Node4 -->
<g id="node3" class="node">
<title>Node4</title>
<g id="a_node3"><a xlink:href="algebraTrace_8hpp.html#a11e5c6e06d30600e55dc2c71f015d0f3" target="_top" xlink:title=" ">
<polygon fill="white" stroke="red" points="236,-114.5 236,-133.5 365,-133.5 365,-114.5 236,-114.5"/>
<text text-anchor="middle" x="300.5" y="-121.5" font-family="Helvetica,sans-Serif" font-size="10.00">getFilterObjectFromFile</text>
</a>
</g>
</g>
<!-- Node1&#45;&gt;Node4 -->
<g id="edge2" class="edge">
<title>Node1&#45;&gt;Node4</title>
<path fill="none" stroke="midnightblue" d="M53.67,-114.56C67.96,-123.91 91.4,-137.54 114,-143 167.18,-155.86 230.99,-143.46 268.21,-133.55"/>
</g>
<!-- Node6 -->
<g id="node4" class="node">
<title>Node6</title>
<g id="a_node4"><a xlink:href="algebraTrace_8hpp.html#a912bbc3ba390c6b3a01f7cae26a53588" target="_top" xlink:title="Output filter state to a file for later reading.">
<polygon fill="white" stroke="red" points="114,-114.5 114,-133.5 200,-133.5 200,-114.5 114,-114.5"/>
<text text-anchor="middle" x="157" y="-121.5" font-family="Helvetica,sans-Serif" font-size="10.00">spitFilterToFile</text>
</a>
</g>
</g>
<!-- Node1&#45;&gt;Node6 -->
<g id="edge3" class="edge">
<title>Node1&#45;&gt;Node6</title>
<path fill="none" stroke="midnightblue" d="M78.3,-111.27C89.65,-113.13 102.15,-115.18 113.73,-117.08"/>
</g>
<!-- Node7 -->
<g id="node5" class="node">
<title>Node7</title>
<g id="a_node5"><a xlink:href="rtsSmoothing_8cpp.html#a6cf4aace63327cf45591794467688765" target="_top" xlink:title=" ">
<polygon fill="white" stroke="red" points="254,-0.5 254,-19.5 347,-19.5 347,-0.5 254,-0.5"/>
<text text-anchor="middle" x="300.5" y="-7.5" font-family="Helvetica,sans-Serif" font-size="10.00">postRTSActions</text>
</a>
</g>
</g>
<!-- Node1&#45;&gt;Node7 -->
<g id="edge4" class="edge">
<title>Node1&#45;&gt;Node7</title>
<path fill="none" stroke="midnightblue" d="M63.01,-95.39C99.41,-80.35 172.65,-50.72 236,-29 245.58,-25.72 256.08,-22.44 265.73,-19.56"/>
</g>
<!-- Node124 -->
<g id="node6" class="node">
<title>Node124</title>
<g id="a_node6"><a xlink:href="mongoWrite_8cpp.html#af0d2caa39c2b605460f08f00827aa5d4" target="_top" xlink:title=" ">
<polygon fill="white" stroke="red" points="238.5,-38.5 238.5,-57.5 362.5,-57.5 362.5,-38.5 238.5,-38.5"/>
<text text-anchor="middle" x="300.5" y="-45.5" font-family="Helvetica,sans-Serif" font-size="10.00">mongoMeasResiduals</text>
</a>
</g>
</g>
<!-- Node1&#45;&gt;Node124 -->
<g id="edge5" class="edge">
<title>Node1&#45;&gt;Node124</title>
<path fill="none" stroke="midnightblue" d="M78.01,-96.65C125.45,-86.23 206.4,-68.45 256.19,-57.51"/>
</g>
<!-- Node125 -->
<g id="node7" class="node">
<title>Node125</title>
<g id="a_node7"><a xlink:href="rtsSmoothing_8cpp.html#a4e8aaa5b04173a1f1c784b486954de3a" target="_top" xlink:title="Output filter states from a reversed binary trace file.">
<polygon fill="white" stroke="red" points="120,-0.5 120,-19.5 194,-19.5 194,-0.5 120,-0.5"/>
<text text-anchor="middle" x="157" y="-7.5" font-family="Helvetica,sans-Serif" font-size="10.00">RTS_Output</text>
</a>
</g>
</g>
<!-- Node1&#45;&gt;Node125 -->
<g id="edge6" class="edge">
<title>Node1&#45;&gt;Node125</title>
<path fill="none" stroke="midnightblue" d="M48.47,-95.5C61.59,-81.1 88.05,-53.4 114,-34 121.13,-28.67 129.56,-23.64 136.98,-19.57"/>
</g>
<!-- Node125&#45;&gt;Node2 -->
<g id="edge7" class="edge">
<title>Node125&#45;&gt;Node2</title>
<path fill="none" stroke="midnightblue" d="M161.73,-19.78C171.11,-43.39 197.75,-104.41 236,-143 247.94,-155.04 264.45,-164.77 277.64,-171.37"/>
</g>
<!-- Node125&#45;&gt;Node4 -->
<g id="edge8" class="edge">
<title>Node125&#45;&gt;Node4</title>
<path fill="none" stroke="midnightblue" d="M170.06,-19.72C196.8,-41.26 260.76,-92.79 287.47,-114.31"/>
</g>
<!-- Node125&#45;&gt;Node7 -->
<g id="edge10" class="edge">
<title>Node125&#45;&gt;Node7</title>
<path fill="none" stroke="midnightblue" d="M194.07,-10C212.25,-10 234.48,-10 253.84,-10"/>
</g>
<!-- Node125&#45;&gt;Node124 -->
<g id="edge9" class="edge">
<title>Node125&#45;&gt;Node124</title>
<path fill="none" stroke="midnightblue" d="M193.71,-19.59C215.16,-25.35 242.36,-32.65 263.8,-38.41"/>
</g>
</g>
</svg>
