<?xml version="1.0" encoding="UTF-8" standalone="no"?>
<!DOCTYPE svg PUBLIC "-//W3C//DTD SVG 1.1//EN"
 "http://www.w3.org/Graphics/SVG/1.1/DTD/svg11.dtd">
<!-- Generated by graphviz version 2.43.0 (0)
 -->
<!-- Title: RTS_Output Pages: 1 -->
<svg width="247pt" height="218pt"
 viewBox="0.00 0.00 247.00 218.00" xmlns="http://www.w3.org/2000/svg" xmlns:xlink="http://www.w3.org/1999/xlink">
<g id="graph0" class="graph" transform="scale(1 1) rotate(0) translate(4 214)">
<title>RTS_Output</title>
<polygon fill="white" stroke="transparent" points="-4,4 -4,-214 243,-214 243,4 -4,4"/>
<!-- Node1 -->
<g id="node1" class="node">
<title>Node1</title>
<g id="a_node1"><a xlink:title="Output filter states from a reversed binary trace file.">
<polygon fill="#bfbfbf" stroke="black" points="0,-95.5 0,-114.5 74,-114.5 74,-95.5 0,-95.5"/>
<text text-anchor="middle" x="37" y="-102.5" font-family="Helvetica,sans-Serif" font-size="10.00">RTS_Output</text>
</a>
</g>
</g>
<!-- Node2 -->
<g id="node2" class="node">
<title>Node2</title>
<g id="a_node2"><a xlink:href="algebraTrace_8cpp.html#aa526df463f08398d3cb422d191c56cfb" target="_top" xlink:title="Returns the type of object that is located at the specified position in a file.">
<polygon fill="white" stroke="red" points="114.5,-190.5 114.5,-209.5 234.5,-209.5 234.5,-190.5 114.5,-190.5"/>
<text text-anchor="middle" x="174.5" y="-197.5" font-family="Helvetica,sans-Serif" font-size="10.00">getFilterTypeFromFile</text>
</a>
</g>
</g>
<!-- Node1&#45;&gt;Node2 -->
<g id="edge1" class="edge">
<title>Node1&#45;&gt;Node2</title>
<path fill="none" stroke="midnightblue" d="M44.56,-114.71C55.98,-130.85 81.05,-163.19 110,-181 116.27,-184.86 123.38,-187.98 130.51,-190.48"/>
</g>
<!-- Node4 -->
<g id="node3" class="node">
<title>Node4</title>
<g id="a_node3"><a xlink:href="algebraTrace_8hpp.html#a11e5c6e06d30600e55dc2c71f015d0f3" target="_top" xlink:title=" ">
<polygon fill="white" stroke="red" points="110,-152.5 110,-171.5 239,-171.5 239,-152.5 110,-152.5"/>
<text text-anchor="middle" x="174.5" y="-159.5" font-family="Helvetica,sans-Serif" font-size="10.00">getFilterObjectFromFile</text>
</a>
</g>
</g>
<!-- Node1&#45;&gt;Node4 -->
<g id="edge2" class="edge">
<title>Node1&#45;&gt;Node4</title>
<path fill="none" stroke="midnightblue" d="M53.87,-114.53C68.18,-122.84 89.98,-134.81 110,-143 118.63,-146.53 128.15,-149.73 137.14,-152.45"/>
</g>
<!-- Node6 -->
<g id="node4" class="node">
<title>Node6</title>
<g id="a_node4"><a xlink:href="algebra_8cpp.html#a6ec6b537bc94eb558cc7baa9dd84c85f" target="_top" xlink:title=" ">
<polygon fill="white" stroke="red" points="127,-114.5 127,-133.5 222,-133.5 222,-114.5 127,-114.5"/>
<text text-anchor="middle" x="174.5" y="-121.5" font-family="Helvetica,sans-Serif" font-size="10.00">outputResiduals</text>
</a>
</g>
</g>
<!-- Node1&#45;&gt;Node6 -->
<g id="edge3" class="edge">
<title>Node1&#45;&gt;Node6</title>
<path fill="none" stroke="midnightblue" d="M74.31,-110.09C90.46,-112.36 109.67,-115.05 126.87,-117.46"/>
</g>
<!-- Node11 -->
<g id="node5" class="node">
<title>Node11</title>
<g id="a_node5"><a xlink:href="mongoWrite_8cpp.html#af0d2caa39c2b605460f08f00827aa5d4" target="_top" xlink:title=" ">
<polygon fill="white" stroke="red" points="112.5,-76.5 112.5,-95.5 236.5,-95.5 236.5,-76.5 112.5,-76.5"/>
<text text-anchor="middle" x="174.5" y="-83.5" font-family="Helvetica,sans-Serif" font-size="10.00">mongoMeasResiduals</text>
</a>
</g>
</g>
<!-- Node1&#45;&gt;Node11 -->
<g id="edge4" class="edge">
<title>Node1&#45;&gt;Node11</title>
<path fill="none" stroke="midnightblue" d="M74.31,-99.91C86.07,-98.26 99.45,-96.38 112.5,-94.55"/>
</g>
<!-- Node15 -->
<g id="node6" class="node">
<title>Node15</title>
<g id="a_node6"><a xlink:href="GinAR__main_8cpp.html#a99547395860accf77f4d3dc4328cb139" target="_top" xlink:title="Ambiguity resolution on smoothed KF solutions.">
<polygon fill="white" stroke="red" points="118.5,-38.5 118.5,-57.5 230.5,-57.5 230.5,-38.5 118.5,-38.5"/>
<text text-anchor="middle" x="174.5" y="-45.5" font-family="Helvetica,sans-Serif" font-size="10.00">smoothdAmbigResl</text>
</a>
</g>
</g>
<!-- Node1&#45;&gt;Node15 -->
<g id="edge5" class="edge">
<title>Node1&#45;&gt;Node15</title>
<path fill="none" stroke="midnightblue" d="M53.87,-95.47C68.18,-87.16 89.98,-75.19 110,-67 118.63,-63.47 128.15,-60.27 137.14,-57.55"/>
</g>
<!-- Node90 -->
<g id="node7" class="node">
<title>Node90</title>
<g id="a_node7"><a xlink:href="rtsSmoothing_8cpp.html#a6cf4aace63327cf45591794467688765" target="_top" xlink:title=" ">
<polygon fill="white" stroke="red" points="128,-0.5 128,-19.5 221,-19.5 221,-0.5 128,-0.5"/>
<text text-anchor="middle" x="174.5" y="-7.5" font-family="Helvetica,sans-Serif" font-size="10.00">postRTSActions</text>
</a>
</g>
</g>
<!-- Node1&#45;&gt;Node90 -->
<g id="edge6" class="edge">
<title>Node1&#45;&gt;Node90</title>
<path fill="none" stroke="midnightblue" d="M44.56,-95.29C55.98,-79.15 81.05,-46.81 110,-29 116.27,-25.14 123.38,-22.02 130.51,-19.52"/>
</g>
</g>
</svg>
