<?xml version="1.0" encoding="UTF-8" standalone="no"?>
<!DOCTYPE svg PUBLIC "-//W3C//DTD SVG 1.1//EN"
 "http://www.w3.org/Graphics/SVG/1.1/DTD/svg11.dtd">
<!-- Generated by graphviz version 2.43.0 (0)
 -->
<!-- Title: /data/acs/ginan/src/cpp/common/satStat.hpp Pages: 1 -->
<svg width="1939pt" height="173pt"
 viewBox="0.00 0.00 1938.50 173.00" xmlns="http://www.w3.org/2000/svg" xmlns:xlink="http://www.w3.org/1999/xlink">
<g id="graph0" class="graph" transform="scale(1 1) rotate(0) translate(4 169)">
<title>/data/acs/ginan/src/cpp/common/satStat.hpp</title>
<polygon fill="white" stroke="transparent" points="-4,4 -4,-169 1934.5,-169 1934.5,4 -4,4"/>
<!-- Node1 -->
<g id="node1" class="node">
<title>Node1</title>
<g id="a_node1"><a xlink:title=" ">
<polygon fill="#bfbfbf" stroke="black" points="1214,-134.5 1214,-164.5 1355,-164.5 1355,-134.5 1214,-134.5"/>
<text text-anchor="start" x="1222" y="-152.5" font-family="Helvetica,sans-Serif" font-size="10.00">/data/acs/ginan/src</text>
<text text-anchor="middle" x="1284.5" y="-141.5" font-family="Helvetica,sans-Serif" font-size="10.00">/cpp/common/satStat.hpp</text>
</a>
</g>
</g>
<!-- Node2 -->
<g id="node2" class="node">
<title>Node2</title>
<g id="a_node2"><a xlink:href="acsQC_8cpp.html" target="_top" xlink:title=" ">
<polygon fill="white" stroke="black" points="0,-67.5 0,-97.5 137,-97.5 137,-67.5 0,-67.5"/>
<text text-anchor="start" x="8" y="-85.5" font-family="Helvetica,sans-Serif" font-size="10.00">/data/acs/ginan/src</text>
<text text-anchor="middle" x="68.5" y="-74.5" font-family="Helvetica,sans-Serif" font-size="10.00">/cpp/common/acsQC.cpp</text>
</a>
</g>
</g>
<!-- Node1&#45;&gt;Node2 -->
<g id="edge1" class="edge">
<title>Node1&#45;&gt;Node2</title>
<path fill="none" stroke="midnightblue" d="M1213.98,-148.78C1034.94,-148.75 548.54,-144.06 146.5,-98 143.49,-97.66 140.42,-97.26 137.32,-96.83"/>
</g>
<!-- Node3 -->
<g id="node3" class="node">
<title>Node3</title>
<g id="a_node3"><a xlink:href="antenna_8hpp.html" target="_top" xlink:title=" ">
<polygon fill="white" stroke="red" points="155.5,-67.5 155.5,-97.5 301.5,-97.5 301.5,-67.5 155.5,-67.5"/>
<text text-anchor="start" x="163.5" y="-85.5" font-family="Helvetica,sans-Serif" font-size="10.00">/data/acs/ginan/src</text>
<text text-anchor="middle" x="228.5" y="-74.5" font-family="Helvetica,sans-Serif" font-size="10.00">/cpp/common/antenna.hpp</text>
</a>
</g>
</g>
<!-- Node1&#45;&gt;Node3 -->
<g id="edge2" class="edge">
<title>Node1&#45;&gt;Node3</title>
<path fill="none" stroke="midnightblue" d="M1213.76,-147.55C1053.46,-144.8 650.43,-134.52 315.5,-98 310.93,-97.5 306.24,-96.92 301.52,-96.29"/>
</g>
<!-- Node5 -->
<g id="node4" class="node">
<title>Node5</title>
<g id="a_node4"><a xlink:href="attitude_8cpp.html" target="_top" xlink:title=" ">
<polygon fill="white" stroke="black" points="257.5,-0.5 257.5,-30.5 401.5,-30.5 401.5,-0.5 257.5,-0.5"/>
<text text-anchor="start" x="265.5" y="-18.5" font-family="Helvetica,sans-Serif" font-size="10.00">/data/acs/ginan/src</text>
<text text-anchor="middle" x="329.5" y="-7.5" font-family="Helvetica,sans-Serif" font-size="10.00">/cpp/common/attitude.cpp</text>
</a>
</g>
</g>
<!-- Node1&#45;&gt;Node5 -->
<g id="edge8" class="edge">
<title>Node1&#45;&gt;Node5</title>
<path fill="none" stroke="midnightblue" d="M1213.98,-146.99C1001.76,-142.16 381.54,-125.71 348.5,-98 328.91,-81.57 327.27,-49.21 328.17,-30.59"/>
</g>
<!-- Node16 -->
<g id="node5" class="node">
<title>Node16</title>
<g id="a_node5"><a xlink:href="main_8cpp.html" target="_top" xlink:title=" ">
<polygon fill="white" stroke="black" points="934.5,-0.5 934.5,-30.5 1042.5,-30.5 1042.5,-0.5 934.5,-0.5"/>
<text text-anchor="start" x="942.5" y="-18.5" font-family="Helvetica,sans-Serif" font-size="10.00">/data/acs/ginan/src</text>
<text text-anchor="middle" x="988.5" y="-7.5" font-family="Helvetica,sans-Serif" font-size="10.00">/cpp/pea/main.cpp</text>
</a>
</g>
</g>
<!-- Node1&#45;&gt;Node16 -->
<g id="edge15" class="edge">
<title>Node1&#45;&gt;Node16</title>
<path fill="none" stroke="midnightblue" d="M1312.8,-134.44C1341.76,-118.26 1379.71,-90.85 1358.5,-67 1312.85,-15.68 1119.18,-42.72 1051.5,-31 1048.62,-30.5 1045.68,-29.96 1042.72,-29.38"/>
</g>
<!-- Node43 -->
<g id="node6" class="node">
<title>Node43</title>
<g id="a_node6"><a xlink:href="ppp_8cpp.html" target="_top" xlink:title="Precise point positioning.">
<polygon fill="white" stroke="black" points="1060.5,-0.5 1060.5,-30.5 1168.5,-30.5 1168.5,-0.5 1060.5,-0.5"/>
<text text-anchor="start" x="1068.5" y="-18.5" font-family="Helvetica,sans-Serif" font-size="10.00">/data/acs/ginan/src</text>
<text text-anchor="middle" x="1114.5" y="-7.5" font-family="Helvetica,sans-Serif" font-size="10.00">/cpp/pea/ppp.cpp</text>
</a>
</g>
</g>
<!-- Node1&#45;&gt;Node43 -->
<g id="edge16" class="edge">
<title>Node1&#45;&gt;Node43</title>
<path fill="none" stroke="midnightblue" d="M1330.03,-134.41C1369.42,-119.89 1416.55,-95.42 1392.5,-67 1361.2,-30.03 1225.01,-40.44 1177.5,-31 1174.64,-30.43 1171.71,-29.83 1168.75,-29.21"/>
</g>
<!-- Node86 -->
<g id="node7" class="node">
<title>Node86</title>
<g id="a_node7"><a xlink:href="ppp__network_8cpp.html" target="_top" xlink:title=" ">
<polygon fill="white" stroke="black" points="1186.5,-0.5 1186.5,-30.5 1330.5,-30.5 1330.5,-0.5 1186.5,-0.5"/>
<text text-anchor="start" x="1194.5" y="-18.5" font-family="Helvetica,sans-Serif" font-size="10.00">/data/acs/ginan/src</text>
<text text-anchor="middle" x="1258.5" y="-7.5" font-family="Helvetica,sans-Serif" font-size="10.00">/cpp/pea/ppp_network.cpp</text>
</a>
</g>
</g>
<!-- Node1&#45;&gt;Node86 -->
<g id="edge27" class="edge">
<title>Node1&#45;&gt;Node86</title>
<path fill="none" stroke="midnightblue" d="M1355.16,-145.61C1428.39,-140.96 1535.71,-128.92 1561.5,-98 1570.33,-87.42 1570.43,-77.49 1561.5,-67 1529.11,-28.94 1388.77,-39.4 1339.5,-31 1336.68,-30.52 1333.81,-30.03 1330.91,-29.52"/>
</g>
<!-- Node87 -->
<g id="node8" class="node">
<title>Node87</title>
<g id="a_node8"><a xlink:href="ppp__user_8cpp.html" target="_top" xlink:title=" ">
<polygon fill="white" stroke="black" points="1349,-0.5 1349,-30.5 1474,-30.5 1474,-0.5 1349,-0.5"/>
<text text-anchor="start" x="1357" y="-18.5" font-family="Helvetica,sans-Serif" font-size="10.00">/data/acs/ginan/src</text>
<text text-anchor="middle" x="1411.5" y="-7.5" font-family="Helvetica,sans-Serif" font-size="10.00">/cpp/pea/ppp_user.cpp</text>
</a>
</g>
</g>
<!-- Node1&#45;&gt;Node87 -->
<g id="edge28" class="edge">
<title>Node1&#45;&gt;Node87</title>
<path fill="none" stroke="midnightblue" d="M1355.14,-146.53C1433.11,-142.69 1551.36,-131.37 1579.5,-98 1588.38,-87.47 1587.72,-78.06 1579.5,-67 1572.68,-57.84 1516.18,-42.07 1470.55,-30.59"/>
</g>
<!-- Node95 -->
<g id="node9" class="node">
<title>Node95</title>
<g id="a_node9"><a xlink:href="corrections_8cpp.html" target="_top" xlink:title=" ">
<polygon fill="white" stroke="black" points="357.5,-67.5 357.5,-97.5 517.5,-97.5 517.5,-67.5 357.5,-67.5"/>
<text text-anchor="start" x="365.5" y="-85.5" font-family="Helvetica,sans-Serif" font-size="10.00">/data/acs/ginan/src</text>
<text text-anchor="middle" x="437.5" y="-74.5" font-family="Helvetica,sans-Serif" font-size="10.00">/cpp/common/corrections.cpp</text>
</a>
</g>
</g>
<!-- Node1&#45;&gt;Node95 -->
<g id="edge9" class="edge">
<title>Node1&#45;&gt;Node95</title>
<path fill="none" stroke="midnightblue" d="M1213.76,-146.03C1079.45,-140.85 778.41,-126.85 526.5,-98 523.54,-97.66 520.54,-97.29 517.5,-96.9"/>
</g>
<!-- Node9 -->
<g id="node10" class="node">
<title>Node9</title>
<g id="a_node10"><a xlink:href="linearCombo_8cpp.html" target="_top" xlink:title=" ">
<polygon fill="white" stroke="black" points="535.5,-67.5 535.5,-97.5 703.5,-97.5 703.5,-67.5 535.5,-67.5"/>
<text text-anchor="start" x="543.5" y="-85.5" font-family="Helvetica,sans-Serif" font-size="10.00">/data/acs/ginan/src</text>
<text text-anchor="middle" x="619.5" y="-74.5" font-family="Helvetica,sans-Serif" font-size="10.00">/cpp/common/linearCombo.cpp</text>
</a>
</g>
</g>
<!-- Node1&#45;&gt;Node9 -->
<g id="edge10" class="edge">
<title>Node1&#45;&gt;Node9</title>
<path fill="none" stroke="midnightblue" d="M1213.89,-143.79C1105.73,-136.22 892.6,-119.97 712.5,-98 709.58,-97.64 706.61,-97.27 703.61,-96.87"/>
</g>
<!-- Node67 -->
<g id="node11" class="node">
<title>Node67</title>
<g id="a_node11"><a xlink:href="mongo_8cpp.html" target="_top" xlink:title=" ">
<polygon fill="white" stroke="black" points="721.5,-67.5 721.5,-97.5 861.5,-97.5 861.5,-67.5 721.5,-67.5"/>
<text text-anchor="start" x="729.5" y="-85.5" font-family="Helvetica,sans-Serif" font-size="10.00">/data/acs/ginan/src</text>
<text text-anchor="middle" x="791.5" y="-74.5" font-family="Helvetica,sans-Serif" font-size="10.00">/cpp/common/mongo.cpp</text>
</a>
</g>
</g>
<!-- Node1&#45;&gt;Node67 -->
<g id="edge11" class="edge">
<title>Node1&#45;&gt;Node67</title>
<path fill="none" stroke="midnightblue" d="M1213.63,-141.17C1131.05,-132.32 990.57,-116.33 870.5,-98 867.61,-97.56 864.65,-97.09 861.67,-96.61"/>
</g>
<!-- Node24 -->
<g id="node12" class="node">
<title>Node24</title>
<g id="a_node12"><a xlink:href="mongoWrite_8cpp.html" target="_top" xlink:title=" ">
<polygon fill="white" stroke="black" points="879.5,-67.5 879.5,-97.5 1045.5,-97.5 1045.5,-67.5 879.5,-67.5"/>
<text text-anchor="start" x="887.5" y="-85.5" font-family="Helvetica,sans-Serif" font-size="10.00">/data/acs/ginan/src</text>
<text text-anchor="middle" x="962.5" y="-74.5" font-family="Helvetica,sans-Serif" font-size="10.00">/cpp/common/mongoWrite.cpp</text>
</a>
</g>
</g>
<!-- Node1&#45;&gt;Node24 -->
<g id="edge12" class="edge">
<title>Node1&#45;&gt;Node24</title>
<path fill="none" stroke="midnightblue" d="M1215.03,-134.48C1160.95,-123.56 1086.24,-108.48 1032.13,-97.55"/>
</g>
<!-- Node28 -->
<g id="node13" class="node">
<title>Node28</title>
<g id="a_node13"><a xlink:href="ionexWrite_8cpp.html" target="_top" xlink:title=" ">
<polygon fill="white" stroke="black" points="1064,-67.5 1064,-97.5 1201,-97.5 1201,-67.5 1064,-67.5"/>
<text text-anchor="start" x="1072" y="-85.5" font-family="Helvetica,sans-Serif" font-size="10.00">/data/acs/ginan/src</text>
<text text-anchor="middle" x="1132.5" y="-74.5" font-family="Helvetica,sans-Serif" font-size="10.00">/cpp/iono/ionexWrite.cpp</text>
</a>
</g>
</g>
<!-- Node1&#45;&gt;Node28 -->
<g id="edge13" class="edge">
<title>Node1&#45;&gt;Node28</title>
<path fill="none" stroke="midnightblue" d="M1251.52,-134.4C1226.02,-123.49 1190.9,-108.47 1165.42,-97.58"/>
</g>
<!-- Node31 -->
<g id="node14" class="node">
<title>Node31</title>
<g id="a_node14"><a xlink:href="ionoMeas_8cpp.html" target="_top" xlink:title=" ">
<polygon fill="white" stroke="black" points="1219,-67.5 1219,-97.5 1350,-97.5 1350,-67.5 1219,-67.5"/>
<text text-anchor="start" x="1227" y="-85.5" font-family="Helvetica,sans-Serif" font-size="10.00">/data/acs/ginan/src</text>
<text text-anchor="middle" x="1284.5" y="-74.5" font-family="Helvetica,sans-Serif" font-size="10.00">/cpp/iono/ionoMeas.cpp</text>
</a>
</g>
</g>
<!-- Node1&#45;&gt;Node31 -->
<g id="edge14" class="edge">
<title>Node1&#45;&gt;Node31</title>
<path fill="none" stroke="midnightblue" d="M1284.5,-134.4C1284.5,-123.49 1284.5,-108.47 1284.5,-97.58"/>
</g>
<!-- Node96 -->
<g id="node15" class="node">
<title>Node96</title>
<g id="a_node15"><a xlink:href="ppp_8hpp.html" target="_top" xlink:title=" ">
<polygon fill="white" stroke="red" points="1444.5,-67.5 1444.5,-97.5 1552.5,-97.5 1552.5,-67.5 1444.5,-67.5"/>
<text text-anchor="start" x="1452.5" y="-85.5" font-family="Helvetica,sans-Serif" font-size="10.00">/data/acs/ginan/src</text>
<text text-anchor="middle" x="1498.5" y="-74.5" font-family="Helvetica,sans-Serif" font-size="10.00">/cpp/pea/ppp.hpp</text>
</a>
</g>
</g>
<!-- Node1&#45;&gt;Node96 -->
<g id="edge17" class="edge">
<title>Node1&#45;&gt;Node96</title>
<path fill="none" stroke="midnightblue" d="M1330.67,-134.48C1366.55,-123.58 1416.09,-108.53 1452.04,-97.61"/>
</g>
<!-- Node120 -->
<g id="node16" class="node">
<title>Node120</title>
<g id="a_node16"><a xlink:href="ppp__callbacks_8cpp.html" target="_top" xlink:title=" ">
<polygon fill="white" stroke="black" points="1492.5,-0.5 1492.5,-30.5 1642.5,-30.5 1642.5,-0.5 1492.5,-0.5"/>
<text text-anchor="start" x="1500.5" y="-18.5" font-family="Helvetica,sans-Serif" font-size="10.00">/data/acs/ginan/src</text>
<text text-anchor="middle" x="1567.5" y="-7.5" font-family="Helvetica,sans-Serif" font-size="10.00">/cpp/pea/ppp_callbacks.cpp</text>
</a>
</g>
</g>
<!-- Node1&#45;&gt;Node120 -->
<g id="edge26" class="edge">
<title>Node1&#45;&gt;Node120</title>
<path fill="none" stroke="midnightblue" d="M1355.07,-145.22C1427.92,-140.23 1534.63,-127.91 1561.5,-98 1578,-79.64 1574.84,-48.59 1571.13,-30.58"/>
</g>
<!-- Node10 -->
<g id="node17" class="node">
<title>Node10</title>
<g id="a_node17"><a xlink:href="preprocessor_8cpp.html" target="_top" xlink:title=" ">
<polygon fill="white" stroke="black" points="1660.5,-0.5 1660.5,-30.5 1804.5,-30.5 1804.5,-0.5 1660.5,-0.5"/>
<text text-anchor="start" x="1668.5" y="-18.5" font-family="Helvetica,sans-Serif" font-size="10.00">/data/acs/ginan/src</text>
<text text-anchor="middle" x="1732.5" y="-7.5" font-family="Helvetica,sans-Serif" font-size="10.00">/cpp/pea/preprocessor.cpp</text>
</a>
</g>
</g>
<!-- Node1&#45;&gt;Node10 -->
<g id="edge29" class="edge">
<title>Node1&#45;&gt;Node10</title>
<path fill="none" stroke="midnightblue" d="M1355.13,-144.81C1419.87,-139.66 1517.53,-127.33 1597.5,-98 1642.74,-81.41 1689.58,-49.11 1714.44,-30.54"/>
</g>
<!-- Node46 -->
<g id="node18" class="node">
<title>Node46</title>
<g id="a_node18"><a xlink:href="spp_8cpp.html" target="_top" xlink:title=" ">
<polygon fill="white" stroke="black" points="1822.5,-0.5 1822.5,-30.5 1930.5,-30.5 1930.5,-0.5 1822.5,-0.5"/>
<text text-anchor="start" x="1830.5" y="-18.5" font-family="Helvetica,sans-Serif" font-size="10.00">/data/acs/ginan/src</text>
<text text-anchor="middle" x="1876.5" y="-7.5" font-family="Helvetica,sans-Serif" font-size="10.00">/cpp/pea/spp.cpp</text>
</a>
</g>
</g>
<!-- Node1&#45;&gt;Node46 -->
<g id="edge30" class="edge">
<title>Node1&#45;&gt;Node46</title>
<path fill="none" stroke="midnightblue" d="M1355.23,-142.63C1428.01,-135.63 1544.28,-121.79 1642.5,-98 1715.46,-80.33 1797.68,-48.88 1842.63,-30.65"/>
</g>
<!-- Node3&#45;&gt;Node5 -->
<g id="edge3" class="edge">
<title>Node3&#45;&gt;Node5</title>
<path fill="none" stroke="midnightblue" d="M250.42,-67.4C267.36,-56.49 290.7,-41.47 307.63,-30.58"/>
</g>
<!-- Node3&#45;&gt;Node16 -->
<g id="edge4" class="edge">
<title>Node3&#45;&gt;Node16</title>
<path fill="none" stroke="midnightblue" d="M301.74,-72.16C317.17,-70.33 333.36,-68.51 348.5,-67 565.32,-45.36 824.23,-27.32 934.49,-20"/>
</g>
<!-- Node3&#45;&gt;Node43 -->
<g id="edge5" class="edge">
<title>Node3&#45;&gt;Node43</title>
<path fill="none" stroke="midnightblue" d="M301.71,-71.84C317.14,-70.03 333.34,-68.3 348.5,-67 660.21,-40.22 741.65,-74.25 1051.5,-31 1054.39,-30.6 1057.34,-30.13 1060.32,-29.6"/>
</g>
<!-- Node3&#45;&gt;Node86 -->
<g id="edge6" class="edge">
<title>Node3&#45;&gt;Node86</title>
<path fill="none" stroke="midnightblue" d="M301.71,-71.75C317.14,-69.95 333.34,-68.24 348.5,-67 716.06,-36.86 810.95,-71.58 1177.5,-31 1180.34,-30.69 1183.23,-30.33 1186.15,-29.95"/>
</g>
<!-- Node3&#45;&gt;Node87 -->
<g id="edge7" class="edge">
<title>Node3&#45;&gt;Node87</title>
<path fill="none" stroke="midnightblue" d="M301.7,-71.66C317.13,-69.87 333.33,-68.19 348.5,-67 787.89,-32.53 901.81,-82.68 1339.5,-31 1342.54,-30.64 1345.64,-30.22 1348.77,-29.76"/>
</g>
<!-- Node96&#45;&gt;Node5 -->
<g id="edge18" class="edge">
<title>Node96&#45;&gt;Node5</title>
<path fill="none" stroke="midnightblue" d="M1444.38,-75.2C1418.43,-72.36 1386.89,-69.16 1358.5,-67 999.81,-39.64 569.59,-24.1 401.63,-18.7"/>
</g>
<!-- Node96&#45;&gt;Node16 -->
<g id="edge19" class="edge">
<title>Node96&#45;&gt;Node16</title>
<path fill="none" stroke="midnightblue" d="M1444.34,-73.77C1427.72,-71.48 1409.37,-69.04 1392.5,-67 1241.21,-48.67 1201.81,-56.14 1051.5,-31 1048.62,-30.52 1045.68,-29.99 1042.71,-29.42"/>
</g>
<!-- Node96&#45;&gt;Node43 -->
<g id="edge20" class="edge">
<title>Node96&#45;&gt;Node43</title>
<path fill="none" stroke="midnightblue" d="M1444.38,-69.61C1439.69,-68.69 1435.02,-67.8 1430.5,-67 1318.67,-47.15 1289.16,-51.76 1177.5,-31 1174.63,-30.47 1171.7,-29.89 1168.74,-29.29"/>
</g>
<!-- Node96&#45;&gt;Node86 -->
<g id="edge22" class="edge">
<title>Node96&#45;&gt;Node86</title>
<path fill="none" stroke="midnightblue" d="M1446.72,-67.48C1406.48,-56.58 1350.92,-41.53 1310.6,-30.61"/>
</g>
<!-- Node96&#45;&gt;Node87 -->
<g id="edge23" class="edge">
<title>Node96&#45;&gt;Node87</title>
<path fill="none" stroke="midnightblue" d="M1479.62,-67.4C1465.03,-56.49 1444.92,-41.47 1430.34,-30.58"/>
</g>
<!-- Node96&#45;&gt;Node120 -->
<g id="edge21" class="edge">
<title>Node96&#45;&gt;Node120</title>
<path fill="none" stroke="midnightblue" d="M1513.47,-67.4C1525.05,-56.49 1540.99,-41.47 1552.56,-30.58"/>
</g>
<!-- Node96&#45;&gt;Node10 -->
<g id="edge24" class="edge">
<title>Node96&#45;&gt;Node10</title>
<path fill="none" stroke="midnightblue" d="M1548.99,-67.48C1588.22,-56.58 1642.39,-41.53 1681.7,-30.61"/>
</g>
<!-- Node96&#45;&gt;Node46 -->
<g id="edge25" class="edge">
<title>Node96&#45;&gt;Node46</title>
<path fill="none" stroke="midnightblue" d="M1552.76,-73.93C1615.69,-64.9 1722.44,-48.76 1813.5,-31 1816.36,-30.44 1819.3,-29.85 1822.25,-29.23"/>
</g>
</g>
</svg>
