<?xml version="1.0" encoding="UTF-8" standalone="no"?>
<!DOCTYPE svg PUBLIC "-//W3C//DTD SVG 1.1//EN"
 "http://www.w3.org/Graphics/SVG/1.1/DTD/svg11.dtd">
<!-- Generated by graphviz version 2.43.0 (0)
 -->
<!-- Title: getSysSats Pages: 1 -->
<svg width="675pt" height="264pt"
 viewBox="0.00 0.00 675.00 264.06" xmlns="http://www.w3.org/2000/svg" xmlns:xlink="http://www.w3.org/1999/xlink">
<g id="graph0" class="graph" transform="scale(1 1) rotate(0) translate(4 260.06)">
<title>getSysSats</title>
<polygon fill="white" stroke="transparent" points="-4,4 -4,-260.06 671,-260.06 671,4 -4,4"/>
<!-- Node1 -->
<g id="node1" class="node">
<title>Node1</title>
<g id="a_node1"><a xlink:title="Get all satellites of target system.">
<polygon fill="#bfbfbf" stroke="black" points="596,-114.5 596,-133.5 667,-133.5 667,-114.5 596,-114.5"/>
<text text-anchor="middle" x="631.5" y="-121.5" font-family="Helvetica,sans-Serif" font-size="10.00">getSysSats</text>
</a>
</g>
</g>
<!-- Node2 -->
<g id="node2" class="node">
<title>Node2</title>
<g id="a_node2"><a xlink:href="biasSINEXread_8cpp.html#a8f9b3ddb1206caaccd29bf540cf64846" target="_top" xlink:title="Initialise satellite DSBs between default signals, e.g.">
<polygon fill="white" stroke="black" points="79,-228.5 79,-247.5 186,-247.5 186,-228.5 79,-228.5"/>
<text text-anchor="middle" x="132.5" y="-235.5" font-family="Helvetica,sans-Serif" font-size="10.00">initialiseBiasSinex</text>
</a>
</g>
</g>
<!-- Node1&#45;&gt;Node2 -->
<g id="edge1" class="edge">
<title>Node1&#45;&gt;Node2</title>
<path fill="none" stroke="midnightblue" d="M625.7,-133.6C616.08,-151.68 592.52,-190.46 560,-207 437.91,-269.1 270.27,-257.79 186.15,-246.63"/>
</g>
<!-- Node4 -->
<g id="node4" class="node">
<title>Node4</title>
<g id="a_node4"><a xlink:href="biasSINEXread_8cpp.html#a100d336742ac00f1a748f2d363401b32" target="_top" xlink:title="Add default 0 values to DSBs between default signals, e.g.">
<polygon fill="white" stroke="black" points="252,-190.5 252,-209.5 371,-209.5 371,-190.5 252,-190.5"/>
<text text-anchor="middle" x="311.5" y="-197.5" font-family="Helvetica,sans-Serif" font-size="10.00">addDefaultBiasSinex</text>
</a>
</g>
</g>
<!-- Node1&#45;&gt;Node4 -->
<g id="edge3" class="edge">
<title>Node1&#45;&gt;Node4</title>
<path fill="none" stroke="midnightblue" d="M622.1,-133.77C609.95,-147.14 586.04,-170.65 560,-181 498.93,-205.27 422.79,-207.37 371.21,-205.1"/>
</g>
<!-- Node6 -->
<g id="node6" class="node">
<title>Node6</title>
<g id="a_node6"><a xlink:href="mongoRead_8cpp.html#a03a22276552d8af1649b1472eef24b1e" target="_top" xlink:title=" ">
<polygon fill="white" stroke="black" points="439,-152.5 439,-171.5 556,-171.5 556,-152.5 439,-152.5"/>
<text text-anchor="middle" x="497.5" y="-159.5" font-family="Helvetica,sans-Serif" font-size="10.00">mongoReadSSRData</text>
</a>
</g>
</g>
<!-- Node1&#45;&gt;Node6 -->
<g id="edge7" class="edge">
<title>Node1&#45;&gt;Node6</title>
<path fill="none" stroke="midnightblue" d="M597.19,-133.59C577.18,-139.35 551.81,-146.65 531.8,-152.41"/>
</g>
<!-- Node10 -->
<g id="node8" class="node">
<title>Node10</title>
<g id="a_node8"><a xlink:href="mongoRead_8cpp.html#a256f2754863719971fa483cac78b829d" target="_top" xlink:title=" ">
<polygon fill="white" stroke="black" points="435,-114.5 435,-133.5 560,-133.5 560,-114.5 435,-114.5"/>
<text text-anchor="middle" x="497.5" y="-121.5" font-family="Helvetica,sans-Serif" font-size="10.00">mongoReadPhaseBias</text>
</a>
</g>
</g>
<!-- Node1&#45;&gt;Node10 -->
<g id="edge10" class="edge">
<title>Node1&#45;&gt;Node10</title>
<path fill="none" stroke="midnightblue" d="M595.82,-124C584.82,-124 572.31,-124 560.01,-124"/>
</g>
<!-- Node11 -->
<g id="node9" class="node">
<title>Node11</title>
<g id="a_node9"><a xlink:href="mongoRead_8cpp.html#a93f0eec38aea13fa7ba8d671a7a6f8e2" target="_top" xlink:title=" ">
<polygon fill="white" stroke="black" points="437,-76.5 437,-95.5 558,-95.5 558,-76.5 437,-76.5"/>
<text text-anchor="middle" x="497.5" y="-83.5" font-family="Helvetica,sans-Serif" font-size="10.00">mongoReadCodeBias</text>
</a>
</g>
</g>
<!-- Node1&#45;&gt;Node11 -->
<g id="edge12" class="edge">
<title>Node1&#45;&gt;Node11</title>
<path fill="none" stroke="midnightblue" d="M597.19,-114.41C577.18,-108.65 551.81,-101.35 531.8,-95.59"/>
</g>
<!-- Node12 -->
<g id="node10" class="node">
<title>Node12</title>
<g id="a_node10"><a xlink:href="mongoWrite_8cpp.html#ac5399222f483050332a2571ebcbc5ba1" target="_top" xlink:title=" ">
<polygon fill="white" stroke="black" points="447.5,-38.5 447.5,-57.5 547.5,-57.5 547.5,-38.5 447.5,-38.5"/>
<text text-anchor="middle" x="497.5" y="-45.5" font-family="Helvetica,sans-Serif" font-size="10.00">prepareSsrStates</text>
</a>
</g>
</g>
<!-- Node1&#45;&gt;Node12 -->
<g id="edge14" class="edge">
<title>Node1&#45;&gt;Node12</title>
<path fill="none" stroke="midnightblue" d="M620.87,-114.17C608.05,-101.59 584.17,-79.88 560,-67 553,-63.27 545.15,-60.14 537.46,-57.58"/>
</g>
<!-- Node14 -->
<g id="node12" class="node">
<title>Node14</title>
<g id="a_node12"><a xlink:href="sp3Write_8cpp.html#aed29c95c9a69a1717d95e354d190d5df" target="_top" xlink:title=" ">
<polygon fill="white" stroke="black" points="450,-0.5 450,-19.5 545,-19.5 545,-0.5 450,-0.5"/>
<text text-anchor="middle" x="497.5" y="-7.5" font-family="Helvetica,sans-Serif" font-size="10.00">writeSp3Header</text>
</a>
</g>
</g>
<!-- Node1&#45;&gt;Node14 -->
<g id="edge17" class="edge">
<title>Node1&#45;&gt;Node14</title>
<path fill="none" stroke="midnightblue" d="M625.97,-114.33C616.48,-95.15 592.69,-52.14 560,-29 554.53,-25.13 548.24,-22.02 541.82,-19.55"/>
</g>
<!-- Node3 -->
<g id="node3" class="node">
<title>Node3</title>
<g id="a_node3"><a xlink:href="main_8cpp.html#a3c04138a5bfe5d72780bb7e82a18e627" target="_top" xlink:title=" ">
<polygon fill="white" stroke="black" points="0,-190.5 0,-209.5 41,-209.5 41,-190.5 0,-190.5"/>
<text text-anchor="middle" x="20.5" y="-197.5" font-family="Helvetica,sans-Serif" font-size="10.00">main</text>
</a>
</g>
</g>
<!-- Node2&#45;&gt;Node3 -->
<g id="edge2" class="edge">
<title>Node2&#45;&gt;Node3</title>
<path fill="none" stroke="midnightblue" d="M103.74,-228.41C84.27,-221.68 58.69,-212.85 41.27,-206.83"/>
</g>
<!-- Node4&#45;&gt;Node3 -->
<g id="edge6" class="edge">
<title>Node4&#45;&gt;Node3</title>
<path fill="none" stroke="midnightblue" d="M268.91,-190.5C222.01,-181.2 143.6,-169.92 77,-181 64.74,-183.04 51.56,-187.45 41.13,-191.51"/>
</g>
<!-- Node5 -->
<g id="node5" class="node">
<title>Node5</title>
<g id="a_node5"><a xlink:href="main_8cpp.html#adec1174713b31a762011c372983df1e5" target="_top" xlink:title=" ">
<polygon fill="white" stroke="black" points="77,-190.5 77,-209.5 188,-209.5 188,-190.5 77,-190.5"/>
<text text-anchor="middle" x="132.5" y="-197.5" font-family="Helvetica,sans-Serif" font-size="10.00">mainOncePerEpoch</text>
</a>
</g>
</g>
<!-- Node4&#45;&gt;Node5 -->
<g id="edge4" class="edge">
<title>Node4&#45;&gt;Node5</title>
<path fill="none" stroke="midnightblue" d="M251.56,-200C231.15,-200 208.36,-200 188.29,-200"/>
</g>
<!-- Node5&#45;&gt;Node3 -->
<g id="edge5" class="edge">
<title>Node5&#45;&gt;Node3</title>
<path fill="none" stroke="midnightblue" d="M76.82,-200C63.99,-200 51.13,-200 41.05,-200"/>
</g>
<!-- Node7 -->
<g id="node7" class="node">
<title>Node7</title>
<g id="a_node7"><a xlink:href="structNtripUploader.html#a0763f31214a177f3d9be2301138fd0e7" target="_top" xlink:title=" ">
<polygon fill="white" stroke="red" points="224,-109 224,-139 399,-139 399,-109 224,-109"/>
<text text-anchor="start" x="232" y="-127" font-family="Helvetica,sans-Serif" font-size="10.00">NtripUploader::messageTimeout</text>
<text text-anchor="middle" x="311.5" y="-116" font-family="Helvetica,sans-Serif" font-size="10.00">_hanlder</text>
</a>
</g>
</g>
<!-- Node6&#45;&gt;Node7 -->
<g id="edge8" class="edge">
<title>Node6&#45;&gt;Node7</title>
<path fill="none" stroke="midnightblue" d="M450.07,-152.41C430.48,-148.37 407.2,-143.56 385.42,-139.06"/>
</g>
<!-- Node7&#45;&gt;Node7 -->
<g id="edge9" class="edge">
<title>Node7&#45;&gt;Node7</title>
<path fill="none" stroke="midnightblue" d="M342.52,-139.16C350,-148.56 339.66,-157.5 311.5,-157.5 283.34,-157.5 273,-148.56 280.48,-139.16"/>
</g>
<!-- Node10&#45;&gt;Node7 -->
<g id="edge11" class="edge">
<title>Node10&#45;&gt;Node7</title>
<path fill="none" stroke="midnightblue" d="M434.97,-124C423.48,-124 411.28,-124 399.19,-124"/>
</g>
<!-- Node11&#45;&gt;Node7 -->
<g id="edge13" class="edge">
<title>Node11&#45;&gt;Node7</title>
<path fill="none" stroke="midnightblue" d="M450.07,-95.59C430.48,-99.63 407.2,-104.44 385.42,-108.94"/>
</g>
<!-- Node13 -->
<g id="node11" class="node">
<title>Node13</title>
<g id="a_node11"><a xlink:href="main_8cpp.html#a052aae1f895ebdbdaf816f70d9287e78" target="_top" xlink:title=" ">
<polygon fill="white" stroke="black" points="231.5,-50 231.5,-80 391.5,-80 391.5,-50 231.5,-50"/>
<text text-anchor="start" x="239.5" y="-68" font-family="Helvetica,sans-Serif" font-size="10.00">mainPerEpochPostProcessing</text>
<text text-anchor="middle" x="311.5" y="-57" font-family="Helvetica,sans-Serif" font-size="10.00">AndOutputs</text>
</a>
</g>
</g>
<!-- Node12&#45;&gt;Node13 -->
<g id="edge15" class="edge">
<title>Node12&#45;&gt;Node13</title>
<path fill="none" stroke="midnightblue" d="M447.19,-52.56C430.16,-54.13 410.62,-55.93 391.8,-57.67"/>
</g>
<!-- Node13&#45;&gt;Node5 -->
<g id="edge16" class="edge">
<title>Node13&#45;&gt;Node5</title>
<path fill="none" stroke="midnightblue" d="M262.29,-80.07C249.24,-85.3 235.55,-91.93 224,-100 186.38,-126.29 153.32,-170.94 139.88,-190.43"/>
</g>
<!-- Node15 -->
<g id="node13" class="node">
<title>Node15</title>
<g id="a_node13"><a xlink:href="sp3Write_8cpp.html#ad7758ef92662b89e46d4a9650eb3a840" target="_top" xlink:title=" ">
<polygon fill="white" stroke="red" points="265,-0.5 265,-19.5 358,-19.5 358,-0.5 265,-0.5"/>
<text text-anchor="middle" x="311.5" y="-7.5" font-family="Helvetica,sans-Serif" font-size="10.00">updateSp3Body</text>
</a>
</g>
</g>
<!-- Node14&#45;&gt;Node15 -->
<g id="edge18" class="edge">
<title>Node14&#45;&gt;Node15</title>
<path fill="none" stroke="midnightblue" d="M449.59,-10C421.48,-10 385.91,-10 358.05,-10"/>
</g>
</g>
</svg>
