<?xml version="1.0" encoding="UTF-8" standalone="no"?>
<!DOCTYPE svg PUBLIC "-//W3C//DTD SVG 1.1//EN"
 "http://www.w3.org/Graphics/SVG/1.1/DTD/svg11.dtd">
<!-- Generated by graphviz version 2.43.0 (0)
 -->
<!-- Title: writeSinex Pages: 1 -->
<svg width="228pt" height="27pt"
 viewBox="0.00 0.00 228.00 27.00" xmlns="http://www.w3.org/2000/svg" xmlns:xlink="http://www.w3.org/1999/xlink">
<g id="graph0" class="graph" transform="scale(1 1) rotate(0) translate(4 23)">
<title>writeSinex</title>
<!-- Node1 -->
<g id="Node000001" class="node">
<title>Node1</title>
<g id="a_Node000001"><a xlink:href="sinex_8cpp.html#a70eebe80909c0c4d8e9efbdb977a2bd1" target="_top" xlink:title=" ">
<path fill="#fff0f0" stroke="red" stroke-width="2" d="M213.67,-19C213.67,-19 158.33,-19 158.33,-19 155.17,-19 152,-15.83 152,-12.67 152,-12.67 152,-6.33 152,-6.33 152,-3.17 155.17,0 158.33,0 158.33,0 213.67,0 213.67,0 216.83,0 220,-3.17 220,-6.33 220,-6.33 220,-12.67 220,-12.67 220,-15.83 216.83,-19 213.67,-19"/>
<text text-anchor="middle" x="186" y="-7" font-family="Helvetica,sans-Serif" font-size="10.00">writeSinex</text>
</a>
</g>
</g>
<!-- Node2 -->
<g id="Node000002" class="node">
<title>Node2</title>
<g id="a_Node000002"><a xlink:href="pea__snx_8cpp.html#a4ded3444eea8dfc8736567542792d17e" target="_top" xlink:title=" ">
<path fill="#fff0f0" stroke="red" d="M109.67,-19C109.67,-19 6.33,-19 6.33,-19 3.17,-19 0,-15.83 0,-12.67 0,-12.67 0,-6.33 0,-6.33 0,-3.17 3.17,0 6.33,0 6.33,0 109.67,0 109.67,0 112.83,0 116,-3.17 116,-6.33 116,-6.33 116,-12.67 116,-12.67 116,-15.83 112.83,-19 109.67,-19"/>
<text text-anchor="middle" x="58" y="-7" font-family="Helvetica,sans-Serif" font-size="10.00">sinexPostProcessing</text>
</a>
</g>
</g>
<!-- Node1&#45;&gt;Node2 -->
<g id="edge1_Node000001_Node000002" class="edge">
<title>Node1&#45;&gt;Node2</title>
<g id="a_edge1_Node000001_Node000002"><a xlink:title=" ">
<path fill="none" stroke="#63b8ff" d="M141.79,-9.5C133.56,-9.5 124.83,-9.5 116.25,-9.5"/>
<polygon fill="#63b8ff" stroke="#63b8ff" points="141.9,-13 151.89,-9.5 141.89,-6 141.9,-13"/>
</a>
</g>
</g>
</g>
</svg>
