<?xml version="1.0" encoding="UTF-8" standalone="no"?>
<!DOCTYPE svg PUBLIC "-//W3C//DTD SVG 1.1//EN"
 "http://www.w3.org/Graphics/SVG/1.1/DTD/svg11.dtd">
<!-- Generated by graphviz version 2.43.0 (0)
 -->
<!-- Title: time_compare Pages: 1 -->
<svg width="269pt" height="104pt"
 viewBox="0.00 0.00 269.00 104.00" xmlns="http://www.w3.org/2000/svg" xmlns:xlink="http://www.w3.org/1999/xlink">
<g id="graph0" class="graph" transform="scale(1 1) rotate(0) translate(4 100)">
<title>time_compare</title>
<polygon fill="white" stroke="transparent" points="-4,4 -4,-100 265,-100 265,4 -4,4"/>
<!-- Node1 -->
<g id="node1" class="node">
<title>Node1</title>
<g id="a_node1"><a xlink:title="seconds diff bewteen left and right If left &lt; right the value is negative">
<polygon fill="#bfbfbf" stroke="black" points="174,-38.5 174,-57.5 261,-57.5 261,-38.5 174,-38.5"/>
<text text-anchor="middle" x="217.5" y="-45.5" font-family="Helvetica,sans-Serif" font-size="10.00">time_compare</text>
</a>
</g>
</g>
<!-- Node2 -->
<g id="node2" class="node">
<title>Node2</title>
<g id="a_node2"><a xlink:href="sinex_8cpp.html#a9ccfee922fdab0a4be97909076017dea" target="_top" xlink:title=" ">
<polygon fill="white" stroke="black" points="39.5,-76.5 39.5,-95.5 98.5,-95.5 98.5,-76.5 39.5,-76.5"/>
<text text-anchor="middle" x="69" y="-83.5" font-family="Helvetica,sans-Serif" font-size="10.00">compare</text>
</a>
</g>
</g>
<!-- Node1&#45;&gt;Node2 -->
<g id="edge1" class="edge">
<title>Node1&#45;&gt;Node2</title>
<path fill="none" stroke="midnightblue" d="M169.8,-60.11C146.42,-66.18 118.86,-73.33 98.64,-78.57"/>
<polygon fill="midnightblue" stroke="midnightblue" points="170.73,-63.49 179.53,-57.59 168.97,-56.71 170.73,-63.49"/>
</g>
<!-- Node3 -->
<g id="node3" class="node">
<title>Node3</title>
<g id="a_node3"><a xlink:href="sinex_8cpp.html#a553045670036d34d3260a2009ab19a8f" target="_top" xlink:title=" ">
<polygon fill="white" stroke="red" points="5.5,-38.5 5.5,-57.5 132.5,-57.5 132.5,-38.5 5.5,-38.5"/>
<text text-anchor="middle" x="69" y="-45.5" font-family="Helvetica,sans-Serif" font-size="10.00">setRestrictiveEndTime</text>
</a>
</g>
</g>
<!-- Node1&#45;&gt;Node3 -->
<g id="edge2" class="edge">
<title>Node1&#45;&gt;Node3</title>
<path fill="none" stroke="midnightblue" d="M163.54,-48C153.53,-48 142.97,-48 132.69,-48"/>
<polygon fill="midnightblue" stroke="midnightblue" points="163.73,-51.5 173.73,-48 163.73,-44.5 163.73,-51.5"/>
</g>
<!-- Node19 -->
<g id="node4" class="node">
<title>Node19</title>
<g id="a_node4"><a xlink:href="pea__snx_8cpp.html#a998d8ea068788de9c3ca4f572a114e44" target="_top" xlink:title=" ">
<polygon fill="white" stroke="red" points="0,-0.5 0,-19.5 138,-19.5 138,-0.5 0,-0.5"/>
<text text-anchor="middle" x="69" y="-7.5" font-family="Helvetica,sans-Serif" font-size="10.00">sinexPerEpochPerStation</text>
</a>
</g>
</g>
<!-- Node1&#45;&gt;Node19 -->
<g id="edge3" class="edge">
<title>Node1&#45;&gt;Node19</title>
<path fill="none" stroke="midnightblue" d="M169.8,-35.89C149.4,-30.6 125.82,-24.48 106.7,-19.52"/>
<polygon fill="midnightblue" stroke="midnightblue" points="168.97,-39.29 179.53,-38.41 170.73,-32.51 168.97,-39.29"/>
</g>
</g>
</svg>
