<?xml version="1.0" encoding="UTF-8" standalone="no"?>
<!DOCTYPE svg PUBLIC "-//W3C//DTD SVG 1.1//EN"
 "http://www.w3.org/Graphics/SVG/1.1/DTD/svg11.dtd">
<!-- Generated by graphviz version 2.43.0 (0)
 -->
<!-- Title: time_compare Pages: 1 -->
<svg width="269pt" height="142pt"
 viewBox="0.00 0.00 269.00 142.00" xmlns="http://www.w3.org/2000/svg" xmlns:xlink="http://www.w3.org/1999/xlink">
<g id="graph0" class="graph" transform="scale(1 1) rotate(0) translate(4 138)">
<title>time_compare</title>
<polygon fill="white" stroke="transparent" points="-4,4 -4,-138 265,-138 265,4 -4,4"/>
<!-- Node1 -->
<g id="node1" class="node">
<title>Node1</title>
<g id="a_node1"><a xlink:title=" ">
<polygon fill="#bfbfbf" stroke="black" points="174,-57.5 174,-76.5 261,-76.5 261,-57.5 174,-57.5"/>
<text text-anchor="middle" x="217.5" y="-64.5" font-family="Helvetica,sans-Serif" font-size="10.00">time_compare</text>
</a>
</g>
</g>
<!-- Node2 -->
<g id="node2" class="node">
<title>Node2</title>
<g id="a_node2"><a xlink:href="sinex_8cpp.html#a9ccfee922fdab0a4be97909076017dea" target="_top" xlink:title=" ">
<polygon fill="white" stroke="black" points="39.5,-114.5 39.5,-133.5 98.5,-133.5 98.5,-114.5 39.5,-114.5"/>
<text text-anchor="middle" x="69" y="-121.5" font-family="Helvetica,sans-Serif" font-size="10.00">compare</text>
</a>
</g>
</g>
<!-- Node1&#45;&gt;Node2 -->
<g id="edge1" class="edge">
<title>Node1&#45;&gt;Node2</title>
<path fill="none" stroke="midnightblue" d="M199.13,-76.52C183.48,-84.83 159.67,-96.8 138,-105 125.39,-109.77 111.06,-113.95 98.82,-117.16"/>
</g>
<!-- Node3 -->
<g id="node3" class="node">
<title>Node3</title>
<g id="a_node3"><a xlink:href="sinex_8cpp.html#a1a490e4f0aad264f47485c1c4ddd4819" target="_top" xlink:title=" ">
<polygon fill="white" stroke="red" points="6,-76.5 6,-95.5 132,-95.5 132,-76.5 6,-76.5"/>
<text text-anchor="middle" x="69" y="-83.5" font-family="Helvetica,sans-Serif" font-size="10.00">setRestrictiveEndTime</text>
</a>
</g>
</g>
<!-- Node1&#45;&gt;Node3 -->
<g id="edge2" class="edge">
<title>Node1&#45;&gt;Node3</title>
<path fill="none" stroke="midnightblue" d="M173.73,-72.55C160.73,-74.23 146.16,-76.12 132.15,-77.94"/>
</g>
<!-- Node16 -->
<g id="node4" class="node">
<title>Node16</title>
<g id="a_node4"><a xlink:href="pea__snx_8cpp.html#a8e1c8eabbdcd632cd47f48b220ce3d25" target="_top" xlink:title=" ">
<polygon fill="white" stroke="red" points="0,-38.5 0,-57.5 138,-57.5 138,-38.5 0,-38.5"/>
<text text-anchor="middle" x="69" y="-45.5" font-family="Helvetica,sans-Serif" font-size="10.00">sinexPerEpochPerStation</text>
</a>
</g>
</g>
<!-- Node1&#45;&gt;Node16 -->
<g id="edge3" class="edge">
<title>Node1&#45;&gt;Node16</title>
<path fill="none" stroke="midnightblue" d="M173.73,-61.45C162.58,-60.01 150.29,-58.41 138.18,-56.84"/>
</g>
<!-- Node18 -->
<g id="node5" class="node">
<title>Node18</title>
<g id="a_node5"><a xlink:href="sinex_8cpp.html#a74b3213edcd9f9ac9e2d173fd5a97d42" target="_top" xlink:title=" ">
<polygon fill="white" stroke="red" points="17,-0.5 17,-19.5 121,-19.5 121,-0.5 17,-0.5"/>
<text text-anchor="middle" x="69" y="-7.5" font-family="Helvetica,sans-Serif" font-size="10.00">compare_normals</text>
</a>
</g>
</g>
<!-- Node1&#45;&gt;Node18 -->
<g id="edge4" class="edge">
<title>Node1&#45;&gt;Node18</title>
<path fill="none" stroke="midnightblue" d="M199.13,-57.48C183.48,-49.17 159.67,-37.2 138,-29 128.71,-25.49 118.5,-22.3 108.87,-19.57"/>
</g>
</g>
</svg>
