<?xml version="1.0" encoding="UTF-8" standalone="no"?>
<!DOCTYPE svg PUBLIC "-//W3C//DTD SVG 1.1//EN"
 "http://www.w3.org/Graphics/SVG/1.1/DTD/svg11.dtd">
<!-- Generated by graphviz version 2.43.0 (0)
 -->
<!-- Title: sinexPostProcessing Pages: 1 -->
<svg width="391pt" height="344pt"
 viewBox="0.00 0.00 391.00 343.50" xmlns="http://www.w3.org/2000/svg" xmlns:xlink="http://www.w3.org/1999/xlink">
<g id="graph0" class="graph" transform="scale(1 1) rotate(0) translate(4 339.5)">
<title>sinexPostProcessing</title>
<polygon fill="white" stroke="transparent" points="-4,4 -4,-339.5 387,-339.5 387,4 -4,4"/>
<!-- Node1 -->
<g id="node1" class="node">
<title>Node1</title>
<g id="a_node1"><a xlink:title=" ">
<polygon fill="#bfbfbf" stroke="black" points="0,-152.5 0,-171.5 116,-171.5 116,-152.5 0,-152.5"/>
<text text-anchor="middle" x="58" y="-159.5" font-family="Helvetica,sans-Serif" font-size="10.00">sinexPostProcessing</text>
</a>
</g>
</g>
<!-- Node2 -->
<g id="node2" class="node">
<title>Node2</title>
<g id="a_node2"><a xlink:href="sinex_8cpp.html#a32c742a3442654bb9d17958a0bd32621" target="_top" xlink:title=" ">
<polygon fill="white" stroke="black" points="154,-305 154,-335 271,-335 271,-305 154,-305"/>
<text text-anchor="start" x="162" y="-323" font-family="Helvetica,sans-Serif" font-size="10.00">sinex_check_add_ga</text>
<text text-anchor="middle" x="212.5" y="-312" font-family="Helvetica,sans-Serif" font-size="10.00">_reference</text>
</a>
</g>
</g>
<!-- Node1&#45;&gt;Node2 -->
<g id="edge1" class="edge">
<title>Node1&#45;&gt;Node2</title>
<path fill="none" stroke="midnightblue" d="M63.42,-171.76C74.78,-195.88 107.28,-258.9 152,-295 156.71,-298.8 162.08,-302.11 167.62,-304.97"/>
</g>
<!-- Node3 -->
<g id="node3" class="node">
<title>Node3</title>
<g id="a_node3"><a xlink:href="algebra_8cpp.html#a875aaa79fee3ea86808271f92784a3ad" target="_top" xlink:title=" ">
<polygon fill="white" stroke="black" points="174,-266.5 174,-285.5 251,-285.5 251,-266.5 174,-266.5"/>
<text text-anchor="middle" x="212.5" y="-273.5" font-family="Helvetica,sans-Serif" font-size="10.00">mergeFilters</text>
</a>
</g>
</g>
<!-- Node1&#45;&gt;Node3 -->
<g id="edge2" class="edge">
<title>Node1&#45;&gt;Node3</title>
<path fill="none" stroke="midnightblue" d="M65.8,-171.59C79.78,-190.62 113.69,-233.38 152,-257 158.65,-261.1 166.26,-264.39 173.77,-267.01"/>
</g>
<!-- Node4 -->
<g id="node4" class="node">
<title>Node4</title>
<g id="a_node4"><a xlink:href="sinex_8cpp.html#ab52fc6aa89ee3cb1c9db7c0ebff41378" target="_top" xlink:title=" ">
<polygon fill="white" stroke="black" points="169,-228.5 169,-247.5 256,-247.5 256,-228.5 169,-228.5"/>
<text text-anchor="middle" x="212.5" y="-235.5" font-family="Helvetica,sans-Serif" font-size="10.00">sinex_add_file</text>
</a>
</g>
</g>
<!-- Node1&#45;&gt;Node4 -->
<g id="edge3" class="edge">
<title>Node1&#45;&gt;Node4</title>
<path fill="none" stroke="midnightblue" d="M72.29,-171.57C89.84,-183.88 122.04,-205.28 152,-219 159.79,-222.57 168.44,-225.74 176.67,-228.43"/>
</g>
<!-- Node5 -->
<g id="node5" class="node">
<title>Node5</title>
<g id="a_node5"><a xlink:href="gTime_8cpp.html#a7a747c44ca37f2ebe379fc4309d3cfba" target="_top" xlink:title=" ">
<polygon fill="white" stroke="black" points="309,-209.5 309,-228.5 383,-228.5 383,-209.5 309,-209.5"/>
<text text-anchor="middle" x="346" y="-216.5" font-family="Helvetica,sans-Serif" font-size="10.00">time2epoch</text>
</a>
</g>
</g>
<!-- Node1&#45;&gt;Node5 -->
<g id="edge7" class="edge">
<title>Node1&#45;&gt;Node5</title>
<path fill="none" stroke="midnightblue" d="M116.01,-160.99C159.79,-161.65 221.31,-165.74 273,-181 294.42,-187.32 316.82,-200.32 330.84,-209.34"/>
</g>
<!-- Node6 -->
<g id="node6" class="node">
<title>Node6</title>
<g id="a_node6"><a xlink:href="gTime_8cpp.html#a42a98c9bc4ba5249c22e031840d672e0" target="_top" xlink:title=" ">
<polygon fill="white" stroke="black" points="311.5,-152.5 311.5,-171.5 380.5,-171.5 380.5,-152.5 311.5,-152.5"/>
<text text-anchor="middle" x="346" y="-159.5" font-family="Helvetica,sans-Serif" font-size="10.00">epoch2yds</text>
</a>
</g>
</g>
<!-- Node1&#45;&gt;Node6 -->
<g id="edge8" class="edge">
<title>Node1&#45;&gt;Node6</title>
<path fill="none" stroke="midnightblue" d="M112.94,-152.49C125.71,-150.62 139.3,-148.95 152,-148 205.63,-143.99 219.47,-142.84 273,-148 285.68,-149.22 299.43,-151.62 311.5,-154.1"/>
</g>
<!-- Node7 -->
<g id="node7" class="node">
<title>Node7</title>
<g id="a_node7"><a xlink:href="sinex_8cpp.html#a2975545eefc33699019770d5b827782b" target="_top" xlink:title=" ">
<polygon fill="white" stroke="black" points="157.5,-190.5 157.5,-209.5 267.5,-209.5 267.5,-190.5 157.5,-190.5"/>
<text text-anchor="middle" x="212.5" y="-197.5" font-family="Helvetica,sans-Serif" font-size="10.00">sinex_add_statistic</text>
</a>
</g>
</g>
<!-- Node1&#45;&gt;Node7 -->
<g id="edge6" class="edge">
<title>Node1&#45;&gt;Node7</title>
<path fill="none" stroke="midnightblue" d="M97.48,-171.59C120.69,-177.37 150.14,-184.71 173.29,-190.48"/>
</g>
<!-- Node8 -->
<g id="node8" class="node">
<title>Node8</title>
<g id="a_node8"><a xlink:href="sinex_8cpp.html#a3a182eb82bc3e7885feba85677baea2b" target="_top" xlink:title=" ">
<polygon fill="white" stroke="black" points="152,-76.5 152,-95.5 273,-95.5 273,-76.5 152,-76.5"/>
<text text-anchor="middle" x="212.5" y="-83.5" font-family="Helvetica,sans-Serif" font-size="10.00">sinex_update_header</text>
</a>
</g>
</g>
<!-- Node1&#45;&gt;Node8 -->
<g id="edge9" class="edge">
<title>Node1&#45;&gt;Node8</title>
<path fill="none" stroke="midnightblue" d="M74.8,-152.35C93.05,-141.41 124.14,-123.34 152,-110 162.85,-104.8 175.13,-99.72 185.71,-95.58"/>
</g>
<!-- Node9 -->
<g id="node9" class="node">
<title>Node9</title>
<g id="a_node9"><a xlink:href="acsConfig_8cpp.html#a75a34dc41e76a8680e3aa6d62ff4c800" target="_top" xlink:title="Replace macros for times with numeric values.">
<polygon fill="white" stroke="red" points="171.5,-38.5 171.5,-57.5 253.5,-57.5 253.5,-38.5 171.5,-38.5"/>
<text text-anchor="middle" x="212.5" y="-45.5" font-family="Helvetica,sans-Serif" font-size="10.00">replaceTimes</text>
</a>
</g>
</g>
<!-- Node1&#45;&gt;Node9 -->
<g id="edge10" class="edge">
<title>Node1&#45;&gt;Node9</title>
<path fill="none" stroke="midnightblue" d="M65.8,-152.41C79.78,-133.38 113.69,-90.62 152,-67 158.18,-63.19 165.21,-60.07 172.21,-57.54"/>
</g>
<!-- Node11 -->
<g id="node10" class="node">
<title>Node11</title>
<g id="a_node10"><a xlink:href="sinex_8cpp.html#a747f37ad26259edf174b9fa6cdf6797d" target="_top" xlink:title=" ">
<polygon fill="white" stroke="red" points="176,-0.5 176,-19.5 249,-19.5 249,-0.5 176,-0.5"/>
<text text-anchor="middle" x="212.5" y="-7.5" font-family="Helvetica,sans-Serif" font-size="10.00">write_sinex</text>
</a>
</g>
</g>
<!-- Node1&#45;&gt;Node11 -->
<g id="edge11" class="edge">
<title>Node1&#45;&gt;Node11</title>
<path fill="none" stroke="midnightblue" d="M63.07,-152.35C73.83,-127.93 105.49,-63.25 152,-29 158.98,-23.86 167.41,-20.07 175.7,-17.3"/>
</g>
<!-- Node4&#45;&gt;Node5 -->
<g id="edge4" class="edge">
<title>Node4&#45;&gt;Node5</title>
<path fill="none" stroke="midnightblue" d="M256.19,-231.83C273.14,-229.38 292.43,-226.6 308.69,-224.25"/>
</g>
<!-- Node4&#45;&gt;Node6 -->
<g id="edge5" class="edge">
<title>Node4&#45;&gt;Node6</title>
<path fill="none" stroke="midnightblue" d="M250.53,-228.46C258.17,-225.86 266.01,-222.72 273,-219 297.48,-205.96 321.95,-184.31 335.11,-171.78"/>
</g>
</g>
</svg>
