<?xml version="1.0" encoding="UTF-8" standalone="no"?>
<!DOCTYPE svg PUBLIC "-//W3C//DTD SVG 1.1//EN"
 "http://www.w3.org/Graphics/SVG/1.1/DTD/svg11.dtd">
<!-- Generated by graphviz version 2.43.0 (0)
 -->
<!-- Title: compare Pages: 1 -->
<svg width="198pt" height="142pt"
 viewBox="0.00 0.00 198.00 142.00" xmlns="http://www.w3.org/2000/svg" xmlns:xlink="http://www.w3.org/1999/xlink">
<g id="graph0" class="graph" transform="scale(1 1) rotate(0) translate(4 138)">
<title>compare</title>
<polygon fill="white" stroke="transparent" points="-4,4 -4,-138 194,-138 194,4 -4,4"/>
<!-- Node1 -->
<g id="node1" class="node">
<title>Node1</title>
<g id="a_node1"><a xlink:title=" ">
<polygon fill="#bfbfbf" stroke="black" points="131,-57.5 131,-76.5 190,-76.5 190,-57.5 131,-57.5"/>
<text text-anchor="middle" x="160.5" y="-64.5" font-family="Helvetica,sans-Serif" font-size="10.00">compare</text>
</a>
</g>
</g>
<!-- Node2 -->
<g id="node2" class="node">
<title>Node2</title>
<g id="a_node2"><a xlink:href="sinex_8cpp.html#afc514fcff96dd84fb75ef7880736f16e" target="_top" xlink:title=" ">
<polygon fill="white" stroke="black" points="18,-114.5 18,-133.5 77,-133.5 77,-114.5 18,-114.5"/>
<text text-anchor="middle" x="47.5" y="-121.5" font-family="Helvetica,sans-Serif" font-size="10.00">compare</text>
</a>
</g>
</g>
<!-- Node1&#45;&gt;Node2 -->
<g id="edge1" class="edge">
<title>Node1&#45;&gt;Node2</title>
<path fill="none" stroke="midnightblue" d="M136.16,-81.85C124.1,-89.24 109.01,-98.06 95,-105 88.28,-108.33 80.83,-111.57 73.89,-114.4"/>
<polygon fill="midnightblue" stroke="midnightblue" points="138.08,-84.79 144.72,-76.54 134.38,-78.84 138.08,-84.79"/>
</g>
<!-- Node3 -->
<g id="node3" class="node">
<title>Node3</title>
<g id="a_node3"><a xlink:href="sinex_8cpp.html#a3f2cca13329d5e8b1fe5b989b354c1fa" target="_top" xlink:title=" ">
<polygon fill="white" stroke="red" points="21,-76.5 21,-95.5 74,-95.5 74,-76.5 21,-76.5"/>
<text text-anchor="middle" x="47.5" y="-83.5" font-family="Helvetica,sans-Serif" font-size="10.00">dedupe</text>
</a>
</g>
</g>
<!-- Node1&#45;&gt;Node3 -->
<g id="edge2" class="edge">
<title>Node1&#45;&gt;Node3</title>
<path fill="none" stroke="midnightblue" d="M120.66,-73.65C105.31,-76.28 88.1,-79.22 74.33,-81.58"/>
<polygon fill="midnightblue" stroke="midnightblue" points="121.65,-77.03 130.91,-71.89 120.47,-70.13 121.65,-77.03"/>
</g>
<!-- Node10 -->
<g id="node4" class="node">
<title>Node10</title>
<g id="a_node4"><a xlink:href="sinex_8cpp.html#ab543e3364d2986ead33c6cae7a190b8d" target="_top" xlink:title=" ">
<polygon fill="white" stroke="red" points="18,-38.5 18,-57.5 77,-57.5 77,-38.5 18,-38.5"/>
<text text-anchor="middle" x="47.5" y="-45.5" font-family="Helvetica,sans-Serif" font-size="10.00">dedupeB</text>
</a>
</g>
</g>
<!-- Node1&#45;&gt;Node10 -->
<g id="edge3" class="edge">
<title>Node1&#45;&gt;Node10</title>
<path fill="none" stroke="midnightblue" d="M120.87,-60.39C106.58,-57.94 90.65,-55.21 77.37,-52.94"/>
<polygon fill="midnightblue" stroke="midnightblue" points="120.47,-63.87 130.91,-62.11 121.65,-56.97 120.47,-63.87"/>
</g>
<!-- Node11 -->
<g id="node5" class="node">
<title>Node11</title>
<g id="a_node5"><a xlink:href="structStaticField.html#a66e48a3b4553fa4d86a723fd2e9d9fc2" target="_top" xlink:title="Read the static gravity field.">
<polygon fill="white" stroke="red" points="0,-0.5 0,-19.5 95,-19.5 95,-0.5 0,-0.5"/>
<text text-anchor="middle" x="47.5" y="-7.5" font-family="Helvetica,sans-Serif" font-size="10.00">StaticField::read</text>
</a>
</g>
</g>
<!-- Node1&#45;&gt;Node11 -->
<g id="edge4" class="edge">
<title>Node1&#45;&gt;Node11</title>
<path fill="none" stroke="midnightblue" d="M136.16,-52.15C124.1,-44.76 109.01,-35.94 95,-29 88.28,-25.67 80.83,-22.43 73.89,-19.6"/>
<polygon fill="midnightblue" stroke="midnightblue" points="134.38,-55.16 144.72,-57.46 138.08,-49.21 134.38,-55.16"/>
</g>
</g>
</svg>
