<?xml version="1.0" encoding="UTF-8" standalone="no"?>
<!DOCTYPE svg PUBLIC "-//W3C//DTD SVG 1.1//EN"
 "http://www.w3.org/Graphics/SVG/1.1/DTD/svg11.dtd">
<!-- Generated by graphviz version 2.43.0 (0)
 -->
<!-- Title: write_as_comments Pages: 1 -->
<!--zoomable 1344 -->
<svg id="main" version="1.1" xmlns="http://www.w3.org/2000/svg" xmlns:xlink="http://www.w3.org/1999/xlink" xml:space="preserve" onload="init(evt)">
<style type="text/css"><![CDATA[
.edge:hover path { stroke: red; }
.edge:hover polygon { stroke: red; fill: red; }
]]></style>
<script type="text/javascript"><![CDATA[
var edges = document.getElementsByTagName('g');
if (edges && edges.length) {
  for (var i=0;i<edges.length;i++) {
    if (edges[i].id.substr(0,4)=='edge') {
      edges[i].setAttribute('class','edge');
    }
  }
}
]]></script>
        <defs>
                <circle id="rim" cx="0" cy="0" r="7"/>
                <circle id="rim2" cx="0" cy="0" r="3.5"/>
                <g id="zoomPlus">
                        <use xlink:href="#rim" fill="#404040">
                                <set attributeName="fill" to="#808080" begin="zoomplus.mouseover" end="zoomplus.mouseout"/>
                        </use>
                        <path d="M-4,0h8M0,-4v8" fill="none" stroke="white" stroke-width="1.5" pointer-events="none"/>
                </g>
                <g id="zoomMin">
                        <use xlink:href="#rim" fill="#404040">
                                <set attributeName="fill" to="#808080" begin="zoomminus.mouseover" end="zoomminus.mouseout"/>
                        </use>
                        <path d="M-4,0h8" fill="none" stroke="white" stroke-width="1.5" pointer-events="none"/>
                </g>
                <g id="dirArrow">
                        <path fill="none" stroke="white" stroke-width="1.5" d="M0,-3.0v7 M-2.5,-0.5L0,-3.0L2.5,-0.5"/>
                </g>
               <g id="resetDef">
                       <use xlink:href="#rim2" fill="#404040">
                               <set attributeName="fill" to="#808080" begin="reset.mouseover" end="reset.mouseout"/>
                       </use>
               </g>
        </defs>

<script type="text/javascript">
var viewWidth = 323;
var viewHeight = 1344;
var sectionId = 'dynsection-87';
</script>
<script xlink:href="svgpan.js"/>
<svg id="graph" class="graph">
<g id="viewport">
<title>write_as_comments</title>
<polygon fill="white" stroke="transparent" points="-4,4 -4,-1340 319,-1340 319,4 -4,4"/>
<!-- Node1 -->
<g id="node1" class="node">
<title>Node1</title>
<g id="a_node1"><a xlink:title=" ">
<polygon fill="#bfbfbf" stroke="black" points="200,-658.5 200,-677.5 315,-677.5 315,-658.5 200,-658.5"/>
<text text-anchor="middle" x="257.5" y="-665.5" font-family="Helvetica,sans-Serif" font-size="10.00">write_as_comments</text>
</a>
</g>
</g>
<!-- Node2 -->
<g id="node2" class="node">
<title>Node2</title>
<g id="a_node2"><a xlink:href="sinex_8cpp.html#a8e7803442de3991310b6f2c1ce0f81d3" target="_top" xlink:title=" ">
<polygon fill="white" stroke="black" points="25,-1316.5 25,-1335.5 139,-1335.5 139,-1316.5 25,-1316.5"/>
<text text-anchor="middle" x="82" y="-1323.5" font-family="Helvetica,sans-Serif" font-size="10.00">write_snx_satpower</text>
</a>
</g>
</g>
<!-- Node1&#45;&gt;Node2 -->
<g id="edge1" class="edge">
<title>Node1&#45;&gt;Node2</title>
<path fill="none" stroke="midnightblue" d="M256.53,-677.76C256.56,-750.66 253.2,-1209.71 164,-1307 157.36,-1314.24 148.54,-1318.97 139.15,-1322.02"/>
</g>
<!-- Node3 -->
<g id="node3" class="node">
<title>Node3</title>
<g id="a_node3"><a xlink:href="sinex_8cpp.html#ac1c61db757af3c7fc66d025203a3f3c6" target="_top" xlink:title=" ">
<polygon fill="white" stroke="black" points="25.5,-1278.5 25.5,-1297.5 138.5,-1297.5 138.5,-1278.5 25.5,-1278.5"/>
<text text-anchor="middle" x="82" y="-1285.5" font-family="Helvetica,sans-Serif" font-size="10.00">write_snx_precodes</text>
</a>
</g>
</g>
<!-- Node1&#45;&gt;Node3 -->
<g id="edge2" class="edge">
<title>Node1&#45;&gt;Node3</title>
<path fill="none" stroke="midnightblue" d="M256.44,-677.63C255.77,-747.62 248.24,-1177.95 164,-1269 157.23,-1276.32 148.23,-1281.07 138.68,-1284.11"/>
</g>
<!-- Node4 -->
<g id="node4" class="node">
<title>Node4</title>
<g id="a_node4"><a xlink:href="sinex_8cpp.html#a0259a22e3edd25dd8eabac38034cdfe1" target="_top" xlink:title=" ">
<polygon fill="white" stroke="black" points="27,-1240.5 27,-1259.5 137,-1259.5 137,-1240.5 27,-1240.5"/>
<text text-anchor="middle" x="82" y="-1247.5" font-family="Helvetica,sans-Serif" font-size="10.00">write_snx_satmass</text>
</a>
</g>
</g>
<!-- Node1&#45;&gt;Node4 -->
<g id="edge3" class="edge">
<title>Node1&#45;&gt;Node4</title>
<path fill="none" stroke="midnightblue" d="M256.32,-677.88C254.89,-746.06 243.13,-1146.33 164,-1231 156.9,-1238.6 147.38,-1243.42 137.38,-1246.44"/>
</g>
<!-- Node5 -->
<g id="node5" class="node">
<title>Node5</title>
<g id="a_node5"><a xlink:href="sinex_8cpp.html#ae6773d03f80704e51b60808bc9e0e042" target="_top" xlink:title=" ">
<polygon fill="white" stroke="black" points="25,-1202.5 25,-1221.5 139,-1221.5 139,-1202.5 25,-1202.5"/>
<text text-anchor="middle" x="82" y="-1209.5" font-family="Helvetica,sans-Serif" font-size="10.00">write_snx_satidents</text>
</a>
</g>
</g>
<!-- Node1&#45;&gt;Node5 -->
<g id="edge4" class="edge">
<title>Node1&#45;&gt;Node5</title>
<path fill="none" stroke="midnightblue" d="M256.2,-677.63C254,-742.43 238.24,-1114.49 164,-1193 157.35,-1200.03 148.63,-1204.68 139.39,-1207.72"/>
</g>
<!-- Node6 -->
<g id="node6" class="node">
<title>Node6</title>
<g id="a_node6"><a xlink:href="sinex_8cpp.html#a3f878bb7e5ae1ad5f2864fd1d9256324" target="_top" xlink:title=" ">
<polygon fill="white" stroke="black" points="33,-1164.5 33,-1183.5 131,-1183.5 131,-1164.5 33,-1164.5"/>
<text text-anchor="middle" x="82" y="-1171.5" font-family="Helvetica,sans-Serif" font-size="10.00">write_snx_satids</text>
</a>
</g>
</g>
<!-- Node1&#45;&gt;Node6 -->
<g id="edge5" class="edge">
<title>Node1&#45;&gt;Node6</title>
<path fill="none" stroke="midnightblue" d="M256.05,-677.73C253,-740.04 233.22,-1082.76 164,-1155 155.41,-1163.97 143.44,-1169.06 131.35,-1171.86"/>
</g>
<!-- Node7 -->
<g id="node7" class="node">
<title>Node7</title>
<g id="a_node7"><a xlink:href="sinex_8cpp.html#abdd382f55226944a05fe01a47169eda5" target="_top" xlink:title=" ">
<polygon fill="white" stroke="black" points="29.5,-1126.5 29.5,-1145.5 134.5,-1145.5 134.5,-1126.5 29.5,-1126.5"/>
<text text-anchor="middle" x="82" y="-1133.5" font-family="Helvetica,sans-Serif" font-size="10.00">write_snx_satprns</text>
</a>
</g>
</g>
<!-- Node1&#45;&gt;Node7 -->
<g id="edge6" class="edge">
<title>Node1&#45;&gt;Node7</title>
<path fill="none" stroke="midnightblue" d="M255.89,-677.74C251.94,-737.19 228.25,-1050.98 164,-1117 156.14,-1125.07 145.55,-1129.99 134.63,-1132.93"/>
</g>
<!-- Node8 -->
<g id="node8" class="node">
<title>Node8</title>
<g id="a_node8"><a xlink:href="sinex_8cpp.html#ae4ae94a4d91508f278d6c5c949f2c369" target="_top" xlink:title=" ">
<polygon fill="white" stroke="black" points="31.5,-1088.5 31.5,-1107.5 132.5,-1107.5 132.5,-1088.5 31.5,-1088.5"/>
<text text-anchor="middle" x="82" y="-1095.5" font-family="Helvetica,sans-Serif" font-size="10.00">write_snx_apriori</text>
</a>
</g>
</g>
<!-- Node1&#45;&gt;Node8 -->
<g id="edge7" class="edge">
<title>Node1&#45;&gt;Node8</title>
<path fill="none" stroke="midnightblue" d="M255.7,-677.64C250.81,-733.87 223.33,-1019.13 164,-1079 155.66,-1087.41 144.36,-1092.39 132.84,-1095.26"/>
</g>
<!-- Node9 -->
<g id="node9" class="node">
<title>Node9</title>
<g id="a_node9"><a xlink:href="sinex_8cpp.html#a38bbe0aab9d90069888bb5df2e9cb0b7" target="_top" xlink:title=" ">
<polygon fill="white" stroke="black" points="25.5,-1050.5 25.5,-1069.5 138.5,-1069.5 138.5,-1050.5 25.5,-1050.5"/>
<text text-anchor="middle" x="82" y="-1057.5" font-family="Helvetica,sans-Serif" font-size="10.00">write_snx_nutcodes</text>
</a>
</g>
</g>
<!-- Node1&#45;&gt;Node9 -->
<g id="edge8" class="edge">
<title>Node1&#45;&gt;Node9</title>
<path fill="none" stroke="midnightblue" d="M255.44,-677.78C249.48,-731.21 218.36,-987.33 164,-1041 157.01,-1047.9 148.02,-1052.48 138.58,-1055.47"/>
</g>
<!-- Node10 -->
<g id="node10" class="node">
<title>Node10</title>
<g id="a_node10"><a xlink:href="sinex_8cpp.html#a3454b6082cd186c9fd3ee8654c69ea2a" target="_top" xlink:title=" ">
<polygon fill="white" stroke="red" points="25,-1012.5 25,-1031.5 139,-1031.5 139,-1012.5 25,-1012.5"/>
<text text-anchor="middle" x="82" y="-1019.5" font-family="Helvetica,sans-Serif" font-size="10.00">write_snx_site_eccs</text>
</a>
</g>
</g>
<!-- Node1&#45;&gt;Node10 -->
<g id="edge9" class="edge">
<title>Node1&#45;&gt;Node10</title>
<path fill="none" stroke="midnightblue" d="M255.16,-677.76C248.06,-727.85 213.47,-955.43 164,-1003 157.13,-1009.61 148.42,-1014.07 139.27,-1017.06"/>
</g>
<!-- Node16 -->
<g id="node11" class="node">
<title>Node16</title>
<g id="a_node11"><a xlink:href="tropSinex_8cpp.html#a7aa042e01fa4d0739861d7a8e251b5a3" target="_top" xlink:title="Write TROP/DESCRIPTION block.">
<polygon fill="white" stroke="red" points="39,-974.5 39,-993.5 125,-993.5 125,-974.5 39,-974.5"/>
<text text-anchor="middle" x="82" y="-981.5" font-family="Helvetica,sans-Serif" font-size="10.00">writeTropDesc</text>
</a>
</g>
</g>
<!-- Node1&#45;&gt;Node16 -->
<g id="edge10" class="edge">
<title>Node1&#45;&gt;Node16</title>
<path fill="none" stroke="midnightblue" d="M256.68,-677.72C256.89,-719.22 251.95,-883.12 164,-965 153.53,-974.74 139.05,-979.79 125.22,-982.32"/>
</g>
<!-- Node25 -->
<g id="node12" class="node">
<title>Node25</title>
<g id="a_node12"><a xlink:href="sinex_8cpp.html#a0fc115ef3084c76c779d7f5ddb43292b" target="_top" xlink:title=" ">
<polygon fill="white" stroke="black" points="28,-936.5 28,-955.5 136,-955.5 136,-936.5 28,-936.5"/>
<text text-anchor="middle" x="82" y="-943.5" font-family="Helvetica,sans-Serif" font-size="10.00">write_snx_gps_pcs</text>
</a>
</g>
</g>
<!-- Node1&#45;&gt;Node25 -->
<g id="edge11" class="edge">
<title>Node1&#45;&gt;Node25</title>
<path fill="none" stroke="midnightblue" d="M256.19,-677.51C254.4,-715.4 242.52,-856.86 164,-927 156.24,-933.93 146.44,-938.46 136.36,-941.4"/>
</g>
<!-- Node26 -->
<g id="node13" class="node">
<title>Node26</title>
<g id="a_node13"><a xlink:href="sinex_8cpp.html#a1458a4b7867fa532e042e382fff96bf8" target="_top" xlink:title=" ">
<polygon fill="white" stroke="black" points="31.5,-898.5 31.5,-917.5 132.5,-917.5 132.5,-898.5 31.5,-898.5"/>
<text text-anchor="middle" x="82" y="-905.5" font-family="Helvetica,sans-Serif" font-size="10.00">write_snx_satecc</text>
</a>
</g>
</g>
<!-- Node1&#45;&gt;Node26 -->
<g id="edge12" class="edge">
<title>Node1&#45;&gt;Node26</title>
<path fill="none" stroke="midnightblue" d="M255.51,-677.76C251.45,-712.44 232.89,-830.69 164,-889 155.18,-896.47 143.96,-901.12 132.71,-903.99"/>
</g>
<!-- Node27 -->
<g id="node14" class="node">
<title>Node27</title>
<g id="a_node14"><a xlink:href="tropSinex_8cpp.html#a95b499a6b4b43baed944d21264eb49e4" target="_top" xlink:title="Write SITE/ANTENNA block.">
<polygon fill="white" stroke="red" points="33.5,-860.5 33.5,-879.5 130.5,-879.5 130.5,-860.5 33.5,-860.5"/>
<text text-anchor="middle" x="82" y="-867.5" font-family="Helvetica,sans-Serif" font-size="10.00">writeTropSiteAnt</text>
</a>
</g>
</g>
<!-- Node1&#45;&gt;Node27 -->
<g id="edge13" class="edge">
<title>Node1&#45;&gt;Node27</title>
<path fill="none" stroke="midnightblue" d="M254.59,-677.79C248.06,-708.56 223.59,-804.12 164,-851 154.46,-858.5 142.47,-863.13 130.65,-865.95"/>
</g>
<!-- Node28 -->
<g id="node15" class="node">
<title>Node28</title>
<g id="a_node15"><a xlink:href="sinex_8cpp.html#a7445f24115294bd327edfef1da5057c9" target="_top" xlink:title=" ">
<polygon fill="white" stroke="black" points="30,-822.5 30,-841.5 134,-841.5 134,-822.5 30,-822.5"/>
<text text-anchor="middle" x="82" y="-829.5" font-family="Helvetica,sans-Serif" font-size="10.00">write_snx_normal</text>
</a>
</g>
</g>
<!-- Node1&#45;&gt;Node28 -->
<g id="edge14" class="edge">
<title>Node1&#45;&gt;Node28</title>
<path fill="none" stroke="midnightblue" d="M253.31,-677.59C244.07,-703.81 214.67,-777.08 164,-813 155.28,-819.18 144.83,-823.38 134.39,-826.22"/>
</g>
<!-- Node29 -->
<g id="node16" class="node">
<title>Node29</title>
<g id="a_node16"><a xlink:href="sinex_8cpp.html#a5ac5f69c01a5faf33ca4cd299ec458e5" target="_top" xlink:title=" ">
<polygon fill="white" stroke="red" points="23,-773 23,-803 141,-803 141,-773 23,-773"/>
<text text-anchor="start" x="31" y="-791" font-family="Helvetica,sans-Serif" font-size="10.00">write_snx_estimates</text>
<text text-anchor="middle" x="82" y="-780" font-family="Helvetica,sans-Serif" font-size="10.00">_from_filter</text>
</a>
</g>
</g>
<!-- Node1&#45;&gt;Node29 -->
<g id="edge15" class="edge">
<title>Node1&#45;&gt;Node29</title>
<path fill="none" stroke="midnightblue" d="M249.77,-677.62C235.92,-696.72 202.29,-739.57 164,-763 156.97,-767.3 149.14,-770.92 141.2,-773.94"/>
</g>
<!-- Node30 -->
<g id="node17" class="node">
<title>Node30</title>
<g id="a_node17"><a xlink:href="sinex_8cpp.html#a4f10fce58e14cd54d5dacf3b6c0d3199" target="_top" xlink:title=" ">
<polygon fill="white" stroke="red" points="15.5,-734.5 15.5,-753.5 148.5,-753.5 148.5,-734.5 15.5,-734.5"/>
<text text-anchor="middle" x="82" y="-741.5" font-family="Helvetica,sans-Serif" font-size="10.00">write_snx_input_history</text>
</a>
</g>
</g>
<!-- Node1&#45;&gt;Node30 -->
<g id="edge16" class="edge">
<title>Node1&#45;&gt;Node30</title>
<path fill="none" stroke="midnightblue" d="M244.04,-677.51C226.9,-690.14 194.69,-712.34 164,-725 154.79,-728.8 144.66,-731.93 134.77,-734.48"/>
</g>
<!-- Node31 -->
<g id="node18" class="node">
<title>Node31</title>
<g id="a_node18"><a xlink:href="sinex_8cpp.html#a1c4b9b3a6798a206a32de94a5bd7bac0" target="_top" xlink:title=" ">
<polygon fill="white" stroke="red" points="22,-696.5 22,-715.5 142,-715.5 142,-696.5 22,-696.5"/>
<text text-anchor="middle" x="82" y="-703.5" font-family="Helvetica,sans-Serif" font-size="10.00">write_snx_input_files</text>
</a>
</g>
</g>
<!-- Node1&#45;&gt;Node31 -->
<g id="edge17" class="edge">
<title>Node1&#45;&gt;Node31</title>
<path fill="none" stroke="midnightblue" d="M212.72,-677.59C186.32,-683.37 152.81,-690.71 126.47,-696.48"/>
</g>
<!-- Node32 -->
<g id="node19" class="node">
<title>Node32</title>
<g id="a_node19"><a xlink:href="sinex_8cpp.html#a4b7276efeee70593a07b8c2afa27de60" target="_top" xlink:title=" ">
<polygon fill="white" stroke="black" points="30,-658.5 30,-677.5 134,-677.5 134,-658.5 30,-658.5"/>
<text text-anchor="middle" x="82" y="-665.5" font-family="Helvetica,sans-Serif" font-size="10.00">write_snx_epochs</text>
</a>
</g>
</g>
<!-- Node1&#45;&gt;Node32 -->
<g id="edge18" class="edge">
<title>Node1&#45;&gt;Node32</title>
<path fill="none" stroke="midnightblue" d="M199.69,-668C178.54,-668 154.69,-668 134.08,-668"/>
</g>
<!-- Node33 -->
<g id="node20" class="node">
<title>Node33</title>
<g id="a_node20"><a xlink:href="sinex_8cpp.html#abfc552a17b3fc10aa69c8ea9fde1d1be" target="_top" xlink:title=" ">
<polygon fill="white" stroke="red" points="26,-609 26,-639 138,-639 138,-609 26,-609"/>
<text text-anchor="start" x="34" y="-627" font-family="Helvetica,sans-Serif" font-size="10.00">write_snx_matrices</text>
<text text-anchor="middle" x="82" y="-616" font-family="Helvetica,sans-Serif" font-size="10.00">_from_filter</text>
</a>
</g>
</g>
<!-- Node1&#45;&gt;Node33 -->
<g id="edge19" class="edge">
<title>Node1&#45;&gt;Node33</title>
<path fill="none" stroke="midnightblue" d="M218.85,-658.45C195.23,-652.46 164.37,-644.64 138.03,-637.96"/>
</g>
<!-- Node34 -->
<g id="node21" class="node">
<title>Node34</title>
<g id="a_node21"><a xlink:href="sinex_8cpp.html#a8a8e54c1e55d6668fc13725d1f769a59" target="_top" xlink:title=" ">
<polygon fill="white" stroke="red" points="0,-570.5 0,-589.5 164,-589.5 164,-570.5 0,-570.5"/>
<text text-anchor="middle" x="82" y="-577.5" font-family="Helvetica,sans-Serif" font-size="10.00">write_snx_acknowledgements</text>
</a>
</g>
</g>
<!-- Node1&#45;&gt;Node34 -->
<g id="edge20" class="edge">
<title>Node1&#45;&gt;Node34</title>
<path fill="none" stroke="midnightblue" d="M246.28,-658.34C230.11,-643.57 197.03,-615.47 164,-600 154.82,-595.7 144.6,-592.26 134.6,-589.52"/>
</g>
<!-- Node35 -->
<g id="node22" class="node">
<title>Node35</title>
<g id="a_node22"><a xlink:href="sinex_8cpp.html#aa58f653aeaa546b0dc1fe6f2238dd003" target="_top" xlink:title=" ">
<polygon fill="white" stroke="red" points="31.5,-532.5 31.5,-551.5 132.5,-551.5 132.5,-532.5 31.5,-532.5"/>
<text text-anchor="middle" x="82" y="-539.5" font-family="Helvetica,sans-Serif" font-size="10.00">write_snx_siteids</text>
</a>
</g>
</g>
<!-- Node1&#45;&gt;Node35 -->
<g id="edge21" class="edge">
<title>Node1&#45;&gt;Node35</title>
<path fill="none" stroke="midnightblue" d="M251,-658.21C238.51,-636.92 205.81,-586.3 164,-561 154.61,-555.32 143.65,-551.33 132.89,-548.54"/>
</g>
<!-- Node36 -->
<g id="node23" class="node">
<title>Node36</title>
<g id="a_node23"><a xlink:href="sinex_8cpp.html#a803b56233f48ed729a57ac0ad056ae69" target="_top" xlink:title=" ">
<polygon fill="white" stroke="black" points="34.5,-494.5 34.5,-513.5 129.5,-513.5 129.5,-494.5 34.5,-494.5"/>
<text text-anchor="middle" x="82" y="-501.5" font-family="Helvetica,sans-Serif" font-size="10.00">write_snx_satpc</text>
</a>
</g>
</g>
<!-- Node1&#45;&gt;Node36 -->
<g id="edge22" class="edge">
<title>Node1&#45;&gt;Node36</title>
<path fill="none" stroke="midnightblue" d="M253.31,-658.41C244.07,-632.19 214.67,-558.92 164,-523 153.98,-515.9 141.69,-511.42 129.73,-508.6"/>
</g>
<!-- Node37 -->
<g id="node24" class="node">
<title>Node37</title>
<g id="a_node24"><a xlink:href="sinex_8cpp.html#a94f5f6ad2be171cbc714245f57fb5f12" target="_top" xlink:title=" ">
<polygon fill="white" stroke="black" points="21.5,-456.5 21.5,-475.5 142.5,-475.5 142.5,-456.5 21.5,-456.5"/>
<text text-anchor="middle" x="82" y="-463.5" font-family="Helvetica,sans-Serif" font-size="10.00">write_snx_satfreqchn</text>
</a>
</g>
</g>
<!-- Node1&#45;&gt;Node37 -->
<g id="edge23" class="edge">
<title>Node1&#45;&gt;Node37</title>
<path fill="none" stroke="midnightblue" d="M254.59,-658.21C248.06,-627.44 223.59,-531.88 164,-485 157.76,-480.09 150.46,-476.41 142.84,-473.66"/>
</g>
<!-- Node38 -->
<g id="node25" class="node">
<title>Node38</title>
<g id="a_node25"><a xlink:href="sinex_8cpp.html#ace311021db68268a6e9ca3cc03afb1df" target="_top" xlink:title=" ">
<polygon fill="white" stroke="red" points="25,-418.5 25,-437.5 139,-437.5 139,-418.5 25,-418.5"/>
<text text-anchor="middle" x="82" y="-425.5" font-family="Helvetica,sans-Serif" font-size="10.00">write_snx_receivers</text>
</a>
</g>
</g>
<!-- Node1&#45;&gt;Node38 -->
<g id="edge24" class="edge">
<title>Node1&#45;&gt;Node38</title>
<path fill="none" stroke="midnightblue" d="M255.51,-658.24C251.45,-623.56 232.89,-505.31 164,-447 156.83,-440.93 148.08,-436.72 139.02,-433.82"/>
</g>
<!-- Node39 -->
<g id="node26" class="node">
<title>Node39</title>
<g id="a_node26"><a xlink:href="sinex_8cpp.html#ac979e7ea829f358469090a53ca769c3a" target="_top" xlink:title=" ">
<polygon fill="white" stroke="black" points="25.5,-380.5 25.5,-399.5 138.5,-399.5 138.5,-380.5 25.5,-380.5"/>
<text text-anchor="middle" x="82" y="-387.5" font-family="Helvetica,sans-Serif" font-size="10.00">write_snx_statistics</text>
</a>
</g>
</g>
<!-- Node1&#45;&gt;Node39 -->
<g id="edge25" class="edge">
<title>Node1&#45;&gt;Node39</title>
<path fill="none" stroke="midnightblue" d="M256.19,-658.49C254.4,-620.6 242.52,-479.14 164,-409 156.89,-402.65 148.06,-398.31 138.88,-395.37"/>
</g>
<!-- Node40 -->
<g id="node27" class="node">
<title>Node40</title>
<g id="a_node27"><a xlink:href="sinex_8cpp.html#a24d2291dbda611cc6793130d367da756" target="_top" xlink:title=" ">
<polygon fill="white" stroke="black" points="29.5,-342.5 29.5,-361.5 134.5,-361.5 134.5,-342.5 29.5,-342.5"/>
<text text-anchor="middle" x="82" y="-349.5" font-family="Helvetica,sans-Serif" font-size="10.00">write_snx_satcom</text>
</a>
</g>
</g>
<!-- Node1&#45;&gt;Node40 -->
<g id="edge26" class="edge">
<title>Node1&#45;&gt;Node40</title>
<path fill="none" stroke="midnightblue" d="M256.68,-658.28C256.89,-616.78 251.95,-452.88 164,-371 155.97,-363.52 145.56,-358.81 134.9,-355.88"/>
</g>
<!-- Node41 -->
<g id="node28" class="node">
<title>Node41</title>
<g id="a_node28"><a xlink:href="sinex_8cpp.html#a019cbce20a266857a1bdc10a1507bf27" target="_top" xlink:title=" ">
<polygon fill="white" stroke="black" points="27.5,-304.5 27.5,-323.5 136.5,-323.5 136.5,-304.5 27.5,-304.5"/>
<text text-anchor="middle" x="82" y="-311.5" font-family="Helvetica,sans-Serif" font-size="10.00">write_snx_sitedata</text>
</a>
</g>
</g>
<!-- Node1&#45;&gt;Node41 -->
<g id="edge27" class="edge">
<title>Node1&#45;&gt;Node41</title>
<path fill="none" stroke="midnightblue" d="M255.16,-658.24C248.06,-608.15 213.47,-380.57 164,-333 156.5,-325.79 146.82,-321.13 136.77,-318.16"/>
</g>
<!-- Node42 -->
<g id="node29" class="node">
<title>Node42</title>
<g id="a_node29"><a xlink:href="tropSinex_8cpp.html#a984ea12e38f91b4a1121ae68863bd5ed" target="_top" xlink:title="Write SITE/ECCENTRICITY block.">
<polygon fill="white" stroke="red" points="33.5,-266.5 33.5,-285.5 130.5,-285.5 130.5,-266.5 33.5,-266.5"/>
<text text-anchor="middle" x="82" y="-273.5" font-family="Helvetica,sans-Serif" font-size="10.00">writeTropSiteEcc</text>
</a>
</g>
</g>
<!-- Node1&#45;&gt;Node42 -->
<g id="edge28" class="edge">
<title>Node1&#45;&gt;Node42</title>
<path fill="none" stroke="midnightblue" d="M255.44,-658.22C249.48,-604.79 218.36,-348.67 164,-295 155.06,-286.17 142.84,-281.15 130.6,-278.36"/>
</g>
<!-- Node43 -->
<g id="node30" class="node">
<title>Node43</title>
<g id="a_node30"><a xlink:href="sinex_8cpp.html#ac59f62e8e5c1a5fd193117d4b07239b9" target="_top" xlink:title=" ">
<polygon fill="white" stroke="black" points="24,-228.5 24,-247.5 140,-247.5 140,-228.5 24,-228.5"/>
<text text-anchor="middle" x="82" y="-235.5" font-family="Helvetica,sans-Serif" font-size="10.00">write_snx_sourceids</text>
</a>
</g>
</g>
<!-- Node1&#45;&gt;Node43 -->
<g id="edge29" class="edge">
<title>Node1&#45;&gt;Node43</title>
<path fill="none" stroke="midnightblue" d="M255.7,-658.36C250.81,-602.13 223.33,-316.87 164,-257 157.49,-250.43 149.18,-245.96 140.36,-242.95"/>
</g>
<!-- Node44 -->
<g id="node31" class="node">
<title>Node44</title>
<g id="a_node31"><a xlink:href="sinex_8cpp.html#a0c4d36ba13234456bf25cedd4ca6c20b" target="_top" xlink:title=" ">
<polygon fill="white" stroke="red" points="25,-190.5 25,-209.5 139,-209.5 139,-190.5 25,-190.5"/>
<text text-anchor="middle" x="82" y="-197.5" font-family="Helvetica,sans-Serif" font-size="10.00">write_snx_antennas</text>
</a>
</g>
</g>
<!-- Node1&#45;&gt;Node44 -->
<g id="edge30" class="edge">
<title>Node1&#45;&gt;Node44</title>
<path fill="none" stroke="midnightblue" d="M255.89,-658.26C251.94,-598.81 228.25,-285.02 164,-219 157.25,-212.06 148.49,-207.46 139.22,-204.44"/>
</g>
<!-- Node45 -->
<g id="node32" class="node">
<title>Node45</title>
<g id="a_node32"><a xlink:href="sinex_8cpp.html#abd03bbf12bfd4f5ff5fa9deaadfd3fd5" target="_top" xlink:title=" ">
<polygon fill="white" stroke="black" points="29,-152.5 29,-171.5 135,-171.5 135,-152.5 29,-152.5"/>
<text text-anchor="middle" x="82" y="-159.5" font-family="Helvetica,sans-Serif" font-size="10.00">write_snx_gal_pcs</text>
</a>
</g>
</g>
<!-- Node1&#45;&gt;Node45 -->
<g id="edge31" class="edge">
<title>Node1&#45;&gt;Node45</title>
<path fill="none" stroke="midnightblue" d="M256.05,-658.27C253,-595.96 233.22,-253.24 164,-181 156.31,-172.97 145.91,-168.05 135.14,-165.1"/>
</g>
<!-- Node46 -->
<g id="node33" class="node">
<title>Node46</title>
<g id="a_node33"><a xlink:href="tropSinex_8cpp.html#a2fb8fe8aceac5caf6ff006e3bd6635d4" target="_top" xlink:title="Write SITE/ID block.">
<polygon fill="white" stroke="red" points="37.5,-114.5 37.5,-133.5 126.5,-133.5 126.5,-114.5 37.5,-114.5"/>
<text text-anchor="middle" x="82" y="-121.5" font-family="Helvetica,sans-Serif" font-size="10.00">writeTropSiteId</text>
</a>
</g>
</g>
<!-- Node1&#45;&gt;Node46 -->
<g id="edge32" class="edge">
<title>Node1&#45;&gt;Node46</title>
<path fill="none" stroke="midnightblue" d="M256.2,-658.37C254,-593.57 238.24,-221.51 164,-143 154.37,-132.82 140.41,-127.63 126.79,-125.1"/>
</g>
<!-- Node47 -->
<g id="node34" class="node">
<title>Node47</title>
<g id="a_node34"><a xlink:href="tropSinex_8cpp.html#a8f7ac3f551700a176752a2dc3bb708b5" target="_top" xlink:title="Write SITE/RECEIVER block.">
<polygon fill="white" stroke="red" points="33,-76.5 33,-95.5 131,-95.5 131,-76.5 33,-76.5"/>
<text text-anchor="middle" x="82" y="-83.5" font-family="Helvetica,sans-Serif" font-size="10.00">writeTropSiteRec</text>
</a>
</g>
</g>
<!-- Node1&#45;&gt;Node47 -->
<g id="edge33" class="edge">
<title>Node1&#45;&gt;Node47</title>
<path fill="none" stroke="midnightblue" d="M256.32,-658.12C254.89,-589.94 243.13,-189.67 164,-105 155.42,-95.82 143.32,-90.68 131.07,-87.91"/>
</g>
<!-- Node48 -->
<g id="node35" class="node">
<title>Node48</title>
<g id="a_node35"><a xlink:href="tropSinex_8cpp.html#a124674fc9fc84e524c55903dd04b4f10" target="_top" xlink:title="Write SITE/COORDINATES block.">
<polygon fill="white" stroke="red" points="27.5,-38.5 27.5,-57.5 136.5,-57.5 136.5,-38.5 27.5,-38.5"/>
<text text-anchor="middle" x="82" y="-45.5" font-family="Helvetica,sans-Serif" font-size="10.00">writeTropSiteCoord</text>
</a>
</g>
</g>
<!-- Node1&#45;&gt;Node48 -->
<g id="edge34" class="edge">
<title>Node1&#45;&gt;Node48</title>
<path fill="none" stroke="midnightblue" d="M256.44,-658.37C255.77,-588.38 248.24,-158.05 164,-67 156.74,-59.15 146.91,-54.26 136.6,-51.26"/>
</g>
<!-- Node49 -->
<g id="node36" class="node">
<title>Node49</title>
<g id="a_node36"><a xlink:href="tropSinex_8cpp.html#aabae1c55df6cb4855fb3706b498e4e28" target="_top" xlink:title="Write TROP/SOLUTION block.">
<polygon fill="white" stroke="red" points="43.5,-0.5 43.5,-19.5 120.5,-19.5 120.5,-0.5 43.5,-0.5"/>
<text text-anchor="middle" x="82" y="-7.5" font-family="Helvetica,sans-Serif" font-size="10.00">writeTropSol</text>
</a>
</g>
</g>
<!-- Node1&#45;&gt;Node49 -->
<g id="edge35" class="edge">
<title>Node1&#45;&gt;Node49</title>
<path fill="none" stroke="midnightblue" d="M256.53,-658.24C256.56,-585.34 253.2,-126.29 164,-29 153.07,-17.08 136.2,-11.95 120.68,-9.95"/>
</g>
</g>
</svg>
        <g id="navigator" transform="translate(0 0)" fill="#404254">
                <rect fill="#f2f5e9" fill-opacity="0.5" stroke="#606060" stroke-width=".5" x="0" y="0" width="60" height="60"/>
                <use id="zoomplus" xlink:href="#zoomPlus" x="17" y="9" onmousedown="handleZoom(evt,'in')"/>
                <use id="zoomminus" xlink:href="#zoomMin" x="42" y="9" onmousedown="handleZoom(evt,'out')"/>
                <use id="reset" xlink:href="#resetDef" x="30" y="36" onmousedown="handleReset()"/>
                <g id="arrowUp" xlink:href="#dirArrow" transform="translate(30 24)" onmousedown="handlePan(0,-1)">
                  <use xlink:href="#rim" fill="#404040">
                        <set attributeName="fill" to="#808080" begin="arrowUp.mouseover" end="arrowUp.mouseout"/>
                  </use>
                  <path fill="none" stroke="white" stroke-width="1.5" d="M0,-3.0v7 M-2.5,-0.5L0,-3.0L2.5,-0.5"/>
                </g>
                <g id="arrowRight" xlink:href="#dirArrow" transform="rotate(90) translate(36 -43)" onmousedown="handlePan(1,0)">
                  <use xlink:href="#rim" fill="#404040">
                        <set attributeName="fill" to="#808080" begin="arrowRight.mouseover" end="arrowRight.mouseout"/>
                  </use>
                  <path fill="none" stroke="white" stroke-width="1.5" d="M0,-3.0v7 M-2.5,-0.5L0,-3.0L2.5,-0.5"/>
                </g>
                <g id="arrowDown" xlink:href="#dirArrow" transform="rotate(180) translate(-30 -48)" onmousedown="handlePan(0,1)">
                  <use xlink:href="#rim" fill="#404040">
                        <set attributeName="fill" to="#808080" begin="arrowDown.mouseover" end="arrowDown.mouseout"/>
                  </use>
                  <path fill="none" stroke="white" stroke-width="1.5" d="M0,-3.0v7 M-2.5,-0.5L0,-3.0L2.5,-0.5"/>
                </g>
                <g id="arrowLeft" xlink:href="#dirArrow" transform="rotate(270) translate(-36 17)" onmousedown="handlePan(-1,0)">
                  <use xlink:href="#rim" fill="#404040">
                        <set attributeName="fill" to="#808080" begin="arrowLeft.mouseover" end="arrowLeft.mouseout"/>
                  </use>
                  <path fill="none" stroke="white" stroke-width="1.5" d="M0,-3.0v7 M-2.5,-0.5L0,-3.0L2.5,-0.5"/>
                </g>
        </g>
        <svg viewBox="0 0 15 15" width="100%" height="30px" preserveAspectRatio="xMaxYMin meet">
         <g id="arrow_out" transform="scale(0.3 0.3)">
          <a xlink:href="sinex_8cpp_a35435dacdc5df53aa3357b64931ae2d6_icgraph_org.svg" target="_base">
           <rect id="button" ry="5" rx="5" y="6" x="6" height="38" width="38"
                fill="#f2f5e9" fill-opacity="0.5" stroke="#606060" stroke-width="1.0"/>
           <path id="arrow"
             d="M 11.500037,31.436501 C 11.940474,20.09759 22.043105,11.32322 32.158766,21.979434 L 37.068811,17.246167 C 37.068811,17.246167 37.088388,32 37.088388,32 L 22.160133,31.978069 C 22.160133,31.978069 26.997745,27.140456 26.997745,27.140456 C 18.528582,18.264221 13.291696,25.230495 11.500037,31.436501 z"
             style="fill:#404040;"/>
          </a>
         </g>
        </svg>
</svg>
