<?xml version="1.0" encoding="UTF-8" standalone="no"?>
<!DOCTYPE svg PUBLIC "-//W3C//DTD SVG 1.1//EN"
 "http://www.w3.org/Graphics/SVG/1.1/DTD/svg11.dtd">
<!-- Generated by graphviz version 2.43.0 (0)
 -->
<!-- Title: write_as_comments Pages: 1 -->
<!--zoomable 1394 -->
<svg id="main" version="1.1" xmlns="http://www.w3.org/2000/svg" xmlns:xlink="http://www.w3.org/1999/xlink" xml:space="preserve" onload="init(evt)">
<style type="text/css"><![CDATA[
.edge:hover path { stroke: red; }
.edge:hover polygon { stroke: red; fill: red; }
]]></style>
<script type="text/javascript"><![CDATA[
var edges = document.getElementsByTagName('g');
if (edges && edges.length) {
  for (var i=0;i<edges.length;i++) {
    if (edges[i].id.substr(0,4)=='edge') {
      edges[i].setAttribute('class','edge');
    }
  }
}
]]></script>
        <defs>
                <circle id="rim" cx="0" cy="0" r="7"/>
                <circle id="rim2" cx="0" cy="0" r="3.5"/>
                <g id="zoomPlus">
                        <use xlink:href="#rim" fill="#404040">
                                <set attributeName="fill" to="#808080" begin="zoomplus.mouseover" end="zoomplus.mouseout"/>
                        </use>
                        <path d="M-4,0h8M0,-4v8" fill="none" stroke="white" stroke-width="1.5" pointer-events="none"/>
                </g>
                <g id="zoomMin">
                        <use xlink:href="#rim" fill="#404040">
                                <set attributeName="fill" to="#808080" begin="zoomminus.mouseover" end="zoomminus.mouseout"/>
                        </use>
                        <path d="M-4,0h8" fill="none" stroke="white" stroke-width="1.5" pointer-events="none"/>
                </g>
                <g id="dirArrow">
                        <path fill="none" stroke="white" stroke-width="1.5" d="M0,-3.0v7 M-2.5,-0.5L0,-3.0L2.5,-0.5"/>
                </g>
               <g id="resetDef">
                       <use xlink:href="#rim2" fill="#404040">
                               <set attributeName="fill" to="#808080" begin="reset.mouseover" end="reset.mouseout"/>
                       </use>
               </g>
        </defs>

<script type="text/javascript">
var viewWidth = 323;
var viewHeight = 1394;
var sectionId = 'dynsection-24';
</script>
<script xlink:href="svgpan.js"/>
<svg id="graph" class="graph">
<g id="viewport">
<title>write_as_comments</title>
<polygon fill="white" stroke="transparent" points="-4,4 -4,-1390 319,-1390 319,4 -4,4"/>
<!-- Node1 -->
<g id="node1" class="node">
<title>Node1</title>
<g id="a_node1"><a xlink:title=" ">
<polygon fill="#bfbfbf" stroke="black" points="200,-668.5 200,-687.5 315,-687.5 315,-668.5 200,-668.5"/>
<text text-anchor="middle" x="257.5" y="-675.5" font-family="Helvetica,sans-Serif" font-size="10.00">write_as_comments</text>
</a>
</g>
</g>
<!-- Node2 -->
<g id="node2" class="node">
<title>Node2</title>
<g id="a_node2"><a xlink:href="sinex_8cpp.html#ac12e00eb81f639e02e197dc87feb3009" target="_top" xlink:title=" ">
<polygon fill="white" stroke="black" points="25,-1366.5 25,-1385.5 139,-1385.5 139,-1366.5 25,-1366.5"/>
<text text-anchor="middle" x="82" y="-1373.5" font-family="Helvetica,sans-Serif" font-size="10.00">write_snx_satidents</text>
</a>
</g>
</g>
<!-- Node1&#45;&gt;Node2 -->
<g id="edge1" class="edge">
<title>Node1&#45;&gt;Node2</title>
<path fill="none" stroke="midnightblue" d="M256.7,-697.99C257.32,-799.51 254.94,-1256.99 164,-1357 157.39,-1364.27 148.58,-1369.01 139.2,-1372.07"/>
<polygon fill="midnightblue" stroke="midnightblue" points="260.2,-697.86 256.62,-687.88 253.2,-697.91 260.2,-697.86"/>
</g>
<!-- Node3 -->
<g id="node3" class="node">
<title>Node3</title>
<g id="a_node3"><a xlink:href="sinex_8cpp.html#a96f1e8fcd87edd6cd0db5b524ebd918a" target="_top" xlink:title=" ">
<polygon fill="white" stroke="black" points="33,-1328.5 33,-1347.5 131,-1347.5 131,-1328.5 33,-1328.5"/>
<text text-anchor="middle" x="82" y="-1335.5" font-family="Helvetica,sans-Serif" font-size="10.00">write_snx_satids</text>
</a>
</g>
</g>
<!-- Node1&#45;&gt;Node3 -->
<g id="edge2" class="edge">
<title>Node1&#45;&gt;Node3</title>
<path fill="none" stroke="midnightblue" d="M256.52,-698.09C256.23,-796.34 249.96,-1225.21 164,-1319 155.51,-1328.26 143.43,-1333.43 131.19,-1336.2"/>
<polygon fill="midnightblue" stroke="midnightblue" points="260.03,-697.8 256.54,-687.8 253.03,-697.79 260.03,-697.8"/>
</g>
<!-- Node4 -->
<g id="node4" class="node">
<title>Node4</title>
<g id="a_node4"><a xlink:href="sinex_8cpp.html#a9f91c35c2dd36e410f2ad2c411e04e9c" target="_top" xlink:title=" ">
<polygon fill="white" stroke="black" points="29.5,-1290.5 29.5,-1309.5 134.5,-1309.5 134.5,-1290.5 29.5,-1290.5"/>
<text text-anchor="middle" x="82" y="-1297.5" font-family="Helvetica,sans-Serif" font-size="10.00">write_snx_satprns</text>
</a>
</g>
</g>
<!-- Node1&#45;&gt;Node4 -->
<g id="edge3" class="edge">
<title>Node1&#45;&gt;Node4</title>
<path fill="none" stroke="midnightblue" d="M256.33,-697.79C255.1,-791.91 245.11,-1193.29 164,-1281 156.25,-1289.38 145.57,-1294.39 134.51,-1297.33"/>
<polygon fill="midnightblue" stroke="midnightblue" points="259.83,-697.7 256.44,-687.66 252.83,-697.62 259.83,-697.7"/>
</g>
<!-- Node5 -->
<g id="node5" class="node">
<title>Node5</title>
<g id="a_node5"><a xlink:href="sinex_8cpp.html#a9ce570ecfb4041a8012b6631d9f0df99" target="_top" xlink:title=" ">
<polygon fill="white" stroke="black" points="31.5,-1252.5 31.5,-1271.5 132.5,-1271.5 132.5,-1252.5 31.5,-1252.5"/>
<text text-anchor="middle" x="82" y="-1259.5" font-family="Helvetica,sans-Serif" font-size="10.00">write_snx_apriori</text>
</a>
</g>
</g>
<!-- Node1&#45;&gt;Node5 -->
<g id="edge4" class="edge">
<title>Node1&#45;&gt;Node5</title>
<path fill="none" stroke="midnightblue" d="M256.1,-697.97C253.87,-788.75 240.13,-1161.5 164,-1243 155.82,-1251.76 144.42,-1256.84 132.77,-1259.7"/>
<polygon fill="midnightblue" stroke="midnightblue" points="259.6,-697.99 256.33,-687.92 252.6,-697.84 259.6,-697.99"/>
</g>
<!-- Node6 -->
<g id="node6" class="node">
<title>Node6</title>
<g id="a_node6"><a xlink:href="sinex_8cpp.html#ab36379506a818c6c58247214c23a35a1" target="_top" xlink:title=" ">
<polygon fill="white" stroke="black" points="25.5,-1214.5 25.5,-1233.5 138.5,-1233.5 138.5,-1214.5 25.5,-1214.5"/>
<text text-anchor="middle" x="82" y="-1221.5" font-family="Helvetica,sans-Serif" font-size="10.00">write_snx_nutcodes</text>
</a>
</g>
</g>
<!-- Node1&#45;&gt;Node6 -->
<g id="edge5" class="edge">
<title>Node1&#45;&gt;Node6</title>
<path fill="none" stroke="midnightblue" d="M255.85,-697.71C252.6,-784.26 235.28,-1129.56 164,-1205 157.16,-1212.24 148.12,-1216.96 138.56,-1219.99"/>
<polygon fill="midnightblue" stroke="midnightblue" points="259.35,-697.79 256.21,-687.67 252.36,-697.54 259.35,-697.79"/>
</g>
<!-- Node7 -->
<g id="node7" class="node">
<title>Node7</title>
<g id="a_node7"><a xlink:href="sinex_8cpp.html#a631dbc20e6ddc3a5446d21ee2a232409" target="_top" xlink:title=" ">
<polygon fill="white" stroke="red" points="25,-1176.5 25,-1195.5 139,-1195.5 139,-1176.5 25,-1176.5"/>
<text text-anchor="middle" x="82" y="-1183.5" font-family="Helvetica,sans-Serif" font-size="10.00">write_snx_site_eccs</text>
</a>
</g>
</g>
<!-- Node1&#45;&gt;Node7 -->
<g id="edge6" class="edge">
<title>Node1&#45;&gt;Node7</title>
<path fill="none" stroke="midnightblue" d="M255.55,-697.86C251.19,-780.71 230.34,-1097.71 164,-1167 157.31,-1173.99 148.57,-1178.62 139.32,-1181.65"/>
<polygon fill="midnightblue" stroke="midnightblue" points="259.05,-697.94 256.06,-687.77 252.06,-697.58 259.05,-697.94"/>
</g>
<!-- Node13 -->
<g id="node8" class="node">
<title>Node13</title>
<g id="a_node8"><a xlink:href="sinex_8cpp.html#ab40dd2056bce208306997aba3f7f463d" target="_top" xlink:title=" ">
<polygon fill="white" stroke="black" points="31.5,-1138.5 31.5,-1157.5 132.5,-1157.5 132.5,-1138.5 31.5,-1138.5"/>
<text text-anchor="middle" x="82" y="-1145.5" font-family="Helvetica,sans-Serif" font-size="10.00">write_snx_satecc</text>
</a>
</g>
</g>
<!-- Node1&#45;&gt;Node13 -->
<g id="edge7" class="edge">
<title>Node1&#45;&gt;Node13</title>
<path fill="none" stroke="midnightblue" d="M255.21,-697.81C249.69,-776.5 225.47,-1065.78 164,-1129 155.64,-1137.6 144.19,-1142.61 132.53,-1145.47"/>
<polygon fill="midnightblue" stroke="midnightblue" points="258.71,-697.99 255.89,-687.78 251.72,-697.52 258.71,-697.99"/>
</g>
<!-- Node14 -->
<g id="node9" class="node">
<title>Node14</title>
<g id="a_node9"><a xlink:href="tropSinex_8cpp.html#ab96eace990c2340bc8e70036b29120c5" target="_top" xlink:title="Write SITE/ANTENNA block.">
<polygon fill="white" stroke="red" points="33.5,-1100.5 33.5,-1119.5 130.5,-1119.5 130.5,-1100.5 33.5,-1100.5"/>
<text text-anchor="middle" x="82" y="-1107.5" font-family="Helvetica,sans-Serif" font-size="10.00">writeTropSiteAnt</text>
</a>
</g>
</g>
<!-- Node1&#45;&gt;Node14 -->
<g id="edge8" class="edge">
<title>Node1&#45;&gt;Node14</title>
<path fill="none" stroke="midnightblue" d="M254.79,-698.01C248.01,-772.72 220.55,-1033.88 164,-1091 155.16,-1099.93 142.97,-1104.99 130.73,-1107.77"/>
<polygon fill="midnightblue" stroke="midnightblue" points="258.31,-697.96 255.7,-687.69 251.34,-697.34 258.31,-697.96"/>
</g>
<!-- Node22 -->
<g id="node10" class="node">
<title>Node22</title>
<g id="a_node10"><a xlink:href="sinex_8cpp.html#af6836aeb8ee0219716ae7899ab7b9fb4" target="_top" xlink:title=" ">
<polygon fill="white" stroke="black" points="30,-1062.5 30,-1081.5 134,-1081.5 134,-1062.5 30,-1062.5"/>
<text text-anchor="middle" x="82" y="-1069.5" font-family="Helvetica,sans-Serif" font-size="10.00">write_snx_normal</text>
</a>
</g>
</g>
<!-- Node1&#45;&gt;Node22 -->
<g id="edge9" class="edge">
<title>Node1&#45;&gt;Node22</title>
<path fill="none" stroke="midnightblue" d="M254.31,-697.97C246.21,-768.13 215.72,-1001.87 164,-1053 155.99,-1060.92 145.34,-1065.78 134.4,-1068.71"/>
<polygon fill="midnightblue" stroke="midnightblue" points="257.81,-698.16 255.45,-687.83 250.85,-697.38 257.81,-698.16"/>
</g>
<!-- Node23 -->
<g id="node11" class="node">
<title>Node23</title>
<g id="a_node11"><a xlink:href="sinex_8cpp.html#a8cebaa47b4e2e28bcb8464f42fc9e3b6" target="_top" xlink:title=" ">
<polygon fill="white" stroke="black" points="25,-1024.5 25,-1043.5 139,-1043.5 139,-1024.5 25,-1024.5"/>
<text text-anchor="middle" x="82" y="-1031.5" font-family="Helvetica,sans-Serif" font-size="10.00">write_snx_satpower</text>
</a>
</g>
</g>
<!-- Node1&#45;&gt;Node23 -->
<g id="edge10" class="edge">
<title>Node1&#45;&gt;Node23</title>
<path fill="none" stroke="midnightblue" d="M253.71,-698.03C244.17,-763.55 210.89,-969.84 164,-1015 157.13,-1021.61 148.42,-1026.08 139.28,-1029.07"/>
<polygon fill="midnightblue" stroke="midnightblue" points="257.22,-698.21 255.16,-687.82 250.29,-697.22 257.22,-698.21"/>
</g>
<!-- Node24 -->
<g id="node12" class="node">
<title>Node24</title>
<g id="a_node12"><a xlink:href="sinex_8cpp.html#ad1f04c8ad86df292ccd205e1f41e369d" target="_top" xlink:title=" ">
<polygon fill="white" stroke="red" points="17.5,-975 17.5,-1005 146.5,-1005 146.5,-975 17.5,-975"/>
<text text-anchor="start" x="25.5" y="-993" font-family="Helvetica,sans-Serif" font-size="10.00">write_snx_apriori_from</text>
<text text-anchor="middle" x="82" y="-982" font-family="Helvetica,sans-Serif" font-size="10.00">_stations</text>
</a>
</g>
</g>
<!-- Node1&#45;&gt;Node24 -->
<g id="edge11" class="edge">
<title>Node1&#45;&gt;Node24</title>
<path fill="none" stroke="midnightblue" d="M256.09,-697.6C253.92,-749.03 240.87,-889.08 164,-965 158.97,-969.96 152.98,-973.95 146.57,-977.14"/>
<polygon fill="midnightblue" stroke="midnightblue" points="259.59,-697.63 256.41,-687.52 252.59,-697.4 259.59,-697.63"/>
</g>
<!-- Node25 -->
<g id="node13" class="node">
<title>Node25</title>
<g id="a_node13"><a xlink:href="sinex_8cpp.html#aeb58f5fc13043441d2418a6f618a03f1" target="_top" xlink:title=" ">
<polygon fill="white" stroke="black" points="25.5,-936.5 25.5,-955.5 138.5,-955.5 138.5,-936.5 25.5,-936.5"/>
<text text-anchor="middle" x="82" y="-943.5" font-family="Helvetica,sans-Serif" font-size="10.00">write_snx_precodes</text>
</a>
</g>
</g>
<!-- Node1&#45;&gt;Node25 -->
<g id="edge12" class="edge">
<title>Node1&#45;&gt;Node25</title>
<path fill="none" stroke="midnightblue" d="M255.26,-697.79C251.2,-745.05 234.13,-865.15 164,-927 156.85,-933.31 148,-937.62 138.81,-940.56"/>
<polygon fill="midnightblue" stroke="midnightblue" points="258.76,-697.89 256.02,-687.66 251.78,-697.37 258.76,-697.89"/>
</g>
<!-- Node26 -->
<g id="node14" class="node">
<title>Node26</title>
<g id="a_node14"><a xlink:href="sinex_8cpp.html#a550e1763d27259dca56f7c0d45cbfd85" target="_top" xlink:title=" ">
<polygon fill="white" stroke="black" points="27,-898.5 27,-917.5 137,-917.5 137,-898.5 27,-898.5"/>
<text text-anchor="middle" x="82" y="-905.5" font-family="Helvetica,sans-Serif" font-size="10.00">write_snx_satmass</text>
</a>
</g>
</g>
<!-- Node1&#45;&gt;Node26 -->
<g id="edge13" class="edge">
<title>Node1&#45;&gt;Node26</title>
<path fill="none" stroke="midnightblue" d="M253.77,-697.87C246.89,-739.97 224.83,-838.38 164,-889 156.34,-895.37 146.92,-899.69 137.26,-902.6"/>
<polygon fill="midnightblue" stroke="midnightblue" points="257.26,-698.21 255.29,-687.8 250.34,-697.16 257.26,-698.21"/>
</g>
<!-- Node27 -->
<g id="node15" class="node">
<title>Node27</title>
<g id="a_node15"><a xlink:href="sinex_8cpp.html#acb3a3226f628b968b812502db01166df" target="_top" xlink:title=" ">
<polygon fill="white" stroke="red" points="23,-849 23,-879 141,-879 141,-849 23,-849"/>
<text text-anchor="start" x="31" y="-867" font-family="Helvetica,sans-Serif" font-size="10.00">write_snx_estimates</text>
<text text-anchor="middle" x="82" y="-856" font-family="Helvetica,sans-Serif" font-size="10.00">_from_filter</text>
</a>
</g>
</g>
<!-- Node1&#45;&gt;Node27 -->
<g id="edge14" class="edge">
<title>Node1&#45;&gt;Node27</title>
<path fill="none" stroke="midnightblue" d="M250.68,-697.23C239.47,-730.97 211.71,-800.86 164,-839 157.22,-844.42 149.26,-848.67 141.03,-852"/>
<polygon fill="midnightblue" stroke="midnightblue" points="254.03,-698.22 253.74,-687.63 247.36,-696.1 254.03,-698.22"/>
</g>
<!-- Node28 -->
<g id="node16" class="node">
<title>Node28</title>
<g id="a_node16"><a xlink:href="sinex_8cpp.html#a0d862cfed64e5e04bffbe66802600d52" target="_top" xlink:title=" ">
<polygon fill="white" stroke="red" points="15.5,-810.5 15.5,-829.5 148.5,-829.5 148.5,-810.5 15.5,-810.5"/>
<text text-anchor="middle" x="82" y="-817.5" font-family="Helvetica,sans-Serif" font-size="10.00">write_snx_input_history</text>
</a>
</g>
</g>
<!-- Node1&#45;&gt;Node28 -->
<g id="edge15" class="edge">
<title>Node1&#45;&gt;Node28</title>
<path fill="none" stroke="midnightblue" d="M247.53,-697.13C233.65,-724.58 204.28,-774.72 164,-801 158.07,-804.87 151.45,-807.95 144.61,-810.41"/>
<polygon fill="midnightblue" stroke="midnightblue" points="250.84,-698.34 252.09,-687.82 244.55,-695.27 250.84,-698.34"/>
</g>
<!-- Node29 -->
<g id="node17" class="node">
<title>Node29</title>
<g id="a_node17"><a xlink:href="sinex_8cpp.html#a8d82ff6843dab1c9812568b15545c51b" target="_top" xlink:title=" ">
<polygon fill="white" stroke="red" points="22.5,-772.5 22.5,-791.5 141.5,-791.5 141.5,-772.5 22.5,-772.5"/>
<text text-anchor="middle" x="82" y="-779.5" font-family="Helvetica,sans-Serif" font-size="10.00">write_snx_input_files</text>
</a>
</g>
</g>
<!-- Node1&#45;&gt;Node29 -->
<g id="edge16" class="edge">
<title>Node1&#45;&gt;Node29</title>
<path fill="none" stroke="midnightblue" d="M242.48,-695.41C225.84,-714.89 196.24,-745.94 164,-763 156.72,-766.85 148.67,-769.93 140.55,-772.39"/>
<polygon fill="midnightblue" stroke="midnightblue" points="245.27,-697.53 248.99,-687.61 239.89,-693.05 245.27,-697.53"/>
</g>
<!-- Node30 -->
<g id="node18" class="node">
<title>Node30</title>
<g id="a_node18"><a xlink:href="sinex_8cpp.html#add14f0cac292f692fa4f87918df5a3be" target="_top" xlink:title=" ">
<polygon fill="white" stroke="red" points="30,-734.5 30,-753.5 134,-753.5 134,-734.5 30,-734.5"/>
<text text-anchor="middle" x="82" y="-741.5" font-family="Helvetica,sans-Serif" font-size="10.00">write_snx_epochs</text>
</a>
</g>
</g>
<!-- Node1&#45;&gt;Node30 -->
<g id="edge17" class="edge">
<title>Node1&#45;&gt;Node30</title>
<path fill="none" stroke="midnightblue" d="M231.85,-692.58C213.63,-702.84 187.92,-716.26 164,-725 153.96,-728.67 142.96,-731.8 132.39,-734.41"/>
<polygon fill="midnightblue" stroke="midnightblue" points="233.72,-695.54 240.65,-687.54 230.24,-689.47 233.72,-695.54"/>
</g>
<!-- Node31 -->
<g id="node19" class="node">
<title>Node31</title>
<g id="a_node19"><a xlink:href="sinex_8cpp.html#ab1e30d4f0fbf526e1107e2a8158925c6" target="_top" xlink:title=" ">
<polygon fill="white" stroke="red" points="26,-685 26,-715 138,-715 138,-685 26,-685"/>
<text text-anchor="start" x="34" y="-703" font-family="Helvetica,sans-Serif" font-size="10.00">write_snx_matrices</text>
<text text-anchor="middle" x="82" y="-692" font-family="Helvetica,sans-Serif" font-size="10.00">_from_filter</text>
</a>
</g>
</g>
<!-- Node1&#45;&gt;Node31 -->
<g id="edge18" class="edge">
<title>Node1&#45;&gt;Node31</title>
<path fill="none" stroke="midnightblue" d="M189.31,-686.52C172.39,-688.67 154.42,-690.94 138.16,-693.01"/>
<polygon fill="midnightblue" stroke="midnightblue" points="190.21,-689.93 199.69,-685.2 189.33,-682.99 190.21,-689.93"/>
</g>
<!-- Node32 -->
<g id="node20" class="node">
<title>Node32</title>
<g id="a_node20"><a xlink:href="sinex_8cpp.html#aad0d374952ac86cfd39996ba6ab824d0" target="_top" xlink:title=" ">
<polygon fill="white" stroke="red" points="0,-646.5 0,-665.5 164,-665.5 164,-646.5 0,-646.5"/>
<text text-anchor="middle" x="82" y="-653.5" font-family="Helvetica,sans-Serif" font-size="10.00">write_snx_acknowledgements</text>
</a>
</g>
</g>
<!-- Node1&#45;&gt;Node32 -->
<g id="edge19" class="edge">
<title>Node1&#45;&gt;Node32</title>
<path fill="none" stroke="midnightblue" d="M189.5,-669.5C179.16,-668.19 168.43,-666.83 157.93,-665.5"/>
<polygon fill="midnightblue" stroke="midnightblue" points="189.33,-673.01 199.69,-670.8 190.21,-666.07 189.33,-673.01"/>
</g>
<!-- Node33 -->
<g id="node21" class="node">
<title>Node33</title>
<g id="a_node21"><a xlink:href="sinex_8cpp.html#a53c1658cd2d53bfcbc3fdaf791d5afd5" target="_top" xlink:title=" ">
<polygon fill="white" stroke="red" points="31.5,-608.5 31.5,-627.5 132.5,-627.5 132.5,-608.5 31.5,-608.5"/>
<text text-anchor="middle" x="82" y="-615.5" font-family="Helvetica,sans-Serif" font-size="10.00">write_snx_siteids</text>
</a>
</g>
</g>
<!-- Node1&#45;&gt;Node33 -->
<g id="edge20" class="edge">
<title>Node1&#45;&gt;Node33</title>
<path fill="none" stroke="midnightblue" d="M228.42,-663.91C210.36,-655.26 186.2,-644.45 164,-637 153.32,-633.42 141.63,-630.25 130.53,-627.58"/>
<polygon fill="midnightblue" stroke="midnightblue" points="227.26,-667.23 237.78,-668.46 230.32,-660.94 227.26,-667.23"/>
</g>
<!-- Node34 -->
<g id="node22" class="node">
<title>Node34</title>
<g id="a_node22"><a xlink:href="sinex_8cpp.html#abccb68f8e14efd8c153902271beccce3" target="_top" xlink:title=" ">
<polygon fill="white" stroke="black" points="34.5,-570.5 34.5,-589.5 129.5,-589.5 129.5,-570.5 34.5,-570.5"/>
<text text-anchor="middle" x="82" y="-577.5" font-family="Helvetica,sans-Serif" font-size="10.00">write_snx_satpc</text>
</a>
</g>
</g>
<!-- Node1&#45;&gt;Node34 -->
<g id="edge21" class="edge">
<title>Node1&#45;&gt;Node34</title>
<path fill="none" stroke="midnightblue" d="M241.19,-660.75C224.14,-642.63 194.88,-614.63 164,-599 153.43,-593.65 141.32,-589.78 129.75,-586.99"/>
<polygon fill="midnightblue" stroke="midnightblue" points="238.78,-663.31 248.13,-668.3 243.94,-658.57 238.78,-663.31"/>
</g>
<!-- Node35 -->
<g id="node23" class="node">
<title>Node35</title>
<g id="a_node23"><a xlink:href="sinex_8cpp.html#af62a4178a4d4f26388e03fd47b0fd5ae" target="_top" xlink:title=" ">
<polygon fill="white" stroke="black" points="21.5,-532.5 21.5,-551.5 142.5,-551.5 142.5,-532.5 21.5,-532.5"/>
<text text-anchor="middle" x="82" y="-539.5" font-family="Helvetica,sans-Serif" font-size="10.00">write_snx_satfreqchn</text>
</a>
</g>
</g>
<!-- Node1&#45;&gt;Node35 -->
<g id="edge22" class="edge">
<title>Node1&#45;&gt;Node35</title>
<path fill="none" stroke="midnightblue" d="M247.07,-659.41C232.8,-633.22 203.14,-585.88 164,-561 157.54,-556.89 150.28,-553.67 142.83,-551.15"/>
<polygon fill="midnightblue" stroke="midnightblue" points="244.02,-661.12 251.78,-668.32 250.21,-657.85 244.02,-661.12"/>
</g>
<!-- Node36 -->
<g id="node24" class="node">
<title>Node36</title>
<g id="a_node24"><a xlink:href="sinex_8cpp.html#a856c8d36ab1d7250489f9933867a9a9f" target="_top" xlink:title=" ">
<polygon fill="white" stroke="red" points="25,-494.5 25,-513.5 139,-513.5 139,-494.5 25,-494.5"/>
<text text-anchor="middle" x="82" y="-501.5" font-family="Helvetica,sans-Serif" font-size="10.00">write_snx_receivers</text>
</a>
</g>
</g>
<!-- Node1&#45;&gt;Node36 -->
<g id="edge23" class="edge">
<title>Node1&#45;&gt;Node36</title>
<path fill="none" stroke="midnightblue" d="M250.41,-658.24C239.08,-624.91 211.49,-557.74 164,-523 156.66,-517.63 148.02,-513.75 139.17,-510.95"/>
<polygon fill="midnightblue" stroke="midnightblue" points="247.21,-659.73 253.64,-668.16 253.87,-657.56 247.21,-659.73"/>
</g>
<!-- Node37 -->
<g id="node25" class="node">
<title>Node37</title>
<g id="a_node25"><a xlink:href="sinex_8cpp.html#ac93b23d9b331f7c2a68800babaaf4cb6" target="_top" xlink:title=" ">
<polygon fill="white" stroke="black" points="25.5,-456.5 25.5,-475.5 138.5,-475.5 138.5,-456.5 25.5,-456.5"/>
<text text-anchor="middle" x="82" y="-463.5" font-family="Helvetica,sans-Serif" font-size="10.00">write_snx_statistics</text>
</a>
</g>
</g>
<!-- Node1&#45;&gt;Node37 -->
<g id="edge24" class="edge">
<title>Node1&#45;&gt;Node37</title>
<path fill="none" stroke="midnightblue" d="M252.89,-658.2C244.63,-618.79 220.52,-530.44 164,-485 156.68,-479.12 147.86,-475 138.77,-472.12"/>
<polygon fill="midnightblue" stroke="midnightblue" points="249.48,-659.01 254.85,-668.14 256.35,-657.65 249.48,-659.01"/>
</g>
<!-- Node38 -->
<g id="node26" class="node">
<title>Node38</title>
<g id="a_node26"><a xlink:href="sinex_8cpp.html#a3006781879b09b138fc582b791d2bd1c" target="_top" xlink:title=" ">
<polygon fill="white" stroke="black" points="29.5,-418.5 29.5,-437.5 134.5,-437.5 134.5,-418.5 29.5,-418.5"/>
<text text-anchor="middle" x="82" y="-425.5" font-family="Helvetica,sans-Serif" font-size="10.00">write_snx_satcom</text>
</a>
</g>
</g>
<!-- Node1&#45;&gt;Node38 -->
<g id="edge25" class="edge">
<title>Node1&#45;&gt;Node38</title>
<path fill="none" stroke="midnightblue" d="M254.61,-658.13C249.23,-613.23 229.69,-503.48 164,-447 155.79,-439.94 145.43,-435.38 134.9,-432.47"/>
<polygon fill="midnightblue" stroke="midnightblue" points="251.15,-658.74 255.71,-668.3 258.11,-657.98 251.15,-658.74"/>
</g>
<!-- Node39 -->
<g id="node27" class="node">
<title>Node39</title>
<g id="a_node27"><a xlink:href="sinex_8cpp.html#a9208947e52a0b136f27ca8f0e4c1b207" target="_top" xlink:title=" ">
<polygon fill="white" stroke="black" points="27.5,-380.5 27.5,-399.5 136.5,-399.5 136.5,-380.5 27.5,-380.5"/>
<text text-anchor="middle" x="82" y="-387.5" font-family="Helvetica,sans-Serif" font-size="10.00">write_snx_sitedata</text>
</a>
</g>
</g>
<!-- Node1&#45;&gt;Node39 -->
<g id="edge26" class="edge">
<title>Node1&#45;&gt;Node39</title>
<path fill="none" stroke="midnightblue" d="M255.89,-658.33C253.24,-608.58 239.11,-476.9 164,-409 156.39,-402.12 146.77,-397.6 136.85,-394.65"/>
<polygon fill="midnightblue" stroke="midnightblue" points="252.4,-658.55 256.33,-668.39 259.39,-658.25 252.4,-658.55"/>
</g>
<!-- Node40 -->
<g id="node28" class="node">
<title>Node40</title>
<g id="a_node28"><a xlink:href="tropSinex_8cpp.html#a6562277d9838a377bf4f369b133b50d2" target="_top" xlink:title="Write SITE/ECCENTRICITY block.">
<polygon fill="white" stroke="red" points="33.5,-342.5 33.5,-361.5 130.5,-361.5 130.5,-342.5 33.5,-342.5"/>
<text text-anchor="middle" x="82" y="-349.5" font-family="Helvetica,sans-Serif" font-size="10.00">writeTropSiteEcc</text>
</a>
</g>
</g>
<!-- Node1&#45;&gt;Node40 -->
<g id="edge27" class="edge">
<title>Node1&#45;&gt;Node40</title>
<path fill="none" stroke="midnightblue" d="M256.86,-658.18C256.72,-603.68 248.46,-450.36 164,-371 154.95,-362.49 142.84,-357.56 130.74,-354.75"/>
<polygon fill="midnightblue" stroke="midnightblue" points="253.36,-658.22 256.79,-668.25 260.36,-658.27 253.36,-658.22"/>
</g>
<!-- Node41 -->
<g id="node29" class="node">
<title>Node41</title>
<g id="a_node29"><a xlink:href="sinex_8cpp.html#adc8d4d94602b805806a06ac5abecb2b0" target="_top" xlink:title=" ">
<polygon fill="white" stroke="black" points="28,-304.5 28,-323.5 136,-323.5 136,-304.5 28,-304.5"/>
<text text-anchor="middle" x="82" y="-311.5" font-family="Helvetica,sans-Serif" font-size="10.00">write_snx_gps_pcs</text>
</a>
</g>
</g>
<!-- Node1&#45;&gt;Node41 -->
<g id="edge28" class="edge">
<title>Node1&#45;&gt;Node41</title>
<path fill="none" stroke="midnightblue" d="M253.89,-658.35C244.74,-592.25 211.99,-379.5 164,-333 156.43,-325.66 146.59,-320.96 136.39,-318"/>
<polygon fill="midnightblue" stroke="midnightblue" points="250.43,-658.85 255.24,-668.29 257.37,-657.91 250.43,-658.85"/>
</g>
<!-- Node42 -->
<g id="node30" class="node">
<title>Node42</title>
<g id="a_node30"><a xlink:href="tropSinex_8cpp.html#a219d3c5e4d7d71f3f485ff07b156347a" target="_top" xlink:title="Write TROP/DESCRIPTION block.">
<polygon fill="white" stroke="red" points="39,-266.5 39,-285.5 125,-285.5 125,-266.5 39,-266.5"/>
<text text-anchor="middle" x="82" y="-273.5" font-family="Helvetica,sans-Serif" font-size="10.00">writeTropDesc</text>
</a>
</g>
</g>
<!-- Node1&#45;&gt;Node42 -->
<g id="edge29" class="edge">
<title>Node1&#45;&gt;Node42</title>
<path fill="none" stroke="midnightblue" d="M254.42,-658.08C246.62,-587.01 216.75,-347.4 164,-295 153.75,-284.82 139.15,-279.69 125.16,-277.23"/>
<polygon fill="midnightblue" stroke="midnightblue" points="250.97,-658.75 255.52,-668.32 257.93,-658 250.97,-658.75"/>
</g>
<!-- Node43 -->
<g id="node31" class="node">
<title>Node43</title>
<g id="a_node31"><a xlink:href="sinex_8cpp.html#a9608becc92820b33d57859365ec21b34" target="_top" xlink:title=" ">
<polygon fill="white" stroke="black" points="24,-228.5 24,-247.5 140,-247.5 140,-228.5 24,-228.5"/>
<text text-anchor="middle" x="82" y="-235.5" font-family="Helvetica,sans-Serif" font-size="10.00">write_snx_sourceids</text>
</a>
</g>
</g>
<!-- Node1&#45;&gt;Node43 -->
<g id="edge30" class="edge">
<title>Node1&#45;&gt;Node43</title>
<path fill="none" stroke="midnightblue" d="M254.89,-658.07C248.38,-582.56 221.6,-315.42 164,-257 157.51,-250.42 149.2,-245.94 140.39,-242.92"/>
<polygon fill="midnightblue" stroke="midnightblue" points="251.41,-658.46 255.73,-668.13 258.38,-657.87 251.41,-658.46"/>
</g>
<!-- Node44 -->
<g id="node32" class="node">
<title>Node44</title>
<g id="a_node32"><a xlink:href="sinex_8cpp.html#ac2b82924309acfe373f3875f198fb09b" target="_top" xlink:title=" ">
<polygon fill="white" stroke="red" points="25,-190.5 25,-209.5 139,-209.5 139,-190.5 25,-190.5"/>
<text text-anchor="middle" x="82" y="-197.5" font-family="Helvetica,sans-Serif" font-size="10.00">write_snx_antennas</text>
</a>
</g>
</g>
<!-- Node1&#45;&gt;Node44 -->
<g id="edge31" class="edge">
<title>Node1&#45;&gt;Node44</title>
<path fill="none" stroke="midnightblue" d="M255.3,-658.36C250.05,-579.05 226.54,-283.55 164,-219 157.27,-212.05 148.51,-207.44 139.25,-204.41"/>
<polygon fill="midnightblue" stroke="midnightblue" points="251.81,-658.68 255.94,-668.44 258.8,-658.24 251.81,-658.68"/>
</g>
<!-- Node45 -->
<g id="node33" class="node">
<title>Node45</title>
<g id="a_node33"><a xlink:href="sinex_8cpp.html#a0e3e4cb4657d447c48021cb6a2a4fb69" target="_top" xlink:title=" ">
<polygon fill="white" stroke="black" points="29,-152.5 29,-171.5 135,-171.5 135,-152.5 29,-152.5"/>
<text text-anchor="middle" x="82" y="-159.5" font-family="Helvetica,sans-Serif" font-size="10.00">write_snx_gal_pcs</text>
</a>
</g>
</g>
<!-- Node1&#45;&gt;Node45 -->
<g id="edge32" class="edge">
<title>Node1&#45;&gt;Node45</title>
<path fill="none" stroke="midnightblue" d="M255.63,-658.36C251.53,-575.02 231.43,-251.64 164,-181 156.32,-172.96 145.93,-168.03 135.16,-165.08"/>
<polygon fill="midnightblue" stroke="midnightblue" points="252.14,-658.65 256.1,-668.48 259.13,-658.32 252.14,-658.65"/>
</g>
<!-- Node46 -->
<g id="node34" class="node">
<title>Node46</title>
<g id="a_node34"><a xlink:href="tropSinex_8cpp.html#a1faee2ac53f3a75f110a3d3fadd79354" target="_top" xlink:title="Write SITE/ID block.">
<polygon fill="white" stroke="red" points="37.5,-114.5 37.5,-133.5 126.5,-133.5 126.5,-114.5 37.5,-114.5"/>
<text text-anchor="middle" x="82" y="-121.5" font-family="Helvetica,sans-Serif" font-size="10.00">writeTropSiteId</text>
</a>
</g>
</g>
<!-- Node1&#45;&gt;Node46 -->
<g id="edge33" class="edge">
<title>Node1&#45;&gt;Node46</title>
<path fill="none" stroke="midnightblue" d="M255.9,-657.99C252.84,-570.14 236.24,-219.64 164,-143 154.39,-132.8 140.43,-127.61 126.8,-125.08"/>
<polygon fill="midnightblue" stroke="midnightblue" points="252.41,-658.3 256.23,-668.18 259.4,-658.08 252.41,-658.3"/>
</g>
<!-- Node47 -->
<g id="node35" class="node">
<title>Node47</title>
<g id="a_node35"><a xlink:href="tropSinex_8cpp.html#a96c1bb288a96f33068140504f3cffba8" target="_top" xlink:title="Write SITE/RECEIVER block.">
<polygon fill="white" stroke="red" points="33,-76.5 33,-95.5 131,-95.5 131,-76.5 33,-76.5"/>
<text text-anchor="middle" x="82" y="-83.5" font-family="Helvetica,sans-Serif" font-size="10.00">writeTropSiteRec</text>
</a>
</g>
</g>
<!-- Node1&#45;&gt;Node47 -->
<g id="edge34" class="edge">
<title>Node1&#45;&gt;Node47</title>
<path fill="none" stroke="midnightblue" d="M256.16,-658.33C254.16,-567.31 241.25,-187.89 164,-105 155.43,-95.81 143.33,-90.67 131.09,-87.89"/>
<polygon fill="midnightblue" stroke="midnightblue" points="252.66,-658.45 256.36,-668.38 259.66,-658.32 252.66,-658.45"/>
</g>
<!-- Node48 -->
<g id="node36" class="node">
<title>Node48</title>
<g id="a_node36"><a xlink:href="tropSinex_8cpp.html#ac59c53ad4e1e989f56bb76e256e6d500" target="_top" xlink:title="Write SITE/COORDINATES block.">
<polygon fill="white" stroke="red" points="27.5,-38.5 27.5,-57.5 136.5,-57.5 136.5,-38.5 27.5,-38.5"/>
<text text-anchor="middle" x="82" y="-45.5" font-family="Helvetica,sans-Serif" font-size="10.00">writeTropSiteCoord</text>
</a>
</g>
</g>
<!-- Node1&#45;&gt;Node48 -->
<g id="edge35" class="edge">
<title>Node1&#45;&gt;Node48</title>
<path fill="none" stroke="midnightblue" d="M256.37,-657.95C255.33,-562.59 246.07,-155.93 164,-67 156.75,-59.15 146.92,-54.24 136.62,-51.24"/>
<polygon fill="midnightblue" stroke="midnightblue" points="252.87,-658.24 256.46,-668.21 259.87,-658.18 252.87,-658.24"/>
</g>
<!-- Node49 -->
<g id="node37" class="node">
<title>Node49</title>
<g id="a_node37"><a xlink:href="tropSinex_8cpp.html#ae2adfa651c283b816f840a0727bd2340" target="_top" xlink:title="Write TROP/SOLUTION block.">
<polygon fill="white" stroke="red" points="43.5,-0.5 43.5,-19.5 120.5,-19.5 120.5,-0.5 43.5,-0.5"/>
<text text-anchor="middle" x="82" y="-7.5" font-family="Helvetica,sans-Serif" font-size="10.00">writeTropSol</text>
</a>
</g>
</g>
<!-- Node1&#45;&gt;Node49 -->
<g id="edge36" class="edge">
<title>Node1&#45;&gt;Node49</title>
<path fill="none" stroke="midnightblue" d="M256.56,-657.96C256.46,-559.08 251.02,-124.11 164,-29 153.08,-17.06 136.21,-11.94 120.69,-9.94"/>
<polygon fill="midnightblue" stroke="midnightblue" points="253.06,-658.08 256.56,-668.08 260.06,-658.09 253.06,-658.08"/>
</g>
</g>
</svg>
        <g id="navigator" transform="translate(0 0)" fill="#404254">
                <rect fill="#f2f5e9" fill-opacity="0.5" stroke="#606060" stroke-width=".5" x="0" y="0" width="60" height="60"/>
                <use id="zoomplus" xlink:href="#zoomPlus" x="17" y="9" onmousedown="handleZoom(evt,'in')"/>
                <use id="zoomminus" xlink:href="#zoomMin" x="42" y="9" onmousedown="handleZoom(evt,'out')"/>
                <use id="reset" xlink:href="#resetDef" x="30" y="36" onmousedown="handleReset()"/>
                <g id="arrowUp" xlink:href="#dirArrow" transform="translate(30 24)" onmousedown="handlePan(0,-1)">
                  <use xlink:href="#rim" fill="#404040">
                        <set attributeName="fill" to="#808080" begin="arrowUp.mouseover" end="arrowUp.mouseout"/>
                  </use>
                  <path fill="none" stroke="white" stroke-width="1.5" d="M0,-3.0v7 M-2.5,-0.5L0,-3.0L2.5,-0.5"/>
                </g>
                <g id="arrowRight" xlink:href="#dirArrow" transform="rotate(90) translate(36 -43)" onmousedown="handlePan(1,0)">
                  <use xlink:href="#rim" fill="#404040">
                        <set attributeName="fill" to="#808080" begin="arrowRight.mouseover" end="arrowRight.mouseout"/>
                  </use>
                  <path fill="none" stroke="white" stroke-width="1.5" d="M0,-3.0v7 M-2.5,-0.5L0,-3.0L2.5,-0.5"/>
                </g>
                <g id="arrowDown" xlink:href="#dirArrow" transform="rotate(180) translate(-30 -48)" onmousedown="handlePan(0,1)">
                  <use xlink:href="#rim" fill="#404040">
                        <set attributeName="fill" to="#808080" begin="arrowDown.mouseover" end="arrowDown.mouseout"/>
                  </use>
                  <path fill="none" stroke="white" stroke-width="1.5" d="M0,-3.0v7 M-2.5,-0.5L0,-3.0L2.5,-0.5"/>
                </g>
                <g id="arrowLeft" xlink:href="#dirArrow" transform="rotate(270) translate(-36 17)" onmousedown="handlePan(-1,0)">
                  <use xlink:href="#rim" fill="#404040">
                        <set attributeName="fill" to="#808080" begin="arrowLeft.mouseover" end="arrowLeft.mouseout"/>
                  </use>
                  <path fill="none" stroke="white" stroke-width="1.5" d="M0,-3.0v7 M-2.5,-0.5L0,-3.0L2.5,-0.5"/>
                </g>
        </g>
        <svg viewBox="0 0 15 15" width="100%" height="30px" preserveAspectRatio="xMaxYMin meet">
         <g id="arrow_out" transform="scale(0.3 0.3)">
          <a xlink:href="sinex_8hpp_a3864b30901f7e47c62b577f17fae0d3b_icgraph_org.svg" target="_base">
           <rect id="button" ry="5" rx="5" y="6" x="6" height="38" width="38"
                fill="#f2f5e9" fill-opacity="0.5" stroke="#606060" stroke-width="1.0"/>
           <path id="arrow"
             d="M 11.500037,31.436501 C 11.940474,20.09759 22.043105,11.32322 32.158766,21.979434 L 37.068811,17.246167 C 37.068811,17.246167 37.088388,32 37.088388,32 L 22.160133,31.978069 C 22.160133,31.978069 26.997745,27.140456 26.997745,27.140456 C 18.528582,18.264221 13.291696,25.230495 11.500037,31.436501 z"
             style="fill:#404040;"/>
          </a>
         </g>
        </svg>
</svg>
