<?xml version="1.0" encoding="UTF-8" standalone="no"?>
<!DOCTYPE svg PUBLIC "-//W3C//DTD SVG 1.1//EN"
 "http://www.w3.org/Graphics/SVG/1.1/DTD/svg11.dtd">
<!-- Generated by graphviz version 2.43.0 (0)
 -->
<!-- Title: getSnxSatAttMode Pages: 1 -->
<svg width="225pt" height="66pt"
 viewBox="0.00 0.00 225.00 66.00" xmlns="http://www.w3.org/2000/svg" xmlns:xlink="http://www.w3.org/1999/xlink">
<g id="graph0" class="graph" transform="scale(1 1) rotate(0) translate(4 62)">
<title>getSnxSatAttMode</title>
<polygon fill="white" stroke="transparent" points="-4,4 -4,-62 221,-62 221,4 -4,4"/>
<!-- Node1 -->
<g id="node1" class="node">
<title>Node1</title>
<g id="a_node1"><a xlink:title="Get attitude mode for sat.">
<polygon fill="#bfbfbf" stroke="black" points="110,-19.5 110,-38.5 217,-38.5 217,-19.5 110,-19.5"/>
<text text-anchor="middle" x="163.5" y="-26.5" font-family="Helvetica,sans-Serif" font-size="10.00">getSnxSatAttMode</text>
</a>
</g>
</g>
<!-- Node2 -->
<g id="node2" class="node">
<title>Node2</title>
<g id="a_node2"><a xlink:href="attitude_8cpp.html#a11f76062306c3303d884e53aeaa74696" target="_top" xlink:title="Yaw model for QZSS&#45;1 satellites Requires qzss_yaw_modes.snx &#45; generated by scripts/qzss_ohi_merge....">
<polygon fill="white" stroke="red" points="0,-38.5 0,-57.5 74,-57.5 74,-38.5 0,-38.5"/>
<text text-anchor="middle" x="37" y="-45.5" font-family="Helvetica,sans-Serif" font-size="10.00">satYawQzs1</text>
</a>
</g>
</g>
<!-- Node1&#45;&gt;Node2 -->
<g id="edge1" class="edge">
<title>Node1&#45;&gt;Node2</title>
<path fill="none" stroke="midnightblue" d="M99.56,-38.6C90.9,-39.93 82.25,-41.25 74.3,-42.46"/>
<polygon fill="midnightblue" stroke="midnightblue" points="100.34,-42.03 109.7,-37.06 99.29,-35.11 100.34,-42.03"/>
</g>
<!-- Node20 -->
<g id="node3" class="node">
<title>Node20</title>
<g id="a_node3"><a xlink:href="attitude_8cpp.html#abd7ddf5a848e540724fe5341542eef52" target="_top" xlink:title="Yaw model for BDS&#45;2I/2M satellites Requires bds_yaw_modes.snx Ref: https://doi.org/10....">
<polygon fill="white" stroke="red" points="0,-0.5 0,-19.5 74,-19.5 74,-0.5 0,-0.5"/>
<text text-anchor="middle" x="37" y="-7.5" font-family="Helvetica,sans-Serif" font-size="10.00">satYawBds2</text>
</a>
</g>
</g>
<!-- Node1&#45;&gt;Node20 -->
<g id="edge2" class="edge">
<title>Node1&#45;&gt;Node20</title>
<path fill="none" stroke="midnightblue" d="M99.56,-19.4C90.9,-18.07 82.25,-16.75 74.3,-15.54"/>
<polygon fill="midnightblue" stroke="midnightblue" points="99.29,-22.89 109.7,-20.94 100.34,-15.97 99.29,-22.89"/>
</g>
</g>
</svg>
