<?xml version="1.0" encoding="UTF-8" standalone="no"?>
<!DOCTYPE svg PUBLIC "-//W3C//DTD SVG 1.1//EN"
 "http://www.w3.org/Graphics/SVG/1.1/DTD/svg11.dtd">
<!-- Generated by graphviz version 2.43.0 (0)
 -->
<!-- Title: writeSinex Pages: 1 -->
<svg width="276pt" height="556pt"
 viewBox="0.00 0.00 276.00 555.50" xmlns="http://www.w3.org/2000/svg" xmlns:xlink="http://www.w3.org/1999/xlink">
<g id="graph0" class="graph" transform="scale(1 1) rotate(0) translate(4 551.5)">
<title>writeSinex</title>
<polygon fill="white" stroke="transparent" points="-4,4 -4,-551.5 272,-551.5 272,4 -4,4"/>
<!-- Node1 -->
<g id="node1" class="node">
<title>Node1</title>
<g id="a_node1"><a xlink:title=" ">
<polygon fill="#bfbfbf" stroke="black" points="0,-281 0,-300 68,-300 68,-281 0,-281"/>
<text text-anchor="middle" x="34" y="-288" font-family="Helvetica,sans-Serif" font-size="10.00">writeSinex</text>
</a>
</g>
</g>
<!-- Node2 -->
<g id="node2" class="node">
<title>Node2</title>
<g id="a_node2"><a xlink:href="sinex_8cpp.html#a636859cd3e0a9e3062bf6ad610fb779f" target="_top" xlink:title=" ">
<polygon fill="white" stroke="black" points="129,-528 129,-547 243,-547 243,-528 129,-528"/>
<text text-anchor="middle" x="186" y="-535" font-family="Helvetica,sans-Serif" font-size="10.00">comments_override</text>
</a>
</g>
</g>
<!-- Node1&#45;&gt;Node2 -->
<g id="edge1" class="edge">
<title>Node1&#45;&gt;Node2</title>
<path fill="none" stroke="midnightblue" d="M34.76,-300C34.45,-334.85 38.26,-456.8 104,-518.5 110.95,-525.02 119.7,-529.45 128.86,-532.42"/>
</g>
<!-- Node3 -->
<g id="node3" class="node">
<title>Node3</title>
<g id="a_node3"><a xlink:href="sinex_8cpp.html#aea2c8625621b459ad8928d6105688ad9" target="_top" xlink:title=" ">
<polygon fill="white" stroke="black" points="134.5,-490 134.5,-509 237.5,-509 237.5,-490 134.5,-490"/>
<text text-anchor="middle" x="186" y="-497" font-family="Helvetica,sans-Serif" font-size="10.00">write_snx_header</text>
</a>
</g>
</g>
<!-- Node1&#45;&gt;Node3 -->
<g id="edge2" class="edge">
<title>Node1&#45;&gt;Node3</title>
<path fill="none" stroke="midnightblue" d="M35.43,-300.14C37.36,-331.36 47.86,-430.62 104,-480.5 112.42,-487.98 123.23,-492.67 134.19,-495.57"/>
</g>
<!-- Node4 -->
<g id="node4" class="node">
<title>Node4</title>
<g id="a_node4"><a xlink:href="sinex_8cpp.html#a7801af81f70fa664ea5f0e671aef84e4" target="_top" xlink:title=" ">
<polygon fill="white" stroke="black" points="128,-452 128,-471 244,-471 244,-452 128,-452"/>
<text text-anchor="middle" x="186" y="-459" font-family="Helvetica,sans-Serif" font-size="10.00">write_snx_reference</text>
</a>
</g>
</g>
<!-- Node1&#45;&gt;Node4 -->
<g id="edge3" class="edge">
<title>Node1&#45;&gt;Node4</title>
<path fill="none" stroke="midnightblue" d="M36.39,-300.1C40.82,-327.07 57.19,-404.06 104,-442.5 110.92,-448.18 119.24,-452.23 127.88,-455.1"/>
</g>
<!-- Node5 -->
<g id="node5" class="node">
<title>Node5</title>
<g id="a_node5"><a xlink:href="sinex_8cpp.html#ac99b572d2b779e1a7c9301f9a0588fae" target="_top" xlink:title=" ">
<polygon fill="white" stroke="black" points="125.5,-414 125.5,-433 246.5,-433 246.5,-414 125.5,-414"/>
<text text-anchor="middle" x="186" y="-421" font-family="Helvetica,sans-Serif" font-size="10.00">write_snx_comments</text>
</a>
</g>
</g>
<!-- Node1&#45;&gt;Node5 -->
<g id="edge4" class="edge">
<title>Node1&#45;&gt;Node5</title>
<path fill="none" stroke="midnightblue" d="M37.98,-300.24C45.3,-322.48 66.38,-377.16 104,-404.5 110.43,-409.17 117.83,-412.71 125.49,-415.39"/>
</g>
<!-- Node6 -->
<g id="node6" class="node">
<title>Node6</title>
<g id="a_node6"><a xlink:href="sinex_8cpp.html#a0d862cfed64e5e04bffbe66802600d52" target="_top" xlink:title=" ">
<polygon fill="white" stroke="red" points="119.5,-376 119.5,-395 252.5,-395 252.5,-376 119.5,-376"/>
<text text-anchor="middle" x="186" y="-383" font-family="Helvetica,sans-Serif" font-size="10.00">write_snx_input_history</text>
</a>
</g>
</g>
<!-- Node1&#45;&gt;Node6 -->
<g id="edge5" class="edge">
<title>Node1&#45;&gt;Node6</title>
<path fill="none" stroke="midnightblue" d="M40.91,-300.14C51.45,-316.48 75.13,-349.5 104,-366.5 110.6,-370.38 117.93,-373.47 125.42,-375.93"/>
</g>
<!-- Node8 -->
<g id="node7" class="node">
<title>Node8</title>
<g id="a_node7"><a xlink:href="sinex_8cpp.html#a8d82ff6843dab1c9812568b15545c51b" target="_top" xlink:title=" ">
<polygon fill="white" stroke="red" points="126,-338 126,-357 246,-357 246,-338 126,-338"/>
<text text-anchor="middle" x="186" y="-345" font-family="Helvetica,sans-Serif" font-size="10.00">write_snx_input_files</text>
</a>
</g>
</g>
<!-- Node1&#45;&gt;Node8 -->
<g id="edge6" class="edge">
<title>Node1&#45;&gt;Node8</title>
<path fill="none" stroke="midnightblue" d="M49.51,-300.03C63.09,-308.57 84.21,-320.9 104,-328.5 113.71,-332.23 124.36,-335.37 134.66,-337.95"/>
</g>
<!-- Node9 -->
<g id="node8" class="node">
<title>Node9</title>
<g id="a_node8"><a xlink:href="sinex_8cpp.html#aad0d374952ac86cfd39996ba6ab824d0" target="_top" xlink:title=" ">
<polygon fill="white" stroke="red" points="104,-300 104,-319 268,-319 268,-300 104,-300"/>
<text text-anchor="middle" x="186" y="-307" font-family="Helvetica,sans-Serif" font-size="10.00">write_snx_acknowledgements</text>
</a>
</g>
</g>
<!-- Node1&#45;&gt;Node9 -->
<g id="edge7" class="edge">
<title>Node1&#45;&gt;Node9</title>
<path fill="none" stroke="midnightblue" d="M68.29,-294.72C80.63,-296.28 95.18,-298.12 109.75,-299.97"/>
</g>
<!-- Node10 -->
<g id="node9" class="node">
<title>Node10</title>
<g id="a_node9"><a xlink:href="sinex_8cpp.html#a53c1658cd2d53bfcbc3fdaf791d5afd5" target="_top" xlink:title=" ">
<polygon fill="white" stroke="red" points="135.5,-262 135.5,-281 236.5,-281 236.5,-262 135.5,-262"/>
<text text-anchor="middle" x="186" y="-269" font-family="Helvetica,sans-Serif" font-size="10.00">write_snx_siteids</text>
</a>
</g>
</g>
<!-- Node1&#45;&gt;Node10 -->
<g id="edge8" class="edge">
<title>Node1&#45;&gt;Node10</title>
<path fill="none" stroke="midnightblue" d="M68.29,-286.28C87.97,-283.79 113.27,-280.59 135.27,-277.8"/>
</g>
<!-- Node12 -->
<g id="node10" class="node">
<title>Node12</title>
<g id="a_node10"><a xlink:href="sinex_8cpp.html#a856c8d36ab1d7250489f9933867a9a9f" target="_top" xlink:title=" ">
<polygon fill="white" stroke="red" points="129,-224 129,-243 243,-243 243,-224 129,-224"/>
<text text-anchor="middle" x="186" y="-231" font-family="Helvetica,sans-Serif" font-size="10.00">write_snx_receivers</text>
</a>
</g>
</g>
<!-- Node1&#45;&gt;Node12 -->
<g id="edge9" class="edge">
<title>Node1&#45;&gt;Node12</title>
<path fill="none" stroke="midnightblue" d="M49.51,-280.97C63.09,-272.43 84.21,-260.1 104,-252.5 113.71,-248.77 124.36,-245.63 134.66,-243.05"/>
</g>
<!-- Node13 -->
<g id="node11" class="node">
<title>Node13</title>
<g id="a_node11"><a xlink:href="sinex_8cpp.html#ac2b82924309acfe373f3875f198fb09b" target="_top" xlink:title=" ">
<polygon fill="white" stroke="red" points="129,-186 129,-205 243,-205 243,-186 129,-186"/>
<text text-anchor="middle" x="186" y="-193" font-family="Helvetica,sans-Serif" font-size="10.00">write_snx_antennas</text>
</a>
</g>
</g>
<!-- Node1&#45;&gt;Node13 -->
<g id="edge10" class="edge">
<title>Node1&#45;&gt;Node13</title>
<path fill="none" stroke="midnightblue" d="M40.91,-280.86C51.45,-264.52 75.13,-231.5 104,-214.5 111.59,-210.03 120.17,-206.61 128.82,-204"/>
</g>
<!-- Node14 -->
<g id="node12" class="node">
<title>Node14</title>
<g id="a_node12"><a xlink:href="sinex_8cpp.html#a631dbc20e6ddc3a5446d21ee2a232409" target="_top" xlink:title=" ">
<polygon fill="white" stroke="red" points="129,-148 129,-167 243,-167 243,-148 129,-148"/>
<text text-anchor="middle" x="186" y="-155" font-family="Helvetica,sans-Serif" font-size="10.00">write_snx_site_eccs</text>
</a>
</g>
</g>
<!-- Node1&#45;&gt;Node14 -->
<g id="edge11" class="edge">
<title>Node1&#45;&gt;Node14</title>
<path fill="none" stroke="midnightblue" d="M37.98,-280.76C45.3,-258.52 66.38,-203.84 104,-176.5 111.36,-171.15 120,-167.28 128.85,-164.49"/>
</g>
<!-- Node15 -->
<g id="node13" class="node">
<title>Node15</title>
<g id="a_node13"><a xlink:href="sinex_8cpp.html#af079f5c07aa07e70e26a8908103dbd26" target="_top" xlink:title=" ">
<polygon fill="white" stroke="red" points="127,-98.5 127,-128.5 245,-128.5 245,-98.5 127,-98.5"/>
<text text-anchor="start" x="135" y="-116.5" font-family="Helvetica,sans-Serif" font-size="10.00">write_snx_estimates</text>
<text text-anchor="middle" x="186" y="-105.5" font-family="Helvetica,sans-Serif" font-size="10.00">_from_filter</text>
</a>
</g>
</g>
<!-- Node1&#45;&gt;Node15 -->
<g id="edge12" class="edge">
<title>Node1&#45;&gt;Node15</title>
<path fill="none" stroke="midnightblue" d="M36.6,-280.67C41.48,-253.78 58.76,-178.34 104,-138.5 110.63,-132.66 118.6,-128.19 126.92,-124.76"/>
</g>
<!-- Node16 -->
<g id="node14" class="node">
<title>Node16</title>
<g id="a_node14"><a xlink:href="sinex_8cpp.html#a52814b6e45f1224253e2dcdabe745174" target="_top" xlink:title=" ">
<polygon fill="white" stroke="red" points="121.5,-49.5 121.5,-79.5 250.5,-79.5 250.5,-49.5 121.5,-49.5"/>
<text text-anchor="start" x="129.5" y="-67.5" font-family="Helvetica,sans-Serif" font-size="10.00">write_snx_apriori_from</text>
<text text-anchor="middle" x="186" y="-56.5" font-family="Helvetica,sans-Serif" font-size="10.00">_stations</text>
</a>
</g>
</g>
<!-- Node1&#45;&gt;Node16 -->
<g id="edge13" class="edge">
<title>Node1&#45;&gt;Node16</title>
<path fill="none" stroke="midnightblue" d="M35.36,-280.93C37.09,-248.96 47.04,-144.71 104,-89.5 108.97,-84.69 114.84,-80.8 121.12,-77.66"/>
</g>
<!-- Node17 -->
<g id="node15" class="node">
<title>Node17</title>
<g id="a_node15"><a xlink:href="sinex_8cpp.html#abfc552a17b3fc10aa69c8ea9fde1d1be" target="_top" xlink:title=" ">
<polygon fill="white" stroke="red" points="130,-0.5 130,-30.5 242,-30.5 242,-0.5 130,-0.5"/>
<text text-anchor="start" x="138" y="-18.5" font-family="Helvetica,sans-Serif" font-size="10.00">write_snx_matrices</text>
<text text-anchor="middle" x="186" y="-7.5" font-family="Helvetica,sans-Serif" font-size="10.00">_from_filter</text>
</a>
</g>
</g>
<!-- Node1&#45;&gt;Node17 -->
<g id="edge14" class="edge">
<title>Node1&#45;&gt;Node17</title>
<path fill="none" stroke="midnightblue" d="M34.6,-280.78C33.65,-243.91 35.33,-111.27 104,-40.5 111.07,-33.21 120.22,-28.04 129.8,-24.36"/>
</g>
</g>
</svg>
