<?xml version="1.0" encoding="UTF-8" standalone="no"?>
<!DOCTYPE svg PUBLIC "-//W3C//DTD SVG 1.1//EN"
 "http://www.w3.org/Graphics/SVG/1.1/DTD/svg11.dtd">
<!-- Generated by graphviz version 2.43.0 (0)
 -->
<!-- Title: nearestYear Pages: 1 -->
<svg width="277pt" height="484pt"
 viewBox="0.00 0.00 277.00 484.00" xmlns="http://www.w3.org/2000/svg" xmlns:xlink="http://www.w3.org/1999/xlink">
<g id="graph0" class="graph" transform="scale(1 1) rotate(0) translate(4 480)">
<title>nearestYear</title>
<polygon fill="white" stroke="transparent" points="-4,4 -4,-480 273,-480 273,4 -4,4"/>
<!-- Node1 -->
<g id="node1" class="node">
<title>Node1</title>
<g id="a_node1"><a xlink:title=" ">
<polygon fill="#bfbfbf" stroke="black" points="195,-228.5 195,-247.5 269,-247.5 269,-228.5 195,-228.5"/>
<text text-anchor="middle" x="232" y="-235.5" font-family="Helvetica,sans-Serif" font-size="10.00">nearestYear</text>
</a>
</g>
</g>
<!-- Node2 -->
<g id="node2" class="node">
<title>Node2</title>
<g id="a_node2"><a xlink:href="sinex_8cpp.html#acfcfddfd4f0433118a40ffdaeed6c4d2" target="_top" xlink:title=" ">
<polygon fill="white" stroke="red" points="29.5,-456.5 29.5,-475.5 129.5,-475.5 129.5,-456.5 29.5,-456.5"/>
<text text-anchor="middle" x="79.5" y="-463.5" font-family="Helvetica,sans-Serif" font-size="10.00">read_snx_header</text>
</a>
</g>
</g>
<!-- Node1&#45;&gt;Node2 -->
<g id="edge1" class="edge">
<title>Node1&#45;&gt;Node2</title>
<path fill="none" stroke="midnightblue" d="M230.77,-247.63C229.42,-280.78 220.31,-391.21 159,-447 150.91,-454.36 140.46,-459 129.85,-461.89"/>
</g>
<!-- Node8 -->
<g id="node3" class="node">
<title>Node8</title>
<g id="a_node3"><a xlink:href="sinex_8cpp.html#ad9c72e556c88b288d2967405d1084978" target="_top" xlink:title=" ">
<polygon fill="white" stroke="red" points="0,-418.5 0,-437.5 159,-437.5 159,-418.5 0,-418.5"/>
<text text-anchor="middle" x="79.5" y="-425.5" font-family="Helvetica,sans-Serif" font-size="10.00">parse_snx_solutionEstimates</text>
</a>
</g>
</g>
<!-- Node1&#45;&gt;Node8 -->
<g id="edge2" class="edge">
<title>Node1&#45;&gt;Node8</title>
<path fill="none" stroke="midnightblue" d="M229.91,-247.91C226.11,-277.35 210.77,-364.96 159,-409 154.51,-412.82 149.39,-415.89 143.95,-418.37"/>
</g>
<!-- Node9 -->
<g id="node4" class="node">
<title>Node9</title>
<g id="a_node4"><a xlink:href="sinex_8cpp.html#a600f7770800fc8a354a00cbaf2f975ce" target="_top" xlink:title=" ">
<polygon fill="white" stroke="red" points="14,-380.5 14,-399.5 145,-399.5 145,-380.5 14,-380.5"/>
<text text-anchor="middle" x="79.5" y="-387.5" font-family="Helvetica,sans-Serif" font-size="10.00">parse_snx_inputHistory</text>
</a>
</g>
</g>
<!-- Node1&#45;&gt;Node9 -->
<g id="edge3" class="edge">
<title>Node1&#45;&gt;Node9</title>
<path fill="none" stroke="midnightblue" d="M228.64,-247.82C222.16,-272.63 201.65,-338.17 159,-371 154,-374.85 148.33,-377.93 142.39,-380.4"/>
</g>
<!-- Node10 -->
<g id="node5" class="node">
<title>Node10</title>
<g id="a_node5"><a xlink:href="sinex_8cpp.html#aba75b19e18d6ac875d54a626dc4ced60" target="_top" xlink:title=" ">
<polygon fill="white" stroke="red" points="20.5,-342.5 20.5,-361.5 138.5,-361.5 138.5,-342.5 20.5,-342.5"/>
<text text-anchor="middle" x="79.5" y="-349.5" font-family="Helvetica,sans-Serif" font-size="10.00">parse_snx_inputFiles</text>
</a>
</g>
</g>
<!-- Node1&#45;&gt;Node10 -->
<g id="edge4" class="edge">
<title>Node1&#45;&gt;Node10</title>
<path fill="none" stroke="midnightblue" d="M226.58,-247.55C217.11,-266.9 192.93,-310.78 159,-333 152.78,-337.07 145.78,-340.27 138.57,-342.79"/>
</g>
<!-- Node11 -->
<g id="node6" class="node">
<title>Node11</title>
<g id="a_node6"><a xlink:href="sinex_8cpp.html#a7c23aa9eafa7f9313cb59d1ff37182ce" target="_top" xlink:title=" ">
<polygon fill="white" stroke="red" points="28,-304.5 28,-323.5 131,-323.5 131,-304.5 28,-304.5"/>
<text text-anchor="middle" x="79.5" y="-311.5" font-family="Helvetica,sans-Serif" font-size="10.00">parse_snx_apriori</text>
</a>
</g>
</g>
<!-- Node1&#45;&gt;Node11 -->
<g id="edge5" class="edge">
<title>Node1&#45;&gt;Node11</title>
<path fill="none" stroke="midnightblue" d="M221.69,-247.62C208.8,-260.37 184.22,-282.71 159,-295 150.3,-299.24 140.59,-302.57 131.04,-305.18"/>
</g>
<!-- Node12 -->
<g id="node7" class="node">
<title>Node12</title>
<g id="a_node7"><a xlink:href="sinex_8cpp.html#a6ac252f5cd862ff467ea2b8d6d862263" target="_top" xlink:title=" ">
<polygon fill="white" stroke="red" points="23,-266.5 23,-285.5 136,-285.5 136,-266.5 23,-266.5"/>
<text text-anchor="middle" x="79.5" y="-273.5" font-family="Helvetica,sans-Serif" font-size="10.00">parse_snx_siteData</text>
</a>
</g>
</g>
<!-- Node1&#45;&gt;Node12 -->
<g id="edge6" class="edge">
<title>Node1&#45;&gt;Node12</title>
<path fill="none" stroke="midnightblue" d="M195.51,-247.52C183.89,-250.6 170.91,-253.99 159,-257 146.49,-260.16 132.84,-263.51 120.47,-266.49"/>
</g>
<!-- Node13 -->
<g id="node8" class="node">
<title>Node13</title>
<g id="a_node8"><a xlink:href="sinex_8cpp.html#ade90173e39d6fd3da1b76fa092107ede" target="_top" xlink:title=" ">
<polygon fill="white" stroke="red" points="21.5,-228.5 21.5,-247.5 137.5,-247.5 137.5,-228.5 21.5,-228.5"/>
<text text-anchor="middle" x="79.5" y="-235.5" font-family="Helvetica,sans-Serif" font-size="10.00">parse_snx_receivers</text>
</a>
</g>
</g>
<!-- Node1&#45;&gt;Node13 -->
<g id="edge7" class="edge">
<title>Node1&#45;&gt;Node13</title>
<path fill="none" stroke="midnightblue" d="M194.95,-238C177.82,-238 156.93,-238 137.71,-238"/>
</g>
<!-- Node14 -->
<g id="node9" class="node">
<title>Node14</title>
<g id="a_node9"><a xlink:href="sinex_8cpp.html#a3d3d66a353270215f4141338f0c3a82e" target="_top" xlink:title=" ">
<polygon fill="white" stroke="red" points="21.5,-190.5 21.5,-209.5 137.5,-209.5 137.5,-190.5 21.5,-190.5"/>
<text text-anchor="middle" x="79.5" y="-197.5" font-family="Helvetica,sans-Serif" font-size="10.00">parse_snx_antennas</text>
</a>
</g>
</g>
<!-- Node1&#45;&gt;Node14 -->
<g id="edge8" class="edge">
<title>Node1&#45;&gt;Node14</title>
<path fill="none" stroke="midnightblue" d="M195.51,-228.48C183.89,-225.4 170.91,-222.01 159,-219 146.49,-215.84 132.84,-212.49 120.47,-209.51"/>
</g>
<!-- Node15 -->
<g id="node10" class="node">
<title>Node15</title>
<g id="a_node10"><a xlink:href="sinex_8cpp.html#ab8695a6ca620f537ebb155fc912d8956" target="_top" xlink:title=" ">
<polygon fill="white" stroke="red" points="6.5,-152.5 6.5,-171.5 152.5,-171.5 152.5,-152.5 6.5,-152.5"/>
<text text-anchor="middle" x="79.5" y="-159.5" font-family="Helvetica,sans-Serif" font-size="10.00">parse_snx_siteEccentricity</text>
</a>
</g>
</g>
<!-- Node1&#45;&gt;Node15 -->
<g id="edge9" class="edge">
<title>Node1&#45;&gt;Node15</title>
<path fill="none" stroke="midnightblue" d="M221.69,-228.38C208.8,-215.63 184.22,-193.29 159,-181 151.06,-177.13 142.27,-174.01 133.54,-171.51"/>
</g>
<!-- Node16 -->
<g id="node11" class="node">
<title>Node16</title>
<g id="a_node11"><a xlink:href="sinex_8cpp.html#a9c674e62715cb63c3a55b15b0efb4a59" target="_top" xlink:title=" ">
<polygon fill="white" stroke="red" points="26.5,-114.5 26.5,-133.5 132.5,-133.5 132.5,-114.5 26.5,-114.5"/>
<text text-anchor="middle" x="79.5" y="-121.5" font-family="Helvetica,sans-Serif" font-size="10.00">parse_snx_epochs</text>
</a>
</g>
</g>
<!-- Node1&#45;&gt;Node16 -->
<g id="edge10" class="edge">
<title>Node1&#45;&gt;Node16</title>
<path fill="none" stroke="midnightblue" d="M226.58,-228.45C217.11,-209.1 192.93,-165.22 159,-143 151.14,-137.85 142.02,-134.1 132.83,-131.36"/>
</g>
<!-- Node17 -->
<g id="node12" class="node">
<title>Node17</title>
<g id="a_node12"><a xlink:href="sinex_8cpp.html#a67d65671c21e22f878c867f01f711396" target="_top" xlink:title=" ">
<polygon fill="white" stroke="red" points="24,-76.5 24,-95.5 135,-95.5 135,-76.5 24,-76.5"/>
<text text-anchor="middle" x="79.5" y="-83.5" font-family="Helvetica,sans-Serif" font-size="10.00">parse_snx_normals</text>
</a>
</g>
</g>
<!-- Node1&#45;&gt;Node17 -->
<g id="edge11" class="edge">
<title>Node1&#45;&gt;Node17</title>
<path fill="none" stroke="midnightblue" d="M228.64,-228.18C222.16,-203.37 201.65,-137.83 159,-105 152,-99.61 143.69,-95.72 135.14,-92.93"/>
</g>
<!-- Node18 -->
<g id="node13" class="node">
<title>Node18</title>
<g id="a_node13"><a xlink:href="slrObs_8cpp.html#a4c3ed56472d893fdf8be7e463eaa3758" target="_top" xlink:title="Converts from ILRS ID (condensed version of COSPAR ID) to COSPAR ID COSPAR ID to ILRS Satellite Ident...">
<polygon fill="white" stroke="red" points="32.5,-38.5 32.5,-57.5 126.5,-57.5 126.5,-38.5 32.5,-38.5"/>
<text text-anchor="middle" x="79.5" y="-45.5" font-family="Helvetica,sans-Serif" font-size="10.00">ilrsIdToCosparId</text>
</a>
</g>
</g>
<!-- Node1&#45;&gt;Node18 -->
<g id="edge12" class="edge">
<title>Node1&#45;&gt;Node18</title>
<path fill="none" stroke="midnightblue" d="M229.91,-228.09C226.11,-198.65 210.77,-111.04 159,-67 149.92,-59.28 138.22,-54.59 126.63,-51.77"/>
</g>
<!-- Node22 -->
<g id="node14" class="node">
<title>Node22</title>
<g id="a_node14"><a xlink:href="sinex_8cpp.html#a3909181f11dac6661706c2b89f939771" target="_top" xlink:title=" ">
<polygon fill="white" stroke="red" points="11,-0.5 11,-19.5 148,-19.5 148,-0.5 11,-0.5"/>
<text text-anchor="middle" x="79.5" y="-7.5" font-family="Helvetica,sans-Serif" font-size="10.00">parse_snx_dataHandling</text>
</a>
</g>
</g>
<!-- Node1&#45;&gt;Node22 -->
<g id="edge13" class="edge">
<title>Node1&#45;&gt;Node22</title>
<path fill="none" stroke="midnightblue" d="M230.77,-228.37C229.42,-195.22 220.31,-84.79 159,-29 154.75,-25.13 149.84,-22.01 144.61,-19.51"/>
</g>
</g>
</svg>
