<?xml version="1.0" encoding="UTF-8" standalone="no"?>
<!DOCTYPE svg PUBLIC "-//W3C//DTD SVG 1.1//EN"
 "http://www.w3.org/Graphics/SVG/1.1/DTD/svg11.dtd">
<!-- Generated by graphviz version 2.43.0 (0)
 -->
<!-- Title: /ginan/src/cpp/slr/slr.hpp Pages: 1 -->
<!--zoomable 173 -->
<svg id="main" version="1.1" xmlns="http://www.w3.org/2000/svg" xmlns:xlink="http://www.w3.org/1999/xlink" xml:space="preserve" onload="init(evt)">
<style type="text/css"><![CDATA[
.edge:hover path { stroke: red; }
.edge:hover polygon { stroke: red; fill: red; }
]]></style>
<script type="text/javascript"><![CDATA[
var edges = document.getElementsByTagName('g');
if (edges && edges.length) {
  for (var i=0;i<edges.length;i++) {
    if (edges[i].id.substr(0,4)=='edge') {
      edges[i].setAttribute('class','edge');
    }
  }
}
]]></script>
        <defs>
                <circle id="rim" cx="0" cy="0" r="7"/>
                <circle id="rim2" cx="0" cy="0" r="3.5"/>
                <g id="zoomPlus">
                        <use xlink:href="#rim" fill="#404040">
                                <set attributeName="fill" to="#808080" begin="zoomplus.mouseover" end="zoomplus.mouseout"/>
                        </use>
                        <path d="M-4,0h8M0,-4v8" fill="none" stroke="white" stroke-width="1.5" pointer-events="none"/>
                </g>
                <g id="zoomMin">
                        <use xlink:href="#rim" fill="#404040">
                                <set attributeName="fill" to="#808080" begin="zoomminus.mouseover" end="zoomminus.mouseout"/>
                        </use>
                        <path d="M-4,0h8" fill="none" stroke="white" stroke-width="1.5" pointer-events="none"/>
                </g>
                <g id="dirArrow">
                        <path fill="none" stroke="white" stroke-width="1.5" d="M0,-3.0v7 M-2.5,-0.5L0,-3.0L2.5,-0.5"/>
                </g>
               <g id="resetDef">
                       <use xlink:href="#rim2" fill="#404040">
                               <set attributeName="fill" to="#808080" begin="reset.mouseover" end="reset.mouseout"/>
                       </use>
               </g>
        </defs>

<script type="text/javascript">
var viewWidth = 891;
var viewHeight = 173;
var sectionId = 'dynsection-0';
</script>
<script xlink:href="svgpan.js"/>
<svg id="graph" class="graph">
<g id="viewport">
<title>/ginan/src/cpp/slr/slr.hpp</title>
<polygon fill="white" stroke="transparent" points="-4,4 -4,-169 886.5,-169 886.5,4 -4,4"/>
<!-- Node1 -->
<g id="node1" class="node">
<title>Node1</title>
<g id="a_node1"><a xlink:title=" ">
<polygon fill="#bfbfbf" stroke="black" points="372.5,-134.5 372.5,-164.5 471.5,-164.5 471.5,-134.5 372.5,-134.5"/>
<text text-anchor="start" x="380.5" y="-152.5" font-family="Helvetica,sans-Serif" font-size="10.00">/ginan/src/cpp/slr</text>
<text text-anchor="middle" x="422" y="-141.5" font-family="Helvetica,sans-Serif" font-size="10.00">/slr.hpp</text>
</a>
</g>
</g>
<!-- Node2 -->
<g id="node2" class="node">
<title>Node2</title>
<g id="a_node2"><a xlink:href="streamSlr_8hpp.html" target="_top" xlink:title=" ">
<polygon fill="white" stroke="black" points="0,-67.5 0,-97.5 130,-97.5 130,-67.5 0,-67.5"/>
<text text-anchor="start" x="8" y="-85.5" font-family="Helvetica,sans-Serif" font-size="10.00">/ginan/src/cpp/common</text>
<text text-anchor="middle" x="65" y="-74.5" font-family="Helvetica,sans-Serif" font-size="10.00">/streamSlr.hpp</text>
</a>
</g>
</g>
<!-- Node1&#45;&gt;Node2 -->
<g id="edge1" class="edge">
<title>Node1&#45;&gt;Node2</title>
<path fill="none" stroke="midnightblue" d="M362.13,-137.66C305.82,-127.45 219.18,-111.73 144,-98 139.47,-97.17 134.8,-96.32 130.1,-95.46"/>
<polygon fill="midnightblue" stroke="midnightblue" points="361.81,-141.16 372.28,-139.5 363.06,-134.27 361.81,-141.16"/>
</g>
<!-- Node3 -->
<g id="node3" class="node">
<title>Node3</title>
<g id="a_node3"><a xlink:href="main_8cpp.html" target="_top" xlink:title=" ">
<polygon fill="white" stroke="black" points="58.5,-0.5 58.5,-30.5 163.5,-30.5 163.5,-0.5 58.5,-0.5"/>
<text text-anchor="start" x="66.5" y="-18.5" font-family="Helvetica,sans-Serif" font-size="10.00">/ginan/src/cpp/pea</text>
<text text-anchor="middle" x="111" y="-7.5" font-family="Helvetica,sans-Serif" font-size="10.00">/main.cpp</text>
</a>
</g>
</g>
<!-- Node1&#45;&gt;Node3 -->
<g id="edge3" class="edge">
<title>Node1&#45;&gt;Node3</title>
<path fill="none" stroke="midnightblue" d="M362.13,-147.13C310.09,-143.48 234.41,-132.08 178,-98 150.41,-81.33 129.09,-49.06 118.46,-30.52"/>
<polygon fill="midnightblue" stroke="midnightblue" points="362.01,-150.63 372.21,-147.76 362.45,-143.64 362.01,-150.63"/>
</g>
<!-- Node4 -->
<g id="node4" class="node">
<title>Node4</title>
<g id="a_node4"><a xlink:href="ppp_8cpp.html" target="_top" xlink:title=" ">
<polygon fill="white" stroke="black" points="186.5,-67.5 186.5,-97.5 291.5,-97.5 291.5,-67.5 186.5,-67.5"/>
<text text-anchor="start" x="194.5" y="-85.5" font-family="Helvetica,sans-Serif" font-size="10.00">/ginan/src/cpp/pea</text>
<text text-anchor="middle" x="239" y="-74.5" font-family="Helvetica,sans-Serif" font-size="10.00">/ppp.cpp</text>
</a>
</g>
</g>
<!-- Node1&#45;&gt;Node4 -->
<g id="edge4" class="edge">
<title>Node1&#45;&gt;Node4</title>
<path fill="none" stroke="midnightblue" d="M372.6,-130.96C343.13,-120.48 306.19,-107.37 278.63,-97.58"/>
<polygon fill="midnightblue" stroke="midnightblue" points="371.7,-134.35 382.29,-134.4 374.04,-127.75 371.7,-134.35"/>
</g>
<!-- Node5 -->
<g id="node5" class="node">
<title>Node5</title>
<g id="a_node5"><a xlink:href="ppp__slr_8cpp.html" target="_top" xlink:title=" ">
<polygon fill="white" stroke="black" points="309.5,-67.5 309.5,-97.5 414.5,-97.5 414.5,-67.5 309.5,-67.5"/>
<text text-anchor="start" x="317.5" y="-85.5" font-family="Helvetica,sans-Serif" font-size="10.00">/ginan/src/cpp/pea</text>
<text text-anchor="middle" x="362" y="-74.5" font-family="Helvetica,sans-Serif" font-size="10.00">/ppp_slr.cpp</text>
</a>
</g>
</g>
<!-- Node1&#45;&gt;Node5 -->
<g id="edge5" class="edge">
<title>Node1&#45;&gt;Node5</title>
<path fill="none" stroke="midnightblue" d="M402.18,-127.02C393.24,-117.34 382.93,-106.17 374.99,-97.58"/>
<polygon fill="midnightblue" stroke="midnightblue" points="399.63,-129.42 408.98,-134.4 404.77,-124.67 399.63,-129.42"/>
</g>
<!-- Node6 -->
<g id="node6" class="node">
<title>Node6</title>
<g id="a_node6"><a xlink:href="slrCom_8cpp.html" target="_top" xlink:title=" ">
<polygon fill="white" stroke="black" points="432.5,-67.5 432.5,-97.5 531.5,-97.5 531.5,-67.5 432.5,-67.5"/>
<text text-anchor="start" x="440.5" y="-85.5" font-family="Helvetica,sans-Serif" font-size="10.00">/ginan/src/cpp/slr</text>
<text text-anchor="middle" x="482" y="-74.5" font-family="Helvetica,sans-Serif" font-size="10.00">/slrCom.cpp</text>
</a>
</g>
</g>
<!-- Node1&#45;&gt;Node6 -->
<g id="edge6" class="edge">
<title>Node1&#45;&gt;Node6</title>
<path fill="none" stroke="midnightblue" d="M441.82,-127.02C450.76,-117.34 461.07,-106.17 469.01,-97.58"/>
<polygon fill="midnightblue" stroke="midnightblue" points="439.23,-124.67 435.02,-134.4 444.37,-129.42 439.23,-124.67"/>
</g>
<!-- Node7 -->
<g id="node7" class="node">
<title>Node7</title>
<g id="a_node7"><a xlink:href="slrObs_8cpp.html" target="_top" xlink:title=" ">
<polygon fill="white" stroke="black" points="549.5,-67.5 549.5,-97.5 648.5,-97.5 648.5,-67.5 549.5,-67.5"/>
<text text-anchor="start" x="557.5" y="-85.5" font-family="Helvetica,sans-Serif" font-size="10.00">/ginan/src/cpp/slr</text>
<text text-anchor="middle" x="599" y="-74.5" font-family="Helvetica,sans-Serif" font-size="10.00">/slrObs.cpp</text>
</a>
</g>
</g>
<!-- Node1&#45;&gt;Node7 -->
<g id="edge7" class="edge">
<title>Node1&#45;&gt;Node7</title>
<path fill="none" stroke="midnightblue" d="M470.15,-130.82C498.6,-120.37 534.13,-107.32 560.67,-97.58"/>
<polygon fill="midnightblue" stroke="midnightblue" points="468.59,-127.66 460.41,-134.4 471,-134.23 468.59,-127.66"/>
</g>
<!-- Node8 -->
<g id="node8" class="node">
<title>Node8</title>
<g id="a_node8"><a xlink:href="slrRec_8cpp.html" target="_top" xlink:title=" ">
<polygon fill="white" stroke="black" points="666.5,-67.5 666.5,-97.5 765.5,-97.5 765.5,-67.5 666.5,-67.5"/>
<text text-anchor="start" x="674.5" y="-85.5" font-family="Helvetica,sans-Serif" font-size="10.00">/ginan/src/cpp/slr</text>
<text text-anchor="middle" x="716" y="-74.5" font-family="Helvetica,sans-Serif" font-size="10.00">/slrRec.cpp</text>
</a>
</g>
</g>
<!-- Node1&#45;&gt;Node8 -->
<g id="edge8" class="edge">
<title>Node1&#45;&gt;Node8</title>
<path fill="none" stroke="midnightblue" d="M481.7,-136.31C529.49,-126.42 598.17,-111.87 658,-98 660.73,-97.37 663.53,-96.71 666.35,-96.03"/>
<polygon fill="midnightblue" stroke="midnightblue" points="480.92,-132.9 471.83,-138.35 482.34,-139.76 480.92,-132.9"/>
</g>
<!-- Node9 -->
<g id="node9" class="node">
<title>Node9</title>
<g id="a_node9"><a xlink:href="slrSat_8cpp.html" target="_top" xlink:title=" ">
<polygon fill="white" stroke="black" points="783.5,-67.5 783.5,-97.5 882.5,-97.5 882.5,-67.5 783.5,-67.5"/>
<text text-anchor="start" x="791.5" y="-85.5" font-family="Helvetica,sans-Serif" font-size="10.00">/ginan/src/cpp/slr</text>
<text text-anchor="middle" x="833" y="-74.5" font-family="Helvetica,sans-Serif" font-size="10.00">/slrSat.cpp</text>
</a>
</g>
</g>
<!-- Node1&#45;&gt;Node9 -->
<g id="edge9" class="edge">
<title>Node1&#45;&gt;Node9</title>
<path fill="none" stroke="midnightblue" d="M481.69,-141.86C552.14,-133.59 672.65,-118.06 775,-98 777.75,-97.46 780.57,-96.87 783.4,-96.26"/>
<polygon fill="midnightblue" stroke="midnightblue" points="481.2,-138.39 471.67,-143.03 482.01,-145.35 481.2,-138.39"/>
</g>
<!-- Node2&#45;&gt;Node3 -->
<g id="edge2" class="edge">
<title>Node2&#45;&gt;Node3</title>
<path fill="none" stroke="midnightblue" d="M80.81,-59.16C87.52,-49.68 95.13,-38.92 101.04,-30.58"/>
<polygon fill="midnightblue" stroke="midnightblue" points="77.9,-57.21 74.98,-67.4 83.62,-61.26 77.9,-57.21"/>
</g>
</g>
</svg>
        <g id="navigator" transform="translate(0 0)" fill="#404254">
                <rect fill="#f2f5e9" fill-opacity="0.5" stroke="#606060" stroke-width=".5" x="0" y="0" width="60" height="60"/>
                <use id="zoomplus" xlink:href="#zoomPlus" x="17" y="9" onmousedown="handleZoom(evt,'in')"/>
                <use id="zoomminus" xlink:href="#zoomMin" x="42" y="9" onmousedown="handleZoom(evt,'out')"/>
                <use id="reset" xlink:href="#resetDef" x="30" y="36" onmousedown="handleReset()"/>
                <g id="arrowUp" xlink:href="#dirArrow" transform="translate(30 24)" onmousedown="handlePan(0,-1)">
                  <use xlink:href="#rim" fill="#404040">
                        <set attributeName="fill" to="#808080" begin="arrowUp.mouseover" end="arrowUp.mouseout"/>
                  </use>
                  <path fill="none" stroke="white" stroke-width="1.5" d="M0,-3.0v7 M-2.5,-0.5L0,-3.0L2.5,-0.5"/>
                </g>
                <g id="arrowRight" xlink:href="#dirArrow" transform="rotate(90) translate(36 -43)" onmousedown="handlePan(1,0)">
                  <use xlink:href="#rim" fill="#404040">
                        <set attributeName="fill" to="#808080" begin="arrowRight.mouseover" end="arrowRight.mouseout"/>
                  </use>
                  <path fill="none" stroke="white" stroke-width="1.5" d="M0,-3.0v7 M-2.5,-0.5L0,-3.0L2.5,-0.5"/>
                </g>
                <g id="arrowDown" xlink:href="#dirArrow" transform="rotate(180) translate(-30 -48)" onmousedown="handlePan(0,1)">
                  <use xlink:href="#rim" fill="#404040">
                        <set attributeName="fill" to="#808080" begin="arrowDown.mouseover" end="arrowDown.mouseout"/>
                  </use>
                  <path fill="none" stroke="white" stroke-width="1.5" d="M0,-3.0v7 M-2.5,-0.5L0,-3.0L2.5,-0.5"/>
                </g>
                <g id="arrowLeft" xlink:href="#dirArrow" transform="rotate(270) translate(-36 17)" onmousedown="handlePan(-1,0)">
                  <use xlink:href="#rim" fill="#404040">
                        <set attributeName="fill" to="#808080" begin="arrowLeft.mouseover" end="arrowLeft.mouseout"/>
                  </use>
                  <path fill="none" stroke="white" stroke-width="1.5" d="M0,-3.0v7 M-2.5,-0.5L0,-3.0L2.5,-0.5"/>
                </g>
        </g>
        <svg viewBox="0 0 15 15" width="100%" height="30px" preserveAspectRatio="xMaxYMin meet">
         <g id="arrow_out" transform="scale(0.3 0.3)">
          <a xlink:href="slr_8hpp__dep__incl_org.svg" target="_base">
           <rect id="button" ry="5" rx="5" y="6" x="6" height="38" width="38"
                fill="#f2f5e9" fill-opacity="0.5" stroke="#606060" stroke-width="1.0"/>
           <path id="arrow"
             d="M 11.500037,31.436501 C 11.940474,20.09759 22.043105,11.32322 32.158766,21.979434 L 37.068811,17.246167 C 37.068811,17.246167 37.088388,32 37.088388,32 L 22.160133,31.978069 C 22.160133,31.978069 26.997745,27.140456 26.997745,27.140456 C 18.528582,18.264221 13.291696,25.230495 11.500037,31.436501 z"
             style="fill:#404040;"/>
          </a>
         </g>
        </svg>
</svg>
