<?xml version="1.0" encoding="UTF-8" standalone="no"?>
<!DOCTYPE svg PUBLIC "-//W3C//DTD SVG 1.1//EN"
 "http://www.w3.org/Graphics/SVG/1.1/DTD/svg11.dtd">
<!-- Generated by graphviz version 2.43.0 (0)
 -->
<!-- Title: readSlrObs Pages: 1 -->
<svg width="208pt" height="66pt"
 viewBox="0.00 0.00 208.00 66.00" xmlns="http://www.w3.org/2000/svg" xmlns:xlink="http://www.w3.org/1999/xlink">
<g id="graph0" class="graph" transform="scale(1 1) rotate(0) translate(4 62)">
<title>readSlrObs</title>
<polygon fill="white" stroke="transparent" points="-4,4 -4,-62 204,-62 204,4 -4,4"/>
<!-- Node1 -->
<g id="node1" class="node">
<title>Node1</title>
<g id="a_node1"><a xlink:title="Read one obs record from tabular slr obs file.">
<polygon fill="#bfbfbf" stroke="black" points="0,-19.5 0,-38.5 70,-38.5 70,-19.5 0,-19.5"/>
<text text-anchor="middle" x="35" y="-26.5" font-family="Helvetica,sans-Serif" font-size="10.00">readSlrObs</text>
</a>
</g>
</g>
<!-- Node2 -->
<g id="node2" class="node">
<title>Node2</title>
<g id="a_node2"><a xlink:href="slrObs_8cpp.html#a4c3ed56472d893fdf8be7e463eaa3758" target="_top" xlink:title="Converts from ILRS ID (condensed version of COSPAR ID) to COSPAR ID COSPAR ID to ILRS Satellite Ident...">
<polygon fill="white" stroke="red" points="106,-38.5 106,-57.5 200,-57.5 200,-38.5 106,-38.5"/>
<text text-anchor="middle" x="153" y="-45.5" font-family="Helvetica,sans-Serif" font-size="10.00">ilrsIdToCosparId</text>
</a>
</g>
</g>
<!-- Node1&#45;&gt;Node2 -->
<g id="edge1" class="edge">
<title>Node1&#45;&gt;Node2</title>
<path fill="none" stroke="midnightblue" d="M70.18,-34.6C81.27,-36.41 93.77,-38.46 105.6,-40.4"/>
</g>
<!-- Node4 -->
<g id="node3" class="node">
<title>Node4</title>
<g id="a_node3"><a xlink:href="slrObs_8cpp.html#ad77fb0acc7b2f1cc833f9a9856d9f0d3" target="_top" xlink:title="Converts from ILRS ID to SatSys object.">
<polygon fill="white" stroke="black" points="111,-0.5 111,-19.5 195,-19.5 195,-0.5 111,-0.5"/>
<text text-anchor="middle" x="153" y="-7.5" font-family="Helvetica,sans-Serif" font-size="10.00">ilrsIdToSatSys</text>
</a>
</g>
</g>
<!-- Node1&#45;&gt;Node4 -->
<g id="edge2" class="edge">
<title>Node1&#45;&gt;Node4</title>
<path fill="none" stroke="midnightblue" d="M70.18,-23.4C82.87,-21.32 97.42,-18.94 110.68,-16.77"/>
</g>
</g>
</svg>
