<?xml version="1.0" encoding="UTF-8" standalone="no"?>
<!DOCTYPE svg PUBLIC "-//W3C//DTD SVG 1.1//EN"
 "http://www.w3.org/Graphics/SVG/1.1/DTD/svg11.dtd">
<!-- Generated by graphviz version 2.43.0 (0)
 -->
<!-- Title: ilrsIdToSatSys Pages: 1 -->
<svg width="198pt" height="66pt"
 viewBox="0.00 0.00 198.00 66.00" xmlns="http://www.w3.org/2000/svg" xmlns:xlink="http://www.w3.org/1999/xlink">
<g id="graph0" class="graph" transform="scale(1 1) rotate(0) translate(4 62)">
<title>ilrsIdToSatSys</title>
<polygon fill="white" stroke="transparent" points="-4,4 -4,-62 194,-62 194,4 -4,4"/>
<!-- Node1 -->
<g id="node1" class="node">
<title>Node1</title>
<g id="a_node1"><a xlink:title="Converts from ILRS ID to SatSys object.">
<polygon fill="#bfbfbf" stroke="black" points="106,-19.5 106,-38.5 190,-38.5 190,-19.5 106,-19.5"/>
<text text-anchor="middle" x="148" y="-26.5" font-family="Helvetica,sans-Serif" font-size="10.00">ilrsIdToSatSys</text>
</a>
</g>
</g>
<!-- Node2 -->
<g id="node2" class="node">
<title>Node2</title>
<g id="a_node2"><a xlink:href="slrObs_8cpp.html#a38ee0a5d01fed7dee3c29841ca02b54a" target="_top" xlink:title="Extracts observations from a given CRD (.npt) file.">
<polygon fill="white" stroke="red" points="7.5,-38.5 7.5,-57.5 62.5,-57.5 62.5,-38.5 7.5,-38.5"/>
<text text-anchor="middle" x="35" y="-45.5" font-family="Helvetica,sans-Serif" font-size="10.00">readCrd</text>
</a>
</g>
</g>
<!-- Node1&#45;&gt;Node2 -->
<g id="edge1" class="edge">
<title>Node1&#45;&gt;Node2</title>
<path fill="none" stroke="midnightblue" d="M105.98,-36.02C91.53,-38.49 75.67,-41.21 62.71,-43.43"/>
</g>
<!-- Node7 -->
<g id="node3" class="node">
<title>Node7</title>
<g id="a_node3"><a xlink:href="slrObs_8cpp.html#ace930bf70906d9d523b50c373ef1115a" target="_top" xlink:title="Read one obs record from tabular slr obs file.">
<polygon fill="white" stroke="red" points="0,-0.5 0,-19.5 70,-19.5 70,-0.5 0,-0.5"/>
<text text-anchor="middle" x="35" y="-7.5" font-family="Helvetica,sans-Serif" font-size="10.00">readSlrObs</text>
</a>
</g>
</g>
<!-- Node1&#45;&gt;Node7 -->
<g id="edge2" class="edge">
<title>Node1&#45;&gt;Node7</title>
<path fill="none" stroke="midnightblue" d="M105.98,-21.98C94.25,-19.97 81.59,-17.8 70.3,-15.87"/>
</g>
</g>
</svg>
