<?xml version="1.0" encoding="UTF-8" standalone="no"?>
<!DOCTYPE svg PUBLIC "-//W3C//DTD SVG 1.1//EN"
 "http://www.w3.org/Graphics/SVG/1.1/DTD/svg11.dtd">
<!-- Generated by graphviz version 2.43.0 (0)
 -->
<!-- Title: ilrsIdToCosparId Pages: 1 -->
<svg width="208pt" height="66pt"
 viewBox="0.00 0.00 208.00 66.00" xmlns="http://www.w3.org/2000/svg" xmlns:xlink="http://www.w3.org/1999/xlink">
<g id="graph0" class="graph" transform="scale(1 1) rotate(0) translate(4 62)">
<title>ilrsIdToCosparId</title>
<polygon fill="white" stroke="transparent" points="-4,4 -4,-62 204,-62 204,4 -4,4"/>
<!-- Node1 -->
<g id="node1" class="node">
<title>Node1</title>
<g id="a_node1"><a xlink:title="Converts from ILRS ID (condensed version of COSPAR ID) to COSPAR ID COSPAR ID to ILRS Satellite Ident...">
<polygon fill="#bfbfbf" stroke="black" points="106,-19.5 106,-38.5 200,-38.5 200,-19.5 106,-19.5"/>
<text text-anchor="middle" x="153" y="-26.5" font-family="Helvetica,sans-Serif" font-size="10.00">ilrsIdToCosparId</text>
</a>
</g>
</g>
<!-- Node2 -->
<g id="node2" class="node">
<title>Node2</title>
<g id="a_node2"><a xlink:href="slrObs_8cpp.html#a38ee0a5d01fed7dee3c29841ca02b54a" target="_top" xlink:title="Extracts observations from a given CRD (.npt) file.">
<polygon fill="white" stroke="red" points="7.5,-38.5 7.5,-57.5 62.5,-57.5 62.5,-38.5 7.5,-38.5"/>
<text text-anchor="middle" x="35" y="-45.5" font-family="Helvetica,sans-Serif" font-size="10.00">readCrd</text>
</a>
</g>
</g>
<!-- Node1&#45;&gt;Node2 -->
<g id="edge1" class="edge">
<title>Node1&#45;&gt;Node2</title>
<path fill="none" stroke="midnightblue" d="M105.82,-36.56C91.16,-38.96 75.45,-41.54 62.65,-43.63"/>
</g>
<!-- Node7 -->
<g id="node3" class="node">
<title>Node7</title>
<g id="a_node3"><a xlink:href="slrObs_8cpp.html#ace930bf70906d9d523b50c373ef1115a" target="_top" xlink:title="Read one obs record from tabular slr obs file.">
<polygon fill="white" stroke="red" points="0,-0.5 0,-19.5 70,-19.5 70,-0.5 0,-0.5"/>
<text text-anchor="middle" x="35" y="-7.5" font-family="Helvetica,sans-Serif" font-size="10.00">readSlrObs</text>
</a>
</g>
</g>
<!-- Node1&#45;&gt;Node7 -->
<g id="edge2" class="edge">
<title>Node1&#45;&gt;Node7</title>
<path fill="none" stroke="midnightblue" d="M105.82,-21.44C93.94,-19.49 81.37,-17.43 70.22,-15.61"/>
</g>
</g>
</svg>
