<?xml version="1.0" encoding="UTF-8" standalone="no"?>
<!DOCTYPE svg PUBLIC "-//W3C//DTD SVG 1.1//EN"
 "http://www.w3.org/Graphics/SVG/1.1/DTD/svg11.dtd">
<!-- Generated by graphviz version 2.43.0 (0)
 -->
<!-- Title: readCrd Pages: 1 -->
<svg width="200pt" height="180pt"
 viewBox="0.00 0.00 200.00 180.00" xmlns="http://www.w3.org/2000/svg" xmlns:xlink="http://www.w3.org/1999/xlink">
<g id="graph0" class="graph" transform="scale(1 1) rotate(0) translate(4 176)">
<title>readCrd</title>
<polygon fill="white" stroke="transparent" points="-4,4 -4,-176 196,-176 196,4 -4,4"/>
<!-- Node1 -->
<g id="node1" class="node">
<title>Node1</title>
<g id="a_node1"><a xlink:title="Extracts observations from a given CRD (.npt) file.">
<polygon fill="#bfbfbf" stroke="black" points="0,-76.5 0,-95.5 55,-95.5 55,-76.5 0,-76.5"/>
<text text-anchor="middle" x="27.5" y="-83.5" font-family="Helvetica,sans-Serif" font-size="10.00">readCrd</text>
</a>
</g>
</g>
<!-- Node2 -->
<g id="node2" class="node">
<title>Node2</title>
<g id="a_node2"><a xlink:href="slrObs_8cpp.html#ae88361ee65bf03ef67183514b9d32fa5" target="_top" xlink:title="Parses a CRD file.">
<polygon fill="white" stroke="black" points="106,-152.5 106,-171.5 177,-171.5 177,-152.5 106,-152.5"/>
<text text-anchor="middle" x="141.5" y="-159.5" font-family="Helvetica,sans-Serif" font-size="10.00">readCrdFile</text>
</a>
</g>
</g>
<!-- Node1&#45;&gt;Node2 -->
<g id="edge1" class="edge">
<title>Node1&#45;&gt;Node2</title>
<path fill="none" stroke="midnightblue" d="M36.94,-95.67C48.2,-108.07 69.26,-129.58 91,-143 96.95,-146.67 103.73,-149.84 110.33,-152.48"/>
</g>
<!-- Node3 -->
<g id="node3" class="node">
<title>Node3</title>
<g id="a_node3"><a xlink:href="slrObs_8cpp.html#a4c3ed56472d893fdf8be7e463eaa3758" target="_top" xlink:title="Converts from ILRS ID (condensed version of COSPAR ID) to COSPAR ID COSPAR ID to ILRS Satellite Ident...">
<polygon fill="white" stroke="red" points="94.5,-114.5 94.5,-133.5 188.5,-133.5 188.5,-114.5 94.5,-114.5"/>
<text text-anchor="middle" x="141.5" y="-121.5" font-family="Helvetica,sans-Serif" font-size="10.00">ilrsIdToCosparId</text>
</a>
</g>
</g>
<!-- Node1&#45;&gt;Node3 -->
<g id="edge2" class="edge">
<title>Node1&#45;&gt;Node3</title>
<path fill="none" stroke="midnightblue" d="M55.04,-95.01C72.25,-100.84 94.64,-108.44 112.19,-114.39"/>
</g>
<!-- Node5 -->
<g id="node4" class="node">
<title>Node5</title>
<g id="a_node4"><a xlink:href="slrObs_8cpp.html#ad77fb0acc7b2f1cc833f9a9856d9f0d3" target="_top" xlink:title="Converts from ILRS ID to SatSys object.">
<polygon fill="white" stroke="black" points="99.5,-76.5 99.5,-95.5 183.5,-95.5 183.5,-76.5 99.5,-76.5"/>
<text text-anchor="middle" x="141.5" y="-83.5" font-family="Helvetica,sans-Serif" font-size="10.00">ilrsIdToSatSys</text>
</a>
</g>
</g>
<!-- Node1&#45;&gt;Node5 -->
<g id="edge3" class="edge">
<title>Node1&#45;&gt;Node5</title>
<path fill="none" stroke="midnightblue" d="M55.04,-86C68.24,-86 84.49,-86 99.26,-86"/>
</g>
<!-- Node6 -->
<g id="node5" class="node">
<title>Node6</title>
<g id="a_node5"><a xlink:href="gTime_8cpp.html#a42f524ddac7eb2f122e34df9a5a1f08f" target="_top" xlink:title=" ">
<polygon fill="white" stroke="red" points="104.5,-38.5 104.5,-57.5 178.5,-57.5 178.5,-38.5 104.5,-38.5"/>
<text text-anchor="middle" x="141.5" y="-45.5" font-family="Helvetica,sans-Serif" font-size="10.00">epoch2time</text>
</a>
</g>
</g>
<!-- Node1&#45;&gt;Node6 -->
<g id="edge4" class="edge">
<title>Node1&#45;&gt;Node6</title>
<path fill="none" stroke="midnightblue" d="M55.04,-76.99C72.25,-71.16 94.64,-63.56 112.19,-57.61"/>
</g>
<!-- Node9 -->
<g id="node6" class="node">
<title>Node9</title>
<g id="a_node6"><a xlink:href="slrObs_8cpp.html#a96d2aadb029b3ba1169d6c631fa62b89" target="_top" xlink:title="Convert seconds&#45;of&#45;day of an event and the start of the session encompassing the event to a GTime Ass...">
<polygon fill="white" stroke="black" points="91,-0.5 91,-19.5 192,-19.5 192,-0.5 91,-0.5"/>
<text text-anchor="middle" x="141.5" y="-7.5" font-family="Helvetica,sans-Serif" font-size="10.00">sessionSod2Time</text>
</a>
</g>
</g>
<!-- Node1&#45;&gt;Node9 -->
<g id="edge5" class="edge">
<title>Node1&#45;&gt;Node9</title>
<path fill="none" stroke="midnightblue" d="M36.94,-76.33C48.2,-63.93 69.26,-42.42 91,-29 96.95,-25.33 103.73,-22.16 110.33,-19.52"/>
</g>
</g>
</svg>
