<?xml version="1.0" encoding="UTF-8" standalone="no"?>
<!DOCTYPE svg PUBLIC "-//W3C//DTD SVG 1.1//EN"
 "http://www.w3.org/Graphics/SVG/1.1/DTD/svg11.dtd">
<!-- Generated by graphviz version 2.43.0 (0)
 -->
<!-- Title: updateSp3Body Pages: 1 -->
<svg width="247pt" height="66pt"
 viewBox="0.00 0.00 247.00 66.00" xmlns="http://www.w3.org/2000/svg" xmlns:xlink="http://www.w3.org/1999/xlink">
<g id="graph0" class="graph" transform="scale(1 1) rotate(0) translate(4 62)">
<title>updateSp3Body</title>
<polygon fill="white" stroke="transparent" points="-4,4 -4,-62 243,-62 243,4 -4,4"/>
<!-- Node1 -->
<g id="node1" class="node">
<title>Node1</title>
<g id="a_node1"><a xlink:title=" ">
<polygon fill="#bfbfbf" stroke="black" points="146,-19.5 146,-38.5 239,-38.5 239,-19.5 146,-19.5"/>
<text text-anchor="middle" x="192.5" y="-26.5" font-family="Helvetica,sans-Serif" font-size="10.00">updateSp3Body</text>
</a>
</g>
</g>
<!-- Node2 -->
<g id="node2" class="node">
<title>Node2</title>
<g id="a_node2"><a xlink:href="sp3Write_8cpp.html#a63449e78bf1e8eb81fdd0486adf37cb2" target="_top" xlink:title=" ">
<polygon fill="white" stroke="red" points="9,-38.5 9,-57.5 101,-57.5 101,-38.5 9,-38.5"/>
<text text-anchor="middle" x="55" y="-45.5" font-family="Helvetica,sans-Serif" font-size="10.00">writeSysSetSp3</text>
</a>
</g>
</g>
<!-- Node1&#45;&gt;Node2 -->
<g id="edge1" class="edge">
<title>Node1&#45;&gt;Node2</title>
<path fill="none" stroke="midnightblue" d="M135.38,-36.87C124.05,-38.46 112.27,-40.11 101.37,-41.64"/>
<polygon fill="midnightblue" stroke="midnightblue" points="136.21,-40.29 145.63,-35.43 135.24,-33.36 136.21,-40.29"/>
</g>
<!-- Node12 -->
<g id="node3" class="node">
<title>Node12</title>
<g id="a_node3"><a xlink:href="sp3Write_8cpp.html#a4b1d20154c3982bbbe24760f2a54c99a" target="_top" xlink:title=" ">
<polygon fill="white" stroke="red" points="0,-0.5 0,-19.5 110,-19.5 110,-0.5 0,-0.5"/>
<text text-anchor="middle" x="55" y="-7.5" font-family="Helvetica,sans-Serif" font-size="10.00">outputMongoOrbits</text>
</a>
</g>
</g>
<!-- Node1&#45;&gt;Node12 -->
<g id="edge2" class="edge">
<title>Node1&#45;&gt;Node12</title>
<path fill="none" stroke="midnightblue" d="M135.58,-21.16C127.21,-19.99 118.59,-18.78 110.26,-17.61"/>
<polygon fill="midnightblue" stroke="midnightblue" points="135.24,-24.64 145.63,-22.57 136.21,-17.71 135.24,-24.64"/>
</g>
</g>
</svg>
