<?xml version="1.0" encoding="UTF-8" standalone="no"?>
<!DOCTYPE svg PUBLIC "-//W3C//DTD SVG 1.1//EN"
 "http://www.w3.org/Graphics/SVG/1.1/DTD/svg11.dtd">
<!-- Generated by graphviz version 2.43.0 (0)
 -->
<!-- Title: outputSp3 Pages: 1 -->
<svg width="501pt" height="294pt"
 viewBox="0.00 0.00 501.00 294.00" xmlns="http://www.w3.org/2000/svg" xmlns:xlink="http://www.w3.org/1999/xlink">
<g id="graph0" class="graph" transform="scale(1 1) rotate(0) translate(4 290)">
<title>outputSp3</title>
<polygon fill="white" stroke="transparent" points="-4,4 -4,-290 497,-290 497,4 -4,4"/>
<!-- Node1 -->
<g id="node1" class="node">
<title>Node1</title>
<g id="a_node1"><a xlink:title=" ">
<polygon fill="#bfbfbf" stroke="black" points="0,-133.5 0,-152.5 66,-152.5 66,-133.5 0,-133.5"/>
<text text-anchor="middle" x="33" y="-140.5" font-family="Helvetica,sans-Serif" font-size="10.00">outputSp3</text>
</a>
</g>
</g>
<!-- Node2 -->
<g id="node2" class="node">
<title>Node2</title>
<g id="a_node2"><a xlink:href="rinexClkWrite_8cpp.html#ae105b449da2c0d5e0ce91380d3b6907b" target="_top" xlink:title=" ">
<polygon fill="white" stroke="black" points="102,-190.5 102,-209.5 234,-209.5 234,-190.5 102,-190.5"/>
<text text-anchor="middle" x="168" y="-197.5" font-family="Helvetica,sans-Serif" font-size="10.00">getSysOutputFilenames</text>
</a>
</g>
</g>
<!-- Node1&#45;&gt;Node2 -->
<g id="edge1" class="edge">
<title>Node1&#45;&gt;Node2</title>
<path fill="none" stroke="midnightblue" d="M56.26,-152.54C80.81,-163.06 120.09,-179.89 144.67,-190.43"/>
</g>
<!-- Node7 -->
<g id="node7" class="node">
<title>Node7</title>
<g id="a_node7"><a xlink:href="sp3Write_8cpp.html#a53c4eda35c9ccdfe9aa683fb0272c8c0" target="_top" xlink:title=" ">
<polygon fill="white" stroke="black" points="122,-76.5 122,-95.5 214,-95.5 214,-76.5 122,-76.5"/>
<text text-anchor="middle" x="168" y="-83.5" font-family="Helvetica,sans-Serif" font-size="10.00">writeSysSetSp3</text>
</a>
</g>
</g>
<!-- Node1&#45;&gt;Node7 -->
<g id="edge7" class="edge">
<title>Node1&#45;&gt;Node7</title>
<path fill="none" stroke="midnightblue" d="M56.26,-133.46C80.81,-122.94 120.09,-106.11 144.67,-95.57"/>
</g>
<!-- Node3 -->
<g id="node3" class="node">
<title>Node3</title>
<g id="a_node3"><a xlink:href="structGTime.html#a7ed28cc28b05a43069702e96295be269" target="_top" xlink:title=" ">
<polygon fill="white" stroke="black" points="270,-266.5 270,-285.5 376,-285.5 376,-266.5 270,-266.5"/>
<text text-anchor="middle" x="323" y="-273.5" font-family="Helvetica,sans-Serif" font-size="10.00">GTime::roundTime</text>
</a>
</g>
</g>
<!-- Node2&#45;&gt;Node3 -->
<g id="edge2" class="edge">
<title>Node2&#45;&gt;Node3</title>
<path fill="none" stroke="midnightblue" d="M187.13,-209.63C207.25,-220.25 240.75,-237.73 270,-252 280.01,-256.88 291.21,-262.09 300.65,-266.4"/>
</g>
<!-- Node4 -->
<g id="node4" class="node">
<title>Node4</title>
<g id="a_node4"><a xlink:href="acsConfig_8cpp.html#a611c3086ccdeb877c19a6b1d603227a4" target="_top" xlink:title="search for and replace section of string">
<polygon fill="white" stroke="black" points="412,-209.5 412,-228.5 493,-228.5 493,-209.5 412,-209.5"/>
<text text-anchor="middle" x="452.5" y="-216.5" font-family="Helvetica,sans-Serif" font-size="10.00">replaceString</text>
</a>
</g>
</g>
<!-- Node2&#45;&gt;Node4 -->
<g id="edge3" class="edge">
<title>Node2&#45;&gt;Node4</title>
<path fill="none" stroke="midnightblue" d="M210.03,-209.51C228.28,-213.28 250.1,-217.14 270,-219 318.63,-223.53 374.91,-222.58 411.75,-221.12"/>
</g>
<!-- Node5 -->
<g id="node5" class="node">
<title>Node5</title>
<g id="a_node5"><a xlink:href="acsConfig_8cpp.html#a75a34dc41e76a8680e3aa6d62ff4c800" target="_top" xlink:title="Replace macros for times with numeric values.">
<polygon fill="white" stroke="black" points="282,-190.5 282,-209.5 364,-209.5 364,-190.5 282,-190.5"/>
<text text-anchor="middle" x="323" y="-197.5" font-family="Helvetica,sans-Serif" font-size="10.00">replaceTimes</text>
</a>
</g>
</g>
<!-- Node2&#45;&gt;Node5 -->
<g id="edge4" class="edge">
<title>Node2&#45;&gt;Node5</title>
<path fill="none" stroke="midnightblue" d="M234.33,-200C250.41,-200 267.17,-200 281.67,-200"/>
</g>
<!-- Node6 -->
<g id="node6" class="node">
<title>Node6</title>
<g id="a_node6"><a xlink:href="structSatSys.html#abfd7e43b0d57c2718d05ca595ee360dd" target="_top" xlink:title="Returns the character used as a prefix for this system.">
<polygon fill="white" stroke="black" points="275.5,-152.5 275.5,-171.5 370.5,-171.5 370.5,-152.5 275.5,-152.5"/>
<text text-anchor="middle" x="323" y="-159.5" font-family="Helvetica,sans-Serif" font-size="10.00">SatSys::sysChar</text>
</a>
</g>
</g>
<!-- Node2&#45;&gt;Node6 -->
<g id="edge6" class="edge">
<title>Node2&#45;&gt;Node6</title>
<path fill="none" stroke="midnightblue" d="M207.61,-190.41C230.89,-184.63 260.44,-177.29 283.67,-171.52"/>
</g>
<!-- Node5&#45;&gt;Node4 -->
<g id="edge5" class="edge">
<title>Node5&#45;&gt;Node4</title>
<path fill="none" stroke="midnightblue" d="M364.34,-206.01C379.52,-208.27 396.75,-210.84 411.86,-213.09"/>
</g>
<!-- Node8 -->
<g id="node8" class="node">
<title>Node8</title>
<g id="a_node8"><a xlink:href="structSatSys.html#aa31d14f6b8c2100c085c732b9a3fef3f" target="_top" xlink:title="Constructs a SatSys object from it&#39;s hash uid.">
<polygon fill="white" stroke="black" points="271,-114.5 271,-133.5 375,-133.5 375,-114.5 271,-114.5"/>
<text text-anchor="middle" x="323" y="-121.5" font-family="Helvetica,sans-Serif" font-size="10.00">SatSys::fromHash</text>
</a>
</g>
</g>
<!-- Node7&#45;&gt;Node8 -->
<g id="edge8" class="edge">
<title>Node7&#45;&gt;Node8</title>
<path fill="none" stroke="midnightblue" d="M207.61,-95.59C230.89,-101.37 260.44,-108.71 283.67,-114.48"/>
</g>
<!-- Node9 -->
<g id="node9" class="node">
<title>Node9</title>
<g id="a_node9"><a xlink:href="ephemeris_8cpp.html#a00df4213eb6f901bcb5928f44a24bd4d" target="_top" xlink:title=" ">
<polygon fill="white" stroke="red" points="298.5,-76.5 298.5,-95.5 347.5,-95.5 347.5,-76.5 298.5,-76.5"/>
<text text-anchor="middle" x="323" y="-83.5" font-family="Helvetica,sans-Serif" font-size="10.00">satpos</text>
</a>
</g>
</g>
<!-- Node7&#45;&gt;Node9 -->
<g id="edge9" class="edge">
<title>Node7&#45;&gt;Node9</title>
<path fill="none" stroke="midnightblue" d="M214.08,-86C241.76,-86 276.08,-86 298.48,-86"/>
</g>
<!-- Node14 -->
<g id="node10" class="node">
<title>Node14</title>
<g id="a_node10"><a xlink:href="structSatSys.html#aec6d07b90d1e8172b8b6a6966abef4fd" target="_top" xlink:title="Returns a std::string of this satellite&#39;s id.">
<polygon fill="white" stroke="red" points="420,-57.5 420,-76.5 485,-76.5 485,-57.5 420,-57.5"/>
<text text-anchor="middle" x="452.5" y="-64.5" font-family="Helvetica,sans-Serif" font-size="10.00">SatSys::id</text>
</a>
</g>
</g>
<!-- Node7&#45;&gt;Node14 -->
<g id="edge11" class="edge">
<title>Node7&#45;&gt;Node14</title>
<path fill="none" stroke="midnightblue" d="M210.03,-76.49C228.28,-72.72 250.1,-68.86 270,-67 322.4,-62.11 383.67,-63.6 419.94,-65.23"/>
</g>
<!-- Node59 -->
<g id="node11" class="node">
<title>Node59</title>
<g id="a_node11"><a xlink:href="sp3Write_8cpp.html#ad7758ef92662b89e46d4a9650eb3a840" target="_top" xlink:title=" ">
<polygon fill="white" stroke="red" points="276.5,-0.5 276.5,-19.5 369.5,-19.5 369.5,-0.5 276.5,-0.5"/>
<text text-anchor="middle" x="323" y="-7.5" font-family="Helvetica,sans-Serif" font-size="10.00">updateSp3Body</text>
</a>
</g>
</g>
<!-- Node7&#45;&gt;Node59 -->
<g id="edge12" class="edge">
<title>Node7&#45;&gt;Node59</title>
<path fill="none" stroke="midnightblue" d="M187.13,-76.37C207.25,-65.75 240.75,-48.27 270,-34 280.01,-29.12 291.21,-23.91 300.65,-19.6"/>
</g>
<!-- Node9&#45;&gt;Node14 -->
<g id="edge10" class="edge">
<title>Node9&#45;&gt;Node14</title>
<path fill="none" stroke="midnightblue" d="M347.68,-82.47C367.99,-79.44 397.42,-75.06 419.77,-71.73"/>
</g>
</g>
</svg>
