<?xml version="1.0" encoding="UTF-8" standalone="no"?>
<!DOCTYPE svg PUBLIC "-//W3C//DTD SVG 1.1//EN"
 "http://www.w3.org/Graphics/SVG/1.1/DTD/svg11.dtd">
<!-- Generated by graphviz version 2.43.0 (0)
 -->
<!-- Title: outputMongoOrbits Pages: 1 -->
<svg width="287pt" height="180pt"
 viewBox="0.00 0.00 287.00 180.00" xmlns="http://www.w3.org/2000/svg" xmlns:xlink="http://www.w3.org/1999/xlink">
<g id="graph0" class="graph" transform="scale(1 1) rotate(0) translate(4 176)">
<title>outputMongoOrbits</title>
<polygon fill="white" stroke="transparent" points="-4,4 -4,-176 283,-176 283,4 -4,4"/>
<!-- Node1 -->
<g id="node1" class="node">
<title>Node1</title>
<g id="a_node1"><a xlink:title=" ">
<polygon fill="#bfbfbf" stroke="black" points="0,-76.5 0,-95.5 110,-95.5 110,-76.5 0,-76.5"/>
<text text-anchor="middle" x="55" y="-83.5" font-family="Helvetica,sans-Serif" font-size="10.00">outputMongoOrbits</text>
</a>
</g>
</g>
<!-- Node2 -->
<g id="node2" class="node">
<title>Node2</title>
<g id="a_node2"><a xlink:href="mongoRead_8cpp.html#acc3745f00943d5fe7be9f20e51afe4b2" target="_top" xlink:title=" ">
<polygon fill="white" stroke="red" points="160.5,-152.5 160.5,-171.5 264.5,-171.5 264.5,-152.5 160.5,-152.5"/>
<text text-anchor="middle" x="212.5" y="-159.5" font-family="Helvetica,sans-Serif" font-size="10.00">mongoReadOrbits</text>
</a>
</g>
</g>
<!-- Node1&#45;&gt;Node2 -->
<g id="edge1" class="edge">
<title>Node1&#45;&gt;Node2</title>
<path fill="none" stroke="midnightblue" d="M68.47,-95.51C85.27,-107.95 116.49,-129.7 146,-143 151.06,-145.28 156.46,-147.36 161.91,-149.24"/>
<polygon fill="midnightblue" stroke="midnightblue" points="161.12,-152.67 171.71,-152.41 163.27,-146 161.12,-152.67"/>
</g>
<!-- Node7 -->
<g id="node3" class="node">
<title>Node7</title>
<g id="a_node3"><a xlink:href="mongoRead_8cpp.html#a5a91b2a33cd6a33846627881ccbf9580" target="_top" xlink:title=" ">
<polygon fill="white" stroke="red" points="159,-114.5 159,-133.5 266,-133.5 266,-114.5 159,-114.5"/>
<text text-anchor="middle" x="212.5" y="-121.5" font-family="Helvetica,sans-Serif" font-size="10.00">mongoReadClocks</text>
</a>
</g>
</g>
<!-- Node1&#45;&gt;Node7 -->
<g id="edge2" class="edge">
<title>Node1&#45;&gt;Node7</title>
<path fill="none" stroke="midnightblue" d="M95.24,-95.59C115.76,-100.6 141.07,-106.79 162.83,-112.11"/>
<polygon fill="midnightblue" stroke="midnightblue" points="162,-115.51 172.54,-114.48 163.66,-108.71 162,-115.51"/>
</g>
<!-- Node8 -->
<g id="node4" class="node">
<title>Node8</title>
<g id="a_node4"><a xlink:href="rinexClkWrite_8cpp.html#a87a652e05ec91c35c1e56c0650176dfa" target="_top" xlink:title=" ">
<polygon fill="white" stroke="red" points="146,-76.5 146,-95.5 279,-95.5 279,-76.5 146,-76.5"/>
<text text-anchor="middle" x="212.5" y="-83.5" font-family="Helvetica,sans-Serif" font-size="10.00">getSysOutputFilenames</text>
</a>
</g>
</g>
<!-- Node1&#45;&gt;Node8 -->
<g id="edge3" class="edge">
<title>Node1&#45;&gt;Node8</title>
<path fill="none" stroke="midnightblue" d="M110.39,-86C118.63,-86 127.27,-86 135.86,-86"/>
<polygon fill="midnightblue" stroke="midnightblue" points="135.92,-89.5 145.92,-86 135.92,-82.5 135.92,-89.5"/>
</g>
<!-- Node12 -->
<g id="node5" class="node">
<title>Node12</title>
<g id="a_node5"><a xlink:href="erp_8cpp.html#a6c6ecf3c5c7d4367d78ad08621996580" target="_top" xlink:title="Get earth rotation parameter values.">
<polygon fill="white" stroke="red" points="188.5,-38.5 188.5,-57.5 236.5,-57.5 236.5,-38.5 188.5,-38.5"/>
<text text-anchor="middle" x="212.5" y="-45.5" font-family="Helvetica,sans-Serif" font-size="10.00">getErp</text>
</a>
</g>
</g>
<!-- Node1&#45;&gt;Node12 -->
<g id="edge4" class="edge">
<title>Node1&#45;&gt;Node12</title>
<path fill="none" stroke="midnightblue" d="M95.24,-76.41C120.9,-70.14 154.06,-62.04 178.39,-56.09"/>
<polygon fill="midnightblue" stroke="midnightblue" points="179.35,-59.46 188.23,-53.69 177.69,-52.66 179.35,-59.46"/>
</g>
<!-- Node29 -->
<g id="node6" class="node">
<title>Node29</title>
<g id="a_node6"><a xlink:href="sp3Write_8cpp.html#a8d1cb9bcd5108e738006c608421f1a98" target="_top" xlink:title=" ">
<polygon fill="white" stroke="red" points="166,-0.5 166,-19.5 259,-19.5 259,-0.5 166,-0.5"/>
<text text-anchor="middle" x="212.5" y="-7.5" font-family="Helvetica,sans-Serif" font-size="10.00">updateSp3Body</text>
</a>
</g>
</g>
<!-- Node1&#45;&gt;Node29 -->
<g id="edge5" class="edge">
<title>Node1&#45;&gt;Node29</title>
<path fill="none" stroke="midnightblue" d="M68.47,-76.49C85.27,-64.05 116.49,-42.3 146,-29 151.06,-26.72 156.46,-24.64 161.91,-22.76"/>
<polygon fill="midnightblue" stroke="midnightblue" points="163.27,-26 171.71,-19.59 161.12,-19.33 163.27,-26"/>
</g>
</g>
</svg>
