<?xml version="1.0" encoding="UTF-8" standalone="no"?>
<!DOCTYPE svg PUBLIC "-//W3C//DTD SVG 1.1//EN"
 "http://www.w3.org/Graphics/SVG/1.1/DTD/svg11.dtd">
<!-- Generated by graphviz version 2.43.0 (0)
 -->
<!-- Title: /ginan/src/cpp/common/ssr.hpp Pages: 1 -->
<svg width="1024pt" height="173pt"
 viewBox="0.00 0.00 1023.50 173.00" xmlns="http://www.w3.org/2000/svg" xmlns:xlink="http://www.w3.org/1999/xlink">
<g id="graph0" class="graph" transform="scale(1 1) rotate(0) translate(4 169)">
<title>/ginan/src/cpp/common/ssr.hpp</title>
<polygon fill="white" stroke="transparent" points="-4,4 -4,-169 1019.5,-169 1019.5,4 -4,4"/>
<!-- Node1 -->
<g id="node1" class="node">
<title>Node1</title>
<g id="a_node1"><a xlink:title=" ">
<polygon fill="#bfbfbf" stroke="black" points="439,-134.5 439,-164.5 569,-164.5 569,-134.5 439,-134.5"/>
<text text-anchor="start" x="447" y="-152.5" font-family="Helvetica,sans-Serif" font-size="10.00">/ginan/src/cpp/common</text>
<text text-anchor="middle" x="504" y="-141.5" font-family="Helvetica,sans-Serif" font-size="10.00">/ssr.hpp</text>
</a>
</g>
</g>
<!-- Node2 -->
<g id="node2" class="node">
<title>Node2</title>
<g id="a_node2"><a xlink:href="debug_8cpp.html" target="_top" xlink:title=" ">
<polygon fill="white" stroke="black" points="0,-0.5 0,-30.5 130,-30.5 130,-0.5 0,-0.5"/>
<text text-anchor="start" x="8" y="-18.5" font-family="Helvetica,sans-Serif" font-size="10.00">/ginan/src/cpp/common</text>
<text text-anchor="middle" x="65" y="-7.5" font-family="Helvetica,sans-Serif" font-size="10.00">/debug.cpp</text>
</a>
</g>
</g>
<!-- Node1&#45;&gt;Node2 -->
<g id="edge1" class="edge">
<title>Node1&#45;&gt;Node2</title>
<path fill="none" stroke="midnightblue" d="M428.72,-139.38C374.75,-131.6 300.79,-118.39 238,-98 182.9,-80.11 122.53,-48.74 89.68,-30.58"/>
<polygon fill="midnightblue" stroke="midnightblue" points="428.51,-142.89 438.9,-140.82 429.48,-135.96 428.51,-142.89"/>
</g>
<!-- Node3 -->
<g id="node3" class="node">
<title>Node3</title>
<g id="a_node3"><a xlink:href="ephSSR_8cpp.html" target="_top" xlink:title=" ">
<polygon fill="white" stroke="black" points="148,-0.5 148,-30.5 278,-30.5 278,-0.5 148,-0.5"/>
<text text-anchor="start" x="156" y="-18.5" font-family="Helvetica,sans-Serif" font-size="10.00">/ginan/src/cpp/common</text>
<text text-anchor="middle" x="213" y="-7.5" font-family="Helvetica,sans-Serif" font-size="10.00">/ephSSR.cpp</text>
</a>
</g>
</g>
<!-- Node1&#45;&gt;Node3 -->
<g id="edge2" class="edge">
<title>Node1&#45;&gt;Node3</title>
<path fill="none" stroke="midnightblue" d="M428.77,-145.5C380.88,-140.5 319.37,-128.1 273,-98 247.21,-81.26 228.64,-49.32 219.47,-30.79"/>
<polygon fill="midnightblue" stroke="midnightblue" points="428.48,-148.99 438.77,-146.46 429.15,-142.02 428.48,-148.99"/>
</g>
<!-- Node4 -->
<g id="node4" class="node">
<title>Node4</title>
<g id="a_node4"><a xlink:href="ephemeris_8cpp.html" target="_top" xlink:title=" ">
<polygon fill="white" stroke="black" points="296,-0.5 296,-30.5 426,-30.5 426,-0.5 296,-0.5"/>
<text text-anchor="start" x="304" y="-18.5" font-family="Helvetica,sans-Serif" font-size="10.00">/ginan/src/cpp/common</text>
<text text-anchor="middle" x="361" y="-7.5" font-family="Helvetica,sans-Serif" font-size="10.00">/ephemeris.cpp</text>
</a>
</g>
</g>
<!-- Node1&#45;&gt;Node4 -->
<g id="edge3" class="edge">
<title>Node1&#45;&gt;Node4</title>
<path fill="none" stroke="midnightblue" d="M428.67,-141.34C371.7,-134.19 300.26,-120.88 282,-98 273.41,-87.23 275.38,-79.08 282,-67 290.99,-50.58 307.85,-38.72 323.69,-30.64"/>
<polygon fill="midnightblue" stroke="midnightblue" points="428.41,-144.84 438.76,-142.56 429.25,-137.89 428.41,-144.84"/>
</g>
<!-- Node5 -->
<g id="node5" class="node">
<title>Node5</title>
<g id="a_node5"><a xlink:href="navigation_8hpp.html" target="_top" xlink:title=" ">
<polygon fill="white" stroke="red" points="291,-67.5 291,-97.5 421,-97.5 421,-67.5 291,-67.5"/>
<text text-anchor="start" x="299" y="-85.5" font-family="Helvetica,sans-Serif" font-size="10.00">/ginan/src/cpp/common</text>
<text text-anchor="middle" x="356" y="-74.5" font-family="Helvetica,sans-Serif" font-size="10.00">/navigation.hpp</text>
</a>
</g>
</g>
<!-- Node1&#45;&gt;Node5 -->
<g id="edge4" class="edge">
<title>Node1&#45;&gt;Node5</title>
<path fill="none" stroke="midnightblue" d="M462.49,-130.27C438.92,-119.92 409.86,-107.15 388.05,-97.58"/>
<polygon fill="midnightblue" stroke="midnightblue" points="461.32,-133.58 471.89,-134.4 464.14,-127.17 461.32,-133.58"/>
</g>
<!-- Node34 -->
<g id="node6" class="node">
<title>Node34</title>
<g id="a_node6"><a xlink:href="prototypeIgsSSRDecode_8cpp.html" target="_top" xlink:title=" ">
<polygon fill="white" stroke="black" points="646,-0.5 646,-30.5 822,-30.5 822,-0.5 646,-0.5"/>
<text text-anchor="start" x="654" y="-18.5" font-family="Helvetica,sans-Serif" font-size="10.00">/ginan/src/cpp/other</text>
<text text-anchor="middle" x="734" y="-7.5" font-family="Helvetica,sans-Serif" font-size="10.00">_ssr/prototypeIgsSSRDecode.cpp</text>
</a>
</g>
</g>
<!-- Node1&#45;&gt;Node34 -->
<g id="edge16" class="edge">
<title>Node1&#45;&gt;Node34</title>
<path fill="none" stroke="midnightblue" d="M579.32,-142.76C641.46,-136.27 722.6,-123.16 743,-98 758.51,-78.87 748.95,-48.38 741.12,-30.61"/>
<polygon fill="midnightblue" stroke="midnightblue" points="578.74,-139.3 569.13,-143.78 579.43,-146.27 578.74,-139.3"/>
</g>
<!-- Node64 -->
<g id="node7" class="node">
<title>Node64</title>
<g id="a_node7"><a xlink:href="prototypeIgsSSREncode_8cpp.html" target="_top" xlink:title=" ">
<polygon fill="white" stroke="black" points="840.5,-0.5 840.5,-30.5 1015.5,-30.5 1015.5,-0.5 840.5,-0.5"/>
<text text-anchor="start" x="848.5" y="-18.5" font-family="Helvetica,sans-Serif" font-size="10.00">/ginan/src/cpp/other</text>
<text text-anchor="middle" x="928" y="-7.5" font-family="Helvetica,sans-Serif" font-size="10.00">_ssr/prototypeIgsSSREncode.cpp</text>
</a>
</g>
</g>
<!-- Node1&#45;&gt;Node64 -->
<g id="edge17" class="edge">
<title>Node1&#45;&gt;Node64</title>
<path fill="none" stroke="midnightblue" d="M579.24,-138.99C631.2,-131.15 701.39,-118.02 761,-98 814.37,-80.08 872.57,-48.72 904.23,-30.57"/>
<polygon fill="midnightblue" stroke="midnightblue" points="578.48,-135.56 569.1,-140.48 579.5,-142.48 578.48,-135.56"/>
</g>
<!-- Node77 -->
<g id="node8" class="node">
<title>Node77</title>
<g id="a_node8"><a xlink:href="rtcmEncoder_8hpp.html" target="_top" xlink:title=" ">
<polygon fill="white" stroke="red" points="439,-67.5 439,-97.5 569,-97.5 569,-67.5 439,-67.5"/>
<text text-anchor="start" x="447" y="-85.5" font-family="Helvetica,sans-Serif" font-size="10.00">/ginan/src/cpp/common</text>
<text text-anchor="middle" x="504" y="-74.5" font-family="Helvetica,sans-Serif" font-size="10.00">/rtcmEncoder.hpp</text>
</a>
</g>
</g>
<!-- Node1&#45;&gt;Node77 -->
<g id="edge10" class="edge">
<title>Node1&#45;&gt;Node77</title>
<path fill="none" stroke="midnightblue" d="M504,-124.11C504,-115.15 504,-105.32 504,-97.58"/>
<polygon fill="midnightblue" stroke="midnightblue" points="500.5,-124.4 504,-134.4 507.5,-124.4 500.5,-124.4"/>
</g>
<!-- Node88 -->
<g id="node9" class="node">
<title>Node88</title>
<g id="a_node9"><a xlink:href="prototypeCmpSSREncode_8cpp.html" target="_top" xlink:title=" ">
<polygon fill="white" stroke="black" points="444.5,-0.5 444.5,-30.5 627.5,-30.5 627.5,-0.5 444.5,-0.5"/>
<text text-anchor="start" x="452.5" y="-18.5" font-family="Helvetica,sans-Serif" font-size="10.00">/ginan/src/cpp/other</text>
<text text-anchor="middle" x="536" y="-7.5" font-family="Helvetica,sans-Serif" font-size="10.00">_ssr/prototypeCmpSSREncode.cpp</text>
</a>
</g>
</g>
<!-- Node1&#45;&gt;Node88 -->
<g id="edge15" class="edge">
<title>Node1&#45;&gt;Node88</title>
<path fill="none" stroke="midnightblue" d="M579.33,-141.34C636.3,-134.19 707.74,-120.88 726,-98 734.59,-87.23 734.4,-77.92 726,-67 713.33,-50.53 669.74,-38.3 627.5,-30.01"/>
<polygon fill="midnightblue" stroke="midnightblue" points="578.75,-137.89 569.24,-142.56 579.59,-144.84 578.75,-137.89"/>
</g>
<!-- Node89 -->
<g id="node10" class="node">
<title>Node89</title>
<g id="a_node10"><a xlink:href="rtcmTrace_8cpp.html" target="_top" xlink:title=" ">
<polygon fill="white" stroke="black" points="587,-67.5 587,-97.5 717,-97.5 717,-67.5 587,-67.5"/>
<text text-anchor="start" x="595" y="-85.5" font-family="Helvetica,sans-Serif" font-size="10.00">/ginan/src/cpp/common</text>
<text text-anchor="middle" x="652" y="-74.5" font-family="Helvetica,sans-Serif" font-size="10.00">/rtcmTrace.cpp</text>
</a>
</g>
</g>
<!-- Node1&#45;&gt;Node89 -->
<g id="edge14" class="edge">
<title>Node1&#45;&gt;Node89</title>
<path fill="none" stroke="midnightblue" d="M545.51,-130.27C569.08,-119.92 598.14,-107.15 619.95,-97.58"/>
<polygon fill="midnightblue" stroke="midnightblue" points="543.86,-127.17 536.11,-134.4 546.68,-133.58 543.86,-127.17"/>
</g>
<!-- Node5&#45;&gt;Node2 -->
<g id="edge5" class="edge">
<title>Node5&#45;&gt;Node2</title>
<path fill="none" stroke="midnightblue" d="M283.24,-65.25C235.46,-54.58 173.58,-40.75 127.92,-30.55"/>
<polygon fill="midnightblue" stroke="midnightblue" points="282.69,-68.71 293.22,-67.48 284.22,-61.88 282.69,-68.71"/>
</g>
<!-- Node5&#45;&gt;Node3 -->
<g id="edge6" class="edge">
<title>Node5&#45;&gt;Node3</title>
<path fill="none" stroke="midnightblue" d="M315.59,-63.13C292.87,-52.8 264.94,-40.11 243.97,-30.58"/>
<polygon fill="midnightblue" stroke="midnightblue" points="314.42,-66.44 324.97,-67.4 317.32,-60.07 314.42,-66.44"/>
</g>
<!-- Node5&#45;&gt;Node4 -->
<g id="edge7" class="edge">
<title>Node5&#45;&gt;Node4</title>
<path fill="none" stroke="midnightblue" d="M357.85,-57.4C358.55,-48.37 359.31,-38.41 359.92,-30.58"/>
<polygon fill="midnightblue" stroke="midnightblue" points="354.36,-57.16 357.08,-67.4 361.34,-57.69 354.36,-57.16"/>
</g>
<!-- Node5&#45;&gt;Node34 -->
<g id="edge8" class="edge">
<title>Node5&#45;&gt;Node34</title>
<path fill="none" stroke="midnightblue" d="M431.34,-66.78C509.25,-52.76 587.51,-39.85 645.75,-30.47"/>
<polygon fill="midnightblue" stroke="midnightblue" points="430.57,-63.37 421.35,-68.59 431.81,-70.26 430.57,-63.37"/>
</g>
<!-- Node5&#45;&gt;Node64 -->
<g id="edge9" class="edge">
<title>Node5&#45;&gt;Node64</title>
<path fill="none" stroke="midnightblue" d="M431.24,-66.92C608.86,-42.13 656.54,-51.85 831,-31 834.04,-30.64 837.14,-30.25 840.26,-29.85"/>
<polygon fill="midnightblue" stroke="midnightblue" points="430.72,-63.46 421.31,-68.32 431.7,-70.39 430.72,-63.46"/>
</g>
<!-- Node77&#45;&gt;Node2 -->
<g id="edge11" class="edge">
<title>Node77&#45;&gt;Node2</title>
<path fill="none" stroke="midnightblue" d="M428.8,-66.88C299.61,-46.69 264.55,-51.04 139,-31 136.16,-30.55 133.25,-30.06 130.33,-29.56"/>
<polygon fill="midnightblue" stroke="midnightblue" points="428.25,-70.34 438.67,-68.44 429.34,-63.42 428.25,-70.34"/>
</g>
<!-- Node77&#45;&gt;Node64 -->
<g id="edge13" class="edge">
<title>Node77&#45;&gt;Node64</title>
<path fill="none" stroke="midnightblue" d="M579.37,-66.82C691.68,-48.02 721.8,-46.93 831,-31 834.12,-30.55 837.29,-30.08 840.49,-29.61"/>
<polygon fill="midnightblue" stroke="midnightblue" points="578.62,-63.39 569.34,-68.51 579.78,-70.3 578.62,-63.39"/>
</g>
<!-- Node77&#45;&gt;Node88 -->
<g id="edge12" class="edge">
<title>Node77&#45;&gt;Node88</title>
<path fill="none" stroke="midnightblue" d="M515.43,-58.28C519.99,-49.02 525.09,-38.66 529.07,-30.58"/>
<polygon fill="midnightblue" stroke="midnightblue" points="512.22,-56.88 510.94,-67.4 518.5,-59.97 512.22,-56.88"/>
</g>
</g>
</svg>
