<?xml version="1.0" encoding="UTF-8" standalone="no"?>
<!DOCTYPE svg PUBLIC "-//W3C//DTD SVG 1.1//EN"
 "http://www.w3.org/Graphics/SVG/1.1/DTD/svg11.dtd">
<!-- Generated by graphviz version 2.43.0 (0)
 -->
<!-- Title: /data/staging/ginan/src/cpp/common/streamParser.hpp Pages: 1 -->
<svg width="899pt" height="173pt"
 viewBox="0.00 0.00 898.50 173.00" xmlns="http://www.w3.org/2000/svg" xmlns:xlink="http://www.w3.org/1999/xlink">
<g id="graph0" class="graph" transform="scale(1 1) rotate(0) translate(4 169)">
<title>/data/staging/ginan/src/cpp/common/streamParser.hpp</title>
<polygon fill="white" stroke="transparent" points="-4,4 -4,-169 894.5,-169 894.5,4 -4,4"/>
<!-- Node1 -->
<g id="node1" class="node">
<title>Node1</title>
<g id="a_node1"><a xlink:title=" ">
<polygon fill="#bfbfbf" stroke="black" points="435,-134.5 435,-164.5 624,-164.5 624,-134.5 435,-134.5"/>
<text text-anchor="start" x="443" y="-152.5" font-family="Helvetica,sans-Serif" font-size="10.00">/data/staging/ginan</text>
<text text-anchor="middle" x="529.5" y="-141.5" font-family="Helvetica,sans-Serif" font-size="10.00">/src/cpp/common/streamParser.hpp</text>
</a>
</g>
</g>
<!-- Node2 -->
<g id="node2" class="node">
<title>Node2</title>
<g id="a_node2"><a xlink:href="debug_8cpp.html" target="_top" xlink:title=" ">
<polygon fill="white" stroke="black" points="0,-0.5 0,-30.5 153,-30.5 153,-0.5 0,-0.5"/>
<text text-anchor="start" x="8" y="-18.5" font-family="Helvetica,sans-Serif" font-size="10.00">/data/staging/ginan</text>
<text text-anchor="middle" x="76.5" y="-7.5" font-family="Helvetica,sans-Serif" font-size="10.00">/src/cpp/common/debug.cpp</text>
</a>
</g>
</g>
<!-- Node1&#45;&gt;Node2 -->
<g id="edge1" class="edge">
<title>Node1&#45;&gt;Node2</title>
<path fill="none" stroke="midnightblue" d="M434.82,-145.49C299.35,-140.18 63.57,-126.88 37.5,-98 19.42,-77.97 43.24,-48.07 60.82,-30.6"/>
</g>
<!-- Node3 -->
<g id="node3" class="node">
<title>Node3</title>
<g id="a_node3"><a xlink:href="streamFile_8hpp.html" target="_top" xlink:title=" ">
<polygon fill="white" stroke="red" points="47,-67.5 47,-97.5 222,-97.5 222,-67.5 47,-67.5"/>
<text text-anchor="start" x="55" y="-85.5" font-family="Helvetica,sans-Serif" font-size="10.00">/data/staging/ginan</text>
<text text-anchor="middle" x="134.5" y="-74.5" font-family="Helvetica,sans-Serif" font-size="10.00">/src/cpp/common/streamFile.hpp</text>
</a>
</g>
</g>
<!-- Node1&#45;&gt;Node3 -->
<g id="edge2" class="edge">
<title>Node1&#45;&gt;Node3</title>
<path fill="none" stroke="midnightblue" d="M444.28,-134.48C377.94,-123.56 286.3,-108.48 219.91,-97.55"/>
</g>
<!-- Node5 -->
<g id="node4" class="node">
<title>Node5</title>
<g id="a_node4"><a xlink:href="streamObs_8hpp.html" target="_top" xlink:title=" ">
<polygon fill="white" stroke="red" points="240,-67.5 240,-97.5 417,-97.5 417,-67.5 240,-67.5"/>
<text text-anchor="start" x="248" y="-85.5" font-family="Helvetica,sans-Serif" font-size="10.00">/data/staging/ginan</text>
<text text-anchor="middle" x="328.5" y="-74.5" font-family="Helvetica,sans-Serif" font-size="10.00">/src/cpp/common/streamObs.hpp</text>
</a>
</g>
</g>
<!-- Node1&#45;&gt;Node5 -->
<g id="edge4" class="edge">
<title>Node1&#45;&gt;Node5</title>
<path fill="none" stroke="midnightblue" d="M485.89,-134.4C452.17,-123.49 405.72,-108.47 372.03,-97.58"/>
</g>
<!-- Node13 -->
<g id="node5" class="node">
<title>Node13</title>
<g id="a_node5"><a xlink:href="streamRtcm_8hpp.html" target="_top" xlink:title=" ">
<polygon fill="white" stroke="red" points="327.5,-0.5 327.5,-30.5 511.5,-30.5 511.5,-0.5 327.5,-0.5"/>
<text text-anchor="start" x="335.5" y="-18.5" font-family="Helvetica,sans-Serif" font-size="10.00">/data/staging/ginan</text>
<text text-anchor="middle" x="419.5" y="-7.5" font-family="Helvetica,sans-Serif" font-size="10.00">/src/cpp/common/streamRtcm.hpp</text>
</a>
</g>
</g>
<!-- Node1&#45;&gt;Node13 -->
<g id="edge8" class="edge">
<title>Node1&#45;&gt;Node13</title>
<path fill="none" stroke="midnightblue" d="M572.7,-134.38C610.09,-119.84 654.92,-95.35 632.5,-67 617.09,-47.51 561.86,-34.76 511.5,-26.94"/>
</g>
<!-- Node10 -->
<g id="node6" class="node">
<title>Node10</title>
<g id="a_node6"><a xlink:href="streamUbx_8hpp.html" target="_top" xlink:title=" ">
<polygon fill="white" stroke="red" points="712.5,-0.5 712.5,-30.5 890.5,-30.5 890.5,-0.5 712.5,-0.5"/>
<text text-anchor="start" x="720.5" y="-18.5" font-family="Helvetica,sans-Serif" font-size="10.00">/data/staging/ginan</text>
<text text-anchor="middle" x="801.5" y="-7.5" font-family="Helvetica,sans-Serif" font-size="10.00">/src/cpp/common/streamUbx.hpp</text>
</a>
</g>
</g>
<!-- Node1&#45;&gt;Node10 -->
<g id="edge10" class="edge">
<title>Node1&#45;&gt;Node10</title>
<path fill="none" stroke="midnightblue" d="M624.03,-148.02C714.79,-145.3 842.69,-134.81 874.5,-98 895.18,-74.07 858.08,-46.79 829.61,-30.65"/>
</g>
<!-- Node25 -->
<g id="node7" class="node">
<title>Node25</title>
<g id="a_node7"><a xlink:href="streamParser_8cpp.html" target="_top" xlink:title=" ">
<polygon fill="white" stroke="black" points="435.5,-67.5 435.5,-97.5 623.5,-97.5 623.5,-67.5 435.5,-67.5"/>
<text text-anchor="start" x="443.5" y="-85.5" font-family="Helvetica,sans-Serif" font-size="10.00">/data/staging/ginan</text>
<text text-anchor="middle" x="529.5" y="-74.5" font-family="Helvetica,sans-Serif" font-size="10.00">/src/cpp/common/streamParser.cpp</text>
</a>
</g>
</g>
<!-- Node1&#45;&gt;Node25 -->
<g id="edge7" class="edge">
<title>Node1&#45;&gt;Node25</title>
<path fill="none" stroke="midnightblue" d="M529.5,-134.4C529.5,-123.49 529.5,-108.47 529.5,-97.58"/>
</g>
<!-- Node26 -->
<g id="node8" class="node">
<title>Node26</title>
<g id="a_node8"><a xlink:href="streamSerial_8hpp.html" target="_top" xlink:title=" ">
<polygon fill="white" stroke="red" points="679.5,-67.5 679.5,-97.5 865.5,-97.5 865.5,-67.5 679.5,-67.5"/>
<text text-anchor="start" x="687.5" y="-85.5" font-family="Helvetica,sans-Serif" font-size="10.00">/data/staging/ginan</text>
<text text-anchor="middle" x="772.5" y="-74.5" font-family="Helvetica,sans-Serif" font-size="10.00">/src/cpp/common/streamSerial.hpp</text>
</a>
</g>
</g>
<!-- Node1&#45;&gt;Node26 -->
<g id="edge9" class="edge">
<title>Node1&#45;&gt;Node26</title>
<path fill="none" stroke="midnightblue" d="M581.93,-134.48C622.67,-123.58 678.92,-108.53 719.75,-97.61"/>
</g>
<!-- Node3&#45;&gt;Node2 -->
<g id="edge3" class="edge">
<title>Node3&#45;&gt;Node2</title>
<path fill="none" stroke="midnightblue" d="M121.91,-67.4C112.19,-56.49 98.78,-41.47 89.06,-30.58"/>
</g>
<!-- Node5&#45;&gt;Node13 -->
<g id="edge5" class="edge">
<title>Node5&#45;&gt;Node13</title>
<path fill="none" stroke="midnightblue" d="M348.25,-67.4C363.51,-56.49 384.54,-41.47 399.79,-30.58"/>
</g>
<!-- Node5&#45;&gt;Node10 -->
<g id="edge6" class="edge">
<title>Node5&#45;&gt;Node10</title>
<path fill="none" stroke="midnightblue" d="M417.17,-68.33C420.32,-67.88 423.43,-67.43 426.5,-67 524.23,-53.19 636.42,-38.19 712.43,-28.16"/>
</g>
</g>
</svg>
