<?xml version="1.0" encoding="UTF-8" standalone="no"?>
<!DOCTYPE svg PUBLIC "-//W3C//DTD SVG 1.1//EN"
 "http://www.w3.org/Graphics/SVG/1.1/DTD/svg11.dtd">
<!-- Generated by graphviz version 2.43.0 (0)
 -->
<!-- Title: /data/acs/ginan/src/cpp/common/streamObs.hpp Pages: 1 -->
<svg width="557pt" height="173pt"
 viewBox="0.00 0.00 557.14 173.00" xmlns="http://www.w3.org/2000/svg" xmlns:xlink="http://www.w3.org/1999/xlink">
<g id="graph0" class="graph" transform="scale(1 1) rotate(0) translate(4 169)">
<title>/data/acs/ginan/src/cpp/common/streamObs.hpp</title>
<polygon fill="white" stroke="transparent" points="-4,4 -4,-169 553.14,-169 553.14,4 -4,4"/>
<!-- Node1 -->
<g id="node1" class="node">
<title>Node1</title>
<g id="a_node1"><a xlink:title=" ">
<polygon fill="#bfbfbf" stroke="black" points="115.64,-134.5 115.64,-164.5 275.64,-164.5 275.64,-134.5 115.64,-134.5"/>
<text text-anchor="start" x="123.64" y="-152.5" font-family="Helvetica,sans-Serif" font-size="10.00">/data/acs/ginan/src</text>
<text text-anchor="middle" x="195.64" y="-141.5" font-family="Helvetica,sans-Serif" font-size="10.00">/cpp/common/streamObs.hpp</text>
</a>
</g>
</g>
<!-- Node2 -->
<g id="node2" class="node">
<title>Node2</title>
<g id="a_node2"><a xlink:href="acsStream_8hpp.html" target="_top" xlink:title=" ">
<polygon fill="white" stroke="red" points="116.64,-0.5 116.64,-30.5 274.64,-30.5 274.64,-0.5 116.64,-0.5"/>
<text text-anchor="start" x="124.64" y="-18.5" font-family="Helvetica,sans-Serif" font-size="10.00">/data/acs/ginan/src</text>
<text text-anchor="middle" x="195.64" y="-7.5" font-family="Helvetica,sans-Serif" font-size="10.00">/cpp/common/acsStream.hpp</text>
</a>
</g>
</g>
<!-- Node1&#45;&gt;Node2 -->
<g id="edge1" class="edge">
<title>Node1&#45;&gt;Node2</title>
<path fill="none" stroke="midnightblue" d="M115.52,-136.74C71.06,-128.4 22.09,-115.55 8.64,-98 -24.84,-54.28 51.35,-33.6 116.33,-24.1"/>
</g>
<!-- Node7 -->
<g id="node3" class="node">
<title>Node7</title>
<g id="a_node3"><a xlink:href="streamRinex_8hpp.html" target="_top" xlink:title=" ">
<polygon fill="white" stroke="black" points="18.14,-67.5 18.14,-97.5 187.14,-97.5 187.14,-67.5 18.14,-67.5"/>
<text text-anchor="start" x="26.14" y="-85.5" font-family="Helvetica,sans-Serif" font-size="10.00">/data/acs/ginan/src</text>
<text text-anchor="middle" x="102.64" y="-74.5" font-family="Helvetica,sans-Serif" font-size="10.00">/cpp/common/streamRinex.hpp</text>
</a>
</g>
</g>
<!-- Node1&#45;&gt;Node7 -->
<g id="edge2" class="edge">
<title>Node1&#45;&gt;Node7</title>
<path fill="none" stroke="midnightblue" d="M175.47,-134.4C159.87,-123.49 138.37,-108.47 122.79,-97.58"/>
</g>
<!-- Node8 -->
<g id="node4" class="node">
<title>Node8</title>
<g id="a_node4"><a xlink:href="streamRtcm_8hpp.html" target="_top" xlink:title=" ">
<polygon fill="white" stroke="red" points="205.14,-67.5 205.14,-97.5 372.14,-97.5 372.14,-67.5 205.14,-67.5"/>
<text text-anchor="start" x="213.14" y="-85.5" font-family="Helvetica,sans-Serif" font-size="10.00">/data/acs/ginan/src</text>
<text text-anchor="middle" x="288.64" y="-74.5" font-family="Helvetica,sans-Serif" font-size="10.00">/cpp/common/streamRtcm.hpp</text>
</a>
</g>
</g>
<!-- Node1&#45;&gt;Node8 -->
<g id="edge4" class="edge">
<title>Node1&#45;&gt;Node8</title>
<path fill="none" stroke="midnightblue" d="M215.82,-134.4C231.42,-123.49 252.92,-108.47 268.5,-97.58"/>
</g>
<!-- Node11 -->
<g id="node5" class="node">
<title>Node11</title>
<g id="a_node5"><a xlink:href="streamSp3_8hpp.html" target="_top" xlink:title=" ">
<polygon fill="white" stroke="black" points="390.14,-67.5 390.14,-97.5 549.14,-97.5 549.14,-67.5 390.14,-67.5"/>
<text text-anchor="start" x="398.14" y="-85.5" font-family="Helvetica,sans-Serif" font-size="10.00">/data/acs/ginan/src</text>
<text text-anchor="middle" x="469.64" y="-74.5" font-family="Helvetica,sans-Serif" font-size="10.00">/cpp/common/streamSp3.hpp</text>
</a>
</g>
</g>
<!-- Node1&#45;&gt;Node11 -->
<g id="edge6" class="edge">
<title>Node1&#45;&gt;Node11</title>
<path fill="none" stroke="midnightblue" d="M254.76,-134.48C300.7,-123.58 364.13,-108.53 410.16,-97.61"/>
</g>
<!-- Node7&#45;&gt;Node2 -->
<g id="edge3" class="edge">
<title>Node7&#45;&gt;Node2</title>
<path fill="none" stroke="midnightblue" d="M122.82,-67.4C138.42,-56.49 159.92,-41.47 175.5,-30.58"/>
</g>
<!-- Node8&#45;&gt;Node2 -->
<g id="edge5" class="edge">
<title>Node8&#45;&gt;Node2</title>
<path fill="none" stroke="midnightblue" d="M268.47,-67.4C252.87,-56.49 231.37,-41.47 215.79,-30.58"/>
</g>
<!-- Node11&#45;&gt;Node2 -->
<g id="edge7" class="edge">
<title>Node11&#45;&gt;Node2</title>
<path fill="none" stroke="midnightblue" d="M410.53,-67.48C364.59,-56.58 301.16,-41.53 255.13,-30.61"/>
</g>
</g>
</svg>
