<?xml version="1.0" encoding="UTF-8" standalone="no"?>
<!DOCTYPE svg PUBLIC "-//W3C//DTD SVG 1.1//EN"
 "http://www.w3.org/Graphics/SVG/1.1/DTD/svg11.dtd">
<!-- Generated by graphviz version 2.43.0 (0)
 -->
<!-- Title: /ginan/src/cpp/common/streamParser.hpp Pages: 1 -->
<!--zoomable 173 -->
<svg id="main" version="1.1" xmlns="http://www.w3.org/2000/svg" xmlns:xlink="http://www.w3.org/1999/xlink" xml:space="preserve" onload="init(evt)">
<style type="text/css"><![CDATA[
.edge:hover path { stroke: red; }
.edge:hover polygon { stroke: red; fill: red; }
]]></style>
<script type="text/javascript"><![CDATA[
var edges = document.getElementsByTagName('g');
if (edges && edges.length) {
  for (var i=0;i<edges.length;i++) {
    if (edges[i].id.substr(0,4)=='edge') {
      edges[i].setAttribute('class','edge');
    }
  }
}
]]></script>
        <defs>
                <circle id="rim" cx="0" cy="0" r="7"/>
                <circle id="rim2" cx="0" cy="0" r="3.5"/>
                <g id="zoomPlus">
                        <use xlink:href="#rim" fill="#404040">
                                <set attributeName="fill" to="#808080" begin="zoomplus.mouseover" end="zoomplus.mouseout"/>
                        </use>
                        <path d="M-4,0h8M0,-4v8" fill="none" stroke="white" stroke-width="1.5" pointer-events="none"/>
                </g>
                <g id="zoomMin">
                        <use xlink:href="#rim" fill="#404040">
                                <set attributeName="fill" to="#808080" begin="zoomminus.mouseover" end="zoomminus.mouseout"/>
                        </use>
                        <path d="M-4,0h8" fill="none" stroke="white" stroke-width="1.5" pointer-events="none"/>
                </g>
                <g id="dirArrow">
                        <path fill="none" stroke="white" stroke-width="1.5" d="M0,-3.0v7 M-2.5,-0.5L0,-3.0L2.5,-0.5"/>
                </g>
               <g id="resetDef">
                       <use xlink:href="#rim2" fill="#404040">
                               <set attributeName="fill" to="#808080" begin="reset.mouseover" end="reset.mouseout"/>
                       </use>
               </g>
        </defs>

<script type="text/javascript">
var viewWidth = 811;
var viewHeight = 173;
var sectionId = 'dynsection-0';
</script>
<script xlink:href="svgpan.js"/>
<svg id="graph" class="graph">
<g id="viewport">
<title>/ginan/src/cpp/common/streamParser.hpp</title>
<polygon fill="white" stroke="transparent" points="-4,4 -4,-169 807,-169 807,4 -4,4"/>
<!-- Node1 -->
<g id="node1" class="node">
<title>Node1</title>
<g id="a_node1"><a xlink:title=" ">
<polygon fill="#bfbfbf" stroke="black" points="337,-134.5 337,-164.5 467,-164.5 467,-134.5 337,-134.5"/>
<text text-anchor="start" x="345" y="-152.5" font-family="Helvetica,sans-Serif" font-size="10.00">/ginan/src/cpp/common</text>
<text text-anchor="middle" x="402" y="-141.5" font-family="Helvetica,sans-Serif" font-size="10.00">/streamParser.hpp</text>
</a>
</g>
</g>
<!-- Node2 -->
<g id="node2" class="node">
<title>Node2</title>
<g id="a_node2"><a xlink:href="debug_8cpp.html" target="_top" xlink:title=" ">
<polygon fill="white" stroke="black" points="0,-0.5 0,-30.5 130,-30.5 130,-0.5 0,-0.5"/>
<text text-anchor="start" x="8" y="-18.5" font-family="Helvetica,sans-Serif" font-size="10.00">/ginan/src/cpp/common</text>
<text text-anchor="middle" x="65" y="-7.5" font-family="Helvetica,sans-Serif" font-size="10.00">/debug.cpp</text>
</a>
</g>
</g>
<!-- Node1&#45;&gt;Node2 -->
<g id="edge1" class="edge">
<title>Node1&#45;&gt;Node2</title>
<path fill="none" stroke="midnightblue" d="M326.35,-144.66C247.08,-139.17 129.37,-126.4 95,-98 74.66,-81.19 68.11,-49.28 66,-30.77"/>
<polygon fill="midnightblue" stroke="midnightblue" points="326.57,-148.18 336.79,-145.36 327.04,-141.2 326.57,-148.18"/>
</g>
<!-- Node3 -->
<g id="node3" class="node">
<title>Node3</title>
<g id="a_node3"><a xlink:href="streamCustom_8hpp.html" target="_top" xlink:title=" ">
<polygon fill="white" stroke="red" points="181,-0.5 181,-30.5 311,-30.5 311,-0.5 181,-0.5"/>
<text text-anchor="start" x="189" y="-18.5" font-family="Helvetica,sans-Serif" font-size="10.00">/ginan/src/cpp/common</text>
<text text-anchor="middle" x="246" y="-7.5" font-family="Helvetica,sans-Serif" font-size="10.00">/streamCustom.hpp</text>
</a>
</g>
</g>
<!-- Node1&#45;&gt;Node3 -->
<g id="edge2" class="edge">
<title>Node1&#45;&gt;Node3</title>
<path fill="none" stroke="midnightblue" d="M326.68,-146.34C248.47,-142.33 133.71,-130.84 106,-98 78.61,-65.54 132.24,-43.02 180.84,-30"/>
<polygon fill="midnightblue" stroke="midnightblue" points="326.83,-149.85 336.99,-146.84 327.17,-142.86 326.83,-149.85"/>
</g>
<!-- Node6 -->
<g id="node4" class="node">
<title>Node6</title>
<g id="a_node4"><a xlink:href="streamFile_8hpp.html" target="_top" xlink:title=" ">
<polygon fill="white" stroke="red" points="115,-67.5 115,-97.5 245,-97.5 245,-67.5 115,-67.5"/>
<text text-anchor="start" x="123" y="-85.5" font-family="Helvetica,sans-Serif" font-size="10.00">/ginan/src/cpp/common</text>
<text text-anchor="middle" x="180" y="-74.5" font-family="Helvetica,sans-Serif" font-size="10.00">/streamFile.hpp</text>
</a>
</g>
</g>
<!-- Node1&#45;&gt;Node6 -->
<g id="edge3" class="edge">
<title>Node1&#45;&gt;Node6</title>
<path fill="none" stroke="midnightblue" d="M344.21,-131.58C308.15,-121.02 262.28,-107.59 228.19,-97.61"/>
<polygon fill="midnightblue" stroke="midnightblue" points="343.52,-135.02 354.1,-134.48 345.49,-128.31 343.52,-135.02"/>
</g>
<!-- Node7 -->
<g id="node5" class="node">
<title>Node7</title>
<g id="a_node5"><a xlink:href="streamObs_8hpp.html" target="_top" xlink:title=" ">
<polygon fill="white" stroke="red" points="263,-67.5 263,-97.5 393,-97.5 393,-67.5 263,-67.5"/>
<text text-anchor="start" x="271" y="-85.5" font-family="Helvetica,sans-Serif" font-size="10.00">/ginan/src/cpp/common</text>
<text text-anchor="middle" x="328" y="-74.5" font-family="Helvetica,sans-Serif" font-size="10.00">/streamObs.hpp</text>
</a>
</g>
</g>
<!-- Node1&#45;&gt;Node7 -->
<g id="edge5" class="edge">
<title>Node1&#45;&gt;Node7</title>
<path fill="none" stroke="midnightblue" d="M378.2,-127.6C367.03,-117.78 354.01,-106.34 344.03,-97.58"/>
<polygon fill="midnightblue" stroke="midnightblue" points="376.12,-130.43 385.94,-134.4 380.74,-125.17 376.12,-130.43"/>
</g>
<!-- Node19 -->
<g id="node6" class="node">
<title>Node19</title>
<g id="a_node6"><a xlink:href="streamRtcm_8hpp.html" target="_top" xlink:title=" ">
<polygon fill="white" stroke="red" points="394,-0.5 394,-30.5 524,-30.5 524,-0.5 394,-0.5"/>
<text text-anchor="start" x="402" y="-18.5" font-family="Helvetica,sans-Serif" font-size="10.00">/ginan/src/cpp/common</text>
<text text-anchor="middle" x="459" y="-7.5" font-family="Helvetica,sans-Serif" font-size="10.00">/streamRtcm.hpp</text>
</a>
</g>
</g>
<!-- Node1&#45;&gt;Node19 -->
<g id="edge10" class="edge">
<title>Node1&#45;&gt;Node19</title>
<path fill="none" stroke="midnightblue" d="M477.31,-140.99C504.77,-134.19 533.19,-121.5 550,-98 558.02,-86.79 556.99,-78.87 550,-67 540.01,-50.03 522.03,-38.35 504.67,-30.54"/>
<polygon fill="midnightblue" stroke="midnightblue" points="476.25,-137.64 467.26,-143.24 477.78,-144.47 476.25,-137.64"/>
</g>
<!-- Node14 -->
<g id="node7" class="node">
<title>Node14</title>
<g id="a_node7"><a xlink:href="streamUbx_8hpp.html" target="_top" xlink:title=" ">
<polygon fill="white" stroke="red" points="673,-0.5 673,-30.5 803,-30.5 803,-0.5 673,-0.5"/>
<text text-anchor="start" x="681" y="-18.5" font-family="Helvetica,sans-Serif" font-size="10.00">/ginan/src/cpp/common</text>
<text text-anchor="middle" x="738" y="-7.5" font-family="Helvetica,sans-Serif" font-size="10.00">/streamUbx.hpp</text>
</a>
</g>
</g>
<!-- Node1&#45;&gt;Node14 -->
<g id="edge12" class="edge">
<title>Node1&#45;&gt;Node14</title>
<path fill="none" stroke="midnightblue" d="M477.45,-147.92C565.37,-145.48 702.89,-135.55 736,-98 752.29,-79.53 747.36,-48.52 742.53,-30.54"/>
<polygon fill="midnightblue" stroke="midnightblue" points="477.15,-144.43 467.25,-148.18 477.33,-151.43 477.15,-144.43"/>
</g>
<!-- Node28 -->
<g id="node8" class="node">
<title>Node28</title>
<g id="a_node8"><a xlink:href="streamParser_8cpp.html" target="_top" xlink:title=" ">
<polygon fill="white" stroke="black" points="411,-67.5 411,-97.5 541,-97.5 541,-67.5 411,-67.5"/>
<text text-anchor="start" x="419" y="-85.5" font-family="Helvetica,sans-Serif" font-size="10.00">/ginan/src/cpp/common</text>
<text text-anchor="middle" x="476" y="-74.5" font-family="Helvetica,sans-Serif" font-size="10.00">/streamParser.cpp</text>
</a>
</g>
</g>
<!-- Node1&#45;&gt;Node28 -->
<g id="edge9" class="edge">
<title>Node1&#45;&gt;Node28</title>
<path fill="none" stroke="midnightblue" d="M425.8,-127.6C436.97,-117.78 449.99,-106.34 459.97,-97.58"/>
<polygon fill="midnightblue" stroke="midnightblue" points="423.26,-125.17 418.06,-134.4 427.88,-130.43 423.26,-125.17"/>
</g>
<!-- Node29 -->
<g id="node9" class="node">
<title>Node29</title>
<g id="a_node9"><a xlink:href="streamSerial_8hpp.html" target="_top" xlink:title=" ">
<polygon fill="white" stroke="red" points="597,-67.5 597,-97.5 727,-97.5 727,-67.5 597,-67.5"/>
<text text-anchor="start" x="605" y="-85.5" font-family="Helvetica,sans-Serif" font-size="10.00">/ginan/src/cpp/common</text>
<text text-anchor="middle" x="662" y="-74.5" font-family="Helvetica,sans-Serif" font-size="10.00">/streamSerial.hpp</text>
</a>
</g>
</g>
<!-- Node1&#45;&gt;Node29 -->
<g id="edge11" class="edge">
<title>Node1&#45;&gt;Node29</title>
<path fill="none" stroke="midnightblue" d="M468.06,-131.98C510.53,-121.37 565.12,-107.72 605.56,-97.61"/>
<polygon fill="midnightblue" stroke="midnightblue" points="466.95,-128.66 458.1,-134.48 468.65,-135.45 466.95,-128.66"/>
</g>
<!-- Node6&#45;&gt;Node2 -->
<g id="edge4" class="edge">
<title>Node6&#45;&gt;Node2</title>
<path fill="none" stroke="midnightblue" d="M146.02,-62.3C128.03,-52.12 106.32,-39.85 89.9,-30.58"/>
<polygon fill="midnightblue" stroke="midnightblue" points="144.62,-65.52 155.05,-67.4 148.06,-59.43 144.62,-65.52"/>
</g>
<!-- Node7&#45;&gt;Node3 -->
<g id="edge6" class="edge">
<title>Node7&#45;&gt;Node3</title>
<path fill="none" stroke="midnightblue" d="M302.35,-61.17C289.81,-51.23 275.03,-39.51 263.76,-30.58"/>
<polygon fill="midnightblue" stroke="midnightblue" points="300.2,-63.93 310.21,-67.4 304.54,-58.44 300.2,-63.93"/>
</g>
<!-- Node7&#45;&gt;Node19 -->
<g id="edge7" class="edge">
<title>Node7&#45;&gt;Node19</title>
<path fill="none" stroke="midnightblue" d="M365.58,-62.85C386.29,-52.58 411.59,-40.03 430.63,-30.58"/>
<polygon fill="midnightblue" stroke="midnightblue" points="363.83,-59.82 356.43,-67.4 366.94,-66.09 363.83,-59.82"/>
</g>
<!-- Node7&#45;&gt;Node14 -->
<g id="edge8" class="edge">
<title>Node7&#45;&gt;Node14</title>
<path fill="none" stroke="midnightblue" d="M403.27,-66.82C502.86,-49.74 607.21,-34.6 672.82,-25.42"/>
<polygon fill="midnightblue" stroke="midnightblue" points="402.6,-63.39 393.34,-68.53 403.79,-70.28 402.6,-63.39"/>
</g>
</g>
</svg>
        <g id="navigator" transform="translate(0 0)" fill="#404254">
                <rect fill="#f2f5e9" fill-opacity="0.5" stroke="#606060" stroke-width=".5" x="0" y="0" width="60" height="60"/>
                <use id="zoomplus" xlink:href="#zoomPlus" x="17" y="9" onmousedown="handleZoom(evt,'in')"/>
                <use id="zoomminus" xlink:href="#zoomMin" x="42" y="9" onmousedown="handleZoom(evt,'out')"/>
                <use id="reset" xlink:href="#resetDef" x="30" y="36" onmousedown="handleReset()"/>
                <g id="arrowUp" xlink:href="#dirArrow" transform="translate(30 24)" onmousedown="handlePan(0,-1)">
                  <use xlink:href="#rim" fill="#404040">
                        <set attributeName="fill" to="#808080" begin="arrowUp.mouseover" end="arrowUp.mouseout"/>
                  </use>
                  <path fill="none" stroke="white" stroke-width="1.5" d="M0,-3.0v7 M-2.5,-0.5L0,-3.0L2.5,-0.5"/>
                </g>
                <g id="arrowRight" xlink:href="#dirArrow" transform="rotate(90) translate(36 -43)" onmousedown="handlePan(1,0)">
                  <use xlink:href="#rim" fill="#404040">
                        <set attributeName="fill" to="#808080" begin="arrowRight.mouseover" end="arrowRight.mouseout"/>
                  </use>
                  <path fill="none" stroke="white" stroke-width="1.5" d="M0,-3.0v7 M-2.5,-0.5L0,-3.0L2.5,-0.5"/>
                </g>
                <g id="arrowDown" xlink:href="#dirArrow" transform="rotate(180) translate(-30 -48)" onmousedown="handlePan(0,1)">
                  <use xlink:href="#rim" fill="#404040">
                        <set attributeName="fill" to="#808080" begin="arrowDown.mouseover" end="arrowDown.mouseout"/>
                  </use>
                  <path fill="none" stroke="white" stroke-width="1.5" d="M0,-3.0v7 M-2.5,-0.5L0,-3.0L2.5,-0.5"/>
                </g>
                <g id="arrowLeft" xlink:href="#dirArrow" transform="rotate(270) translate(-36 17)" onmousedown="handlePan(-1,0)">
                  <use xlink:href="#rim" fill="#404040">
                        <set attributeName="fill" to="#808080" begin="arrowLeft.mouseover" end="arrowLeft.mouseout"/>
                  </use>
                  <path fill="none" stroke="white" stroke-width="1.5" d="M0,-3.0v7 M-2.5,-0.5L0,-3.0L2.5,-0.5"/>
                </g>
        </g>
        <svg viewBox="0 0 15 15" width="100%" height="30px" preserveAspectRatio="xMaxYMin meet">
         <g id="arrow_out" transform="scale(0.3 0.3)">
          <a xlink:href="streamParser_8hpp__dep__incl_org.svg" target="_base">
           <rect id="button" ry="5" rx="5" y="6" x="6" height="38" width="38"
                fill="#f2f5e9" fill-opacity="0.5" stroke="#606060" stroke-width="1.0"/>
           <path id="arrow"
             d="M 11.500037,31.436501 C 11.940474,20.09759 22.043105,11.32322 32.158766,21.979434 L 37.068811,17.246167 C 37.068811,17.246167 37.088388,32 37.088388,32 L 22.160133,31.978069 C 22.160133,31.978069 26.997745,27.140456 26.997745,27.140456 C 18.528582,18.264221 13.291696,25.230495 11.500037,31.436501 z"
             style="fill:#404040;"/>
          </a>
         </g>
        </svg>
</svg>
