<?xml version="1.0" encoding="UTF-8" standalone="no"?>
<!DOCTYPE svg PUBLIC "-//W3C//DTD SVG 1.1//EN"
 "http://www.w3.org/Graphics/SVG/1.1/DTD/svg11.dtd">
<!-- Generated by graphviz version 2.43.0 (0)
 -->
<!-- Title: IcdDecoder::decodeGPSSubframe2 Pages: 1 -->
<svg width="547pt" height="142pt"
 viewBox="0.00 0.00 547.00 142.00" xmlns="http://www.w3.org/2000/svg" xmlns:xlink="http://www.w3.org/1999/xlink">
<g id="graph0" class="graph" transform="scale(1 1) rotate(0) translate(4 138)">
<title>IcdDecoder::decodeGPSSubframe2</title>
<polygon fill="white" stroke="transparent" points="-4,4 -4,-138 543,-138 543,4 -4,4"/>
<!-- Node1 -->
<g id="node1" class="node">
<title>Node1</title>
<g id="a_node1"><a xlink:title=" ">
<polygon fill="#bfbfbf" stroke="black" points="0,-57.5 0,-76.5 185,-76.5 185,-57.5 0,-57.5"/>
<text text-anchor="middle" x="92.5" y="-64.5" font-family="Helvetica,sans-Serif" font-size="10.00">IcdDecoder::decodeGPSSubframe2</text>
</a>
</g>
</g>
<!-- Node2 -->
<g id="node2" class="node">
<title>Node2</title>
<g id="a_node2"><a xlink:href="structIcdDecoder.html#a79e3697462fd9605f031ed633f71e12b" target="_top" xlink:title=" ">
<polygon fill="white" stroke="black" points="222.5,-114.5 222.5,-133.5 397.5,-133.5 397.5,-114.5 222.5,-114.5"/>
<text text-anchor="middle" x="310" y="-121.5" font-family="Helvetica,sans-Serif" font-size="10.00">IcdDecoder::decodeGpsTlmWord</text>
</a>
</g>
</g>
<!-- Node1&#45;&gt;Node2 -->
<g id="edge1" class="edge">
<title>Node1&#45;&gt;Node2</title>
<path fill="none" stroke="midnightblue" d="M123.2,-76.56C148.93,-84.67 187.22,-96.33 221,-105 230.76,-107.51 241.2,-109.95 251.34,-112.22"/>
<polygon fill="midnightblue" stroke="midnightblue" points="250.83,-115.69 261.35,-114.41 252.33,-108.85 250.83,-115.69"/>
</g>
<!-- Node3 -->
<g id="node3" class="node">
<title>Node3</title>
<g id="a_node3"><a xlink:href="structIcdDecoder.html#acb598e47f5b9091532e280c590007025" target="_top" xlink:title=" ">
<polygon fill="white" stroke="black" points="221,-76.5 221,-95.5 399,-95.5 399,-76.5 221,-76.5"/>
<text text-anchor="middle" x="310" y="-83.5" font-family="Helvetica,sans-Serif" font-size="10.00">IcdDecoder::decodeGpsHowWord</text>
</a>
</g>
</g>
<!-- Node1&#45;&gt;Node3 -->
<g id="edge2" class="edge">
<title>Node1&#45;&gt;Node3</title>
<path fill="none" stroke="midnightblue" d="M185.2,-75.09C193.68,-75.83 202.3,-76.59 210.84,-77.35"/>
<polygon fill="midnightblue" stroke="midnightblue" points="210.54,-80.83 220.81,-78.22 211.15,-73.86 210.54,-80.83"/>
</g>
<!-- Node4 -->
<g id="node4" class="node">
<title>Node4</title>
<g id="a_node4"><a xlink:href="ubxDecoder_8cpp.html#a3f7c471b91d0090e112befb07c810ee0" target="_top" xlink:title=" ">
<polygon fill="white" stroke="black" points="435,-57.5 435,-76.5 539,-76.5 539,-57.5 435,-57.5"/>
<text text-anchor="middle" x="487" y="-64.5" font-family="Helvetica,sans-Serif" font-size="10.00">gpsBitUFromWord</text>
</a>
</g>
</g>
<!-- Node1&#45;&gt;Node4 -->
<g id="edge4" class="edge">
<title>Node1&#45;&gt;Node4</title>
<path fill="none" stroke="midnightblue" d="M185.03,-67C258.74,-67 360.32,-67 424.57,-67"/>
<polygon fill="midnightblue" stroke="midnightblue" points="424.95,-70.5 434.95,-67 424.95,-63.5 424.95,-70.5"/>
</g>
<!-- Node5 -->
<g id="node5" class="node">
<title>Node5</title>
<g id="a_node5"><a xlink:href="ubxDecoder_8cpp.html#aa710d3a4e32d533b7f8e00d16e8e82c8" target="_top" xlink:title=" ">
<polygon fill="white" stroke="black" points="258.5,-0.5 258.5,-19.5 361.5,-19.5 361.5,-0.5 258.5,-0.5"/>
<text text-anchor="middle" x="310" y="-7.5" font-family="Helvetica,sans-Serif" font-size="10.00">gpsBitSFromWord</text>
</a>
</g>
</g>
<!-- Node1&#45;&gt;Node5 -->
<g id="edge5" class="edge">
<title>Node1&#45;&gt;Node5</title>
<path fill="none" stroke="midnightblue" d="M129.57,-57.46C166.24,-47.76 223.19,-32.7 263.06,-22.15"/>
<polygon fill="midnightblue" stroke="midnightblue" points="264.04,-25.51 272.81,-19.57 262.25,-18.75 264.04,-25.51"/>
</g>
<!-- Node3&#45;&gt;Node4 -->
<g id="edge3" class="edge">
<title>Node3&#45;&gt;Node4</title>
<path fill="none" stroke="midnightblue" d="M398.76,-76.47C407.49,-75.52 416.21,-74.58 424.59,-73.67"/>
<polygon fill="midnightblue" stroke="midnightblue" points="425.05,-77.14 434.61,-72.58 424.29,-70.18 425.05,-77.14"/>
</g>
</g>
</svg>
