<?xml version="1.0" encoding="UTF-8" standalone="no"?>
<!DOCTYPE svg PUBLIC "-//W3C//DTD SVG 1.1//EN"
 "http://www.w3.org/Graphics/SVG/1.1/DTD/svg11.dtd">
<!-- Generated by graphviz version 2.43.0 (0)
 -->
<!-- Title: Sp3Entry Pages: 1 -->
<svg width="194pt" height="380pt"
 viewBox="0.00 0.00 193.50 380.00" xmlns="http://www.w3.org/2000/svg" xmlns:xlink="http://www.w3.org/1999/xlink">
<g id="graph0" class="graph" transform="scale(1 1) rotate(0) translate(4 376)">
<title>Sp3Entry</title>
<polygon fill="white" stroke="transparent" points="-4,4 -4,-376 189.5,-376 189.5,4 -4,4"/>
<!-- Node1 -->
<g id="node1" class="node">
<title>Node1</title>
<g id="a_node1"><a xlink:title=" ">
<polygon fill="#bfbfbf" stroke="black" points="67.5,-0.5 67.5,-90.5 141.5,-90.5 141.5,-0.5 67.5,-0.5"/>
<text text-anchor="middle" x="104.5" y="-78.5" font-family="Helvetica,sans-Serif" font-size="10.00">Sp3Entry</text>
<polyline fill="none" stroke="black" points="67.5,-71.5 141.5,-71.5 "/>
<text text-anchor="start" x="75.5" y="-59.5" font-family="Helvetica,sans-Serif" font-size="10.00">+ satClk</text>
<text text-anchor="start" x="75.5" y="-48.5" font-family="Helvetica,sans-Serif" font-size="10.00">+ satClkVel</text>
<text text-anchor="start" x="75.5" y="-37.5" font-family="Helvetica,sans-Serif" font-size="10.00">+ sigma</text>
<text text-anchor="start" x="75.5" y="-26.5" font-family="Helvetica,sans-Serif" font-size="10.00">+ predicted</text>
<polyline fill="none" stroke="black" points="67.5,-19.5 141.5,-19.5 "/>
<text text-anchor="middle" x="104.5" y="-7.5" font-family="Helvetica,sans-Serif" font-size="10.00"> </text>
</a>
</g>
</g>
<!-- Node2 -->
<g id="node2" class="node">
<title>Node2</title>
<g id="a_node2"><a xlink:href="structSatSys.html" target="_top" xlink:title="Object holding satellite id, and providing related functions.">
<polygon fill="white" stroke="red" points="0,-149.5 0,-371.5 107,-371.5 107,-149.5 0,-149.5"/>
<text text-anchor="middle" x="53.5" y="-359.5" font-family="Helvetica,sans-Serif" font-size="10.00">SatSys</text>
<polyline fill="none" stroke="red" points="0,-352.5 107,-352.5 "/>
<text text-anchor="start" x="8" y="-340.5" font-family="Helvetica,sans-Serif" font-size="10.00">+ sys</text>
<text text-anchor="start" x="8" y="-329.5" font-family="Helvetica,sans-Serif" font-size="10.00">+ prn</text>
<polyline fill="none" stroke="red" points="0,-322.5 107,-322.5 "/>
<text text-anchor="start" x="8" y="-310.5" font-family="Helvetica,sans-Serif" font-size="10.00">+ SatSys()</text>
<text text-anchor="start" x="8" y="-299.5" font-family="Helvetica,sans-Serif" font-size="10.00">+ sysChar()</text>
<text text-anchor="start" x="8" y="-288.5" font-family="Helvetica,sans-Serif" font-size="10.00">+ getId()</text>
<text text-anchor="start" x="8" y="-277.5" font-family="Helvetica,sans-Serif" font-size="10.00">+ operator int()</text>
<text text-anchor="start" x="8" y="-266.5" font-family="Helvetica,sans-Serif" font-size="10.00">+ setBlockType()</text>
<text text-anchor="start" x="8" y="-255.5" font-family="Helvetica,sans-Serif" font-size="10.00">+ setSvn()</text>
<text text-anchor="start" x="8" y="-244.5" font-family="Helvetica,sans-Serif" font-size="10.00">+ blockType()</text>
<text text-anchor="start" x="8" y="-233.5" font-family="Helvetica,sans-Serif" font-size="10.00">+ svn()</text>
<text text-anchor="start" x="8" y="-222.5" font-family="Helvetica,sans-Serif" font-size="10.00">+ fromHash()</text>
<text text-anchor="start" x="8" y="-211.5" font-family="Helvetica,sans-Serif" font-size="10.00">+ id()</text>
<text text-anchor="start" x="8" y="-200.5" font-family="Helvetica,sans-Serif" font-size="10.00">+ operator string()</text>
<text text-anchor="start" x="8" y="-189.5" font-family="Helvetica,sans-Serif" font-size="10.00">+ SatSys()</text>
<text text-anchor="start" x="8" y="-178.5" font-family="Helvetica,sans-Serif" font-size="10.00">+ sysName()</text>
<text text-anchor="start" x="8" y="-167.5" font-family="Helvetica,sans-Serif" font-size="10.00">+ serialize()</text>
<text text-anchor="start" x="8" y="-156.5" font-family="Helvetica,sans-Serif" font-size="10.00">+ sysFromChar()</text>
</a>
</g>
</g>
<!-- Node2&#45;&gt;Node1 -->
<g id="edge1" class="edge">
<title>Node2&#45;&gt;Node1</title>
<path fill="none" stroke="#404040" d="M79.9,-149.26C84.88,-128.45 89.82,-107.83 93.94,-90.58"/>
<text text-anchor="middle" x="103" y="-117.5" font-family="Helvetica,sans-Serif" font-size="10.00"> +sat</text>
</g>
<!-- Node5 -->
<g id="node3" class="node">
<title>Node5</title>
<g id="a_node3"><a xlink:title=" ">
<polygon fill="white" stroke="black" points="125.5,-232 125.5,-289 185.5,-289 185.5,-232 125.5,-232"/>
<text text-anchor="middle" x="155.5" y="-277" font-family="Helvetica,sans-Serif" font-size="10.00">Vector3d</text>
<polyline fill="none" stroke="black" points="125.5,-270 185.5,-270 "/>
<text text-anchor="middle" x="155.5" y="-258" font-family="Helvetica,sans-Serif" font-size="10.00"> </text>
<polyline fill="none" stroke="black" points="125.5,-251 185.5,-251 "/>
<text text-anchor="middle" x="155.5" y="-239" font-family="Helvetica,sans-Serif" font-size="10.00"> </text>
</a>
</g>
</g>
<!-- Node5&#45;&gt;Node1 -->
<g id="edge2" class="edge">
<title>Node5&#45;&gt;Node1</title>
<path fill="none" stroke="#404040" d="M149.3,-231.99C142.44,-201.79 130.97,-151.87 120.5,-109 119.04,-103.02 117.47,-96.72 115.9,-90.52"/>
<text text-anchor="middle" x="146.5" y="-123" font-family="Helvetica,sans-Serif" font-size="10.00"> +satPos</text>
<text text-anchor="middle" x="146.5" y="-112" font-family="Helvetica,sans-Serif" font-size="10.00">+satVel</text>
</g>
</g>
</svg>
