<?xml version="1.0" encoding="UTF-8" standalone="no"?>
<!DOCTYPE svg PUBLIC "-//W3C//DTD SVG 1.1//EN"
 "http://www.w3.org/Graphics/SVG/1.1/DTD/svg11.dtd">
<!-- Generated by graphviz version 2.43.0 (0)
 -->
<!-- Title: SatSys::blockType Pages: 1 -->
<svg width="479pt" height="162pt"
 viewBox="0.00 0.00 479.00 161.89" xmlns="http://www.w3.org/2000/svg" xmlns:xlink="http://www.w3.org/1999/xlink">
<g id="graph0" class="graph" transform="scale(1 1) rotate(0) translate(4 157.89)">
<title>SatSys::blockType</title>
<polygon fill="white" stroke="transparent" points="-4,4 -4,-157.89 475,-157.89 475,4 -4,4"/>
<!-- Node1 -->
<g id="node1" class="node">
<title>Node1</title>
<g id="a_node1"><a xlink:title=" ">
<polygon fill="#bfbfbf" stroke="black" points="367,-58.39 367,-77.39 471,-77.39 471,-58.39 367,-58.39"/>
<text text-anchor="middle" x="419" y="-65.39" font-family="Helvetica,sans-Serif" font-size="10.00">SatSys::blockType</text>
</a>
</g>
</g>
<!-- Node2 -->
<g id="node2" class="node">
<title>Node2</title>
<g id="a_node2"><a xlink:href="structACSConfig.html#aeba33c340b4695e47f2d41bf97402400" target="_top" xlink:title="Set satellite options for a specific satellite using a hierarchy of sources.">
<polygon fill="white" stroke="red" points="203,-134.39 203,-153.39 331,-153.39 331,-134.39 203,-134.39"/>
<text text-anchor="middle" x="267" y="-141.39" font-family="Helvetica,sans-Serif" font-size="10.00">ACSConfig::getSatOpts</text>
</a>
</g>
</g>
<!-- Node1&#45;&gt;Node2 -->
<g id="edge1" class="edge">
<title>Node1&#45;&gt;Node2</title>
<path fill="none" stroke="midnightblue" d="M405.7,-77.6C389.43,-90.05 359.47,-111.61 331,-124.89 323.13,-128.56 314.38,-131.73 305.97,-134.37"/>
</g>
<!-- Node27 -->
<g id="node3" class="node">
<title>Node27</title>
<g id="a_node3"><a xlink:href="main_8cpp.html#a6c8573ceb67a86d932ae7861185b41b5" target="_top" xlink:title=" ">
<polygon fill="white" stroke="red" points="0,-20.39 0,-39.39 167,-39.39 167,-20.39 0,-20.39"/>
<text text-anchor="middle" x="83.5" y="-27.39" font-family="Helvetica,sans-Serif" font-size="10.00">mainOncePerEpochPerSatellite</text>
</a>
</g>
</g>
<!-- Node1&#45;&gt;Node27 -->
<g id="edge8" class="edge">
<title>Node1&#45;&gt;Node27</title>
<path fill="none" stroke="midnightblue" d="M407.78,-58.26C392.5,-44.59 362.15,-20.19 331,-10.89 256.35,11.38 163.65,-7.48 116.01,-20.34"/>
</g>
<!-- Node45 -->
<g id="node4" class="node">
<title>Node45</title>
<g id="a_node4"><a xlink:href="attitude_8cpp.html#aaba71c01b77e887c80e8dc69a8366d61" target="_top" xlink:title="Yaw model for GPS sats Ref: http://acc.igs.org/orbits/EclipseReadMe.pdf Ref: https://igsac&#45;cnes....">
<polygon fill="white" stroke="black" points="232.5,-96.39 232.5,-115.39 301.5,-115.39 301.5,-96.39 232.5,-96.39"/>
<text text-anchor="middle" x="267" y="-103.39" font-family="Helvetica,sans-Serif" font-size="10.00">satYawGps</text>
</a>
</g>
</g>
<!-- Node1&#45;&gt;Node45 -->
<g id="edge3" class="edge">
<title>Node1&#45;&gt;Node45</title>
<path fill="none" stroke="midnightblue" d="M380.15,-77.48C356.02,-83.6 325.03,-91.45 301.74,-97.35"/>
</g>
<!-- Node46 -->
<g id="node5" class="node">
<title>Node46</title>
<g id="a_node5"><a xlink:href="attitude_8cpp.html#afbb15500af25a5aabc6237b8e027c128" target="_top" xlink:title="Calculates nominal &amp; model yaw Returns false if no modelled yaw available.">
<polygon fill="white" stroke="red" points="58.5,-77.39 58.5,-96.39 108.5,-96.39 108.5,-77.39 58.5,-77.39"/>
<text text-anchor="middle" x="83.5" y="-84.39" font-family="Helvetica,sans-Serif" font-size="10.00">satYaw</text>
</a>
</g>
</g>
<!-- Node1&#45;&gt;Node46 -->
<g id="edge5" class="edge">
<title>Node1&#45;&gt;Node46</title>
<path fill="none" stroke="midnightblue" d="M366.99,-70.8C294,-74.96 162.64,-82.44 108.66,-85.52"/>
</g>
<!-- Node47 -->
<g id="node6" class="node">
<title>Node47</title>
<g id="a_node6"><a xlink:href="structSatSys.html#aa2f7732319c19c6aa872606483a9c471" target="_top" xlink:title=" ">
<polygon fill="white" stroke="red" points="207,-20.39 207,-39.39 327,-39.39 327,-20.39 207,-20.39"/>
<text text-anchor="middle" x="267" y="-27.39" font-family="Helvetica,sans-Serif" font-size="10.00">SatSys::setBlockType</text>
</a>
</g>
</g>
<!-- Node1&#45;&gt;Node47 -->
<g id="edge6" class="edge">
<title>Node1&#45;&gt;Node47</title>
<path fill="none" stroke="midnightblue" d="M380.15,-58.31C357.32,-52.52 328.36,-45.18 305.58,-39.41"/>
</g>
<!-- Node2&#45;&gt;Node27 -->
<g id="edge2" class="edge">
<title>Node2&#45;&gt;Node27</title>
<path fill="none" stroke="midnightblue" d="M220.05,-134.31C213.97,-131.85 208.09,-128.77 203,-124.89 179.15,-106.76 189.54,-87.64 167,-67.89 152.29,-55.01 132.48,-45.69 115.95,-39.51"/>
</g>
<!-- Node45&#45;&gt;Node46 -->
<g id="edge4" class="edge">
<title>Node45&#45;&gt;Node46</title>
<path fill="none" stroke="midnightblue" d="M232.29,-102.36C196.41,-98.61 140.52,-92.76 108.75,-89.43"/>
</g>
<!-- Node47&#45;&gt;Node27 -->
<g id="edge7" class="edge">
<title>Node47&#45;&gt;Node27</title>
<path fill="none" stroke="midnightblue" d="M206.82,-29.89C194.1,-29.89 180.43,-29.89 167,-29.89"/>
</g>
</g>
</svg>
