<?xml version="1.0" encoding="UTF-8" standalone="no"?>
<!DOCTYPE svg PUBLIC "-//W3C//DTD SVG 1.1//EN"
 "http://www.w3.org/Graphics/SVG/1.1/DTD/svg11.dtd">
<!-- Generated by graphviz version 2.43.0 (0)
 -->
<!-- Title: Parser Pages: 1 -->
<!--zoomable 270 -->
<svg id="main" version="1.1" xmlns="http://www.w3.org/2000/svg" xmlns:xlink="http://www.w3.org/1999/xlink" xml:space="preserve" onload="init(evt)">
<style type="text/css"><![CDATA[
.edge:hover path { stroke: red; }
.edge:hover polygon { stroke: red; fill: red; }
]]></style>
<script type="text/javascript"><![CDATA[
var edges = document.getElementsByTagName('g');
if (edges && edges.length) {
  for (var i=0;i<edges.length;i++) {
    if (edges[i].id.substr(0,4)=='edge') {
      edges[i].setAttribute('class','edge');
    }
  }
}
]]></script>
        <defs>
                <circle id="rim" cx="0" cy="0" r="7"/>
                <circle id="rim2" cx="0" cy="0" r="3.5"/>
                <g id="zoomPlus">
                        <use xlink:href="#rim" fill="#404040">
                                <set attributeName="fill" to="#808080" begin="zoomplus.mouseover" end="zoomplus.mouseout"/>
                        </use>
                        <path d="M-4,0h8M0,-4v8" fill="none" stroke="white" stroke-width="1.5" pointer-events="none"/>
                </g>
                <g id="zoomMin">
                        <use xlink:href="#rim" fill="#404040">
                                <set attributeName="fill" to="#808080" begin="zoomminus.mouseover" end="zoomminus.mouseout"/>
                        </use>
                        <path d="M-4,0h8" fill="none" stroke="white" stroke-width="1.5" pointer-events="none"/>
                </g>
                <g id="dirArrow">
                        <path fill="none" stroke="white" stroke-width="1.5" d="M0,-3.0v7 M-2.5,-0.5L0,-3.0L2.5,-0.5"/>
                </g>
               <g id="resetDef">
                       <use xlink:href="#rim2" fill="#404040">
                               <set attributeName="fill" to="#808080" begin="reset.mouseover" end="reset.mouseout"/>
                       </use>
               </g>
        </defs>

<script type="text/javascript">
var viewWidth = 716;
var viewHeight = 270;
var sectionId = 'dynsection-0';
</script>
<script xlink:href="svgpan.js"/>
<svg id="graph" class="graph">
<g id="viewport">
<title>Parser</title>
<polygon fill="white" stroke="transparent" points="-4,4 -4,-266 712,-266 712,4 -4,4"/>
<!-- Node1 -->
<g id="node1" class="node">
<title>Node1</title>
<g id="a_node1"><a xlink:title=" ">
<polygon fill="#bfbfbf" stroke="black" points="332,-182.5 332,-261.5 421,-261.5 421,-182.5 332,-182.5"/>
<text text-anchor="middle" x="376.5" y="-249.5" font-family="Helvetica,sans-Serif" font-size="10.00">Parser</text>
<polyline fill="none" stroke="black" points="332,-242.5 421,-242.5 "/>
<text text-anchor="middle" x="376.5" y="-230.5" font-family="Helvetica,sans-Serif" font-size="10.00"> </text>
<polyline fill="none" stroke="black" points="332,-223.5 421,-223.5 "/>
<text text-anchor="start" x="340" y="-211.5" font-family="Helvetica,sans-Serif" font-size="10.00">+ parse()</text>
<text text-anchor="start" x="340" y="-200.5" font-family="Helvetica,sans-Serif" font-size="10.00">+ parserType()</text>
<text text-anchor="start" x="340" y="-189.5" font-family="Helvetica,sans-Serif" font-size="10.00">+ ~Parser()</text>
</a>
</g>
</g>
<!-- Node2 -->
<g id="node2" class="node">
<title>Node2</title>
<g id="a_node2"><a xlink:href="structRinexParser.html" target="_top" xlink:title=" ">
<polygon fill="white" stroke="black" points="0,-6 0,-140 97,-140 97,-6 0,-6"/>
<text text-anchor="middle" x="48.5" y="-128" font-family="Helvetica,sans-Serif" font-size="10.00">RinexParser</text>
<polyline fill="none" stroke="black" points="0,-121 97,-121 "/>
<text text-anchor="start" x="8" y="-109" font-family="Helvetica,sans-Serif" font-size="10.00">+ ctype</text>
<text text-anchor="start" x="8" y="-98" font-family="Helvetica,sans-Serif" font-size="10.00">+ version</text>
<text text-anchor="start" x="8" y="-87" font-family="Helvetica,sans-Serif" font-size="10.00">+ nav_system</text>
<text text-anchor="start" x="8" y="-76" font-family="Helvetica,sans-Serif" font-size="10.00">+ time_system</text>
<text text-anchor="start" x="8" y="-65" font-family="Helvetica,sans-Serif" font-size="10.00">+ sysCodeTypes</text>
<text text-anchor="start" x="8" y="-54" font-family="Helvetica,sans-Serif" font-size="10.00">+ tempObsList</text>
<text text-anchor="start" x="8" y="-43" font-family="Helvetica,sans-Serif" font-size="10.00">+ rnxStation</text>
<polyline fill="none" stroke="black" points="0,-36 97,-36 "/>
<text text-anchor="start" x="8" y="-24" font-family="Helvetica,sans-Serif" font-size="10.00">+ parse()</text>
<text text-anchor="start" x="8" y="-13" font-family="Helvetica,sans-Serif" font-size="10.00">+ parserType()</text>
</a>
</g>
</g>
<!-- Node1&#45;&gt;Node2 -->
<g id="edge1" class="edge">
<title>Node1&#45;&gt;Node2</title>
<path fill="none" stroke="midnightblue" d="M331.71,-217.18C274.9,-210.52 175.88,-192.68 105.5,-146 102.71,-144.15 99.99,-142.12 97.36,-139.95"/>
</g>
<!-- Node3 -->
<g id="node3" class="node">
<title>Node3</title>
<g id="a_node3"><a xlink:href="structRtcmParser.html" target="_top" xlink:title=" ">
<polygon fill="white" stroke="black" points="115,-39 115,-107 204,-107 204,-39 115,-39"/>
<text text-anchor="middle" x="159.5" y="-95" font-family="Helvetica,sans-Serif" font-size="10.00">RtcmParser</text>
<polyline fill="none" stroke="black" points="115,-88 204,-88 "/>
<text text-anchor="middle" x="159.5" y="-76" font-family="Helvetica,sans-Serif" font-size="10.00"> </text>
<polyline fill="none" stroke="black" points="115,-69 204,-69 "/>
<text text-anchor="start" x="123" y="-57" font-family="Helvetica,sans-Serif" font-size="10.00">+ parse()</text>
<text text-anchor="start" x="123" y="-46" font-family="Helvetica,sans-Serif" font-size="10.00">+ parserType()</text>
</a>
</g>
</g>
<!-- Node1&#45;&gt;Node3 -->
<g id="edge2" class="edge">
<title>Node1&#45;&gt;Node3</title>
<path fill="none" stroke="midnightblue" d="M331.68,-207.18C296.93,-194.95 248.88,-174.57 213.5,-146 200.13,-135.2 188.28,-120.39 179.11,-107.01"/>
</g>
<!-- Node4 -->
<g id="node4" class="node">
<title>Node4</title>
<g id="a_node4"><a xlink:href="structSinexParser.html" target="_top" xlink:title=" ">
<polygon fill="white" stroke="black" points="222.5,-0.5 222.5,-145.5 386.5,-145.5 386.5,-0.5 222.5,-0.5"/>
<text text-anchor="middle" x="304.5" y="-133.5" font-family="Helvetica,sans-Serif" font-size="10.00">SinexParser</text>
<polyline fill="none" stroke="black" points="222.5,-126.5 386.5,-126.5 "/>
<text text-anchor="start" x="230.5" y="-114.5" font-family="Helvetica,sans-Serif" font-size="10.00">+ parameterMap</text>
<text text-anchor="start" x="230.5" y="-103.5" font-family="Helvetica,sans-Serif" font-size="10.00">+ valueMap</text>
<text text-anchor="start" x="230.5" y="-92.5" font-family="Helvetica,sans-Serif" font-size="10.00">+ discontinuityMap</text>
<polyline fill="none" stroke="black" points="222.5,-85.5 386.5,-85.5 "/>
<text text-anchor="start" x="230.5" y="-73.5" font-family="Helvetica,sans-Serif" font-size="10.00">+ nearestYear()</text>
<text text-anchor="start" x="230.5" y="-62.5" font-family="Helvetica,sans-Serif" font-size="10.00">+ nullFunction()</text>
<text text-anchor="start" x="230.5" y="-51.5" font-family="Helvetica,sans-Serif" font-size="10.00">+ parseSinexEstimates()</text>
<text text-anchor="start" x="230.5" y="-40.5" font-family="Helvetica,sans-Serif" font-size="10.00">+ parseSinexEstimateMatrix()</text>
<text text-anchor="start" x="230.5" y="-29.5" font-family="Helvetica,sans-Serif" font-size="10.00">+ parseSinexDiscontinuities()</text>
<text text-anchor="start" x="230.5" y="-18.5" font-family="Helvetica,sans-Serif" font-size="10.00">+ parse()</text>
<text text-anchor="start" x="230.5" y="-7.5" font-family="Helvetica,sans-Serif" font-size="10.00">+ parserType()</text>
</a>
</g>
</g>
<!-- Node1&#45;&gt;Node4 -->
<g id="edge3" class="edge">
<title>Node1&#45;&gt;Node4</title>
<path fill="none" stroke="midnightblue" d="M357.58,-182.38C352.04,-171.06 345.8,-158.31 339.59,-145.64"/>
</g>
<!-- Node5 -->
<g id="node5" class="node">
<title>Node5</title>
<g id="a_node5"><a xlink:href="structSlrParser.html" target="_top" xlink:title="Interface for slr streams.">
<polygon fill="white" stroke="black" points="405,-33.5 405,-112.5 494,-112.5 494,-33.5 405,-33.5"/>
<text text-anchor="middle" x="449.5" y="-100.5" font-family="Helvetica,sans-Serif" font-size="10.00">SlrParser</text>
<polyline fill="none" stroke="black" points="405,-93.5 494,-93.5 "/>
<text text-anchor="middle" x="449.5" y="-81.5" font-family="Helvetica,sans-Serif" font-size="10.00"> </text>
<polyline fill="none" stroke="black" points="405,-74.5 494,-74.5 "/>
<text text-anchor="start" x="413" y="-62.5" font-family="Helvetica,sans-Serif" font-size="10.00">+ SlrParser()</text>
<text text-anchor="start" x="413" y="-51.5" font-family="Helvetica,sans-Serif" font-size="10.00">+ parse()</text>
<text text-anchor="start" x="413" y="-40.5" font-family="Helvetica,sans-Serif" font-size="10.00">+ parserType()</text>
</a>
</g>
</g>
<!-- Node1&#45;&gt;Node5 -->
<g id="edge4" class="edge">
<title>Node1&#45;&gt;Node5</title>
<path fill="none" stroke="midnightblue" d="M395.68,-182.38C406.37,-160.86 419.63,-134.14 430.32,-112.62"/>
</g>
<!-- Node6 -->
<g id="node6" class="node">
<title>Node6</title>
<g id="a_node6"><a xlink:href="structSp3Parser.html" target="_top" xlink:title=" ">
<polygon fill="white" stroke="black" points="512,-28 512,-118 601,-118 601,-28 512,-28"/>
<text text-anchor="middle" x="556.5" y="-106" font-family="Helvetica,sans-Serif" font-size="10.00">Sp3Parser</text>
<polyline fill="none" stroke="black" points="512,-99 601,-99 "/>
<text text-anchor="start" x="520" y="-87" font-family="Helvetica,sans-Serif" font-size="10.00">+ tempObsList</text>
<text text-anchor="start" x="520" y="-76" font-family="Helvetica,sans-Serif" font-size="10.00">+ tsys</text>
<text text-anchor="start" x="520" y="-65" font-family="Helvetica,sans-Serif" font-size="10.00">+ bfact</text>
<polyline fill="none" stroke="black" points="512,-58 601,-58 "/>
<text text-anchor="start" x="520" y="-46" font-family="Helvetica,sans-Serif" font-size="10.00">+ parse()</text>
<text text-anchor="start" x="520" y="-35" font-family="Helvetica,sans-Serif" font-size="10.00">+ parserType()</text>
</a>
</g>
</g>
<!-- Node1&#45;&gt;Node6 -->
<g id="edge5" class="edge">
<title>Node1&#45;&gt;Node6</title>
<path fill="none" stroke="midnightblue" d="M421.16,-200.29C446.94,-187.02 478.99,-168.15 503.5,-146 512.48,-137.88 520.91,-128.03 528.29,-118.25"/>
</g>
<!-- Node7 -->
<g id="node7" class="node">
<title>Node7</title>
<g id="a_node7"><a xlink:href="structUbxParser.html" target="_top" xlink:title=" ">
<polygon fill="white" stroke="black" points="619,-39 619,-107 708,-107 708,-39 619,-39"/>
<text text-anchor="middle" x="663.5" y="-95" font-family="Helvetica,sans-Serif" font-size="10.00">UbxParser</text>
<polyline fill="none" stroke="black" points="619,-88 708,-88 "/>
<text text-anchor="middle" x="663.5" y="-76" font-family="Helvetica,sans-Serif" font-size="10.00"> </text>
<polyline fill="none" stroke="black" points="619,-69 708,-69 "/>
<text text-anchor="start" x="627" y="-57" font-family="Helvetica,sans-Serif" font-size="10.00">+ parse()</text>
<text text-anchor="start" x="627" y="-46" font-family="Helvetica,sans-Serif" font-size="10.00">+ parserType()</text>
</a>
</g>
</g>
<!-- Node1&#45;&gt;Node7 -->
<g id="edge6" class="edge">
<title>Node1&#45;&gt;Node7</title>
<path fill="none" stroke="midnightblue" d="M421.16,-215.11C471.19,-206.71 552.82,-187.46 610.5,-146 624.62,-135.85 636.53,-120.8 645.46,-107.08"/>
</g>
</g>
</svg>
        <g id="navigator" transform="translate(0 0)" fill="#404254">
                <rect fill="#f2f5e9" fill-opacity="0.5" stroke="#606060" stroke-width=".5" x="0" y="0" width="60" height="60"/>
                <use id="zoomplus" xlink:href="#zoomPlus" x="17" y="9" onmousedown="handleZoom(evt,'in')"/>
                <use id="zoomminus" xlink:href="#zoomMin" x="42" y="9" onmousedown="handleZoom(evt,'out')"/>
                <use id="reset" xlink:href="#resetDef" x="30" y="36" onmousedown="handleReset()"/>
                <g id="arrowUp" xlink:href="#dirArrow" transform="translate(30 24)" onmousedown="handlePan(0,-1)">
                  <use xlink:href="#rim" fill="#404040">
                        <set attributeName="fill" to="#808080" begin="arrowUp.mouseover" end="arrowUp.mouseout"/>
                  </use>
                  <path fill="none" stroke="white" stroke-width="1.5" d="M0,-3.0v7 M-2.5,-0.5L0,-3.0L2.5,-0.5"/>
                </g>
                <g id="arrowRight" xlink:href="#dirArrow" transform="rotate(90) translate(36 -43)" onmousedown="handlePan(1,0)">
                  <use xlink:href="#rim" fill="#404040">
                        <set attributeName="fill" to="#808080" begin="arrowRight.mouseover" end="arrowRight.mouseout"/>
                  </use>
                  <path fill="none" stroke="white" stroke-width="1.5" d="M0,-3.0v7 M-2.5,-0.5L0,-3.0L2.5,-0.5"/>
                </g>
                <g id="arrowDown" xlink:href="#dirArrow" transform="rotate(180) translate(-30 -48)" onmousedown="handlePan(0,1)">
                  <use xlink:href="#rim" fill="#404040">
                        <set attributeName="fill" to="#808080" begin="arrowDown.mouseover" end="arrowDown.mouseout"/>
                  </use>
                  <path fill="none" stroke="white" stroke-width="1.5" d="M0,-3.0v7 M-2.5,-0.5L0,-3.0L2.5,-0.5"/>
                </g>
                <g id="arrowLeft" xlink:href="#dirArrow" transform="rotate(270) translate(-36 17)" onmousedown="handlePan(-1,0)">
                  <use xlink:href="#rim" fill="#404040">
                        <set attributeName="fill" to="#808080" begin="arrowLeft.mouseover" end="arrowLeft.mouseout"/>
                  </use>
                  <path fill="none" stroke="white" stroke-width="1.5" d="M0,-3.0v7 M-2.5,-0.5L0,-3.0L2.5,-0.5"/>
                </g>
        </g>
        <svg viewBox="0 0 15 15" width="100%" height="30px" preserveAspectRatio="xMaxYMin meet">
         <g id="arrow_out" transform="scale(0.3 0.3)">
          <a xlink:href="structParser__inherit__graph_org.svg" target="_base">
           <rect id="button" ry="5" rx="5" y="6" x="6" height="38" width="38"
                fill="#f2f5e9" fill-opacity="0.5" stroke="#606060" stroke-width="1.0"/>
           <path id="arrow"
             d="M 11.500037,31.436501 C 11.940474,20.09759 22.043105,11.32322 32.158766,21.979434 L 37.068811,17.246167 C 37.068811,17.246167 37.088388,32 37.088388,32 L 22.160133,31.978069 C 22.160133,31.978069 26.997745,27.140456 26.997745,27.140456 C 18.528582,18.264221 13.291696,25.230495 11.500037,31.436501 z"
             style="fill:#404040;"/>
          </a>
         </g>
        </svg>
</svg>
