<?xml version="1.0" encoding="UTF-8" standalone="no"?>
<!DOCTYPE svg PUBLIC "-//W3C//DTD SVG 1.1//EN"
 "http://www.w3.org/Graphics/SVG/1.1/DTD/svg11.dtd">
<!-- Generated by graphviz version 2.43.0 (0)
 -->
<!-- Title: Sinex_solneq_t Pages: 1 -->
<svg width="104pt" height="248pt"
 viewBox="0.00 0.00 104.00 248.00" xmlns="http://www.w3.org/2000/svg" xmlns:xlink="http://www.w3.org/1999/xlink">
<g id="graph0" class="graph" transform="scale(1 1) rotate(0) translate(4 244)">
<title>Sinex_solneq_t</title>
<polygon fill="white" stroke="transparent" points="-4,4 -4,-244 100,-244 100,4 -4,4"/>
<!-- Node1 -->
<g id="node1" class="node">
<title>Node1</title>
<g id="a_node1"><a xlink:title=" ">
<polygon fill="#bfbfbf" stroke="black" points="0,-0.5 0,-90.5 90,-90.5 90,-0.5 0,-0.5"/>
<text text-anchor="middle" x="45" y="-78.5" font-family="Helvetica,sans-Serif" font-size="10.00">Sinex_solneq_t</text>
<polyline fill="none" stroke="black" points="0,-71.5 90,-71.5 "/>
<text text-anchor="start" x="8" y="-59.5" font-family="Helvetica,sans-Serif" font-size="10.00">+ param</text>
<text text-anchor="start" x="8" y="-48.5" font-family="Helvetica,sans-Serif" font-size="10.00">+ epoch</text>
<text text-anchor="start" x="8" y="-37.5" font-family="Helvetica,sans-Serif" font-size="10.00">+ constraint</text>
<text text-anchor="start" x="8" y="-26.5" font-family="Helvetica,sans-Serif" font-size="10.00">+ normal</text>
<polyline fill="none" stroke="black" points="0,-19.5 90,-19.5 "/>
<text text-anchor="middle" x="45" y="-7.5" font-family="Helvetica,sans-Serif" font-size="10.00"> </text>
</a>
</g>
</g>
<!-- Node2 -->
<g id="node2" class="node">
<title>Node2</title>
<g id="a_node2"><a xlink:title=" ">
<polygon fill="white" stroke="black" points="23,-182.5 23,-239.5 67,-239.5 67,-182.5 23,-182.5"/>
<text text-anchor="middle" x="45" y="-227.5" font-family="Helvetica,sans-Serif" font-size="10.00">string</text>
<polyline fill="none" stroke="black" points="23,-220.5 67,-220.5 "/>
<text text-anchor="middle" x="45" y="-208.5" font-family="Helvetica,sans-Serif" font-size="10.00"> </text>
<polyline fill="none" stroke="black" points="23,-201.5 67,-201.5 "/>
<text text-anchor="middle" x="45" y="-189.5" font-family="Helvetica,sans-Serif" font-size="10.00"> </text>
</a>
</g>
</g>
<!-- Node2&#45;&gt;Node1 -->
<g id="edge1" class="edge">
<title>Node2&#45;&gt;Node1</title>
<path fill="none" stroke="#404040" d="M45,-182.26C45,-157.21 45,-119.9 45,-90.73"/>
<text text-anchor="middle" x="70.5" y="-156" font-family="Helvetica,sans-Serif" font-size="10.00"> +pt</text>
<text text-anchor="middle" x="70.5" y="-145" font-family="Helvetica,sans-Serif" font-size="10.00">+ptype</text>
<text text-anchor="middle" x="70.5" y="-134" font-family="Helvetica,sans-Serif" font-size="10.00">+site</text>
<text text-anchor="middle" x="70.5" y="-123" font-family="Helvetica,sans-Serif" font-size="10.00">+solnnum</text>
<text text-anchor="middle" x="70.5" y="-112" font-family="Helvetica,sans-Serif" font-size="10.00">+unit</text>
</g>
</g>
</svg>
