<?xml version="1.0" encoding="UTF-8" standalone="no"?>
<!DOCTYPE svg PUBLIC "-//W3C//DTD SVG 1.1//EN"
 "http://www.w3.org/Graphics/SVG/1.1/DTD/svg11.dtd">
<!-- Generated by graphviz version 2.43.0 (0)
 -->
<!-- Title: ModelTrop Pages: 1 -->
<svg width="100pt" height="193pt"
 viewBox="0.00 0.00 99.50 193.00" xmlns="http://www.w3.org/2000/svg" xmlns:xlink="http://www.w3.org/1999/xlink">
<g id="graph0" class="graph" transform="scale(1 1) rotate(0) translate(4 189)">
<title>ModelTrop</title>
<polygon fill="white" stroke="transparent" points="-4,4 -4,-189 95.5,-189 95.5,4 -4,4"/>
<!-- Node1 -->
<g id="node1" class="node">
<title>Node1</title>
<g id="a_node1"><a xlink:title="Options to set the tropospheric model used in calculations.">
<polygon fill="#bfbfbf" stroke="black" points="0,-0.5 0,-68.5 67,-68.5 67,-0.5 0,-0.5"/>
<text text-anchor="middle" x="33.5" y="-56.5" font-family="Helvetica,sans-Serif" font-size="10.00">ModelTrop</text>
<polyline fill="none" stroke="black" points="0,-49.5 67,-49.5 "/>
<text text-anchor="start" x="8" y="-37.5" font-family="Helvetica,sans-Serif" font-size="10.00">+ model</text>
<text text-anchor="start" x="8" y="-26.5" font-family="Helvetica,sans-Serif" font-size="10.00">+ enable</text>
<polyline fill="none" stroke="black" points="0,-19.5 67,-19.5 "/>
<text text-anchor="middle" x="33.5" y="-7.5" font-family="Helvetica,sans-Serif" font-size="10.00"> </text>
</a>
</g>
</g>
<!-- Node2 -->
<g id="node2" class="node">
<title>Node2</title>
<g id="a_node2"><a xlink:title=" ">
<polygon fill="white" stroke="black" points="11.5,-127.5 11.5,-184.5 55.5,-184.5 55.5,-127.5 11.5,-127.5"/>
<text text-anchor="middle" x="33.5" y="-172.5" font-family="Helvetica,sans-Serif" font-size="10.00">string</text>
<polyline fill="none" stroke="black" points="11.5,-165.5 55.5,-165.5 "/>
<text text-anchor="middle" x="33.5" y="-153.5" font-family="Helvetica,sans-Serif" font-size="10.00"> </text>
<polyline fill="none" stroke="black" points="11.5,-146.5 55.5,-146.5 "/>
<text text-anchor="middle" x="33.5" y="-134.5" font-family="Helvetica,sans-Serif" font-size="10.00"> </text>
</a>
</g>
</g>
<!-- Node2&#45;&gt;Node1 -->
<g id="edge1" class="edge">
<title>Node2&#45;&gt;Node1</title>
<path fill="none" stroke="#404040" d="M33.5,-127.28C33.5,-109.77 33.5,-87.05 33.5,-68.59"/>
<text text-anchor="middle" x="62.5" y="-101" font-family="Helvetica,sans-Serif" font-size="10.00"> +gpt2grid</text>
<text text-anchor="middle" x="62.5" y="-90" font-family="Helvetica,sans-Serif" font-size="10.00">+orography</text>
</g>
</g>
</svg>
