<?xml version="1.0" encoding="UTF-8" standalone="no"?>
<!DOCTYPE svg PUBLIC "-//W3C//DTD SVG 1.1//EN"
 "http://www.w3.org/Graphics/SVG/1.1/DTD/svg11.dtd">
<!-- Generated by graphviz version 2.43.0 (0)
 -->
<!-- Title: Sinex_receiver_t Pages: 1 -->
<svg width="182pt" height="325pt"
 viewBox="0.00 0.00 181.50 325.00" xmlns="http://www.w3.org/2000/svg" xmlns:xlink="http://www.w3.org/1999/xlink">
<g id="graph0" class="graph" transform="scale(1 1) rotate(0) translate(4 321)">
<title>Sinex_receiver_t</title>
<polygon fill="white" stroke="transparent" points="-4,4 -4,-321 177.5,-321 177.5,4 -4,4"/>
<!-- Node1 -->
<g id="node1" class="node">
<title>Node1</title>
<g id="a_node1"><a xlink:title=" ">
<polygon fill="#bfbfbf" stroke="black" points="21,-0.5 21,-68.5 119,-68.5 119,-0.5 21,-0.5"/>
<text text-anchor="middle" x="70" y="-56.5" font-family="Helvetica,sans-Serif" font-size="10.00">Sinex_receiver_t</text>
<polyline fill="none" stroke="black" points="21,-49.5 119,-49.5 "/>
<text text-anchor="start" x="29" y="-37.5" font-family="Helvetica,sans-Serif" font-size="10.00">+ typecode</text>
<text text-anchor="start" x="29" y="-26.5" font-family="Helvetica,sans-Serif" font-size="10.00">+ used</text>
<polyline fill="none" stroke="black" points="21,-19.5 119,-19.5 "/>
<text text-anchor="middle" x="70" y="-7.5" font-family="Helvetica,sans-Serif" font-size="10.00"> </text>
</a>
</g>
</g>
<!-- Node2 -->
<g id="node2" class="node">
<title>Node2</title>
<g id="a_node2"><a xlink:title=" ">
<polygon fill="white" stroke="black" points="0,-215.5 0,-272.5 44,-272.5 44,-215.5 0,-215.5"/>
<text text-anchor="middle" x="22" y="-260.5" font-family="Helvetica,sans-Serif" font-size="10.00">string</text>
<polyline fill="none" stroke="black" points="0,-253.5 44,-253.5 "/>
<text text-anchor="middle" x="22" y="-241.5" font-family="Helvetica,sans-Serif" font-size="10.00"> </text>
<polyline fill="none" stroke="black" points="0,-234.5 44,-234.5 "/>
<text text-anchor="middle" x="22" y="-222.5" font-family="Helvetica,sans-Serif" font-size="10.00"> </text>
</a>
</g>
</g>
<!-- Node2&#45;&gt;Node1 -->
<g id="edge1" class="edge">
<title>Node2&#45;&gt;Node1</title>
<path fill="none" stroke="#404040" d="M23.87,-215.42C26.55,-183.84 32.72,-130.79 46,-87 47.83,-80.96 50.25,-74.72 52.84,-68.76"/>
<text text-anchor="middle" x="71" y="-145" font-family="Helvetica,sans-Serif" font-size="10.00"> +firm</text>
<text text-anchor="middle" x="71" y="-134" font-family="Helvetica,sans-Serif" font-size="10.00">+ptcode</text>
<text text-anchor="middle" x="71" y="-123" font-family="Helvetica,sans-Serif" font-size="10.00">+sitecode</text>
<text text-anchor="middle" x="71" y="-112" font-family="Helvetica,sans-Serif" font-size="10.00">+sn</text>
<text text-anchor="middle" x="71" y="-101" font-family="Helvetica,sans-Serif" font-size="10.00">+solnid</text>
<text text-anchor="middle" x="71" y="-90" font-family="Helvetica,sans-Serif" font-size="10.00">+type</text>
</g>
<!-- Node3 -->
<g id="node3" class="node">
<title>Node3</title>
<g id="a_node3"><a xlink:href="structUYds.html" target="_top" xlink:title=" ">
<polygon fill="white" stroke="red" points="62.5,-171.5 62.5,-316.5 173.5,-316.5 173.5,-171.5 62.5,-171.5"/>
<text text-anchor="middle" x="118" y="-304.5" font-family="Helvetica,sans-Serif" font-size="10.00">UYds</text>
<polyline fill="none" stroke="red" points="62.5,-297.5 173.5,-297.5 "/>
<text text-anchor="start" x="70.5" y="-285.5" font-family="Helvetica,sans-Serif" font-size="10.00">+ year</text>
<text text-anchor="start" x="70.5" y="-274.5" font-family="Helvetica,sans-Serif" font-size="10.00">+ doy</text>
<text text-anchor="start" x="70.5" y="-263.5" font-family="Helvetica,sans-Serif" font-size="10.00">+ sod</text>
<polyline fill="none" stroke="red" points="62.5,-256.5 173.5,-256.5 "/>
<text text-anchor="start" x="70.5" y="-244.5" font-family="Helvetica,sans-Serif" font-size="10.00">+ UYds()</text>
<text text-anchor="start" x="70.5" y="-233.5" font-family="Helvetica,sans-Serif" font-size="10.00">+ UYds()</text>
<text text-anchor="start" x="70.5" y="-222.5" font-family="Helvetica,sans-Serif" font-size="10.00">+ operator=()</text>
<text text-anchor="start" x="70.5" y="-211.5" font-family="Helvetica,sans-Serif" font-size="10.00">+ UYds()</text>
<text text-anchor="start" x="70.5" y="-200.5" font-family="Helvetica,sans-Serif" font-size="10.00">+ operator+=()</text>
<text text-anchor="start" x="70.5" y="-189.5" font-family="Helvetica,sans-Serif" font-size="10.00">+ operator=()</text>
<text text-anchor="start" x="70.5" y="-178.5" font-family="Helvetica,sans-Serif" font-size="10.00">+ operator GTime()</text>
</a>
</g>
</g>
<!-- Node3&#45;&gt;Node1 -->
<g id="edge2" class="edge">
<title>Node3&#45;&gt;Node1</title>
<path fill="none" stroke="#404040" d="M112.85,-171.24C109.64,-144.39 104.43,-113.88 96,-87 94.08,-80.88 91.5,-74.61 88.7,-68.63"/>
<text text-anchor="middle" x="124.5" y="-123" font-family="Helvetica,sans-Serif" font-size="10.00"> +end</text>
<text text-anchor="middle" x="124.5" y="-112" font-family="Helvetica,sans-Serif" font-size="10.00">+start</text>
</g>
</g>
</svg>
