<?xml version="1.0" encoding="UTF-8" standalone="no"?>
<!DOCTYPE svg PUBLIC "-//W3C//DTD SVG 1.1//EN"
 "http://www.w3.org/Graphics/SVG/1.1/DTD/svg11.dtd">
<!-- Generated by graphviz version 2.43.0 (0)
 -->
<!-- Title: FileRtcmStream Pages: 1 -->
<svg width="987pt" height="858pt"
 viewBox="0.00 0.00 987.00 858.00" xmlns="http://www.w3.org/2000/svg" xmlns:xlink="http://www.w3.org/1999/xlink">
<g id="graph0" class="graph" transform="scale(1 1) rotate(0) translate(4 854)">
<title>FileRtcmStream</title>
<polygon fill="white" stroke="transparent" points="-4,4 -4,-854 983,-854 983,4 -4,4"/>
<!-- Node1 -->
<g id="node1" class="node">
<title>Node1</title>
<g id="a_node1"><a xlink:title="Object that streams RTCM data from a file.">
<polygon fill="#bfbfbf" stroke="black" points="147,-0.5 147,-101.5 260,-101.5 260,-0.5 147,-0.5"/>
<text text-anchor="middle" x="203.5" y="-89.5" font-family="Helvetica,sans-Serif" font-size="10.00">FileRtcmStream</text>
<polyline fill="none" stroke="black" points="147,-82.5 260,-82.5 "/>
<text text-anchor="start" x="155" y="-70.5" font-family="Helvetica,sans-Serif" font-size="10.00">+ lastObsListSize</text>
<polyline fill="none" stroke="black" points="147,-63.5 260,-63.5 "/>
<text text-anchor="start" x="155" y="-51.5" font-family="Helvetica,sans-Serif" font-size="10.00">+ FileRtcmStream()</text>
<text text-anchor="start" x="155" y="-40.5" font-family="Helvetica,sans-Serif" font-size="10.00">+ open()</text>
<text text-anchor="start" x="155" y="-29.5" font-family="Helvetica,sans-Serif" font-size="10.00">+ getObs()</text>
<text text-anchor="start" x="155" y="-18.5" font-family="Helvetica,sans-Serif" font-size="10.00">+ getNav()</text>
<text text-anchor="start" x="155" y="-7.5" font-family="Helvetica,sans-Serif" font-size="10.00">+ isDead()</text>
</a>
</g>
</g>
<!-- Node2 -->
<g id="node2" class="node">
<title>Node2</title>
<g id="a_node2"><a xlink:href="structACSFileStream.html" target="_top" xlink:title="Interface to be used for file streams.">
<polygon fill="white" stroke="black" points="0,-226.5 0,-305.5 107,-305.5 107,-226.5 0,-226.5"/>
<text text-anchor="middle" x="53.5" y="-293.5" font-family="Helvetica,sans-Serif" font-size="10.00">ACSFileStream</text>
<polyline fill="none" stroke="black" points="0,-286.5 107,-286.5 "/>
<text text-anchor="start" x="8" y="-274.5" font-family="Helvetica,sans-Serif" font-size="10.00">+ filePos</text>
<polyline fill="none" stroke="black" points="0,-267.5 107,-267.5 "/>
<text text-anchor="start" x="8" y="-255.5" font-family="Helvetica,sans-Serif" font-size="10.00">+ ACSFileStream()</text>
<text text-anchor="start" x="8" y="-244.5" font-family="Helvetica,sans-Serif" font-size="10.00">+ setPath()</text>
<text text-anchor="start" x="8" y="-233.5" font-family="Helvetica,sans-Serif" font-size="10.00">+ openFile()</text>
</a>
</g>
</g>
<!-- Node2&#45;&gt;Node1 -->
<g id="edge1" class="edge">
<title>Node2&#45;&gt;Node1</title>
<path fill="none" stroke="midnightblue" d="M80.66,-226.43C105.32,-191.42 141.8,-139.61 168.61,-101.55"/>
</g>
<!-- Node3 -->
<g id="node3" class="node">
<title>Node3</title>
<g id="a_node3"><a xlink:title=" ">
<polygon fill="white" stroke="black" points="83.5,-688 83.5,-745 127.5,-745 127.5,-688 83.5,-688"/>
<text text-anchor="middle" x="105.5" y="-733" font-family="Helvetica,sans-Serif" font-size="10.00">string</text>
<polyline fill="none" stroke="black" points="83.5,-726 127.5,-726 "/>
<text text-anchor="middle" x="105.5" y="-714" font-family="Helvetica,sans-Serif" font-size="10.00"> </text>
<polyline fill="none" stroke="black" points="83.5,-707 127.5,-707 "/>
<text text-anchor="middle" x="105.5" y="-695" font-family="Helvetica,sans-Serif" font-size="10.00"> </text>
</a>
</g>
</g>
<!-- Node3&#45;&gt;Node2 -->
<g id="edge2" class="edge">
<title>Node3&#45;&gt;Node2</title>
<path fill="none" stroke="#404040" d="M95.62,-687.98C83.66,-653.14 64.19,-591.03 56.5,-536 45.13,-454.59 47.97,-357.97 50.86,-305.54"/>
<text text-anchor="middle" x="78.5" y="-557" font-family="Helvetica,sans-Serif" font-size="10.00"> +path</text>
</g>
<!-- Node4 -->
<g id="node4" class="node">
<title>Node4</title>
<g id="a_node4"><a xlink:href="structRtcmStream.html" target="_top" xlink:title=" ">
<polygon fill="white" stroke="black" points="316.5,-139.5 316.5,-207.5 424.5,-207.5 424.5,-139.5 316.5,-139.5"/>
<text text-anchor="middle" x="370.5" y="-195.5" font-family="Helvetica,sans-Serif" font-size="10.00">RtcmStream</text>
<polyline fill="none" stroke="black" points="316.5,-188.5 424.5,-188.5 "/>
<text text-anchor="start" x="324.5" y="-176.5" font-family="Helvetica,sans-Serif" font-size="10.00">+ record_rtcm</text>
<polyline fill="none" stroke="black" points="316.5,-169.5 424.5,-169.5 "/>
<text text-anchor="start" x="324.5" y="-157.5" font-family="Helvetica,sans-Serif" font-size="10.00">+ createRtcmFile()</text>
<text text-anchor="start" x="324.5" y="-146.5" font-family="Helvetica,sans-Serif" font-size="10.00">+ parseRTCM()</text>
</a>
</g>
</g>
<!-- Node3&#45;&gt;Node4 -->
<g id="edge12" class="edge">
<title>Node3&#45;&gt;Node4</title>
<path fill="none" stroke="#404040" d="M122.9,-687.88C140.42,-658.6 166.64,-610.38 179.5,-565 208.83,-461.48 153.83,-419.96 202.5,-324 227.84,-274.03 277.56,-233.11 316.37,-206.79"/>
<text text-anchor="middle" x="244" y="-427.5" font-family="Helvetica,sans-Serif" font-size="10.00"> +rtcm_filename</text>
</g>
<!-- Node5 -->
<g id="node5" class="node">
<title>Node5</title>
<g id="a_node5"><a xlink:href="structObsStream.html" target="_top" xlink:title="Interface for streams that supply observations.">
<polygon fill="white" stroke="red" points="65.5,-385 65.5,-475 157.5,-475 157.5,-385 65.5,-385"/>
<text text-anchor="middle" x="111.5" y="-463" font-family="Helvetica,sans-Serif" font-size="10.00">ObsStream</text>
<polyline fill="none" stroke="red" points="65.5,-456 157.5,-456 "/>
<text text-anchor="start" x="73.5" y="-444" font-family="Helvetica,sans-Serif" font-size="10.00">+ obsWaitCode</text>
<polyline fill="none" stroke="red" points="65.5,-437 157.5,-437 "/>
<text text-anchor="start" x="73.5" y="-425" font-family="Helvetica,sans-Serif" font-size="10.00">+ getObs()</text>
<text text-anchor="start" x="73.5" y="-414" font-family="Helvetica,sans-Serif" font-size="10.00">+ getObs()</text>
<text text-anchor="start" x="73.5" y="-403" font-family="Helvetica,sans-Serif" font-size="10.00">+ isDead()</text>
<text text-anchor="start" x="73.5" y="-392" font-family="Helvetica,sans-Serif" font-size="10.00">+ eatObs()</text>
</a>
</g>
</g>
<!-- Node3&#45;&gt;Node5 -->
<g id="edge5" class="edge">
<title>Node3&#45;&gt;Node5</title>
<path fill="none" stroke="#404040" d="M105.38,-687.78C105.31,-655.6 105.4,-600.95 106.5,-554 107.11,-527.83 108.28,-498.54 109.34,-475.11"/>
<text text-anchor="middle" x="143" y="-557" font-family="Helvetica,sans-Serif" font-size="10.00"> +sourceString</text>
</g>
<!-- Node4&#45;&gt;Node1 -->
<g id="edge3" class="edge">
<title>Node4&#45;&gt;Node1</title>
<path fill="none" stroke="midnightblue" d="M324.42,-139.25C304.54,-124.9 281.08,-107.98 260.14,-92.87"/>
</g>
<!-- Node5&#45;&gt;Node4 -->
<g id="edge4" class="edge">
<title>Node5&#45;&gt;Node4</title>
<path fill="none" stroke="midnightblue" d="M114.39,-384.96C119.79,-338.91 135.26,-267.67 179.5,-226 199.19,-207.46 266.95,-192.24 316.17,-183.27"/>
</g>
<!-- Node10 -->
<g id="node6" class="node">
<title>Node10</title>
<g id="a_node6"><a xlink:href="structNavStream.html" target="_top" xlink:title="Interface for objects that provide navigation data.">
<polygon fill="white" stroke="black" points="295,-401.5 295,-458.5 366,-458.5 366,-401.5 295,-401.5"/>
<text text-anchor="middle" x="330.5" y="-446.5" font-family="Helvetica,sans-Serif" font-size="10.00">NavStream</text>
<polyline fill="none" stroke="black" points="295,-439.5 366,-439.5 "/>
<text text-anchor="middle" x="330.5" y="-427.5" font-family="Helvetica,sans-Serif" font-size="10.00"> </text>
<polyline fill="none" stroke="black" points="295,-420.5 366,-420.5 "/>
<text text-anchor="start" x="303" y="-408.5" font-family="Helvetica,sans-Serif" font-size="10.00">+ getNav()</text>
</a>
</g>
</g>
<!-- Node10&#45;&gt;Node4 -->
<g id="edge6" class="edge">
<title>Node10&#45;&gt;Node4</title>
<path fill="none" stroke="midnightblue" d="M334.86,-401.28C342.27,-354.13 357.3,-258.5 365.27,-207.8"/>
</g>
<!-- Node11 -->
<g id="node7" class="node">
<title>Node11</title>
<g id="a_node7"><a xlink:href="structRtcmDecoder.html" target="_top" xlink:title=" ">
<polygon fill="white" stroke="red" points="384,-324.5 384,-535.5 547,-535.5 547,-324.5 384,-324.5"/>
<text text-anchor="middle" x="465.5" y="-523.5" font-family="Helvetica,sans-Serif" font-size="10.00">RtcmDecoder</text>
<polyline fill="none" stroke="red" points="384,-516.5 547,-516.5 "/>
<text text-anchor="start" x="392" y="-504.5" font-family="Helvetica,sans-Serif" font-size="10.00">+ updateInterval</text>
<polyline fill="none" stroke="red" points="384,-497.5 547,-497.5 "/>
<text text-anchor="start" x="392" y="-485.5" font-family="Helvetica,sans-Serif" font-size="10.00">+ adjgpsweek()</text>
<text text-anchor="start" x="392" y="-474.5" font-family="Helvetica,sans-Serif" font-size="10.00">+ tow2Time()</text>
<text text-anchor="start" x="392" y="-463.5" font-family="Helvetica,sans-Serif" font-size="10.00">+ getGpst()</text>
<text text-anchor="start" x="392" y="-452.5" font-family="Helvetica,sans-Serif" font-size="10.00">+ traceLatency()</text>
<text text-anchor="start" x="392" y="-441.5" font-family="Helvetica,sans-Serif" font-size="10.00">+ code_to_ftype()</text>
<text text-anchor="start" x="392" y="-430.5" font-family="Helvetica,sans-Serif" font-size="10.00">+ get_signal_info()</text>
<text text-anchor="start" x="392" y="-419.5" font-family="Helvetica,sans-Serif" font-size="10.00">+ signal_to_code()</text>
<text text-anchor="start" x="392" y="-408.5" font-family="Helvetica,sans-Serif" font-size="10.00">+ nowTime()</text>
<text text-anchor="start" x="392" y="-397.5" font-family="Helvetica,sans-Serif" font-size="10.00">+ decodeEphemeris()</text>
<text text-anchor="start" x="392" y="-386.5" font-family="Helvetica,sans-Serif" font-size="10.00">+ decodeSSR()</text>
<text text-anchor="start" x="392" y="-375.5" font-family="Helvetica,sans-Serif" font-size="10.00">+ decodeCustomTimestamp()</text>
<text text-anchor="start" x="392" y="-364.5" font-family="Helvetica,sans-Serif" font-size="10.00">+ decodeCustomId()</text>
<text text-anchor="start" x="392" y="-353.5" font-family="Helvetica,sans-Serif" font-size="10.00">+ decodeMSM7()</text>
<text text-anchor="start" x="392" y="-342.5" font-family="Helvetica,sans-Serif" font-size="10.00">+ message_length()</text>
<text text-anchor="start" x="392" y="-331.5" font-family="Helvetica,sans-Serif" font-size="10.00">+ message_type()</text>
</a>
</g>
</g>
<!-- Node11&#45;&gt;Node4 -->
<g id="edge7" class="edge">
<title>Node11&#45;&gt;Node4</title>
<path fill="none" stroke="midnightblue" d="M426.45,-324.38C410.84,-282.57 393.97,-237.38 382.89,-207.68"/>
</g>
<!-- Node16 -->
<g id="node8" class="node">
<title>Node16</title>
<g id="a_node8"><a xlink:href="structGTime.html" target="_top" xlink:title="Time structure used throughout this software.">
<polygon fill="white" stroke="black" points="478,-583.5 478,-849.5 591,-849.5 591,-583.5 478,-583.5"/>
<text text-anchor="middle" x="534.5" y="-837.5" font-family="Helvetica,sans-Serif" font-size="10.00">GTime</text>
<polyline fill="none" stroke="black" points="478,-830.5 591,-830.5 "/>
<text text-anchor="start" x="486" y="-818.5" font-family="Helvetica,sans-Serif" font-size="10.00">+ time</text>
<text text-anchor="start" x="486" y="-807.5" font-family="Helvetica,sans-Serif" font-size="10.00">+ sec</text>
<polyline fill="none" stroke="black" points="478,-800.5 591,-800.5 "/>
<text text-anchor="start" x="486" y="-788.5" font-family="Helvetica,sans-Serif" font-size="10.00">+ to_string()</text>
<text text-anchor="start" x="486" y="-777.5" font-family="Helvetica,sans-Serif" font-size="10.00">+ operator==()</text>
<text text-anchor="start" x="486" y="-766.5" font-family="Helvetica,sans-Serif" font-size="10.00">+ operator!=()</text>
<text text-anchor="start" x="486" y="-755.5" font-family="Helvetica,sans-Serif" font-size="10.00">+ operator&lt;()</text>
<text text-anchor="start" x="486" y="-744.5" font-family="Helvetica,sans-Serif" font-size="10.00">+ operator&gt;()</text>
<text text-anchor="start" x="486" y="-733.5" font-family="Helvetica,sans-Serif" font-size="10.00">+ operator+()</text>
<text text-anchor="start" x="486" y="-722.5" font-family="Helvetica,sans-Serif" font-size="10.00">+ operator+()</text>
<text text-anchor="start" x="486" y="-711.5" font-family="Helvetica,sans-Serif" font-size="10.00">+ operator+=()</text>
<text text-anchor="start" x="486" y="-700.5" font-family="Helvetica,sans-Serif" font-size="10.00">+ operator&#45;()</text>
<text text-anchor="start" x="486" y="-689.5" font-family="Helvetica,sans-Serif" font-size="10.00">+ operator&#45;()</text>
<text text-anchor="start" x="486" y="-678.5" font-family="Helvetica,sans-Serif" font-size="10.00">+ operator double()</text>
<text text-anchor="start" x="486" y="-667.5" font-family="Helvetica,sans-Serif" font-size="10.00">+ operator++()</text>
<text text-anchor="start" x="486" y="-656.5" font-family="Helvetica,sans-Serif" font-size="10.00">+ to_ptime()</text>
<text text-anchor="start" x="486" y="-645.5" font-family="Helvetica,sans-Serif" font-size="10.00">+ GTime()</text>
<text text-anchor="start" x="486" y="-634.5" font-family="Helvetica,sans-Serif" font-size="10.00">+ GTime()</text>
<text text-anchor="start" x="486" y="-623.5" font-family="Helvetica,sans-Serif" font-size="10.00">+ GTime()</text>
<text text-anchor="start" x="486" y="-612.5" font-family="Helvetica,sans-Serif" font-size="10.00">+ serialize()</text>
<text text-anchor="start" x="486" y="-601.5" font-family="Helvetica,sans-Serif" font-size="10.00">+ roundTime()</text>
<text text-anchor="start" x="486" y="-590.5" font-family="Helvetica,sans-Serif" font-size="10.00">+ noTime()</text>
</a>
</g>
</g>
<!-- Node16&#45;&gt;Node4 -->
<g id="edge11" class="edge">
<title>Node16&#45;&gt;Node4</title>
<path fill="none" stroke="#404040" d="M573.08,-583.3C588.74,-504.13 595.07,-403.72 555.5,-324 527.87,-268.33 468.78,-226.45 424.78,-201.38"/>
<text text-anchor="middle" x="628" y="-427.5" font-family="Helvetica,sans-Serif" font-size="10.00"> +rtcmDeltaTime</text>
</g>
<!-- Node16&#45;&gt;Node11 -->
<g id="edge8" class="edge">
<title>Node16&#45;&gt;Node11</title>
<path fill="none" stroke="#404040" d="M502.42,-583.24C498.55,-567.28 494.64,-551.15 490.88,-535.66"/>
<text text-anchor="middle" x="528.5" y="-557" font-family="Helvetica,sans-Serif" font-size="10.00"> +rtcm_UTC</text>
</g>
<!-- Node17 -->
<g id="node9" class="node">
<title>Node17</title>
<g id="a_node9"><a xlink:href="structLockTimeInfo.html" target="_top" xlink:title=" ">
<polygon fill="white" stroke="red" points="687,-385 687,-475 872,-475 872,-385 687,-385"/>
<text text-anchor="middle" x="779.5" y="-463" font-family="Helvetica,sans-Serif" font-size="10.00">LockTimeInfo</text>
<polyline fill="none" stroke="red" points="687,-456 872,-456 "/>
<text text-anchor="middle" x="779.5" y="-444" font-family="Helvetica,sans-Serif" font-size="10.00"> </text>
<polyline fill="none" stroke="red" points="687,-437 872,-437 "/>
<text text-anchor="start" x="695" y="-425" font-family="Helvetica,sans-Serif" font-size="10.00">+ LockTimeInfo()</text>
<text text-anchor="start" x="695" y="-414" font-family="Helvetica,sans-Serif" font-size="10.00">+ LockTimeInfo()</text>
<text text-anchor="start" x="695" y="-403" font-family="Helvetica,sans-Serif" font-size="10.00">+ get_lock_time_and_coefficient()</text>
<text text-anchor="start" x="695" y="-392" font-family="Helvetica,sans-Serif" font-size="10.00">+ LOC()</text>
</a>
</g>
</g>
<!-- Node17&#45;&gt;Node4 -->
<g id="edge9" class="edge">
<title>Node17&#45;&gt;Node4</title>
<path fill="none" stroke="#404040" d="M752.09,-384.86C720.63,-338.03 664.62,-265.46 597.5,-226 544.03,-194.56 473.07,-182.31 424.81,-177.54"/>
<text text-anchor="middle" x="751.5" y="-269" font-family="Helvetica,sans-Serif" font-size="10.00"> +lock_time_info_current</text>
<text text-anchor="middle" x="751.5" y="-258" font-family="Helvetica,sans-Serif" font-size="10.00">+lock_time_info_previous</text>
</g>
<!-- Node20 -->
<g id="node10" class="node">
<title>Node20</title>
<g id="a_node10"><a xlink:title=" ">
<polygon fill="white" stroke="red" points="890,-401.5 890,-458.5 979,-458.5 979,-401.5 890,-401.5"/>
<text text-anchor="middle" x="934.5" y="-446.5" font-family="Helvetica,sans-Serif" font-size="10.00">vector&lt; Obs &gt;</text>
<polyline fill="none" stroke="red" points="890,-439.5 979,-439.5 "/>
<text text-anchor="middle" x="934.5" y="-427.5" font-family="Helvetica,sans-Serif" font-size="10.00"> </text>
<polyline fill="none" stroke="red" points="890,-420.5 979,-420.5 "/>
<text text-anchor="middle" x="934.5" y="-408.5" font-family="Helvetica,sans-Serif" font-size="10.00"> </text>
</a>
</g>
</g>
<!-- Node20&#45;&gt;Node4 -->
<g id="edge10" class="edge">
<title>Node20&#45;&gt;Node4</title>
<path fill="none" stroke="#404040" d="M927.92,-401.48C915.45,-356.02 883.66,-266.26 819.5,-226 754.87,-185.44 529.26,-176.78 424.6,-174.97"/>
<text text-anchor="middle" x="917" y="-263.5" font-family="Helvetica,sans-Serif" font-size="10.00"> +SuperList</text>
</g>
</g>
</svg>
