<?xml version="1.0" encoding="UTF-8" standalone="no"?>
<!DOCTYPE svg PUBLIC "-//W3C//DTD SVG 1.1//EN"
 "http://www.w3.org/Graphics/SVG/1.1/DTD/svg11.dtd">
<!-- Generated by graphviz version 2.43.0 (0)
 -->
<!-- Title: NtripUploader Pages: 1 -->
<!--zoomable 760 -->
<svg id="main" version="1.1" xmlns="http://www.w3.org/2000/svg" xmlns:xlink="http://www.w3.org/1999/xlink" xml:space="preserve" onload="init(evt)">
<style type="text/css"><![CDATA[
.edge:hover path { stroke: red; }
.edge:hover polygon { stroke: red; fill: red; }
]]></style>
<script type="text/javascript"><![CDATA[
var edges = document.getElementsByTagName('g');
if (edges && edges.length) {
  for (var i=0;i<edges.length;i++) {
    if (edges[i].id.substr(0,4)=='edge') {
      edges[i].setAttribute('class','edge');
    }
  }
}
]]></script>
        <defs>
                <circle id="rim" cx="0" cy="0" r="7"/>
                <circle id="rim2" cx="0" cy="0" r="3.5"/>
                <g id="zoomPlus">
                        <use xlink:href="#rim" fill="#404040">
                                <set attributeName="fill" to="#808080" begin="zoomplus.mouseover" end="zoomplus.mouseout"/>
                        </use>
                        <path d="M-4,0h8M0,-4v8" fill="none" stroke="white" stroke-width="1.5" pointer-events="none"/>
                </g>
                <g id="zoomMin">
                        <use xlink:href="#rim" fill="#404040">
                                <set attributeName="fill" to="#808080" begin="zoomminus.mouseover" end="zoomminus.mouseout"/>
                        </use>
                        <path d="M-4,0h8" fill="none" stroke="white" stroke-width="1.5" pointer-events="none"/>
                </g>
                <g id="dirArrow">
                        <path fill="none" stroke="white" stroke-width="1.5" d="M0,-3.0v7 M-2.5,-0.5L0,-3.0L2.5,-0.5"/>
                </g>
               <g id="resetDef">
                       <use xlink:href="#rim2" fill="#404040">
                               <set attributeName="fill" to="#808080" begin="reset.mouseover" end="reset.mouseout"/>
                       </use>
               </g>
        </defs>

<script type="text/javascript">
var viewWidth = 880;
var viewHeight = 760;
var sectionId = 'dynsection-1';
</script>
<script xlink:href="svgpan.js"/>
<svg id="graph" class="graph">
<g id="viewport">
<title>NtripUploader</title>
<polygon fill="white" stroke="transparent" points="-4,4 -4,-756 876,-756 876,4 -4,4"/>
<!-- Node1 -->
<g id="node1" class="node">
<title>Node1</title>
<g id="a_node1"><a xlink:title=" ">
<polygon fill="#bfbfbf" stroke="black" points="399.5,-0.5 399.5,-145.5 560.5,-145.5 560.5,-0.5 399.5,-0.5"/>
<text text-anchor="middle" x="480" y="-133.5" font-family="Helvetica,sans-Serif" font-size="10.00">NtripUploader</text>
<polyline fill="none" stroke="black" points="399.5,-126.5 560.5,-126.5 "/>
<text text-anchor="start" x="407.5" y="-114.5" font-family="Helvetica,sans-Serif" font-size="10.00">+ outMessages</text>
<text text-anchor="start" x="407.5" y="-103.5" font-family="Helvetica,sans-Serif" font-size="10.00">+ sendTimer</text>
<text text-anchor="start" x="407.5" y="-92.5" font-family="Helvetica,sans-Serif" font-size="10.00">+ numberChunksSent</text>
<polyline fill="none" stroke="black" points="399.5,-85.5 560.5,-85.5 "/>
<text text-anchor="start" x="407.5" y="-73.5" font-family="Helvetica,sans-Serif" font-size="10.00">+ NtripUploader()</text>
<text text-anchor="start" x="407.5" y="-62.5" font-family="Helvetica,sans-Serif" font-size="10.00">+ startBroadcast()</text>
<text text-anchor="start" x="407.5" y="-51.5" font-family="Helvetica,sans-Serif" font-size="10.00">+ connected()</text>
<text text-anchor="start" x="407.5" y="-40.5" font-family="Helvetica,sans-Serif" font-size="10.00">+ messageTimeout_handler()</text>
<text text-anchor="start" x="407.5" y="-29.5" font-family="Helvetica,sans-Serif" font-size="10.00">+ write_handler()</text>
<text text-anchor="start" x="407.5" y="-18.5" font-family="Helvetica,sans-Serif" font-size="10.00">+ serverResponse()</text>
<text text-anchor="start" x="407.5" y="-7.5" font-family="Helvetica,sans-Serif" font-size="10.00">+ getJsonNetworkStatistics()</text>
</a>
</g>
</g>
<!-- Node2 -->
<g id="node2" class="node">
<title>Node2</title>
<g id="a_node2"><a xlink:href="structNtripSocket.html" target="_top" xlink:title=" ">
<polygon fill="white" stroke="red" points="0,-226.5 0,-602.5 156,-602.5 156,-226.5 0,-226.5"/>
<text text-anchor="middle" x="78" y="-590.5" font-family="Helvetica,sans-Serif" font-size="10.00">NtripSocket</text>
<polyline fill="none" stroke="red" points="0,-583.5 156,-583.5 "/>
<text text-anchor="start" x="8" y="-571.5" font-family="Helvetica,sans-Serif" font-size="10.00">+ reconnectDelay</text>
<text text-anchor="start" x="8" y="-560.5" font-family="Helvetica,sans-Serif" font-size="10.00">+ disconnectionCount</text>
<text text-anchor="start" x="8" y="-549.5" font-family="Helvetica,sans-Serif" font-size="10.00">+ isConnected</text>
<text text-anchor="start" x="8" y="-538.5" font-family="Helvetica,sans-Serif" font-size="10.00">+ numberErroredChunks</text>
<text text-anchor="start" x="8" y="-527.5" font-family="Helvetica,sans-Serif" font-size="10.00">+ logHttpSentReceived</text>
<text text-anchor="start" x="8" y="-516.5" font-family="Helvetica,sans-Serif" font-size="10.00">+ content_length</text>
<text text-anchor="start" x="8" y="-505.5" font-family="Helvetica,sans-Serif" font-size="10.00">+ ssl_context</text>
<text text-anchor="start" x="8" y="-494.5" font-family="Helvetica,sans-Serif" font-size="10.00">+ io_service</text>
<text text-anchor="start" x="8" y="-483.5" font-family="Helvetica,sans-Serif" font-size="10.00"># _socket</text>
<text text-anchor="start" x="8" y="-472.5" font-family="Helvetica,sans-Serif" font-size="10.00"># socket_ptr</text>
<text text-anchor="start" x="8" y="-461.5" font-family="Helvetica,sans-Serif" font-size="10.00"># _sslsocket</text>
<text text-anchor="start" x="8" y="-450.5" font-family="Helvetica,sans-Serif" font-size="10.00"># _resolver</text>
<text text-anchor="start" x="8" y="-439.5" font-family="Helvetica,sans-Serif" font-size="10.00"># timer</text>
<text text-anchor="start" x="8" y="-428.5" font-family="Helvetica,sans-Serif" font-size="10.00"># request</text>
<text text-anchor="start" x="8" y="-417.5" font-family="Helvetica,sans-Serif" font-size="10.00"># downloadBuf</text>
<polyline fill="none" stroke="red" points="0,-410.5 156,-410.5 "/>
<text text-anchor="start" x="8" y="-398.5" font-family="Helvetica,sans-Serif" font-size="10.00">+ NtripSocket()</text>
<text text-anchor="start" x="8" y="-387.5" font-family="Helvetica,sans-Serif" font-size="10.00">+ setUrl()</text>
<text text-anchor="start" x="8" y="-376.5" font-family="Helvetica,sans-Serif" font-size="10.00">+ connect()</text>
<text text-anchor="start" x="8" y="-365.5" font-family="Helvetica,sans-Serif" font-size="10.00">+ disconnect()</text>
<text text-anchor="start" x="8" y="-354.5" font-family="Helvetica,sans-Serif" font-size="10.00">+ start_read()</text>
<text text-anchor="start" x="8" y="-343.5" font-family="Helvetica,sans-Serif" font-size="10.00">+ logChunkError()</text>
<text text-anchor="start" x="8" y="-332.5" font-family="Helvetica,sans-Serif" font-size="10.00">+ dataChunkDownloaded()</text>
<text text-anchor="start" x="8" y="-321.5" font-family="Helvetica,sans-Serif" font-size="10.00">+ readContentDownloaded()</text>
<text text-anchor="start" x="8" y="-310.5" font-family="Helvetica,sans-Serif" font-size="10.00">+ connected()</text>
<text text-anchor="start" x="8" y="-299.5" font-family="Helvetica,sans-Serif" font-size="10.00">+ messageChunkLog()</text>
<text text-anchor="start" x="8" y="-288.5" font-family="Helvetica,sans-Serif" font-size="10.00">+ networkLog()</text>
<text text-anchor="start" x="8" y="-277.5" font-family="Helvetica,sans-Serif" font-size="10.00">+ connectionError()</text>
<text text-anchor="start" x="8" y="-266.5" font-family="Helvetica,sans-Serif" font-size="10.00">+ serverResponse()</text>
<text text-anchor="start" x="8" y="-255.5" font-family="Helvetica,sans-Serif" font-size="10.00">+ runService()</text>
<text text-anchor="start" x="8" y="-244.5" font-family="Helvetica,sans-Serif" font-size="10.00">+ startClients()</text>
<text text-anchor="start" x="8" y="-233.5" font-family="Helvetica,sans-Serif" font-size="10.00"># delayed_reconnect()</text>
</a>
</g>
</g>
<!-- Node2&#45;&gt;Node1 -->
<g id="edge1" class="edge">
<title>Node2&#45;&gt;Node1</title>
<path fill="none" stroke="midnightblue" d="M130.73,-226.22C143.33,-203.07 158.87,-181.46 178,-164 238.82,-108.5 332.51,-87.15 399.39,-78.98"/>
</g>
<!-- Node4 -->
<g id="node3" class="node">
<title>Node4</title>
<g id="a_node3"><a xlink:title=" ">
<polygon fill="white" stroke="black" points="170,-694.5 170,-751.5 214,-751.5 214,-694.5 170,-694.5"/>
<text text-anchor="middle" x="192" y="-739.5" font-family="Helvetica,sans-Serif" font-size="10.00">string</text>
<polyline fill="none" stroke="black" points="170,-732.5 214,-732.5 "/>
<text text-anchor="middle" x="192" y="-720.5" font-family="Helvetica,sans-Serif" font-size="10.00"> </text>
<polyline fill="none" stroke="black" points="170,-713.5 214,-713.5 "/>
<text text-anchor="middle" x="192" y="-701.5" font-family="Helvetica,sans-Serif" font-size="10.00"> </text>
</a>
</g>
</g>
<!-- Node4&#45;&gt;Node1 -->
<g id="edge7" class="edge">
<title>Node4&#45;&gt;Node1</title>
<path fill="none" stroke="#404040" d="M188.65,-694.33C177.51,-597.55 145.42,-275.59 201,-193 245.25,-127.25 333.89,-97.68 399.45,-84.47"/>
<text text-anchor="middle" x="223.5" y="-417.5" font-family="Helvetica,sans-Serif" font-size="10.00"> +id</text>
<text text-anchor="middle" x="223.5" y="-406.5" font-family="Helvetica,sans-Serif" font-size="10.00">+ntripStr</text>
</g>
<!-- Node4&#45;&gt;Node2 -->
<g id="edge2" class="edge">
<title>Node4&#45;&gt;Node2</title>
<path fill="none" stroke="#404040" d="M169.79,-718.58C146.14,-713.65 109.72,-702.08 92,-676 77.18,-654.18 68.37,-628.8 63.62,-602.61"/>
<text text-anchor="middle" x="135" y="-668" font-family="Helvetica,sans-Serif" font-size="10.00"> #request_string</text>
<text text-anchor="middle" x="135" y="-657" font-family="Helvetica,sans-Serif" font-size="10.00">#response_string</text>
</g>
<!-- Node18 -->
<g id="node8" class="node">
<title>Node18</title>
<g id="a_node8"><a xlink:href="structSsrBroadcast.html" target="_top" xlink:title=" ">
<polygon fill="white" stroke="red" points="255,-386 255,-443 371,-443 371,-386 255,-386"/>
<text text-anchor="middle" x="313" y="-431" font-family="Helvetica,sans-Serif" font-size="10.00">SsrBroadcast</text>
<polyline fill="none" stroke="red" points="255,-424 371,-424 "/>
<text text-anchor="start" x="263" y="-412" font-family="Helvetica,sans-Serif" font-size="10.00">+ message_timeout</text>
<polyline fill="none" stroke="red" points="255,-405 371,-405 "/>
<text text-anchor="middle" x="313" y="-393" font-family="Helvetica,sans-Serif" font-size="10.00"> </text>
</a>
</g>
</g>
<!-- Node4&#45;&gt;Node18 -->
<g id="edge9" class="edge">
<title>Node4&#45;&gt;Node18</title>
<path fill="none" stroke="#404040" d="M209.59,-694.47C219.65,-677.95 232.03,-656.27 241,-636 270.67,-568.98 294.54,-485.81 305.87,-443.32"/>
<text text-anchor="middle" x="244.5" y="-662.5" font-family="Helvetica,sans-Serif" font-size="10.00"> +url</text>
</g>
<!-- Node10 -->
<g id="node4" class="node">
<title>Node10</title>
<g id="a_node4"><a xlink:href="structRtcmEncoder.html" target="_top" xlink:title=" ">
<polygon fill="white" stroke="red" points="389.5,-320 389.5,-509 570.5,-509 570.5,-320 389.5,-320"/>
<text text-anchor="middle" x="480" y="-497" font-family="Helvetica,sans-Serif" font-size="10.00">RtcmEncoder</text>
<polyline fill="none" stroke="red" points="389.5,-490 570.5,-490 "/>
<text text-anchor="start" x="397.5" y="-478" font-family="Helvetica,sans-Serif" font-size="10.00">+ masterIod</text>
<text text-anchor="start" x="397.5" y="-467" font-family="Helvetica,sans-Serif" font-size="10.00">+ updateInterval</text>
<polyline fill="none" stroke="red" points="389.5,-460 570.5,-460 "/>
<text text-anchor="start" x="397.5" y="-448" font-family="Helvetica,sans-Serif" font-size="10.00">+ RtcmEncoder()</text>
<text text-anchor="start" x="397.5" y="-437" font-family="Helvetica,sans-Serif" font-size="10.00">+ encodeWriteMessages()</text>
<text text-anchor="start" x="397.5" y="-426" font-family="Helvetica,sans-Serif" font-size="10.00">+ encodeWriteMessageToBuffer()</text>
<text text-anchor="start" x="397.5" y="-415" font-family="Helvetica,sans-Serif" font-size="10.00">+ encodeTimeStampRTCM()</text>
<text text-anchor="start" x="397.5" y="-404" font-family="Helvetica,sans-Serif" font-size="10.00">+ encodeSsrHeader()</text>
<text text-anchor="start" x="397.5" y="-393" font-family="Helvetica,sans-Serif" font-size="10.00">+ encodeSsrOrbClk()</text>
<text text-anchor="start" x="397.5" y="-382" font-family="Helvetica,sans-Serif" font-size="10.00">+ encodeSsrUra()</text>
<text text-anchor="start" x="397.5" y="-371" font-family="Helvetica,sans-Serif" font-size="10.00">+ encodeSsrCode()</text>
<text text-anchor="start" x="397.5" y="-360" font-family="Helvetica,sans-Serif" font-size="10.00">+ encodeSsrPhase()</text>
<text text-anchor="start" x="397.5" y="-349" font-family="Helvetica,sans-Serif" font-size="10.00">+ encodeEphemeris()</text>
<text text-anchor="start" x="397.5" y="-338" font-family="Helvetica,sans-Serif" font-size="10.00">+ encodeEphemeris()</text>
<text text-anchor="start" x="397.5" y="-327" font-family="Helvetica,sans-Serif" font-size="10.00">+ getUdiIndex()</text>
</a>
</g>
</g>
<!-- Node10&#45;&gt;Node1 -->
<g id="edge3" class="edge">
<title>Node10&#45;&gt;Node1</title>
<path fill="none" stroke="midnightblue" d="M480,-319.83C480,-264.78 480,-196.26 480,-145.56"/>
</g>
<!-- Node16 -->
<g id="node5" class="node">
<title>Node16</title>
<g id="a_node5"><a xlink:title=" ">
<polygon fill="white" stroke="black" points="588.5,-386 588.5,-443 633.5,-443 633.5,-386 588.5,-386"/>
<text text-anchor="middle" x="611" y="-431" font-family="Helvetica,sans-Serif" font-size="10.00">ptime</text>
<polyline fill="none" stroke="black" points="588.5,-424 633.5,-424 "/>
<text text-anchor="middle" x="611" y="-412" font-family="Helvetica,sans-Serif" font-size="10.00"> </text>
<polyline fill="none" stroke="black" points="588.5,-405 633.5,-405 "/>
<text text-anchor="middle" x="611" y="-393" font-family="Helvetica,sans-Serif" font-size="10.00"> </text>
</a>
</g>
</g>
<!-- Node16&#45;&gt;Node1 -->
<g id="edge4" class="edge">
<title>Node16&#45;&gt;Node1</title>
<path fill="none" stroke="#404040" d="M613.95,-386C617.3,-341.74 618.06,-253.55 580,-193 572.32,-180.79 563.39,-185 553,-175 543.8,-166.15 534.97,-156.01 526.82,-145.65"/>
<text text-anchor="middle" x="603.5" y="-167" font-family="Helvetica,sans-Serif" font-size="10.00"> +timeNextMessage</text>
</g>
<!-- Node17 -->
<g id="node6" class="node">
<title>Node17</title>
<g id="a_node6"><a xlink:title=" ">
<polygon fill="white" stroke="black" points="652,-386 652,-443 700,-443 700,-386 652,-386"/>
<text text-anchor="middle" x="676" y="-431" font-family="Helvetica,sans-Serif" font-size="10.00">mutex</text>
<polyline fill="none" stroke="black" points="652,-424 700,-424 "/>
<text text-anchor="middle" x="676" y="-412" font-family="Helvetica,sans-Serif" font-size="10.00"> </text>
<polyline fill="none" stroke="black" points="652,-405 700,-405 "/>
<text text-anchor="middle" x="676" y="-393" font-family="Helvetica,sans-Serif" font-size="10.00"> </text>
</a>
</g>
</g>
<!-- Node17&#45;&gt;Node1 -->
<g id="edge5" class="edge">
<title>Node17&#45;&gt;Node1</title>
<path fill="none" stroke="#404040" d="M681.54,-385.98C689.84,-336.82 700.01,-232.62 654,-164 632.31,-131.66 595.22,-110.24 560.83,-96.45"/>
<text text-anchor="middle" x="704.5" y="-167" font-family="Helvetica,sans-Serif" font-size="10.00"> +outMessagesMtx</text>
</g>
<!-- Node5 -->
<g id="node7" class="node">
<title>Node5</title>
<g id="a_node7"><a xlink:href="structGTime.html" target="_top" xlink:title="Time structure used throughout this software.">
<polygon fill="white" stroke="black" points="725.5,-193.5 725.5,-635.5 862.5,-635.5 862.5,-193.5 725.5,-193.5"/>
<text text-anchor="middle" x="794" y="-623.5" font-family="Helvetica,sans-Serif" font-size="10.00">GTime</text>
<polyline fill="none" stroke="black" points="725.5,-616.5 862.5,-616.5 "/>
<text text-anchor="start" x="733.5" y="-604.5" font-family="Helvetica,sans-Serif" font-size="10.00">+ bigTime</text>
<polyline fill="none" stroke="black" points="725.5,-597.5 862.5,-597.5 "/>
<text text-anchor="start" x="733.5" y="-585.5" font-family="Helvetica,sans-Serif" font-size="10.00">+ GTime()</text>
<text text-anchor="start" x="733.5" y="-574.5" font-family="Helvetica,sans-Serif" font-size="10.00">+ GTime()</text>
<text text-anchor="start" x="733.5" y="-563.5" font-family="Helvetica,sans-Serif" font-size="10.00">+ GTime()</text>
<text text-anchor="start" x="733.5" y="-552.5" font-family="Helvetica,sans-Serif" font-size="10.00">+ to_string()</text>
<text text-anchor="start" x="733.5" y="-541.5" font-family="Helvetica,sans-Serif" font-size="10.00">+ operator==()</text>
<text text-anchor="start" x="733.5" y="-530.5" font-family="Helvetica,sans-Serif" font-size="10.00">+ operator!=()</text>
<text text-anchor="start" x="733.5" y="-519.5" font-family="Helvetica,sans-Serif" font-size="10.00">+ operator&lt;()</text>
<text text-anchor="start" x="733.5" y="-508.5" font-family="Helvetica,sans-Serif" font-size="10.00">+ operator&gt;()</text>
<text text-anchor="start" x="733.5" y="-497.5" font-family="Helvetica,sans-Serif" font-size="10.00">+ operator&gt;=()</text>
<text text-anchor="start" x="733.5" y="-486.5" font-family="Helvetica,sans-Serif" font-size="10.00">+ operator+()</text>
<text text-anchor="start" x="733.5" y="-475.5" font-family="Helvetica,sans-Serif" font-size="10.00">+ operator+()</text>
<text text-anchor="start" x="733.5" y="-464.5" font-family="Helvetica,sans-Serif" font-size="10.00">+ operator+=()</text>
<text text-anchor="start" x="733.5" y="-453.5" font-family="Helvetica,sans-Serif" font-size="10.00">+ operator&#45;=()</text>
<text text-anchor="start" x="733.5" y="-442.5" font-family="Helvetica,sans-Serif" font-size="10.00">+ operator&#45;()</text>
<text text-anchor="start" x="733.5" y="-431.5" font-family="Helvetica,sans-Serif" font-size="10.00">+ operator&#45;()</text>
<text text-anchor="start" x="733.5" y="-420.5" font-family="Helvetica,sans-Serif" font-size="10.00">+ operator++()</text>
<text text-anchor="start" x="733.5" y="-409.5" font-family="Helvetica,sans-Serif" font-size="10.00">+ GTime()</text>
<text text-anchor="start" x="733.5" y="-398.5" font-family="Helvetica,sans-Serif" font-size="10.00">+ GTime()</text>
<text text-anchor="start" x="733.5" y="-387.5" font-family="Helvetica,sans-Serif" font-size="10.00">+ GTime()</text>
<text text-anchor="start" x="733.5" y="-376.5" font-family="Helvetica,sans-Serif" font-size="10.00">+ GTime()</text>
<text text-anchor="start" x="733.5" y="-365.5" font-family="Helvetica,sans-Serif" font-size="10.00">+ GTime()</text>
<text text-anchor="start" x="733.5" y="-354.5" font-family="Helvetica,sans-Serif" font-size="10.00">+ serialize()</text>
<text text-anchor="start" x="733.5" y="-343.5" font-family="Helvetica,sans-Serif" font-size="10.00">+ floorTime()</text>
<text text-anchor="start" x="733.5" y="-332.5" font-family="Helvetica,sans-Serif" font-size="10.00">+ gregString()</text>
<text text-anchor="start" x="733.5" y="-321.5" font-family="Helvetica,sans-Serif" font-size="10.00">+ operator long double()</text>
<text text-anchor="start" x="733.5" y="-310.5" font-family="Helvetica,sans-Serif" font-size="10.00">+ operator MjDateTT()</text>
<text text-anchor="start" x="733.5" y="-299.5" font-family="Helvetica,sans-Serif" font-size="10.00">+ operator GEpoch()</text>
<text text-anchor="start" x="733.5" y="-288.5" font-family="Helvetica,sans-Serif" font-size="10.00">+ operator UtcTime()</text>
<text text-anchor="start" x="733.5" y="-277.5" font-family="Helvetica,sans-Serif" font-size="10.00">+ operator GWeek()</text>
<text text-anchor="start" x="733.5" y="-266.5" font-family="Helvetica,sans-Serif" font-size="10.00">+ operator BWeek()</text>
<text text-anchor="start" x="733.5" y="-255.5" font-family="Helvetica,sans-Serif" font-size="10.00">+ operator GTow()</text>
<text text-anchor="start" x="733.5" y="-244.5" font-family="Helvetica,sans-Serif" font-size="10.00">+ operator BTow()</text>
<text text-anchor="start" x="733.5" y="-233.5" font-family="Helvetica,sans-Serif" font-size="10.00">+ operator PTime()</text>
<text text-anchor="start" x="733.5" y="-222.5" font-family="Helvetica,sans-Serif" font-size="10.00">+ operator string()</text>
<text text-anchor="start" x="733.5" y="-211.5" font-family="Helvetica,sans-Serif" font-size="10.00">+ operator RTod()</text>
<text text-anchor="start" x="733.5" y="-200.5" font-family="Helvetica,sans-Serif" font-size="10.00">+ noTime()</text>
</a>
</g>
</g>
<!-- Node5&#45;&gt;Node1 -->
<g id="edge6" class="edge">
<title>Node5&#45;&gt;Node1</title>
<path fill="none" stroke="#404040" d="M775.55,-193.4C770.11,-182.92 763.65,-173.02 756,-164 707.92,-107.3 623.62,-86.06 560.8,-78.24"/>
<text text-anchor="middle" x="818" y="-167" font-family="Helvetica,sans-Serif" font-size="10.00"> +previousTargetTime</text>
</g>
<!-- Node18&#45;&gt;Node1 -->
<g id="edge8" class="edge">
<title>Node18&#45;&gt;Node1</title>
<path fill="none" stroke="#404040" d="M316.82,-385.88C324.72,-336.99 346.59,-233.84 398,-164 402.51,-157.87 407.38,-151.69 412.4,-145.58"/>
<text text-anchor="middle" x="437" y="-167" font-family="Helvetica,sans-Serif" font-size="10.00"> +streamConfig</text>
</g>
</g>
</svg>
        <g id="navigator" transform="translate(0 0)" fill="#404254">
                <rect fill="#f2f5e9" fill-opacity="0.5" stroke="#606060" stroke-width=".5" x="0" y="0" width="60" height="60"/>
                <use id="zoomplus" xlink:href="#zoomPlus" x="17" y="9" onmousedown="handleZoom(evt,'in')"/>
                <use id="zoomminus" xlink:href="#zoomMin" x="42" y="9" onmousedown="handleZoom(evt,'out')"/>
                <use id="reset" xlink:href="#resetDef" x="30" y="36" onmousedown="handleReset()"/>
                <g id="arrowUp" xlink:href="#dirArrow" transform="translate(30 24)" onmousedown="handlePan(0,-1)">
                  <use xlink:href="#rim" fill="#404040">
                        <set attributeName="fill" to="#808080" begin="arrowUp.mouseover" end="arrowUp.mouseout"/>
                  </use>
                  <path fill="none" stroke="white" stroke-width="1.5" d="M0,-3.0v7 M-2.5,-0.5L0,-3.0L2.5,-0.5"/>
                </g>
                <g id="arrowRight" xlink:href="#dirArrow" transform="rotate(90) translate(36 -43)" onmousedown="handlePan(1,0)">
                  <use xlink:href="#rim" fill="#404040">
                        <set attributeName="fill" to="#808080" begin="arrowRight.mouseover" end="arrowRight.mouseout"/>
                  </use>
                  <path fill="none" stroke="white" stroke-width="1.5" d="M0,-3.0v7 M-2.5,-0.5L0,-3.0L2.5,-0.5"/>
                </g>
                <g id="arrowDown" xlink:href="#dirArrow" transform="rotate(180) translate(-30 -48)" onmousedown="handlePan(0,1)">
                  <use xlink:href="#rim" fill="#404040">
                        <set attributeName="fill" to="#808080" begin="arrowDown.mouseover" end="arrowDown.mouseout"/>
                  </use>
                  <path fill="none" stroke="white" stroke-width="1.5" d="M0,-3.0v7 M-2.5,-0.5L0,-3.0L2.5,-0.5"/>
                </g>
                <g id="arrowLeft" xlink:href="#dirArrow" transform="rotate(270) translate(-36 17)" onmousedown="handlePan(-1,0)">
                  <use xlink:href="#rim" fill="#404040">
                        <set attributeName="fill" to="#808080" begin="arrowLeft.mouseover" end="arrowLeft.mouseout"/>
                  </use>
                  <path fill="none" stroke="white" stroke-width="1.5" d="M0,-3.0v7 M-2.5,-0.5L0,-3.0L2.5,-0.5"/>
                </g>
        </g>
        <svg viewBox="0 0 15 15" width="100%" height="30px" preserveAspectRatio="xMaxYMin meet">
         <g id="arrow_out" transform="scale(0.3 0.3)">
          <a xlink:href="structNtripUploader__coll__graph_org.svg" target="_base">
           <rect id="button" ry="5" rx="5" y="6" x="6" height="38" width="38"
                fill="#f2f5e9" fill-opacity="0.5" stroke="#606060" stroke-width="1.0"/>
           <path id="arrow"
             d="M 11.500037,31.436501 C 11.940474,20.09759 22.043105,11.32322 32.158766,21.979434 L 37.068811,17.246167 C 37.068811,17.246167 37.088388,32 37.088388,32 L 22.160133,31.978069 C 22.160133,31.978069 26.997745,27.140456 26.997745,27.140456 C 18.528582,18.264221 13.291696,25.230495 11.500037,31.436501 z"
             style="fill:#404040;"/>
          </a>
         </g>
        </svg>
</svg>
