<?xml version="1.0" encoding="UTF-8" standalone="no"?>
<!DOCTYPE svg PUBLIC "-//W3C//DTD SVG 1.1//EN"
 "http://www.w3.org/Graphics/SVG/1.1/DTD/svg11.dtd">
<!-- Generated by graphviz version 2.43.0 (0)
 -->
<!-- Title: Enable Pages: 1 -->
<svg width="786pt" height="182pt"
 viewBox="0.00 0.00 786.00 182.00" xmlns="http://www.w3.org/2000/svg" xmlns:xlink="http://www.w3.org/1999/xlink">
<g id="graph0" class="graph" transform="scale(1 1) rotate(0) translate(4 178)">
<title>Enable</title>
<polygon fill="white" stroke="transparent" points="-4,4 -4,-178 782,-178 782,4 -4,4"/>
<!-- Node1 -->
<g id="node1" class="node">
<title>Node1</title>
<g id="a_node1"><a xlink:title=" ">
<polygon fill="#bfbfbf" stroke="black" points="370.5,-116.5 370.5,-173.5 431.5,-173.5 431.5,-116.5 370.5,-116.5"/>
<text text-anchor="middle" x="401" y="-161.5" font-family="Helvetica,sans-Serif" font-size="10.00">Enable</text>
<polyline fill="none" stroke="black" points="370.5,-154.5 431.5,-154.5 "/>
<text text-anchor="start" x="378.5" y="-142.5" font-family="Helvetica,sans-Serif" font-size="10.00">+ enable</text>
<polyline fill="none" stroke="black" points="370.5,-135.5 431.5,-135.5 "/>
<text text-anchor="middle" x="401" y="-123.5" font-family="Helvetica,sans-Serif" font-size="10.00"> </text>
</a>
</g>
</g>
<!-- Node2 -->
<g id="node2" class="node">
<title>Node2</title>
<g id="a_node2"><a xlink:href="structModelAtt.html" target="_top" xlink:title="Options for modelling attitude.">
<polygon fill="white" stroke="black" points="0,-0.5 0,-79.5 82,-79.5 82,-0.5 0,-0.5"/>
<text text-anchor="middle" x="41" y="-67.5" font-family="Helvetica,sans-Serif" font-size="10.00">ModelAtt</text>
<polyline fill="none" stroke="black" points="0,-60.5 82,-60.5 "/>
<text text-anchor="start" x="8" y="-48.5" font-family="Helvetica,sans-Serif" font-size="10.00">+ sources</text>
<text text-anchor="start" x="8" y="-37.5" font-family="Helvetica,sans-Serif" font-size="10.00">+ valid_var</text>
<text text-anchor="start" x="8" y="-26.5" font-family="Helvetica,sans-Serif" font-size="10.00">+ invalid_var</text>
<polyline fill="none" stroke="black" points="0,-19.5 82,-19.5 "/>
<text text-anchor="middle" x="41" y="-7.5" font-family="Helvetica,sans-Serif" font-size="10.00"> </text>
</a>
</g>
</g>
<!-- Node1&#45;&gt;Node2 -->
<g id="edge1" class="edge">
<title>Node1&#45;&gt;Node2</title>
<path fill="none" stroke="midnightblue" d="M370.07,-142.27C312.6,-138.06 186.53,-124.16 91,-80 88,-78.61 85.02,-77.02 82.09,-75.28"/>
</g>
<!-- Node3 -->
<g id="node3" class="node">
<title>Node3</title>
<g id="a_node3"><a xlink:href="structModelClk.html" target="_top" xlink:title=" ">
<polygon fill="white" stroke="black" points="100,-11.5 100,-68.5 222,-68.5 222,-11.5 100,-11.5"/>
<text text-anchor="middle" x="161" y="-56.5" font-family="Helvetica,sans-Serif" font-size="10.00">ModelClk</text>
<polyline fill="none" stroke="black" points="100,-49.5 222,-49.5 "/>
<text text-anchor="start" x="108" y="-37.5" font-family="Helvetica,sans-Serif" font-size="10.00">+ ephemeris_sources</text>
<polyline fill="none" stroke="black" points="100,-30.5 222,-30.5 "/>
<text text-anchor="middle" x="161" y="-18.5" font-family="Helvetica,sans-Serif" font-size="10.00"> </text>
</a>
</g>
</g>
<!-- Node1&#45;&gt;Node3 -->
<g id="edge2" class="edge">
<title>Node1&#45;&gt;Node3</title>
<path fill="none" stroke="midnightblue" d="M370.35,-134C335.87,-122.39 278.49,-102.02 231,-80 223.55,-76.55 215.82,-72.61 208.33,-68.61"/>
</g>
<!-- Node4 -->
<g id="node4" class="node">
<title>Node4</title>
<g id="a_node4"><a xlink:href="structModelRecPos.html" target="_top" xlink:title=" ">
<polygon fill="white" stroke="black" points="240,-11.5 240,-68.5 322,-68.5 322,-11.5 240,-11.5"/>
<text text-anchor="middle" x="281" y="-56.5" font-family="Helvetica,sans-Serif" font-size="10.00">ModelRecPos</text>
<polyline fill="none" stroke="black" points="240,-49.5 322,-49.5 "/>
<text text-anchor="middle" x="281" y="-37.5" font-family="Helvetica,sans-Serif" font-size="10.00"> </text>
<polyline fill="none" stroke="black" points="240,-30.5 322,-30.5 "/>
<text text-anchor="middle" x="281" y="-18.5" font-family="Helvetica,sans-Serif" font-size="10.00"> </text>
</a>
</g>
</g>
<!-- Node1&#45;&gt;Node4 -->
<g id="edge3" class="edge">
<title>Node1&#45;&gt;Node4</title>
<path fill="none" stroke="midnightblue" d="M370.41,-117.74C352.91,-102.72 330.98,-83.9 313.21,-68.65"/>
</g>
<!-- Node5 -->
<g id="node5" class="node">
<title>Node5</title>
<g id="a_node5"><a xlink:href="structModelSatPos.html" target="_top" xlink:title=" ">
<polygon fill="white" stroke="black" points="340,-11.5 340,-68.5 462,-68.5 462,-11.5 340,-11.5"/>
<text text-anchor="middle" x="401" y="-56.5" font-family="Helvetica,sans-Serif" font-size="10.00">ModelSatPos</text>
<polyline fill="none" stroke="black" points="340,-49.5 462,-49.5 "/>
<text text-anchor="start" x="348" y="-37.5" font-family="Helvetica,sans-Serif" font-size="10.00">+ ephemeris_sources</text>
<polyline fill="none" stroke="black" points="340,-30.5 462,-30.5 "/>
<text text-anchor="middle" x="401" y="-18.5" font-family="Helvetica,sans-Serif" font-size="10.00"> </text>
</a>
</g>
</g>
<!-- Node1&#45;&gt;Node5 -->
<g id="edge4" class="edge">
<title>Node1&#45;&gt;Node5</title>
<path fill="none" stroke="midnightblue" d="M401,-116.4C401,-101.62 401,-83.47 401,-68.68"/>
</g>
<!-- Node6 -->
<g id="node6" class="node">
<title>Node6</title>
<g id="a_node6"><a xlink:href="structModelTides.html" target="_top" xlink:title=" ">
<polygon fill="white" stroke="black" points="480,-0.5 480,-79.5 552,-79.5 552,-0.5 480,-0.5"/>
<text text-anchor="middle" x="516" y="-67.5" font-family="Helvetica,sans-Serif" font-size="10.00">ModelTides</text>
<polyline fill="none" stroke="black" points="480,-60.5 552,-60.5 "/>
<text text-anchor="start" x="488" y="-48.5" font-family="Helvetica,sans-Serif" font-size="10.00">+ solid</text>
<text text-anchor="start" x="488" y="-37.5" font-family="Helvetica,sans-Serif" font-size="10.00">+ otl</text>
<text text-anchor="start" x="488" y="-26.5" font-family="Helvetica,sans-Serif" font-size="10.00">+ pole</text>
<polyline fill="none" stroke="black" points="480,-19.5 552,-19.5 "/>
<text text-anchor="middle" x="516" y="-7.5" font-family="Helvetica,sans-Serif" font-size="10.00"> </text>
</a>
</g>
</g>
<!-- Node1&#45;&gt;Node6 -->
<g id="edge5" class="edge">
<title>Node1&#45;&gt;Node6</title>
<path fill="none" stroke="midnightblue" d="M431.52,-116.67C446.29,-103.44 464.13,-87.45 479.61,-73.59"/>
</g>
<!-- Node7 -->
<g id="node7" class="node">
<title>Node7</title>
<g id="a_node7"><a xlink:href="structModelTrop.html" target="_top" xlink:title="Options to set the tropospheric model used in calculations.">
<polygon fill="white" stroke="black" points="570.5,-0.5 570.5,-79.5 647.5,-79.5 647.5,-0.5 570.5,-0.5"/>
<text text-anchor="middle" x="609" y="-67.5" font-family="Helvetica,sans-Serif" font-size="10.00">ModelTrop</text>
<polyline fill="none" stroke="black" points="570.5,-60.5 647.5,-60.5 "/>
<text text-anchor="start" x="578.5" y="-48.5" font-family="Helvetica,sans-Serif" font-size="10.00">+ model</text>
<text text-anchor="start" x="578.5" y="-37.5" font-family="Helvetica,sans-Serif" font-size="10.00">+ orography</text>
<text text-anchor="start" x="578.5" y="-26.5" font-family="Helvetica,sans-Serif" font-size="10.00">+ gpt2grid</text>
<polyline fill="none" stroke="black" points="570.5,-19.5 647.5,-19.5 "/>
<text text-anchor="middle" x="609" y="-7.5" font-family="Helvetica,sans-Serif" font-size="10.00"> </text>
</a>
</g>
</g>
<!-- Node1&#45;&gt;Node7 -->
<g id="edge6" class="edge">
<title>Node1&#45;&gt;Node7</title>
<path fill="none" stroke="midnightblue" d="M431.75,-134.78C464.93,-124.14 518.7,-104.86 561,-80 564.15,-78.15 567.31,-76.1 570.42,-73.95"/>
</g>
<!-- Node8 -->
<g id="node8" class="node">
<title>Node8</title>
<g id="a_node8"><a xlink:href="structModelUndefined.html" target="_top" xlink:title=" ">
<polygon fill="white" stroke="black" points="666,-11.5 666,-68.5 778,-68.5 778,-11.5 666,-11.5"/>
<text text-anchor="middle" x="722" y="-56.5" font-family="Helvetica,sans-Serif" font-size="10.00">ModelUndefined</text>
<polyline fill="none" stroke="black" points="666,-49.5 778,-49.5 "/>
<text text-anchor="start" x="674" y="-37.5" font-family="Helvetica,sans-Serif" font-size="10.00">+ undefined_sigma</text>
<polyline fill="none" stroke="black" points="666,-30.5 778,-30.5 "/>
<text text-anchor="middle" x="722" y="-18.5" font-family="Helvetica,sans-Serif" font-size="10.00"> </text>
</a>
</g>
</g>
<!-- Node1&#45;&gt;Node8 -->
<g id="edge7" class="edge">
<title>Node1&#45;&gt;Node8</title>
<path fill="none" stroke="midnightblue" d="M431.88,-139.32C480.94,-131.21 579.12,-112.26 657,-80 664.66,-76.83 672.49,-72.85 679.93,-68.67"/>
</g>
</g>
</svg>
