<?xml version="1.0" encoding="UTF-8" standalone="no"?>
<!DOCTYPE svg PUBLIC "-//W3C//DTD SVG 1.1//EN"
 "http://www.w3.org/Graphics/SVG/1.1/DTD/svg11.dtd">
<!-- Generated by graphviz version 2.43.0 (0)
 -->
<!-- Title: Legendre::init Pages: 1 -->
<svg width="240pt" height="66pt"
 viewBox="0.00 0.00 240.00 66.00" xmlns="http://www.w3.org/2000/svg" xmlns:xlink="http://www.w3.org/1999/xlink">
<g id="graph0" class="graph" transform="scale(1 1) rotate(0) translate(4 62)">
<title>Legendre::init</title>
<polygon fill="white" stroke="transparent" points="-4,4 -4,-62 236,-62 236,4 -4,4"/>
<!-- Node1 -->
<g id="node1" class="node">
<title>Node1</title>
<g id="a_node1"><a xlink:title=" ">
<polygon fill="#bfbfbf" stroke="black" points="149,-19.5 149,-38.5 232,-38.5 232,-19.5 149,-19.5"/>
<text text-anchor="middle" x="190.5" y="-26.5" font-family="Helvetica,sans-Serif" font-size="10.00">Legendre::init</text>
</a>
</g>
</g>
<!-- Node2 -->
<g id="node2" class="node">
<title>Node2</title>
<g id="a_node2"><a xlink:href="structLegendre.html#ad737127b539de70105d61faa44af5697" target="_top" xlink:title=" ">
<polygon fill="white" stroke="black" points="0,-38.5 0,-57.5 113,-57.5 113,-38.5 0,-38.5"/>
<text text-anchor="middle" x="56.5" y="-45.5" font-family="Helvetica,sans-Serif" font-size="10.00">Legendre::Legendre</text>
</a>
</g>
</g>
<!-- Node1&#45;&gt;Node2 -->
<g id="edge1" class="edge">
<title>Node1&#45;&gt;Node2</title>
<path fill="none" stroke="midnightblue" d="M138.85,-36.29C130.5,-37.49 121.81,-38.74 113.34,-39.96"/>
<polygon fill="midnightblue" stroke="midnightblue" points="139.42,-39.74 148.82,-34.86 138.42,-32.82 139.42,-39.74"/>
</g>
<!-- Node3 -->
<g id="node3" class="node">
<title>Node3</title>
<g id="a_node3"><a xlink:href="structLegendre.html#aed8b2efb4e2275a6f4add28850affc6d" target="_top" xlink:title=" ">
<polygon fill="white" stroke="red" points="0.5,-0.5 0.5,-19.5 112.5,-19.5 112.5,-0.5 0.5,-0.5"/>
<text text-anchor="middle" x="56.5" y="-7.5" font-family="Helvetica,sans-Serif" font-size="10.00">Legendre::setNmax</text>
</a>
</g>
</g>
<!-- Node1&#45;&gt;Node3 -->
<g id="edge2" class="edge">
<title>Node1&#45;&gt;Node3</title>
<path fill="none" stroke="midnightblue" d="M138.71,-21.69C130.25,-20.47 121.43,-19.2 112.86,-17.97"/>
<polygon fill="midnightblue" stroke="midnightblue" points="138.42,-25.18 148.82,-23.14 139.42,-18.26 138.42,-25.18"/>
</g>
</g>
</svg>
