<?xml version="1.0" encoding="UTF-8" standalone="no"?>
<!DOCTYPE svg PUBLIC "-//W3C//DTD SVG 1.1//EN"
 "http://www.w3.org/Graphics/SVG/1.1/DTD/svg11.dtd">
<!-- Generated by graphviz version 2.43.0 (0)
 -->
<!-- Title: URL Pages: 1 -->
<svg width="97pt" height="248pt"
 viewBox="0.00 0.00 97.00 248.00" xmlns="http://www.w3.org/2000/svg" xmlns:xlink="http://www.w3.org/1999/xlink">
<g id="graph0" class="graph" transform="scale(1 1) rotate(0) translate(4 244)">
<title>URL</title>
<polygon fill="white" stroke="transparent" points="-4,4 -4,-244 93,-244 93,4 -4,4"/>
<!-- Node1 -->
<g id="node1" class="node">
<title>Node1</title>
<g id="a_node1"><a xlink:title=" ">
<polygon fill="#bfbfbf" stroke="black" points="0,-0.5 0,-68.5 80,-68.5 80,-0.5 0,-0.5"/>
<text text-anchor="middle" x="40" y="-56.5" font-family="Helvetica,sans-Serif" font-size="10.00">URL</text>
<polyline fill="none" stroke="black" points="0,-49.5 80,-49.5 "/>
<text text-anchor="start" x="8" y="-37.5" font-family="Helvetica,sans-Serif" font-size="10.00">+ port</text>
<polyline fill="none" stroke="black" points="0,-30.5 80,-30.5 "/>
<text text-anchor="start" x="8" y="-18.5" font-family="Helvetica,sans-Serif" font-size="10.00">+ sanitised()</text>
<text text-anchor="start" x="8" y="-7.5" font-family="Helvetica,sans-Serif" font-size="10.00">+ parse()</text>
</a>
</g>
</g>
<!-- Node2 -->
<g id="node2" class="node">
<title>Node2</title>
<g id="a_node2"><a xlink:title=" ">
<polygon fill="white" stroke="black" points="18,-182.5 18,-239.5 62,-239.5 62,-182.5 18,-182.5"/>
<text text-anchor="middle" x="40" y="-227.5" font-family="Helvetica,sans-Serif" font-size="10.00">string</text>
<polyline fill="none" stroke="black" points="18,-220.5 62,-220.5 "/>
<text text-anchor="middle" x="40" y="-208.5" font-family="Helvetica,sans-Serif" font-size="10.00"> </text>
<polyline fill="none" stroke="black" points="18,-201.5 62,-201.5 "/>
<text text-anchor="middle" x="40" y="-189.5" font-family="Helvetica,sans-Serif" font-size="10.00"> </text>
</a>
</g>
</g>
<!-- Node2&#45;&gt;Node1 -->
<g id="edge1" class="edge">
<title>Node2&#45;&gt;Node1</title>
<path fill="none" stroke="#404040" d="M40,-182.35C40,-151.5 40,-101.61 40,-68.68"/>
<text text-anchor="middle" x="64.5" y="-156" font-family="Helvetica,sans-Serif" font-size="10.00"> +host</text>
<text text-anchor="middle" x="64.5" y="-145" font-family="Helvetica,sans-Serif" font-size="10.00">+pass</text>
<text text-anchor="middle" x="64.5" y="-134" font-family="Helvetica,sans-Serif" font-size="10.00">+path</text>
<text text-anchor="middle" x="64.5" y="-123" font-family="Helvetica,sans-Serif" font-size="10.00">+port_str</text>
<text text-anchor="middle" x="64.5" y="-112" font-family="Helvetica,sans-Serif" font-size="10.00">+protocol</text>
<text text-anchor="middle" x="64.5" y="-101" font-family="Helvetica,sans-Serif" font-size="10.00">+url</text>
<text text-anchor="middle" x="64.5" y="-90" font-family="Helvetica,sans-Serif" font-size="10.00">+user</text>
</g>
</g>
</svg>
