<?xml version="1.0" encoding="UTF-8" standalone="no"?>
<!DOCTYPE svg PUBLIC "-//W3C//DTD SVG 1.1//EN"
 "http://www.w3.org/Graphics/SVG/1.1/DTD/svg11.dtd">
<!-- Generated by graphviz version 2.43.0 (0)
 -->
<!-- Title: Sinex_gps_phase_center_t Pages: 1 -->
<svg width="154pt" height="204pt"
 viewBox="0.00 0.00 154.00 204.00" xmlns="http://www.w3.org/2000/svg" xmlns:xlink="http://www.w3.org/1999/xlink">
<g id="graph0" class="graph" transform="scale(1 1) rotate(0) translate(4 200)">
<title>Sinex_gps_phase_center_t</title>
<polygon fill="white" stroke="transparent" points="-4,4 -4,-200 150,-200 150,4 -4,4"/>
<!-- Node1 -->
<g id="node1" class="node">
<title>Node1</title>
<g id="a_node1"><a xlink:title=" ">
<polygon fill="#bfbfbf" stroke="black" points="0,-0.5 0,-68.5 146,-68.5 146,-0.5 0,-0.5"/>
<text text-anchor="middle" x="73" y="-56.5" font-family="Helvetica,sans-Serif" font-size="10.00">Sinex_gps_phase_center_t</text>
<polyline fill="none" stroke="black" points="0,-49.5 146,-49.5 "/>
<text text-anchor="start" x="8" y="-37.5" font-family="Helvetica,sans-Serif" font-size="10.00">+ L1</text>
<text text-anchor="start" x="8" y="-26.5" font-family="Helvetica,sans-Serif" font-size="10.00">+ L2</text>
<polyline fill="none" stroke="black" points="0,-19.5 146,-19.5 "/>
<text text-anchor="middle" x="73" y="-7.5" font-family="Helvetica,sans-Serif" font-size="10.00"> </text>
</a>
</g>
</g>
<!-- Node2 -->
<g id="node2" class="node">
<title>Node2</title>
<g id="a_node2"><a xlink:title=" ">
<polygon fill="white" stroke="black" points="51,-138.5 51,-195.5 95,-195.5 95,-138.5 51,-138.5"/>
<text text-anchor="middle" x="73" y="-183.5" font-family="Helvetica,sans-Serif" font-size="10.00">string</text>
<polyline fill="none" stroke="black" points="51,-176.5 95,-176.5 "/>
<text text-anchor="middle" x="73" y="-164.5" font-family="Helvetica,sans-Serif" font-size="10.00"> </text>
<polyline fill="none" stroke="black" points="51,-157.5 95,-157.5 "/>
<text text-anchor="middle" x="73" y="-145.5" font-family="Helvetica,sans-Serif" font-size="10.00"> </text>
</a>
</g>
</g>
<!-- Node2&#45;&gt;Node1 -->
<g id="edge1" class="edge">
<title>Node2&#45;&gt;Node1</title>
<path fill="none" stroke="#404040" d="M73,-138.32C73,-117.97 73,-90.23 73,-68.68"/>
<text text-anchor="middle" x="100.5" y="-112" font-family="Helvetica,sans-Serif" font-size="10.00"> +antname</text>
<text text-anchor="middle" x="100.5" y="-101" font-family="Helvetica,sans-Serif" font-size="10.00">+calib</text>
<text text-anchor="middle" x="100.5" y="-90" font-family="Helvetica,sans-Serif" font-size="10.00">+serialno</text>
</g>
</g>
</svg>
