<?xml version="1.0" encoding="UTF-8" standalone="no"?>
<!DOCTYPE svg PUBLIC "-//W3C//DTD SVG 1.1//EN"
 "http://www.w3.org/Graphics/SVG/1.1/DTD/svg11.dtd">
<!-- Generated by graphviz version 2.43.0 (0)
 -->
<!-- Title: SatIdentity Pages: 1 -->
<svg width="101pt" height="226pt"
 viewBox="0.00 0.00 100.50 226.00" xmlns="http://www.w3.org/2000/svg" xmlns:xlink="http://www.w3.org/1999/xlink">
<g id="graph0" class="graph" transform="scale(1 1) rotate(0) translate(4 222)">
<title>SatIdentity</title>
<polygon fill="white" stroke="transparent" points="-4,4 -4,-222 96.5,-222 96.5,4 -4,4"/>
<!-- Node1 -->
<g id="node1" class="node">
<title>Node1</title>
<g id="a_node1"><a xlink:title=" ">
<polygon fill="#bfbfbf" stroke="black" points="0,-0.5 0,-101.5 79,-101.5 79,-0.5 0,-0.5"/>
<text text-anchor="middle" x="39.5" y="-89.5" font-family="Helvetica,sans-Serif" font-size="10.00">SatIdentity</text>
<polyline fill="none" stroke="black" points="0,-82.5 79,-82.5 "/>
<text text-anchor="start" x="8" y="-70.5" font-family="Helvetica,sans-Serif" font-size="10.00">+ ilrsId</text>
<text text-anchor="start" x="8" y="-59.5" font-family="Helvetica,sans-Serif" font-size="10.00">+ noradId</text>
<text text-anchor="start" x="8" y="-48.5" font-family="Helvetica,sans-Serif" font-size="10.00">+ altitude</text>
<text text-anchor="start" x="8" y="-37.5" font-family="Helvetica,sans-Serif" font-size="10.00">+ inclination</text>
<text text-anchor="start" x="8" y="-26.5" font-family="Helvetica,sans-Serif" font-size="10.00">+ tracking</text>
<polyline fill="none" stroke="black" points="0,-19.5 79,-19.5 "/>
<text text-anchor="middle" x="39.5" y="-7.5" font-family="Helvetica,sans-Serif" font-size="10.00"> </text>
</a>
</g>
</g>
<!-- Node2 -->
<g id="node2" class="node">
<title>Node2</title>
<g id="a_node2"><a xlink:title=" ">
<polygon fill="white" stroke="black" points="17.5,-160.5 17.5,-217.5 61.5,-217.5 61.5,-160.5 17.5,-160.5"/>
<text text-anchor="middle" x="39.5" y="-205.5" font-family="Helvetica,sans-Serif" font-size="10.00">string</text>
<polyline fill="none" stroke="black" points="17.5,-198.5 61.5,-198.5 "/>
<text text-anchor="middle" x="39.5" y="-186.5" font-family="Helvetica,sans-Serif" font-size="10.00"> </text>
<polyline fill="none" stroke="black" points="17.5,-179.5 61.5,-179.5 "/>
<text text-anchor="middle" x="39.5" y="-167.5" font-family="Helvetica,sans-Serif" font-size="10.00"> </text>
</a>
</g>
</g>
<!-- Node2&#45;&gt;Node1 -->
<g id="edge1" class="edge">
<title>Node2&#45;&gt;Node1</title>
<path fill="none" stroke="#404040" d="M39.5,-160.48C39.5,-143.64 39.5,-121.58 39.5,-101.76"/>
<text text-anchor="middle" x="66" y="-134" font-family="Helvetica,sans-Serif" font-size="10.00"> +satId</text>
<text text-anchor="middle" x="66" y="-123" font-family="Helvetica,sans-Serif" font-size="10.00">+satName</text>
</g>
</g>
</svg>
