<?xml version="1.0" encoding="UTF-8" standalone="no"?>
<!DOCTYPE svg PUBLIC "-//W3C//DTD SVG 1.1//EN"
 "http://www.w3.org/Graphics/SVG/1.1/DTD/svg11.dtd">
<!-- Generated by graphviz version 2.43.0 (0)
 -->
<!-- Title: KFMeasEntry::setInnov Pages: 1 -->
<svg width="315pt" height="636pt"
 viewBox="0.00 0.00 315.00 636.00" xmlns="http://www.w3.org/2000/svg" xmlns:xlink="http://www.w3.org/1999/xlink">
<g id="graph0" class="graph" transform="scale(1 1) rotate(0) translate(4 632)">
<title>KFMeasEntry::setInnov</title>
<polygon fill="white" stroke="transparent" points="-4,4 -4,-632 311,-632 311,4 -4,4"/>
<!-- Node1 -->
<g id="node1" class="node">
<title>Node1</title>
<g id="a_node1"><a xlink:title="Adds the innovation value for this measurement.">
<polygon fill="#bfbfbf" stroke="black" points="179,-304.5 179,-323.5 307,-323.5 307,-304.5 179,-304.5"/>
<text text-anchor="middle" x="243" y="-311.5" font-family="Helvetica,sans-Serif" font-size="10.00">KFMeasEntry::setInnov</text>
</a>
</g>
</g>
<!-- Node2 -->
<g id="node2" class="node">
<title>Node2</title>
<g id="a_node2"><a xlink:href="ppp__pseudoobs_8cpp.html#a63635e571402259710bda2a9ca830a98" target="_top" xlink:title=" ">
<polygon fill="white" stroke="red" points="6.5,-608.5 6.5,-627.5 136.5,-627.5 136.5,-608.5 6.5,-608.5"/>
<text text-anchor="middle" x="71.5" y="-615.5" font-family="Helvetica,sans-Serif" font-size="10.00">pseudoAvSatPhaseBias</text>
</a>
</g>
</g>
<!-- Node1&#45;&gt;Node2 -->
<g id="edge1" class="edge">
<title>Node1&#45;&gt;Node2</title>
<path fill="none" stroke="midnightblue" d="M241.73,-323.55C240.05,-363.63 228.09,-519.75 143,-599 138.83,-602.89 133.94,-606 128.72,-608.48"/>
</g>
<!-- Node11 -->
<g id="node3" class="node">
<title>Node11</title>
<g id="a_node3"><a xlink:href="ppp__pseudoobs_8cpp.html#ae0acf889ad38a97113d13d1816a4b250" target="_top" xlink:title=" ">
<polygon fill="white" stroke="red" points="9,-570.5 9,-589.5 134,-589.5 134,-570.5 9,-570.5"/>
<text text-anchor="middle" x="71.5" y="-577.5" font-family="Helvetica,sans-Serif" font-size="10.00">pseudoAvSatCodeBias</text>
</a>
</g>
</g>
<!-- Node1&#45;&gt;Node11 -->
<g id="edge2" class="edge">
<title>Node1&#45;&gt;Node11</title>
<path fill="none" stroke="midnightblue" d="M241.16,-323.52C237.4,-360.21 218.81,-493.65 143,-561 138.64,-564.87 133.57,-567.97 128.19,-570.44"/>
</g>
<!-- Node12 -->
<g id="node4" class="node">
<title>Node12</title>
<g id="a_node4"><a xlink:href="ppp__pseudoobs_8cpp.html#a511a45b33f7f84f918eb43e37a51447c" target="_top" xlink:title=" ">
<polygon fill="white" stroke="red" points="0,-532.5 0,-551.5 143,-551.5 143,-532.5 0,-532.5"/>
<text text-anchor="middle" x="71.5" y="-539.5" font-family="Helvetica,sans-Serif" font-size="10.00">pseudoSatClockDefinition</text>
</a>
</g>
</g>
<!-- Node1&#45;&gt;Node12 -->
<g id="edge3" class="edge">
<title>Node1&#45;&gt;Node12</title>
<path fill="none" stroke="midnightblue" d="M240.38,-323.64C234.28,-356.84 209.56,-467.41 143,-523 138.33,-526.9 132.93,-530.01 127.24,-532.48"/>
</g>
<!-- Node13 -->
<g id="node5" class="node">
<title>Node13</title>
<g id="a_node5"><a xlink:href="ppp__pseudoobs_8cpp.html#aa248470eac1bf78565ee912282a5894d" target="_top" xlink:title=" ">
<polygon fill="white" stroke="red" points="19.5,-494.5 19.5,-513.5 123.5,-513.5 123.5,-494.5 19.5,-494.5"/>
<text text-anchor="middle" x="71.5" y="-501.5" font-family="Helvetica,sans-Serif" font-size="10.00">stationPseudoObs</text>
</a>
</g>
</g>
<!-- Node1&#45;&gt;Node13 -->
<g id="edge4" class="edge">
<title>Node1&#45;&gt;Node13</title>
<path fill="none" stroke="midnightblue" d="M239.22,-323.91C230.44,-353.34 200.42,-440.93 143,-485 137.27,-489.4 130.59,-492.78 123.68,-495.38"/>
</g>
<!-- Node14 -->
<g id="node6" class="node">
<title>Node14</title>
<g id="a_node6"><a xlink:href="ppp__pseudoobs_8cpp.html#a45f52eac658e7486e3732ef41e15b50c" target="_top" xlink:title=" ">
<polygon fill="white" stroke="red" points="0,-456.5 0,-475.5 143,-475.5 143,-456.5 0,-456.5"/>
<text text-anchor="middle" x="71.5" y="-463.5" font-family="Helvetica,sans-Serif" font-size="10.00">pseudoSatDCBPseudoObs</text>
</a>
</g>
</g>
<!-- Node1&#45;&gt;Node14 -->
<g id="edge5" class="edge">
<title>Node1&#45;&gt;Node14</title>
<path fill="none" stroke="midnightblue" d="M237.59,-323.78C225.93,-348.49 191.8,-413.82 143,-447 137.34,-450.85 130.93,-453.92 124.34,-456.37"/>
</g>
<!-- Node15 -->
<g id="node7" class="node">
<title>Node15</title>
<g id="a_node7"><a xlink:href="ppp__pseudoobs_8cpp.html#ad4fe5dd55beeb60d68158d7ebc4d0102" target="_top" xlink:title=" ">
<polygon fill="white" stroke="red" points="5,-418.5 5,-437.5 138,-437.5 138,-418.5 5,-418.5"/>
<text text-anchor="middle" x="71.5" y="-425.5" font-family="Helvetica,sans-Serif" font-size="10.00">pseudoCommonSatBias</text>
</a>
</g>
</g>
<!-- Node1&#45;&gt;Node15 -->
<g id="edge6" class="edge">
<title>Node1&#45;&gt;Node15</title>
<path fill="none" stroke="midnightblue" d="M234.71,-323.72C219.72,-343 183.45,-386.16 143,-409 136.16,-412.86 128.49,-415.97 120.81,-418.46"/>
</g>
<!-- Node16 -->
<g id="node8" class="node">
<title>Node16</title>
<g id="a_node8"><a xlink:href="ppp__obs_8cpp.html#aa6a7c175b1b4ea3c417b058d36edc96d" target="_top" xlink:title=" ">
<polygon fill="white" stroke="red" points="37.5,-380.5 37.5,-399.5 105.5,-399.5 105.5,-380.5 37.5,-380.5"/>
<text text-anchor="middle" x="71.5" y="-387.5" font-family="Helvetica,sans-Serif" font-size="10.00">stationPPP</text>
</a>
</g>
</g>
<!-- Node1&#45;&gt;Node16 -->
<g id="edge7" class="edge">
<title>Node1&#45;&gt;Node16</title>
<path fill="none" stroke="midnightblue" d="M228.17,-323.52C209.55,-335.96 175.06,-357.71 143,-371 131.17,-375.9 117.7,-379.89 105.73,-382.93"/>
</g>
<!-- Node17 -->
<g id="node9" class="node">
<title>Node17</title>
<g id="a_node9"><a xlink:href="ppp__ambres_8cpp.html#a604fb46557eb8261b38abf76fb147433" target="_top" xlink:title=" ">
<polygon fill="white" stroke="red" points="13.5,-342.5 13.5,-361.5 129.5,-361.5 129.5,-342.5 13.5,-342.5"/>
<text text-anchor="middle" x="71.5" y="-349.5" font-family="Helvetica,sans-Serif" font-size="10.00">applyUCAmbiguities</text>
</a>
</g>
</g>
<!-- Node1&#45;&gt;Node17 -->
<g id="edge8" class="edge">
<title>Node1&#45;&gt;Node17</title>
<path fill="none" stroke="midnightblue" d="M199.23,-323.59C173.43,-329.37 140.7,-336.71 114.96,-342.48"/>
</g>
<!-- Node23 -->
<g id="node10" class="node">
<title>Node23</title>
<g id="a_node10"><a xlink:href="ppp__pseudoobs_8cpp.html#a754e4ce2ea0a8d8f6a288665ac3bb760" target="_top" xlink:title=" ">
<polygon fill="white" stroke="red" points="27,-304.5 27,-323.5 116,-323.5 116,-304.5 27,-304.5"/>
<text text-anchor="middle" x="71.5" y="-311.5" font-family="Helvetica,sans-Serif" font-size="10.00">pseudoRecDcb</text>
</a>
</g>
</g>
<!-- Node1&#45;&gt;Node23 -->
<g id="edge9" class="edge">
<title>Node1&#45;&gt;Node23</title>
<path fill="none" stroke="midnightblue" d="M178.88,-314C157.99,-314 135.21,-314 116.12,-314"/>
</g>
<!-- Node24 -->
<g id="node11" class="node">
<title>Node24</title>
<g id="a_node11"><a xlink:href="ppp__pseudoobs_8cpp.html#a949a10f89de8232ebeb49ad5d912ba80" target="_top" xlink:title=" ">
<polygon fill="white" stroke="red" points="25,-266.5 25,-285.5 118,-285.5 118,-266.5 25,-266.5"/>
<text text-anchor="middle" x="71.5" y="-273.5" font-family="Helvetica,sans-Serif" font-size="10.00">orbitPseudoObs</text>
</a>
</g>
</g>
<!-- Node1&#45;&gt;Node24 -->
<g id="edge10" class="edge">
<title>Node1&#45;&gt;Node24</title>
<path fill="none" stroke="midnightblue" d="M199.23,-304.41C173.43,-298.63 140.7,-291.29 114.96,-285.52"/>
</g>
<!-- Node25 -->
<g id="node12" class="node">
<title>Node25</title>
<g id="a_node12"><a xlink:href="walkthrough_8cpp.html#aff7ddc151473d418c066b30f06e6b42e" target="_top" xlink:title=" ">
<polygon fill="white" stroke="red" points="30,-228.5 30,-247.5 113,-247.5 113,-228.5 30,-228.5"/>
<text text-anchor="middle" x="71.5" y="-235.5" font-family="Helvetica,sans-Serif" font-size="10.00">walkthrough2</text>
</a>
</g>
</g>
<!-- Node1&#45;&gt;Node25 -->
<g id="edge11" class="edge">
<title>Node1&#45;&gt;Node25</title>
<path fill="none" stroke="midnightblue" d="M228.17,-304.48C209.55,-292.04 175.06,-270.29 143,-257 133.63,-253.12 123.23,-249.81 113.36,-247.09"/>
</g>
<!-- Node8 -->
<g id="node13" class="node">
<title>Node8</title>
<g id="a_node13"><a xlink:href="ppp__user_8cpp.html#a36a79c2aba8e8ad20aa9616988ec3269" target="_top" xlink:title=" ">
<polygon fill="white" stroke="red" points="40,-190.5 40,-209.5 103,-209.5 103,-190.5 40,-190.5"/>
<text text-anchor="middle" x="71.5" y="-197.5" font-family="Helvetica,sans-Serif" font-size="10.00">ppp_filter</text>
</a>
</g>
</g>
<!-- Node1&#45;&gt;Node8 -->
<g id="edge12" class="edge">
<title>Node1&#45;&gt;Node8</title>
<path fill="none" stroke="midnightblue" d="M234.71,-304.28C219.72,-285 183.45,-241.84 143,-219 130.86,-212.14 116.13,-207.67 103.29,-204.8"/>
</g>
<!-- Node28 -->
<g id="node14" class="node">
<title>Node28</title>
<g id="a_node14"><a xlink:href="walkthrough_8cpp.html#af3e41749378ce9de79e7bdb41df88419" target="_top" xlink:title="Ginan kalman filter basics The basic structure for kalman filtering in ginan is the KFState struct,...">
<polygon fill="white" stroke="red" points="30,-152.5 30,-171.5 113,-171.5 113,-152.5 30,-152.5"/>
<text text-anchor="middle" x="71.5" y="-159.5" font-family="Helvetica,sans-Serif" font-size="10.00">walkthrough1</text>
</a>
</g>
</g>
<!-- Node1&#45;&gt;Node28 -->
<g id="edge13" class="edge">
<title>Node1&#45;&gt;Node28</title>
<path fill="none" stroke="midnightblue" d="M237.59,-304.22C225.93,-279.51 191.8,-214.18 143,-181 134.19,-175.01 123.58,-170.91 113.28,-168.1"/>
</g>
<!-- Node29 -->
<g id="node15" class="node">
<title>Node29</title>
<g id="a_node15"><a xlink:href="debug_8cpp.html#a6b386ae3f1e24bab3a4c831fa043a400" target="_top" xlink:title=" ">
<polygon fill="white" stroke="black" points="36,-114.5 36,-133.5 107,-133.5 107,-114.5 36,-114.5"/>
<text text-anchor="middle" x="71.5" y="-121.5" font-family="Helvetica,sans-Serif" font-size="10.00">infiniteTest</text>
</a>
</g>
</g>
<!-- Node1&#45;&gt;Node29 -->
<g id="edge14" class="edge">
<title>Node1&#45;&gt;Node29</title>
<path fill="none" stroke="midnightblue" d="M239.22,-304.09C230.44,-274.66 200.42,-187.07 143,-143 132.74,-135.13 119.47,-130.51 107.21,-127.81"/>
</g>
<!-- Node30 -->
<g id="node16" class="node">
<title>Node30</title>
<g id="a_node16"><a xlink:href="ppp__pseudoobs_8cpp.html#a02995a7f24f39419730eea3b664553cf" target="_top" xlink:title=" ">
<polygon fill="white" stroke="red" points="22.5,-76.5 22.5,-95.5 120.5,-95.5 120.5,-76.5 22.5,-76.5"/>
<text text-anchor="middle" x="71.5" y="-83.5" font-family="Helvetica,sans-Serif" font-size="10.00">ambgPseudoObs</text>
</a>
</g>
</g>
<!-- Node1&#45;&gt;Node30 -->
<g id="edge15" class="edge">
<title>Node1&#45;&gt;Node30</title>
<path fill="none" stroke="midnightblue" d="M240.38,-304.36C234.28,-271.16 209.56,-160.59 143,-105 136.58,-99.64 128.78,-95.78 120.75,-93"/>
</g>
<!-- Node31 -->
<g id="node17" class="node">
<title>Node31</title>
<g id="a_node17"><a xlink:href="ppp__pseudoobs_8cpp.html#a2ad06f6b437e388988c6294bff3c23e1" target="_top" xlink:title=" ">
<polygon fill="white" stroke="red" points="25.5,-38.5 25.5,-57.5 117.5,-57.5 117.5,-38.5 25.5,-38.5"/>
<text text-anchor="middle" x="71.5" y="-45.5" font-family="Helvetica,sans-Serif" font-size="10.00">ionoPseudoObs</text>
</a>
</g>
</g>
<!-- Node1&#45;&gt;Node31 -->
<g id="edge16" class="edge">
<title>Node1&#45;&gt;Node31</title>
<path fill="none" stroke="midnightblue" d="M241.16,-304.48C237.4,-267.79 218.81,-134.35 143,-67 135.89,-60.69 126.9,-56.44 117.73,-53.59"/>
</g>
<!-- Node32 -->
<g id="node18" class="node">
<title>Node32</title>
<g id="a_node18"><a xlink:href="ppp__slr_8cpp.html#a8a0fd95f3ae58d8d033b52aa2811c60c" target="_top" xlink:title=" ">
<polygon fill="white" stroke="red" points="40,-0.5 40,-19.5 103,-19.5 103,-0.5 40,-0.5"/>
<text text-anchor="middle" x="71.5" y="-7.5" font-family="Helvetica,sans-Serif" font-size="10.00">stationSlr</text>
</a>
</g>
</g>
<!-- Node1&#45;&gt;Node32 -->
<g id="edge17" class="edge">
<title>Node1&#45;&gt;Node32</title>
<path fill="none" stroke="midnightblue" d="M241.73,-304.45C240.05,-264.37 228.09,-108.25 143,-29 132.24,-18.98 116.76,-14.14 103.04,-11.84"/>
</g>
</g>
</svg>
