<?xml version="1.0" encoding="UTF-8" standalone="no"?>
<!DOCTYPE svg PUBLIC "-//W3C//DTD SVG 1.1//EN"
 "http://www.w3.org/Graphics/SVG/1.1/DTD/svg11.dtd">
<!-- Generated by graphviz version 2.43.0 (0)
 -->
<!-- Title: ModelRecPos Pages: 1 -->
<svg width="90pt" height="160pt"
 viewBox="0.00 0.00 90.00 160.00" xmlns="http://www.w3.org/2000/svg" xmlns:xlink="http://www.w3.org/1999/xlink">
<g id="graph0" class="graph" transform="scale(1 1) rotate(0) translate(4 156)">
<title>ModelRecPos</title>
<polygon fill="white" stroke="transparent" points="-4,4 -4,-156 86,-156 86,4 -4,4"/>
<!-- Node1 -->
<g id="node1" class="node">
<title>Node1</title>
<g id="a_node1"><a xlink:title=" ">
<polygon fill="#bfbfbf" stroke="black" points="0,-0.5 0,-57.5 82,-57.5 82,-0.5 0,-0.5"/>
<text text-anchor="middle" x="41" y="-45.5" font-family="Helvetica,sans-Serif" font-size="10.00">ModelRecPos</text>
<polyline fill="none" stroke="black" points="0,-38.5 82,-38.5 "/>
<text text-anchor="middle" x="41" y="-26.5" font-family="Helvetica,sans-Serif" font-size="10.00"> </text>
<polyline fill="none" stroke="black" points="0,-19.5 82,-19.5 "/>
<text text-anchor="middle" x="41" y="-7.5" font-family="Helvetica,sans-Serif" font-size="10.00"> </text>
</a>
</g>
</g>
<!-- Node2 -->
<g id="node2" class="node">
<title>Node2</title>
<g id="a_node2"><a xlink:href="$structEnable.html" xlink:title=" ">
<polygon fill="white" stroke="black" points="10.5,-94.5 10.5,-151.5 71.5,-151.5 71.5,-94.5 10.5,-94.5"/>
<text text-anchor="middle" x="41" y="-139.5" font-family="Helvetica,sans-Serif" font-size="10.00">Enable</text>
<polyline fill="none" stroke="black" points="10.5,-132.5 71.5,-132.5 "/>
<text text-anchor="start" x="18.5" y="-120.5" font-family="Helvetica,sans-Serif" font-size="10.00">+ enable</text>
<polyline fill="none" stroke="black" points="10.5,-113.5 71.5,-113.5 "/>
<text text-anchor="middle" x="41" y="-101.5" font-family="Helvetica,sans-Serif" font-size="10.00"> </text>
</a>
</g>
</g>
<!-- Node2&#45;&gt;Node1 -->
<g id="edge1" class="edge">
<title>Node2&#45;&gt;Node1</title>
<path fill="none" stroke="midnightblue" d="M41,-94.4C41,-82.75 41,-69.23 41,-57.58"/>
</g>
</g>
</svg>
