<?xml version="1.0" encoding="UTF-8" standalone="no"?>
<!DOCTYPE svg PUBLIC "-//W3C//DTD SVG 1.1//EN"
 "http://www.w3.org/Graphics/SVG/1.1/DTD/svg11.dtd">
<!-- Generated by graphviz version 2.43.0 (0)
 -->
<!-- Title: ACSConfig::outputDefaultConfiguration Pages: 1 -->
<svg width="445pt" height="71pt"
 viewBox="0.00 0.00 445.00 70.50" xmlns="http://www.w3.org/2000/svg" xmlns:xlink="http://www.w3.org/1999/xlink">
<g id="graph0" class="graph" transform="scale(1 1) rotate(0) translate(4 66.5)">
<title>ACSConfig::outputDefaultConfiguration</title>
<polygon fill="white" stroke="transparent" points="-4,4 -4,-66.5 441,-66.5 441,4 -4,4"/>
<!-- Node1 -->
<g id="node1" class="node">
<title>Node1</title>
<g id="a_node1"><a xlink:title="Outputs default configuration and a configurator The default values, and descriptions of each paramet...">
<polygon fill="#bfbfbf" stroke="black" points="0,-0.5 0,-30.5 140,-30.5 140,-0.5 0,-0.5"/>
<text text-anchor="start" x="8" y="-18.5" font-family="Helvetica,sans-Serif" font-size="10.00">ACSConfig::outputDefault</text>
<text text-anchor="middle" x="70" y="-7.5" font-family="Helvetica,sans-Serif" font-size="10.00">Configuration</text>
</a>
</g>
</g>
<!-- Node2 -->
<g id="node2" class="node">
<title>Node2</title>
<g id="a_node2"><a xlink:href="acsConfig_8cpp.html#a645953816b624b82aa0680893e61c3a0" target="_top" xlink:title="Recursive function to output the default values of all siblings with a common root.">
<polygon fill="white" stroke="red" points="176,-25 176,-44 298,-44 298,-25 176,-25"/>
<text text-anchor="middle" x="237" y="-32" font-family="Helvetica,sans-Serif" font-size="10.00">outputDefaultSiblings</text>
</a>
</g>
</g>
<!-- Node1&#45;&gt;Node2 -->
<g id="edge1" class="edge">
<title>Node1&#45;&gt;Node2</title>
<path fill="none" stroke="midnightblue" d="M140.02,-23.45C148.59,-24.43 157.36,-25.44 165.94,-26.43"/>
<polygon fill="midnightblue" stroke="midnightblue" points="165.57,-29.91 175.91,-27.58 166.38,-22.96 165.57,-29.91"/>
</g>
<!-- Node3 -->
<g id="node3" class="node">
<title>Node3</title>
<g id="a_node3"><a xlink:href="acsConfig_8cpp.html#a584113efea0a65cc43c0961f2a9694e8" target="_top" xlink:title=" ">
<polygon fill="white" stroke="black" points="334,-6 334,-25 437,-25 437,-6 334,-6"/>
<text text-anchor="middle" x="385.5" y="-13" font-family="Helvetica,sans-Serif" font-size="10.00">nonNumericStack</text>
</a>
</g>
</g>
<!-- Node1&#45;&gt;Node3 -->
<g id="edge4" class="edge">
<title>Node1&#45;&gt;Node3</title>
<path fill="none" stroke="midnightblue" d="M140.19,-15.5C195.13,-15.5 271.2,-15.5 323.79,-15.5"/>
<polygon fill="midnightblue" stroke="midnightblue" points="323.99,-19 333.99,-15.5 323.99,-12 323.99,-19"/>
</g>
<!-- Node2&#45;&gt;Node2 -->
<g id="edge3" class="edge">
<title>Node2&#45;&gt;Node2</title>
<path fill="none" stroke="midnightblue" d="M214.19,-44.26C203.09,-53.07 210.7,-62.5 237,-62.5 254.26,-62.5 263.47,-58.44 264.63,-53.15"/>
<polygon fill="midnightblue" stroke="midnightblue" points="267.65,-51.39 259.81,-44.26 261.49,-54.72 267.65,-51.39"/>
</g>
<!-- Node2&#45;&gt;Node3 -->
<g id="edge2" class="edge">
<title>Node2&#45;&gt;Node3</title>
<path fill="none" stroke="midnightblue" d="M298.01,-26.72C306.44,-25.62 315.11,-24.5 323.55,-23.4"/>
<polygon fill="midnightblue" stroke="midnightblue" points="324.24,-26.84 333.71,-22.09 323.34,-19.9 324.24,-26.84"/>
</g>
</g>
</svg>
