<?xml version="1.0" encoding="UTF-8" standalone="no"?>
<!DOCTYPE svg PUBLIC "-//W3C//DTD SVG 1.1//EN"
 "http://www.w3.org/Graphics/SVG/1.1/DTD/svg11.dtd">
<!-- Generated by graphviz version 2.43.0 (0)
 -->
<!-- Title: RtcmEncoder::encodeSsrPhase Pages: 1 -->
<svg width="485pt" height="142pt"
 viewBox="0.00 0.00 485.00 142.00" xmlns="http://www.w3.org/2000/svg" xmlns:xlink="http://www.w3.org/1999/xlink">
<g id="graph0" class="graph" transform="scale(1 1) rotate(0) translate(4 138)">
<title>RtcmEncoder::encodeSsrPhase</title>
<polygon fill="white" stroke="transparent" points="-4,4 -4,-138 481,-138 481,4 -4,4"/>
<!-- Node1 -->
<g id="node1" class="node">
<title>Node1</title>
<g id="a_node1"><a xlink:title="encode phase bias messages">
<polygon fill="#bfbfbf" stroke="black" points="0,-57.5 0,-76.5 167,-76.5 167,-57.5 0,-57.5"/>
<text text-anchor="middle" x="83.5" y="-64.5" font-family="Helvetica,sans-Serif" font-size="10.00">RtcmEncoder::encodeSsrPhase</text>
</a>
</g>
</g>
<!-- Node2 -->
<g id="node2" class="node">
<title>Node2</title>
<g id="a_node2"><a xlink:href="structRtcmEncoder.html#a0faafc925ae0857559dd9a911cc3b90d" target="_top" xlink:title="encode SSR header information">
<polygon fill="white" stroke="black" points="203,-114.5 203,-133.5 376,-133.5 376,-114.5 203,-114.5"/>
<text text-anchor="middle" x="289.5" y="-121.5" font-family="Helvetica,sans-Serif" font-size="10.00">RtcmEncoder::encodeSsrHeader</text>
</a>
</g>
</g>
<!-- Node1&#45;&gt;Node2 -->
<g id="edge1" class="edge">
<title>Node1&#45;&gt;Node2</title>
<path fill="none" stroke="midnightblue" d="M118.65,-76.54C153.21,-86.2 206.81,-101.18 244.54,-111.72"/>
<polygon fill="midnightblue" stroke="midnightblue" points="243.67,-115.11 254.24,-114.43 245.55,-108.37 243.67,-115.11"/>
</g>
<!-- Node3 -->
<g id="node3" class="node">
<title>Node3</title>
<g id="a_node3"><a xlink:href="rtcmEncoder_8cpp.html#af0d5eab5e18729b5d6b67194e94979a0" target="_top" xlink:title="increasingly set unsigned bits to byte data">
<polygon fill="white" stroke="red" points="412,-95.5 412,-114.5 477,-114.5 477,-95.5 412,-95.5"/>
<text text-anchor="middle" x="444.5" y="-102.5" font-family="Helvetica,sans-Serif" font-size="10.00">setbituInc</text>
</a>
</g>
</g>
<!-- Node1&#45;&gt;Node3 -->
<g id="edge3" class="edge">
<title>Node1&#45;&gt;Node3</title>
<path fill="none" stroke="midnightblue" d="M167.31,-75.77C240.61,-83.52 344.57,-94.53 401.76,-100.58"/>
<polygon fill="midnightblue" stroke="midnightblue" points="401.56,-104.08 411.87,-101.65 402.3,-97.12 401.56,-104.08"/>
</g>
<!-- Node5 -->
<g id="node4" class="node">
<title>Node5</title>
<g id="a_node4"><a xlink:href="rtcmEncoder_8cpp.html#a831abe42902c0ceadba66974c93a637b" target="_top" xlink:title="increasingly set signed bits to byte data">
<polygon fill="white" stroke="red" points="257.5,-38.5 257.5,-57.5 321.5,-57.5 321.5,-38.5 257.5,-38.5"/>
<text text-anchor="middle" x="289.5" y="-45.5" font-family="Helvetica,sans-Serif" font-size="10.00">setbitsInc</text>
</a>
</g>
</g>
<!-- Node1&#45;&gt;Node5 -->
<g id="edge4" class="edge">
<title>Node1&#45;&gt;Node5</title>
<path fill="none" stroke="midnightblue" d="M167.18,-59.3C194.76,-56.73 224.3,-53.98 247.33,-51.83"/>
<polygon fill="midnightblue" stroke="midnightblue" points="247.79,-55.31 257.42,-50.89 247.14,-48.34 247.79,-55.31"/>
</g>
<!-- Node7 -->
<g id="node5" class="node">
<title>Node7</title>
<g id="a_node5"><a xlink:href="structRtcmTrace.html#ab176960d2a094f050f187909b777d677" target="_top" xlink:title=" ">
<polygon fill="white" stroke="red" points="210.5,-0.5 210.5,-19.5 368.5,-19.5 368.5,-0.5 210.5,-0.5"/>
<text text-anchor="middle" x="289.5" y="-7.5" font-family="Helvetica,sans-Serif" font-size="10.00">RtcmTrace::traceSsrPhasBias</text>
</a>
</g>
</g>
<!-- Node1&#45;&gt;Node7 -->
<g id="edge5" class="edge">
<title>Node1&#45;&gt;Node7</title>
<path fill="none" stroke="midnightblue" d="M112.06,-57.37C135.94,-49.22 171.51,-37.53 203,-29 212.26,-26.49 222.15,-24.07 231.79,-21.84"/>
<polygon fill="midnightblue" stroke="midnightblue" points="232.74,-25.21 241.72,-19.58 231.19,-18.38 232.74,-25.21"/>
</g>
<!-- Node2&#45;&gt;Node3 -->
<g id="edge2" class="edge">
<title>Node2&#45;&gt;Node3</title>
<path fill="none" stroke="midnightblue" d="M367.45,-114.44C379.17,-112.99 390.87,-111.54 401.47,-110.22"/>
<polygon fill="midnightblue" stroke="midnightblue" points="402.15,-113.66 411.65,-108.96 401.29,-106.71 402.15,-113.66"/>
</g>
</g>
</svg>
