<?xml version="1.0" encoding="UTF-8" standalone="no"?>
<!DOCTYPE svg PUBLIC "-//W3C//DTD SVG 1.1//EN"
 "http://www.w3.org/Graphics/SVG/1.1/DTD/svg11.dtd">
<!-- Generated by graphviz version 2.43.0 (0)
 -->
<!-- Title: SatSys::sysChar Pages: 1 -->
<svg width="282pt" height="598pt"
 viewBox="0.00 0.00 282.00 598.00" xmlns="http://www.w3.org/2000/svg" xmlns:xlink="http://www.w3.org/1999/xlink">
<g id="graph0" class="graph" transform="scale(1 1) rotate(0) translate(4 594)">
<title>SatSys::sysChar</title>
<polygon fill="white" stroke="transparent" points="-4,4 -4,-594 278,-594 278,4 -4,4"/>
<!-- Node1 -->
<g id="node1" class="node">
<title>Node1</title>
<g id="a_node1"><a xlink:title="Returns the character used as a prefix for this system.">
<polygon fill="#bfbfbf" stroke="black" points="179,-285.5 179,-304.5 274,-304.5 274,-285.5 179,-285.5"/>
<text text-anchor="middle" x="226.5" y="-292.5" font-family="Helvetica,sans-Serif" font-size="10.00">SatSys::sysChar</text>
</a>
</g>
</g>
<!-- Node2 -->
<g id="node2" class="node">
<title>Node2</title>
<g id="a_node2"><a xlink:href="structSatSys.html#adbdf98ba1ef1f22b6aaed93916529513" target="_top" xlink:title=" ">
<polygon fill="white" stroke="red" points="31.5,-570.5 31.5,-589.5 111.5,-589.5 111.5,-570.5 31.5,-570.5"/>
<text text-anchor="middle" x="71.5" y="-577.5" font-family="Helvetica,sans-Serif" font-size="10.00">SatSys::getId</text>
</a>
</g>
</g>
<!-- Node1&#45;&gt;Node2 -->
<g id="edge1" class="edge">
<title>Node1&#45;&gt;Node2</title>
<path fill="none" stroke="midnightblue" d="M225.47,-314.9C224.26,-364.12 214.09,-492.53 143,-561 134.51,-569.18 122.88,-573.92 111.52,-576.65"/>
<polygon fill="midnightblue" stroke="midnightblue" points="228.97,-314.71 225.61,-304.66 221.97,-314.61 228.97,-314.71"/>
</g>
<!-- Node184 -->
<g id="node3" class="node">
<title>Node184</title>
<g id="a_node3"><a xlink:href="prototypeCmpSSRDecode_8cpp.html#af39acd0cd837f894466dca4e7b5ed7f7" target="_top" xlink:title=" ">
<polygon fill="white" stroke="red" points="28.5,-532.5 28.5,-551.5 114.5,-551.5 114.5,-532.5 28.5,-532.5"/>
<text text-anchor="middle" x="71.5" y="-539.5" font-family="Helvetica,sans-Serif" font-size="10.00">copySSRBlock</text>
</a>
</g>
</g>
<!-- Node1&#45;&gt;Node184 -->
<g id="edge2" class="edge">
<title>Node1&#45;&gt;Node184</title>
<path fill="none" stroke="midnightblue" d="M224.26,-315.03C220.41,-359.31 204.86,-466.13 143,-523 135.16,-530.21 124.88,-534.73 114.59,-537.55"/>
<polygon fill="midnightblue" stroke="midnightblue" points="227.76,-315.19 225.02,-304.96 220.78,-314.67 227.76,-315.19"/>
</g>
<!-- Node127 -->
<g id="node4" class="node">
<title>Node127</title>
<g id="a_node4"><a xlink:href="rinexNavWrite_8cpp.html#a1f47486483dce4060d409ab0a0e43698" target="_top" xlink:title=" ">
<polygon fill="white" stroke="red" points="14,-494.5 14,-513.5 129,-513.5 129,-494.5 14,-494.5"/>
<text text-anchor="middle" x="71.5" y="-501.5" font-family="Helvetica,sans-Serif" font-size="10.00">outputNavRinexSTO</text>
</a>
</g>
</g>
<!-- Node1&#45;&gt;Node127 -->
<g id="edge3" class="edge">
<title>Node1&#45;&gt;Node127</title>
<path fill="none" stroke="midnightblue" d="M222.7,-314.55C216.12,-353.12 196.02,-439.23 143,-485 138.49,-488.89 133.26,-492 127.73,-494.47"/>
<polygon fill="midnightblue" stroke="midnightblue" points="226.17,-315.03 224.27,-304.6 219.25,-313.93 226.17,-315.03"/>
</g>
<!-- Node168 -->
<g id="node5" class="node">
<title>Node168</title>
<g id="a_node5"><a xlink:href="ephPrecise_8cpp.html#af673ac04c3dea7304383eb4ef76318ba" target="_top" xlink:title="read dcb parameters file">
<polygon fill="white" stroke="red" points="43.5,-456.5 43.5,-475.5 99.5,-475.5 99.5,-456.5 43.5,-456.5"/>
<text text-anchor="middle" x="71.5" y="-463.5" font-family="Helvetica,sans-Serif" font-size="10.00">readdcb</text>
</a>
</g>
</g>
<!-- Node1&#45;&gt;Node168 -->
<g id="edge4" class="edge">
<title>Node1&#45;&gt;Node168</title>
<path fill="none" stroke="midnightblue" d="M220.47,-314.19C210.97,-346.6 187.25,-412.06 143,-447 130.66,-456.74 113.74,-461.5 99.56,-463.82"/>
<polygon fill="midnightblue" stroke="midnightblue" points="223.84,-315.13 223.16,-304.56 217.1,-313.25 223.84,-315.13"/>
</g>
<!-- Node118 -->
<g id="node6" class="node">
<title>Node118</title>
<g id="a_node6"><a xlink:href="biasSINEXwrite_8cpp.html#adcabd7eefaca5c01cf305a80294e57a7" target="_top" xlink:title="print bias SINEX data line">
<polygon fill="white" stroke="red" points="22.5,-418.5 22.5,-437.5 120.5,-437.5 120.5,-418.5 22.5,-418.5"/>
<text text-anchor="middle" x="71.5" y="-425.5" font-family="Helvetica,sans-Serif" font-size="10.00">writeBSINEXLine</text>
</a>
</g>
</g>
<!-- Node1&#45;&gt;Node118 -->
<g id="edge5" class="edge">
<title>Node1&#45;&gt;Node118</title>
<path fill="none" stroke="midnightblue" d="M216.88,-314C204.31,-339.52 178.53,-384.5 143,-409 136.32,-413.61 128.58,-417.1 120.71,-419.74"/>
<polygon fill="midnightblue" stroke="midnightblue" points="220.18,-315.2 221.31,-304.66 213.86,-312.2 220.18,-315.2"/>
</g>
<!-- Node15 -->
<g id="node7" class="node">
<title>Node15</title>
<g id="a_node7"><a xlink:href="structRtcmDecoder.html#adae4ba7ddd9f744631b806a5d550fe39" target="_top" xlink:title="decode RTCM SSR messages">
<polygon fill="white" stroke="red" points="0,-380.5 0,-399.5 143,-399.5 143,-380.5 0,-380.5"/>
<text text-anchor="middle" x="71.5" y="-387.5" font-family="Helvetica,sans-Serif" font-size="10.00">RtcmDecoder::decodeSSR</text>
</a>
</g>
</g>
<!-- Node1&#45;&gt;Node15 -->
<g id="edge6" class="edge">
<title>Node1&#45;&gt;Node15</title>
<path fill="none" stroke="midnightblue" d="M211.11,-312.47C195.91,-329.8 170.41,-355.89 143,-371 136.01,-374.86 128.19,-377.96 120.37,-380.46"/>
<polygon fill="midnightblue" stroke="midnightblue" points="213.87,-314.63 217.7,-304.76 208.54,-310.09 213.87,-314.63"/>
</g>
<!-- Node56 -->
<g id="node8" class="node">
<title>Node56</title>
<g id="a_node8"><a xlink:href="biasSINEXread_8cpp.html#a050f11d61007e2da4c08bd8fb459330c" target="_top" xlink:title="Read data line in bias SINEX file.">
<polygon fill="white" stroke="red" points="13.5,-342.5 13.5,-361.5 129.5,-361.5 129.5,-342.5 13.5,-342.5"/>
<text text-anchor="middle" x="71.5" y="-349.5" font-family="Helvetica,sans-Serif" font-size="10.00">read_biasSINEX_line</text>
</a>
</g>
</g>
<!-- Node1&#45;&gt;Node56 -->
<g id="edge7" class="edge">
<title>Node1&#45;&gt;Node56</title>
<path fill="none" stroke="midnightblue" d="M198,-309.08C182.19,-316.82 161.79,-326.2 143,-333 133.35,-336.5 122.74,-339.68 112.76,-342.4"/>
<polygon fill="midnightblue" stroke="midnightblue" points="199.8,-312.1 207.2,-304.51 196.69,-305.83 199.8,-312.1"/>
</g>
<!-- Node51 -->
<g id="node9" class="node">
<title>Node51</title>
<g id="a_node9"><a xlink:href="rinexNavWrite_8cpp.html#aa67df0b1827f3ff1c4da263aed385531" target="_top" xlink:title=" ">
<polygon fill="white" stroke="red" points="15,-304.5 15,-323.5 128,-323.5 128,-304.5 15,-304.5"/>
<text text-anchor="middle" x="71.5" y="-311.5" font-family="Helvetica,sans-Serif" font-size="10.00">outputNavRinexION</text>
</a>
</g>
</g>
<!-- Node1&#45;&gt;Node51 -->
<g id="edge8" class="edge">
<title>Node1&#45;&gt;Node51</title>
<path fill="none" stroke="midnightblue" d="M168.79,-302.04C155.5,-303.69 141.34,-305.45 128.09,-307.1"/>
<polygon fill="midnightblue" stroke="midnightblue" points="169.27,-305.51 178.76,-300.8 168.41,-298.56 169.27,-305.51"/>
</g>
<!-- Node84 -->
<g id="node10" class="node">
<title>Node84</title>
<g id="a_node10"><a xlink:href="rinexNavWrite_8cpp.html#a44ce18e58314bf68508dc220c1e807cc" target="_top" xlink:title=" ">
<polygon fill="white" stroke="red" points="14,-266.5 14,-285.5 129,-285.5 129,-266.5 14,-266.5"/>
<text text-anchor="middle" x="71.5" y="-273.5" font-family="Helvetica,sans-Serif" font-size="10.00">outputNavRinexEOP</text>
</a>
</g>
</g>
<!-- Node1&#45;&gt;Node84 -->
<g id="edge9" class="edge">
<title>Node1&#45;&gt;Node84</title>
<path fill="none" stroke="midnightblue" d="M168.63,-287.94C155.75,-286.34 142.07,-284.64 129.19,-283.04"/>
<polygon fill="midnightblue" stroke="midnightblue" points="168.41,-291.44 178.76,-289.2 169.27,-284.49 168.41,-291.44"/>
</g>
<!-- Node134 -->
<g id="node11" class="node">
<title>Node134</title>
<g id="a_node11"><a xlink:href="biases_8cpp.html#a063ba8fe35a80404ea27345b60592828" target="_top" xlink:title="Convert GAL BGDs into OSBs &amp; DSB.">
<polygon fill="white" stroke="red" points="13.5,-228.5 13.5,-247.5 129.5,-247.5 129.5,-228.5 13.5,-228.5"/>
<text text-anchor="middle" x="71.5" y="-235.5" font-family="Helvetica,sans-Serif" font-size="10.00">decomposeBGDBias</text>
</a>
</g>
</g>
<!-- Node1&#45;&gt;Node134 -->
<g id="edge10" class="edge">
<title>Node1&#45;&gt;Node134</title>
<path fill="none" stroke="midnightblue" d="M198,-280.92C182.19,-273.18 161.79,-263.8 143,-257 133.35,-253.5 122.74,-250.32 112.76,-247.6"/>
<polygon fill="midnightblue" stroke="midnightblue" points="196.69,-284.17 207.2,-285.49 199.8,-277.9 196.69,-284.17"/>
</g>
<!-- Node121 -->
<g id="node12" class="node">
<title>Node121</title>
<g id="a_node12"><a xlink:href="biases_8cpp.html#a4189b53abc056c39f46bd56d0032b546" target="_top" xlink:title="Convert GPS/QZS TGD into OSBs &amp; DSB.">
<polygon fill="white" stroke="red" points="14,-190.5 14,-209.5 129,-209.5 129,-190.5 14,-190.5"/>
<text text-anchor="middle" x="71.5" y="-197.5" font-family="Helvetica,sans-Serif" font-size="10.00">decomposeTGDBias</text>
</a>
</g>
</g>
<!-- Node1&#45;&gt;Node121 -->
<g id="edge11" class="edge">
<title>Node1&#45;&gt;Node121</title>
<path fill="none" stroke="midnightblue" d="M211.11,-277.53C195.91,-260.2 170.41,-234.11 143,-219 136.01,-215.14 128.19,-212.04 120.37,-209.54"/>
<polygon fill="midnightblue" stroke="midnightblue" points="208.54,-279.91 217.7,-285.24 213.87,-275.37 208.54,-279.91"/>
</g>
<!-- Node197 -->
<g id="node13" class="node">
<title>Node197</title>
<g id="a_node13"><a xlink:href="rinexClkWrite_8cpp.html#a87a652e05ec91c35c1e56c0650176dfa" target="_top" xlink:title=" ">
<polygon fill="white" stroke="red" points="5,-152.5 5,-171.5 138,-171.5 138,-152.5 5,-152.5"/>
<text text-anchor="middle" x="71.5" y="-159.5" font-family="Helvetica,sans-Serif" font-size="10.00">getSysOutputFilenames</text>
</a>
</g>
</g>
<!-- Node1&#45;&gt;Node197 -->
<g id="edge12" class="edge">
<title>Node1&#45;&gt;Node197</title>
<path fill="none" stroke="midnightblue" d="M216.88,-276C204.31,-250.48 178.53,-205.5 143,-181 137.37,-177.11 130.97,-174.02 124.39,-171.56"/>
<polygon fill="midnightblue" stroke="midnightblue" points="213.86,-277.8 221.31,-285.34 220.18,-274.8 213.86,-277.8"/>
</g>
<!-- Node128 -->
<g id="node14" class="node">
<title>Node128</title>
<g id="a_node14"><a xlink:href="biases_8cpp.html#a6f49cb0a55e482e3d3defdb6ab521563" target="_top" xlink:title="Search for hardware biases in phase and code.">
<polygon fill="white" stroke="red" points="45,-114.5 45,-133.5 98,-133.5 98,-114.5 45,-114.5"/>
<text text-anchor="middle" x="71.5" y="-121.5" font-family="Helvetica,sans-Serif" font-size="10.00">getBias</text>
</a>
</g>
</g>
<!-- Node1&#45;&gt;Node128 -->
<g id="edge13" class="edge">
<title>Node1&#45;&gt;Node128</title>
<path fill="none" stroke="midnightblue" d="M220.47,-275.81C210.97,-243.4 187.25,-177.94 143,-143 130.27,-132.94 112.64,-128.19 98.2,-125.96"/>
<polygon fill="midnightblue" stroke="midnightblue" points="217.1,-276.75 223.16,-285.44 223.84,-274.87 217.1,-276.75"/>
</g>
<!-- Node135 -->
<g id="node15" class="node">
<title>Node135</title>
<g id="a_node15"><a xlink:href="biases_8cpp.html#ae6acf19f1e0065f87d0be3fc7cd8bc66" target="_top" xlink:title=" ">
<polygon fill="white" stroke="red" points="24,-76.5 24,-95.5 119,-95.5 119,-76.5 24,-76.5"/>
<text text-anchor="middle" x="71.5" y="-83.5" font-family="Helvetica,sans-Serif" font-size="10.00">loadStateBiases</text>
</a>
</g>
</g>
<!-- Node1&#45;&gt;Node135 -->
<g id="edge14" class="edge">
<title>Node1&#45;&gt;Node135</title>
<path fill="none" stroke="midnightblue" d="M222.7,-275.45C216.12,-236.88 196.02,-150.77 143,-105 136.19,-99.12 127.73,-95.04 119.07,-92.21"/>
<polygon fill="midnightblue" stroke="midnightblue" points="219.25,-276.07 224.27,-285.4 226.17,-274.97 219.25,-276.07"/>
</g>
<!-- Node169 -->
<g id="node16" class="node">
<title>Node169</title>
<g id="a_node16"><a xlink:href="ionex_8cpp.html#ad8d9b28daf532c13a9a7e71912cae79f" target="_top" xlink:title="read ionex dcb aux data">
<polygon fill="white" stroke="red" points="30,-38.5 30,-57.5 113,-57.5 113,-38.5 30,-38.5"/>
<text text-anchor="middle" x="71.5" y="-45.5" font-family="Helvetica,sans-Serif" font-size="10.00">readionexdcb</text>
</a>
</g>
</g>
<!-- Node1&#45;&gt;Node169 -->
<g id="edge15" class="edge">
<title>Node1&#45;&gt;Node169</title>
<path fill="none" stroke="midnightblue" d="M224.26,-274.97C220.41,-230.69 204.86,-123.87 143,-67 134.79,-59.45 123.89,-54.85 113.13,-52.05"/>
<polygon fill="midnightblue" stroke="midnightblue" points="220.78,-275.33 225.02,-285.04 227.76,-274.81 220.78,-275.33"/>
</g>
<!-- Node200 -->
<g id="node17" class="node">
<title>Node200</title>
<g id="a_node17"><a xlink:href="structSatSys.html#a60ae5bbbceb1c203cab6a6bc0d8e12df" target="_top" xlink:title=" ">
<polygon fill="white" stroke="red" points="12,-0.5 12,-19.5 131,-19.5 131,-0.5 12,-0.5"/>
<text text-anchor="middle" x="71.5" y="-7.5" font-family="Helvetica,sans-Serif" font-size="10.00">SatSys::sysFromChar</text>
</a>
</g>
</g>
<!-- Node1&#45;&gt;Node200 -->
<g id="edge16" class="edge">
<title>Node1&#45;&gt;Node200</title>
<path fill="none" stroke="midnightblue" d="M225.47,-275.1C224.26,-225.88 214.09,-97.47 143,-29 138.98,-25.13 134.26,-22.03 129.2,-19.55"/>
<polygon fill="midnightblue" stroke="midnightblue" points="221.97,-275.39 225.61,-285.34 228.97,-275.29 221.97,-275.39"/>
</g>
</g>
</svg>
