<?xml version="1.0" encoding="UTF-8" standalone="no"?>
<!DOCTYPE svg PUBLIC "-//W3C//DTD SVG 1.1//EN"
 "http://www.w3.org/Graphics/SVG/1.1/DTD/svg11.dtd">
<!-- Generated by graphviz version 2.43.0 (0)
 -->
<!-- Title: DebugOptions Pages: 1 -->
<svg width="176pt" height="259pt"
 viewBox="0.00 0.00 175.50 259.00" xmlns="http://www.w3.org/2000/svg" xmlns:xlink="http://www.w3.org/1999/xlink">
<g id="graph0" class="graph" transform="scale(1 1) rotate(0) translate(4 255)">
<title>DebugOptions</title>
<polygon fill="white" stroke="transparent" points="-4,4 -4,-255 171.5,-255 171.5,4 -4,4"/>
<!-- Node1 -->
<g id="node1" class="node">
<title>Node1</title>
<g id="a_node1"><a xlink:title="Options to be used only for debugging new features.">
<polygon fill="#bfbfbf" stroke="black" points="0,-0.5 0,-145.5 143,-145.5 143,-0.5 0,-0.5"/>
<text text-anchor="middle" x="71.5" y="-133.5" font-family="Helvetica,sans-Serif" font-size="10.00">DebugOptions</text>
<polyline fill="none" stroke="black" points="0,-126.5 143,-126.5 "/>
<text text-anchor="start" x="8" y="-114.5" font-family="Helvetica,sans-Serif" font-size="10.00">+ mincon_only</text>
<text text-anchor="start" x="8" y="-103.5" font-family="Helvetica,sans-Serif" font-size="10.00">+ output_mincon</text>
<text text-anchor="start" x="8" y="-92.5" font-family="Helvetica,sans-Serif" font-size="10.00">+ check_plumbing</text>
<text text-anchor="start" x="8" y="-81.5" font-family="Helvetica,sans-Serif" font-size="10.00">+ retain_rts_files</text>
<text text-anchor="start" x="8" y="-70.5" font-family="Helvetica,sans-Serif" font-size="10.00">+ rts_only</text>
<text text-anchor="start" x="8" y="-59.5" font-family="Helvetica,sans-Serif" font-size="10.00">+ explain_measurements</text>
<text text-anchor="start" x="8" y="-48.5" font-family="Helvetica,sans-Serif" font-size="10.00">+ compare_orbits</text>
<text text-anchor="start" x="8" y="-37.5" font-family="Helvetica,sans-Serif" font-size="10.00">+ compare_clocks</text>
<text text-anchor="start" x="8" y="-26.5" font-family="Helvetica,sans-Serif" font-size="10.00">+ compare_attitudes</text>
<polyline fill="none" stroke="black" points="0,-19.5 143,-19.5 "/>
<text text-anchor="middle" x="71.5" y="-7.5" font-family="Helvetica,sans-Serif" font-size="10.00"> </text>
</a>
</g>
</g>
<!-- Node2 -->
<g id="node2" class="node">
<title>Node2</title>
<g id="a_node2"><a xlink:title=" ">
<polygon fill="white" stroke="black" points="49.5,-193.5 49.5,-250.5 93.5,-250.5 93.5,-193.5 49.5,-193.5"/>
<text text-anchor="middle" x="71.5" y="-238.5" font-family="Helvetica,sans-Serif" font-size="10.00">string</text>
<polyline fill="none" stroke="black" points="49.5,-231.5 93.5,-231.5 "/>
<text text-anchor="middle" x="71.5" y="-219.5" font-family="Helvetica,sans-Serif" font-size="10.00"> </text>
<polyline fill="none" stroke="black" points="49.5,-212.5 93.5,-212.5 "/>
<text text-anchor="middle" x="71.5" y="-200.5" font-family="Helvetica,sans-Serif" font-size="10.00"> </text>
</a>
</g>
</g>
<!-- Node2&#45;&gt;Node1 -->
<g id="edge1" class="edge">
<title>Node2&#45;&gt;Node1</title>
<path fill="none" stroke="#404040" d="M71.5,-193.35C71.5,-183.01 71.5,-170.66 71.5,-157.89"/>
<polygon fill="none" stroke="#404040" points="71.5,-157.56 67.5,-151.56 71.5,-145.56 75.5,-151.56 71.5,-157.56"/>
<text text-anchor="middle" x="119.5" y="-167" font-family="Helvetica,sans-Serif" font-size="10.00"> +mincon_filename</text>
</g>
</g>
</svg>
