<?xml version="1.0" encoding="UTF-8" standalone="no"?>
<!DOCTYPE svg PUBLIC "-//W3C//DTD SVG 1.1//EN"
 "http://www.w3.org/Graphics/SVG/1.1/DTD/svg11.dtd">
<!-- Generated by graphviz version 2.43.0 (0)
 -->
<!-- Title: KFState::removeState Pages: 1 -->
<svg width="343pt" height="370pt"
 viewBox="0.00 0.00 343.00 370.00" xmlns="http://www.w3.org/2000/svg" xmlns:xlink="http://www.w3.org/1999/xlink">
<g id="graph0" class="graph" transform="scale(1 1) rotate(0) translate(4 366)">
<title>KFState::removeState</title>
<polygon fill="white" stroke="transparent" points="-4,4 -4,-366 339,-366 339,4 -4,4"/>
<!-- Node1 -->
<g id="node1" class="node">
<title>Node1</title>
<g id="a_node1"><a xlink:title="Remove a state from a kalman filter object.">
<polygon fill="#bfbfbf" stroke="black" points="211,-171.5 211,-190.5 335,-190.5 335,-171.5 211,-171.5"/>
<text text-anchor="middle" x="273" y="-178.5" font-family="Helvetica,sans-Serif" font-size="10.00">KFState::removeState</text>
</a>
</g>
</g>
<!-- Node2 -->
<g id="node2" class="node">
<title>Node2</title>
<g id="a_node2"><a xlink:href="GinARWLamb_8cpp.html#aa11b4c1b41a5e7ed3aec7faca15cad1e" target="_top" xlink:title="Remove ambiguity states from filter when they are not measured for an epoch.">
<polygon fill="white" stroke="red" points="0,-342.5 0,-361.5 175,-361.5 175,-342.5 0,-342.5"/>
<text text-anchor="middle" x="87.5" y="-349.5" font-family="Helvetica,sans-Serif" font-size="10.00">removeUnmeasuredAmbiguities</text>
</a>
</g>
</g>
<!-- Node1&#45;&gt;Node2 -->
<g id="edge1" class="edge">
<title>Node1&#45;&gt;Node2</title>
<path fill="none" stroke="midnightblue" d="M268.82,-190.7C259.35,-217.94 228.65,-295.55 175,-333 169.45,-336.87 163.26,-339.98 156.8,-342.46"/>
</g>
<!-- Node9 -->
<g id="node3" class="node">
<title>Node9</title>
<g id="a_node3"><a xlink:href="GinARWLamb_8cpp.html#ab95d4f2ff0f6e0d2b92d4d4d14f7f787" target="_top" xlink:title="Update WL filter.">
<polygon fill="white" stroke="red" points="48.5,-304.5 48.5,-323.5 126.5,-323.5 126.5,-304.5 48.5,-304.5"/>
<text text-anchor="middle" x="87.5" y="-311.5" font-family="Helvetica,sans-Serif" font-size="10.00">updat_WLfilt</text>
</a>
</g>
</g>
<!-- Node1&#45;&gt;Node9 -->
<g id="edge2" class="edge">
<title>Node1&#45;&gt;Node9</title>
<path fill="none" stroke="midnightblue" d="M266.69,-190.8C254.04,-213.16 219.77,-268.1 175,-295 160.5,-303.71 142.49,-308.44 126.67,-311.01"/>
</g>
<!-- Node13 -->
<g id="node4" class="node">
<title>Node13</title>
<g id="a_node4"><a xlink:href="GinARWLamb_8cpp.html#a860a609b53dc98b39334196fb6e0183e" target="_top" xlink:title="Remove ambiguities and biases for satellites, network.">
<polygon fill="white" stroke="red" points="43,-266.5 43,-285.5 132,-285.5 132,-266.5 43,-266.5"/>
<text text-anchor="middle" x="87.5" y="-273.5" font-family="Helvetica,sans-Serif" font-size="10.00">remov_WLsate</text>
</a>
</g>
</g>
<!-- Node1&#45;&gt;Node13 -->
<g id="edge3" class="edge">
<title>Node1&#45;&gt;Node13</title>
<path fill="none" stroke="midnightblue" d="M262.8,-190.61C246.64,-206.9 211.38,-239.85 175,-257 161.79,-263.23 146.47,-267.45 132.43,-270.3"/>
</g>
<!-- Node18 -->
<g id="node5" class="node">
<title>Node18</title>
<g id="a_node5"><a xlink:href="GinARWLamb_8cpp.html#a9b4b3f98983e846523263881d690dfaf" target="_top" xlink:title="Remove ambiguities and biases for receivers, network.">
<polygon fill="white" stroke="red" points="43,-228.5 43,-247.5 132,-247.5 132,-228.5 43,-228.5"/>
<text text-anchor="middle" x="87.5" y="-235.5" font-family="Helvetica,sans-Serif" font-size="10.00">remov_WLrecv</text>
</a>
</g>
</g>
<!-- Node1&#45;&gt;Node18 -->
<g id="edge4" class="edge">
<title>Node1&#45;&gt;Node18</title>
<path fill="none" stroke="midnightblue" d="M250.39,-190.6C230.95,-198.96 201.48,-210.96 175,-219 161.32,-223.15 146.16,-226.8 132.41,-229.75"/>
</g>
<!-- Node20 -->
<g id="node6" class="node">
<title>Node20</title>
<g id="a_node6"><a xlink:href="walkthrough_8cpp.html#aff7ddc151473d418c066b30f06e6b42e" target="_top" xlink:title=" ">
<polygon fill="white" stroke="red" points="46,-190.5 46,-209.5 129,-209.5 129,-190.5 46,-190.5"/>
<text text-anchor="middle" x="87.5" y="-197.5" font-family="Helvetica,sans-Serif" font-size="10.00">walkthrough2</text>
</a>
</g>
</g>
<!-- Node1&#45;&gt;Node20 -->
<g id="edge5" class="edge">
<title>Node1&#45;&gt;Node20</title>
<path fill="none" stroke="midnightblue" d="M210.9,-187.33C184,-190.11 153.13,-193.31 129.12,-195.79"/>
</g>
<!-- Node23 -->
<g id="node7" class="node">
<title>Node23</title>
<g id="a_node7"><a xlink:href="networkEstimator_8cpp.html#a6f931c9f8705f676bf9484e521e15643" target="_top" xlink:title="Remove ambiguity states from filter when they deemed old or bad This effectively reinitialises them o...">
<polygon fill="white" stroke="red" points="22,-152.5 22,-171.5 153,-171.5 153,-152.5 22,-152.5"/>
<text text-anchor="middle" x="87.5" y="-159.5" font-family="Helvetica,sans-Serif" font-size="10.00">removeBadAmbiguities</text>
</a>
</g>
</g>
<!-- Node1&#45;&gt;Node23 -->
<g id="edge6" class="edge">
<title>Node1&#45;&gt;Node23</title>
<path fill="none" stroke="midnightblue" d="M210.9,-174.67C192.34,-172.75 171.89,-170.63 153.11,-168.69"/>
</g>
<!-- Node26 -->
<g id="node8" class="node">
<title>Node26</title>
<g id="a_node8"><a xlink:href="networkEstimator_8cpp.html#a3d11452be1ce2ea58117c7fd3ac9f981" target="_top" xlink:title="Remove ambiguity states from filter when they deemed old or bad This effectively reinitialises them o...">
<polygon fill="white" stroke="red" points="21.5,-114.5 21.5,-133.5 153.5,-133.5 153.5,-114.5 21.5,-114.5"/>
<text text-anchor="middle" x="87.5" y="-121.5" font-family="Helvetica,sans-Serif" font-size="10.00">removeBadIonospheres</text>
</a>
</g>
</g>
<!-- Node1&#45;&gt;Node26 -->
<g id="edge7" class="edge">
<title>Node1&#45;&gt;Node26</title>
<path fill="none" stroke="midnightblue" d="M250.39,-171.4C230.95,-163.04 201.48,-151.04 175,-143 163.23,-139.43 150.37,-136.23 138.25,-133.53"/>
</g>
<!-- Node27 -->
<g id="node9" class="node">
<title>Node27</title>
<g id="a_node9"><a xlink:href="ppp__callbacks_8cpp.html#ad44c63f6ba0b2504f7228c7190afe9ab" target="_top" xlink:title="Remove any states connected to a bad clock if it glitches.">
<polygon fill="white" stroke="red" points="31,-76.5 31,-95.5 144,-95.5 144,-76.5 31,-76.5"/>
<text text-anchor="middle" x="87.5" y="-83.5" font-family="Helvetica,sans-Serif" font-size="10.00">clockGlitchReaction</text>
</a>
</g>
</g>
<!-- Node1&#45;&gt;Node27 -->
<g id="edge8" class="edge">
<title>Node1&#45;&gt;Node27</title>
<path fill="none" stroke="midnightblue" d="M262.8,-171.39C246.64,-155.1 211.38,-122.15 175,-105 165.4,-100.48 154.7,-97.01 144.17,-94.36"/>
</g>
<!-- Node31 -->
<g id="node10" class="node">
<title>Node31</title>
<g id="a_node10"><a xlink:href="ppp__user_8cpp.html#a123a4552194f4fd53016c9609a867d17" target="_top" xlink:title=" ">
<polygon fill="white" stroke="red" points="51.5,-38.5 51.5,-57.5 123.5,-57.5 123.5,-38.5 51.5,-38.5"/>
<text text-anchor="middle" x="87.5" y="-45.5" font-family="Helvetica,sans-Serif" font-size="10.00">udbias_ppp</text>
</a>
</g>
</g>
<!-- Node1&#45;&gt;Node31 -->
<g id="edge9" class="edge">
<title>Node1&#45;&gt;Node31</title>
<path fill="none" stroke="midnightblue" d="M266.69,-171.2C254.04,-148.84 219.77,-93.9 175,-67 159.58,-57.74 140.19,-52.97 123.67,-50.53"/>
</g>
<!-- Node32 -->
<g id="node11" class="node">
<title>Node32</title>
<g id="a_node11"><a xlink:href="spp_8cpp.html#a11e0f5d1100b933e76538398082c31d8" target="_top" xlink:title=" ">
<polygon fill="white" stroke="red" points="14,-0.5 14,-19.5 161,-19.5 161,-0.5 14,-0.5"/>
<text text-anchor="middle" x="87.5" y="-7.5" font-family="Helvetica,sans-Serif" font-size="10.00">removeUnmeasuredStates</text>
</a>
</g>
</g>
<!-- Node1&#45;&gt;Node32 -->
<g id="edge10" class="edge">
<title>Node1&#45;&gt;Node32</title>
<path fill="none" stroke="midnightblue" d="M268.82,-171.3C259.35,-144.06 228.65,-66.45 175,-29 169.45,-25.13 163.26,-22.02 156.8,-19.54"/>
</g>
</g>
</svg>
