<?xml version="1.0" encoding="UTF-8" standalone="no"?>
<!DOCTYPE svg PUBLIC "-//W3C//DTD SVG 1.1//EN"
 "http://www.w3.org/Graphics/SVG/1.1/DTD/svg11.dtd">
<!-- Generated by graphviz version 2.43.0 (0)
 -->
<!-- Title: Cache&lt; TYPE &gt; Pages: 1 -->
<svg width="208pt" height="398pt"
 viewBox="0.00 0.00 207.50 398.00" xmlns="http://www.w3.org/2000/svg" xmlns:xlink="http://www.w3.org/1999/xlink">
<g id="graph0" class="graph" transform="scale(1 1) rotate(0) translate(4 394)">
<title>Cache&lt; TYPE &gt;</title>
<polygon fill="white" stroke="transparent" points="-4,4 -4,-394 203.5,-394 203.5,4 -4,4"/>
<!-- Node1 -->
<g id="node1" class="node">
<title>Node1</title>
<g id="a_node1"><a xlink:title=" ">
<polygon fill="#bfbfbf" stroke="black" points="35,-193.5 35,-294.5 128,-294.5 128,-193.5 35,-193.5"/>
<text text-anchor="middle" x="81.5" y="-282.5" font-family="Helvetica,sans-Serif" font-size="10.00">Cache&lt; TYPE &gt;</text>
<polyline fill="none" stroke="black" points="35,-275.5 128,-275.5 "/>
<text text-anchor="start" x="43" y="-263.5" font-family="Helvetica,sans-Serif" font-size="10.00">+ lambda</text>
<text text-anchor="start" x="43" y="-252.5" font-family="Helvetica,sans-Serif" font-size="10.00">+ output</text>
<text text-anchor="start" x="43" y="-241.5" font-family="Helvetica,sans-Serif" font-size="10.00">+ initialised</text>
<polyline fill="none" stroke="black" points="35,-234.5 128,-234.5 "/>
<text text-anchor="start" x="43" y="-222.5" font-family="Helvetica,sans-Serif" font-size="10.00">+ Cache()</text>
<text text-anchor="start" x="43" y="-211.5" font-family="Helvetica,sans-Serif" font-size="10.00">+ uninit()</text>
<text text-anchor="start" x="43" y="-200.5" font-family="Helvetica,sans-Serif" font-size="10.00">+ useCache()</text>
</a>
</g>
</g>
<!-- Node3 -->
<g id="node3" class="node">
<title>Node3</title>
<g id="a_node3"><a xlink:href="structCache.html" target="_top" xlink:title=" ">
<polygon fill="white" stroke="black" points="0,-0.5 0,-123.5 163,-123.5 163,-0.5 0,-0.5"/>
<text text-anchor="start" x="8" y="-111.5" font-family="Helvetica,sans-Serif" font-size="10.00">Cache&lt; tuple&lt; Vector3d,</text>
<text text-anchor="start" x="8" y="-100.5" font-family="Helvetica,sans-Serif" font-size="10.00"> Vector3d, Vector3d, Vector3d,</text>
<text text-anchor="middle" x="81.5" y="-89.5" font-family="Helvetica,sans-Serif" font-size="10.00"> Vector3d &gt; &gt;</text>
<polyline fill="none" stroke="black" points="0,-82.5 163,-82.5 "/>
<text text-anchor="start" x="8" y="-70.5" font-family="Helvetica,sans-Serif" font-size="10.00">+ lambda</text>
<text text-anchor="start" x="8" y="-59.5" font-family="Helvetica,sans-Serif" font-size="10.00">+ output</text>
<text text-anchor="start" x="8" y="-48.5" font-family="Helvetica,sans-Serif" font-size="10.00">+ initialised</text>
<polyline fill="none" stroke="black" points="0,-41.5 163,-41.5 "/>
<text text-anchor="start" x="8" y="-29.5" font-family="Helvetica,sans-Serif" font-size="10.00">+ Cache()</text>
<text text-anchor="start" x="8" y="-18.5" font-family="Helvetica,sans-Serif" font-size="10.00">+ uninit()</text>
<text text-anchor="start" x="8" y="-7.5" font-family="Helvetica,sans-Serif" font-size="10.00">+ useCache()</text>
</a>
</g>
</g>
<!-- Node1&#45;&gt;Node3 -->
<g id="edge2" class="edge">
<title>Node1&#45;&gt;Node3</title>
<path fill="none" stroke="orange" d="M81.5,-183.25C81.5,-164.11 81.5,-142.92 81.5,-123.72"/>
<polygon fill="orange" stroke="orange" points="78,-183.34 81.5,-193.34 85,-183.34 78,-183.34"/>
<text text-anchor="start" x="81.5" y="-167" font-family="Helvetica,sans-Serif" font-size="10.00"> &lt; tuple&lt; Vector3d,</text>
<text text-anchor="start" x="81.5" y="-156" font-family="Helvetica,sans-Serif" font-size="10.00"> Vector3d, Vector3d,</text>
<text text-anchor="middle" x="140.5" y="-145" font-family="Helvetica,sans-Serif" font-size="10.00"> Vector3d, Vector3d &gt; &gt;</text>
</g>
<!-- Node2 -->
<g id="node2" class="node">
<title>Node2</title>
<g id="a_node2"><a xlink:title=" ">
<polygon fill="white" stroke="black" points="61,-332.5 61,-389.5 102,-389.5 102,-332.5 61,-332.5"/>
<text text-anchor="middle" x="81.5" y="-377.5" font-family="Helvetica,sans-Serif" font-size="10.00">TYPE</text>
<polyline fill="none" stroke="black" points="61,-370.5 102,-370.5 "/>
<text text-anchor="middle" x="81.5" y="-358.5" font-family="Helvetica,sans-Serif" font-size="10.00"> </text>
<polyline fill="none" stroke="black" points="61,-351.5 102,-351.5 "/>
<text text-anchor="middle" x="81.5" y="-339.5" font-family="Helvetica,sans-Serif" font-size="10.00"> </text>
</a>
</g>
</g>
<!-- Node2&#45;&gt;Node1 -->
<g id="edge1" class="edge">
<title>Node2&#45;&gt;Node1</title>
<path fill="none" stroke="midnightblue" d="M81.5,-322.19C81.5,-313.43 81.5,-303.99 81.5,-294.81"/>
<polygon fill="none" stroke="midnightblue" points="78,-322.45 81.5,-332.45 85,-322.45 78,-322.45"/>
</g>
</g>
</svg>
