<?xml version="1.0" encoding="UTF-8" standalone="no"?>
<!DOCTYPE svg PUBLIC "-//W3C//DTD SVG 1.1//EN"
 "http://www.w3.org/Graphics/SVG/1.1/DTD/svg11.dtd">
<!-- Generated by graphviz version 2.43.0 (0)
 -->
<!-- Title: RtcmTrace Pages: 1 -->
<svg width="390pt" height="1211pt"
 viewBox="0.00 0.00 389.50 1211.00" xmlns="http://www.w3.org/2000/svg" xmlns:xlink="http://www.w3.org/1999/xlink">
<g id="graph0" class="graph" transform="scale(1 1) rotate(0) translate(4 1207)">
<title>RtcmTrace</title>
<!-- Node1 -->
<g id="Node000001" class="node">
<title>Node1</title>
<g id="a_Node000001"><a xlink:href="structRtcmTrace.html" target="_top" xlink:title=" ">
<path fill="white" stroke="#666666" stroke-width="2" d="M243,-1203C243,-1203 130,-1203 130,-1203 124,-1203 118,-1197 118,-1191 118,-1191 118,-843 118,-843 118,-837 124,-831 130,-831 130,-831 243,-831 243,-831 249,-831 255,-837 255,-843 255,-843 255,-1191 255,-1191 255,-1197 249,-1203 243,-1203"/>
<text text-anchor="start" x="161" y="-1187" font-family="Helvetica,sans-Serif" font-size="10.00">RtcmTrace</text>
<text text-anchor="start" x="130.5" y="-1172" font-family="Helvetica,sans-Serif" font-size="10.00">+</text>
<text text-anchor="start" x="143.5" y="-1172" font-family="Helvetica,sans-Serif" font-size="10.00">rtcmTraceFilename</text>
<text text-anchor="start" x="130.5" y="-1157" font-family="Helvetica,sans-Serif" font-size="10.00">+</text>
<text text-anchor="start" x="143.5" y="-1157" font-family="Helvetica,sans-Serif" font-size="10.00">rtcmTraceFile</text>
<text text-anchor="start" x="130.5" y="-1142" font-family="Helvetica,sans-Serif" font-size="10.00">+</text>
<text text-anchor="start" x="143.5" y="-1142" font-family="Helvetica,sans-Serif" font-size="10.00">rtcmMountpoint</text>
<text text-anchor="start" x="130.5" y="-1127" font-family="Helvetica,sans-Serif" font-size="10.00">+</text>
<text text-anchor="start" x="143.5" y="-1127" font-family="Helvetica,sans-Serif" font-size="10.00">qzssL6</text>
<text text-anchor="start" x="130.5" y="-1112" font-family="Helvetica,sans-Serif" font-size="10.00">+</text>
<text text-anchor="start" x="143.5" y="-1112" font-family="Helvetica,sans-Serif" font-size="10.00">RtcmTrace()</text>
<text text-anchor="start" x="130.5" y="-1097" font-family="Helvetica,sans-Serif" font-size="10.00">+</text>
<text text-anchor="start" x="143.5" y="-1097" font-family="Helvetica,sans-Serif" font-size="10.00">openTraceFile()</text>
<text text-anchor="start" x="130.5" y="-1082" font-family="Helvetica,sans-Serif" font-size="10.00">+</text>
<text text-anchor="start" x="143.5" y="-1082" font-family="Helvetica,sans-Serif" font-size="10.00">setTraceFilename()</text>
<text text-anchor="start" x="130.5" y="-1067" font-family="Helvetica,sans-Serif" font-size="10.00">+</text>
<text text-anchor="start" x="143.5" y="-1067" font-family="Helvetica,sans-Serif" font-size="10.00">~RtcmTrace()</text>
<text text-anchor="start" x="130.5" y="-1052" font-family="Helvetica,sans-Serif" font-size="10.00">+</text>
<text text-anchor="start" x="143.5" y="-1052" font-family="Helvetica,sans-Serif" font-size="10.00">flush()</text>
<text text-anchor="start" x="130.5" y="-1037" font-family="Helvetica,sans-Serif" font-size="10.00">+</text>
<text text-anchor="start" x="143.5" y="-1037" font-family="Helvetica,sans-Serif" font-size="10.00">networkLog()</text>
<text text-anchor="start" x="130.5" y="-1022" font-family="Helvetica,sans-Serif" font-size="10.00">+</text>
<text text-anchor="start" x="143.5" y="-1022" font-family="Helvetica,sans-Serif" font-size="10.00">messageChunkLog()</text>
<text text-anchor="start" x="130.5" y="-1007" font-family="Helvetica,sans-Serif" font-size="10.00">+</text>
<text text-anchor="start" x="143.5" y="-1007" font-family="Helvetica,sans-Serif" font-size="10.00">messageRtcmLog()</text>
<text text-anchor="start" x="130.5" y="-992" font-family="Helvetica,sans-Serif" font-size="10.00">+</text>
<text text-anchor="start" x="143.5" y="-992" font-family="Helvetica,sans-Serif" font-size="10.00">traceSsrEph()</text>
<text text-anchor="start" x="130.5" y="-977" font-family="Helvetica,sans-Serif" font-size="10.00">+</text>
<text text-anchor="start" x="143.5" y="-977" font-family="Helvetica,sans-Serif" font-size="10.00">traceSsrClk()</text>
<text text-anchor="start" x="130.5" y="-962" font-family="Helvetica,sans-Serif" font-size="10.00">+</text>
<text text-anchor="start" x="143.5" y="-962" font-family="Helvetica,sans-Serif" font-size="10.00">traceSsrUra()</text>
<text text-anchor="start" x="130.5" y="-947" font-family="Helvetica,sans-Serif" font-size="10.00">+</text>
<text text-anchor="start" x="143.5" y="-947" font-family="Helvetica,sans-Serif" font-size="10.00">traceSsrHRClk()</text>
<text text-anchor="start" x="130.5" y="-932" font-family="Helvetica,sans-Serif" font-size="10.00">+</text>
<text text-anchor="start" x="143.5" y="-932" font-family="Helvetica,sans-Serif" font-size="10.00">traceSsrCodeBias()</text>
<text text-anchor="start" x="130.5" y="-917" font-family="Helvetica,sans-Serif" font-size="10.00">+</text>
<text text-anchor="start" x="143.5" y="-917" font-family="Helvetica,sans-Serif" font-size="10.00">traceSsrPhasBias()</text>
<text text-anchor="start" x="130.5" y="-902" font-family="Helvetica,sans-Serif" font-size="10.00">+</text>
<text text-anchor="start" x="143.5" y="-902" font-family="Helvetica,sans-Serif" font-size="10.00">traceTimestamp()</text>
<text text-anchor="start" x="130.5" y="-887" font-family="Helvetica,sans-Serif" font-size="10.00">+</text>
<text text-anchor="start" x="143.5" y="-887" font-family="Helvetica,sans-Serif" font-size="10.00">traceBrdcEph()</text>
<text text-anchor="start" x="130.5" y="-872" font-family="Helvetica,sans-Serif" font-size="10.00">+</text>
<text text-anchor="start" x="143.5" y="-872" font-family="Helvetica,sans-Serif" font-size="10.00">traceBrdcEph()</text>
<text text-anchor="start" x="130.5" y="-857" font-family="Helvetica,sans-Serif" font-size="10.00">+</text>
<text text-anchor="start" x="143.5" y="-857" font-family="Helvetica,sans-Serif" font-size="10.00">traceMSM()</text>
<text text-anchor="start" x="130.5" y="-842" font-family="Helvetica,sans-Serif" font-size="10.00">+</text>
<text text-anchor="start" x="143.5" y="-842" font-family="Helvetica,sans-Serif" font-size="10.00">traceUnknown()</text>
<polygon fill="#666666" stroke="#666666" points="126.5,-1182 126.5,-1182 247.5,-1182 247.5,-1182 126.5,-1182"/>
<polygon fill="#666666" stroke="#666666" points="126.5,-1122 126.5,-1122 141.5,-1122 141.5,-1122 126.5,-1122"/>
<polygon fill="#666666" stroke="#666666" points="141.5,-1122 141.5,-1122 247.5,-1122 247.5,-1122 141.5,-1122"/>
<polygon fill="none" stroke="#666666" points="126,-835 126,-1199 247,-1199 247,-835 126,-835"/>
</a>
</g>
</g>
<!-- Node2 -->
<g id="Node000002" class="node">
<title>Node2</title>
<g id="a_Node000002"><a xlink:href="structRtcmDecoder.html" target="_top" xlink:title=" ">
<path fill="white" stroke="#666666" d="M161,-795C161,-795 12,-795 12,-795 6,-795 0,-789 0,-783 0,-783 0,-315 0,-315 0,-309 6,-303 12,-303 12,-303 161,-303 161,-303 167,-303 173,-309 173,-315 173,-315 173,-783 173,-783 173,-789 167,-795 161,-795"/>
<text text-anchor="start" x="53.5" y="-779" font-family="Helvetica,sans-Serif" font-size="10.00">RtcmDecoder</text>
<text text-anchor="start" x="12.5" y="-764" font-family="Helvetica,sans-Serif" font-size="10.00">+</text>
<text text-anchor="start" x="25.5" y="-764" font-family="Helvetica,sans-Serif" font-size="10.00">stationInfoMap</text>
<text text-anchor="start" x="12.5" y="-749" font-family="Helvetica,sans-Serif" font-size="10.00">+</text>
<text text-anchor="start" x="25.5" y="-749" font-family="Helvetica,sans-Serif" font-size="10.00">lastReferenceStationId</text>
<text text-anchor="start" x="12.5" y="-734" font-family="Helvetica,sans-Serif" font-size="10.00">+</text>
<text text-anchor="start" x="25.5" y="-734" font-family="Helvetica,sans-Serif" font-size="10.00">lastTimeStamp</text>
<text text-anchor="start" x="12.5" y="-719" font-family="Helvetica,sans-Serif" font-size="10.00">+</text>
<text text-anchor="start" x="25.5" y="-719" font-family="Helvetica,sans-Serif" font-size="10.00">receivedTime</text>
<text text-anchor="start" x="12.5" y="-704" font-family="Helvetica,sans-Serif" font-size="10.00">+</text>
<text text-anchor="start" x="25.5" y="-704" font-family="Helvetica,sans-Serif" font-size="10.00">superObsList</text>
<text text-anchor="start" x="12.5" y="-689" font-family="Helvetica,sans-Serif" font-size="10.00">+</text>
<text text-anchor="start" x="25.5" y="-689" font-family="Helvetica,sans-Serif" font-size="10.00">rtcmTimestampTime</text>
<text text-anchor="start" x="12.5" y="-674" font-family="Helvetica,sans-Serif" font-size="10.00">+</text>
<text text-anchor="start" x="25.5" y="-674" font-family="Helvetica,sans-Serif" font-size="10.00">rtcmWeek</text>
<text text-anchor="start" x="12.5" y="-659" font-family="Helvetica,sans-Serif" font-size="10.00">+</text>
<text text-anchor="start" x="25.5" y="-659" font-family="Helvetica,sans-Serif" font-size="10.00">recordFilename</text>
<text text-anchor="start" x="12.5" y="-644" font-family="Helvetica,sans-Serif" font-size="10.00">+</text>
<text text-anchor="start" x="25.5" y="-644" font-family="Helvetica,sans-Serif" font-size="10.00">recordFile</text>
<text text-anchor="start" x="12.5" y="-629" font-family="Helvetica,sans-Serif" font-size="10.00">+</text>
<text text-anchor="start" x="25.5" y="-629" font-family="Helvetica,sans-Serif" font-size="10.00">recordFileMutex</text>
<text text-anchor="start" x="12.5" y="-614" font-family="Helvetica,sans-Serif" font-size="10.00">+</text>
<text text-anchor="start" x="25.5" y="-614" font-family="Helvetica,sans-Serif" font-size="10.00">rtcmDeltaTime</text>
<text text-anchor="start" x="12.5" y="-599" font-family="Helvetica,sans-Serif" font-size="10.00">+</text>
<text text-anchor="start" x="25.5" y="-599" font-family="Helvetica,sans-Serif" font-size="10.00">receivedTimeMap</text>
<text text-anchor="start" x="12.5" y="-584" font-family="Helvetica,sans-Serif" font-size="10.00">+</text>
<text text-anchor="start" x="25.5" y="-584" font-family="Helvetica,sans-Serif" font-size="10.00">updateInterval</text>
<text text-anchor="start" x="12.5" y="-569" font-family="Helvetica,sans-Serif" font-size="10.00">+</text>
<text text-anchor="start" x="25.5" y="-569" font-family="Helvetica,sans-Serif" font-size="10.00">adjGpsWeek()</text>
<text text-anchor="start" x="12.5" y="-554" font-family="Helvetica,sans-Serif" font-size="10.00">+</text>
<text text-anchor="start" x="25.5" y="-554" font-family="Helvetica,sans-Serif" font-size="10.00">adjGstWeek()</text>
<text text-anchor="start" x="12.5" y="-539" font-family="Helvetica,sans-Serif" font-size="10.00">+</text>
<text text-anchor="start" x="25.5" y="-539" font-family="Helvetica,sans-Serif" font-size="10.00">adjBdtWeek()</text>
<text text-anchor="start" x="12.5" y="-524" font-family="Helvetica,sans-Serif" font-size="10.00">+</text>
<text text-anchor="start" x="25.5" y="-524" font-family="Helvetica,sans-Serif" font-size="10.00">traceLatency()</text>
<text text-anchor="start" x="12.5" y="-509" font-family="Helvetica,sans-Serif" font-size="10.00">+</text>
<text text-anchor="start" x="25.5" y="-509" font-family="Helvetica,sans-Serif" font-size="10.00">signal_to_code()</text>
<text text-anchor="start" x="12.5" y="-494" font-family="Helvetica,sans-Serif" font-size="10.00">+</text>
<text text-anchor="start" x="25.5" y="-494" font-family="Helvetica,sans-Serif" font-size="10.00">rtcmTime()</text>
<text text-anchor="start" x="12.5" y="-479" font-family="Helvetica,sans-Serif" font-size="10.00">+</text>
<text text-anchor="start" x="25.5" y="-479" font-family="Helvetica,sans-Serif" font-size="10.00">decodeEphemeris()</text>
<text text-anchor="start" x="12.5" y="-464" font-family="Helvetica,sans-Serif" font-size="10.00">+</text>
<text text-anchor="start" x="25.5" y="-464" font-family="Helvetica,sans-Serif" font-size="10.00">decodeSSR()</text>
<text text-anchor="start" x="12.5" y="-449" font-family="Helvetica,sans-Serif" font-size="10.00">+</text>
<text text-anchor="start" x="25.5" y="-449" font-family="Helvetica,sans-Serif" font-size="10.00">decodeCustomTimestamp()</text>
<text text-anchor="start" x="12.5" y="-434" font-family="Helvetica,sans-Serif" font-size="10.00">+</text>
<text text-anchor="start" x="25.5" y="-434" font-family="Helvetica,sans-Serif" font-size="10.00">decodeCustomId()</text>
<text text-anchor="start" x="12.5" y="-419" font-family="Helvetica,sans-Serif" font-size="10.00">+</text>
<text text-anchor="start" x="25.5" y="-419" font-family="Helvetica,sans-Serif" font-size="10.00">decodeMSM()</text>
<text text-anchor="start" x="12.5" y="-404" font-family="Helvetica,sans-Serif" font-size="10.00">+</text>
<text text-anchor="start" x="25.5" y="-404" font-family="Helvetica,sans-Serif" font-size="10.00">setRecordFilename()</text>
<text text-anchor="start" x="12.5" y="-389" font-family="Helvetica,sans-Serif" font-size="10.00">+</text>
<text text-anchor="start" x="25.5" y="-389" font-family="Helvetica,sans-Serif" font-size="10.00">recordFrame()</text>
<text text-anchor="start" x="12.5" y="-374" font-family="Helvetica,sans-Serif" font-size="10.00">+</text>
<text text-anchor="start" x="25.5" y="-374" font-family="Helvetica,sans-Serif" font-size="10.00">~RtcmDecoder()</text>
<text text-anchor="start" x="12.5" y="-359" font-family="Helvetica,sans-Serif" font-size="10.00">+</text>
<text text-anchor="start" x="25.5" y="-359" font-family="Helvetica,sans-Serif" font-size="10.00">decodeCustom()</text>
<text text-anchor="start" x="12.5" y="-344" font-family="Helvetica,sans-Serif" font-size="10.00">+</text>
<text text-anchor="start" x="25.5" y="-344" font-family="Helvetica,sans-Serif" font-size="10.00">decode()</text>
<text text-anchor="start" x="12.5" y="-329" font-family="Helvetica,sans-Serif" font-size="10.00">+</text>
<text text-anchor="start" x="25.5" y="-329" font-family="Helvetica,sans-Serif" font-size="10.00">message_length()</text>
<text text-anchor="start" x="12.5" y="-314" font-family="Helvetica,sans-Serif" font-size="10.00">+</text>
<text text-anchor="start" x="25.5" y="-314" font-family="Helvetica,sans-Serif" font-size="10.00">message_type()</text>
<polygon fill="#666666" stroke="#666666" points="8.5,-774 8.5,-774 165.5,-774 165.5,-774 8.5,-774"/>
<polygon fill="#666666" stroke="#666666" points="8.5,-579 8.5,-579 23.5,-579 23.5,-579 8.5,-579"/>
<polygon fill="#666666" stroke="#666666" points="23.5,-579 23.5,-579 165.5,-579 165.5,-579 23.5,-579"/>
<polygon fill="none" stroke="#666666" points="8,-307 8,-791 165,-791 165,-307 8,-307"/>
</a>
</g>
</g>
<!-- Node1&#45;&gt;Node2 -->
<g id="edge1_Node000001_Node000002" class="edge">
<title>Node1&#45;&gt;Node2</title>
<g id="a_edge1_Node000001_Node000002"><a xlink:title=" ">
<path fill="none" stroke="#63b8ff" d="M144.62,-820.82C142.78,-812.27 140.93,-803.65 139.08,-795.01"/>
<polygon fill="none" stroke="#63b8ff" points="141.24,-821.78 146.76,-830.82 148.09,-820.31 141.24,-821.78"/>
</a>
</g>
</g>
<!-- Node4 -->
<g id="Node000004" class="node">
<title>Node4</title>
<g id="a_Node000004"><a xlink:href="structRtcmEncoder.html" target="_top" xlink:title=" ">
<path fill="white" stroke="#666666" d="M369.5,-690C369.5,-690 203.5,-690 203.5,-690 197.5,-690 191.5,-684 191.5,-678 191.5,-678 191.5,-420 191.5,-420 191.5,-414 197.5,-408 203.5,-408 203.5,-408 369.5,-408 369.5,-408 375.5,-408 381.5,-414 381.5,-420 381.5,-420 381.5,-678 381.5,-678 381.5,-684 375.5,-690 369.5,-690"/>
<text text-anchor="start" x="254" y="-674" font-family="Helvetica,sans-Serif" font-size="10.00">RtcmEncoder</text>
<text text-anchor="start" x="203.5" y="-659" font-family="Helvetica,sans-Serif" font-size="10.00">+</text>
<text text-anchor="start" x="216.5" y="-659" font-family="Helvetica,sans-Serif" font-size="10.00">data</text>
<text text-anchor="start" x="203.5" y="-644" font-family="Helvetica,sans-Serif" font-size="10.00">+</text>
<text text-anchor="start" x="216.5" y="-644" font-family="Helvetica,sans-Serif" font-size="10.00">masterIod</text>
<text text-anchor="start" x="203.5" y="-629" font-family="Helvetica,sans-Serif" font-size="10.00">+</text>
<text text-anchor="start" x="216.5" y="-629" font-family="Helvetica,sans-Serif" font-size="10.00">lastRegSsrEphMap</text>
<text text-anchor="start" x="203.5" y="-614" font-family="Helvetica,sans-Serif" font-size="10.00">+</text>
<text text-anchor="start" x="216.5" y="-614" font-family="Helvetica,sans-Serif" font-size="10.00">lastRegSsrClkMap</text>
<text text-anchor="start" x="203.5" y="-599" font-family="Helvetica,sans-Serif" font-size="10.00">+</text>
<text text-anchor="start" x="216.5" y="-599" font-family="Helvetica,sans-Serif" font-size="10.00">updateInterval</text>
<text text-anchor="start" x="203.5" y="-584" font-family="Helvetica,sans-Serif" font-size="10.00">+</text>
<text text-anchor="start" x="216.5" y="-584" font-family="Helvetica,sans-Serif" font-size="10.00">RtcmEncoder()</text>
<text text-anchor="start" x="203.5" y="-569" font-family="Helvetica,sans-Serif" font-size="10.00">+</text>
<text text-anchor="start" x="216.5" y="-569" font-family="Helvetica,sans-Serif" font-size="10.00">encodeWriteMessages()</text>
<text text-anchor="start" x="203.5" y="-554" font-family="Helvetica,sans-Serif" font-size="10.00">+</text>
<text text-anchor="start" x="216.5" y="-554" font-family="Helvetica,sans-Serif" font-size="10.00">encodeWriteMessageToBuffer()</text>
<text text-anchor="start" x="203.5" y="-539" font-family="Helvetica,sans-Serif" font-size="10.00">+</text>
<text text-anchor="start" x="216.5" y="-539" font-family="Helvetica,sans-Serif" font-size="10.00">encodeTimeStampRTCM()</text>
<text text-anchor="start" x="203.5" y="-524" font-family="Helvetica,sans-Serif" font-size="10.00">+</text>
<text text-anchor="start" x="216.5" y="-524" font-family="Helvetica,sans-Serif" font-size="10.00">encodeSsrHeader()</text>
<text text-anchor="start" x="203.5" y="-509" font-family="Helvetica,sans-Serif" font-size="10.00">+</text>
<text text-anchor="start" x="216.5" y="-509" font-family="Helvetica,sans-Serif" font-size="10.00">encodeSsrOrbClk()</text>
<text text-anchor="start" x="203.5" y="-494" font-family="Helvetica,sans-Serif" font-size="10.00">+</text>
<text text-anchor="start" x="216.5" y="-494" font-family="Helvetica,sans-Serif" font-size="10.00">encodeSsrUra()</text>
<text text-anchor="start" x="203.5" y="-479" font-family="Helvetica,sans-Serif" font-size="10.00">+</text>
<text text-anchor="start" x="216.5" y="-479" font-family="Helvetica,sans-Serif" font-size="10.00">encodeSsrCode()</text>
<text text-anchor="start" x="203.5" y="-464" font-family="Helvetica,sans-Serif" font-size="10.00">+</text>
<text text-anchor="start" x="216.5" y="-464" font-family="Helvetica,sans-Serif" font-size="10.00">encodeSsrPhase()</text>
<text text-anchor="start" x="203.5" y="-449" font-family="Helvetica,sans-Serif" font-size="10.00">+</text>
<text text-anchor="start" x="216.5" y="-449" font-family="Helvetica,sans-Serif" font-size="10.00">encodeEphemeris()</text>
<text text-anchor="start" x="203.5" y="-434" font-family="Helvetica,sans-Serif" font-size="10.00">+</text>
<text text-anchor="start" x="216.5" y="-434" font-family="Helvetica,sans-Serif" font-size="10.00">encodeEphemeris()</text>
<text text-anchor="start" x="203.5" y="-419" font-family="Helvetica,sans-Serif" font-size="10.00">+</text>
<text text-anchor="start" x="216.5" y="-419" font-family="Helvetica,sans-Serif" font-size="10.00">getUdiIndex()</text>
<polygon fill="#666666" stroke="#666666" points="199.5,-669 199.5,-669 373.5,-669 373.5,-669 199.5,-669"/>
<polygon fill="#666666" stroke="#666666" points="199.5,-594 199.5,-594 214.5,-594 214.5,-594 199.5,-594"/>
<polygon fill="#666666" stroke="#666666" points="214.5,-594 214.5,-594 373.5,-594 373.5,-594 214.5,-594"/>
<polygon fill="none" stroke="#666666" points="199.5,-412 199.5,-686 373.5,-686 373.5,-412 199.5,-412"/>
</a>
</g>
</g>
<!-- Node1&#45;&gt;Node4 -->
<g id="edge3_Node000001_Node000004" class="edge">
<title>Node1&#45;&gt;Node4</title>
<g id="a_edge3_Node000001_Node000004"><a xlink:title=" ">
<path fill="none" stroke="#63b8ff" d="M228.37,-820.9C237.78,-777.02 247.59,-731.3 256.42,-690.19"/>
<polygon fill="none" stroke="#63b8ff" points="224.91,-820.31 226.24,-830.82 231.76,-821.78 224.91,-820.31"/>
</a>
</g>
</g>
<!-- Node3 -->
<g id="Node000003" class="node">
<title>Node3</title>
<g id="a_Node000003"><a xlink:href="structRtcmParser.html" target="_top" xlink:title=" ">
<path fill="white" stroke="#666666" d="M125.5,-184.5C125.5,-184.5 47.5,-184.5 47.5,-184.5 41.5,-184.5 35.5,-178.5 35.5,-172.5 35.5,-172.5 35.5,-94.5 35.5,-94.5 35.5,-88.5 41.5,-82.5 47.5,-82.5 47.5,-82.5 125.5,-82.5 125.5,-82.5 131.5,-82.5 137.5,-88.5 137.5,-94.5 137.5,-94.5 137.5,-172.5 137.5,-172.5 137.5,-178.5 131.5,-184.5 125.5,-184.5"/>
<text text-anchor="start" x="58.5" y="-168.5" font-family="Helvetica,sans-Serif" font-size="10.00">RtcmParser</text>
<text text-anchor="start" x="47.5" y="-153.5" font-family="Helvetica,sans-Serif" font-size="10.00">+</text>
<text text-anchor="start" x="60.5" y="-153.5" font-family="Helvetica,sans-Serif" font-size="10.00">qzssL6</text>
<text text-anchor="start" x="47.5" y="-138.5" font-family="Helvetica,sans-Serif" font-size="10.00">+</text>
<text text-anchor="start" x="60.5" y="-138.5" font-family="Helvetica,sans-Serif" font-size="10.00">qzsL6buff</text>
<text text-anchor="start" x="47.5" y="-123.5" font-family="Helvetica,sans-Serif" font-size="10.00">+</text>
<text text-anchor="start" x="60.5" y="-123.5" font-family="Helvetica,sans-Serif" font-size="10.00">qzsL6BitsLeft</text>
<text text-anchor="start" x="47.5" y="-108.5" font-family="Helvetica,sans-Serif" font-size="10.00">+</text>
<text text-anchor="start" x="60.5" y="-108.5" font-family="Helvetica,sans-Serif" font-size="10.00">parse()</text>
<text text-anchor="start" x="47.5" y="-93.5" font-family="Helvetica,sans-Serif" font-size="10.00">+</text>
<text text-anchor="start" x="60.5" y="-93.5" font-family="Helvetica,sans-Serif" font-size="10.00">parserType()</text>
<polygon fill="#666666" stroke="#666666" points="43.5,-163.5 43.5,-163.5 129.5,-163.5 129.5,-163.5 43.5,-163.5"/>
<polygon fill="#666666" stroke="#666666" points="43.5,-118.5 43.5,-118.5 58.5,-118.5 58.5,-118.5 43.5,-118.5"/>
<polygon fill="#666666" stroke="#666666" points="58.5,-118.5 58.5,-118.5 129.5,-118.5 129.5,-118.5 58.5,-118.5"/>
<polygon fill="none" stroke="#666666" points="43.5,-86.5 43.5,-180.5 129.5,-180.5 129.5,-86.5 43.5,-86.5"/>
</a>
</g>
</g>
<!-- Node2&#45;&gt;Node3 -->
<g id="edge2_Node000002_Node000003" class="edge">
<title>Node2&#45;&gt;Node3</title>
<g id="a_edge2_Node000002_Node000003"><a xlink:title=" ">
<path fill="none" stroke="#63b8ff" d="M86.5,-292.76C86.5,-251.66 86.5,-213.26 86.5,-184.58"/>
<polygon fill="none" stroke="#63b8ff" points="83,-292.98 86.5,-302.98 90,-292.98 83,-292.98"/>
</a>
</g>
</g>
<!-- Node5 -->
<g id="Node000005" class="node">
<title>Node5</title>
<g id="a_Node000005"><a xlink:href="structNtripUploader.html" target="_top" xlink:title=" ">
<path fill="white" stroke="#666666" d="M358.5,-267C358.5,-267 214.5,-267 214.5,-267 208.5,-267 202.5,-261 202.5,-255 202.5,-255 202.5,-12 202.5,-12 202.5,-6 208.5,0 214.5,0 214.5,0 358.5,0 358.5,0 364.5,0 370.5,-6 370.5,-12 370.5,-12 370.5,-255 370.5,-255 370.5,-261 364.5,-267 358.5,-267"/>
<text text-anchor="start" x="252" y="-250.5" font-family="Helvetica,sans-Serif" font-size="10.00">NtripUploader</text>
<text text-anchor="start" x="214.5" y="-235.5" font-family="Helvetica,sans-Serif" font-size="10.00">+</text>
<text text-anchor="start" x="227.5" y="-235.5" font-family="Helvetica,sans-Serif" font-size="10.00">timeNextMessage</text>
<text text-anchor="start" x="214.5" y="-220.5" font-family="Helvetica,sans-Serif" font-size="10.00">+</text>
<text text-anchor="start" x="227.5" y="-220.5" font-family="Helvetica,sans-Serif" font-size="10.00">outMessagesMtx</text>
<text text-anchor="start" x="214.5" y="-205.5" font-family="Helvetica,sans-Serif" font-size="10.00">+</text>
<text text-anchor="start" x="227.5" y="-205.5" font-family="Helvetica,sans-Serif" font-size="10.00">outMessages</text>
<text text-anchor="start" x="214.5" y="-190.5" font-family="Helvetica,sans-Serif" font-size="10.00">+</text>
<text text-anchor="start" x="227.5" y="-190.5" font-family="Helvetica,sans-Serif" font-size="10.00">sendTimer</text>
<text text-anchor="start" x="214.5" y="-175.5" font-family="Helvetica,sans-Serif" font-size="10.00">+</text>
<text text-anchor="start" x="227.5" y="-175.5" font-family="Helvetica,sans-Serif" font-size="10.00">numberChunksSent</text>
<text text-anchor="start" x="214.5" y="-160.5" font-family="Helvetica,sans-Serif" font-size="10.00">+</text>
<text text-anchor="start" x="227.5" y="-160.5" font-family="Helvetica,sans-Serif" font-size="10.00">previousTargetTime</text>
<text text-anchor="start" x="214.5" y="-145.5" font-family="Helvetica,sans-Serif" font-size="10.00">+</text>
<text text-anchor="start" x="227.5" y="-145.5" font-family="Helvetica,sans-Serif" font-size="10.00">ntripStr</text>
<text text-anchor="start" x="214.5" y="-130.5" font-family="Helvetica,sans-Serif" font-size="10.00">+</text>
<text text-anchor="start" x="227.5" y="-130.5" font-family="Helvetica,sans-Serif" font-size="10.00">id</text>
<text text-anchor="start" x="214.5" y="-115.5" font-family="Helvetica,sans-Serif" font-size="10.00">+</text>
<text text-anchor="start" x="227.5" y="-115.5" font-family="Helvetica,sans-Serif" font-size="10.00">streamConfig</text>
<text text-anchor="start" x="214.5" y="-100.5" font-family="Helvetica,sans-Serif" font-size="10.00">+</text>
<text text-anchor="start" x="227.5" y="-100.5" font-family="Helvetica,sans-Serif" font-size="10.00">NtripUploader()</text>
<text text-anchor="start" x="214.5" y="-85.5" font-family="Helvetica,sans-Serif" font-size="10.00">+</text>
<text text-anchor="start" x="227.5" y="-85.5" font-family="Helvetica,sans-Serif" font-size="10.00">startBroadcast()</text>
<text text-anchor="start" x="214.5" y="-70.5" font-family="Helvetica,sans-Serif" font-size="10.00">+</text>
<text text-anchor="start" x="227.5" y="-70.5" font-family="Helvetica,sans-Serif" font-size="10.00">connected()</text>
<text text-anchor="start" x="214.5" y="-55.5" font-family="Helvetica,sans-Serif" font-size="10.00">+</text>
<text text-anchor="start" x="227.5" y="-55.5" font-family="Helvetica,sans-Serif" font-size="10.00">messageTimeoutHandler()</text>
<text text-anchor="start" x="214.5" y="-40.5" font-family="Helvetica,sans-Serif" font-size="10.00">+</text>
<text text-anchor="start" x="227.5" y="-40.5" font-family="Helvetica,sans-Serif" font-size="10.00">writeHandler()</text>
<text text-anchor="start" x="214.5" y="-25.5" font-family="Helvetica,sans-Serif" font-size="10.00">+</text>
<text text-anchor="start" x="227.5" y="-25.5" font-family="Helvetica,sans-Serif" font-size="10.00">serverResponse()</text>
<text text-anchor="start" x="214.5" y="-10.5" font-family="Helvetica,sans-Serif" font-size="10.00">+</text>
<text text-anchor="start" x="227.5" y="-10.5" font-family="Helvetica,sans-Serif" font-size="10.00">getJsonNetworkStatistics()</text>
<polygon fill="#666666" stroke="#666666" points="210.5,-245.5 210.5,-245.5 362.5,-245.5 362.5,-245.5 210.5,-245.5"/>
<polygon fill="#666666" stroke="#666666" points="210.5,-110.5 210.5,-110.5 225.5,-110.5 225.5,-110.5 210.5,-110.5"/>
<polygon fill="#666666" stroke="#666666" points="225.5,-110.5 225.5,-110.5 362.5,-110.5 362.5,-110.5 225.5,-110.5"/>
<polygon fill="none" stroke="#666666" points="210.5,-4 210.5,-263 362.5,-263 362.5,-4 210.5,-4"/>
</a>
</g>
</g>
<!-- Node4&#45;&gt;Node5 -->
<g id="edge4_Node000004_Node000005" class="edge">
<title>Node4&#45;&gt;Node5</title>
<g id="a_edge4_Node000004_Node000005"><a xlink:title=" ">
<path fill="none" stroke="#63b8ff" d="M286.5,-397.53C286.5,-354.86 286.5,-308.72 286.5,-267.18"/>
<polygon fill="none" stroke="#63b8ff" points="283,-397.72 286.5,-407.72 290,-397.72 283,-397.72"/>
</a>
</g>
</g>
</g>
</svg>
