<?xml version="1.0" encoding="UTF-8" standalone="no"?>
<!DOCTYPE svg PUBLIC "-//W3C//DTD SVG 1.1//EN"
 "http://www.w3.org/Graphics/SVG/1.1/DTD/svg11.dtd">
<!-- Generated by graphviz version 2.43.0 (0)
 -->
<!-- Title: ObsStream::getObs Pages: 1 -->
<svg width="297pt" height="180pt"
 viewBox="0.00 0.00 297.00 180.00" xmlns="http://www.w3.org/2000/svg" xmlns:xlink="http://www.w3.org/1999/xlink">
<g id="graph0" class="graph" transform="scale(1 1) rotate(0) translate(4 176)">
<title>ObsStream::getObs</title>
<polygon fill="white" stroke="transparent" points="-4,4 -4,-176 293,-176 293,4 -4,4"/>
<!-- Node1 -->
<g id="node1" class="node">
<title>Node1</title>
<g id="a_node1"><a xlink:title="Return a list of observations from the stream.">
<polygon fill="#bfbfbf" stroke="black" points="178,-76.5 178,-95.5 289,-95.5 289,-76.5 178,-76.5"/>
<text text-anchor="middle" x="233.5" y="-83.5" font-family="Helvetica,sans-Serif" font-size="10.00">ObsStream::getObs</text>
</a>
</g>
</g>
<!-- Node2 -->
<g id="node2" class="node">
<title>Node2</title>
<g id="a_node2"><a xlink:href="$structNtripRtcmStream.html#a7ae2807fa53dc422270a34553e1f80c9" xlink:title="Return a list of observations from the stream.">
<polygon fill="white" stroke="black" points="0,-152.5 0,-171.5 142,-171.5 142,-152.5 0,-152.5"/>
<text text-anchor="middle" x="71" y="-159.5" font-family="Helvetica,sans-Serif" font-size="10.00">NtripRtcmStream::getObs</text>
</a>
</g>
</g>
<!-- Node1&#45;&gt;Node2 -->
<g id="edge1" class="edge">
<title>Node1&#45;&gt;Node2</title>
<path fill="none" stroke="midnightblue" d="M219.99,-95.59C203.12,-108.1 171.76,-129.94 142,-143 133.58,-146.69 124.27,-149.83 115.27,-152.42"/>
</g>
<!-- Node3 -->
<g id="node3" class="node">
<title>Node3</title>
<g id="a_node3"><a xlink:href="$structFileRinexStream.html#a8032f619708821820655c1ed3c7f2e57" xlink:title="Return a list of observations from the stream.">
<polygon fill="white" stroke="black" points="2.5,-114.5 2.5,-133.5 139.5,-133.5 139.5,-114.5 2.5,-114.5"/>
<text text-anchor="middle" x="71" y="-121.5" font-family="Helvetica,sans-Serif" font-size="10.00">FileRinexStream::getObs</text>
</a>
</g>
</g>
<!-- Node1&#45;&gt;Node3 -->
<g id="edge2" class="edge">
<title>Node1&#45;&gt;Node3</title>
<path fill="none" stroke="midnightblue" d="M192,-95.59C167.58,-101.37 136.58,-108.71 112.21,-114.48"/>
</g>
<!-- Node4 -->
<g id="node4" class="node">
<title>Node4</title>
<g id="a_node4"><a xlink:href="$structFileRtcmStream.html#a60fb40d30b75c23712ce49ff8b9655ab" xlink:title="Return a list of observations from the stream.">
<polygon fill="white" stroke="black" points="4,-76.5 4,-95.5 138,-95.5 138,-76.5 4,-76.5"/>
<text text-anchor="middle" x="71" y="-83.5" font-family="Helvetica,sans-Serif" font-size="10.00">FileRtcmStream::getObs</text>
</a>
</g>
</g>
<!-- Node1&#45;&gt;Node4 -->
<g id="edge3" class="edge">
<title>Node1&#45;&gt;Node4</title>
<path fill="none" stroke="midnightblue" d="M177.71,-86C165,-86 151.34,-86 138.19,-86"/>
</g>
<!-- Node5 -->
<g id="node5" class="node">
<title>Node5</title>
<g id="a_node5"><a xlink:href="$structObsStream.html#a6d0ad39e5f301fc9455cfe5d9d3c3f99" xlink:title="Return a list of observations from the stream, with a specified timestamp.">
<polygon fill="white" stroke="black" points="15.5,-38.5 15.5,-57.5 126.5,-57.5 126.5,-38.5 15.5,-38.5"/>
<text text-anchor="middle" x="71" y="-45.5" font-family="Helvetica,sans-Serif" font-size="10.00">ObsStream::getObs</text>
</a>
</g>
</g>
<!-- Node1&#45;&gt;Node5 -->
<g id="edge4" class="edge">
<title>Node1&#45;&gt;Node5</title>
<path fill="none" stroke="midnightblue" d="M192,-76.41C167.58,-70.63 136.58,-63.29 112.21,-57.52"/>
</g>
<!-- Node6 -->
<g id="node6" class="node">
<title>Node6</title>
<g id="a_node6"><a xlink:href="$main_8cpp.html#a3c04138a5bfe5d72780bb7e82a18e627" xlink:title=" ">
<polygon fill="white" stroke="black" points="50.5,-0.5 50.5,-19.5 91.5,-19.5 91.5,-0.5 50.5,-0.5"/>
<text text-anchor="middle" x="71" y="-7.5" font-family="Helvetica,sans-Serif" font-size="10.00">main</text>
</a>
</g>
</g>
<!-- Node1&#45;&gt;Node6 -->
<g id="edge5" class="edge">
<title>Node1&#45;&gt;Node6</title>
<path fill="none" stroke="midnightblue" d="M219.99,-76.41C203.12,-63.9 171.76,-42.06 142,-29 125.63,-21.81 105.88,-16.75 91.54,-13.67"/>
</g>
</g>
</svg>
