<?xml version="1.0" encoding="UTF-8" standalone="no"?>
<!DOCTYPE svg PUBLIC "-//W3C//DTD SVG 1.1//EN"
 "http://www.w3.org/Graphics/SVG/1.1/DTD/svg11.dtd">
<!-- Generated by graphviz version 2.43.0 (0)
 -->
<!-- Title: PseudoObsStream Pages: 1 -->
<svg width="229pt" height="204pt"
 viewBox="0.00 0.00 228.50 204.00" xmlns="http://www.w3.org/2000/svg" xmlns:xlink="http://www.w3.org/1999/xlink">
<g id="graph0" class="graph" transform="scale(1 1) rotate(0) translate(4 200)">
<title>PseudoObsStream</title>
<polygon fill="white" stroke="transparent" points="-4,4 -4,-200 224.5,-200 224.5,4 -4,4"/>
<!-- Node1 -->
<g id="node1" class="node">
<title>Node1</title>
<g id="a_node1"><a xlink:title="Interface for streams that supply observations.">
<polygon fill="#bfbfbf" stroke="black" points="60.5,-0.5 60.5,-90.5 166.5,-90.5 166.5,-0.5 60.5,-0.5"/>
<text text-anchor="middle" x="113.5" y="-78.5" font-family="Helvetica,sans-Serif" font-size="10.00">PseudoObsStream</text>
<polyline fill="none" stroke="black" points="60.5,-71.5 166.5,-71.5 "/>
<text text-anchor="middle" x="113.5" y="-59.5" font-family="Helvetica,sans-Serif" font-size="10.00"> </text>
<polyline fill="none" stroke="black" points="60.5,-52.5 166.5,-52.5 "/>
<text text-anchor="start" x="68.5" y="-40.5" font-family="Helvetica,sans-Serif" font-size="10.00">+ getObs()</text>
<text text-anchor="start" x="68.5" y="-29.5" font-family="Helvetica,sans-Serif" font-size="10.00">+ getObs()</text>
<text text-anchor="start" x="68.5" y="-18.5" font-family="Helvetica,sans-Serif" font-size="10.00">+ isDead()</text>
<text text-anchor="start" x="68.5" y="-7.5" font-family="Helvetica,sans-Serif" font-size="10.00">+ eatObs()</text>
</a>
</g>
</g>
<!-- Node2 -->
<g id="node2" class="node">
<title>Node2</title>
<g id="a_node2"><a xlink:title=" ">
<polygon fill="white" stroke="red" points="0,-138.5 0,-195.5 125,-195.5 125,-138.5 0,-138.5"/>
<text text-anchor="middle" x="62.5" y="-183.5" font-family="Helvetica,sans-Serif" font-size="10.00">list&lt; PseudoObsList &gt;</text>
<polyline fill="none" stroke="red" points="0,-176.5 125,-176.5 "/>
<text text-anchor="middle" x="62.5" y="-164.5" font-family="Helvetica,sans-Serif" font-size="10.00"> </text>
<polyline fill="none" stroke="red" points="0,-157.5 125,-157.5 "/>
<text text-anchor="middle" x="62.5" y="-145.5" font-family="Helvetica,sans-Serif" font-size="10.00"> </text>
</a>
</g>
</g>
<!-- Node2&#45;&gt;Node1 -->
<g id="edge1" class="edge">
<title>Node2&#45;&gt;Node1</title>
<path fill="none" stroke="#404040" d="M69.49,-138.34C72.21,-128.89 75.61,-118.34 79.5,-109 82.01,-102.95 84.94,-96.73 88.01,-90.67"/>
<text text-anchor="middle" x="111.5" y="-112" font-family="Helvetica,sans-Serif" font-size="10.00"> +obsListList</text>
</g>
<!-- Node4 -->
<g id="node3" class="node">
<title>Node4</title>
<g id="a_node3"><a xlink:title=" ">
<polygon fill="white" stroke="black" points="143.5,-138.5 143.5,-195.5 187.5,-195.5 187.5,-138.5 143.5,-138.5"/>
<text text-anchor="middle" x="165.5" y="-183.5" font-family="Helvetica,sans-Serif" font-size="10.00">string</text>
<polyline fill="none" stroke="black" points="143.5,-176.5 187.5,-176.5 "/>
<text text-anchor="middle" x="165.5" y="-164.5" font-family="Helvetica,sans-Serif" font-size="10.00"> </text>
<polyline fill="none" stroke="black" points="143.5,-157.5 187.5,-157.5 "/>
<text text-anchor="middle" x="165.5" y="-145.5" font-family="Helvetica,sans-Serif" font-size="10.00"> </text>
</a>
</g>
</g>
<!-- Node4&#45;&gt;Node1 -->
<g id="edge2" class="edge">
<title>Node4&#45;&gt;Node1</title>
<path fill="none" stroke="#404040" d="M155.31,-138.28C151.73,-128.92 147.58,-118.44 143.5,-109 140.92,-103.03 138.1,-96.8 135.24,-90.69"/>
<text text-anchor="middle" x="184" y="-112" font-family="Helvetica,sans-Serif" font-size="10.00"> +sourceString</text>
</g>
</g>
</svg>
