<?xml version="1.0" encoding="UTF-8" standalone="no"?>
<!DOCTYPE svg PUBLIC "-//W3C//DTD SVG 1.1//EN"
 "http://www.w3.org/Graphics/SVG/1.1/DTD/svg11.dtd">
<!-- Generated by graphviz version 2.43.0 (0)
 -->
<!-- Title: VectorPos::lat Pages: 1 -->
<!--zoomable 731 -->
<svg id="main" version="1.1" xmlns="http://www.w3.org/2000/svg" xmlns:xlink="http://www.w3.org/1999/xlink" xml:space="preserve" onload="init(evt)">
<style type="text/css"><![CDATA[
.edge:hover path { stroke: red; }
.edge:hover polygon { stroke: red; fill: red; }
]]></style>
<script type="text/javascript"><![CDATA[
var edges = document.getElementsByTagName('g');
if (edges && edges.length) {
  for (var i=0;i<edges.length;i++) {
    if (edges[i].id.substr(0,4)=='edge') {
      edges[i].setAttribute('class','edge');
    }
  }
}
]]></script>
        <defs>
                <circle id="rim" cx="0" cy="0" r="7"/>
                <circle id="rim2" cx="0" cy="0" r="3.5"/>
                <g id="zoomPlus">
                        <use xlink:href="#rim" fill="#404040">
                                <set attributeName="fill" to="#808080" begin="zoomplus.mouseover" end="zoomplus.mouseout"/>
                        </use>
                        <path d="M-4,0h8M0,-4v8" fill="none" stroke="white" stroke-width="1.5" pointer-events="none"/>
                </g>
                <g id="zoomMin">
                        <use xlink:href="#rim" fill="#404040">
                                <set attributeName="fill" to="#808080" begin="zoomminus.mouseover" end="zoomminus.mouseout"/>
                        </use>
                        <path d="M-4,0h8" fill="none" stroke="white" stroke-width="1.5" pointer-events="none"/>
                </g>
                <g id="dirArrow">
                        <path fill="none" stroke="white" stroke-width="1.5" d="M0,-3.0v7 M-2.5,-0.5L0,-3.0L2.5,-0.5"/>
                </g>
               <g id="resetDef">
                       <use xlink:href="#rim2" fill="#404040">
                               <set attributeName="fill" to="#808080" begin="reset.mouseover" end="reset.mouseout"/>
                       </use>
               </g>
        </defs>

<script type="text/javascript">
var viewWidth = 395;
var viewHeight = 731;
var sectionId = 'dynsection-3';
</script>
<script xlink:href="svgpan.js"/>
<svg id="graph" class="graph">
<g id="viewport">
<title>VectorPos::lat</title>
<polygon fill="white" stroke="transparent" points="-4,4 -4,-727 391,-727 391,4 -4,4"/>
<!-- Node1 -->
<g id="node1" class="node">
<title>Node1</title>
<g id="a_node1"><a xlink:title=" ">
<polygon fill="#bfbfbf" stroke="black" points="304,-342.5 304,-361.5 387,-361.5 387,-342.5 304,-342.5"/>
<text text-anchor="middle" x="345.5" y="-349.5" font-family="Helvetica,sans-Serif" font-size="10.00">VectorPos::lat</text>
</a>
</g>
</g>
<!-- Node2 -->
<g id="node2" class="node">
<title>Node2</title>
<g id="a_node2"><a xlink:href="coordinates_8cpp.html#a726b77659a6e94017c3acc10bca86a29" target="_top" xlink:title="Transform geodetic postion to ecef.">
<polygon fill="white" stroke="black" points="178,-684.5 178,-703.5 239,-703.5 239,-684.5 178,-684.5"/>
<text text-anchor="middle" x="208.5" y="-691.5" font-family="Helvetica,sans-Serif" font-size="10.00">pos2ecef</text>
</a>
</g>
</g>
<!-- Node1&#45;&gt;Node2 -->
<g id="edge1" class="edge">
<title>Node1&#45;&gt;Node2</title>
<path fill="none" stroke="midnightblue" d="M342.11,-371.82C334.24,-434.03 307.41,-624.04 268,-670 260.57,-678.67 249.52,-684.25 239.02,-687.83"/>
<polygon fill="midnightblue" stroke="midnightblue" points="345.6,-372.1 343.35,-361.75 338.65,-371.24 345.6,-372.1"/>
</g>
<!-- Node3 -->
<g id="node3" class="node">
<title>Node3</title>
<g id="a_node3"><a xlink:href="tropSinex_8cpp.html#a1faee2ac53f3a75f110a3d3fadd79354" target="_top" xlink:title="Write SITE/ID block.">
<polygon fill="white" stroke="red" points="12,-703.5 12,-722.5 101,-722.5 101,-703.5 12,-703.5"/>
<text text-anchor="middle" x="56.5" y="-710.5" font-family="Helvetica,sans-Serif" font-size="10.00">writeTropSiteId</text>
</a>
</g>
</g>
<!-- Node1&#45;&gt;Node3 -->
<g id="edge17" class="edge">
<title>Node1&#45;&gt;Node3</title>
<path fill="none" stroke="midnightblue" d="M328.68,-335.31C314.35,-321.5 291.88,-302.92 268,-295 217.8,-278.35 188.04,-259.32 149,-295 83.28,-355.06 167.97,-623.97 113,-694 109.79,-698.09 105.66,-701.3 101.1,-703.82"/>
<polygon fill="midnightblue" stroke="midnightblue" points="326.21,-337.8 335.76,-342.39 331.16,-332.85 326.21,-337.8"/>
</g>
<!-- Node14 -->
<g id="node4" class="node">
<title>Node14</title>
<g id="a_node4"><a xlink:href="ionoSpherical_8cpp.html#a5b7bfe4a5b9c8c410133e7e6efbfc753" target="_top" xlink:title="rotates the Ionosphere piercing point time: I time of observations (to update the rotation matrix) IP...">
<polygon fill="white" stroke="red" points="9,-665.5 9,-684.5 104,-684.5 104,-665.5 9,-665.5"/>
<text text-anchor="middle" x="56.5" y="-672.5" font-family="Helvetica,sans-Serif" font-size="10.00">ippCheckSphhar</text>
</a>
</g>
</g>
<!-- Node1&#45;&gt;Node14 -->
<g id="edge14" class="edge">
<title>Node1&#45;&gt;Node14</title>
<path fill="none" stroke="midnightblue" d="M298.32,-364.12C242.12,-379.07 154.03,-403.21 149,-409 76.19,-492.7 183.86,-570.64 113,-656 109.81,-659.84 105.81,-662.91 101.43,-665.35"/>
<polygon fill="midnightblue" stroke="midnightblue" points="299.3,-367.48 308.07,-361.53 297.51,-360.72 299.3,-367.48"/>
</g>
<!-- Node27 -->
<g id="node5" class="node">
<title>Node27</title>
<g id="a_node5"><a xlink:href="ionoSphericalCaps_8cpp.html#af953ae8b4e5d94daecada20e21dd59a2" target="_top" xlink:title="transforms the Ionosphere Piercing Point and checks if it falls in area of coverage time: I time of o...">
<polygon fill="white" stroke="red" points="8,-627.5 8,-646.5 105,-646.5 105,-627.5 8,-627.5"/>
<text text-anchor="middle" x="56.5" y="-634.5" font-family="Helvetica,sans-Serif" font-size="10.00">ippCheckSphcap</text>
</a>
</g>
</g>
<!-- Node1&#45;&gt;Node27 -->
<g id="edge5" class="edge">
<title>Node1&#45;&gt;Node27</title>
<path fill="none" stroke="midnightblue" d="M342.26,-371.93C335.14,-431.16 310.97,-604.04 268,-637 214.5,-678.03 128.78,-659.92 85.07,-646.6"/>
<polygon fill="midnightblue" stroke="midnightblue" points="345.77,-372.01 343.45,-361.68 338.82,-371.2 345.77,-372.01"/>
</g>
<!-- Node29 -->
<g id="node6" class="node">
<title>Node29</title>
<g id="a_node6"><a xlink:href="tropVMF3_8cpp.html#a2253022b9954448bf810631603e70454" target="_top" xlink:title="vmf3">
<polygon fill="white" stroke="red" points="176.5,-608.5 176.5,-627.5 240.5,-627.5 240.5,-608.5 176.5,-608.5"/>
<text text-anchor="middle" x="208.5" y="-615.5" font-family="Helvetica,sans-Serif" font-size="10.00">tropVMF3</text>
</a>
</g>
</g>
<!-- Node1&#45;&gt;Node29 -->
<g id="edge6" class="edge">
<title>Node1&#45;&gt;Node29</title>
<path fill="none" stroke="midnightblue" d="M343.71,-371.99C340.87,-417.32 327.83,-528.97 268,-594 260.72,-601.92 250.44,-607.29 240.52,-610.91"/>
<polygon fill="midnightblue" stroke="midnightblue" points="347.22,-371.91 344.24,-361.74 340.23,-371.55 347.22,-371.91"/>
</g>
<!-- Node38 -->
<g id="node7" class="node">
<title>Node38</title>
<g id="a_node7"><a xlink:href="tides_8cpp.html#ab9e903f458c0264cff4b22d87c78c477" target="_top" xlink:title="Displacement by solid Earth tide See ref [1] 7.1.1 Note: permanent deformation not removed,...">
<polygon fill="white" stroke="black" points="14,-494.5 14,-513.5 99,-513.5 99,-494.5 14,-494.5"/>
<text text-anchor="middle" x="56.5" y="-501.5" font-family="Helvetica,sans-Serif" font-size="10.00">tideSolidEarth</text>
</a>
</g>
</g>
<!-- Node1&#45;&gt;Node38 -->
<g id="edge7" class="edge">
<title>Node1&#45;&gt;Node38</title>
<path fill="none" stroke="midnightblue" d="M344.19,-371.79C342.31,-414.89 331.09,-516.91 268,-561 224.65,-591.3 199.85,-575.54 149,-561 116.61,-551.74 84.53,-527.32 68.34,-513.64"/>
<polygon fill="midnightblue" stroke="midnightblue" points="347.69,-371.83 344.5,-361.73 340.69,-371.62 347.69,-371.83"/>
</g>
<!-- Node39 -->
<g id="node8" class="node">
<title>Node39</title>
<g id="a_node8"><a xlink:href="tides_8cpp.html#aeae22242d3396386a1b71e573226478d" target="_top" xlink:title="Displacement by solid Earth pole tide See ref [1] 7.1.4.">
<polygon fill="white" stroke="red" points="168.5,-532.5 168.5,-551.5 248.5,-551.5 248.5,-532.5 168.5,-532.5"/>
<text text-anchor="middle" x="208.5" y="-539.5" font-family="Helvetica,sans-Serif" font-size="10.00">tideSolidPole</text>
</a>
</g>
</g>
<!-- Node1&#45;&gt;Node39 -->
<g id="edge8" class="edge">
<title>Node1&#45;&gt;Node39</title>
<path fill="none" stroke="midnightblue" d="M341.08,-371.78C333.92,-407.2 314.06,-481.61 268,-523 262.52,-527.93 255.74,-531.58 248.77,-534.28"/>
<polygon fill="midnightblue" stroke="midnightblue" points="344.56,-372.22 342.97,-361.74 337.68,-370.92 344.56,-372.22"/>
</g>
<!-- Node40 -->
<g id="node9" class="node">
<title>Node40</title>
<g id="a_node9"><a xlink:href="debug_8cpp.html#a87c5753b6cf593f61c84b8b25cf8303f" target="_top" xlink:title=" ">
<polygon fill="white" stroke="black" points="0,-342.5 0,-361.5 113,-361.5 113,-342.5 0,-342.5"/>
<text text-anchor="middle" x="56.5" y="-349.5" font-family="Helvetica,sans-Serif" font-size="10.00">debugTideSolidPole</text>
</a>
</g>
</g>
<!-- Node1&#45;&gt;Node40 -->
<g id="edge18" class="edge">
<title>Node1&#45;&gt;Node40</title>
<path fill="none" stroke="midnightblue" d="M335.11,-333.3C322.99,-311.51 299.64,-276.63 268,-262 220,-239.8 197.95,-241.96 149,-262 108.58,-278.55 76.42,-322.51 63.56,-342.21"/>
<polygon fill="midnightblue" stroke="midnightblue" points="332.09,-335.08 339.87,-342.27 338.27,-331.79 332.09,-335.08"/>
</g>
<!-- Node45 -->
<g id="node10" class="node">
<title>Node45</title>
<g id="a_node10"><a xlink:href="tides_8cpp.html#ab44d5c92785ffe1d1628108425405b23" target="_top" xlink:title="Step 1 of solid Earth tide computation: Corrections to be computed in the time domain (solar/lunar ti...">
<polygon fill="white" stroke="black" points="159.5,-494.5 159.5,-513.5 257.5,-513.5 257.5,-494.5 159.5,-494.5"/>
<text text-anchor="middle" x="208.5" y="-501.5" font-family="Helvetica,sans-Serif" font-size="10.00">tideTimeDomain</text>
</a>
</g>
</g>
<!-- Node1&#45;&gt;Node45 -->
<g id="edge10" class="edge">
<title>Node1&#45;&gt;Node45</title>
<path fill="none" stroke="midnightblue" d="M338.42,-371.37C328.38,-400.26 305.61,-454.5 268,-485 263.19,-488.9 257.56,-492.01 251.72,-494.49"/>
<polygon fill="midnightblue" stroke="midnightblue" points="341.82,-372.23 341.65,-361.64 335.18,-370.02 341.82,-372.23"/>
</g>
<!-- Node46 -->
<g id="node11" class="node">
<title>Node46</title>
<g id="a_node11"><a xlink:href="geomagField_8cpp.html#a1a9089a9e8fb29db7da8a88c9abcf491" target="_top" xlink:title="Compute the geomagnetic field components in geocentric local reference system at given time and posit...">
<polygon fill="white" stroke="red" points="150.5,-456.5 150.5,-475.5 266.5,-475.5 266.5,-456.5 150.5,-456.5"/>
<text text-anchor="middle" x="208.5" y="-463.5" font-family="Helvetica,sans-Serif" font-size="10.00">getGeomagIntensity</text>
</a>
</g>
</g>
<!-- Node1&#45;&gt;Node46 -->
<g id="edge12" class="edge">
<title>Node1&#45;&gt;Node46</title>
<path fill="none" stroke="midnightblue" d="M334.23,-370.38C321.4,-391.75 297.48,-426.68 268,-447 262.46,-450.82 256.1,-453.91 249.67,-456.4"/>
<polygon fill="midnightblue" stroke="midnightblue" points="337.33,-372.02 339.33,-361.62 331.28,-368.5 337.33,-372.02"/>
</g>
<!-- Node50 -->
<g id="node12" class="node">
<title>Node50</title>
<g id="a_node12"><a xlink:href="ionModels_8cpp.html#ad21f16251002ad73463ac689903d5c91" target="_top" xlink:title=" ">
<polygon fill="white" stroke="red" points="183.5,-418.5 183.5,-437.5 233.5,-437.5 233.5,-418.5 183.5,-418.5"/>
<text text-anchor="middle" x="208.5" y="-425.5" font-family="Helvetica,sans-Serif" font-size="10.00">ionppp</text>
</a>
</g>
</g>
<!-- Node1&#45;&gt;Node50 -->
<g id="edge13" class="edge">
<title>Node1&#45;&gt;Node50</title>
<path fill="none" stroke="midnightblue" d="M323.95,-367.7C308.96,-378.71 287.87,-393.32 268,-404 257.07,-409.87 244.39,-415.24 233.64,-419.4"/>
<polygon fill="midnightblue" stroke="midnightblue" points="326.09,-370.46 332.02,-361.68 321.91,-364.85 326.09,-370.46"/>
</g>
<!-- Node58 -->
<g id="node13" class="node">
<title>Node58</title>
<g id="a_node13"><a xlink:href="ionModels_8cpp.html#a57191b4303a5b58e1a21fe08ab32538c" target="_top" xlink:title=" ">
<polygon fill="white" stroke="red" points="177.5,-342.5 177.5,-361.5 239.5,-361.5 239.5,-342.5 177.5,-342.5"/>
<text text-anchor="middle" x="208.5" y="-349.5" font-family="Helvetica,sans-Serif" font-size="10.00">ionmodel</text>
</a>
</g>
</g>
<!-- Node1&#45;&gt;Node58 -->
<g id="edge15" class="edge">
<title>Node1&#45;&gt;Node58</title>
<path fill="none" stroke="midnightblue" d="M293.8,-352C275.57,-352 255.6,-352 239.67,-352"/>
<polygon fill="midnightblue" stroke="midnightblue" points="294,-355.5 304,-352 294,-348.5 294,-355.5"/>
</g>
<!-- Node65 -->
<g id="node14" class="node">
<title>Node65</title>
<g id="a_node14"><a xlink:href="debug_8cpp.html#a024d78c0bdafab9654bb34addd8d14cc" target="_top" xlink:title=" ">
<polygon fill="white" stroke="black" points="149,-304.5 149,-323.5 268,-323.5 268,-304.5 149,-304.5"/>
<text text-anchor="middle" x="208.5" y="-311.5" font-family="Helvetica,sans-Serif" font-size="10.00">debugTideOceanPole</text>
</a>
</g>
</g>
<!-- Node1&#45;&gt;Node65 -->
<g id="edge16" class="edge">
<title>Node1&#45;&gt;Node65</title>
<path fill="none" stroke="midnightblue" d="M300.74,-339.68C282.19,-334.46 260.9,-328.47 243.56,-323.59"/>
<polygon fill="midnightblue" stroke="midnightblue" points="299.86,-343.07 310.43,-342.41 301.76,-336.33 299.86,-343.07"/>
</g>
<!-- Node66 -->
<g id="node15" class="node">
<title>Node66</title>
<g id="a_node15"><a xlink:href="debug_8cpp.html#ab1c89bb12579ace0fe0ec45523ed9567" target="_top" xlink:title=" ">
<polygon fill="white" stroke="black" points="162.5,-190.5 162.5,-209.5 254.5,-209.5 254.5,-190.5 162.5,-190.5"/>
<text text-anchor="middle" x="208.5" y="-197.5" font-family="Helvetica,sans-Serif" font-size="10.00">debugTideSolid</text>
</a>
</g>
</g>
<!-- Node1&#45;&gt;Node66 -->
<g id="edge19" class="edge">
<title>Node1&#45;&gt;Node66</title>
<path fill="none" stroke="midnightblue" d="M337.47,-332.53C326.58,-304.89 303.16,-254.27 268,-224 260.84,-217.84 251.9,-213.11 243.16,-209.55"/>
<polygon fill="midnightblue" stroke="midnightblue" points="334.33,-334.11 341.14,-342.22 340.87,-331.63 334.33,-334.11"/>
</g>
<!-- Node67 -->
<g id="node16" class="node">
<title>Node67</title>
<g id="a_node16"><a xlink:href="coordinates_8cpp.html#a7efa6307cb6b9c8bc318bc47d698fed2" target="_top" xlink:title="transform ecef to geodetic postion args : double *r I ecef position {x,y,z} (m) notes : WGS84,...">
<polygon fill="white" stroke="black" points="178,-152.5 178,-171.5 239,-171.5 239,-152.5 178,-152.5"/>
<text text-anchor="middle" x="208.5" y="-159.5" font-family="Helvetica,sans-Serif" font-size="10.00">ecef2pos</text>
</a>
</g>
</g>
<!-- Node1&#45;&gt;Node67 -->
<g id="edge20" class="edge">
<title>Node1&#45;&gt;Node67</title>
<path fill="none" stroke="midnightblue" d="M341.08,-332.22C333.92,-296.8 314.06,-222.39 268,-181 259.98,-173.79 249.18,-169.31 239.05,-166.53"/>
<polygon fill="midnightblue" stroke="midnightblue" points="337.68,-333.08 342.97,-342.26 344.56,-331.78 337.68,-333.08"/>
</g>
<!-- Node68 -->
<g id="node17" class="node">
<title>Node68</title>
<g id="a_node17"><a xlink:href="coordinates_8cpp.html#a8473fa1efe21e24084f708ed9e9df38e" target="_top" xlink:title=" ">
<polygon fill="white" stroke="red" points="179.5,-114.5 179.5,-133.5 237.5,-133.5 237.5,-114.5 179.5,-114.5"/>
<text text-anchor="middle" x="208.5" y="-121.5" font-family="Helvetica,sans-Serif" font-size="10.00">pos2enu</text>
</a>
</g>
</g>
<!-- Node1&#45;&gt;Node68 -->
<g id="edge21" class="edge">
<title>Node1&#45;&gt;Node68</title>
<path fill="none" stroke="midnightblue" d="M342.88,-331.93C338.49,-290.65 322.67,-195.7 268,-143 259.77,-135.07 248.2,-130.45 237.52,-127.76"/>
<polygon fill="midnightblue" stroke="midnightblue" points="339.42,-332.45 343.84,-342.07 346.39,-331.79 339.42,-332.45"/>
</g>
<!-- Node80 -->
<g id="node18" class="node">
<title>Node80</title>
<g id="a_node18"><a xlink:href="tropGPT2_8cpp.html#a5653656bdc62fbfcc53b5ea4ac625fa0" target="_top" xlink:title="Troposphere zenith hydrastatic delay and mapping function.">
<polygon fill="white" stroke="red" points="177.5,-76.5 177.5,-95.5 239.5,-95.5 239.5,-76.5 177.5,-76.5"/>
<text text-anchor="middle" x="208.5" y="-83.5" font-family="Helvetica,sans-Serif" font-size="10.00">tropGPT2</text>
</a>
</g>
</g>
<!-- Node1&#45;&gt;Node80 -->
<g id="edge23" class="edge">
<title>Node1&#45;&gt;Node80</title>
<path fill="none" stroke="midnightblue" d="M344.22,-332.21C342.48,-285.9 331.65,-169.52 268,-105 260.43,-97.32 249.72,-92.74 239.54,-90.02"/>
<polygon fill="midnightblue" stroke="midnightblue" points="340.73,-332.5 344.49,-342.4 347.73,-332.31 340.73,-332.5"/>
</g>
<!-- Node81 -->
<g id="node19" class="node">
<title>Node81</title>
<g id="a_node19"><a xlink:href="tropSAAS_8cpp.html#a1d3b00af7bf0b5ded35bb5efd1602f38" target="_top" xlink:title=" ">
<polygon fill="white" stroke="red" points="177.5,-38.5 177.5,-57.5 239.5,-57.5 239.5,-38.5 177.5,-38.5"/>
<text text-anchor="middle" x="208.5" y="-45.5" font-family="Helvetica,sans-Serif" font-size="10.00">tropSAAS</text>
</a>
</g>
</g>
<!-- Node1&#45;&gt;Node81 -->
<g id="edge24" class="edge">
<title>Node1&#45;&gt;Node81</title>
<path fill="none" stroke="midnightblue" d="M345.2,-332.33C345.92,-281.34 340.64,-143.5 268,-67 260.57,-59.18 249.9,-54.57 239.7,-51.86"/>
<polygon fill="midnightblue" stroke="midnightblue" points="341.7,-332.27 344.96,-342.35 348.7,-332.44 341.7,-332.27"/>
</g>
<!-- Node84 -->
<g id="node20" class="node">
<title>Node84</title>
<g id="a_node20"><a xlink:href="tropSBAS_8cpp.html#ad65c38914aa6333618890e8ad1aa3256" target="_top" xlink:title=" ">
<polygon fill="white" stroke="red" points="177.5,-0.5 177.5,-19.5 239.5,-19.5 239.5,-0.5 177.5,-0.5"/>
<text text-anchor="middle" x="208.5" y="-7.5" font-family="Helvetica,sans-Serif" font-size="10.00">tropSBAS</text>
</a>
</g>
</g>
<!-- Node1&#45;&gt;Node84 -->
<g id="edge25" class="edge">
<title>Node1&#45;&gt;Node84</title>
<path fill="none" stroke="midnightblue" d="M342.34,-332.17C335.1,-269.04 309.73,-74.28 268,-29 260.62,-20.99 249.83,-16.35 239.53,-13.66"/>
<polygon fill="midnightblue" stroke="midnightblue" points="338.89,-332.81 343.48,-342.36 345.85,-332.03 338.89,-332.81"/>
</g>
<!-- Node2&#45;&gt;Node3 -->
<g id="edge2" class="edge">
<title>Node2&#45;&gt;Node3</title>
<path fill="none" stroke="midnightblue" d="M167.87,-699.02C147.3,-701.63 122.11,-704.82 101,-707.49"/>
<polygon fill="midnightblue" stroke="midnightblue" points="168.38,-702.48 177.86,-697.75 167.5,-695.54 168.38,-702.48"/>
</g>
<!-- Node2&#45;&gt;Node14 -->
<g id="edge3" class="edge">
<title>Node2&#45;&gt;Node14</title>
<path fill="none" stroke="midnightblue" d="M167.78,-688.97C148.25,-686.5 124.59,-683.5 104.2,-680.92"/>
<polygon fill="midnightblue" stroke="midnightblue" points="167.5,-692.46 177.86,-690.25 168.38,-685.52 167.5,-692.46"/>
</g>
<!-- Node2&#45;&gt;Node27 -->
<g id="edge4" class="edge">
<title>Node2&#45;&gt;Node27</title>
<path fill="none" stroke="midnightblue" d="M174.55,-680.54C152.21,-671.45 124.69,-660.35 113,-656 104.41,-652.8 95,-649.51 86.41,-646.58"/>
<polygon fill="midnightblue" stroke="midnightblue" points="173.48,-683.88 184.06,-684.41 176.12,-677.4 173.48,-683.88"/>
</g>
<!-- Node39&#45;&gt;Node40 -->
<g id="edge9" class="edge">
<title>Node39&#45;&gt;Node40</title>
<path fill="none" stroke="midnightblue" d="M159.02,-529.67C155.44,-527.76 152.05,-525.55 149,-523 94.51,-477.41 67.69,-390.81 59.94,-361.77"/>
<polygon fill="midnightblue" stroke="midnightblue" points="157.65,-532.89 168.2,-533.85 160.55,-526.52 157.65,-532.89"/>
</g>
<!-- Node45&#45;&gt;Node38 -->
<g id="edge11" class="edge">
<title>Node45&#45;&gt;Node38</title>
<path fill="none" stroke="midnightblue" d="M149.02,-504C132.37,-504 114.57,-504 99.14,-504"/>
<polygon fill="midnightblue" stroke="midnightblue" points="149.21,-507.5 159.21,-504 149.21,-500.5 149.21,-507.5"/>
</g>
<!-- Node68&#45;&gt;Node38 -->
<g id="edge22" class="edge">
<title>Node68&#45;&gt;Node38</title>
<path fill="none" stroke="midnightblue" d="M169.42,-129.75C161.69,-132.58 154.31,-136.78 149,-143 82.39,-221.02 140.95,-272.29 113,-371 99.43,-418.91 73.42,-472.7 62.51,-494.28"/>
<polygon fill="midnightblue" stroke="midnightblue" points="170.66,-133.03 179.26,-126.84 168.68,-126.31 170.66,-133.03"/>
</g>
</g>
</svg>
        <g id="navigator" transform="translate(0 0)" fill="#404254">
                <rect fill="#f2f5e9" fill-opacity="0.5" stroke="#606060" stroke-width=".5" x="0" y="0" width="60" height="60"/>
                <use id="zoomplus" xlink:href="#zoomPlus" x="17" y="9" onmousedown="handleZoom(evt,'in')"/>
                <use id="zoomminus" xlink:href="#zoomMin" x="42" y="9" onmousedown="handleZoom(evt,'out')"/>
                <use id="reset" xlink:href="#resetDef" x="30" y="36" onmousedown="handleReset()"/>
                <g id="arrowUp" xlink:href="#dirArrow" transform="translate(30 24)" onmousedown="handlePan(0,-1)">
                  <use xlink:href="#rim" fill="#404040">
                        <set attributeName="fill" to="#808080" begin="arrowUp.mouseover" end="arrowUp.mouseout"/>
                  </use>
                  <path fill="none" stroke="white" stroke-width="1.5" d="M0,-3.0v7 M-2.5,-0.5L0,-3.0L2.5,-0.5"/>
                </g>
                <g id="arrowRight" xlink:href="#dirArrow" transform="rotate(90) translate(36 -43)" onmousedown="handlePan(1,0)">
                  <use xlink:href="#rim" fill="#404040">
                        <set attributeName="fill" to="#808080" begin="arrowRight.mouseover" end="arrowRight.mouseout"/>
                  </use>
                  <path fill="none" stroke="white" stroke-width="1.5" d="M0,-3.0v7 M-2.5,-0.5L0,-3.0L2.5,-0.5"/>
                </g>
                <g id="arrowDown" xlink:href="#dirArrow" transform="rotate(180) translate(-30 -48)" onmousedown="handlePan(0,1)">
                  <use xlink:href="#rim" fill="#404040">
                        <set attributeName="fill" to="#808080" begin="arrowDown.mouseover" end="arrowDown.mouseout"/>
                  </use>
                  <path fill="none" stroke="white" stroke-width="1.5" d="M0,-3.0v7 M-2.5,-0.5L0,-3.0L2.5,-0.5"/>
                </g>
                <g id="arrowLeft" xlink:href="#dirArrow" transform="rotate(270) translate(-36 17)" onmousedown="handlePan(-1,0)">
                  <use xlink:href="#rim" fill="#404040">
                        <set attributeName="fill" to="#808080" begin="arrowLeft.mouseover" end="arrowLeft.mouseout"/>
                  </use>
                  <path fill="none" stroke="white" stroke-width="1.5" d="M0,-3.0v7 M-2.5,-0.5L0,-3.0L2.5,-0.5"/>
                </g>
        </g>
        <svg viewBox="0 0 15 15" width="100%" height="30px" preserveAspectRatio="xMaxYMin meet">
         <g id="arrow_out" transform="scale(0.3 0.3)">
          <a xlink:href="structVectorPos_a63e862a389b3548bc5b4aedabd94540b_icgraph_org.svg" target="_base">
           <rect id="button" ry="5" rx="5" y="6" x="6" height="38" width="38"
                fill="#f2f5e9" fill-opacity="0.5" stroke="#606060" stroke-width="1.0"/>
           <path id="arrow"
             d="M 11.500037,31.436501 C 11.940474,20.09759 22.043105,11.32322 32.158766,21.979434 L 37.068811,17.246167 C 37.068811,17.246167 37.088388,32 37.088388,32 L 22.160133,31.978069 C 22.160133,31.978069 26.997745,27.140456 26.997745,27.140456 C 18.528582,18.264221 13.291696,25.230495 11.500037,31.436501 z"
             style="fill:#404040;"/>
          </a>
         </g>
        </svg>
</svg>
