<?xml version="1.0" encoding="UTF-8" standalone="no"?>
<!DOCTYPE svg PUBLIC "-//W3C//DTD SVG 1.1//EN"
 "http://www.w3.org/Graphics/SVG/1.1/DTD/svg11.dtd">
<!-- Generated by graphviz version 2.43.0 (0)
 -->
<!-- Title: IERS2010::doodson Pages: 1 -->
<svg width="495pt" height="91pt"
 viewBox="0.00 0.00 495.00 90.50" xmlns="http://www.w3.org/2000/svg" xmlns:xlink="http://www.w3.org/1999/xlink">
<g id="graph0" class="graph" transform="scale(1 1) rotate(0) translate(4 86.5)">
<title>IERS2010::doodson</title>
<polygon fill="white" stroke="transparent" points="-4,4 -4,-86.5 491,-86.5 491,4 -4,4"/>
<!-- Node1 -->
<g id="node1" class="node">
<title>Node1</title>
<g id="a_node1"><a xlink:title=" ">
<polygon fill="#bfbfbf" stroke="black" points="377,-25 377,-44 487,-44 487,-25 377,-25"/>
<text text-anchor="middle" x="432" y="-32" font-family="Helvetica,sans-Serif" font-size="10.00">IERS2010::doodson</text>
</a>
</g>
</g>
<!-- Node2 -->
<g id="node2" class="node">
<title>Node2</title>
<g id="a_node2"><a xlink:href="structFrameSwapper.html#aebb17ff4787dc58070de473053c4825d" target="_top" xlink:title=" ">
<polygon fill="white" stroke="black" points="173,-63 173,-82 341,-82 341,-63 173,-63"/>
<text text-anchor="middle" x="257" y="-70" font-family="Helvetica,sans-Serif" font-size="10.00">FrameSwapper::FrameSwapper</text>
</a>
</g>
</g>
<!-- Node1&#45;&gt;Node2 -->
<g id="edge1" class="edge">
<title>Node1&#45;&gt;Node2</title>
<path fill="none" stroke="midnightblue" d="M377.49,-46.25C353.03,-51.63 324.43,-57.91 301.34,-62.98"/>
<polygon fill="midnightblue" stroke="midnightblue" points="378.33,-49.65 387.34,-44.09 376.83,-42.82 378.33,-49.65"/>
</g>
<!-- Node3 -->
<g id="node3" class="node">
<title>Node3</title>
<g id="a_node3"><a xlink:href="structIERS2010.html#a235f709d37da714e34d2545e5e2ef4ab" target="_top" xlink:title=" ">
<polygon fill="white" stroke="black" points="185,-25 185,-44 329,-44 329,-25 185,-25"/>
<text text-anchor="middle" x="257" y="-32" font-family="Helvetica,sans-Serif" font-size="10.00">IERS2010::solidEarthTide2</text>
</a>
</g>
</g>
<!-- Node1&#45;&gt;Node3 -->
<g id="edge2" class="edge">
<title>Node1&#45;&gt;Node3</title>
<path fill="none" stroke="midnightblue" d="M366.66,-34.5C354.45,-34.5 341.62,-34.5 329.22,-34.5"/>
<polygon fill="midnightblue" stroke="midnightblue" points="366.74,-38 376.74,-34.5 366.74,-31 366.74,-38"/>
</g>
<!-- Node4 -->
<g id="node4" class="node">
<title>Node4</title>
<g id="a_node4"><a xlink:href="structOrbitIntegrator.html#a58c972cf5ddac52358ccbd8f7c34b9cc" target="_top" xlink:title=" ">
<polygon fill="white" stroke="red" points="0,-0.5 0,-30.5 137,-30.5 137,-0.5 0,-0.5"/>
<text text-anchor="start" x="8" y="-18.5" font-family="Helvetica,sans-Serif" font-size="10.00">OrbitIntegrator::compute</text>
<text text-anchor="middle" x="68.5" y="-7.5" font-family="Helvetica,sans-Serif" font-size="10.00">Common</text>
</a>
</g>
</g>
<!-- Node1&#45;&gt;Node4 -->
<g id="edge4" class="edge">
<title>Node1&#45;&gt;Node4</title>
<path fill="none" stroke="midnightblue" d="M384.64,-22.79C370.7,-19.79 355.31,-16.99 341,-15.5 271.85,-8.28 192.25,-9.38 137.21,-11.61"/>
<polygon fill="midnightblue" stroke="midnightblue" points="383.97,-26.23 394.49,-24.99 385.5,-19.39 383.97,-26.23"/>
</g>
<!-- Node3&#45;&gt;Node4 -->
<g id="edge3" class="edge">
<title>Node3&#45;&gt;Node4</title>
<path fill="none" stroke="midnightblue" d="M174.96,-26.24C162.38,-24.96 149.51,-23.65 137.27,-22.4"/>
<polygon fill="midnightblue" stroke="midnightblue" points="174.66,-29.73 184.96,-27.26 175.37,-22.77 174.66,-29.73"/>
</g>
</g>
</svg>
