<?xml version="1.0" encoding="UTF-8" standalone="no"?>
<!DOCTYPE svg PUBLIC "-//W3C//DTD SVG 1.1//EN"
 "http://www.w3.org/Graphics/SVG/1.1/DTD/svg11.dtd">
<!-- Generated by graphviz version 2.43.0 (0)
 -->
<!-- Title: KFState::addKFState Pages: 1 -->
<svg width="427pt" height="280pt"
 viewBox="0.00 0.00 427.00 279.88" xmlns="http://www.w3.org/2000/svg" xmlns:xlink="http://www.w3.org/1999/xlink">
<g id="graph0" class="graph" transform="scale(1 1) rotate(0) translate(4 275.88)">
<title>KFState::addKFState</title>
<polygon fill="white" stroke="transparent" points="-4,4 -4,-275.88 423,-275.88 423,4 -4,4"/>
<!-- Node1 -->
<g id="node1" class="node">
<title>Node1</title>
<g id="a_node1"><a xlink:title="Tries to add a state to the filter object.">
<polygon fill="#bfbfbf" stroke="black" points="302,-119.38 302,-138.38 419,-138.38 419,-119.38 302,-119.38"/>
<text text-anchor="middle" x="360.5" y="-126.38" font-family="Helvetica,sans-Serif" font-size="10.00">KFState::addKFState</text>
</a>
</g>
</g>
<!-- Node2 -->
<g id="node2" class="node">
<title>Node2</title>
<g id="a_node2"><a xlink:href="structKFState.html#ac22e4d7ea8f3299c998dedbff1effb97" target="_top" xlink:title=" ">
<polygon fill="white" stroke="red" points="132,-252.38 132,-271.38 263,-271.38 263,-252.38 132,-252.38"/>
<text text-anchor="middle" x="197.5" y="-259.38" font-family="Helvetica,sans-Serif" font-size="10.00">KFState::setAccelerator</text>
</a>
</g>
</g>
<!-- Node1&#45;&gt;Node2 -->
<g id="edge1" class="edge">
<title>Node1&#45;&gt;Node2</title>
<path fill="none" stroke="midnightblue" d="M354.37,-138.5C342.14,-160.5 309.06,-214.72 266,-242.88 260.09,-246.74 253.39,-249.83 246.57,-252.3"/>
</g>
<!-- Node8 -->
<g id="node3" class="node">
<title>Node8</title>
<g id="a_node3"><a xlink:href="structKFState.html#aca3d8484dbabdecee93352e625c96ed1" target="_top" xlink:title="Adds dynamics to a filter state by inserting off&#45;diagonal, non&#45;time dependent elements to transition ...">
<polygon fill="white" stroke="red" points="140,-214.38 140,-233.38 255,-233.38 255,-214.38 140,-214.38"/>
<text text-anchor="middle" x="197.5" y="-221.38" font-family="Helvetica,sans-Serif" font-size="10.00">KFState::setKFTrans</text>
</a>
</g>
</g>
<!-- Node1&#45;&gt;Node8 -->
<g id="edge2" class="edge">
<title>Node1&#45;&gt;Node8</title>
<path fill="none" stroke="midnightblue" d="M350.35,-138.54C334.61,-154.62 300.73,-186.87 266,-204.88 258.65,-208.69 250.44,-211.82 242.35,-214.35"/>
</g>
<!-- Node18 -->
<g id="node4" class="node">
<title>Node18</title>
<g id="a_node4"><a xlink:href="structKFState.html#a33ad852c99520415337196b0c62f0909" target="_top" xlink:title="Adds dynamics to a filter state by inserting off&#45;diagonal, time dependent elements to transition matr...">
<polygon fill="white" stroke="red" points="129,-176.38 129,-195.38 266,-195.38 266,-176.38 129,-176.38"/>
<text text-anchor="middle" x="197.5" y="-183.38" font-family="Helvetica,sans-Serif" font-size="10.00">KFState::setKFTransRate</text>
</a>
</g>
</g>
<!-- Node1&#45;&gt;Node18 -->
<g id="edge3" class="edge">
<title>Node1&#45;&gt;Node18</title>
<path fill="none" stroke="midnightblue" d="M337.85,-138.48C319.06,-146.62 291.03,-158.3 266,-166.88 256.1,-170.27 245.23,-173.53 235.16,-176.36"/>
</g>
<!-- Node23 -->
<g id="node5" class="node">
<title>Node23</title>
<g id="a_node5"><a xlink:href="ppp__pseudoobs_8cpp.html#a7d44bfc5636f42952bed064438699ba7" target="_top" xlink:title=" ">
<polygon fill="white" stroke="red" points="3.5,-157.38 3.5,-176.38 89.5,-176.38 89.5,-157.38 3.5,-157.38"/>
<text text-anchor="middle" x="46.5" y="-164.38" font-family="Helvetica,sans-Serif" font-size="10.00">initPseudoObs</text>
</a>
</g>
</g>
<!-- Node1&#45;&gt;Node23 -->
<g id="edge11" class="edge">
<title>Node1&#45;&gt;Node23</title>
<path fill="none" stroke="midnightblue" d="M351.76,-119.25C337.17,-101.97 303.65,-66.25 266,-52.88 208.62,-32.5 179.11,-18.28 129,-52.88 91.84,-78.53 124.39,-115.42 93,-147.88 89.31,-151.69 84.74,-154.77 79.93,-157.25"/>
</g>
<!-- Node24 -->
<g id="node6" class="node">
<title>Node24</title>
<g id="a_node6"><a xlink:href="ppp__pseudoobs_8cpp.html#a949a10f89de8232ebeb49ad5d912ba80" target="_top" xlink:title=" ">
<polygon fill="white" stroke="red" points="0,-119.38 0,-138.38 93,-138.38 93,-119.38 0,-119.38"/>
<text text-anchor="middle" x="46.5" y="-126.38" font-family="Helvetica,sans-Serif" font-size="10.00">orbitPseudoObs</text>
</a>
</g>
</g>
<!-- Node1&#45;&gt;Node24 -->
<g id="edge12" class="edge">
<title>Node1&#45;&gt;Node24</title>
<path fill="none" stroke="midnightblue" d="M354.88,-119.18C343.52,-96.62 311.76,-40.91 266,-19.88 210.68,5.55 183.44,7.39 129,-19.88 86.33,-41.26 60.25,-96.76 51.15,-119.23"/>
</g>
<!-- Node26 -->
<g id="node7" class="node">
<title>Node26</title>
<g id="a_node7"><a xlink:href="orbitProp_8cpp.html#a91e0d42d2968da7ac434bf2dc8ff526f" target="_top" xlink:title=" ">
<polygon fill="white" stroke="red" points="140,-138.38 140,-157.38 255,-157.38 255,-138.38 140,-138.38"/>
<text text-anchor="middle" x="197.5" y="-145.38" font-family="Helvetica,sans-Serif" font-size="10.00">addKFSatEMPStates</text>
</a>
</g>
</g>
<!-- Node1&#45;&gt;Node26 -->
<g id="edge6" class="edge">
<title>Node1&#45;&gt;Node26</title>
<path fill="none" stroke="midnightblue" d="M301.83,-135.68C286.67,-137.47 270.34,-139.4 255.23,-141.18"/>
</g>
<!-- Node27 -->
<g id="node8" class="node">
<title>Node27</title>
<g id="a_node8"><a xlink:href="ppp_8cpp.html#acaf9f9b65e2c225585368eca0023995c" target="_top" xlink:title=" ">
<polygon fill="white" stroke="red" points="144,-100.38 144,-119.38 251,-119.38 251,-100.38 144,-100.38"/>
<text text-anchor="middle" x="197.5" y="-107.38" font-family="Helvetica,sans-Serif" font-size="10.00">outputDeltaClocks</text>
</a>
</g>
</g>
<!-- Node1&#45;&gt;Node27 -->
<g id="edge9" class="edge">
<title>Node1&#45;&gt;Node27</title>
<path fill="none" stroke="midnightblue" d="M301.83,-122.07C285.32,-120.12 267.41,-118.01 251.21,-116.1"/>
</g>
<!-- Node29 -->
<g id="node9" class="node">
<title>Node29</title>
<g id="a_node9"><a xlink:href="ppp_8cpp.html#a2819b8840bd01cf172f0bda75f89efcc" target="_top" xlink:title=" ">
<polygon fill="white" stroke="red" points="157.5,-62.38 157.5,-81.38 237.5,-81.38 237.5,-62.38 157.5,-62.38"/>
<text text-anchor="middle" x="197.5" y="-69.38" font-family="Helvetica,sans-Serif" font-size="10.00">outputApriori</text>
</a>
</g>
</g>
<!-- Node1&#45;&gt;Node29 -->
<g id="edge10" class="edge">
<title>Node1&#45;&gt;Node29</title>
<path fill="none" stroke="midnightblue" d="M337.85,-119.27C319.06,-111.14 291.03,-99.46 266,-90.88 256.1,-87.48 245.23,-84.23 235.16,-81.4"/>
</g>
<!-- Node18&#45;&gt;Node23 -->
<g id="edge4" class="edge">
<title>Node18&#45;&gt;Node23</title>
<path fill="none" stroke="midnightblue" d="M128.98,-177.27C115.58,-175.56 101.88,-173.81 89.62,-172.25"/>
</g>
<!-- Node18&#45;&gt;Node24 -->
<g id="edge5" class="edge">
<title>Node18&#45;&gt;Node24</title>
<path fill="none" stroke="midnightblue" d="M157.13,-176.31C147.78,-173.62 137.93,-170.45 129,-166.88 112.2,-160.17 109.36,-155.59 93,-147.88 86.19,-144.67 78.68,-141.42 71.76,-138.54"/>
</g>
<!-- Node26&#45;&gt;Node23 -->
<g id="edge7" class="edge">
<title>Node26&#45;&gt;Node23</title>
<path fill="none" stroke="midnightblue" d="M139.74,-155.12C123.13,-157.23 105.27,-159.51 89.73,-161.49"/>
</g>
<!-- Node26&#45;&gt;Node24 -->
<g id="edge8" class="edge">
<title>Node26&#45;&gt;Node24</title>
<path fill="none" stroke="midnightblue" d="M139.74,-140.64C124.45,-138.69 108.09,-136.6 93.46,-134.74"/>
</g>
</g>
</svg>
