<?xml version="1.0" encoding="UTF-8" standalone="no"?>
<!DOCTYPE svg PUBLIC "-//W3C//DTD SVG 1.1//EN"
 "http://www.w3.org/Graphics/SVG/1.1/DTD/svg11.dtd">
<!-- Generated by graphviz version 2.43.0 (0)
 -->
<!-- Title: NetworkStatistics Pages: 1 -->
<svg width="357pt" height="479pt"
 viewBox="0.00 0.00 357.00 479.00" xmlns="http://www.w3.org/2000/svg" xmlns:xlink="http://www.w3.org/1999/xlink">
<g id="graph0" class="graph" transform="scale(1 1) rotate(0) translate(4 475)">
<title>NetworkStatistics</title>
<polygon fill="white" stroke="transparent" points="-4,4 -4,-475 353,-475 353,4 -4,4"/>
<!-- Node1 -->
<g id="node1" class="node">
<title>Node1</title>
<g id="a_node1"><a xlink:title=" ">
<polygon fill="#bfbfbf" stroke="black" points="83,-0.5 83,-145.5 251,-145.5 251,-0.5 83,-0.5"/>
<text text-anchor="middle" x="167" y="-133.5" font-family="Helvetica,sans-Serif" font-size="10.00">NetworkStatistics</text>
<polyline fill="none" stroke="black" points="83,-126.5 251,-126.5 "/>
<text text-anchor="start" x="91" y="-114.5" font-family="Helvetica,sans-Serif" font-size="10.00">+ connectCount</text>
<text text-anchor="start" x="91" y="-103.5" font-family="Helvetica,sans-Serif" font-size="10.00">+ disconnectCount</text>
<text text-anchor="start" x="91" y="-92.5" font-family="Helvetica,sans-Serif" font-size="10.00">+ chunksSent</text>
<text text-anchor="start" x="91" y="-81.5" font-family="Helvetica,sans-Serif" font-size="10.00">+ chunksReceived</text>
<polyline fill="none" stroke="black" points="83,-74.5 251,-74.5 "/>
<text text-anchor="start" x="91" y="-62.5" font-family="Helvetica,sans-Serif" font-size="10.00">+ getNetworkStatistics()</text>
<text text-anchor="start" x="91" y="-51.5" font-family="Helvetica,sans-Serif" font-size="10.00">+ onConnectedStatistics()</text>
<text text-anchor="start" x="91" y="-40.5" font-family="Helvetica,sans-Serif" font-size="10.00">+ onDisconnectedStatistics()</text>
<text text-anchor="start" x="91" y="-29.5" font-family="Helvetica,sans-Serif" font-size="10.00">+ onChunkSentStatistics()</text>
<text text-anchor="start" x="91" y="-18.5" font-family="Helvetica,sans-Serif" font-size="10.00">+ onChunkReceivedStatistics()</text>
<text text-anchor="start" x="91" y="-7.5" font-family="Helvetica,sans-Serif" font-size="10.00">+ onErrorStatistics()</text>
</a>
</g>
</g>
<!-- Node2 -->
<g id="node2" class="node">
<title>Node2</title>
<g id="a_node2"><a xlink:title=" ">
<polygon fill="white" stroke="black" points="0,-309 0,-366 44,-366 44,-309 0,-309"/>
<text text-anchor="middle" x="22" y="-354" font-family="Helvetica,sans-Serif" font-size="10.00">string</text>
<polyline fill="none" stroke="black" points="0,-347 44,-347 "/>
<text text-anchor="middle" x="22" y="-335" font-family="Helvetica,sans-Serif" font-size="10.00"> </text>
<polyline fill="none" stroke="black" points="0,-328 44,-328 "/>
<text text-anchor="middle" x="22" y="-316" font-family="Helvetica,sans-Serif" font-size="10.00"> </text>
</a>
</g>
</g>
<!-- Node2&#45;&gt;Node1 -->
<g id="edge1" class="edge">
<title>Node2&#45;&gt;Node1</title>
<path fill="none" stroke="#404040" d="M18.47,-308.97C15.25,-273.03 14.42,-209.36 41,-164 51.26,-146.49 66.43,-131.48 82.72,-119.02"/>
<text text-anchor="middle" x="102" y="-178" font-family="Helvetica,sans-Serif" font-size="10.00"> +networkTraceFilename</text>
<text text-anchor="middle" x="102" y="-167" font-family="Helvetica,sans-Serif" font-size="10.00">+streamName</text>
</g>
<!-- Node3 -->
<g id="node3" class="node">
<title>Node3</title>
<g id="a_node3"><a xlink:href="$structGTime.html" xlink:title="Time structure used throughout this software.">
<polygon fill="white" stroke="black" points="110.5,-204.5 110.5,-470.5 223.5,-470.5 223.5,-204.5 110.5,-204.5"/>
<text text-anchor="middle" x="167" y="-458.5" font-family="Helvetica,sans-Serif" font-size="10.00">GTime</text>
<polyline fill="none" stroke="black" points="110.5,-451.5 223.5,-451.5 "/>
<text text-anchor="start" x="118.5" y="-439.5" font-family="Helvetica,sans-Serif" font-size="10.00">+ time</text>
<text text-anchor="start" x="118.5" y="-428.5" font-family="Helvetica,sans-Serif" font-size="10.00">+ sec</text>
<polyline fill="none" stroke="black" points="110.5,-421.5 223.5,-421.5 "/>
<text text-anchor="start" x="118.5" y="-409.5" font-family="Helvetica,sans-Serif" font-size="10.00">+ to_string()</text>
<text text-anchor="start" x="118.5" y="-398.5" font-family="Helvetica,sans-Serif" font-size="10.00">+ operator==()</text>
<text text-anchor="start" x="118.5" y="-387.5" font-family="Helvetica,sans-Serif" font-size="10.00">+ operator!=()</text>
<text text-anchor="start" x="118.5" y="-376.5" font-family="Helvetica,sans-Serif" font-size="10.00">+ operator&lt;()</text>
<text text-anchor="start" x="118.5" y="-365.5" font-family="Helvetica,sans-Serif" font-size="10.00">+ operator&gt;()</text>
<text text-anchor="start" x="118.5" y="-354.5" font-family="Helvetica,sans-Serif" font-size="10.00">+ operator+()</text>
<text text-anchor="start" x="118.5" y="-343.5" font-family="Helvetica,sans-Serif" font-size="10.00">+ operator+()</text>
<text text-anchor="start" x="118.5" y="-332.5" font-family="Helvetica,sans-Serif" font-size="10.00">+ operator+=()</text>
<text text-anchor="start" x="118.5" y="-321.5" font-family="Helvetica,sans-Serif" font-size="10.00">+ operator&#45;()</text>
<text text-anchor="start" x="118.5" y="-310.5" font-family="Helvetica,sans-Serif" font-size="10.00">+ operator&#45;()</text>
<text text-anchor="start" x="118.5" y="-299.5" font-family="Helvetica,sans-Serif" font-size="10.00">+ operator double()</text>
<text text-anchor="start" x="118.5" y="-288.5" font-family="Helvetica,sans-Serif" font-size="10.00">+ operator++()</text>
<text text-anchor="start" x="118.5" y="-277.5" font-family="Helvetica,sans-Serif" font-size="10.00">+ to_ptime()</text>
<text text-anchor="start" x="118.5" y="-266.5" font-family="Helvetica,sans-Serif" font-size="10.00">+ GTime()</text>
<text text-anchor="start" x="118.5" y="-255.5" font-family="Helvetica,sans-Serif" font-size="10.00">+ GTime()</text>
<text text-anchor="start" x="118.5" y="-244.5" font-family="Helvetica,sans-Serif" font-size="10.00">+ GTime()</text>
<text text-anchor="start" x="118.5" y="-233.5" font-family="Helvetica,sans-Serif" font-size="10.00">+ serialize()</text>
<text text-anchor="start" x="118.5" y="-222.5" font-family="Helvetica,sans-Serif" font-size="10.00">+ roundTime()</text>
<text text-anchor="start" x="118.5" y="-211.5" font-family="Helvetica,sans-Serif" font-size="10.00">+ noTime()</text>
</a>
</g>
</g>
<!-- Node3&#45;&gt;Node1 -->
<g id="edge2" class="edge">
<title>Node3&#45;&gt;Node1</title>
<path fill="none" stroke="#404040" d="M167,-204.48C167,-184.18 167,-163.91 167,-145.6"/>
<text text-anchor="middle" x="194.5" y="-178" font-family="Helvetica,sans-Serif" font-size="10.00"> +endTime</text>
<text text-anchor="middle" x="194.5" y="-167" font-family="Helvetica,sans-Serif" font-size="10.00">+startTime</text>
</g>
<!-- Node4 -->
<g id="node4" class="node">
<title>Node4</title>
<g id="a_node4"><a xlink:title=" ">
<polygon fill="white" stroke="black" points="241.5,-309 241.5,-366 326.5,-366 326.5,-309 241.5,-309"/>
<text text-anchor="middle" x="284" y="-354" font-family="Helvetica,sans-Serif" font-size="10.00">time_duration</text>
<polyline fill="none" stroke="black" points="241.5,-347 326.5,-347 "/>
<text text-anchor="middle" x="284" y="-335" font-family="Helvetica,sans-Serif" font-size="10.00"> </text>
<polyline fill="none" stroke="black" points="241.5,-328 326.5,-328 "/>
<text text-anchor="middle" x="284" y="-316" font-family="Helvetica,sans-Serif" font-size="10.00"> </text>
</a>
</g>
</g>
<!-- Node4&#45;&gt;Node1 -->
<g id="edge3" class="edge">
<title>Node4&#45;&gt;Node1</title>
<path fill="none" stroke="#404040" d="M277.04,-308.76C267.77,-273.95 249.75,-212.88 226,-164 223.02,-157.87 219.69,-151.65 216.17,-145.51"/>
<text text-anchor="middle" x="291.5" y="-178" font-family="Helvetica,sans-Serif" font-size="10.00"> +connectedDuration</text>
<text text-anchor="middle" x="291.5" y="-167" font-family="Helvetica,sans-Serif" font-size="10.00">+disconnectedDuration</text>
</g>
</g>
</svg>
