<?xml version="1.0" encoding="UTF-8" standalone="no"?>
<!DOCTYPE svg PUBLIC "-//W3C//DTD SVG 1.1//EN"
 "http://www.w3.org/Graphics/SVG/1.1/DTD/svg11.dtd">
<!-- Generated by graphviz version 2.43.0 (0)
 -->
<!-- Title: OrbitIntegrator::computeAcceleration Pages: 1 -->
<svg width="434pt" height="408pt"
 viewBox="0.00 0.00 434.00 408.00" xmlns="http://www.w3.org/2000/svg" xmlns:xlink="http://www.w3.org/1999/xlink">
<g id="graph0" class="graph" transform="scale(1 1) rotate(0) translate(4 404)">
<title>OrbitIntegrator::computeAcceleration</title>
<polygon fill="white" stroke="transparent" points="-4,4 -4,-404 430,-404 430,4 -4,4"/>
<!-- Node1 -->
<g id="node1" class="node">
<title>Node1</title>
<g id="a_node1"><a xlink:title=" ">
<polygon fill="#bfbfbf" stroke="black" points="0,-185 0,-215 137,-215 137,-185 0,-185"/>
<text text-anchor="start" x="8" y="-203" font-family="Helvetica,sans-Serif" font-size="10.00">OrbitIntegrator::compute</text>
<text text-anchor="middle" x="68.5" y="-192" font-family="Helvetica,sans-Serif" font-size="10.00">Acceleration</text>
</a>
</g>
</g>
<!-- Node2 -->
<g id="node2" class="node">
<title>Node2</title>
<g id="a_node2"><a xlink:href="trace_8hpp.html#af5320371d0f15d74154b2b32d315684d" target="_top" xlink:title=" ">
<polygon fill="white" stroke="black" points="192,-380.5 192,-399.5 267,-399.5 267,-380.5 192,-380.5"/>
<text text-anchor="middle" x="229.5" y="-387.5" font-family="Helvetica,sans-Serif" font-size="10.00">getTraceFile</text>
</a>
</g>
</g>
<!-- Node1&#45;&gt;Node2 -->
<g id="edge1" class="edge">
<title>Node1&#45;&gt;Node2</title>
<path fill="none" stroke="midnightblue" d="M75.38,-215.43C88.34,-247.58 122.29,-322.35 173,-366 177.54,-369.9 182.8,-373.26 188.25,-376.12"/>
<polygon fill="midnightblue" stroke="midnightblue" points="186.96,-379.38 197.5,-380.47 189.94,-373.04 186.96,-379.38"/>
</g>
<!-- Node3 -->
<g id="node3" class="node">
<title>Node3</title>
<g id="a_node3"><a xlink:href="acceleration_8cpp.html#a4b560ff1ca9df0d6b36daf2674ae37d3" target="_top" xlink:title="Central force acceleration.">
<polygon fill="white" stroke="black" points="322,-323.5 322,-342.5 426,-342.5 426,-323.5 322,-323.5"/>
<text text-anchor="middle" x="374" y="-330.5" font-family="Helvetica,sans-Serif" font-size="10.00">accelCentralForce</text>
</a>
</g>
</g>
<!-- Node1&#45;&gt;Node3 -->
<g id="edge2" class="edge">
<title>Node1&#45;&gt;Node3</title>
<path fill="none" stroke="midnightblue" d="M75.8,-215.24C88.86,-244.54 122.01,-308.07 173,-333 220.55,-356.25 282.38,-351.81 324.63,-344.41"/>
<polygon fill="midnightblue" stroke="midnightblue" points="325.48,-347.82 334.66,-342.54 324.19,-340.94 325.48,-347.82"/>
</g>
<!-- Node4 -->
<g id="node4" class="node">
<title>Node4</title>
<g id="a_node4"><a xlink:href="acceleration_8cpp.html#aabb45560abe7b7e087899dca129ea165" target="_top" xlink:title="Source point acceleration from a planet acting on a satellite.">
<polygon fill="white" stroke="black" points="179.5,-304.5 179.5,-323.5 279.5,-323.5 279.5,-304.5 179.5,-304.5"/>
<text text-anchor="middle" x="229.5" y="-311.5" font-family="Helvetica,sans-Serif" font-size="10.00">accelSourcePoint</text>
</a>
</g>
</g>
<!-- Node1&#45;&gt;Node4 -->
<g id="edge3" class="edge">
<title>Node1&#45;&gt;Node4</title>
<path fill="none" stroke="midnightblue" d="M82.38,-215.26C100.62,-235.97 135.89,-272.94 173,-295 176.45,-297.05 180.15,-298.92 183.94,-300.61"/>
<polygon fill="midnightblue" stroke="midnightblue" points="182.89,-303.96 193.47,-304.47 185.51,-297.47 182.89,-303.96"/>
</g>
<!-- Node5 -->
<g id="node5" class="node">
<title>Node5</title>
<g id="a_node5"><a xlink:href="acceleration_8cpp.html#a7763d67d415adb2d384e16967acaa085" target="_top" xlink:title="Compute the acceleration of due to a spherical harmonic field acting on the satellite.">
<polygon fill="white" stroke="red" points="198.5,-266.5 198.5,-285.5 260.5,-285.5 260.5,-266.5 198.5,-266.5"/>
<text text-anchor="middle" x="229.5" y="-273.5" font-family="Helvetica,sans-Serif" font-size="10.00">accelSPH</text>
</a>
</g>
</g>
<!-- Node1&#45;&gt;Node5 -->
<g id="edge5" class="edge">
<title>Node1&#45;&gt;Node5</title>
<path fill="none" stroke="midnightblue" d="M93.98,-215.07C114.57,-227.35 145.05,-244.63 173,-257 178.06,-259.24 183.48,-261.39 188.87,-263.38"/>
<polygon fill="midnightblue" stroke="midnightblue" points="187.87,-266.74 198.47,-266.78 190.21,-260.14 187.87,-266.74"/>
</g>
<!-- Node7 -->
<g id="node6" class="node">
<title>Node7</title>
<g id="a_node6"><a xlink:href="acceleration_8cpp.html#a58ec4e57210d82626bf5605188a92a22" target="_top" xlink:title="&quot;The indirect J2 effect&quot;.">
<polygon fill="white" stroke="black" points="204,-228.5 204,-247.5 255,-247.5 255,-228.5 204,-228.5"/>
<text text-anchor="middle" x="229.5" y="-235.5" font-family="Helvetica,sans-Serif" font-size="10.00">accelJ2</text>
</a>
</g>
</g>
<!-- Node1&#45;&gt;Node7 -->
<g id="edge6" class="edge">
<title>Node1&#45;&gt;Node7</title>
<path fill="none" stroke="midnightblue" d="M132.34,-215.02C153.34,-220.04 175.96,-225.44 193.98,-229.75"/>
<polygon fill="midnightblue" stroke="midnightblue" points="193.2,-233.16 203.74,-232.08 194.83,-226.35 193.2,-233.16"/>
</g>
<!-- Node8 -->
<g id="node7" class="node">
<title>Node8</title>
<g id="a_node7"><a xlink:href="structIERS2010.html#ac0665555fbdfa4fced99082dc9963d79" target="_top" xlink:title=" ">
<polygon fill="white" stroke="black" points="173,-190.5 173,-209.5 286,-209.5 286,-190.5 173,-190.5"/>
<text text-anchor="middle" x="229.5" y="-197.5" font-family="Helvetica,sans-Serif" font-size="10.00">IERS2010::relativity</text>
</a>
</g>
</g>
<!-- Node1&#45;&gt;Node8 -->
<g id="edge7" class="edge">
<title>Node1&#45;&gt;Node8</title>
<path fill="none" stroke="midnightblue" d="M137.39,-200C145.79,-200 154.37,-200 162.74,-200"/>
<polygon fill="midnightblue" stroke="midnightblue" points="162.82,-203.5 172.82,-200 162.82,-196.5 162.82,-203.5"/>
</g>
<!-- Node9 -->
<g id="node8" class="node">
<title>Node9</title>
<g id="a_node8"><a xlink:href="attitude_8cpp.html#a543fde2ca3f11becceecfce52de34cd8" target="_top" xlink:title="Calculates fraction of Sun&#39;s disk visible by spacecraft 0 = full eclipse (umbra) 0 &lt; fraction &lt; 1 = p...">
<polygon fill="white" stroke="red" points="191,-152.5 191,-171.5 268,-171.5 268,-152.5 191,-152.5"/>
<text text-anchor="middle" x="229.5" y="-159.5" font-family="Helvetica,sans-Serif" font-size="10.00">sunVisibility</text>
</a>
</g>
</g>
<!-- Node1&#45;&gt;Node9 -->
<g id="edge8" class="edge">
<title>Node1&#45;&gt;Node9</title>
<path fill="none" stroke="midnightblue" d="M132.34,-184.98C148.58,-181.1 165.78,-176.99 181.08,-173.33"/>
<polygon fill="midnightblue" stroke="midnightblue" points="181.92,-176.73 190.83,-171 180.29,-169.92 181.92,-176.73"/>
</g>
<!-- Node11 -->
<g id="node9" class="node">
<title>Node11</title>
<g id="a_node9"><a xlink:href="attitude_8cpp.html#a0584e56d2ad0d93d89079e841a6dba28" target="_top" xlink:title="Update sat nominal/model yaws.">
<polygon fill="white" stroke="red" points="186.5,-114.5 186.5,-133.5 272.5,-133.5 272.5,-114.5 186.5,-114.5"/>
<text text-anchor="middle" x="229.5" y="-121.5" font-family="Helvetica,sans-Serif" font-size="10.00">updateSatAtts</text>
</a>
</g>
</g>
<!-- Node1&#45;&gt;Node11 -->
<g id="edge9" class="edge">
<title>Node1&#45;&gt;Node11</title>
<path fill="none" stroke="midnightblue" d="M93.98,-184.93C114.57,-172.65 145.05,-155.37 173,-143 177.77,-140.89 182.85,-138.86 187.92,-136.97"/>
<polygon fill="midnightblue" stroke="midnightblue" points="189.36,-140.18 197.6,-133.52 187,-133.59 189.36,-140.18"/>
</g>
<!-- Node90 -->
<g id="node10" class="node">
<title>Node90</title>
<g id="a_node10"><a xlink:href="boxwing_8cpp.html#a0f2ed5ce271eca9d462328ef96a20804" target="_top" xlink:title=" ">
<polygon fill="white" stroke="black" points="179,-76.5 179,-95.5 280,-95.5 280,-76.5 179,-76.5"/>
<text text-anchor="middle" x="229.5" y="-83.5" font-family="Helvetica,sans-Serif" font-size="10.00">applyBoxwingSrp</text>
</a>
</g>
</g>
<!-- Node1&#45;&gt;Node90 -->
<g id="edge10" class="edge">
<title>Node1&#45;&gt;Node90</title>
<path fill="none" stroke="midnightblue" d="M82.38,-184.74C100.62,-164.03 135.89,-127.06 173,-105 176.45,-102.95 180.15,-101.08 183.94,-99.39"/>
<polygon fill="midnightblue" stroke="midnightblue" points="185.51,-102.53 193.47,-95.53 182.89,-96.04 185.51,-102.53"/>
</g>
<!-- Node13 -->
<g id="node11" class="node">
<title>Node13</title>
<g id="a_node11"><a xlink:href="structSatSys.html#aec6d07b90d1e8172b8b6a6966abef4fd" target="_top" xlink:title="Returns a std::string of this satellite&#39;s id.">
<polygon fill="white" stroke="red" points="197,-38.5 197,-57.5 262,-57.5 262,-38.5 197,-38.5"/>
<text text-anchor="middle" x="229.5" y="-45.5" font-family="Helvetica,sans-Serif" font-size="10.00">SatSys::id</text>
</a>
</g>
</g>
<!-- Node1&#45;&gt;Node13 -->
<g id="edge11" class="edge">
<title>Node1&#45;&gt;Node13</title>
<path fill="none" stroke="midnightblue" d="M77.33,-184.91C92.28,-157.52 127.51,-99.45 173,-67 177.29,-63.94 182.12,-61.33 187.09,-59.13"/>
<polygon fill="midnightblue" stroke="midnightblue" points="188.68,-62.27 196.73,-55.38 186.14,-55.75 188.68,-62.27"/>
</g>
<!-- Node91 -->
<g id="node12" class="node">
<title>Node91</title>
<g id="a_node12"><a xlink:href="coordinates_8cpp.html#a9860e0cea74eb4ca1383342104693565" target="_top" xlink:title="transform vector in body frame to ecef">
<polygon fill="white" stroke="black" points="195.5,-0.5 195.5,-19.5 263.5,-19.5 263.5,-0.5 195.5,-0.5"/>
<text text-anchor="middle" x="229.5" y="-7.5" font-family="Helvetica,sans-Serif" font-size="10.00">body2ecef</text>
</a>
</g>
</g>
<!-- Node1&#45;&gt;Node91 -->
<g id="edge12" class="edge">
<title>Node1&#45;&gt;Node91</title>
<path fill="none" stroke="midnightblue" d="M74.61,-184.79C86.51,-151.62 119.22,-72.32 173,-29 176.86,-25.89 181.26,-23.27 185.86,-21.08"/>
<polygon fill="midnightblue" stroke="midnightblue" points="187.53,-24.18 195.45,-17.14 184.87,-17.7 187.53,-24.18"/>
</g>
<!-- Node4&#45;&gt;Node3 -->
<g id="edge4" class="edge">
<title>Node4&#45;&gt;Node3</title>
<path fill="none" stroke="midnightblue" d="M279.54,-320.54C289.91,-321.92 300.98,-323.4 311.74,-324.83"/>
<polygon fill="midnightblue" stroke="midnightblue" points="311.55,-328.34 321.93,-326.19 312.48,-321.4 311.55,-328.34"/>
</g>
</g>
</svg>
