<?xml version="1.0" encoding="UTF-8" standalone="no"?>
<!DOCTYPE svg PUBLIC "-//W3C//DTD SVG 1.1//EN"
 "http://www.w3.org/Graphics/SVG/1.1/DTD/svg11.dtd">
<!-- Generated by graphviz version 2.43.0 (0)
 -->
<!-- Title: SatStat Pages: 1 -->
<svg width="410pt" height="358pt"
 viewBox="0.00 0.00 409.50 358.00" xmlns="http://www.w3.org/2000/svg" xmlns:xlink="http://www.w3.org/1999/xlink">
<g id="graph0" class="graph" transform="scale(1 1) rotate(0) translate(4 354)">
<title>SatStat</title>
<polygon fill="white" stroke="transparent" points="-4,4 -4,-354 405.5,-354 405.5,4 -4,4"/>
<!-- Node1 -->
<g id="node1" class="node">
<title>Node1</title>
<g id="a_node1"><a xlink:title="Object containing persistant status parameters of individual satellites.">
<polygon fill="#bfbfbf" stroke="black" points="109.5,-0.5 109.5,-189.5 222.5,-189.5 222.5,-0.5 109.5,-0.5"/>
<text text-anchor="middle" x="166" y="-177.5" font-family="Helvetica,sans-Serif" font-size="10.00">SatStat</text>
<polyline fill="none" stroke="black" points="109.5,-170.5 222.5,-170.5 "/>
<text text-anchor="start" x="117.5" y="-158.5" font-family="Helvetica,sans-Serif" font-size="10.00">+ phw</text>
<text text-anchor="start" x="117.5" y="-147.5" font-family="Helvetica,sans-Serif" font-size="10.00">+ mapWet</text>
<text text-anchor="start" x="117.5" y="-136.5" font-family="Helvetica,sans-Serif" font-size="10.00">+ mapWetGrads</text>
<text text-anchor="start" x="117.5" y="-125.5" font-family="Helvetica,sans-Serif" font-size="10.00">+ ionoOutageCount</text>
<text text-anchor="start" x="117.5" y="-114.5" font-family="Helvetica,sans-Serif" font-size="10.00">+ dIono</text>
<text text-anchor="start" x="117.5" y="-103.5" font-family="Helvetica,sans-Serif" font-size="10.00">+ sigmaIono</text>
<text text-anchor="start" x="117.5" y="-92.5" font-family="Helvetica,sans-Serif" font-size="10.00">+ prevSTEC</text>
<text text-anchor="start" x="117.5" y="-81.5" font-family="Helvetica,sans-Serif" font-size="10.00">+ nadir</text>
<text text-anchor="start" x="117.5" y="-70.5" font-family="Helvetica,sans-Serif" font-size="10.00">+ azel</text>
<text text-anchor="start" x="117.5" y="-59.5" font-family="Helvetica,sans-Serif" font-size="10.00">+ az</text>
<text text-anchor="start" x="117.5" y="-48.5" font-family="Helvetica,sans-Serif" font-size="10.00">+ el</text>
<text text-anchor="start" x="117.5" y="-37.5" font-family="Helvetica,sans-Serif" font-size="10.00">+ @41</text>
<text text-anchor="start" x="117.5" y="-26.5" font-family="Helvetica,sans-Serif" font-size="10.00">+ slip</text>
<polyline fill="none" stroke="black" points="109.5,-19.5 222.5,-19.5 "/>
<text text-anchor="middle" x="166" y="-7.5" font-family="Helvetica,sans-Serif" font-size="10.00"> </text>
</a>
</g>
</g>
<!-- Node2 -->
<g id="node2" class="node">
<title>Node2</title>
<g id="a_node2"><a xlink:href="structIonoStat.html" target="_top" xlink:title=" ">
<polygon fill="white" stroke="red" points="0,-248.5 0,-338.5 80,-338.5 80,-248.5 0,-248.5"/>
<text text-anchor="middle" x="40" y="-326.5" font-family="Helvetica,sans-Serif" font-size="10.00">IonoStat</text>
<polyline fill="none" stroke="red" points="0,-319.5 80,-319.5 "/>
<text text-anchor="start" x="8" y="-307.5" font-family="Helvetica,sans-Serif" font-size="10.00">+ ambvar</text>
<text text-anchor="start" x="8" y="-296.5" font-family="Helvetica,sans-Serif" font-size="10.00">+ gf_amb</text>
<text text-anchor="start" x="8" y="-285.5" font-family="Helvetica,sans-Serif" font-size="10.00">+ extiono</text>
<text text-anchor="start" x="8" y="-274.5" font-family="Helvetica,sans-Serif" font-size="10.00">+ extionovar</text>
<polyline fill="none" stroke="red" points="0,-267.5 80,-267.5 "/>
<text text-anchor="middle" x="40" y="-255.5" font-family="Helvetica,sans-Serif" font-size="10.00"> </text>
</a>
</g>
</g>
<!-- Node2&#45;&gt;Node1 -->
<g id="edge1" class="edge">
<title>Node2&#45;&gt;Node1</title>
<path fill="none" stroke="midnightblue" d="M68.28,-248.4C80.47,-229.39 95.18,-206.45 109.44,-184.2"/>
</g>
<!-- Node4 -->
<g id="node3" class="node">
<title>Node4</title>
<g id="a_node3"><a xlink:href="structQC.html" target="_top" xlink:title=" ">
<polygon fill="white" stroke="red" points="98,-254 98,-333 148,-333 148,-254 98,-254"/>
<text text-anchor="middle" x="123" y="-321" font-family="Helvetica,sans-Serif" font-size="10.00">QC</text>
<polyline fill="none" stroke="red" points="98,-314 148,-314 "/>
<text text-anchor="start" x="106" y="-302" font-family="Helvetica,sans-Serif" font-size="10.00">+ amb</text>
<text text-anchor="start" x="106" y="-291" font-family="Helvetica,sans-Serif" font-size="10.00">+ mw</text>
<text text-anchor="start" x="106" y="-280" font-family="Helvetica,sans-Serif" font-size="10.00">+ gf</text>
<polyline fill="none" stroke="red" points="98,-273 148,-273 "/>
<text text-anchor="middle" x="123" y="-261" font-family="Helvetica,sans-Serif" font-size="10.00"> </text>
</a>
</g>
</g>
<!-- Node4&#45;&gt;Node1 -->
<g id="edge2" class="edge">
<title>Node4&#45;&gt;Node1</title>
<path fill="none" stroke="midnightblue" d="M131.5,-253.68C135.53,-235.22 140.55,-212.29 145.5,-189.68"/>
</g>
<!-- Node13 -->
<g id="node4" class="node">
<title>Node13</title>
<g id="a_node4"><a xlink:href="structVectorEcef.html" target="_top" xlink:title=" ">
<polygon fill="white" stroke="red" points="166,-237.5 166,-349.5 254,-349.5 254,-237.5 166,-237.5"/>
<text text-anchor="middle" x="210" y="-337.5" font-family="Helvetica,sans-Serif" font-size="10.00">VectorEcef</text>
<polyline fill="none" stroke="red" points="166,-330.5 254,-330.5 "/>
<text text-anchor="middle" x="210" y="-318.5" font-family="Helvetica,sans-Serif" font-size="10.00"> </text>
<polyline fill="none" stroke="red" points="166,-311.5 254,-311.5 "/>
<text text-anchor="start" x="174" y="-299.5" font-family="Helvetica,sans-Serif" font-size="10.00">+ VectorEcef()</text>
<text text-anchor="start" x="174" y="-288.5" font-family="Helvetica,sans-Serif" font-size="10.00">+ VectorEcef()</text>
<text text-anchor="start" x="174" y="-277.5" font-family="Helvetica,sans-Serif" font-size="10.00">+ operator=()</text>
<text text-anchor="start" x="174" y="-266.5" font-family="Helvetica,sans-Serif" font-size="10.00">+ operator*()</text>
<text text-anchor="start" x="174" y="-255.5" font-family="Helvetica,sans-Serif" font-size="10.00">+ operator&#45;()</text>
<text text-anchor="start" x="174" y="-244.5" font-family="Helvetica,sans-Serif" font-size="10.00">+ operator+()</text>
</a>
</g>
</g>
<!-- Node13&#45;&gt;Node1 -->
<g id="edge3" class="edge">
<title>Node13&#45;&gt;Node1</title>
<path fill="none" stroke="#404040" d="M197.63,-237.24C194.3,-222.37 190.6,-205.86 186.94,-189.53"/>
<text text-anchor="middle" x="203" y="-211" font-family="Helvetica,sans-Serif" font-size="10.00"> +e</text>
</g>
<!-- Node15 -->
<g id="node5" class="node">
<title>Node15</title>
<g id="a_node5"><a xlink:title=" ">
<polygon fill="white" stroke="red" points="272.5,-265 272.5,-322 401.5,-322 401.5,-265 272.5,-265"/>
<text text-anchor="middle" x="337" y="-310" font-family="Helvetica,sans-Serif" font-size="10.00">map&lt; string, SigStat &gt;</text>
<polyline fill="none" stroke="red" points="272.5,-303 401.5,-303 "/>
<text text-anchor="middle" x="337" y="-291" font-family="Helvetica,sans-Serif" font-size="10.00"> </text>
<polyline fill="none" stroke="red" points="272.5,-284 401.5,-284 "/>
<text text-anchor="middle" x="337" y="-272" font-family="Helvetica,sans-Serif" font-size="10.00"> </text>
</a>
</g>
</g>
<!-- Node15&#45;&gt;Node1 -->
<g id="edge4" class="edge">
<title>Node15&#45;&gt;Node1</title>
<path fill="none" stroke="#404040" d="M312.86,-264.76C289.57,-238 253.44,-196.48 222.84,-161.32"/>
<text text-anchor="middle" x="304.5" y="-211" font-family="Helvetica,sans-Serif" font-size="10.00"> +sigStatMap</text>
</g>
</g>
</svg>
