<?xml version="1.0" encoding="UTF-8" standalone="no"?>
<!DOCTYPE svg PUBLIC "-//W3C//DTD SVG 1.1//EN"
 "http://www.w3.org/Graphics/SVG/1.1/DTD/svg11.dtd">
<!-- Generated by graphviz version 2.43.0 (0)
 -->
<!-- Title: ACSFileStream::openFile Pages: 1 -->
<svg width="513pt" height="452pt"
 viewBox="0.00 0.00 513.00 451.50" xmlns="http://www.w3.org/2000/svg" xmlns:xlink="http://www.w3.org/1999/xlink">
<g id="graph0" class="graph" transform="scale(1 1) rotate(0) translate(4 447.5)">
<title>ACSFileStream::openFile</title>
<polygon fill="white" stroke="transparent" points="-4,4 -4,-447.5 509,-447.5 509,4 -4,4"/>
<!-- Node1 -->
<g id="node1" class="node">
<title>Node1</title>
<g id="a_node1"><a xlink:title=" ">
<polygon fill="#bfbfbf" stroke="black" points="371,-209.5 371,-228.5 505,-228.5 505,-209.5 371,-209.5"/>
<text text-anchor="middle" x="438" y="-216.5" font-family="Helvetica,sans-Serif" font-size="10.00">ACSFileStream::openFile</text>
</a>
</g>
</g>
<!-- Node2 -->
<g id="node2" class="node">
<title>Node2</title>
<g id="a_node2"><a xlink:href="structFileRtcmStream.html#a3f971a6e868d40ba7079442fed17f22d" target="_top" xlink:title=" ">
<polygon fill="white" stroke="black" points="204.5,-418.5 204.5,-437.5 328.5,-437.5 328.5,-418.5 204.5,-418.5"/>
<text text-anchor="middle" x="266.5" y="-425.5" font-family="Helvetica,sans-Serif" font-size="10.00">FileRtcmStream::open</text>
</a>
</g>
</g>
<!-- Node1&#45;&gt;Node2 -->
<g id="edge1" class="edge">
<title>Node1&#45;&gt;Node2</title>
<path fill="none" stroke="midnightblue" d="M434.71,-228.62C426.78,-259.78 397.49,-358.86 335,-409 330.16,-412.89 324.57,-415.98 318.71,-418.44"/>
</g>
<!-- Node4 -->
<g id="node4" class="node">
<title>Node4</title>
<g id="a_node4"><a xlink:href="structFileRtcmStream.html#a60fb40d30b75c23712ce49ff8b9655ab" target="_top" xlink:title="Return a list of observations from the stream.">
<polygon fill="white" stroke="black" points="199.5,-380.5 199.5,-399.5 333.5,-399.5 333.5,-380.5 199.5,-380.5"/>
<text text-anchor="middle" x="266.5" y="-387.5" font-family="Helvetica,sans-Serif" font-size="10.00">FileRtcmStream::getObs</text>
</a>
</g>
</g>
<!-- Node1&#45;&gt;Node4 -->
<g id="edge3" class="edge">
<title>Node1&#45;&gt;Node4</title>
<path fill="none" stroke="midnightblue" d="M433.39,-228.55C422.73,-255.38 388.78,-332.03 335,-371 329.68,-374.86 323.6,-377.93 317.31,-380.38"/>
</g>
<!-- Node5 -->
<g id="node5" class="node">
<title>Node5</title>
<g id="a_node5"><a xlink:href="structFileRinexStream.html#ae82068e3112fdad8f9846855285e5eb6" target="_top" xlink:title=" ">
<polygon fill="white" stroke="black" points="203.5,-342.5 203.5,-361.5 329.5,-361.5 329.5,-342.5 203.5,-342.5"/>
<text text-anchor="middle" x="266.5" y="-349.5" font-family="Helvetica,sans-Serif" font-size="10.00">FileRinexStream::open</text>
</a>
</g>
</g>
<!-- Node1&#45;&gt;Node5 -->
<g id="edge4" class="edge">
<title>Node1&#45;&gt;Node5</title>
<path fill="none" stroke="midnightblue" d="M431.17,-228.61C417.34,-250.58 380.29,-304.75 335,-333 328.8,-336.87 321.8,-339.96 314.72,-342.44"/>
</g>
<!-- Node7 -->
<g id="node7" class="node">
<title>Node7</title>
<g id="a_node7"><a xlink:href="structFileRtcmStream.html#aa2675b0e676825115c4b476941e7b53d" target="_top" xlink:title=" ">
<polygon fill="white" stroke="black" points="199,-304.5 199,-323.5 334,-323.5 334,-304.5 199,-304.5"/>
<text text-anchor="middle" x="266.5" y="-311.5" font-family="Helvetica,sans-Serif" font-size="10.00">FileRtcmStream::getNav</text>
</a>
</g>
</g>
<!-- Node1&#45;&gt;Node7 -->
<g id="edge6" class="edge">
<title>Node1&#45;&gt;Node7</title>
<path fill="none" stroke="midnightblue" d="M426.84,-228.61C409.4,-244.62 372.05,-276.76 335,-295 327.35,-298.76 318.84,-301.89 310.51,-304.44"/>
</g>
<!-- Node8 -->
<g id="node8" class="node">
<title>Node8</title>
<g id="a_node8"><a xlink:href="structFileRinexStream.html#a8032f619708821820655c1ed3c7f2e57" target="_top" xlink:title="Return a list of observations from the stream.">
<polygon fill="white" stroke="black" points="198,-266.5 198,-285.5 335,-285.5 335,-266.5 198,-266.5"/>
<text text-anchor="middle" x="266.5" y="-273.5" font-family="Helvetica,sans-Serif" font-size="10.00">FileRinexStream::getObs</text>
</a>
</g>
</g>
<!-- Node1&#45;&gt;Node8 -->
<g id="edge7" class="edge">
<title>Node1&#45;&gt;Node8</title>
<path fill="none" stroke="midnightblue" d="M412.88,-228.63C392.33,-236.67 361.95,-248.2 335,-257 324.82,-260.32 313.66,-263.61 303.4,-266.49"/>
</g>
<!-- Node9 -->
<g id="node9" class="node">
<title>Node9</title>
<g id="a_node9"><a xlink:href="structFileRtcmStream.html#a24c4dd8a9d0f6d45fec2293bb9fef544" target="_top" xlink:title="Check to see if this stream has run out of data.">
<polygon fill="white" stroke="black" points="199.5,-228.5 199.5,-247.5 333.5,-247.5 333.5,-228.5 199.5,-228.5"/>
<text text-anchor="middle" x="266.5" y="-235.5" font-family="Helvetica,sans-Serif" font-size="10.00">FileRtcmStream::isDead</text>
</a>
</g>
</g>
<!-- Node1&#45;&gt;Node9 -->
<g id="edge8" class="edge">
<title>Node1&#45;&gt;Node9</title>
<path fill="none" stroke="midnightblue" d="M370.98,-226.4C358.71,-227.78 345.89,-229.21 333.62,-230.59"/>
</g>
<!-- Node10 -->
<g id="node10" class="node">
<title>Node10</title>
<g id="a_node10"><a xlink:href="structFileRinexStream.html#a0af61622a3f9a050593e179fbe51c6b0" target="_top" xlink:title=" ">
<polygon fill="white" stroke="black" points="202,-190.5 202,-209.5 331,-209.5 331,-190.5 202,-190.5"/>
<text text-anchor="middle" x="266.5" y="-197.5" font-family="Helvetica,sans-Serif" font-size="10.00">FileRinexStream::parse</text>
</a>
</g>
</g>
<!-- Node1&#45;&gt;Node10 -->
<g id="edge9" class="edge">
<title>Node1&#45;&gt;Node10</title>
<path fill="none" stroke="midnightblue" d="M370.98,-211.6C357.87,-210.13 344.14,-208.59 331.11,-207.13"/>
</g>
<!-- Node14 -->
<g id="node12" class="node">
<title>Node14</title>
<g id="a_node12"><a xlink:href="structFileRinexStream.html#ad1c8c5d6e8ba02786753f82172e83961" target="_top" xlink:title="Check to see if this stream has run out of data.">
<polygon fill="white" stroke="black" points="198.5,-152.5 198.5,-171.5 334.5,-171.5 334.5,-152.5 198.5,-152.5"/>
<text text-anchor="middle" x="266.5" y="-159.5" font-family="Helvetica,sans-Serif" font-size="10.00">FileRinexStream::isDead</text>
</a>
</g>
</g>
<!-- Node1&#45;&gt;Node14 -->
<g id="edge11" class="edge">
<title>Node1&#45;&gt;Node14</title>
<path fill="none" stroke="midnightblue" d="M412.88,-209.37C392.33,-201.33 361.95,-189.8 335,-181 324.82,-177.68 313.66,-174.39 303.4,-171.51"/>
</g>
<!-- Node15 -->
<g id="node13" class="node">
<title>Node15</title>
<g id="a_node13"><a xlink:href="structFileSp3Stream.html#a50e36c865c0f1ed824e2e8bea38a7aec" target="_top" xlink:title=" ">
<polygon fill="white" stroke="black" points="208.5,-114.5 208.5,-133.5 324.5,-133.5 324.5,-114.5 208.5,-114.5"/>
<text text-anchor="middle" x="266.5" y="-121.5" font-family="Helvetica,sans-Serif" font-size="10.00">FileSp3Stream::open</text>
</a>
</g>
</g>
<!-- Node1&#45;&gt;Node15 -->
<g id="edge12" class="edge">
<title>Node1&#45;&gt;Node15</title>
<path fill="none" stroke="midnightblue" d="M426.84,-209.39C409.4,-193.38 372.05,-161.24 335,-143 327.35,-139.24 318.84,-136.11 310.51,-133.56"/>
</g>
<!-- Node17 -->
<g id="node15" class="node">
<title>Node17</title>
<g id="a_node15"><a xlink:href="structFileSp3Stream.html#a4b899fc4f1abe6377ed31a396a2d0502" target="_top" xlink:title="Return a list of observations from the stream.">
<polygon fill="white" stroke="black" points="203,-76.5 203,-95.5 330,-95.5 330,-76.5 203,-76.5"/>
<text text-anchor="middle" x="266.5" y="-83.5" font-family="Helvetica,sans-Serif" font-size="10.00">FileSp3Stream::getObs</text>
</a>
</g>
</g>
<!-- Node1&#45;&gt;Node17 -->
<g id="edge14" class="edge">
<title>Node1&#45;&gt;Node17</title>
<path fill="none" stroke="midnightblue" d="M431.17,-209.39C417.34,-187.42 380.29,-133.25 335,-105 328.8,-101.13 321.8,-98.04 314.72,-95.56"/>
</g>
<!-- Node18 -->
<g id="node16" class="node">
<title>Node18</title>
<g id="a_node16"><a xlink:href="structFileSp3Stream.html#adb208f2ed92d989fcce3e8995a51dedc" target="_top" xlink:title=" ">
<polygon fill="white" stroke="black" points="207,-38.5 207,-57.5 326,-57.5 326,-38.5 207,-38.5"/>
<text text-anchor="middle" x="266.5" y="-45.5" font-family="Helvetica,sans-Serif" font-size="10.00">FileSp3Stream::parse</text>
</a>
</g>
</g>
<!-- Node1&#45;&gt;Node18 -->
<g id="edge15" class="edge">
<title>Node1&#45;&gt;Node18</title>
<path fill="none" stroke="midnightblue" d="M433.39,-209.45C422.73,-182.62 388.78,-105.97 335,-67 329.68,-63.14 323.6,-60.07 317.31,-57.62"/>
</g>
<!-- Node19 -->
<g id="node17" class="node">
<title>Node19</title>
<g id="a_node17"><a xlink:href="structFileSp3Stream.html#a862af53ff336af97c9f2ecef0801c985" target="_top" xlink:title="Check to see if this stream has run out of data.">
<polygon fill="white" stroke="black" points="203.5,-0.5 203.5,-19.5 329.5,-19.5 329.5,-0.5 203.5,-0.5"/>
<text text-anchor="middle" x="266.5" y="-7.5" font-family="Helvetica,sans-Serif" font-size="10.00">FileSp3Stream::isDead</text>
</a>
</g>
</g>
<!-- Node1&#45;&gt;Node19 -->
<g id="edge16" class="edge">
<title>Node1&#45;&gt;Node19</title>
<path fill="none" stroke="midnightblue" d="M434.71,-209.38C426.78,-178.22 397.49,-79.14 335,-29 330.16,-25.11 324.57,-22.02 318.71,-19.56"/>
</g>
<!-- Node3 -->
<g id="node3" class="node">
<title>Node3</title>
<g id="a_node3"><a xlink:href="structFileRtcmStream.html#aaf71ae2cbc1735fd6cf4e935f4045bdf" target="_top" xlink:title=" ">
<polygon fill="white" stroke="black" points="10,-413 10,-443 152,-443 152,-413 10,-413"/>
<text text-anchor="start" x="18" y="-431" font-family="Helvetica,sans-Serif" font-size="10.00">FileRtcmStream::FileRtcm</text>
<text text-anchor="middle" x="81" y="-420" font-family="Helvetica,sans-Serif" font-size="10.00">Stream</text>
</a>
</g>
</g>
<!-- Node2&#45;&gt;Node3 -->
<g id="edge2" class="edge">
<title>Node2&#45;&gt;Node3</title>
<path fill="none" stroke="midnightblue" d="M204.4,-428C187.61,-428 169.28,-428 152.03,-428"/>
</g>
<!-- Node6 -->
<g id="node6" class="node">
<title>Node6</title>
<g id="a_node6"><a xlink:href="structFileRinexStream.html#ac7822df03dc3a83edacc411a85214ced" target="_top" xlink:title=" ">
<polygon fill="white" stroke="black" points="8,-337 8,-367 154,-367 154,-337 8,-337"/>
<text text-anchor="start" x="16" y="-355" font-family="Helvetica,sans-Serif" font-size="10.00">FileRinexStream::FileRinex</text>
<text text-anchor="middle" x="81" y="-344" font-family="Helvetica,sans-Serif" font-size="10.00">Stream</text>
</a>
</g>
</g>
<!-- Node5&#45;&gt;Node6 -->
<g id="edge5" class="edge">
<title>Node5&#45;&gt;Node6</title>
<path fill="none" stroke="midnightblue" d="M203.38,-352C187.57,-352 170.45,-352 154.19,-352"/>
</g>
<!-- Node11 -->
<g id="node11" class="node">
<title>Node11</title>
<g id="a_node11"><a xlink:href="main_8cpp.html#a414f34e8bd65aa4d83398bab54236157" target="_top" xlink:title=" ">
<polygon fill="white" stroke="red" points="34,-190.5 34,-209.5 128,-209.5 128,-190.5 34,-190.5"/>
<text text-anchor="middle" x="81" y="-197.5" font-family="Helvetica,sans-Serif" font-size="10.00">reloadInputFiles</text>
</a>
</g>
</g>
<!-- Node10&#45;&gt;Node11 -->
<g id="edge10" class="edge">
<title>Node10&#45;&gt;Node11</title>
<path fill="none" stroke="midnightblue" d="M201.84,-200C177.61,-200 150.5,-200 128.2,-200"/>
</g>
<!-- Node16 -->
<g id="node14" class="node">
<title>Node16</title>
<g id="a_node14"><a xlink:href="structFileSp3Stream.html#ae5853232cf87f1e8de57ec4fb9697e7c" target="_top" xlink:title=" ">
<polygon fill="white" stroke="black" points="0,-114.5 0,-133.5 162,-133.5 162,-114.5 0,-114.5"/>
<text text-anchor="middle" x="81" y="-121.5" font-family="Helvetica,sans-Serif" font-size="10.00">FileSp3Stream::FileSp3Stream</text>
</a>
</g>
</g>
<!-- Node15&#45;&gt;Node16 -->
<g id="edge13" class="edge">
<title>Node15&#45;&gt;Node16</title>
<path fill="none" stroke="midnightblue" d="M208.45,-124C193.82,-124 177.82,-124 162.26,-124"/>
</g>
</g>
</svg>
