<?xml version="1.0" encoding="UTF-8" standalone="no"?>
<!DOCTYPE svg PUBLIC "-//W3C//DTD SVG 1.1//EN"
 "http://www.w3.org/Graphics/SVG/1.1/DTD/svg11.dtd">
<!-- Generated by graphviz version 2.43.0 (0)
 -->
<!-- Title: KFMeasEntry::setNoise Pages: 1 -->
<svg width="307pt" height="408pt"
 viewBox="0.00 0.00 307.00 408.00" xmlns="http://www.w3.org/2000/svg" xmlns:xlink="http://www.w3.org/1999/xlink">
<g id="graph0" class="graph" transform="scale(1 1) rotate(0) translate(4 404)">
<title>KFMeasEntry::setNoise</title>
<polygon fill="white" stroke="transparent" points="-4,4 -4,-404 303,-404 303,4 -4,4"/>
<!-- Node1 -->
<g id="node1" class="node">
<title>Node1</title>
<g id="a_node1"><a xlink:title="Adds the measurement noise entry for this measurement.">
<polygon fill="#bfbfbf" stroke="black" points="170,-190.5 170,-209.5 299,-209.5 299,-190.5 170,-190.5"/>
<text text-anchor="middle" x="234.5" y="-197.5" font-family="Helvetica,sans-Serif" font-size="10.00">KFMeasEntry::setNoise</text>
</a>
</g>
</g>
<!-- Node2 -->
<g id="node2" class="node">
<title>Node2</title>
<g id="a_node2"><a xlink:href="GinARNLamb_8cpp.html#ad93bb9c322526f57beacb5aeb5c4e66a" target="_top" xlink:title="Apply archived Z&#45;ambiguities to float solution.">
<polygon fill="white" stroke="red" points="25.5,-380.5 25.5,-399.5 108.5,-399.5 108.5,-380.5 25.5,-380.5"/>
<text text-anchor="middle" x="67" y="-387.5" font-family="Helvetica,sans-Serif" font-size="10.00">apply_ambigt</text>
</a>
</g>
</g>
<!-- Node1&#45;&gt;Node2 -->
<g id="edge1" class="edge">
<title>Node1&#45;&gt;Node2</title>
<path fill="none" stroke="midnightblue" d="M230.66,-209.86C221.69,-239.17 191.16,-326.45 134,-371 126.66,-376.72 117.67,-380.71 108.71,-383.51"/>
</g>
<!-- Node9 -->
<g id="node3" class="node">
<title>Node9</title>
<g id="a_node3"><a xlink:href="networkEstimator_8cpp.html#a36828506971a6b66c6e61db51197c9e1" target="_top" xlink:title="Estimates parameters for a network of stations simultaneously.">
<polygon fill="white" stroke="red" points="15,-342.5 15,-361.5 119,-361.5 119,-342.5 15,-342.5"/>
<text text-anchor="middle" x="67" y="-349.5" font-family="Helvetica,sans-Serif" font-size="10.00">networkEstimator</text>
</a>
</g>
</g>
<!-- Node1&#45;&gt;Node9 -->
<g id="edge2" class="edge">
<title>Node1&#45;&gt;Node9</title>
<path fill="none" stroke="midnightblue" d="M229.02,-209.73C217.19,-234.33 182.64,-299.41 134,-333 128.41,-336.86 122.03,-339.95 115.5,-342.41"/>
</g>
<!-- Node10 -->
<g id="node4" class="node">
<title>Node10</title>
<g id="a_node4"><a xlink:href="ppp__pseudoobs_8cpp.html#aa248470eac1bf78565ee912282a5894d" target="_top" xlink:title=" ">
<polygon fill="white" stroke="red" points="15,-304.5 15,-323.5 119,-323.5 119,-304.5 15,-304.5"/>
<text text-anchor="middle" x="67" y="-311.5" font-family="Helvetica,sans-Serif" font-size="10.00">stationPseudoObs</text>
</a>
</g>
</g>
<!-- Node1&#45;&gt;Node10 -->
<g id="edge3" class="edge">
<title>Node1&#45;&gt;Node10</title>
<path fill="none" stroke="midnightblue" d="M226.12,-209.66C210.98,-228.83 174.39,-271.81 134,-295 127.28,-298.86 119.72,-301.98 112.17,-304.5"/>
</g>
<!-- Node15 -->
<g id="node5" class="node">
<title>Node15</title>
<g id="a_node5"><a xlink:href="GinARWLamb_8cpp.html#ab95d4f2ff0f6e0d2b92d4d4d14f7f787" target="_top" xlink:title="Update WL filter.">
<polygon fill="white" stroke="red" points="28,-266.5 28,-285.5 106,-285.5 106,-266.5 28,-266.5"/>
<text text-anchor="middle" x="67" y="-273.5" font-family="Helvetica,sans-Serif" font-size="10.00">updat_WLfilt</text>
</a>
</g>
</g>
<!-- Node1&#45;&gt;Node15 -->
<g id="edge4" class="edge">
<title>Node1&#45;&gt;Node15</title>
<path fill="none" stroke="midnightblue" d="M219.23,-209.64C200.4,-222.02 165.9,-243.5 134,-257 125.22,-260.72 115.48,-263.97 106.24,-266.68"/>
</g>
<!-- Node17 -->
<g id="node6" class="node">
<title>Node17</title>
<g id="a_node6"><a xlink:href="GinARWLamb_8cpp.html#a6cfe77e4642a57d54c9204244cd403a0" target="_top" xlink:title="Resolve wide&#45;lane ambiguities.">
<polygon fill="white" stroke="red" points="22.5,-228.5 22.5,-247.5 111.5,-247.5 111.5,-228.5 22.5,-228.5"/>
<text text-anchor="middle" x="67" y="-235.5" font-family="Helvetica,sans-Serif" font-size="10.00">reslv_WLambg</text>
</a>
</g>
</g>
<!-- Node1&#45;&gt;Node17 -->
<g id="edge5" class="edge">
<title>Node1&#45;&gt;Node17</title>
<path fill="none" stroke="midnightblue" d="M191.74,-209.59C166.55,-215.37 134.59,-222.71 109.46,-228.48"/>
</g>
<!-- Node18 -->
<g id="node7" class="node">
<title>Node18</title>
<g id="a_node7"><a xlink:href="debug_8cpp.html#a80d24c0bf09dad23394c5fcac25aa80b" target="_top" xlink:title=" ">
<polygon fill="white" stroke="black" points="25.5,-190.5 25.5,-209.5 108.5,-209.5 108.5,-190.5 25.5,-190.5"/>
<text text-anchor="middle" x="67" y="-197.5" font-family="Helvetica,sans-Serif" font-size="10.00">minimumTest</text>
</a>
</g>
</g>
<!-- Node1&#45;&gt;Node18 -->
<g id="edge6" class="edge">
<title>Node1&#45;&gt;Node18</title>
<path fill="none" stroke="midnightblue" d="M169.99,-200C149.39,-200 127.1,-200 108.63,-200"/>
</g>
<!-- Node19 -->
<g id="node8" class="node">
<title>Node19</title>
<g id="a_node8"><a xlink:href="walkthrough_8cpp.html#af3e41749378ce9de79e7bdb41df88419" target="_top" xlink:title="Ginan kalman filter basics The basic structure for kalman filtering in ginan is the KFState struct,...">
<polygon fill="white" stroke="red" points="25.5,-152.5 25.5,-171.5 108.5,-171.5 108.5,-152.5 25.5,-152.5"/>
<text text-anchor="middle" x="67" y="-159.5" font-family="Helvetica,sans-Serif" font-size="10.00">walkthrough1</text>
</a>
</g>
</g>
<!-- Node1&#45;&gt;Node19 -->
<g id="edge7" class="edge">
<title>Node1&#45;&gt;Node19</title>
<path fill="none" stroke="midnightblue" d="M191.74,-190.41C166.27,-184.56 133.86,-177.12 108.61,-171.32"/>
</g>
<!-- Node22 -->
<g id="node9" class="node">
<title>Node22</title>
<g id="a_node9"><a xlink:href="walkthrough_8cpp.html#aff7ddc151473d418c066b30f06e6b42e" target="_top" xlink:title=" ">
<polygon fill="white" stroke="red" points="25.5,-114.5 25.5,-133.5 108.5,-133.5 108.5,-114.5 25.5,-114.5"/>
<text text-anchor="middle" x="67" y="-121.5" font-family="Helvetica,sans-Serif" font-size="10.00">walkthrough2</text>
</a>
</g>
</g>
<!-- Node1&#45;&gt;Node22 -->
<g id="edge8" class="edge">
<title>Node1&#45;&gt;Node22</title>
<path fill="none" stroke="midnightblue" d="M219.23,-190.36C200.4,-177.98 165.9,-156.5 134,-143 125.43,-139.38 115.96,-136.2 106.93,-133.53"/>
</g>
<!-- Node23 -->
<g id="node10" class="node">
<title>Node23</title>
<g id="a_node10"><a xlink:href="ionoModel_8cpp.html#a2bdc3287aad0d2793f4ef6adbf389680" target="_top" xlink:title="Updating the ionosphere model parameters &#160;&#160;The ionosphere model should be initialized by calling &#39;con...">
<polygon fill="white" stroke="red" points="0,-76.5 0,-95.5 134,-95.5 134,-76.5 0,-76.5"/>
<text text-anchor="middle" x="67" y="-83.5" font-family="Helvetica,sans-Serif" font-size="10.00">updateIonosphereModel</text>
</a>
</g>
</g>
<!-- Node1&#45;&gt;Node23 -->
<g id="edge9" class="edge">
<title>Node1&#45;&gt;Node23</title>
<path fill="none" stroke="midnightblue" d="M226.12,-190.34C210.98,-171.17 174.39,-128.19 134,-105 127.28,-101.14 119.72,-98.02 112.17,-95.5"/>
</g>
<!-- Node12 -->
<g id="node11" class="node">
<title>Node12</title>
<g id="a_node11"><a xlink:href="ppp__user_8cpp.html#a36a79c2aba8e8ad20aa9616988ec3269" target="_top" xlink:title=" ">
<polygon fill="white" stroke="red" points="35.5,-38.5 35.5,-57.5 98.5,-57.5 98.5,-38.5 35.5,-38.5"/>
<text text-anchor="middle" x="67" y="-45.5" font-family="Helvetica,sans-Serif" font-size="10.00">ppp_filter</text>
</a>
</g>
</g>
<!-- Node1&#45;&gt;Node12 -->
<g id="edge10" class="edge">
<title>Node1&#45;&gt;Node12</title>
<path fill="none" stroke="midnightblue" d="M229.02,-190.27C217.19,-165.67 182.64,-100.59 134,-67 123.6,-59.82 110.5,-55.33 98.71,-52.53"/>
</g>
<!-- Node24 -->
<g id="node12" class="node">
<title>Node24</title>
<g id="a_node12"><a xlink:href="spp_8cpp.html#afaefb8a8e3524d0ab76f05d111e7b1cd" target="_top" xlink:title="Estimate receiver position and biases using code measurements.">
<polygon fill="white" stroke="red" points="42.5,-0.5 42.5,-19.5 91.5,-19.5 91.5,-0.5 42.5,-0.5"/>
<text text-anchor="middle" x="67" y="-7.5" font-family="Helvetica,sans-Serif" font-size="10.00">estpos</text>
</a>
</g>
</g>
<!-- Node1&#45;&gt;Node24 -->
<g id="edge11" class="edge">
<title>Node1&#45;&gt;Node24</title>
<path fill="none" stroke="midnightblue" d="M230.66,-190.14C221.69,-160.83 191.16,-73.55 134,-29 121.87,-19.54 105.2,-14.79 91.66,-12.41"/>
</g>
</g>
</svg>
