<?xml version="1.0" encoding="UTF-8" standalone="no"?>
<!DOCTYPE svg PUBLIC "-//W3C//DTD SVG 1.1//EN"
 "http://www.w3.org/Graphics/SVG/1.1/DTD/svg11.dtd">
<!-- Generated by graphviz version 2.43.0 (0)
 -->
<!-- Title: RtcmTrace::traceBrdcEph Pages: 1 -->
<svg width="422pt" height="142pt"
 viewBox="0.00 0.00 422.00 142.00" xmlns="http://www.w3.org/2000/svg" xmlns:xlink="http://www.w3.org/1999/xlink">
<g id="graph0" class="graph" transform="scale(1 1) rotate(0) translate(4 138)">
<title>RtcmTrace::traceBrdcEph</title>
<polygon fill="white" stroke="transparent" points="-4,4 -4,-138 418,-138 418,4 -4,4"/>
<!-- Node1 -->
<g id="node1" class="node">
<title>Node1</title>
<g id="a_node1"><a xlink:title="Write decoded/encoded GAL ephemeris messages to a json file.">
<polygon fill="#bfbfbf" stroke="black" points="0,-57.5 0,-76.5 138,-76.5 138,-57.5 0,-57.5"/>
<text text-anchor="middle" x="69" y="-64.5" font-family="Helvetica,sans-Serif" font-size="10.00">RtcmTrace::traceBrdcEph</text>
</a>
</g>
</g>
<!-- Node2 -->
<g id="node2" class="node">
<title>Node2</title>
<g id="a_node2"><a xlink:href="gTime_8cpp.html#abc73cf336f9fa1b3622c933d5925e073" target="_top" xlink:title=" ">
<polygon fill="white" stroke="black" points="199,-114.5 199,-133.5 255,-133.5 255,-114.5 199,-114.5"/>
<text text-anchor="middle" x="227" y="-121.5" font-family="Helvetica,sans-Serif" font-size="10.00">timeGet</text>
</a>
</g>
</g>
<!-- Node1&#45;&gt;Node2 -->
<g id="edge1" class="edge">
<title>Node1&#45;&gt;Node2</title>
<path fill="none" stroke="midnightblue" d="M96.11,-76.54C121.87,-85.95 161.45,-100.41 190.15,-110.9"/>
<polygon fill="midnightblue" stroke="midnightblue" points="189.21,-114.28 199.8,-114.43 191.61,-107.71 189.21,-114.28"/>
</g>
<!-- Node3 -->
<g id="node3" class="node">
<title>Node3</title>
<g id="a_node3"><a xlink:href="structGTime.html#a98fdbaaec5a132a7e694f28b4f1907cb" target="_top" xlink:title=" ">
<polygon fill="white" stroke="black" points="316,-0.5 316,-19.5 414,-19.5 414,-0.5 316,-0.5"/>
<text text-anchor="middle" x="365" y="-7.5" font-family="Helvetica,sans-Serif" font-size="10.00">GTime::to_string</text>
</a>
</g>
</g>
<!-- Node1&#45;&gt;Node3 -->
<g id="edge2" class="edge">
<title>Node1&#45;&gt;Node3</title>
<path fill="none" stroke="midnightblue" d="M126.28,-57.5C168.64,-50.18 228.08,-39.56 280,-29 290.88,-26.79 302.52,-24.26 313.56,-21.78"/>
<polygon fill="midnightblue" stroke="midnightblue" points="314.51,-25.16 323.49,-19.54 312.96,-18.33 314.51,-25.16"/>
</g>
<!-- Node4 -->
<g id="node4" class="node">
<title>Node4</title>
<g id="a_node4"><a xlink:href="structSatSys.html#aec6d07b90d1e8172b8b6a6966abef4fd" target="_top" xlink:title="Returns a std::string of this satellite&#39;s id.">
<polygon fill="white" stroke="red" points="332.5,-38.5 332.5,-57.5 397.5,-57.5 397.5,-38.5 332.5,-38.5"/>
<text text-anchor="middle" x="365" y="-45.5" font-family="Helvetica,sans-Serif" font-size="10.00">SatSys::id</text>
</a>
</g>
</g>
<!-- Node1&#45;&gt;Node4 -->
<g id="edge3" class="edge">
<title>Node1&#45;&gt;Node4</title>
<path fill="none" stroke="midnightblue" d="M138.19,-62.59C195.08,-58.92 274.33,-53.79 322.24,-50.7"/>
<polygon fill="midnightblue" stroke="midnightblue" points="322.5,-54.19 332.26,-50.05 322.05,-47.2 322.5,-54.19"/>
</g>
<!-- Node7 -->
<g id="node5" class="node">
<title>Node7</title>
<g id="a_node5"><a xlink:href="rtcmTrace_8cpp.html#a6dc806eda86f39bd2d8348c20171456d" target="_top" xlink:title=" ">
<polygon fill="white" stroke="black" points="174,-0.5 174,-19.5 280,-19.5 280,-0.5 174,-0.5"/>
<text text-anchor="middle" x="227" y="-7.5" font-family="Helvetica,sans-Serif" font-size="10.00">traceBrdcEphBody</text>
</a>
</g>
</g>
<!-- Node1&#45;&gt;Node7 -->
<g id="edge4" class="edge">
<title>Node1&#45;&gt;Node7</title>
<path fill="none" stroke="midnightblue" d="M96.11,-57.46C121.87,-48.05 161.45,-33.59 190.15,-23.1"/>
<polygon fill="midnightblue" stroke="midnightblue" points="191.61,-26.29 199.8,-19.57 189.21,-19.72 191.61,-26.29"/>
</g>
<!-- Node7&#45;&gt;Node3 -->
<g id="edge6" class="edge">
<title>Node7&#45;&gt;Node3</title>
<path fill="none" stroke="midnightblue" d="M280.19,-10C288.5,-10 297.14,-10 305.58,-10"/>
<polygon fill="midnightblue" stroke="midnightblue" points="305.74,-13.5 315.74,-10 305.74,-6.5 305.74,-13.5"/>
</g>
<!-- Node7&#45;&gt;Node4 -->
<g id="edge5" class="edge">
<title>Node7&#45;&gt;Node4</title>
<path fill="none" stroke="midnightblue" d="M262.32,-19.59C280.68,-24.72 303.42,-31.07 322.74,-36.47"/>
<polygon fill="midnightblue" stroke="midnightblue" points="321.92,-39.88 332.49,-39.2 323.8,-33.13 321.92,-39.88"/>
</g>
</g>
</svg>
