<?xml version="1.0" encoding="UTF-8" standalone="no"?>
<!DOCTYPE svg PUBLIC "-//W3C//DTD SVG 1.1//EN"
 "http://www.w3.org/Graphics/SVG/1.1/DTD/svg11.dtd">
<!-- Generated by graphviz version 2.43.0 (0)
 -->
<!-- Title: GlobalOptions Pages: 1 -->
<!--zoomable 1029 -->
<svg id="main" version="1.1" xmlns="http://www.w3.org/2000/svg" xmlns:xlink="http://www.w3.org/1999/xlink" xml:space="preserve" onload="init(evt)">
<style type="text/css"><![CDATA[
.edge:hover path { stroke: red; }
.edge:hover polygon { stroke: red; fill: red; }
]]></style>
<script type="text/javascript"><![CDATA[
var edges = document.getElementsByTagName('g');
if (edges && edges.length) {
  for (var i=0;i<edges.length;i++) {
    if (edges[i].id.substr(0,4)=='edge') {
      edges[i].setAttribute('class','edge');
    }
  }
}
]]></script>
        <defs>
                <circle id="rim" cx="0" cy="0" r="7"/>
                <circle id="rim2" cx="0" cy="0" r="3.5"/>
                <g id="zoomPlus">
                        <use xlink:href="#rim" fill="#404040">
                                <set attributeName="fill" to="#808080" begin="zoomplus.mouseover" end="zoomplus.mouseout"/>
                        </use>
                        <path d="M-4,0h8M0,-4v8" fill="none" stroke="white" stroke-width="1.5" pointer-events="none"/>
                </g>
                <g id="zoomMin">
                        <use xlink:href="#rim" fill="#404040">
                                <set attributeName="fill" to="#808080" begin="zoomminus.mouseover" end="zoomminus.mouseout"/>
                        </use>
                        <path d="M-4,0h8" fill="none" stroke="white" stroke-width="1.5" pointer-events="none"/>
                </g>
                <g id="dirArrow">
                        <path fill="none" stroke="white" stroke-width="1.5" d="M0,-3.0v7 M-2.5,-0.5L0,-3.0L2.5,-0.5"/>
                </g>
               <g id="resetDef">
                       <use xlink:href="#rim2" fill="#404040">
                               <set attributeName="fill" to="#808080" begin="reset.mouseover" end="reset.mouseout"/>
                       </use>
               </g>
        </defs>

<script type="text/javascript">
var viewWidth = 1108;
var viewHeight = 1029;
var sectionId = 'dynsection-1';
</script>
<script xlink:href="svgpan.js"/>
<svg id="graph" class="graph">
<g id="viewport">
<title>GlobalOptions</title>
<polygon fill="white" stroke="transparent" points="-4,4 -4,-1025 1104,-1025 1104,4 -4,4"/>
<!-- Node1 -->
<g id="node1" class="node">
<title>Node1</title>
<g id="a_node1"><a xlink:title="Options for the general operation of the software.">
<polygon fill="#bfbfbf" stroke="black" points="383.5,-0.5 383.5,-629.5 560.5,-629.5 560.5,-0.5 383.5,-0.5"/>
<text text-anchor="middle" x="472" y="-617.5" font-family="Helvetica,sans-Serif" font-size="10.00">GlobalOptions</text>
<polyline fill="none" stroke="black" points="383.5,-610.5 560.5,-610.5 "/>
<text text-anchor="start" x="391.5" y="-598.5" font-family="Helvetica,sans-Serif" font-size="10.00">+ epoch_interval</text>
<text text-anchor="start" x="391.5" y="-587.5" font-family="Helvetica,sans-Serif" font-size="10.00">+ epoch_tolerance</text>
<text text-anchor="start" x="391.5" y="-576.5" font-family="Helvetica,sans-Serif" font-size="10.00">+ max_epochs</text>
<text text-anchor="start" x="391.5" y="-565.5" font-family="Helvetica,sans-Serif" font-size="10.00">+ leap_seconds</text>
<text text-anchor="start" x="391.5" y="-554.5" font-family="Helvetica,sans-Serif" font-size="10.00">+ rinex_comment</text>
<text text-anchor="start" x="391.5" y="-543.5" font-family="Helvetica,sans-Serif" font-size="10.00">+ reference_system</text>
<text text-anchor="start" x="391.5" y="-532.5" font-family="Helvetica,sans-Serif" font-size="10.00">+ time_system</text>
<text text-anchor="start" x="391.5" y="-521.5" font-family="Helvetica,sans-Serif" font-size="10.00">+ simulate_real_time</text>
<text text-anchor="start" x="391.5" y="-510.5" font-family="Helvetica,sans-Serif" font-size="10.00">+ process_preprocessor</text>
<text text-anchor="start" x="391.5" y="-499.5" font-family="Helvetica,sans-Serif" font-size="10.00">+ process_spp</text>
<text text-anchor="start" x="391.5" y="-488.5" font-family="Helvetica,sans-Serif" font-size="10.00">+ process_user</text>
<text text-anchor="start" x="391.5" y="-477.5" font-family="Helvetica,sans-Serif" font-size="10.00">+ process_network</text>
<text text-anchor="start" x="391.5" y="-466.5" font-family="Helvetica,sans-Serif" font-size="10.00">+ process_minimum_constraints</text>
<text text-anchor="start" x="391.5" y="-455.5" font-family="Helvetica,sans-Serif" font-size="10.00">+ process_ionosphere</text>
<text text-anchor="start" x="391.5" y="-444.5" font-family="Helvetica,sans-Serif" font-size="10.00">+ process_rts</text>
<text text-anchor="start" x="391.5" y="-433.5" font-family="Helvetica,sans-Serif" font-size="10.00">+ process_ppp</text>
<text text-anchor="start" x="391.5" y="-422.5" font-family="Helvetica,sans-Serif" font-size="10.00">+ process_orbits</text>
<text text-anchor="start" x="391.5" y="-411.5" font-family="Helvetica,sans-Serif" font-size="10.00">+ process_meas</text>
<text text-anchor="start" x="391.5" y="-400.5" font-family="Helvetica,sans-Serif" font-size="10.00">+ elevation_mask</text>
<text text-anchor="start" x="391.5" y="-389.5" font-family="Helvetica,sans-Serif" font-size="10.00">+ pivot_station</text>
<text text-anchor="start" x="391.5" y="-378.5" font-family="Helvetica,sans-Serif" font-size="10.00">+ raim</text>
<text text-anchor="start" x="391.5" y="-367.5" font-family="Helvetica,sans-Serif" font-size="10.00">+ interpolate_rec_pco</text>
<text text-anchor="start" x="391.5" y="-356.5" font-family="Helvetica,sans-Serif" font-size="10.00">+ require_apriori_positions</text>
<text text-anchor="start" x="391.5" y="-345.5" font-family="Helvetica,sans-Serif" font-size="10.00">+ require_antenna_details</text>
<text text-anchor="start" x="391.5" y="-334.5" font-family="Helvetica,sans-Serif" font-size="10.00">+ thres_slip</text>
<text text-anchor="start" x="391.5" y="-323.5" font-family="Helvetica,sans-Serif" font-size="10.00">+ mw_proc_noise</text>
<text text-anchor="start" x="391.5" y="-312.5" font-family="Helvetica,sans-Serif" font-size="10.00">+ max_gdop</text>
<text text-anchor="start" x="391.5" y="-301.5" font-family="Helvetica,sans-Serif" font-size="10.00">+ deweight_factor</text>
<text text-anchor="start" x="391.5" y="-290.5" font-family="Helvetica,sans-Serif" font-size="10.00">+ use_tgd_bias</text>
<text text-anchor="start" x="391.5" y="-279.5" font-family="Helvetica,sans-Serif" font-size="10.00">+ orbit_pos_proc_noise</text>
<text text-anchor="start" x="391.5" y="-268.5" font-family="Helvetica,sans-Serif" font-size="10.00">+ orbit_vel_proc_noise</text>
<text text-anchor="start" x="391.5" y="-257.5" font-family="Helvetica,sans-Serif" font-size="10.00">+ orbit_vel_proc_noise</text>
<text text-anchor="start" x="391.5" y="-246.5" font-family="Helvetica,sans-Serif" font-size="10.00">_trail</text>
<text text-anchor="start" x="391.5" y="-235.5" font-family="Helvetica,sans-Serif" font-size="10.00">+ orbit_vel_proc_noise</text>
<text text-anchor="start" x="391.5" y="-224.5" font-family="Helvetica,sans-Serif" font-size="10.00">_trail_tau</text>
<text text-anchor="start" x="391.5" y="-213.5" font-family="Helvetica,sans-Serif" font-size="10.00">+ wait_next_epoch</text>
<text text-anchor="start" x="391.5" y="-202.5" font-family="Helvetica,sans-Serif" font-size="10.00">+ wait_all_stations</text>
<text text-anchor="start" x="391.5" y="-191.5" font-family="Helvetica,sans-Serif" font-size="10.00">+ require_obs</text>
<text text-anchor="start" x="391.5" y="-180.5" font-family="Helvetica,sans-Serif" font-size="10.00">+ assign_closest_epoch</text>
<text text-anchor="start" x="391.5" y="-169.5" font-family="Helvetica,sans-Serif" font-size="10.00">+ delete_old_ephemerides</text>
<text text-anchor="start" x="391.5" y="-158.5" font-family="Helvetica,sans-Serif" font-size="10.00">+ reinit_on_all_slips</text>
<text text-anchor="start" x="391.5" y="-147.5" font-family="Helvetica,sans-Serif" font-size="10.00">+ reinit_on_clock_error</text>
<text text-anchor="start" x="391.5" y="-136.5" font-family="Helvetica,sans-Serif" font-size="10.00">+ reject_on_state_error</text>
<text text-anchor="start" x="391.5" y="-125.5" font-family="Helvetica,sans-Serif" font-size="10.00">+ joseph_stabilisation</text>
<text text-anchor="start" x="391.5" y="-114.5" font-family="Helvetica,sans-Serif" font-size="10.00">+ validity_interval_factor</text>
<text text-anchor="start" x="391.5" y="-103.5" font-family="Helvetica,sans-Serif" font-size="10.00">+ ssr_input_antenna_offset</text>
<text text-anchor="start" x="391.5" y="-92.5" font-family="Helvetica,sans-Serif" font-size="10.00">+ receiver_reference_clk</text>
<text text-anchor="start" x="391.5" y="-81.5" font-family="Helvetica,sans-Serif" font-size="10.00">+ fixed_phase_bias_var</text>
<text text-anchor="start" x="391.5" y="-70.5" font-family="Helvetica,sans-Serif" font-size="10.00">+ sat_clk_definition</text>
<text text-anchor="start" x="391.5" y="-59.5" font-family="Helvetica,sans-Serif" font-size="10.00">+ common_sat_pco</text>
<text text-anchor="start" x="391.5" y="-48.5" font-family="Helvetica,sans-Serif" font-size="10.00">+ common_rec_pco</text>
<text text-anchor="start" x="391.5" y="-37.5" font-family="Helvetica,sans-Serif" font-size="10.00">+ clock_wrap_threshold</text>
<text text-anchor="start" x="391.5" y="-26.5" font-family="Helvetica,sans-Serif" font-size="10.00">+ predefined_fail</text>
<polyline fill="none" stroke="black" points="383.5,-19.5 560.5,-19.5 "/>
<text text-anchor="middle" x="472" y="-7.5" font-family="Helvetica,sans-Serif" font-size="10.00"> </text>
</a>
</g>
</g>
<!-- Node2 -->
<g id="node2" class="node">
<title>Node2</title>
<g id="a_node2"><a xlink:href="structModel.html" target="_top" xlink:title=" ">
<polygon fill="white" stroke="red" points="0,-831.5 0,-1020.5 150,-1020.5 150,-831.5 0,-831.5"/>
<text text-anchor="middle" x="75" y="-1008.5" font-family="Helvetica,sans-Serif" font-size="10.00">Model</text>
<polyline fill="none" stroke="red" points="0,-1001.5 150,-1001.5 "/>
<text text-anchor="start" x="8" y="-989.5" font-family="Helvetica,sans-Serif" font-size="10.00">+ range</text>
<text text-anchor="start" x="8" y="-978.5" font-family="Helvetica,sans-Serif" font-size="10.00">+ relativity</text>
<text text-anchor="start" x="8" y="-967.5" font-family="Helvetica,sans-Serif" font-size="10.00">+ relativity2</text>
<text text-anchor="start" x="8" y="-956.5" font-family="Helvetica,sans-Serif" font-size="10.00">+ sagnac</text>
<text text-anchor="start" x="8" y="-945.5" font-family="Helvetica,sans-Serif" font-size="10.00">+ phase_windup</text>
<text text-anchor="start" x="8" y="-934.5" font-family="Helvetica,sans-Serif" font-size="10.00">+ heading</text>
<text text-anchor="start" x="8" y="-923.5" font-family="Helvetica,sans-Serif" font-size="10.00">+ integer_ambiguity</text>
<text text-anchor="start" x="8" y="-912.5" font-family="Helvetica,sans-Serif" font-size="10.00">+ ionospheric_component</text>
<text text-anchor="start" x="8" y="-901.5" font-family="Helvetica,sans-Serif" font-size="10.00">+ ionospheric_component2</text>
<text text-anchor="start" x="8" y="-890.5" font-family="Helvetica,sans-Serif" font-size="10.00">+ ionospheric_component3</text>
<text text-anchor="start" x="8" y="-879.5" font-family="Helvetica,sans-Serif" font-size="10.00">+ eop</text>
<text text-anchor="start" x="8" y="-868.5" font-family="Helvetica,sans-Serif" font-size="10.00">+ ionospheric_model</text>
<text text-anchor="start" x="8" y="-857.5" font-family="Helvetica,sans-Serif" font-size="10.00">+ orbits</text>
<polyline fill="none" stroke="red" points="0,-850.5 150,-850.5 "/>
<text text-anchor="middle" x="75" y="-838.5" font-family="Helvetica,sans-Serif" font-size="10.00"> </text>
</a>
</g>
</g>
<!-- Node2&#45;&gt;Node1 -->
<g id="edge1" class="edge">
<title>Node2&#45;&gt;Node1</title>
<path fill="none" stroke="#404040" d="M80.9,-831.42C87.67,-775.39 102.14,-704.34 133,-648 194.14,-536.38 304.96,-438.56 383.22,-378.54"/>
<text text-anchor="middle" x="154.5" y="-728" font-family="Helvetica,sans-Serif" font-size="10.00"> +model</text>
</g>
<!-- Node6 -->
<g id="node3" class="node">
<title>Node6</title>
<g id="a_node3"><a xlink:title=" ">
<polygon fill="white" stroke="black" points="167.5,-897.5 167.5,-954.5 212.5,-954.5 212.5,-897.5 167.5,-897.5"/>
<text text-anchor="middle" x="190" y="-942.5" font-family="Helvetica,sans-Serif" font-size="10.00">ptime</text>
<polyline fill="none" stroke="black" points="167.5,-935.5 212.5,-935.5 "/>
<text text-anchor="middle" x="190" y="-923.5" font-family="Helvetica,sans-Serif" font-size="10.00"> </text>
<polyline fill="none" stroke="black" points="167.5,-916.5 212.5,-916.5 "/>
<text text-anchor="middle" x="190" y="-904.5" font-family="Helvetica,sans-Serif" font-size="10.00"> </text>
</a>
</g>
</g>
<!-- Node6&#45;&gt;Node1 -->
<g id="edge2" class="edge">
<title>Node6&#45;&gt;Node1</title>
<path fill="none" stroke="#404040" d="M185.76,-897.11C179.14,-845.83 170.27,-733.93 203,-648 240.83,-548.69 320.55,-456.57 383.44,-394.68"/>
<text text-anchor="middle" x="236" y="-733.5" font-family="Helvetica,sans-Serif" font-size="10.00"> +end_epoch</text>
<text text-anchor="middle" x="236" y="-722.5" font-family="Helvetica,sans-Serif" font-size="10.00">+start_epoch</text>
</g>
<!-- Node4 -->
<g id="node4" class="node">
<title>Node4</title>
<g id="a_node4"><a xlink:title=" ">
<polygon fill="white" stroke="black" points="257,-897.5 257,-954.5 301,-954.5 301,-897.5 257,-897.5"/>
<text text-anchor="middle" x="279" y="-942.5" font-family="Helvetica,sans-Serif" font-size="10.00">string</text>
<polyline fill="none" stroke="black" points="257,-935.5 301,-935.5 "/>
<text text-anchor="middle" x="279" y="-923.5" font-family="Helvetica,sans-Serif" font-size="10.00"> </text>
<polyline fill="none" stroke="black" points="257,-916.5 301,-916.5 "/>
<text text-anchor="middle" x="279" y="-904.5" font-family="Helvetica,sans-Serif" font-size="10.00"> </text>
</a>
</g>
</g>
<!-- Node4&#45;&gt;Node1 -->
<g id="edge3" class="edge">
<title>Node4&#45;&gt;Node1</title>
<path fill="none" stroke="#404040" d="M276.43,-897.23C272.61,-846.59 268.31,-736.34 293,-648 312.52,-578.15 348.65,-506.6 383.37,-447.9"/>
<text text-anchor="middle" x="344.5" y="-805" font-family="Helvetica,sans-Serif" font-size="10.00"> +ac_contact</text>
<text text-anchor="middle" x="344.5" y="-794" font-family="Helvetica,sans-Serif" font-size="10.00">+analysis_agency</text>
<text text-anchor="middle" x="344.5" y="-783" font-family="Helvetica,sans-Serif" font-size="10.00">+analysis_center</text>
<text text-anchor="middle" x="344.5" y="-772" font-family="Helvetica,sans-Serif" font-size="10.00">+analysis_program</text>
<text text-anchor="start" x="293" y="-761" font-family="Helvetica,sans-Serif" font-size="10.00">+analysis_program</text>
<text text-anchor="middle" x="344.5" y="-750" font-family="Helvetica,sans-Serif" font-size="10.00">_version</text>
<text text-anchor="start" x="293" y="-739" font-family="Helvetica,sans-Serif" font-size="10.00">+atmospheric_tide</text>
<text text-anchor="middle" x="344.5" y="-728" font-family="Helvetica,sans-Serif" font-size="10.00">_loading_model</text>
<text text-anchor="middle" x="344.5" y="-717" font-family="Helvetica,sans-Serif" font-size="10.00">+config_description</text>
<text text-anchor="middle" x="344.5" y="-706" font-family="Helvetica,sans-Serif" font-size="10.00">+geoid_model</text>
<text text-anchor="start" x="293" y="-695" font-family="Helvetica,sans-Serif" font-size="10.00">+gradient_mapping</text>
<text text-anchor="middle" x="344.5" y="-684" font-family="Helvetica,sans-Serif" font-size="10.00">_function</text>
<text text-anchor="start" x="293" y="-673" font-family="Helvetica,sans-Serif" font-size="10.00">+ocean_tide_loading</text>
<text text-anchor="middle" x="344.5" y="-662" font-family="Helvetica,sans-Serif" font-size="10.00">_model</text>
<text text-anchor="middle" x="344.5" y="-651" font-family="Helvetica,sans-Serif" font-size="10.00">...</text>
</g>
<!-- Node7 -->
<g id="node5" class="node">
<title>Node7</title>
<g id="a_node5"><a xlink:title=" ">
<polygon fill="white" stroke="red" points="347,-897.5 347,-954.5 463,-954.5 463,-897.5 347,-897.5"/>
<text text-anchor="middle" x="405" y="-942.5" font-family="Helvetica,sans-Serif" font-size="10.00">map&lt; E_Sys, bool &gt;</text>
<polyline fill="none" stroke="red" points="347,-935.5 463,-935.5 "/>
<text text-anchor="middle" x="405" y="-923.5" font-family="Helvetica,sans-Serif" font-size="10.00"> </text>
<polyline fill="none" stroke="red" points="347,-916.5 463,-916.5 "/>
<text text-anchor="middle" x="405" y="-904.5" font-family="Helvetica,sans-Serif" font-size="10.00"> </text>
</a>
</g>
</g>
<!-- Node7&#45;&gt;Node1 -->
<g id="edge4" class="edge">
<title>Node7&#45;&gt;Node1</title>
<path fill="none" stroke="#404040" d="M403.35,-897.39C400.75,-847.46 396.88,-738.92 406,-648 406.6,-642.01 407.26,-635.96 407.97,-629.88"/>
<text text-anchor="middle" x="462" y="-783" font-family="Helvetica,sans-Serif" font-size="10.00"> +network_amb_pivot</text>
<text text-anchor="middle" x="462" y="-772" font-family="Helvetica,sans-Serif" font-size="10.00">+one_phase_bias</text>
<text text-anchor="middle" x="462" y="-761" font-family="Helvetica,sans-Serif" font-size="10.00">+process_sys</text>
<text text-anchor="middle" x="462" y="-750" font-family="Helvetica,sans-Serif" font-size="10.00">+receiver_amb_pivot</text>
<text text-anchor="middle" x="462" y="-739" font-family="Helvetica,sans-Serif" font-size="10.00">+reject_eclipse</text>
<text text-anchor="middle" x="462" y="-728" font-family="Helvetica,sans-Serif" font-size="10.00">+solve_amb_for</text>
<text text-anchor="middle" x="462" y="-717" font-family="Helvetica,sans-Serif" font-size="10.00">+use_for_iono_model</text>
<text text-anchor="middle" x="462" y="-706" font-family="Helvetica,sans-Serif" font-size="10.00">+use_iono_corrections</text>
<text text-anchor="middle" x="462" y="-695" font-family="Helvetica,sans-Serif" font-size="10.00">+zero_receiver_dcb</text>
<text text-anchor="middle" x="462" y="-684" font-family="Helvetica,sans-Serif" font-size="10.00">+zero_satellite_dcb</text>
<text text-anchor="middle" x="462" y="-673" font-family="Helvetica,sans-Serif" font-size="10.00">...</text>
</g>
<!-- Node9 -->
<g id="node6" class="node">
<title>Node9</title>
<g id="a_node6"><a xlink:title=" ">
<polygon fill="white" stroke="red" points="481.5,-892 481.5,-960 596.5,-960 596.5,-892 481.5,-892"/>
<text text-anchor="start" x="489.5" y="-948" font-family="Helvetica,sans-Serif" font-size="10.00">map&lt; E_Sys, vector</text>
<text text-anchor="middle" x="539" y="-937" font-family="Helvetica,sans-Serif" font-size="10.00">&lt; E_ObsCode &gt; &gt;</text>
<polyline fill="none" stroke="red" points="481.5,-930 596.5,-930 "/>
<text text-anchor="middle" x="539" y="-918" font-family="Helvetica,sans-Serif" font-size="10.00"> </text>
<polyline fill="none" stroke="red" points="481.5,-911 596.5,-911 "/>
<text text-anchor="middle" x="539" y="-899" font-family="Helvetica,sans-Serif" font-size="10.00"> </text>
</a>
</g>
</g>
<!-- Node9&#45;&gt;Node1 -->
<g id="edge5" class="edge">
<title>Node9&#45;&gt;Node1</title>
<path fill="none" stroke="#404040" d="M537.14,-891.68C534.09,-839.6 527.4,-735.76 518,-648 517.35,-641.92 516.67,-635.79 515.98,-629.61"/>
<text text-anchor="middle" x="586.5" y="-739" font-family="Helvetica,sans-Serif" font-size="10.00"> +code_priorities</text>
<text text-anchor="middle" x="586.5" y="-728" font-family="Helvetica,sans-Serif" font-size="10.00">+zero_code_average</text>
<text text-anchor="middle" x="586.5" y="-717" font-family="Helvetica,sans-Serif" font-size="10.00">+zero_phase_average</text>
</g>
<!-- Node10 -->
<g id="node7" class="node">
<title>Node10</title>
<g id="a_node7"><a xlink:title=" ">
<polygon fill="white" stroke="red" points="614.5,-897.5 614.5,-954.5 783.5,-954.5 783.5,-897.5 614.5,-897.5"/>
<text text-anchor="middle" x="699" y="-942.5" font-family="Helvetica,sans-Serif" font-size="10.00">map&lt; E_Sys, E_NavMsgType &gt;</text>
<polyline fill="none" stroke="red" points="614.5,-935.5 783.5,-935.5 "/>
<text text-anchor="middle" x="699" y="-923.5" font-family="Helvetica,sans-Serif" font-size="10.00"> </text>
<polyline fill="none" stroke="red" points="614.5,-916.5 783.5,-916.5 "/>
<text text-anchor="middle" x="699" y="-904.5" font-family="Helvetica,sans-Serif" font-size="10.00"> </text>
</a>
</g>
</g>
<!-- Node10&#45;&gt;Node1 -->
<g id="edge6" class="edge">
<title>Node10&#45;&gt;Node1</title>
<path fill="none" stroke="#404040" d="M696.26,-897.18C690.67,-846.47 675.81,-736.1 645,-648 623.06,-585.27 591.05,-519.68 560.51,-463.53"/>
<text text-anchor="middle" x="729.5" y="-728" font-family="Helvetica,sans-Serif" font-size="10.00"> +used_nav_types</text>
</g>
<!-- Node11 -->
<g id="node8" class="node">
<title>Node11</title>
<g id="a_node8"><a xlink:title=" ">
<polygon fill="white" stroke="red" points="801.5,-897.5 801.5,-954.5 926.5,-954.5 926.5,-897.5 801.5,-897.5"/>
<text text-anchor="middle" x="864" y="-942.5" font-family="Helvetica,sans-Serif" font-size="10.00">vector&lt; E_ObsCode &gt;</text>
<polyline fill="none" stroke="red" points="801.5,-935.5 926.5,-935.5 "/>
<text text-anchor="middle" x="864" y="-923.5" font-family="Helvetica,sans-Serif" font-size="10.00"> </text>
<polyline fill="none" stroke="red" points="801.5,-916.5 926.5,-916.5 "/>
<text text-anchor="middle" x="864" y="-904.5" font-family="Helvetica,sans-Serif" font-size="10.00"> </text>
</a>
</g>
</g>
<!-- Node11&#45;&gt;Node1 -->
<g id="edge7" class="edge">
<title>Node11&#45;&gt;Node1</title>
<path fill="none" stroke="#404040" d="M859.75,-897.42C850.89,-845.67 827.16,-731.72 779,-648 721.56,-548.14 629.09,-453.67 560.63,-391.22"/>
<text text-anchor="middle" x="902" y="-728" font-family="Helvetica,sans-Serif" font-size="10.00"> +code_priorities_default</text>
</g>
<!-- Node13 -->
<g id="node9" class="node">
<title>Node13</title>
<g id="a_node9"><a xlink:title=" ">
<polygon fill="white" stroke="red" points="945,-897.5 945,-954.5 1095,-954.5 1095,-897.5 945,-897.5"/>
<text text-anchor="middle" x="1020" y="-942.5" font-family="Helvetica,sans-Serif" font-size="10.00">map&lt; E_Sys, E_ObsCode &gt;</text>
<polyline fill="none" stroke="red" points="945,-935.5 1095,-935.5 "/>
<text text-anchor="middle" x="1020" y="-923.5" font-family="Helvetica,sans-Serif" font-size="10.00"> </text>
<polyline fill="none" stroke="red" points="945,-916.5 1095,-916.5 "/>
<text text-anchor="middle" x="1020" y="-904.5" font-family="Helvetica,sans-Serif" font-size="10.00"> </text>
</a>
</g>
</g>
<!-- Node13&#45;&gt;Node1 -->
<g id="edge8" class="edge">
<title>Node13&#45;&gt;Node1</title>
<path fill="none" stroke="#404040" d="M1021.55,-897.25C1023.15,-844.24 1020.01,-726.82 968,-648 868.42,-497.07 674.13,-397.64 560.52,-349.63"/>
<text text-anchor="middle" x="1059" y="-733.5" font-family="Helvetica,sans-Serif" font-size="10.00"> +clock_codesL1</text>
<text text-anchor="middle" x="1059" y="-722.5" font-family="Helvetica,sans-Serif" font-size="10.00">+clock_codesL2</text>
</g>
</g>
</svg>
        <g id="navigator" transform="translate(0 0)" fill="#404254">
                <rect fill="#f2f5e9" fill-opacity="0.5" stroke="#606060" stroke-width=".5" x="0" y="0" width="60" height="60"/>
                <use id="zoomplus" xlink:href="#zoomPlus" x="17" y="9" onmousedown="handleZoom(evt,'in')"/>
                <use id="zoomminus" xlink:href="#zoomMin" x="42" y="9" onmousedown="handleZoom(evt,'out')"/>
                <use id="reset" xlink:href="#resetDef" x="30" y="36" onmousedown="handleReset()"/>
                <g id="arrowUp" xlink:href="#dirArrow" transform="translate(30 24)" onmousedown="handlePan(0,-1)">
                  <use xlink:href="#rim" fill="#404040">
                        <set attributeName="fill" to="#808080" begin="arrowUp.mouseover" end="arrowUp.mouseout"/>
                  </use>
                  <path fill="none" stroke="white" stroke-width="1.5" d="M0,-3.0v7 M-2.5,-0.5L0,-3.0L2.5,-0.5"/>
                </g>
                <g id="arrowRight" xlink:href="#dirArrow" transform="rotate(90) translate(36 -43)" onmousedown="handlePan(1,0)">
                  <use xlink:href="#rim" fill="#404040">
                        <set attributeName="fill" to="#808080" begin="arrowRight.mouseover" end="arrowRight.mouseout"/>
                  </use>
                  <path fill="none" stroke="white" stroke-width="1.5" d="M0,-3.0v7 M-2.5,-0.5L0,-3.0L2.5,-0.5"/>
                </g>
                <g id="arrowDown" xlink:href="#dirArrow" transform="rotate(180) translate(-30 -48)" onmousedown="handlePan(0,1)">
                  <use xlink:href="#rim" fill="#404040">
                        <set attributeName="fill" to="#808080" begin="arrowDown.mouseover" end="arrowDown.mouseout"/>
                  </use>
                  <path fill="none" stroke="white" stroke-width="1.5" d="M0,-3.0v7 M-2.5,-0.5L0,-3.0L2.5,-0.5"/>
                </g>
                <g id="arrowLeft" xlink:href="#dirArrow" transform="rotate(270) translate(-36 17)" onmousedown="handlePan(-1,0)">
                  <use xlink:href="#rim" fill="#404040">
                        <set attributeName="fill" to="#808080" begin="arrowLeft.mouseover" end="arrowLeft.mouseout"/>
                  </use>
                  <path fill="none" stroke="white" stroke-width="1.5" d="M0,-3.0v7 M-2.5,-0.5L0,-3.0L2.5,-0.5"/>
                </g>
        </g>
        <svg viewBox="0 0 15 15" width="100%" height="30px" preserveAspectRatio="xMaxYMin meet">
         <g id="arrow_out" transform="scale(0.3 0.3)">
          <a xlink:href="structGlobalOptions__coll__graph_org.svg" target="_base">
           <rect id="button" ry="5" rx="5" y="6" x="6" height="38" width="38"
                fill="#f2f5e9" fill-opacity="0.5" stroke="#606060" stroke-width="1.0"/>
           <path id="arrow"
             d="M 11.500037,31.436501 C 11.940474,20.09759 22.043105,11.32322 32.158766,21.979434 L 37.068811,17.246167 C 37.068811,17.246167 37.088388,32 37.088388,32 L 22.160133,31.978069 C 22.160133,31.978069 26.997745,27.140456 26.997745,27.140456 C 18.528582,18.264221 13.291696,25.230495 11.500037,31.436501 z"
             style="fill:#404040;"/>
          </a>
         </g>
        </svg>
</svg>
