<?xml version="1.0" encoding="UTF-8" standalone="no"?>
<!DOCTYPE svg PUBLIC "-//W3C//DTD SVG 1.1//EN"
 "http://www.w3.org/Graphics/SVG/1.1/DTD/svg11.dtd">
<!-- Generated by graphviz version 2.43.0 (0)
 -->
<!-- Title: SSRClk Pages: 1 -->
<svg width="256pt" height="402pt"
 viewBox="0.00 0.00 256.00 402.00" xmlns="http://www.w3.org/2000/svg" xmlns:xlink="http://www.w3.org/1999/xlink">
<g id="graph0" class="graph" transform="scale(1 1) rotate(0) translate(4 398)">
<title>SSRClk</title>
<polygon fill="white" stroke="transparent" points="-4,4 -4,-398 252,-398 252,4 -4,4"/>
<!-- Node1 -->
<g id="node1" class="node">
<title>Node1</title>
<g id="a_node1"><a xlink:title=" ">
<polygon fill="#bfbfbf" stroke="black" points="99,-0.5 99,-79.5 150,-79.5 150,-0.5 99,-0.5"/>
<text text-anchor="middle" x="124.5" y="-67.5" font-family="Helvetica,sans-Serif" font-size="10.00">SSRClk</text>
<polyline fill="none" stroke="black" points="99,-60.5 150,-60.5 "/>
<text text-anchor="start" x="107" y="-48.5" font-family="Helvetica,sans-Serif" font-size="10.00">+ udi</text>
<text text-anchor="start" x="107" y="-37.5" font-family="Helvetica,sans-Serif" font-size="10.00">+ iod</text>
<text text-anchor="start" x="107" y="-26.5" font-family="Helvetica,sans-Serif" font-size="10.00">+ dclk</text>
<polyline fill="none" stroke="black" points="99,-19.5 150,-19.5 "/>
<text text-anchor="middle" x="124.5" y="-7.5" font-family="Helvetica,sans-Serif" font-size="10.00"> </text>
</a>
</g>
</g>
<!-- Node2 -->
<g id="node2" class="node">
<title>Node2</title>
<g id="a_node2"><a xlink:href="$structSSRMeta.html" xlink:title=" ">
<polygon fill="white" stroke="black" points="0,-204.5 0,-316.5 117,-316.5 117,-204.5 0,-204.5"/>
<text text-anchor="middle" x="58.5" y="-304.5" font-family="Helvetica,sans-Serif" font-size="10.00">SSRMeta</text>
<polyline fill="none" stroke="black" points="0,-297.5 117,-297.5 "/>
<text text-anchor="start" x="8" y="-285.5" font-family="Helvetica,sans-Serif" font-size="10.00">+ epochTime1s</text>
<text text-anchor="start" x="8" y="-274.5" font-family="Helvetica,sans-Serif" font-size="10.00">+ ssrUpdateIntIndex</text>
<text text-anchor="start" x="8" y="-263.5" font-family="Helvetica,sans-Serif" font-size="10.00">+ multipleMessage</text>
<text text-anchor="start" x="8" y="-252.5" font-family="Helvetica,sans-Serif" font-size="10.00">+ referenceDatum</text>
<text text-anchor="start" x="8" y="-241.5" font-family="Helvetica,sans-Serif" font-size="10.00">+ provider</text>
<text text-anchor="start" x="8" y="-230.5" font-family="Helvetica,sans-Serif" font-size="10.00">+ solution</text>
<polyline fill="none" stroke="black" points="0,-223.5 117,-223.5 "/>
<text text-anchor="middle" x="58.5" y="-211.5" font-family="Helvetica,sans-Serif" font-size="10.00"> </text>
</a>
</g>
</g>
<!-- Node2&#45;&gt;Node1 -->
<g id="edge1" class="edge">
<title>Node2&#45;&gt;Node1</title>
<path fill="none" stroke="#404040" d="M75.15,-204.36C86.92,-165.42 102.38,-114.22 112.84,-79.59"/>
<text text-anchor="middle" x="133" y="-101" font-family="Helvetica,sans-Serif" font-size="10.00"> +ssrMeta</text>
</g>
<!-- Node3 -->
<g id="node3" class="node">
<title>Node3</title>
<g id="a_node3"><a xlink:href="$structGTime.html" xlink:title="Time structure used throughout this software.">
<polygon fill="white" stroke="black" points="135,-127.5 135,-393.5 248,-393.5 248,-127.5 135,-127.5"/>
<text text-anchor="middle" x="191.5" y="-381.5" font-family="Helvetica,sans-Serif" font-size="10.00">GTime</text>
<polyline fill="none" stroke="black" points="135,-374.5 248,-374.5 "/>
<text text-anchor="start" x="143" y="-362.5" font-family="Helvetica,sans-Serif" font-size="10.00">+ time</text>
<text text-anchor="start" x="143" y="-351.5" font-family="Helvetica,sans-Serif" font-size="10.00">+ sec</text>
<polyline fill="none" stroke="black" points="135,-344.5 248,-344.5 "/>
<text text-anchor="start" x="143" y="-332.5" font-family="Helvetica,sans-Serif" font-size="10.00">+ to_string()</text>
<text text-anchor="start" x="143" y="-321.5" font-family="Helvetica,sans-Serif" font-size="10.00">+ operator==()</text>
<text text-anchor="start" x="143" y="-310.5" font-family="Helvetica,sans-Serif" font-size="10.00">+ operator!=()</text>
<text text-anchor="start" x="143" y="-299.5" font-family="Helvetica,sans-Serif" font-size="10.00">+ operator&lt;()</text>
<text text-anchor="start" x="143" y="-288.5" font-family="Helvetica,sans-Serif" font-size="10.00">+ operator&gt;()</text>
<text text-anchor="start" x="143" y="-277.5" font-family="Helvetica,sans-Serif" font-size="10.00">+ operator+()</text>
<text text-anchor="start" x="143" y="-266.5" font-family="Helvetica,sans-Serif" font-size="10.00">+ operator+()</text>
<text text-anchor="start" x="143" y="-255.5" font-family="Helvetica,sans-Serif" font-size="10.00">+ operator+=()</text>
<text text-anchor="start" x="143" y="-244.5" font-family="Helvetica,sans-Serif" font-size="10.00">+ operator&#45;()</text>
<text text-anchor="start" x="143" y="-233.5" font-family="Helvetica,sans-Serif" font-size="10.00">+ operator&#45;()</text>
<text text-anchor="start" x="143" y="-222.5" font-family="Helvetica,sans-Serif" font-size="10.00">+ operator double()</text>
<text text-anchor="start" x="143" y="-211.5" font-family="Helvetica,sans-Serif" font-size="10.00">+ operator++()</text>
<text text-anchor="start" x="143" y="-200.5" font-family="Helvetica,sans-Serif" font-size="10.00">+ to_ptime()</text>
<text text-anchor="start" x="143" y="-189.5" font-family="Helvetica,sans-Serif" font-size="10.00">+ GTime()</text>
<text text-anchor="start" x="143" y="-178.5" font-family="Helvetica,sans-Serif" font-size="10.00">+ GTime()</text>
<text text-anchor="start" x="143" y="-167.5" font-family="Helvetica,sans-Serif" font-size="10.00">+ GTime()</text>
<text text-anchor="start" x="143" y="-156.5" font-family="Helvetica,sans-Serif" font-size="10.00">+ serialize()</text>
<text text-anchor="start" x="143" y="-145.5" font-family="Helvetica,sans-Serif" font-size="10.00">+ roundTime()</text>
<text text-anchor="start" x="143" y="-134.5" font-family="Helvetica,sans-Serif" font-size="10.00">+ noTime()</text>
</a>
</g>
</g>
<!-- Node3&#45;&gt;Node1 -->
<g id="edge2" class="edge">
<title>Node3&#45;&gt;Node1</title>
<path fill="none" stroke="#404040" d="M172.43,-127.33C169.57,-117.27 166.28,-107.38 162.5,-98 159.26,-89.95 154.77,-81.85 150.02,-74.39"/>
<text text-anchor="middle" x="176.5" y="-101" font-family="Helvetica,sans-Serif" font-size="10.00"> +t0</text>
</g>
</g>
</svg>
