<?xml version="1.0" encoding="UTF-8" standalone="no"?>
<!DOCTYPE svg PUBLIC "-//W3C//DTD SVG 1.1//EN"
 "http://www.w3.org/Graphics/SVG/1.1/DTD/svg11.dtd">
<!-- Generated by graphviz version 2.43.0 (0)
 -->
<!-- Title: SSRBias Pages: 1 -->
<svg width="433pt" height="391pt"
 viewBox="0.00 0.00 433.00 391.00" xmlns="http://www.w3.org/2000/svg" xmlns:xlink="http://www.w3.org/1999/xlink">
<g id="graph0" class="graph" transform="scale(1 1) rotate(0) translate(4 387)">
<title>SSRBias</title>
<polygon fill="white" stroke="transparent" points="-4,4 -4,-387 429,-387 429,4 -4,4"/>
<!-- Node1 -->
<g id="node1" class="node">
<title>Node1</title>
<g id="a_node1"><a xlink:title=" ">
<polygon fill="#bfbfbf" stroke="black" points="163.5,-0.5 163.5,-68.5 219.5,-68.5 219.5,-0.5 163.5,-0.5"/>
<text text-anchor="middle" x="191.5" y="-56.5" font-family="Helvetica,sans-Serif" font-size="10.00">SSRBias</text>
<polyline fill="none" stroke="black" points="163.5,-49.5 219.5,-49.5 "/>
<text text-anchor="start" x="171.5" y="-37.5" font-family="Helvetica,sans-Serif" font-size="10.00">+ udi</text>
<text text-anchor="start" x="171.5" y="-26.5" font-family="Helvetica,sans-Serif" font-size="10.00">+ iod</text>
<polyline fill="none" stroke="black" points="163.5,-19.5 219.5,-19.5 "/>
<text text-anchor="middle" x="191.5" y="-7.5" font-family="Helvetica,sans-Serif" font-size="10.00"> </text>
</a>
</g>
</g>
<!-- Node2 -->
<g id="node2" class="node">
<title>Node2</title>
<g id="a_node2"><a xlink:href="structSSRMeta.html" target="_top" xlink:title=" ">
<polygon fill="white" stroke="black" points="0,-193.5 0,-305.5 117,-305.5 117,-193.5 0,-193.5"/>
<text text-anchor="middle" x="58.5" y="-293.5" font-family="Helvetica,sans-Serif" font-size="10.00">SSRMeta</text>
<polyline fill="none" stroke="black" points="0,-286.5 117,-286.5 "/>
<text text-anchor="start" x="8" y="-274.5" font-family="Helvetica,sans-Serif" font-size="10.00">+ epochTime1s</text>
<text text-anchor="start" x="8" y="-263.5" font-family="Helvetica,sans-Serif" font-size="10.00">+ ssrUpdateIntIndex</text>
<text text-anchor="start" x="8" y="-252.5" font-family="Helvetica,sans-Serif" font-size="10.00">+ multipleMessage</text>
<text text-anchor="start" x="8" y="-241.5" font-family="Helvetica,sans-Serif" font-size="10.00">+ referenceDatum</text>
<text text-anchor="start" x="8" y="-230.5" font-family="Helvetica,sans-Serif" font-size="10.00">+ provider</text>
<text text-anchor="start" x="8" y="-219.5" font-family="Helvetica,sans-Serif" font-size="10.00">+ solution</text>
<polyline fill="none" stroke="black" points="0,-212.5 117,-212.5 "/>
<text text-anchor="middle" x="58.5" y="-200.5" font-family="Helvetica,sans-Serif" font-size="10.00"> </text>
</a>
</g>
</g>
<!-- Node2&#45;&gt;Node1 -->
<g id="edge1" class="edge">
<title>Node2&#45;&gt;Node1</title>
<path fill="none" stroke="#404040" d="M79.16,-193.34C92.78,-160.75 112.52,-119.61 136.5,-87 144.17,-76.57 154.14,-66.5 163.47,-58.08"/>
<text text-anchor="middle" x="162" y="-90" font-family="Helvetica,sans-Serif" font-size="10.00"> +ssrMeta</text>
</g>
<!-- Node3 -->
<g id="node3" class="node">
<title>Node3</title>
<g id="a_node3"><a xlink:href="structGTime.html" target="_top" xlink:title="Time structure used throughout this software.">
<polygon fill="white" stroke="black" points="135,-116.5 135,-382.5 248,-382.5 248,-116.5 135,-116.5"/>
<text text-anchor="middle" x="191.5" y="-370.5" font-family="Helvetica,sans-Serif" font-size="10.00">GTime</text>
<polyline fill="none" stroke="black" points="135,-363.5 248,-363.5 "/>
<text text-anchor="start" x="143" y="-351.5" font-family="Helvetica,sans-Serif" font-size="10.00">+ time</text>
<text text-anchor="start" x="143" y="-340.5" font-family="Helvetica,sans-Serif" font-size="10.00">+ sec</text>
<polyline fill="none" stroke="black" points="135,-333.5 248,-333.5 "/>
<text text-anchor="start" x="143" y="-321.5" font-family="Helvetica,sans-Serif" font-size="10.00">+ to_string()</text>
<text text-anchor="start" x="143" y="-310.5" font-family="Helvetica,sans-Serif" font-size="10.00">+ operator==()</text>
<text text-anchor="start" x="143" y="-299.5" font-family="Helvetica,sans-Serif" font-size="10.00">+ operator!=()</text>
<text text-anchor="start" x="143" y="-288.5" font-family="Helvetica,sans-Serif" font-size="10.00">+ operator&lt;()</text>
<text text-anchor="start" x="143" y="-277.5" font-family="Helvetica,sans-Serif" font-size="10.00">+ operator&gt;()</text>
<text text-anchor="start" x="143" y="-266.5" font-family="Helvetica,sans-Serif" font-size="10.00">+ operator+()</text>
<text text-anchor="start" x="143" y="-255.5" font-family="Helvetica,sans-Serif" font-size="10.00">+ operator+()</text>
<text text-anchor="start" x="143" y="-244.5" font-family="Helvetica,sans-Serif" font-size="10.00">+ operator+=()</text>
<text text-anchor="start" x="143" y="-233.5" font-family="Helvetica,sans-Serif" font-size="10.00">+ operator&#45;()</text>
<text text-anchor="start" x="143" y="-222.5" font-family="Helvetica,sans-Serif" font-size="10.00">+ operator&#45;()</text>
<text text-anchor="start" x="143" y="-211.5" font-family="Helvetica,sans-Serif" font-size="10.00">+ operator double()</text>
<text text-anchor="start" x="143" y="-200.5" font-family="Helvetica,sans-Serif" font-size="10.00">+ operator++()</text>
<text text-anchor="start" x="143" y="-189.5" font-family="Helvetica,sans-Serif" font-size="10.00">+ to_ptime()</text>
<text text-anchor="start" x="143" y="-178.5" font-family="Helvetica,sans-Serif" font-size="10.00">+ GTime()</text>
<text text-anchor="start" x="143" y="-167.5" font-family="Helvetica,sans-Serif" font-size="10.00">+ GTime()</text>
<text text-anchor="start" x="143" y="-156.5" font-family="Helvetica,sans-Serif" font-size="10.00">+ GTime()</text>
<text text-anchor="start" x="143" y="-145.5" font-family="Helvetica,sans-Serif" font-size="10.00">+ serialize()</text>
<text text-anchor="start" x="143" y="-134.5" font-family="Helvetica,sans-Serif" font-size="10.00">+ roundTime()</text>
<text text-anchor="start" x="143" y="-123.5" font-family="Helvetica,sans-Serif" font-size="10.00">+ noTime()</text>
</a>
</g>
</g>
<!-- Node3&#45;&gt;Node1 -->
<g id="edge2" class="edge">
<title>Node3&#45;&gt;Node1</title>
<path fill="none" stroke="#404040" d="M191.5,-116.33C191.5,-98.85 191.5,-82.35 191.5,-68.87"/>
<text text-anchor="middle" x="202.5" y="-90" font-family="Helvetica,sans-Serif" font-size="10.00"> +t0</text>
</g>
<!-- Node4 -->
<g id="node4" class="node">
<title>Node4</title>
<g id="a_node4"><a xlink:title=" ">
<polygon fill="white" stroke="red" points="266,-221 266,-278 425,-278 425,-221 266,-221"/>
<text text-anchor="middle" x="345.5" y="-266" font-family="Helvetica,sans-Serif" font-size="10.00">map&lt; E_ObsCode, BiasVar &gt;</text>
<polyline fill="none" stroke="red" points="266,-259 425,-259 "/>
<text text-anchor="middle" x="345.5" y="-247" font-family="Helvetica,sans-Serif" font-size="10.00"> </text>
<polyline fill="none" stroke="red" points="266,-240 425,-240 "/>
<text text-anchor="middle" x="345.5" y="-228" font-family="Helvetica,sans-Serif" font-size="10.00"> </text>
</a>
</g>
</g>
<!-- Node4&#45;&gt;Node1 -->
<g id="edge3" class="edge">
<title>Node4&#45;&gt;Node1</title>
<path fill="none" stroke="#404040" d="M328.25,-220.8C311.05,-193.6 283.52,-151.2 257.5,-116 245.58,-99.87 231.58,-82.59 219.56,-68.2"/>
<text text-anchor="middle" x="291.5" y="-90" font-family="Helvetica,sans-Serif" font-size="10.00"> +obsCodeBiasMap</text>
</g>
</g>
</svg>
