<?xml version="1.0" encoding="UTF-8" standalone="no"?>
<!DOCTYPE svg PUBLIC "-//W3C//DTD SVG 1.1//EN"
 "http://www.w3.org/Graphics/SVG/1.1/DTD/svg11.dtd">
<!-- Generated by graphviz version 2.43.0 (0)
 -->
<!-- Title: SlrParser Pages: 1 -->
<svg width="177pt" height="204pt"
 viewBox="0.00 0.00 176.50 204.00" xmlns="http://www.w3.org/2000/svg" xmlns:xlink="http://www.w3.org/1999/xlink">
<g id="graph0" class="graph" transform="scale(1 1) rotate(0) translate(4 200)">
<title>SlrParser</title>
<polygon fill="white" stroke="transparent" points="-4,4 -4,-200 172.5,-200 172.5,4 -4,4"/>
<!-- Node1 -->
<g id="node1" class="node">
<title>Node1</title>
<g id="a_node1"><a xlink:title="Interface for slr streams.">
<polygon fill="#bfbfbf" stroke="black" points="46,-0.5 46,-79.5 135,-79.5 135,-0.5 46,-0.5"/>
<text text-anchor="middle" x="90.5" y="-67.5" font-family="Helvetica,sans-Serif" font-size="10.00">SlrParser</text>
<polyline fill="none" stroke="black" points="46,-60.5 135,-60.5 "/>
<text text-anchor="middle" x="90.5" y="-48.5" font-family="Helvetica,sans-Serif" font-size="10.00"> </text>
<polyline fill="none" stroke="black" points="46,-41.5 135,-41.5 "/>
<text text-anchor="start" x="54" y="-29.5" font-family="Helvetica,sans-Serif" font-size="10.00">+ SlrParser()</text>
<text text-anchor="start" x="54" y="-18.5" font-family="Helvetica,sans-Serif" font-size="10.00">+ parse()</text>
<text text-anchor="start" x="54" y="-7.5" font-family="Helvetica,sans-Serif" font-size="10.00">+ parserType()</text>
</a>
</g>
</g>
<!-- Node2 -->
<g id="node2" class="node">
<title>Node2</title>
<g id="a_node2"><a xlink:href="structParser.html" target="_top" xlink:title=" ">
<polygon fill="white" stroke="black" points="0,-116.5 0,-195.5 89,-195.5 89,-116.5 0,-116.5"/>
<text text-anchor="middle" x="44.5" y="-183.5" font-family="Helvetica,sans-Serif" font-size="10.00">Parser</text>
<polyline fill="none" stroke="black" points="0,-176.5 89,-176.5 "/>
<text text-anchor="middle" x="44.5" y="-164.5" font-family="Helvetica,sans-Serif" font-size="10.00"> </text>
<polyline fill="none" stroke="black" points="0,-157.5 89,-157.5 "/>
<text text-anchor="start" x="8" y="-145.5" font-family="Helvetica,sans-Serif" font-size="10.00">+ parse()</text>
<text text-anchor="start" x="8" y="-134.5" font-family="Helvetica,sans-Serif" font-size="10.00">+ parserType()</text>
<text text-anchor="start" x="8" y="-123.5" font-family="Helvetica,sans-Serif" font-size="10.00">+ ~Parser()</text>
</a>
</g>
</g>
<!-- Node2&#45;&gt;Node1 -->
<g id="edge1" class="edge">
<title>Node2&#45;&gt;Node1</title>
<path fill="none" stroke="midnightblue" d="M60.07,-116.4C64.87,-104.52 70.15,-91.44 74.94,-79.56"/>
</g>
<!-- Node3 -->
<g id="node3" class="node">
<title>Node3</title>
<g id="a_node3"><a xlink:href="structObsLister.html" target="_top" xlink:title=" ">
<polygon fill="white" stroke="red" points="106.5,-127.5 106.5,-184.5 168.5,-184.5 168.5,-127.5 106.5,-127.5"/>
<text text-anchor="middle" x="137.5" y="-172.5" font-family="Helvetica,sans-Serif" font-size="10.00">ObsLister</text>
<polyline fill="none" stroke="red" points="106.5,-165.5 168.5,-165.5 "/>
<text text-anchor="middle" x="137.5" y="-153.5" font-family="Helvetica,sans-Serif" font-size="10.00"> </text>
<polyline fill="none" stroke="red" points="106.5,-146.5 168.5,-146.5 "/>
<text text-anchor="middle" x="137.5" y="-134.5" font-family="Helvetica,sans-Serif" font-size="10.00"> </text>
</a>
</g>
</g>
<!-- Node3&#45;&gt;Node1 -->
<g id="edge2" class="edge">
<title>Node3&#45;&gt;Node1</title>
<path fill="none" stroke="midnightblue" d="M126.12,-127.4C120.2,-113.04 112.86,-95.24 106.39,-79.54"/>
</g>
</g>
</svg>
