<?xml version="1.0" encoding="UTF-8" standalone="no"?>
<!DOCTYPE svg PUBLIC "-//W3C//DTD SVG 1.1//EN"
 "http://www.w3.org/Graphics/SVG/1.1/DTD/svg11.dtd">
<!-- Generated by graphviz version 2.43.0 (0)
 -->
<!-- Title: Rtk Pages: 1 -->
<!--zoomable 303 -->
<svg id="main" version="1.1" xmlns="http://www.w3.org/2000/svg" xmlns:xlink="http://www.w3.org/1999/xlink" xml:space="preserve" onload="init(evt)">
<style type="text/css"><![CDATA[
.edge:hover path { stroke: red; }
.edge:hover polygon { stroke: red; fill: red; }
]]></style>
<script type="text/javascript"><![CDATA[
var edges = document.getElementsByTagName('g');
if (edges && edges.length) {
  for (var i=0;i<edges.length;i++) {
    if (edges[i].id.substr(0,4)=='edge') {
      edges[i].setAttribute('class','edge');
    }
  }
}
]]></script>
        <defs>
                <circle id="rim" cx="0" cy="0" r="7"/>
                <circle id="rim2" cx="0" cy="0" r="3.5"/>
                <g id="zoomPlus">
                        <use xlink:href="#rim" fill="#404040">
                                <set attributeName="fill" to="#808080" begin="zoomplus.mouseover" end="zoomplus.mouseout"/>
                        </use>
                        <path d="M-4,0h8M0,-4v8" fill="none" stroke="white" stroke-width="1.5" pointer-events="none"/>
                </g>
                <g id="zoomMin">
                        <use xlink:href="#rim" fill="#404040">
                                <set attributeName="fill" to="#808080" begin="zoomminus.mouseover" end="zoomminus.mouseout"/>
                        </use>
                        <path d="M-4,0h8" fill="none" stroke="white" stroke-width="1.5" pointer-events="none"/>
                </g>
                <g id="dirArrow">
                        <path fill="none" stroke="white" stroke-width="1.5" d="M0,-3.0v7 M-2.5,-0.5L0,-3.0L2.5,-0.5"/>
                </g>
               <g id="resetDef">
                       <use xlink:href="#rim2" fill="#404040">
                               <set attributeName="fill" to="#808080" begin="reset.mouseover" end="reset.mouseout"/>
                       </use>
               </g>
        </defs>

<script type="text/javascript">
var viewWidth = 599;
var viewHeight = 303;
var sectionId = 'dynsection-1';
</script>
<script xlink:href="svgpan.js"/>
<svg id="graph" class="graph">
<g id="viewport">
<title>Rtk</title>
<polygon fill="white" stroke="transparent" points="-4,4 -4,-299 594.5,-299 594.5,4 -4,4"/>
<!-- Node1 -->
<g id="node1" class="node">
<title>Node1</title>
<g id="a_node1"><a xlink:title=" ">
<polygon fill="#bfbfbf" stroke="black" points="252.5,-0.5 252.5,-57.5 285.5,-57.5 285.5,-0.5 252.5,-0.5"/>
<text text-anchor="middle" x="269" y="-45.5" font-family="Helvetica,sans-Serif" font-size="10.00">Rtk</text>
<polyline fill="none" stroke="black" points="252.5,-38.5 285.5,-38.5 "/>
<text text-anchor="middle" x="269" y="-26.5" font-family="Helvetica,sans-Serif" font-size="10.00"> </text>
<polyline fill="none" stroke="black" points="252.5,-19.5 285.5,-19.5 "/>
<text text-anchor="middle" x="269" y="-7.5" font-family="Helvetica,sans-Serif" font-size="10.00"> </text>
</a>
</g>
</g>
<!-- Node2 -->
<g id="node2" class="node">
<title>Node2</title>
<g id="a_node2"><a xlink:href="structSolution.html" target="_top" xlink:title="Solution of user mode processing functinos.">
<polygon fill="white" stroke="red" points="0,-171.5 0,-250.5 76,-250.5 76,-171.5 0,-171.5"/>
<text text-anchor="middle" x="38" y="-238.5" font-family="Helvetica,sans-Serif" font-size="10.00">Solution</text>
<polyline fill="none" stroke="red" points="0,-231.5 76,-231.5 "/>
<text text-anchor="start" x="8" y="-219.5" font-family="Helvetica,sans-Serif" font-size="10.00">+ status</text>
<text text-anchor="start" x="8" y="-208.5" font-family="Helvetica,sans-Serif" font-size="10.00">+ numMeas</text>
<text text-anchor="start" x="8" y="-197.5" font-family="Helvetica,sans-Serif" font-size="10.00">+ dop</text>
<polyline fill="none" stroke="red" points="0,-190.5 76,-190.5 "/>
<text text-anchor="middle" x="38" y="-178.5" font-family="Helvetica,sans-Serif" font-size="10.00"> </text>
</a>
</g>
</g>
<!-- Node2&#45;&gt;Node1 -->
<g id="edge1" class="edge">
<title>Node2&#45;&gt;Node1</title>
<path fill="none" stroke="#404040" d="M44.22,-171.35C51.07,-141.18 65.08,-100.42 93,-76 134.79,-39.46 202.17,-31.41 240.29,-29.96"/>
<polygon fill="none" stroke="#404040" points="240.47,-29.95 246.38,-25.82 252.47,-29.68 246.56,-33.81 240.47,-29.95"/>
<text text-anchor="middle" x="106" y="-90" font-family="Helvetica,sans-Serif" font-size="10.00"> +sol</text>
</g>
<!-- Node10 -->
<g id="node3" class="node">
<title>Node10</title>
<g id="a_node3"><a xlink:title=" ">
<polygon fill="white" stroke="black" points="94,-182.5 94,-239.5 138,-239.5 138,-182.5 94,-182.5"/>
<text text-anchor="middle" x="116" y="-227.5" font-family="Helvetica,sans-Serif" font-size="10.00">string</text>
<polyline fill="none" stroke="black" points="94,-220.5 138,-220.5 "/>
<text text-anchor="middle" x="116" y="-208.5" font-family="Helvetica,sans-Serif" font-size="10.00"> </text>
<polyline fill="none" stroke="black" points="94,-201.5 138,-201.5 "/>
<text text-anchor="middle" x="116" y="-189.5" font-family="Helvetica,sans-Serif" font-size="10.00"> </text>
</a>
</g>
</g>
<!-- Node10&#45;&gt;Node1 -->
<g id="edge2" class="edge">
<title>Node10&#45;&gt;Node1</title>
<path fill="none" stroke="#404040" d="M113.63,-182.24C112.64,-152.52 115.77,-105.65 141,-76 165.93,-46.71 210.96,-36.07 240.42,-32.2"/>
<polygon fill="none" stroke="#404040" points="240.43,-32.2 245.95,-27.57 252.35,-30.9 246.83,-35.53 240.43,-32.2"/>
<text text-anchor="middle" x="176.5" y="-101" font-family="Helvetica,sans-Serif" font-size="10.00"> +antennaId</text>
<text text-anchor="middle" x="176.5" y="-90" font-family="Helvetica,sans-Serif" font-size="10.00">+antennaType</text>
<text text-anchor="middle" x="176.5" y="-79" font-family="Helvetica,sans-Serif" font-size="10.00">+receiverType</text>
</g>
<!-- Node53 -->
<g id="node4" class="node">
<title>Node53</title>
<g id="a_node4"><a xlink:title=" ">
<polygon fill="white" stroke="red" points="156.5,-182.5 156.5,-239.5 291.5,-239.5 291.5,-182.5 156.5,-182.5"/>
<text text-anchor="middle" x="224" y="-227.5" font-family="Helvetica,sans-Serif" font-size="10.00">map&lt; SatSys, SatStat &gt;</text>
<polyline fill="none" stroke="red" points="156.5,-220.5 291.5,-220.5 "/>
<text text-anchor="middle" x="224" y="-208.5" font-family="Helvetica,sans-Serif" font-size="10.00"> </text>
<polyline fill="none" stroke="red" points="156.5,-201.5 291.5,-201.5 "/>
<text text-anchor="middle" x="224" y="-189.5" font-family="Helvetica,sans-Serif" font-size="10.00"> </text>
</a>
</g>
</g>
<!-- Node53&#45;&gt;Node1 -->
<g id="edge3" class="edge">
<title>Node53&#45;&gt;Node1</title>
<path fill="none" stroke="#404040" d="M218.45,-182.42C214.14,-154.49 210.97,-110.6 225,-76 228.91,-66.35 235.91,-57.57 243.18,-50.33"/>
<polygon fill="none" stroke="#404040" points="243.45,-50.09 245.21,-43.1 252.34,-42.03 250.58,-49.03 243.45,-50.09"/>
<text text-anchor="middle" x="258.5" y="-90" font-family="Helvetica,sans-Serif" font-size="10.00"> +satStatMap</text>
</g>
<!-- Node54 -->
<g id="node5" class="node">
<title>Node54</title>
<g id="a_node5"><a xlink:href="structTideMap.html" target="_top" xlink:title="Map of ocean/atmospheric tide loading displacements.">
<polygon fill="white" stroke="red" points="309.5,-182.5 309.5,-239.5 368.5,-239.5 368.5,-182.5 309.5,-182.5"/>
<text text-anchor="middle" x="339" y="-227.5" font-family="Helvetica,sans-Serif" font-size="10.00">TideMap</text>
<polyline fill="none" stroke="red" points="309.5,-220.5 368.5,-220.5 "/>
<text text-anchor="middle" x="339" y="-208.5" font-family="Helvetica,sans-Serif" font-size="10.00"> </text>
<polyline fill="none" stroke="red" points="309.5,-201.5 368.5,-201.5 "/>
<text text-anchor="middle" x="339" y="-189.5" font-family="Helvetica,sans-Serif" font-size="10.00"> </text>
</a>
</g>
</g>
<!-- Node54&#45;&gt;Node1 -->
<g id="edge4" class="edge">
<title>Node54&#45;&gt;Node1</title>
<path fill="none" stroke="#404040" d="M330.45,-182.41C321.71,-155.05 307.28,-112.1 292,-76 291.02,-73.69 289.98,-71.33 288.9,-68.96"/>
<polygon fill="none" stroke="#404040" points="288.82,-68.8 282.64,-65.09 283.68,-57.96 289.87,-61.66 288.82,-68.8"/>
<text text-anchor="middle" x="350" y="-95.5" font-family="Helvetica,sans-Serif" font-size="10.00"> +atlDisplacement</text>
<text text-anchor="middle" x="350" y="-84.5" font-family="Helvetica,sans-Serif" font-size="10.00">+otlDisplacement</text>
</g>
<!-- Node39 -->
<g id="node6" class="node">
<title>Node39</title>
<g id="a_node6"><a xlink:href="structVectorEnu.html" target="_top" xlink:title=" ">
<polygon fill="white" stroke="red" points="386.5,-127.5 386.5,-294.5 471.5,-294.5 471.5,-127.5 386.5,-127.5"/>
<text text-anchor="middle" x="429" y="-282.5" font-family="Helvetica,sans-Serif" font-size="10.00">VectorEnu</text>
<polyline fill="none" stroke="red" points="386.5,-275.5 471.5,-275.5 "/>
<text text-anchor="middle" x="429" y="-263.5" font-family="Helvetica,sans-Serif" font-size="10.00"> </text>
<polyline fill="none" stroke="red" points="386.5,-256.5 471.5,-256.5 "/>
<text text-anchor="start" x="394.5" y="-244.5" font-family="Helvetica,sans-Serif" font-size="10.00">+ VectorEnu()</text>
<text text-anchor="start" x="394.5" y="-233.5" font-family="Helvetica,sans-Serif" font-size="10.00">+ VectorEnu()</text>
<text text-anchor="start" x="394.5" y="-222.5" font-family="Helvetica,sans-Serif" font-size="10.00">+ operator=()</text>
<text text-anchor="start" x="394.5" y="-211.5" font-family="Helvetica,sans-Serif" font-size="10.00">+ operator*()</text>
<text text-anchor="start" x="394.5" y="-200.5" font-family="Helvetica,sans-Serif" font-size="10.00">+ operator&#45;()</text>
<text text-anchor="start" x="394.5" y="-189.5" font-family="Helvetica,sans-Serif" font-size="10.00">+ operator+()</text>
<text text-anchor="start" x="394.5" y="-178.5" font-family="Helvetica,sans-Serif" font-size="10.00">+ e()</text>
<text text-anchor="start" x="394.5" y="-167.5" font-family="Helvetica,sans-Serif" font-size="10.00">+ n()</text>
<text text-anchor="start" x="394.5" y="-156.5" font-family="Helvetica,sans-Serif" font-size="10.00">+ u()</text>
<text text-anchor="start" x="394.5" y="-145.5" font-family="Helvetica,sans-Serif" font-size="10.00">+ r()</text>
<text text-anchor="start" x="394.5" y="-134.5" font-family="Helvetica,sans-Serif" font-size="10.00">+ f()</text>
</a>
</g>
</g>
<!-- Node39&#45;&gt;Node1 -->
<g id="edge5" class="edge">
<title>Node39&#45;&gt;Node1</title>
<path fill="none" stroke="#404040" d="M424.59,-127.32C420.16,-108.72 412.6,-90.28 400,-76 374.02,-46.56 328.06,-35.96 298.07,-32.15"/>
<polygon fill="none" stroke="#404040" points="297.85,-32.12 291.46,-35.47 285.92,-30.86 292.31,-27.51 297.85,-32.12"/>
<text text-anchor="middle" x="445" y="-90" font-family="Helvetica,sans-Serif" font-size="10.00"> +antDelta</text>
</g>
<!-- Node56 -->
<g id="node7" class="node">
<title>Node56</title>
<g id="a_node7"><a xlink:href="structAttStatus.html" target="_top" xlink:title="Persistent data for yaw model.">
<polygon fill="white" stroke="red" points="489.5,-155 489.5,-267 590.5,-267 590.5,-155 489.5,-155"/>
<text text-anchor="middle" x="540" y="-255" font-family="Helvetica,sans-Serif" font-size="10.00">AttStatus</text>
<polyline fill="none" stroke="red" points="489.5,-248 590.5,-248 "/>
<text text-anchor="start" x="497.5" y="-236" font-family="Helvetica,sans-Serif" font-size="10.00">+ startSign</text>
<text text-anchor="start" x="497.5" y="-225" font-family="Helvetica,sans-Serif" font-size="10.00">+ startYaw</text>
<text text-anchor="start" x="497.5" y="-214" font-family="Helvetica,sans-Serif" font-size="10.00">+ startYawRate</text>
<text text-anchor="start" x="497.5" y="-203" font-family="Helvetica,sans-Serif" font-size="10.00">+ nominalYaw</text>
<text text-anchor="start" x="497.5" y="-192" font-family="Helvetica,sans-Serif" font-size="10.00">+ modelYaw</text>
<text text-anchor="start" x="497.5" y="-181" font-family="Helvetica,sans-Serif" font-size="10.00">+ modelYawValid</text>
<polyline fill="none" stroke="red" points="489.5,-174 590.5,-174 "/>
<text text-anchor="middle" x="540" y="-162" font-family="Helvetica,sans-Serif" font-size="10.00"> </text>
</a>
</g>
</g>
<!-- Node56&#45;&gt;Node1 -->
<g id="edge6" class="edge">
<title>Node56&#45;&gt;Node1</title>
<path fill="none" stroke="#404040" d="M526.1,-154.72C516.43,-127.19 500.72,-95.66 476,-76 448.63,-54.23 347.84,-39.43 297.71,-33.25"/>
<polygon fill="none" stroke="#404040" points="297.49,-33.23 291.05,-36.49 285.57,-31.8 292,-28.54 297.49,-33.23"/>
<text text-anchor="middle" x="530" y="-90" font-family="Helvetica,sans-Serif" font-size="10.00"> +attStatus</text>
</g>
</g>
</svg>
        <g id="navigator" transform="translate(0 0)" fill="#404254">
                <rect fill="#f2f5e9" fill-opacity="0.5" stroke="#606060" stroke-width=".5" x="0" y="0" width="60" height="60"/>
                <use id="zoomplus" xlink:href="#zoomPlus" x="17" y="9" onmousedown="handleZoom(evt,'in')"/>
                <use id="zoomminus" xlink:href="#zoomMin" x="42" y="9" onmousedown="handleZoom(evt,'out')"/>
                <use id="reset" xlink:href="#resetDef" x="30" y="36" onmousedown="handleReset()"/>
                <g id="arrowUp" xlink:href="#dirArrow" transform="translate(30 24)" onmousedown="handlePan(0,-1)">
                  <use xlink:href="#rim" fill="#404040">
                        <set attributeName="fill" to="#808080" begin="arrowUp.mouseover" end="arrowUp.mouseout"/>
                  </use>
                  <path fill="none" stroke="white" stroke-width="1.5" d="M0,-3.0v7 M-2.5,-0.5L0,-3.0L2.5,-0.5"/>
                </g>
                <g id="arrowRight" xlink:href="#dirArrow" transform="rotate(90) translate(36 -43)" onmousedown="handlePan(1,0)">
                  <use xlink:href="#rim" fill="#404040">
                        <set attributeName="fill" to="#808080" begin="arrowRight.mouseover" end="arrowRight.mouseout"/>
                  </use>
                  <path fill="none" stroke="white" stroke-width="1.5" d="M0,-3.0v7 M-2.5,-0.5L0,-3.0L2.5,-0.5"/>
                </g>
                <g id="arrowDown" xlink:href="#dirArrow" transform="rotate(180) translate(-30 -48)" onmousedown="handlePan(0,1)">
                  <use xlink:href="#rim" fill="#404040">
                        <set attributeName="fill" to="#808080" begin="arrowDown.mouseover" end="arrowDown.mouseout"/>
                  </use>
                  <path fill="none" stroke="white" stroke-width="1.5" d="M0,-3.0v7 M-2.5,-0.5L0,-3.0L2.5,-0.5"/>
                </g>
                <g id="arrowLeft" xlink:href="#dirArrow" transform="rotate(270) translate(-36 17)" onmousedown="handlePan(-1,0)">
                  <use xlink:href="#rim" fill="#404040">
                        <set attributeName="fill" to="#808080" begin="arrowLeft.mouseover" end="arrowLeft.mouseout"/>
                  </use>
                  <path fill="none" stroke="white" stroke-width="1.5" d="M0,-3.0v7 M-2.5,-0.5L0,-3.0L2.5,-0.5"/>
                </g>
        </g>
        <svg viewBox="0 0 15 15" width="100%" height="30px" preserveAspectRatio="xMaxYMin meet">
         <g id="arrow_out" transform="scale(0.3 0.3)">
          <a xlink:href="structRtk__coll__graph_org.svg" target="_base">
           <rect id="button" ry="5" rx="5" y="6" x="6" height="38" width="38"
                fill="#f2f5e9" fill-opacity="0.5" stroke="#606060" stroke-width="1.0"/>
           <path id="arrow"
             d="M 11.500037,31.436501 C 11.940474,20.09759 22.043105,11.32322 32.158766,21.979434 L 37.068811,17.246167 C 37.068811,17.246167 37.088388,32 37.088388,32 L 22.160133,31.978069 C 22.160133,31.978069 26.997745,27.140456 26.997745,27.140456 C 18.528582,18.264221 13.291696,25.230495 11.500037,31.436501 z"
             style="fill:#404040;"/>
          </a>
         </g>
        </svg>
</svg>
