<?xml version="1.0" encoding="UTF-8" standalone="no"?>
<!DOCTYPE svg PUBLIC "-//W3C//DTD SVG 1.1//EN"
 "http://www.w3.org/Graphics/SVG/1.1/DTD/svg11.dtd">
<!-- Generated by graphviz version 2.43.0 (0)
 -->
<!-- Title: ACSConfig::getSatOpts Pages: 1 -->
<svg width="724pt" height="180pt"
 viewBox="0.00 0.00 724.00 180.00" xmlns="http://www.w3.org/2000/svg" xmlns:xlink="http://www.w3.org/1999/xlink">
<g id="graph0" class="graph" transform="scale(1 1) rotate(0) translate(4 176)">
<title>ACSConfig::getSatOpts</title>
<polygon fill="white" stroke="transparent" points="-4,4 -4,-176 720,-176 720,4 -4,4"/>
<!-- Node1 -->
<g id="node1" class="node">
<title>Node1</title>
<g id="a_node1"><a xlink:title="Set satellite options for a specific satellite using a hierarchy of sources.">
<polygon fill="#bfbfbf" stroke="black" points="0,-76.5 0,-95.5 128,-95.5 128,-76.5 0,-76.5"/>
<text text-anchor="middle" x="64" y="-83.5" font-family="Helvetica,sans-Serif" font-size="10.00">ACSConfig::getSatOpts</text>
</a>
</g>
</g>
<!-- Node2 -->
<g id="node2" class="node">
<title>Node2</title>
<g id="a_node2"><a xlink:href="structSatSys.html#aec6d07b90d1e8172b8b6a6966abef4fd" target="_top" xlink:title="Returns a std::string of this satellite&#39;s id.">
<polygon fill="white" stroke="black" points="183.5,-152.5 183.5,-171.5 248.5,-171.5 248.5,-152.5 183.5,-152.5"/>
<text text-anchor="middle" x="216" y="-159.5" font-family="Helvetica,sans-Serif" font-size="10.00">SatSys::id</text>
</a>
</g>
</g>
<!-- Node1&#45;&gt;Node2 -->
<g id="edge1" class="edge">
<title>Node1&#45;&gt;Node2</title>
<path fill="none" stroke="midnightblue" d="M80.01,-95.7C99.05,-107.74 133.13,-128.49 164,-143 171.27,-146.42 179.33,-149.66 186.86,-152.47"/>
</g>
<!-- Node5 -->
<g id="node4" class="node">
<title>Node5</title>
<g id="a_node4"><a xlink:href="structSatSys.html#a01de9e9cee76346f43550516bba9558e" target="_top" xlink:title=" ">
<polygon fill="white" stroke="black" points="164,-114.5 164,-133.5 268,-133.5 268,-114.5 164,-114.5"/>
<text text-anchor="middle" x="216" y="-121.5" font-family="Helvetica,sans-Serif" font-size="10.00">SatSys::blockType</text>
</a>
</g>
</g>
<!-- Node1&#45;&gt;Node5 -->
<g id="edge3" class="edge">
<title>Node1&#45;&gt;Node5</title>
<path fill="none" stroke="midnightblue" d="M102.85,-95.59C125.68,-101.37 154.64,-108.71 177.42,-114.48"/>
</g>
<!-- Node6 -->
<g id="node5" class="node">
<title>Node6</title>
<g id="a_node5"><a xlink:href="acsConfig_8cpp.html#a93b507f5cfa7760051904a0a1863118a" target="_top" xlink:title="Set satellite options from yaml.">
<polygon fill="white" stroke="black" points="176,-76.5 176,-95.5 256,-95.5 256,-76.5 176,-76.5"/>
<text text-anchor="middle" x="216" y="-83.5" font-family="Helvetica,sans-Serif" font-size="10.00">getFromYaml</text>
</a>
</g>
</g>
<!-- Node1&#45;&gt;Node6 -->
<g id="edge4" class="edge">
<title>Node1&#45;&gt;Node6</title>
<path fill="none" stroke="midnightblue" d="M128.18,-86C144.35,-86 161.28,-86 175.84,-86"/>
</g>
<!-- Node13 -->
<g id="node9" class="node">
<title>Node13</title>
<g id="a_node9"><a xlink:href="structSatSys.html#a099c890a6a613ec08f3260a51f0544f8" target="_top" xlink:title=" ">
<polygon fill="white" stroke="black" points="165.5,-38.5 165.5,-57.5 266.5,-57.5 266.5,-38.5 165.5,-38.5"/>
<text text-anchor="middle" x="216" y="-45.5" font-family="Helvetica,sans-Serif" font-size="10.00">SatSys::sysName</text>
</a>
</g>
</g>
<!-- Node1&#45;&gt;Node13 -->
<g id="edge11" class="edge">
<title>Node1&#45;&gt;Node13</title>
<path fill="none" stroke="midnightblue" d="M102.85,-76.41C125.68,-70.63 154.64,-63.29 177.42,-57.52"/>
</g>
<!-- Node14 -->
<g id="node10" class="node">
<title>Node14</title>
<g id="a_node10"><a xlink:href="structSatSys.html#a1da3994cf03ff0ec115928954c9307bb" target="_top" xlink:title=" ">
<polygon fill="white" stroke="black" points="179.5,-0.5 179.5,-19.5 252.5,-19.5 252.5,-0.5 179.5,-0.5"/>
<text text-anchor="middle" x="216" y="-7.5" font-family="Helvetica,sans-Serif" font-size="10.00">SatSys::svn</text>
</a>
</g>
</g>
<!-- Node1&#45;&gt;Node14 -->
<g id="edge12" class="edge">
<title>Node1&#45;&gt;Node14</title>
<path fill="none" stroke="midnightblue" d="M80.01,-76.3C99.05,-64.26 133.13,-43.51 164,-29 171.27,-25.58 179.33,-22.34 186.86,-19.53"/>
</g>
<!-- Node3 -->
<g id="node3" class="node">
<title>Node3</title>
<g id="a_node3"><a xlink:href="structSatSys.html#adbdf98ba1ef1f22b6aaed93916529513" target="_top" xlink:title="Sets a 4 character c_string of this satellite&#39;s id.">
<polygon fill="white" stroke="red" points="329.5,-152.5 329.5,-171.5 409.5,-171.5 409.5,-152.5 329.5,-152.5"/>
<text text-anchor="middle" x="369.5" y="-159.5" font-family="Helvetica,sans-Serif" font-size="10.00">SatSys::getId</text>
</a>
</g>
</g>
<!-- Node2&#45;&gt;Node3 -->
<g id="edge2" class="edge">
<title>Node2&#45;&gt;Node3</title>
<path fill="none" stroke="midnightblue" d="M248.76,-162C272.19,-162 304.2,-162 329.24,-162"/>
</g>
<!-- Node7 -->
<g id="node6" class="node">
<title>Node7</title>
<g id="a_node6"><a xlink:href="acsConfig_8cpp.html#a5d035c64332701c7ae41cbd84a93c379" target="_top" xlink:title="Get an object within a hierarchy of yaml structure using a vector of nodes.">
<polygon fill="white" stroke="red" points="601,-76.5 601,-95.5 716,-95.5 716,-76.5 601,-76.5"/>
<text text-anchor="middle" x="658.5" y="-83.5" font-family="Helvetica,sans-Serif" font-size="10.00">stringsToYamlObject</text>
</a>
</g>
</g>
<!-- Node6&#45;&gt;Node7 -->
<g id="edge5" class="edge">
<title>Node6&#45;&gt;Node7</title>
<path fill="none" stroke="midnightblue" d="M252.27,-95.51C267.98,-99.27 286.78,-103.14 304,-105 419.35,-117.45 449.49,-110.93 565,-100 576.8,-98.88 589.4,-97.27 601.37,-95.52"/>
</g>
<!-- Node9 -->
<g id="node7" class="node">
<title>Node9</title>
<g id="a_node7"><a xlink:href="acsConfig_8cpp.html#a080108da5f6c78aa8d0df4b715cf185e" target="_top" xlink:title="Set the variables associated with kalman filter states from yaml.">
<polygon fill="white" stroke="red" points="304,-76.5 304,-95.5 435,-95.5 435,-76.5 304,-76.5"/>
<text text-anchor="middle" x="369.5" y="-83.5" font-family="Helvetica,sans-Serif" font-size="10.00">trySetKalmanFromYaml</text>
</a>
</g>
</g>
<!-- Node6&#45;&gt;Node9 -->
<g id="edge6" class="edge">
<title>Node6&#45;&gt;Node9</title>
<path fill="none" stroke="midnightblue" d="M256.02,-86C270.57,-86 287.51,-86 303.76,-86"/>
</g>
<!-- Node10 -->
<g id="node8" class="node">
<title>Node10</title>
<g id="a_node8"><a xlink:href="acsConfig_8cpp.html#a555e819507c7608d463fedb0616a95ff" target="_top" xlink:title="Set an output from yaml object if found.">
<polygon fill="white" stroke="red" points="471,-38.5 471,-57.5 565,-57.5 565,-38.5 471,-38.5"/>
<text text-anchor="middle" x="518" y="-45.5" font-family="Helvetica,sans-Serif" font-size="10.00">trySetFromYaml</text>
</a>
</g>
</g>
<!-- Node6&#45;&gt;Node10 -->
<g id="edge10" class="edge">
<title>Node6&#45;&gt;Node10</title>
<path fill="none" stroke="midnightblue" d="M255.78,-76.43C270.77,-73.03 288.11,-69.43 304,-67 361.07,-58.26 427.39,-53.13 470.68,-50.44"/>
</g>
<!-- Node9&#45;&gt;Node7 -->
<g id="edge7" class="edge">
<title>Node9&#45;&gt;Node7</title>
<path fill="none" stroke="midnightblue" d="M435.27,-86C485.03,-86 553.09,-86 600.73,-86"/>
</g>
<!-- Node9&#45;&gt;Node10 -->
<g id="edge8" class="edge">
<title>Node9&#45;&gt;Node10</title>
<path fill="none" stroke="midnightblue" d="M407.47,-76.41C429.76,-70.63 458.05,-63.29 480.3,-57.52"/>
</g>
<!-- Node10&#45;&gt;Node7 -->
<g id="edge9" class="edge">
<title>Node10&#45;&gt;Node7</title>
<path fill="none" stroke="midnightblue" d="M553.95,-57.59C574.94,-63.35 601.57,-70.65 622.56,-76.41"/>
</g>
</g>
</svg>
