<?xml version="1.0" encoding="UTF-8" standalone="no"?>
<!DOCTYPE svg PUBLIC "-//W3C//DTD SVG 1.1//EN"
 "http://www.w3.org/Graphics/SVG/1.1/DTD/svg11.dtd">
<!-- Generated by graphviz version 2.43.0 (0)
 -->
<!-- Title: MongoOptions Pages: 1 -->
<svg width="196pt" height="380pt"
 viewBox="0.00 0.00 196.00 380.00" xmlns="http://www.w3.org/2000/svg" xmlns:xlink="http://www.w3.org/1999/xlink">
<g id="graph0" class="graph" transform="scale(1 1) rotate(0) translate(4 376)">
<title>MongoOptions</title>
<polygon fill="white" stroke="transparent" points="-4,4 -4,-376 192,-376 192,4 -4,4"/>
<!-- Node1 -->
<g id="node1" class="node">
<title>Node1</title>
<g id="a_node1"><a xlink:title=" ">
<polygon fill="#bfbfbf" stroke="black" points="25,-0.5 25,-277.5 163,-277.5 163,-0.5 25,-0.5"/>
<text text-anchor="middle" x="94" y="-265.5" font-family="Helvetica,sans-Serif" font-size="10.00">MongoOptions</text>
<polyline fill="none" stroke="black" points="25,-258.5 163,-258.5 "/>
<text text-anchor="start" x="33" y="-246.5" font-family="Helvetica,sans-Serif" font-size="10.00">+ enable</text>
<text text-anchor="start" x="33" y="-235.5" font-family="Helvetica,sans-Serif" font-size="10.00">+ output_measurements</text>
<text text-anchor="start" x="33" y="-224.5" font-family="Helvetica,sans-Serif" font-size="10.00">+ output_components</text>
<text text-anchor="start" x="33" y="-213.5" font-family="Helvetica,sans-Serif" font-size="10.00">+ output_states</text>
<text text-anchor="start" x="33" y="-202.5" font-family="Helvetica,sans-Serif" font-size="10.00">+ output_trace</text>
<text text-anchor="start" x="33" y="-191.5" font-family="Helvetica,sans-Serif" font-size="10.00">+ output_config</text>
<text text-anchor="start" x="33" y="-180.5" font-family="Helvetica,sans-Serif" font-size="10.00">+ output_test_stats</text>
<text text-anchor="start" x="33" y="-169.5" font-family="Helvetica,sans-Serif" font-size="10.00">+ output_logs</text>
<text text-anchor="start" x="33" y="-158.5" font-family="Helvetica,sans-Serif" font-size="10.00">+ output_ssr_precursors</text>
<text text-anchor="start" x="33" y="-147.5" font-family="Helvetica,sans-Serif" font-size="10.00">+ delete_history</text>
<text text-anchor="start" x="33" y="-136.5" font-family="Helvetica,sans-Serif" font-size="10.00">+ cull_history</text>
<text text-anchor="start" x="33" y="-125.5" font-family="Helvetica,sans-Serif" font-size="10.00">+ use_predictions</text>
<text text-anchor="start" x="33" y="-114.5" font-family="Helvetica,sans-Serif" font-size="10.00">+ output_predictions</text>
<text text-anchor="start" x="33" y="-103.5" font-family="Helvetica,sans-Serif" font-size="10.00">+ queue_outputs</text>
<text text-anchor="start" x="33" y="-92.5" font-family="Helvetica,sans-Serif" font-size="10.00">+ prediction_offset</text>
<text text-anchor="start" x="33" y="-81.5" font-family="Helvetica,sans-Serif" font-size="10.00">+ prediction_interval</text>
<text text-anchor="start" x="33" y="-70.5" font-family="Helvetica,sans-Serif" font-size="10.00">+ forward_prediction</text>
<text text-anchor="start" x="33" y="-59.5" font-family="Helvetica,sans-Serif" font-size="10.00">_duration</text>
<text text-anchor="start" x="33" y="-48.5" font-family="Helvetica,sans-Serif" font-size="10.00">+ reverse_prediction</text>
<text text-anchor="start" x="33" y="-37.5" font-family="Helvetica,sans-Serif" font-size="10.00">_duration</text>
<text text-anchor="start" x="33" y="-26.5" font-family="Helvetica,sans-Serif" font-size="10.00">+ min_cull_age</text>
<polyline fill="none" stroke="black" points="25,-19.5 163,-19.5 "/>
<text text-anchor="middle" x="94" y="-7.5" font-family="Helvetica,sans-Serif" font-size="10.00"> </text>
</a>
</g>
</g>
<!-- Node2 -->
<g id="node2" class="node">
<title>Node2</title>
<g id="a_node2"><a xlink:title=" ">
<polygon fill="white" stroke="black" points="0,-314.5 0,-371.5 188,-371.5 188,-314.5 0,-314.5"/>
<text text-anchor="middle" x="94" y="-359.5" font-family="Helvetica,sans-Serif" font-size="10.00">array&lt; MongoInstanceOptions, 3 &gt;</text>
<polyline fill="none" stroke="black" points="0,-352.5 188,-352.5 "/>
<text text-anchor="middle" x="94" y="-340.5" font-family="Helvetica,sans-Serif" font-size="10.00"> </text>
<polyline fill="none" stroke="black" points="0,-333.5 188,-333.5 "/>
<text text-anchor="middle" x="94" y="-321.5" font-family="Helvetica,sans-Serif" font-size="10.00"> </text>
</a>
</g>
</g>
<!-- Node2&#45;&gt;Node1 -->
<g id="edge1" class="edge">
<title>Node2&#45;&gt;Node1</title>
<path fill="none" stroke="midnightblue" d="M94,-304.27C94,-296.18 94,-287.19 94,-277.7"/>
<polygon fill="none" stroke="midnightblue" points="90.5,-304.34 94,-314.34 97.5,-304.34 90.5,-304.34"/>
</g>
</g>
</svg>
