<?xml version="1.0" encoding="UTF-8" standalone="no"?>
<!DOCTYPE svg PUBLIC "-//W3C//DTD SVG 1.1//EN"
 "http://www.w3.org/Graphics/SVG/1.1/DTD/svg11.dtd">
<!-- Generated by graphviz version 2.43.0 (0)
 -->
<!-- Title: KFState::filterKalman Pages: 1 -->
<svg width="343pt" height="522pt"
 viewBox="0.00 0.00 343.00 522.00" xmlns="http://www.w3.org/2000/svg" xmlns:xlink="http://www.w3.org/1999/xlink">
<g id="graph0" class="graph" transform="scale(1 1) rotate(0) translate(4 518)">
<title>KFState::filterKalman</title>
<polygon fill="white" stroke="transparent" points="-4,4 -4,-518 339,-518 339,4 -4,4"/>
<!-- Node1 -->
<g id="node1" class="node">
<title>Node1</title>
<g id="a_node1"><a xlink:title="Kalman filter operation.">
<polygon fill="#bfbfbf" stroke="black" points="0,-247.5 0,-266.5 122,-266.5 122,-247.5 0,-247.5"/>
<text text-anchor="middle" x="61" y="-254.5" font-family="Helvetica,sans-Serif" font-size="10.00">KFState::filterKalman</text>
</a>
</g>
</g>
<!-- Node2 -->
<g id="node2" class="node">
<title>Node2</title>
<g id="a_node2"><a xlink:href="structGTime.html#aaa8a379d11cd6c040a6bbe680c0e913e" target="_top" xlink:title="Uninitialised time for comparisons.">
<polygon fill="white" stroke="black" points="201.5,-494.5 201.5,-513.5 291.5,-513.5 291.5,-494.5 201.5,-494.5"/>
<text text-anchor="middle" x="246.5" y="-501.5" font-family="Helvetica,sans-Serif" font-size="10.00">GTime::noTime</text>
</a>
</g>
</g>
<!-- Node1&#45;&gt;Node2 -->
<g id="edge1" class="edge">
<title>Node1&#45;&gt;Node2</title>
<path fill="none" stroke="midnightblue" d="M62.96,-266.63C67,-301.91 85.97,-425.18 158,-485 170.08,-495.03 186.25,-500.1 201.4,-502.57"/>
</g>
<!-- Node3 -->
<g id="node3" class="node">
<title>Node3</title>
<g id="a_node3"><a xlink:href="algebraTrace_8hpp.html#a912bbc3ba390c6b3a01f7cae26a53588" target="_top" xlink:title="Output filter state to a file for later reading.">
<polygon fill="white" stroke="black" points="203.5,-456.5 203.5,-475.5 289.5,-475.5 289.5,-456.5 203.5,-456.5"/>
<text text-anchor="middle" x="246.5" y="-463.5" font-family="Helvetica,sans-Serif" font-size="10.00">spitFilterToFile</text>
</a>
</g>
</g>
<!-- Node1&#45;&gt;Node3 -->
<g id="edge2" class="edge">
<title>Node1&#45;&gt;Node3</title>
<path fill="none" stroke="midnightblue" d="M63.85,-266.76C70.39,-298.35 95.44,-398.61 158,-447 170.79,-456.89 187.63,-461.88 203.11,-464.32"/>
</g>
<!-- Node4 -->
<g id="node4" class="node">
<title>Node4</title>
<g id="a_node4"><a xlink:href="structKFState.html#a1d84b2acc0006963bdea090daa78685a" target="_top" xlink:title="Compare variances of measurements and pre&#45;filtered states to detect unreasonable values Ref: Wang et ...">
<polygon fill="white" stroke="black" points="172,-418.5 172,-437.5 321,-437.5 321,-418.5 172,-418.5"/>
<text text-anchor="middle" x="246.5" y="-425.5" font-family="Helvetica,sans-Serif" font-size="10.00">KFState::preFitSigmaCheck</text>
</a>
</g>
</g>
<!-- Node1&#45;&gt;Node4 -->
<g id="edge3" class="edge">
<title>Node1&#45;&gt;Node4</title>
<path fill="none" stroke="midnightblue" d="M65.12,-266.71C74.39,-293.95 104.56,-371.6 158,-409 163.48,-412.83 169.58,-415.91 175.95,-418.39"/>
</g>
<!-- Node5 -->
<g id="node5" class="node">
<title>Node5</title>
<g id="a_node5"><a xlink:href="structKFState.html#adc93fe4d98f33b24037d09e712e8400a" target="_top" xlink:title=" ">
<polygon fill="white" stroke="black" points="158.5,-380.5 158.5,-399.5 334.5,-399.5 334.5,-380.5 158.5,-380.5"/>
<text text-anchor="middle" x="246.5" y="-387.5" font-family="Helvetica,sans-Serif" font-size="10.00">KFState::doStateRejectCallbacks</text>
</a>
</g>
</g>
<!-- Node1&#45;&gt;Node5 -->
<g id="edge4" class="edge">
<title>Node1&#45;&gt;Node5</title>
<path fill="none" stroke="midnightblue" d="M67.22,-266.81C79.68,-289.19 113.46,-344.16 158,-371 164.39,-374.85 171.46,-377.93 178.73,-380.38"/>
</g>
<!-- Node6 -->
<g id="node6" class="node">
<title>Node6</title>
<g id="a_node6"><a xlink:href="structKFState.html#ae6e89a4dca53b4c6f8a5eadb1f61dd5c" target="_top" xlink:title=" ">
<polygon fill="white" stroke="black" points="158,-342.5 158,-361.5 335,-361.5 335,-342.5 158,-342.5"/>
<text text-anchor="middle" x="246.5" y="-349.5" font-family="Helvetica,sans-Serif" font-size="10.00">KFState::doMeasRejectCallbacks</text>
</a>
</g>
</g>
<!-- Node1&#45;&gt;Node6 -->
<g id="edge5" class="edge">
<title>Node1&#45;&gt;Node6</title>
<path fill="none" stroke="midnightblue" d="M71.07,-266.62C87.03,-282.94 121.87,-315.92 158,-333 166.15,-336.85 175.1,-339.94 184.07,-342.4"/>
</g>
<!-- Node7 -->
<g id="node7" class="node">
<title>Node7</title>
<g id="a_node7"><a xlink:href="structKFState.html#a5b591c7386c7fb734067424a097ca118" target="_top" xlink:title="Kalman filter.">
<polygon fill="white" stroke="red" points="201,-304.5 201,-323.5 292,-323.5 292,-304.5 201,-304.5"/>
<text text-anchor="middle" x="246.5" y="-311.5" font-family="Helvetica,sans-Serif" font-size="10.00">KFState::kFilter</text>
</a>
</g>
</g>
<!-- Node1&#45;&gt;Node7 -->
<g id="edge6" class="edge">
<title>Node1&#45;&gt;Node7</title>
<path fill="none" stroke="midnightblue" d="M83.37,-266.63C102.6,-275 131.76,-287.02 158,-295 171.68,-299.16 186.83,-302.79 200.63,-305.72"/>
</g>
<!-- Node9 -->
<g id="node8" class="node">
<title>Node9</title>
<g id="a_node8"><a xlink:href="structKFState.html#a4d44be64e2f00e44b89fff30191a8953" target="_top" xlink:title="Compare variances of measurements and filtered states to detect unreasonable values.">
<polygon fill="white" stroke="red" points="167,-266.5 167,-285.5 326,-285.5 326,-266.5 167,-266.5"/>
<text text-anchor="middle" x="246.5" y="-273.5" font-family="Helvetica,sans-Serif" font-size="10.00">KFState::postFitSigmaChecks</text>
</a>
</g>
</g>
<!-- Node1&#45;&gt;Node9 -->
<g id="edge7" class="edge">
<title>Node1&#45;&gt;Node9</title>
<path fill="none" stroke="midnightblue" d="M122.08,-263.22C136.4,-264.7 151.9,-266.31 166.91,-267.86"/>
</g>
<!-- Node12 -->
<g id="node9" class="node">
<title>Node12</title>
<g id="a_node9"><a xlink:href="mongoWrite_8cpp.html#ab9a0b82ff1bd0f911e534f799b412932" target="_top" xlink:title=" ">
<polygon fill="white" stroke="red" points="184.5,-228.5 184.5,-247.5 308.5,-247.5 308.5,-228.5 184.5,-228.5"/>
<text text-anchor="middle" x="246.5" y="-235.5" font-family="Helvetica,sans-Serif" font-size="10.00">mongoMeasResiduals</text>
</a>
</g>
</g>
<!-- Node1&#45;&gt;Node12 -->
<g id="edge8" class="edge">
<title>Node1&#45;&gt;Node12</title>
<path fill="none" stroke="midnightblue" d="M122.08,-250.78C142.05,-248.71 164.29,-246.41 184.34,-244.33"/>
</g>
<!-- Node17 -->
<g id="node10" class="node">
<title>Node17</title>
<g id="a_node10"><a xlink:href="binaryStore_8cpp.html#a2caffe8120912dd06f1bdd252675232c" target="_top" xlink:title=" ">
<polygon fill="white" stroke="black" points="202,-190.5 202,-209.5 291,-209.5 291,-190.5 202,-190.5"/>
<text text-anchor="middle" x="246.5" y="-197.5" font-family="Helvetica,sans-Serif" font-size="10.00">storeResiduals</text>
</a>
</g>
</g>
<!-- Node1&#45;&gt;Node17 -->
<g id="edge9" class="edge">
<title>Node1&#45;&gt;Node17</title>
<path fill="none" stroke="midnightblue" d="M83.37,-247.37C102.6,-239 131.76,-226.98 158,-219 172.13,-214.7 187.82,-210.98 201.97,-207.99"/>
</g>
<!-- Node18 -->
<g id="node11" class="node">
<title>Node18</title>
<g id="a_node11"><a xlink:href="structKFState.html#a2280e82ccd3ebdefc388756580e5fad7" target="_top" xlink:title="Compute Chi&#45;square increment based on pre&#45;fit residuals (innovations)">
<polygon fill="white" stroke="black" points="178,-152.5 178,-171.5 315,-171.5 315,-152.5 178,-152.5"/>
<text text-anchor="middle" x="246.5" y="-159.5" font-family="Helvetica,sans-Serif" font-size="10.00">KFState::innovChiSquare</text>
</a>
</g>
</g>
<!-- Node1&#45;&gt;Node18 -->
<g id="edge10" class="edge">
<title>Node1&#45;&gt;Node18</title>
<path fill="none" stroke="midnightblue" d="M71.07,-247.38C87.03,-231.06 121.87,-198.08 158,-181 166.15,-177.15 175.1,-174.06 184.07,-171.6"/>
</g>
<!-- Node19 -->
<g id="node12" class="node">
<title>Node19</title>
<g id="a_node12"><a xlink:href="structKFState.html#a67bbec17e7e74bf5de0d83098281bfc0" target="_top" xlink:title="Compute Chi&#45;square increment based on post&#45;fit residuals.">
<polygon fill="white" stroke="black" points="178,-114.5 178,-133.5 315,-133.5 315,-114.5 178,-114.5"/>
<text text-anchor="middle" x="246.5" y="-121.5" font-family="Helvetica,sans-Serif" font-size="10.00">KFState::measChiSquare</text>
</a>
</g>
</g>
<!-- Node1&#45;&gt;Node19 -->
<g id="edge11" class="edge">
<title>Node1&#45;&gt;Node19</title>
<path fill="none" stroke="midnightblue" d="M67.22,-247.19C79.68,-224.81 113.46,-169.84 158,-143 164.39,-139.15 171.46,-136.07 178.73,-133.62"/>
</g>
<!-- Node20 -->
<g id="node13" class="node">
<title>Node20</title>
<g id="a_node13"><a xlink:href="structKFState.html#aa963c92f094f4c0f9d43eea2661723dd" target="_top" xlink:title="Compute Chi&#45;square increment based on the change of fitting solution.">
<polygon fill="white" stroke="black" points="179,-76.5 179,-95.5 314,-95.5 314,-76.5 179,-76.5"/>
<text text-anchor="middle" x="246.5" y="-83.5" font-family="Helvetica,sans-Serif" font-size="10.00">KFState::stateChiSquare</text>
</a>
</g>
</g>
<!-- Node1&#45;&gt;Node20 -->
<g id="edge12" class="edge">
<title>Node1&#45;&gt;Node20</title>
<path fill="none" stroke="midnightblue" d="M65.12,-247.29C74.39,-220.05 104.56,-142.4 158,-105 164.24,-100.63 171.3,-97.24 178.63,-94.61"/>
</g>
<!-- Node21 -->
<g id="node14" class="node">
<title>Node21</title>
<g id="a_node14"><a xlink:href="mongoWrite_8cpp.html#a2b60515d35b3ad7ac783de1d8539495f" target="_top" xlink:title=" ">
<polygon fill="white" stroke="red" points="202,-38.5 202,-57.5 291,-57.5 291,-38.5 202,-38.5"/>
<text text-anchor="middle" x="246.5" y="-45.5" font-family="Helvetica,sans-Serif" font-size="10.00">mongoTestStat</text>
</a>
</g>
</g>
<!-- Node1&#45;&gt;Node21 -->
<g id="edge13" class="edge">
<title>Node1&#45;&gt;Node21</title>
<path fill="none" stroke="midnightblue" d="M63.85,-247.24C70.39,-215.65 95.44,-115.39 158,-67 170.42,-57.39 186.66,-52.41 201.77,-49.9"/>
</g>
<!-- Node22 -->
<g id="node15" class="node">
<title>Node22</title>
<g id="a_node15"><a xlink:href="structKFState.html#a34fe78e0ab7a8f1d122ceabddc29b207" target="_top" xlink:title="Clears and initialises the state transition matrix to identity at the beginning of an epoch.">
<polygon fill="white" stroke="black" points="181.5,-0.5 181.5,-19.5 311.5,-19.5 311.5,-0.5 181.5,-0.5"/>
<text text-anchor="middle" x="246.5" y="-7.5" font-family="Helvetica,sans-Serif" font-size="10.00">KFState::initFilterEpoch</text>
</a>
</g>
</g>
<!-- Node1&#45;&gt;Node22 -->
<g id="edge14" class="edge">
<title>Node1&#45;&gt;Node22</title>
<path fill="none" stroke="midnightblue" d="M62.96,-247.37C67,-212.09 85.97,-88.82 158,-29 164.82,-23.34 172.94,-19.26 181.44,-16.33"/>
</g>
</g>
</svg>
