<?xml version="1.0" encoding="UTF-8" standalone="no"?>
<!DOCTYPE svg PUBLIC "-//W3C//DTD SVG 1.1//EN"
 "http://www.w3.org/Graphics/SVG/1.1/DTD/svg11.dtd">
<!-- Generated by graphviz version 2.43.0 (0)
 -->
<!-- Title: SerialStream Pages: 1 -->
<svg width="296pt" height="353pt"
 viewBox="0.00 0.00 295.50 353.00" xmlns="http://www.w3.org/2000/svg" xmlns:xlink="http://www.w3.org/1999/xlink">
<g id="graph0" class="graph" transform="scale(1 1) rotate(0) translate(4 349)">
<title>SerialStream</title>
<polygon fill="white" stroke="transparent" points="-4,4 -4,-349 291.5,-349 291.5,4 -4,4"/>
<!-- Node1 -->
<g id="node1" class="node">
<title>Node1</title>
<g id="a_node1"><a xlink:title=" ">
<polygon fill="#bfbfbf" stroke="black" points="90,-0.5 90,-112.5 198,-112.5 198,-0.5 90,-0.5"/>
<text text-anchor="middle" x="144" y="-100.5" font-family="Helvetica,sans-Serif" font-size="10.00">SerialStream</text>
<polyline fill="none" stroke="black" points="90,-93.5 198,-93.5 "/>
<text text-anchor="start" x="98" y="-81.5" font-family="Helvetica,sans-Serif" font-size="10.00">+ fileDescriptor</text>
<polyline fill="none" stroke="black" points="90,-74.5 198,-74.5 "/>
<text text-anchor="start" x="98" y="-62.5" font-family="Helvetica,sans-Serif" font-size="10.00">+ SerialStream()</text>
<text text-anchor="start" x="98" y="-51.5" font-family="Helvetica,sans-Serif" font-size="10.00">+ SerialStream()</text>
<text text-anchor="start" x="98" y="-40.5" font-family="Helvetica,sans-Serif" font-size="10.00">+ openStream()</text>
<text text-anchor="start" x="98" y="-29.5" font-family="Helvetica,sans-Serif" font-size="10.00">+ getData()</text>
<text text-anchor="start" x="98" y="-18.5" font-family="Helvetica,sans-Serif" font-size="10.00">+ getIStream_ptr()</text>
<text text-anchor="start" x="98" y="-7.5" font-family="Helvetica,sans-Serif" font-size="10.00">+ ~SerialStream()</text>
</a>
</g>
</g>
<!-- Node2 -->
<g id="node2" class="node">
<title>Node2</title>
<g id="a_node2"><a xlink:href="structStream.html" target="_top" xlink:title=" ">
<polygon fill="white" stroke="black" points="0,-160.5 0,-239.5 108,-239.5 108,-160.5 0,-160.5"/>
<text text-anchor="middle" x="54" y="-227.5" font-family="Helvetica,sans-Serif" font-size="10.00">Stream</text>
<polyline fill="none" stroke="black" points="0,-220.5 108,-220.5 "/>
<text text-anchor="middle" x="54" y="-208.5" font-family="Helvetica,sans-Serif" font-size="10.00"> </text>
<polyline fill="none" stroke="black" points="0,-201.5 108,-201.5 "/>
<text text-anchor="start" x="8" y="-189.5" font-family="Helvetica,sans-Serif" font-size="10.00">+ getIStream_ptr()</text>
<text text-anchor="start" x="8" y="-178.5" font-family="Helvetica,sans-Serif" font-size="10.00">+ isDead()</text>
<text text-anchor="start" x="8" y="-167.5" font-family="Helvetica,sans-Serif" font-size="10.00">+ ~Stream()</text>
</a>
</g>
</g>
<!-- Node2&#45;&gt;Node1 -->
<g id="edge1" class="edge">
<title>Node2&#45;&gt;Node1</title>
<path fill="none" stroke="midnightblue" d="M78.59,-160.33C87.96,-145.61 98.83,-128.52 108.98,-112.56"/>
</g>
<!-- Node3 -->
<g id="node3" class="node">
<title>Node3</title>
<g id="a_node3"><a xlink:title=" ">
<polygon fill="white" stroke="black" points="77,-287.5 77,-344.5 121,-344.5 121,-287.5 77,-287.5"/>
<text text-anchor="middle" x="99" y="-332.5" font-family="Helvetica,sans-Serif" font-size="10.00">string</text>
<polyline fill="none" stroke="black" points="77,-325.5 121,-325.5 "/>
<text text-anchor="middle" x="99" y="-313.5" font-family="Helvetica,sans-Serif" font-size="10.00"> </text>
<polyline fill="none" stroke="black" points="77,-306.5 121,-306.5 "/>
<text text-anchor="middle" x="99" y="-294.5" font-family="Helvetica,sans-Serif" font-size="10.00"> </text>
</a>
</g>
</g>
<!-- Node3&#45;&gt;Node1 -->
<g id="edge3" class="edge">
<title>Node3&#45;&gt;Node1</title>
<path fill="none" stroke="#404040" d="M121.02,-287.29C124.61,-281.53 127.85,-275.29 130,-269 147.39,-218.16 149.5,-156.52 148.1,-112.93"/>
<text text-anchor="middle" x="165" y="-197.5" font-family="Helvetica,sans-Serif" font-size="10.00"> +path</text>
</g>
<!-- Node3&#45;&gt;Node2 -->
<g id="edge2" class="edge">
<title>Node3&#45;&gt;Node2</title>
<path fill="none" stroke="#404040" d="M76.71,-296.6C69.03,-288.93 61.3,-279.39 57,-269 53.25,-259.94 51.62,-249.6 51.12,-239.77"/>
<text text-anchor="middle" x="93.5" y="-261" font-family="Helvetica,sans-Serif" font-size="10.00"> +sourceString</text>
</g>
<!-- Node4 -->
<g id="node4" class="node">
<title>Node4</title>
<g id="a_node4"><a xlink:title=" ">
<polygon fill="white" stroke="red" points="196.5,-171.5 196.5,-228.5 287.5,-228.5 287.5,-171.5 196.5,-171.5"/>
<text text-anchor="middle" x="242" y="-216.5" font-family="Helvetica,sans-Serif" font-size="10.00">vector&lt; char &gt;</text>
<polyline fill="none" stroke="red" points="196.5,-209.5 287.5,-209.5 "/>
<text text-anchor="middle" x="242" y="-197.5" font-family="Helvetica,sans-Serif" font-size="10.00"> </text>
<polyline fill="none" stroke="red" points="196.5,-190.5 287.5,-190.5 "/>
<text text-anchor="middle" x="242" y="-178.5" font-family="Helvetica,sans-Serif" font-size="10.00"> </text>
</a>
</g>
</g>
<!-- Node4&#45;&gt;Node1 -->
<g id="edge4" class="edge">
<title>Node4&#45;&gt;Node1</title>
<path fill="none" stroke="#404040" d="M222.87,-171.38C211.29,-154.65 196.1,-132.72 182.14,-112.57"/>
<text text-anchor="middle" x="239.5" y="-134" font-family="Helvetica,sans-Serif" font-size="10.00"> +receivedData</text>
</g>
</g>
</svg>
