<?xml version="1.0" encoding="UTF-8" standalone="no"?>
<!DOCTYPE svg PUBLIC "-//W3C//DTD SVG 1.1//EN"
 "http://www.w3.org/Graphics/SVG/1.1/DTD/svg11.dtd">
<!-- Generated by graphviz version 2.43.0 (0)
 -->
<!-- Title: RtcmDecoder::decodeEphemeris Pages: 1 -->
<!--zoomable 458 -->
<svg id="main" version="1.1" xmlns="http://www.w3.org/2000/svg" xmlns:xlink="http://www.w3.org/1999/xlink" xml:space="preserve" onload="init(evt)">
<style type="text/css"><![CDATA[
.edge:hover path { stroke: red; }
.edge:hover polygon { stroke: red; fill: red; }
]]></style>
<script type="text/javascript"><![CDATA[
var edges = document.getElementsByTagName('g');
if (edges && edges.length) {
  for (var i=0;i<edges.length;i++) {
    if (edges[i].id.substr(0,4)=='edge') {
      edges[i].setAttribute('class','edge');
    }
  }
}
]]></script>
        <defs>
                <circle id="rim" cx="0" cy="0" r="7"/>
                <circle id="rim2" cx="0" cy="0" r="3.5"/>
                <g id="zoomPlus">
                        <use xlink:href="#rim" fill="#404040">
                                <set attributeName="fill" to="#808080" begin="zoomplus.mouseover" end="zoomplus.mouseout"/>
                        </use>
                        <path d="M-4,0h8M0,-4v8" fill="none" stroke="white" stroke-width="1.5" pointer-events="none"/>
                </g>
                <g id="zoomMin">
                        <use xlink:href="#rim" fill="#404040">
                                <set attributeName="fill" to="#808080" begin="zoomminus.mouseover" end="zoomminus.mouseout"/>
                        </use>
                        <path d="M-4,0h8" fill="none" stroke="white" stroke-width="1.5" pointer-events="none"/>
                </g>
                <g id="dirArrow">
                        <path fill="none" stroke="white" stroke-width="1.5" d="M0,-3.0v7 M-2.5,-0.5L0,-3.0L2.5,-0.5"/>
                </g>
               <g id="resetDef">
                       <use xlink:href="#rim2" fill="#404040">
                               <set attributeName="fill" to="#808080" begin="reset.mouseover" end="reset.mouseout"/>
                       </use>
               </g>
        </defs>

<script type="text/javascript">
var viewWidth = 469;
var viewHeight = 458;
var sectionId = 'dynsection-9';
</script>
<script xlink:href="svgpan.js"/>
<svg id="graph" class="graph">
<g id="viewport">
<title>RtcmDecoder::decodeEphemeris</title>
<polygon fill="white" stroke="transparent" points="-4,4 -4,-454 465,-454 465,4 -4,4"/>
<!-- Node1 -->
<g id="node1" class="node">
<title>Node1</title>
<g id="a_node1"><a xlink:title=" ">
<polygon fill="#bfbfbf" stroke="black" points="0,-209.5 0,-228.5 176,-228.5 176,-209.5 0,-209.5"/>
<text text-anchor="middle" x="88" y="-216.5" font-family="Helvetica,sans-Serif" font-size="10.00">RtcmDecoder::decodeEphemeris</text>
</a>
</g>
</g>
<!-- Node2 -->
<g id="node2" class="node">
<title>Node2</title>
<g id="a_node2"><a xlink:href="common_8cpp.html#aaa6463f592ed6478626814466d3d02a5" target="_top" xlink:title=" ">
<polygon fill="white" stroke="red" points="253,-430.5 253,-449.5 318,-449.5 318,-430.5 253,-430.5"/>
<text text-anchor="middle" x="285.5" y="-437.5" font-family="Helvetica,sans-Serif" font-size="10.00">getbituInc</text>
</a>
</g>
</g>
<!-- Node1&#45;&gt;Node2 -->
<g id="edge1" class="edge">
<title>Node1&#45;&gt;Node2</title>
<path fill="none" stroke="midnightblue" d="M92.01,-228.83C102.56,-261.63 141.2,-368.28 212,-421 223.79,-429.78 239.3,-434.51 252.95,-437.06"/>
</g>
<!-- Node4 -->
<g id="node3" class="node">
<title>Node4</title>
<g id="a_node3"><a xlink:href="structRtcmDecoder.html#a16b9cbd625b354b77b46b093a638bdf3" target="_top" xlink:title=" ">
<polygon fill="white" stroke="red" points="219,-381 219,-411 352,-411 352,-381 219,-381"/>
<text text-anchor="start" x="227" y="-399" font-family="Helvetica,sans-Serif" font-size="10.00">RtcmDecoder::message</text>
<text text-anchor="middle" x="285.5" y="-388" font-family="Helvetica,sans-Serif" font-size="10.00">_length</text>
</a>
</g>
</g>
<!-- Node1&#45;&gt;Node4 -->
<g id="edge2" class="edge">
<title>Node1&#45;&gt;Node4</title>
<path fill="none" stroke="midnightblue" d="M94.25,-228.75C109.12,-255.46 154.18,-330.48 212,-371 217.45,-374.82 223.54,-378.1 229.81,-380.91"/>
</g>
<!-- Node5 -->
<g id="node4" class="node">
<title>Node5</title>
<g id="a_node4"><a xlink:href="structRtcmDecoder.html#a1396a506d3b48a90a3c160f80a78173a" target="_top" xlink:title=" ">
<polygon fill="white" stroke="red" points="212,-342.5 212,-361.5 359,-361.5 359,-342.5 212,-342.5"/>
<text text-anchor="middle" x="285.5" y="-349.5" font-family="Helvetica,sans-Serif" font-size="10.00">RtcmDecoder::adjgpsweek</text>
</a>
</g>
</g>
<!-- Node1&#45;&gt;Node5 -->
<g id="edge3" class="edge">
<title>Node1&#45;&gt;Node5</title>
<path fill="none" stroke="midnightblue" d="M96.49,-228.63C114.13,-250.63 160.69,-304.85 212,-333 219.07,-336.88 226.97,-340 234.88,-342.49"/>
</g>
<!-- Node10 -->
<g id="node5" class="node">
<title>Node10</title>
<g id="a_node5"><a xlink:href="gTime_8cpp.html#abf196aa655d8ca10168c2301a68a8101" target="_top" xlink:title=" ">
<polygon fill="white" stroke="red" points="395,-190.5 395,-209.5 461,-209.5 461,-190.5 395,-190.5"/>
<text text-anchor="middle" x="428" y="-197.5" font-family="Helvetica,sans-Serif" font-size="10.00">time2gpst</text>
</a>
</g>
</g>
<!-- Node1&#45;&gt;Node10 -->
<g id="edge9" class="edge">
<title>Node1&#45;&gt;Node10</title>
<path fill="none" stroke="midnightblue" d="M176.04,-224.98C229.15,-227.14 298.28,-227.32 359,-219 372.6,-217.14 387.32,-213.27 399.57,-209.5"/>
</g>
<!-- Node11 -->
<g id="node6" class="node">
<title>Node11</title>
<g id="a_node6"><a xlink:href="common_8cpp.html#a015a8a5120016e627bc810a59aa72948" target="_top" xlink:title=" ">
<polygon fill="white" stroke="red" points="253,-304.5 253,-323.5 318,-323.5 318,-304.5 253,-304.5"/>
<text text-anchor="middle" x="285.5" y="-311.5" font-family="Helvetica,sans-Serif" font-size="10.00">getbitsInc</text>
</a>
</g>
</g>
<!-- Node1&#45;&gt;Node11 -->
<g id="edge5" class="edge">
<title>Node1&#45;&gt;Node11</title>
<path fill="none" stroke="midnightblue" d="M101.59,-228.56C123.11,-244.48 168.86,-276.51 212,-295 224.92,-300.54 239.84,-304.78 252.77,-307.84"/>
</g>
<!-- Node13 -->
<g id="node7" class="node">
<title>Node13</title>
<g id="a_node7"><a xlink:href="structRtcmDecoder.html#a5ab6d5d8cf33f0742a012d6cdd4e52ae" target="_top" xlink:title=" ">
<polygon fill="white" stroke="black" points="222,-266.5 222,-285.5 349,-285.5 349,-266.5 222,-266.5"/>
<text text-anchor="middle" x="285.5" y="-273.5" font-family="Helvetica,sans-Serif" font-size="10.00">RtcmDecoder::getGpst</text>
</a>
</g>
</g>
<!-- Node1&#45;&gt;Node13 -->
<g id="edge6" class="edge">
<title>Node1&#45;&gt;Node13</title>
<path fill="none" stroke="midnightblue" d="M121.72,-228.54C157.81,-239.06 215.54,-255.89 251.67,-266.43"/>
</g>
<!-- Node14 -->
<g id="node8" class="node">
<title>Node14</title>
<g id="a_node8"><a xlink:href="gTime_8cpp.html#abb00b59d1e35b7cc9e031a5faf536f9e" target="_top" xlink:title=" ">
<polygon fill="white" stroke="red" points="398.5,-266.5 398.5,-285.5 457.5,-285.5 457.5,-266.5 398.5,-266.5"/>
<text text-anchor="middle" x="428" y="-273.5" font-family="Helvetica,sans-Serif" font-size="10.00">utc2gpst</text>
</a>
</g>
</g>
<!-- Node1&#45;&gt;Node14 -->
<g id="edge13" class="edge">
<title>Node1&#45;&gt;Node14</title>
<path fill="none" stroke="midnightblue" d="M95.32,-209.48C111.43,-186.2 156.7,-126.68 212,-105 272.82,-81.15 307.75,-64.47 359,-105 413.45,-148.06 353.89,-201.06 395,-257 397.75,-260.75 401.49,-263.89 405.44,-266.47"/>
</g>
<!-- Node8 -->
<g id="node9" class="node">
<title>Node8</title>
<g id="a_node9"><a xlink:href="gTime_8cpp.html#a2a318fa02e2d05aa22eabbcf1a537fcf" target="_top" xlink:title="get current time in utc">
<polygon fill="white" stroke="red" points="400.5,-228.5 400.5,-247.5 455.5,-247.5 455.5,-228.5 400.5,-228.5"/>
<text text-anchor="middle" x="428" y="-235.5" font-family="Helvetica,sans-Serif" font-size="10.00">timeget</text>
</a>
</g>
</g>
<!-- Node1&#45;&gt;Node8 -->
<g id="edge14" class="edge">
<title>Node1&#45;&gt;Node8</title>
<path fill="none" stroke="midnightblue" d="M93.35,-209.33C106.48,-181.55 148.69,-101.58 212,-72 271.19,-44.35 307.6,-31.67 359,-72 411.92,-113.52 354.96,-164.95 395,-219 397.77,-222.74 401.51,-225.88 405.46,-228.46"/>
</g>
<!-- Node15 -->
<g id="node10" class="node">
<title>Node15</title>
<g id="a_node10"><a xlink:href="gTime_8cpp.html#a6ab7d9a372acf84508cf00f0befd6095" target="_top" xlink:title=" ">
<polygon fill="white" stroke="red" points="252.5,-190.5 252.5,-209.5 318.5,-209.5 318.5,-190.5 252.5,-190.5"/>
<text text-anchor="middle" x="285.5" y="-197.5" font-family="Helvetica,sans-Serif" font-size="10.00">gpst2time</text>
</a>
</g>
</g>
<!-- Node1&#45;&gt;Node15 -->
<g id="edge10" class="edge">
<title>Node1&#45;&gt;Node15</title>
<path fill="none" stroke="midnightblue" d="M176.17,-210.53C203.26,-207.9 231.44,-205.16 252.27,-203.13"/>
</g>
<!-- Node16 -->
<g id="node11" class="node">
<title>Node16</title>
<g id="a_node11"><a xlink:href="biasSINEXread_8cpp.html#a4189b53abc056c39f46bd56d0032b546" target="_top" xlink:title="Convert GPS/QZS TGD into OSBs &amp; DSB.">
<polygon fill="white" stroke="red" points="228,-152.5 228,-171.5 343,-171.5 343,-152.5 228,-152.5"/>
<text text-anchor="middle" x="285.5" y="-159.5" font-family="Helvetica,sans-Serif" font-size="10.00">decomposeTGDBias</text>
</a>
</g>
</g>
<!-- Node1&#45;&gt;Node16 -->
<g id="edge11" class="edge">
<title>Node1&#45;&gt;Node16</title>
<path fill="none" stroke="midnightblue" d="M118.72,-209.42C143.56,-201.51 179.98,-190.14 212,-181 223.26,-177.79 235.57,-174.48 246.79,-171.55"/>
</g>
<!-- Node22 -->
<g id="node12" class="node">
<title>Node22</title>
<g id="a_node12"><a xlink:href="biasSINEXread_8cpp.html#a063ba8fe35a80404ea27345b60592828" target="_top" xlink:title="Convert GAL BGDs into OSBs &amp; DSB.">
<polygon fill="white" stroke="red" points="227.5,-114.5 227.5,-133.5 343.5,-133.5 343.5,-114.5 227.5,-114.5"/>
<text text-anchor="middle" x="285.5" y="-121.5" font-family="Helvetica,sans-Serif" font-size="10.00">decomposeBGDBias</text>
</a>
</g>
</g>
<!-- Node1&#45;&gt;Node22 -->
<g id="edge12" class="edge">
<title>Node1&#45;&gt;Node22</title>
<path fill="none" stroke="midnightblue" d="M101.59,-209.44C123.11,-193.52 168.86,-161.49 212,-143 220.73,-139.26 230.38,-136.11 239.71,-133.51"/>
</g>
<!-- Node23 -->
<g id="node13" class="node">
<title>Node23</title>
<g id="a_node13"><a xlink:href="structRtcmTrace.html#a6a1c3b7cb0f2b3e1e694a6772e4206b1" target="_top" xlink:title=" ">
<polygon fill="white" stroke="red" points="218.5,-0.5 218.5,-19.5 352.5,-19.5 352.5,-0.5 218.5,-0.5"/>
<text text-anchor="middle" x="285.5" y="-7.5" font-family="Helvetica,sans-Serif" font-size="10.00">RtcmTrace::traceBroEph</text>
</a>
</g>
</g>
<!-- Node1&#45;&gt;Node23 -->
<g id="edge15" class="edge">
<title>Node1&#45;&gt;Node23</title>
<path fill="none" stroke="midnightblue" d="M92.72,-209.31C104.91,-178.81 146.69,-83.84 212,-34 220.22,-27.73 230.16,-23.05 240.01,-19.57"/>
</g>
<!-- Node5&#45;&gt;Node10 -->
<g id="edge4" class="edge">
<title>Node5&#45;&gt;Node10</title>
<path fill="none" stroke="midnightblue" d="M345.13,-342.44C350.21,-339.95 354.95,-336.86 359,-333 397.49,-296.37 361.99,-260.63 395,-219 397.89,-215.35 401.69,-212.26 405.65,-209.69"/>
</g>
<!-- Node13&#45;&gt;Node14 -->
<g id="edge7" class="edge">
<title>Node13&#45;&gt;Node14</title>
<path fill="none" stroke="midnightblue" d="M349.35,-276C366.45,-276 384.14,-276 398.31,-276"/>
</g>
<!-- Node13&#45;&gt;Node8 -->
<g id="edge8" class="edge">
<title>Node13&#45;&gt;Node8</title>
<path fill="none" stroke="midnightblue" d="M321.95,-266.41C346.34,-259.81 378.21,-251.19 400.43,-245.19"/>
</g>
<!-- Node23&#45;&gt;Node10 -->
<g id="edge16" class="edge">
<title>Node23&#45;&gt;Node10</title>
<path fill="none" stroke="midnightblue" d="M334.96,-19.57C343.72,-23 352.21,-27.67 359,-34 406.82,-78.62 421.94,-161.74 425.83,-190.17"/>
</g>
</g>
</svg>
        <g id="navigator" transform="translate(0 0)" fill="#404254">
                <rect fill="#f2f5e9" fill-opacity="0.5" stroke="#606060" stroke-width=".5" x="0" y="0" width="60" height="60"/>
                <use id="zoomplus" xlink:href="#zoomPlus" x="17" y="9" onmousedown="handleZoom(evt,'in')"/>
                <use id="zoomminus" xlink:href="#zoomMin" x="42" y="9" onmousedown="handleZoom(evt,'out')"/>
                <use id="reset" xlink:href="#resetDef" x="30" y="36" onmousedown="handleReset()"/>
                <g id="arrowUp" xlink:href="#dirArrow" transform="translate(30 24)" onmousedown="handlePan(0,-1)">
                  <use xlink:href="#rim" fill="#404040">
                        <set attributeName="fill" to="#808080" begin="arrowUp.mouseover" end="arrowUp.mouseout"/>
                  </use>
                  <path fill="none" stroke="white" stroke-width="1.5" d="M0,-3.0v7 M-2.5,-0.5L0,-3.0L2.5,-0.5"/>
                </g>
                <g id="arrowRight" xlink:href="#dirArrow" transform="rotate(90) translate(36 -43)" onmousedown="handlePan(1,0)">
                  <use xlink:href="#rim" fill="#404040">
                        <set attributeName="fill" to="#808080" begin="arrowRight.mouseover" end="arrowRight.mouseout"/>
                  </use>
                  <path fill="none" stroke="white" stroke-width="1.5" d="M0,-3.0v7 M-2.5,-0.5L0,-3.0L2.5,-0.5"/>
                </g>
                <g id="arrowDown" xlink:href="#dirArrow" transform="rotate(180) translate(-30 -48)" onmousedown="handlePan(0,1)">
                  <use xlink:href="#rim" fill="#404040">
                        <set attributeName="fill" to="#808080" begin="arrowDown.mouseover" end="arrowDown.mouseout"/>
                  </use>
                  <path fill="none" stroke="white" stroke-width="1.5" d="M0,-3.0v7 M-2.5,-0.5L0,-3.0L2.5,-0.5"/>
                </g>
                <g id="arrowLeft" xlink:href="#dirArrow" transform="rotate(270) translate(-36 17)" onmousedown="handlePan(-1,0)">
                  <use xlink:href="#rim" fill="#404040">
                        <set attributeName="fill" to="#808080" begin="arrowLeft.mouseover" end="arrowLeft.mouseout"/>
                  </use>
                  <path fill="none" stroke="white" stroke-width="1.5" d="M0,-3.0v7 M-2.5,-0.5L0,-3.0L2.5,-0.5"/>
                </g>
        </g>
        <svg viewBox="0 0 15 15" width="100%" height="30px" preserveAspectRatio="xMaxYMin meet">
         <g id="arrow_out" transform="scale(0.3 0.3)">
          <a xlink:href="structRtcmDecoder_a6673aa5a16d7e997de9ce5e43fac7860_cgraph_org.svg" target="_base">
           <rect id="button" ry="5" rx="5" y="6" x="6" height="38" width="38"
                fill="#f2f5e9" fill-opacity="0.5" stroke="#606060" stroke-width="1.0"/>
           <path id="arrow"
             d="M 11.500037,31.436501 C 11.940474,20.09759 22.043105,11.32322 32.158766,21.979434 L 37.068811,17.246167 C 37.068811,17.246167 37.088388,32 37.088388,32 L 22.160133,31.978069 C 22.160133,31.978069 26.997745,27.140456 26.997745,27.140456 C 18.528582,18.264221 13.291696,25.230495 11.500037,31.436501 z"
             style="fill:#404040;"/>
          </a>
         </g>
        </svg>
</svg>
