<?xml version="1.0" encoding="UTF-8" standalone="no"?>
<!DOCTYPE svg PUBLIC "-//W3C//DTD SVG 1.1//EN"
 "http://www.w3.org/Graphics/SVG/1.1/DTD/svg11.dtd">
<!-- Generated by graphviz version 2.43.0 (0)
 -->
<!-- Title: Sinex_datahandling_t Pages: 1 -->
<svg width="182pt" height="336pt"
 viewBox="0.00 0.00 181.50 336.00" xmlns="http://www.w3.org/2000/svg" xmlns:xlink="http://www.w3.org/1999/xlink">
<g id="graph0" class="graph" transform="scale(1 1) rotate(0) translate(4 332)">
<title>Sinex_datahandling_t</title>
<polygon fill="white" stroke="transparent" points="-4,4 -4,-332 177.5,-332 177.5,4 -4,4"/>
<!-- Node1 -->
<g id="node1" class="node">
<title>Node1</title>
<g id="a_node1"><a xlink:title=" ">
<polygon fill="#bfbfbf" stroke="black" points="9,-0.5 9,-79.5 131,-79.5 131,-0.5 9,-0.5"/>
<text text-anchor="middle" x="70" y="-67.5" font-family="Helvetica,sans-Serif" font-size="10.00">Sinex_datahandling_t</text>
<polyline fill="none" stroke="black" points="9,-60.5 131,-60.5 "/>
<text text-anchor="start" x="17" y="-48.5" font-family="Helvetica,sans-Serif" font-size="10.00">+ estimate</text>
<text text-anchor="start" x="17" y="-37.5" font-family="Helvetica,sans-Serif" font-size="10.00">+ stddev</text>
<text text-anchor="start" x="17" y="-26.5" font-family="Helvetica,sans-Serif" font-size="10.00">+ estrate</text>
<polyline fill="none" stroke="black" points="9,-19.5 131,-19.5 "/>
<text text-anchor="middle" x="70" y="-7.5" font-family="Helvetica,sans-Serif" font-size="10.00"> </text>
</a>
</g>
</g>
<!-- Node2 -->
<g id="node2" class="node">
<title>Node2</title>
<g id="a_node2"><a xlink:title=" ">
<polygon fill="white" stroke="black" points="0,-226.5 0,-283.5 44,-283.5 44,-226.5 0,-226.5"/>
<text text-anchor="middle" x="22" y="-271.5" font-family="Helvetica,sans-Serif" font-size="10.00">string</text>
<polyline fill="none" stroke="black" points="0,-264.5 44,-264.5 "/>
<text text-anchor="middle" x="22" y="-252.5" font-family="Helvetica,sans-Serif" font-size="10.00"> </text>
<polyline fill="none" stroke="black" points="0,-245.5 44,-245.5 "/>
<text text-anchor="middle" x="22" y="-233.5" font-family="Helvetica,sans-Serif" font-size="10.00"> </text>
</a>
</g>
</g>
<!-- Node2&#45;&gt;Node1 -->
<g id="edge1" class="edge">
<title>Node2&#45;&gt;Node1</title>
<path fill="none" stroke="#404040" d="M19.54,-226.4C17.65,-194.56 17.44,-141.06 32,-98 34.09,-91.8 37.04,-85.64 40.38,-79.78"/>
<text text-anchor="middle" x="64" y="-156" font-family="Helvetica,sans-Serif" font-size="10.00"> +comments</text>
<text text-anchor="middle" x="64" y="-145" font-family="Helvetica,sans-Serif" font-size="10.00">+m</text>
<text text-anchor="middle" x="64" y="-134" font-family="Helvetica,sans-Serif" font-size="10.00">+ptcode</text>
<text text-anchor="middle" x="64" y="-123" font-family="Helvetica,sans-Serif" font-size="10.00">+sitecode</text>
<text text-anchor="middle" x="64" y="-112" font-family="Helvetica,sans-Serif" font-size="10.00">+t</text>
<text text-anchor="middle" x="64" y="-101" font-family="Helvetica,sans-Serif" font-size="10.00">+unit</text>
</g>
<!-- Node3 -->
<g id="node3" class="node">
<title>Node3</title>
<g id="a_node3"><a xlink:href="structUYds.html" target="_top" xlink:title=" ">
<polygon fill="white" stroke="red" points="62.5,-182.5 62.5,-327.5 173.5,-327.5 173.5,-182.5 62.5,-182.5"/>
<text text-anchor="middle" x="118" y="-315.5" font-family="Helvetica,sans-Serif" font-size="10.00">UYds</text>
<polyline fill="none" stroke="red" points="62.5,-308.5 173.5,-308.5 "/>
<text text-anchor="start" x="70.5" y="-296.5" font-family="Helvetica,sans-Serif" font-size="10.00">+ year</text>
<text text-anchor="start" x="70.5" y="-285.5" font-family="Helvetica,sans-Serif" font-size="10.00">+ doy</text>
<text text-anchor="start" x="70.5" y="-274.5" font-family="Helvetica,sans-Serif" font-size="10.00">+ sod</text>
<polyline fill="none" stroke="red" points="62.5,-267.5 173.5,-267.5 "/>
<text text-anchor="start" x="70.5" y="-255.5" font-family="Helvetica,sans-Serif" font-size="10.00">+ UYds()</text>
<text text-anchor="start" x="70.5" y="-244.5" font-family="Helvetica,sans-Serif" font-size="10.00">+ UYds()</text>
<text text-anchor="start" x="70.5" y="-233.5" font-family="Helvetica,sans-Serif" font-size="10.00">+ operator=()</text>
<text text-anchor="start" x="70.5" y="-222.5" font-family="Helvetica,sans-Serif" font-size="10.00">+ UYds()</text>
<text text-anchor="start" x="70.5" y="-211.5" font-family="Helvetica,sans-Serif" font-size="10.00">+ operator+=()</text>
<text text-anchor="start" x="70.5" y="-200.5" font-family="Helvetica,sans-Serif" font-size="10.00">+ operator=()</text>
<text text-anchor="start" x="70.5" y="-189.5" font-family="Helvetica,sans-Serif" font-size="10.00">+ operator GTime()</text>
</a>
</g>
</g>
<!-- Node3&#45;&gt;Node1 -->
<g id="edge2" class="edge">
<title>Node3&#45;&gt;Node1</title>
<path fill="none" stroke="#404040" d="M112.28,-182.42C109,-155.58 103.89,-125.04 96,-98 94.23,-91.94 91.93,-85.71 89.43,-79.68"/>
<text text-anchor="middle" x="139.5" y="-134" font-family="Helvetica,sans-Serif" font-size="10.00"> +epochend</text>
<text text-anchor="middle" x="139.5" y="-123" font-family="Helvetica,sans-Serif" font-size="10.00">+epochstart</text>
</g>
</g>
</svg>
