<?xml version="1.0" encoding="UTF-8" standalone="no"?>
<!DOCTYPE svg PUBLIC "-//W3C//DTD SVG 1.1//EN"
 "http://www.w3.org/Graphics/SVG/1.1/DTD/svg11.dtd">
<!-- Generated by graphviz version 2.43.0 (0)
 -->
<!-- Title: Sinex_solepoch_t Pages: 1 -->
<svg width="182pt" height="281pt"
 viewBox="0.00 0.00 181.50 281.00" xmlns="http://www.w3.org/2000/svg" xmlns:xlink="http://www.w3.org/1999/xlink">
<g id="graph0" class="graph" transform="scale(1 1) rotate(0) translate(4 277)">
<title>Sinex_solepoch_t</title>
<polygon fill="white" stroke="transparent" points="-4,4 -4,-277 177.5,-277 177.5,4 -4,4"/>
<!-- Node1 -->
<g id="node1" class="node">
<title>Node1</title>
<g id="a_node1"><a xlink:title=" ">
<polygon fill="#bfbfbf" stroke="black" points="19.5,-0.5 19.5,-57.5 120.5,-57.5 120.5,-0.5 19.5,-0.5"/>
<text text-anchor="middle" x="70" y="-45.5" font-family="Helvetica,sans-Serif" font-size="10.00">Sinex_solepoch_t</text>
<polyline fill="none" stroke="black" points="19.5,-38.5 120.5,-38.5 "/>
<text text-anchor="start" x="27.5" y="-26.5" font-family="Helvetica,sans-Serif" font-size="10.00">+ typecode</text>
<polyline fill="none" stroke="black" points="19.5,-19.5 120.5,-19.5 "/>
<text text-anchor="middle" x="70" y="-7.5" font-family="Helvetica,sans-Serif" font-size="10.00"> </text>
</a>
</g>
</g>
<!-- Node2 -->
<g id="node2" class="node">
<title>Node2</title>
<g id="a_node2"><a xlink:title=" ">
<polygon fill="white" stroke="black" points="0,-171.5 0,-228.5 44,-228.5 44,-171.5 0,-171.5"/>
<text text-anchor="middle" x="22" y="-216.5" font-family="Helvetica,sans-Serif" font-size="10.00">string</text>
<polyline fill="none" stroke="black" points="0,-209.5 44,-209.5 "/>
<text text-anchor="middle" x="22" y="-197.5" font-family="Helvetica,sans-Serif" font-size="10.00"> </text>
<polyline fill="none" stroke="black" points="0,-190.5 44,-190.5 "/>
<text text-anchor="middle" x="22" y="-178.5" font-family="Helvetica,sans-Serif" font-size="10.00"> </text>
</a>
</g>
</g>
<!-- Node2&#45;&gt;Node1 -->
<g id="edge1" class="edge">
<title>Node2&#45;&gt;Node1</title>
<path fill="none" stroke="#404040" d="M24.65,-171.49C27.67,-146.13 33.73,-107.73 45,-76 47.19,-69.83 50.13,-63.5 53.22,-57.57"/>
<text text-anchor="middle" x="70.5" y="-101" font-family="Helvetica,sans-Serif" font-size="10.00"> +ptcode</text>
<text text-anchor="middle" x="70.5" y="-90" font-family="Helvetica,sans-Serif" font-size="10.00">+sitecode</text>
<text text-anchor="middle" x="70.5" y="-79" font-family="Helvetica,sans-Serif" font-size="10.00">+solnnum</text>
</g>
<!-- Node3 -->
<g id="node3" class="node">
<title>Node3</title>
<g id="a_node3"><a xlink:href="structUYds.html" target="_top" xlink:title=" ">
<polygon fill="white" stroke="red" points="62.5,-127.5 62.5,-272.5 173.5,-272.5 173.5,-127.5 62.5,-127.5"/>
<text text-anchor="middle" x="118" y="-260.5" font-family="Helvetica,sans-Serif" font-size="10.00">UYds</text>
<polyline fill="none" stroke="red" points="62.5,-253.5 173.5,-253.5 "/>
<text text-anchor="start" x="70.5" y="-241.5" font-family="Helvetica,sans-Serif" font-size="10.00">+ year</text>
<text text-anchor="start" x="70.5" y="-230.5" font-family="Helvetica,sans-Serif" font-size="10.00">+ doy</text>
<text text-anchor="start" x="70.5" y="-219.5" font-family="Helvetica,sans-Serif" font-size="10.00">+ sod</text>
<polyline fill="none" stroke="red" points="62.5,-212.5 173.5,-212.5 "/>
<text text-anchor="start" x="70.5" y="-200.5" font-family="Helvetica,sans-Serif" font-size="10.00">+ UYds()</text>
<text text-anchor="start" x="70.5" y="-189.5" font-family="Helvetica,sans-Serif" font-size="10.00">+ UYds()</text>
<text text-anchor="start" x="70.5" y="-178.5" font-family="Helvetica,sans-Serif" font-size="10.00">+ operator=()</text>
<text text-anchor="start" x="70.5" y="-167.5" font-family="Helvetica,sans-Serif" font-size="10.00">+ UYds()</text>
<text text-anchor="start" x="70.5" y="-156.5" font-family="Helvetica,sans-Serif" font-size="10.00">+ operator+=()</text>
<text text-anchor="start" x="70.5" y="-145.5" font-family="Helvetica,sans-Serif" font-size="10.00">+ operator=()</text>
<text text-anchor="start" x="70.5" y="-134.5" font-family="Helvetica,sans-Serif" font-size="10.00">+ operator GTime()</text>
</a>
</g>
</g>
<!-- Node3&#45;&gt;Node1 -->
<g id="edge2" class="edge">
<title>Node3&#45;&gt;Node1</title>
<path fill="none" stroke="#404040" d="M109.38,-127.36C106.18,-110.24 101.84,-92.23 96,-76 93.76,-69.79 90.73,-63.43 87.52,-57.5"/>
<text text-anchor="middle" x="123.5" y="-101" font-family="Helvetica,sans-Serif" font-size="10.00"> +end</text>
<text text-anchor="middle" x="123.5" y="-90" font-family="Helvetica,sans-Serif" font-size="10.00">+mean</text>
<text text-anchor="middle" x="123.5" y="-79" font-family="Helvetica,sans-Serif" font-size="10.00">+start</text>
</g>
</g>
</svg>
