<?xml version="1.0" encoding="UTF-8" standalone="no"?>
<!DOCTYPE svg PUBLIC "-//W3C//DTD SVG 1.1//EN"
 "http://www.w3.org/Graphics/SVG/1.1/DTD/svg11.dtd">
<!-- Generated by graphviz version 2.43.0 (0)
 -->
<!-- Title: ReceiverKalmans Pages: 1 -->
<!--zoomable 695 -->
<svg id="main" version="1.1" xmlns="http://www.w3.org/2000/svg" xmlns:xlink="http://www.w3.org/1999/xlink" xml:space="preserve" onload="init(evt)">
<style type="text/css"><![CDATA[
.edge:hover path { stroke: red; }
.edge:hover polygon { stroke: red; fill: red; }
]]></style>
<script type="text/javascript"><![CDATA[
var edges = document.getElementsByTagName('g');
if (edges && edges.length) {
  for (var i=0;i<edges.length;i++) {
    if (edges[i].id.substr(0,4)=='edge') {
      edges[i].setAttribute('class','edge');
    }
  }
}
]]></script>
        <defs>
                <circle id="rim" cx="0" cy="0" r="7"/>
                <circle id="rim2" cx="0" cy="0" r="3.5"/>
                <g id="zoomPlus">
                        <use xlink:href="#rim" fill="#404040">
                                <set attributeName="fill" to="#808080" begin="zoomplus.mouseover" end="zoomplus.mouseout"/>
                        </use>
                        <path d="M-4,0h8M0,-4v8" fill="none" stroke="white" stroke-width="1.5" pointer-events="none"/>
                </g>
                <g id="zoomMin">
                        <use xlink:href="#rim" fill="#404040">
                                <set attributeName="fill" to="#808080" begin="zoomminus.mouseover" end="zoomminus.mouseout"/>
                        </use>
                        <path d="M-4,0h8" fill="none" stroke="white" stroke-width="1.5" pointer-events="none"/>
                </g>
                <g id="dirArrow">
                        <path fill="none" stroke="white" stroke-width="1.5" d="M0,-3.0v7 M-2.5,-0.5L0,-3.0L2.5,-0.5"/>
                </g>
               <g id="resetDef">
                       <use xlink:href="#rim2" fill="#404040">
                               <set attributeName="fill" to="#808080" begin="reset.mouseover" end="reset.mouseout"/>
                       </use>
               </g>
        </defs>

<script type="text/javascript">
var viewWidth = 467;
var viewHeight = 695;
var sectionId = 'dynsection-1';
</script>
<script xlink:href="svgpan.js"/>
<svg id="graph" class="graph">
<g id="viewport">
<title>ReceiverKalmans</title>
<polygon fill="white" stroke="transparent" points="-4,4 -4,-691 463,-691 463,4 -4,4"/>
<!-- Node1 -->
<g id="node1" class="node">
<title>Node1</title>
<g id="a_node1"><a xlink:title=" ">
<polygon fill="#bfbfbf" stroke="black" points="169,-0.5 169,-57.5 271,-57.5 271,-0.5 169,-0.5"/>
<text text-anchor="middle" x="220" y="-45.5" font-family="Helvetica,sans-Serif" font-size="10.00">ReceiverKalmans</text>
<polyline fill="none" stroke="black" points="169,-38.5 271,-38.5 "/>
<text text-anchor="middle" x="220" y="-26.5" font-family="Helvetica,sans-Serif" font-size="10.00"> </text>
<polyline fill="none" stroke="black" points="169,-19.5 271,-19.5 "/>
<text text-anchor="start" x="177" y="-7.5" font-family="Helvetica,sans-Serif" font-size="10.00">+ operator+=()</text>
</a>
</g>
</g>
<!-- Node2 -->
<g id="node2" class="node">
<title>Node2</title>
<g id="a_node2"><a xlink:href="structCommonKalmans.html" target="_top" xlink:title=" ">
<polygon fill="white" stroke="black" points="0,-255 0,-312 104,-312 104,-255 0,-255"/>
<text text-anchor="middle" x="52" y="-300" font-family="Helvetica,sans-Serif" font-size="10.00">CommonKalmans</text>
<polyline fill="none" stroke="black" points="0,-293 104,-293 "/>
<text text-anchor="middle" x="52" y="-281" font-family="Helvetica,sans-Serif" font-size="10.00"> </text>
<polyline fill="none" stroke="black" points="0,-274 104,-274 "/>
<text text-anchor="start" x="8" y="-262" font-family="Helvetica,sans-Serif" font-size="10.00">+ operator+=()</text>
</a>
</g>
</g>
<!-- Node2&#45;&gt;Node1 -->
<g id="edge1" class="edge">
<title>Node2&#45;&gt;Node1</title>
<path fill="none" stroke="midnightblue" d="M56.39,-244.81C62.79,-204.11 78.01,-139.19 113,-95 127.64,-76.51 149.09,-62.02 168.95,-51.46"/>
<polygon fill="none" stroke="midnightblue" points="52.91,-244.45 54.91,-254.85 59.83,-245.47 52.91,-244.45"/>
</g>
<!-- Node3 -->
<g id="node3" class="node">
<title>Node3</title>
<g id="a_node3"><a xlink:href="structKalmanModel.html" target="_top" xlink:title="Options associated with kalman filter states.">
<polygon fill="white" stroke="red" points="173.5,-629.5 173.5,-686.5 266.5,-686.5 266.5,-629.5 173.5,-629.5"/>
<text text-anchor="middle" x="220" y="-674.5" font-family="Helvetica,sans-Serif" font-size="10.00">KalmanModel</text>
<polyline fill="none" stroke="red" points="173.5,-667.5 266.5,-667.5 "/>
<text text-anchor="middle" x="220" y="-655.5" font-family="Helvetica,sans-Serif" font-size="10.00"> </text>
<polyline fill="none" stroke="red" points="173.5,-648.5 266.5,-648.5 "/>
<text text-anchor="start" x="181.5" y="-636.5" font-family="Helvetica,sans-Serif" font-size="10.00">+ operator+=()</text>
</a>
</g>
</g>
<!-- Node3&#45;&gt;Node1 -->
<g id="edge7" class="edge">
<title>Node3&#45;&gt;Node1</title>
<path fill="none" stroke="#404040" d="M266.53,-653.68C295.69,-648.91 331.21,-637.59 350,-611 381.04,-567.09 350.88,-543.77 350,-490 347.11,-314.37 428.56,-244.9 337,-95 324.58,-74.66 303.33,-60.19 282.32,-50.14"/>
<polygon fill="none" stroke="#404040" points="282.04,-50.01 274.93,-51.24 271.07,-45.15 278.17,-43.92 282.04,-50.01"/>
<text text-anchor="middle" x="419.5" y="-336" font-family="Helvetica,sans-Serif" font-size="10.00"> +ambiguity</text>
<text text-anchor="middle" x="419.5" y="-325" font-family="Helvetica,sans-Serif" font-size="10.00">+ion_model</text>
<text text-anchor="middle" x="419.5" y="-314" font-family="Helvetica,sans-Serif" font-size="10.00">+ion_stec</text>
<text text-anchor="middle" x="419.5" y="-303" font-family="Helvetica,sans-Serif" font-size="10.00">+pcv</text>
<text text-anchor="middle" x="419.5" y="-292" font-family="Helvetica,sans-Serif" font-size="10.00">+slr_range_bias</text>
<text text-anchor="middle" x="419.5" y="-281" font-family="Helvetica,sans-Serif" font-size="10.00">+slr_time_bias</text>
<text text-anchor="middle" x="419.5" y="-270" font-family="Helvetica,sans-Serif" font-size="10.00">+strain_rate</text>
<text text-anchor="middle" x="419.5" y="-259" font-family="Helvetica,sans-Serif" font-size="10.00">+trop</text>
<text text-anchor="middle" x="419.5" y="-248" font-family="Helvetica,sans-Serif" font-size="10.00">+trop_grads</text>
<text text-anchor="middle" x="419.5" y="-237" font-family="Helvetica,sans-Serif" font-size="10.00">+trop_maps</text>
<text text-anchor="middle" x="419.5" y="-226" font-family="Helvetica,sans-Serif" font-size="10.00">...</text>
</g>
<!-- Node3&#45;&gt;Node2 -->
<g id="edge2" class="edge">
<title>Node3&#45;&gt;Node2</title>
<path fill="none" stroke="#404040" d="M173.49,-655.17C140.85,-651.22 99.07,-640.27 76,-611 10.06,-527.34 27.81,-391.18 42.05,-324.23"/>
<polygon fill="none" stroke="#404040" points="42.12,-323.89 39.52,-317.16 44.73,-312.18 47.33,-318.9 42.12,-323.89"/>
<text text-anchor="middle" x="108" y="-586.5" font-family="Helvetica,sans-Serif" font-size="10.00"> +clk</text>
<text text-anchor="middle" x="108" y="-575.5" font-family="Helvetica,sans-Serif" font-size="10.00">+clk_rate</text>
<text text-anchor="middle" x="108" y="-564.5" font-family="Helvetica,sans-Serif" font-size="10.00">+code_bias</text>
<text text-anchor="middle" x="108" y="-553.5" font-family="Helvetica,sans-Serif" font-size="10.00">+orbit</text>
<text text-anchor="middle" x="108" y="-542.5" font-family="Helvetica,sans-Serif" font-size="10.00">+pco</text>
<text text-anchor="middle" x="108" y="-531.5" font-family="Helvetica,sans-Serif" font-size="10.00">+phase_bias</text>
<text text-anchor="middle" x="108" y="-520.5" font-family="Helvetica,sans-Serif" font-size="10.00">+pos</text>
<text text-anchor="middle" x="108" y="-509.5" font-family="Helvetica,sans-Serif" font-size="10.00">+pos_rate</text>
</g>
<!-- Node10 -->
<g id="node4" class="node">
<title>Node10</title>
<g id="a_node4"><a xlink:href="structInertialKalmans.html" target="_top" xlink:title=" ">
<polygon fill="white" stroke="black" points="122,-255 122,-312 216,-312 216,-255 122,-255"/>
<text text-anchor="middle" x="169" y="-300" font-family="Helvetica,sans-Serif" font-size="10.00">InertialKalmans</text>
<polyline fill="none" stroke="black" points="122,-293 216,-293 "/>
<text text-anchor="middle" x="169" y="-281" font-family="Helvetica,sans-Serif" font-size="10.00"> </text>
<polyline fill="none" stroke="black" points="122,-274 216,-274 "/>
<text text-anchor="start" x="130" y="-262" font-family="Helvetica,sans-Serif" font-size="10.00">+ operator+=()</text>
</a>
</g>
</g>
<!-- Node3&#45;&gt;Node10 -->
<g id="edge4" class="edge">
<title>Node3&#45;&gt;Node10</title>
<path fill="none" stroke="#404040" d="M173.31,-632.52C165.93,-626.51 159.32,-619.35 155,-611 129.74,-562.17 150.74,-400.17 162.45,-324.32"/>
<polygon fill="none" stroke="#404040" points="162.51,-323.92 159.49,-317.37 164.37,-312.06 167.39,-318.61 162.51,-323.92"/>
<text text-anchor="middle" x="210" y="-575.5" font-family="Helvetica,sans-Serif" font-size="10.00"> +accelerometer_bias</text>
<text text-anchor="middle" x="210" y="-564.5" font-family="Helvetica,sans-Serif" font-size="10.00">+accelerometer_scale</text>
<text text-anchor="middle" x="210" y="-553.5" font-family="Helvetica,sans-Serif" font-size="10.00">+gyro_bias</text>
<text text-anchor="middle" x="210" y="-542.5" font-family="Helvetica,sans-Serif" font-size="10.00">+gyro_scale</text>
<text text-anchor="middle" x="210" y="-531.5" font-family="Helvetica,sans-Serif" font-size="10.00">+imu_offset</text>
<text text-anchor="middle" x="210" y="-520.5" font-family="Helvetica,sans-Serif" font-size="10.00">+orientation</text>
</g>
<!-- Node11 -->
<g id="node5" class="node">
<title>Node11</title>
<g id="a_node5"><a xlink:href="structEmpKalmans.html" target="_top" xlink:title=" ">
<polygon fill="white" stroke="black" points="234.5,-95.5 234.5,-471.5 327.5,-471.5 327.5,-95.5 234.5,-95.5"/>
<text text-anchor="middle" x="281" y="-459.5" font-family="Helvetica,sans-Serif" font-size="10.00">EmpKalmans</text>
<polyline fill="none" stroke="black" points="234.5,-452.5 327.5,-452.5 "/>
<text text-anchor="start" x="242.5" y="-440.5" font-family="Helvetica,sans-Serif" font-size="10.00">+ emp_y_0</text>
<text text-anchor="start" x="242.5" y="-429.5" font-family="Helvetica,sans-Serif" font-size="10.00">+ emp_y_1</text>
<text text-anchor="start" x="242.5" y="-418.5" font-family="Helvetica,sans-Serif" font-size="10.00">+ emp_y_2</text>
<text text-anchor="start" x="242.5" y="-407.5" font-family="Helvetica,sans-Serif" font-size="10.00">+ emp_y_3</text>
<text text-anchor="start" x="242.5" y="-396.5" font-family="Helvetica,sans-Serif" font-size="10.00">+ emp_y_4</text>
<text text-anchor="start" x="242.5" y="-385.5" font-family="Helvetica,sans-Serif" font-size="10.00">+ emp_r_0</text>
<text text-anchor="start" x="242.5" y="-374.5" font-family="Helvetica,sans-Serif" font-size="10.00">+ emp_r_1</text>
<text text-anchor="start" x="242.5" y="-363.5" font-family="Helvetica,sans-Serif" font-size="10.00">+ emp_r_2</text>
<text text-anchor="start" x="242.5" y="-352.5" font-family="Helvetica,sans-Serif" font-size="10.00">+ emp_r_3</text>
<text text-anchor="start" x="242.5" y="-341.5" font-family="Helvetica,sans-Serif" font-size="10.00">+ emp_r_4</text>
<text text-anchor="start" x="242.5" y="-330.5" font-family="Helvetica,sans-Serif" font-size="10.00">+ emp_t_0</text>
<text text-anchor="start" x="242.5" y="-319.5" font-family="Helvetica,sans-Serif" font-size="10.00">+ emp_t_1</text>
<text text-anchor="start" x="242.5" y="-308.5" font-family="Helvetica,sans-Serif" font-size="10.00">+ emp_t_2</text>
<text text-anchor="start" x="242.5" y="-297.5" font-family="Helvetica,sans-Serif" font-size="10.00">+ emp_t_3</text>
<text text-anchor="start" x="242.5" y="-286.5" font-family="Helvetica,sans-Serif" font-size="10.00">+ emp_t_4</text>
<text text-anchor="start" x="242.5" y="-275.5" font-family="Helvetica,sans-Serif" font-size="10.00">+ emp_n_0</text>
<text text-anchor="start" x="242.5" y="-264.5" font-family="Helvetica,sans-Serif" font-size="10.00">+ emp_n_1</text>
<text text-anchor="start" x="242.5" y="-253.5" font-family="Helvetica,sans-Serif" font-size="10.00">+ emp_n_2</text>
<text text-anchor="start" x="242.5" y="-242.5" font-family="Helvetica,sans-Serif" font-size="10.00">+ emp_n_3</text>
<text text-anchor="start" x="242.5" y="-231.5" font-family="Helvetica,sans-Serif" font-size="10.00">+ emp_n_4</text>
<text text-anchor="start" x="242.5" y="-220.5" font-family="Helvetica,sans-Serif" font-size="10.00">+ emp_p_0</text>
<text text-anchor="start" x="242.5" y="-209.5" font-family="Helvetica,sans-Serif" font-size="10.00">+ emp_p_1</text>
<text text-anchor="start" x="242.5" y="-198.5" font-family="Helvetica,sans-Serif" font-size="10.00">+ emp_p_2</text>
<text text-anchor="start" x="242.5" y="-187.5" font-family="Helvetica,sans-Serif" font-size="10.00">+ emp_p_3</text>
<text text-anchor="start" x="242.5" y="-176.5" font-family="Helvetica,sans-Serif" font-size="10.00">+ emp_p_4</text>
<text text-anchor="start" x="242.5" y="-165.5" font-family="Helvetica,sans-Serif" font-size="10.00">+ emp_q_0</text>
<text text-anchor="start" x="242.5" y="-154.5" font-family="Helvetica,sans-Serif" font-size="10.00">+ emp_q_1</text>
<text text-anchor="start" x="242.5" y="-143.5" font-family="Helvetica,sans-Serif" font-size="10.00">+ emp_q_2</text>
<text text-anchor="start" x="242.5" y="-132.5" font-family="Helvetica,sans-Serif" font-size="10.00">+ emp_q_3</text>
<text text-anchor="start" x="242.5" y="-121.5" font-family="Helvetica,sans-Serif" font-size="10.00">+ emp_q_4</text>
<polyline fill="none" stroke="black" points="234.5,-114.5 327.5,-114.5 "/>
<text text-anchor="start" x="242.5" y="-102.5" font-family="Helvetica,sans-Serif" font-size="10.00">+ operator+=()</text>
</a>
</g>
</g>
<!-- Node3&#45;&gt;Node11 -->
<g id="edge6" class="edge">
<title>Node3&#45;&gt;Node11</title>
<path fill="none" stroke="#404040" d="M253.14,-629.25C257.9,-623.7 262.14,-617.55 265,-611 282.18,-571.66 290.6,-527.06 293.94,-483.75"/>
<polygon fill="none" stroke="#404040" points="293.96,-483.55 290.37,-477.3 294.76,-471.58 298.35,-477.83 293.96,-483.55"/>
<text text-anchor="middle" x="321" y="-603" font-family="Helvetica,sans-Serif" font-size="10.00"> +emp_b_0</text>
<text text-anchor="middle" x="321" y="-592" font-family="Helvetica,sans-Serif" font-size="10.00">+emp_b_1</text>
<text text-anchor="middle" x="321" y="-581" font-family="Helvetica,sans-Serif" font-size="10.00">+emp_b_2</text>
<text text-anchor="middle" x="321" y="-570" font-family="Helvetica,sans-Serif" font-size="10.00">+emp_b_3</text>
<text text-anchor="middle" x="321" y="-559" font-family="Helvetica,sans-Serif" font-size="10.00">+emp_b_4</text>
<text text-anchor="middle" x="321" y="-548" font-family="Helvetica,sans-Serif" font-size="10.00">+emp_d_0</text>
<text text-anchor="middle" x="321" y="-537" font-family="Helvetica,sans-Serif" font-size="10.00">+emp_d_1</text>
<text text-anchor="middle" x="321" y="-526" font-family="Helvetica,sans-Serif" font-size="10.00">+emp_d_2</text>
<text text-anchor="middle" x="321" y="-515" font-family="Helvetica,sans-Serif" font-size="10.00">+emp_d_3</text>
<text text-anchor="middle" x="321" y="-504" font-family="Helvetica,sans-Serif" font-size="10.00">+emp_d_4</text>
<text text-anchor="middle" x="321" y="-493" font-family="Helvetica,sans-Serif" font-size="10.00">...</text>
</g>
<!-- Node10&#45;&gt;Node1 -->
<g id="edge3" class="edge">
<title>Node10&#45;&gt;Node1</title>
<path fill="none" stroke="midnightblue" d="M176.57,-245.02C186.9,-193.88 205.17,-103.41 214.37,-57.85"/>
<polygon fill="none" stroke="midnightblue" points="173.1,-244.5 174.55,-255 179.97,-245.89 173.1,-244.5"/>
</g>
<!-- Node11&#45;&gt;Node1 -->
<g id="edge5" class="edge">
<title>Node11&#45;&gt;Node1</title>
<path fill="none" stroke="midnightblue" d="M233.42,-85.54C230.9,-75.13 228.62,-65.66 226.67,-57.61"/>
<polygon fill="none" stroke="midnightblue" points="230.04,-86.45 235.79,-95.35 236.84,-84.81 230.04,-86.45"/>
</g>
</g>
</svg>
        <g id="navigator" transform="translate(0 0)" fill="#404254">
                <rect fill="#f2f5e9" fill-opacity="0.5" stroke="#606060" stroke-width=".5" x="0" y="0" width="60" height="60"/>
                <use id="zoomplus" xlink:href="#zoomPlus" x="17" y="9" onmousedown="handleZoom(evt,'in')"/>
                <use id="zoomminus" xlink:href="#zoomMin" x="42" y="9" onmousedown="handleZoom(evt,'out')"/>
                <use id="reset" xlink:href="#resetDef" x="30" y="36" onmousedown="handleReset()"/>
                <g id="arrowUp" xlink:href="#dirArrow" transform="translate(30 24)" onmousedown="handlePan(0,-1)">
                  <use xlink:href="#rim" fill="#404040">
                        <set attributeName="fill" to="#808080" begin="arrowUp.mouseover" end="arrowUp.mouseout"/>
                  </use>
                  <path fill="none" stroke="white" stroke-width="1.5" d="M0,-3.0v7 M-2.5,-0.5L0,-3.0L2.5,-0.5"/>
                </g>
                <g id="arrowRight" xlink:href="#dirArrow" transform="rotate(90) translate(36 -43)" onmousedown="handlePan(1,0)">
                  <use xlink:href="#rim" fill="#404040">
                        <set attributeName="fill" to="#808080" begin="arrowRight.mouseover" end="arrowRight.mouseout"/>
                  </use>
                  <path fill="none" stroke="white" stroke-width="1.5" d="M0,-3.0v7 M-2.5,-0.5L0,-3.0L2.5,-0.5"/>
                </g>
                <g id="arrowDown" xlink:href="#dirArrow" transform="rotate(180) translate(-30 -48)" onmousedown="handlePan(0,1)">
                  <use xlink:href="#rim" fill="#404040">
                        <set attributeName="fill" to="#808080" begin="arrowDown.mouseover" end="arrowDown.mouseout"/>
                  </use>
                  <path fill="none" stroke="white" stroke-width="1.5" d="M0,-3.0v7 M-2.5,-0.5L0,-3.0L2.5,-0.5"/>
                </g>
                <g id="arrowLeft" xlink:href="#dirArrow" transform="rotate(270) translate(-36 17)" onmousedown="handlePan(-1,0)">
                  <use xlink:href="#rim" fill="#404040">
                        <set attributeName="fill" to="#808080" begin="arrowLeft.mouseover" end="arrowLeft.mouseout"/>
                  </use>
                  <path fill="none" stroke="white" stroke-width="1.5" d="M0,-3.0v7 M-2.5,-0.5L0,-3.0L2.5,-0.5"/>
                </g>
        </g>
        <svg viewBox="0 0 15 15" width="100%" height="30px" preserveAspectRatio="xMaxYMin meet">
         <g id="arrow_out" transform="scale(0.3 0.3)">
          <a xlink:href="structReceiverKalmans__coll__graph_org.svg" target="_base">
           <rect id="button" ry="5" rx="5" y="6" x="6" height="38" width="38"
                fill="#f2f5e9" fill-opacity="0.5" stroke="#606060" stroke-width="1.0"/>
           <path id="arrow"
             d="M 11.500037,31.436501 C 11.940474,20.09759 22.043105,11.32322 32.158766,21.979434 L 37.068811,17.246167 C 37.068811,17.246167 37.088388,32 37.088388,32 L 22.160133,31.978069 C 22.160133,31.978069 26.997745,27.140456 26.997745,27.140456 C 18.528582,18.264221 13.291696,25.230495 11.500037,31.436501 z"
             style="fill:#404040;"/>
          </a>
         </g>
        </svg>
</svg>
