<?xml version="1.0" encoding="UTF-8" standalone="no"?>
<!DOCTYPE svg PUBLIC "-//W3C//DTD SVG 1.1//EN"
 "http://www.w3.org/Graphics/SVG/1.1/DTD/svg11.dtd">
<!-- Generated by graphviz version 2.43.0 (0)
 -->
<!-- Title: KFState::stateTransition Pages: 1 -->
<svg width="404pt" height="351pt"
 viewBox="0.00 0.00 404.00 351.00" xmlns="http://www.w3.org/2000/svg" xmlns:xlink="http://www.w3.org/1999/xlink">
<g id="graph0" class="graph" transform="scale(1 1) rotate(0) translate(4 347)">
<title>KFState::stateTransition</title>
<polygon fill="white" stroke="transparent" points="-4,4 -4,-347 400,-347 400,4 -4,4"/>
<!-- Node1 -->
<g id="node1" class="node">
<title>Node1</title>
<g id="a_node1"><a xlink:title="Add process noise and dynamics to filter object according to time gap.">
<polygon fill="#bfbfbf" stroke="black" points="264,-171.5 264,-190.5 396,-190.5 396,-171.5 264,-171.5"/>
<text text-anchor="middle" x="330" y="-178.5" font-family="Helvetica,sans-Serif" font-size="10.00">KFState::stateTransition</text>
</a>
</g>
</g>
<!-- Node2 -->
<g id="node2" class="node">
<title>Node2</title>
<g id="a_node2"><a xlink:href="compare_8cpp.html#aa8c289d9d4e60f862fb0a60566b76bd0" target="_top" xlink:title=" ">
<polygon fill="white" stroke="red" points="0,-323.5 0,-342.5 89,-342.5 89,-323.5 0,-323.5"/>
<text text-anchor="middle" x="44.5" y="-330.5" font-family="Helvetica,sans-Serif" font-size="10.00">compareOrbits</text>
</a>
</g>
</g>
<!-- Node1&#45;&gt;Node2 -->
<g id="edge1" class="edge">
<title>Node1&#45;&gt;Node2</title>
<path fill="none" stroke="midnightblue" d="M320.83,-199.87C306.73,-229.85 274.79,-287.67 228,-314 185.39,-337.98 128.26,-340.03 89.35,-337.83"/>
<polygon fill="midnightblue" stroke="midnightblue" points="324.12,-201.07 325.06,-190.52 317.75,-198.18 324.12,-201.07"/>
</g>
<!-- Node6 -->
<g id="node3" class="node">
<title>Node6</title>
<g id="a_node3"><a xlink:href="debug_8cpp.html#a80d24c0bf09dad23394c5fcac25aa80b" target="_top" xlink:title=" ">
<polygon fill="white" stroke="black" points="3,-266.5 3,-285.5 86,-285.5 86,-266.5 3,-266.5"/>
<text text-anchor="middle" x="44.5" y="-273.5" font-family="Helvetica,sans-Serif" font-size="10.00">minimumTest</text>
</a>
</g>
</g>
<!-- Node1&#45;&gt;Node6 -->
<g id="edge2" class="edge">
<title>Node1&#45;&gt;Node6</title>
<path fill="none" stroke="midnightblue" d="M319.26,-199.65C303.99,-226.61 271.59,-275.38 228,-295 174.84,-318.92 104.42,-298.94 68.59,-285.59"/>
<polygon fill="midnightblue" stroke="midnightblue" points="322.37,-201.26 324.1,-190.8 316.23,-197.9 322.37,-201.26"/>
</g>
<!-- Node7 -->
<g id="node4" class="node">
<title>Node7</title>
<g id="a_node4"><a xlink:href="debug_8cpp.html#a6b386ae3f1e24bab3a4c831fa043a400" target="_top" xlink:title=" ">
<polygon fill="white" stroke="black" points="141.5,-266.5 141.5,-285.5 211.5,-285.5 211.5,-266.5 141.5,-266.5"/>
<text text-anchor="middle" x="176.5" y="-273.5" font-family="Helvetica,sans-Serif" font-size="10.00">infiniteTest</text>
</a>
</g>
</g>
<!-- Node1&#45;&gt;Node7 -->
<g id="edge3" class="edge">
<title>Node1&#45;&gt;Node7</title>
<path fill="none" stroke="midnightblue" d="M310.76,-197.28C291.34,-213.99 259.16,-239.88 228,-257 221.51,-260.56 214.22,-263.74 207.24,-266.42"/>
<polygon fill="midnightblue" stroke="midnightblue" points="313.26,-199.74 318.5,-190.53 308.66,-194.47 313.26,-199.74"/>
</g>
<!-- Node8 -->
<g id="node5" class="node">
<title>Node8</title>
<g id="a_node5"><a xlink:href="minimumConstraints_8cpp.html#aa40934b017f373d875c3470591eff52e" target="_top" xlink:title=" ">
<polygon fill="white" stroke="red" points="150,-228.5 150,-247.5 203,-247.5 203,-228.5 150,-228.5"/>
<text text-anchor="middle" x="176.5" y="-235.5" font-family="Helvetica,sans-Serif" font-size="10.00">mincon</text>
</a>
</g>
</g>
<!-- Node1&#45;&gt;Node8 -->
<g id="edge4" class="edge">
<title>Node1&#45;&gt;Node8</title>
<path fill="none" stroke="midnightblue" d="M294.27,-194.07C266.43,-204.54 227.99,-219.01 202.94,-228.43"/>
<polygon fill="midnightblue" stroke="midnightblue" points="295.52,-197.34 303.64,-190.54 293.05,-190.79 295.52,-197.34"/>
</g>
<!-- Node15 -->
<g id="node6" class="node">
<title>Node15</title>
<g id="a_node6"><a xlink:href="debug_8cpp.html#ad326dc5236fea56357a9a8e69a8d2379" target="_top" xlink:title=" ">
<polygon fill="white" stroke="black" points="125,-190.5 125,-209.5 228,-209.5 228,-190.5 125,-190.5"/>
<text text-anchor="middle" x="176.5" y="-197.5" font-family="Helvetica,sans-Serif" font-size="10.00">perEpochPropTest</text>
</a>
</g>
</g>
<!-- Node1&#45;&gt;Node15 -->
<g id="edge7" class="edge">
<title>Node1&#45;&gt;Node15</title>
<path fill="none" stroke="midnightblue" d="M253.8,-190.43C245.19,-191.51 236.58,-192.59 228.4,-193.62"/>
<polygon fill="midnightblue" stroke="midnightblue" points="254.38,-193.89 263.87,-189.17 253.51,-186.94 254.38,-193.89"/>
</g>
<!-- Node16 -->
<g id="node7" class="node">
<title>Node16</title>
<g id="a_node7"><a xlink:href="walkthrough_8cpp.html#af3e41749378ce9de79e7bdb41df88419" target="_top" xlink:title="Ginan kalman filter basics The basic structure for kalman filtering in ginan is the KFState struct,...">
<polygon fill="white" stroke="red" points="135,-152.5 135,-171.5 218,-171.5 218,-152.5 135,-152.5"/>
<text text-anchor="middle" x="176.5" y="-159.5" font-family="Helvetica,sans-Serif" font-size="10.00">walkthrough1</text>
</a>
</g>
</g>
<!-- Node1&#45;&gt;Node16 -->
<g id="edge8" class="edge">
<title>Node1&#45;&gt;Node16</title>
<path fill="none" stroke="midnightblue" d="M253.6,-171.54C241.34,-170.01 229.06,-168.47 218.06,-167.09"/>
<polygon fill="midnightblue" stroke="midnightblue" points="253.51,-175.06 263.87,-172.83 254.38,-168.11 253.51,-175.06"/>
</g>
<!-- Node18 -->
<g id="node8" class="node">
<title>Node18</title>
<g id="a_node8"><a xlink:href="walkthrough_8cpp.html#aff7ddc151473d418c066b30f06e6b42e" target="_top" xlink:title=" ">
<polygon fill="white" stroke="red" points="135,-114.5 135,-133.5 218,-133.5 218,-114.5 135,-114.5"/>
<text text-anchor="middle" x="176.5" y="-121.5" font-family="Helvetica,sans-Serif" font-size="10.00">walkthrough2</text>
</a>
</g>
</g>
<!-- Node1&#45;&gt;Node18 -->
<g id="edge9" class="edge">
<title>Node1&#45;&gt;Node18</title>
<path fill="none" stroke="midnightblue" d="M294.27,-167.93C266.43,-157.46 227.99,-142.99 202.94,-133.57"/>
<polygon fill="midnightblue" stroke="midnightblue" points="293.05,-171.21 303.64,-171.46 295.52,-164.66 293.05,-171.21"/>
</g>
<!-- Node19 -->
<g id="node9" class="node">
<title>Node19</title>
<g id="a_node9"><a xlink:href="ionoModel_8cpp.html#ae7821a74f98f349d4508712aeced88e1" target="_top" xlink:title="Updating the ionosphere model parameters The ionosphere model should be initialized by calling &#39;confi...">
<polygon fill="white" stroke="red" points="130,-76.5 130,-95.5 223,-95.5 223,-76.5 130,-76.5"/>
<text text-anchor="middle" x="176.5" y="-83.5" font-family="Helvetica,sans-Serif" font-size="10.00">filterIonosphere</text>
</a>
</g>
</g>
<!-- Node1&#45;&gt;Node19 -->
<g id="edge10" class="edge">
<title>Node1&#45;&gt;Node19</title>
<path fill="none" stroke="midnightblue" d="M310.76,-164.72C291.34,-148.01 259.16,-122.12 228,-105 221.51,-101.44 214.22,-98.26 207.24,-95.58"/>
<polygon fill="midnightblue" stroke="midnightblue" points="308.66,-167.53 318.5,-171.47 313.26,-162.26 308.66,-167.53"/>
</g>
<!-- Node20 -->
<g id="node10" class="node">
<title>Node20</title>
<g id="a_node10"><a xlink:href="ppp_8cpp.html#a1a529bfb379c76f71546a80022b8f123" target="_top" xlink:title=" ">
<polygon fill="white" stroke="red" points="136.5,-38.5 136.5,-57.5 216.5,-57.5 216.5,-38.5 136.5,-38.5"/>
<text text-anchor="middle" x="176.5" y="-45.5" font-family="Helvetica,sans-Serif" font-size="10.00">outputApriori</text>
</a>
</g>
</g>
<!-- Node1&#45;&gt;Node20 -->
<g id="edge11" class="edge">
<title>Node1&#45;&gt;Node20</title>
<path fill="none" stroke="midnightblue" d="M317.19,-162.86C300.21,-138.05 266.63,-93.59 228,-67 222.52,-63.23 216.2,-60.09 209.92,-57.52"/>
<polygon fill="midnightblue" stroke="midnightblue" points="314.39,-164.97 322.87,-171.33 320.21,-161.07 314.39,-164.97"/>
</g>
<!-- Node14 -->
<g id="node11" class="node">
<title>Node14</title>
<g id="a_node11"><a xlink:href="ppppp_8cpp.html#ae72a1567e3061c3685b097b374813844" target="_top" xlink:title=" ">
<polygon fill="white" stroke="red" points="159,-0.5 159,-19.5 194,-19.5 194,-0.5 159,-0.5"/>
<text text-anchor="middle" x="176.5" y="-7.5" font-family="Helvetica,sans-Serif" font-size="10.00">PPP</text>
</a>
</g>
</g>
<!-- Node1&#45;&gt;Node14 -->
<g id="edge12" class="edge">
<title>Node1&#45;&gt;Node14</title>
<path fill="none" stroke="midnightblue" d="M321.02,-161.8C306.84,-129.9 274.33,-65.86 228,-29 218.18,-21.18 204.8,-16.35 194.28,-13.51"/>
<polygon fill="midnightblue" stroke="midnightblue" points="317.94,-163.51 325.12,-171.3 324.37,-160.73 317.94,-163.51"/>
</g>
<!-- Node8&#45;&gt;Node2 -->
<g id="edge5" class="edge">
<title>Node8&#45;&gt;Node2</title>
<path fill="none" stroke="midnightblue" d="M140.26,-248.89C134.94,-251.2 129.68,-253.89 125,-257 105.62,-269.87 105.78,-278.88 89,-295 78.59,-305 66.12,-315.78 57.21,-323.29"/>
<polygon fill="midnightblue" stroke="midnightblue" points="141.73,-252.07 149.76,-245.16 139.17,-245.56 141.73,-252.07"/>
</g>
<!-- Node8&#45;&gt;Node6 -->
<g id="edge6" class="edge">
<title>Node8&#45;&gt;Node6</title>
<path fill="none" stroke="midnightblue" d="M140.15,-248.33C120.79,-253.99 96.96,-260.96 78.06,-266.48"/>
<polygon fill="midnightblue" stroke="midnightblue" points="141.2,-251.67 149.82,-245.51 139.24,-244.95 141.2,-251.67"/>
</g>
</g>
</svg>
