<?xml version="1.0" encoding="UTF-8" standalone="no"?>
<!DOCTYPE svg PUBLIC "-//W3C//DTD SVG 1.1//EN"
 "http://www.w3.org/Graphics/SVG/1.1/DTD/svg11.dtd">
<!-- Generated by graphviz version 2.43.0 (0)
 -->
<!-- Title: OceanPoleCoeff Pages: 1 -->
<svg width="102pt" height="303pt"
 viewBox="0.00 0.00 102.00 303.00" xmlns="http://www.w3.org/2000/svg" xmlns:xlink="http://www.w3.org/1999/xlink">
<g id="graph0" class="graph" transform="scale(1 1) rotate(0) translate(4 299)">
<title>OceanPoleCoeff</title>
<polygon fill="white" stroke="transparent" points="-4,4 -4,-299 98,-299 98,4 -4,4"/>
<!-- Node1 -->
<g id="node1" class="node">
<title>Node1</title>
<g id="a_node1"><a xlink:title="Structure for grid points of ocean pole load tide coefficients.">
<polygon fill="#bfbfbf" stroke="black" points="0,-0.5 0,-68.5 94,-68.5 94,-0.5 0,-0.5"/>
<text text-anchor="middle" x="47" y="-56.5" font-family="Helvetica,sans-Serif" font-size="10.00">OceanPoleCoeff</text>
<polyline fill="none" stroke="black" points="0,-49.5 94,-49.5 "/>
<text text-anchor="start" x="8" y="-37.5" font-family="Helvetica,sans-Serif" font-size="10.00">+ lat</text>
<text text-anchor="start" x="8" y="-26.5" font-family="Helvetica,sans-Serif" font-size="10.00">+ lon</text>
<polyline fill="none" stroke="black" points="0,-19.5 94,-19.5 "/>
<text text-anchor="middle" x="47" y="-7.5" font-family="Helvetica,sans-Serif" font-size="10.00"> </text>
</a>
</g>
</g>
<!-- Node2 -->
<g id="node2" class="node">
<title>Node2</title>
<g id="a_node2"><a xlink:href="structVectorEnu.html" target="_top" xlink:title=" ">
<polygon fill="white" stroke="red" points="4.5,-127.5 4.5,-294.5 89.5,-294.5 89.5,-127.5 4.5,-127.5"/>
<text text-anchor="middle" x="47" y="-282.5" font-family="Helvetica,sans-Serif" font-size="10.00">VectorEnu</text>
<polyline fill="none" stroke="red" points="4.5,-275.5 89.5,-275.5 "/>
<text text-anchor="middle" x="47" y="-263.5" font-family="Helvetica,sans-Serif" font-size="10.00"> </text>
<polyline fill="none" stroke="red" points="4.5,-256.5 89.5,-256.5 "/>
<text text-anchor="start" x="12.5" y="-244.5" font-family="Helvetica,sans-Serif" font-size="10.00">+ VectorEnu()</text>
<text text-anchor="start" x="12.5" y="-233.5" font-family="Helvetica,sans-Serif" font-size="10.00">+ VectorEnu()</text>
<text text-anchor="start" x="12.5" y="-222.5" font-family="Helvetica,sans-Serif" font-size="10.00">+ operator=()</text>
<text text-anchor="start" x="12.5" y="-211.5" font-family="Helvetica,sans-Serif" font-size="10.00">+ operator*()</text>
<text text-anchor="start" x="12.5" y="-200.5" font-family="Helvetica,sans-Serif" font-size="10.00">+ operator&#45;()</text>
<text text-anchor="start" x="12.5" y="-189.5" font-family="Helvetica,sans-Serif" font-size="10.00">+ operator+()</text>
<text text-anchor="start" x="12.5" y="-178.5" font-family="Helvetica,sans-Serif" font-size="10.00">+ e()</text>
<text text-anchor="start" x="12.5" y="-167.5" font-family="Helvetica,sans-Serif" font-size="10.00">+ n()</text>
<text text-anchor="start" x="12.5" y="-156.5" font-family="Helvetica,sans-Serif" font-size="10.00">+ u()</text>
<text text-anchor="start" x="12.5" y="-145.5" font-family="Helvetica,sans-Serif" font-size="10.00">+ r()</text>
<text text-anchor="start" x="12.5" y="-134.5" font-family="Helvetica,sans-Serif" font-size="10.00">+ f()</text>
</a>
</g>
</g>
<!-- Node2&#45;&gt;Node1 -->
<g id="edge1" class="edge">
<title>Node2&#45;&gt;Node1</title>
<path fill="none" stroke="#404040" d="M47,-127.35C47,-111.27 47,-94.98 47,-80.68"/>
<polygon fill="none" stroke="#404040" points="47,-80.67 43,-74.67 47,-68.67 51,-74.67 47,-80.67"/>
<text text-anchor="middle" x="58" y="-101" font-family="Helvetica,sans-Serif" font-size="10.00"> +uI</text>
<text text-anchor="middle" x="58" y="-90" font-family="Helvetica,sans-Serif" font-size="10.00">+uR</text>
</g>
</g>
</svg>
