<?xml version="1.0" encoding="UTF-8" standalone="no"?>
<!DOCTYPE svg PUBLIC "-//W3C//DTD SVG 1.1//EN"
 "http://www.w3.org/Graphics/SVG/1.1/DTD/svg11.dtd">
<!-- Generated by graphviz version 2.43.0 (0)
 -->
<!-- Title: SatSys::blockType Pages: 1 -->
<svg width="384pt" height="80pt"
 viewBox="0.00 0.00 384.00 80.23" xmlns="http://www.w3.org/2000/svg" xmlns:xlink="http://www.w3.org/1999/xlink">
<g id="graph0" class="graph" transform="scale(1 1) rotate(0) translate(4 76.23)">
<title>SatSys::blockType</title>
<polygon fill="white" stroke="transparent" points="-4,4 -4,-76.23 380,-76.23 380,4 -4,4"/>
<!-- Node1 -->
<g id="node1" class="node">
<title>Node1</title>
<g id="a_node1"><a xlink:title=" ">
<polygon fill="#bfbfbf" stroke="black" points="272,-14.73 272,-33.73 376,-33.73 376,-14.73 272,-14.73"/>
<text text-anchor="middle" x="324" y="-21.73" font-family="Helvetica,sans-Serif" font-size="10.00">SatSys::blockType</text>
</a>
</g>
</g>
<!-- Node2 -->
<g id="node2" class="node">
<title>Node2</title>
<g id="a_node2"><a xlink:href="structACSConfig.html#a9f893b7ab2412f42ef7a02423d755940" target="_top" xlink:title="Set satellite options for a specific satellite using a hierarchy of sources.">
<polygon fill="white" stroke="red" points="108,-52.73 108,-71.73 236,-71.73 236,-52.73 108,-52.73"/>
<text text-anchor="middle" x="172" y="-59.73" font-family="Helvetica,sans-Serif" font-size="10.00">ACSConfig::getSatOpts</text>
</a>
</g>
</g>
<!-- Node1&#45;&gt;Node2 -->
<g id="edge1" class="edge">
<title>Node1&#45;&gt;Node2</title>
<path fill="none" stroke="midnightblue" d="M285.15,-33.82C262.32,-39.61 233.36,-46.94 210.58,-52.71"/>
</g>
<!-- Node16 -->
<g id="node3" class="node">
<title>Node16</title>
<g id="a_node3"><a xlink:href="common_2orbits_8cpp.html#adbf44cc33c6497cf698ffbae0894eb14" target="_top" xlink:title="Output orbit file compatible with the pod.">
<polygon fill="white" stroke="red" points="0,-14.73 0,-33.73 72,-33.73 72,-14.73 0,-14.73"/>
<text text-anchor="middle" x="36" y="-21.73" font-family="Helvetica,sans-Serif" font-size="10.00">outputOrbit</text>
</a>
</g>
</g>
<!-- Node1&#45;&gt;Node16 -->
<g id="edge4" class="edge">
<title>Node1&#45;&gt;Node16</title>
<path fill="none" stroke="midnightblue" d="M287.73,-14.73C272.02,-10.96 253.22,-7.09 236,-5.23 179.44,0.87 164.4,2.18 108,-5.23 93.83,-7.1 78.47,-10.97 65.67,-14.73"/>
</g>
<!-- Node21 -->
<g id="node4" class="node">
<title>Node21</title>
<g id="a_node4"><a xlink:href="structSatSys.html#aa2f7732319c19c6aa872606483a9c471" target="_top" xlink:title=" ">
<polygon fill="white" stroke="red" points="112,-14.73 112,-33.73 232,-33.73 232,-14.73 112,-14.73"/>
<text text-anchor="middle" x="172" y="-21.73" font-family="Helvetica,sans-Serif" font-size="10.00">SatSys::setBlockType</text>
</a>
</g>
</g>
<!-- Node1&#45;&gt;Node21 -->
<g id="edge3" class="edge">
<title>Node1&#45;&gt;Node21</title>
<path fill="none" stroke="midnightblue" d="M271.8,-24.23C259.07,-24.23 245.32,-24.23 232.24,-24.23"/>
</g>
<!-- Node2&#45;&gt;Node16 -->
<g id="edge2" class="edge">
<title>Node2&#45;&gt;Node16</title>
<path fill="none" stroke="midnightblue" d="M137.19,-52.65C116.87,-46.88 91.11,-39.58 70.8,-33.82"/>
</g>
</g>
</svg>
