<?xml version="1.0" encoding="UTF-8" standalone="no"?>
<!DOCTYPE svg PUBLIC "-//W3C//DTD SVG 1.1//EN"
 "http://www.w3.org/Graphics/SVG/1.1/DTD/svg11.dtd">
<!-- Generated by graphviz version 2.43.0 (0)
 -->
<!-- Title: Station Pages: 1 -->
<svg width="1050pt" height="628pt"
 viewBox="0.00 0.00 1049.60 628.00" xmlns="http://www.w3.org/2000/svg" xmlns:xlink="http://www.w3.org/1999/xlink">
<g id="graph0" class="graph" transform="scale(1 1) rotate(0) translate(4 624)">
<title>Station</title>
<polygon fill="white" stroke="transparent" points="-4,4 -4,-624 1045.6,-624 1045.6,4 -4,4"/>
<!-- Node1 -->
<g id="node1" class="node">
<title>Node1</title>
<g id="a_node1"><a xlink:title="Object to maintain receiver station data.">
<polygon fill="#bfbfbf" stroke="black" points="449.1,-0.5 449.1,-79.5 547.1,-79.5 547.1,-0.5 449.1,-0.5"/>
<text text-anchor="middle" x="498.1" y="-67.5" font-family="Helvetica,sans-Serif" font-size="10.00">Station</text>
<polyline fill="none" stroke="black" points="449.1,-60.5 547.1,-60.5 "/>
<text text-anchor="start" x="457.1" y="-48.5" font-family="Helvetica,sans-Serif" font-size="10.00">+ primaryApriori</text>
<text text-anchor="start" x="457.1" y="-37.5" font-family="Helvetica,sans-Serif" font-size="10.00">+ aprioriTime</text>
<text text-anchor="start" x="457.1" y="-26.5" font-family="Helvetica,sans-Serif" font-size="10.00">+ ready</text>
<polyline fill="none" stroke="black" points="449.1,-19.5 547.1,-19.5 "/>
<text text-anchor="middle" x="498.1" y="-7.5" font-family="Helvetica,sans-Serif" font-size="10.00"> </text>
</a>
</g>
</g>
<!-- Node2 -->
<g id="node2" class="node">
<title>Node2</title>
<g id="a_node2"><a xlink:href="structStationLogs.html" target="_top" xlink:title=" ">
<polygon fill="white" stroke="red" points="9.1,-226.5 9.1,-305.5 95.1,-305.5 95.1,-226.5 9.1,-226.5"/>
<text text-anchor="middle" x="52.1" y="-293.5" font-family="Helvetica,sans-Serif" font-size="10.00">StationLogs</text>
<polyline fill="none" stroke="red" points="9.1,-286.5 95.1,-286.5 "/>
<text text-anchor="start" x="17.1" y="-274.5" font-family="Helvetica,sans-Serif" font-size="10.00">+ epochCount</text>
<text text-anchor="start" x="17.1" y="-263.5" font-family="Helvetica,sans-Serif" font-size="10.00">+ obsCount</text>
<text text-anchor="start" x="17.1" y="-252.5" font-family="Helvetica,sans-Serif" font-size="10.00">+ slipCount</text>
<polyline fill="none" stroke="red" points="9.1,-245.5 95.1,-245.5 "/>
<text text-anchor="middle" x="52.1" y="-233.5" font-family="Helvetica,sans-Serif" font-size="10.00"> </text>
</a>
</g>
</g>
<!-- Node2&#45;&gt;Node1 -->
<g id="edge1" class="edge">
<title>Node2&#45;&gt;Node1</title>
<path fill="none" stroke="midnightblue" d="M56.66,-226.31C62.41,-195.04 75.3,-152.22 104.1,-127 155.19,-82.26 355.12,-55.94 448.96,-45.82"/>
</g>
<!-- Node7 -->
<g id="node3" class="node">
<title>Node7</title>
<g id="a_node3"><a xlink:href="structRtk.html" target="_top" xlink:title=" ">
<polygon fill="white" stroke="red" points="113.1,-237.5 113.1,-294.5 221.1,-294.5 221.1,-237.5 113.1,-237.5"/>
<text text-anchor="middle" x="167.1" y="-282.5" font-family="Helvetica,sans-Serif" font-size="10.00">Rtk</text>
<polyline fill="none" stroke="red" points="113.1,-275.5 221.1,-275.5 "/>
<text text-anchor="start" x="121.1" y="-263.5" font-family="Helvetica,sans-Serif" font-size="10.00">+ otlDisplacement</text>
<polyline fill="none" stroke="red" points="113.1,-256.5 221.1,-256.5 "/>
<text text-anchor="middle" x="167.1" y="-244.5" font-family="Helvetica,sans-Serif" font-size="10.00"> </text>
</a>
</g>
</g>
<!-- Node7&#45;&gt;Node1 -->
<g id="edge2" class="edge">
<title>Node7&#45;&gt;Node1</title>
<path fill="none" stroke="midnightblue" d="M171.84,-237.26C179.75,-199.76 199.32,-133.53 243.1,-98 274.23,-72.74 383.93,-55.19 448.87,-46.74"/>
</g>
<!-- Node20 -->
<g id="node4" class="node">
<title>Node20</title>
<g id="a_node4"><a xlink:title=" ">
<polygon fill="white" stroke="black" points="121.1,-562.5 121.1,-619.5 165.1,-619.5 165.1,-562.5 121.1,-562.5"/>
<text text-anchor="middle" x="143.1" y="-607.5" font-family="Helvetica,sans-Serif" font-size="10.00">string</text>
<polyline fill="none" stroke="black" points="121.1,-600.5 165.1,-600.5 "/>
<text text-anchor="middle" x="143.1" y="-588.5" font-family="Helvetica,sans-Serif" font-size="10.00"> </text>
<polyline fill="none" stroke="black" points="121.1,-581.5 165.1,-581.5 "/>
<text text-anchor="middle" x="143.1" y="-569.5" font-family="Helvetica,sans-Serif" font-size="10.00"> </text>
</a>
</g>
</g>
<!-- Node20&#45;&gt;Node1 -->
<g id="edge13" class="edge">
<title>Node20&#45;&gt;Node1</title>
<path fill="none" stroke="#404040" d="M165.3,-586.58C188.95,-581.64 225.37,-570.07 243.1,-544 295.3,-467.27 211.02,-201.69 266.1,-127 308.68,-69.27 394.43,-50.26 448.91,-44.02"/>
<text text-anchor="middle" x="305.1" y="-269" font-family="Helvetica,sans-Serif" font-size="10.00"> +id</text>
<text text-anchor="middle" x="305.1" y="-258" font-family="Helvetica,sans-Serif" font-size="10.00">+traceFilename</text>
</g>
<!-- Node20&#45;&gt;Node7 -->
<g id="edge3" class="edge">
<title>Node20&#45;&gt;Node7</title>
<path fill="none" stroke="#404040" d="M121,-588.65C93.04,-585.61 45.89,-575.79 24.1,-544 -6.31,-499.64 -9.49,-464.99 24.1,-423 46.87,-394.54 75.81,-427.97 104.1,-405 138.55,-377.03 154.95,-326.09 162.13,-294.54"/>
<text text-anchor="middle" x="47.6" y="-486.5" font-family="Helvetica,sans-Serif" font-size="10.00"> +antId</text>
<text text-anchor="middle" x="47.6" y="-475.5" font-family="Helvetica,sans-Serif" font-size="10.00">+antType</text>
</g>
<!-- Node25 -->
<g id="node6" class="node">
<title>Node25</title>
<g id="a_node6"><a xlink:href="structRinexStation.html" target="_top" xlink:title=" ">
<polygon fill="white" stroke="black" points="353.6,-237.5 353.6,-294.5 432.6,-294.5 432.6,-237.5 353.6,-237.5"/>
<text text-anchor="middle" x="393.1" y="-282.5" font-family="Helvetica,sans-Serif" font-size="10.00">RinexStation</text>
<polyline fill="none" stroke="black" points="353.6,-275.5 432.6,-275.5 "/>
<text text-anchor="middle" x="393.1" y="-263.5" font-family="Helvetica,sans-Serif" font-size="10.00"> </text>
<polyline fill="none" stroke="black" points="353.6,-256.5 432.6,-256.5 "/>
<text text-anchor="middle" x="393.1" y="-244.5" font-family="Helvetica,sans-Serif" font-size="10.00"> </text>
</a>
</g>
</g>
<!-- Node20&#45;&gt;Node25 -->
<g id="edge6" class="edge">
<title>Node20&#45;&gt;Node25</title>
<path fill="none" stroke="#404040" d="M121.02,-575.73C110.78,-567.76 99.66,-556.85 94.1,-544 72.74,-494.65 57.49,-462.4 94.1,-423 131.26,-383.01 295.17,-437.41 339.1,-405 374.19,-379.11 386.49,-327.01 390.79,-294.75"/>
<text text-anchor="middle" x="132.1" y="-514" font-family="Helvetica,sans-Serif" font-size="10.00"> +antDesc</text>
<text text-anchor="middle" x="132.1" y="-503" font-family="Helvetica,sans-Serif" font-size="10.00">+antSerial</text>
<text text-anchor="middle" x="132.1" y="-492" font-family="Helvetica,sans-Serif" font-size="10.00">+id</text>
<text text-anchor="middle" x="132.1" y="-481" font-family="Helvetica,sans-Serif" font-size="10.00">+marker</text>
<text text-anchor="middle" x="132.1" y="-470" font-family="Helvetica,sans-Serif" font-size="10.00">+recFWVersion</text>
<text text-anchor="middle" x="132.1" y="-459" font-family="Helvetica,sans-Serif" font-size="10.00">+recSerial</text>
<text text-anchor="middle" x="132.1" y="-448" font-family="Helvetica,sans-Serif" font-size="10.00">+recType</text>
</g>
<!-- Node26 -->
<g id="node7" class="node">
<title>Node26</title>
<g id="a_node7"><a xlink:href="structSinex__stn__snx__t.html" target="_top" xlink:title=" ">
<polygon fill="white" stroke="black" points="450.6,-127.5 450.6,-404.5 545.6,-404.5 545.6,-127.5 450.6,-127.5"/>
<text text-anchor="middle" x="498.1" y="-392.5" font-family="Helvetica,sans-Serif" font-size="10.00">Sinex_stn_snx_t</text>
<polyline fill="none" stroke="black" points="450.6,-385.5 545.6,-385.5 "/>
<text text-anchor="start" x="458.6" y="-373.5" font-family="Helvetica,sans-Serif" font-size="10.00">+ typecode</text>
<text text-anchor="start" x="458.6" y="-362.5" font-family="Helvetica,sans-Serif" font-size="10.00">+ long_deg</text>
<text text-anchor="start" x="458.6" y="-351.5" font-family="Helvetica,sans-Serif" font-size="10.00">+ long_min</text>
<text text-anchor="start" x="458.6" y="-340.5" font-family="Helvetica,sans-Serif" font-size="10.00">+ long_sec</text>
<text text-anchor="start" x="458.6" y="-329.5" font-family="Helvetica,sans-Serif" font-size="10.00">+ lat_deg</text>
<text text-anchor="start" x="458.6" y="-318.5" font-family="Helvetica,sans-Serif" font-size="10.00">+ lat_min</text>
<text text-anchor="start" x="458.6" y="-307.5" font-family="Helvetica,sans-Serif" font-size="10.00">+ lat_sec</text>
<text text-anchor="start" x="458.6" y="-296.5" font-family="Helvetica,sans-Serif" font-size="10.00">+ height</text>
<text text-anchor="start" x="458.6" y="-285.5" font-family="Helvetica,sans-Serif" font-size="10.00">+ start</text>
<text text-anchor="start" x="458.6" y="-274.5" font-family="Helvetica,sans-Serif" font-size="10.00">+ stop</text>
<text text-anchor="start" x="458.6" y="-263.5" font-family="Helvetica,sans-Serif" font-size="10.00">+ has_gps_pc</text>
<text text-anchor="start" x="458.6" y="-252.5" font-family="Helvetica,sans-Serif" font-size="10.00">+ gpsl1</text>
<text text-anchor="start" x="458.6" y="-241.5" font-family="Helvetica,sans-Serif" font-size="10.00">+ gpsl2</text>
<text text-anchor="start" x="458.6" y="-230.5" font-family="Helvetica,sans-Serif" font-size="10.00">+ has_gal_pc</text>
<text text-anchor="start" x="458.6" y="-219.5" font-family="Helvetica,sans-Serif" font-size="10.00">+ gall1</text>
<text text-anchor="start" x="458.6" y="-208.5" font-family="Helvetica,sans-Serif" font-size="10.00">+ gall5</text>
<text text-anchor="start" x="458.6" y="-197.5" font-family="Helvetica,sans-Serif" font-size="10.00">+ gall6</text>
<text text-anchor="start" x="458.6" y="-186.5" font-family="Helvetica,sans-Serif" font-size="10.00">+ gall7</text>
<text text-anchor="start" x="458.6" y="-175.5" font-family="Helvetica,sans-Serif" font-size="10.00">+ gall8</text>
<text text-anchor="start" x="458.6" y="-164.5" font-family="Helvetica,sans-Serif" font-size="10.00">+ has_ecc</text>
<text text-anchor="start" x="458.6" y="-153.5" font-family="Helvetica,sans-Serif" font-size="10.00">+ primary</text>
<polyline fill="none" stroke="black" points="450.6,-146.5 545.6,-146.5 "/>
<text text-anchor="middle" x="498.1" y="-134.5" font-family="Helvetica,sans-Serif" font-size="10.00"> </text>
</a>
</g>
</g>
<!-- Node20&#45;&gt;Node26 -->
<g id="edge9" class="edge">
<title>Node20&#45;&gt;Node26</title>
<path fill="none" stroke="#404040" d="M161.54,-562.05C164.77,-556.26 167.82,-550.07 170.1,-544 189.35,-492.76 152.23,-459.41 193.1,-423 234.36,-386.25 396.32,-437.36 441.1,-405 444.36,-402.65 447.43,-400.07 450.32,-397.31"/>
<text text-anchor="middle" x="218.1" y="-536" font-family="Helvetica,sans-Serif" font-size="10.00"> +antsn</text>
<text text-anchor="middle" x="218.1" y="-525" font-family="Helvetica,sans-Serif" font-size="10.00">+anttype</text>
<text text-anchor="middle" x="218.1" y="-514" font-family="Helvetica,sans-Serif" font-size="10.00">+desc</text>
<text text-anchor="middle" x="218.1" y="-503" font-family="Helvetica,sans-Serif" font-size="10.00">+eccrs</text>
<text text-anchor="middle" x="218.1" y="-492" font-family="Helvetica,sans-Serif" font-size="10.00">+monuid</text>
<text text-anchor="middle" x="218.1" y="-481" font-family="Helvetica,sans-Serif" font-size="10.00">+ptcode</text>
<text text-anchor="middle" x="218.1" y="-470" font-family="Helvetica,sans-Serif" font-size="10.00">+recfirm</text>
<text text-anchor="middle" x="218.1" y="-459" font-family="Helvetica,sans-Serif" font-size="10.00">+recsn</text>
<text text-anchor="middle" x="218.1" y="-448" font-family="Helvetica,sans-Serif" font-size="10.00">+rectype</text>
<text text-anchor="middle" x="218.1" y="-437" font-family="Helvetica,sans-Serif" font-size="10.00">+sitecode</text>
<text text-anchor="middle" x="218.1" y="-426" font-family="Helvetica,sans-Serif" font-size="10.00">...</text>
</g>
<!-- Node23 -->
<g id="node5" class="node">
<title>Node23</title>
<g id="a_node5"><a xlink:title=" ">
<polygon fill="white" stroke="black" points="416.1,-562.5 416.1,-619.5 476.1,-619.5 476.1,-562.5 416.1,-562.5"/>
<text text-anchor="middle" x="446.1" y="-607.5" font-family="Helvetica,sans-Serif" font-size="10.00">Vector3d</text>
<polyline fill="none" stroke="black" points="416.1,-600.5 476.1,-600.5 "/>
<text text-anchor="middle" x="446.1" y="-588.5" font-family="Helvetica,sans-Serif" font-size="10.00"> </text>
<polyline fill="none" stroke="black" points="416.1,-581.5 476.1,-581.5 "/>
<text text-anchor="middle" x="446.1" y="-569.5" font-family="Helvetica,sans-Serif" font-size="10.00"> </text>
</a>
</g>
</g>
<!-- Node23&#45;&gt;Node1 -->
<g id="edge14" class="edge">
<title>Node23&#45;&gt;Node1</title>
<path fill="none" stroke="#404040" d="M476.11,-571.2C486.11,-563.74 496.6,-554.44 504.1,-544 542.4,-490.67 542.82,-469.68 554.1,-405 575.33,-283.28 589.27,-245.45 554.1,-127 549.13,-110.26 539.76,-93.74 530.09,-79.71"/>
<text text-anchor="middle" x="605.6" y="-269" font-family="Helvetica,sans-Serif" font-size="10.00"> +aprioriPos</text>
<text text-anchor="middle" x="605.6" y="-258" font-family="Helvetica,sans-Serif" font-size="10.00">+aprioriVar</text>
</g>
<!-- Node23&#45;&gt;Node7 -->
<g id="edge4" class="edge">
<title>Node23&#45;&gt;Node7</title>
<path fill="none" stroke="#404040" d="M416.03,-580.97C394.28,-573.44 364.98,-561.16 343.1,-544 281.54,-495.72 276.6,-471.32 235.1,-405 212.22,-368.44 191.14,-323.08 178.7,-294.58"/>
<text text-anchor="middle" x="370.1" y="-481" font-family="Helvetica,sans-Serif" font-size="10.00"> +antDelta</text>
</g>
<!-- Node23&#45;&gt;Node25 -->
<g id="edge7" class="edge">
<title>Node23&#45;&gt;Node25</title>
<path fill="none" stroke="#404040" d="M430.34,-562.43C427.53,-556.51 424.91,-550.17 423.1,-544 397.12,-455.59 393.2,-345.37 392.89,-294.76"/>
<text text-anchor="middle" x="436.6" y="-486.5" font-family="Helvetica,sans-Serif" font-size="10.00"> +del</text>
<text text-anchor="middle" x="436.6" y="-475.5" font-family="Helvetica,sans-Serif" font-size="10.00">+pos</text>
</g>
<!-- Node23&#45;&gt;Node26 -->
<g id="edge10" class="edge">
<title>Node23&#45;&gt;Node26</title>
<path fill="none" stroke="#404040" d="M450.53,-562.46C456.2,-527.3 466.4,-463.91 475.91,-404.84"/>
<text text-anchor="middle" x="486.1" y="-486.5" font-family="Helvetica,sans-Serif" font-size="10.00"> +ecc</text>
<text text-anchor="middle" x="486.1" y="-475.5" font-family="Helvetica,sans-Serif" font-size="10.00">+pos</text>
</g>
<!-- Node25&#45;&gt;Node1 -->
<g id="edge5" class="edge">
<title>Node25&#45;&gt;Node1</title>
<path fill="none" stroke="#404040" d="M394.36,-237.32C397.05,-202.49 405.52,-141.95 432.1,-98 436.64,-90.49 442.52,-83.45 448.88,-77.06"/>
<text text-anchor="middle" x="463.1" y="-101" font-family="Helvetica,sans-Serif" font-size="10.00"> +rnxStation</text>
</g>
<!-- Node26&#45;&gt;Node1 -->
<g id="edge8" class="edge">
<title>Node26&#45;&gt;Node1</title>
<path fill="none" stroke="#404040" d="M498.1,-127.28C498.1,-109.95 498.1,-93.48 498.1,-79.67"/>
<text text-anchor="middle" x="512.6" y="-101" font-family="Helvetica,sans-Serif" font-size="10.00"> +snx</text>
</g>
<!-- Node27 -->
<g id="node8" class="node">
<title>Node27</title>
<g id="a_node8"><a xlink:title=" ">
<polygon fill="white" stroke="red" points="661.6,-237.5 661.6,-294.5 750.6,-294.5 750.6,-237.5 661.6,-237.5"/>
<text text-anchor="middle" x="706.1" y="-282.5" font-family="Helvetica,sans-Serif" font-size="10.00">vector&lt; Obs &gt;</text>
<polyline fill="none" stroke="red" points="661.6,-275.5 750.6,-275.5 "/>
<text text-anchor="middle" x="706.1" y="-263.5" font-family="Helvetica,sans-Serif" font-size="10.00"> </text>
<polyline fill="none" stroke="red" points="661.6,-256.5 750.6,-256.5 "/>
<text text-anchor="middle" x="706.1" y="-244.5" font-family="Helvetica,sans-Serif" font-size="10.00"> </text>
</a>
</g>
</g>
<!-- Node27&#45;&gt;Node1 -->
<g id="edge11" class="edge">
<title>Node27&#45;&gt;Node1</title>
<path fill="none" stroke="#404040" d="M699.85,-237.28C691.89,-207.19 675.63,-159.16 647.1,-127 619.95,-96.39 579.18,-73.91 547.15,-59.63"/>
<text text-anchor="middle" x="649.1" y="-101" font-family="Helvetica,sans-Serif" font-size="10.00"> +obsList</text>
</g>
<!-- Node29 -->
<g id="node9" class="node">
<title>Node29</title>
<g id="a_node9"><a xlink:title=" ">
<polygon fill="white" stroke="red" points="768.1,-237.5 768.1,-294.5 892.1,-294.5 892.1,-237.5 768.1,-237.5"/>
<text text-anchor="middle" x="830.1" y="-282.5" font-family="Helvetica,sans-Serif" font-size="10.00">vector&lt; PseudoObs &gt;</text>
<polyline fill="none" stroke="red" points="768.1,-275.5 892.1,-275.5 "/>
<text text-anchor="middle" x="830.1" y="-263.5" font-family="Helvetica,sans-Serif" font-size="10.00"> </text>
<polyline fill="none" stroke="red" points="768.1,-256.5 892.1,-256.5 "/>
<text text-anchor="middle" x="830.1" y="-244.5" font-family="Helvetica,sans-Serif" font-size="10.00"> </text>
</a>
</g>
</g>
<!-- Node29&#45;&gt;Node1 -->
<g id="edge12" class="edge">
<title>Node29&#45;&gt;Node1</title>
<path fill="none" stroke="#404040" d="M822.86,-237.25C813.4,-206.22 793.92,-156.48 760.1,-127 699.11,-73.84 604.46,-53.39 547.18,-45.63"/>
<text text-anchor="middle" x="771.6" y="-101" font-family="Helvetica,sans-Serif" font-size="10.00"> +pseudoObsList</text>
</g>
<!-- Node30 -->
<g id="node10" class="node">
<title>Node30</title>
<g id="a_node10"><a xlink:title=" ">
<polygon fill="white" stroke="red" points="910.6,-237.5 910.6,-294.5 1041.6,-294.5 1041.6,-237.5 910.6,-237.5"/>
<text text-anchor="middle" x="976.1" y="-282.5" font-family="Helvetica,sans-Serif" font-size="10.00">map&lt; SatSys, GTime &gt;</text>
<polyline fill="none" stroke="red" points="910.6,-275.5 1041.6,-275.5 "/>
<text text-anchor="middle" x="976.1" y="-263.5" font-family="Helvetica,sans-Serif" font-size="10.00"> </text>
<polyline fill="none" stroke="red" points="910.6,-256.5 1041.6,-256.5 "/>
<text text-anchor="middle" x="976.1" y="-244.5" font-family="Helvetica,sans-Serif" font-size="10.00"> </text>
</a>
</g>
</g>
<!-- Node30&#45;&gt;Node1 -->
<g id="edge15" class="edge">
<title>Node30&#45;&gt;Node1</title>
<path fill="none" stroke="#404040" d="M967.81,-237.23C957.18,-206.19 935.85,-156.43 901.1,-127 847.94,-81.98 642.44,-55.69 547.14,-45.68"/>
<text text-anchor="middle" x="897.1" y="-101" font-family="Helvetica,sans-Serif" font-size="10.00"> +savedSlips</text>
</g>
</g>
</svg>
