<?xml version="1.0" encoding="UTF-8" standalone="no"?>
<!DOCTYPE svg PUBLIC "-//W3C//DTD SVG 1.1//EN"
 "http://www.w3.org/Graphics/SVG/1.1/DTD/svg11.dtd">
<!-- Generated by graphviz version 2.43.0 (0)
 -->
<!-- Title: PPPOptions Pages: 1 -->
<svg width="266pt" height="369pt"
 viewBox="0.00 0.00 265.50 369.00" xmlns="http://www.w3.org/2000/svg" xmlns:xlink="http://www.w3.org/1999/xlink">
<g id="graph0" class="graph" transform="scale(1 1) rotate(0) translate(4 365)">
<title>PPPOptions</title>
<polygon fill="white" stroke="transparent" points="-4,4 -4,-365 261.5,-365 261.5,4 -4,4"/>
<!-- Node1 -->
<g id="node1" class="node">
<title>Node1</title>
<g id="a_node1"><a xlink:title="Options associated with the ppp processing mode of operation.">
<polygon fill="#bfbfbf" stroke="black" points="75,-0.5 75,-101.5 209,-101.5 209,-0.5 75,-0.5"/>
<text text-anchor="middle" x="142" y="-89.5" font-family="Helvetica,sans-Serif" font-size="10.00">PPPOptions</text>
<polyline fill="none" stroke="black" points="75,-82.5 209,-82.5 "/>
<text text-anchor="start" x="83" y="-70.5" font-family="Helvetica,sans-Serif" font-size="10.00">+ common_atmosphere</text>
<text text-anchor="start" x="83" y="-59.5" font-family="Helvetica,sans-Serif" font-size="10.00">+ use_rtk_combo</text>
<text text-anchor="start" x="83" y="-48.5" font-family="Helvetica,sans-Serif" font-size="10.00">+ satellite_chunking</text>
<text text-anchor="start" x="83" y="-37.5" font-family="Helvetica,sans-Serif" font-size="10.00">+ station_chunking</text>
<text text-anchor="start" x="83" y="-26.5" font-family="Helvetica,sans-Serif" font-size="10.00">+ chunk_size</text>
<polyline fill="none" stroke="black" points="75,-19.5 209,-19.5 "/>
<text text-anchor="middle" x="142" y="-7.5" font-family="Helvetica,sans-Serif" font-size="10.00"> </text>
</a>
</g>
</g>
<!-- Node2 -->
<g id="node2" class="node">
<title>Node2</title>
<g id="a_node2"><a xlink:href="structFilterOptions.html" target="_top" xlink:title=" ">
<polygon fill="white" stroke="red" points="0,-160.5 0,-360.5 146,-360.5 146,-160.5 0,-160.5"/>
<text text-anchor="middle" x="73" y="-348.5" font-family="Helvetica,sans-Serif" font-size="10.00">FilterOptions</text>
<polyline fill="none" stroke="red" points="0,-341.5 146,-341.5 "/>
<text text-anchor="start" x="8" y="-329.5" font-family="Helvetica,sans-Serif" font-size="10.00">+ phase_reject_limit</text>
<text text-anchor="start" x="8" y="-318.5" font-family="Helvetica,sans-Serif" font-size="10.00">+ outage_reset_limit</text>
<text text-anchor="start" x="8" y="-307.5" font-family="Helvetica,sans-Serif" font-size="10.00">+ sigma_check</text>
<text text-anchor="start" x="8" y="-296.5" font-family="Helvetica,sans-Serif" font-size="10.00">+ w_test</text>
<text text-anchor="start" x="8" y="-285.5" font-family="Helvetica,sans-Serif" font-size="10.00">+ chi_square_test</text>
<text text-anchor="start" x="8" y="-274.5" font-family="Helvetica,sans-Serif" font-size="10.00">+ simulate_filter_only</text>
<text text-anchor="start" x="8" y="-263.5" font-family="Helvetica,sans-Serif" font-size="10.00">+ chi_square_mode</text>
<text text-anchor="start" x="8" y="-252.5" font-family="Helvetica,sans-Serif" font-size="10.00">+ sigma_threshold</text>
<text text-anchor="start" x="8" y="-241.5" font-family="Helvetica,sans-Serif" font-size="10.00">+ max_filter_iter</text>
<text text-anchor="start" x="8" y="-230.5" font-family="Helvetica,sans-Serif" font-size="10.00">+ max_prefit_remv</text>
<text text-anchor="start" x="8" y="-219.5" font-family="Helvetica,sans-Serif" font-size="10.00">+ rts_lag</text>
<text text-anchor="start" x="8" y="-208.5" font-family="Helvetica,sans-Serif" font-size="10.00">+ output_intermediate_rts</text>
<text text-anchor="start" x="8" y="-197.5" font-family="Helvetica,sans-Serif" font-size="10.00">+ rts_inverter</text>
<text text-anchor="start" x="8" y="-186.5" font-family="Helvetica,sans-Serif" font-size="10.00">+ inverter</text>
<polyline fill="none" stroke="red" points="0,-179.5 146,-179.5 "/>
<text text-anchor="middle" x="73" y="-167.5" font-family="Helvetica,sans-Serif" font-size="10.00"> </text>
</a>
</g>
</g>
<!-- Node2&#45;&gt;Node1 -->
<g id="edge1" class="edge">
<title>Node2&#45;&gt;Node1</title>
<path fill="none" stroke="midnightblue" d="M105.98,-160.31C112.78,-139.89 119.65,-119.23 125.54,-101.51"/>
</g>
<!-- Node4 -->
<g id="node3" class="node">
<title>Node4</title>
<g id="a_node3"><a xlink:href="structKalmanModel.html" target="_top" xlink:title="Options associated with kalman filter states.">
<polygon fill="white" stroke="red" points="164.5,-232 164.5,-289 257.5,-289 257.5,-232 164.5,-232"/>
<text text-anchor="middle" x="211" y="-277" font-family="Helvetica,sans-Serif" font-size="10.00">KalmanModel</text>
<polyline fill="none" stroke="red" points="164.5,-270 257.5,-270 "/>
<text text-anchor="middle" x="211" y="-258" font-family="Helvetica,sans-Serif" font-size="10.00"> </text>
<polyline fill="none" stroke="red" points="164.5,-251 257.5,-251 "/>
<text text-anchor="start" x="172.5" y="-239" font-family="Helvetica,sans-Serif" font-size="10.00">+ operator+=()</text>
</a>
</g>
</g>
<!-- Node4&#45;&gt;Node1 -->
<g id="edge2" class="edge">
<title>Node4&#45;&gt;Node1</title>
<path fill="none" stroke="#404040" d="M201.84,-231.95C190.8,-198.76 172.06,-142.4 158.49,-101.59"/>
<text text-anchor="middle" x="199.5" y="-134" font-family="Helvetica,sans-Serif" font-size="10.00"> +eop</text>
<text text-anchor="middle" x="199.5" y="-123" font-family="Helvetica,sans-Serif" font-size="10.00">+eop_rates</text>
</g>
</g>
</svg>
