<?xml version="1.0" encoding="UTF-8" standalone="no"?>
<!DOCTYPE svg PUBLIC "-//W3C//DTD SVG 1.1//EN"
 "http://www.w3.org/Graphics/SVG/1.1/DTD/svg11.dtd">
<!-- Generated by graphviz version 2.43.0 (0)
 -->
<!-- Title: Sinex_solestimate_t Pages: 1 -->
<svg width="182pt" height="358pt"
 viewBox="0.00 0.00 182.00 358.00" xmlns="http://www.w3.org/2000/svg" xmlns:xlink="http://www.w3.org/1999/xlink">
<g id="graph0" class="graph" transform="scale(1 1) rotate(0) translate(4 354)">
<title>Sinex_solestimate_t</title>
<polygon fill="white" stroke="transparent" points="-4,4 -4,-354 178,-354 178,4 -4,4"/>
<!-- Node1 -->
<g id="node1" class="node">
<title>Node1</title>
<g id="a_node1"><a xlink:title=" ">
<polygon fill="#bfbfbf" stroke="black" points="12,-0.5 12,-101.5 128,-101.5 128,-0.5 12,-0.5"/>
<text text-anchor="middle" x="70" y="-89.5" font-family="Helvetica,sans-Serif" font-size="10.00">Sinex_solestimate_t</text>
<polyline fill="none" stroke="black" points="12,-82.5 128,-82.5 "/>
<text text-anchor="start" x="20" y="-70.5" font-family="Helvetica,sans-Serif" font-size="10.00">+ index</text>
<text text-anchor="start" x="20" y="-59.5" font-family="Helvetica,sans-Serif" font-size="10.00">+ constraint</text>
<text text-anchor="start" x="20" y="-48.5" font-family="Helvetica,sans-Serif" font-size="10.00">+ estimate</text>
<text text-anchor="start" x="20" y="-37.5" font-family="Helvetica,sans-Serif" font-size="10.00">+ stddev</text>
<text text-anchor="start" x="20" y="-26.5" font-family="Helvetica,sans-Serif" font-size="10.00">+ used</text>
<polyline fill="none" stroke="black" points="12,-19.5 128,-19.5 "/>
<text text-anchor="middle" x="70" y="-7.5" font-family="Helvetica,sans-Serif" font-size="10.00"> </text>
</a>
</g>
</g>
<!-- Node2 -->
<g id="node2" class="node">
<title>Node2</title>
<g id="a_node2"><a xlink:title=" ">
<polygon fill="white" stroke="black" points="0,-248.5 0,-305.5 44,-305.5 44,-248.5 0,-248.5"/>
<text text-anchor="middle" x="22" y="-293.5" font-family="Helvetica,sans-Serif" font-size="10.00">string</text>
<polyline fill="none" stroke="black" points="0,-286.5 44,-286.5 "/>
<text text-anchor="middle" x="22" y="-274.5" font-family="Helvetica,sans-Serif" font-size="10.00"> </text>
<polyline fill="none" stroke="black" points="0,-267.5 44,-267.5 "/>
<text text-anchor="middle" x="22" y="-255.5" font-family="Helvetica,sans-Serif" font-size="10.00"> </text>
</a>
</g>
</g>
<!-- Node2&#45;&gt;Node1 -->
<g id="edge1" class="edge">
<title>Node2&#45;&gt;Node1</title>
<path fill="none" stroke="#404040" d="M24.34,-248.33C27.41,-216.87 33.75,-164.17 45,-120 45.55,-117.85 46.14,-115.68 46.76,-113.5"/>
<polygon fill="none" stroke="#404040" points="46.84,-113.23 44.79,-106.32 50.38,-101.76 52.43,-108.68 46.84,-113.23"/>
<text text-anchor="middle" x="70.5" y="-178" font-family="Helvetica,sans-Serif" font-size="10.00"> +file</text>
<text text-anchor="middle" x="70.5" y="-167" font-family="Helvetica,sans-Serif" font-size="10.00">+ptcode</text>
<text text-anchor="middle" x="70.5" y="-156" font-family="Helvetica,sans-Serif" font-size="10.00">+sitecode</text>
<text text-anchor="middle" x="70.5" y="-145" font-family="Helvetica,sans-Serif" font-size="10.00">+solnnum</text>
<text text-anchor="middle" x="70.5" y="-134" font-family="Helvetica,sans-Serif" font-size="10.00">+type</text>
<text text-anchor="middle" x="70.5" y="-123" font-family="Helvetica,sans-Serif" font-size="10.00">+unit</text>
</g>
<!-- Node3 -->
<g id="node3" class="node">
<title>Node3</title>
<g id="a_node3"><a xlink:href="structUYds.html" target="_top" xlink:title=" ">
<polygon fill="white" stroke="red" points="62,-204.5 62,-349.5 174,-349.5 174,-204.5 62,-204.5"/>
<text text-anchor="middle" x="118" y="-337.5" font-family="Helvetica,sans-Serif" font-size="10.00">UYds</text>
<polyline fill="none" stroke="red" points="62,-330.5 174,-330.5 "/>
<text text-anchor="start" x="70" y="-318.5" font-family="Helvetica,sans-Serif" font-size="10.00">+ year</text>
<text text-anchor="start" x="70" y="-307.5" font-family="Helvetica,sans-Serif" font-size="10.00">+ doy</text>
<text text-anchor="start" x="70" y="-296.5" font-family="Helvetica,sans-Serif" font-size="10.00">+ sod</text>
<polyline fill="none" stroke="red" points="62,-289.5 174,-289.5 "/>
<text text-anchor="start" x="70" y="-277.5" font-family="Helvetica,sans-Serif" font-size="10.00">+ UYds()</text>
<text text-anchor="start" x="70" y="-266.5" font-family="Helvetica,sans-Serif" font-size="10.00">+ UYds()</text>
<text text-anchor="start" x="70" y="-255.5" font-family="Helvetica,sans-Serif" font-size="10.00">+ operator=()</text>
<text text-anchor="start" x="70" y="-244.5" font-family="Helvetica,sans-Serif" font-size="10.00">+ UYds()</text>
<text text-anchor="start" x="70" y="-233.5" font-family="Helvetica,sans-Serif" font-size="10.00">+ operator+=()</text>
<text text-anchor="start" x="70" y="-222.5" font-family="Helvetica,sans-Serif" font-size="10.00">+ operator=()</text>
<text text-anchor="start" x="70" y="-211.5" font-family="Helvetica,sans-Serif" font-size="10.00">+ operator GTime()</text>
</a>
</g>
</g>
<!-- Node3&#45;&gt;Node1 -->
<g id="edge2" class="edge">
<title>Node3&#45;&gt;Node1</title>
<path fill="none" stroke="#404040" d="M111.32,-204.28C107.93,-177.56 103.01,-147.15 96,-120 95.42,-117.75 94.79,-115.48 94.12,-113.19"/>
<polygon fill="none" stroke="#404040" points="94.11,-113.15 88.48,-108.65 90.47,-101.72 96.1,-106.22 94.11,-113.15"/>
<text text-anchor="middle" x="135.5" y="-150.5" font-family="Helvetica,sans-Serif" font-size="10.00"> +refepoch</text>
</g>
</g>
</svg>
