<?xml version="1.0" encoding="UTF-8" standalone="no"?>
<!DOCTYPE svg PUBLIC "-//W3C//DTD SVG 1.1//EN"
 "http://www.w3.org/Graphics/SVG/1.1/DTD/svg11.dtd">
<!-- Generated by graphviz version 2.43.0 (0)
 -->
<!-- Title: UbxDecoder Pages: 1 -->
<!--zoomable 666 -->
<svg id="main" version="1.1" xmlns="http://www.w3.org/2000/svg" xmlns:xlink="http://www.w3.org/1999/xlink" xml:space="preserve" onload="init(evt)">
<style type="text/css"><![CDATA[
.edge:hover path { stroke: red; }
.edge:hover polygon { stroke: red; fill: red; }
]]></style>
<script type="text/javascript"><![CDATA[
var edges = document.getElementsByTagName('g');
if (edges && edges.length) {
  for (var i=0;i<edges.length;i++) {
    if (edges[i].id.substr(0,4)=='edge') {
      edges[i].setAttribute('class','edge');
    }
  }
}
]]></script>
        <defs>
                <circle id="rim" cx="0" cy="0" r="7"/>
                <circle id="rim2" cx="0" cy="0" r="3.5"/>
                <g id="zoomPlus">
                        <use xlink:href="#rim" fill="#404040">
                                <set attributeName="fill" to="#808080" begin="zoomplus.mouseover" end="zoomplus.mouseout"/>
                        </use>
                        <path d="M-4,0h8M0,-4v8" fill="none" stroke="white" stroke-width="1.5" pointer-events="none"/>
                </g>
                <g id="zoomMin">
                        <use xlink:href="#rim" fill="#404040">
                                <set attributeName="fill" to="#808080" begin="zoomminus.mouseover" end="zoomminus.mouseout"/>
                        </use>
                        <path d="M-4,0h8" fill="none" stroke="white" stroke-width="1.5" pointer-events="none"/>
                </g>
                <g id="dirArrow">
                        <path fill="none" stroke="white" stroke-width="1.5" d="M0,-3.0v7 M-2.5,-0.5L0,-3.0L2.5,-0.5"/>
                </g>
               <g id="resetDef">
                       <use xlink:href="#rim2" fill="#404040">
                               <set attributeName="fill" to="#808080" begin="reset.mouseover" end="reset.mouseout"/>
                       </use>
               </g>
        </defs>

<script type="text/javascript">
var viewWidth = 819;
var viewHeight = 666;
var sectionId = 'dynsection-1';
</script>
<script xlink:href="svgpan.js"/>
<svg id="graph" class="graph">
<g id="viewport">
<title>UbxDecoder</title>
<polygon fill="white" stroke="transparent" points="-4,4 -4,-662 815,-662 815,4 -4,4"/>
<!-- Node1 -->
<g id="node1" class="node">
<title>Node1</title>
<g id="a_node1"><a xlink:title=" ">
<polygon fill="#bfbfbf" stroke="black" points="340.5,-0.5 340.5,-134.5 465.5,-134.5 465.5,-0.5 340.5,-0.5"/>
<text text-anchor="middle" x="403" y="-122.5" font-family="Helvetica,sans-Serif" font-size="10.00">UbxDecoder</text>
<polyline fill="none" stroke="black" points="340.5,-115.5 465.5,-115.5 "/>
<text text-anchor="start" x="348.5" y="-103.5" font-family="Helvetica,sans-Serif" font-size="10.00">+ lastTimeTag</text>
<polyline fill="none" stroke="black" points="340.5,-96.5 465.5,-96.5 "/>
<text text-anchor="start" x="348.5" y="-84.5" font-family="Helvetica,sans-Serif" font-size="10.00">+ decodeEphFrames()</text>
<text text-anchor="start" x="348.5" y="-73.5" font-family="Helvetica,sans-Serif" font-size="10.00">+ decodeRAWX()</text>
<text text-anchor="start" x="348.5" y="-62.5" font-family="Helvetica,sans-Serif" font-size="10.00">+ decodeSFRBX()</text>
<text text-anchor="start" x="348.5" y="-51.5" font-family="Helvetica,sans-Serif" font-size="10.00">+ decodeMEAS()</text>
<text text-anchor="start" x="348.5" y="-40.5" font-family="Helvetica,sans-Serif" font-size="10.00">+ decodeRXM()</text>
<text text-anchor="start" x="348.5" y="-29.5" font-family="Helvetica,sans-Serif" font-size="10.00">+ decodeESF()</text>
<text text-anchor="start" x="348.5" y="-18.5" font-family="Helvetica,sans-Serif" font-size="10.00">+ decode()</text>
<text text-anchor="start" x="348.5" y="-7.5" font-family="Helvetica,sans-Serif" font-size="10.00">+ recordFrame()</text>
</a>
</g>
</g>
<!-- Node2 -->
<g id="node2" class="node">
<title>Node2</title>
<g id="a_node2"><a xlink:href="structObsLister.html" target="_top" xlink:title=" ">
<polygon fill="white" stroke="red" points="0,-397 0,-454 62,-454 62,-397 0,-397"/>
<text text-anchor="middle" x="31" y="-442" font-family="Helvetica,sans-Serif" font-size="10.00">ObsLister</text>
<polyline fill="none" stroke="red" points="0,-435 62,-435 "/>
<text text-anchor="middle" x="31" y="-423" font-family="Helvetica,sans-Serif" font-size="10.00"> </text>
<polyline fill="none" stroke="red" points="0,-416 62,-416 "/>
<text text-anchor="middle" x="31" y="-404" font-family="Helvetica,sans-Serif" font-size="10.00"> </text>
</a>
</g>
</g>
<!-- Node2&#45;&gt;Node1 -->
<g id="edge1" class="edge">
<title>Node2&#45;&gt;Node1</title>
<path fill="none" stroke="midnightblue" d="M26.84,-386.59C23.49,-336.49 25.35,-248.14 71,-193 138.33,-111.68 264.45,-83.44 340.37,-73.66"/>
<polygon fill="none" stroke="midnightblue" points="23.36,-386.98 27.62,-396.68 30.34,-386.44 23.36,-386.98"/>
</g>
<!-- Node5 -->
<g id="node3" class="node">
<title>Node5</title>
<g id="a_node3"><a xlink:href="structIcdDecoder.html" target="_top" xlink:title=" ">
<polygon fill="white" stroke="red" points="80.5,-369.5 80.5,-481.5 223.5,-481.5 223.5,-369.5 80.5,-369.5"/>
<text text-anchor="middle" x="152" y="-469.5" font-family="Helvetica,sans-Serif" font-size="10.00">IcdDecoder</text>
<polyline fill="none" stroke="red" points="80.5,-462.5 223.5,-462.5 "/>
<text text-anchor="middle" x="152" y="-450.5" font-family="Helvetica,sans-Serif" font-size="10.00"> </text>
<polyline fill="none" stroke="red" points="80.5,-443.5 223.5,-443.5 "/>
<text text-anchor="start" x="88.5" y="-431.5" font-family="Helvetica,sans-Serif" font-size="10.00">+ decodeGpsTlmWord()</text>
<text text-anchor="start" x="88.5" y="-420.5" font-family="Helvetica,sans-Serif" font-size="10.00">+ decodeGpsHowWord()</text>
<text text-anchor="start" x="88.5" y="-409.5" font-family="Helvetica,sans-Serif" font-size="10.00">+ decodeGPSSubframe1()</text>
<text text-anchor="start" x="88.5" y="-398.5" font-family="Helvetica,sans-Serif" font-size="10.00">+ decodeGPSSubframe2()</text>
<text text-anchor="start" x="88.5" y="-387.5" font-family="Helvetica,sans-Serif" font-size="10.00">+ decodeGPSSubframe3()</text>
<text text-anchor="start" x="88.5" y="-376.5" font-family="Helvetica,sans-Serif" font-size="10.00">+ decodeGpsSubframe()</text>
</a>
</g>
</g>
<!-- Node5&#45;&gt;Node1 -->
<g id="edge2" class="edge">
<title>Node5&#45;&gt;Node1</title>
<path fill="none" stroke="midnightblue" d="M163.86,-359.19C175.27,-309.86 196.36,-242.45 233,-193 261.2,-154.93 304.37,-123.52 340.15,-101.77"/>
<polygon fill="none" stroke="midnightblue" points="160.4,-358.59 161.63,-369.11 167.24,-360.12 160.4,-358.59"/>
</g>
<!-- Node8 -->
<g id="node4" class="node">
<title>Node8</title>
<g id="a_node4"><a xlink:title=" ">
<polygon fill="white" stroke="red" points="242,-386 242,-465 394,-465 394,-386 242,-386"/>
<text text-anchor="start" x="250" y="-453" font-family="Helvetica,sans-Serif" font-size="10.00">map&lt; string, map&lt; GTime,</text>
<text text-anchor="start" x="250" y="-442" font-family="Helvetica,sans-Serif" font-size="10.00"> Vector3d, std::greater</text>
<text text-anchor="middle" x="318" y="-431" font-family="Helvetica,sans-Serif" font-size="10.00">&lt; GTime &gt; &gt; &gt;</text>
<polyline fill="none" stroke="red" points="242,-424 394,-424 "/>
<text text-anchor="middle" x="318" y="-412" font-family="Helvetica,sans-Serif" font-size="10.00"> </text>
<polyline fill="none" stroke="red" points="242,-405 394,-405 "/>
<text text-anchor="middle" x="318" y="-393" font-family="Helvetica,sans-Serif" font-size="10.00"> </text>
</a>
</g>
</g>
<!-- Node8&#45;&gt;Node1 -->
<g id="edge3" class="edge">
<title>Node8&#45;&gt;Node1</title>
<path fill="none" stroke="#404040" d="M327.26,-385.72C340.89,-328.62 366.66,-220.7 384.32,-146.73"/>
<polygon fill="none" stroke="#404040" points="384.4,-146.38 381.91,-139.62 387.19,-134.71 389.69,-141.47 384.4,-146.38"/>
<text text-anchor="middle" x="423.5" y="-167" font-family="Helvetica,sans-Serif" font-size="10.00"> +acclDataMaps</text>
<text text-anchor="middle" x="423.5" y="-156" font-family="Helvetica,sans-Serif" font-size="10.00">+gyroDataMaps</text>
</g>
<!-- Node9 -->
<g id="node5" class="node">
<title>Node9</title>
<g id="a_node5"><a xlink:title=" ">
<polygon fill="white" stroke="red" points="412,-386 412,-465 564,-465 564,-386 412,-386"/>
<text text-anchor="start" x="420" y="-453" font-family="Helvetica,sans-Serif" font-size="10.00">map&lt; string, map&lt; GTime,</text>
<text text-anchor="start" x="420" y="-442" font-family="Helvetica,sans-Serif" font-size="10.00"> double, std::greater</text>
<text text-anchor="middle" x="488" y="-431" font-family="Helvetica,sans-Serif" font-size="10.00">&lt; GTime &gt; &gt; &gt;</text>
<polyline fill="none" stroke="red" points="412,-424 564,-424 "/>
<text text-anchor="middle" x="488" y="-412" font-family="Helvetica,sans-Serif" font-size="10.00"> </text>
<polyline fill="none" stroke="red" points="412,-405 564,-405 "/>
<text text-anchor="middle" x="488" y="-393" font-family="Helvetica,sans-Serif" font-size="10.00"> </text>
</a>
</g>
</g>
<!-- Node9&#45;&gt;Node1 -->
<g id="edge4" class="edge">
<title>Node9&#45;&gt;Node1</title>
<path fill="none" stroke="#404040" d="M491.42,-385.72C494.75,-331.69 495.63,-231.54 466,-153 465.06,-150.5 464.01,-148 462.89,-145.53"/>
<polygon fill="none" stroke="#404040" points="462.88,-145.51 456.6,-141.96 457.46,-134.8 463.74,-138.35 462.88,-145.51"/>
<text text-anchor="middle" x="516.5" y="-161.5" font-family="Helvetica,sans-Serif" font-size="10.00"> +tempDataMaps</text>
</g>
<!-- Node10 -->
<g id="node6" class="node">
<title>Node10</title>
<g id="a_node6"><a xlink:href="structGTime.html" target="_top" xlink:title="Time structure used throughout this software.">
<polygon fill="white" stroke="black" points="582.5,-193.5 582.5,-657.5 719.5,-657.5 719.5,-193.5 582.5,-193.5"/>
<text text-anchor="middle" x="651" y="-645.5" font-family="Helvetica,sans-Serif" font-size="10.00">GTime</text>
<polyline fill="none" stroke="black" points="582.5,-638.5 719.5,-638.5 "/>
<text text-anchor="start" x="590.5" y="-626.5" font-family="Helvetica,sans-Serif" font-size="10.00">+ bigTime</text>
<polyline fill="none" stroke="black" points="582.5,-619.5 719.5,-619.5 "/>
<text text-anchor="start" x="590.5" y="-607.5" font-family="Helvetica,sans-Serif" font-size="10.00">+ GTime()</text>
<text text-anchor="start" x="590.5" y="-596.5" font-family="Helvetica,sans-Serif" font-size="10.00">+ GTime()</text>
<text text-anchor="start" x="590.5" y="-585.5" font-family="Helvetica,sans-Serif" font-size="10.00">+ GTime()</text>
<text text-anchor="start" x="590.5" y="-574.5" font-family="Helvetica,sans-Serif" font-size="10.00">+ to_string()</text>
<text text-anchor="start" x="590.5" y="-563.5" font-family="Helvetica,sans-Serif" font-size="10.00">+ operator==()</text>
<text text-anchor="start" x="590.5" y="-552.5" font-family="Helvetica,sans-Serif" font-size="10.00">+ operator!=()</text>
<text text-anchor="start" x="590.5" y="-541.5" font-family="Helvetica,sans-Serif" font-size="10.00">+ operator&lt;()</text>
<text text-anchor="start" x="590.5" y="-530.5" font-family="Helvetica,sans-Serif" font-size="10.00">+ operator&gt;()</text>
<text text-anchor="start" x="590.5" y="-519.5" font-family="Helvetica,sans-Serif" font-size="10.00">+ operator&gt;=()</text>
<text text-anchor="start" x="590.5" y="-508.5" font-family="Helvetica,sans-Serif" font-size="10.00">+ operator+()</text>
<text text-anchor="start" x="590.5" y="-497.5" font-family="Helvetica,sans-Serif" font-size="10.00">+ operator+()</text>
<text text-anchor="start" x="590.5" y="-486.5" font-family="Helvetica,sans-Serif" font-size="10.00">+ operator+()</text>
<text text-anchor="start" x="590.5" y="-475.5" font-family="Helvetica,sans-Serif" font-size="10.00">+ operator+=()</text>
<text text-anchor="start" x="590.5" y="-464.5" font-family="Helvetica,sans-Serif" font-size="10.00">+ operator&#45;=()</text>
<text text-anchor="start" x="590.5" y="-453.5" font-family="Helvetica,sans-Serif" font-size="10.00">+ operator&#45;()</text>
<text text-anchor="start" x="590.5" y="-442.5" font-family="Helvetica,sans-Serif" font-size="10.00">+ operator&#45;()</text>
<text text-anchor="start" x="590.5" y="-431.5" font-family="Helvetica,sans-Serif" font-size="10.00">+ operator&#45;()</text>
<text text-anchor="start" x="590.5" y="-420.5" font-family="Helvetica,sans-Serif" font-size="10.00">+ operator++()</text>
<text text-anchor="start" x="590.5" y="-409.5" font-family="Helvetica,sans-Serif" font-size="10.00">+ GTime()</text>
<text text-anchor="start" x="590.5" y="-398.5" font-family="Helvetica,sans-Serif" font-size="10.00">+ GTime()</text>
<text text-anchor="start" x="590.5" y="-387.5" font-family="Helvetica,sans-Serif" font-size="10.00">+ GTime()</text>
<text text-anchor="start" x="590.5" y="-376.5" font-family="Helvetica,sans-Serif" font-size="10.00">+ GTime()</text>
<text text-anchor="start" x="590.5" y="-365.5" font-family="Helvetica,sans-Serif" font-size="10.00">+ GTime()</text>
<text text-anchor="start" x="590.5" y="-354.5" font-family="Helvetica,sans-Serif" font-size="10.00">+ serialize()</text>
<text text-anchor="start" x="590.5" y="-343.5" font-family="Helvetica,sans-Serif" font-size="10.00">+ floorTime()</text>
<text text-anchor="start" x="590.5" y="-332.5" font-family="Helvetica,sans-Serif" font-size="10.00">+ gregString()</text>
<text text-anchor="start" x="590.5" y="-321.5" font-family="Helvetica,sans-Serif" font-size="10.00">+ operator long double()</text>
<text text-anchor="start" x="590.5" y="-310.5" font-family="Helvetica,sans-Serif" font-size="10.00">+ operator MjDateTT()</text>
<text text-anchor="start" x="590.5" y="-299.5" font-family="Helvetica,sans-Serif" font-size="10.00">+ operator GEpoch()</text>
<text text-anchor="start" x="590.5" y="-288.5" font-family="Helvetica,sans-Serif" font-size="10.00">+ operator UtcTime()</text>
<text text-anchor="start" x="590.5" y="-277.5" font-family="Helvetica,sans-Serif" font-size="10.00">+ operator GWeek()</text>
<text text-anchor="start" x="590.5" y="-266.5" font-family="Helvetica,sans-Serif" font-size="10.00">+ operator BWeek()</text>
<text text-anchor="start" x="590.5" y="-255.5" font-family="Helvetica,sans-Serif" font-size="10.00">+ operator GTow()</text>
<text text-anchor="start" x="590.5" y="-244.5" font-family="Helvetica,sans-Serif" font-size="10.00">+ operator BTow()</text>
<text text-anchor="start" x="590.5" y="-233.5" font-family="Helvetica,sans-Serif" font-size="10.00">+ operator PTime()</text>
<text text-anchor="start" x="590.5" y="-222.5" font-family="Helvetica,sans-Serif" font-size="10.00">+ operator string()</text>
<text text-anchor="start" x="590.5" y="-211.5" font-family="Helvetica,sans-Serif" font-size="10.00">+ operator RTod()</text>
<text text-anchor="start" x="590.5" y="-200.5" font-family="Helvetica,sans-Serif" font-size="10.00">+ noTime()</text>
</a>
</g>
</g>
<!-- Node10&#45;&gt;Node1 -->
<g id="edge5" class="edge">
<title>Node10&#45;&gt;Node1</title>
<path fill="none" stroke="#404040" d="M591.51,-193.18C583.47,-178.88 574.35,-165.32 564,-153 541.21,-125.88 507.47,-106.3 476.75,-92.86"/>
<polygon fill="none" stroke="#404040" points="476.66,-92.82 469.58,-94.19 465.59,-88.18 472.67,-86.81 476.66,-92.82"/>
<text text-anchor="middle" x="604.5" y="-161.5" font-family="Helvetica,sans-Serif" font-size="10.00"> +lastTime</text>
</g>
<!-- Node11 -->
<g id="node7" class="node">
<title>Node11</title>
<g id="a_node7"><a xlink:title=" ">
<polygon fill="white" stroke="black" points="738,-397 738,-454 782,-454 782,-397 738,-397"/>
<text text-anchor="middle" x="760" y="-442" font-family="Helvetica,sans-Serif" font-size="10.00">string</text>
<polyline fill="none" stroke="black" points="738,-435 782,-435 "/>
<text text-anchor="middle" x="760" y="-423" font-family="Helvetica,sans-Serif" font-size="10.00"> </text>
<polyline fill="none" stroke="black" points="738,-416 782,-416 "/>
<text text-anchor="middle" x="760" y="-404" font-family="Helvetica,sans-Serif" font-size="10.00"> </text>
</a>
</g>
</g>
<!-- Node11&#45;&gt;Node1 -->
<g id="edge6" class="edge">
<title>Node11&#45;&gt;Node1</title>
<path fill="none" stroke="#404040" d="M764.4,-396.66C770.22,-349.61 774.94,-253.58 729,-193 669.53,-114.58 554.25,-85.55 477.95,-74.81"/>
<polygon fill="none" stroke="#404040" points="477.48,-74.75 471.01,-77.93 465.59,-73.18 472.06,-70 477.48,-74.75"/>
<text text-anchor="middle" x="760.5" y="-167" font-family="Helvetica,sans-Serif" font-size="10.00"> +raw_ubx_filename</text>
<text text-anchor="middle" x="760.5" y="-156" font-family="Helvetica,sans-Serif" font-size="10.00">+recId</text>
</g>
</g>
</svg>
        <g id="navigator" transform="translate(0 0)" fill="#404254">
                <rect fill="#f2f5e9" fill-opacity="0.5" stroke="#606060" stroke-width=".5" x="0" y="0" width="60" height="60"/>
                <use id="zoomplus" xlink:href="#zoomPlus" x="17" y="9" onmousedown="handleZoom(evt,'in')"/>
                <use id="zoomminus" xlink:href="#zoomMin" x="42" y="9" onmousedown="handleZoom(evt,'out')"/>
                <use id="reset" xlink:href="#resetDef" x="30" y="36" onmousedown="handleReset()"/>
                <g id="arrowUp" xlink:href="#dirArrow" transform="translate(30 24)" onmousedown="handlePan(0,-1)">
                  <use xlink:href="#rim" fill="#404040">
                        <set attributeName="fill" to="#808080" begin="arrowUp.mouseover" end="arrowUp.mouseout"/>
                  </use>
                  <path fill="none" stroke="white" stroke-width="1.5" d="M0,-3.0v7 M-2.5,-0.5L0,-3.0L2.5,-0.5"/>
                </g>
                <g id="arrowRight" xlink:href="#dirArrow" transform="rotate(90) translate(36 -43)" onmousedown="handlePan(1,0)">
                  <use xlink:href="#rim" fill="#404040">
                        <set attributeName="fill" to="#808080" begin="arrowRight.mouseover" end="arrowRight.mouseout"/>
                  </use>
                  <path fill="none" stroke="white" stroke-width="1.5" d="M0,-3.0v7 M-2.5,-0.5L0,-3.0L2.5,-0.5"/>
                </g>
                <g id="arrowDown" xlink:href="#dirArrow" transform="rotate(180) translate(-30 -48)" onmousedown="handlePan(0,1)">
                  <use xlink:href="#rim" fill="#404040">
                        <set attributeName="fill" to="#808080" begin="arrowDown.mouseover" end="arrowDown.mouseout"/>
                  </use>
                  <path fill="none" stroke="white" stroke-width="1.5" d="M0,-3.0v7 M-2.5,-0.5L0,-3.0L2.5,-0.5"/>
                </g>
                <g id="arrowLeft" xlink:href="#dirArrow" transform="rotate(270) translate(-36 17)" onmousedown="handlePan(-1,0)">
                  <use xlink:href="#rim" fill="#404040">
                        <set attributeName="fill" to="#808080" begin="arrowLeft.mouseover" end="arrowLeft.mouseout"/>
                  </use>
                  <path fill="none" stroke="white" stroke-width="1.5" d="M0,-3.0v7 M-2.5,-0.5L0,-3.0L2.5,-0.5"/>
                </g>
        </g>
        <svg viewBox="0 0 15 15" width="100%" height="30px" preserveAspectRatio="xMaxYMin meet">
         <g id="arrow_out" transform="scale(0.3 0.3)">
          <a xlink:href="structUbxDecoder__coll__graph_org.svg" target="_base">
           <rect id="button" ry="5" rx="5" y="6" x="6" height="38" width="38"
                fill="#f2f5e9" fill-opacity="0.5" stroke="#606060" stroke-width="1.0"/>
           <path id="arrow"
             d="M 11.500037,31.436501 C 11.940474,20.09759 22.043105,11.32322 32.158766,21.979434 L 37.068811,17.246167 C 37.068811,17.246167 37.088388,32 37.088388,32 L 22.160133,31.978069 C 22.160133,31.978069 26.997745,27.140456 26.997745,27.140456 C 18.528582,18.264221 13.291696,25.230495 11.500037,31.436501 z"
             style="fill:#404040;"/>
          </a>
         </g>
        </svg>
</svg>
