<?xml version="1.0" encoding="UTF-8" standalone="no"?>
<!DOCTYPE svg PUBLIC "-//W3C//DTD SVG 1.1//EN"
 "http://www.w3.org/Graphics/SVG/1.1/DTD/svg11.dtd">
<!-- Generated by graphviz version 2.43.0 (0)
 -->
<!-- Title: SinexBias Pages: 1 -->
<svg width="309pt" height="457pt"
 viewBox="0.00 0.00 309.00 457.00" xmlns="http://www.w3.org/2000/svg" xmlns:xlink="http://www.w3.org/1999/xlink">
<g id="graph0" class="graph" transform="scale(1 1) rotate(0) translate(4 453)">
<title>SinexBias</title>
<polygon fill="white" stroke="transparent" points="-4,4 -4,-453 305,-453 305,4 -4,4"/>
<!-- Node1 -->
<g id="node1" class="node">
<title>Node1</title>
<g id="a_node1"><a xlink:title=" ">
<polygon fill="#bfbfbf" stroke="black" points="115,-0.5 115,-123.5 192,-123.5 192,-0.5 115,-0.5"/>
<text text-anchor="middle" x="153.5" y="-111.5" font-family="Helvetica,sans-Serif" font-size="10.00">SinexBias</text>
<polyline fill="none" stroke="black" points="115,-104.5 192,-104.5 "/>
<text text-anchor="start" x="123" y="-92.5" font-family="Helvetica,sans-Serif" font-size="10.00">+ measType</text>
<text text-anchor="start" x="123" y="-81.5" font-family="Helvetica,sans-Serif" font-size="10.00">+ cod1</text>
<text text-anchor="start" x="123" y="-70.5" font-family="Helvetica,sans-Serif" font-size="10.00">+ cod2</text>
<text text-anchor="start" x="123" y="-59.5" font-family="Helvetica,sans-Serif" font-size="10.00">+ bias</text>
<text text-anchor="start" x="123" y="-48.5" font-family="Helvetica,sans-Serif" font-size="10.00">+ slop</text>
<text text-anchor="start" x="123" y="-37.5" font-family="Helvetica,sans-Serif" font-size="10.00">+ var</text>
<text text-anchor="start" x="123" y="-26.5" font-family="Helvetica,sans-Serif" font-size="10.00">+ slpv</text>
<polyline fill="none" stroke="black" points="115,-19.5 192,-19.5 "/>
<text text-anchor="middle" x="153.5" y="-7.5" font-family="Helvetica,sans-Serif" font-size="10.00"> </text>
</a>
</g>
</g>
<!-- Node2 -->
<g id="node2" class="node">
<title>Node2</title>
<g id="a_node2"><a xlink:href="structGTime.html" target="_top" xlink:title="Time structure used throughout this software.">
<polygon fill="white" stroke="black" points="0,-182.5 0,-448.5 113,-448.5 113,-182.5 0,-182.5"/>
<text text-anchor="middle" x="56.5" y="-436.5" font-family="Helvetica,sans-Serif" font-size="10.00">GTime</text>
<polyline fill="none" stroke="black" points="0,-429.5 113,-429.5 "/>
<text text-anchor="start" x="8" y="-417.5" font-family="Helvetica,sans-Serif" font-size="10.00">+ time</text>
<text text-anchor="start" x="8" y="-406.5" font-family="Helvetica,sans-Serif" font-size="10.00">+ sec</text>
<polyline fill="none" stroke="black" points="0,-399.5 113,-399.5 "/>
<text text-anchor="start" x="8" y="-387.5" font-family="Helvetica,sans-Serif" font-size="10.00">+ to_string()</text>
<text text-anchor="start" x="8" y="-376.5" font-family="Helvetica,sans-Serif" font-size="10.00">+ operator==()</text>
<text text-anchor="start" x="8" y="-365.5" font-family="Helvetica,sans-Serif" font-size="10.00">+ operator!=()</text>
<text text-anchor="start" x="8" y="-354.5" font-family="Helvetica,sans-Serif" font-size="10.00">+ operator&lt;()</text>
<text text-anchor="start" x="8" y="-343.5" font-family="Helvetica,sans-Serif" font-size="10.00">+ operator&gt;()</text>
<text text-anchor="start" x="8" y="-332.5" font-family="Helvetica,sans-Serif" font-size="10.00">+ operator+()</text>
<text text-anchor="start" x="8" y="-321.5" font-family="Helvetica,sans-Serif" font-size="10.00">+ operator+()</text>
<text text-anchor="start" x="8" y="-310.5" font-family="Helvetica,sans-Serif" font-size="10.00">+ operator+=()</text>
<text text-anchor="start" x="8" y="-299.5" font-family="Helvetica,sans-Serif" font-size="10.00">+ operator&#45;()</text>
<text text-anchor="start" x="8" y="-288.5" font-family="Helvetica,sans-Serif" font-size="10.00">+ operator&#45;()</text>
<text text-anchor="start" x="8" y="-277.5" font-family="Helvetica,sans-Serif" font-size="10.00">+ operator double()</text>
<text text-anchor="start" x="8" y="-266.5" font-family="Helvetica,sans-Serif" font-size="10.00">+ operator++()</text>
<text text-anchor="start" x="8" y="-255.5" font-family="Helvetica,sans-Serif" font-size="10.00">+ to_ptime()</text>
<text text-anchor="start" x="8" y="-244.5" font-family="Helvetica,sans-Serif" font-size="10.00">+ GTime()</text>
<text text-anchor="start" x="8" y="-233.5" font-family="Helvetica,sans-Serif" font-size="10.00">+ GTime()</text>
<text text-anchor="start" x="8" y="-222.5" font-family="Helvetica,sans-Serif" font-size="10.00">+ GTime()</text>
<text text-anchor="start" x="8" y="-211.5" font-family="Helvetica,sans-Serif" font-size="10.00">+ serialize()</text>
<text text-anchor="start" x="8" y="-200.5" font-family="Helvetica,sans-Serif" font-size="10.00">+ roundTime()</text>
<text text-anchor="start" x="8" y="-189.5" font-family="Helvetica,sans-Serif" font-size="10.00">+ noTime()</text>
</a>
</g>
</g>
<!-- Node2&#45;&gt;Node1 -->
<g id="edge1" class="edge">
<title>Node2&#45;&gt;Node1</title>
<path fill="none" stroke="#404040" d="M106.03,-182.05C111.21,-168.51 116.43,-154.97 121.5,-142 123.82,-136.07 126.26,-129.91 128.72,-123.75"/>
<text text-anchor="middle" x="135.5" y="-156" font-family="Helvetica,sans-Serif" font-size="10.00"> +tfin</text>
<text text-anchor="middle" x="135.5" y="-145" font-family="Helvetica,sans-Serif" font-size="10.00">+tini</text>
</g>
<!-- Node3 -->
<g id="node3" class="node">
<title>Node3</title>
<g id="a_node3"><a xlink:title=" ">
<polygon fill="white" stroke="black" points="131.5,-287 131.5,-344 175.5,-344 175.5,-287 131.5,-287"/>
<text text-anchor="middle" x="153.5" y="-332" font-family="Helvetica,sans-Serif" font-size="10.00">string</text>
<polyline fill="none" stroke="black" points="131.5,-325 175.5,-325 "/>
<text text-anchor="middle" x="153.5" y="-313" font-family="Helvetica,sans-Serif" font-size="10.00"> </text>
<polyline fill="none" stroke="black" points="131.5,-306 175.5,-306 "/>
<text text-anchor="middle" x="153.5" y="-294" font-family="Helvetica,sans-Serif" font-size="10.00"> </text>
</a>
</g>
</g>
<!-- Node3&#45;&gt;Node1 -->
<g id="edge2" class="edge">
<title>Node3&#45;&gt;Node1</title>
<path fill="none" stroke="#404040" d="M153.5,-286.62C153.5,-247.55 153.5,-175.49 153.5,-123.72"/>
<text text-anchor="middle" x="174" y="-156" font-family="Helvetica,sans-Serif" font-size="10.00"> +name</text>
<text text-anchor="middle" x="174" y="-145" font-family="Helvetica,sans-Serif" font-size="10.00">+source</text>
</g>
<!-- Node4 -->
<g id="node4" class="node">
<title>Node4</title>
<g id="a_node4"><a xlink:href="structSatSys.html" target="_top" xlink:title="Object holding satellite id, and providing related functions.">
<polygon fill="white" stroke="red" points="194,-204.5 194,-426.5 301,-426.5 301,-204.5 194,-204.5"/>
<text text-anchor="middle" x="247.5" y="-414.5" font-family="Helvetica,sans-Serif" font-size="10.00">SatSys</text>
<polyline fill="none" stroke="red" points="194,-407.5 301,-407.5 "/>
<text text-anchor="start" x="202" y="-395.5" font-family="Helvetica,sans-Serif" font-size="10.00">+ sys</text>
<text text-anchor="start" x="202" y="-384.5" font-family="Helvetica,sans-Serif" font-size="10.00">+ prn</text>
<polyline fill="none" stroke="red" points="194,-377.5 301,-377.5 "/>
<text text-anchor="start" x="202" y="-365.5" font-family="Helvetica,sans-Serif" font-size="10.00">+ SatSys()</text>
<text text-anchor="start" x="202" y="-354.5" font-family="Helvetica,sans-Serif" font-size="10.00">+ biasGroup()</text>
<text text-anchor="start" x="202" y="-343.5" font-family="Helvetica,sans-Serif" font-size="10.00">+ sysChar()</text>
<text text-anchor="start" x="202" y="-332.5" font-family="Helvetica,sans-Serif" font-size="10.00">+ getId()</text>
<text text-anchor="start" x="202" y="-321.5" font-family="Helvetica,sans-Serif" font-size="10.00">+ operator int()</text>
<text text-anchor="start" x="202" y="-310.5" font-family="Helvetica,sans-Serif" font-size="10.00">+ setBlockType()</text>
<text text-anchor="start" x="202" y="-299.5" font-family="Helvetica,sans-Serif" font-size="10.00">+ setSvn()</text>
<text text-anchor="start" x="202" y="-288.5" font-family="Helvetica,sans-Serif" font-size="10.00">+ blockType()</text>
<text text-anchor="start" x="202" y="-277.5" font-family="Helvetica,sans-Serif" font-size="10.00">+ svn()</text>
<text text-anchor="start" x="202" y="-266.5" font-family="Helvetica,sans-Serif" font-size="10.00">+ fromHash()</text>
<text text-anchor="start" x="202" y="-255.5" font-family="Helvetica,sans-Serif" font-size="10.00">+ id()</text>
<text text-anchor="start" x="202" y="-244.5" font-family="Helvetica,sans-Serif" font-size="10.00">+ operator string()</text>
<text text-anchor="start" x="202" y="-233.5" font-family="Helvetica,sans-Serif" font-size="10.00">+ SatSys()</text>
<text text-anchor="start" x="202" y="-222.5" font-family="Helvetica,sans-Serif" font-size="10.00">+ sysName()</text>
<text text-anchor="start" x="202" y="-211.5" font-family="Helvetica,sans-Serif" font-size="10.00">+ serialize()</text>
</a>
</g>
</g>
<!-- Node4&#45;&gt;Node1 -->
<g id="edge3" class="edge">
<title>Node4&#45;&gt;Node1</title>
<path fill="none" stroke="#404040" d="M220.43,-204.09C214.09,-183.16 206.75,-161.67 198.5,-142 195.94,-135.89 193,-129.65 189.89,-123.5"/>
<text text-anchor="middle" x="219.5" y="-150.5" font-family="Helvetica,sans-Serif" font-size="10.00"> +Sat</text>
</g>
</g>
</svg>
