<?xml version="1.0" encoding="UTF-8" standalone="no"?>
<!DOCTYPE svg PUBLIC "-//W3C//DTD SVG 1.1//EN"
 "http://www.w3.org/Graphics/SVG/1.1/DTD/svg11.dtd">
<!-- Generated by graphviz version 2.43.0 (0)
 -->
<!-- Title: KFMeasEntry::setValue Pages: 1 -->
<svg width="603pt" height="332pt"
 viewBox="0.00 0.00 603.00 332.00" xmlns="http://www.w3.org/2000/svg" xmlns:xlink="http://www.w3.org/1999/xlink">
<g id="graph0" class="graph" transform="scale(1 1) rotate(0) translate(4 328)">
<title>KFMeasEntry::setValue</title>
<polygon fill="white" stroke="transparent" points="-4,4 -4,-328 599,-328 599,4 -4,4"/>
<!-- Node1 -->
<g id="node1" class="node">
<title>Node1</title>
<g id="a_node1"><a xlink:title="Adds the actual measurement value for this measurement.">
<polygon fill="#bfbfbf" stroke="black" points="466,-152.5 466,-171.5 595,-171.5 595,-152.5 466,-152.5"/>
<text text-anchor="middle" x="530.5" y="-159.5" font-family="Helvetica,sans-Serif" font-size="10.00">KFMeasEntry::setValue</text>
</a>
</g>
</g>
<!-- Node2 -->
<g id="node2" class="node">
<title>Node2</title>
<g id="a_node2"><a xlink:href="GinARNLamb_8cpp.html#ad93bb9c322526f57beacb5aeb5c4e66a" target="_top" xlink:title="Apply archived Z&#45;ambiguities to float solution.">
<polygon fill="white" stroke="black" points="321.5,-304.5 321.5,-323.5 404.5,-323.5 404.5,-304.5 321.5,-304.5"/>
<text text-anchor="middle" x="363" y="-311.5" font-family="Helvetica,sans-Serif" font-size="10.00">apply_ambigt</text>
</a>
</g>
</g>
<!-- Node1&#45;&gt;Node2 -->
<g id="edge1" class="edge">
<title>Node1&#45;&gt;Node2</title>
<path fill="none" stroke="midnightblue" d="M525.02,-171.73C513.19,-196.33 478.64,-261.41 430,-295 422.45,-300.22 413.46,-304.02 404.6,-306.78"/>
</g>
<!-- Node12 -->
<g id="node5" class="node">
<title>Node12</title>
<g id="a_node5"><a xlink:href="networkEstimator_8cpp.html#a36828506971a6b66c6e61db51197c9e1" target="_top" xlink:title="Estimates parameters for a network of stations simultaneously.">
<polygon fill="white" stroke="black" points="311,-266.5 311,-285.5 415,-285.5 415,-266.5 311,-266.5"/>
<text text-anchor="middle" x="363" y="-273.5" font-family="Helvetica,sans-Serif" font-size="10.00">networkEstimator</text>
</a>
</g>
</g>
<!-- Node1&#45;&gt;Node12 -->
<g id="edge4" class="edge">
<title>Node1&#45;&gt;Node12</title>
<path fill="none" stroke="midnightblue" d="M522.12,-171.66C506.98,-190.83 470.39,-233.81 430,-257 423.28,-260.86 415.72,-263.98 408.17,-266.5"/>
</g>
<!-- Node13 -->
<g id="node7" class="node">
<title>Node13</title>
<g id="a_node7"><a xlink:href="GinARWLamb_8cpp.html#ab95d4f2ff0f6e0d2b92d4d4d14f7f787" target="_top" xlink:title="Update WL filter.">
<polygon fill="white" stroke="black" points="324,-228.5 324,-247.5 402,-247.5 402,-228.5 324,-228.5"/>
<text text-anchor="middle" x="363" y="-235.5" font-family="Helvetica,sans-Serif" font-size="10.00">updat_WLfilt</text>
</a>
</g>
</g>
<!-- Node1&#45;&gt;Node13 -->
<g id="edge6" class="edge">
<title>Node1&#45;&gt;Node13</title>
<path fill="none" stroke="midnightblue" d="M515.23,-171.64C496.4,-184.02 461.9,-205.5 430,-219 421.22,-222.72 411.48,-225.97 402.24,-228.68"/>
</g>
<!-- Node15 -->
<g id="node9" class="node">
<title>Node15</title>
<g id="a_node9"><a xlink:href="minimumConstraints_8cpp.html#a85e412176915fe538d691251614f877a" target="_top" xlink:title=" ">
<polygon fill="white" stroke="black" points="336.5,-190.5 336.5,-209.5 389.5,-209.5 389.5,-190.5 336.5,-190.5"/>
<text text-anchor="middle" x="363" y="-197.5" font-family="Helvetica,sans-Serif" font-size="10.00">mincon</text>
</a>
</g>
</g>
<!-- Node1&#45;&gt;Node15 -->
<g id="edge9" class="edge">
<title>Node1&#45;&gt;Node15</title>
<path fill="none" stroke="midnightblue" d="M487.74,-171.59C456.9,-178.67 415.91,-188.08 389.73,-194.09"/>
</g>
<!-- Node16 -->
<g id="node10" class="node">
<title>Node16</title>
<g id="a_node10"><a xlink:href="debug_8cpp.html#a80d24c0bf09dad23394c5fcac25aa80b" target="_top" xlink:title=" ">
<polygon fill="white" stroke="black" points="161,-190.5 161,-209.5 244,-209.5 244,-190.5 161,-190.5"/>
<text text-anchor="middle" x="202.5" y="-197.5" font-family="Helvetica,sans-Serif" font-size="10.00">minimumTest</text>
</a>
</g>
</g>
<!-- Node1&#45;&gt;Node16 -->
<g id="edge15" class="edge">
<title>Node1&#45;&gt;Node16</title>
<path fill="none" stroke="midnightblue" d="M504.05,-152.42C459.74,-137.33 366.43,-112.71 296,-143 274.63,-152.19 279.61,-168.48 260,-181 254.07,-184.79 247.3,-187.9 240.56,-190.44"/>
</g>
<!-- Node18 -->
<g id="node13" class="node">
<title>Node18</title>
<g id="a_node13"><a xlink:href="GinARWLamb_8cpp.html#a6cfe77e4642a57d54c9204244cd403a0" target="_top" xlink:title="Resolve wide&#45;lane ambiguities.">
<polygon fill="white" stroke="black" points="318.5,-152.5 318.5,-171.5 407.5,-171.5 407.5,-152.5 318.5,-152.5"/>
<text text-anchor="middle" x="363" y="-159.5" font-family="Helvetica,sans-Serif" font-size="10.00">reslv_WLambg</text>
</a>
</g>
</g>
<!-- Node1&#45;&gt;Node18 -->
<g id="edge13" class="edge">
<title>Node1&#45;&gt;Node18</title>
<path fill="none" stroke="midnightblue" d="M465.99,-162C446.48,-162 425.46,-162 407.6,-162"/>
</g>
<!-- Node19 -->
<g id="node14" class="node">
<title>Node19</title>
<g id="a_node14"><a xlink:href="preceph_8cpp.html#ad8a2ac73c89c0ab95ef7b2812b1cb6d7" target="_top" xlink:title=" ">
<polygon fill="white" stroke="black" points="328,-76.5 328,-95.5 398,-95.5 398,-76.5 328,-76.5"/>
<text text-anchor="middle" x="363" y="-83.5" font-family="Helvetica,sans-Serif" font-size="10.00">interpolate</text>
</a>
</g>
</g>
<!-- Node1&#45;&gt;Node19 -->
<g id="edge16" class="edge">
<title>Node1&#45;&gt;Node19</title>
<path fill="none" stroke="midnightblue" d="M512.93,-152.47C493.45,-141.47 459.96,-123.21 430,-110 418.06,-104.74 404.57,-99.68 392.92,-95.58"/>
</g>
<!-- Node20 -->
<g id="node15" class="node">
<title>Node20</title>
<g id="a_node15"><a xlink:href="spp_8cpp.html#afe946d837e0a89c159b73e50c65e39e4" target="_top" xlink:title="Estimate receiver position and biases using code measurements.">
<polygon fill="white" stroke="black" points="338.5,-38.5 338.5,-57.5 387.5,-57.5 387.5,-38.5 338.5,-38.5"/>
<text text-anchor="middle" x="363" y="-45.5" font-family="Helvetica,sans-Serif" font-size="10.00">estpos</text>
</a>
</g>
</g>
<!-- Node1&#45;&gt;Node20 -->
<g id="edge17" class="edge">
<title>Node1&#45;&gt;Node20</title>
<path fill="none" stroke="midnightblue" d="M522.12,-152.34C506.98,-133.17 470.39,-90.19 430,-67 416.97,-59.52 400.78,-54.8 387.69,-51.93"/>
</g>
<!-- Node24 -->
<g id="node18" class="node">
<title>Node24</title>
<g id="a_node18"><a xlink:href="ionoModel_8cpp.html#a2bdc3287aad0d2793f4ef6adbf389680" target="_top" xlink:title="Updating the ionosphere model parameters &#160;&#160;The ionosphere model should be initialized by calling &#39;con...">
<polygon fill="white" stroke="black" points="296,-0.5 296,-19.5 430,-19.5 430,-0.5 296,-0.5"/>
<text text-anchor="middle" x="363" y="-7.5" font-family="Helvetica,sans-Serif" font-size="10.00">updateIonosphereModel</text>
</a>
</g>
</g>
<!-- Node1&#45;&gt;Node24 -->
<g id="edge21" class="edge">
<title>Node1&#45;&gt;Node24</title>
<path fill="none" stroke="midnightblue" d="M525.02,-152.27C513.19,-127.67 478.64,-62.59 430,-29 424.41,-25.14 418.03,-22.05 411.5,-19.59"/>
</g>
<!-- Node3 -->
<g id="node3" class="node">
<title>Node3</title>
<g id="a_node3"><a xlink:href="GinAR__main_8cpp.html#a5d80c7f56e03c96dc400839ceca50698" target="_top" xlink:title="Ambiguity resolution for network solutions.">
<polygon fill="white" stroke="red" points="0,-247.5 0,-266.5 109,-266.5 109,-247.5 0,-247.5"/>
<text text-anchor="middle" x="54.5" y="-254.5" font-family="Helvetica,sans-Serif" font-size="10.00">networkAmbigResl</text>
</a>
</g>
</g>
<!-- Node2&#45;&gt;Node3 -->
<g id="edge2" class="edge">
<title>Node2&#45;&gt;Node3</title>
<path fill="none" stroke="midnightblue" d="M321.3,-306.41C302.62,-302.93 280.19,-298.76 260,-295 207.81,-285.29 148.13,-274.2 106.77,-266.52"/>
</g>
<!-- Node7 -->
<g id="node4" class="node">
<title>Node7</title>
<g id="a_node4"><a xlink:href="GinAR__main_8cpp.html#a99547395860accf77f4d3dc4328cb139" target="_top" xlink:title="Ambiguity resolution on smoothed KF solutions.">
<polygon fill="white" stroke="red" points="146.5,-304.5 146.5,-323.5 258.5,-323.5 258.5,-304.5 146.5,-304.5"/>
<text text-anchor="middle" x="202.5" y="-311.5" font-family="Helvetica,sans-Serif" font-size="10.00">smoothdAmbigResl</text>
</a>
</g>
</g>
<!-- Node2&#45;&gt;Node7 -->
<g id="edge3" class="edge">
<title>Node2&#45;&gt;Node7</title>
<path fill="none" stroke="midnightblue" d="M321.18,-314C302.1,-314 279.1,-314 258.52,-314"/>
</g>
<!-- Node5 -->
<g id="node6" class="node">
<title>Node5</title>
<g id="a_node6"><a xlink:href="main_8cpp.html#adec1174713b31a762011c372983df1e5" target="_top" xlink:title=" ">
<polygon fill="white" stroke="red" points="147,-0.5 147,-19.5 258,-19.5 258,-0.5 147,-0.5"/>
<text text-anchor="middle" x="202.5" y="-7.5" font-family="Helvetica,sans-Serif" font-size="10.00">mainOncePerEpoch</text>
</a>
</g>
</g>
<!-- Node12&#45;&gt;Node5 -->
<g id="edge5" class="edge">
<title>Node12&#45;&gt;Node5</title>
<path fill="none" stroke="midnightblue" d="M310.69,-267.61C305.18,-264.95 300.1,-261.5 296,-257 238.12,-193.47 300,-143.07 260,-67 249.62,-47.27 230.15,-29.94 217,-19.71"/>
</g>
<!-- Node14 -->
<g id="node8" class="node">
<title>Node14</title>
<g id="a_node8"><a xlink:href="GinARWLamb_8cpp.html#a12713865301eea1dac84952dd9fd1149" target="_top" xlink:title="Update WL ambiguities and save then to archive.">
<polygon fill="white" stroke="black" points="156.5,-228.5 156.5,-247.5 248.5,-247.5 248.5,-228.5 156.5,-228.5"/>
<text text-anchor="middle" x="202.5" y="-235.5" font-family="Helvetica,sans-Serif" font-size="10.00">updat_WLambg</text>
</a>
</g>
</g>
<!-- Node13&#45;&gt;Node14 -->
<g id="edge7" class="edge">
<title>Node13&#45;&gt;Node14</title>
<path fill="none" stroke="midnightblue" d="M323.63,-238C301,-238 272.25,-238 248.55,-238"/>
</g>
<!-- Node14&#45;&gt;Node3 -->
<g id="edge8" class="edge">
<title>Node14&#45;&gt;Node3</title>
<path fill="none" stroke="midnightblue" d="M156.11,-243.91C141.2,-245.85 124.51,-248.02 109.06,-250.03"/>
</g>
<!-- Node15&#45;&gt;Node16 -->
<g id="edge10" class="edge">
<title>Node15&#45;&gt;Node16</title>
<path fill="none" stroke="midnightblue" d="M336.18,-200C311.27,-200 273.17,-200 244.18,-200"/>
</g>
<!-- Node17 -->
<g id="node11" class="node">
<title>Node17</title>
<g id="a_node11"><a xlink:href="minimumConstraints_8cpp.html#a91e7c5f0512892cbb8ff736bb4fc35d7" target="_top" xlink:title=" ">
<polygon fill="white" stroke="red" points="165,-152.5 165,-171.5 240,-171.5 240,-152.5 165,-152.5"/>
<text text-anchor="middle" x="202.5" y="-159.5" font-family="Helvetica,sans-Serif" font-size="10.00">minconOnly</text>
</a>
</g>
</g>
<!-- Node15&#45;&gt;Node17 -->
<g id="edge11" class="edge">
<title>Node15&#45;&gt;Node17</title>
<path fill="none" stroke="midnightblue" d="M336.18,-193.81C310.13,-187.56 269.65,-177.86 240.26,-170.81"/>
</g>
<!-- Node11 -->
<g id="node12" class="node">
<title>Node11</title>
<g id="a_node12"><a xlink:href="main_8cpp.html#a93c49123b4afe8e199430439fd682acd" target="_top" xlink:title=" ">
<polygon fill="white" stroke="red" points="145,-114.5 145,-133.5 260,-133.5 260,-114.5 145,-114.5"/>
<text text-anchor="middle" x="202.5" y="-121.5" font-family="Helvetica,sans-Serif" font-size="10.00">mainPostProcessing</text>
</a>
</g>
</g>
<!-- Node15&#45;&gt;Node11 -->
<g id="edge12" class="edge">
<title>Node15&#45;&gt;Node11</title>
<path fill="none" stroke="midnightblue" d="M336.26,-195.91C323.49,-193.07 308.23,-188.43 296,-181 276.12,-168.91 279.61,-155.52 260,-143 254.07,-139.21 247.3,-136.1 240.56,-133.56"/>
</g>
<!-- Node18&#45;&gt;Node14 -->
<g id="edge14" class="edge">
<title>Node18&#45;&gt;Node14</title>
<path fill="none" stroke="midnightblue" d="M318.36,-170.99C310.6,-173.57 302.83,-176.85 296,-181 276.12,-193.09 279.61,-206.48 260,-219 254.07,-222.79 247.3,-225.9 240.56,-228.44"/>
</g>
<!-- Node21 -->
<g id="node16" class="node">
<title>Node21</title>
<g id="a_node16"><a xlink:href="spp_8cpp.html#a9d3fef1e4eab19407853f4c1a975263b" target="_top" xlink:title="Receiver autonomous integrity monitoring (RAIM) failure detection and exclution.">
<polygon fill="white" stroke="black" points="172.5,-76.5 172.5,-95.5 232.5,-95.5 232.5,-76.5 172.5,-76.5"/>
<text text-anchor="middle" x="202.5" y="-83.5" font-family="Helvetica,sans-Serif" font-size="10.00">raim_fde</text>
</a>
</g>
</g>
<!-- Node20&#45;&gt;Node21 -->
<g id="edge18" class="edge">
<title>Node20&#45;&gt;Node21</title>
<path fill="none" stroke="midnightblue" d="M338.27,-53.69C310.03,-60.46 262.89,-71.76 232.51,-79.04"/>
</g>
<!-- Node22 -->
<g id="node17" class="node">
<title>Node22</title>
<g id="a_node17"><a xlink:href="spp_8cpp.html#a80e3d976b8371ffec2003e91fbd86282" target="_top" xlink:title="Compute receiver position, velocity, clock bias by single&#45;point positioning with pseudorange observab...">
<polygon fill="white" stroke="red" points="32,-57.5 32,-76.5 77,-76.5 77,-57.5 32,-57.5"/>
<text text-anchor="middle" x="54.5" y="-64.5" font-family="Helvetica,sans-Serif" font-size="10.00">sppos</text>
</a>
</g>
</g>
<!-- Node20&#45;&gt;Node22 -->
<g id="edge20" class="edge">
<title>Node20&#45;&gt;Node22</title>
<path fill="none" stroke="midnightblue" d="M338.46,-49.46C280.71,-53.04 132.68,-62.22 77.06,-65.66"/>
</g>
<!-- Node21&#45;&gt;Node22 -->
<g id="edge19" class="edge">
<title>Node21&#45;&gt;Node22</title>
<path fill="none" stroke="midnightblue" d="M172.31,-82.2C144.18,-78.54 102.28,-73.09 77.06,-69.81"/>
</g>
<!-- Node24&#45;&gt;Node5 -->
<g id="edge22" class="edge">
<title>Node24&#45;&gt;Node5</title>
<path fill="none" stroke="midnightblue" d="M295.7,-10C283.15,-10 270.14,-10 258.01,-10"/>
</g>
</g>
</svg>
