<?xml version="1.0" encoding="UTF-8" standalone="no"?>
<!DOCTYPE svg PUBLIC "-//W3C//DTD SVG 1.1//EN"
 "http://www.w3.org/Graphics/SVG/1.1/DTD/svg11.dtd">
<!-- Generated by graphviz version 2.43.0 (0)
 -->
<!-- Title: Sinex_sat_snx_t Pages: 1 -->
<svg width="270pt" height="402pt"
 viewBox="0.00 0.00 269.50 402.00" xmlns="http://www.w3.org/2000/svg" xmlns:xlink="http://www.w3.org/1999/xlink">
<g id="graph0" class="graph" transform="scale(1 1) rotate(0) translate(4 398)">
<title>Sinex_sat_snx_t</title>
<polygon fill="white" stroke="transparent" points="-4,4 -4,-398 265.5,-398 265.5,4 -4,4"/>
<!-- Node1 -->
<g id="node1" class="node">
<title>Node1</title>
<g id="a_node1"><a xlink:title=" ">
<polygon fill="#bfbfbf" stroke="black" points="54.5,-0.5 54.5,-156.5 149.5,-156.5 149.5,-0.5 54.5,-0.5"/>
<text text-anchor="middle" x="102" y="-144.5" font-family="Helvetica,sans-Serif" font-size="10.00">Sinex_sat_snx_t</text>
<polyline fill="none" stroke="black" points="54.5,-137.5 149.5,-137.5 "/>
<text text-anchor="start" x="62.5" y="-125.5" font-family="Helvetica,sans-Serif" font-size="10.00">+ category</text>
<text text-anchor="start" x="62.5" y="-114.5" font-family="Helvetica,sans-Serif" font-size="10.00">+ mass</text>
<text text-anchor="start" x="62.5" y="-103.5" font-family="Helvetica,sans-Serif" font-size="10.00">+ channel</text>
<text text-anchor="start" x="62.5" y="-92.5" font-family="Helvetica,sans-Serif" font-size="10.00">+ power</text>
<text text-anchor="start" x="62.5" y="-81.5" font-family="Helvetica,sans-Serif" font-size="10.00">+ numeccs</text>
<text text-anchor="start" x="62.5" y="-70.5" font-family="Helvetica,sans-Serif" font-size="10.00">+ ecctype</text>
<text text-anchor="start" x="62.5" y="-59.5" font-family="Helvetica,sans-Serif" font-size="10.00">+ numfreqs</text>
<text text-anchor="start" x="62.5" y="-48.5" font-family="Helvetica,sans-Serif" font-size="10.00">+ freq</text>
<text text-anchor="start" x="62.5" y="-37.5" font-family="Helvetica,sans-Serif" font-size="10.00">+ pctype</text>
<text text-anchor="start" x="62.5" y="-26.5" font-family="Helvetica,sans-Serif" font-size="10.00">+ pcmodel</text>
<polyline fill="none" stroke="black" points="54.5,-19.5 149.5,-19.5 "/>
<text text-anchor="middle" x="102" y="-7.5" font-family="Helvetica,sans-Serif" font-size="10.00"> </text>
</a>
</g>
</g>
<!-- Node2 -->
<g id="node2" class="node">
<title>Node2</title>
<g id="a_node2"><a xlink:title=" ">
<polygon fill="white" stroke="black" points="0,-298 0,-355 44,-355 44,-298 0,-298"/>
<text text-anchor="middle" x="22" y="-343" font-family="Helvetica,sans-Serif" font-size="10.00">string</text>
<polyline fill="none" stroke="black" points="0,-336 44,-336 "/>
<text text-anchor="middle" x="22" y="-324" font-family="Helvetica,sans-Serif" font-size="10.00"> </text>
<polyline fill="none" stroke="black" points="0,-317 44,-317 "/>
<text text-anchor="middle" x="22" y="-305" font-family="Helvetica,sans-Serif" font-size="10.00"> </text>
</a>
</g>
</g>
<!-- Node2&#45;&gt;Node1 -->
<g id="edge1" class="edge">
<title>Node2&#45;&gt;Node1</title>
<path fill="none" stroke="#404040" d="M21.89,-297.74C22.58,-266.88 26.18,-215.99 41,-175 44.55,-165.19 49.24,-155.36 54.45,-145.92"/>
<text text-anchor="middle" x="69.5" y="-233" font-family="Helvetica,sans-Serif" font-size="10.00"> +antenna</text>
<text text-anchor="middle" x="69.5" y="-222" font-family="Helvetica,sans-Serif" font-size="10.00">+blocktype</text>
<text text-anchor="middle" x="69.5" y="-211" font-family="Helvetica,sans-Serif" font-size="10.00">+cospar</text>
<text text-anchor="middle" x="69.5" y="-200" font-family="Helvetica,sans-Serif" font-size="10.00">+eccequip</text>
<text text-anchor="middle" x="69.5" y="-189" font-family="Helvetica,sans-Serif" font-size="10.00">+prn</text>
<text text-anchor="middle" x="69.5" y="-178" font-family="Helvetica,sans-Serif" font-size="10.00">+svn</text>
</g>
<!-- Node3 -->
<g id="node3" class="node">
<title>Node3</title>
<g id="a_node3"><a xlink:title=" ">
<polygon fill="white" stroke="black" points="72,-298 72,-355 132,-355 132,-298 72,-298"/>
<text text-anchor="middle" x="102" y="-343" font-family="Helvetica,sans-Serif" font-size="10.00">Vector3d</text>
<polyline fill="none" stroke="black" points="72,-336 132,-336 "/>
<text text-anchor="middle" x="102" y="-324" font-family="Helvetica,sans-Serif" font-size="10.00"> </text>
<polyline fill="none" stroke="black" points="72,-317 132,-317 "/>
<text text-anchor="middle" x="102" y="-305" font-family="Helvetica,sans-Serif" font-size="10.00"> </text>
</a>
</g>
</g>
<!-- Node3&#45;&gt;Node1 -->
<g id="edge2" class="edge">
<title>Node3&#45;&gt;Node1</title>
<path fill="none" stroke="#404040" d="M102,-297.76C102,-263.77 102,-204.77 102,-156.68"/>
<text text-anchor="middle" x="135" y="-216.5" font-family="Helvetica,sans-Serif" font-size="10.00"> +com</text>
<text text-anchor="middle" x="135" y="-205.5" font-family="Helvetica,sans-Serif" font-size="10.00">+eccentricity</text>
<text text-anchor="middle" x="135" y="-194.5" font-family="Helvetica,sans-Serif" font-size="10.00">+zxy</text>
</g>
<!-- Node4 -->
<g id="node4" class="node">
<title>Node4</title>
<g id="a_node4"><a xlink:href="structUYds.html" target="_top" xlink:title=" ">
<polygon fill="white" stroke="red" points="150.5,-259.5 150.5,-393.5 261.5,-393.5 261.5,-259.5 150.5,-259.5"/>
<text text-anchor="middle" x="206" y="-381.5" font-family="Helvetica,sans-Serif" font-size="10.00">UYds</text>
<polyline fill="none" stroke="red" points="150.5,-374.5 261.5,-374.5 "/>
<text text-anchor="start" x="158.5" y="-362.5" font-family="Helvetica,sans-Serif" font-size="10.00">+ year</text>
<text text-anchor="start" x="158.5" y="-351.5" font-family="Helvetica,sans-Serif" font-size="10.00">+ doy</text>
<text text-anchor="start" x="158.5" y="-340.5" font-family="Helvetica,sans-Serif" font-size="10.00">+ sod</text>
<polyline fill="none" stroke="red" points="150.5,-333.5 261.5,-333.5 "/>
<text text-anchor="start" x="158.5" y="-321.5" font-family="Helvetica,sans-Serif" font-size="10.00">+ UYds()</text>
<text text-anchor="start" x="158.5" y="-310.5" font-family="Helvetica,sans-Serif" font-size="10.00">+ operator=()</text>
<text text-anchor="start" x="158.5" y="-299.5" font-family="Helvetica,sans-Serif" font-size="10.00">+ UYds()</text>
<text text-anchor="start" x="158.5" y="-288.5" font-family="Helvetica,sans-Serif" font-size="10.00">+ operator+=()</text>
<text text-anchor="start" x="158.5" y="-277.5" font-family="Helvetica,sans-Serif" font-size="10.00">+ operator=()</text>
<text text-anchor="start" x="158.5" y="-266.5" font-family="Helvetica,sans-Serif" font-size="10.00">+ operator GTime()</text>
</a>
</g>
</g>
<!-- Node4&#45;&gt;Node1 -->
<g id="edge3" class="edge">
<title>Node4&#45;&gt;Node1</title>
<path fill="none" stroke="#404040" d="M197.07,-259.16C191.92,-232.23 183.99,-201.33 172,-175 165.99,-161.81 157.99,-148.64 149.54,-136.49"/>
<text text-anchor="middle" x="209" y="-211" font-family="Helvetica,sans-Serif" font-size="10.00"> +start</text>
<text text-anchor="middle" x="209" y="-200" font-family="Helvetica,sans-Serif" font-size="10.00">+stop</text>
</g>
</g>
</svg>
