<?xml version="1.0" encoding="UTF-8" standalone="no"?>
<!DOCTYPE svg PUBLIC "-//W3C//DTD SVG 1.1//EN"
 "http://www.w3.org/Graphics/SVG/1.1/DTD/svg11.dtd">
<!-- Generated by graphviz version 2.43.0 (0)
 -->
<!-- Title: UbxDecoder Pages: 1 -->
<!--zoomable 463 -->
<svg id="main" version="1.1" xmlns="http://www.w3.org/2000/svg" xmlns:xlink="http://www.w3.org/1999/xlink" xml:space="preserve" onload="init(evt)">
<style type="text/css"><![CDATA[
.edge:hover path { stroke: red; }
.edge:hover polygon { stroke: red; fill: red; }
]]></style>
<script type="text/javascript"><![CDATA[
var edges = document.getElementsByTagName('g');
if (edges && edges.length) {
  for (var i=0;i<edges.length;i++) {
    if (edges[i].id.substr(0,4)=='edge') {
      edges[i].setAttribute('class','edge');
    }
  }
}
]]></script>
        <defs>
                <circle id="rim" cx="0" cy="0" r="7"/>
                <circle id="rim2" cx="0" cy="0" r="3.5"/>
                <g id="zoomPlus">
                        <use xlink:href="#rim" fill="#404040">
                                <set attributeName="fill" to="#808080" begin="zoomplus.mouseover" end="zoomplus.mouseout"/>
                        </use>
                        <path d="M-4,0h8M0,-4v8" fill="none" stroke="white" stroke-width="1.5" pointer-events="none"/>
                </g>
                <g id="zoomMin">
                        <use xlink:href="#rim" fill="#404040">
                                <set attributeName="fill" to="#808080" begin="zoomminus.mouseover" end="zoomminus.mouseout"/>
                        </use>
                        <path d="M-4,0h8" fill="none" stroke="white" stroke-width="1.5" pointer-events="none"/>
                </g>
                <g id="dirArrow">
                        <path fill="none" stroke="white" stroke-width="1.5" d="M0,-3.0v7 M-2.5,-0.5L0,-3.0L2.5,-0.5"/>
                </g>
               <g id="resetDef">
                       <use xlink:href="#rim2" fill="#404040">
                               <set attributeName="fill" to="#808080" begin="reset.mouseover" end="reset.mouseout"/>
                       </use>
               </g>
        </defs>

<script type="text/javascript">
var viewWidth = 250;
var viewHeight = 463;
var sectionId = 'dynsection-0';
</script>
<script xlink:href="svgpan.js"/>
<svg id="graph" class="graph">
<g id="viewport">
<title>UbxDecoder</title>
<polygon fill="white" stroke="transparent" points="-4,4 -4,-459 245.5,-459 245.5,4 -4,4"/>
<!-- Node1 -->
<g id="node1" class="node">
<title>Node1</title>
<g id="a_node1"><a xlink:title=" ">
<polygon fill="#bfbfbf" stroke="black" points="42.5,-105.5 42.5,-305.5 167.5,-305.5 167.5,-105.5 42.5,-105.5"/>
<text text-anchor="middle" x="105" y="-293.5" font-family="Helvetica,sans-Serif" font-size="10.00">UbxDecoder</text>
<polyline fill="none" stroke="black" points="42.5,-286.5 167.5,-286.5 "/>
<text text-anchor="start" x="50.5" y="-274.5" font-family="Helvetica,sans-Serif" font-size="10.00">+ lastTimeTag</text>
<text text-anchor="start" x="50.5" y="-263.5" font-family="Helvetica,sans-Serif" font-size="10.00">+ lastTime</text>
<text text-anchor="start" x="50.5" y="-252.5" font-family="Helvetica,sans-Serif" font-size="10.00">+ recId</text>
<text text-anchor="start" x="50.5" y="-241.5" font-family="Helvetica,sans-Serif" font-size="10.00">+ raw_ubx_filename</text>
<text text-anchor="start" x="50.5" y="-230.5" font-family="Helvetica,sans-Serif" font-size="10.00">+ gyroDataMaps</text>
<text text-anchor="start" x="50.5" y="-219.5" font-family="Helvetica,sans-Serif" font-size="10.00">+ acclDataMaps</text>
<text text-anchor="start" x="50.5" y="-208.5" font-family="Helvetica,sans-Serif" font-size="10.00">+ tempDataMaps</text>
<polyline fill="none" stroke="black" points="42.5,-201.5 167.5,-201.5 "/>
<text text-anchor="start" x="50.5" y="-189.5" font-family="Helvetica,sans-Serif" font-size="10.00">+ decodeEphFrames()</text>
<text text-anchor="start" x="50.5" y="-178.5" font-family="Helvetica,sans-Serif" font-size="10.00">+ decodeRAWX()</text>
<text text-anchor="start" x="50.5" y="-167.5" font-family="Helvetica,sans-Serif" font-size="10.00">+ decodeSFRBX()</text>
<text text-anchor="start" x="50.5" y="-156.5" font-family="Helvetica,sans-Serif" font-size="10.00">+ decodeMEAS()</text>
<text text-anchor="start" x="50.5" y="-145.5" font-family="Helvetica,sans-Serif" font-size="10.00">+ decodeRXM()</text>
<text text-anchor="start" x="50.5" y="-134.5" font-family="Helvetica,sans-Serif" font-size="10.00">+ decodeESF()</text>
<text text-anchor="start" x="50.5" y="-123.5" font-family="Helvetica,sans-Serif" font-size="10.00">+ decode()</text>
<text text-anchor="start" x="50.5" y="-112.5" font-family="Helvetica,sans-Serif" font-size="10.00">+ recordFrame()</text>
</a>
</g>
</g>
<!-- Node4 -->
<g id="node4" class="node">
<title>Node4</title>
<g id="a_node4"><a xlink:href="structUbxParser.html" target="_top" xlink:title=" ">
<polygon fill="white" stroke="black" points="60.5,-0.5 60.5,-68.5 149.5,-68.5 149.5,-0.5 60.5,-0.5"/>
<text text-anchor="middle" x="105" y="-56.5" font-family="Helvetica,sans-Serif" font-size="10.00">UbxParser</text>
<polyline fill="none" stroke="black" points="60.5,-49.5 149.5,-49.5 "/>
<text text-anchor="middle" x="105" y="-37.5" font-family="Helvetica,sans-Serif" font-size="10.00"> </text>
<polyline fill="none" stroke="black" points="60.5,-30.5 149.5,-30.5 "/>
<text text-anchor="start" x="68.5" y="-18.5" font-family="Helvetica,sans-Serif" font-size="10.00">+ parse()</text>
<text text-anchor="start" x="68.5" y="-7.5" font-family="Helvetica,sans-Serif" font-size="10.00">+ parserType()</text>
</a>
</g>
</g>
<!-- Node1&#45;&gt;Node4 -->
<g id="edge3" class="edge">
<title>Node1&#45;&gt;Node4</title>
<path fill="none" stroke="midnightblue" d="M105,-94.92C105,-85.58 105,-76.68 105,-68.75"/>
<polygon fill="none" stroke="midnightblue" points="101.5,-95.21 105,-105.21 108.5,-95.21 101.5,-95.21"/>
</g>
<!-- Node2 -->
<g id="node2" class="node">
<title>Node2</title>
<g id="a_node2"><a xlink:href="structObsLister.html" target="_top" xlink:title=" ">
<polygon fill="white" stroke="black" points="0,-370 0,-427 80,-427 80,-370 0,-370"/>
<text text-anchor="middle" x="40" y="-415" font-family="Helvetica,sans-Serif" font-size="10.00">ObsLister</text>
<polyline fill="none" stroke="black" points="0,-408 80,-408 "/>
<text text-anchor="start" x="8" y="-396" font-family="Helvetica,sans-Serif" font-size="10.00">+ obsListList</text>
<polyline fill="none" stroke="black" points="0,-389 80,-389 "/>
<text text-anchor="middle" x="40" y="-377" font-family="Helvetica,sans-Serif" font-size="10.00"> </text>
</a>
</g>
</g>
<!-- Node2&#45;&gt;Node1 -->
<g id="edge1" class="edge">
<title>Node2&#45;&gt;Node1</title>
<path fill="none" stroke="midnightblue" d="M52.79,-359.92C58.14,-344.21 64.63,-325.13 71.19,-305.85"/>
<polygon fill="none" stroke="midnightblue" points="49.36,-359.13 49.45,-369.73 55.99,-361.39 49.36,-359.13"/>
</g>
<!-- Node3 -->
<g id="node3" class="node">
<title>Node3</title>
<g id="a_node3"><a xlink:href="structIcdDecoder.html" target="_top" xlink:title=" ">
<polygon fill="white" stroke="black" points="98.5,-342.5 98.5,-454.5 241.5,-454.5 241.5,-342.5 98.5,-342.5"/>
<text text-anchor="middle" x="170" y="-442.5" font-family="Helvetica,sans-Serif" font-size="10.00">IcdDecoder</text>
<polyline fill="none" stroke="black" points="98.5,-435.5 241.5,-435.5 "/>
<text text-anchor="start" x="106.5" y="-423.5" font-family="Helvetica,sans-Serif" font-size="10.00">+ subframeMap</text>
<polyline fill="none" stroke="black" points="98.5,-416.5 241.5,-416.5 "/>
<text text-anchor="start" x="106.5" y="-404.5" font-family="Helvetica,sans-Serif" font-size="10.00">+ decodeGpsTlmWord()</text>
<text text-anchor="start" x="106.5" y="-393.5" font-family="Helvetica,sans-Serif" font-size="10.00">+ decodeGpsHowWord()</text>
<text text-anchor="start" x="106.5" y="-382.5" font-family="Helvetica,sans-Serif" font-size="10.00">+ decodeGPSSubframe1()</text>
<text text-anchor="start" x="106.5" y="-371.5" font-family="Helvetica,sans-Serif" font-size="10.00">+ decodeGPSSubframe2()</text>
<text text-anchor="start" x="106.5" y="-360.5" font-family="Helvetica,sans-Serif" font-size="10.00">+ decodeGPSSubframe3()</text>
<text text-anchor="start" x="106.5" y="-349.5" font-family="Helvetica,sans-Serif" font-size="10.00">+ decodeGpsSubframe()</text>
</a>
</g>
</g>
<!-- Node3&#45;&gt;Node1 -->
<g id="edge2" class="edge">
<title>Node3&#45;&gt;Node1</title>
<path fill="none" stroke="midnightblue" d="M147.9,-332.57C144.93,-323.83 141.82,-314.7 138.7,-305.54"/>
<polygon fill="none" stroke="midnightblue" points="144.66,-333.92 151.2,-342.25 151.29,-331.66 144.66,-333.92"/>
</g>
</g>
</svg>
        <g id="navigator" transform="translate(0 0)" fill="#404254">
                <rect fill="#f2f5e9" fill-opacity="0.5" stroke="#606060" stroke-width=".5" x="0" y="0" width="60" height="60"/>
                <use id="zoomplus" xlink:href="#zoomPlus" x="17" y="9" onmousedown="handleZoom(evt,'in')"/>
                <use id="zoomminus" xlink:href="#zoomMin" x="42" y="9" onmousedown="handleZoom(evt,'out')"/>
                <use id="reset" xlink:href="#resetDef" x="30" y="36" onmousedown="handleReset()"/>
                <g id="arrowUp" xlink:href="#dirArrow" transform="translate(30 24)" onmousedown="handlePan(0,-1)">
                  <use xlink:href="#rim" fill="#404040">
                        <set attributeName="fill" to="#808080" begin="arrowUp.mouseover" end="arrowUp.mouseout"/>
                  </use>
                  <path fill="none" stroke="white" stroke-width="1.5" d="M0,-3.0v7 M-2.5,-0.5L0,-3.0L2.5,-0.5"/>
                </g>
                <g id="arrowRight" xlink:href="#dirArrow" transform="rotate(90) translate(36 -43)" onmousedown="handlePan(1,0)">
                  <use xlink:href="#rim" fill="#404040">
                        <set attributeName="fill" to="#808080" begin="arrowRight.mouseover" end="arrowRight.mouseout"/>
                  </use>
                  <path fill="none" stroke="white" stroke-width="1.5" d="M0,-3.0v7 M-2.5,-0.5L0,-3.0L2.5,-0.5"/>
                </g>
                <g id="arrowDown" xlink:href="#dirArrow" transform="rotate(180) translate(-30 -48)" onmousedown="handlePan(0,1)">
                  <use xlink:href="#rim" fill="#404040">
                        <set attributeName="fill" to="#808080" begin="arrowDown.mouseover" end="arrowDown.mouseout"/>
                  </use>
                  <path fill="none" stroke="white" stroke-width="1.5" d="M0,-3.0v7 M-2.5,-0.5L0,-3.0L2.5,-0.5"/>
                </g>
                <g id="arrowLeft" xlink:href="#dirArrow" transform="rotate(270) translate(-36 17)" onmousedown="handlePan(-1,0)">
                  <use xlink:href="#rim" fill="#404040">
                        <set attributeName="fill" to="#808080" begin="arrowLeft.mouseover" end="arrowLeft.mouseout"/>
                  </use>
                  <path fill="none" stroke="white" stroke-width="1.5" d="M0,-3.0v7 M-2.5,-0.5L0,-3.0L2.5,-0.5"/>
                </g>
        </g>
        <svg viewBox="0 0 15 15" width="100%" height="30px" preserveAspectRatio="xMaxYMin meet">
         <g id="arrow_out" transform="scale(0.3 0.3)">
          <a xlink:href="structUbxDecoder__inherit__graph_org.svg" target="_base">
           <rect id="button" ry="5" rx="5" y="6" x="6" height="38" width="38"
                fill="#f2f5e9" fill-opacity="0.5" stroke="#606060" stroke-width="1.0"/>
           <path id="arrow"
             d="M 11.500037,31.436501 C 11.940474,20.09759 22.043105,11.32322 32.158766,21.979434 L 37.068811,17.246167 C 37.068811,17.246167 37.088388,32 37.088388,32 L 22.160133,31.978069 C 22.160133,31.978069 26.997745,27.140456 26.997745,27.140456 C 18.528582,18.264221 13.291696,25.230495 11.500037,31.436501 z"
             style="fill:#404040;"/>
          </a>
         </g>
        </svg>
</svg>
