<?xml version="1.0" encoding="UTF-8" standalone="no"?>
<!DOCTYPE svg PUBLIC "-//W3C//DTD SVG 1.1//EN"
 "http://www.w3.org/Graphics/SVG/1.1/DTD/svg11.dtd">
<!-- Generated by graphviz version 2.43.0 (0)
 -->
<!-- Title: FileRinexStream Pages: 1 -->
<svg width="254pt" height="292pt"
 viewBox="0.00 0.00 253.50 292.00" xmlns="http://www.w3.org/2000/svg" xmlns:xlink="http://www.w3.org/1999/xlink">
<g id="graph0" class="graph" transform="scale(1 1) rotate(0) translate(4 288)">
<title>FileRinexStream</title>
<polygon fill="white" stroke="transparent" points="-4,4 -4,-288 249.5,-288 249.5,4 -4,4"/>
<!-- Node1 -->
<g id="node1" class="node">
<title>Node1</title>
<g id="a_node1"><a xlink:title="Object that streams RINEX data from a file.">
<polygon fill="#bfbfbf" stroke="black" points="62,-0.5 62,-112.5 177,-112.5 177,-0.5 62,-0.5"/>
<text text-anchor="middle" x="119.5" y="-100.5" font-family="Helvetica,sans-Serif" font-size="10.00">FileRinexStream</text>
<polyline fill="none" stroke="black" points="62,-93.5 177,-93.5 "/>
<text text-anchor="start" x="70" y="-81.5" font-family="Helvetica,sans-Serif" font-size="10.00">+ lastObsListSize</text>
<polyline fill="none" stroke="black" points="62,-74.5 177,-74.5 "/>
<text text-anchor="start" x="70" y="-62.5" font-family="Helvetica,sans-Serif" font-size="10.00">+ FileRinexStream()</text>
<text text-anchor="start" x="70" y="-51.5" font-family="Helvetica,sans-Serif" font-size="10.00">+ FileRinexStream()</text>
<text text-anchor="start" x="70" y="-40.5" font-family="Helvetica,sans-Serif" font-size="10.00">+ open()</text>
<text text-anchor="start" x="70" y="-29.5" font-family="Helvetica,sans-Serif" font-size="10.00">+ getObs()</text>
<text text-anchor="start" x="70" y="-18.5" font-family="Helvetica,sans-Serif" font-size="10.00">+ parse()</text>
<text text-anchor="start" x="70" y="-7.5" font-family="Helvetica,sans-Serif" font-size="10.00">+ isDead()</text>
</a>
</g>
</g>
<!-- Node2 -->
<g id="node2" class="node">
<title>Node2</title>
<g id="a_node2"><a xlink:href="structACSFileStream.html" target="_top" xlink:title="Interface to be used for file streams.">
<polygon fill="white" stroke="black" points="0,-171.5 0,-261.5 107,-261.5 107,-171.5 0,-171.5"/>
<text text-anchor="middle" x="53.5" y="-249.5" font-family="Helvetica,sans-Serif" font-size="10.00">ACSFileStream</text>
<polyline fill="none" stroke="black" points="0,-242.5 107,-242.5 "/>
<text text-anchor="start" x="8" y="-230.5" font-family="Helvetica,sans-Serif" font-size="10.00">+ path</text>
<text text-anchor="start" x="8" y="-219.5" font-family="Helvetica,sans-Serif" font-size="10.00">+ filePos</text>
<polyline fill="none" stroke="black" points="0,-212.5 107,-212.5 "/>
<text text-anchor="start" x="8" y="-200.5" font-family="Helvetica,sans-Serif" font-size="10.00">+ ACSFileStream()</text>
<text text-anchor="start" x="8" y="-189.5" font-family="Helvetica,sans-Serif" font-size="10.00">+ setPath()</text>
<text text-anchor="start" x="8" y="-178.5" font-family="Helvetica,sans-Serif" font-size="10.00">+ openFile()</text>
</a>
</g>
</g>
<!-- Node2&#45;&gt;Node1 -->
<g id="edge1" class="edge">
<title>Node2&#45;&gt;Node1</title>
<path fill="none" stroke="midnightblue" d="M71.88,-171.49C79.51,-153.23 88.45,-131.84 96.5,-112.55"/>
</g>
<!-- Node3 -->
<g id="node3" class="node">
<title>Node3</title>
<g id="a_node3"><a xlink:href="structRinexStream.html" target="_top" xlink:title="Interface for rinex streams.">
<polygon fill="white" stroke="red" points="125.5,-149.5 125.5,-283.5 245.5,-283.5 245.5,-149.5 125.5,-149.5"/>
<text text-anchor="middle" x="185.5" y="-271.5" font-family="Helvetica,sans-Serif" font-size="10.00">RinexStream</text>
<polyline fill="none" stroke="red" points="125.5,-264.5 245.5,-264.5 "/>
<text text-anchor="start" x="133.5" y="-252.5" font-family="Helvetica,sans-Serif" font-size="10.00">+ ctype</text>
<text text-anchor="start" x="133.5" y="-241.5" font-family="Helvetica,sans-Serif" font-size="10.00">+ version</text>
<text text-anchor="start" x="133.5" y="-230.5" font-family="Helvetica,sans-Serif" font-size="10.00">+ nav_system</text>
<text text-anchor="start" x="133.5" y="-219.5" font-family="Helvetica,sans-Serif" font-size="10.00">+ time_system</text>
<text text-anchor="start" x="133.5" y="-208.5" font-family="Helvetica,sans-Serif" font-size="10.00">+ sysCodeTypes</text>
<text text-anchor="start" x="133.5" y="-197.5" font-family="Helvetica,sans-Serif" font-size="10.00">+ tempObsList</text>
<polyline fill="none" stroke="red" points="125.5,-190.5 245.5,-190.5 "/>
<text text-anchor="start" x="133.5" y="-178.5" font-family="Helvetica,sans-Serif" font-size="10.00">+ RinexStream()</text>
<text text-anchor="start" x="133.5" y="-167.5" font-family="Helvetica,sans-Serif" font-size="10.00">+ parseRINEX()</text>
<text text-anchor="start" x="133.5" y="-156.5" font-family="Helvetica,sans-Serif" font-size="10.00">+ readRinexHeader()</text>
</a>
</g>
</g>
<!-- Node3&#45;&gt;Node1 -->
<g id="edge2" class="edge">
<title>Node3&#45;&gt;Node1</title>
<path fill="none" stroke="midnightblue" d="M157.89,-149.41C152.81,-137.23 147.54,-124.63 142.61,-112.82"/>
</g>
</g>
</svg>
