<?xml version="1.0" encoding="UTF-8" standalone="no"?>
<!DOCTYPE svg PUBLIC "-//W3C//DTD SVG 1.1//EN"
 "http://www.w3.org/Graphics/SVG/1.1/DTD/svg11.dtd">
<!-- Generated by graphviz version 2.43.0 (0)
 -->
<!-- Title: KFState::setKFTransRate Pages: 1 -->
<svg width="285pt" height="332pt"
 viewBox="0.00 0.00 285.00 332.00" xmlns="http://www.w3.org/2000/svg" xmlns:xlink="http://www.w3.org/1999/xlink">
<g id="graph0" class="graph" transform="scale(1 1) rotate(0) translate(4 328)">
<title>KFState::setKFTransRate</title>
<polygon fill="white" stroke="transparent" points="-4,4 -4,-328 281,-328 281,4 -4,4"/>
<!-- Node1 -->
<g id="node1" class="node">
<title>Node1</title>
<g id="a_node1"><a xlink:title="Adds dynamics to a filter state by inserting off&#45;diagonal, time dependent elements to transition matr...">
<polygon fill="#bfbfbf" stroke="black" points="140,-152.5 140,-171.5 277,-171.5 277,-152.5 140,-152.5"/>
<text text-anchor="middle" x="208.5" y="-159.5" font-family="Helvetica,sans-Serif" font-size="10.00">KFState::setKFTransRate</text>
</a>
</g>
</g>
<!-- Node2 -->
<g id="node2" class="node">
<title>Node2</title>
<g id="a_node2"><a xlink:href="walkthrough_8cpp.html#aff7ddc151473d418c066b30f06e6b42e" target="_top" xlink:title=" ">
<polygon fill="white" stroke="red" points="10.5,-304.5 10.5,-323.5 93.5,-323.5 93.5,-304.5 10.5,-304.5"/>
<text text-anchor="middle" x="52" y="-311.5" font-family="Helvetica,sans-Serif" font-size="10.00">walkthrough2</text>
</a>
</g>
</g>
<!-- Node1&#45;&gt;Node2 -->
<g id="edge1" class="edge">
<title>Node1&#45;&gt;Node2</title>
<path fill="none" stroke="midnightblue" d="M202.57,-171.51C189.64,-195.58 152.36,-259.52 104,-295 98.82,-298.8 92.79,-301.92 86.74,-304.46"/>
</g>
<!-- Node7 -->
<g id="node3" class="node">
<title>Node7</title>
<g id="a_node3"><a xlink:href="orbitProp_8cpp.html#a310eb410ad9abe11d99a01fb446c1036" target="_top" xlink:title="Apply the prediction using the filter&#39;s state transition.">
<polygon fill="white" stroke="red" points="15.5,-266.5 15.5,-285.5 88.5,-285.5 88.5,-266.5 15.5,-266.5"/>
<text text-anchor="middle" x="52" y="-273.5" font-family="Helvetica,sans-Serif" font-size="10.00">applyOrbits</text>
</a>
</g>
</g>
<!-- Node1&#45;&gt;Node7 -->
<g id="edge2" class="edge">
<title>Node1&#45;&gt;Node7</title>
<path fill="none" stroke="midnightblue" d="M199.33,-171.67C182.98,-190.47 144.35,-232.28 104,-257 97.96,-260.7 91.08,-263.87 84.37,-266.49"/>
</g>
<!-- Node14 -->
<g id="node4" class="node">
<title>Node14</title>
<g id="a_node4"><a xlink:href="networkEstimator_8cpp.html#a36828506971a6b66c6e61db51197c9e1" target="_top" xlink:title="Estimates parameters for a network of stations simultaneously.">
<polygon fill="white" stroke="red" points="0,-228.5 0,-247.5 104,-247.5 104,-228.5 0,-228.5"/>
<text text-anchor="middle" x="52" y="-235.5" font-family="Helvetica,sans-Serif" font-size="10.00">networkEstimator</text>
</a>
</g>
</g>
<!-- Node1&#45;&gt;Node14 -->
<g id="edge3" class="edge">
<title>Node1&#45;&gt;Node14</title>
<path fill="none" stroke="midnightblue" d="M191.74,-171.63C171.77,-183.62 136.07,-204.29 104,-219 96.61,-222.39 88.43,-225.64 80.83,-228.47"/>
</g>
<!-- Node15 -->
<g id="node5" class="node">
<title>Node15</title>
<g id="a_node5"><a xlink:href="ppp__pseudoobs_8cpp.html#aa248470eac1bf78565ee912282a5894d" target="_top" xlink:title=" ">
<polygon fill="white" stroke="red" points="0,-190.5 0,-209.5 104,-209.5 104,-190.5 0,-190.5"/>
<text text-anchor="middle" x="52" y="-197.5" font-family="Helvetica,sans-Serif" font-size="10.00">stationPseudoObs</text>
</a>
</g>
</g>
<!-- Node1&#45;&gt;Node15 -->
<g id="edge4" class="edge">
<title>Node1&#45;&gt;Node15</title>
<path fill="none" stroke="midnightblue" d="M168.51,-171.59C145,-177.37 115.17,-184.71 91.71,-190.48"/>
</g>
<!-- Node16 -->
<g id="node6" class="node">
<title>Node16</title>
<g id="a_node6"><a xlink:href="ppp__obs_8cpp.html#aa6a7c175b1b4ea3c417b058d36edc96d" target="_top" xlink:title=" ">
<polygon fill="white" stroke="red" points="18,-152.5 18,-171.5 86,-171.5 86,-152.5 18,-152.5"/>
<text text-anchor="middle" x="52" y="-159.5" font-family="Helvetica,sans-Serif" font-size="10.00">stationPPP</text>
</a>
</g>
</g>
<!-- Node1&#45;&gt;Node16 -->
<g id="edge5" class="edge">
<title>Node1&#45;&gt;Node16</title>
<path fill="none" stroke="midnightblue" d="M139.73,-162C121.25,-162 102.03,-162 86.39,-162"/>
</g>
<!-- Node17 -->
<g id="node7" class="node">
<title>Node17</title>
<g id="a_node7"><a xlink:href="ppp__pseudoobs_8cpp.html#a7d44bfc5636f42952bed064438699ba7" target="_top" xlink:title=" ">
<polygon fill="white" stroke="red" points="9,-114.5 9,-133.5 95,-133.5 95,-114.5 9,-114.5"/>
<text text-anchor="middle" x="52" y="-121.5" font-family="Helvetica,sans-Serif" font-size="10.00">initPseudoObs</text>
</a>
</g>
</g>
<!-- Node1&#45;&gt;Node17 -->
<g id="edge6" class="edge">
<title>Node1&#45;&gt;Node17</title>
<path fill="none" stroke="midnightblue" d="M168.51,-152.41C145,-146.63 115.17,-139.29 91.71,-133.52"/>
</g>
<!-- Node18 -->
<g id="node8" class="node">
<title>Node18</title>
<g id="a_node8"><a xlink:href="ppp__pseudoobs_8cpp.html#a949a10f89de8232ebeb49ad5d912ba80" target="_top" xlink:title=" ">
<polygon fill="white" stroke="red" points="5.5,-76.5 5.5,-95.5 98.5,-95.5 98.5,-76.5 5.5,-76.5"/>
<text text-anchor="middle" x="52" y="-83.5" font-family="Helvetica,sans-Serif" font-size="10.00">orbitPseudoObs</text>
</a>
</g>
</g>
<!-- Node1&#45;&gt;Node18 -->
<g id="edge7" class="edge">
<title>Node1&#45;&gt;Node18</title>
<path fill="none" stroke="midnightblue" d="M191.74,-152.37C171.77,-140.38 136.07,-119.71 104,-105 96.61,-101.61 88.43,-98.36 80.83,-95.53"/>
</g>
<!-- Node19 -->
<g id="node9" class="node">
<title>Node19</title>
<g id="a_node9"><a xlink:href="ppp__slr_8cpp.html#a8a0fd95f3ae58d8d033b52aa2811c60c" target="_top" xlink:title=" ">
<polygon fill="white" stroke="red" points="20.5,-38.5 20.5,-57.5 83.5,-57.5 83.5,-38.5 20.5,-38.5"/>
<text text-anchor="middle" x="52" y="-45.5" font-family="Helvetica,sans-Serif" font-size="10.00">stationSlr</text>
</a>
</g>
</g>
<!-- Node1&#45;&gt;Node19 -->
<g id="edge8" class="edge">
<title>Node1&#45;&gt;Node19</title>
<path fill="none" stroke="midnightblue" d="M199.33,-152.33C182.98,-133.53 144.35,-91.72 104,-67 97.72,-63.15 90.53,-59.88 83.57,-57.2"/>
</g>
<!-- Node11 -->
<g id="node10" class="node">
<title>Node11</title>
<g id="a_node10"><a xlink:href="ppp__user_8cpp.html#a36a79c2aba8e8ad20aa9616988ec3269" target="_top" xlink:title=" ">
<polygon fill="white" stroke="red" points="20.5,-0.5 20.5,-19.5 83.5,-19.5 83.5,-0.5 20.5,-0.5"/>
<text text-anchor="middle" x="52" y="-7.5" font-family="Helvetica,sans-Serif" font-size="10.00">ppp_filter</text>
</a>
</g>
</g>
<!-- Node1&#45;&gt;Node11 -->
<g id="edge9" class="edge">
<title>Node1&#45;&gt;Node11</title>
<path fill="none" stroke="midnightblue" d="M202.57,-152.49C189.64,-128.42 152.36,-64.48 104,-29 97.91,-24.53 90.64,-21 83.53,-18.25"/>
</g>
</g>
</svg>
