<?xml version="1.0" encoding="UTF-8" standalone="no"?>
<!DOCTYPE svg PUBLIC "-//W3C//DTD SVG 1.1//EN"
 "http://www.w3.org/Graphics/SVG/1.1/DTD/svg11.dtd">
<!-- Generated by graphviz version 2.43.0 (0)
 -->
<!-- Title: SinexParser::nearestYear Pages: 1 -->
<svg width="388pt" height="66pt"
 viewBox="0.00 0.00 388.00 66.00" xmlns="http://www.w3.org/2000/svg" xmlns:xlink="http://www.w3.org/1999/xlink">
<g id="graph0" class="graph" transform="scale(1 1) rotate(0) translate(4 62)">
<title>SinexParser::nearestYear</title>
<polygon fill="white" stroke="transparent" points="-4,4 -4,-62 384,-62 384,4 -4,4"/>
<!-- Node1 -->
<g id="node1" class="node">
<title>Node1</title>
<g id="a_node1"><a xlink:title=" ">
<polygon fill="#bfbfbf" stroke="black" points="243,-19.5 243,-38.5 380,-38.5 380,-19.5 243,-19.5"/>
<text text-anchor="middle" x="311.5" y="-26.5" font-family="Helvetica,sans-Serif" font-size="10.00">SinexParser::nearestYear</text>
</a>
</g>
</g>
<!-- Node2 -->
<g id="node2" class="node">
<title>Node2</title>
<g id="a_node2"><a xlink:href="structSinexParser.html#ac83a748e7684f1e4b129899692cb9aa7" target="_top" xlink:title=" ">
<polygon fill="white" stroke="red" points="12,-38.5 12,-57.5 195,-57.5 195,-38.5 12,-38.5"/>
<text text-anchor="middle" x="103.5" y="-45.5" font-family="Helvetica,sans-Serif" font-size="10.00">SinexParser::parseSinexEstimates</text>
</a>
</g>
</g>
<!-- Node1&#45;&gt;Node2 -->
<g id="edge1" class="edge">
<title>Node1&#45;&gt;Node2</title>
<path fill="none" stroke="midnightblue" d="M242.76,-35.25C227.52,-36.65 211.1,-38.17 195.09,-39.64"/>
</g>
<!-- Node4 -->
<g id="node3" class="node">
<title>Node4</title>
<g id="a_node3"><a xlink:href="structSinexParser.html#ade7a1bd2fb3e99dc9ddf9b0c9116ab65" target="_top" xlink:title=" ">
<polygon fill="white" stroke="red" points="0,-0.5 0,-19.5 207,-19.5 207,-0.5 0,-0.5"/>
<text text-anchor="middle" x="103.5" y="-7.5" font-family="Helvetica,sans-Serif" font-size="10.00">SinexParser::parseSinexDiscontinuities</text>
</a>
</g>
</g>
<!-- Node1&#45;&gt;Node4 -->
<g id="edge2" class="edge">
<title>Node1&#45;&gt;Node4</title>
<path fill="none" stroke="midnightblue" d="M242.76,-22.75C231.39,-21.7 219.36,-20.59 207.34,-19.48"/>
</g>
</g>
</svg>
