<?xml version="1.0" encoding="UTF-8" standalone="no"?>
<!DOCTYPE svg PUBLIC "-//W3C//DTD SVG 1.1//EN"
 "http://www.w3.org/Graphics/SVG/1.1/DTD/svg11.dtd">
<!-- Generated by graphviz version 2.43.0 (0)
 -->
<!-- Title: NtripUploader::messageTimeout_handler Pages: 1 -->
<svg width="500pt" height="1203pt"
 viewBox="0.00 0.00 500.00 1202.50" xmlns="http://www.w3.org/2000/svg" xmlns:xlink="http://www.w3.org/1999/xlink">
<g id="graph0" class="graph" transform="scale(1 1) rotate(0) translate(4 1198.5)">
<title>NtripUploader::messageTimeout_handler</title>
<polygon fill="white" stroke="transparent" points="-4,4 -4,-1198.5 496,-1198.5 496,4 -4,4"/>
<!-- Node1 -->
<g id="node1" class="node">
<title>Node1</title>
<g id="a_node1"><a xlink:title=" ">
<polygon fill="#bfbfbf" stroke="black" points="0,-587.5 0,-617.5 175,-617.5 175,-587.5 0,-587.5"/>
<text text-anchor="start" x="8" y="-605.5" font-family="Helvetica,sans-Serif" font-size="10.00">NtripUploader::messageTimeout</text>
<text text-anchor="middle" x="87.5" y="-594.5" font-family="Helvetica,sans-Serif" font-size="10.00">_handler</text>
</a>
</g>
</g>
<!-- Node1&#45;&gt;Node1 -->
<g id="edge1" class="edge">
<title>Node1&#45;&gt;Node1</title>
<path fill="none" stroke="midnightblue" d="M50.9,-617.66C42.08,-627.06 54.28,-636 87.5,-636 120.72,-636 132.92,-627.06 124.1,-617.66"/>
</g>
<!-- Node2 -->
<g id="node2" class="node">
<title>Node2</title>
<g id="a_node2"><a xlink:href="gTime_8cpp.html#abc73cf336f9fa1b3622c933d5925e073" target="_top" xlink:title=" ">
<polygon fill="white" stroke="black" points="270,-1175 270,-1194 326,-1194 326,-1175 270,-1175"/>
<text text-anchor="middle" x="298" y="-1182" font-family="Helvetica,sans-Serif" font-size="10.00">timeGet</text>
</a>
</g>
</g>
<!-- Node1&#45;&gt;Node2 -->
<g id="edge2" class="edge">
<title>Node1&#45;&gt;Node2</title>
<path fill="none" stroke="midnightblue" d="M89.62,-617.53C96,-698.73 130.23,-1084.47 211,-1165.5 226.22,-1180.77 250.76,-1184.98 269.74,-1185.69"/>
</g>
<!-- Node3 -->
<g id="node3" class="node">
<title>Node3</title>
<g id="a_node3"><a xlink:href="mongoRead_8cpp.html#a65827d091750f0fd39be6a3644ff286a" target="_top" xlink:title=" ">
<polygon fill="white" stroke="black" points="237,-1137 237,-1156 359,-1156 359,-1137 237,-1137"/>
<text text-anchor="middle" x="298" y="-1144" font-family="Helvetica,sans-Serif" font-size="10.00">mongoReadLastClock</text>
</a>
</g>
</g>
<!-- Node1&#45;&gt;Node3 -->
<g id="edge3" class="edge">
<title>Node1&#45;&gt;Node3</title>
<path fill="none" stroke="midnightblue" d="M89.88,-617.53C97.31,-695.44 135.19,-1052.58 211,-1127.5 218.07,-1134.49 227.09,-1139.15 236.62,-1142.22"/>
</g>
<!-- Node4 -->
<g id="node4" class="node">
<title>Node4</title>
<g id="a_node4"><a xlink:href="structGTime.html#aaa8a379d11cd6c040a6bbe680c0e913e" target="_top" xlink:title="Uninitialised time for comparisons.">
<polygon fill="white" stroke="black" points="253,-1099 253,-1118 343,-1118 343,-1099 253,-1099"/>
<text text-anchor="middle" x="298" y="-1106" font-family="Helvetica,sans-Serif" font-size="10.00">GTime::noTime</text>
</a>
</g>
</g>
<!-- Node1&#45;&gt;Node4 -->
<g id="edge4" class="edge">
<title>Node1&#45;&gt;Node4</title>
<path fill="none" stroke="midnightblue" d="M90.18,-617.67C98.78,-692.42 140.18,-1020.7 211,-1089.5 222.08,-1100.26 237.8,-1105.49 252.78,-1107.87"/>
</g>
<!-- Node5 -->
<g id="node5" class="node">
<title>Node5</title>
<g id="a_node5"><a xlink:href="structGTime.html#a72505f23b2252f690f124c2eaf026f91" target="_top" xlink:title=" ">
<polygon fill="white" stroke="black" points="247.5,-1061 247.5,-1080 348.5,-1080 348.5,-1061 247.5,-1061"/>
<text text-anchor="middle" x="298" y="-1068" font-family="Helvetica,sans-Serif" font-size="10.00">GTime::floorTime</text>
</a>
</g>
</g>
<!-- Node1&#45;&gt;Node5 -->
<g id="edge5" class="edge">
<title>Node1&#45;&gt;Node5</title>
<path fill="none" stroke="midnightblue" d="M90.56,-617.9C100.43,-689.48 145.17,-988.81 211,-1051.5 220.74,-1060.78 233.95,-1065.92 247.09,-1068.68"/>
</g>
<!-- Node6 -->
<g id="node6" class="node">
<title>Node6</title>
<g id="a_node6"><a xlink:href="structGTime.html#a98fdbaaec5a132a7e694f28b4f1907cb" target="_top" xlink:title=" ">
<polygon fill="white" stroke="black" points="249.5,-1023 249.5,-1042 346.5,-1042 346.5,-1023 249.5,-1023"/>
<text text-anchor="middle" x="298" y="-1030" font-family="Helvetica,sans-Serif" font-size="10.00">GTime::to_string</text>
</a>
</g>
</g>
<!-- Node1&#45;&gt;Node6 -->
<g id="edge6" class="edge">
<title>Node1&#45;&gt;Node6</title>
<path fill="none" stroke="midnightblue" d="M87.98,-617.57C86.78,-677.57 90.79,-901.68 211,-1013.5 221.41,-1023.19 235.61,-1028.34 249.47,-1030.98"/>
</g>
<!-- Node7 -->
<g id="node7" class="node">
<title>Node7</title>
<g id="a_node7"><a xlink:href="structRtcmEncoder.html#a7d44e45822f54c629d33bfa9588b0b64" target="_top" xlink:title=" ">
<polygon fill="white" stroke="black" points="225,-985 225,-1004 371,-1004 371,-985 225,-985"/>
<text text-anchor="middle" x="298" y="-992" font-family="Helvetica,sans-Serif" font-size="10.00">RtcmEncoder::getUdiIndex</text>
</a>
</g>
</g>
<!-- Node1&#45;&gt;Node7 -->
<g id="edge7" class="edge">
<title>Node1&#45;&gt;Node7</title>
<path fill="none" stroke="midnightblue" d="M88.51,-617.73C89.41,-674.5 100.57,-875.58 211,-975.5 215.2,-979.3 219.97,-982.39 225.08,-984.91"/>
</g>
<!-- Node8 -->
<g id="node8" class="node">
<title>Node8</title>
<g id="a_node8"><a xlink:href="mongoRead_8cpp.html#a1d89a7a6cae3e135ebc59b318cff9736" target="_top" xlink:title="Read phase biases from Mongo DB.">
<polygon fill="white" stroke="red" points="235.5,-947 235.5,-966 360.5,-966 360.5,-947 235.5,-947"/>
<text text-anchor="middle" x="298" y="-954" font-family="Helvetica,sans-Serif" font-size="10.00">mongoReadPhaseBias</text>
</a>
</g>
</g>
<!-- Node1&#45;&gt;Node8 -->
<g id="edge8" class="edge">
<title>Node1&#45;&gt;Node8</title>
<path fill="none" stroke="midnightblue" d="M89.14,-617.66C92.25,-670.66 110.1,-849.21 211,-937.5 217.9,-943.54 226.3,-947.79 235.1,-950.77"/>
</g>
<!-- Node9 -->
<g id="node9" class="node">
<title>Node9</title>
<g id="a_node9"><a xlink:href="satSys_8cpp.html#aae80f3401dd26548c7b0b83c1e25e499" target="_top" xlink:title="Get all satellites of target system.">
<polygon fill="white" stroke="black" points="421,-783 421,-802 492,-802 492,-783 421,-783"/>
<text text-anchor="middle" x="456.5" y="-790" font-family="Helvetica,sans-Serif" font-size="10.00">getSysSats</text>
</a>
</g>
</g>
<!-- Node1&#45;&gt;Node9 -->
<g id="edge20" class="edge">
<title>Node1&#45;&gt;Node9</title>
<path fill="none" stroke="midnightblue" d="M175,-598.17C250.34,-596.15 352.46,-598.17 385,-621.5 440.33,-661.16 452.37,-752.4 454.87,-782.6"/>
</g>
<!-- Node11 -->
<g id="node10" class="node">
<title>Node11</title>
<g id="a_node10"><a xlink:href="structRtcmEncoder.html#adaea4ff6e3c24a71716dd84ee0999fef" target="_top" xlink:title="encode phase bias messages">
<polygon fill="white" stroke="red" points="214.5,-909 214.5,-928 381.5,-928 381.5,-909 214.5,-909"/>
<text text-anchor="middle" x="298" y="-916" font-family="Helvetica,sans-Serif" font-size="10.00">RtcmEncoder::encodeSsrPhase</text>
</a>
</g>
</g>
<!-- Node1&#45;&gt;Node11 -->
<g id="edge10" class="edge">
<title>Node1&#45;&gt;Node11</title>
<path fill="none" stroke="midnightblue" d="M89.93,-617.66C95.41,-666.77 119.59,-822.74 211,-899.5 215.57,-903.33 220.74,-906.44 226.22,-908.95"/>
</g>
<!-- Node21 -->
<g id="node11" class="node">
<title>Node21</title>
<g id="a_node11"><a xlink:href="structRtcmEncoder.html#a714186471ab96d85b1fac9d1a18789a0" target="_top" xlink:title=" ">
<polygon fill="white" stroke="red" points="223.5,-859.5 223.5,-889.5 372.5,-889.5 372.5,-859.5 223.5,-859.5"/>
<text text-anchor="start" x="231.5" y="-877.5" font-family="Helvetica,sans-Serif" font-size="10.00">RtcmEncoder::encodeWrite</text>
<text text-anchor="middle" x="298" y="-866.5" font-family="Helvetica,sans-Serif" font-size="10.00">MessageToBuffer</text>
</a>
</g>
</g>
<!-- Node1&#45;&gt;Node21 -->
<g id="edge11" class="edge">
<title>Node1&#45;&gt;Node21</title>
<path fill="none" stroke="midnightblue" d="M91.54,-617.62C101.02,-660.71 134.09,-785.16 211,-849.5 215.65,-853.39 220.88,-856.68 226.41,-859.45"/>
</g>
<!-- Node23 -->
<g id="node12" class="node">
<title>Node23</title>
<g id="a_node12"><a xlink:href="mongoRead_8cpp.html#a7d4ac4dfd0b159e975bff9599afbb147" target="_top" xlink:title="Read code biases from Mongo DB.">
<polygon fill="white" stroke="red" points="237.5,-821 237.5,-840 358.5,-840 358.5,-821 237.5,-821"/>
<text text-anchor="middle" x="298" y="-828" font-family="Helvetica,sans-Serif" font-size="10.00">mongoReadCodeBias</text>
</a>
</g>
</g>
<!-- Node1&#45;&gt;Node23 -->
<g id="edge12" class="edge">
<title>Node1&#45;&gt;Node23</title>
<path fill="none" stroke="midnightblue" d="M92.76,-617.75C104.49,-656.76 141.11,-760.65 211,-811.5 218.79,-817.17 227.95,-821.2 237.34,-824.05"/>
</g>
<!-- Node24 -->
<g id="node13" class="node">
<title>Node24</title>
<g id="a_node13"><a xlink:href="structRtcmEncoder.html#a18fe202e400a35f110954b78f93647ef" target="_top" xlink:title="encode code bias messages">
<polygon fill="white" stroke="red" points="217,-783 217,-802 379,-802 379,-783 217,-783"/>
<text text-anchor="middle" x="298" y="-790" font-family="Helvetica,sans-Serif" font-size="10.00">RtcmEncoder::encodeSsrCode</text>
</a>
</g>
</g>
<!-- Node1&#45;&gt;Node24 -->
<g id="edge14" class="edge">
<title>Node1&#45;&gt;Node24</title>
<path fill="none" stroke="midnightblue" d="M94.77,-617.69C109.56,-651.53 150.04,-733.27 211,-773.5 216.87,-777.37 223.41,-780.47 230.18,-782.94"/>
</g>
<!-- Node26 -->
<g id="node14" class="node">
<title>Node26</title>
<g id="a_node14"><a xlink:href="mongoRead_8cpp.html#a25a89dedbcc39aa56dfb1eff65744154" target="_top" xlink:title="Read orbits and clocks from Mongo DB.">
<polygon fill="white" stroke="red" points="244,-745 244,-764 352,-764 352,-745 244,-745"/>
<text text-anchor="middle" x="298" y="-752" font-family="Helvetica,sans-Serif" font-size="10.00">mongoReadOrbClk</text>
</a>
</g>
</g>
<!-- Node1&#45;&gt;Node26 -->
<g id="edge15" class="edge">
<title>Node1&#45;&gt;Node26</title>
<path fill="none" stroke="midnightblue" d="M97.84,-617.65C115.97,-645.66 158.75,-705.45 211,-735.5 220.94,-741.22 232.44,-745.22 243.73,-748.01"/>
</g>
<!-- Node28 -->
<g id="node15" class="node">
<title>Node28</title>
<g id="a_node15"><a xlink:href="rtcmEncoder_8cpp.html#adfb38209fa7487f56c3ec23c14a40218" target="_top" xlink:title=" ">
<polygon fill="white" stroke="red" points="246,-707 246,-726 350,-726 350,-707 246,-707"/>
<text text-anchor="middle" x="298" y="-714" font-family="Helvetica,sans-Serif" font-size="10.00">calculateSsrComb</text>
</a>
</g>
</g>
<!-- Node1&#45;&gt;Node28 -->
<g id="edge17" class="edge">
<title>Node1&#45;&gt;Node28</title>
<path fill="none" stroke="midnightblue" d="M103.24,-617.56C124.87,-638.75 167.38,-677.04 211,-697.5 221.8,-702.56 234,-706.31 245.75,-709.06"/>
</g>
<!-- Node31 -->
<g id="node16" class="node">
<title>Node31</title>
<g id="a_node16"><a xlink:href="structRtcmEncoder.html#a9a9812f3f6389d6d39eb59a0faff70b7" target="_top" xlink:title="encode orbit/clock messages">
<polygon fill="white" stroke="red" points="213,-669 213,-688 383,-688 383,-669 213,-669"/>
<text text-anchor="middle" x="298" y="-676" font-family="Helvetica,sans-Serif" font-size="10.00">RtcmEncoder::encodeSsrOrbClk</text>
</a>
</g>
</g>
<!-- Node1&#45;&gt;Node31 -->
<g id="edge18" class="edge">
<title>Node1&#45;&gt;Node31</title>
<path fill="none" stroke="midnightblue" d="M116.49,-617.67C140.86,-630.35 177.45,-648.14 211,-659.5 221.86,-663.18 233.74,-666.33 245.11,-668.95"/>
</g>
<!-- Node35 -->
<g id="node17" class="node">
<title>Node35</title>
<g id="a_node17"><a xlink:href="structRtcmEncoder.html#a4fe1b66c1ca3051c79202253abf15099" target="_top" xlink:title="encode URA messages">
<polygon fill="white" stroke="red" points="220.5,-631 220.5,-650 375.5,-650 375.5,-631 220.5,-631"/>
<text text-anchor="middle" x="298" y="-638" font-family="Helvetica,sans-Serif" font-size="10.00">RtcmEncoder::encodeSsrUra</text>
</a>
</g>
</g>
<!-- Node1&#45;&gt;Node35 -->
<g id="edge19" class="edge">
<title>Node1&#45;&gt;Node35</title>
<path fill="none" stroke="midnightblue" d="M170.9,-617.52C195.83,-622.06 222.51,-626.92 244.87,-631"/>
</g>
<!-- Node38 -->
<g id="node18" class="node">
<title>Node38</title>
<g id="a_node18"><a xlink:href="mongoRead_8cpp.html#a47bc6c2f524e5fe00e785ba8736f23c2" target="_top" xlink:title="Read GPS/GAL/BDS/QZS ephemeris from Mongo DB.">
<polygon fill="white" stroke="red" points="234.5,-555 234.5,-574 361.5,-574 361.5,-555 234.5,-555"/>
<text text-anchor="middle" x="298" y="-562" font-family="Helvetica,sans-Serif" font-size="10.00">mongoReadEphemeris</text>
</a>
</g>
</g>
<!-- Node1&#45;&gt;Node38 -->
<g id="edge21" class="edge">
<title>Node1&#45;&gt;Node38</title>
<path fill="none" stroke="midnightblue" d="M170.9,-587.48C195.83,-582.94 222.51,-578.08 244.87,-574"/>
</g>
<!-- Node39 -->
<g id="node19" class="node">
<title>Node39</title>
<g id="a_node19"><a xlink:href="structRtcmEncoder.html#a3fcbeeb38259b50d2684adf2d36efb9f" target="_top" xlink:title="encode GPS/GAL/BDS/QZS ephemeris messages">
<polygon fill="white" stroke="red" points="211,-517 211,-536 385,-536 385,-517 211,-517"/>
<text text-anchor="middle" x="298" y="-524" font-family="Helvetica,sans-Serif" font-size="10.00">RtcmEncoder::encodeEphemeris</text>
</a>
</g>
</g>
<!-- Node1&#45;&gt;Node39 -->
<g id="edge22" class="edge">
<title>Node1&#45;&gt;Node39</title>
<path fill="none" stroke="midnightblue" d="M116.49,-587.33C140.86,-574.65 177.45,-556.86 211,-545.5 221.86,-541.82 233.74,-538.67 245.11,-536.05"/>
</g>
<!-- Node42 -->
<g id="node20" class="node">
<title>Node42</title>
<g id="a_node20"><a xlink:href="mongoRead_8cpp.html#a4bcf3e799f3f61cb7ca9cbc1994557a8" target="_top" xlink:title="Read GLO ephemeris from Mongo DB.">
<polygon fill="white" stroke="red" points="226.5,-479 226.5,-498 369.5,-498 369.5,-479 226.5,-479"/>
<text text-anchor="middle" x="298" y="-486" font-family="Helvetica,sans-Serif" font-size="10.00">mongoReadGloEphemeris</text>
</a>
</g>
</g>
<!-- Node1&#45;&gt;Node42 -->
<g id="edge23" class="edge">
<title>Node1&#45;&gt;Node42</title>
<path fill="none" stroke="midnightblue" d="M103.24,-587.44C124.87,-566.25 167.38,-527.96 211,-507.5 219.31,-503.6 228.44,-500.49 237.56,-498.01"/>
</g>
<!-- Node43 -->
<g id="node21" class="node">
<title>Node43</title>
<g id="a_node21"><a xlink:href="prototypeIgsSSREncode_8cpp.html#ab54a406a75a07ca6ee326ac2264ed9cb" target="_top" xlink:title=" ">
<polygon fill="white" stroke="black" points="253,-441 253,-460 343,-460 343,-441 253,-441"/>
<text text-anchor="middle" x="298" y="-448" font-family="Helvetica,sans-Serif" font-size="10.00">IGS_SSR_group</text>
</a>
</g>
</g>
<!-- Node1&#45;&gt;Node43 -->
<g id="edge24" class="edge">
<title>Node1&#45;&gt;Node43</title>
<path fill="none" stroke="midnightblue" d="M97.84,-587.35C115.97,-559.34 158.75,-499.55 211,-469.5 223.59,-462.26 238.68,-457.77 252.68,-455"/>
</g>
<!-- Node44 -->
<g id="node22" class="node">
<title>Node44</title>
<g id="a_node22"><a xlink:href="mongoRead_8cpp.html#a4fb6290e4dbb7b10fef8fe18781b3e4d" target="_top" xlink:title=" ">
<polygon fill="white" stroke="black" points="225,-403 225,-422 371,-422 371,-403 225,-403"/>
<text text-anchor="middle" x="298" y="-410" font-family="Helvetica,sans-Serif" font-size="10.00">mongoReadIGSIonosphere</text>
</a>
</g>
</g>
<!-- Node1&#45;&gt;Node44 -->
<g id="edge25" class="edge">
<title>Node1&#45;&gt;Node44</title>
<path fill="none" stroke="midnightblue" d="M94.77,-587.31C109.56,-553.47 150.04,-471.73 211,-431.5 216.87,-427.63 223.41,-424.53 230.18,-422.06"/>
</g>
<!-- Node45 -->
<g id="node23" class="node">
<title>Node45</title>
<g id="a_node23"><a xlink:href="prototypeIgsSSREncode_8cpp.html#a5860e21c82b09ac4b4f9051c19ad626d" target="_top" xlink:title=" ">
<polygon fill="white" stroke="red" points="250.5,-365 250.5,-384 345.5,-384 345.5,-365 250.5,-365"/>
<text text-anchor="middle" x="298" y="-372" font-family="Helvetica,sans-Serif" font-size="10.00">encodeIGS_ORB</text>
</a>
</g>
</g>
<!-- Node1&#45;&gt;Node45 -->
<g id="edge26" class="edge">
<title>Node1&#45;&gt;Node45</title>
<path fill="none" stroke="midnightblue" d="M92.76,-587.25C104.49,-548.24 141.11,-444.35 211,-393.5 222.37,-385.22 236.68,-380.44 250.34,-377.71"/>
</g>
<!-- Node47 -->
<g id="node24" class="node">
<title>Node47</title>
<g id="a_node24"><a xlink:href="prototypeIgsSSREncode_8cpp.html#aed2001951dab0df50a3e8890f6303240" target="_top" xlink:title=" ">
<polygon fill="white" stroke="red" points="252,-327 252,-346 344,-346 344,-327 252,-327"/>
<text text-anchor="middle" x="298" y="-334" font-family="Helvetica,sans-Serif" font-size="10.00">encodeIGS_CLK</text>
</a>
</g>
</g>
<!-- Node1&#45;&gt;Node47 -->
<g id="edge27" class="edge">
<title>Node1&#45;&gt;Node47</title>
<path fill="none" stroke="midnightblue" d="M91.28,-587.44C100.12,-543.97 131.83,-417.44 211,-355.5 222.56,-346.45 237.54,-341.52 251.76,-338.89"/>
</g>
<!-- Node48 -->
<g id="node25" class="node">
<title>Node48</title>
<g id="a_node25"><a xlink:href="prototypeIgsSSREncode_8cpp.html#a0b52ed993dfc6fdce07c1047d9f7d228" target="_top" xlink:title=" ">
<polygon fill="white" stroke="red" points="250,-289 250,-308 346,-308 346,-289 250,-289"/>
<text text-anchor="middle" x="298" y="-296" font-family="Helvetica,sans-Serif" font-size="10.00">encodeIGS_CMB</text>
</a>
</g>
</g>
<!-- Node1&#45;&gt;Node48 -->
<g id="edge28" class="edge">
<title>Node1&#45;&gt;Node48</title>
<path fill="none" stroke="midnightblue" d="M90.23,-587.27C96.5,-539.36 122.61,-390.62 211,-317.5 221.84,-308.53 235.99,-303.56 249.68,-300.86"/>
</g>
<!-- Node49 -->
<g id="node26" class="node">
<title>Node49</title>
<g id="a_node26"><a xlink:href="prototypeIgsSSREncode_8cpp.html#a72d4233d3708a4ab1551b1139e6afb27" target="_top" xlink:title=" ">
<polygon fill="white" stroke="red" points="250.5,-251 250.5,-270 345.5,-270 345.5,-251 250.5,-251"/>
<text text-anchor="middle" x="298" y="-258" font-family="Helvetica,sans-Serif" font-size="10.00">encodeIGS_HRC</text>
</a>
</g>
</g>
<!-- Node1&#45;&gt;Node49 -->
<g id="edge29" class="edge">
<title>Node1&#45;&gt;Node49</title>
<path fill="none" stroke="midnightblue" d="M89.39,-587.15C93.26,-535.13 113.23,-364.03 211,-279.5 221.87,-270.1 236.36,-265.04 250.33,-262.4"/>
</g>
<!-- Node50 -->
<g id="node27" class="node">
<title>Node50</title>
<g id="a_node27"><a xlink:href="prototypeIgsSSREncode_8cpp.html#af3fc3638b16db1676d10fa1a4179860a" target="_top" xlink:title=" ">
<polygon fill="white" stroke="red" points="250.5,-213 250.5,-232 345.5,-232 345.5,-213 250.5,-213"/>
<text text-anchor="middle" x="298" y="-220" font-family="Helvetica,sans-Serif" font-size="10.00">encodeIGS_COD</text>
</a>
</g>
</g>
<!-- Node1&#45;&gt;Node50 -->
<g id="edge30" class="edge">
<title>Node1&#45;&gt;Node50</title>
<path fill="none" stroke="midnightblue" d="M88.69,-587.36C90.27,-531.86 103.54,-337.77 211,-241.5 221.71,-231.91 236.14,-226.8 250.13,-224.17"/>
</g>
<!-- Node51 -->
<g id="node28" class="node">
<title>Node51</title>
<g id="a_node28"><a xlink:href="prototypeIgsSSREncode_8cpp.html#a41fe2e1f1e8daaa5fb8158f1b7196681" target="_top" xlink:title=" ">
<polygon fill="white" stroke="red" points="251.5,-175 251.5,-194 344.5,-194 344.5,-175 251.5,-175"/>
<text text-anchor="middle" x="298" y="-182" font-family="Helvetica,sans-Serif" font-size="10.00">encodeIGS_PHS</text>
</a>
</g>
</g>
<!-- Node1&#45;&gt;Node51 -->
<g id="edge31" class="edge">
<title>Node1&#45;&gt;Node51</title>
<path fill="none" stroke="midnightblue" d="M88.14,-587.46C87.58,-528.57 93.83,-311.6 211,-203.5 221.9,-193.44 236.89,-188.28 251.3,-185.74"/>
</g>
<!-- Node52 -->
<g id="node29" class="node">
<title>Node52</title>
<g id="a_node29"><a xlink:href="prototypeIgsSSREncode_8cpp.html#abe906d6281cf96f532c4c915582eed18" target="_top" xlink:title=" ">
<polygon fill="white" stroke="red" points="250.5,-137 250.5,-156 345.5,-156 345.5,-137 250.5,-137"/>
<text text-anchor="middle" x="298" y="-144" font-family="Helvetica,sans-Serif" font-size="10.00">encodeIGS_URA</text>
</a>
</g>
</g>
<!-- Node1&#45;&gt;Node52 -->
<g id="edge32" class="edge">
<title>Node1&#45;&gt;Node52</title>
<path fill="none" stroke="midnightblue" d="M90.69,-587.04C100.98,-516.53 146.74,-226.27 211,-165.5 221.55,-155.52 236.12,-150.33 250.26,-147.75"/>
</g>
<!-- Node53 -->
<g id="node30" class="node">
<title>Node53</title>
<g id="a_node30"><a xlink:href="prototypeIgsSSREncode_8cpp.html#adf3f3613d64a13f4cdccccc258d29585" target="_top" xlink:title=" ">
<polygon fill="white" stroke="red" points="250.5,-99 250.5,-118 345.5,-118 345.5,-99 250.5,-99"/>
<text text-anchor="middle" x="298" y="-106" font-family="Helvetica,sans-Serif" font-size="10.00">encodeIGS_ATM</text>
</a>
</g>
</g>
<!-- Node1&#45;&gt;Node53 -->
<g id="edge33" class="edge">
<title>Node1&#45;&gt;Node53</title>
<path fill="none" stroke="midnightblue" d="M90.3,-587.21C99.3,-513.36 141.77,-194.35 211,-127.5 221.45,-117.41 235.99,-112.19 250.14,-109.62"/>
</g>
<!-- Node54 -->
<g id="node31" class="node">
<title>Node54</title>
<g id="a_node31"><a xlink:href="structRtcmEncoder.html#ac3796c0618a67c888d1d06cc0f055c12" target="_top" xlink:title=" ">
<polygon fill="white" stroke="black" points="223.5,-49.5 223.5,-79.5 372.5,-79.5 372.5,-49.5 223.5,-49.5"/>
<text text-anchor="start" x="231.5" y="-67.5" font-family="Helvetica,sans-Serif" font-size="10.00">RtcmEncoder::encodeWrite</text>
<text text-anchor="middle" x="298" y="-56.5" font-family="Helvetica,sans-Serif" font-size="10.00">Messages</text>
</a>
</g>
</g>
<!-- Node1&#45;&gt;Node54 -->
<g id="edge34" class="edge">
<title>Node1&#45;&gt;Node54</title>
<path fill="none" stroke="midnightblue" d="M90.07,-587.39C98.35,-510.67 139.24,-164.83 211,-89.5 214.65,-85.67 218.84,-82.42 223.37,-79.66"/>
</g>
<!-- Node55 -->
<g id="node32" class="node">
<title>Node55</title>
<g id="a_node32"><a xlink:href="structNtripUploader.html#ad5747e7814389189d06c1270edcf6103" target="_top" xlink:title=" ">
<polygon fill="white" stroke="red" points="240,-0.5 240,-30.5 356,-30.5 356,-0.5 240,-0.5"/>
<text text-anchor="start" x="248" y="-18.5" font-family="Helvetica,sans-Serif" font-size="10.00">NtripUploader::write</text>
<text text-anchor="middle" x="298" y="-7.5" font-family="Helvetica,sans-Serif" font-size="10.00">_handler</text>
</a>
</g>
</g>
<!-- Node1&#45;&gt;Node55 -->
<g id="edge35" class="edge">
<title>Node1&#45;&gt;Node55</title>
<path fill="none" stroke="midnightblue" d="M89.72,-587.28C96.55,-505.9 132.56,-122.62 211,-39.5 218.77,-31.27 229.1,-25.78 239.9,-22.14"/>
</g>
<!-- Node8&#45;&gt;Node9 -->
<g id="edge9" class="edge">
<title>Node8&#45;&gt;Node9</title>
<path fill="none" stroke="midnightblue" d="M360.82,-949.99C369.53,-947.11 377.92,-943.09 385,-937.5 430.71,-901.44 448.68,-828.26 453.82,-802.08"/>
</g>
<!-- Node23&#45;&gt;Node9 -->
<g id="edge13" class="edge">
<title>Node23&#45;&gt;Node9</title>
<path fill="none" stroke="midnightblue" d="M344.17,-820.93C357.36,-818.02 371.78,-814.74 385,-811.5 396.82,-808.6 409.69,-805.21 421.16,-802.09"/>
</g>
<!-- Node26&#45;&gt;Node9 -->
<g id="edge16" class="edge">
<title>Node26&#45;&gt;Node9</title>
<path fill="none" stroke="midnightblue" d="M344.17,-764.07C357.36,-766.98 371.78,-770.26 385,-773.5 396.82,-776.4 409.69,-779.79 421.16,-782.91"/>
</g>
</g>
</svg>
