<?xml version="1.0" encoding="UTF-8" standalone="no"?>
<!DOCTYPE svg PUBLIC "-//W3C//DTD SVG 1.1//EN"
 "http://www.w3.org/Graphics/SVG/1.1/DTD/svg11.dtd">
<!-- Generated by graphviz version 2.43.0 (0)
 -->
<!-- Title: InertialKalmans Pages: 1 -->
<svg width="165pt" height="226pt"
 viewBox="0.00 0.00 165.00 226.00" xmlns="http://www.w3.org/2000/svg" xmlns:xlink="http://www.w3.org/1999/xlink">
<g id="graph0" class="graph" transform="scale(1 1) rotate(0) translate(4 222)">
<title>InertialKalmans</title>
<polygon fill="white" stroke="transparent" points="-4,4 -4,-222 161,-222 161,4 -4,4"/>
<!-- Node1 -->
<g id="node1" class="node">
<title>Node1</title>
<g id="a_node1"><a xlink:title=" ">
<polygon fill="#bfbfbf" stroke="black" points="0,-0.5 0,-57.5 94,-57.5 94,-0.5 0,-0.5"/>
<text text-anchor="middle" x="47" y="-45.5" font-family="Helvetica,sans-Serif" font-size="10.00">InertialKalmans</text>
<polyline fill="none" stroke="black" points="0,-38.5 94,-38.5 "/>
<text text-anchor="middle" x="47" y="-26.5" font-family="Helvetica,sans-Serif" font-size="10.00"> </text>
<polyline fill="none" stroke="black" points="0,-19.5 94,-19.5 "/>
<text text-anchor="start" x="8" y="-7.5" font-family="Helvetica,sans-Serif" font-size="10.00">+ operator+=()</text>
</a>
</g>
</g>
<!-- Node2 -->
<g id="node2" class="node">
<title>Node2</title>
<g id="a_node2"><a xlink:href="structKalmanModel.html" target="_top" xlink:title="Options associated with kalman filter states.">
<polygon fill="white" stroke="red" points="0.5,-160.5 0.5,-217.5 93.5,-217.5 93.5,-160.5 0.5,-160.5"/>
<text text-anchor="middle" x="47" y="-205.5" font-family="Helvetica,sans-Serif" font-size="10.00">KalmanModel</text>
<polyline fill="none" stroke="red" points="0.5,-198.5 93.5,-198.5 "/>
<text text-anchor="middle" x="47" y="-186.5" font-family="Helvetica,sans-Serif" font-size="10.00"> </text>
<polyline fill="none" stroke="red" points="0.5,-179.5 93.5,-179.5 "/>
<text text-anchor="start" x="8.5" y="-167.5" font-family="Helvetica,sans-Serif" font-size="10.00">+ operator+=()</text>
</a>
</g>
</g>
<!-- Node2&#45;&gt;Node1 -->
<g id="edge1" class="edge">
<title>Node2&#45;&gt;Node1</title>
<path fill="none" stroke="#404040" d="M47,-160.48C47,-135.48 47,-98.31 47,-70.03"/>
<polygon fill="none" stroke="#404040" points="47,-69.74 43,-63.74 47,-57.74 51,-63.74 47,-69.74"/>
<text text-anchor="middle" x="102" y="-134" font-family="Helvetica,sans-Serif" font-size="10.00"> +accelerometer_bias</text>
<text text-anchor="middle" x="102" y="-123" font-family="Helvetica,sans-Serif" font-size="10.00">+accelerometer_scale</text>
<text text-anchor="middle" x="102" y="-112" font-family="Helvetica,sans-Serif" font-size="10.00">+gyro_bias</text>
<text text-anchor="middle" x="102" y="-101" font-family="Helvetica,sans-Serif" font-size="10.00">+gyro_scale</text>
<text text-anchor="middle" x="102" y="-90" font-family="Helvetica,sans-Serif" font-size="10.00">+imu_offset</text>
<text text-anchor="middle" x="102" y="-79" font-family="Helvetica,sans-Serif" font-size="10.00">+orientation</text>
</g>
</g>
</svg>
