<?xml version="1.0" encoding="UTF-8" standalone="no"?>
<!DOCTYPE svg PUBLIC "-//W3C//DTD SVG 1.1//EN"
 "http://www.w3.org/Graphics/SVG/1.1/DTD/svg11.dtd">
<!-- Generated by graphviz version 2.43.0 (0)
 -->
<!-- Title: RtcmDecoder::decode Pages: 1 -->
<svg width="612pt" height="369pt"
 viewBox="0.00 0.00 612.00 369.13" xmlns="http://www.w3.org/2000/svg" xmlns:xlink="http://www.w3.org/1999/xlink">
<g id="graph0" class="graph" transform="scale(1 1) rotate(0) translate(4 365.13)">
<title>RtcmDecoder::decode</title>
<polygon fill="white" stroke="transparent" points="-4,4 -4,-365.13 608,-365.13 608,4 -4,4"/>
<!-- Node1 -->
<g id="node1" class="node">
<title>Node1</title>
<g id="a_node1"><a xlink:title=" ">
<polygon fill="#bfbfbf" stroke="black" points="0,-174.21 0,-193.21 124,-193.21 124,-174.21 0,-174.21"/>
<text text-anchor="middle" x="62" y="-181.21" font-family="Helvetica,sans-Serif" font-size="10.00">RtcmDecoder::decode</text>
</a>
</g>
</g>
<!-- Node2 -->
<g id="node2" class="node">
<title>Node2</title>
<g id="a_node2"><a xlink:href="rtcmDecoder_8cpp.html#a85a03123ae20efc3b06434f616140943" target="_top" xlink:title="extract unsigned bits from byte data">
<polygon fill="white" stroke="black" points="553,-231.21 553,-250.21 604,-250.21 604,-231.21 553,-231.21"/>
<text text-anchor="middle" x="578.5" y="-238.21" font-family="Helvetica,sans-Serif" font-size="10.00">getbitu</text>
</a>
</g>
</g>
<!-- Node1&#45;&gt;Node2 -->
<g id="edge1" class="edge">
<title>Node1&#45;&gt;Node2</title>
<path fill="none" stroke="midnightblue" d="M65.69,-193.61C74.01,-222.07 102.35,-304.11 160,-335.71 303.73,-414.49 509.6,-287.08 563.93,-250.23"/>
</g>
<!-- Node3 -->
<g id="node3" class="node">
<title>Node3</title>
<g id="a_node3"><a xlink:href="structRtcmDecoder.html#a3b7993d7cc20610d8770c2f4d1e902d6" target="_top" xlink:title=" ">
<polygon fill="white" stroke="red" points="167.5,-307.21 167.5,-326.21 328.5,-326.21 328.5,-307.21 167.5,-307.21"/>
<text text-anchor="middle" x="248" y="-314.21" font-family="Helvetica,sans-Serif" font-size="10.00">RtcmDecoder::decodeCustom</text>
</a>
</g>
</g>
<!-- Node1&#45;&gt;Node3 -->
<g id="edge2" class="edge">
<title>Node1&#45;&gt;Node3</title>
<path fill="none" stroke="midnightblue" d="M68.31,-193.51C80.96,-215.88 115.21,-270.84 160,-297.71 166.5,-301.61 173.69,-304.71 181.08,-307.18"/>
</g>
<!-- Node10 -->
<g id="node4" class="node">
<title>Node10</title>
<g id="a_node4"><a xlink:href="structRtcmTrace.html#ad992e657cb98f1cd8eb87eaf2d11f912" target="_top" xlink:title="Write unknown message to a json file.">
<polygon fill="white" stroke="black" points="372,-155.21 372,-174.21 517,-174.21 517,-155.21 372,-155.21"/>
<text text-anchor="middle" x="444.5" y="-162.21" font-family="Helvetica,sans-Serif" font-size="10.00">RtcmTrace::traceUnknown</text>
</a>
</g>
</g>
<!-- Node1&#45;&gt;Node10 -->
<g id="edge20" class="edge">
<title>Node1&#45;&gt;Node10</title>
<path fill="none" stroke="midnightblue" d="M65.69,-173.81C74.01,-145.35 102.35,-63.31 160,-31.71 228.59,5.89 272.91,14.53 336,-31.71 378.86,-63.12 333.57,-109.02 372,-145.71 375.99,-149.52 380.66,-152.59 385.67,-155.06"/>
</g>
<!-- Node11 -->
<g id="node5" class="node">
<title>Node11</title>
<g id="a_node5"><a xlink:href="structRtcmDecoder.html#a424082e15bbf15120f1fc5f0635b01b9" target="_top" xlink:title="decode RTCM navigation messages">
<polygon fill="white" stroke="red" points="160,-269.21 160,-288.21 336,-288.21 336,-269.21 160,-269.21"/>
<text text-anchor="middle" x="248" y="-276.21" font-family="Helvetica,sans-Serif" font-size="10.00">RtcmDecoder::decodeEphemeris</text>
</a>
</g>
</g>
<!-- Node1&#45;&gt;Node11 -->
<g id="edge4" class="edge">
<title>Node1&#45;&gt;Node11</title>
<path fill="none" stroke="midnightblue" d="M72.19,-193.32C88.35,-209.62 123.61,-242.58 160,-259.71 168.25,-263.59 177.32,-266.7 186.4,-269.17"/>
</g>
<!-- Node5 -->
<g id="node6" class="node">
<title>Node5</title>
<g id="a_node6"><a xlink:href="rtcmDecoder_8cpp.html#aaa6463f592ed6478626814466d3d02a5" target="_top" xlink:title="increasingly extract unsigned bits from byte data">
<polygon fill="white" stroke="black" points="412,-231.21 412,-250.21 477,-250.21 477,-231.21 412,-231.21"/>
<text text-anchor="middle" x="444.5" y="-238.21" font-family="Helvetica,sans-Serif" font-size="10.00">getbituInc</text>
</a>
</g>
</g>
<!-- Node1&#45;&gt;Node5 -->
<g id="edge15" class="edge">
<title>Node1&#45;&gt;Node5</title>
<path fill="none" stroke="midnightblue" d="M103.4,-174.15C158.5,-163.18 259.15,-150.65 336,-183.71 357.37,-192.9 352,-209.83 372,-221.71 384.04,-228.86 398.78,-233.37 411.75,-236.18"/>
</g>
<!-- Node13 -->
<g id="node7" class="node">
<title>Node13</title>
<g id="a_node7"><a xlink:href="structRtcmDecoder.html#af4dcc94b23423696a4e8025d8235a1b1" target="_top" xlink:title=" ">
<polygon fill="white" stroke="red" points="377,-193.21 377,-212.21 512,-212.21 512,-193.21 377,-193.21"/>
<text text-anchor="middle" x="444.5" y="-200.21" font-family="Helvetica,sans-Serif" font-size="10.00">RtcmDecoder::rtcmTime</text>
</a>
</g>
</g>
<!-- Node1&#45;&gt;Node13 -->
<g id="edge18" class="edge">
<title>Node1&#45;&gt;Node13</title>
<path fill="none" stroke="midnightblue" d="M85.12,-174.12C132.77,-154.92 247.9,-116.44 336,-150.71 356.23,-158.58 352.96,-173.29 372,-183.71 378.99,-187.53 386.78,-190.62 394.58,-193.1"/>
</g>
<!-- Node34 -->
<g id="node8" class="node">
<title>Node34</title>
<g id="a_node8"><a xlink:href="structRtcmDecoder.html#adae4ba7ddd9f744631b806a5d550fe39" target="_top" xlink:title="decode RTCM SSR messages">
<polygon fill="white" stroke="red" points="176.5,-231.21 176.5,-250.21 319.5,-250.21 319.5,-231.21 176.5,-231.21"/>
<text text-anchor="middle" x="248" y="-238.21" font-family="Helvetica,sans-Serif" font-size="10.00">RtcmDecoder::decodeSSR</text>
</a>
</g>
</g>
<!-- Node1&#45;&gt;Node34 -->
<g id="edge9" class="edge">
<title>Node1&#45;&gt;Node34</title>
<path fill="none" stroke="midnightblue" d="M84.61,-193.32C104.04,-201.68 133.52,-213.68 160,-221.71 171.84,-225.3 184.77,-228.5 196.96,-231.2"/>
</g>
<!-- Node43 -->
<g id="node9" class="node">
<title>Node43</title>
<g id="a_node9"><a xlink:href="structRtcmDecoder.html#a794dff6b6cac1bb2f8dfa1b2e5bd6c61" target="_top" xlink:title=" ">
<polygon fill="white" stroke="red" points="174,-193.21 174,-212.21 322,-212.21 322,-193.21 174,-193.21"/>
<text text-anchor="middle" x="248" y="-200.21" font-family="Helvetica,sans-Serif" font-size="10.00">RtcmDecoder::decodeMSM</text>
</a>
</g>
</g>
<!-- Node1&#45;&gt;Node43 -->
<g id="edge12" class="edge">
<title>Node1&#45;&gt;Node43</title>
<path fill="none" stroke="midnightblue" d="M124.01,-190.01C139.91,-191.65 157.21,-193.44 173.68,-195.14"/>
</g>
<!-- Node49 -->
<g id="node10" class="node">
<title>Node49</title>
<g id="a_node10"><a xlink:href="prototypeIgsSSRDecode_8cpp.html#aed3fb870a60e3542a8cb91bd20aad4f6" target="_top" xlink:title=" ">
<polygon fill="white" stroke="red" points="402,-117.21 402,-136.21 487,-136.21 487,-117.21 402,-117.21"/>
<text text-anchor="middle" x="444.5" y="-124.21" font-family="Helvetica,sans-Serif" font-size="10.00">decodeigsSSR</text>
</a>
</g>
</g>
<!-- Node1&#45;&gt;Node49 -->
<g id="edge16" class="edge">
<title>Node1&#45;&gt;Node49</title>
<path fill="none" stroke="midnightblue" d="M93.74,-174.18C112.68,-168.63 137.55,-161.92 160,-157.71 245.16,-141.74 346.37,-133.12 401.89,-129.26"/>
</g>
<!-- Node60 -->
<g id="node11" class="node">
<title>Node60</title>
<g id="a_node11"><a xlink:href="structPacketStatistics.html#ad2d07ceeb2c44d6392dfb3aac7af8f42" target="_top" xlink:title=" ">
<polygon fill="white" stroke="black" points="162,-41.21 162,-60.21 334,-60.21 334,-41.21 162,-41.21"/>
<text text-anchor="middle" x="248" y="-48.21" font-family="Helvetica,sans-Serif" font-size="10.00">PacketStatistics::frameDecoded</text>
</a>
</g>
</g>
<!-- Node1&#45;&gt;Node60 -->
<g id="edge19" class="edge">
<title>Node1&#45;&gt;Node60</title>
<path fill="none" stroke="midnightblue" d="M68.72,-174.18C81.97,-152.94 116.98,-101.46 160,-74.71 170.11,-68.42 181.89,-63.75 193.45,-60.29"/>
</g>
<!-- Node3&#45;&gt;Node10 -->
<g id="edge3" class="edge">
<title>Node3&#45;&gt;Node10</title>
<path fill="none" stroke="midnightblue" d="M322.22,-307.04C327.22,-304.53 331.89,-301.46 336,-297.71 375.24,-261.88 333.57,-220.4 372,-183.71 375.99,-179.89 380.66,-176.83 385.67,-174.36"/>
</g>
<!-- Node11&#45;&gt;Node10 -->
<g id="edge8" class="edge">
<title>Node11&#45;&gt;Node10</title>
<path fill="none" stroke="midnightblue" d="M319.95,-269.18C325.71,-266.67 331.16,-263.56 336,-259.71 365.26,-236.45 343.27,-207.62 372,-183.71 376.64,-179.85 381.99,-176.76 387.62,-174.3"/>
</g>
<!-- Node11&#45;&gt;Node5 -->
<g id="edge5" class="edge">
<title>Node11&#45;&gt;Node5</title>
<path fill="none" stroke="midnightblue" d="M297.83,-269.17C333.5,-262.2 380.84,-252.95 411.73,-246.92"/>
</g>
<!-- Node11&#45;&gt;Node13 -->
<g id="edge7" class="edge">
<title>Node11&#45;&gt;Node13</title>
<path fill="none" stroke="midnightblue" d="M313.81,-269.12C321.55,-266.67 329.13,-263.58 336,-259.71 356.26,-248.28 352,-233.59 372,-221.71 378.51,-217.84 385.82,-214.74 393.22,-212.27"/>
</g>
<!-- Node5&#45;&gt;Node2 -->
<g id="edge6" class="edge">
<title>Node5&#45;&gt;Node2</title>
<path fill="none" stroke="midnightblue" d="M477.12,-240.71C500.3,-240.71 531.35,-240.71 552.74,-240.71"/>
</g>
<!-- Node34&#45;&gt;Node5 -->
<g id="edge10" class="edge">
<title>Node34&#45;&gt;Node5</title>
<path fill="none" stroke="midnightblue" d="M319.77,-240.71C351.38,-240.71 387.02,-240.71 411.91,-240.71"/>
</g>
<!-- Node34&#45;&gt;Node13 -->
<g id="edge11" class="edge">
<title>Node34&#45;&gt;Node13</title>
<path fill="none" stroke="midnightblue" d="M297.83,-231.17C327.42,-225.39 365.05,-218.04 394.65,-212.25"/>
</g>
<!-- Node43&#45;&gt;Node5 -->
<g id="edge13" class="edge">
<title>Node43&#45;&gt;Node5</title>
<path fill="none" stroke="midnightblue" d="M297.83,-212.25C333.5,-219.22 380.84,-228.47 411.73,-234.5"/>
</g>
<!-- Node43&#45;&gt;Node13 -->
<g id="edge14" class="edge">
<title>Node43&#45;&gt;Node13</title>
<path fill="none" stroke="midnightblue" d="M322.25,-202.71C340.13,-202.71 359.16,-202.71 376.72,-202.71"/>
</g>
<!-- Node49&#45;&gt;Node2 -->
<g id="edge17" class="edge">
<title>Node49&#45;&gt;Node2</title>
<path fill="none" stroke="midnightblue" d="M487.17,-132.29C497.6,-135.1 508.29,-139.34 517,-145.71 547.77,-168.23 566.77,-211.56 574.07,-230.93"/>
</g>
</g>
</svg>
