<?xml version="1.0" encoding="UTF-8" standalone="no"?>
<!DOCTYPE svg PUBLIC "-//W3C//DTD SVG 1.1//EN"
 "http://www.w3.org/Graphics/SVG/1.1/DTD/svg11.dtd">
<!-- Generated by graphviz version 2.43.0 (0)
 -->
<!-- Title: NtripRtcmStream::getObs Pages: 1 -->
<svg width="324pt" height="104pt"
 viewBox="0.00 0.00 324.00 104.00" xmlns="http://www.w3.org/2000/svg" xmlns:xlink="http://www.w3.org/1999/xlink">
<g id="graph0" class="graph" transform="scale(1 1) rotate(0) translate(4 100)">
<title>NtripRtcmStream::getObs</title>
<polygon fill="white" stroke="transparent" points="-4,4 -4,-100 320,-100 320,4 -4,4"/>
<!-- Node1 -->
<g id="node1" class="node">
<title>Node1</title>
<g id="a_node1"><a xlink:title="Return a list of observations from the stream.">
<polygon fill="#bfbfbf" stroke="black" points="0,-38.5 0,-57.5 142,-57.5 142,-38.5 0,-38.5"/>
<text text-anchor="middle" x="71" y="-45.5" font-family="Helvetica,sans-Serif" font-size="10.00">NtripRtcmStream::getObs</text>
</a>
</g>
</g>
<!-- Node2 -->
<g id="node2" class="node">
<title>Node2</title>
<g id="a_node2"><a xlink:href="structNtripStream.html#afab7dfd25c95b98eadfe937b7d37bb7f" target="_top" xlink:title="Retrieve data from the stream and store it for later removal.">
<polygon fill="white" stroke="black" points="186.5,-76.5 186.5,-95.5 307.5,-95.5 307.5,-76.5 186.5,-76.5"/>
<text text-anchor="middle" x="247" y="-83.5" font-family="Helvetica,sans-Serif" font-size="10.00">NtripStream::getData</text>
</a>
</g>
</g>
<!-- Node1&#45;&gt;Node2 -->
<g id="edge1" class="edge">
<title>Node1&#45;&gt;Node2</title>
<path fill="none" stroke="midnightblue" d="M115.91,-57.59C142.39,-63.37 175.99,-70.71 202.41,-76.48"/>
</g>
<!-- Node3 -->
<g id="node3" class="node">
<title>Node3</title>
<g id="a_node3"><a xlink:href="structRtcmStream.html#a34a7a941dab214b7ff6b17e8a53eb55a" target="_top" xlink:title=" ">
<polygon fill="white" stroke="red" points="178,-38.5 178,-57.5 316,-57.5 316,-38.5 178,-38.5"/>
<text text-anchor="middle" x="247" y="-45.5" font-family="Helvetica,sans-Serif" font-size="10.00">RtcmStream::parseRTCM</text>
</a>
</g>
</g>
<!-- Node1&#45;&gt;Node3 -->
<g id="edge2" class="edge">
<title>Node1&#45;&gt;Node3</title>
<path fill="none" stroke="midnightblue" d="M142.02,-48C153.82,-48 166.06,-48 177.82,-48"/>
</g>
<!-- Node53 -->
<g id="node4" class="node">
<title>Node53</title>
<g id="a_node4"><a xlink:href="structObsStream.html#a72abbf0503505bc3f1a2c45f0dd5ae95" target="_top" xlink:title="Return a list of observations from the stream.">
<polygon fill="white" stroke="black" points="191.5,-0.5 191.5,-19.5 302.5,-19.5 302.5,-0.5 191.5,-0.5"/>
<text text-anchor="middle" x="247" y="-7.5" font-family="Helvetica,sans-Serif" font-size="10.00">ObsStream::getObs</text>
</a>
</g>
</g>
<!-- Node1&#45;&gt;Node53 -->
<g id="edge3" class="edge">
<title>Node1&#45;&gt;Node53</title>
<path fill="none" stroke="midnightblue" d="M115.91,-38.41C142.39,-32.63 175.99,-25.29 202.41,-19.52"/>
</g>
</g>
</svg>
