<?xml version="1.0" encoding="UTF-8" standalone="no"?>
<!DOCTYPE svg PUBLIC "-//W3C//DTD SVG 1.1//EN"
 "http://www.w3.org/Graphics/SVG/1.1/DTD/svg11.dtd">
<!-- Generated by graphviz version 2.43.0 (0)
 -->
<!-- Title: SerialState Pages: 1 -->
<svg width="276pt" height="193pt"
 viewBox="0.00 0.00 276.00 193.00" xmlns="http://www.w3.org/2000/svg" xmlns:xlink="http://www.w3.org/1999/xlink">
<g id="graph0" class="graph" transform="scale(1 1) rotate(0) translate(4 189)">
<title>SerialState</title>
<polygon fill="white" stroke="transparent" points="-4,4 -4,-189 272,-189 272,4 -4,4"/>
<!-- Node1 -->
<g id="node1" class="node">
<title>Node1</title>
<g id="a_node1"><a xlink:title=" ">
<polygon fill="#bfbfbf" stroke="black" points="89.5,-0.5 89.5,-68.5 186.5,-68.5 186.5,-0.5 89.5,-0.5"/>
<text text-anchor="middle" x="138" y="-56.5" font-family="Helvetica,sans-Serif" font-size="10.00">SerialState</text>
<polyline fill="none" stroke="black" points="89.5,-49.5 186.5,-49.5 "/>
<text text-anchor="middle" x="138" y="-37.5" font-family="Helvetica,sans-Serif" font-size="10.00"> </text>
<polyline fill="none" stroke="black" points="89.5,-30.5 186.5,-30.5 "/>
<text text-anchor="start" x="97.5" y="-18.5" font-family="Helvetica,sans-Serif" font-size="10.00">+ SerialState()</text>
<text text-anchor="start" x="97.5" y="-7.5" font-family="Helvetica,sans-Serif" font-size="10.00">+ ~SerialState()</text>
</a>
</g>
</g>
<!-- Node2 -->
<g id="node2" class="node">
<title>Node2</title>
<g id="a_node2"><a xlink:href="structSerialStateMembers.html" target="_top" xlink:title=" ">
<polygon fill="white" stroke="black" points="0,-111 0,-179 134,-179 134,-111 0,-111"/>
<text text-anchor="middle" x="67" y="-167" font-family="Helvetica,sans-Serif" font-size="10.00">SerialStateMembers</text>
<polyline fill="none" stroke="black" points="0,-160 134,-160 "/>
<text text-anchor="start" x="8" y="-148" font-family="Helvetica,sans-Serif" font-size="10.00">+ inputVector</text>
<text text-anchor="start" x="8" y="-137" font-family="Helvetica,sans-Serif" font-size="10.00">+ input_source</text>
<polyline fill="none" stroke="black" points="0,-130 134,-130 "/>
<text text-anchor="start" x="8" y="-118" font-family="Helvetica,sans-Serif" font-size="10.00">+ SerialStateMembers()</text>
</a>
</g>
</g>
<!-- Node2&#45;&gt;Node1 -->
<g id="edge1" class="edge">
<title>Node2&#45;&gt;Node1</title>
<path fill="none" stroke="midnightblue" d="M88.69,-110.86C97.42,-97.52 107.46,-82.17 116.2,-68.81"/>
</g>
<!-- Node3 -->
<g id="node3" class="node">
<title>Node3</title>
<g id="a_node3"><a xlink:title=" ">
<polygon fill="white" stroke="black" points="152,-105.5 152,-184.5 268,-184.5 268,-105.5 152,-105.5"/>
<text text-anchor="start" x="160" y="-172.5" font-family="Helvetica,sans-Serif" font-size="10.00">B_io::stream&lt; B_io</text>
<text text-anchor="start" x="160" y="-161.5" font-family="Helvetica,sans-Serif" font-size="10.00">::basic_array_source</text>
<text text-anchor="middle" x="210" y="-150.5" font-family="Helvetica,sans-Serif" font-size="10.00">&lt; char &gt; &gt;</text>
<polyline fill="none" stroke="black" points="152,-143.5 268,-143.5 "/>
<text text-anchor="middle" x="210" y="-131.5" font-family="Helvetica,sans-Serif" font-size="10.00"> </text>
<polyline fill="none" stroke="black" points="152,-124.5 268,-124.5 "/>
<text text-anchor="middle" x="210" y="-112.5" font-family="Helvetica,sans-Serif" font-size="10.00"> </text>
</a>
</g>
</g>
<!-- Node3&#45;&gt;Node1 -->
<g id="edge2" class="edge">
<title>Node3&#45;&gt;Node1</title>
<path fill="none" stroke="midnightblue" d="M184.41,-105.44C176.41,-93.38 167.66,-80.19 159.93,-68.54"/>
</g>
</g>
</svg>
