<?xml version="1.0" encoding="UTF-8" standalone="no"?>
<!DOCTYPE svg PUBLIC "-//W3C//DTD SVG 1.1//EN"
 "http://www.w3.org/Graphics/SVG/1.1/DTD/svg11.dtd">
<!-- Generated by graphviz version 2.43.0 (0)
 -->
<!-- Title: FileSp3Stream::FileSp3Stream Pages: 1 -->
<svg width="524pt" height="85pt"
 viewBox="0.00 0.00 524.00 85.00" xmlns="http://www.w3.org/2000/svg" xmlns:xlink="http://www.w3.org/1999/xlink">
<g id="graph0" class="graph" transform="scale(1 1) rotate(0) translate(4 81)">
<title>FileSp3Stream::FileSp3Stream</title>
<polygon fill="white" stroke="transparent" points="-4,4 -4,-81 520,-81 520,4 -4,4"/>
<!-- Node1 -->
<g id="node1" class="node">
<title>Node1</title>
<g id="a_node1"><a xlink:title=" ">
<polygon fill="#bfbfbf" stroke="black" points="0,-38.5 0,-57.5 162,-57.5 162,-38.5 0,-38.5"/>
<text text-anchor="middle" x="81" y="-45.5" font-family="Helvetica,sans-Serif" font-size="10.00">FileSp3Stream::FileSp3Stream</text>
</a>
</g>
</g>
<!-- Node2 -->
<g id="node2" class="node">
<title>Node2</title>
<g id="a_node2"><a xlink:href="structACSFileStream.html#a1554e80ed3bd78311b0b6a1764c054bb" target="_top" xlink:title=" ">
<polygon fill="white" stroke="black" points="198,-57.5 198,-76.5 329,-76.5 329,-57.5 198,-57.5"/>
<text text-anchor="middle" x="263.5" y="-64.5" font-family="Helvetica,sans-Serif" font-size="10.00">ACSFileStream::setPath</text>
</a>
</g>
</g>
<!-- Node1&#45;&gt;Node2 -->
<g id="edge1" class="edge">
<title>Node1&#45;&gt;Node2</title>
<path fill="none" stroke="midnightblue" d="M162.22,-56.44C174.18,-57.7 186.37,-58.99 197.95,-60.21"/>
</g>
<!-- Node3 -->
<g id="node3" class="node">
<title>Node3</title>
<g id="a_node3"><a xlink:href="structFileSp3Stream.html#a50e36c865c0f1ed824e2e8bea38a7aec" target="_top" xlink:title=" ">
<polygon fill="white" stroke="black" points="205.5,-19.5 205.5,-38.5 321.5,-38.5 321.5,-19.5 205.5,-19.5"/>
<text text-anchor="middle" x="263.5" y="-26.5" font-family="Helvetica,sans-Serif" font-size="10.00">FileSp3Stream::open</text>
</a>
</g>
</g>
<!-- Node1&#45;&gt;Node3 -->
<g id="edge2" class="edge">
<title>Node1&#45;&gt;Node3</title>
<path fill="none" stroke="midnightblue" d="M162.22,-39.56C176.72,-38.03 191.57,-36.47 205.25,-35.03"/>
</g>
<!-- Node4 -->
<g id="node4" class="node">
<title>Node4</title>
<g id="a_node4"><a xlink:href="structACSFileStream.html#a58b8f25aa5bcdb840d16acf3f2d8ff8c" target="_top" xlink:title=" ">
<polygon fill="white" stroke="black" points="373.5,-38.5 373.5,-57.5 507.5,-57.5 507.5,-38.5 373.5,-38.5"/>
<text text-anchor="middle" x="440.5" y="-45.5" font-family="Helvetica,sans-Serif" font-size="10.00">ACSFileStream::openFile</text>
</a>
</g>
</g>
<!-- Node3&#45;&gt;Node4 -->
<g id="edge3" class="edge">
<title>Node3&#45;&gt;Node4</title>
<path fill="none" stroke="midnightblue" d="M321.8,-35.22C338.25,-37.01 356.32,-38.97 373.26,-40.81"/>
</g>
<!-- Node5 -->
<g id="node5" class="node">
<title>Node5</title>
<g id="a_node5"><a xlink:href="structSP3Stream.html#a7e2155b38a09b6d00c656b8572c1bdd0" target="_top" xlink:title=" ">
<polygon fill="white" stroke="black" points="365,-0.5 365,-19.5 516,-19.5 516,-0.5 365,-0.5"/>
<text text-anchor="middle" x="440.5" y="-7.5" font-family="Helvetica,sans-Serif" font-size="10.00">SP3Stream::readSP3Header</text>
</a>
</g>
</g>
<!-- Node3&#45;&gt;Node5 -->
<g id="edge4" class="edge">
<title>Node3&#45;&gt;Node5</title>
<path fill="none" stroke="midnightblue" d="M321.8,-22.78C335.56,-21.29 350.45,-19.67 364.86,-18.1"/>
</g>
</g>
</svg>
