<?xml version="1.0" encoding="UTF-8" standalone="no"?>
<!DOCTYPE svg PUBLIC "-//W3C//DTD SVG 1.1//EN"
 "http://www.w3.org/Graphics/SVG/1.1/DTD/svg11.dtd">
<!-- Generated by graphviz version 2.43.0 (0)
 -->
<!-- Title: TestStack Pages: 1 -->
<!--zoomable 391 -->
<svg id="main" version="1.1" xmlns="http://www.w3.org/2000/svg" xmlns:xlink="http://www.w3.org/1999/xlink" xml:space="preserve" onload="init(evt)">
<style type="text/css"><![CDATA[
.edge:hover path { stroke: red; }
.edge:hover polygon { stroke: red; fill: red; }
]]></style>
<script type="text/javascript"><![CDATA[
var edges = document.getElementsByTagName('g');
if (edges && edges.length) {
  for (var i=0;i<edges.length;i++) {
    if (edges[i].id.substr(0,4)=='edge') {
      edges[i].setAttribute('class','edge');
    }
  }
}
]]></script>
        <defs>
                <circle id="rim" cx="0" cy="0" r="7"/>
                <circle id="rim2" cx="0" cy="0" r="3.5"/>
                <g id="zoomPlus">
                        <use xlink:href="#rim" fill="#404040">
                                <set attributeName="fill" to="#808080" begin="zoomplus.mouseover" end="zoomplus.mouseout"/>
                        </use>
                        <path d="M-4,0h8M0,-4v8" fill="none" stroke="white" stroke-width="1.5" pointer-events="none"/>
                </g>
                <g id="zoomMin">
                        <use xlink:href="#rim" fill="#404040">
                                <set attributeName="fill" to="#808080" begin="zoomminus.mouseover" end="zoomminus.mouseout"/>
                        </use>
                        <path d="M-4,0h8" fill="none" stroke="white" stroke-width="1.5" pointer-events="none"/>
                </g>
                <g id="dirArrow">
                        <path fill="none" stroke="white" stroke-width="1.5" d="M0,-3.0v7 M-2.5,-0.5L0,-3.0L2.5,-0.5"/>
                </g>
               <g id="resetDef">
                       <use xlink:href="#rim2" fill="#404040">
                               <set attributeName="fill" to="#808080" begin="reset.mouseover" end="reset.mouseout"/>
                       </use>
               </g>
        </defs>

<script type="text/javascript">
var viewWidth = 612;
var viewHeight = 391;
var sectionId = 'dynsection-0';
</script>
<script xlink:href="svgpan.js"/>
<svg id="graph" class="graph">
<g id="viewport">
<title>TestStack</title>
<polygon fill="white" stroke="transparent" points="-4,4 -4,-387 608,-387 608,4 -4,4"/>
<!-- Node1 -->
<g id="node1" class="node">
<title>Node1</title>
<g id="a_node1"><a xlink:title="Object to contain sets of tests to perform during runtime.">
<polygon fill="#bfbfbf" stroke="black" points="219,-0.5 219,-266.5 335,-266.5 335,-0.5 219,-0.5"/>
<text text-anchor="middle" x="277" y="-254.5" font-family="Helvetica,sans-Serif" font-size="10.00">TestStack</text>
<polyline fill="none" stroke="black" points="219,-247.5 335,-247.5 "/>
<text text-anchor="start" x="227" y="-235.5" font-family="Helvetica,sans-Serif" font-size="10.00">+ TestOutputStream</text>
<text text-anchor="start" x="227" y="-224.5" font-family="Helvetica,sans-Serif" font-size="10.00">+ TestNameStream</text>
<text text-anchor="start" x="227" y="-213.5" font-family="Helvetica,sans-Serif" font-size="10.00">+ DontTest</text>
<text text-anchor="start" x="227" y="-202.5" font-family="Helvetica,sans-Serif" font-size="10.00">+ NewData</text>
<polyline fill="none" stroke="black" points="219,-195.5 335,-195.5 "/>
<text text-anchor="start" x="227" y="-183.5" font-family="Helvetica,sans-Serif" font-size="10.00">+ TestStack()</text>
<text text-anchor="start" x="227" y="-172.5" font-family="Helvetica,sans-Serif" font-size="10.00">+ ~TestStack()</text>
<text text-anchor="start" x="227" y="-161.5" font-family="Helvetica,sans-Serif" font-size="10.00">+ printStatus()</text>
<text text-anchor="start" x="227" y="-150.5" font-family="Helvetica,sans-Serif" font-size="10.00">+ testStatus()</text>
<text text-anchor="start" x="227" y="-139.5" font-family="Helvetica,sans-Serif" font-size="10.00">+ openData()</text>
<text text-anchor="start" x="227" y="-128.5" font-family="Helvetica,sans-Serif" font-size="10.00">+ saveData()</text>
<text text-anchor="start" x="227" y="-117.5" font-family="Helvetica,sans-Serif" font-size="10.00">+ getStack()</text>
<text text-anchor="start" x="227" y="-106.5" font-family="Helvetica,sans-Serif" font-size="10.00">+ checkMat()</text>
<text text-anchor="start" x="227" y="-95.5" font-family="Helvetica,sans-Serif" font-size="10.00">+ testMat()</text>
<text text-anchor="start" x="227" y="-84.5" font-family="Helvetica,sans-Serif" font-size="10.00">+ testMat()</text>
<text text-anchor="start" x="227" y="-73.5" font-family="Helvetica,sans-Serif" font-size="10.00">+ checkMat()</text>
<text text-anchor="start" x="227" y="-62.5" font-family="Helvetica,sans-Serif" font-size="10.00">+ checkMat()</text>
<text text-anchor="start" x="227" y="-51.5" font-family="Helvetica,sans-Serif" font-size="10.00">+ testMat()</text>
<text text-anchor="start" x="227" y="-40.5" font-family="Helvetica,sans-Serif" font-size="10.00">+ testMat()</text>
<text text-anchor="start" x="227" y="-29.5" font-family="Helvetica,sans-Serif" font-size="10.00">+ testMat()</text>
<text text-anchor="start" x="227" y="-18.5" font-family="Helvetica,sans-Serif" font-size="10.00">+ testInt()</text>
<text text-anchor="start" x="227" y="-7.5" font-family="Helvetica,sans-Serif" font-size="10.00">+ testStr()</text>
</a>
</g>
</g>
<!-- Node2 -->
<g id="node2" class="node">
<title>Node2</title>
<g id="a_node2"><a xlink:title=" ">
<polygon fill="white" stroke="red" points="0,-325.5 0,-382.5 82,-382.5 82,-325.5 0,-325.5"/>
<text text-anchor="middle" x="41" y="-370.5" font-family="Helvetica,sans-Serif" font-size="10.00">list&lt; string &gt;</text>
<polyline fill="none" stroke="red" points="0,-363.5 82,-363.5 "/>
<text text-anchor="middle" x="41" y="-351.5" font-family="Helvetica,sans-Serif" font-size="10.00"> </text>
<polyline fill="none" stroke="red" points="0,-344.5 82,-344.5 "/>
<text text-anchor="middle" x="41" y="-332.5" font-family="Helvetica,sans-Serif" font-size="10.00"> </text>
</a>
</g>
</g>
<!-- Node2&#45;&gt;Node1 -->
<g id="edge1" class="edge">
<title>Node2&#45;&gt;Node1</title>
<path fill="none" stroke="#404040" d="M59.43,-325.3C68.55,-312.46 80.14,-297.34 92,-285 131.02,-244.41 180.8,-204.47 218.88,-175.95"/>
<text text-anchor="middle" x="130" y="-293.5" font-family="Helvetica,sans-Serif" font-size="10.00"> +TestStackList</text>
</g>
<!-- Node4 -->
<g id="node3" class="node">
<title>Node4</title>
<g id="a_node3"><a xlink:title=" ">
<polygon fill="white" stroke="red" points="100,-325.5 100,-382.5 198,-382.5 198,-325.5 100,-325.5"/>
<text text-anchor="middle" x="149" y="-370.5" font-family="Helvetica,sans-Serif" font-size="10.00">vector&lt; string &gt;</text>
<polyline fill="none" stroke="red" points="100,-363.5 198,-363.5 "/>
<text text-anchor="middle" x="149" y="-351.5" font-family="Helvetica,sans-Serif" font-size="10.00"> </text>
<polyline fill="none" stroke="red" points="100,-344.5 198,-344.5 "/>
<text text-anchor="middle" x="149" y="-332.5" font-family="Helvetica,sans-Serif" font-size="10.00"> </text>
</a>
</g>
</g>
<!-- Node4&#45;&gt;Node1 -->
<g id="edge2" class="edge">
<title>Node4&#45;&gt;Node1</title>
<path fill="none" stroke="#404040" d="M162.15,-325.23C168.23,-312.78 175.71,-298.01 183,-285 194.15,-265.12 206.71,-244.15 218.93,-224.39"/>
<text text-anchor="middle" x="228" y="-293.5" font-family="Helvetica,sans-Serif" font-size="10.00"> +RecordStackList</text>
</g>
<!-- Node6 -->
<g id="node4" class="node">
<title>Node6</title>
<g id="a_node4"><a xlink:title=" ">
<polygon fill="white" stroke="red" points="216,-325.5 216,-382.5 338,-382.5 338,-325.5 216,-325.5"/>
<text text-anchor="middle" x="277" y="-370.5" font-family="Helvetica,sans-Serif" font-size="10.00">vector&lt; TestThingy &gt;</text>
<polyline fill="none" stroke="red" points="216,-363.5 338,-363.5 "/>
<text text-anchor="middle" x="277" y="-351.5" font-family="Helvetica,sans-Serif" font-size="10.00"> </text>
<polyline fill="none" stroke="red" points="216,-344.5 338,-344.5 "/>
<text text-anchor="middle" x="277" y="-332.5" font-family="Helvetica,sans-Serif" font-size="10.00"> </text>
</a>
</g>
</g>
<!-- Node6&#45;&gt;Node1 -->
<g id="edge3" class="edge">
<title>Node6&#45;&gt;Node1</title>
<path fill="none" stroke="#404040" d="M277,-325.33C277,-309.71 277,-288.92 277,-266.82"/>
<text text-anchor="middle" x="321.5" y="-293.5" font-family="Helvetica,sans-Serif" font-size="10.00"> +TestDoubleData</text>
</g>
<!-- Node7 -->
<g id="node5" class="node">
<title>Node7</title>
<g id="a_node5"><a xlink:title=" ">
<polygon fill="white" stroke="red" points="356.5,-325.5 356.5,-382.5 463.5,-382.5 463.5,-325.5 356.5,-325.5"/>
<text text-anchor="middle" x="410" y="-370.5" font-family="Helvetica,sans-Serif" font-size="10.00">list&lt; TestThingy &gt;</text>
<polyline fill="none" stroke="red" points="356.5,-363.5 463.5,-363.5 "/>
<text text-anchor="middle" x="410" y="-351.5" font-family="Helvetica,sans-Serif" font-size="10.00"> </text>
<polyline fill="none" stroke="red" points="356.5,-344.5 463.5,-344.5 "/>
<text text-anchor="middle" x="410" y="-332.5" font-family="Helvetica,sans-Serif" font-size="10.00"> </text>
</a>
</g>
</g>
<!-- Node7&#45;&gt;Node1 -->
<g id="edge4" class="edge">
<title>Node7&#45;&gt;Node1</title>
<path fill="none" stroke="#404040" d="M393.98,-325.46C386.72,-313.06 377.99,-298.25 370,-285 358.82,-266.46 346.74,-246.71 335.11,-227.84"/>
<text text-anchor="middle" x="423" y="-293.5" font-family="Helvetica,sans-Serif" font-size="10.00"> +RecordedTests</text>
</g>
<!-- Node8 -->
<g id="node6" class="node">
<title>Node8</title>
<g id="a_node6"><a xlink:title=" ">
<polygon fill="white" stroke="red" points="482,-325.5 482,-382.5 604,-382.5 604,-325.5 482,-325.5"/>
<text text-anchor="middle" x="543" y="-370.5" font-family="Helvetica,sans-Serif" font-size="10.00">map&lt; string, string &gt;</text>
<polyline fill="none" stroke="red" points="482,-363.5 604,-363.5 "/>
<text text-anchor="middle" x="543" y="-351.5" font-family="Helvetica,sans-Serif" font-size="10.00"> </text>
<polyline fill="none" stroke="red" points="482,-344.5 604,-344.5 "/>
<text text-anchor="middle" x="543" y="-332.5" font-family="Helvetica,sans-Serif" font-size="10.00"> </text>
</a>
</g>
</g>
<!-- Node8&#45;&gt;Node1 -->
<g id="edge5" class="edge">
<title>Node8&#45;&gt;Node1</title>
<path fill="none" stroke="#404040" d="M513.49,-325.39C499.85,-312.84 483.3,-297.94 468,-285 424.32,-248.06 373.37,-208.07 335.08,-178.59"/>
<text text-anchor="middle" x="533" y="-299" font-family="Helvetica,sans-Serif" font-size="10.00"> +TestRedirect</text>
<text text-anchor="middle" x="533" y="-288" font-family="Helvetica,sans-Serif" font-size="10.00">+TestStringData</text>
</g>
</g>
</svg>
        <g id="navigator" transform="translate(0 0)" fill="#404254">
                <rect fill="#f2f5e9" fill-opacity="0.5" stroke="#606060" stroke-width=".5" x="0" y="0" width="60" height="60"/>
                <use id="zoomplus" xlink:href="#zoomPlus" x="17" y="9" onmousedown="handleZoom(evt,'in')"/>
                <use id="zoomminus" xlink:href="#zoomMin" x="42" y="9" onmousedown="handleZoom(evt,'out')"/>
                <use id="reset" xlink:href="#resetDef" x="30" y="36" onmousedown="handleReset()"/>
                <g id="arrowUp" xlink:href="#dirArrow" transform="translate(30 24)" onmousedown="handlePan(0,-1)">
                  <use xlink:href="#rim" fill="#404040">
                        <set attributeName="fill" to="#808080" begin="arrowUp.mouseover" end="arrowUp.mouseout"/>
                  </use>
                  <path fill="none" stroke="white" stroke-width="1.5" d="M0,-3.0v7 M-2.5,-0.5L0,-3.0L2.5,-0.5"/>
                </g>
                <g id="arrowRight" xlink:href="#dirArrow" transform="rotate(90) translate(36 -43)" onmousedown="handlePan(1,0)">
                  <use xlink:href="#rim" fill="#404040">
                        <set attributeName="fill" to="#808080" begin="arrowRight.mouseover" end="arrowRight.mouseout"/>
                  </use>
                  <path fill="none" stroke="white" stroke-width="1.5" d="M0,-3.0v7 M-2.5,-0.5L0,-3.0L2.5,-0.5"/>
                </g>
                <g id="arrowDown" xlink:href="#dirArrow" transform="rotate(180) translate(-30 -48)" onmousedown="handlePan(0,1)">
                  <use xlink:href="#rim" fill="#404040">
                        <set attributeName="fill" to="#808080" begin="arrowDown.mouseover" end="arrowDown.mouseout"/>
                  </use>
                  <path fill="none" stroke="white" stroke-width="1.5" d="M0,-3.0v7 M-2.5,-0.5L0,-3.0L2.5,-0.5"/>
                </g>
                <g id="arrowLeft" xlink:href="#dirArrow" transform="rotate(270) translate(-36 17)" onmousedown="handlePan(-1,0)">
                  <use xlink:href="#rim" fill="#404040">
                        <set attributeName="fill" to="#808080" begin="arrowLeft.mouseover" end="arrowLeft.mouseout"/>
                  </use>
                  <path fill="none" stroke="white" stroke-width="1.5" d="M0,-3.0v7 M-2.5,-0.5L0,-3.0L2.5,-0.5"/>
                </g>
        </g>
        <svg viewBox="0 0 15 15" width="100%" height="30px" preserveAspectRatio="xMaxYMin meet">
         <g id="arrow_out" transform="scale(0.3 0.3)">
          <a xlink:href="structTestStack__coll__graph_org.svg" target="_base">
           <rect id="button" ry="5" rx="5" y="6" x="6" height="38" width="38"
                fill="#f2f5e9" fill-opacity="0.5" stroke="#606060" stroke-width="1.0"/>
           <path id="arrow"
             d="M 11.500037,31.436501 C 11.940474,20.09759 22.043105,11.32322 32.158766,21.979434 L 37.068811,17.246167 C 37.068811,17.246167 37.088388,32 37.088388,32 L 22.160133,31.978069 C 22.160133,31.978069 26.997745,27.140456 26.997745,27.140456 C 18.528582,18.264221 13.291696,25.230495 11.500037,31.436501 z"
             style="fill:#404040;"/>
          </a>
         </g>
        </svg>
</svg>
