<?xml version="1.0" encoding="UTF-8" standalone="no"?>
<!DOCTYPE svg PUBLIC "-//W3C//DTD SVG 1.1//EN"
 "http://www.w3.org/Graphics/SVG/1.1/DTD/svg11.dtd">
<!-- Generated by graphviz version 2.43.0 (0)
 -->
<!-- Title: InertialState Pages: 1 -->
<svg width="705pt" height="1784pt"
 viewBox="0.00 0.00 704.50 1784.00" xmlns="http://www.w3.org/2000/svg" xmlns:xlink="http://www.w3.org/1999/xlink">
<g id="graph0" class="graph" transform="scale(1 1) rotate(0) translate(4 1780)">
<title>InertialState</title>
<!-- Node1 -->
<g id="Node000001" class="node">
<title>Node1</title>
<g id="a_Node000001"><a xlink:href="structInertialState.html" target="_top" xlink:title=" ">
<path fill="white" stroke="#666666" stroke-width="2" d="M473,-162C473,-162 394,-162 394,-162 388,-162 382,-156 382,-150 382,-150 382,-27 382,-27 382,-21 388,-15 394,-15 394,-15 473,-15 473,-15 479,-15 485,-21 485,-27 485,-27 485,-150 485,-150 485,-156 479,-162 473,-162"/>
<text text-anchor="start" x="403.5" y="-145.5" font-family="Helvetica,sans-Serif" font-size="10.00">InertialState</text>
<text text-anchor="start" x="394.5" y="-130.5" font-family="Helvetica,sans-Serif" font-size="10.00">+</text>
<text text-anchor="start" x="407.5" y="-130.5" font-family="Helvetica,sans-Serif" font-size="10.00">exclude</text>
<text text-anchor="start" x="394.5" y="-115.5" font-family="Helvetica,sans-Serif" font-size="10.00">+</text>
<text text-anchor="start" x="407.5" y="-115.5" font-family="Helvetica,sans-Serif" font-size="10.00">numParams</text>
<text text-anchor="start" x="394.5" y="-100.5" font-family="Helvetica,sans-Serif" font-size="10.00">+</text>
<text text-anchor="start" x="407.5" y="-100.5" font-family="Helvetica,sans-Serif" font-size="10.00">posVar</text>
<text text-anchor="start" x="394.5" y="-85.5" font-family="Helvetica,sans-Serif" font-size="10.00">+</text>
<text text-anchor="start" x="407.5" y="-85.5" font-family="Helvetica,sans-Serif" font-size="10.00">operator+=()</text>
<text text-anchor="start" x="394.5" y="-70.5" font-family="Helvetica,sans-Serif" font-size="10.00">+</text>
<text text-anchor="start" x="407.5" y="-70.5" font-family="Helvetica,sans-Serif" font-size="10.00">operator*=()</text>
<text text-anchor="start" x="394.5" y="-55.5" font-family="Helvetica,sans-Serif" font-size="10.00">+</text>
<text text-anchor="start" x="407.5" y="-55.5" font-family="Helvetica,sans-Serif" font-size="10.00">operator+()</text>
<text text-anchor="start" x="394.5" y="-40.5" font-family="Helvetica,sans-Serif" font-size="10.00">+</text>
<text text-anchor="start" x="407.5" y="-40.5" font-family="Helvetica,sans-Serif" font-size="10.00">operator+()</text>
<text text-anchor="start" x="394.5" y="-25.5" font-family="Helvetica,sans-Serif" font-size="10.00">+</text>
<text text-anchor="start" x="407.5" y="-25.5" font-family="Helvetica,sans-Serif" font-size="10.00">operator*()</text>
<polygon fill="#666666" stroke="#666666" points="390.5,-140.5 390.5,-140.5 477.5,-140.5 477.5,-140.5 390.5,-140.5"/>
<polygon fill="#666666" stroke="#666666" points="390.5,-95.5 390.5,-95.5 405.5,-95.5 405.5,-95.5 390.5,-95.5"/>
<polygon fill="#666666" stroke="#666666" points="405.5,-95.5 405.5,-95.5 477.5,-95.5 477.5,-95.5 405.5,-95.5"/>
<polygon fill="none" stroke="#666666" points="390,-19 390,-158 477,-158 477,-19 390,-19"/>
</a>
</g>
</g>
<!-- Node2 -->
<g id="Node000002" class="node">
<title>Node2</title>
<g id="a_Node000002"><a xlink:href="structSatSys.html" target="_top" xlink:title="Object holding satellite id, and providing related functions.">
<path fill="white" stroke="#666666" d="M501,-1511C501,-1511 408,-1511 408,-1511 402,-1511 396,-1505 396,-1499 396,-1499 396,-1226 396,-1226 396,-1220 402,-1214 408,-1214 408,-1214 501,-1214 501,-1214 507,-1214 513,-1220 513,-1226 513,-1226 513,-1499 513,-1499 513,-1505 507,-1511 501,-1511"/>
<text text-anchor="start" x="438" y="-1494.5" font-family="Helvetica,sans-Serif" font-size="10.00">SatSys</text>
<text text-anchor="start" x="408.5" y="-1479.5" font-family="Helvetica,sans-Serif" font-size="10.00">+</text>
<text text-anchor="start" x="421.5" y="-1479.5" font-family="Helvetica,sans-Serif" font-size="10.00">sys</text>
<text text-anchor="start" x="408.5" y="-1464.5" font-family="Helvetica,sans-Serif" font-size="10.00">+</text>
<text text-anchor="start" x="421.5" y="-1464.5" font-family="Helvetica,sans-Serif" font-size="10.00">prn</text>
<text text-anchor="start" x="408.5" y="-1449.5" font-family="Helvetica,sans-Serif" font-size="10.00">+</text>
<text text-anchor="start" x="421.5" y="-1449.5" font-family="Helvetica,sans-Serif" font-size="10.00">SatSys()</text>
<text text-anchor="start" x="408.5" y="-1434.5" font-family="Helvetica,sans-Serif" font-size="10.00">+</text>
<text text-anchor="start" x="421.5" y="-1434.5" font-family="Helvetica,sans-Serif" font-size="10.00">sysChar()</text>
<text text-anchor="start" x="408.5" y="-1419.5" font-family="Helvetica,sans-Serif" font-size="10.00">+</text>
<text text-anchor="start" x="421.5" y="-1419.5" font-family="Helvetica,sans-Serif" font-size="10.00">getId()</text>
<text text-anchor="start" x="408.5" y="-1404.5" font-family="Helvetica,sans-Serif" font-size="10.00">+</text>
<text text-anchor="start" x="421.5" y="-1404.5" font-family="Helvetica,sans-Serif" font-size="10.00">operator int()</text>
<text text-anchor="start" x="408.5" y="-1389.5" font-family="Helvetica,sans-Serif" font-size="10.00">+</text>
<text text-anchor="start" x="421.5" y="-1389.5" font-family="Helvetica,sans-Serif" font-size="10.00">setBlockType()</text>
<text text-anchor="start" x="408.5" y="-1374.5" font-family="Helvetica,sans-Serif" font-size="10.00">+</text>
<text text-anchor="start" x="421.5" y="-1374.5" font-family="Helvetica,sans-Serif" font-size="10.00">setSvn()</text>
<text text-anchor="start" x="408.5" y="-1359.5" font-family="Helvetica,sans-Serif" font-size="10.00">+</text>
<text text-anchor="start" x="421.5" y="-1359.5" font-family="Helvetica,sans-Serif" font-size="10.00">blockType()</text>
<text text-anchor="start" x="408.5" y="-1344.5" font-family="Helvetica,sans-Serif" font-size="10.00">+</text>
<text text-anchor="start" x="421.5" y="-1344.5" font-family="Helvetica,sans-Serif" font-size="10.00">svn()</text>
<text text-anchor="start" x="408.5" y="-1329.5" font-family="Helvetica,sans-Serif" font-size="10.00">+</text>
<text text-anchor="start" x="421.5" y="-1329.5" font-family="Helvetica,sans-Serif" font-size="10.00">fromHash()</text>
<text text-anchor="start" x="408.5" y="-1314.5" font-family="Helvetica,sans-Serif" font-size="10.00">+</text>
<text text-anchor="start" x="421.5" y="-1314.5" font-family="Helvetica,sans-Serif" font-size="10.00">id()</text>
<text text-anchor="start" x="408.5" y="-1299.5" font-family="Helvetica,sans-Serif" font-size="10.00">+</text>
<text text-anchor="start" x="421.5" y="-1299.5" font-family="Helvetica,sans-Serif" font-size="10.00">operator string()</text>
<text text-anchor="start" x="408.5" y="-1284.5" font-family="Helvetica,sans-Serif" font-size="10.00">+</text>
<text text-anchor="start" x="421.5" y="-1284.5" font-family="Helvetica,sans-Serif" font-size="10.00">SatSys()</text>
<text text-anchor="start" x="408.5" y="-1269.5" font-family="Helvetica,sans-Serif" font-size="10.00">+</text>
<text text-anchor="start" x="421.5" y="-1269.5" font-family="Helvetica,sans-Serif" font-size="10.00">sysName()</text>
<text text-anchor="start" x="408.5" y="-1254.5" font-family="Helvetica,sans-Serif" font-size="10.00">+</text>
<text text-anchor="start" x="421.5" y="-1254.5" font-family="Helvetica,sans-Serif" font-size="10.00">serialize()</text>
<text text-anchor="start" x="408.5" y="-1239.5" font-family="Helvetica,sans-Serif" font-size="10.00">+</text>
<text text-anchor="start" x="421.5" y="-1239.5" font-family="Helvetica,sans-Serif" font-size="10.00">noSat()</text>
<text text-anchor="start" x="408.5" y="-1224.5" font-family="Helvetica,sans-Serif" font-size="10.00">+</text>
<text text-anchor="start" x="421.5" y="-1224.5" font-family="Helvetica,sans-Serif" font-size="10.00">sysFromChar()</text>
<polygon fill="#666666" stroke="#666666" points="404.5,-1489.5 404.5,-1489.5 505.5,-1489.5 505.5,-1489.5 404.5,-1489.5"/>
<polygon fill="#666666" stroke="#666666" points="404.5,-1459.5 404.5,-1459.5 419.5,-1459.5 419.5,-1459.5 404.5,-1459.5"/>
<polygon fill="#666666" stroke="#666666" points="419.5,-1459.5 419.5,-1459.5 505.5,-1459.5 505.5,-1459.5 419.5,-1459.5"/>
<polygon fill="none" stroke="#666666" points="404,-1218 404,-1507 505,-1507 505,-1218 404,-1218"/>
</a>
</g>
</g>
<!-- Node2&#45;&gt;Node1 -->
<g id="edge1_Node000001_Node000002" class="edge">
<title>Node2&#45;&gt;Node1</title>
<g id="a_edge1_Node000001_Node000002"><a xlink:title=" ">
<path fill="none" stroke="#63b8ff" d="M458.95,-1213.99C464.39,-992.46 470.21,-560.8 446.5,-195 446.06,-188.16 445.47,-181.08 444.79,-173.98"/>
<polygon fill="none" stroke="#63b8ff" points="444.79,-173.98 440.19,-168.42 443.56,-162.04 448.15,-167.6 444.79,-173.98"/>
</a>
</g>
<text text-anchor="middle" x="476.5" y="-947.5" font-family="Helvetica,sans-Serif" font-size="10.00" fill="grey"> +Sat</text>
</g>
<!-- Node30 -->
<g id="Node000030" class="node">
<title>Node30</title>
<g id="a_Node000030"><a xlink:href="structKFKey.html" target="_top" xlink:title="Keys used to interface with Kalman filter objects.">
<path fill="#fff0f0" stroke="red" d="M404,-1156C404,-1156 311,-1156 311,-1156 305,-1156 299,-1150 299,-1144 299,-1144 299,-991 299,-991 299,-985 305,-979 311,-979 311,-979 404,-979 404,-979 410,-979 416,-985 416,-991 416,-991 416,-1144 416,-1144 416,-1150 410,-1156 404,-1156"/>
<text text-anchor="start" x="342.5" y="-1139.5" font-family="Helvetica,sans-Serif" font-size="10.00">KFKey</text>
<text text-anchor="start" x="311.5" y="-1124.5" font-family="Helvetica,sans-Serif" font-size="10.00">+</text>
<text text-anchor="start" x="324.5" y="-1124.5" font-family="Helvetica,sans-Serif" font-size="10.00">type</text>
<text text-anchor="start" x="311.5" y="-1109.5" font-family="Helvetica,sans-Serif" font-size="10.00">+</text>
<text text-anchor="start" x="324.5" y="-1109.5" font-family="Helvetica,sans-Serif" font-size="10.00">num</text>
<text text-anchor="start" x="311.5" y="-1094.5" font-family="Helvetica,sans-Serif" font-size="10.00">+</text>
<text text-anchor="start" x="324.5" y="-1094.5" font-family="Helvetica,sans-Serif" font-size="10.00">operator!=()</text>
<text text-anchor="start" x="311.5" y="-1079.5" font-family="Helvetica,sans-Serif" font-size="10.00">+</text>
<text text-anchor="start" x="324.5" y="-1079.5" font-family="Helvetica,sans-Serif" font-size="10.00">operator==()</text>
<text text-anchor="start" x="311.5" y="-1064.5" font-family="Helvetica,sans-Serif" font-size="10.00">+</text>
<text text-anchor="start" x="324.5" y="-1064.5" font-family="Helvetica,sans-Serif" font-size="10.00">operator&lt;()</text>
<text text-anchor="start" x="311.5" y="-1049.5" font-family="Helvetica,sans-Serif" font-size="10.00">+</text>
<text text-anchor="start" x="324.5" y="-1049.5" font-family="Helvetica,sans-Serif" font-size="10.00">code()</text>
<text text-anchor="start" x="311.5" y="-1034.5" font-family="Helvetica,sans-Serif" font-size="10.00">+</text>
<text text-anchor="start" x="324.5" y="-1034.5" font-family="Helvetica,sans-Serif" font-size="10.00">operator string()</text>
<text text-anchor="start" x="311.5" y="-1019.5" font-family="Helvetica,sans-Serif" font-size="10.00">+</text>
<text text-anchor="start" x="324.5" y="-1019.5" font-family="Helvetica,sans-Serif" font-size="10.00">commaString()</text>
<text text-anchor="start" x="311.5" y="-1004.5" font-family="Helvetica,sans-Serif" font-size="10.00">+</text>
<text text-anchor="start" x="324.5" y="-1004.5" font-family="Helvetica,sans-Serif" font-size="10.00">serialize()</text>
<text text-anchor="start" x="311.5" y="-989.5" font-family="Helvetica,sans-Serif" font-size="10.00">+</text>
<text text-anchor="start" x="324.5" y="-989.5" font-family="Helvetica,sans-Serif" font-size="10.00">emptyString()</text>
<polygon fill="red" stroke="red" points="307.5,-1134.5 307.5,-1134.5 408.5,-1134.5 408.5,-1134.5 307.5,-1134.5"/>
<polygon fill="red" stroke="red" points="307.5,-1104.5 307.5,-1104.5 322.5,-1104.5 322.5,-1104.5 307.5,-1104.5"/>
<polygon fill="red" stroke="red" points="322.5,-1104.5 322.5,-1104.5 408.5,-1104.5 408.5,-1104.5 322.5,-1104.5"/>
<polygon fill="none" stroke="red" points="307,-983 307,-1152 408,-1152 408,-983 307,-983"/>
</a>
</g>
</g>
<!-- Node2&#45;&gt;Node30 -->
<g id="edge12_Node000030_Node000002" class="edge">
<title>Node2&#45;&gt;Node30</title>
<g id="a_edge12_Node000030_Node000002"><a xlink:title=" ">
<path fill="none" stroke="#63b8ff" d="M408.69,-1213.93C404.3,-1200.4 399.86,-1186.93 395.5,-1174 394.8,-1171.91 394.08,-1169.8 393.35,-1167.68"/>
<polygon fill="none" stroke="#63b8ff" points="393.31,-1167.54 387.57,-1163.17 389.39,-1156.19 395.13,-1160.56 393.31,-1167.54"/>
</a>
</g>
<text text-anchor="middle" x="415.5" y="-1182.5" font-family="Helvetica,sans-Serif" font-size="10.00" fill="grey"> +Sat</text>
</g>
<!-- Node3 -->
<g id="Node000003" class="node">
<title>Node3</title>
<g id="a_Node000003"><a xlink:title=" ">
<path fill="white" stroke="#666666" d="M469.5,-1672C469.5,-1672 361.5,-1672 361.5,-1672 355.5,-1672 349.5,-1666 349.5,-1660 349.5,-1660 349.5,-1616 349.5,-1616 349.5,-1610 355.5,-1604 361.5,-1604 361.5,-1604 469.5,-1604 469.5,-1604 475.5,-1604 481.5,-1610 481.5,-1616 481.5,-1616 481.5,-1660 481.5,-1660 481.5,-1666 475.5,-1672 469.5,-1672"/>
<text text-anchor="start" x="362.5" y="-1656" font-family="Helvetica,sans-Serif" font-size="10.00">map&lt; SatSys, SatSys</text>
<text text-anchor="start" x="387" y="-1645" font-family="Helvetica,sans-Serif" font-size="10.00">::SatData &gt;</text>
<text text-anchor="start" x="413.5" y="-1630" font-family="Helvetica,sans-Serif" font-size="10.00"> </text>
<text text-anchor="start" x="413.5" y="-1615" font-family="Helvetica,sans-Serif" font-size="10.00"> </text>
<polygon fill="#666666" stroke="#666666" points="357.5,-1640 357.5,-1640 473.5,-1640 473.5,-1640 357.5,-1640"/>
<polygon fill="#666666" stroke="#666666" points="357.5,-1625 357.5,-1625 473.5,-1625 473.5,-1625 357.5,-1625"/>
<polygon fill="none" stroke="#666666" points="357.5,-1608 357.5,-1668 473.5,-1668 473.5,-1608 357.5,-1608"/>
</a>
</g>
</g>
<!-- Node3&#45;&gt;Node2 -->
<g id="edge2_Node000002_Node000003" class="edge">
<title>Node3&#45;&gt;Node2</title>
<g id="a_edge2_Node000002_Node000003"><a xlink:title=" ">
<path fill="none" stroke="#63b8ff" d="M413.26,-1603.82C412.95,-1597.89 412.67,-1591.76 412.5,-1586 411.76,-1560.68 409.36,-1554.14 412.5,-1529 412.74,-1527.07 413,-1525.13 413.27,-1523.18"/>
<polygon fill="none" stroke="#63b8ff" points="413.3,-1522.99 410.25,-1516.46 415.1,-1511.13 418.15,-1517.66 413.3,-1522.99"/>
</a>
</g>
<text text-anchor="middle" x="448" y="-1555" font-family="Helvetica,sans-Serif" font-size="10.00" fill="grey"> +satDataMap</text>
</g>
<!-- Node4 -->
<g id="Node000004" class="node">
<title>Node4</title>
<g id="a_Node000004"><a xlink:title=" ">
<path fill="white" stroke="#666666" d="M509.5,-1776C509.5,-1776 485.5,-1776 485.5,-1776 479.5,-1776 473.5,-1770 473.5,-1764 473.5,-1764 473.5,-1731 473.5,-1731 473.5,-1725 479.5,-1719 485.5,-1719 485.5,-1719 509.5,-1719 509.5,-1719 515.5,-1719 521.5,-1725 521.5,-1731 521.5,-1731 521.5,-1764 521.5,-1764 521.5,-1770 515.5,-1776 509.5,-1776"/>
<text text-anchor="start" x="486.5" y="-1759.5" font-family="Helvetica,sans-Serif" font-size="10.00">map</text>
<text text-anchor="start" x="495.5" y="-1744.5" font-family="Helvetica,sans-Serif" font-size="10.00"> </text>
<text text-anchor="start" x="495.5" y="-1729.5" font-family="Helvetica,sans-Serif" font-size="10.00"> </text>
<polygon fill="#666666" stroke="#666666" points="481.5,-1754.5 481.5,-1754.5 513.5,-1754.5 513.5,-1754.5 481.5,-1754.5"/>
<polygon fill="#666666" stroke="#666666" points="481.5,-1739.5 481.5,-1739.5 513.5,-1739.5 513.5,-1739.5 481.5,-1739.5"/>
<polygon fill="none" stroke="#666666" points="481.5,-1723 481.5,-1772 513.5,-1772 513.5,-1723 481.5,-1723"/>
</a>
</g>
</g>
<!-- Node4&#45;&gt;Node3 -->
<g id="edge3_Node000003_Node000004" class="edge">
<title>Node4&#45;&gt;Node3</title>
<g id="a_edge3_Node000003_Node000004"><a xlink:title=" ">
<path fill="none" stroke="orange" d="M463.83,-1736.98C446.11,-1730.08 425.95,-1718.76 415.5,-1701 410.48,-1692.47 409.06,-1682.06 409.31,-1672.23"/>
<polygon fill="orange" stroke="orange" points="462.74,-1740.31 473.34,-1740.38 465.1,-1733.72 462.74,-1740.31"/>
</a>
</g>
<text text-anchor="middle" x="487" y="-1693" font-family="Helvetica,sans-Serif" font-size="10.00" fill="grey"> &lt; SatSys, SatSys::SatData &gt;</text>
</g>
<!-- Node67 -->
<g id="Node000067" class="node">
<title>Node67</title>
<g id="a_Node000067"><a xlink:title=" ">
<path fill="white" stroke="#666666" d="M657,-1586C657,-1586 504,-1586 504,-1586 498,-1586 492,-1580 492,-1574 492,-1574 492,-1541 492,-1541 492,-1535 498,-1529 504,-1529 504,-1529 657,-1529 657,-1529 663,-1529 669,-1535 669,-1541 669,-1541 669,-1574 669,-1574 669,-1580 663,-1586 657,-1586"/>
<text text-anchor="start" x="505.5" y="-1569.5" font-family="Helvetica,sans-Serif" font-size="10.00">map&lt; E_Component, double &gt;</text>
<text text-anchor="start" x="579" y="-1554.5" font-family="Helvetica,sans-Serif" font-size="10.00"> </text>
<text text-anchor="start" x="579" y="-1539.5" font-family="Helvetica,sans-Serif" font-size="10.00"> </text>
<polygon fill="#666666" stroke="#666666" points="500.5,-1564.5 500.5,-1564.5 661.5,-1564.5 661.5,-1564.5 500.5,-1564.5"/>
<polygon fill="#666666" stroke="#666666" points="500.5,-1549.5 500.5,-1549.5 661.5,-1549.5 661.5,-1549.5 500.5,-1549.5"/>
<polygon fill="none" stroke="#666666" points="500,-1533 500,-1582 661,-1582 661,-1533 500,-1533"/>
</a>
</g>
</g>
<!-- Node4&#45;&gt;Node67 -->
<g id="edge15_Node000067_Node000004" class="edge">
<title>Node4&#45;&gt;Node67</title>
<g id="a_edge15_Node000067_Node000004"><a xlink:title=" ">
<path fill="none" stroke="orange" d="M530.51,-1728.85C541.06,-1721.59 551.74,-1712.23 558.5,-1701 579.86,-1665.5 582.79,-1616.34 582.2,-1586.02"/>
<polygon fill="orange" stroke="orange" points="528.31,-1726.1 521.77,-1734.44 532.08,-1732 528.31,-1726.1"/>
</a>
</g>
<text text-anchor="middle" x="630" y="-1693" font-family="Helvetica,sans-Serif" font-size="10.00" fill="grey"> &lt; E_Component, double &gt;</text>
</g>
<!-- Node5 -->
<g id="Node000005" class="node">
<title>Node5</title>
<g id="a_Node000005"><a xlink:title=" ">
<path fill="white" stroke="#666666" d="M310.5,-1391C310.5,-1391 280.5,-1391 280.5,-1391 274.5,-1391 268.5,-1385 268.5,-1379 268.5,-1379 268.5,-1346 268.5,-1346 268.5,-1340 274.5,-1334 280.5,-1334 280.5,-1334 310.5,-1334 310.5,-1334 316.5,-1334 322.5,-1340 322.5,-1346 322.5,-1346 322.5,-1379 322.5,-1379 322.5,-1385 316.5,-1391 310.5,-1391"/>
<text text-anchor="start" x="281.5" y="-1374.5" font-family="Helvetica,sans-Serif" font-size="10.00">string</text>
<text text-anchor="start" x="293.5" y="-1359.5" font-family="Helvetica,sans-Serif" font-size="10.00"> </text>
<text text-anchor="start" x="293.5" y="-1344.5" font-family="Helvetica,sans-Serif" font-size="10.00"> </text>
<polygon fill="#666666" stroke="#666666" points="276.5,-1369.5 276.5,-1369.5 314.5,-1369.5 314.5,-1369.5 276.5,-1369.5"/>
<polygon fill="#666666" stroke="#666666" points="276.5,-1354.5 276.5,-1354.5 314.5,-1354.5 314.5,-1354.5 276.5,-1354.5"/>
<polygon fill="none" stroke="#666666" points="276.5,-1338 276.5,-1387 314.5,-1387 314.5,-1338 276.5,-1338"/>
</a>
</g>
</g>
<!-- Node5&#45;&gt;Node1 -->
<g id="edge4_Node000001_Node000005" class="edge">
<title>Node5&#45;&gt;Node1</title>
<g id="a_edge4_Node000001_Node000005"><a xlink:title=" ">
<path fill="none" stroke="#63b8ff" d="M285.91,-1333.9C264.55,-1267.16 220.23,-1094.05 290.5,-979 319.92,-930.82 373.21,-968.64 403.5,-921 442.79,-859.21 438.66,-373.71 435.24,-174.43"/>
<polygon fill="none" stroke="#63b8ff" points="435.24,-174.29 431.14,-168.36 435.03,-162.29 439.14,-168.22 435.24,-174.29"/>
</a>
</g>
<text text-anchor="middle" x="398" y="-947.5" font-family="Helvetica,sans-Serif" font-size="10.00" fill="grey"> +str</text>
</g>
<!-- Node7 -->
<g id="Node000007" class="node">
<title>Node7</title>
<g id="a_Node000007"><a xlink:href="structKFState__.html" target="_top" xlink:title="Kalman filter object.">
<path fill="#fff0f0" stroke="red" d="M163,-177C163,-177 12,-177 12,-177 6,-177 0,-171 0,-165 0,-165 0,-12 0,-12 0,-6 6,0 12,0 12,0 163,0 163,0 169,0 175,-6 175,-12 175,-12 175,-165 175,-165 175,-171 169,-177 163,-177"/>
<text text-anchor="start" x="66.5" y="-160.5" font-family="Helvetica,sans-Serif" font-size="10.00">KFState_</text>
<text text-anchor="start" x="12.5" y="-145.5" font-family="Helvetica,sans-Serif" font-size="10.00">+</text>
<text text-anchor="start" x="25.5" y="-145.5" font-family="Helvetica,sans-Serif" font-size="10.00">lsqRequired</text>
<text text-anchor="start" x="12.5" y="-130.5" font-family="Helvetica,sans-Serif" font-size="10.00">+</text>
<text text-anchor="start" x="25.5" y="-130.5" font-family="Helvetica,sans-Serif" font-size="10.00">sigmaPass</text>
<text text-anchor="start" x="12.5" y="-115.5" font-family="Helvetica,sans-Serif" font-size="10.00">+</text>
<text text-anchor="start" x="25.5" y="-115.5" font-family="Helvetica,sans-Serif" font-size="10.00">chiQCPass</text>
<text text-anchor="start" x="12.5" y="-100.5" font-family="Helvetica,sans-Serif" font-size="10.00">+</text>
<text text-anchor="start" x="25.5" y="-100.5" font-family="Helvetica,sans-Serif" font-size="10.00">chi2</text>
<text text-anchor="start" x="12.5" y="-85.5" font-family="Helvetica,sans-Serif" font-size="10.00">+</text>
<text text-anchor="start" x="25.5" y="-85.5" font-family="Helvetica,sans-Serif" font-size="10.00">dof</text>
<text text-anchor="start" x="12.5" y="-70.5" font-family="Helvetica,sans-Serif" font-size="10.00">+</text>
<text text-anchor="start" x="25.5" y="-70.5" font-family="Helvetica,sans-Serif" font-size="10.00">chi2PerDof</text>
<text text-anchor="start" x="12.5" y="-55.5" font-family="Helvetica,sans-Serif" font-size="10.00">+</text>
<text text-anchor="start" x="25.5" y="-55.5" font-family="Helvetica,sans-Serif" font-size="10.00">qc</text>
<text text-anchor="start" x="12.5" y="-40.5" font-family="Helvetica,sans-Serif" font-size="10.00">+</text>
<text text-anchor="start" x="25.5" y="-40.5" font-family="Helvetica,sans-Serif" font-size="10.00">output_residuals</text>
<text text-anchor="start" x="12.5" y="-25.5" font-family="Helvetica,sans-Serif" font-size="10.00">+</text>
<text text-anchor="start" x="25.5" y="-25.5" font-family="Helvetica,sans-Serif" font-size="10.00">outputMongoMeasurements</text>
<text text-anchor="start" x="86" y="-10.5" font-family="Helvetica,sans-Serif" font-size="10.00"> </text>
<polygon fill="red" stroke="red" points="8.5,-155.5 8.5,-155.5 167.5,-155.5 167.5,-155.5 8.5,-155.5"/>
<polygon fill="red" stroke="red" points="8.5,-20.5 8.5,-20.5 23.5,-20.5 23.5,-20.5 8.5,-20.5"/>
<polygon fill="red" stroke="red" points="23.5,-20.5 23.5,-20.5 167.5,-20.5 167.5,-20.5 23.5,-20.5"/>
<polygon fill="none" stroke="red" points="8,-4 8,-173 167,-173 167,-4 8,-4"/>
</a>
</g>
</g>
<!-- Node5&#45;&gt;Node7 -->
<g id="edge8_Node000007_Node000005" class="edge">
<title>Node5&#45;&gt;Node7</title>
<g id="a_edge8_Node000007_Node000005"><a xlink:title=" ">
<path fill="none" stroke="#63b8ff" d="M268.39,-1345.81C219.48,-1315.88 117.24,-1245.58 70.5,-1156 6.6,-1033.53 21.27,-618.45 14.5,-261 13.94,-231.67 5.76,-223 14.5,-195 15.21,-192.73 15.99,-190.46 16.83,-188.2"/>
<polygon fill="none" stroke="#63b8ff" points="16.87,-188.09 15.49,-181.01 21.5,-177.01 22.88,-184.09 16.87,-188.09"/>
</a>
</g>
<text text-anchor="middle" x="69.5" y="-953" font-family="Helvetica,sans-Serif" font-size="10.00" fill="grey"> +id</text>
<text text-anchor="middle" x="69.5" y="-942" font-family="Helvetica,sans-Serif" font-size="10.00" fill="grey">+rts_basename</text>
</g>
<!-- Node5&#45;&gt;Node30 -->
<g id="edge13_Node000030_Node000005" class="edge">
<title>Node5&#45;&gt;Node30</title>
<g id="a_edge13_Node000030_Node000005"><a xlink:title=" ">
<path fill="none" stroke="#63b8ff" d="M301.33,-1333.94C309.31,-1296.22 324.06,-1226.53 336.44,-1168.02"/>
<polygon fill="none" stroke="#63b8ff" points="336.48,-1167.84 333.81,-1161.15 338.96,-1156.1 341.63,-1162.8 336.48,-1167.84"/>
</a>
</g>
<text text-anchor="middle" x="362.5" y="-1188" font-family="Helvetica,sans-Serif" font-size="10.00" fill="grey"> +comment</text>
<text text-anchor="middle" x="362.5" y="-1177" font-family="Helvetica,sans-Serif" font-size="10.00" fill="grey">+str</text>
</g>
<!-- Node6 -->
<g id="Node000006" class="node">
<title>Node6</title>
<g id="a_Node000006"><a xlink:href="structKFState.html" target="_top" xlink:title="Wrapper to simplify copying with default copy but overriding slightly.">
<path fill="white" stroke="#666666" d="M206,-921C206,-921 61,-921 61,-921 55,-921 49,-915 49,-909 49,-909 49,-291 49,-291 49,-285 55,-279 61,-279 61,-279 206,-279 206,-279 212,-279 218,-285 218,-291 218,-291 218,-909 218,-909 218,-915 212,-921 206,-921"/>
<text text-anchor="start" x="115" y="-905" font-family="Helvetica,sans-Serif" font-size="10.00">KFState</text>
<text text-anchor="start" x="132" y="-890" font-family="Helvetica,sans-Serif" font-size="10.00"> </text>
<text text-anchor="start" x="61.5" y="-875" font-family="Helvetica,sans-Serif" font-size="10.00">+</text>
<text text-anchor="start" x="74.5" y="-875" font-family="Helvetica,sans-Serif" font-size="10.00">KFState()</text>
<text text-anchor="start" x="61.5" y="-860" font-family="Helvetica,sans-Serif" font-size="10.00">+</text>
<text text-anchor="start" x="74.5" y="-860" font-family="Helvetica,sans-Serif" font-size="10.00">KFState()</text>
<text text-anchor="start" x="61.5" y="-845" font-family="Helvetica,sans-Serif" font-size="10.00">+</text>
<text text-anchor="start" x="74.5" y="-845" font-family="Helvetica,sans-Serif" font-size="10.00">operator=()</text>
<text text-anchor="start" x="61.5" y="-830" font-family="Helvetica,sans-Serif" font-size="10.00">+</text>
<text text-anchor="start" x="74.5" y="-830" font-family="Helvetica,sans-Serif" font-size="10.00">serialize()</text>
<text text-anchor="start" x="61.5" y="-815" font-family="Helvetica,sans-Serif" font-size="10.00">+</text>
<text text-anchor="start" x="74.5" y="-815" font-family="Helvetica,sans-Serif" font-size="10.00">initFilterEpoch()</text>
<text text-anchor="start" x="61.5" y="-800" font-family="Helvetica,sans-Serif" font-size="10.00">+</text>
<text text-anchor="start" x="74.5" y="-800" font-family="Helvetica,sans-Serif" font-size="10.00">getKFIndex()</text>
<text text-anchor="start" x="61.5" y="-785" font-family="Helvetica,sans-Serif" font-size="10.00">+</text>
<text text-anchor="start" x="74.5" y="-785" font-family="Helvetica,sans-Serif" font-size="10.00">getKFValue()</text>
<text text-anchor="start" x="61.5" y="-770" font-family="Helvetica,sans-Serif" font-size="10.00">+</text>
<text text-anchor="start" x="74.5" y="-770" font-family="Helvetica,sans-Serif" font-size="10.00">getPseudoValue()</text>
<text text-anchor="start" x="61.5" y="-755" font-family="Helvetica,sans-Serif" font-size="10.00">+</text>
<text text-anchor="start" x="74.5" y="-755" font-family="Helvetica,sans-Serif" font-size="10.00">getKFSigma()</text>
<text text-anchor="start" x="61.5" y="-740" font-family="Helvetica,sans-Serif" font-size="10.00">+</text>
<text text-anchor="start" x="74.5" y="-740" font-family="Helvetica,sans-Serif" font-size="10.00">addKFState()</text>
<text text-anchor="start" x="61.5" y="-725" font-family="Helvetica,sans-Serif" font-size="10.00">+</text>
<text text-anchor="start" x="74.5" y="-725" font-family="Helvetica,sans-Serif" font-size="10.00">addPseudoState()</text>
<text text-anchor="start" x="61.5" y="-710" font-family="Helvetica,sans-Serif" font-size="10.00">+</text>
<text text-anchor="start" x="74.5" y="-710" font-family="Helvetica,sans-Serif" font-size="10.00">setExponentialNoise()</text>
<text text-anchor="start" x="61.5" y="-695" font-family="Helvetica,sans-Serif" font-size="10.00">+</text>
<text text-anchor="start" x="74.5" y="-695" font-family="Helvetica,sans-Serif" font-size="10.00">setAccelerator()</text>
<text text-anchor="start" x="61.5" y="-680" font-family="Helvetica,sans-Serif" font-size="10.00">+</text>
<text text-anchor="start" x="74.5" y="-680" font-family="Helvetica,sans-Serif" font-size="10.00">setKFTrans()</text>
<text text-anchor="start" x="61.5" y="-665" font-family="Helvetica,sans-Serif" font-size="10.00">+</text>
<text text-anchor="start" x="74.5" y="-665" font-family="Helvetica,sans-Serif" font-size="10.00">setKFTransRate()</text>
<text text-anchor="start" x="61.5" y="-650" font-family="Helvetica,sans-Serif" font-size="10.00">+</text>
<text text-anchor="start" x="74.5" y="-650" font-family="Helvetica,sans-Serif" font-size="10.00">addNoiseElement()</text>
<text text-anchor="start" x="61.5" y="-635" font-family="Helvetica,sans-Serif" font-size="10.00">+</text>
<text text-anchor="start" x="74.5" y="-635" font-family="Helvetica,sans-Serif" font-size="10.00">removeState()</text>
<text text-anchor="start" x="61.5" y="-620" font-family="Helvetica,sans-Serif" font-size="10.00">+</text>
<text text-anchor="start" x="74.5" y="-620" font-family="Helvetica,sans-Serif" font-size="10.00">stateTransition()</text>
<text text-anchor="start" x="61.5" y="-605" font-family="Helvetica,sans-Serif" font-size="10.00">+</text>
<text text-anchor="start" x="74.5" y="-605" font-family="Helvetica,sans-Serif" font-size="10.00">manualStateTransition()</text>
<text text-anchor="start" x="61.5" y="-590" font-family="Helvetica,sans-Serif" font-size="10.00">+</text>
<text text-anchor="start" x="74.5" y="-590" font-family="Helvetica,sans-Serif" font-size="10.00">leastSquareSigmaChecks()</text>
<text text-anchor="start" x="61.5" y="-575" font-family="Helvetica,sans-Serif" font-size="10.00">+</text>
<text text-anchor="start" x="74.5" y="-575" font-family="Helvetica,sans-Serif" font-size="10.00">preFitSigmaChecks()</text>
<text text-anchor="start" x="61.5" y="-560" font-family="Helvetica,sans-Serif" font-size="10.00">+</text>
<text text-anchor="start" x="74.5" y="-560" font-family="Helvetica,sans-Serif" font-size="10.00">postFitSigmaChecks()</text>
<text text-anchor="start" x="61.5" y="-545" font-family="Helvetica,sans-Serif" font-size="10.00">+</text>
<text text-anchor="start" x="74.5" y="-545" font-family="Helvetica,sans-Serif" font-size="10.00">stateChiSquare()</text>
<text text-anchor="start" x="61.5" y="-530" font-family="Helvetica,sans-Serif" font-size="10.00">+</text>
<text text-anchor="start" x="74.5" y="-530" font-family="Helvetica,sans-Serif" font-size="10.00">measChiSquare()</text>
<text text-anchor="start" x="61.5" y="-515" font-family="Helvetica,sans-Serif" font-size="10.00">+</text>
<text text-anchor="start" x="74.5" y="-515" font-family="Helvetica,sans-Serif" font-size="10.00">innovChiSquare()</text>
<text text-anchor="start" x="61.5" y="-500" font-family="Helvetica,sans-Serif" font-size="10.00">+</text>
<text text-anchor="start" x="74.5" y="-500" font-family="Helvetica,sans-Serif" font-size="10.00">kFilter()</text>
<text text-anchor="start" x="61.5" y="-485" font-family="Helvetica,sans-Serif" font-size="10.00">+</text>
<text text-anchor="start" x="74.5" y="-485" font-family="Helvetica,sans-Serif" font-size="10.00">leastSquare()</text>
<text text-anchor="start" x="61.5" y="-470" font-family="Helvetica,sans-Serif" font-size="10.00">+</text>
<text text-anchor="start" x="74.5" y="-470" font-family="Helvetica,sans-Serif" font-size="10.00">chiQC()</text>
<text text-anchor="start" x="61.5" y="-455" font-family="Helvetica,sans-Serif" font-size="10.00">+</text>
<text text-anchor="start" x="74.5" y="-455" font-family="Helvetica,sans-Serif" font-size="10.00">outputStates()</text>
<text text-anchor="start" x="61.5" y="-440" font-family="Helvetica,sans-Serif" font-size="10.00">+</text>
<text text-anchor="start" x="74.5" y="-440" font-family="Helvetica,sans-Serif" font-size="10.00">outputConditionNumber()</text>
<text text-anchor="start" x="61.5" y="-425" font-family="Helvetica,sans-Serif" font-size="10.00">+</text>
<text text-anchor="start" x="74.5" y="-425" font-family="Helvetica,sans-Serif" font-size="10.00">outputCorrelations()</text>
<text text-anchor="start" x="61.5" y="-410" font-family="Helvetica,sans-Serif" font-size="10.00">+</text>
<text text-anchor="start" x="74.5" y="-410" font-family="Helvetica,sans-Serif" font-size="10.00">outputMeasurements()</text>
<text text-anchor="start" x="61.5" y="-395" font-family="Helvetica,sans-Serif" font-size="10.00">+</text>
<text text-anchor="start" x="74.5" y="-395" font-family="Helvetica,sans-Serif" font-size="10.00">doStateRejectCallbacks()</text>
<text text-anchor="start" x="61.5" y="-380" font-family="Helvetica,sans-Serif" font-size="10.00">+</text>
<text text-anchor="start" x="74.5" y="-380" font-family="Helvetica,sans-Serif" font-size="10.00">doMeasRejectCallbacks()</text>
<text text-anchor="start" x="61.5" y="-365" font-family="Helvetica,sans-Serif" font-size="10.00">+</text>
<text text-anchor="start" x="74.5" y="-365" font-family="Helvetica,sans-Serif" font-size="10.00">filterKalman()</text>
<text text-anchor="start" x="61.5" y="-350" font-family="Helvetica,sans-Serif" font-size="10.00">+</text>
<text text-anchor="start" x="74.5" y="-350" font-family="Helvetica,sans-Serif" font-size="10.00">leastSquareInitStates()</text>
<text text-anchor="start" x="61.5" y="-335" font-family="Helvetica,sans-Serif" font-size="10.00">+</text>
<text text-anchor="start" x="74.5" y="-335" font-family="Helvetica,sans-Serif" font-size="10.00">getSubState()</text>
<text text-anchor="start" x="61.5" y="-320" font-family="Helvetica,sans-Serif" font-size="10.00">+</text>
<text text-anchor="start" x="74.5" y="-320" font-family="Helvetica,sans-Serif" font-size="10.00">getSubState()</text>
<text text-anchor="start" x="61.5" y="-305" font-family="Helvetica,sans-Serif" font-size="10.00">+</text>
<text text-anchor="start" x="74.5" y="-305" font-family="Helvetica,sans-Serif" font-size="10.00">getSubState()</text>
<text text-anchor="start" x="61.5" y="-290" font-family="Helvetica,sans-Serif" font-size="10.00">+</text>
<text text-anchor="start" x="74.5" y="-290" font-family="Helvetica,sans-Serif" font-size="10.00">decomposedStateKeys()</text>
<polygon fill="#666666" stroke="#666666" points="57.5,-900 57.5,-900 210.5,-900 210.5,-900 57.5,-900"/>
<polygon fill="#666666" stroke="#666666" points="57.5,-885 57.5,-885 210.5,-885 210.5,-885 57.5,-885"/>
<polygon fill="none" stroke="#666666" points="57,-283 57,-917 210,-917 210,-283 57,-283"/>
</a>
</g>
</g>
<!-- Node6&#45;&gt;Node1 -->
<g id="edge5_Node000001_Node000006" class="edge">
<title>Node6&#45;&gt;Node1</title>
<g id="a_edge5_Node000001_Node000006"><a xlink:title=" ">
<path fill="none" stroke="#63b8ff" d="M48.99,-362.41C42.14,-302.27 49.85,-241.57 88.5,-195 116.22,-161.6 142.57,-188.23 184.5,-177 248.97,-159.74 320.68,-133.79 370.53,-114.63"/>
<polygon fill="none" stroke="#63b8ff" points="370.57,-114.62 374.72,-108.72 381.76,-110.29 377.61,-116.18 370.57,-114.62"/>
</a>
</g>
<text text-anchor="middle" x="116" y="-225.5" font-family="Helvetica,sans-Serif" font-size="10.00" fill="grey"> +subState</text>
</g>
<!-- Node6&#45;&gt;Node7 -->
<g id="edge9_Node000007_Node000006" class="edge">
<title>Node6&#45;&gt;Node7</title>
<g id="a_edge9_Node000007_Node000006"><a xlink:title=" ">
<path fill="none" stroke="#63b8ff" d="M161.86,-278.93C159.21,-250.3 154.63,-221.97 147.5,-195 146.93,-192.84 146.3,-190.68 145.63,-188.52"/>
<polygon fill="none" stroke="#63b8ff" points="145.56,-188.32 139.79,-184 141.56,-177.01 147.33,-181.33 145.56,-188.32"/>
</a>
</g>
<text text-anchor="middle" x="198" y="-225.5" font-family="Helvetica,sans-Serif" font-size="10.00" fill="grey"> +alternate_ptr</text>
</g>
<!-- Node7&#45;&gt;Node6 -->
<g id="edge6_Node000006_Node000007" class="edge">
<title>Node7&#45;&gt;Node6</title>
<g id="a_edge6_Node000006_Node000007"><a xlink:title=" ">
<path fill="none" stroke="#63b8ff" d="M126.77,-186.95C127.4,-189.65 127.98,-192.33 128.5,-195 133.76,-222.11 137.52,-250.45 140.11,-278.98"/>
<polygon fill="none" stroke="#63b8ff" points="130.13,-185.97 124.24,-177.17 123.35,-187.73 130.13,-185.97"/>
</a>
</g>
</g>
<!-- Node16 -->
<g id="Node000016" class="node">
<title>Node16</title>
<g id="a_Node000016"><a xlink:title=" ">
<path fill="white" stroke="#666666" d="M295,-628.5C295,-628.5 248,-628.5 248,-628.5 242,-628.5 236,-622.5 236,-616.5 236,-616.5 236,-583.5 236,-583.5 236,-577.5 242,-571.5 248,-571.5 248,-571.5 295,-571.5 295,-571.5 301,-571.5 307,-577.5 307,-583.5 307,-583.5 307,-616.5 307,-616.5 307,-622.5 301,-628.5 295,-628.5"/>
<text text-anchor="start" x="249.5" y="-612" font-family="Helvetica,sans-Serif" font-size="10.00">MatrixXd</text>
<text text-anchor="start" x="270" y="-597" font-family="Helvetica,sans-Serif" font-size="10.00"> </text>
<text text-anchor="start" x="270" y="-582" font-family="Helvetica,sans-Serif" font-size="10.00"> </text>
<polygon fill="#666666" stroke="#666666" points="244.5,-607 244.5,-607 299.5,-607 299.5,-607 244.5,-607"/>
<polygon fill="#666666" stroke="#666666" points="244.5,-592 244.5,-592 299.5,-592 299.5,-592 244.5,-592"/>
<polygon fill="none" stroke="#666666" points="244,-575.5 244,-624.5 299,-624.5 299,-575.5 244,-575.5"/>
</a>
</g>
</g>
<!-- Node16&#45;&gt;Node1 -->
<g id="edge18_Node000001_Node000016" class="edge">
<title>Node16&#45;&gt;Node1</title>
<g id="a_edge18_Node000001_Node000016"><a xlink:title=" ">
<path fill="none" stroke="#63b8ff" d="M263.94,-571.35C246.8,-502.7 211.52,-320.93 279.5,-195 299.07,-158.74 337.18,-132.48 370.59,-115.23"/>
<polygon fill="none" stroke="#63b8ff" points="370.96,-115.05 374.56,-108.8 381.71,-109.72 378.11,-115.97 370.96,-115.05"/>
</a>
</g>
<text text-anchor="middle" x="323.5" y="-225.5" font-family="Helvetica,sans-Serif" font-size="10.00" fill="grey"> +posVelQuatSTM</text>
</g>
<!-- Node16&#45;&gt;Node7 -->
<g id="edge7_Node000007_Node000016" class="edge">
<title>Node16&#45;&gt;Node7</title>
<g id="a_edge7_Node000007_Node000016"><a xlink:title=" ">
<path fill="none" stroke="#63b8ff" d="M277.55,-571.35C289.39,-508.95 307.89,-356.64 226.5,-279 195.17,-249.12 61.67,-293 32.5,-261 14.15,-240.87 14.66,-214.58 23.31,-188.66"/>
<polygon fill="none" stroke="#63b8ff" points="23.4,-188.42 21.79,-181.39 27.66,-177.19 29.27,-184.22 23.4,-188.42"/>
</a>
</g>
<text text-anchor="middle" x="41.5" y="-225.5" font-family="Helvetica,sans-Serif" font-size="10.00" fill="grey"> +P</text>
</g>
<!-- Node29 -->
<g id="Node000029" class="node">
<title>Node29</title>
<g id="a_Node000029"><a xlink:title=" ">
<path fill="white" stroke="#666666" d="M175.5,-1096C175.5,-1096 91.5,-1096 91.5,-1096 85.5,-1096 79.5,-1090 79.5,-1084 79.5,-1084 79.5,-1051 79.5,-1051 79.5,-1045 85.5,-1039 91.5,-1039 91.5,-1039 175.5,-1039 175.5,-1039 181.5,-1039 187.5,-1045 187.5,-1051 187.5,-1051 187.5,-1084 187.5,-1084 187.5,-1090 181.5,-1096 175.5,-1096"/>
<text text-anchor="start" x="92.5" y="-1079.5" font-family="Helvetica,sans-Serif" font-size="10.00">recursive_mutex</text>
<text text-anchor="start" x="131.5" y="-1064.5" font-family="Helvetica,sans-Serif" font-size="10.00"> </text>
<text text-anchor="start" x="131.5" y="-1049.5" font-family="Helvetica,sans-Serif" font-size="10.00"> </text>
<polygon fill="#666666" stroke="#666666" points="87.5,-1074.5 87.5,-1074.5 179.5,-1074.5 179.5,-1074.5 87.5,-1074.5"/>
<polygon fill="#666666" stroke="#666666" points="87.5,-1059.5 87.5,-1059.5 179.5,-1059.5 179.5,-1059.5 87.5,-1059.5"/>
<polygon fill="none" stroke="#666666" points="87.5,-1043 87.5,-1092 179.5,-1092 179.5,-1043 87.5,-1043"/>
</a>
</g>
</g>
<!-- Node29&#45;&gt;Node6 -->
<g id="edge10_Node000006_Node000029" class="edge">
<title>Node29&#45;&gt;Node6</title>
<g id="a_edge10_Node000006_Node000029"><a xlink:title=" ">
<path fill="none" stroke="#63b8ff" d="M133.5,-1038.77C133.5,-1014.66 133.5,-976.8 133.5,-933.21"/>
<polygon fill="none" stroke="#63b8ff" points="133.5,-933.08 129.5,-927.08 133.5,-921.08 137.5,-927.08 133.5,-933.08"/>
</a>
</g>
<text text-anchor="middle" x="172.5" y="-947.5" font-family="Helvetica,sans-Serif" font-size="10.00" fill="grey"> +kfStateMutex</text>
</g>
<!-- Node30&#45;&gt;Node6 -->
<g id="edge11_Node000006_Node000030" class="edge">
<title>Node30&#45;&gt;Node6</title>
<g id="a_edge11_Node000006_Node000030"><a xlink:title=" ">
<path fill="none" stroke="#63b8ff" d="M298.87,-1012.68C273.85,-987.01 246.18,-954.6 227.5,-921 226.24,-918.73 224.99,-916.43 223.75,-914.13"/>
<polygon fill="none" stroke="#63b8ff" points="223.61,-913.85 217.3,-910.36 218.09,-903.19 224.4,-906.68 223.61,-913.85"/>
</a>
</g>
<text text-anchor="middle" x="277.5" y="-947.5" font-family="Helvetica,sans-Serif" font-size="10.00" fill="grey"> +oneKey</text>
</g>
<!-- Node67&#45;&gt;Node1 -->
<g id="edge14_Node000001_Node000067" class="edge">
<title>Node67&#45;&gt;Node1</title>
<g id="a_edge14_Node000001_Node000067"><a xlink:title=" ">
<path fill="none" stroke="#63b8ff" d="M575.56,-1528.72C565.07,-1467.2 541.5,-1314.71 541.5,-1186 541.5,-1186 541.5,-1186 541.5,-599 541.5,-446.57 494.67,-273.96 462.68,-173.85"/>
<polygon fill="none" stroke="#63b8ff" points="462.64,-173.72 456.99,-169.24 458.96,-162.3 464.61,-166.78 462.64,-173.72"/>
</a>
</g>
<text text-anchor="middle" x="588" y="-1065" font-family="Helvetica,sans-Serif" font-size="10.00" fill="grey"> +componentsMap</text>
</g>
<!-- Node38 -->
<g id="Node000038" class="node">
<title>Node38</title>
<g id="a_Node000038"><a xlink:title=" ">
<path fill="white" stroke="#666666" d="M627,-628.5C627,-628.5 582,-628.5 582,-628.5 576,-628.5 570,-622.5 570,-616.5 570,-616.5 570,-583.5 570,-583.5 570,-577.5 576,-571.5 582,-571.5 582,-571.5 627,-571.5 627,-571.5 633,-571.5 639,-577.5 639,-583.5 639,-583.5 639,-616.5 639,-616.5 639,-622.5 633,-628.5 627,-628.5"/>
<text text-anchor="start" x="583.5" y="-612" font-family="Helvetica,sans-Serif" font-size="10.00">Vector3d</text>
<text text-anchor="start" x="603" y="-597" font-family="Helvetica,sans-Serif" font-size="10.00"> </text>
<text text-anchor="start" x="603" y="-582" font-family="Helvetica,sans-Serif" font-size="10.00"> </text>
<polygon fill="#666666" stroke="#666666" points="578.5,-607 578.5,-607 631.5,-607 631.5,-607 578.5,-607"/>
<polygon fill="#666666" stroke="#666666" points="578.5,-592 578.5,-592 631.5,-592 631.5,-592 578.5,-592"/>
<polygon fill="none" stroke="#666666" points="578,-575.5 578,-624.5 631,-624.5 631,-575.5 578,-575.5"/>
</a>
</g>
</g>
<!-- Node38&#45;&gt;Node1 -->
<g id="edge16_Node000001_Node000038" class="edge">
<title>Node38&#45;&gt;Node1</title>
<g id="a_edge16_Node000001_Node000038"><a xlink:title=" ">
<path fill="none" stroke="#63b8ff" d="M607.66,-571.26C614.16,-502.78 623.15,-322.07 555.5,-195 541.39,-168.51 517.71,-145.7 494.95,-128.15"/>
<polygon fill="none" stroke="#63b8ff" points="494.9,-128.11 487.7,-127.74 485.28,-120.95 492.48,-121.32 494.9,-128.11"/>
</a>
</g>
<text text-anchor="middle" x="609" y="-253" font-family="Helvetica,sans-Serif" font-size="10.00" fill="grey"> +acclBias</text>
<text text-anchor="middle" x="609" y="-242" font-family="Helvetica,sans-Serif" font-size="10.00" fill="grey">+acclScale</text>
<text text-anchor="middle" x="609" y="-231" font-family="Helvetica,sans-Serif" font-size="10.00" fill="grey">+gyroBias</text>
<text text-anchor="middle" x="609" y="-220" font-family="Helvetica,sans-Serif" font-size="10.00" fill="grey">+gyroScale</text>
<text text-anchor="middle" x="609" y="-209" font-family="Helvetica,sans-Serif" font-size="10.00" fill="grey">+pos</text>
<text text-anchor="middle" x="609" y="-198" font-family="Helvetica,sans-Serif" font-size="10.00" fill="grey">+vel</text>
</g>
<!-- Node68 -->
<g id="Node000068" class="node">
<title>Node68</title>
<g id="a_Node000068"><a xlink:title=" ">
<path fill="white" stroke="#666666" d="M382,-628.5C382,-628.5 337,-628.5 337,-628.5 331,-628.5 325,-622.5 325,-616.5 325,-616.5 325,-583.5 325,-583.5 325,-577.5 331,-571.5 337,-571.5 337,-571.5 382,-571.5 382,-571.5 388,-571.5 394,-577.5 394,-583.5 394,-583.5 394,-616.5 394,-616.5 394,-622.5 388,-628.5 382,-628.5"/>
<text text-anchor="start" x="338.5" y="-612" font-family="Helvetica,sans-Serif" font-size="10.00">Vector4d</text>
<text text-anchor="start" x="358" y="-597" font-family="Helvetica,sans-Serif" font-size="10.00"> </text>
<text text-anchor="start" x="358" y="-582" font-family="Helvetica,sans-Serif" font-size="10.00"> </text>
<polygon fill="#666666" stroke="#666666" points="333.5,-607 333.5,-607 386.5,-607 386.5,-607 333.5,-607"/>
<polygon fill="#666666" stroke="#666666" points="333.5,-592 333.5,-592 386.5,-592 386.5,-592 333.5,-592"/>
<polygon fill="none" stroke="#666666" points="333,-575.5 333,-624.5 386,-624.5 386,-575.5 333,-575.5"/>
</a>
</g>
</g>
<!-- Node68&#45;&gt;Node1 -->
<g id="edge17_Node000001_Node000068" class="edge">
<title>Node68&#45;&gt;Node1</title>
<g id="a_edge17_Node000001_Node000068"><a xlink:title=" ">
<path fill="none" stroke="#63b8ff" d="M357.87,-571.04C354.75,-504.64 350.98,-332.71 385.5,-195 387.3,-187.83 389.57,-180.54 392.14,-173.32"/>
<polygon fill="none" stroke="#63b8ff" points="392.16,-173.27 390.54,-166.25 396.4,-162.05 398.02,-169.08 392.16,-173.27"/>
</a>
</g>
<text text-anchor="middle" x="402.5" y="-225.5" font-family="Helvetica,sans-Serif" font-size="10.00" fill="grey"> +quat</text>
</g>
</g>
</svg>
