<?xml version="1.0" encoding="UTF-8" standalone="no"?>
<!DOCTYPE svg PUBLIC "-//W3C//DTD SVG 1.1//EN"
 "http://www.w3.org/Graphics/SVG/1.1/DTD/svg11.dtd">
<!-- Generated by graphviz version 2.43.0 (0)
 -->
<!-- Title: SatelliteOptions::operator+= Pages: 1 -->
<svg width="479pt" height="121pt"
 viewBox="0.00 0.00 479.00 120.98" xmlns="http://www.w3.org/2000/svg" xmlns:xlink="http://www.w3.org/1999/xlink">
<g id="graph0" class="graph" transform="scale(1 1) rotate(0) translate(4 116.98)">
<title>SatelliteOptions::operator+=</title>
<polygon fill="white" stroke="transparent" points="-4,4 -4,-116.98 475,-116.98 475,4 -4,4"/>
<!-- Node1 -->
<g id="node1" class="node">
<title>Node1</title>
<g id="a_node1"><a xlink:title=" ">
<polygon fill="#bfbfbf" stroke="black" points="0,-36.48 0,-55.48 158,-55.48 158,-36.48 0,-36.48"/>
<text text-anchor="middle" x="79" y="-43.48" font-family="Helvetica,sans-Serif" font-size="10.00">SatelliteOptions::operator+=</text>
</a>
</g>
</g>
<!-- Node2 -->
<g id="node2" class="node">
<title>Node2</title>
<g id="a_node2"><a xlink:href="structSatelliteKalmans.html#a8adc701abec0eddc0f880e68de73748a" target="_top" xlink:title=" ">
<polygon fill="white" stroke="red" points="194,-93.48 194,-112.48 358,-112.48 358,-93.48 194,-93.48"/>
<text text-anchor="middle" x="276" y="-100.48" font-family="Helvetica,sans-Serif" font-size="10.00">SatelliteKalmans::operator+=</text>
</a>
</g>
</g>
<!-- Node1&#45;&gt;Node2 -->
<g id="edge1" class="edge">
<title>Node1&#45;&gt;Node2</title>
<path fill="none" stroke="midnightblue" d="M106.51,-55.58C129.47,-63.72 163.69,-75.39 194,-83.98 202.78,-86.47 212.15,-88.88 221.3,-91.11"/>
<polygon fill="midnightblue" stroke="midnightblue" points="220.55,-94.53 231.09,-93.45 222.18,-87.73 220.55,-94.53"/>
</g>
<!-- Node6 -->
<g id="node3" class="node">
<title>Node6</title>
<g id="a_node3"><a xlink:href="structCommonOptions.html#acaec78cf1cf23e89bb9ffc93f5abc844" target="_top" xlink:title=" ">
<polygon fill="white" stroke="black" points="195,-55.48 195,-74.48 357,-74.48 357,-55.48 195,-55.48"/>
<text text-anchor="middle" x="276" y="-62.48" font-family="Helvetica,sans-Serif" font-size="10.00">CommonOptions::operator+=</text>
</a>
</g>
</g>
<!-- Node1&#45;&gt;Node6 -->
<g id="edge2" class="edge">
<title>Node1&#45;&gt;Node6</title>
<path fill="none" stroke="midnightblue" d="M158.19,-53.6C166.97,-54.46 175.96,-55.33 184.87,-56.2"/>
<polygon fill="midnightblue" stroke="midnightblue" points="184.59,-59.69 194.88,-57.17 185.27,-52.72 184.59,-59.69"/>
</g>
<!-- Node7 -->
<g id="node4" class="node">
<title>Node7</title>
<g id="a_node4"><a xlink:href="acsConfig_8cpp.html#a7d711647c61df106ba3e11c33c1d7771" target="_top" xlink:title=" ">
<polygon fill="white" stroke="red" points="394,-17.48 394,-36.48 471,-36.48 471,-17.48 394,-17.48"/>
<text text-anchor="middle" x="432.5" y="-24.48" font-family="Helvetica,sans-Serif" font-size="10.00">initIfNeeded</text>
</a>
</g>
</g>
<!-- Node1&#45;&gt;Node7 -->
<g id="edge6" class="edge">
<title>Node1&#45;&gt;Node7</title>
<path fill="none" stroke="midnightblue" d="M101.75,-36.39C124.3,-27 160.85,-13.36 194,-7.98 265.95,3.69 285.69,1.21 358,-7.98 369.21,-9.41 381.16,-12.01 392.09,-14.84"/>
<polygon fill="midnightblue" stroke="midnightblue" points="391.23,-18.23 401.8,-17.48 393.06,-11.48 391.23,-18.23"/>
</g>
<!-- Node10 -->
<g id="node5" class="node">
<title>Node10</title>
<g id="a_node5"><a xlink:href="structOrbitOptions.html#a155e5fcfa35393eaa4fed2fe485b212c" target="_top" xlink:title=" ">
<polygon fill="white" stroke="black" points="205,-17.48 205,-36.48 347,-36.48 347,-17.48 205,-17.48"/>
<text text-anchor="middle" x="276" y="-24.48" font-family="Helvetica,sans-Serif" font-size="10.00">OrbitOptions::operator+=</text>
</a>
</g>
</g>
<!-- Node1&#45;&gt;Node10 -->
<g id="edge4" class="edge">
<title>Node1&#45;&gt;Node10</title>
<path fill="none" stroke="midnightblue" d="M158.19,-38.36C170.28,-37.19 182.77,-35.97 194.9,-34.79"/>
<polygon fill="midnightblue" stroke="midnightblue" points="195.37,-38.26 204.98,-33.8 194.69,-31.29 195.37,-38.26"/>
</g>
<!-- Node6&#45;&gt;Node7 -->
<g id="edge3" class="edge">
<title>Node6&#45;&gt;Node7</title>
<path fill="none" stroke="midnightblue" d="M318.67,-55.4C331.31,-52.44 345.24,-49.13 358,-45.98 366.93,-43.78 376.45,-41.37 385.58,-39.02"/>
<polygon fill="midnightblue" stroke="midnightblue" points="386.47,-42.41 395.28,-36.52 384.72,-35.63 386.47,-42.41"/>
</g>
<!-- Node10&#45;&gt;Node7 -->
<g id="edge5" class="edge">
<title>Node10&#45;&gt;Node7</title>
<path fill="none" stroke="midnightblue" d="M347.02,-26.98C359.37,-26.98 371.96,-26.98 383.53,-26.98"/>
<polygon fill="midnightblue" stroke="midnightblue" points="383.83,-30.48 393.83,-26.98 383.83,-23.48 383.83,-30.48"/>
</g>
</g>
</svg>
