<?xml version="1.0" encoding="UTF-8" standalone="no"?>
<!DOCTYPE svg PUBLIC "-//W3C//DTD SVG 1.1//EN"
 "http://www.w3.org/Graphics/SVG/1.1/DTD/svg11.dtd">
<!-- Generated by graphviz version 2.43.0 (0)
 -->
<!-- Title: UbxDecoder Pages: 1 -->
<svg width="250pt" height="463pt"
 viewBox="0.00 0.00 249.50 463.00" xmlns="http://www.w3.org/2000/svg" xmlns:xlink="http://www.w3.org/1999/xlink">
<g id="graph0" class="graph" transform="scale(1 1) rotate(0) translate(4 459)">
<title>UbxDecoder</title>
<polygon fill="white" stroke="transparent" points="-4,4 -4,-459 245.5,-459 245.5,4 -4,4"/>
<!-- Node1 -->
<g id="node1" class="node">
<title>Node1</title>
<g id="a_node1"><a xlink:title=" ">
<polygon fill="#bfbfbf" stroke="black" points="42.5,-105.5 42.5,-305.5 167.5,-305.5 167.5,-105.5 42.5,-105.5"/>
<text text-anchor="middle" x="105" y="-293.5" font-family="Helvetica,sans-Serif" font-size="10.00">UbxDecoder</text>
<polyline fill="none" stroke="black" points="42.5,-286.5 167.5,-286.5 "/>
<text text-anchor="start" x="50.5" y="-274.5" font-family="Helvetica,sans-Serif" font-size="10.00">+ lastTimeTag</text>
<text text-anchor="start" x="50.5" y="-263.5" font-family="Helvetica,sans-Serif" font-size="10.00">+ lastTime</text>
<text text-anchor="start" x="50.5" y="-252.5" font-family="Helvetica,sans-Serif" font-size="10.00">+ recId</text>
<text text-anchor="start" x="50.5" y="-241.5" font-family="Helvetica,sans-Serif" font-size="10.00">+ raw_ubx_filename</text>
<text text-anchor="start" x="50.5" y="-230.5" font-family="Helvetica,sans-Serif" font-size="10.00">+ gyroDataMaps</text>
<text text-anchor="start" x="50.5" y="-219.5" font-family="Helvetica,sans-Serif" font-size="10.00">+ acclDataMaps</text>
<text text-anchor="start" x="50.5" y="-208.5" font-family="Helvetica,sans-Serif" font-size="10.00">+ tempDataMaps</text>
<polyline fill="none" stroke="black" points="42.5,-201.5 167.5,-201.5 "/>
<text text-anchor="start" x="50.5" y="-189.5" font-family="Helvetica,sans-Serif" font-size="10.00">+ decodeEphFrames()</text>
<text text-anchor="start" x="50.5" y="-178.5" font-family="Helvetica,sans-Serif" font-size="10.00">+ decodeRAWX()</text>
<text text-anchor="start" x="50.5" y="-167.5" font-family="Helvetica,sans-Serif" font-size="10.00">+ decodeSFRBX()</text>
<text text-anchor="start" x="50.5" y="-156.5" font-family="Helvetica,sans-Serif" font-size="10.00">+ decodeMEAS()</text>
<text text-anchor="start" x="50.5" y="-145.5" font-family="Helvetica,sans-Serif" font-size="10.00">+ decodeRXM()</text>
<text text-anchor="start" x="50.5" y="-134.5" font-family="Helvetica,sans-Serif" font-size="10.00">+ decodeESF()</text>
<text text-anchor="start" x="50.5" y="-123.5" font-family="Helvetica,sans-Serif" font-size="10.00">+ decode()</text>
<text text-anchor="start" x="50.5" y="-112.5" font-family="Helvetica,sans-Serif" font-size="10.00">+ recordFrame()</text>
</a>
</g>
</g>
<!-- Node4 -->
<g id="node4" class="node">
<title>Node4</title>
<g id="a_node4"><a xlink:href="structUbxParser.html" target="_top" xlink:title=" ">
<polygon fill="white" stroke="black" points="60.5,-0.5 60.5,-68.5 149.5,-68.5 149.5,-0.5 60.5,-0.5"/>
<text text-anchor="middle" x="105" y="-56.5" font-family="Helvetica,sans-Serif" font-size="10.00">UbxParser</text>
<polyline fill="none" stroke="black" points="60.5,-49.5 149.5,-49.5 "/>
<text text-anchor="middle" x="105" y="-37.5" font-family="Helvetica,sans-Serif" font-size="10.00"> </text>
<polyline fill="none" stroke="black" points="60.5,-30.5 149.5,-30.5 "/>
<text text-anchor="start" x="68.5" y="-18.5" font-family="Helvetica,sans-Serif" font-size="10.00">+ parse()</text>
<text text-anchor="start" x="68.5" y="-7.5" font-family="Helvetica,sans-Serif" font-size="10.00">+ parserType()</text>
</a>
</g>
</g>
<!-- Node1&#45;&gt;Node4 -->
<g id="edge3" class="edge">
<title>Node1&#45;&gt;Node4</title>
<path fill="none" stroke="midnightblue" d="M105,-94.92C105,-85.58 105,-76.68 105,-68.75"/>
<polygon fill="none" stroke="midnightblue" points="101.5,-95.21 105,-105.21 108.5,-95.21 101.5,-95.21"/>
</g>
<!-- Node2 -->
<g id="node2" class="node">
<title>Node2</title>
<g id="a_node2"><a xlink:href="structObsLister.html" target="_top" xlink:title=" ">
<polygon fill="white" stroke="black" points="0,-370 0,-427 80,-427 80,-370 0,-370"/>
<text text-anchor="middle" x="40" y="-415" font-family="Helvetica,sans-Serif" font-size="10.00">ObsLister</text>
<polyline fill="none" stroke="black" points="0,-408 80,-408 "/>
<text text-anchor="start" x="8" y="-396" font-family="Helvetica,sans-Serif" font-size="10.00">+ obsListList</text>
<polyline fill="none" stroke="black" points="0,-389 80,-389 "/>
<text text-anchor="middle" x="40" y="-377" font-family="Helvetica,sans-Serif" font-size="10.00"> </text>
</a>
</g>
</g>
<!-- Node2&#45;&gt;Node1 -->
<g id="edge1" class="edge">
<title>Node2&#45;&gt;Node1</title>
<path fill="none" stroke="midnightblue" d="M52.79,-359.92C58.14,-344.21 64.63,-325.13 71.19,-305.85"/>
<polygon fill="none" stroke="midnightblue" points="49.36,-359.13 49.45,-369.73 55.99,-361.39 49.36,-359.13"/>
</g>
<!-- Node3 -->
<g id="node3" class="node">
<title>Node3</title>
<g id="a_node3"><a xlink:href="structIcdDecoder.html" target="_top" xlink:title=" ">
<polygon fill="white" stroke="black" points="98.5,-342.5 98.5,-454.5 241.5,-454.5 241.5,-342.5 98.5,-342.5"/>
<text text-anchor="middle" x="170" y="-442.5" font-family="Helvetica,sans-Serif" font-size="10.00">IcdDecoder</text>
<polyline fill="none" stroke="black" points="98.5,-435.5 241.5,-435.5 "/>
<text text-anchor="start" x="106.5" y="-423.5" font-family="Helvetica,sans-Serif" font-size="10.00">+ subframeMap</text>
<polyline fill="none" stroke="black" points="98.5,-416.5 241.5,-416.5 "/>
<text text-anchor="start" x="106.5" y="-404.5" font-family="Helvetica,sans-Serif" font-size="10.00">+ decodeGpsTlmWord()</text>
<text text-anchor="start" x="106.5" y="-393.5" font-family="Helvetica,sans-Serif" font-size="10.00">+ decodeGpsHowWord()</text>
<text text-anchor="start" x="106.5" y="-382.5" font-family="Helvetica,sans-Serif" font-size="10.00">+ decodeGPSSubframe1()</text>
<text text-anchor="start" x="106.5" y="-371.5" font-family="Helvetica,sans-Serif" font-size="10.00">+ decodeGPSSubframe2()</text>
<text text-anchor="start" x="106.5" y="-360.5" font-family="Helvetica,sans-Serif" font-size="10.00">+ decodeGPSSubframe3()</text>
<text text-anchor="start" x="106.5" y="-349.5" font-family="Helvetica,sans-Serif" font-size="10.00">+ decodeGpsSubframe()</text>
</a>
</g>
</g>
<!-- Node3&#45;&gt;Node1 -->
<g id="edge2" class="edge">
<title>Node3&#45;&gt;Node1</title>
<path fill="none" stroke="midnightblue" d="M147.9,-332.57C144.93,-323.83 141.82,-314.7 138.7,-305.54"/>
<polygon fill="none" stroke="midnightblue" points="144.66,-333.92 151.2,-342.25 151.29,-331.66 144.66,-333.92"/>
</g>
</g>
</svg>
