<?xml version="1.0" encoding="UTF-8" standalone="no"?>
<!DOCTYPE svg PUBLIC "-//W3C//DTD SVG 1.1//EN"
 "http://www.w3.org/Graphics/SVG/1.1/DTD/svg11.dtd">
<!-- Generated by graphviz version 2.43.0 (0)
 -->
<!-- Title: KFKey::emptyString Pages: 1 -->
<svg width="321pt" height="66pt"
 viewBox="0.00 0.00 321.00 66.00" xmlns="http://www.w3.org/2000/svg" xmlns:xlink="http://www.w3.org/1999/xlink">
<g id="graph0" class="graph" transform="scale(1 1) rotate(0) translate(4 62)">
<title>KFKey::emptyString</title>
<polygon fill="white" stroke="transparent" points="-4,4 -4,-62 317,-62 317,4 -4,4"/>
<!-- Node1 -->
<g id="node1" class="node">
<title>Node1</title>
<g id="a_node1"><a xlink:title=" ">
<polygon fill="#bfbfbf" stroke="black" points="200,-19.5 200,-38.5 313,-38.5 313,-19.5 200,-19.5"/>
<text text-anchor="middle" x="256.5" y="-26.5" font-family="Helvetica,sans-Serif" font-size="10.00">KFKey::emptyString</text>
</a>
</g>
</g>
<!-- Node2 -->
<g id="node2" class="node">
<title>Node2</title>
<g id="a_node2"><a xlink:href="structKFState.html#ab62647d9653d975a58c08ea438761280" target="_top" xlink:title=" ">
<polygon fill="white" stroke="red" points="6.5,-38.5 6.5,-57.5 157.5,-57.5 157.5,-38.5 6.5,-38.5"/>
<text text-anchor="middle" x="82" y="-45.5" font-family="Helvetica,sans-Serif" font-size="10.00">KFState::outputCorrelations</text>
</a>
</g>
</g>
<!-- Node1&#45;&gt;Node2 -->
<g id="edge1" class="edge">
<title>Node1&#45;&gt;Node2</title>
<path fill="none" stroke="midnightblue" d="M189.99,-36.22C179.41,-37.38 168.39,-38.6 157.61,-39.78"/>
<polygon fill="midnightblue" stroke="midnightblue" points="190.41,-39.69 199.97,-35.12 189.65,-32.73 190.41,-39.69"/>
</g>
<!-- Node12 -->
<g id="node3" class="node">
<title>Node12</title>
<g id="a_node3"><a xlink:href="structKFState.html#adfd3abb4d57396f7065a2b50dc4945c6" target="_top" xlink:title=" ">
<polygon fill="white" stroke="red" points="0,-0.5 0,-19.5 164,-19.5 164,-0.5 0,-0.5"/>
<text text-anchor="middle" x="82" y="-7.5" font-family="Helvetica,sans-Serif" font-size="10.00">KFState::outputMeasurements</text>
</a>
</g>
</g>
<!-- Node1&#45;&gt;Node12 -->
<g id="edge2" class="edge">
<title>Node1&#45;&gt;Node12</title>
<path fill="none" stroke="midnightblue" d="M189.88,-21.77C181.47,-20.85 172.79,-19.89 164.18,-18.94"/>
<polygon fill="midnightblue" stroke="midnightblue" points="189.65,-25.27 199.97,-22.88 190.41,-18.31 189.65,-25.27"/>
</g>
</g>
</svg>
