<?xml version="1.0" encoding="UTF-8" standalone="no"?>
<!DOCTYPE svg PUBLIC "-//W3C//DTD SVG 1.1//EN"
 "http://www.w3.org/Graphics/SVG/1.1/DTD/svg11.dtd">
<!-- Generated by graphviz version 2.43.0 (0)
 -->
<!-- Title: ACSConfig::getRecOpts Pages: 1 -->
<svg width="654pt" height="1510pt"
 viewBox="0.00 0.00 654.00 1510.00" xmlns="http://www.w3.org/2000/svg" xmlns:xlink="http://www.w3.org/1999/xlink">
<g id="graph0" class="graph" transform="scale(1 1) rotate(0) translate(4 1506)">
<title>ACSConfig::getRecOpts</title>
<polygon fill="white" stroke="transparent" points="-4,4 -4,-1506 650,-1506 650,4 -4,4"/>
<!-- Node1 -->
<g id="node1" class="node">
<title>Node1</title>
<g id="a_node1"><a xlink:title="Set receiver options for a specific receiver using a hierarchy of sources.">
<polygon fill="#bfbfbf" stroke="black" points="517,-741.5 517,-760.5 646,-760.5 646,-741.5 517,-741.5"/>
<text text-anchor="middle" x="581.5" y="-748.5" font-family="Helvetica,sans-Serif" font-size="10.00">ACSConfig::getRecOpts</text>
</a>
</g>
</g>
<!-- Node2 -->
<g id="node2" class="node">
<title>Node2</title>
<g id="a_node2"><a xlink:href="ppp__pseudoobs_8cpp.html#accfefc993178e71db6783bbe525342a7" target="_top" xlink:title=" ">
<polygon fill="white" stroke="red" points="367.5,-1482.5 367.5,-1501.5 456.5,-1501.5 456.5,-1482.5 367.5,-1482.5"/>
<text text-anchor="middle" x="412" y="-1489.5" font-family="Helvetica,sans-Serif" font-size="10.00">pseudoRecDcb</text>
</a>
</g>
</g>
<!-- Node1&#45;&gt;Node2 -->
<g id="edge1" class="edge">
<title>Node1&#45;&gt;Node2</title>
<path fill="none" stroke="midnightblue" d="M580.59,-771.19C580.67,-876.72 575.84,-1364.35 481,-1473 474.71,-1480.2 465.94,-1484.78 456.79,-1487.66"/>
<polygon fill="midnightblue" stroke="midnightblue" points="584.09,-770.96 580.57,-760.97 577.09,-770.98 584.09,-770.96"/>
</g>
<!-- Node7 -->
<g id="node3" class="node">
<title>Node7</title>
<g id="a_node3"><a xlink:href="ppp__ambres_8cpp.html#a020b06329797411a2dc7746aadd19361" target="_top" xlink:title=" ">
<polygon fill="white" stroke="red" points="372,-1444.5 372,-1463.5 452,-1463.5 452,-1444.5 372,-1444.5"/>
<text text-anchor="middle" x="412" y="-1451.5" font-family="Helvetica,sans-Serif" font-size="10.00">queryBiasUC</text>
</a>
</g>
</g>
<!-- Node1&#45;&gt;Node7 -->
<g id="edge2" class="edge">
<title>Node1&#45;&gt;Node7</title>
<path fill="none" stroke="midnightblue" d="M580.42,-771.08C579.63,-873.04 571.05,-1332.62 481,-1435 473.63,-1443.38 462.91,-1448.2 452.15,-1450.93"/>
<polygon fill="midnightblue" stroke="midnightblue" points="583.92,-770.95 580.49,-760.93 576.93,-770.9 583.92,-770.95"/>
</g>
<!-- Node13 -->
<g id="node4" class="node">
<title>Node13</title>
<g id="a_node4"><a xlink:href="ppp_8cpp.html#a3d11452be1ce2ea58117c7fd3ac9f981" target="_top" xlink:title="Remove ambiguity states from filter when they deemed old or bad This effectively reinitialises them o...">
<polygon fill="white" stroke="red" points="346,-1406.5 346,-1425.5 478,-1425.5 478,-1406.5 346,-1406.5"/>
<text text-anchor="middle" x="412" y="-1413.5" font-family="Helvetica,sans-Serif" font-size="10.00">removeBadIonospheres</text>
</a>
</g>
</g>
<!-- Node1&#45;&gt;Node13 -->
<g id="edge3" class="edge">
<title>Node1&#45;&gt;Node13</title>
<path fill="none" stroke="midnightblue" d="M580.24,-770.89C578.55,-869.03 566.29,-1300.85 481,-1397 477.58,-1400.85 473.46,-1403.95 468.95,-1406.44"/>
<polygon fill="midnightblue" stroke="midnightblue" points="583.74,-770.89 580.39,-760.84 576.74,-770.79 583.74,-770.89"/>
</g>
<!-- Node14 -->
<g id="node5" class="node">
<title>Node14</title>
<g id="a_node5"><a xlink:href="ppp_8cpp.html#ac02b107ae8826ef55bf8e6e156ef8b63" target="_top" xlink:title="Compare estimated station position with benchmark in SINEX file.">
<polygon fill="white" stroke="red" points="356.5,-1368.5 356.5,-1387.5 467.5,-1387.5 467.5,-1368.5 356.5,-1368.5"/>
<text text-anchor="middle" x="412" y="-1375.5" font-family="Helvetica,sans-Serif" font-size="10.00">selectAprioriSource</text>
</a>
</g>
</g>
<!-- Node1&#45;&gt;Node14 -->
<g id="edge4" class="edge">
<title>Node1&#45;&gt;Node14</title>
<path fill="none" stroke="midnightblue" d="M580.03,-770.89C577.39,-865.51 561.48,-1269.12 481,-1359 477.24,-1363.2 472.63,-1366.51 467.61,-1369.1"/>
<polygon fill="midnightblue" stroke="midnightblue" points="583.53,-770.8 580.29,-760.71 576.53,-770.62 583.53,-770.8"/>
</g>
<!-- Node15 -->
<g id="node6" class="node">
<title>Node15</title>
<g id="a_node6"><a xlink:href="main_8cpp.html#ae9a767ba206649ca2e395dd210c2218b" target="_top" xlink:title="Perform operations for each station This function occurs in parallel with other stations &#45; ensure tha...">
<polygon fill="white" stroke="red" points="146,-1216.5 146,-1235.5 307,-1235.5 307,-1216.5 146,-1216.5"/>
<text text-anchor="middle" x="226.5" y="-1223.5" font-family="Helvetica,sans-Serif" font-size="10.00">mainOncePerEpochPerStation</text>
</a>
</g>
</g>
<!-- Node1&#45;&gt;Node15 -->
<g id="edge8" class="edge">
<title>Node1&#45;&gt;Node15</title>
<path fill="none" stroke="midnightblue" d="M580.02,-770.77C577.41,-859.05 561.95,-1215.79 481,-1283 407.25,-1344.23 281.27,-1264.54 240.58,-1235.68"/>
<polygon fill="midnightblue" stroke="midnightblue" points="583.52,-770.65 580.3,-760.56 576.53,-770.46 583.52,-770.65"/>
</g>
<!-- Node17 -->
<g id="node7" class="node">
<title>Node17</title>
<g id="a_node7"><a xlink:href="pea__snx_8cpp.html#a998d8ea068788de9c3ca4f572a114e44" target="_top" xlink:title=" ">
<polygon fill="white" stroke="red" points="343,-1330.5 343,-1349.5 481,-1349.5 481,-1330.5 343,-1330.5"/>
<text text-anchor="middle" x="412" y="-1337.5" font-family="Helvetica,sans-Serif" font-size="10.00">sinexPerEpochPerStation</text>
</a>
</g>
</g>
<!-- Node1&#45;&gt;Node17 -->
<g id="edge6" class="edge">
<title>Node1&#45;&gt;Node17</title>
<path fill="none" stroke="midnightblue" d="M579.62,-771.08C575.24,-861.57 553.17,-1230.82 481,-1316 475.66,-1322.3 468.55,-1326.95 460.94,-1330.38"/>
<polygon fill="midnightblue" stroke="midnightblue" points="583.12,-770.98 580.09,-760.83 576.13,-770.66 583.12,-770.98"/>
</g>
<!-- Node18 -->
<g id="node8" class="node">
<title>Node18</title>
<g id="a_node8"><a xlink:href="ppp__obs_8cpp.html#ae004272426a26be8b35eb81ea5072c9e" target="_top" xlink:title=" ">
<polygon fill="white" stroke="black" points="363,-1254.5 363,-1273.5 461,-1273.5 461,-1254.5 363,-1254.5"/>
<text text-anchor="middle" x="412" y="-1261.5" font-family="Helvetica,sans-Serif" font-size="10.00">pppRecCodeBias</text>
</a>
</g>
</g>
<!-- Node1&#45;&gt;Node18 -->
<g id="edge9" class="edge">
<title>Node1&#45;&gt;Node18</title>
<path fill="none" stroke="midnightblue" d="M579.2,-771C573.39,-854.45 547.11,-1173.83 481,-1245 475.58,-1250.84 468.52,-1254.94 461.02,-1257.8"/>
<polygon fill="midnightblue" stroke="midnightblue" points="582.71,-771.05 579.89,-760.84 575.72,-770.58 582.71,-771.05"/>
</g>
<!-- Node19 -->
<g id="node9" class="node">
<title>Node19</title>
<g id="a_node9"><a xlink:href="ppp__obs_8cpp.html#aa9dc8925a7e4b904e12660d44616f1fc" target="_top" xlink:title=" ">
<polygon fill="white" stroke="red" points="189.5,-874.5 189.5,-893.5 263.5,-893.5 263.5,-874.5 189.5,-874.5"/>
<text text-anchor="middle" x="226.5" y="-881.5" font-family="Helvetica,sans-Serif" font-size="10.00">receiverPPP</text>
</a>
</g>
</g>
<!-- Node1&#45;&gt;Node19 -->
<g id="edge23" class="edge">
<title>Node1&#45;&gt;Node19</title>
<path fill="none" stroke="midnightblue" d="M568.76,-769.13C552.3,-792.86 519.95,-833.72 481,-853 410.07,-888.12 314.81,-889.33 263.63,-886.85"/>
<polygon fill="midnightblue" stroke="midnightblue" points="571.78,-770.92 574.46,-760.67 565.97,-767.01 571.78,-770.92"/>
</g>
<!-- Node20 -->
<g id="node10" class="node">
<title>Node20</title>
<g id="a_node10"><a xlink:href="main_8cpp.html#a85051f6840a4b64c19e25a4b461723e4" target="_top" xlink:title=" ">
<polygon fill="white" stroke="red" points="366.5,-1216.5 366.5,-1235.5 457.5,-1235.5 457.5,-1216.5 366.5,-1216.5"/>
<text text-anchor="middle" x="412" y="-1223.5" font-family="Helvetica,sans-Serif" font-size="10.00">avoidCollisions</text>
</a>
</g>
</g>
<!-- Node1&#45;&gt;Node20 -->
<g id="edge11" class="edge">
<title>Node1&#45;&gt;Node20</title>
<path fill="none" stroke="midnightblue" d="M578.84,-770.97C571.86,-850.29 542.36,-1141.99 481,-1207 474.77,-1213.6 466.46,-1217.97 457.8,-1220.85"/>
<polygon fill="midnightblue" stroke="midnightblue" points="582.34,-771.12 579.71,-760.86 575.37,-770.52 582.34,-771.12"/>
</g>
<!-- Node21 -->
<g id="node11" class="node">
<title>Node21</title>
<g id="a_node11"><a xlink:href="ionoModel_8cpp.html#ae7821a74f98f349d4508712aeced88e1" target="_top" xlink:title="Updating the ionosphere model parameters The ionosphere model should be initialized by calling &#39;confi...">
<polygon fill="white" stroke="red" points="365.5,-1178.5 365.5,-1197.5 458.5,-1197.5 458.5,-1178.5 365.5,-1178.5"/>
<text text-anchor="middle" x="412" y="-1185.5" font-family="Helvetica,sans-Serif" font-size="10.00">filterIonosphere</text>
</a>
</g>
</g>
<!-- Node1&#45;&gt;Node21 -->
<g id="edge12" class="edge">
<title>Node1&#45;&gt;Node21</title>
<path fill="none" stroke="midnightblue" d="M578.44,-770.73C570.26,-845.49 537.69,-1110.07 481,-1169 474.97,-1175.27 467.05,-1179.53 458.76,-1182.4"/>
<polygon fill="midnightblue" stroke="midnightblue" points="581.92,-771.09 579.51,-760.77 574.96,-770.34 581.92,-771.09"/>
</g>
<!-- Node22 -->
<g id="node12" class="node">
<title>Node22</title>
<g id="a_node12"><a xlink:href="ionoMeas_8cpp.html#ab3f111d5e6d66de4751fbce467a29372" target="_top" xlink:title=" ">
<polygon fill="white" stroke="black" points="373,-1140.5 373,-1159.5 451,-1159.5 451,-1140.5 373,-1140.5"/>
<text text-anchor="middle" x="412" y="-1147.5" font-family="Helvetica,sans-Serif" font-size="10.00">obsIonoData</text>
</a>
</g>
</g>
<!-- Node1&#45;&gt;Node22 -->
<g id="edge13" class="edge">
<title>Node1&#45;&gt;Node22</title>
<path fill="none" stroke="midnightblue" d="M581.27,-770.85C582.54,-832.2 578,-1020.92 481,-1126 473.19,-1134.46 462.21,-1139.94 451.35,-1143.49"/>
<polygon fill="midnightblue" stroke="midnightblue" points="584.76,-770.53 580.97,-760.63 577.77,-770.73 584.76,-770.53"/>
</g>
<!-- Node23 -->
<g id="node13" class="node">
<title>Node23</title>
<g id="a_node13"><a xlink:href="minimumConstraints_8cpp.html#aa40934b017f373d875c3470591eff52e" target="_top" xlink:title=" ">
<polygon fill="white" stroke="red" points="200,-646.5 200,-665.5 253,-665.5 253,-646.5 200,-646.5"/>
<text text-anchor="middle" x="226.5" y="-653.5" font-family="Helvetica,sans-Serif" font-size="10.00">mincon</text>
</a>
</g>
</g>
<!-- Node1&#45;&gt;Node23 -->
<g id="edge15" class="edge">
<title>Node1&#45;&gt;Node23</title>
<path fill="none" stroke="midnightblue" d="M577.88,-770.5C568.53,-836.99 534.41,-1052.91 481,-1093 431.95,-1129.82 388.19,-1134.47 343,-1093 274.3,-1029.97 367.85,-745.64 307,-675 293.94,-659.84 271.15,-655.62 253.31,-654.88"/>
<polygon fill="midnightblue" stroke="midnightblue" points="581.36,-770.91 579.26,-760.52 574.43,-769.95 581.36,-770.91"/>
</g>
<!-- Node28 -->
<g id="node14" class="node">
<title>Node28</title>
<g id="a_node14"><a xlink:href="ppp__pseudoobs_8cpp.html#adbd609c578a9ecb55f36c3908efa85ee" target="_top" xlink:title=" ">
<polygon fill="white" stroke="red" points="0,-570.5 0,-589.5 110,-589.5 110,-570.5 0,-570.5"/>
<text text-anchor="middle" x="55" y="-577.5" font-family="Helvetica,sans-Serif" font-size="10.00">receiverPseudoObs</text>
</a>
</g>
</g>
<!-- Node1&#45;&gt;Node28 -->
<g id="edge48" class="edge">
<title>Node1&#45;&gt;Node28</title>
<path fill="none" stroke="midnightblue" d="M579.72,-731.3C575.92,-647.07 556.4,-318.73 481,-257 433.54,-218.15 390.23,-217.88 343,-257 276.81,-311.83 359.59,-379.02 307,-447 258.58,-509.58 215.33,-484.87 146,-523 118.29,-538.24 87.44,-558.55 70.01,-570.36"/>
<polygon fill="midnightblue" stroke="midnightblue" points="576.22,-731.48 580.14,-741.32 583.21,-731.18 576.22,-731.48"/>
</g>
<!-- Node29 -->
<g id="node15" class="node">
<title>Node29</title>
<g id="a_node15"><a xlink:href="ionexWrite_8cpp.html#aa6127ca1dabcc43e97f8f0e8d096fbf8" target="_top" xlink:title=" ">
<polygon fill="white" stroke="red" points="365,-1064.5 365,-1083.5 459,-1083.5 459,-1064.5 365,-1064.5"/>
<text text-anchor="middle" x="412" y="-1071.5" font-family="Helvetica,sans-Serif" font-size="10.00">writeIonexHead</text>
</a>
</g>
</g>
<!-- Node1&#45;&gt;Node29 -->
<g id="edge17" class="edge">
<title>Node1&#45;&gt;Node29</title>
<path fill="none" stroke="midnightblue" d="M580.11,-770.82C577.95,-824.72 564.35,-975.23 481,-1055 474.89,-1060.85 467.13,-1064.92 459.06,-1067.76"/>
<polygon fill="midnightblue" stroke="midnightblue" points="583.62,-770.69 580.43,-760.58 576.62,-770.47 583.62,-770.69"/>
</g>
<!-- Node34 -->
<g id="node16" class="node">
<title>Node34</title>
<g id="a_node16"><a xlink:href="ppp_8cpp.html#a075655f5235940732703f2e6ca41421a" target="_top" xlink:title="Remove ambiguity states from filter when they deemed old or bad This effectively reinitialises them o...">
<polygon fill="white" stroke="red" points="346.5,-1026.5 346.5,-1045.5 477.5,-1045.5 477.5,-1026.5 346.5,-1026.5"/>
<text text-anchor="middle" x="412" y="-1033.5" font-family="Helvetica,sans-Serif" font-size="10.00">removeBadAmbiguities</text>
</a>
</g>
</g>
<!-- Node1&#45;&gt;Node34 -->
<g id="edge18" class="edge">
<title>Node1&#45;&gt;Node34</title>
<path fill="none" stroke="midnightblue" d="M578.59,-770.61C572.89,-818.6 551.7,-943.04 481,-1012 474.55,-1018.29 466.35,-1022.95 457.89,-1026.38"/>
<polygon fill="midnightblue" stroke="midnightblue" points="582.08,-770.93 579.68,-760.61 575.12,-770.17 582.08,-770.93"/>
</g>
<!-- Node35 -->
<g id="node17" class="node">
<title>Node35</title>
<g id="a_node17"><a xlink:href="ppp__slr_8cpp.html#a0f53eb82b1b0572a1aabec8b6fe5a6ad" target="_top" xlink:title=" ">
<polygon fill="white" stroke="red" points="192,-608.5 192,-627.5 261,-627.5 261,-608.5 192,-608.5"/>
<text text-anchor="middle" x="226.5" y="-615.5" font-family="Helvetica,sans-Serif" font-size="10.00">receiverSlr</text>
</a>
</g>
</g>
<!-- Node1&#45;&gt;Node35 -->
<g id="edge19" class="edge">
<title>Node1&#45;&gt;Node35</title>
<path fill="none" stroke="midnightblue" d="M578.82,-770.85C573.72,-817.01 553.95,-931.24 481,-979 429.69,-1012.59 388.58,-1020.04 343,-979 286.2,-927.87 357.42,-694.43 307,-637 295.67,-624.1 277.29,-619.15 261.06,-617.51"/>
<polygon fill="midnightblue" stroke="midnightblue" points="582.33,-770.96 579.82,-760.66 575.36,-770.27 582.33,-770.96"/>
</g>
<!-- Node36 -->
<g id="node18" class="node">
<title>Node36</title>
<g id="a_node18"><a xlink:href="acsQC_8cpp.html#a9a7675a515de2802ed917e9d32dd897d" target="_top" xlink:title="Cycle slip detection for dual&#45;frequency.">
<polygon fill="white" stroke="black" points="379.5,-950.5 379.5,-969.5 444.5,-969.5 444.5,-950.5 379.5,-950.5"/>
<text text-anchor="middle" x="412" y="-957.5" font-family="Helvetica,sans-Serif" font-size="10.00">cycleslip2</text>
</a>
</g>
</g>
<!-- Node1&#45;&gt;Node36 -->
<g id="edge20" class="edge">
<title>Node1&#45;&gt;Node36</title>
<path fill="none" stroke="midnightblue" d="M575.82,-770.58C565.56,-809.19 537.37,-895.37 481,-941 470.71,-949.33 457,-954.01 444.59,-956.64"/>
<polygon fill="midnightblue" stroke="midnightblue" points="579.28,-771.17 578.35,-760.62 572.5,-769.45 579.28,-771.17"/>
</g>
<!-- Node37 -->
<g id="node19" class="node">
<title>Node37</title>
<g id="a_node19"><a xlink:href="acsQC_8cpp.html#a7b37fc255c80330a5497de5bee8f2dbb" target="_top" xlink:title="Cycle slip detection and repair.">
<polygon fill="white" stroke="red" points="194,-836.5 194,-855.5 259,-855.5 259,-836.5 194,-836.5"/>
<text text-anchor="middle" x="226.5" y="-843.5" font-family="Helvetica,sans-Serif" font-size="10.00">detectslip</text>
</a>
</g>
</g>
<!-- Node1&#45;&gt;Node37 -->
<g id="edge24" class="edge">
<title>Node1&#45;&gt;Node37</title>
<path fill="none" stroke="midnightblue" d="M564.35,-768.23C546.08,-786.44 514.47,-814.26 481,-827 405.51,-855.72 308.41,-853.09 259.17,-849.25"/>
<polygon fill="midnightblue" stroke="midnightblue" points="567.29,-770.22 571.77,-760.62 562.28,-765.34 567.29,-770.22"/>
</g>
<!-- Node41 -->
<g id="node20" class="node">
<title>Node41</title>
<g id="a_node20"><a xlink:href="ppp__pseudoobs_8cpp.html#ae73c509527efa6401eb80a02825fb7fd" target="_top" xlink:title=" ">
<polygon fill="white" stroke="red" points="366,-912.5 366,-931.5 458,-931.5 458,-912.5 366,-912.5"/>
<text text-anchor="middle" x="412" y="-919.5" font-family="Helvetica,sans-Serif" font-size="10.00">ionoPseudoObs</text>
</a>
</g>
</g>
<!-- Node1&#45;&gt;Node41 -->
<g id="edge22" class="edge">
<title>Node1&#45;&gt;Node41</title>
<path fill="none" stroke="midnightblue" d="M572.42,-770.12C558.33,-801.26 526.36,-862.97 481,-898 472.97,-904.2 463.22,-908.88 453.63,-912.38"/>
<polygon fill="midnightblue" stroke="midnightblue" points="575.69,-771.37 576.51,-760.81 569.28,-768.56 575.69,-771.37"/>
</g>
<!-- Node42 -->
<g id="node21" class="node">
<title>Node42</title>
<g id="a_node21"><a xlink:href="acsQC_8cpp.html#a5278f59e23c92b2a1912d5dde5e2f809" target="_top" xlink:title="Cycle slip detection and repair for triple&#45;frequency.">
<polygon fill="white" stroke="black" points="379.5,-798.5 379.5,-817.5 444.5,-817.5 444.5,-798.5 379.5,-798.5"/>
<text text-anchor="middle" x="412" y="-805.5" font-family="Helvetica,sans-Serif" font-size="10.00">cycleslip3</text>
</a>
</g>
</g>
<!-- Node1&#45;&gt;Node42 -->
<g id="edge25" class="edge">
<title>Node1&#45;&gt;Node42</title>
<path fill="none" stroke="midnightblue" d="M547.87,-764.33C528.58,-772 503.58,-781.55 481,-789 469.24,-792.88 456.18,-796.65 444.67,-799.8"/>
<polygon fill="midnightblue" stroke="midnightblue" points="549.42,-767.49 557.4,-760.52 546.81,-760.99 549.42,-767.49"/>
</g>
<!-- Node43 -->
<g id="node22" class="node">
<title>Node43</title>
<g id="a_node22"><a xlink:href="cost_8cpp.html#abc021ac32635abe4cf6daef44cabb888" target="_top" xlink:title="Outputs troposphere COST file.">
<polygon fill="white" stroke="red" points="377,-760.5 377,-779.5 447,-779.5 447,-760.5 377,-760.5"/>
<text text-anchor="middle" x="412" y="-767.5" font-family="Helvetica,sans-Serif" font-size="10.00">outputCost</text>
</a>
</g>
</g>
<!-- Node1&#45;&gt;Node43 -->
<g id="edge27" class="edge">
<title>Node1&#45;&gt;Node43</title>
<path fill="none" stroke="midnightblue" d="M506.6,-759.38C485.86,-761.74 464.29,-764.18 447.1,-766.13"/>
<polygon fill="midnightblue" stroke="midnightblue" points="507.16,-762.84 516.7,-758.24 506.37,-755.89 507.16,-762.84"/>
</g>
<!-- Node44 -->
<g id="node23" class="node">
<title>Node44</title>
<g id="a_node23"><a xlink:href="debug_8cpp.html#a9779f5f24c300e72581f3858ed638c9e" target="_top" xlink:title=" ">
<polygon fill="white" stroke="black" points="369,-722.5 369,-741.5 455,-741.5 455,-722.5 369,-722.5"/>
<text text-anchor="middle" x="412" y="-729.5" font-family="Helvetica,sans-Serif" font-size="10.00">debugAttitude</text>
</a>
</g>
</g>
<!-- Node1&#45;&gt;Node44 -->
<g id="edge28" class="edge">
<title>Node1&#45;&gt;Node44</title>
<path fill="none" stroke="midnightblue" d="M506.44,-742.6C488.85,-740.6 470.69,-738.54 455.11,-736.78"/>
<polygon fill="midnightblue" stroke="midnightblue" points="506.37,-746.11 516.7,-743.76 507.16,-739.16 506.37,-746.11"/>
</g>
<!-- Node45 -->
<g id="node24" class="node">
<title>Node45</title>
<g id="a_node24"><a xlink:href="tides_8cpp.html#a1ca38a143043c722f3b7af0326f8e2f0" target="_top" xlink:title=" ">
<polygon fill="white" stroke="red" points="198,-684.5 198,-703.5 255,-703.5 255,-684.5 198,-684.5"/>
<text text-anchor="middle" x="226.5" y="-691.5" font-family="Helvetica,sans-Serif" font-size="10.00">tideDisp</text>
</a>
</g>
</g>
<!-- Node1&#45;&gt;Node45 -->
<g id="edge29" class="edge">
<title>Node1&#45;&gt;Node45</title>
<path fill="none" stroke="midnightblue" d="M551.23,-737.24C531.76,-728.74 505.39,-718.45 481,-713 400.46,-695 302.32,-693.16 255.27,-693.47"/>
<polygon fill="midnightblue" stroke="midnightblue" points="549.9,-740.48 560.46,-741.36 552.75,-734.08 549.9,-740.48"/>
</g>
<!-- Node48 -->
<g id="node25" class="node">
<title>Node48</title>
<g id="a_node25"><a xlink:href="ppppp_8cpp.html#a1362ae79f7531374dde5ae0fa5d88a01" target="_top" xlink:title="Replace individual measurements with linear combinations.">
<polygon fill="white" stroke="red" points="372,-646.5 372,-665.5 452,-665.5 452,-646.5 372,-646.5"/>
<text text-anchor="middle" x="412" y="-653.5" font-family="Helvetica,sans-Serif" font-size="10.00">makeRTKLCs</text>
</a>
</g>
</g>
<!-- Node1&#45;&gt;Node48 -->
<g id="edge30" class="edge">
<title>Node1&#45;&gt;Node48</title>
<path fill="none" stroke="midnightblue" d="M561.51,-734.97C542.23,-719.31 511.01,-695.61 481,-680 470,-674.28 457.34,-669.4 445.95,-665.56"/>
<polygon fill="midnightblue" stroke="midnightblue" points="559.3,-737.69 569.25,-741.34 563.76,-732.28 559.3,-737.69"/>
</g>
<!-- Node49 -->
<g id="node26" class="node">
<title>Node49</title>
<g id="a_node26"><a xlink:href="erp_8cpp.html#a6c6ecf3c5c7d4367d78ad08621996580" target="_top" xlink:title="Get earth rotation parameter values.">
<polygon fill="white" stroke="red" points="388,-608.5 388,-627.5 436,-627.5 436,-608.5 388,-608.5"/>
<text text-anchor="middle" x="412" y="-615.5" font-family="Helvetica,sans-Serif" font-size="10.00">getErp</text>
</a>
</g>
</g>
<!-- Node1&#45;&gt;Node49 -->
<g id="edge31" class="edge">
<title>Node1&#45;&gt;Node49</title>
<path fill="none" stroke="midnightblue" d="M569.49,-732.75C553.29,-707.44 520.6,-661.98 481,-637 467.42,-628.43 449.93,-623.66 436.09,-621.04"/>
<polygon fill="midnightblue" stroke="midnightblue" points="566.62,-734.75 574.88,-741.38 572.56,-731.04 566.62,-734.75"/>
</g>
<!-- Node91 -->
<g id="node27" class="node">
<title>Node91</title>
<g id="a_node27"><a xlink:href="main_8cpp.html#a54d210f60c2488eb2654eaf7a3bbf6c4" target="_top" xlink:title="Create a station object from an input.">
<polygon fill="white" stroke="red" points="366,-570.5 366,-589.5 458,-589.5 458,-570.5 366,-570.5"/>
<text text-anchor="middle" x="412" y="-577.5" font-family="Helvetica,sans-Serif" font-size="10.00">addStationData</text>
</a>
</g>
</g>
<!-- Node1&#45;&gt;Node91 -->
<g id="edge36" class="edge">
<title>Node1&#45;&gt;Node91</title>
<path fill="none" stroke="midnightblue" d="M573.25,-731.82C560.01,-699.42 528.79,-633.98 481,-599 474.27,-594.08 466.32,-590.43 458.27,-587.73"/>
<polygon fill="midnightblue" stroke="midnightblue" points="570.12,-733.43 577.05,-741.45 576.63,-730.86 570.12,-733.43"/>
</g>
<!-- Node93 -->
<g id="node28" class="node">
<title>Node93</title>
<g id="a_node28"><a xlink:href="rinex_8cpp.html#a774458b36a7a13e1263568e05106dc83" target="_top" xlink:title="Decode obs header.">
<polygon fill="white" stroke="black" points="373,-532.5 373,-551.5 451,-551.5 451,-532.5 373,-532.5"/>
<text text-anchor="middle" x="412" y="-539.5" font-family="Helvetica,sans-Serif" font-size="10.00">decodeObsH</text>
</a>
</g>
</g>
<!-- Node1&#45;&gt;Node93 -->
<g id="edge37" class="edge">
<title>Node1&#45;&gt;Node93</title>
<path fill="none" stroke="midnightblue" d="M575.82,-731.42C565.56,-692.81 537.37,-606.63 481,-561 472.52,-554.14 461.72,-549.75 451.23,-546.95"/>
<polygon fill="midnightblue" stroke="midnightblue" points="572.5,-732.55 578.35,-741.38 579.28,-730.83 572.5,-732.55"/>
</g>
<!-- Node94 -->
<g id="node29" class="node">
<title>Node94</title>
<g id="a_node29"><a xlink:href="rinex_8cpp.html#a8751d1a1d98fb7862f17d0a3ebc22310" target="_top" xlink:title="Read rinex header.">
<polygon fill="white" stroke="red" points="194,-532.5 194,-551.5 259,-551.5 259,-532.5 194,-532.5"/>
<text text-anchor="middle" x="226.5" y="-539.5" font-family="Helvetica,sans-Serif" font-size="10.00">readRnxH</text>
</a>
</g>
</g>
<!-- Node1&#45;&gt;Node94 -->
<g id="edge42" class="edge">
<title>Node1&#45;&gt;Node94</title>
<path fill="none" stroke="midnightblue" d="M578.82,-731.15C573.72,-684.99 553.95,-570.76 481,-523 445.28,-499.61 318.73,-522.44 259.06,-534.97"/>
<polygon fill="midnightblue" stroke="midnightblue" points="575.36,-731.73 579.82,-741.34 582.33,-731.04 575.36,-731.73"/>
</g>
<!-- Node5 -->
<g id="node30" class="node">
<title>Node5</title>
<g id="a_node30"><a xlink:href="main_8cpp.html#a2c1eabb2ea9b242d8d9fd2c1795849e9" target="_top" xlink:title=" ">
<polygon fill="white" stroke="red" points="33,-399.5 33,-418.5 77,-418.5 77,-399.5 33,-399.5"/>
<text text-anchor="middle" x="55" y="-406.5" font-family="Helvetica,sans-Serif" font-size="10.00">ginan</text>
</a>
</g>
</g>
<!-- Node1&#45;&gt;Node5 -->
<g id="edge39" class="edge">
<title>Node1&#45;&gt;Node5</title>
<path fill="none" stroke="midnightblue" d="M577.91,-731.31C570.97,-686.84 547.73,-578.21 481,-523 422.18,-474.34 218.67,-470.38 146,-447 121.3,-439.05 93.97,-427.03 75.99,-418.64"/>
<polygon fill="midnightblue" stroke="midnightblue" points="574.47,-731.99 579.37,-741.39 581.4,-730.99 574.47,-731.99"/>
</g>
<!-- Node97 -->
<g id="node31" class="node">
<title>Node97</title>
<g id="a_node31"><a xlink:href="localAtmosRegion_8cpp.html#a4f2c14c2994a3bb5761636e9196b34e8" target="_top" xlink:title=" ">
<polygon fill="white" stroke="black" points="168.5,-418.5 168.5,-437.5 284.5,-437.5 284.5,-418.5 168.5,-418.5"/>
<text text-anchor="middle" x="226.5" y="-425.5" font-family="Helvetica,sans-Serif" font-size="10.00">configAtmosRegions</text>
</a>
</g>
</g>
<!-- Node1&#45;&gt;Node97 -->
<g id="edge40" class="edge">
<title>Node1&#45;&gt;Node97</title>
<path fill="none" stroke="midnightblue" d="M579.04,-731.27C574.34,-682.5 555.21,-555.51 481,-490 426.57,-441.95 340.95,-429.76 284.52,-427.37"/>
<polygon fill="midnightblue" stroke="midnightblue" points="575.57,-731.75 579.92,-741.42 582.54,-731.15 575.57,-731.75"/>
</g>
<!-- Node40 -->
<g id="node32" class="node">
<title>Node40</title>
<g id="a_node32"><a xlink:href="structACSConfig.html#acbe400e2cc2760cbebd28dda6413c4ad" target="_top" xlink:title="Parse options to set acsConfig values.">
<polygon fill="white" stroke="red" points="176.5,-380.5 176.5,-399.5 276.5,-399.5 276.5,-380.5 176.5,-380.5"/>
<text text-anchor="middle" x="226.5" y="-387.5" font-family="Helvetica,sans-Serif" font-size="10.00">ACSConfig::parse</text>
</a>
</g>
</g>
<!-- Node1&#45;&gt;Node40 -->
<g id="edge43" class="edge">
<title>Node1&#45;&gt;Node40</title>
<path fill="none" stroke="midnightblue" d="M577.01,-731.4C568.21,-686.87 541.36,-576.67 481,-508 425.88,-445.29 330.39,-413.58 273.66,-399.52"/>
<polygon fill="midnightblue" stroke="midnightblue" points="573.62,-732.28 578.91,-741.46 580.5,-730.99 573.62,-732.28"/>
</g>
<!-- Node98 -->
<g id="node33" class="node">
<title>Node98</title>
<g id="a_node33"><a xlink:href="spp_8cpp.html#a9d6f3216e22cb09500173e6632bbdfbc" target="_top" xlink:title="Estimate receiver position and biases using code measurements.">
<polygon fill="white" stroke="red" points="387.5,-342.5 387.5,-361.5 436.5,-361.5 436.5,-342.5 387.5,-342.5"/>
<text text-anchor="middle" x="412" y="-349.5" font-family="Helvetica,sans-Serif" font-size="10.00">estpos</text>
</a>
</g>
</g>
<!-- Node1&#45;&gt;Node98 -->
<g id="edge45" class="edge">
<title>Node1&#45;&gt;Node98</title>
<path fill="none" stroke="midnightblue" d="M581.27,-731.15C582.54,-669.8 578,-481.08 481,-376 469.54,-363.58 451.25,-357.59 436.53,-354.69"/>
<polygon fill="midnightblue" stroke="midnightblue" points="577.77,-731.27 580.97,-741.37 584.76,-731.47 577.77,-731.27"/>
</g>
<!-- Node100 -->
<g id="node34" class="node">
<title>Node100</title>
<g id="a_node34"><a xlink:href="tropSinex_8cpp.html#a97e226ce7219f7e1f35c2fde83f435af" target="_top" xlink:title="Set data for trop description block.">
<polygon fill="white" stroke="red" points="368.5,-304.5 368.5,-323.5 455.5,-323.5 455.5,-304.5 368.5,-304.5"/>
<text text-anchor="middle" x="412" y="-311.5" font-family="Helvetica,sans-Serif" font-size="10.00">setDescription</text>
</a>
</g>
</g>
<!-- Node1&#45;&gt;Node100 -->
<g id="edge46" class="edge">
<title>Node1&#45;&gt;Node100</title>
<path fill="none" stroke="midnightblue" d="M578.44,-731.27C570.26,-656.51 537.69,-391.93 481,-333 474.2,-325.93 465.01,-321.43 455.59,-318.57"/>
<polygon fill="midnightblue" stroke="midnightblue" points="574.96,-731.66 579.51,-741.23 581.92,-730.91 574.96,-731.66"/>
</g>
<!-- Node102 -->
<g id="node35" class="node">
<title>Node102</title>
<g id="a_node35"><a xlink:href="tropSinex_8cpp.html#ad57f3048f1df0be47d338e2a87bea7ae" target="_top" xlink:title="Set troposphere solution data from filter.">
<polygon fill="white" stroke="red" points="354,-266.5 354,-285.5 470,-285.5 470,-266.5 354,-266.5"/>
<text text-anchor="middle" x="412" y="-273.5" font-family="Helvetica,sans-Serif" font-size="10.00">setTropSolFromFilter</text>
</a>
</g>
</g>
<!-- Node1&#45;&gt;Node102 -->
<g id="edge47" class="edge">
<title>Node1&#45;&gt;Node102</title>
<path fill="none" stroke="midnightblue" d="M578.84,-731.03C571.86,-651.71 542.36,-360.01 481,-295 477.38,-291.17 473.06,-288.09 468.37,-285.61"/>
<polygon fill="midnightblue" stroke="midnightblue" points="575.37,-731.48 579.71,-741.14 582.34,-730.88 575.37,-731.48"/>
</g>
<!-- Node104 -->
<g id="node36" class="node">
<title>Node104</title>
<g id="a_node36"><a xlink:href="ppppp_8cpp.html#a45f0cda97e5e3cff2eeb13b2cea9562f" target="_top" xlink:title="Prepare stec values clocks to minimise residuals to klobuchar model.">
<polygon fill="white" stroke="red" points="351,-190.5 351,-209.5 473,-209.5 473,-190.5 351,-190.5"/>
<text text-anchor="middle" x="412" y="-197.5" font-family="Helvetica,sans-Serif" font-size="10.00">updateAvgIonosphere</text>
</a>
</g>
</g>
<!-- Node1&#45;&gt;Node104 -->
<g id="edge49" class="edge">
<title>Node1&#45;&gt;Node104</title>
<path fill="none" stroke="midnightblue" d="M579.35,-731.19C573.98,-644.94 548.67,-302.88 481,-224 475.54,-217.63 468.28,-212.96 460.53,-209.52"/>
<polygon fill="midnightblue" stroke="midnightblue" points="575.87,-731.64 579.97,-741.41 582.86,-731.22 575.87,-731.64"/>
</g>
<!-- Node105 -->
<g id="node37" class="node">
<title>Node105</title>
<g id="a_node37"><a xlink:href="preprocessor_8cpp.html#a5bf581abef6389557c3fdd95086a5c42" target="_top" xlink:title=" ">
<polygon fill="white" stroke="black" points="371.5,-152.5 371.5,-171.5 452.5,-171.5 452.5,-152.5 371.5,-152.5"/>
<text text-anchor="middle" x="412" y="-159.5" font-family="Helvetica,sans-Serif" font-size="10.00">obsVariances</text>
</a>
</g>
</g>
<!-- Node1&#45;&gt;Node105 -->
<g id="edge50" class="edge">
<title>Node1&#45;&gt;Node105</title>
<path fill="none" stroke="midnightblue" d="M579.8,-731.22C576.17,-640.44 556.72,-264.66 481,-181 473.68,-172.91 463.23,-168.15 452.71,-165.38"/>
<polygon fill="midnightblue" stroke="midnightblue" points="576.31,-731.6 580.18,-741.46 583.3,-731.34 576.31,-731.6"/>
</g>
<!-- Node106 -->
<g id="node38" class="node">
<title>Node106</title>
<g id="a_node38"><a xlink:href="ppp__pseudoobs_8cpp.html#a02995a7f24f39419730eea3b664553cf" target="_top" xlink:title=" ">
<polygon fill="white" stroke="red" points="363,-114.5 363,-133.5 461,-133.5 461,-114.5 363,-114.5"/>
<text text-anchor="middle" x="412" y="-121.5" font-family="Helvetica,sans-Serif" font-size="10.00">ambgPseudoObs</text>
</a>
</g>
</g>
<!-- Node1&#45;&gt;Node106 -->
<g id="edge52" class="edge">
<title>Node1&#45;&gt;Node106</title>
<path fill="none" stroke="midnightblue" d="M580.03,-731.11C577.39,-636.49 561.48,-232.88 481,-143 475.69,-137.06 468.69,-132.92 461.2,-130.03"/>
<polygon fill="midnightblue" stroke="midnightblue" points="576.53,-731.38 580.29,-741.29 583.53,-731.2 576.53,-731.38"/>
</g>
<!-- Node107 -->
<g id="node39" class="node">
<title>Node107</title>
<g id="a_node39"><a xlink:href="ppp__pseudoobs_8cpp.html#a0df461e27bceaa75ec50285c2abf8f27" target="_top" xlink:title=" ">
<polygon fill="white" stroke="red" points="367,-76.5 367,-95.5 457,-95.5 457,-76.5 367,-76.5"/>
<text text-anchor="middle" x="412" y="-83.5" font-family="Helvetica,sans-Serif" font-size="10.00">tropPseudoObs</text>
</a>
</g>
</g>
<!-- Node1&#45;&gt;Node107 -->
<g id="edge53" class="edge">
<title>Node1&#45;&gt;Node107</title>
<path fill="none" stroke="midnightblue" d="M580.24,-731.11C578.55,-632.97 566.29,-201.15 481,-105 474.74,-97.94 466.09,-93.41 457.06,-90.52"/>
<polygon fill="midnightblue" stroke="midnightblue" points="576.74,-731.21 580.39,-741.16 583.74,-731.11 576.74,-731.21"/>
</g>
<!-- Node108 -->
<g id="node40" class="node">
<title>Node108</title>
<g id="a_node40"><a xlink:href="ppppp_8cpp.html#a1a8f284c03d52ec377672f704c6f3504" target="_top" xlink:title="Prepare receiver clocks using spp values to minimise pre&#45;fit residuals.">
<polygon fill="white" stroke="red" points="361.5,-38.5 361.5,-57.5 462.5,-57.5 462.5,-38.5 361.5,-38.5"/>
<text text-anchor="middle" x="412" y="-45.5" font-family="Helvetica,sans-Serif" font-size="10.00">updateRecClocks</text>
</a>
</g>
</g>
<!-- Node1&#45;&gt;Node108 -->
<g id="edge54" class="edge">
<title>Node1&#45;&gt;Node108</title>
<path fill="none" stroke="midnightblue" d="M580.42,-730.92C579.63,-628.96 571.05,-169.38 481,-67 476.06,-61.39 469.62,-57.37 462.66,-54.5"/>
<polygon fill="midnightblue" stroke="midnightblue" points="576.93,-731.1 580.49,-741.07 583.92,-731.05 576.93,-731.1"/>
</g>
<!-- Node39 -->
<g id="node41" class="node">
<title>Node39</title>
<g id="a_node41"><a xlink:href="preprocessor_8cpp.html#a66089b6d3c4e1fd48ff14fd9d0a1f933" target="_top" xlink:title=" ">
<polygon fill="white" stroke="black" points="372,-0.5 372,-19.5 452,-19.5 452,-0.5 372,-0.5"/>
<text text-anchor="middle" x="412" y="-7.5" font-family="Helvetica,sans-Serif" font-size="10.00">preprocessor</text>
</a>
</g>
</g>
<!-- Node1&#45;&gt;Node39 -->
<g id="edge55" class="edge">
<title>Node1&#45;&gt;Node39</title>
<path fill="none" stroke="midnightblue" d="M580.59,-730.81C580.67,-625.28 575.84,-137.65 481,-29 473.66,-20.6 462.95,-15.77 452.19,-13.03"/>
<polygon fill="midnightblue" stroke="midnightblue" points="577.09,-731.02 580.57,-741.03 584.09,-731.04 577.09,-731.02"/>
</g>
<!-- Node14&#45;&gt;Node15 -->
<g id="edge5" class="edge">
<title>Node14&#45;&gt;Node15</title>
<path fill="none" stroke="midnightblue" d="M353.63,-1364.67C349.92,-1363 346.34,-1361.11 343,-1359 290.02,-1325.48 247.83,-1260.36 233.12,-1235.74"/>
<polygon fill="midnightblue" stroke="midnightblue" points="352.44,-1367.97 363.03,-1368.43 355.04,-1361.47 352.44,-1367.97"/>
</g>
<!-- Node17&#45;&gt;Node15 -->
<g id="edge7" class="edge">
<title>Node17&#45;&gt;Node15</title>
<path fill="none" stroke="midnightblue" d="M367.55,-1327.03C359.19,-1323.88 350.66,-1320.19 343,-1316 300.18,-1292.57 256.62,-1253.66 237.52,-1235.67"/>
<polygon fill="midnightblue" stroke="midnightblue" points="366.62,-1330.41 377.22,-1330.47 368.97,-1323.82 366.62,-1330.41"/>
</g>
<!-- Node18&#45;&gt;Node19 -->
<g id="edge10" class="edge">
<title>Node18&#45;&gt;Node19</title>
<path fill="none" stroke="midnightblue" d="M353.51,-1252.7C349.69,-1250.56 346.13,-1248.01 343,-1245 236.14,-1142.04 227.92,-940.36 227.48,-893.77"/>
<polygon fill="midnightblue" stroke="midnightblue" points="352.27,-1255.98 362.81,-1257.02 355.22,-1249.63 352.27,-1255.98"/>
</g>
<!-- Node22&#45;&gt;Node15 -->
<g id="edge14" class="edge">
<title>Node22&#45;&gt;Node15</title>
<path fill="none" stroke="midnightblue" d="M362.99,-1162.2C356.21,-1164.28 349.38,-1166.56 343,-1169 306.66,-1182.9 266.36,-1204.24 244.27,-1216.48"/>
<polygon fill="midnightblue" stroke="midnightblue" points="364.22,-1165.49 372.83,-1159.32 362.25,-1158.78 364.22,-1165.49"/>
</g>
<!-- Node23&#45;&gt;Node28 -->
<g id="edge16" class="edge">
<title>Node23&#45;&gt;Node28</title>
<path fill="none" stroke="midnightblue" d="M189.55,-650.03C175.62,-647.05 159.75,-642.81 146,-637 116.01,-624.34 84.72,-602.14 68.09,-589.51"/>
<polygon fill="midnightblue" stroke="midnightblue" points="189.27,-653.55 199.76,-652.07 190.64,-646.68 189.27,-653.55"/>
</g>
<!-- Node36&#45;&gt;Node37 -->
<g id="edge21" class="edge">
<title>Node36&#45;&gt;Node37</title>
<path fill="none" stroke="midnightblue" d="M369.46,-954.39C359.99,-951.56 350.51,-947.33 343,-941 314.42,-916.91 336.03,-888.55 307,-865 293.66,-854.18 275.17,-849.35 259.38,-847.25"/>
<polygon fill="midnightblue" stroke="midnightblue" points="368.69,-957.8 379.24,-956.85 370.4,-951.01 368.69,-957.8"/>
</g>
<!-- Node42&#45;&gt;Node37 -->
<g id="edge26" class="edge">
<title>Node42&#45;&gt;Node37</title>
<path fill="none" stroke="midnightblue" d="M369.53,-816.59C336.09,-823.51 289.78,-833.1 259.25,-839.43"/>
<polygon fill="midnightblue" stroke="midnightblue" points="370.37,-819.99 379.46,-814.53 368.95,-813.13 370.37,-819.99"/>
</g>
<!-- Node49&#45;&gt;Node19 -->
<g id="edge32" class="edge">
<title>Node49&#45;&gt;Node19</title>
<path fill="none" stroke="midnightblue" d="M377.58,-619.86C365.04,-622.28 351.72,-627.2 343,-637 274.78,-713.62 376.66,-789.69 307,-865 296.02,-876.88 279.05,-881.94 263.61,-883.91"/>
<polygon fill="midnightblue" stroke="midnightblue" points="378.43,-623.27 387.82,-618.37 377.42,-616.35 378.43,-623.27"/>
</g>
<!-- Node49&#45;&gt;Node23 -->
<g id="edge34" class="edge">
<title>Node49&#45;&gt;Node23</title>
<path fill="none" stroke="midnightblue" d="M377.8,-624.88C342,-632.29 285.78,-643.93 253.2,-650.68"/>
<polygon fill="midnightblue" stroke="midnightblue" points="378.68,-628.27 387.76,-622.81 377.26,-621.41 378.68,-628.27"/>
</g>
<!-- Node49&#45;&gt;Node35 -->
<g id="edge35" class="edge">
<title>Node49&#45;&gt;Node35</title>
<path fill="none" stroke="midnightblue" d="M377.68,-618C344.64,-618 294.27,-618 261.12,-618"/>
<polygon fill="midnightblue" stroke="midnightblue" points="377.76,-621.5 387.76,-618 377.76,-614.5 377.76,-621.5"/>
</g>
<!-- Node49&#45;&gt;Node45 -->
<g id="edge33" class="edge">
<title>Node49&#45;&gt;Node45</title>
<path fill="none" stroke="midnightblue" d="M377.91,-623.47C366.31,-626.34 353.56,-630.64 343,-637 323.08,-649.01 327.15,-663.37 307,-675 291.15,-684.15 271.08,-688.9 255.08,-691.37"/>
<polygon fill="midnightblue" stroke="midnightblue" points="378.71,-626.88 387.72,-621.3 377.19,-620.04 378.71,-626.88"/>
</g>
<!-- Node93&#45;&gt;Node94 -->
<g id="edge38" class="edge">
<title>Node93&#45;&gt;Node94</title>
<path fill="none" stroke="midnightblue" d="M362.71,-542C329.95,-542 287.57,-542 259.06,-542"/>
<polygon fill="midnightblue" stroke="midnightblue" points="362.98,-545.5 372.98,-542 362.98,-538.5 362.98,-545.5"/>
</g>
<!-- Node97&#45;&gt;Node5 -->
<g id="edge41" class="edge">
<title>Node97&#45;&gt;Node5</title>
<path fill="none" stroke="midnightblue" d="M158.05,-420.44C129.18,-417.2 97.52,-413.65 77.24,-411.38"/>
<polygon fill="midnightblue" stroke="midnightblue" points="157.79,-423.93 168.12,-421.57 158.57,-416.98 157.79,-423.93"/>
</g>
<!-- Node40&#45;&gt;Node5 -->
<g id="edge44" class="edge">
<title>Node40&#45;&gt;Node5</title>
<path fill="none" stroke="midnightblue" d="M166.22,-396.64C135.34,-400.11 99.49,-404.12 77.27,-406.62"/>
<polygon fill="midnightblue" stroke="midnightblue" points="166.93,-400.09 176.47,-395.5 166.15,-393.13 166.93,-400.09"/>
</g>
<!-- Node105&#45;&gt;Node15 -->
<g id="edge51" class="edge">
<title>Node105&#45;&gt;Node15</title>
<path fill="none" stroke="midnightblue" d="M361.4,-167.89C354.29,-170.81 347.79,-175.01 343,-181 292.86,-243.75 318.65,-823.53 307,-903 288.53,-1028.99 242.9,-1177.57 230.6,-1216.36"/>
<polygon fill="midnightblue" stroke="midnightblue" points="362.92,-171.07 371.35,-164.64 360.75,-164.42 362.92,-171.07"/>
</g>
<!-- Node39&#45;&gt;Node15 -->
<g id="edge57" class="edge">
<title>Node39&#45;&gt;Node15</title>
<path fill="none" stroke="midnightblue" d="M362.08,-15.56C354.7,-18.5 347.92,-22.78 343,-29 282.66,-105.2 320.68,-806.77 307,-903 289.07,-1029.07 243.05,-1177.59 230.63,-1216.36"/>
<polygon fill="midnightblue" stroke="midnightblue" points="363.18,-18.88 371.65,-12.52 361.06,-12.21 363.18,-18.88"/>
</g>
<!-- Node39&#45;&gt;Node5 -->
<g id="edge58" class="edge">
<title>Node39&#45;&gt;Node5</title>
<path fill="none" stroke="midnightblue" d="M361.88,-19.53C355.22,-22 348.72,-25.1 343,-29 188.26,-134.45 82.67,-350.77 60.39,-399.23"/>
<polygon fill="midnightblue" stroke="midnightblue" points="363.25,-22.77 371.68,-16.35 361.09,-16.11 363.25,-22.77"/>
</g>
<!-- Node39&#45;&gt;Node40 -->
<g id="edge56" class="edge">
<title>Node39&#45;&gt;Node40</title>
<path fill="none" stroke="midnightblue" d="M361.97,-16.69C354.86,-19.52 348.2,-23.48 343,-29 291.21,-83.93 329.33,-122.89 307,-195 284.29,-268.34 245.34,-352.57 232.08,-380.48"/>
<polygon fill="midnightblue" stroke="midnightblue" points="363.42,-19.9 371.85,-13.48 361.26,-13.24 363.42,-19.9"/>
</g>
</g>
</svg>
