<?xml version="1.0" encoding="UTF-8" standalone="no"?>
<!DOCTYPE svg PUBLIC "-//W3C//DTD SVG 1.1//EN"
 "http://www.w3.org/Graphics/SVG/1.1/DTD/svg11.dtd">
<!-- Generated by graphviz version 2.43.0 (0)
 -->
<!-- Title: Sinex_satident_t Pages: 1 -->
<svg width="117pt" height="204pt"
 viewBox="0.00 0.00 117.00 204.00" xmlns="http://www.w3.org/2000/svg" xmlns:xlink="http://www.w3.org/1999/xlink">
<g id="graph0" class="graph" transform="scale(1 1) rotate(0) translate(4 200)">
<title>Sinex_satident_t</title>
<polygon fill="white" stroke="transparent" points="-4,4 -4,-200 113,-200 113,4 -4,4"/>
<!-- Node1 -->
<g id="node1" class="node">
<title>Node1</title>
<g id="a_node1"><a xlink:title=" ">
<polygon fill="#bfbfbf" stroke="black" points="0,-0.5 0,-57.5 98,-57.5 98,-0.5 0,-0.5"/>
<text text-anchor="middle" x="49" y="-45.5" font-family="Helvetica,sans-Serif" font-size="10.00">Sinex_satident_t</text>
<polyline fill="none" stroke="black" points="0,-38.5 98,-38.5 "/>
<text text-anchor="start" x="8" y="-26.5" font-family="Helvetica,sans-Serif" font-size="10.00">+ category</text>
<polyline fill="none" stroke="black" points="0,-19.5 98,-19.5 "/>
<text text-anchor="middle" x="49" y="-7.5" font-family="Helvetica,sans-Serif" font-size="10.00"> </text>
</a>
</g>
</g>
<!-- Node2 -->
<g id="node2" class="node">
<title>Node2</title>
<g id="a_node2"><a xlink:title=" ">
<polygon fill="white" stroke="black" points="27,-138.5 27,-195.5 71,-195.5 71,-138.5 27,-138.5"/>
<text text-anchor="middle" x="49" y="-183.5" font-family="Helvetica,sans-Serif" font-size="10.00">string</text>
<polyline fill="none" stroke="black" points="27,-176.5 71,-176.5 "/>
<text text-anchor="middle" x="49" y="-164.5" font-family="Helvetica,sans-Serif" font-size="10.00"> </text>
<polyline fill="none" stroke="black" points="27,-157.5 71,-157.5 "/>
<text text-anchor="middle" x="49" y="-145.5" font-family="Helvetica,sans-Serif" font-size="10.00"> </text>
</a>
</g>
</g>
<!-- Node2&#45;&gt;Node1 -->
<g id="edge1" class="edge">
<title>Node2&#45;&gt;Node1</title>
<path fill="none" stroke="#404040" d="M49,-138.48C49,-115.04 49,-81.51 49,-57.95"/>
<text text-anchor="middle" x="79" y="-112" font-family="Helvetica,sans-Serif" font-size="10.00"> +blocktype</text>
<text text-anchor="middle" x="79" y="-101" font-family="Helvetica,sans-Serif" font-size="10.00">+comment</text>
<text text-anchor="middle" x="79" y="-90" font-family="Helvetica,sans-Serif" font-size="10.00">+cospar</text>
<text text-anchor="middle" x="79" y="-79" font-family="Helvetica,sans-Serif" font-size="10.00">+svn</text>
</g>
</g>
</svg>
