<?xml version="1.0" encoding="UTF-8" standalone="no"?>
<!DOCTYPE svg PUBLIC "-//W3C//DTD SVG 1.1//EN"
 "http://www.w3.org/Graphics/SVG/1.1/DTD/svg11.dtd">
<!-- Generated by graphviz version 2.43.0 (0)
 -->
<!-- Title: CustomDecoder Pages: 1 -->
<svg width="675pt" height="666pt"
 viewBox="0.00 0.00 675.00 666.00" xmlns="http://www.w3.org/2000/svg" xmlns:xlink="http://www.w3.org/1999/xlink">
<g id="graph0" class="graph" transform="scale(1 1) rotate(0) translate(4 662)">
<title>CustomDecoder</title>
<polygon fill="white" stroke="transparent" points="-4,4 -4,-662 671,-662 671,4 -4,4"/>
<!-- Node1 -->
<g id="node1" class="node">
<title>Node1</title>
<g id="a_node1"><a xlink:title=" ">
<polygon fill="#bfbfbf" stroke="black" points="263.5,-0.5 263.5,-134.5 388.5,-134.5 388.5,-0.5 263.5,-0.5"/>
<text text-anchor="middle" x="326" y="-122.5" font-family="Helvetica,sans-Serif" font-size="10.00">CustomDecoder</text>
<polyline fill="none" stroke="black" points="263.5,-115.5 388.5,-115.5 "/>
<text text-anchor="start" x="271.5" y="-103.5" font-family="Helvetica,sans-Serif" font-size="10.00">+ lastTimeTag</text>
<polyline fill="none" stroke="black" points="263.5,-96.5 388.5,-96.5 "/>
<text text-anchor="start" x="271.5" y="-84.5" font-family="Helvetica,sans-Serif" font-size="10.00">+ decodeEphFrames()</text>
<text text-anchor="start" x="271.5" y="-73.5" font-family="Helvetica,sans-Serif" font-size="10.00">+ decodeRAWX()</text>
<text text-anchor="start" x="271.5" y="-62.5" font-family="Helvetica,sans-Serif" font-size="10.00">+ decodeSFRBX()</text>
<text text-anchor="start" x="271.5" y="-51.5" font-family="Helvetica,sans-Serif" font-size="10.00">+ decodeMEAS()</text>
<text text-anchor="start" x="271.5" y="-40.5" font-family="Helvetica,sans-Serif" font-size="10.00">+ decodeRXM()</text>
<text text-anchor="start" x="271.5" y="-29.5" font-family="Helvetica,sans-Serif" font-size="10.00">+ decodeESF()</text>
<text text-anchor="start" x="271.5" y="-18.5" font-family="Helvetica,sans-Serif" font-size="10.00">+ decode()</text>
<text text-anchor="start" x="271.5" y="-7.5" font-family="Helvetica,sans-Serif" font-size="10.00">+ recordFrame()</text>
</a>
</g>
</g>
<!-- Node2 -->
<g id="node2" class="node">
<title>Node2</title>
<g id="a_node2"><a xlink:href="structObsLister.html" target="_top" xlink:title=" ">
<polygon fill="white" stroke="red" points="0,-397 0,-454 62,-454 62,-397 0,-397"/>
<text text-anchor="middle" x="31" y="-442" font-family="Helvetica,sans-Serif" font-size="10.00">ObsLister</text>
<polyline fill="none" stroke="red" points="0,-435 62,-435 "/>
<text text-anchor="middle" x="31" y="-423" font-family="Helvetica,sans-Serif" font-size="10.00"> </text>
<polyline fill="none" stroke="red" points="0,-416 62,-416 "/>
<text text-anchor="middle" x="31" y="-404" font-family="Helvetica,sans-Serif" font-size="10.00"> </text>
</a>
</g>
</g>
<!-- Node2&#45;&gt;Node1 -->
<g id="edge1" class="edge">
<title>Node2&#45;&gt;Node1</title>
<path fill="none" stroke="midnightblue" d="M27.6,-386.51C25.21,-336.99 28.23,-249.98 71,-193 117.8,-130.65 204.18,-97.81 263.33,-81.82"/>
<polygon fill="none" stroke="midnightblue" points="24.12,-387 28.2,-396.78 31.11,-386.6 24.12,-387"/>
</g>
<!-- Node5 -->
<g id="node3" class="node">
<title>Node5</title>
<g id="a_node3"><a xlink:title=" ">
<polygon fill="white" stroke="red" points="80,-386 80,-465 232,-465 232,-386 80,-386"/>
<text text-anchor="start" x="88" y="-453" font-family="Helvetica,sans-Serif" font-size="10.00">map&lt; string, map&lt; GTime,</text>
<text text-anchor="start" x="88" y="-442" font-family="Helvetica,sans-Serif" font-size="10.00"> Vector3d, std::greater</text>
<text text-anchor="middle" x="156" y="-431" font-family="Helvetica,sans-Serif" font-size="10.00">&lt; GTime &gt; &gt; &gt;</text>
<polyline fill="none" stroke="red" points="80,-424 232,-424 "/>
<text text-anchor="middle" x="156" y="-412" font-family="Helvetica,sans-Serif" font-size="10.00"> </text>
<polyline fill="none" stroke="red" points="80,-405 232,-405 "/>
<text text-anchor="middle" x="156" y="-393" font-family="Helvetica,sans-Serif" font-size="10.00"> </text>
</a>
</g>
</g>
<!-- Node5&#45;&gt;Node1 -->
<g id="edge2" class="edge">
<title>Node5&#45;&gt;Node1</title>
<path fill="none" stroke="#404040" d="M162.07,-385.64C171.96,-330.62 195.23,-228.35 241,-153 245.21,-146.07 250.11,-139.29 255.39,-132.78"/>
<polygon fill="none" stroke="#404040" points="255.57,-132.57 256.42,-125.41 263.36,-123.44 262.5,-130.6 255.57,-132.57"/>
<text text-anchor="middle" x="281.5" y="-167" font-family="Helvetica,sans-Serif" font-size="10.00"> +acclDataMaps</text>
<text text-anchor="middle" x="281.5" y="-156" font-family="Helvetica,sans-Serif" font-size="10.00">+gyroDataMaps</text>
</g>
<!-- Node7 -->
<g id="node4" class="node">
<title>Node7</title>
<g id="a_node4"><a xlink:title=" ">
<polygon fill="white" stroke="red" points="250,-386 250,-465 402,-465 402,-386 250,-386"/>
<text text-anchor="start" x="258" y="-453" font-family="Helvetica,sans-Serif" font-size="10.00">map&lt; string, map&lt; GTime,</text>
<text text-anchor="start" x="258" y="-442" font-family="Helvetica,sans-Serif" font-size="10.00"> double, std::greater</text>
<text text-anchor="middle" x="326" y="-431" font-family="Helvetica,sans-Serif" font-size="10.00">&lt; GTime &gt; &gt; &gt;</text>
<polyline fill="none" stroke="red" points="250,-424 402,-424 "/>
<text text-anchor="middle" x="326" y="-412" font-family="Helvetica,sans-Serif" font-size="10.00"> </text>
<polyline fill="none" stroke="red" points="250,-405 402,-405 "/>
<text text-anchor="middle" x="326" y="-393" font-family="Helvetica,sans-Serif" font-size="10.00"> </text>
</a>
</g>
</g>
<!-- Node7&#45;&gt;Node1 -->
<g id="edge3" class="edge">
<title>Node7&#45;&gt;Node1</title>
<path fill="none" stroke="#404040" d="M326,-385.72C326,-328.62 326,-220.7 326,-146.73"/>
<polygon fill="none" stroke="#404040" points="326,-146.71 322,-140.71 326,-134.71 330,-140.71 326,-146.71"/>
<text text-anchor="middle" x="369.5" y="-161.5" font-family="Helvetica,sans-Serif" font-size="10.00"> +tempDataMaps</text>
</g>
<!-- Node8 -->
<g id="node5" class="node">
<title>Node8</title>
<g id="a_node5"><a xlink:href="structGTime.html" target="_top" xlink:title="Time structure used throughout this software.">
<polygon fill="white" stroke="black" points="420.5,-193.5 420.5,-657.5 557.5,-657.5 557.5,-193.5 420.5,-193.5"/>
<text text-anchor="middle" x="489" y="-645.5" font-family="Helvetica,sans-Serif" font-size="10.00">GTime</text>
<polyline fill="none" stroke="black" points="420.5,-638.5 557.5,-638.5 "/>
<text text-anchor="start" x="428.5" y="-626.5" font-family="Helvetica,sans-Serif" font-size="10.00">+ bigTime</text>
<polyline fill="none" stroke="black" points="420.5,-619.5 557.5,-619.5 "/>
<text text-anchor="start" x="428.5" y="-607.5" font-family="Helvetica,sans-Serif" font-size="10.00">+ GTime()</text>
<text text-anchor="start" x="428.5" y="-596.5" font-family="Helvetica,sans-Serif" font-size="10.00">+ GTime()</text>
<text text-anchor="start" x="428.5" y="-585.5" font-family="Helvetica,sans-Serif" font-size="10.00">+ GTime()</text>
<text text-anchor="start" x="428.5" y="-574.5" font-family="Helvetica,sans-Serif" font-size="10.00">+ to_string()</text>
<text text-anchor="start" x="428.5" y="-563.5" font-family="Helvetica,sans-Serif" font-size="10.00">+ operator==()</text>
<text text-anchor="start" x="428.5" y="-552.5" font-family="Helvetica,sans-Serif" font-size="10.00">+ operator!=()</text>
<text text-anchor="start" x="428.5" y="-541.5" font-family="Helvetica,sans-Serif" font-size="10.00">+ operator&lt;()</text>
<text text-anchor="start" x="428.5" y="-530.5" font-family="Helvetica,sans-Serif" font-size="10.00">+ operator&gt;()</text>
<text text-anchor="start" x="428.5" y="-519.5" font-family="Helvetica,sans-Serif" font-size="10.00">+ operator&gt;=()</text>
<text text-anchor="start" x="428.5" y="-508.5" font-family="Helvetica,sans-Serif" font-size="10.00">+ operator+()</text>
<text text-anchor="start" x="428.5" y="-497.5" font-family="Helvetica,sans-Serif" font-size="10.00">+ operator+()</text>
<text text-anchor="start" x="428.5" y="-486.5" font-family="Helvetica,sans-Serif" font-size="10.00">+ operator+()</text>
<text text-anchor="start" x="428.5" y="-475.5" font-family="Helvetica,sans-Serif" font-size="10.00">+ operator+=()</text>
<text text-anchor="start" x="428.5" y="-464.5" font-family="Helvetica,sans-Serif" font-size="10.00">+ operator&#45;=()</text>
<text text-anchor="start" x="428.5" y="-453.5" font-family="Helvetica,sans-Serif" font-size="10.00">+ operator&#45;()</text>
<text text-anchor="start" x="428.5" y="-442.5" font-family="Helvetica,sans-Serif" font-size="10.00">+ operator&#45;()</text>
<text text-anchor="start" x="428.5" y="-431.5" font-family="Helvetica,sans-Serif" font-size="10.00">+ operator&#45;()</text>
<text text-anchor="start" x="428.5" y="-420.5" font-family="Helvetica,sans-Serif" font-size="10.00">+ operator++()</text>
<text text-anchor="start" x="428.5" y="-409.5" font-family="Helvetica,sans-Serif" font-size="10.00">+ GTime()</text>
<text text-anchor="start" x="428.5" y="-398.5" font-family="Helvetica,sans-Serif" font-size="10.00">+ GTime()</text>
<text text-anchor="start" x="428.5" y="-387.5" font-family="Helvetica,sans-Serif" font-size="10.00">+ GTime()</text>
<text text-anchor="start" x="428.5" y="-376.5" font-family="Helvetica,sans-Serif" font-size="10.00">+ GTime()</text>
<text text-anchor="start" x="428.5" y="-365.5" font-family="Helvetica,sans-Serif" font-size="10.00">+ GTime()</text>
<text text-anchor="start" x="428.5" y="-354.5" font-family="Helvetica,sans-Serif" font-size="10.00">+ serialize()</text>
<text text-anchor="start" x="428.5" y="-343.5" font-family="Helvetica,sans-Serif" font-size="10.00">+ floorTime()</text>
<text text-anchor="start" x="428.5" y="-332.5" font-family="Helvetica,sans-Serif" font-size="10.00">+ gregString()</text>
<text text-anchor="start" x="428.5" y="-321.5" font-family="Helvetica,sans-Serif" font-size="10.00">+ operator long double()</text>
<text text-anchor="start" x="428.5" y="-310.5" font-family="Helvetica,sans-Serif" font-size="10.00">+ operator MjDateTT()</text>
<text text-anchor="start" x="428.5" y="-299.5" font-family="Helvetica,sans-Serif" font-size="10.00">+ operator GEpoch()</text>
<text text-anchor="start" x="428.5" y="-288.5" font-family="Helvetica,sans-Serif" font-size="10.00">+ operator UtcTime()</text>
<text text-anchor="start" x="428.5" y="-277.5" font-family="Helvetica,sans-Serif" font-size="10.00">+ operator GWeek()</text>
<text text-anchor="start" x="428.5" y="-266.5" font-family="Helvetica,sans-Serif" font-size="10.00">+ operator BWeek()</text>
<text text-anchor="start" x="428.5" y="-255.5" font-family="Helvetica,sans-Serif" font-size="10.00">+ operator GTow()</text>
<text text-anchor="start" x="428.5" y="-244.5" font-family="Helvetica,sans-Serif" font-size="10.00">+ operator BTow()</text>
<text text-anchor="start" x="428.5" y="-233.5" font-family="Helvetica,sans-Serif" font-size="10.00">+ operator PTime()</text>
<text text-anchor="start" x="428.5" y="-222.5" font-family="Helvetica,sans-Serif" font-size="10.00">+ operator string()</text>
<text text-anchor="start" x="428.5" y="-211.5" font-family="Helvetica,sans-Serif" font-size="10.00">+ operator RTod()</text>
<text text-anchor="start" x="428.5" y="-200.5" font-family="Helvetica,sans-Serif" font-size="10.00">+ noTime()</text>
</a>
</g>
</g>
<!-- Node8&#45;&gt;Node1 -->
<g id="edge4" class="edge">
<title>Node8&#45;&gt;Node1</title>
<path fill="none" stroke="#404040" d="M437.65,-193.32C431.51,-179.32 424.66,-165.75 417,-153 411.46,-143.77 404.61,-134.93 397.19,-126.67"/>
<polygon fill="none" stroke="#404040" points="397.18,-126.66 390.16,-125.05 388.94,-117.95 395.97,-119.56 397.18,-126.66"/>
<text text-anchor="middle" x="454.5" y="-161.5" font-family="Helvetica,sans-Serif" font-size="10.00"> +lastTime</text>
</g>
<!-- Node9 -->
<g id="node6" class="node">
<title>Node9</title>
<g id="a_node6"><a xlink:title=" ">
<polygon fill="white" stroke="black" points="576,-397 576,-454 620,-454 620,-397 576,-397"/>
<text text-anchor="middle" x="598" y="-442" font-family="Helvetica,sans-Serif" font-size="10.00">string</text>
<polyline fill="none" stroke="black" points="576,-435 620,-435 "/>
<text text-anchor="middle" x="598" y="-423" font-family="Helvetica,sans-Serif" font-size="10.00"> </text>
<polyline fill="none" stroke="black" points="576,-416 620,-416 "/>
<text text-anchor="middle" x="598" y="-404" font-family="Helvetica,sans-Serif" font-size="10.00"> </text>
</a>
</g>
</g>
<!-- Node9&#45;&gt;Node1 -->
<g id="edge5" class="edge">
<title>Node9&#45;&gt;Node1</title>
<path fill="none" stroke="#404040" d="M601.93,-397C607.06,-350.45 610.78,-255.16 567,-193 527.64,-137.1 455.42,-104.56 400.26,-86.87"/>
<polygon fill="none" stroke="#404040" points="400.23,-86.86 393.32,-88.91 388.77,-83.31 395.68,-81.27 400.23,-86.86"/>
<text text-anchor="middle" x="607.5" y="-167" font-family="Helvetica,sans-Serif" font-size="10.00"> +raw_custom_filename</text>
<text text-anchor="middle" x="607.5" y="-156" font-family="Helvetica,sans-Serif" font-size="10.00">+recId</text>
</g>
</g>
</svg>
