<?xml version="1.0" encoding="UTF-8" standalone="no"?>
<!DOCTYPE svg PUBLIC "-//W3C//DTD SVG 1.1//EN"
 "http://www.w3.org/Graphics/SVG/1.1/DTD/svg11.dtd">
<!-- Generated by graphviz version 2.43.0 (0)
 -->
<!-- Title: FileSp3Stream::parse Pages: 1 -->
<svg width="297pt" height="66pt"
 viewBox="0.00 0.00 297.00 66.00" xmlns="http://www.w3.org/2000/svg" xmlns:xlink="http://www.w3.org/1999/xlink">
<g id="graph0" class="graph" transform="scale(1 1) rotate(0) translate(4 62)">
<title>FileSp3Stream::parse</title>
<polygon fill="white" stroke="transparent" points="-4,4 -4,-62 293,-62 293,4 -4,4"/>
<!-- Node1 -->
<g id="node1" class="node">
<title>Node1</title>
<g id="a_node1"><a xlink:title=" ">
<polygon fill="#bfbfbf" stroke="black" points="0,-19.5 0,-38.5 119,-38.5 119,-19.5 0,-19.5"/>
<text text-anchor="middle" x="59.5" y="-26.5" font-family="Helvetica,sans-Serif" font-size="10.00">FileSp3Stream::parse</text>
</a>
</g>
</g>
<!-- Node2 -->
<g id="node2" class="node">
<title>Node2</title>
<g id="a_node2"><a xlink:href="structACSFileStream.html#a58b8f25aa5bcdb840d16acf3f2d8ff8c" target="_top" xlink:title=" ">
<polygon fill="white" stroke="black" points="155,-38.5 155,-57.5 289,-57.5 289,-38.5 155,-38.5"/>
<text text-anchor="middle" x="222" y="-45.5" font-family="Helvetica,sans-Serif" font-size="10.00">ACSFileStream::openFile</text>
</a>
</g>
</g>
<!-- Node1&#45;&gt;Node2 -->
<g id="edge1" class="edge">
<title>Node1&#45;&gt;Node2</title>
<path fill="none" stroke="midnightblue" d="M119.35,-35.97C130.89,-37.33 143.07,-38.77 154.83,-40.17"/>
</g>
<!-- Node3 -->
<g id="node3" class="node">
<title>Node3</title>
<g id="a_node3"><a xlink:href="structSP3Stream.html#a9cb52c380fbf42789ccdc2f3bfa7770e" target="_top" xlink:title=" ">
<polygon fill="white" stroke="red" points="161.5,-0.5 161.5,-19.5 282.5,-19.5 282.5,-0.5 161.5,-0.5"/>
<text text-anchor="middle" x="222" y="-7.5" font-family="Helvetica,sans-Serif" font-size="10.00">SP3Stream::parseSP3</text>
</a>
</g>
</g>
<!-- Node1&#45;&gt;Node3 -->
<g id="edge2" class="edge">
<title>Node1&#45;&gt;Node3</title>
<path fill="none" stroke="midnightblue" d="M119.35,-22.03C133.04,-20.41 147.63,-18.69 161.35,-17.06"/>
</g>
</g>
</svg>
