<?xml version="1.0" encoding="UTF-8" standalone="no"?>
<!DOCTYPE svg PUBLIC "-//W3C//DTD SVG 1.1//EN"
 "http://www.w3.org/Graphics/SVG/1.1/DTD/svg11.dtd">
<!-- Generated by graphviz version 2.43.0 (0)
 -->
<!-- Title: Sp3Parser Pages: 1 -->
<svg width="288pt" height="215pt"
 viewBox="0.00 0.00 288.00 215.00" xmlns="http://www.w3.org/2000/svg" xmlns:xlink="http://www.w3.org/1999/xlink">
<g id="graph0" class="graph" transform="scale(1 1) rotate(0) translate(4 211)">
<title>Sp3Parser</title>
<polygon fill="white" stroke="transparent" points="-4,4 -4,-211 284,-211 284,4 -4,4"/>
<!-- Node1 -->
<g id="node1" class="node">
<title>Node1</title>
<g id="a_node1"><a xlink:title=" ">
<polygon fill="#bfbfbf" stroke="black" points="93,-0.5 93,-79.5 182,-79.5 182,-0.5 93,-0.5"/>
<text text-anchor="middle" x="137.5" y="-67.5" font-family="Helvetica,sans-Serif" font-size="10.00">Sp3Parser</text>
<polyline fill="none" stroke="black" points="93,-60.5 182,-60.5 "/>
<text text-anchor="start" x="101" y="-48.5" font-family="Helvetica,sans-Serif" font-size="10.00">+ tsys</text>
<text text-anchor="start" x="101" y="-37.5" font-family="Helvetica,sans-Serif" font-size="10.00">+ bfact</text>
<polyline fill="none" stroke="black" points="93,-30.5 182,-30.5 "/>
<text text-anchor="start" x="101" y="-18.5" font-family="Helvetica,sans-Serif" font-size="10.00">+ parse()</text>
<text text-anchor="start" x="101" y="-7.5" font-family="Helvetica,sans-Serif" font-size="10.00">+ parserType()</text>
</a>
</g>
</g>
<!-- Node2 -->
<g id="node2" class="node">
<title>Node2</title>
<g id="a_node2"><a xlink:href="structParser.html" target="_top" xlink:title=" ">
<polygon fill="white" stroke="black" points="0,-127.5 0,-206.5 89,-206.5 89,-127.5 0,-127.5"/>
<text text-anchor="middle" x="44.5" y="-194.5" font-family="Helvetica,sans-Serif" font-size="10.00">Parser</text>
<polyline fill="none" stroke="black" points="0,-187.5 89,-187.5 "/>
<text text-anchor="middle" x="44.5" y="-175.5" font-family="Helvetica,sans-Serif" font-size="10.00"> </text>
<polyline fill="none" stroke="black" points="0,-168.5 89,-168.5 "/>
<text text-anchor="start" x="8" y="-156.5" font-family="Helvetica,sans-Serif" font-size="10.00">+ parse()</text>
<text text-anchor="start" x="8" y="-145.5" font-family="Helvetica,sans-Serif" font-size="10.00">+ parserType()</text>
<text text-anchor="start" x="8" y="-134.5" font-family="Helvetica,sans-Serif" font-size="10.00">+ ~Parser()</text>
</a>
</g>
</g>
<!-- Node2&#45;&gt;Node1 -->
<g id="edge1" class="edge">
<title>Node2&#45;&gt;Node1</title>
<path fill="none" stroke="midnightblue" d="M73.16,-127.48C84.48,-112.27 97.45,-94.83 108.77,-79.61"/>
</g>
<!-- Node3 -->
<g id="node3" class="node">
<title>Node3</title>
<g id="a_node3"><a xlink:href="structObsLister.html" target="_top" xlink:title=" ">
<polygon fill="white" stroke="red" points="106.5,-138.5 106.5,-195.5 168.5,-195.5 168.5,-138.5 106.5,-138.5"/>
<text text-anchor="middle" x="137.5" y="-183.5" font-family="Helvetica,sans-Serif" font-size="10.00">ObsLister</text>
<polyline fill="none" stroke="red" points="106.5,-176.5 168.5,-176.5 "/>
<text text-anchor="middle" x="137.5" y="-164.5" font-family="Helvetica,sans-Serif" font-size="10.00"> </text>
<polyline fill="none" stroke="red" points="106.5,-157.5 168.5,-157.5 "/>
<text text-anchor="middle" x="137.5" y="-145.5" font-family="Helvetica,sans-Serif" font-size="10.00"> </text>
</a>
</g>
</g>
<!-- Node3&#45;&gt;Node1 -->
<g id="edge2" class="edge">
<title>Node3&#45;&gt;Node1</title>
<path fill="none" stroke="midnightblue" d="M137.5,-138.26C137.5,-121 137.5,-98.55 137.5,-79.57"/>
</g>
<!-- Node6 -->
<g id="node4" class="node">
<title>Node6</title>
<g id="a_node4"><a xlink:href="structObsList.html" target="_top" xlink:title="List of observations for an epoch.">
<polygon fill="white" stroke="red" points="187,-138.5 187,-195.5 280,-195.5 280,-138.5 187,-138.5"/>
<text text-anchor="middle" x="233.5" y="-183.5" font-family="Helvetica,sans-Serif" font-size="10.00">ObsList</text>
<polyline fill="none" stroke="red" points="187,-176.5 280,-176.5 "/>
<text text-anchor="middle" x="233.5" y="-164.5" font-family="Helvetica,sans-Serif" font-size="10.00"> </text>
<polyline fill="none" stroke="red" points="187,-157.5 280,-157.5 "/>
<text text-anchor="start" x="195" y="-145.5" font-family="Helvetica,sans-Serif" font-size="10.00">+ operator+=()</text>
</a>
</g>
</g>
<!-- Node6&#45;&gt;Node1 -->
<g id="edge3" class="edge">
<title>Node6&#45;&gt;Node1</title>
<path fill="none" stroke="#404040" d="M212.19,-138.26C198.94,-121 181.7,-98.55 167.12,-79.57"/>
<text text-anchor="middle" x="224" y="-101" font-family="Helvetica,sans-Serif" font-size="10.00"> +tempObsList</text>
</g>
</g>
</svg>
