<?xml version="1.0" encoding="UTF-8" standalone="no"?>
<!DOCTYPE svg PUBLIC "-//W3C//DTD SVG 1.1//EN"
 "http://www.w3.org/Graphics/SVG/1.1/DTD/svg11.dtd">
<!-- Generated by graphviz version 2.43.0 (0)
 -->
<!-- Title: UbxDecoder::decodeEphFrames Pages: 1 -->
<svg width="395pt" height="66pt"
 viewBox="0.00 0.00 395.00 66.00" xmlns="http://www.w3.org/2000/svg" xmlns:xlink="http://www.w3.org/1999/xlink">
<g id="graph0" class="graph" transform="scale(1 1) rotate(0) translate(4 62)">
<title>UbxDecoder::decodeEphFrames</title>
<polygon fill="white" stroke="transparent" points="-4,4 -4,-62 391,-62 391,4 -4,4"/>
<!-- Node1 -->
<g id="node1" class="node">
<title>Node1</title>
<g id="a_node1"><a xlink:title=" ">
<polygon fill="#bfbfbf" stroke="black" points="0,-19.5 0,-38.5 172,-38.5 172,-19.5 0,-19.5"/>
<text text-anchor="middle" x="86" y="-26.5" font-family="Helvetica,sans-Serif" font-size="10.00">UbxDecoder::decodeEphFrames</text>
</a>
</g>
</g>
<!-- Node2 -->
<g id="node2" class="node">
<title>Node2</title>
<g id="a_node2"><a xlink:href="structIcdDecoder.html#afb7c938f9952f314e4959e98d1077682" target="_top" xlink:title=" ">
<polygon fill="white" stroke="red" points="208,-38.5 208,-57.5 387,-57.5 387,-38.5 208,-38.5"/>
<text text-anchor="middle" x="297.5" y="-45.5" font-family="Helvetica,sans-Serif" font-size="10.00">IcdDecoder::decodeGpsSubframe</text>
</a>
</g>
</g>
<!-- Node1&#45;&gt;Node2 -->
<g id="edge1" class="edge">
<title>Node1&#45;&gt;Node2</title>
<path fill="none" stroke="midnightblue" d="M172.21,-36.73C180.68,-37.5 189.32,-38.28 197.91,-39.06"/>
<polygon fill="midnightblue" stroke="midnightblue" points="197.68,-42.55 207.96,-39.97 198.31,-35.58 197.68,-42.55"/>
</g>
<!-- Node11 -->
<g id="node3" class="node">
<title>Node11</title>
<g id="a_node3"><a xlink:href="rtcmTrace_8cpp.html#a6dc806eda86f39bd2d8348c20171456d" target="_top" xlink:title=" ">
<polygon fill="white" stroke="red" points="244.5,-0.5 244.5,-19.5 350.5,-19.5 350.5,-0.5 244.5,-0.5"/>
<text text-anchor="middle" x="297.5" y="-7.5" font-family="Helvetica,sans-Serif" font-size="10.00">traceBrdcEphBody</text>
</a>
</g>
</g>
<!-- Node1&#45;&gt;Node11 -->
<g id="edge2" class="edge">
<title>Node1&#45;&gt;Node11</title>
<path fill="none" stroke="midnightblue" d="M172.21,-21.27C193.05,-19.38 214.96,-17.4 234.47,-15.63"/>
<polygon fill="midnightblue" stroke="midnightblue" points="234.8,-19.11 244.44,-14.72 234.17,-12.14 234.8,-19.11"/>
</g>
</g>
</svg>
