<?xml version="1.0" encoding="UTF-8" standalone="no"?>
<!DOCTYPE svg PUBLIC "-//W3C//DTD SVG 1.1//EN"
 "http://www.w3.org/Graphics/SVG/1.1/DTD/svg11.dtd">
<!-- Generated by graphviz version 2.43.0 (0)
 -->
<!-- Title: KFState::initFilterEpoch Pages: 1 -->
<svg width="485pt" height="253pt"
 viewBox="0.00 0.00 485.00 252.79" xmlns="http://www.w3.org/2000/svg" xmlns:xlink="http://www.w3.org/1999/xlink">
<g id="graph0" class="graph" transform="scale(1 1) rotate(0) translate(4 248.79)">
<title>KFState::initFilterEpoch</title>
<polygon fill="white" stroke="transparent" points="-4,4 -4,-248.79 481,-248.79 481,4 -4,4"/>
<!-- Node1 -->
<g id="node1" class="node">
<title>Node1</title>
<g id="a_node1"><a xlink:title="Clears and initialises the state transition matrix to identity at the beginning of an epoch.">
<polygon fill="#bfbfbf" stroke="black" points="347,-134.43 347,-153.43 477,-153.43 477,-134.43 347,-134.43"/>
<text text-anchor="middle" x="412" y="-141.43" font-family="Helvetica,sans-Serif" font-size="10.00">KFState::initFilterEpoch</text>
</a>
</g>
</g>
<!-- Node2 -->
<g id="node2" class="node">
<title>Node2</title>
<g id="a_node2"><a xlink:href="GinARWLamb_8cpp.html#ab95d4f2ff0f6e0d2b92d4d4d14f7f787" target="_top" xlink:title="Update WL filter.">
<polygon fill="white" stroke="red" points="13,-115.43 13,-134.43 91,-134.43 91,-115.43 13,-115.43"/>
<text text-anchor="middle" x="52" y="-122.43" font-family="Helvetica,sans-Serif" font-size="10.00">updat_WLfilt</text>
</a>
</g>
</g>
<!-- Node1&#45;&gt;Node2 -->
<g id="edge1" class="edge">
<title>Node1&#45;&gt;Node2</title>
<path fill="none" stroke="midnightblue" d="M402.57,-153.57C386.71,-170.87 350.47,-206.64 311,-219.93 238.98,-244.19 204.22,-260.57 140,-219.93 108.42,-199.95 131.54,-169.2 104,-143.93 99.82,-140.1 94.8,-137.02 89.56,-134.55"/>
</g>
<!-- Node9 -->
<g id="node3" class="node">
<title>Node9</title>
<g id="a_node3"><a xlink:href="GinARWLamb_8cpp.html#a6cfe77e4642a57d54c9204244cd403a0" target="_top" xlink:title="Resolve wide&#45;lane ambiguities.">
<polygon fill="white" stroke="red" points="7.5,-153.43 7.5,-172.43 96.5,-172.43 96.5,-153.43 7.5,-153.43"/>
<text text-anchor="middle" x="52" y="-160.43" font-family="Helvetica,sans-Serif" font-size="10.00">reslv_WLambg</text>
</a>
</g>
</g>
<!-- Node1&#45;&gt;Node9 -->
<g id="edge2" class="edge">
<title>Node1&#45;&gt;Node9</title>
<path fill="none" stroke="midnightblue" d="M402.57,-153.57C386.71,-170.87 350.47,-206.64 311,-219.93 238.98,-244.19 209.82,-249.96 140,-219.93 118.63,-210.74 123.4,-194.77 104,-181.93 98.33,-178.18 91.81,-175.03 85.37,-172.45"/>
</g>
<!-- Node10 -->
<g id="node4" class="node">
<title>Node10</title>
<g id="a_node4"><a xlink:href="structKFState.html#a7f8e4b9291361c063cef8d9178f07707" target="_top" xlink:title="Add process noise and dynamics to filter object according to time gap.">
<polygon fill="white" stroke="red" points="158.5,-191.43 158.5,-210.43 292.5,-210.43 292.5,-191.43 158.5,-191.43"/>
<text text-anchor="middle" x="225.5" y="-198.43" font-family="Helvetica,sans-Serif" font-size="10.00">KFState::stateTransition</text>
</a>
</g>
</g>
<!-- Node1&#45;&gt;Node10 -->
<g id="edge3" class="edge">
<title>Node1&#45;&gt;Node10</title>
<path fill="none" stroke="midnightblue" d="M388.68,-153.46C368.62,-161.77 338.21,-173.75 311,-181.93 299.34,-185.44 286.59,-188.63 274.62,-191.35"/>
</g>
<!-- Node11 -->
<g id="node5" class="node">
<title>Node11</title>
<g id="a_node5"><a xlink:href="ppp__user_8cpp.html#a36a79c2aba8e8ad20aa9616988ec3269" target="_top" xlink:title=" ">
<polygon fill="white" stroke="red" points="20.5,-77.43 20.5,-96.43 83.5,-96.43 83.5,-77.43 20.5,-77.43"/>
<text text-anchor="middle" x="52" y="-84.43" font-family="Helvetica,sans-Serif" font-size="10.00">ppp_filter</text>
</a>
</g>
</g>
<!-- Node1&#45;&gt;Node11 -->
<g id="edge10" class="edge">
<title>Node1&#45;&gt;Node11</title>
<path fill="none" stroke="midnightblue" d="M390.85,-134.28C371.03,-125.27 339.65,-112.29 311,-105.93 230.32,-88.03 132.34,-86.05 83.6,-86.35"/>
</g>
<!-- Node19 -->
<g id="node6" class="node">
<title>Node19</title>
<g id="a_node6"><a xlink:href="networkEstimator_8cpp.html#a36828506971a6b66c6e61db51197c9e1" target="_top" xlink:title="Estimates parameters for a network of stations simultaneously.">
<polygon fill="white" stroke="red" points="0,-191.43 0,-210.43 104,-210.43 104,-191.43 0,-191.43"/>
<text text-anchor="middle" x="52" y="-198.43" font-family="Helvetica,sans-Serif" font-size="10.00">networkEstimator</text>
</a>
</g>
</g>
<!-- Node1&#45;&gt;Node19 -->
<g id="edge16" class="edge">
<title>Node1&#45;&gt;Node19</title>
<path fill="none" stroke="midnightblue" d="M406.18,-134.13C394.04,-110.75 359.68,-51.99 311,-29.93 241.77,1.43 199.61,17.21 140,-29.93 85.55,-73 149.95,-129.89 104,-181.93 100.56,-185.83 96.24,-188.93 91.59,-191.39"/>
</g>
<!-- Node30 -->
<g id="node7" class="node">
<title>Node30</title>
<g id="a_node7"><a xlink:href="structKFState.html#a35b82ca74c6a6795abf1b6e919a4fec1" target="_top" xlink:title="Add process noise and dynamics to filter object manually.">
<polygon fill="white" stroke="red" points="140,-153.43 140,-172.43 311,-172.43 311,-153.43 140,-153.43"/>
<text text-anchor="middle" x="225.5" y="-160.43" font-family="Helvetica,sans-Serif" font-size="10.00">KFState::manualStateTransition</text>
</a>
</g>
</g>
<!-- Node1&#45;&gt;Node30 -->
<g id="edge8" class="edge">
<title>Node1&#45;&gt;Node30</title>
<path fill="none" stroke="midnightblue" d="M346.99,-150.52C335.44,-151.71 323.23,-152.97 311.2,-154.21"/>
</g>
<!-- Node33 -->
<g id="node8" class="node">
<title>Node33</title>
<g id="a_node8"><a xlink:href="structKFState.html#aa97674fcbd7bfbe3953005548b068cfb" target="_top" xlink:title=" ">
<polygon fill="white" stroke="black" points="176,-115.43 176,-134.43 275,-134.43 275,-115.43 176,-115.43"/>
<text text-anchor="middle" x="225.5" y="-122.43" font-family="Helvetica,sans-Serif" font-size="10.00">KFState::KFState</text>
</a>
</g>
</g>
<!-- Node1&#45;&gt;Node33 -->
<g id="edge9" class="edge">
<title>Node1&#45;&gt;Node33</title>
<path fill="none" stroke="midnightblue" d="M346.99,-137.34C323.47,-134.92 297.23,-132.22 275.27,-129.95"/>
</g>
<!-- Node34 -->
<g id="node9" class="node">
<title>Node34</title>
<g id="a_node9"><a xlink:href="structKFState.html#ae99b9a0b478d94b6cff9ba2328914178" target="_top" xlink:title="Kalman filter operation.">
<polygon fill="white" stroke="red" points="164.5,-39.43 164.5,-58.43 286.5,-58.43 286.5,-39.43 164.5,-39.43"/>
<text text-anchor="middle" x="225.5" y="-46.43" font-family="Helvetica,sans-Serif" font-size="10.00">KFState::filterKalman</text>
</a>
</g>
</g>
<!-- Node1&#45;&gt;Node34 -->
<g id="edge11" class="edge">
<title>Node1&#45;&gt;Node34</title>
<path fill="none" stroke="midnightblue" d="M400.1,-134.26C382.53,-119.14 346.33,-89.87 311,-72.93 298.49,-66.93 284.19,-62.17 270.96,-58.51"/>
</g>
<!-- Node10&#45;&gt;Node2 -->
<g id="edge7" class="edge">
<title>Node10&#45;&gt;Node2</title>
<path fill="none" stroke="midnightblue" d="M161.99,-191.33C154.32,-188.87 146.8,-185.8 140,-181.93 119.77,-170.44 123.4,-156.77 104,-143.93 98.33,-140.18 91.81,-137.03 85.37,-134.45"/>
</g>
<!-- Node10&#45;&gt;Node9 -->
<g id="edge6" class="edge">
<title>Node10&#45;&gt;Node9</title>
<path fill="none" stroke="midnightblue" d="M181.22,-191.34C155.13,-185.56 122.01,-178.22 95.97,-172.45"/>
</g>
<!-- Node10&#45;&gt;Node11 -->
<g id="edge4" class="edge">
<title>Node10&#45;&gt;Node11</title>
<path fill="none" stroke="midnightblue" d="M158.11,-192.28C151.59,-189.64 145.4,-186.25 140,-181.93 110.82,-158.58 131.54,-131.2 104,-105.93 98.29,-100.69 91.01,-96.86 83.74,-94.07"/>
</g>
<!-- Node10&#45;&gt;Node19 -->
<g id="edge5" class="edge">
<title>Node10&#45;&gt;Node19</title>
<path fill="none" stroke="midnightblue" d="M158.19,-200.93C140.28,-200.93 121.18,-200.93 104.24,-200.93"/>
</g>
<!-- Node34&#45;&gt;Node2 -->
<g id="edge13" class="edge">
<title>Node34&#45;&gt;Node2</title>
<path fill="none" stroke="midnightblue" d="M205.53,-58.52C181.98,-70.28 140.46,-90.55 104,-105.93 96.25,-109.2 87.73,-112.49 79.9,-115.4"/>
</g>
<!-- Node34&#45;&gt;Node9 -->
<g id="edge14" class="edge">
<title>Node34&#45;&gt;Node9</title>
<path fill="none" stroke="midnightblue" d="M208.18,-58.46C190.59,-69.05 162.14,-87.17 140,-105.93 122.25,-120.97 123.4,-131.09 104,-143.93 98.33,-147.69 91.81,-150.83 85.37,-153.41"/>
</g>
<!-- Node34&#45;&gt;Node11 -->
<g id="edge15" class="edge">
<title>Node34&#45;&gt;Node11</title>
<path fill="none" stroke="midnightblue" d="M181.22,-58.52C150.76,-65.27 110.73,-74.14 83.56,-80.16"/>
</g>
<!-- Node34&#45;&gt;Node19 -->
<g id="edge12" class="edge">
<title>Node34&#45;&gt;Node19</title>
<path fill="none" stroke="midnightblue" d="M204.49,-58.46C185.79,-68.2 158.11,-84.86 140,-105.93 115.64,-134.28 131.54,-156.66 104,-181.93 99.82,-185.77 94.8,-188.85 89.56,-191.31"/>
</g>
</g>
</svg>
