<?xml version="1.0" encoding="UTF-8" standalone="no"?>
<!DOCTYPE svg PUBLIC "-//W3C//DTD SVG 1.1//EN"
 "http://www.w3.org/Graphics/SVG/1.1/DTD/svg11.dtd">
<!-- Generated by graphviz version 2.43.0 (0)
 -->
<!-- Title: MinimumConstraintOptions Pages: 1 -->
<svg width="159pt" height="325pt"
 viewBox="0.00 0.00 159.00 325.00" xmlns="http://www.w3.org/2000/svg" xmlns:xlink="http://www.w3.org/1999/xlink">
<g id="graph0" class="graph" transform="scale(1 1) rotate(0) translate(4 321)">
<title>MinimumConstraintOptions</title>
<polygon fill="white" stroke="transparent" points="-4,4 -4,-321 155,-321 155,4 -4,4"/>
<!-- Node1 -->
<g id="node1" class="node">
<title>Node1</title>
<g id="a_node1"><a xlink:title="Options associated with the minimum constraints mode of operation.">
<polygon fill="#bfbfbf" stroke="black" points="0,-0.5 0,-145.5 151,-145.5 151,-0.5 0,-0.5"/>
<text text-anchor="middle" x="75.5" y="-133.5" font-family="Helvetica,sans-Serif" font-size="10.00">MinimumConstraintOptions</text>
<polyline fill="none" stroke="black" points="0,-126.5 151,-126.5 "/>
<text text-anchor="start" x="8" y="-114.5" font-family="Helvetica,sans-Serif" font-size="10.00">+ delay</text>
<text text-anchor="start" x="8" y="-103.5" font-family="Helvetica,sans-Serif" font-size="10.00">+ scale</text>
<text text-anchor="start" x="8" y="-92.5" font-family="Helvetica,sans-Serif" font-size="10.00">+ rotation</text>
<text text-anchor="start" x="8" y="-81.5" font-family="Helvetica,sans-Serif" font-size="10.00">+ translation</text>
<text text-anchor="start" x="8" y="-70.5" font-family="Helvetica,sans-Serif" font-size="10.00">+ once_per_epoch</text>
<text text-anchor="start" x="8" y="-59.5" font-family="Helvetica,sans-Serif" font-size="10.00">+ full_vcv</text>
<text text-anchor="start" x="8" y="-48.5" font-family="Helvetica,sans-Serif" font-size="10.00">+ constrain_orbits</text>
<text text-anchor="start" x="8" y="-37.5" font-family="Helvetica,sans-Serif" font-size="10.00">+ transform_unweighted</text>
<text text-anchor="start" x="8" y="-26.5" font-family="Helvetica,sans-Serif" font-size="10.00">+ application_mode</text>
<polyline fill="none" stroke="black" points="0,-19.5 151,-19.5 "/>
<text text-anchor="middle" x="75.5" y="-7.5" font-family="Helvetica,sans-Serif" font-size="10.00"> </text>
</a>
</g>
</g>
<!-- Node2 -->
<g id="node2" class="node">
<title>Node2</title>
<g id="a_node2"><a xlink:href="structFilterOptions.html" target="_top" xlink:title=" ">
<polygon fill="white" stroke="red" points="13,-182.5 13,-316.5 138,-316.5 138,-182.5 13,-182.5"/>
<text text-anchor="middle" x="75.5" y="-304.5" font-family="Helvetica,sans-Serif" font-size="10.00">FilterOptions</text>
<polyline fill="none" stroke="red" points="13,-297.5 138,-297.5 "/>
<text text-anchor="start" x="21" y="-285.5" font-family="Helvetica,sans-Serif" font-size="10.00">+ chi_square_test</text>
<text text-anchor="start" x="21" y="-274.5" font-family="Helvetica,sans-Serif" font-size="10.00">+ chi_square_mode</text>
<text text-anchor="start" x="21" y="-263.5" font-family="Helvetica,sans-Serif" font-size="10.00">+ simulate_filter_only</text>
<text text-anchor="start" x="21" y="-252.5" font-family="Helvetica,sans-Serif" font-size="10.00">+ assume_linearity</text>
<text text-anchor="start" x="21" y="-241.5" font-family="Helvetica,sans-Serif" font-size="10.00">+ joseph_stabilisation</text>
<text text-anchor="start" x="21" y="-230.5" font-family="Helvetica,sans-Serif" font-size="10.00">+ inverter</text>
<text text-anchor="start" x="21" y="-219.5" font-family="Helvetica,sans-Serif" font-size="10.00">+ prefitOpts</text>
<text text-anchor="start" x="21" y="-208.5" font-family="Helvetica,sans-Serif" font-size="10.00">+ postfitOpts</text>
<polyline fill="none" stroke="red" points="13,-201.5 138,-201.5 "/>
<text text-anchor="middle" x="75.5" y="-189.5" font-family="Helvetica,sans-Serif" font-size="10.00"> </text>
</a>
</g>
</g>
<!-- Node2&#45;&gt;Node1 -->
<g id="edge1" class="edge">
<title>Node2&#45;&gt;Node1</title>
<path fill="none" stroke="midnightblue" d="M75.5,-171.84C75.5,-163.09 75.5,-154.2 75.5,-145.51"/>
<polygon fill="none" stroke="midnightblue" points="72,-172.03 75.5,-182.03 79,-172.03 72,-172.03"/>
</g>
</g>
</svg>
