<?xml version="1.0" encoding="UTF-8" standalone="no"?>
<!DOCTYPE svg PUBLIC "-//W3C//DTD SVG 1.1//EN"
 "http://www.w3.org/Graphics/SVG/1.1/DTD/svg11.dtd">
<!-- Generated by graphviz version 2.43.0 (0)
 -->
<!-- Title: MjDateUt1::to_double Pages: 1 -->
<svg width="434pt" height="163pt"
 viewBox="0.00 0.00 434.00 163.34" xmlns="http://www.w3.org/2000/svg" xmlns:xlink="http://www.w3.org/1999/xlink">
<g id="graph0" class="graph" transform="scale(1 1) rotate(0) translate(4 159.34)">
<title>MjDateUt1::to_double</title>
<polygon fill="white" stroke="transparent" points="-4,4 -4,-159.34 430,-159.34 430,4 -4,4"/>
<!-- Node1 -->
<g id="node1" class="node">
<title>Node1</title>
<g id="a_node1"><a xlink:title=" ">
<polygon fill="#bfbfbf" stroke="black" points="303,-76.5 303,-95.5 426,-95.5 426,-76.5 303,-76.5"/>
<text text-anchor="middle" x="364.5" y="-83.5" font-family="Helvetica,sans-Serif" font-size="10.00">MjDateUt1::to_double</text>
</a>
</g>
</g>
<!-- Node2 -->
<g id="node2" class="node">
<title>Node2</title>
<g id="a_node2"><a xlink:href="debug_8cpp.html#a321dc270c343abb0651a7dae8016073f" target="_top" xlink:title=" ">
<polygon fill="white" stroke="black" points="0,-76.5 0,-95.5 99,-95.5 99,-76.5 0,-76.5"/>
<text text-anchor="middle" x="49.5" y="-83.5" font-family="Helvetica,sans-Serif" font-size="10.00">debugTideAtmos</text>
</a>
</g>
</g>
<!-- Node1&#45;&gt;Node2 -->
<g id="edge1" class="edge">
<title>Node1&#45;&gt;Node2</title>
<path fill="none" stroke="midnightblue" d="M344.02,-101.8C325.48,-115.73 296.17,-135.03 267,-143 210.41,-158.47 191.1,-160.15 135,-143 104.54,-133.69 75.14,-109.29 60.37,-95.63"/>
<polygon fill="midnightblue" stroke="midnightblue" points="346.2,-104.53 351.97,-95.65 341.92,-99 346.2,-104.53"/>
</g>
<!-- Node3 -->
<g id="node3" class="node">
<title>Node3</title>
<g id="a_node3"><a xlink:href="debug_8cpp.html#ab1c89bb12579ace0fe0ec45523ed9567" target="_top" xlink:title=" ">
<polygon fill="white" stroke="black" points="155,-114.5 155,-133.5 247,-133.5 247,-114.5 155,-114.5"/>
<text text-anchor="middle" x="201" y="-121.5" font-family="Helvetica,sans-Serif" font-size="10.00">debugTideSolid</text>
</a>
</g>
</g>
<!-- Node1&#45;&gt;Node3 -->
<g id="edge2" class="edge">
<title>Node1&#45;&gt;Node3</title>
<path fill="none" stroke="midnightblue" d="M312.94,-97.9C290.24,-103.24 263.82,-109.45 242.46,-114.48"/>
<polygon fill="midnightblue" stroke="midnightblue" points="313.81,-101.29 322.75,-95.59 312.21,-94.47 313.81,-101.29"/>
</g>
<!-- Node4 -->
<g id="node4" class="node">
<title>Node4</title>
<g id="a_node4"><a xlink:href="tides_8cpp.html#abbc26e24ca76fd096f95e3190906776f" target="_top" xlink:title="Displacement by ocean tide loading &#45; adjustments See ref [1] eq 7.16, [6] Note: This model/function d...">
<polygon fill="white" stroke="red" points="135,-76.5 135,-95.5 267,-95.5 267,-76.5 135,-76.5"/>
<text text-anchor="middle" x="201" y="-83.5" font-family="Helvetica,sans-Serif" font-size="10.00">tideOceanLoadAdjusted</text>
</a>
</g>
</g>
<!-- Node1&#45;&gt;Node4 -->
<g id="edge3" class="edge">
<title>Node1&#45;&gt;Node4</title>
<path fill="none" stroke="midnightblue" d="M292.69,-86C284.23,-86 275.63,-86 267.26,-86"/>
<polygon fill="midnightblue" stroke="midnightblue" points="292.9,-89.5 302.9,-86 292.9,-82.5 292.9,-89.5"/>
</g>
<!-- Node6 -->
<g id="node5" class="node">
<title>Node6</title>
<g id="a_node5"><a xlink:href="tides_8cpp.html#a2065fe1886f09f626d21b1c20bd74c0f" target="_top" xlink:title="Displacement by ocean tide loading See ref [1] 7.1.2, [4].">
<polygon fill="white" stroke="black" points="156.5,-38.5 156.5,-57.5 245.5,-57.5 245.5,-38.5 156.5,-38.5"/>
<text text-anchor="middle" x="201" y="-45.5" font-family="Helvetica,sans-Serif" font-size="10.00">tideOceanLoad</text>
</a>
</g>
</g>
<!-- Node1&#45;&gt;Node6 -->
<g id="edge4" class="edge">
<title>Node1&#45;&gt;Node6</title>
<path fill="none" stroke="midnightblue" d="M312.94,-74.1C290.24,-68.76 263.82,-62.55 242.46,-57.52"/>
<polygon fill="midnightblue" stroke="midnightblue" points="312.21,-77.53 322.75,-76.41 313.81,-70.71 312.21,-77.53"/>
</g>
<!-- Node7 -->
<g id="node6" class="node">
<title>Node7</title>
<g id="a_node6"><a xlink:href="tides_8cpp.html#ab79f881a4ff768109654b49ada75a99c" target="_top" xlink:title="Displacement by atmospheric tide loading See ref [1] 7.1.3.">
<polygon fill="white" stroke="red" points="156,-0.5 156,-19.5 246,-19.5 246,-0.5 156,-0.5"/>
<text text-anchor="middle" x="201" y="-7.5" font-family="Helvetica,sans-Serif" font-size="10.00">tideAtmosLoad</text>
</a>
</g>
</g>
<!-- Node1&#45;&gt;Node7 -->
<g id="edge5" class="edge">
<title>Node1&#45;&gt;Node7</title>
<path fill="none" stroke="midnightblue" d="M341.16,-70.63C322.13,-58.07 293.7,-40.57 267,-29 258.69,-25.4 249.5,-22.25 240.71,-19.6"/>
<polygon fill="midnightblue" stroke="midnightblue" points="339.45,-73.69 349.7,-76.35 343.34,-67.87 339.45,-73.69"/>
</g>
<!-- Node7&#45;&gt;Node2 -->
<g id="edge6" class="edge">
<title>Node7&#45;&gt;Node2</title>
<path fill="none" stroke="midnightblue" d="M150.51,-22.71C145.19,-24.59 139.92,-26.69 135,-29 106.97,-42.16 77.77,-63.96 62.11,-76.44"/>
<polygon fill="midnightblue" stroke="midnightblue" points="151.69,-26.01 160.1,-19.55 149.5,-19.36 151.69,-26.01"/>
</g>
</g>
</svg>
