<?xml version="1.0" encoding="UTF-8" standalone="no"?>
<!DOCTYPE svg PUBLIC "-//W3C//DTD SVG 1.1//EN"
 "http://www.w3.org/Graphics/SVG/1.1/DTD/svg11.dtd">
<!-- Generated by graphviz version 2.43.0 (0)
 -->
<!-- Title: KFState::setKFTrans Pages: 1 -->
<svg width="260pt" height="142pt"
 viewBox="0.00 0.00 260.00 142.00" xmlns="http://www.w3.org/2000/svg" xmlns:xlink="http://www.w3.org/1999/xlink">
<g id="graph0" class="graph" transform="scale(1 1) rotate(0) translate(4 138)">
<title>KFState::setKFTrans</title>
<polygon fill="white" stroke="transparent" points="-4,4 -4,-138 256,-138 256,4 -4,4"/>
<!-- Node1 -->
<g id="node1" class="node">
<title>Node1</title>
<g id="a_node1"><a xlink:title="Adds dynamics to a filter state by inserting off&#45;diagonal, non&#45;time dependent elements to transition ...">
<polygon fill="#bfbfbf" stroke="black" points="137,-57.5 137,-76.5 252,-76.5 252,-57.5 137,-57.5"/>
<text text-anchor="middle" x="194.5" y="-64.5" font-family="Helvetica,sans-Serif" font-size="10.00">KFState::setKFTrans</text>
</a>
</g>
</g>
<!-- Node2 -->
<g id="node2" class="node">
<title>Node2</title>
<g id="a_node2"><a xlink:href="networkEstimator_8cpp.html#ac12f8c95166096d5ea861f0b8213c9a8" target="_top" xlink:title="Check and correct clock jitter/wraparound.">
<polygon fill="white" stroke="red" points="0,-114.5 0,-133.5 101,-133.5 101,-114.5 0,-114.5"/>
<text text-anchor="middle" x="50.5" y="-121.5" font-family="Helvetica,sans-Serif" font-size="10.00">correctRecClocks</text>
</a>
</g>
</g>
<!-- Node1&#45;&gt;Node2 -->
<g id="edge1" class="edge">
<title>Node1&#45;&gt;Node2</title>
<path fill="none" stroke="midnightblue" d="M170.75,-76.52C152.06,-84.3 124.88,-95.51 101,-105 93.13,-108.13 84.52,-111.46 76.73,-114.45"/>
</g>
<!-- Node7 -->
<g id="node3" class="node">
<title>Node7</title>
<g id="a_node3"><a xlink:href="ppp__user_8cpp.html#a36a79c2aba8e8ad20aa9616988ec3269" target="_top" xlink:title=" ">
<polygon fill="white" stroke="red" points="19,-76.5 19,-95.5 82,-95.5 82,-76.5 19,-76.5"/>
<text text-anchor="middle" x="50.5" y="-83.5" font-family="Helvetica,sans-Serif" font-size="10.00">ppp_filter</text>
</a>
</g>
</g>
<!-- Node1&#45;&gt;Node7 -->
<g id="edge2" class="edge">
<title>Node1&#45;&gt;Node7</title>
<path fill="none" stroke="midnightblue" d="M136.97,-74.56C118.25,-77.07 98.14,-79.76 82.12,-81.9"/>
</g>
<!-- Node10 -->
<g id="node4" class="node">
<title>Node10</title>
<g id="a_node4"><a xlink:href="ppppp_8cpp.html#a0544cce952f9b2692ee25b1aa22753c0" target="_top" xlink:title="Prepare receiver clocks using spp values to minimise pre&#45;fit residuals.">
<polygon fill="white" stroke="red" points="0,-38.5 0,-57.5 101,-57.5 101,-38.5 0,-38.5"/>
<text text-anchor="middle" x="50.5" y="-45.5" font-family="Helvetica,sans-Serif" font-size="10.00">updateRecClocks</text>
</a>
</g>
</g>
<!-- Node1&#45;&gt;Node10 -->
<g id="edge3" class="edge">
<title>Node1&#45;&gt;Node10</title>
<path fill="none" stroke="midnightblue" d="M136.97,-59.44C125.21,-57.86 112.91,-56.22 101.41,-54.68"/>
</g>
<!-- Node12 -->
<g id="node5" class="node">
<title>Node12</title>
<g id="a_node5"><a xlink:href="ppppp_8cpp.html#a19dff1e0de1c08404f53580a96be1fb1" target="_top" xlink:title="Prepare Satellite clocks to minimise residuals to broadcast clocks.">
<polygon fill="white" stroke="black" points="0,-0.5 0,-19.5 101,-19.5 101,-0.5 0,-0.5"/>
<text text-anchor="middle" x="50.5" y="-7.5" font-family="Helvetica,sans-Serif" font-size="10.00">updateAvgClocks</text>
</a>
</g>
</g>
<!-- Node1&#45;&gt;Node12 -->
<g id="edge4" class="edge">
<title>Node1&#45;&gt;Node12</title>
<path fill="none" stroke="midnightblue" d="M170.75,-57.48C152.06,-49.7 124.88,-38.49 101,-29 93.13,-25.87 84.52,-22.54 76.73,-19.55"/>
</g>
</g>
</svg>
