<?xml version="1.0" encoding="UTF-8" standalone="no"?>
<!DOCTYPE svg PUBLIC "-//W3C//DTD SVG 1.1//EN"
 "http://www.w3.org/Graphics/SVG/1.1/DTD/svg11.dtd">
<!-- Generated by graphviz version 2.43.0 (0)
 -->
<!-- Title: GObs Pages: 1 -->
<svg width="550pt" height="683pt"
 viewBox="0.00 0.00 550.00 683.00" xmlns="http://www.w3.org/2000/svg" xmlns:xlink="http://www.w3.org/1999/xlink">
<g id="graph0" class="graph" transform="scale(1 1) rotate(0) translate(4 679)">
<title>GObs</title>
<polygon fill="white" stroke="transparent" points="-4,4 -4,-679 546,-679 546,4 -4,4"/>
<!-- Node1 -->
<g id="node1" class="node">
<title>Node1</title>
<g id="a_node1"><a xlink:title="Raw observation data from a receiver.">
<polygon fill="#bfbfbf" stroke="black" points="216,-105.5 216,-184.5 340,-184.5 340,-105.5 216,-105.5"/>
<text text-anchor="middle" x="278" y="-172.5" font-family="Helvetica,sans-Serif" font-size="10.00">GObs</text>
<polyline fill="none" stroke="black" points="216,-165.5 340,-165.5 "/>
<text text-anchor="middle" x="278" y="-153.5" font-family="Helvetica,sans-Serif" font-size="10.00"> </text>
<polyline fill="none" stroke="black" points="216,-146.5 340,-146.5 "/>
<text text-anchor="start" x="224" y="-134.5" font-family="Helvetica,sans-Serif" font-size="10.00">+ operator shared_ptr</text>
<text text-anchor="start" x="224" y="-123.5" font-family="Helvetica,sans-Serif" font-size="10.00">&lt; GObs &gt;()</text>
<text text-anchor="start" x="224" y="-112.5" font-family="Helvetica,sans-Serif" font-size="10.00">+ ~GObs()</text>
</a>
</g>
</g>
<!-- Node2 -->
<g id="node2" class="node">
<title>Node2</title>
<g id="a_node2"><a xlink:href="structObservation.html" target="_top" xlink:title=" ">
<polygon fill="white" stroke="red" points="226.5,-0.5 226.5,-57.5 329.5,-57.5 329.5,-0.5 226.5,-0.5"/>
<text text-anchor="middle" x="278" y="-45.5" font-family="Helvetica,sans-Serif" font-size="10.00">Observation</text>
<polyline fill="none" stroke="red" points="226.5,-38.5 329.5,-38.5 "/>
<text text-anchor="middle" x="278" y="-26.5" font-family="Helvetica,sans-Serif" font-size="10.00"> </text>
<polyline fill="none" stroke="red" points="226.5,-19.5 329.5,-19.5 "/>
<text text-anchor="start" x="234.5" y="-7.5" font-family="Helvetica,sans-Serif" font-size="10.00">+ ~Observation()</text>
</a>
</g>
</g>
<!-- Node1&#45;&gt;Node2 -->
<g id="edge2" class="edge">
<title>Node1&#45;&gt;Node2</title>
<path fill="none" stroke="#404040" d="M278,-105.4C278,-89.77 278,-72.07 278,-57.75"/>
<text text-anchor="middle" x="305.5" y="-79" font-family="Helvetica,sans-Serif" font-size="10.00"> #gObs_ptr</text>
</g>
<!-- Node2&#45;&gt;Node1 -->
<g id="edge1" class="edge">
<title>Node2&#45;&gt;Node1</title>
<path fill="none" stroke="midnightblue" d="M276.6,-57.72C276.35,-63.75 276.13,-70.09 276,-76 275.79,-85.45 275.91,-95.63 276.17,-105.17"/>
</g>
<!-- Node84 -->
<g id="node3" class="node">
<title>Node84</title>
<g id="a_node3"><a xlink:href="structGObsMeta.html" target="_top" xlink:title="Observation metadata and data derived from it.">
<polygon fill="white" stroke="red" points="0,-348 0,-559 116,-559 116,-348 0,-348"/>
<text text-anchor="middle" x="58" y="-547" font-family="Helvetica,sans-Serif" font-size="10.00">GObsMeta</text>
<polyline fill="none" stroke="red" points="0,-540 116,-540 "/>
<text text-anchor="start" x="8" y="-528" font-family="Helvetica,sans-Serif" font-size="10.00">+ rescode_v</text>
<text text-anchor="start" x="8" y="-517" font-family="Helvetica,sans-Serif" font-size="10.00">+ tropSlant</text>
<text text-anchor="start" x="8" y="-506" font-family="Helvetica,sans-Serif" font-size="10.00">+ tropSlantVar</text>
<text text-anchor="start" x="8" y="-495" font-family="Helvetica,sans-Serif" font-size="10.00">+ exclude</text>
<text text-anchor="start" x="8" y="-484" font-family="Helvetica,sans-Serif" font-size="10.00">+ excludeElevation</text>
<text text-anchor="start" x="8" y="-473" font-family="Helvetica,sans-Serif" font-size="10.00">+ excludeEclipse</text>
<text text-anchor="start" x="8" y="-462" font-family="Helvetica,sans-Serif" font-size="10.00">+ excludeSystem</text>
<text text-anchor="start" x="8" y="-451" font-family="Helvetica,sans-Serif" font-size="10.00">+ excludeSlip</text>
<text text-anchor="start" x="8" y="-440" font-family="Helvetica,sans-Serif" font-size="10.00">+ excludeTrop</text>
<text text-anchor="start" x="8" y="-429" font-family="Helvetica,sans-Serif" font-size="10.00">+ excludeOutlier</text>
<text text-anchor="start" x="8" y="-418" font-family="Helvetica,sans-Serif" font-size="10.00">+ excludeBadSPP</text>
<text text-anchor="start" x="8" y="-407" font-family="Helvetica,sans-Serif" font-size="10.00">+ excludeConfig</text>
<text text-anchor="start" x="8" y="-396" font-family="Helvetica,sans-Serif" font-size="10.00">+ excludeSVH</text>
<text text-anchor="start" x="8" y="-385" font-family="Helvetica,sans-Serif" font-size="10.00">+ excludeBadRange</text>
<text text-anchor="start" x="8" y="-374" font-family="Helvetica,sans-Serif" font-size="10.00">+ @23</text>
<polyline fill="none" stroke="red" points="0,-367 116,-367 "/>
<text text-anchor="start" x="8" y="-355" font-family="Helvetica,sans-Serif" font-size="10.00">+ GObsMeta()</text>
</a>
</g>
</g>
<!-- Node84&#45;&gt;Node1 -->
<g id="edge3" class="edge">
<title>Node84&#45;&gt;Node1</title>
<path fill="none" stroke="midnightblue" d="M72.76,-347.88C82.46,-308.34 98.5,-264.98 125,-232 148.38,-202.9 184.42,-181.96 215.65,-168.03"/>
</g>
<!-- Node59 -->
<g id="node4" class="node">
<title>Node59</title>
<g id="a_node4"><a xlink:href="structSatPos.html" target="_top" xlink:title="Satellite position data &#45; for determining and storing satellite positions/clocks.">
<polygon fill="white" stroke="red" points="134,-232.5 134,-674.5 274,-674.5 274,-232.5 134,-232.5"/>
<text text-anchor="middle" x="204" y="-662.5" font-family="Helvetica,sans-Serif" font-size="10.00">SatPos</text>
<polyline fill="none" stroke="red" points="134,-655.5 274,-655.5 "/>
<text text-anchor="start" x="142" y="-643.5" font-family="Helvetica,sans-Serif" font-size="10.00">+ posSource</text>
<text text-anchor="start" x="142" y="-632.5" font-family="Helvetica,sans-Serif" font-size="10.00">+ clkSource</text>
<text text-anchor="start" x="142" y="-621.5" font-family="Helvetica,sans-Serif" font-size="10.00">+ posVar</text>
<text text-anchor="start" x="142" y="-610.5" font-family="Helvetica,sans-Serif" font-size="10.00">+ satClk</text>
<text text-anchor="start" x="142" y="-599.5" font-family="Helvetica,sans-Serif" font-size="10.00">+ satClkVel</text>
<text text-anchor="start" x="142" y="-588.5" font-family="Helvetica,sans-Serif" font-size="10.00">+ satClkVar</text>
<text text-anchor="start" x="142" y="-577.5" font-family="Helvetica,sans-Serif" font-size="10.00">+ iodeClk</text>
<text text-anchor="start" x="142" y="-566.5" font-family="Helvetica,sans-Serif" font-size="10.00">+ iodePos</text>
<text text-anchor="start" x="142" y="-555.5" font-family="Helvetica,sans-Serif" font-size="10.00">+ ephPosValid</text>
<text text-anchor="start" x="142" y="-544.5" font-family="Helvetica,sans-Serif" font-size="10.00">+ ephClkValid</text>
<text text-anchor="start" x="142" y="-533.5" font-family="Helvetica,sans-Serif" font-size="10.00">+ vsat</text>
<text text-anchor="start" x="142" y="-522.5" font-family="Helvetica,sans-Serif" font-size="10.00">+ tof</text>
<text text-anchor="start" x="142" y="-511.5" font-family="Helvetica,sans-Serif" font-size="10.00">+ failure</text>
<text text-anchor="start" x="142" y="-500.5" font-family="Helvetica,sans-Serif" font-size="10.00">+ failureExclude</text>
<text text-anchor="start" x="142" y="-489.5" font-family="Helvetica,sans-Serif" font-size="10.00">+ failureNoSatPos</text>
<text text-anchor="start" x="142" y="-478.5" font-family="Helvetica,sans-Serif" font-size="10.00">+ failureNoSatClock</text>
<text text-anchor="start" x="142" y="-467.5" font-family="Helvetica,sans-Serif" font-size="10.00">+ failureNoPseudorange</text>
<text text-anchor="start" x="142" y="-456.5" font-family="Helvetica,sans-Serif" font-size="10.00">+ failureIodeConsistency</text>
<text text-anchor="start" x="142" y="-445.5" font-family="Helvetica,sans-Serif" font-size="10.00">+ failureBroadcastEph</text>
<text text-anchor="start" x="142" y="-434.5" font-family="Helvetica,sans-Serif" font-size="10.00">+ failureSeleph</text>
<text text-anchor="start" x="142" y="-423.5" font-family="Helvetica,sans-Serif" font-size="10.00">+ failureSSRFail</text>
<text text-anchor="start" x="142" y="-412.5" font-family="Helvetica,sans-Serif" font-size="10.00">+ failureSsrPosEmpty</text>
<text text-anchor="start" x="142" y="-401.5" font-family="Helvetica,sans-Serif" font-size="10.00">+ failureSsrClkEmpty</text>
<text text-anchor="start" x="142" y="-390.5" font-family="Helvetica,sans-Serif" font-size="10.00">+ failureSsrPosTime</text>
<text text-anchor="start" x="142" y="-379.5" font-family="Helvetica,sans-Serif" font-size="10.00">+ failureSsrClkTime</text>
<text text-anchor="start" x="142" y="-368.5" font-family="Helvetica,sans-Serif" font-size="10.00">+ failureSsrPosMag</text>
<text text-anchor="start" x="142" y="-357.5" font-family="Helvetica,sans-Serif" font-size="10.00">+ failureSsrClkMag</text>
<text text-anchor="start" x="142" y="-346.5" font-family="Helvetica,sans-Serif" font-size="10.00">+ failureSsrPosUdi</text>
<text text-anchor="start" x="142" y="-335.5" font-family="Helvetica,sans-Serif" font-size="10.00">+ failureSsrClkUdi</text>
<text text-anchor="start" x="142" y="-324.5" font-family="Helvetica,sans-Serif" font-size="10.00">+ failureGeodist</text>
<text text-anchor="start" x="142" y="-313.5" font-family="Helvetica,sans-Serif" font-size="10.00">+ failureElevation</text>
<text text-anchor="start" x="142" y="-302.5" font-family="Helvetica,sans-Serif" font-size="10.00">+ failureSatexclude</text>
<text text-anchor="start" x="142" y="-291.5" font-family="Helvetica,sans-Serif" font-size="10.00">+ failurePrange</text>
<text text-anchor="start" x="142" y="-280.5" font-family="Helvetica,sans-Serif" font-size="10.00">+ failureIonocorr</text>
<text text-anchor="start" x="142" y="-269.5" font-family="Helvetica,sans-Serif" font-size="10.00">+ failureTropcorr</text>
<text text-anchor="start" x="142" y="-258.5" font-family="Helvetica,sans-Serif" font-size="10.00">+ @27</text>
<polyline fill="none" stroke="red" points="134,-251.5 274,-251.5 "/>
<text text-anchor="start" x="142" y="-239.5" font-family="Helvetica,sans-Serif" font-size="10.00">+ SatPos()</text>
</a>
</g>
</g>
<!-- Node59&#45;&gt;Node1 -->
<g id="edge4" class="edge">
<title>Node59&#45;&gt;Node1</title>
<path fill="none" stroke="midnightblue" d="M257.19,-232.19C261.46,-214.49 265.38,-198.27 268.63,-184.8"/>
</g>
<!-- Node87 -->
<g id="node5" class="node">
<title>Node87</title>
<g id="a_node5"><a xlink:title=" ">
<polygon fill="white" stroke="red" points="292,-425 292,-482 414,-482 414,-425 292,-425"/>
<text text-anchor="middle" x="353" y="-470" font-family="Helvetica,sans-Serif" font-size="10.00">map&lt; E_FType, Sig &gt;</text>
<polyline fill="none" stroke="red" points="292,-463 414,-463 "/>
<text text-anchor="middle" x="353" y="-451" font-family="Helvetica,sans-Serif" font-size="10.00"> </text>
<polyline fill="none" stroke="red" points="292,-444 414,-444 "/>
<text text-anchor="middle" x="353" y="-432" font-family="Helvetica,sans-Serif" font-size="10.00"> </text>
</a>
</g>
</g>
<!-- Node87&#45;&gt;Node1 -->
<g id="edge5" class="edge">
<title>Node87&#45;&gt;Node1</title>
<path fill="none" stroke="#404040" d="M346.21,-424.76C332.78,-369.87 302.79,-247.3 287.44,-184.58"/>
<text text-anchor="middle" x="311" y="-206" font-family="Helvetica,sans-Serif" font-size="10.00"> +Sigs</text>
</g>
<!-- Node88 -->
<g id="node6" class="node">
<title>Node88</title>
<g id="a_node6"><a xlink:title=" ">
<polygon fill="white" stroke="red" points="432,-419.5 432,-487.5 542,-487.5 542,-419.5 432,-419.5"/>
<text text-anchor="start" x="440" y="-475.5" font-family="Helvetica,sans-Serif" font-size="10.00">map&lt; E_FType, list</text>
<text text-anchor="middle" x="487" y="-464.5" font-family="Helvetica,sans-Serif" font-size="10.00">&lt; Sig &gt; &gt;</text>
<polyline fill="none" stroke="red" points="432,-457.5 542,-457.5 "/>
<text text-anchor="middle" x="487" y="-445.5" font-family="Helvetica,sans-Serif" font-size="10.00"> </text>
<polyline fill="none" stroke="red" points="432,-438.5 542,-438.5 "/>
<text text-anchor="middle" x="487" y="-426.5" font-family="Helvetica,sans-Serif" font-size="10.00"> </text>
</a>
</g>
</g>
<!-- Node88&#45;&gt;Node1 -->
<g id="edge6" class="edge">
<title>Node88&#45;&gt;Node1</title>
<path fill="none" stroke="#404040" d="M484.9,-419.19C480.42,-372.79 466.44,-288.1 423,-232 401.76,-204.58 369.12,-184.12 340.18,-170.05"/>
<text text-anchor="middle" x="431.5" y="-206" font-family="Helvetica,sans-Serif" font-size="10.00"> +SigsLists</text>
</g>
</g>
</svg>
