<?xml version="1.0" encoding="UTF-8" standalone="no"?>
<!DOCTYPE svg PUBLIC "-//W3C//DTD SVG 1.1//EN"
 "http://www.w3.org/Graphics/SVG/1.1/DTD/svg11.dtd">
<!-- Generated by graphviz version 2.43.0 (0)
 -->
<!-- Title: SatStat Pages: 1 -->
<svg width="394pt" height="336pt"
 viewBox="0.00 0.00 393.50 336.00" xmlns="http://www.w3.org/2000/svg" xmlns:xlink="http://www.w3.org/1999/xlink">
<g id="graph0" class="graph" transform="scale(1 1) rotate(0) translate(4 332)">
<title>SatStat</title>
<polygon fill="white" stroke="transparent" points="-4,4 -4,-332 389.5,-332 389.5,4 -4,4"/>
<!-- Node1 -->
<g id="node1" class="node">
<title>Node1</title>
<g id="a_node1"><a xlink:title="Object containing persistant status parameters of individual satellites.">
<polygon fill="#bfbfbf" stroke="black" points="110,-0.5 110,-189.5 208,-189.5 208,-0.5 110,-0.5"/>
<text text-anchor="middle" x="159" y="-177.5" font-family="Helvetica,sans-Serif" font-size="10.00">SatStat</text>
<polyline fill="none" stroke="black" points="110,-170.5 208,-170.5 "/>
<text text-anchor="start" x="118" y="-158.5" font-family="Helvetica,sans-Serif" font-size="10.00">+ phw</text>
<text text-anchor="start" x="118" y="-147.5" font-family="Helvetica,sans-Serif" font-size="10.00">+ mapWet</text>
<text text-anchor="start" x="118" y="-136.5" font-family="Helvetica,sans-Serif" font-size="10.00">+ mapWetGrads</text>
<text text-anchor="start" x="118" y="-125.5" font-family="Helvetica,sans-Serif" font-size="10.00">+ dIono</text>
<text text-anchor="start" x="118" y="-114.5" font-family="Helvetica,sans-Serif" font-size="10.00">+ sigmaIono</text>
<text text-anchor="start" x="118" y="-103.5" font-family="Helvetica,sans-Serif" font-size="10.00">+ azel</text>
<text text-anchor="start" x="118" y="-92.5" font-family="Helvetica,sans-Serif" font-size="10.00">+ az</text>
<text text-anchor="start" x="118" y="-81.5" font-family="Helvetica,sans-Serif" font-size="10.00">+ el</text>
<text text-anchor="start" x="118" y="-70.5" font-family="Helvetica,sans-Serif" font-size="10.00">+ @24</text>
<text text-anchor="start" x="118" y="-59.5" font-family="Helvetica,sans-Serif" font-size="10.00">+ nadir</text>
<text text-anchor="start" x="118" y="-48.5" font-family="Helvetica,sans-Serif" font-size="10.00">+ sunDotSat</text>
<text text-anchor="start" x="118" y="-37.5" font-family="Helvetica,sans-Serif" font-size="10.00">+ sunCrossSat</text>
<text text-anchor="start" x="118" y="-26.5" font-family="Helvetica,sans-Serif" font-size="10.00">+ slip</text>
<polyline fill="none" stroke="black" points="110,-19.5 208,-19.5 "/>
<text text-anchor="middle" x="159" y="-7.5" font-family="Helvetica,sans-Serif" font-size="10.00"> </text>
</a>
</g>
</g>
<!-- Node2 -->
<g id="node2" class="node">
<title>Node2</title>
<g id="a_node2"><a xlink:href="structIonoStat.html" target="_top" xlink:title=" ">
<polygon fill="white" stroke="red" points="0,-237.5 0,-327.5 80,-327.5 80,-237.5 0,-237.5"/>
<text text-anchor="middle" x="40" y="-315.5" font-family="Helvetica,sans-Serif" font-size="10.00">IonoStat</text>
<polyline fill="none" stroke="red" points="0,-308.5 80,-308.5 "/>
<text text-anchor="start" x="8" y="-296.5" font-family="Helvetica,sans-Serif" font-size="10.00">+ ambvar</text>
<text text-anchor="start" x="8" y="-285.5" font-family="Helvetica,sans-Serif" font-size="10.00">+ gf_amb</text>
<text text-anchor="start" x="8" y="-274.5" font-family="Helvetica,sans-Serif" font-size="10.00">+ extiono</text>
<text text-anchor="start" x="8" y="-263.5" font-family="Helvetica,sans-Serif" font-size="10.00">+ extionovar</text>
<polyline fill="none" stroke="red" points="0,-256.5 80,-256.5 "/>
<text text-anchor="middle" x="40" y="-244.5" font-family="Helvetica,sans-Serif" font-size="10.00"> </text>
</a>
</g>
</g>
<!-- Node2&#45;&gt;Node1 -->
<g id="edge1" class="edge">
<title>Node2&#45;&gt;Node1</title>
<path fill="none" stroke="midnightblue" d="M68.5,-237.07C80.88,-217.77 95.74,-194.61 109.81,-172.68"/>
</g>
<!-- Node4 -->
<g id="node3" class="node">
<title>Node4</title>
<g id="a_node3"><a xlink:href="structQC.html" target="_top" xlink:title=" ">
<polygon fill="white" stroke="red" points="98,-243 98,-322 148,-322 148,-243 98,-243"/>
<text text-anchor="middle" x="123" y="-310" font-family="Helvetica,sans-Serif" font-size="10.00">QC</text>
<polyline fill="none" stroke="red" points="98,-303 148,-303 "/>
<text text-anchor="start" x="106" y="-291" font-family="Helvetica,sans-Serif" font-size="10.00">+ amb</text>
<text text-anchor="start" x="106" y="-280" font-family="Helvetica,sans-Serif" font-size="10.00">+ mw</text>
<text text-anchor="start" x="106" y="-269" font-family="Helvetica,sans-Serif" font-size="10.00">+ gf</text>
<polyline fill="none" stroke="red" points="98,-262 148,-262 "/>
<text text-anchor="middle" x="123" y="-250" font-family="Helvetica,sans-Serif" font-size="10.00"> </text>
</a>
</g>
</g>
<!-- Node4&#45;&gt;Node1 -->
<g id="edge2" class="edge">
<title>Node4&#45;&gt;Node1</title>
<path fill="none" stroke="midnightblue" d="M130.55,-242.61C133.56,-227.1 137.16,-208.52 140.78,-189.87"/>
</g>
<!-- Node13 -->
<g id="node4" class="node">
<title>Node13</title>
<g id="a_node4"><a xlink:title=" ">
<polygon fill="white" stroke="black" points="166,-254 166,-311 226,-311 226,-254 166,-254"/>
<text text-anchor="middle" x="196" y="-299" font-family="Helvetica,sans-Serif" font-size="10.00">Vector3d</text>
<polyline fill="none" stroke="black" points="166,-292 226,-292 "/>
<text text-anchor="middle" x="196" y="-280" font-family="Helvetica,sans-Serif" font-size="10.00"> </text>
<polyline fill="none" stroke="black" points="166,-273 226,-273 "/>
<text text-anchor="middle" x="196" y="-261" font-family="Helvetica,sans-Serif" font-size="10.00"> </text>
</a>
</g>
</g>
<!-- Node13&#45;&gt;Node1 -->
<g id="edge3" class="edge">
<title>Node13&#45;&gt;Node1</title>
<path fill="none" stroke="#404040" d="M190.46,-253.73C187.01,-236.45 182.36,-213.11 177.69,-189.7"/>
<text text-anchor="middle" x="192" y="-211" font-family="Helvetica,sans-Serif" font-size="10.00"> +e</text>
</g>
<!-- Node14 -->
<g id="node5" class="node">
<title>Node14</title>
<g id="a_node5"><a xlink:title=" ">
<polygon fill="white" stroke="red" points="244.5,-254 244.5,-311 385.5,-311 385.5,-254 244.5,-254"/>
<text text-anchor="middle" x="315" y="-299" font-family="Helvetica,sans-Serif" font-size="10.00">map&lt; E_FType, SigStat &gt;</text>
<polyline fill="none" stroke="red" points="244.5,-292 385.5,-292 "/>
<text text-anchor="middle" x="315" y="-280" font-family="Helvetica,sans-Serif" font-size="10.00"> </text>
<polyline fill="none" stroke="red" points="244.5,-273 385.5,-273 "/>
<text text-anchor="middle" x="315" y="-261" font-family="Helvetica,sans-Serif" font-size="10.00"> </text>
</a>
</g>
</g>
<!-- Node14&#45;&gt;Node1 -->
<g id="edge4" class="edge">
<title>Node14&#45;&gt;Node1</title>
<path fill="none" stroke="#404040" d="M291.65,-253.73C269.63,-227.55 235.95,-187.5 208.03,-154.3"/>
<text text-anchor="middle" x="293.5" y="-211" font-family="Helvetica,sans-Serif" font-size="10.00"> +sigStatMap</text>
</g>
</g>
</svg>
