<?xml version="1.0" encoding="UTF-8" standalone="no"?>
<!DOCTYPE svg PUBLIC "-//W3C//DTD SVG 1.1//EN"
 "http://www.w3.org/Graphics/SVG/1.1/DTD/svg11.dtd">
<!-- Generated by graphviz version 2.43.0 (0)
 -->
<!-- Title: PseudoObsStream Pages: 1 -->
<svg width="133pt" height="248pt"
 viewBox="0.00 0.00 133.00 248.00" xmlns="http://www.w3.org/2000/svg" xmlns:xlink="http://www.w3.org/1999/xlink">
<g id="graph0" class="graph" transform="scale(1 1) rotate(0) translate(4 244)">
<title>PseudoObsStream</title>
<polygon fill="white" stroke="transparent" points="-4,4 -4,-244 129,-244 129,4 -4,4"/>
<!-- Node1 -->
<g id="node1" class="node">
<title>Node1</title>
<g id="a_node1"><a xlink:title="Interface for streams that supply observations.">
<polygon fill="#bfbfbf" stroke="black" points="9.5,-138.5 9.5,-239.5 115.5,-239.5 115.5,-138.5 9.5,-138.5"/>
<text text-anchor="middle" x="62.5" y="-227.5" font-family="Helvetica,sans-Serif" font-size="10.00">PseudoObsStream</text>
<polyline fill="none" stroke="black" points="9.5,-220.5 115.5,-220.5 "/>
<text text-anchor="start" x="17.5" y="-208.5" font-family="Helvetica,sans-Serif" font-size="10.00">+ obsListList</text>
<text text-anchor="start" x="17.5" y="-197.5" font-family="Helvetica,sans-Serif" font-size="10.00">+ sourceString</text>
<polyline fill="none" stroke="black" points="9.5,-190.5 115.5,-190.5 "/>
<text text-anchor="start" x="17.5" y="-178.5" font-family="Helvetica,sans-Serif" font-size="10.00">+ getObs()</text>
<text text-anchor="start" x="17.5" y="-167.5" font-family="Helvetica,sans-Serif" font-size="10.00">+ getObs()</text>
<text text-anchor="start" x="17.5" y="-156.5" font-family="Helvetica,sans-Serif" font-size="10.00">+ isDead()</text>
<text text-anchor="start" x="17.5" y="-145.5" font-family="Helvetica,sans-Serif" font-size="10.00">+ eatObs()</text>
</a>
</g>
</g>
<!-- Node2 -->
<g id="node2" class="node">
<title>Node2</title>
<g id="a_node2"><a xlink:href="structSP3Stream.html" target="_top" xlink:title="Interface for rinex streams.">
<polygon fill="white" stroke="red" points="0,-0.5 0,-101.5 125,-101.5 125,-0.5 0,-0.5"/>
<text text-anchor="middle" x="62.5" y="-89.5" font-family="Helvetica,sans-Serif" font-size="10.00">SP3Stream</text>
<polyline fill="none" stroke="red" points="0,-82.5 125,-82.5 "/>
<text text-anchor="start" x="8" y="-70.5" font-family="Helvetica,sans-Serif" font-size="10.00">+ tempPseudoObsList</text>
<text text-anchor="start" x="8" y="-59.5" font-family="Helvetica,sans-Serif" font-size="10.00">+ isUTC</text>
<text text-anchor="start" x="8" y="-48.5" font-family="Helvetica,sans-Serif" font-size="10.00">+ bfact</text>
<polyline fill="none" stroke="red" points="0,-41.5 125,-41.5 "/>
<text text-anchor="start" x="8" y="-29.5" font-family="Helvetica,sans-Serif" font-size="10.00">+ SP3Stream()</text>
<text text-anchor="start" x="8" y="-18.5" font-family="Helvetica,sans-Serif" font-size="10.00">+ parseSP3()</text>
<text text-anchor="start" x="8" y="-7.5" font-family="Helvetica,sans-Serif" font-size="10.00">+ readSP3Header()</text>
</a>
</g>
</g>
<!-- Node1&#45;&gt;Node2 -->
<g id="edge1" class="edge">
<title>Node1&#45;&gt;Node2</title>
<path fill="none" stroke="midnightblue" d="M62.5,-138.13C62.5,-126.3 62.5,-113.69 62.5,-101.86"/>
</g>
</g>
</svg>
