<?xml version="1.0" encoding="UTF-8" standalone="no"?>
<!DOCTYPE svg PUBLIC "-//W3C//DTD SVG 1.1//EN"
 "http://www.w3.org/Graphics/SVG/1.1/DTD/svg11.dtd">
<!-- Generated by graphviz version 2.43.0 (0)
 -->
<!-- Title: KFState::chiQC Pages: 1 -->
<svg width="282pt" height="127pt"
 viewBox="0.00 0.00 282.00 126.50" xmlns="http://www.w3.org/2000/svg" xmlns:xlink="http://www.w3.org/1999/xlink">
<g id="graph0" class="graph" transform="scale(1 1) rotate(0) translate(4 122.5)">
<title>KFState::chiQC</title>
<polygon fill="white" stroke="transparent" points="-4,4 -4,-122.5 278,-122.5 278,4 -4,4"/>
<!-- Node1 -->
<g id="node1" class="node">
<title>Node1</title>
<g id="a_node1"><a xlink:title="Perform chi squared quality control.">
<polygon fill="#bfbfbf" stroke="black" points="185,-55 185,-74 274,-74 274,-55 185,-55"/>
<text text-anchor="middle" x="229.5" y="-62" font-family="Helvetica,sans-Serif" font-size="10.00">KFState::chiQC</text>
</a>
</g>
</g>
<!-- Node2 -->
<g id="node2" class="node">
<title>Node2</title>
<g id="a_node2"><a xlink:href="structKFState.html#a5ff3b6f3177ec33bdd3e51dbcefa2a9d" target="_top" xlink:title="Perform least squares using the measurements in the KFMeas object.">
<polygon fill="white" stroke="black" points="0,-99 0,-118 149,-118 149,-99 0,-99"/>
<text text-anchor="middle" x="74.5" y="-106" font-family="Helvetica,sans-Serif" font-size="10.00">KFState::filterLeastSquares</text>
</a>
</g>
</g>
<!-- Node1&#45;&gt;Node2 -->
<g id="edge1" class="edge">
<title>Node1&#45;&gt;Node2</title>
<path fill="none" stroke="midnightblue" d="M199.53,-74C184.51,-78.83 165.83,-84.68 149,-89.5 137.72,-92.73 125.4,-96.01 114.13,-98.91"/>
</g>
<!-- Node3 -->
<g id="node3" class="node">
<title>Node3</title>
<g id="a_node3"><a xlink:href="structKFState.html#ae1fc274c403b77dc814ed90763b4dea1" target="_top" xlink:title="Least squares estimator for new kalman filter states.">
<polygon fill="white" stroke="red" points="7.5,-49.5 7.5,-79.5 141.5,-79.5 141.5,-49.5 7.5,-49.5"/>
<text text-anchor="start" x="15.5" y="-67.5" font-family="Helvetica,sans-Serif" font-size="10.00">KFState::leastSquareInit</text>
<text text-anchor="middle" x="74.5" y="-56.5" font-family="Helvetica,sans-Serif" font-size="10.00">States</text>
</a>
</g>
</g>
<!-- Node1&#45;&gt;Node3 -->
<g id="edge2" class="edge">
<title>Node1&#45;&gt;Node3</title>
<path fill="none" stroke="midnightblue" d="M184.66,-64.5C171.23,-64.5 156.16,-64.5 141.6,-64.5"/>
</g>
<!-- Node22 -->
<g id="node4" class="node">
<title>Node22</title>
<g id="a_node4"><a xlink:href="structKFState.html#a56a457141bb1f7f33cd473b008e27e92" target="_top" xlink:title=" ">
<polygon fill="white" stroke="red" points="7.5,-0.5 7.5,-30.5 141.5,-30.5 141.5,-0.5 7.5,-0.5"/>
<text text-anchor="start" x="15.5" y="-18.5" font-family="Helvetica,sans-Serif" font-size="10.00">KFState::leastSquareInit</text>
<text text-anchor="middle" x="74.5" y="-7.5" font-family="Helvetica,sans-Serif" font-size="10.00">StatesA</text>
</a>
</g>
</g>
<!-- Node1&#45;&gt;Node22 -->
<g id="edge3" class="edge">
<title>Node1&#45;&gt;Node22</title>
<path fill="none" stroke="midnightblue" d="M198.64,-54.94C176.98,-48 147.27,-38.48 122.45,-30.54"/>
</g>
</g>
</svg>
