<?xml version="1.0" encoding="UTF-8" standalone="no"?>
<!DOCTYPE svg PUBLIC "-//W3C//DTD SVG 1.1//EN"
 "http://www.w3.org/Graphics/SVG/1.1/DTD/svg11.dtd">
<!-- Generated by graphviz version 2.43.0 (0)
 -->
<!-- Title: KFState::filterKalman Pages: 1 -->
<svg width="433pt" height="320pt"
 viewBox="0.00 0.00 433.00 319.72" xmlns="http://www.w3.org/2000/svg" xmlns:xlink="http://www.w3.org/1999/xlink">
<g id="graph0" class="graph" transform="scale(1 1) rotate(0) translate(4 315.72)">
<title>KFState::filterKalman</title>
<polygon fill="white" stroke="transparent" points="-4,4 -4,-315.72 429,-315.72 429,4 -4,4"/>
<!-- Node1 -->
<g id="node1" class="node">
<title>Node1</title>
<g id="a_node1"><a xlink:title="Kalman filter operation.">
<polygon fill="#bfbfbf" stroke="black" points="305,-152.5 305,-171.5 425,-171.5 425,-152.5 305,-152.5"/>
<text text-anchor="middle" x="365" y="-159.5" font-family="Helvetica,sans-Serif" font-size="10.00">KFState::filterKalman</text>
</a>
</g>
</g>
<!-- Node2 -->
<g id="node2" class="node">
<title>Node2</title>
<g id="a_node2"><a xlink:href="debug_8cpp.html#a80d24c0bf09dad23394c5fcac25aa80b" target="_top" xlink:title=" ">
<polygon fill="white" stroke="black" points="0,-266.5 0,-285.5 83,-285.5 83,-266.5 0,-266.5"/>
<text text-anchor="middle" x="41.5" y="-273.5" font-family="Helvetica,sans-Serif" font-size="10.00">minimumTest</text>
</a>
</g>
</g>
<!-- Node1&#45;&gt;Node2 -->
<g id="edge1" class="edge">
<title>Node1&#45;&gt;Node2</title>
<path fill="none" stroke="midnightblue" d="M356.94,-181.39C344.56,-212.11 315.72,-270.96 269,-295 201.81,-329.58 108.4,-301.79 65.59,-285.6"/>
<polygon fill="midnightblue" stroke="midnightblue" points="360.3,-182.39 360.63,-171.8 353.77,-179.87 360.3,-182.39"/>
</g>
<!-- Node3 -->
<g id="node3" class="node">
<title>Node3</title>
<g id="a_node3"><a xlink:href="debug_8cpp.html#a6b386ae3f1e24bab3a4c831fa043a400" target="_top" xlink:title=" ">
<polygon fill="white" stroke="black" points="159,-266.5 159,-285.5 229,-285.5 229,-266.5 159,-266.5"/>
<text text-anchor="middle" x="194" y="-273.5" font-family="Helvetica,sans-Serif" font-size="10.00">infiniteTest</text>
</a>
</g>
</g>
<!-- Node1&#45;&gt;Node3 -->
<g id="edge2" class="edge">
<title>Node1&#45;&gt;Node3</title>
<path fill="none" stroke="midnightblue" d="M351.11,-179.78C334.53,-201.33 303.72,-237.19 269,-257 256.9,-263.9 242.28,-268.34 229.24,-271.17"/>
<polygon fill="midnightblue" stroke="midnightblue" points="353.91,-181.87 357.12,-171.77 348.32,-177.67 353.91,-181.87"/>
</g>
<!-- Node4 -->
<g id="node4" class="node">
<title>Node4</title>
<g id="a_node4"><a xlink:href="minimumConstraints_8cpp.html#aa40934b017f373d875c3470591eff52e" target="_top" xlink:title=" ">
<polygon fill="white" stroke="red" points="167.5,-228.5 167.5,-247.5 220.5,-247.5 220.5,-228.5 167.5,-228.5"/>
<text text-anchor="middle" x="194" y="-235.5" font-family="Helvetica,sans-Serif" font-size="10.00">mincon</text>
</a>
</g>
</g>
<!-- Node1&#45;&gt;Node4 -->
<g id="edge3" class="edge">
<title>Node1&#45;&gt;Node4</title>
<path fill="none" stroke="midnightblue" d="M342.46,-177.4C323.81,-190.13 295.69,-207.85 269,-219 253.46,-225.5 235.12,-230.22 220.59,-233.34"/>
<polygon fill="midnightblue" stroke="midnightblue" points="344.59,-180.19 350.81,-171.61 340.6,-174.43 344.59,-180.19"/>
</g>
<!-- Node15 -->
<g id="node5" class="node">
<title>Node15</title>
<g id="a_node5"><a xlink:href="ppp__ambres_8cpp.html#ad41d635b049a650ddbe2f7e13d29e85b" target="_top" xlink:title=" ">
<polygon fill="white" stroke="red" points="119,-190.5 119,-209.5 269,-209.5 269,-190.5 119,-190.5"/>
<text text-anchor="middle" x="194" y="-197.5" font-family="Helvetica,sans-Serif" font-size="10.00">applyBestIntegerAmbiguity</text>
</a>
</g>
</g>
<!-- Node1&#45;&gt;Node15 -->
<g id="edge5" class="edge">
<title>Node1&#45;&gt;Node15</title>
<path fill="none" stroke="midnightblue" d="M311.41,-173.82C287.59,-179.18 259.79,-185.43 237.34,-190.48"/>
<polygon fill="midnightblue" stroke="midnightblue" points="312.37,-177.2 321.35,-171.59 310.83,-170.37 312.37,-177.2"/>
</g>
<!-- Node19 -->
<g id="node6" class="node">
<title>Node19</title>
<g id="a_node6"><a xlink:href="walkthrough_8cpp.html#af3e41749378ce9de79e7bdb41df88419" target="_top" xlink:title="Ginan kalman filter basics The basic structure for kalman filtering in ginan is the KFState struct,...">
<polygon fill="white" stroke="red" points="152.5,-152.5 152.5,-171.5 235.5,-171.5 235.5,-152.5 152.5,-152.5"/>
<text text-anchor="middle" x="194" y="-159.5" font-family="Helvetica,sans-Serif" font-size="10.00">walkthrough1</text>
</a>
</g>
</g>
<!-- Node1&#45;&gt;Node19 -->
<g id="edge6" class="edge">
<title>Node1&#45;&gt;Node19</title>
<path fill="none" stroke="midnightblue" d="M294.84,-162C274.76,-162 253.48,-162 235.75,-162"/>
<polygon fill="midnightblue" stroke="midnightblue" points="294.89,-165.5 304.89,-162 294.89,-158.5 294.89,-165.5"/>
</g>
<!-- Node21 -->
<g id="node7" class="node">
<title>Node21</title>
<g id="a_node7"><a xlink:href="walkthrough_8cpp.html#aff7ddc151473d418c066b30f06e6b42e" target="_top" xlink:title=" ">
<polygon fill="white" stroke="red" points="152.5,-114.5 152.5,-133.5 235.5,-133.5 235.5,-114.5 152.5,-114.5"/>
<text text-anchor="middle" x="194" y="-121.5" font-family="Helvetica,sans-Serif" font-size="10.00">walkthrough2</text>
</a>
</g>
</g>
<!-- Node1&#45;&gt;Node21 -->
<g id="edge7" class="edge">
<title>Node1&#45;&gt;Node21</title>
<path fill="none" stroke="midnightblue" d="M311.51,-150.2C287.04,-144.7 258.37,-138.25 235.59,-133.13"/>
<polygon fill="midnightblue" stroke="midnightblue" points="310.83,-153.63 321.35,-152.41 312.37,-146.8 310.83,-153.63"/>
</g>
<!-- Node22 -->
<g id="node8" class="node">
<title>Node22</title>
<g id="a_node8"><a xlink:href="ionoModel_8cpp.html#ae7821a74f98f349d4508712aeced88e1" target="_top" xlink:title="Updating the ionosphere model parameters The ionosphere model should be initialized by calling &#39;confi...">
<polygon fill="white" stroke="red" points="147.5,-76.5 147.5,-95.5 240.5,-95.5 240.5,-76.5 147.5,-76.5"/>
<text text-anchor="middle" x="194" y="-83.5" font-family="Helvetica,sans-Serif" font-size="10.00">filterIonosphere</text>
</a>
</g>
</g>
<!-- Node1&#45;&gt;Node22 -->
<g id="edge8" class="edge">
<title>Node1&#45;&gt;Node22</title>
<path fill="none" stroke="midnightblue" d="M342.46,-146.6C323.81,-133.87 295.69,-116.15 269,-105 260.07,-101.27 250.21,-98.12 240.68,-95.52"/>
<polygon fill="midnightblue" stroke="midnightblue" points="340.6,-149.57 350.81,-152.39 344.59,-143.81 340.6,-149.57"/>
</g>
<!-- Node23 -->
<g id="node9" class="node">
<title>Node23</title>
<g id="a_node9"><a xlink:href="ppp__ambres_8cpp.html#a604fb46557eb8261b38abf76fb147433" target="_top" xlink:title=" ">
<polygon fill="white" stroke="red" points="136,-38.5 136,-57.5 252,-57.5 252,-38.5 136,-38.5"/>
<text text-anchor="middle" x="194" y="-45.5" font-family="Helvetica,sans-Serif" font-size="10.00">applyUCAmbiguities</text>
</a>
</g>
</g>
<!-- Node1&#45;&gt;Node23 -->
<g id="edge9" class="edge">
<title>Node1&#45;&gt;Node23</title>
<path fill="none" stroke="midnightblue" d="M351.11,-144.22C334.53,-122.67 303.72,-86.81 269,-67 262.2,-63.12 254.61,-60.02 246.94,-57.55"/>
<polygon fill="midnightblue" stroke="midnightblue" points="348.32,-146.33 357.12,-152.23 353.91,-142.13 348.32,-146.33"/>
</g>
<!-- Node14 -->
<g id="node10" class="node">
<title>Node14</title>
<g id="a_node10"><a xlink:href="ppppp_8cpp.html#ae72a1567e3061c3685b097b374813844" target="_top" xlink:title=" ">
<polygon fill="white" stroke="red" points="176.5,-0.5 176.5,-19.5 211.5,-19.5 211.5,-0.5 176.5,-0.5"/>
<text text-anchor="middle" x="194" y="-7.5" font-family="Helvetica,sans-Serif" font-size="10.00">PPP</text>
</a>
</g>
</g>
<!-- Node1&#45;&gt;Node14 -->
<g id="edge10" class="edge">
<title>Node1&#45;&gt;Node14</title>
<path fill="none" stroke="midnightblue" d="M355.76,-143.07C342.1,-113.94 311.92,-58.42 269,-29 251.71,-17.15 227.58,-12.69 211.63,-11.01"/>
<polygon fill="midnightblue" stroke="midnightblue" points="352.58,-144.53 359.9,-152.18 358.96,-141.63 352.58,-144.53"/>
</g>
<!-- Node4&#45;&gt;Node2 -->
<g id="edge4" class="edge">
<title>Node4&#45;&gt;Node2</title>
<path fill="none" stroke="midnightblue" d="M157.67,-246.92C134.43,-252.79 104.04,-260.46 80.32,-266.45"/>
<polygon fill="midnightblue" stroke="midnightblue" points="158.63,-250.29 167.47,-244.45 156.92,-243.5 158.63,-250.29"/>
</g>
</g>
</svg>
