<?xml version="1.0" encoding="UTF-8" standalone="no"?>
<!DOCTYPE svg PUBLIC "-//W3C//DTD SVG 1.1//EN"
 "http://www.w3.org/Graphics/SVG/1.1/DTD/svg11.dtd">
<!-- Generated by graphviz version 2.43.0 (0)
 -->
<!-- Title: SinexTropSol Pages: 1 -->
<svg width="192pt" height="182pt"
 viewBox="0.00 0.00 191.50 182.00" xmlns="http://www.w3.org/2000/svg" xmlns:xlink="http://www.w3.org/1999/xlink">
<g id="graph0" class="graph" transform="scale(1 1) rotate(0) translate(4 178)">
<title>SinexTropSol</title>
<polygon fill="white" stroke="transparent" points="-4,4 -4,-178 187.5,-178 187.5,4 -4,4"/>
<!-- Node1 -->
<g id="node1" class="node">
<title>Node1</title>
<g id="a_node1"><a xlink:title=" ">
<polygon fill="#bfbfbf" stroke="black" points="32.5,-0.5 32.5,-57.5 111.5,-57.5 111.5,-0.5 32.5,-0.5"/>
<text text-anchor="middle" x="72" y="-45.5" font-family="Helvetica,sans-Serif" font-size="10.00">SinexTropSol</text>
<polyline fill="none" stroke="black" points="32.5,-38.5 111.5,-38.5 "/>
<text text-anchor="start" x="40.5" y="-26.5" font-family="Helvetica,sans-Serif" font-size="10.00">+ epoch</text>
<polyline fill="none" stroke="black" points="32.5,-19.5 111.5,-19.5 "/>
<text text-anchor="middle" x="72" y="-7.5" font-family="Helvetica,sans-Serif" font-size="10.00"> </text>
</a>
</g>
</g>
<!-- Node2 -->
<g id="node2" class="node">
<title>Node2</title>
<g id="a_node2"><a xlink:title=" ">
<polygon fill="white" stroke="black" points="0,-111 0,-168 44,-168 44,-111 0,-111"/>
<text text-anchor="middle" x="22" y="-156" font-family="Helvetica,sans-Serif" font-size="10.00">string</text>
<polyline fill="none" stroke="black" points="0,-149 44,-149 "/>
<text text-anchor="middle" x="22" y="-137" font-family="Helvetica,sans-Serif" font-size="10.00"> </text>
<polyline fill="none" stroke="black" points="0,-130 44,-130 "/>
<text text-anchor="middle" x="22" y="-118" font-family="Helvetica,sans-Serif" font-size="10.00"> </text>
</a>
</g>
</g>
<!-- Node2&#45;&gt;Node1 -->
<g id="edge1" class="edge">
<title>Node2&#45;&gt;Node1</title>
<path fill="none" stroke="#404040" d="M34.75,-110.84C42.27,-94.52 51.76,-73.92 59.28,-57.61"/>
<text text-anchor="middle" x="65" y="-79" font-family="Helvetica,sans-Serif" font-size="10.00"> +site</text>
</g>
<!-- Node3 -->
<g id="node3" class="node">
<title>Node3</title>
<g id="a_node3"><a xlink:title=" ">
<polygon fill="white" stroke="red" points="62.5,-105.5 62.5,-173.5 183.5,-173.5 183.5,-105.5 62.5,-105.5"/>
<text text-anchor="start" x="70.5" y="-161.5" font-family="Helvetica,sans-Serif" font-size="10.00">vector&lt; SinexTropSol</text>
<text text-anchor="middle" x="123" y="-150.5" font-family="Helvetica,sans-Serif" font-size="10.00">::TropSolutionEntry &gt;</text>
<polyline fill="none" stroke="red" points="62.5,-143.5 183.5,-143.5 "/>
<text text-anchor="middle" x="123" y="-131.5" font-family="Helvetica,sans-Serif" font-size="10.00"> </text>
<polyline fill="none" stroke="red" points="62.5,-124.5 183.5,-124.5 "/>
<text text-anchor="middle" x="123" y="-112.5" font-family="Helvetica,sans-Serif" font-size="10.00"> </text>
</a>
</g>
</g>
<!-- Node3&#45;&gt;Node1 -->
<g id="edge2" class="edge">
<title>Node3&#45;&gt;Node1</title>
<path fill="none" stroke="#404040" d="M107.42,-105.36C100.27,-90.15 91.89,-72.32 85.08,-57.83"/>
<text text-anchor="middle" x="125" y="-79" font-family="Helvetica,sans-Serif" font-size="10.00"> +solutions</text>
</g>
</g>
</svg>
