<?xml version="1.0" encoding="UTF-8" standalone="no"?>
<!DOCTYPE svg PUBLIC "-//W3C//DTD SVG 1.1//EN"
 "http://www.w3.org/Graphics/SVG/1.1/DTD/svg11.dtd">
<!-- Generated by graphviz version 2.43.0 (0)
 -->
<!-- Title: InitialState Pages: 1 -->
<svg width="102pt" height="226pt"
 viewBox="0.00 0.00 101.50 226.00" xmlns="http://www.w3.org/2000/svg" xmlns:xlink="http://www.w3.org/1999/xlink">
<g id="graph0" class="graph" transform="scale(1 1) rotate(0) translate(4 222)">
<title>InitialState</title>
<polygon fill="white" stroke="transparent" points="-4,4 -4,-222 97.5,-222 97.5,4 -4,4"/>
<!-- Node1 -->
<g id="node1" class="node">
<title>Node1</title>
<g id="a_node1"><a xlink:title="Object to hold the values used to initialise new states when adding to the kalman filter object.">
<polygon fill="#bfbfbf" stroke="black" points="0,-0.5 0,-112.5 71,-112.5 71,-0.5 0,-0.5"/>
<text text-anchor="middle" x="35.5" y="-100.5" font-family="Helvetica,sans-Serif" font-size="10.00">InitialState</text>
<polyline fill="none" stroke="black" points="0,-93.5 71,-93.5 "/>
<text text-anchor="start" x="8" y="-81.5" font-family="Helvetica,sans-Serif" font-size="10.00">+ estimate</text>
<text text-anchor="start" x="8" y="-70.5" font-family="Helvetica,sans-Serif" font-size="10.00">+ x</text>
<text text-anchor="start" x="8" y="-59.5" font-family="Helvetica,sans-Serif" font-size="10.00">+ P</text>
<text text-anchor="start" x="8" y="-48.5" font-family="Helvetica,sans-Serif" font-size="10.00">+ Q</text>
<text text-anchor="start" x="8" y="-37.5" font-family="Helvetica,sans-Serif" font-size="10.00">+ tau</text>
<text text-anchor="start" x="8" y="-26.5" font-family="Helvetica,sans-Serif" font-size="10.00">+ mu</text>
<polyline fill="none" stroke="black" points="0,-19.5 71,-19.5 "/>
<text text-anchor="middle" x="35.5" y="-7.5" font-family="Helvetica,sans-Serif" font-size="10.00"> </text>
</a>
</g>
</g>
<!-- Node2 -->
<g id="node2" class="node">
<title>Node2</title>
<g id="a_node2"><a xlink:title=" ">
<polygon fill="white" stroke="black" points="13.5,-160.5 13.5,-217.5 57.5,-217.5 57.5,-160.5 13.5,-160.5"/>
<text text-anchor="middle" x="35.5" y="-205.5" font-family="Helvetica,sans-Serif" font-size="10.00">string</text>
<polyline fill="none" stroke="black" points="13.5,-198.5 57.5,-198.5 "/>
<text text-anchor="middle" x="35.5" y="-186.5" font-family="Helvetica,sans-Serif" font-size="10.00"> </text>
<polyline fill="none" stroke="black" points="13.5,-179.5 57.5,-179.5 "/>
<text text-anchor="middle" x="35.5" y="-167.5" font-family="Helvetica,sans-Serif" font-size="10.00"> </text>
</a>
</g>
</g>
<!-- Node2&#45;&gt;Node1 -->
<g id="edge1" class="edge">
<title>Node2&#45;&gt;Node1</title>
<path fill="none" stroke="#404040" d="M35.5,-160.32C35.5,-146.41 35.5,-129.03 35.5,-112.55"/>
<text text-anchor="middle" x="64.5" y="-134" font-family="Helvetica,sans-Serif" font-size="10.00"> +comment</text>
</g>
</g>
</svg>
