<?xml version="1.0" encoding="UTF-8" standalone="no"?>
<!DOCTYPE svg PUBLIC "-//W3C//DTD SVG 1.1//EN"
 "http://www.w3.org/Graphics/SVG/1.1/DTD/svg11.dtd">
<!-- Generated by graphviz version 2.43.0 (0)
 -->
<!-- Title: SinexParser Pages: 1 -->
<svg width="685pt" height="259pt"
 viewBox="0.00 0.00 684.50 259.00" xmlns="http://www.w3.org/2000/svg" xmlns:xlink="http://www.w3.org/1999/xlink">
<g id="graph0" class="graph" transform="scale(1 1) rotate(0) translate(4 255)">
<title>SinexParser</title>
<polygon fill="white" stroke="transparent" points="-4,4 -4,-255 680.5,-255 680.5,4 -4,4"/>
<!-- Node1 -->
<g id="node1" class="node">
<title>Node1</title>
<g id="a_node1"><a xlink:title=" ">
<polygon fill="#bfbfbf" stroke="black" points="174.5,-0.5 174.5,-123.5 338.5,-123.5 338.5,-0.5 174.5,-0.5"/>
<text text-anchor="middle" x="256.5" y="-111.5" font-family="Helvetica,sans-Serif" font-size="10.00">SinexParser</text>
<polyline fill="none" stroke="black" points="174.5,-104.5 338.5,-104.5 "/>
<text text-anchor="middle" x="256.5" y="-92.5" font-family="Helvetica,sans-Serif" font-size="10.00"> </text>
<polyline fill="none" stroke="black" points="174.5,-85.5 338.5,-85.5 "/>
<text text-anchor="start" x="182.5" y="-73.5" font-family="Helvetica,sans-Serif" font-size="10.00">+ nearestYear()</text>
<text text-anchor="start" x="182.5" y="-62.5" font-family="Helvetica,sans-Serif" font-size="10.00">+ nullFunction()</text>
<text text-anchor="start" x="182.5" y="-51.5" font-family="Helvetica,sans-Serif" font-size="10.00">+ parseSinexEstimates()</text>
<text text-anchor="start" x="182.5" y="-40.5" font-family="Helvetica,sans-Serif" font-size="10.00">+ parseSinexEstimateMatrix()</text>
<text text-anchor="start" x="182.5" y="-29.5" font-family="Helvetica,sans-Serif" font-size="10.00">+ parseSinexDiscontinuities()</text>
<text text-anchor="start" x="182.5" y="-18.5" font-family="Helvetica,sans-Serif" font-size="10.00">+ parse()</text>
<text text-anchor="start" x="182.5" y="-7.5" font-family="Helvetica,sans-Serif" font-size="10.00">+ parserType()</text>
</a>
</g>
</g>
<!-- Node2 -->
<g id="node2" class="node">
<title>Node2</title>
<g id="a_node2"><a xlink:href="structParser.html" target="_top" xlink:title=" ">
<polygon fill="white" stroke="black" points="0,-171.5 0,-250.5 89,-250.5 89,-171.5 0,-171.5"/>
<text text-anchor="middle" x="44.5" y="-238.5" font-family="Helvetica,sans-Serif" font-size="10.00">Parser</text>
<polyline fill="none" stroke="black" points="0,-231.5 89,-231.5 "/>
<text text-anchor="middle" x="44.5" y="-219.5" font-family="Helvetica,sans-Serif" font-size="10.00"> </text>
<polyline fill="none" stroke="black" points="0,-212.5 89,-212.5 "/>
<text text-anchor="start" x="8" y="-200.5" font-family="Helvetica,sans-Serif" font-size="10.00">+ parse()</text>
<text text-anchor="start" x="8" y="-189.5" font-family="Helvetica,sans-Serif" font-size="10.00">+ parserType()</text>
<text text-anchor="start" x="8" y="-178.5" font-family="Helvetica,sans-Serif" font-size="10.00">+ ~Parser()</text>
</a>
</g>
</g>
<!-- Node2&#45;&gt;Node1 -->
<g id="edge1" class="edge">
<title>Node2&#45;&gt;Node1</title>
<path fill="none" stroke="midnightblue" d="M97.25,-171.18C97.33,-171.12 97.42,-171.06 97.5,-171 122.29,-153.47 149.55,-134.75 174.39,-117.91"/>
<polygon fill="none" stroke="midnightblue" points="95.34,-168.24 89.23,-176.9 99.41,-173.94 95.34,-168.24"/>
</g>
<!-- Node3 -->
<g id="node3" class="node">
<title>Node3</title>
<g id="a_node3"><a xlink:href="structObsLister.html" target="_top" xlink:title=" ">
<polygon fill="white" stroke="red" points="106.5,-182.5 106.5,-239.5 168.5,-239.5 168.5,-182.5 106.5,-182.5"/>
<text text-anchor="middle" x="137.5" y="-227.5" font-family="Helvetica,sans-Serif" font-size="10.00">ObsLister</text>
<polyline fill="none" stroke="red" points="106.5,-220.5 168.5,-220.5 "/>
<text text-anchor="middle" x="137.5" y="-208.5" font-family="Helvetica,sans-Serif" font-size="10.00"> </text>
<polyline fill="none" stroke="red" points="106.5,-201.5 168.5,-201.5 "/>
<text text-anchor="middle" x="137.5" y="-189.5" font-family="Helvetica,sans-Serif" font-size="10.00"> </text>
</a>
</g>
</g>
<!-- Node3&#45;&gt;Node1 -->
<g id="edge2" class="edge">
<title>Node3&#45;&gt;Node1</title>
<path fill="none" stroke="midnightblue" d="M166.45,-174.24C178.75,-159.05 193.44,-140.9 207.35,-123.72"/>
<polygon fill="none" stroke="midnightblue" points="163.45,-172.38 159.88,-182.35 168.9,-176.78 163.45,-172.38"/>
</g>
<!-- Node6 -->
<g id="node4" class="node">
<title>Node6</title>
<g id="a_node4"><a xlink:title=" ">
<polygon fill="white" stroke="red" points="186.5,-177 186.5,-245 326.5,-245 326.5,-177 186.5,-177"/>
<text text-anchor="start" x="194.5" y="-233" font-family="Helvetica,sans-Serif" font-size="10.00">map&lt; int, tuple&lt; GTime,</text>
<text text-anchor="middle" x="256.5" y="-222" font-family="Helvetica,sans-Serif" font-size="10.00"> KFKey &gt; &gt;</text>
<polyline fill="none" stroke="red" points="186.5,-215 326.5,-215 "/>
<text text-anchor="middle" x="256.5" y="-203" font-family="Helvetica,sans-Serif" font-size="10.00"> </text>
<polyline fill="none" stroke="red" points="186.5,-196 326.5,-196 "/>
<text text-anchor="middle" x="256.5" y="-184" font-family="Helvetica,sans-Serif" font-size="10.00"> </text>
</a>
</g>
</g>
<!-- Node6&#45;&gt;Node1 -->
<g id="edge3" class="edge">
<title>Node6&#45;&gt;Node1</title>
<path fill="none" stroke="#404040" d="M256.5,-176.64C256.5,-164.52 256.5,-150.3 256.5,-136.1"/>
<polygon fill="none" stroke="#404040" points="256.5,-135.68 252.5,-129.68 256.5,-123.68 260.5,-129.68 256.5,-135.68"/>
<text text-anchor="middle" x="298.5" y="-145" font-family="Helvetica,sans-Serif" font-size="10.00"> +parameterMap</text>
</g>
<!-- Node8 -->
<g id="node5" class="node">
<title>Node8</title>
<g id="a_node5"><a xlink:title=" ">
<polygon fill="white" stroke="red" points="345,-171.5 345,-250.5 506,-250.5 506,-171.5 345,-171.5"/>
<text text-anchor="start" x="353" y="-238.5" font-family="Helvetica,sans-Serif" font-size="10.00">map&lt; GTime, map&lt; KFKey,</text>
<text text-anchor="start" x="353" y="-227.5" font-family="Helvetica,sans-Serif" font-size="10.00"> tuple&lt; double, map&lt; KFKey,</text>
<text text-anchor="middle" x="425.5" y="-216.5" font-family="Helvetica,sans-Serif" font-size="10.00"> double &gt; &gt; &gt; &gt;</text>
<polyline fill="none" stroke="red" points="345,-209.5 506,-209.5 "/>
<text text-anchor="middle" x="425.5" y="-197.5" font-family="Helvetica,sans-Serif" font-size="10.00"> </text>
<polyline fill="none" stroke="red" points="345,-190.5 506,-190.5 "/>
<text text-anchor="middle" x="425.5" y="-178.5" font-family="Helvetica,sans-Serif" font-size="10.00"> </text>
</a>
</g>
</g>
<!-- Node8&#45;&gt;Node1 -->
<g id="edge4" class="edge">
<title>Node8&#45;&gt;Node1</title>
<path fill="none" stroke="#404040" d="M381.1,-171.38C367.04,-159.15 351.05,-145.24 335.32,-131.56"/>
<polygon fill="none" stroke="#404040" points="335.16,-131.42 328.01,-130.5 326.11,-123.55 333.26,-124.47 335.16,-131.42"/>
<text text-anchor="middle" x="385.5" y="-145" font-family="Helvetica,sans-Serif" font-size="10.00"> +valueMap</text>
</g>
<!-- Node9 -->
<g id="node6" class="node">
<title>Node9</title>
<g id="a_node6"><a xlink:title=" ">
<polygon fill="white" stroke="red" points="524.5,-177 524.5,-245 676.5,-245 676.5,-177 524.5,-177"/>
<text text-anchor="start" x="532.5" y="-233" font-family="Helvetica,sans-Serif" font-size="10.00">map&lt; GTime, map&lt; string,</text>
<text text-anchor="middle" x="600.5" y="-222" font-family="Helvetica,sans-Serif" font-size="10.00"> DiscontinuityObject &gt; &gt;</text>
<polyline fill="none" stroke="red" points="524.5,-215 676.5,-215 "/>
<text text-anchor="middle" x="600.5" y="-203" font-family="Helvetica,sans-Serif" font-size="10.00"> </text>
<polyline fill="none" stroke="red" points="524.5,-196 676.5,-196 "/>
<text text-anchor="middle" x="600.5" y="-184" font-family="Helvetica,sans-Serif" font-size="10.00"> </text>
</a>
</g>
</g>
<!-- Node9&#45;&gt;Node1 -->
<g id="edge5" class="edge">
<title>Node9&#45;&gt;Node1</title>
<path fill="none" stroke="#404040" d="M528.7,-176.84C524.24,-174.85 519.81,-172.89 515.5,-171 460.95,-147.12 399.45,-121.42 350.07,-101.09"/>
<polygon fill="none" stroke="#404040" points="349.86,-101 342.79,-102.42 338.76,-96.44 345.83,-95.02 349.86,-101"/>
<text text-anchor="middle" x="520.5" y="-145" font-family="Helvetica,sans-Serif" font-size="10.00"> +discontinuityMap</text>
</g>
</g>
</svg>
