<?xml version="1.0" encoding="UTF-8" standalone="no"?>
<!DOCTYPE svg PUBLIC "-//W3C//DTD SVG 1.1//EN"
 "http://www.w3.org/Graphics/SVG/1.1/DTD/svg11.dtd">
<!-- Generated by graphviz version 2.43.0 (0)
 -->
<!-- Title: KalmanModel Pages: 1 -->
<svg width="465pt" height="215pt"
 viewBox="0.00 0.00 464.50 215.00" xmlns="http://www.w3.org/2000/svg" xmlns:xlink="http://www.w3.org/1999/xlink">
<g id="graph0" class="graph" transform="scale(1 1) rotate(0) translate(4 211)">
<title>KalmanModel</title>
<polygon fill="white" stroke="transparent" points="-4,4 -4,-211 460.5,-211 460.5,4 -4,4"/>
<!-- Node1 -->
<g id="node1" class="node">
<title>Node1</title>
<g id="a_node1"><a xlink:title="Options associated with kalman filter states.">
<polygon fill="#bfbfbf" stroke="black" points="176,-0.5 176,-57.5 269,-57.5 269,-0.5 176,-0.5"/>
<text text-anchor="middle" x="222.5" y="-45.5" font-family="Helvetica,sans-Serif" font-size="10.00">KalmanModel</text>
<polyline fill="none" stroke="black" points="176,-38.5 269,-38.5 "/>
<text text-anchor="middle" x="222.5" y="-26.5" font-family="Helvetica,sans-Serif" font-size="10.00"> </text>
<polyline fill="none" stroke="black" points="176,-19.5 269,-19.5 "/>
<text text-anchor="start" x="184" y="-7.5" font-family="Helvetica,sans-Serif" font-size="10.00">+ operator+=()</text>
</a>
</g>
</g>
<!-- Node2 -->
<g id="node2" class="node">
<title>Node2</title>
<g id="a_node2"><a xlink:title=" ">
<polygon fill="white" stroke="red" points="0,-149.5 0,-206.5 103,-206.5 103,-149.5 0,-149.5"/>
<text text-anchor="middle" x="51.5" y="-194.5" font-family="Helvetica,sans-Serif" font-size="10.00">vector&lt; double &gt;</text>
<polyline fill="none" stroke="red" points="0,-187.5 103,-187.5 "/>
<text text-anchor="middle" x="51.5" y="-175.5" font-family="Helvetica,sans-Serif" font-size="10.00"> </text>
<polyline fill="none" stroke="red" points="0,-168.5 103,-168.5 "/>
<text text-anchor="middle" x="51.5" y="-156.5" font-family="Helvetica,sans-Serif" font-size="10.00"> </text>
</a>
</g>
</g>
<!-- Node2&#45;&gt;Node1 -->
<g id="edge1" class="edge">
<title>Node2&#45;&gt;Node1</title>
<path fill="none" stroke="#404040" d="M62.75,-149.29C73.06,-126.92 90.25,-95.98 113.5,-76 131.34,-60.67 155.02,-49.86 175.76,-42.58"/>
<text text-anchor="middle" x="145.5" y="-123" font-family="Helvetica,sans-Serif" font-size="10.00"> +apriori_val</text>
<text text-anchor="middle" x="145.5" y="-112" font-family="Helvetica,sans-Serif" font-size="10.00">+mu</text>
<text text-anchor="middle" x="145.5" y="-101" font-family="Helvetica,sans-Serif" font-size="10.00">+proc_noise</text>
<text text-anchor="middle" x="145.5" y="-90" font-family="Helvetica,sans-Serif" font-size="10.00">+sigma</text>
<text text-anchor="middle" x="145.5" y="-79" font-family="Helvetica,sans-Serif" font-size="10.00">+tau</text>
</g>
<!-- Node4 -->
<g id="node3" class="node">
<title>Node4</title>
<g id="a_node3"><a xlink:title=" ">
<polygon fill="white" stroke="red" points="121,-149.5 121,-206.5 212,-206.5 212,-149.5 121,-149.5"/>
<text text-anchor="middle" x="166.5" y="-194.5" font-family="Helvetica,sans-Serif" font-size="10.00">vector&lt; bool &gt;</text>
<polyline fill="none" stroke="red" points="121,-187.5 212,-187.5 "/>
<text text-anchor="middle" x="166.5" y="-175.5" font-family="Helvetica,sans-Serif" font-size="10.00"> </text>
<polyline fill="none" stroke="red" points="121,-168.5 212,-168.5 "/>
<text text-anchor="middle" x="166.5" y="-156.5" font-family="Helvetica,sans-Serif" font-size="10.00"> </text>
</a>
</g>
</g>
<!-- Node4&#45;&gt;Node1 -->
<g id="edge2" class="edge">
<title>Node4&#45;&gt;Node1</title>
<path fill="none" stroke="#404040" d="M175.78,-149.38C182.77,-128.97 192.79,-100.58 202.5,-76 204.87,-70.01 207.54,-63.63 210.14,-57.6"/>
<text text-anchor="middle" x="230" y="-101" font-family="Helvetica,sans-Serif" font-size="10.00"> +estimate</text>
</g>
<!-- Node5 -->
<g id="node4" class="node">
<title>Node5</title>
<g id="a_node4"><a xlink:title=" ">
<polygon fill="white" stroke="red" points="230.5,-149.5 230.5,-206.5 328.5,-206.5 328.5,-149.5 230.5,-149.5"/>
<text text-anchor="middle" x="279.5" y="-194.5" font-family="Helvetica,sans-Serif" font-size="10.00">vector&lt; string &gt;</text>
<polyline fill="none" stroke="red" points="230.5,-187.5 328.5,-187.5 "/>
<text text-anchor="middle" x="279.5" y="-175.5" font-family="Helvetica,sans-Serif" font-size="10.00"> </text>
<polyline fill="none" stroke="red" points="230.5,-168.5 328.5,-168.5 "/>
<text text-anchor="middle" x="279.5" y="-156.5" font-family="Helvetica,sans-Serif" font-size="10.00"> </text>
</a>
</g>
</g>
<!-- Node5&#45;&gt;Node1 -->
<g id="edge3" class="edge">
<title>Node5&#45;&gt;Node1</title>
<path fill="none" stroke="#404040" d="M276.77,-149.39C273.94,-128.49 268.33,-99.46 257.5,-76 254.6,-69.71 250.72,-63.47 246.6,-57.71"/>
<text text-anchor="middle" x="302.5" y="-101" font-family="Helvetica,sans-Serif" font-size="10.00"> +comment</text>
</g>
<!-- Node6 -->
<g id="node5" class="node">
<title>Node6</title>
<g id="a_node5"><a xlink:title=" ">
<polygon fill="white" stroke="red" points="347,-149.5 347,-206.5 448,-206.5 448,-149.5 347,-149.5"/>
<text text-anchor="middle" x="397.5" y="-194.5" font-family="Helvetica,sans-Serif" font-size="10.00">map&lt; int, bool &gt;</text>
<polyline fill="none" stroke="red" points="347,-187.5 448,-187.5 "/>
<text text-anchor="middle" x="397.5" y="-175.5" font-family="Helvetica,sans-Serif" font-size="10.00"> </text>
<polyline fill="none" stroke="red" points="347,-168.5 448,-168.5 "/>
<text text-anchor="middle" x="397.5" y="-156.5" font-family="Helvetica,sans-Serif" font-size="10.00"> </text>
</a>
</g>
</g>
<!-- Node6&#45;&gt;Node1 -->
<g id="edge4" class="edge">
<title>Node6&#45;&gt;Node1</title>
<path fill="none" stroke="#404040" d="M386.31,-149.21C376.05,-126.79 358.88,-95.83 335.5,-76 316.52,-59.9 291.16,-48.89 269.27,-41.69"/>
<text text-anchor="middle" x="416" y="-101" font-family="Helvetica,sans-Serif" font-size="10.00"> +initialisedMap</text>
</g>
</g>
</svg>
