<?xml version="1.0" encoding="UTF-8" standalone="no"?>
<!DOCTYPE svg PUBLIC "-//W3C//DTD SVG 1.1//EN"
 "http://www.w3.org/Graphics/SVG/1.1/DTD/svg11.dtd">
<!-- Generated by graphviz version 2.43.0 (0)
 -->
<!-- Title: VectorPos::lonDeg Pages: 1 -->
<svg width="368pt" height="864pt"
 viewBox="0.00 0.00 368.00 864.00" xmlns="http://www.w3.org/2000/svg" xmlns:xlink="http://www.w3.org/1999/xlink">
<g id="graph0" class="graph" transform="scale(1 1) rotate(0) translate(4 860)">
<title>VectorPos::lonDeg</title>
<polygon fill="white" stroke="transparent" points="-4,4 -4,-860 364,-860 364,4 -4,4"/>
<!-- Node1 -->
<g id="node1" class="node">
<title>Node1</title>
<g id="a_node1"><a xlink:title=" ">
<polygon fill="#bfbfbf" stroke="black" points="255,-418.5 255,-437.5 360,-437.5 360,-418.5 255,-418.5"/>
<text text-anchor="middle" x="307.5" y="-425.5" font-family="Helvetica,sans-Serif" font-size="10.00">VectorPos::lonDeg</text>
</a>
</g>
</g>
<!-- Node2 -->
<g id="node2" class="node">
<title>Node2</title>
<g id="a_node2"><a xlink:href="ionoBSplines_8cpp.html#a7002ebc4f104e21e0a2a24917ac32098" target="_top" xlink:title="checks if the Ionosphere Piercing Point falls in area of coverage time: I time of observations (not u...">
<polygon fill="white" stroke="red" points="124,-836.5 124,-855.5 216,-855.5 216,-836.5 124,-836.5"/>
<text text-anchor="middle" x="170" y="-843.5" font-family="Helvetica,sans-Serif" font-size="10.00">ippCheckBsplin</text>
</a>
</g>
</g>
<!-- Node1&#45;&gt;Node2 -->
<g id="edge1" class="edge">
<title>Node1&#45;&gt;Node2</title>
<path fill="none" stroke="midnightblue" d="M304.63,-447.55C297.4,-519.45 269.16,-768.04 219,-827 215.75,-830.82 211.62,-833.88 207.16,-836.33"/>
<polygon fill="midnightblue" stroke="midnightblue" points="308.12,-447.88 305.61,-437.59 301.15,-447.2 308.12,-447.88"/>
</g>
<!-- Node3 -->
<g id="node3" class="node">
<title>Node3</title>
<g id="a_node3"><a xlink:href="ionoBSplines_8cpp.html#a62f02324c802a59df6b26dad28135cc3" target="_top" xlink:title="Estimate Ionosphere VTEC using Ionospheric gridmaps Ion_pp I Ionosphere Piercing Point layer I Layer ...">
<polygon fill="white" stroke="red" points="1,-741.5 1,-760.5 84,-760.5 84,-741.5 1,-741.5"/>
<text text-anchor="middle" x="42.5" y="-748.5" font-family="Helvetica,sans-Serif" font-size="10.00">ionVtecBsplin</text>
</a>
</g>
</g>
<!-- Node1&#45;&gt;Node3 -->
<g id="edge7" class="edge">
<title>Node1&#45;&gt;Node3</title>
<path fill="none" stroke="midnightblue" d="M303.49,-447.87C296.3,-488.77 274.38,-583.07 219,-637 185.53,-669.59 160.26,-649.68 121,-675 91.54,-694 63.98,-725.51 51.11,-741.32"/>
<polygon fill="midnightblue" stroke="midnightblue" points="306.98,-448.26 305.15,-437.83 300.07,-447.12 306.98,-448.26"/>
</g>
<!-- Node18 -->
<g id="node4" class="node">
<title>Node18</title>
<g id="a_node4"><a xlink:href="tides_8cpp.html#a722bd4420312b4c5c8f36aa0d905e0c3" target="_top" xlink:title="Displacement by ocean pole tide See ref [1] 7.1.5.">
<polygon fill="white" stroke="red" points="126.5,-798.5 126.5,-817.5 213.5,-817.5 213.5,-798.5 126.5,-798.5"/>
<text text-anchor="middle" x="170" y="-805.5" font-family="Helvetica,sans-Serif" font-size="10.00">tideOceanPole</text>
</a>
</g>
</g>
<!-- Node1&#45;&gt;Node18 -->
<g id="edge3" class="edge">
<title>Node1&#45;&gt;Node18</title>
<path fill="none" stroke="midnightblue" d="M304.11,-447.83C295.58,-515.57 264.71,-736.45 219,-789 215.71,-792.79 211.56,-795.83 207.08,-798.26"/>
<polygon fill="midnightblue" stroke="midnightblue" points="307.61,-448.03 305.36,-437.68 300.66,-447.17 307.61,-448.03"/>
</g>
<!-- Node26 -->
<g id="node5" class="node">
<title>Node26</title>
<g id="a_node5"><a xlink:href="ionoLocalSTEC_8cpp.html#a4ac0ae5657ac53a7056034344425230a" target="_top" xlink:title=" ">
<polygon fill="white" stroke="red" points="122.5,-760.5 122.5,-779.5 217.5,-779.5 217.5,-760.5 122.5,-760.5"/>
<text text-anchor="middle" x="170" y="-767.5" font-family="Helvetica,sans-Serif" font-size="10.00">getCmpSSRIono</text>
</a>
</g>
</g>
<!-- Node1&#45;&gt;Node26 -->
<g id="edge4" class="edge">
<title>Node1&#45;&gt;Node26</title>
<path fill="none" stroke="midnightblue" d="M306.92,-447.78C307,-502.98 299.77,-660.6 219,-751 215.54,-754.88 211.18,-757.97 206.51,-760.44"/>
<polygon fill="midnightblue" stroke="midnightblue" points="310.41,-447.58 306.81,-437.61 303.41,-447.65 310.41,-447.58"/>
</g>
<!-- Node29 -->
<g id="node6" class="node">
<title>Node29</title>
<g id="a_node6"><a xlink:href="ionoSphericalCaps_8cpp.html#afe703da748ff3caca1693fac631c7f51" target="_top" xlink:title="Estimate Ionosphere VTEC using Spherical Cap Harmonic models gtime_t time I time of solutions (not us...">
<polygon fill="white" stroke="red" points="125.5,-722.5 125.5,-741.5 214.5,-741.5 214.5,-722.5 125.5,-722.5"/>
<text text-anchor="middle" x="170" y="-729.5" font-family="Helvetica,sans-Serif" font-size="10.00">ionVtecSphcap</text>
</a>
</g>
</g>
<!-- Node1&#45;&gt;Node29 -->
<g id="edge5" class="edge">
<title>Node1&#45;&gt;Node29</title>
<path fill="none" stroke="midnightblue" d="M306.05,-447.78C303.86,-498.54 291.18,-634.88 219,-713 215.47,-716.82 211.08,-719.88 206.39,-722.34"/>
<polygon fill="midnightblue" stroke="midnightblue" points="309.56,-447.66 306.4,-437.55 302.56,-447.42 309.56,-447.66"/>
</g>
<!-- Node30 -->
<g id="node7" class="node">
<title>Node30</title>
<g id="a_node7"><a xlink:href="tropSinex_8cpp.html#a1faee2ac53f3a75f110a3d3fadd79354" target="_top" xlink:title="Write SITE/ID block.">
<polygon fill="white" stroke="red" points="125.5,-684.5 125.5,-703.5 214.5,-703.5 214.5,-684.5 125.5,-684.5"/>
<text text-anchor="middle" x="170" y="-691.5" font-family="Helvetica,sans-Serif" font-size="10.00">writeTropSiteId</text>
</a>
</g>
</g>
<!-- Node1&#45;&gt;Node30 -->
<g id="edge6" class="edge">
<title>Node1&#45;&gt;Node30</title>
<path fill="none" stroke="midnightblue" d="M304.34,-447.73C298.5,-492.49 278.55,-603.06 219,-670 213.55,-676.13 206.18,-680.88 198.84,-684.47"/>
<polygon fill="midnightblue" stroke="midnightblue" points="307.84,-447.95 305.57,-437.6 300.89,-447.11 307.84,-447.95"/>
</g>
<!-- Node33 -->
<g id="node8" class="node">
<title>Node33</title>
<g id="a_node8"><a xlink:href="tropVMF3_8cpp.html#a2253022b9954448bf810631603e70454" target="_top" xlink:title="vmf3">
<polygon fill="white" stroke="red" points="138,-608.5 138,-627.5 202,-627.5 202,-608.5 138,-608.5"/>
<text text-anchor="middle" x="170" y="-615.5" font-family="Helvetica,sans-Serif" font-size="10.00">tropVMF3</text>
</a>
</g>
</g>
<!-- Node1&#45;&gt;Node33 -->
<g id="edge8" class="edge">
<title>Node1&#45;&gt;Node33</title>
<path fill="none" stroke="midnightblue" d="M301.47,-447.52C291.49,-482.53 266,-556.31 219,-599 214.16,-603.4 208.17,-606.83 202.09,-609.5"/>
<polygon fill="midnightblue" stroke="midnightblue" points="304.92,-448.18 304.17,-437.61 298.16,-446.34 304.92,-448.18"/>
</g>
<!-- Node34 -->
<g id="node9" class="node">
<title>Node34</title>
<g id="a_node9"><a xlink:href="tropModels_8cpp.html#a4e0e7ea77b35161d438a4bc48e02c6d7" target="_top" xlink:title=" ">
<polygon fill="white" stroke="red" points="9.5,-228.5 9.5,-247.5 75.5,-247.5 75.5,-228.5 9.5,-228.5"/>
<text text-anchor="middle" x="42.5" y="-235.5" font-family="Helvetica,sans-Serif" font-size="10.00">tropModel</text>
</a>
</g>
</g>
<!-- Node1&#45;&gt;Node34 -->
<g id="edge20" class="edge">
<title>Node1&#45;&gt;Node34</title>
<path fill="none" stroke="midnightblue" d="M302.73,-408.16C294.62,-371.44 271.78,-293.33 219,-257 176.34,-227.63 113.52,-228.76 75.75,-232.92"/>
<polygon fill="midnightblue" stroke="midnightblue" points="299.34,-409.05 304.8,-418.13 306.2,-407.63 299.34,-409.05"/>
</g>
<!-- Node41 -->
<g id="node10" class="node">
<title>Node41</title>
<g id="a_node10"><a xlink:href="tides_8cpp.html#aeae22242d3396386a1b71e573226478d" target="_top" xlink:title="Displacement by solid Earth pole tide See ref [1] 7.1.4.">
<polygon fill="white" stroke="red" points="130,-570.5 130,-589.5 210,-589.5 210,-570.5 130,-570.5"/>
<text text-anchor="middle" x="170" y="-577.5" font-family="Helvetica,sans-Serif" font-size="10.00">tideSolidPole</text>
</a>
</g>
</g>
<!-- Node1&#45;&gt;Node41 -->
<g id="edge10" class="edge">
<title>Node1&#45;&gt;Node41</title>
<path fill="none" stroke="midnightblue" d="M297.6,-446.72C283.94,-473.8 255.51,-524.14 219,-556 212.26,-561.88 203.83,-566.73 195.91,-570.48"/>
<polygon fill="midnightblue" stroke="midnightblue" points="300.83,-448.09 302.1,-437.57 294.54,-445 300.83,-448.09"/>
</g>
<!-- Node43 -->
<g id="node11" class="node">
<title>Node43</title>
<g id="a_node11"><a xlink:href="tides_8cpp.html#ab9e903f458c0264cff4b22d87c78c477" target="_top" xlink:title="Displacement by solid Earth tide See ref [1] 7.1.1 Note: permanent deformation not removed,...">
<polygon fill="white" stroke="black" points="0,-494.5 0,-513.5 85,-513.5 85,-494.5 0,-494.5"/>
<text text-anchor="middle" x="42.5" y="-501.5" font-family="Helvetica,sans-Serif" font-size="10.00">tideSolidEarth</text>
</a>
</g>
</g>
<!-- Node1&#45;&gt;Node43 -->
<g id="edge11" class="edge">
<title>Node1&#45;&gt;Node43</title>
<path fill="none" stroke="midnightblue" d="M296.14,-446.47C282.08,-469.4 254.58,-507.4 219,-523 168.06,-545.34 101.13,-526.45 66.5,-513.57"/>
<polygon fill="midnightblue" stroke="midnightblue" points="299.26,-448.07 301.32,-437.67 293.23,-444.51 299.26,-448.07"/>
</g>
<!-- Node44 -->
<g id="node12" class="node">
<title>Node44</title>
<g id="a_node12"><a xlink:href="ionoLocalSTEC_8cpp.html#aa36d9057a5ea9032b2f639ebc49099cb" target="_top" xlink:title="Checks if the Ionosphere Piercing Point falls in area of coverage.">
<polygon fill="white" stroke="red" points="126.5,-494.5 126.5,-513.5 213.5,-513.5 213.5,-494.5 126.5,-494.5"/>
<text text-anchor="middle" x="170" y="-501.5" font-family="Helvetica,sans-Serif" font-size="10.00">ippCheckLocal</text>
</a>
</g>
</g>
<!-- Node1&#45;&gt;Node44 -->
<g id="edge12" class="edge">
<title>Node1&#45;&gt;Node44</title>
<path fill="none" stroke="midnightblue" d="M285.41,-443.46C268.12,-455.71 242.73,-472.73 219,-485 212.31,-488.46 204.85,-491.69 197.83,-494.48"/>
<polygon fill="midnightblue" stroke="midnightblue" points="287.57,-446.22 293.66,-437.55 283.49,-440.53 287.57,-446.22"/>
</g>
<!-- Node45 -->
<g id="node13" class="node">
<title>Node45</title>
<g id="a_node13"><a xlink:href="tides_8cpp.html#ab44d5c92785ffe1d1628108425405b23" target="_top" xlink:title="Step 1 of solid Earth tide computation: Corrections to be computed in the time domain (solar/lunar ti...">
<polygon fill="white" stroke="black" points="121,-456.5 121,-475.5 219,-475.5 219,-456.5 121,-456.5"/>
<text text-anchor="middle" x="170" y="-463.5" font-family="Helvetica,sans-Serif" font-size="10.00">tideTimeDomain</text>
</a>
</g>
</g>
<!-- Node1&#45;&gt;Node45 -->
<g id="edge13" class="edge">
<title>Node1&#45;&gt;Node45</title>
<path fill="none" stroke="midnightblue" d="M262.58,-440.32C243.96,-445.54 222.59,-451.53 205.18,-456.41"/>
<polygon fill="midnightblue" stroke="midnightblue" points="263.62,-443.66 272.31,-437.59 261.73,-436.92 263.62,-443.66"/>
</g>
<!-- Node46 -->
<g id="node14" class="node">
<title>Node46</title>
<g id="a_node14"><a xlink:href="ionModels_8cpp.html#a01fb4b3a1115f1db6ec700ecf9892e92" target="_top" xlink:title="interpolate tec grid data">
<polygon fill="white" stroke="red" points="139.5,-418.5 139.5,-437.5 200.5,-437.5 200.5,-418.5 139.5,-418.5"/>
<text text-anchor="middle" x="170" y="-425.5" font-family="Helvetica,sans-Serif" font-size="10.00">interpTec</text>
</a>
</g>
</g>
<!-- Node1&#45;&gt;Node46 -->
<g id="edge15" class="edge">
<title>Node1&#45;&gt;Node46</title>
<path fill="none" stroke="midnightblue" d="M244.84,-428C229.41,-428 213.55,-428 200.5,-428"/>
<polygon fill="midnightblue" stroke="midnightblue" points="244.89,-431.5 254.89,-428 244.89,-424.5 244.89,-431.5"/>
</g>
<!-- Node54 -->
<g id="node15" class="node">
<title>Node54</title>
<g id="a_node15"><a xlink:href="gpx_8cpp.html#af9cdc05b3e40dc1ffa48b4ff09d108c8" target="_top" xlink:title=" ">
<polygon fill="white" stroke="red" points="126.5,-380.5 126.5,-399.5 213.5,-399.5 213.5,-380.5 126.5,-380.5"/>
<text text-anchor="middle" x="170" y="-387.5" font-family="Helvetica,sans-Serif" font-size="10.00">writeGPXEntry</text>
</a>
</g>
</g>
<!-- Node1&#45;&gt;Node54 -->
<g id="edge16" class="edge">
<title>Node1&#45;&gt;Node54</title>
<path fill="none" stroke="midnightblue" d="M262.58,-415.68C243.96,-410.46 222.59,-404.47 205.18,-399.59"/>
<polygon fill="midnightblue" stroke="midnightblue" points="261.73,-419.08 272.31,-418.41 263.62,-412.34 261.73,-419.08"/>
</g>
<!-- Node56 -->
<g id="node16" class="node">
<title>Node56</title>
<g id="a_node16"><a xlink:href="ionoSpherical_8cpp.html#ad01dd353d17b69b39684a5bb3169fea5" target="_top" xlink:title=" ">
<polygon fill="white" stroke="red" points="127,-342.5 127,-361.5 213,-361.5 213,-342.5 127,-342.5"/>
<text text-anchor="middle" x="170" y="-349.5" font-family="Helvetica,sans-Serif" font-size="10.00">getEpcSsrIono</text>
</a>
</g>
</g>
<!-- Node1&#45;&gt;Node56 -->
<g id="edge17" class="edge">
<title>Node1&#45;&gt;Node56</title>
<path fill="none" stroke="midnightblue" d="M285.41,-412.54C268.12,-400.29 242.73,-383.27 219,-371 212.31,-367.54 204.85,-364.31 197.83,-361.52"/>
<polygon fill="midnightblue" stroke="midnightblue" points="283.49,-415.47 293.66,-418.45 287.57,-409.78 283.49,-415.47"/>
</g>
<!-- Node16 -->
<g id="node17" class="node">
<title>Node16</title>
<g id="a_node17"><a xlink:href="ionoMeas_8cpp.html#ab3f111d5e6d66de4751fbce467a29372" target="_top" xlink:title=" ">
<polygon fill="white" stroke="red" points="131,-304.5 131,-323.5 209,-323.5 209,-304.5 131,-304.5"/>
<text text-anchor="middle" x="170" y="-311.5" font-family="Helvetica,sans-Serif" font-size="10.00">obsIonoData</text>
</a>
</g>
</g>
<!-- Node1&#45;&gt;Node16 -->
<g id="edge18" class="edge">
<title>Node1&#45;&gt;Node16</title>
<path fill="none" stroke="midnightblue" d="M293.87,-409.97C278.36,-388.98 250.24,-354.45 219,-333 213.61,-329.3 207.39,-326.16 201.25,-323.57"/>
<polygon fill="midnightblue" stroke="midnightblue" points="291.21,-412.26 299.9,-418.32 296.88,-408.16 291.21,-412.26"/>
</g>
<!-- Node58 -->
<g id="node18" class="node">
<title>Node58</title>
<g id="a_node18"><a xlink:href="minimumConstraints_8cpp.html#ad6ae3cccdb74463ea328f08da634a458" target="_top" xlink:title=" ">
<polygon fill="white" stroke="red" points="128.5,-266.5 128.5,-285.5 211.5,-285.5 211.5,-266.5 128.5,-266.5"/>
<text text-anchor="middle" x="170" y="-273.5" font-family="Helvetica,sans-Serif" font-size="10.00">minOrbitData</text>
</a>
</g>
</g>
<!-- Node1&#45;&gt;Node58 -->
<g id="edge19" class="edge">
<title>Node1&#45;&gt;Node58</title>
<path fill="none" stroke="midnightblue" d="M298.51,-408.9C285.69,-380.39 257.96,-326.69 219,-295 214.34,-291.21 208.83,-288.1 203.24,-285.58"/>
<polygon fill="midnightblue" stroke="midnightblue" points="295.35,-410.4 302.55,-418.17 301.76,-407.61 295.35,-410.4"/>
</g>
<!-- Node38 -->
<g id="node19" class="node">
<title>Node38</title>
<g id="a_node19"><a xlink:href="cost_8cpp.html#abc021ac32635abe4cf6daef44cabb888" target="_top" xlink:title="Outputs troposphere COST file.">
<polygon fill="white" stroke="red" points="135,-190.5 135,-209.5 205,-209.5 205,-190.5 135,-190.5"/>
<text text-anchor="middle" x="170" y="-197.5" font-family="Helvetica,sans-Serif" font-size="10.00">outputCost</text>
</a>
</g>
</g>
<!-- Node1&#45;&gt;Node38 -->
<g id="edge21" class="edge">
<title>Node1&#45;&gt;Node38</title>
<path fill="none" stroke="midnightblue" d="M302.77,-408.2C294.39,-368.59 270.61,-278.72 219,-224 213.37,-218.04 205.94,-213.34 198.62,-209.74"/>
<polygon fill="midnightblue" stroke="midnightblue" points="299.37,-409.06 304.78,-418.17 306.24,-407.68 299.37,-409.06"/>
</g>
<!-- Node65 -->
<g id="node20" class="node">
<title>Node65</title>
<g id="a_node20"><a xlink:href="ionoSpherical_8cpp.html#a1b1dbb6c22bf410390abb588c45f310f" target="_top" xlink:title="Estimate Ionosphere VTEC using Spherical Cap Harmonic models gtime_t time I time of solutions (not us...">
<polygon fill="white" stroke="red" points="126.5,-152.5 126.5,-171.5 213.5,-171.5 213.5,-152.5 126.5,-152.5"/>
<text text-anchor="middle" x="170" y="-159.5" font-family="Helvetica,sans-Serif" font-size="10.00">ionVtecSphhar</text>
</a>
</g>
</g>
<!-- Node1&#45;&gt;Node65 -->
<g id="edge22" class="edge">
<title>Node1&#45;&gt;Node65</title>
<path fill="none" stroke="midnightblue" d="M304.91,-407.79C300.21,-361.52 282.46,-246.82 219,-181 215.27,-177.13 210.65,-174.03 205.76,-171.55"/>
<polygon fill="midnightblue" stroke="midnightblue" points="301.44,-408.37 305.84,-418.01 308.41,-407.73 301.44,-408.37"/>
</g>
<!-- Node66 -->
<g id="node21" class="node">
<title>Node66</title>
<g id="a_node21"><a xlink:href="minimumConstraints_8cpp.html#abb849f43f8ddc113a68e426f98df6b22" target="_top" xlink:title=" ">
<polygon fill="white" stroke="red" points="131.5,-114.5 131.5,-133.5 208.5,-133.5 208.5,-114.5 131.5,-114.5"/>
<text text-anchor="middle" x="170" y="-121.5" font-family="Helvetica,sans-Serif" font-size="10.00">minSiteData</text>
</a>
</g>
</g>
<!-- Node1&#45;&gt;Node66 -->
<g id="edge23" class="edge">
<title>Node1&#45;&gt;Node66</title>
<path fill="none" stroke="midnightblue" d="M306.05,-408.22C303.86,-357.46 291.18,-221.12 219,-143 215.47,-139.18 211.08,-136.12 206.39,-133.66"/>
<polygon fill="midnightblue" stroke="midnightblue" points="302.56,-408.58 306.4,-418.45 309.56,-408.34 302.56,-408.58"/>
</g>
<!-- Node67 -->
<g id="node22" class="node">
<title>Node67</title>
<g id="a_node22"><a xlink:href="ppp__obs_8cpp.html#a574a4c24df1a754d0b2b299c8111e29f" target="_top" xlink:title=" ">
<polygon fill="white" stroke="red" points="130,-76.5 130,-95.5 210,-95.5 210,-76.5 130,-76.5"/>
<text text-anchor="middle" x="170" y="-83.5" font-family="Helvetica,sans-Serif" font-size="10.00">pppIonModel</text>
</a>
</g>
</g>
<!-- Node1&#45;&gt;Node67 -->
<g id="edge24" class="edge">
<title>Node1&#45;&gt;Node67</title>
<path fill="none" stroke="midnightblue" d="M306.92,-408.22C307,-353.02 299.77,-195.4 219,-105 215.54,-101.12 211.18,-98.03 206.51,-95.56"/>
<polygon fill="midnightblue" stroke="midnightblue" points="303.41,-408.35 306.81,-418.39 310.41,-408.42 303.41,-408.35"/>
</g>
<!-- Node68 -->
<g id="node23" class="node">
<title>Node68</title>
<g id="a_node23"><a xlink:href="tropCSSR_8cpp.html#a00162918c37e119307c3c670a6eeebb8" target="_top" xlink:title="SSR Troposphere model compute tropospheric delay using compact SSR contents Neill Mapping functions i...">
<polygon fill="white" stroke="red" points="139,-38.5 139,-57.5 201,-57.5 201,-38.5 139,-38.5"/>
<text text-anchor="middle" x="170" y="-45.5" font-family="Helvetica,sans-Serif" font-size="10.00">tropCSSR</text>
</a>
</g>
</g>
<!-- Node1&#45;&gt;Node68 -->
<g id="edge25" class="edge">
<title>Node1&#45;&gt;Node68</title>
<path fill="none" stroke="midnightblue" d="M304.11,-408.17C295.58,-340.43 264.71,-119.55 219,-67 214.29,-61.59 207.84,-57.71 201.2,-54.92"/>
<polygon fill="midnightblue" stroke="midnightblue" points="300.66,-408.83 305.36,-418.32 307.61,-407.97 300.66,-408.83"/>
</g>
<!-- Node70 -->
<g id="node24" class="node">
<title>Node70</title>
<g id="a_node24"><a xlink:href="tropModels_8cpp.html#ae2e859a3c8b8d21b5d2de98286079474" target="_top" xlink:title=" ">
<polygon fill="white" stroke="red" points="125.5,-0.5 125.5,-19.5 214.5,-19.5 214.5,-0.5 125.5,-0.5"/>
<text text-anchor="middle" x="170" y="-7.5" font-family="Helvetica,sans-Serif" font-size="10.00">tropModelCoef</text>
</a>
</g>
</g>
<!-- Node1&#45;&gt;Node70 -->
<g id="edge27" class="edge">
<title>Node1&#45;&gt;Node70</title>
<path fill="none" stroke="midnightblue" d="M304.63,-408.45C297.4,-336.55 269.16,-87.96 219,-29 215.75,-25.18 211.62,-22.12 207.16,-19.67"/>
<polygon fill="midnightblue" stroke="midnightblue" points="301.15,-408.8 305.61,-418.41 308.12,-408.12 301.15,-408.8"/>
</g>
<!-- Node2&#45;&gt;Node3 -->
<g id="edge2" class="edge">
<title>Node2&#45;&gt;Node3</title>
<path fill="none" stroke="midnightblue" d="M130.24,-832.25C127.03,-830.64 123.91,-828.89 121,-827 91.61,-807.9 64.02,-776.44 51.12,-760.66"/>
<polygon fill="midnightblue" stroke="midnightblue" points="128.85,-835.47 139.4,-836.43 131.75,-829.1 128.85,-835.47"/>
</g>
<!-- Node33&#45;&gt;Node34 -->
<g id="edge9" class="edge">
<title>Node33&#45;&gt;Node34</title>
<path fill="none" stroke="midnightblue" d="M128.91,-605.97C125.97,-603.99 123.27,-601.68 121,-599 97.18,-570.87 53.6,-301.89 45,-247.54"/>
<polygon fill="midnightblue" stroke="midnightblue" points="127.25,-609.05 137.71,-610.74 130.59,-602.89 127.25,-609.05"/>
</g>
<!-- Node45&#45;&gt;Node43 -->
<g id="edge14" class="edge">
<title>Node45&#45;&gt;Node43</title>
<path fill="none" stroke="midnightblue" d="M127.6,-478.54C110.53,-483.7 91.06,-489.6 75.16,-494.41"/>
<polygon fill="midnightblue" stroke="midnightblue" points="128.77,-481.84 137.33,-475.59 126.75,-475.14 128.77,-481.84"/>
</g>
<!-- Node68&#45;&gt;Node34 -->
<g id="edge26" class="edge">
<title>Node68&#45;&gt;Node34</title>
<path fill="none" stroke="midnightblue" d="M130.03,-60.27C126.77,-62.21 123.69,-64.44 121,-67 71.2,-114.43 50.84,-199.84 45.23,-228.4"/>
<polygon fill="midnightblue" stroke="midnightblue" points="131.61,-63.39 138.99,-55.79 128.48,-57.13 131.61,-63.39"/>
</g>
</g>
</svg>
