<?xml version="1.0" encoding="UTF-8" standalone="no"?>
<!DOCTYPE svg PUBLIC "-//W3C//DTD SVG 1.1//EN"
 "http://www.w3.org/Graphics/SVG/1.1/DTD/svg11.dtd">
<!-- Generated by graphviz version 2.43.0 (0)
 -->
<!-- Title: SatSys Pages: 1 -->
<svg width="140pt" height="347pt"
 viewBox="0.00 0.00 140.00 347.00" xmlns="http://www.w3.org/2000/svg" xmlns:xlink="http://www.w3.org/1999/xlink">
<g id="graph0" class="graph" transform="scale(1 1) rotate(0) translate(4 343)">
<title>SatSys</title>
<polygon fill="white" stroke="transparent" points="-4,4 -4,-343 136,-343 136,4 -4,4"/>
<!-- Node1 -->
<g id="node1" class="node">
<title>Node1</title>
<g id="a_node1"><a xlink:title="Object holding satellite id, and providing related functions.">
<polygon fill="#bfbfbf" stroke="black" points="7.5,-0.5 7.5,-222.5 114.5,-222.5 114.5,-0.5 7.5,-0.5"/>
<text text-anchor="middle" x="61" y="-210.5" font-family="Helvetica,sans-Serif" font-size="10.00">SatSys</text>
<polyline fill="none" stroke="black" points="7.5,-203.5 114.5,-203.5 "/>
<text text-anchor="start" x="15.5" y="-191.5" font-family="Helvetica,sans-Serif" font-size="10.00">+ sys</text>
<text text-anchor="start" x="15.5" y="-180.5" font-family="Helvetica,sans-Serif" font-size="10.00">+ prn</text>
<polyline fill="none" stroke="black" points="7.5,-173.5 114.5,-173.5 "/>
<text text-anchor="start" x="15.5" y="-161.5" font-family="Helvetica,sans-Serif" font-size="10.00">+ SatSys()</text>
<text text-anchor="start" x="15.5" y="-150.5" font-family="Helvetica,sans-Serif" font-size="10.00">+ sysChar()</text>
<text text-anchor="start" x="15.5" y="-139.5" font-family="Helvetica,sans-Serif" font-size="10.00">+ getId()</text>
<text text-anchor="start" x="15.5" y="-128.5" font-family="Helvetica,sans-Serif" font-size="10.00">+ operator int()</text>
<text text-anchor="start" x="15.5" y="-117.5" font-family="Helvetica,sans-Serif" font-size="10.00">+ setBlockType()</text>
<text text-anchor="start" x="15.5" y="-106.5" font-family="Helvetica,sans-Serif" font-size="10.00">+ setSvn()</text>
<text text-anchor="start" x="15.5" y="-95.5" font-family="Helvetica,sans-Serif" font-size="10.00">+ blockType()</text>
<text text-anchor="start" x="15.5" y="-84.5" font-family="Helvetica,sans-Serif" font-size="10.00">+ svn()</text>
<text text-anchor="start" x="15.5" y="-73.5" font-family="Helvetica,sans-Serif" font-size="10.00">+ fromHash()</text>
<text text-anchor="start" x="15.5" y="-62.5" font-family="Helvetica,sans-Serif" font-size="10.00">+ id()</text>
<text text-anchor="start" x="15.5" y="-51.5" font-family="Helvetica,sans-Serif" font-size="10.00">+ operator string()</text>
<text text-anchor="start" x="15.5" y="-40.5" font-family="Helvetica,sans-Serif" font-size="10.00">+ SatSys()</text>
<text text-anchor="start" x="15.5" y="-29.5" font-family="Helvetica,sans-Serif" font-size="10.00">+ sysName()</text>
<text text-anchor="start" x="15.5" y="-18.5" font-family="Helvetica,sans-Serif" font-size="10.00">+ serialize()</text>
<text text-anchor="start" x="15.5" y="-7.5" font-family="Helvetica,sans-Serif" font-size="10.00">+ sysFromChar()</text>
</a>
</g>
</g>
<!-- Node2 -->
<g id="node2" class="node">
<title>Node2</title>
<g id="a_node2"><a xlink:title=" ">
<polygon fill="white" stroke="red" points="0,-270.5 0,-338.5 122,-338.5 122,-270.5 0,-270.5"/>
<text text-anchor="start" x="8" y="-326.5" font-family="Helvetica,sans-Serif" font-size="10.00">map&lt; SatSys, SatSys</text>
<text text-anchor="middle" x="61" y="-315.5" font-family="Helvetica,sans-Serif" font-size="10.00">::SatData &gt;</text>
<polyline fill="none" stroke="red" points="0,-308.5 122,-308.5 "/>
<text text-anchor="middle" x="61" y="-296.5" font-family="Helvetica,sans-Serif" font-size="10.00"> </text>
<polyline fill="none" stroke="red" points="0,-289.5 122,-289.5 "/>
<text text-anchor="middle" x="61" y="-277.5" font-family="Helvetica,sans-Serif" font-size="10.00"> </text>
</a>
</g>
</g>
<!-- Node2&#45;&gt;Node1 -->
<g id="edge1" class="edge">
<title>Node2&#45;&gt;Node1</title>
<path fill="none" stroke="#404040" d="M61,-270.23C61,-256.66 61,-240.11 61,-222.91"/>
<text text-anchor="middle" x="96.5" y="-244" font-family="Helvetica,sans-Serif" font-size="10.00"> +satDataMap</text>
</g>
</g>
</svg>
