<?xml version="1.0" encoding="UTF-8" standalone="no"?>
<!DOCTYPE svg PUBLIC "-//W3C//DTD SVG 1.1//EN"
 "http://www.w3.org/Graphics/SVG/1.1/DTD/svg11.dtd">
<!-- Generated by graphviz version 2.43.0 (0)
 -->
<!-- Title: ACSConfig::parse Pages: 1 -->
<!--zoomable 716 -->
<svg id="main" version="1.1" xmlns="http://www.w3.org/2000/svg" xmlns:xlink="http://www.w3.org/1999/xlink" xml:space="preserve" onload="init(evt)">
<style type="text/css"><![CDATA[
.edge:hover path { stroke: red; }
.edge:hover polygon { stroke: red; fill: red; }
]]></style>
<script type="text/javascript"><![CDATA[
var edges = document.getElementsByTagName('g');
if (edges && edges.length) {
  for (var i=0;i<edges.length;i++) {
    if (edges[i].id.substr(0,4)=='edge') {
      edges[i].setAttribute('class','edge');
    }
  }
}
]]></script>
        <defs>
                <circle id="rim" cx="0" cy="0" r="7"/>
                <circle id="rim2" cx="0" cy="0" r="3.5"/>
                <g id="zoomPlus">
                        <use xlink:href="#rim" fill="#404040">
                                <set attributeName="fill" to="#808080" begin="zoomplus.mouseover" end="zoomplus.mouseout"/>
                        </use>
                        <path d="M-4,0h8M0,-4v8" fill="none" stroke="white" stroke-width="1.5" pointer-events="none"/>
                </g>
                <g id="zoomMin">
                        <use xlink:href="#rim" fill="#404040">
                                <set attributeName="fill" to="#808080" begin="zoomminus.mouseover" end="zoomminus.mouseout"/>
                        </use>
                        <path d="M-4,0h8" fill="none" stroke="white" stroke-width="1.5" pointer-events="none"/>
                </g>
                <g id="dirArrow">
                        <path fill="none" stroke="white" stroke-width="1.5" d="M0,-3.0v7 M-2.5,-0.5L0,-3.0L2.5,-0.5"/>
                </g>
               <g id="resetDef">
                       <use xlink:href="#rim2" fill="#404040">
                               <set attributeName="fill" to="#808080" begin="reset.mouseover" end="reset.mouseout"/>
                       </use>
               </g>
        </defs>

<script type="text/javascript">
var viewWidth = 597;
var viewHeight = 716;
var sectionId = 'dynsection-13';
</script>
<script xlink:href="svgpan.js"/>
<svg id="graph" class="graph">
<g id="viewport">
<title>ACSConfig::parse</title>
<polygon fill="white" stroke="transparent" points="-4,4 -4,-711.5 593,-711.5 593,4 -4,4"/>
<!-- Node1 -->
<g id="node1" class="node">
<title>Node1</title>
<g id="a_node1"><a xlink:title="Parse options to set acsConfig values.">
<polygon fill="#bfbfbf" stroke="black" points="0,-353 0,-372 101,-372 101,-353 0,-353"/>
<text text-anchor="middle" x="50.5" y="-360" font-family="Helvetica,sans-Serif" font-size="10.00">ACSConfig::parse</text>
</a>
</g>
</g>
<!-- Node2 -->
<g id="node2" class="node">
<title>Node2</title>
<g id="a_node2"><a xlink:href="structACSConfig.html#abfdda0f4ad8ee782bf0e2e0088ade882" target="_top" xlink:title="Print out the configuration data that has been read in.">
<polygon fill="white" stroke="black" points="171.5,-688 171.5,-707 263.5,-707 263.5,-688 171.5,-688"/>
<text text-anchor="middle" x="217.5" y="-695" font-family="Helvetica,sans-Serif" font-size="10.00">ACSConfig::info</text>
</a>
</g>
</g>
<!-- Node1&#45;&gt;Node2 -->
<g id="edge1" class="edge">
<title>Node1&#45;&gt;Node2</title>
<path fill="none" stroke="midnightblue" d="M52.76,-372.02C59.29,-419.86 90.72,-633.57 137,-678.5 146.16,-687.4 158.71,-692.39 171.13,-695.12"/>
</g>
<!-- Node3 -->
<g id="node3" class="node">
<title>Node3</title>
<g id="a_node3"><a xlink:href="structOutputOptions.html#a4390b9c7539ce43211a7c8644c987ad3" target="_top" xlink:title=" ">
<polygon fill="white" stroke="black" points="137,-638.5 137,-668.5 298,-668.5 298,-638.5 137,-638.5"/>
<text text-anchor="start" x="145" y="-656.5" font-family="Helvetica,sans-Serif" font-size="10.00">OutputOptions::defaultOutput</text>
<text text-anchor="middle" x="217.5" y="-645.5" font-family="Helvetica,sans-Serif" font-size="10.00">Options</text>
</a>
</g>
</g>
<!-- Node1&#45;&gt;Node3 -->
<g id="edge2" class="edge">
<title>Node1&#45;&gt;Node3</title>
<path fill="none" stroke="midnightblue" d="M51.79,-372.04C53.46,-409.43 64.48,-547.7 137,-623.5 142.81,-629.58 149.98,-634.43 157.61,-638.31"/>
</g>
<!-- Node4 -->
<g id="node4" class="node">
<title>Node4</title>
<g id="a_node4"><a xlink:href="acsConfig_8cpp.html#a5d035c64332701c7ae41cbd84a93c379" target="_top" xlink:title="Get an object within a hierarchy of yaml structure using a vector of nodes.">
<polygon fill="white" stroke="red" points="474,-433 474,-452 589,-452 589,-433 474,-433"/>
<text text-anchor="middle" x="531.5" y="-440" font-family="Helvetica,sans-Serif" font-size="10.00">stringsToYamlObject</text>
</a>
</g>
</g>
<!-- Node1&#45;&gt;Node4 -->
<g id="edge3" class="edge">
<title>Node1&#45;&gt;Node4</title>
<path fill="none" stroke="midnightblue" d="M51.77,-372.14C53.34,-407.39 64.03,-529.82 137,-579.5 271.54,-671.1 473.55,-495.85 520.51,-452.07"/>
</g>
<!-- Node6 -->
<g id="node5" class="node">
<title>Node6</title>
<g id="a_node5"><a xlink:href="acsConfig_8cpp.html#a555e819507c7608d463fedb0616a95ff" target="_top" xlink:title="Set an output from yaml object if found.">
<polygon fill="white" stroke="red" points="339,-395 339,-414 433,-414 433,-395 339,-395"/>
<text text-anchor="middle" x="386" y="-402" font-family="Helvetica,sans-Serif" font-size="10.00">trySetFromYaml</text>
</a>
</g>
</g>
<!-- Node1&#45;&gt;Node6 -->
<g id="edge4" class="edge">
<title>Node1&#45;&gt;Node6</title>
<path fill="none" stroke="midnightblue" d="M52.35,-372.31C55.77,-404.96 71.69,-510.27 137,-552.5 197.09,-591.35 235.89,-588.03 298,-552.5 352.33,-521.42 376.07,-441.74 382.84,-414.11"/>
</g>
<!-- Node8 -->
<g id="node6" class="node">
<title>Node8</title>
<g id="a_node6"><a xlink:href="acsConfig_8cpp.html#af81d84a18cd276fe9dd3d51533855022" target="_top" xlink:title="Set an output from any config source if found.">
<polygon fill="white" stroke="red" points="173,-524 173,-543 262,-543 262,-524 173,-524"/>
<text text-anchor="middle" x="217.5" y="-531" font-family="Helvetica,sans-Serif" font-size="10.00">trySetFromAny</text>
</a>
</g>
</g>
<!-- Node1&#45;&gt;Node8 -->
<g id="edge6" class="edge">
<title>Node1&#45;&gt;Node8</title>
<path fill="none" stroke="midnightblue" d="M53.98,-372.13C61.47,-399.19 86.49,-476.38 137,-514.5 147.31,-522.28 160.33,-526.93 172.84,-529.69"/>
</g>
<!-- Node10 -->
<g id="node7" class="node">
<title>Node10</title>
<g id="a_node7"><a xlink:href="acsConfig_8cpp.html#a2fd3f7ff4dc1def562096724f003c42d" target="_top" xlink:title="Set and scale a variable according to yaml options.">
<polygon fill="white" stroke="black" points="154.5,-486 154.5,-505 280.5,-505 280.5,-486 154.5,-486"/>
<text text-anchor="middle" x="217.5" y="-493" font-family="Helvetica,sans-Serif" font-size="10.00">trySetScaledFromYaml</text>
</a>
</g>
</g>
<!-- Node1&#45;&gt;Node10 -->
<g id="edge8" class="edge">
<title>Node1&#45;&gt;Node10</title>
<path fill="none" stroke="midnightblue" d="M56.45,-372.29C67.74,-393.61 97.48,-444.5 137,-471.5 146.17,-477.76 157.01,-482.43 167.69,-485.89"/>
</g>
<!-- Node11 -->
<g id="node8" class="node">
<title>Node11</title>
<g id="a_node8"><a xlink:href="acsConfig_8cpp.html#afab657b38e8402e86a8daef8a8f7d09f" target="_top" xlink:title="Set an enum from yaml, decoding strings to ints.">
<polygon fill="white" stroke="red" points="340.5,-357 340.5,-376 431.5,-376 431.5,-357 340.5,-357"/>
<text text-anchor="middle" x="386" y="-364" font-family="Helvetica,sans-Serif" font-size="10.00">trySetEnumOpt</text>
</a>
</g>
</g>
<!-- Node1&#45;&gt;Node11 -->
<g id="edge12" class="edge">
<title>Node1&#45;&gt;Node11</title>
<path fill="none" stroke="midnightblue" d="M59.17,-372.26C72.76,-388.66 102.88,-421.18 137,-433.5 204.3,-457.8 234,-465.5 298,-433.5 321.85,-421.57 312.64,-401.47 334,-385.5 339.07,-381.71 344.98,-378.6 350.94,-376.08"/>
</g>
<!-- Node12 -->
<g id="node9" class="node">
<title>Node12</title>
<g id="a_node9"><a xlink:href="acsConfig_8cpp.html#a2fb6a351dc0cac89305989af6ca205d5" target="_top" xlink:title="Replace macros for times with configured values.">
<polygon fill="white" stroke="red" points="349,-253 349,-272 423,-272 423,-253 349,-253"/>
<text text-anchor="middle" x="386" y="-260" font-family="Helvetica,sans-Serif" font-size="10.00">replaceTags</text>
</a>
</g>
</g>
<!-- Node1&#45;&gt;Node12 -->
<g id="edge13" class="edge">
<title>Node1&#45;&gt;Node12</title>
<path fill="none" stroke="midnightblue" d="M67.68,-372.15C109.88,-395.93 225.02,-451.79 298,-400.5 336.65,-373.34 305.87,-338.44 334,-300.5 342.81,-288.61 356.37,-278.76 367.3,-272.07"/>
</g>
<!-- Node14 -->
<g id="node10" class="node">
<title>Node14</title>
<g id="a_node10"><a xlink:href="acsConfig_8cpp.html#a31d67942b68baf4b95c37a0789a6b362" target="_top" xlink:title="Set the variables associated with an output stream.">
<polygon fill="white" stroke="black" points="152,-372 152,-391 283,-391 283,-372 152,-372"/>
<text text-anchor="middle" x="217.5" y="-379" font-family="Helvetica,sans-Serif" font-size="10.00">tryGetStreamFromYaml</text>
</a>
</g>
</g>
<!-- Node1&#45;&gt;Node14 -->
<g id="edge14" class="edge">
<title>Node1&#45;&gt;Node14</title>
<path fill="none" stroke="midnightblue" d="M101.01,-368.2C116.95,-370.04 134.87,-372.1 151.75,-374.04"/>
</g>
<!-- Node15 -->
<g id="node11" class="node">
<title>Node15</title>
<g id="a_node11"><a xlink:href="acsConfig_8cpp.html#a731d437be3190f99f23f41d58f2cd8cd" target="_top" xlink:title="Add a root to paths that are not already absolutely defined.">
<polygon fill="white" stroke="black" points="334,-310 334,-329 438,-329 438,-310 334,-310"/>
<text text-anchor="middle" x="386" y="-317" font-family="Helvetica,sans-Serif" font-size="10.00">tryAddRootToPath</text>
</a>
</g>
</g>
<!-- Node1&#45;&gt;Node15 -->
<g id="edge17" class="edge">
<title>Node1&#45;&gt;Node15</title>
<path fill="none" stroke="midnightblue" d="M101.07,-356.11C163.58,-348.05 270.51,-334.26 333.79,-326.1"/>
</g>
<!-- Node16 -->
<g id="node12" class="node">
<title>Node16</title>
<g id="a_node12"><a xlink:href="acsConfig_8cpp.html#a080108da5f6c78aa8d0df4b715cf185e" target="_top" xlink:title="Set the variables associated with kalman filter states from yaml.">
<polygon fill="white" stroke="black" points="152,-296 152,-315 283,-315 283,-296 152,-296"/>
<text text-anchor="middle" x="217.5" y="-303" font-family="Helvetica,sans-Serif" font-size="10.00">trySetKalmanFromYaml</text>
</a>
</g>
</g>
<!-- Node1&#45;&gt;Node16 -->
<g id="edge18" class="edge">
<title>Node1&#45;&gt;Node16</title>
<path fill="none" stroke="midnightblue" d="M74.91,-352.92C92,-346.06 115.78,-336.79 137,-329.5 151.86,-324.4 168.48,-319.29 182.67,-315.1"/>
</g>
<!-- Node17 -->
<g id="node13" class="node">
<title>Node17</title>
<g id="a_node13"><a xlink:href="acsConfig_8cpp.html#afadf60bfde1f0c5dda7d362c0804be3d" target="_top" xlink:title=" ">
<polygon fill="white" stroke="red" points="191,-258 191,-277 244,-277 244,-258 191,-258"/>
<text text-anchor="middle" x="217.5" y="-265" font-family="Helvetica,sans-Serif" font-size="10.00">globber</text>
</a>
</g>
</g>
<!-- Node1&#45;&gt;Node17 -->
<g id="edge22" class="edge">
<title>Node1&#45;&gt;Node17</title>
<path fill="none" stroke="midnightblue" d="M59.39,-352.92C73.3,-336.66 103.89,-303.76 137,-286.5 153.74,-277.77 174.54,-272.99 190.67,-270.4"/>
</g>
<!-- Node19 -->
<g id="node14" class="node">
<title>Node19</title>
<g id="a_node14"><a xlink:href="acsConfig_8cpp.html#a9cccd776b759705208f46b6277233311" target="_top" xlink:title=" ">
<polygon fill="white" stroke="black" points="175.5,-220 175.5,-239 259.5,-239 259.5,-220 175.5,-220"/>
<text text-anchor="middle" x="217.5" y="-227" font-family="Helvetica,sans-Serif" font-size="10.00">tryPatchPaths</text>
</a>
</g>
</g>
<!-- Node1&#45;&gt;Node19 -->
<g id="edge23" class="edge">
<title>Node1&#45;&gt;Node19</title>
<path fill="none" stroke="midnightblue" d="M55.89,-352.75C66.43,-330.5 95.43,-275.79 137,-248.5 148.39,-241.02 162.41,-236.48 175.5,-233.73"/>
</g>
<!-- Node20 -->
<g id="node15" class="node">
<title>Node20</title>
<g id="a_node15"><a xlink:href="structACSConfig.html#a9f893b7ab2412f42ef7a02423d755940" target="_top" xlink:title="Set satellite options for a specific satellite using a hierarchy of sources.">
<polygon fill="white" stroke="red" points="153.5,-182 153.5,-201 281.5,-201 281.5,-182 153.5,-182"/>
<text text-anchor="middle" x="217.5" y="-189" font-family="Helvetica,sans-Serif" font-size="10.00">ACSConfig::getSatOpts</text>
</a>
</g>
</g>
<!-- Node1&#45;&gt;Node20 -->
<g id="edge26" class="edge">
<title>Node1&#45;&gt;Node20</title>
<path fill="none" stroke="midnightblue" d="M53.98,-352.87C61.47,-325.81 86.49,-248.62 137,-210.5 142.1,-206.65 147.86,-203.57 153.89,-201.11"/>
</g>
<!-- Node28 -->
<g id="node16" class="node">
<title>Node28</title>
<g id="a_node16"><a xlink:href="structACSConfig.html#a7ddfbaf20a1c9181d73d0dabe92beace" target="_top" xlink:title="Set receiver options for a specific receiver using a hierarchy of sources.">
<polygon fill="white" stroke="red" points="152.5,-144 152.5,-163 282.5,-163 282.5,-144 152.5,-144"/>
<text text-anchor="middle" x="217.5" y="-151" font-family="Helvetica,sans-Serif" font-size="10.00">ACSConfig::getRecOpts</text>
</a>
</g>
</g>
<!-- Node1&#45;&gt;Node28 -->
<g id="edge27" class="edge">
<title>Node1&#45;&gt;Node28</title>
<path fill="none" stroke="midnightblue" d="M52.83,-352.82C57.68,-321.46 77.36,-221.85 137,-172.5 141.59,-168.7 146.82,-165.64 152.34,-163.17"/>
</g>
<!-- Node29 -->
<g id="node17" class="node">
<title>Node29</title>
<g id="a_node17"><a xlink:href="structACSConfig.html#a92bff361b02a9eb9de0296f29e7e1091" target="_top" xlink:title="Set minimum constraint options for a specific receiver using a hierarchy of sources.">
<polygon fill="white" stroke="black" points="143,-106 143,-125 292,-125 292,-106 143,-106"/>
<text text-anchor="middle" x="217.5" y="-113" font-family="Helvetica,sans-Serif" font-size="10.00">ACSConfig::getMinConOpts</text>
</a>
</g>
</g>
<!-- Node1&#45;&gt;Node29 -->
<g id="edge28" class="edge">
<title>Node1&#45;&gt;Node29</title>
<path fill="none" stroke="midnightblue" d="M52.03,-352.95C54.49,-317.94 67.92,-195.5 137,-134.5 141.36,-130.65 146.37,-127.54 151.69,-125.05"/>
</g>
<!-- Node30 -->
<g id="node18" class="node">
<title>Node30</title>
<g id="a_node18"><a xlink:href="structACSConfig.html#ad829bbeec8566a699e5dfefc7b8e6bd8" target="_top" xlink:title=" ">
<polygon fill="white" stroke="black" points="151,-50 151,-69 284,-69 284,-50 151,-50"/>
<text text-anchor="middle" x="217.5" y="-57" font-family="Helvetica,sans-Serif" font-size="10.00">ACSConfig::recurseYaml</text>
</a>
</g>
</g>
<!-- Node1&#45;&gt;Node30 -->
<g id="edge30" class="edge">
<title>Node1&#45;&gt;Node30</title>
<path fill="none" stroke="midnightblue" d="M51.91,-352.95C54,-315.45 66.38,-176.51 137,-96.5 148.48,-83.49 165.51,-74.73 180.85,-69.01"/>
</g>
<!-- Node31 -->
<g id="node19" class="node">
<title>Node31</title>
<g id="a_node19"><a xlink:href="structACSConfig.html#adac4596adc23c4983de95cb42618ba37" target="_top" xlink:title="Outputs default configuration and a configurator The default values, and descriptions of each paramet...">
<polygon fill="white" stroke="red" points="147,-0.5 147,-30.5 288,-30.5 288,-0.5 147,-0.5"/>
<text text-anchor="start" x="155" y="-18.5" font-family="Helvetica,sans-Serif" font-size="10.00">ACSConfig::outputDefault</text>
<text text-anchor="middle" x="217.5" y="-7.5" font-family="Helvetica,sans-Serif" font-size="10.00">Configuration</text>
</a>
</g>
</g>
<!-- Node1&#45;&gt;Node31 -->
<g id="edge32" class="edge">
<title>Node1&#45;&gt;Node31</title>
<path fill="none" stroke="midnightblue" d="M52.8,-352.87C59.5,-304.43 91.64,-87.96 137,-40.5 140.7,-36.63 144.99,-33.36 149.62,-30.59"/>
</g>
<!-- Node6&#45;&gt;Node4 -->
<g id="edge5" class="edge">
<title>Node6&#45;&gt;Node4</title>
<path fill="none" stroke="midnightblue" d="M423.21,-414.09C444.96,-419.85 472.55,-427.15 494.3,-432.91"/>
</g>
<!-- Node8&#45;&gt;Node6 -->
<g id="edge7" class="edge">
<title>Node8&#45;&gt;Node6</title>
<path fill="none" stroke="midnightblue" d="M262.26,-528.47C274.5,-525.66 287.35,-521.3 298,-514.5 339.05,-488.3 369.06,-435.9 380.22,-414.23"/>
</g>
<!-- Node10&#45;&gt;Node6 -->
<g id="edge9" class="edge">
<title>Node10&#45;&gt;Node6</title>
<path fill="none" stroke="midnightblue" d="M260.46,-485.92C272.91,-482.26 286.33,-477.5 298,-471.5 328.86,-455.64 359.81,-428.47 375.13,-414.08"/>
</g>
<!-- Node10&#45;&gt;Node11 -->
<g id="edge10" class="edge">
<title>Node10&#45;&gt;Node11</title>
<path fill="none" stroke="midnightblue" d="M273.19,-485.99C282.23,-482.55 290.93,-477.87 298,-471.5 328.77,-443.75 304.12,-414.21 334,-385.5 338.02,-381.64 342.9,-378.55 348.02,-376.08"/>
</g>
<!-- Node11&#45;&gt;Node4 -->
<g id="edge11" class="edge">
<title>Node11&#45;&gt;Node4</title>
<path fill="none" stroke="midnightblue" d="M415.74,-376.09C423.12,-378.85 430.95,-382.06 438,-385.5 467.32,-399.82 499.26,-420.82 516.88,-432.93"/>
</g>
<!-- Node14&#45;&gt;Node4 -->
<g id="edge15" class="edge">
<title>Node14&#45;&gt;Node4</title>
<path fill="none" stroke="midnightblue" d="M228.59,-391.04C247.47,-408.17 290.21,-443.53 334,-456.5 389.26,-472.87 456.9,-461.62 496.69,-452.02"/>
</g>
<!-- Node14&#45;&gt;Node6 -->
<g id="edge16" class="edge">
<title>Node14&#45;&gt;Node6</title>
<path fill="none" stroke="midnightblue" d="M283.35,-390.46C301.89,-393.02 321.7,-395.76 338.87,-398.13"/>
</g>
<!-- Node16&#45;&gt;Node4 -->
<g id="edge19" class="edge">
<title>Node16&#45;&gt;Node4</title>
<path fill="none" stroke="midnightblue" d="M235.92,-315.08C253.19,-325.2 279.66,-342.45 298,-362.5 319.25,-385.73 307.45,-406.59 334,-423.5 375.34,-449.82 431.81,-452.67 473.61,-450.05"/>
</g>
<!-- Node16&#45;&gt;Node6 -->
<g id="edge20" class="edge">
<title>Node16&#45;&gt;Node6</title>
<path fill="none" stroke="midnightblue" d="M231.95,-315.1C260.06,-335.11 323.3,-379.91 334,-385.5 340.78,-389.04 348.38,-392.25 355.6,-394.97"/>
</g>
<!-- Node16&#45;&gt;Node11 -->
<g id="edge21" class="edge">
<title>Node16&#45;&gt;Node11</title>
<path fill="none" stroke="midnightblue" d="M244.52,-315.03C275.7,-326.46 327.66,-345.49 358.89,-356.94"/>
</g>
<!-- Node19&#45;&gt;Node12 -->
<g id="edge25" class="edge">
<title>Node19&#45;&gt;Node12</title>
<path fill="none" stroke="midnightblue" d="M259.66,-237.66C287.01,-243.08 322.58,-250.13 348.84,-255.33"/>
</g>
<!-- Node19&#45;&gt;Node15 -->
<g id="edge24" class="edge">
<title>Node19&#45;&gt;Node15</title>
<path fill="none" stroke="midnightblue" d="M259.56,-235.18C272.37,-238.02 286.22,-242.24 298,-248.5 317.17,-258.68 317.28,-267.66 334,-281.5 346.25,-291.64 360.86,-302.39 371.29,-309.86"/>
</g>
<!-- Node29&#45;&gt;Node6 -->
<g id="edge29" class="edge">
<title>Node29&#45;&gt;Node6</title>
<path fill="none" stroke="midnightblue" d="M286.1,-125.11C290.51,-127.64 294.56,-130.73 298,-134.5 373.93,-217.77 263.28,-297.75 334,-385.5 337.08,-389.33 341.02,-392.38 345.33,-394.82"/>
</g>
<!-- Node30&#45;&gt;Node30 -->
<g id="edge31" class="edge">
<title>Node30&#45;&gt;Node30</title>
<path fill="none" stroke="midnightblue" d="M191.91,-69.26C179.47,-78.07 188,-87.5 217.5,-87.5 247,-87.5 255.53,-78.07 243.09,-69.26"/>
</g>
</g>
</svg>
        <g id="navigator" transform="translate(0 0)" fill="#404254">
                <rect fill="#f2f5e9" fill-opacity="0.5" stroke="#606060" stroke-width=".5" x="0" y="0" width="60" height="60"/>
                <use id="zoomplus" xlink:href="#zoomPlus" x="17" y="9" onmousedown="handleZoom(evt,'in')"/>
                <use id="zoomminus" xlink:href="#zoomMin" x="42" y="9" onmousedown="handleZoom(evt,'out')"/>
                <use id="reset" xlink:href="#resetDef" x="30" y="36" onmousedown="handleReset()"/>
                <g id="arrowUp" xlink:href="#dirArrow" transform="translate(30 24)" onmousedown="handlePan(0,-1)">
                  <use xlink:href="#rim" fill="#404040">
                        <set attributeName="fill" to="#808080" begin="arrowUp.mouseover" end="arrowUp.mouseout"/>
                  </use>
                  <path fill="none" stroke="white" stroke-width="1.5" d="M0,-3.0v7 M-2.5,-0.5L0,-3.0L2.5,-0.5"/>
                </g>
                <g id="arrowRight" xlink:href="#dirArrow" transform="rotate(90) translate(36 -43)" onmousedown="handlePan(1,0)">
                  <use xlink:href="#rim" fill="#404040">
                        <set attributeName="fill" to="#808080" begin="arrowRight.mouseover" end="arrowRight.mouseout"/>
                  </use>
                  <path fill="none" stroke="white" stroke-width="1.5" d="M0,-3.0v7 M-2.5,-0.5L0,-3.0L2.5,-0.5"/>
                </g>
                <g id="arrowDown" xlink:href="#dirArrow" transform="rotate(180) translate(-30 -48)" onmousedown="handlePan(0,1)">
                  <use xlink:href="#rim" fill="#404040">
                        <set attributeName="fill" to="#808080" begin="arrowDown.mouseover" end="arrowDown.mouseout"/>
                  </use>
                  <path fill="none" stroke="white" stroke-width="1.5" d="M0,-3.0v7 M-2.5,-0.5L0,-3.0L2.5,-0.5"/>
                </g>
                <g id="arrowLeft" xlink:href="#dirArrow" transform="rotate(270) translate(-36 17)" onmousedown="handlePan(-1,0)">
                  <use xlink:href="#rim" fill="#404040">
                        <set attributeName="fill" to="#808080" begin="arrowLeft.mouseover" end="arrowLeft.mouseout"/>
                  </use>
                  <path fill="none" stroke="white" stroke-width="1.5" d="M0,-3.0v7 M-2.5,-0.5L0,-3.0L2.5,-0.5"/>
                </g>
        </g>
        <svg viewBox="0 0 15 15" width="100%" height="30px" preserveAspectRatio="xMaxYMin meet">
         <g id="arrow_out" transform="scale(0.3 0.3)">
          <a xlink:href="structACSConfig_a7956bea37dde8338349a7a2971c530e6_cgraph_org.svg" target="_base">
           <rect id="button" ry="5" rx="5" y="6" x="6" height="38" width="38"
                fill="#f2f5e9" fill-opacity="0.5" stroke="#606060" stroke-width="1.0"/>
           <path id="arrow"
             d="M 11.500037,31.436501 C 11.940474,20.09759 22.043105,11.32322 32.158766,21.979434 L 37.068811,17.246167 C 37.068811,17.246167 37.088388,32 37.088388,32 L 22.160133,31.978069 C 22.160133,31.978069 26.997745,27.140456 26.997745,27.140456 C 18.528582,18.264221 13.291696,25.230495 11.500037,31.436501 z"
             style="fill:#404040;"/>
          </a>
         </g>
        </svg>
</svg>
