<?xml version="1.0" encoding="UTF-8" standalone="no"?>
<!DOCTYPE svg PUBLIC "-//W3C//DTD SVG 1.1//EN"
 "http://www.w3.org/Graphics/SVG/1.1/DTD/svg11.dtd">
<!-- Generated by graphviz version 2.43.0 (0)
 -->
<!-- Title: GeomagSecularVariation Pages: 1 -->
<svg width="146pt" height="171pt"
 viewBox="0.00 0.00 146.00 171.00" xmlns="http://www.w3.org/2000/svg" xmlns:xlink="http://www.w3.org/1999/xlink">
<g id="graph0" class="graph" transform="scale(1 1) rotate(0) translate(4 167)">
<title>GeomagSecularVariation</title>
<polygon fill="white" stroke="transparent" points="-4,4 -4,-167 142,-167 142,4 -4,4"/>
<!-- Node1 -->
<g id="node1" class="node">
<title>Node1</title>
<g id="a_node1"><a xlink:title="Structure for secular variation (SV) inherited from GeomagMainField.">
<polygon fill="#bfbfbf" stroke="black" points="0,-0.5 0,-57.5 138,-57.5 138,-0.5 0,-0.5"/>
<text text-anchor="middle" x="69" y="-45.5" font-family="Helvetica,sans-Serif" font-size="10.00">GeomagSecularVariation</text>
<polyline fill="none" stroke="black" points="0,-38.5 138,-38.5 "/>
<text text-anchor="start" x="8" y="-26.5" font-family="Helvetica,sans-Serif" font-size="10.00">+ yearEnd</text>
<polyline fill="none" stroke="black" points="0,-19.5 138,-19.5 "/>
<text text-anchor="middle" x="69" y="-7.5" font-family="Helvetica,sans-Serif" font-size="10.00"> </text>
</a>
</g>
</g>
<!-- Node2 -->
<g id="node2" class="node">
<title>Node2</title>
<g id="a_node2"><a xlink:href="structGeomagMainField.html" target="_top" xlink:title="Structure for variables related to the International Geomagnetic Reference Field 13th Generation Inte...">
<polygon fill="white" stroke="red" points="7.5,-94.5 7.5,-162.5 130.5,-162.5 130.5,-94.5 7.5,-94.5"/>
<text text-anchor="middle" x="69" y="-150.5" font-family="Helvetica,sans-Serif" font-size="10.00">GeomagMainField</text>
<polyline fill="none" stroke="red" points="7.5,-143.5 130.5,-143.5 "/>
<text text-anchor="start" x="15.5" y="-131.5" font-family="Helvetica,sans-Serif" font-size="10.00">+ year</text>
<text text-anchor="start" x="15.5" y="-120.5" font-family="Helvetica,sans-Serif" font-size="10.00">+ maxDegree</text>
<polyline fill="none" stroke="red" points="7.5,-113.5 130.5,-113.5 "/>
<text text-anchor="start" x="15.5" y="-101.5" font-family="Helvetica,sans-Serif" font-size="10.00">+ GeomagMainField()</text>
</a>
</g>
</g>
<!-- Node2&#45;&gt;Node1 -->
<g id="edge1" class="edge">
<title>Node2&#45;&gt;Node1</title>
<path fill="none" stroke="midnightblue" d="M69,-94.49C69,-82.56 69,-69.22 69,-57.78"/>
</g>
</g>
</svg>
