<?xml version="1.0" encoding="UTF-8" standalone="no"?>
<!DOCTYPE svg PUBLIC "-//W3C//DTD SVG 1.1//EN"
 "http://www.w3.org/Graphics/SVG/1.1/DTD/svg11.dtd">
<!-- Generated by graphviz version 2.43.0 (0)
 -->
<!-- Title: UbxParser::parse Pages: 1 -->
<svg width="292pt" height="263pt"
 viewBox="0.00 0.00 292.00 262.50" xmlns="http://www.w3.org/2000/svg" xmlns:xlink="http://www.w3.org/1999/xlink">
<g id="graph0" class="graph" transform="scale(1 1) rotate(0) translate(4 258.5)">
<title>UbxParser::parse</title>
<polygon fill="white" stroke="transparent" points="-4,4 -4,-258.5 288,-258.5 288,4 -4,4"/>
<!-- Node1 -->
<g id="node1" class="node">
<title>Node1</title>
<g id="a_node1"><a xlink:title=" ">
<polygon fill="#bfbfbf" stroke="black" points="0,-106.5 0,-125.5 99,-125.5 99,-106.5 0,-106.5"/>
<text text-anchor="middle" x="49.5" y="-113.5" font-family="Helvetica,sans-Serif" font-size="10.00">UbxParser::parse</text>
</a>
</g>
</g>
<!-- Node2 -->
<g id="node2" class="node">
<title>Node2</title>
<g id="a_node2"><a xlink:href="structPacketStatistics.html#a080db5e73adbd4447002c7b54f691f03" target="_top" xlink:title=" ">
<polygon fill="white" stroke="black" points="135.5,-224 135.5,-254 283.5,-254 283.5,-224 135.5,-224"/>
<text text-anchor="start" x="143.5" y="-242" font-family="Helvetica,sans-Serif" font-size="10.00">PacketStatistics::nonFrame</text>
<text text-anchor="middle" x="209.5" y="-231" font-family="Helvetica,sans-Serif" font-size="10.00">ByteFound</text>
</a>
</g>
</g>
<!-- Node1&#45;&gt;Node2 -->
<g id="edge1" class="edge">
<title>Node1&#45;&gt;Node2</title>
<path fill="none" stroke="midnightblue" d="M56.18,-125.71C68.22,-145.42 98.2,-190.36 135,-215 137.41,-216.61 139.93,-218.12 142.53,-219.53"/>
<polygon fill="midnightblue" stroke="midnightblue" points="141.1,-222.73 151.62,-223.98 144.18,-216.44 141.1,-222.73"/>
</g>
<!-- Node3 -->
<g id="node3" class="node">
<title>Node3</title>
<g id="a_node3"><a xlink:href="structPacketStatistics.html#ac2f8d993a9d06c8241746a66e642e1ca" target="_top" xlink:title=" ">
<polygon fill="white" stroke="black" points="136.5,-175 136.5,-205 282.5,-205 282.5,-175 136.5,-175"/>
<text text-anchor="start" x="144.5" y="-193" font-family="Helvetica,sans-Serif" font-size="10.00">PacketStatistics::preamble</text>
<text text-anchor="middle" x="209.5" y="-182" font-family="Helvetica,sans-Serif" font-size="10.00">Found</text>
</a>
</g>
</g>
<!-- Node1&#45;&gt;Node3 -->
<g id="edge2" class="edge">
<title>Node1&#45;&gt;Node3</title>
<path fill="none" stroke="midnightblue" d="M64.63,-125.67C81.01,-136.56 109.07,-154.26 135,-166 139.1,-167.86 143.39,-169.64 147.74,-171.33"/>
<polygon fill="midnightblue" stroke="midnightblue" points="146.75,-174.69 157.34,-174.9 149.18,-168.13 146.75,-174.69"/>
</g>
<!-- Node4 -->
<g id="node4" class="node">
<title>Node4</title>
<g id="a_node4"><a xlink:href="structPacketStatistics.html#a332885ac12f530a7fc8a15dfc81fe747" target="_top" xlink:title=" ">
<polygon fill="white" stroke="black" points="135,-126 135,-156 284,-156 284,-126 135,-126"/>
<text text-anchor="start" x="143" y="-144" font-family="Helvetica,sans-Serif" font-size="10.00">PacketStatistics::checksum</text>
<text text-anchor="middle" x="209.5" y="-133" font-family="Helvetica,sans-Serif" font-size="10.00">Failure</text>
</a>
</g>
</g>
<!-- Node1&#45;&gt;Node4 -->
<g id="edge3" class="edge">
<title>Node1&#45;&gt;Node4</title>
<path fill="none" stroke="midnightblue" d="M99.19,-123.7C107.43,-125.01 116.18,-126.39 125.01,-127.79"/>
<polygon fill="midnightblue" stroke="midnightblue" points="124.56,-131.26 134.98,-129.37 125.65,-124.35 124.56,-131.26"/>
</g>
<!-- Node5 -->
<g id="node5" class="node">
<title>Node5</title>
<g id="a_node5"><a xlink:href="structPacketStatistics.html#a2718aa30f1f5cacbd389d6037a1c64a9" target="_top" xlink:title=" ">
<polygon fill="white" stroke="black" points="135,-77 135,-107 284,-107 284,-77 135,-77"/>
<text text-anchor="start" x="143" y="-95" font-family="Helvetica,sans-Serif" font-size="10.00">PacketStatistics::checksum</text>
<text text-anchor="middle" x="209.5" y="-84" font-family="Helvetica,sans-Serif" font-size="10.00">Success</text>
</a>
</g>
</g>
<!-- Node1&#45;&gt;Node5 -->
<g id="edge4" class="edge">
<title>Node1&#45;&gt;Node5</title>
<path fill="none" stroke="midnightblue" d="M99.19,-108.6C107.43,-107.35 116.18,-106.02 125.01,-104.68"/>
<polygon fill="midnightblue" stroke="midnightblue" points="125.62,-108.13 134.98,-103.17 124.57,-101.21 125.62,-108.13"/>
</g>
<!-- Node6 -->
<g id="node6" class="node">
<title>Node6</title>
<g id="a_node6"><a xlink:href="structUbxDecoder.html#aa35149a4941f2c428d8dda15c6390efa" target="_top" xlink:title=" ">
<polygon fill="white" stroke="black" points="137.5,-38.5 137.5,-57.5 281.5,-57.5 281.5,-38.5 137.5,-38.5"/>
<text text-anchor="middle" x="209.5" y="-45.5" font-family="Helvetica,sans-Serif" font-size="10.00">UbxDecoder::recordFrame</text>
</a>
</g>
</g>
<!-- Node1&#45;&gt;Node6 -->
<g id="edge5" class="edge">
<title>Node1&#45;&gt;Node6</title>
<path fill="none" stroke="midnightblue" d="M64.89,-106.33C81.26,-95.69 109.11,-78.68 135,-68 141.81,-65.19 149.13,-62.66 156.43,-60.42"/>
<polygon fill="midnightblue" stroke="midnightblue" points="157.68,-63.7 166.3,-57.54 155.72,-56.98 157.68,-63.7"/>
</g>
<!-- Node7 -->
<g id="node7" class="node">
<title>Node7</title>
<g id="a_node7"><a xlink:href="structUbxDecoder.html#a4b74cd3c51f08160ca5949d75393bb68" target="_top" xlink:title=" ">
<polygon fill="white" stroke="red" points="150.5,-0.5 150.5,-19.5 268.5,-19.5 268.5,-0.5 150.5,-0.5"/>
<text text-anchor="middle" x="209.5" y="-7.5" font-family="Helvetica,sans-Serif" font-size="10.00">UbxDecoder::decode</text>
</a>
</g>
</g>
<!-- Node1&#45;&gt;Node7 -->
<g id="edge6" class="edge">
<title>Node1&#45;&gt;Node7</title>
<path fill="none" stroke="midnightblue" d="M56.95,-106.5C69.68,-88.5 99.87,-49.42 135,-29 138.72,-26.84 142.68,-24.92 146.77,-23.22"/>
<polygon fill="midnightblue" stroke="midnightblue" points="148.31,-26.38 156.47,-19.62 145.88,-19.82 148.31,-26.38"/>
</g>
</g>
</svg>
