<?xml version="1.0" encoding="UTF-8" standalone="no"?>
<!DOCTYPE svg PUBLIC "-//W3C//DTD SVG 1.1//EN"
 "http://www.w3.org/Graphics/SVG/1.1/DTD/svg11.dtd">
<!-- Generated by graphviz version 2.43.0 (0)
 -->
<!-- Title: UbxDecoder::decodeSFRBX Pages: 1 -->
<svg width="366pt" height="66pt"
 viewBox="0.00 0.00 366.00 66.00" xmlns="http://www.w3.org/2000/svg" xmlns:xlink="http://www.w3.org/1999/xlink">
<g id="graph0" class="graph" transform="scale(1 1) rotate(0) translate(4 62)">
<title>UbxDecoder::decodeSFRBX</title>
<polygon fill="white" stroke="transparent" points="-4,4 -4,-62 362,-62 362,4 -4,4"/>
<!-- Node1 -->
<g id="node1" class="node">
<title>Node1</title>
<g id="a_node1"><a xlink:title=" ">
<polygon fill="#bfbfbf" stroke="black" points="0,-19.5 0,-38.5 150,-38.5 150,-19.5 0,-19.5"/>
<text text-anchor="middle" x="75" y="-26.5" font-family="Helvetica,sans-Serif" font-size="10.00">UbxDecoder::decodeSFRBX</text>
</a>
</g>
</g>
<!-- Node2 -->
<g id="node2" class="node">
<title>Node2</title>
<g id="a_node2"><a xlink:href="ubxDecoder_8cpp.html#a3f7c471b91d0090e112befb07c810ee0" target="_top" xlink:title=" ">
<polygon fill="white" stroke="black" points="220,-38.5 220,-57.5 324,-57.5 324,-38.5 220,-38.5"/>
<text text-anchor="middle" x="272" y="-45.5" font-family="Helvetica,sans-Serif" font-size="10.00">gpsBitUFromWord</text>
</a>
</g>
</g>
<!-- Node1&#45;&gt;Node2 -->
<g id="edge1" class="edge">
<title>Node1&#45;&gt;Node2</title>
<path fill="none" stroke="midnightblue" d="M150.28,-36.24C169.98,-38.16 191.03,-40.21 209.95,-42.05"/>
<polygon fill="midnightblue" stroke="midnightblue" points="209.63,-45.54 219.92,-43.02 210.3,-38.57 209.63,-45.54"/>
</g>
<!-- Node3 -->
<g id="node3" class="node">
<title>Node3</title>
<g id="a_node3"><a xlink:href="structUbxDecoder.html#a3edfc6fc421d31970881abd2f6db1f6d" target="_top" xlink:title=" ">
<polygon fill="white" stroke="red" points="186,-0.5 186,-19.5 358,-19.5 358,-0.5 186,-0.5"/>
<text text-anchor="middle" x="272" y="-7.5" font-family="Helvetica,sans-Serif" font-size="10.00">UbxDecoder::decodeEphFrames</text>
</a>
</g>
</g>
<!-- Node1&#45;&gt;Node3 -->
<g id="edge2" class="edge">
<title>Node1&#45;&gt;Node3</title>
<path fill="none" stroke="midnightblue" d="M150.28,-21.76C158.63,-20.95 167.23,-20.11 175.8,-19.28"/>
<polygon fill="midnightblue" stroke="midnightblue" points="176.22,-22.75 185.84,-18.3 175.55,-15.78 176.22,-22.75"/>
</g>
</g>
</svg>
