<?xml version="1.0" encoding="UTF-8" standalone="no"?>
<!DOCTYPE svg PUBLIC "-//W3C//DTD SVG 1.1//EN"
 "http://www.w3.org/Graphics/SVG/1.1/DTD/svg11.dtd">
<!-- Generated by graphviz version 2.43.0 (0)
 -->
<!-- Title: CommonKalmans Pages: 1 -->
<svg width="228pt" height="336pt"
 viewBox="0.00 0.00 228.00 336.00" xmlns="http://www.w3.org/2000/svg" xmlns:xlink="http://www.w3.org/1999/xlink">
<g id="graph0" class="graph" transform="scale(1 1) rotate(0) translate(4 332)">
<title>CommonKalmans</title>
<polygon fill="white" stroke="transparent" points="-4,4 -4,-332 224,-332 224,4 -4,4"/>
<!-- Node1 -->
<g id="node1" class="node">
<title>Node1</title>
<g id="a_node1"><a xlink:title=" ">
<polygon fill="#bfbfbf" stroke="black" points="58,-193.5 58,-327.5 162,-327.5 162,-193.5 58,-193.5"/>
<text text-anchor="middle" x="110" y="-315.5" font-family="Helvetica,sans-Serif" font-size="10.00">CommonKalmans</text>
<polyline fill="none" stroke="black" points="58,-308.5 162,-308.5 "/>
<text text-anchor="start" x="66" y="-296.5" font-family="Helvetica,sans-Serif" font-size="10.00">+ pos</text>
<text text-anchor="start" x="66" y="-285.5" font-family="Helvetica,sans-Serif" font-size="10.00">+ pos_rate</text>
<text text-anchor="start" x="66" y="-274.5" font-family="Helvetica,sans-Serif" font-size="10.00">+ orbit</text>
<text text-anchor="start" x="66" y="-263.5" font-family="Helvetica,sans-Serif" font-size="10.00">+ clk</text>
<text text-anchor="start" x="66" y="-252.5" font-family="Helvetica,sans-Serif" font-size="10.00">+ clk_rate</text>
<text text-anchor="start" x="66" y="-241.5" font-family="Helvetica,sans-Serif" font-size="10.00">+ code_bias</text>
<text text-anchor="start" x="66" y="-230.5" font-family="Helvetica,sans-Serif" font-size="10.00">+ phase_bias</text>
<text text-anchor="start" x="66" y="-219.5" font-family="Helvetica,sans-Serif" font-size="10.00">+ pco</text>
<polyline fill="none" stroke="black" points="58,-212.5 162,-212.5 "/>
<text text-anchor="start" x="66" y="-200.5" font-family="Helvetica,sans-Serif" font-size="10.00">+ operator+=()</text>
</a>
</g>
</g>
<!-- Node2 -->
<g id="node2" class="node">
<title>Node2</title>
<g id="a_node2"><a xlink:href="structReceiverKalmans.html" target="_top" xlink:title=" ">
<polygon fill="white" stroke="red" points="0,-0.5 0,-156.5 102,-156.5 102,-0.5 0,-0.5"/>
<text text-anchor="middle" x="51" y="-144.5" font-family="Helvetica,sans-Serif" font-size="10.00">ReceiverKalmans</text>
<polyline fill="none" stroke="red" points="0,-137.5 102,-137.5 "/>
<text text-anchor="start" x="8" y="-125.5" font-family="Helvetica,sans-Serif" font-size="10.00">+ ambiguity</text>
<text text-anchor="start" x="8" y="-114.5" font-family="Helvetica,sans-Serif" font-size="10.00">+ strain_rate</text>
<text text-anchor="start" x="8" y="-103.5" font-family="Helvetica,sans-Serif" font-size="10.00">+ slr_range_bias</text>
<text text-anchor="start" x="8" y="-92.5" font-family="Helvetica,sans-Serif" font-size="10.00">+ slr_time_bias</text>
<text text-anchor="start" x="8" y="-81.5" font-family="Helvetica,sans-Serif" font-size="10.00">+ pcv</text>
<text text-anchor="start" x="8" y="-70.5" font-family="Helvetica,sans-Serif" font-size="10.00">+ ion_stec</text>
<text text-anchor="start" x="8" y="-59.5" font-family="Helvetica,sans-Serif" font-size="10.00">+ ion_model</text>
<text text-anchor="start" x="8" y="-48.5" font-family="Helvetica,sans-Serif" font-size="10.00">+ trop</text>
<text text-anchor="start" x="8" y="-37.5" font-family="Helvetica,sans-Serif" font-size="10.00">+ trop_grads</text>
<text text-anchor="start" x="8" y="-26.5" font-family="Helvetica,sans-Serif" font-size="10.00">+ trop_maps</text>
<polyline fill="none" stroke="red" points="0,-19.5 102,-19.5 "/>
<text text-anchor="start" x="8" y="-7.5" font-family="Helvetica,sans-Serif" font-size="10.00">+ operator+=()</text>
</a>
</g>
</g>
<!-- Node1&#45;&gt;Node2 -->
<g id="edge1" class="edge">
<title>Node1&#45;&gt;Node2</title>
<path fill="none" stroke="midnightblue" d="M85.21,-183.87C82.27,-174.91 79.27,-165.76 76.33,-156.78"/>
<polygon fill="none" stroke="midnightblue" points="81.92,-185.08 88.37,-193.5 88.58,-182.9 81.92,-185.08"/>
</g>
<!-- Node4 -->
<g id="node3" class="node">
<title>Node4</title>
<g id="a_node3"><a xlink:href="structSatelliteKalmans.html" target="_top" xlink:title=" ">
<polygon fill="white" stroke="red" points="120,-50 120,-107 220,-107 220,-50 120,-50"/>
<text text-anchor="middle" x="170" y="-95" font-family="Helvetica,sans-Serif" font-size="10.00">SatelliteKalmans</text>
<polyline fill="none" stroke="red" points="120,-88 220,-88 "/>
<text text-anchor="middle" x="170" y="-76" font-family="Helvetica,sans-Serif" font-size="10.00"> </text>
<polyline fill="none" stroke="red" points="120,-69 220,-69 "/>
<text text-anchor="start" x="128" y="-57" font-family="Helvetica,sans-Serif" font-size="10.00">+ operator+=()</text>
</a>
</g>
</g>
<!-- Node1&#45;&gt;Node4 -->
<g id="edge2" class="edge">
<title>Node1&#45;&gt;Node4</title>
<path fill="none" stroke="midnightblue" d="M135.17,-183.99C144.21,-156.86 153.86,-127.92 160.7,-107.39"/>
<polygon fill="none" stroke="midnightblue" points="131.84,-182.9 132,-193.5 138.48,-185.12 131.84,-182.9"/>
</g>
</g>
</svg>
