<?xml version="1.0" encoding="UTF-8" standalone="no"?>
<!DOCTYPE svg PUBLIC "-//W3C//DTD SVG 1.1//EN"
 "http://www.w3.org/Graphics/SVG/1.1/DTD/svg11.dtd">
<!-- Generated by graphviz version 2.43.0 (0)
 -->
<!-- Title: TidalDisplacement Pages: 1 -->
<svg width="123pt" height="292pt"
 viewBox="0.00 0.00 123.00 292.00" xmlns="http://www.w3.org/2000/svg" xmlns:xlink="http://www.w3.org/1999/xlink">
<g id="graph0" class="graph" transform="scale(1 1) rotate(0) translate(4 288)">
<title>TidalDisplacement</title>
<polygon fill="white" stroke="transparent" points="-4,4 -4,-288 119,-288 119,4 -4,4"/>
<!-- Node1 -->
<g id="node1" class="node">
<title>Node1</title>
<g id="a_node1"><a xlink:title="Structure of ocean/atmospheric tide loading displacements in amplitude and phase.">
<polygon fill="#bfbfbf" stroke="black" points="0,-0.5 0,-57.5 108,-57.5 108,-0.5 0,-0.5"/>
<text text-anchor="middle" x="54" y="-45.5" font-family="Helvetica,sans-Serif" font-size="10.00">TidalDisplacement</text>
<polyline fill="none" stroke="black" points="0,-38.5 108,-38.5 "/>
<text text-anchor="middle" x="54" y="-26.5" font-family="Helvetica,sans-Serif" font-size="10.00"> </text>
<polyline fill="none" stroke="black" points="0,-19.5 108,-19.5 "/>
<text text-anchor="middle" x="54" y="-7.5" font-family="Helvetica,sans-Serif" font-size="10.00"> </text>
</a>
</g>
</g>
<!-- Node2 -->
<g id="node2" class="node">
<title>Node2</title>
<g id="a_node2"><a xlink:href="structVectorEnu.html" target="_top" xlink:title=" ">
<polygon fill="white" stroke="red" points="11.5,-116.5 11.5,-283.5 96.5,-283.5 96.5,-116.5 11.5,-116.5"/>
<text text-anchor="middle" x="54" y="-271.5" font-family="Helvetica,sans-Serif" font-size="10.00">VectorEnu</text>
<polyline fill="none" stroke="red" points="11.5,-264.5 96.5,-264.5 "/>
<text text-anchor="middle" x="54" y="-252.5" font-family="Helvetica,sans-Serif" font-size="10.00"> </text>
<polyline fill="none" stroke="red" points="11.5,-245.5 96.5,-245.5 "/>
<text text-anchor="start" x="19.5" y="-233.5" font-family="Helvetica,sans-Serif" font-size="10.00">+ VectorEnu()</text>
<text text-anchor="start" x="19.5" y="-222.5" font-family="Helvetica,sans-Serif" font-size="10.00">+ VectorEnu()</text>
<text text-anchor="start" x="19.5" y="-211.5" font-family="Helvetica,sans-Serif" font-size="10.00">+ operator=()</text>
<text text-anchor="start" x="19.5" y="-200.5" font-family="Helvetica,sans-Serif" font-size="10.00">+ operator*()</text>
<text text-anchor="start" x="19.5" y="-189.5" font-family="Helvetica,sans-Serif" font-size="10.00">+ operator&#45;()</text>
<text text-anchor="start" x="19.5" y="-178.5" font-family="Helvetica,sans-Serif" font-size="10.00">+ operator+()</text>
<text text-anchor="start" x="19.5" y="-167.5" font-family="Helvetica,sans-Serif" font-size="10.00">+ e()</text>
<text text-anchor="start" x="19.5" y="-156.5" font-family="Helvetica,sans-Serif" font-size="10.00">+ n()</text>
<text text-anchor="start" x="19.5" y="-145.5" font-family="Helvetica,sans-Serif" font-size="10.00">+ u()</text>
<text text-anchor="start" x="19.5" y="-134.5" font-family="Helvetica,sans-Serif" font-size="10.00">+ r()</text>
<text text-anchor="start" x="19.5" y="-123.5" font-family="Helvetica,sans-Serif" font-size="10.00">+ f()</text>
</a>
</g>
</g>
<!-- Node2&#45;&gt;Node1 -->
<g id="edge1" class="edge">
<title>Node2&#45;&gt;Node1</title>
<path fill="none" stroke="#404040" d="M54,-116.48C54,-100.19 54,-83.79 54,-69.73"/>
<polygon fill="none" stroke="#404040" points="54,-69.53 50,-63.53 54,-57.53 58,-63.53 54,-69.53"/>
<text text-anchor="middle" x="84.5" y="-90" font-family="Helvetica,sans-Serif" font-size="10.00"> +amplitude</text>
<text text-anchor="middle" x="84.5" y="-79" font-family="Helvetica,sans-Serif" font-size="10.00">+phase</text>
</g>
</g>
</svg>
