<?xml version="1.0" encoding="UTF-8" standalone="no"?>
<!DOCTYPE svg PUBLIC "-//W3C//DTD SVG 1.1//EN"
 "http://www.w3.org/Graphics/SVG/1.1/DTD/svg11.dtd">
<!-- Generated by graphviz version 2.43.0 (0)
 -->
<!-- Title: ACSConfig::info Pages: 1 -->
<svg width="335pt" height="47pt"
 viewBox="0.00 0.00 335.00 47.00" xmlns="http://www.w3.org/2000/svg" xmlns:xlink="http://www.w3.org/1999/xlink">
<g id="graph0" class="graph" transform="scale(1 1) rotate(0) translate(4 43)">
<title>ACSConfig::info</title>
<polygon fill="white" stroke="transparent" points="-4,4 -4,-43 331,-43 331,4 -4,4"/>
<!-- Node1 -->
<g id="node1" class="node">
<title>Node1</title>
<g id="a_node1"><a xlink:title="Print out the configuration data that has been read in.">
<polygon fill="#bfbfbf" stroke="black" points="235,-19.5 235,-38.5 327,-38.5 327,-19.5 235,-19.5"/>
<text text-anchor="middle" x="281" y="-26.5" font-family="Helvetica,sans-Serif" font-size="10.00">ACSConfig::info</text>
</a>
</g>
</g>
<!-- Node2 -->
<g id="node2" class="node">
<title>Node2</title>
<g id="a_node2"><a xlink:href="acsConfig_8cpp.html#a428af53af7dd917738fb5d204948f74f" target="_top" xlink:title="Prepare the configuration of the program.">
<polygon fill="white" stroke="red" points="0,-19.5 0,-38.5 62,-38.5 62,-19.5 0,-19.5"/>
<text text-anchor="middle" x="31" y="-26.5" font-family="Helvetica,sans-Serif" font-size="10.00">configure</text>
</a>
</g>
</g>
<!-- Node1&#45;&gt;Node2 -->
<g id="edge1" class="edge">
<title>Node1&#45;&gt;Node2</title>
<path fill="none" stroke="midnightblue" d="M234.8,-29C184.65,-29 105.12,-29 62.07,-29"/>
</g>
<!-- Node5 -->
<g id="node3" class="node">
<title>Node5</title>
<g id="a_node3"><a xlink:href="structACSConfig.html#a33ef8a76d552f3e0e34cb950f7b730ee" target="_top" xlink:title="Parse options to set acsConfig values.">
<polygon fill="white" stroke="red" points="98,-0.5 98,-19.5 199,-19.5 199,-0.5 98,-0.5"/>
<text text-anchor="middle" x="148.5" y="-7.5" font-family="Helvetica,sans-Serif" font-size="10.00">ACSConfig::parse</text>
</a>
</g>
</g>
<!-- Node1&#45;&gt;Node5 -->
<g id="edge2" class="edge">
<title>Node1&#45;&gt;Node5</title>
<path fill="none" stroke="midnightblue" d="M234.72,-22.41C223.24,-20.74 210.84,-18.93 199.15,-17.23"/>
</g>
<!-- Node5&#45;&gt;Node2 -->
<g id="edge3" class="edge">
<title>Node5&#45;&gt;Node2</title>
<path fill="none" stroke="midnightblue" d="M97.85,-18.17C85.74,-20.16 73.15,-22.23 62.26,-24.02"/>
</g>
</g>
</svg>
