<?xml version="1.0" encoding="UTF-8" standalone="no"?>
<!DOCTYPE svg PUBLIC "-//W3C//DTD SVG 1.1//EN"
 "http://www.w3.org/Graphics/SVG/1.1/DTD/svg11.dtd">
<!-- Generated by graphviz version 2.43.0 (0)
 -->
<!-- Title: ACSFileStream::FileState Pages: 1 -->
<svg width="148pt" height="182pt"
 viewBox="0.00 0.00 148.00 182.00" xmlns="http://www.w3.org/2000/svg" xmlns:xlink="http://www.w3.org/1999/xlink">
<g id="graph0" class="graph" transform="scale(1 1) rotate(0) translate(4 178)">
<title>ACSFileStream::FileState</title>
<polygon fill="white" stroke="transparent" points="-4,4 -4,-178 144,-178 144,4 -4,4"/>
<!-- Node1 -->
<g id="node1" class="node">
<title>Node1</title>
<g id="a_node1"><a xlink:title=" ">
<polygon fill="#bfbfbf" stroke="black" points="0,-0.5 0,-68.5 136,-68.5 136,-0.5 0,-0.5"/>
<text text-anchor="middle" x="68" y="-56.5" font-family="Helvetica,sans-Serif" font-size="10.00">ACSFileStream::FileState</text>
<polyline fill="none" stroke="black" points="0,-49.5 136,-49.5 "/>
<text text-anchor="start" x="8" y="-37.5" font-family="Helvetica,sans-Serif" font-size="10.00">+ filePos</text>
<polyline fill="none" stroke="black" points="0,-30.5 136,-30.5 "/>
<text text-anchor="start" x="8" y="-18.5" font-family="Helvetica,sans-Serif" font-size="10.00">+ FileState()</text>
<text text-anchor="start" x="8" y="-7.5" font-family="Helvetica,sans-Serif" font-size="10.00">+ ~FileState()</text>
</a>
</g>
</g>
<!-- Node2 -->
<g id="node2" class="node">
<title>Node2</title>
<g id="a_node2"><a xlink:title=" ">
<polygon fill="white" stroke="black" points="39,-116.5 39,-173.5 97,-173.5 97,-116.5 39,-116.5"/>
<text text-anchor="middle" x="68" y="-161.5" font-family="Helvetica,sans-Serif" font-size="10.00">ifstream</text>
<polyline fill="none" stroke="black" points="39,-154.5 97,-154.5 "/>
<text text-anchor="middle" x="68" y="-142.5" font-family="Helvetica,sans-Serif" font-size="10.00"> </text>
<polyline fill="none" stroke="black" points="39,-135.5 97,-135.5 "/>
<text text-anchor="middle" x="68" y="-123.5" font-family="Helvetica,sans-Serif" font-size="10.00"> </text>
</a>
</g>
</g>
<!-- Node2&#45;&gt;Node1 -->
<g id="edge1" class="edge">
<title>Node2&#45;&gt;Node1</title>
<path fill="none" stroke="#404040" d="M68,-116.34C68,-101.77 68,-83.81 68,-68.52"/>
<text text-anchor="middle" x="104" y="-90" font-family="Helvetica,sans-Serif" font-size="10.00"> +inputStream</text>
</g>
</g>
</svg>
