<?xml version="1.0" encoding="UTF-8" standalone="no"?>
<!DOCTYPE svg PUBLIC "-//W3C//DTD SVG 1.1//EN"
 "http://www.w3.org/Graphics/SVG/1.1/DTD/svg11.dtd">
<!-- Generated by graphviz version 2.43.0 (0)
 -->
<!-- Title: VectorEnu::u Pages: 1 -->
<svg width="268pt" height="180pt"
 viewBox="0.00 0.00 268.00 180.00" xmlns="http://www.w3.org/2000/svg" xmlns:xlink="http://www.w3.org/1999/xlink">
<g id="graph0" class="graph" transform="scale(1 1) rotate(0) translate(4 176)">
<title>VectorEnu::u</title>
<polygon fill="white" stroke="transparent" points="-4,4 -4,-176 264,-176 264,4 -4,4"/>
<!-- Node1 -->
<g id="node1" class="node">
<title>Node1</title>
<g id="a_node1"><a xlink:title=" ">
<polygon fill="#bfbfbf" stroke="black" points="182,-76.5 182,-95.5 260,-95.5 260,-76.5 182,-76.5"/>
<text text-anchor="middle" x="221" y="-83.5" font-family="Helvetica,sans-Serif" font-size="10.00">VectorEnu::u</text>
</a>
</g>
</g>
<!-- Node2 -->
<g id="node2" class="node">
<title>Node2</title>
<g id="a_node2"><a xlink:href="antenna_8cpp.html#ae23e7dede27378f5a445120a5ae13e62" target="_top" xlink:title="Read antex file.">
<polygon fill="white" stroke="red" points="38,-152.5 38,-171.5 108,-171.5 108,-152.5 38,-152.5"/>
<text text-anchor="middle" x="73" y="-159.5" font-family="Helvetica,sans-Serif" font-size="10.00">readantexf</text>
</a>
</g>
</g>
<!-- Node1&#45;&gt;Node2 -->
<g id="edge1" class="edge">
<title>Node1&#45;&gt;Node2</title>
<path fill="none" stroke="midnightblue" d="M210.34,-95.53C196.98,-108.18 171.61,-130.4 146,-143 134.28,-148.76 120.61,-152.94 108.34,-155.88"/>
</g>
<!-- Node7 -->
<g id="node3" class="node">
<title>Node7</title>
<g id="a_node3"><a xlink:href="cost_8cpp.html#a6fb9f6966f5c24817f83f4dd46ed354c" target="_top" xlink:title="Outputs troposphere COST file.">
<polygon fill="white" stroke="red" points="38,-114.5 38,-133.5 108,-133.5 108,-114.5 38,-114.5"/>
<text text-anchor="middle" x="73" y="-121.5" font-family="Helvetica,sans-Serif" font-size="10.00">outputCost</text>
</a>
</g>
</g>
<!-- Node1&#45;&gt;Node7 -->
<g id="edge2" class="edge">
<title>Node1&#45;&gt;Node7</title>
<path fill="none" stroke="midnightblue" d="M183.16,-95.59C160.18,-101.57 130.81,-109.21 108.32,-115.07"/>
</g>
<!-- Node9 -->
<g id="node4" class="node">
<title>Node9</title>
<g id="a_node4"><a xlink:href="sinex_8cpp.html#ab8695a6ca620f537ebb155fc912d8956" target="_top" xlink:title=" ">
<polygon fill="white" stroke="red" points="0,-76.5 0,-95.5 146,-95.5 146,-76.5 0,-76.5"/>
<text text-anchor="middle" x="73" y="-83.5" font-family="Helvetica,sans-Serif" font-size="10.00">parse_snx_siteEccentricity</text>
</a>
</g>
</g>
<!-- Node1&#45;&gt;Node9 -->
<g id="edge3" class="edge">
<title>Node1&#45;&gt;Node9</title>
<path fill="none" stroke="midnightblue" d="M181.64,-86C170.66,-86 158.31,-86 146,-86"/>
</g>
<!-- Node11 -->
<g id="node5" class="node">
<title>Node11</title>
<g id="a_node5"><a xlink:href="geomagField_8cpp.html#a1a9089a9e8fb29db7da8a88c9abcf491" target="_top" xlink:title="Compute the geomagnetic field components in geocentric local reference system at given time and posit...">
<polygon fill="white" stroke="red" points="15,-38.5 15,-57.5 131,-57.5 131,-38.5 15,-38.5"/>
<text text-anchor="middle" x="73" y="-45.5" font-family="Helvetica,sans-Serif" font-size="10.00">getGeomagIntensity</text>
</a>
</g>
</g>
<!-- Node1&#45;&gt;Node11 -->
<g id="edge4" class="edge">
<title>Node1&#45;&gt;Node11</title>
<path fill="none" stroke="midnightblue" d="M183.16,-76.41C160.94,-70.63 132.75,-63.29 110.58,-57.52"/>
</g>
<!-- Node20 -->
<g id="node6" class="node">
<title>Node20</title>
<g id="a_node6"><a xlink:href="rtkcmn_8cpp.html#a92e93b72fd75166d63c2e9424940af43" target="_top" xlink:title="satellite azimuth/elevation angle">
<polygon fill="white" stroke="red" points="47,-0.5 47,-19.5 99,-19.5 99,-0.5 47,-0.5"/>
<text text-anchor="middle" x="73" y="-7.5" font-family="Helvetica,sans-Serif" font-size="10.00">satazel</text>
</a>
</g>
</g>
<!-- Node1&#45;&gt;Node20 -->
<g id="edge5" class="edge">
<title>Node1&#45;&gt;Node20</title>
<path fill="none" stroke="midnightblue" d="M210.34,-76.47C196.98,-63.82 171.61,-41.6 146,-29 131.27,-21.75 113.43,-17.02 99.2,-14.09"/>
</g>
</g>
</svg>
