<?xml version="1.0" encoding="UTF-8" standalone="no"?>
<!DOCTYPE svg PUBLIC "-//W3C//DTD SVG 1.1//EN"
 "http://www.w3.org/Graphics/SVG/1.1/DTD/svg11.dtd">
<!-- Generated by graphviz version 2.43.0 (0)
 -->
<!-- Title: StationLogs Pages: 1 -->
<svg width="107pt" height="347pt"
 viewBox="0.00 0.00 107.00 347.00" xmlns="http://www.w3.org/2000/svg" xmlns:xlink="http://www.w3.org/1999/xlink">
<g id="graph0" class="graph" transform="scale(1 1) rotate(0) translate(4 343)">
<title>StationLogs</title>
<polygon fill="white" stroke="transparent" points="-4,4 -4,-343 103,-343 103,4 -4,4"/>
<!-- Node1 -->
<g id="node1" class="node">
<title>Node1</title>
<g id="a_node1"><a xlink:title=" ">
<polygon fill="#bfbfbf" stroke="black" points="6.5,-215.5 6.5,-338.5 92.5,-338.5 92.5,-215.5 6.5,-215.5"/>
<text text-anchor="middle" x="49.5" y="-326.5" font-family="Helvetica,sans-Serif" font-size="10.00">StationLogs</text>
<polyline fill="none" stroke="black" points="6.5,-319.5 92.5,-319.5 "/>
<text text-anchor="start" x="14.5" y="-307.5" font-family="Helvetica,sans-Serif" font-size="10.00">+ firstEpoch</text>
<text text-anchor="start" x="14.5" y="-296.5" font-family="Helvetica,sans-Serif" font-size="10.00">+ lastEpoch</text>
<text text-anchor="start" x="14.5" y="-285.5" font-family="Helvetica,sans-Serif" font-size="10.00">+ epochCount</text>
<text text-anchor="start" x="14.5" y="-274.5" font-family="Helvetica,sans-Serif" font-size="10.00">+ obsCount</text>
<text text-anchor="start" x="14.5" y="-263.5" font-family="Helvetica,sans-Serif" font-size="10.00">+ slipCount</text>
<text text-anchor="start" x="14.5" y="-252.5" font-family="Helvetica,sans-Serif" font-size="10.00">+ codeCount</text>
<text text-anchor="start" x="14.5" y="-241.5" font-family="Helvetica,sans-Serif" font-size="10.00">+ satCount</text>
<polyline fill="none" stroke="black" points="6.5,-234.5 92.5,-234.5 "/>
<text text-anchor="middle" x="49.5" y="-222.5" font-family="Helvetica,sans-Serif" font-size="10.00"> </text>
</a>
</g>
</g>
<!-- Node2 -->
<g id="node2" class="node">
<title>Node2</title>
<g id="a_node2"><a xlink:href="$structStation.html" xlink:title="Object to maintain receiver station data.">
<polygon fill="white" stroke="black" points="0,-0.5 0,-178.5 99,-178.5 99,-0.5 0,-0.5"/>
<text text-anchor="middle" x="49.5" y="-166.5" font-family="Helvetica,sans-Serif" font-size="10.00">Station</text>
<polyline fill="none" stroke="black" points="0,-159.5 99,-159.5 "/>
<text text-anchor="start" x="8" y="-147.5" font-family="Helvetica,sans-Serif" font-size="10.00">+ rnxStation</text>
<text text-anchor="start" x="8" y="-136.5" font-family="Helvetica,sans-Serif" font-size="10.00">+ snx</text>
<text text-anchor="start" x="8" y="-125.5" font-family="Helvetica,sans-Serif" font-size="10.00">+ obsList</text>
<text text-anchor="start" x="8" y="-114.5" font-family="Helvetica,sans-Serif" font-size="10.00">+ pseudoObsList</text>
<text text-anchor="start" x="8" y="-103.5" font-family="Helvetica,sans-Serif" font-size="10.00">+ id</text>
<text text-anchor="start" x="8" y="-92.5" font-family="Helvetica,sans-Serif" font-size="10.00">+ primaryApriori</text>
<text text-anchor="start" x="8" y="-81.5" font-family="Helvetica,sans-Serif" font-size="10.00">+ aprioriTime</text>
<text text-anchor="start" x="8" y="-70.5" font-family="Helvetica,sans-Serif" font-size="10.00">+ aprioriPos</text>
<text text-anchor="start" x="8" y="-59.5" font-family="Helvetica,sans-Serif" font-size="10.00">+ aprioriVar</text>
<text text-anchor="start" x="8" y="-48.5" font-family="Helvetica,sans-Serif" font-size="10.00">+ ready</text>
<text text-anchor="start" x="8" y="-37.5" font-family="Helvetica,sans-Serif" font-size="10.00">+ traceFilename</text>
<text text-anchor="start" x="8" y="-26.5" font-family="Helvetica,sans-Serif" font-size="10.00">+ savedSlips</text>
<polyline fill="none" stroke="black" points="0,-19.5 99,-19.5 "/>
<text text-anchor="middle" x="49.5" y="-7.5" font-family="Helvetica,sans-Serif" font-size="10.00"> </text>
</a>
</g>
</g>
<!-- Node1&#45;&gt;Node2 -->
<g id="edge1" class="edge">
<title>Node1&#45;&gt;Node2</title>
<path fill="none" stroke="midnightblue" d="M49.5,-215.26C49.5,-203.53 49.5,-191.02 49.5,-178.63"/>
</g>
</g>
</svg>
