<?xml version="1.0" encoding="UTF-8" standalone="no"?>
<!DOCTYPE svg PUBLIC "-//W3C//DTD SVG 1.1//EN"
 "http://www.w3.org/Graphics/SVG/1.1/DTD/svg11.dtd">
<!-- Generated by graphviz version 2.43.0 (0)
 -->
<!-- Title: Sofa::iauGmst Pages: 1 -->
<svg width="280pt" height="78pt"
 viewBox="0.00 0.00 280.00 77.50" xmlns="http://www.w3.org/2000/svg" xmlns:xlink="http://www.w3.org/1999/xlink">
<g id="graph0" class="graph" transform="scale(1 1) rotate(0) translate(4 73.5)">
<title>Sofa::iauGmst</title>
<polygon fill="white" stroke="transparent" points="-4,4 -4,-73.5 276,-73.5 276,4 -4,4"/>
<!-- Node1 -->
<g id="node1" class="node">
<title>Node1</title>
<g id="a_node1"><a xlink:title=" ">
<polygon fill="#bfbfbf" stroke="black" points="186,-22.5 186,-41.5 272,-41.5 272,-22.5 186,-22.5"/>
<text text-anchor="middle" x="229" y="-29.5" font-family="Helvetica,sans-Serif" font-size="10.00">Sofa::iauGmst</text>
</a>
</g>
</g>
<!-- Node2 -->
<g id="node2" class="node">
<title>Node2</title>
<g id="a_node2"><a xlink:href="structFundamentalNutationArgs.html#a2442ba217815e7d90ed9dd277511dd26" target="_top" xlink:title=" ">
<polygon fill="white" stroke="black" points="0,-39 0,-69 150,-69 150,-39 0,-39"/>
<text text-anchor="start" x="8" y="-57" font-family="Helvetica,sans-Serif" font-size="10.00">FundamentalNutationArgs</text>
<text text-anchor="middle" x="75" y="-46" font-family="Helvetica,sans-Serif" font-size="10.00">::FundamentalNutationArgs</text>
</a>
</g>
</g>
<!-- Node1&#45;&gt;Node2 -->
<g id="edge1" class="edge">
<title>Node1&#45;&gt;Node2</title>
<path fill="none" stroke="midnightblue" d="M185.66,-38.13C174.59,-39.73 162.33,-41.5 150.13,-43.27"/>
</g>
<!-- Node3 -->
<g id="node3" class="node">
<title>Node3</title>
<g id="a_node3"><a xlink:href="tides_8cpp.html#a76dbcd260bdab5954ea1d50cbe96b09f" target="_top" xlink:title=" ">
<polygon fill="white" stroke="red" points="46.5,-0.5 46.5,-19.5 103.5,-19.5 103.5,-0.5 46.5,-0.5"/>
<text text-anchor="middle" x="75" y="-7.5" font-family="Helvetica,sans-Serif" font-size="10.00">tideDisp</text>
</a>
</g>
</g>
<!-- Node1&#45;&gt;Node3 -->
<g id="edge2" class="edge">
<title>Node1&#45;&gt;Node3</title>
<path fill="none" stroke="midnightblue" d="M185.66,-25.87C159.48,-22.08 126.63,-17.33 103.74,-14.01"/>
</g>
</g>
</svg>
