<?xml version="1.0" encoding="UTF-8" standalone="no"?>
<!DOCTYPE svg PUBLIC "-//W3C//DTD SVG 1.1//EN"
 "http://www.w3.org/Graphics/SVG/1.1/DTD/svg11.dtd">
<!-- Generated by graphviz version 2.43.0 (0)
 -->
<!-- Title: URL::sanitised Pages: 1 -->
<svg width="445pt" height="53pt"
 viewBox="0.00 0.00 445.00 52.50" xmlns="http://www.w3.org/2000/svg" xmlns:xlink="http://www.w3.org/1999/xlink">
<g id="graph0" class="graph" transform="scale(1 1) rotate(0) translate(4 48.5)">
<title>URL::sanitised</title>
<polygon fill="white" stroke="transparent" points="-4,4 -4,-48.5 441,-48.5 441,4 -4,4"/>
<!-- Node1 -->
<g id="node1" class="node">
<title>Node1</title>
<g id="a_node1"><a xlink:title=" ">
<polygon fill="#bfbfbf" stroke="black" points="351,-6 351,-25 437,-25 437,-6 351,-6"/>
<text text-anchor="middle" x="394" y="-13" font-family="Helvetica,sans-Serif" font-size="10.00">URL::sanitised</text>
</a>
</g>
</g>
<!-- Node2 -->
<g id="node2" class="node">
<title>Node2</title>
<g id="a_node2"><a xlink:href="structNtripSocket.html#a07a5b9e92a7fa439e08136f69c882307" target="_top" xlink:title=" ">
<polygon fill="white" stroke="red" points="198,-25 198,-44 315,-44 315,-25 198,-25"/>
<text text-anchor="middle" x="256.5" y="-32" font-family="Helvetica,sans-Serif" font-size="10.00">NtripSocket::connect</text>
</a>
</g>
</g>
<!-- Node1&#45;&gt;Node2 -->
<g id="edge1" class="edge">
<title>Node1&#45;&gt;Node2</title>
<path fill="none" stroke="midnightblue" d="M350.87,-21.41C339.53,-23 327.06,-24.75 315.03,-26.43"/>
</g>
<!-- Node4 -->
<g id="node3" class="node">
<title>Node4</title>
<g id="a_node3"><a xlink:href="structNtripSourceTable.html#af66d3b8f21f3edf1850816bafecff2d7" target="_top" xlink:title=" ">
<polygon fill="white" stroke="black" points="0,-0.5 0,-30.5 162,-30.5 162,-0.5 0,-0.5"/>
<text text-anchor="start" x="8" y="-18.5" font-family="Helvetica,sans-Serif" font-size="10.00">NtripSourceTable::NtripSource</text>
<text text-anchor="middle" x="81" y="-7.5" font-family="Helvetica,sans-Serif" font-size="10.00">Table</text>
</a>
</g>
</g>
<!-- Node1&#45;&gt;Node4 -->
<g id="edge3" class="edge">
<title>Node1&#45;&gt;Node4</title>
<path fill="none" stroke="midnightblue" d="M350.73,-15.5C302.49,-15.5 222.48,-15.5 162.28,-15.5"/>
</g>
<!-- Node2&#45;&gt;Node4 -->
<g id="edge2" class="edge">
<title>Node2&#45;&gt;Node4</title>
<path fill="none" stroke="midnightblue" d="M197.73,-28.17C186.29,-26.92 174.1,-25.59 162.08,-24.27"/>
</g>
</g>
</svg>
