<?xml version="1.0" encoding="UTF-8" standalone="no"?>
<!DOCTYPE svg PUBLIC "-//W3C//DTD SVG 1.1//EN"
 "http://www.w3.org/Graphics/SVG/1.1/DTD/svg11.dtd">
<!-- Generated by graphviz version 2.43.0 (0)
 -->
<!-- Title: TestStack::testMat Pages: 1 -->
<svg width="384pt" height="408pt"
 viewBox="0.00 0.00 384.00 408.00" xmlns="http://www.w3.org/2000/svg" xmlns:xlink="http://www.w3.org/1999/xlink">
<g id="graph0" class="graph" transform="scale(1 1) rotate(0) translate(4 404)">
<title>TestStack::testMat</title>
<polygon fill="white" stroke="transparent" points="-4,4 -4,-404 380,-404 380,4 -4,4"/>
<!-- Node1 -->
<g id="node1" class="node">
<title>Node1</title>
<g id="a_node1"><a xlink:title="Compare matrix against test dataset.">
<polygon fill="#bfbfbf" stroke="black" points="269,-190.5 269,-209.5 376,-209.5 376,-190.5 269,-190.5"/>
<text text-anchor="middle" x="322.5" y="-197.5" font-family="Helvetica,sans-Serif" font-size="10.00">TestStack::testMat</text>
</a>
</g>
</g>
<!-- Node2 -->
<g id="node2" class="node">
<title>Node2</title>
<g id="a_node2"><a xlink:href="GinAR__main_8cpp.html#a2915994c25f6d35e139cd4d2dca3f418" target="_top" xlink:title="Ambiguity resolution for end user solutions.">
<polygon fill="white" stroke="red" points="112,-380.5 112,-399.5 220,-399.5 220,-380.5 112,-380.5"/>
<text text-anchor="middle" x="166" y="-387.5" font-family="Helvetica,sans-Serif" font-size="10.00">enduserAmbigResl</text>
</a>
</g>
</g>
<!-- Node1&#45;&gt;Node2 -->
<g id="edge1" class="edge">
<title>Node1&#45;&gt;Node2</title>
<path fill="none" stroke="midnightblue" d="M319.31,-209.85C312.3,-239.11 287.54,-326.28 233,-371 228.3,-374.86 222.85,-377.93 217.14,-380.38"/>
</g>
<!-- Node6 -->
<g id="node3" class="node">
<title>Node6</title>
<g id="a_node3"><a xlink:href="linearCombo_8cpp.html#aa1b18e5a14543945bb9c7929e8aa4fce" target="_top" xlink:title="Function to prepare some predefined linear combinations from an observation.">
<polygon fill="white" stroke="red" points="142,-342.5 142,-361.5 190,-361.5 190,-342.5 142,-342.5"/>
<text text-anchor="middle" x="166" y="-349.5" font-family="Helvetica,sans-Serif" font-size="10.00">obs2lc</text>
</a>
</g>
</g>
<!-- Node1&#45;&gt;Node6 -->
<g id="edge2" class="edge">
<title>Node1&#45;&gt;Node6</title>
<path fill="none" stroke="midnightblue" d="M317.82,-209.73C308.03,-234.33 278.88,-299.41 233,-333 220.49,-342.16 203.67,-346.91 190.14,-349.38"/>
</g>
<!-- Node9 -->
<g id="node4" class="node">
<title>Node9</title>
<g id="a_node4"><a xlink:href="GNSSambres_8cpp.html#aab3dd27d035c545c6c854a6906616e79" target="_top" xlink:title="Lambda algorithm and its variations (ILQ, Common set, BIE)">
<polygon fill="white" stroke="red" points="120.5,-304.5 120.5,-323.5 211.5,-323.5 211.5,-304.5 120.5,-304.5"/>
<text text-anchor="middle" x="166" y="-311.5" font-family="Helvetica,sans-Serif" font-size="10.00">lambda_search</text>
</a>
</g>
</g>
<!-- Node1&#45;&gt;Node9 -->
<g id="edge3" class="edge">
<title>Node1&#45;&gt;Node9</title>
<path fill="none" stroke="midnightblue" d="M315.2,-209.69C302.2,-228.92 270.46,-272 233,-295 226.5,-298.99 219.12,-302.18 211.71,-304.71"/>
</g>
<!-- Node20 -->
<g id="node5" class="node">
<title>Node20</title>
<g id="a_node5"><a xlink:href="ephemeris_8cpp.html#acf14c43fc8c865aae63cb7408d64d0d5" target="_top" xlink:title="satellite positions and clocks.">
<polygon fill="white" stroke="red" points="139,-266.5 139,-285.5 193,-285.5 193,-266.5 139,-266.5"/>
<text text-anchor="middle" x="166" y="-273.5" font-family="Helvetica,sans-Serif" font-size="10.00">satposs</text>
</a>
</g>
</g>
<!-- Node1&#45;&gt;Node20 -->
<g id="edge4" class="edge">
<title>Node1&#45;&gt;Node20</title>
<path fill="none" stroke="midnightblue" d="M309.27,-209.54C292.78,-222 262.12,-243.78 233,-257 220.3,-262.77 205.42,-267.23 193.01,-270.38"/>
</g>
<!-- Node21 -->
<g id="node6" class="node">
<title>Node21</title>
<g id="a_node6"><a xlink:href="ppp__network_8cpp.html#adbcdcf140ee377fae3dd4ea16d34e4af" target="_top" xlink:title="PPP observed&#45;minus&#45;computed.">
<polygon fill="white" stroke="red" points="3.5,-123.5 3.5,-142.5 59.5,-142.5 59.5,-123.5 3.5,-123.5"/>
<text text-anchor="middle" x="31.5" y="-130.5" font-family="Helvetica,sans-Serif" font-size="10.00">pppomc</text>
</a>
</g>
</g>
<!-- Node1&#45;&gt;Node21 -->
<g id="edge9" class="edge">
<title>Node1&#45;&gt;Node21</title>
<path fill="none" stroke="midnightblue" d="M310.75,-190.35C295,-176.89 264.14,-153.01 233,-143 173.44,-123.86 98.83,-126.64 59.56,-130.02"/>
</g>
<!-- Node25 -->
<g id="node7" class="node">
<title>Node25</title>
<g id="a_node7"><a xlink:href="structTestStack.html#a906f042ce1a756aed472af023c2d4f81" target="_top" xlink:title="Compare matrix against test dataset.">
<polygon fill="white" stroke="black" points="112.5,-228.5 112.5,-247.5 219.5,-247.5 219.5,-228.5 112.5,-228.5"/>
<text text-anchor="middle" x="166" y="-235.5" font-family="Helvetica,sans-Serif" font-size="10.00">TestStack::testMat</text>
</a>
</g>
</g>
<!-- Node1&#45;&gt;Node25 -->
<g id="edge6" class="edge">
<title>Node1&#45;&gt;Node25</title>
<path fill="none" stroke="midnightblue" d="M282.51,-209.59C259,-215.37 229.17,-222.71 205.71,-228.48"/>
</g>
<!-- Node26 -->
<g id="node8" class="node">
<title>Node26</title>
<g id="a_node8"><a xlink:href="structTestStack.html#a7205c118b2d8cc6191b710f34c087637" target="_top" xlink:title=" ">
<polygon fill="white" stroke="black" points="115.5,-190.5 115.5,-209.5 216.5,-209.5 216.5,-190.5 115.5,-190.5"/>
<text text-anchor="middle" x="166" y="-197.5" font-family="Helvetica,sans-Serif" font-size="10.00">TestStack::testInt</text>
</a>
</g>
</g>
<!-- Node1&#45;&gt;Node26 -->
<g id="edge7" class="edge">
<title>Node1&#45;&gt;Node26</title>
<path fill="none" stroke="midnightblue" d="M268.76,-200C251.89,-200 233.28,-200 216.64,-200"/>
</g>
<!-- Node27 -->
<g id="node9" class="node">
<title>Node27</title>
<g id="a_node9"><a xlink:href="ionoModel_8cpp.html#a2bdc3287aad0d2793f4ef6adbf389680" target="_top" xlink:title="Updating the ionosphere model parameters &#160;&#160;The ionosphere model should be initialized by calling &#39;con...">
<polygon fill="white" stroke="red" points="99,-152.5 99,-171.5 233,-171.5 233,-152.5 99,-152.5"/>
<text text-anchor="middle" x="166" y="-159.5" font-family="Helvetica,sans-Serif" font-size="10.00">updateIonosphereModel</text>
</a>
</g>
</g>
<!-- Node1&#45;&gt;Node27 -->
<g id="edge8" class="edge">
<title>Node1&#45;&gt;Node27</title>
<path fill="none" stroke="midnightblue" d="M282.51,-190.41C259,-184.63 229.17,-177.29 205.71,-171.52"/>
</g>
<!-- Node28 -->
<g id="node10" class="node">
<title>Node28</title>
<g id="a_node10"><a xlink:href="ppp_8cpp.html#ab64566108038907ed6df48da876f33c3" target="_top" xlink:title=" ">
<polygon fill="white" stroke="black" points="121,-76.5 121,-95.5 211,-95.5 211,-76.5 121,-76.5"/>
<text text-anchor="middle" x="166" y="-83.5" font-family="Helvetica,sans-Serif" font-size="10.00">pppCorrections</text>
</a>
</g>
</g>
<!-- Node1&#45;&gt;Node28 -->
<g id="edge10" class="edge">
<title>Node1&#45;&gt;Node28</title>
<path fill="none" stroke="midnightblue" d="M314.52,-190.49C300.81,-172.41 268.58,-132.87 233,-110 223.67,-104 212.63,-99.23 202.28,-95.58"/>
</g>
<!-- Node29 -->
<g id="node11" class="node">
<title>Node29</title>
<g id="a_node11"><a xlink:href="ppp__user_8cpp.html#ac0b785b6dec8932f23a644d4c41788de" target="_top" xlink:title=" ">
<polygon fill="white" stroke="red" points="0,-66.5 0,-85.5 63,-85.5 63,-66.5 0,-66.5"/>
<text text-anchor="middle" x="31.5" y="-73.5" font-family="Helvetica,sans-Serif" font-size="10.00">ppp_filter</text>
</a>
</g>
</g>
<!-- Node1&#45;&gt;Node29 -->
<g id="edge12" class="edge">
<title>Node1&#45;&gt;Node29</title>
<path fill="none" stroke="midnightblue" d="M318.58,-190.23C310.24,-164.34 283.61,-94.11 233,-67 177.41,-37.22 100.2,-54.05 59.73,-66.47"/>
</g>
<!-- Node30 -->
<g id="node12" class="node">
<title>Node30</title>
<g id="a_node12"><a xlink:href="spp_8cpp.html#a80e3d976b8371ffec2003e91fbd86282" target="_top" xlink:title="Compute receiver position, velocity, clock bias by single&#45;point positioning with pseudorange observab...">
<polygon fill="white" stroke="red" points="143.5,-0.5 143.5,-19.5 188.5,-19.5 188.5,-0.5 143.5,-0.5"/>
<text text-anchor="middle" x="166" y="-7.5" font-family="Helvetica,sans-Serif" font-size="10.00">sppos</text>
</a>
</g>
</g>
<!-- Node1&#45;&gt;Node30 -->
<g id="edge13" class="edge">
<title>Node1&#45;&gt;Node30</title>
<path fill="none" stroke="midnightblue" d="M318.97,-190.2C311.17,-161.86 284.79,-78.96 233,-34 220.48,-23.13 202.63,-17.04 188.66,-13.71"/>
</g>
<!-- Node20&#45;&gt;Node21 -->
<g id="edge5" class="edge">
<title>Node20&#45;&gt;Node21</title>
<path fill="none" stroke="midnightblue" d="M138.98,-273.35C125.84,-270.88 110.32,-266.14 99,-257 60.42,-225.84 41.21,-166.13 34.91,-142.74"/>
</g>
<!-- Node28&#45;&gt;Node29 -->
<g id="edge11" class="edge">
<title>Node28&#45;&gt;Node29</title>
<path fill="none" stroke="midnightblue" d="M120.88,-82.67C101.91,-81.24 80.2,-79.6 63.05,-78.31"/>
</g>
</g>
</svg>
