<?xml version="1.0" encoding="UTF-8" standalone="no"?>
<!DOCTYPE svg PUBLIC "-//W3C//DTD SVG 1.1//EN"
 "http://www.w3.org/Graphics/SVG/1.1/DTD/svg11.dtd">
<!-- Generated by graphviz version 2.43.0 (0)
 -->
<!-- Title: ACSConfig::getSatOpts Pages: 1 -->
<svg width="594pt" height="332pt"
 viewBox="0.00 0.00 594.00 332.00" xmlns="http://www.w3.org/2000/svg" xmlns:xlink="http://www.w3.org/1999/xlink">
<g id="graph0" class="graph" transform="scale(1 1) rotate(0) translate(4 328)">
<title>ACSConfig::getSatOpts</title>
<polygon fill="white" stroke="transparent" points="-4,4 -4,-328 590,-328 590,4 -4,4"/>
<!-- Node1 -->
<g id="node1" class="node">
<title>Node1</title>
<g id="a_node1"><a xlink:title="Set satellite options for a specific satellite using a hierarchy of sources.">
<polygon fill="#bfbfbf" stroke="black" points="0,-171.5 0,-190.5 127,-190.5 127,-171.5 0,-171.5"/>
<text text-anchor="middle" x="63.5" y="-178.5" font-family="Helvetica,sans-Serif" font-size="10.00">ACSConfig::getSatOpts</text>
</a>
</g>
</g>
<!-- Node2 -->
<g id="node2" class="node">
<title>Node2</title>
<g id="a_node2"><a xlink:href="structSatSys.html#aec6d07b90d1e8172b8b6a6966abef4fd" target="_top" xlink:title="Returns a std::string of this satellite&#39;s id.">
<polygon fill="white" stroke="red" points="189.5,-304.5 189.5,-323.5 254.5,-323.5 254.5,-304.5 189.5,-304.5"/>
<text text-anchor="middle" x="222" y="-311.5" font-family="Helvetica,sans-Serif" font-size="10.00">SatSys::id</text>
</a>
</g>
</g>
<!-- Node1&#45;&gt;Node2 -->
<g id="edge1" class="edge">
<title>Node1&#45;&gt;Node2</title>
<path fill="none" stroke="midnightblue" d="M71.02,-190.77C85.38,-211.61 121.73,-260.9 163,-290 168.62,-293.97 175,-297.44 181.42,-300.41"/>
<polygon fill="midnightblue" stroke="midnightblue" points="180.2,-303.7 190.77,-304.42 182.96,-297.26 180.2,-303.7"/>
</g>
<!-- Node5 -->
<g id="node3" class="node">
<title>Node5</title>
<g id="a_node3"><a xlink:href="acsConfig_8cpp.html#a5e7bdb984a957f6949a0b1d49e3f6538" target="_top" xlink:title="Set an output from yaml object if found.">
<polygon fill="white" stroke="red" points="328.5,-0.5 328.5,-19.5 423.5,-19.5 423.5,-0.5 328.5,-0.5"/>
<text text-anchor="middle" x="376" y="-7.5" font-family="Helvetica,sans-Serif" font-size="10.00">tryGetFromYaml</text>
</a>
</g>
</g>
<!-- Node1&#45;&gt;Node5 -->
<g id="edge2" class="edge">
<title>Node1&#45;&gt;Node5</title>
<path fill="none" stroke="midnightblue" d="M72.77,-190.64C88.34,-207.93 123.95,-243.69 163,-257 212.64,-273.92 240.61,-290.45 281,-257 347.19,-202.17 276.5,-142.81 317,-67 325.65,-50.81 340.47,-36.37 352.96,-26.07"/>
<polygon fill="midnightblue" stroke="midnightblue" points="355.45,-28.57 361.14,-19.63 351.12,-23.07 355.45,-28.57"/>
</g>
<!-- Node6 -->
<g id="node4" class="node">
<title>Node6</title>
<g id="a_node4"><a xlink:href="acsConfig_8cpp.html#aaeb305db9559c585125ced693d9360d1" target="_top" xlink:title="Get an object within a hierarchy of yaml structure using a vector of nodes.">
<polygon fill="white" stroke="red" points="471,-57.5 471,-76.5 586,-76.5 586,-57.5 471,-57.5"/>
<text text-anchor="middle" x="528.5" y="-64.5" font-family="Helvetica,sans-Serif" font-size="10.00">stringsToYamlObject</text>
</a>
</g>
</g>
<!-- Node1&#45;&gt;Node6 -->
<g id="edge7" class="edge">
<title>Node1&#45;&gt;Node6</title>
<path fill="none" stroke="midnightblue" d="M85.18,-171.42C104.8,-162.71 135.32,-150.17 163,-143 281.16,-112.39 317.18,-136.89 435,-105 457.06,-99.03 480.89,-89.15 498.83,-80.97"/>
<polygon fill="midnightblue" stroke="midnightblue" points="500.56,-84.02 508.15,-76.63 497.61,-77.68 500.56,-84.02"/>
</g>
<!-- Node10 -->
<g id="node5" class="node">
<title>Node10</title>
<g id="a_node5"><a xlink:href="structSatSys.html#a099c890a6a613ec08f3260a51f0544f8" target="_top" xlink:title=" ">
<polygon fill="white" stroke="black" points="171.5,-228.5 171.5,-247.5 272.5,-247.5 272.5,-228.5 171.5,-228.5"/>
<text text-anchor="middle" x="222" y="-235.5" font-family="Helvetica,sans-Serif" font-size="10.00">SatSys::sysName</text>
</a>
</g>
</g>
<!-- Node1&#45;&gt;Node10 -->
<g id="edge4" class="edge">
<title>Node1&#45;&gt;Node10</title>
<path fill="none" stroke="midnightblue" d="M88.26,-190.56C108.13,-198.46 137.27,-209.83 163,-219 168.75,-221.05 174.86,-223.14 180.86,-225.15"/>
<polygon fill="midnightblue" stroke="midnightblue" points="180.2,-228.62 190.8,-228.43 182.4,-221.97 180.2,-228.62"/>
</g>
<!-- Node11 -->
<g id="node6" class="node">
<title>Node11</title>
<g id="a_node6"><a xlink:href="structSatSys.html#a01de9e9cee76346f43550516bba9558e" target="_top" xlink:title=" ">
<polygon fill="white" stroke="black" points="170,-190.5 170,-209.5 274,-209.5 274,-190.5 170,-190.5"/>
<text text-anchor="middle" x="222" y="-197.5" font-family="Helvetica,sans-Serif" font-size="10.00">SatSys::blockType</text>
</a>
</g>
</g>
<!-- Node1&#45;&gt;Node11 -->
<g id="edge5" class="edge">
<title>Node1&#45;&gt;Node11</title>
<path fill="none" stroke="midnightblue" d="M127.25,-188.62C137.95,-189.92 149.05,-191.26 159.71,-192.56"/>
<polygon fill="midnightblue" stroke="midnightblue" points="159.42,-196.05 169.77,-193.78 160.26,-189.1 159.42,-196.05"/>
</g>
<!-- Node12 -->
<g id="node7" class="node">
<title>Node12</title>
<g id="a_node7"><a xlink:href="structSatSys.html#a1da3994cf03ff0ec115928954c9307bb" target="_top" xlink:title=" ">
<polygon fill="white" stroke="black" points="185.5,-152.5 185.5,-171.5 258.5,-171.5 258.5,-152.5 185.5,-152.5"/>
<text text-anchor="middle" x="222" y="-159.5" font-family="Helvetica,sans-Serif" font-size="10.00">SatSys::svn</text>
</a>
</g>
</g>
<!-- Node1&#45;&gt;Node12 -->
<g id="edge6" class="edge">
<title>Node1&#45;&gt;Node12</title>
<path fill="none" stroke="midnightblue" d="M127.25,-173.38C143.28,-171.44 160.22,-169.38 175.22,-167.56"/>
<polygon fill="midnightblue" stroke="midnightblue" points="175.75,-171.02 185.26,-166.34 174.91,-164.07 175.75,-171.02"/>
</g>
<!-- Node13 -->
<g id="node8" class="node">
<title>Node13</title>
<g id="a_node8"><a xlink:href="acsConfig_8cpp.html#abd641a8ece1db2382383025f4933d87c" target="_top" xlink:title="Set satellite options from yaml.">
<polygon fill="white" stroke="red" points="317,-76.5 317,-95.5 435,-95.5 435,-76.5 317,-76.5"/>
<text text-anchor="middle" x="376" y="-83.5" font-family="Helvetica,sans-Serif" font-size="10.00">getKalmanFromYaml</text>
</a>
</g>
</g>
<!-- Node1&#45;&gt;Node13 -->
<g id="edge8" class="edge">
<title>Node1&#45;&gt;Node13</title>
<path fill="none" stroke="midnightblue" d="M74.1,-171.4C90.62,-155.54 126.23,-124.2 163,-110 208.9,-92.27 264.26,-86.48 306.89,-85.01"/>
<polygon fill="midnightblue" stroke="midnightblue" points="306.99,-88.51 316.89,-84.73 306.79,-81.51 306.99,-88.51"/>
</g>
<!-- Node19 -->
<g id="node9" class="node">
<title>Node19</title>
<g id="a_node9"><a xlink:href="acsConfig_8cpp.html#a5094f0121a324e01a0dbb41eeac8a703" target="_top" xlink:title="Set common options from yaml.">
<polygon fill="white" stroke="red" points="163,-38.5 163,-57.5 281,-57.5 281,-38.5 163,-38.5"/>
<text text-anchor="middle" x="222" y="-45.5" font-family="Helvetica,sans-Serif" font-size="10.00">getOptionsFromYaml</text>
</a>
</g>
</g>
<!-- Node1&#45;&gt;Node19 -->
<g id="edge10" class="edge">
<title>Node1&#45;&gt;Node19</title>
<path fill="none" stroke="midnightblue" d="M71.02,-171.23C85.38,-150.39 121.73,-101.1 163,-72 168.62,-68.03 175,-64.56 181.42,-61.59"/>
<polygon fill="midnightblue" stroke="midnightblue" points="182.96,-64.74 190.77,-57.58 180.2,-58.3 182.96,-64.74"/>
</g>
<!-- Node5&#45;&gt;Node6 -->
<g id="edge3" class="edge">
<title>Node5&#45;&gt;Node6</title>
<path fill="none" stroke="midnightblue" d="M402.19,-19.54C426.93,-28.91 464.89,-43.29 492.55,-53.76"/>
<polygon fill="midnightblue" stroke="midnightblue" points="491.64,-57.16 502.23,-57.43 494.12,-50.61 491.64,-57.16"/>
</g>
<!-- Node13&#45;&gt;Node6 -->
<g id="edge9" class="edge">
<title>Node13&#45;&gt;Node6</title>
<path fill="none" stroke="midnightblue" d="M435.19,-78.65C443.63,-77.59 452.37,-76.48 460.97,-75.4"/>
<polygon fill="midnightblue" stroke="midnightblue" points="461.47,-78.86 470.95,-74.14 460.59,-71.92 461.47,-78.86"/>
</g>
<!-- Node19&#45;&gt;Node5 -->
<g id="edge12" class="edge">
<title>Node19&#45;&gt;Node5</title>
<path fill="none" stroke="midnightblue" d="M261.36,-38.41C281.32,-33.42 305.93,-27.27 327.13,-21.97"/>
<polygon fill="midnightblue" stroke="midnightblue" points="328.07,-25.34 336.92,-19.52 326.37,-18.55 328.07,-25.34"/>
</g>
<!-- Node19&#45;&gt;Node6 -->
<g id="edge11" class="edge">
<title>Node19&#45;&gt;Node6</title>
<path fill="none" stroke="midnightblue" d="M281.35,-51.64C332.62,-54.84 407.19,-59.49 460.8,-62.84"/>
<polygon fill="midnightblue" stroke="midnightblue" points="460.69,-66.34 470.89,-63.47 461.13,-59.35 460.69,-66.34"/>
</g>
</g>
</svg>
