<?xml version="1.0" encoding="UTF-8" standalone="no"?>
<!DOCTYPE svg PUBLIC "-//W3C//DTD SVG 1.1//EN"
 "http://www.w3.org/Graphics/SVG/1.1/DTD/svg11.dtd">
<!-- Generated by graphviz version 2.43.0 (0)
 -->
<!-- Title: Sinex_siteid_t Pages: 1 -->
<svg width="101pt" height="292pt"
 viewBox="0.00 0.00 100.50 292.00" xmlns="http://www.w3.org/2000/svg" xmlns:xlink="http://www.w3.org/1999/xlink">
<g id="graph0" class="graph" transform="scale(1 1) rotate(0) translate(4 288)">
<title>Sinex_siteid_t</title>
<polygon fill="white" stroke="transparent" points="-4,4 -4,-288 96.5,-288 96.5,4 -4,4"/>
<!-- Node1 -->
<g id="node1" class="node">
<title>Node1</title>
<g id="a_node1"><a xlink:title=" ">
<polygon fill="#bfbfbf" stroke="black" points="0,-0.5 0,-145.5 85,-145.5 85,-0.5 0,-0.5"/>
<text text-anchor="middle" x="42.5" y="-133.5" font-family="Helvetica,sans-Serif" font-size="10.00">Sinex_siteid_t</text>
<polyline fill="none" stroke="black" points="0,-126.5 85,-126.5 "/>
<text text-anchor="start" x="8" y="-114.5" font-family="Helvetica,sans-Serif" font-size="10.00">+ typecode</text>
<text text-anchor="start" x="8" y="-103.5" font-family="Helvetica,sans-Serif" font-size="10.00">+ lon_deg</text>
<text text-anchor="start" x="8" y="-92.5" font-family="Helvetica,sans-Serif" font-size="10.00">+ lon_min</text>
<text text-anchor="start" x="8" y="-81.5" font-family="Helvetica,sans-Serif" font-size="10.00">+ lon_sec</text>
<text text-anchor="start" x="8" y="-70.5" font-family="Helvetica,sans-Serif" font-size="10.00">+ lat_deg</text>
<text text-anchor="start" x="8" y="-59.5" font-family="Helvetica,sans-Serif" font-size="10.00">+ lat_min</text>
<text text-anchor="start" x="8" y="-48.5" font-family="Helvetica,sans-Serif" font-size="10.00">+ lat_sec</text>
<text text-anchor="start" x="8" y="-37.5" font-family="Helvetica,sans-Serif" font-size="10.00">+ height</text>
<text text-anchor="start" x="8" y="-26.5" font-family="Helvetica,sans-Serif" font-size="10.00">+ used</text>
<polyline fill="none" stroke="black" points="0,-19.5 85,-19.5 "/>
<text text-anchor="middle" x="42.5" y="-7.5" font-family="Helvetica,sans-Serif" font-size="10.00"> </text>
</a>
</g>
</g>
<!-- Node2 -->
<g id="node2" class="node">
<title>Node2</title>
<g id="a_node2"><a xlink:title=" ">
<polygon fill="white" stroke="black" points="20.5,-226.5 20.5,-283.5 64.5,-283.5 64.5,-226.5 20.5,-226.5"/>
<text text-anchor="middle" x="42.5" y="-271.5" font-family="Helvetica,sans-Serif" font-size="10.00">string</text>
<polyline fill="none" stroke="black" points="20.5,-264.5 64.5,-264.5 "/>
<text text-anchor="middle" x="42.5" y="-252.5" font-family="Helvetica,sans-Serif" font-size="10.00"> </text>
<polyline fill="none" stroke="black" points="20.5,-245.5 64.5,-245.5 "/>
<text text-anchor="middle" x="42.5" y="-233.5" font-family="Helvetica,sans-Serif" font-size="10.00"> </text>
</a>
</g>
</g>
<!-- Node2&#45;&gt;Node1 -->
<g id="edge1" class="edge">
<title>Node2&#45;&gt;Node1</title>
<path fill="none" stroke="#404040" d="M42.5,-226.27C42.5,-204.77 42.5,-173.98 42.5,-145.7"/>
<text text-anchor="middle" x="67.5" y="-200" font-family="Helvetica,sans-Serif" font-size="10.00"> +desc</text>
<text text-anchor="middle" x="67.5" y="-189" font-family="Helvetica,sans-Serif" font-size="10.00">+domes</text>
<text text-anchor="middle" x="67.5" y="-178" font-family="Helvetica,sans-Serif" font-size="10.00">+ptcode</text>
<text text-anchor="middle" x="67.5" y="-167" font-family="Helvetica,sans-Serif" font-size="10.00">+sitecode</text>
</g>
</g>
</svg>
