<?xml version="1.0" encoding="UTF-8" standalone="no"?>
<!DOCTYPE svg PUBLIC "-//W3C//DTD SVG 1.1//EN"
 "http://www.w3.org/Graphics/SVG/1.1/DTD/svg11.dtd">
<!-- Generated by graphviz version 2.43.0 (0)
 -->
<!-- Title: RtcmTrace::traceSsrCodeB Pages: 1 -->
<svg width="352pt" height="66pt"
 viewBox="0.00 0.00 352.00 66.00" xmlns="http://www.w3.org/2000/svg" xmlns:xlink="http://www.w3.org/1999/xlink">
<g id="graph0" class="graph" transform="scale(1 1) rotate(0) translate(4 62)">
<title>RtcmTrace::traceSsrCodeB</title>
<polygon fill="white" stroke="transparent" points="-4,4 -4,-62 348,-62 348,4 -4,4"/>
<!-- Node1 -->
<g id="node1" class="node">
<title>Node1</title>
<g id="a_node1"><a xlink:title=" ">
<polygon fill="#bfbfbf" stroke="black" points="198,-19.5 198,-38.5 344,-38.5 344,-19.5 198,-19.5"/>
<text text-anchor="middle" x="271" y="-26.5" font-family="Helvetica,sans-Serif" font-size="10.00">RtcmTrace::traceSsrCodeB</text>
</a>
</g>
</g>
<!-- Node2 -->
<g id="node2" class="node">
<title>Node2</title>
<g id="a_node2"><a xlink:href="structRtcmDecoder.html#a187d2bf36da0d4de61f4c603b203b09f" target="_top" xlink:title=" ">
<polygon fill="white" stroke="red" points="9.5,-38.5 9.5,-57.5 152.5,-57.5 152.5,-38.5 9.5,-38.5"/>
<text text-anchor="middle" x="81" y="-45.5" font-family="Helvetica,sans-Serif" font-size="10.00">RtcmDecoder::decodeSSR</text>
</a>
</g>
</g>
<!-- Node1&#45;&gt;Node2 -->
<g id="edge1" class="edge">
<title>Node1&#45;&gt;Node2</title>
<path fill="none" stroke="midnightblue" d="M197.85,-36.29C183.04,-37.79 167.47,-39.36 152.71,-40.85"/>
</g>
<!-- Node8 -->
<g id="node3" class="node">
<title>Node8</title>
<g id="a_node3"><a xlink:href="structRtcmEncoder.html#a4730e3ba96b43e644eaf0b3547287f4e" target="_top" xlink:title=" ">
<polygon fill="white" stroke="red" points="0,-0.5 0,-19.5 162,-19.5 162,-0.5 0,-0.5"/>
<text text-anchor="middle" x="81" y="-7.5" font-family="Helvetica,sans-Serif" font-size="10.00">RtcmEncoder::encodeSsrCode</text>
</a>
</g>
</g>
<!-- Node1&#45;&gt;Node8 -->
<g id="edge2" class="edge">
<title>Node1&#45;&gt;Node8</title>
<path fill="none" stroke="midnightblue" d="M197.85,-21.71C186.15,-20.53 173.97,-19.3 162.1,-18.09"/>
</g>
</g>
</svg>
