<?xml version="1.0" encoding="UTF-8" standalone="no"?>
<!DOCTYPE svg PUBLIC "-//W3C//DTD SVG 1.1//EN"
 "http://www.w3.org/Graphics/SVG/1.1/DTD/svg11.dtd">
<!-- Generated by graphviz version 2.43.0 (0)
 -->
<!-- Title: SatSys::sysChar Pages: 1 -->
<svg width="282pt" height="484pt"
 viewBox="0.00 0.00 282.00 484.00" xmlns="http://www.w3.org/2000/svg" xmlns:xlink="http://www.w3.org/1999/xlink">
<g id="graph0" class="graph" transform="scale(1 1) rotate(0) translate(4 480)">
<title>SatSys::sysChar</title>
<polygon fill="white" stroke="transparent" points="-4,4 -4,-480 278,-480 278,4 -4,4"/>
<!-- Node1 -->
<g id="node1" class="node">
<title>Node1</title>
<g id="a_node1"><a xlink:title="Returns the character used as a prefix for this system.">
<polygon fill="#bfbfbf" stroke="black" points="179,-228.5 179,-247.5 274,-247.5 274,-228.5 179,-228.5"/>
<text text-anchor="middle" x="226.5" y="-235.5" font-family="Helvetica,sans-Serif" font-size="10.00">SatSys::sysChar</text>
</a>
</g>
</g>
<!-- Node2 -->
<g id="node2" class="node">
<title>Node2</title>
<g id="a_node2"><a xlink:href="biasSINEXread_8cpp.html#a4189b53abc056c39f46bd56d0032b546" target="_top" xlink:title="Convert GPS/QZS TGD into OSBs &amp; DSB.">
<polygon fill="white" stroke="red" points="14,-456.5 14,-475.5 129,-475.5 129,-456.5 14,-456.5"/>
<text text-anchor="middle" x="71.5" y="-463.5" font-family="Helvetica,sans-Serif" font-size="10.00">decomposeTGDBias</text>
</a>
</g>
</g>
<!-- Node1&#45;&gt;Node2 -->
<g id="edge1" class="edge">
<title>Node1&#45;&gt;Node2</title>
<path fill="none" stroke="midnightblue" d="M224.69,-247.6C221.37,-280.67 205.84,-390.87 143,-447 138.65,-450.88 133.59,-453.99 128.21,-456.46"/>
</g>
<!-- Node23 -->
<g id="node3" class="node">
<title>Node23</title>
<g id="a_node3"><a xlink:href="biasSINEXread_8cpp.html#a063ba8fe35a80404ea27345b60592828" target="_top" xlink:title="Convert GAL BGDs into OSBs &amp; DSB.">
<polygon fill="white" stroke="red" points="13.5,-418.5 13.5,-437.5 129.5,-437.5 129.5,-418.5 13.5,-418.5"/>
<text text-anchor="middle" x="71.5" y="-425.5" font-family="Helvetica,sans-Serif" font-size="10.00">decomposeBGDBias</text>
</a>
</g>
</g>
<!-- Node1&#45;&gt;Node23 -->
<g id="edge2" class="edge">
<title>Node1&#45;&gt;Node23</title>
<path fill="none" stroke="midnightblue" d="M223.71,-247.88C217.87,-277.23 196.54,-364.61 143,-409 138.32,-412.88 132.91,-415.98 127.22,-418.44"/>
</g>
<!-- Node24 -->
<g id="node4" class="node">
<title>Node24</title>
<g id="a_node4"><a xlink:href="rinexNavWrite_8cpp.html#a44ce18e58314bf68508dc220c1e807cc" target="_top" xlink:title=" ">
<polygon fill="white" stroke="red" points="14,-380.5 14,-399.5 129,-399.5 129,-380.5 14,-380.5"/>
<text text-anchor="middle" x="71.5" y="-387.5" font-family="Helvetica,sans-Serif" font-size="10.00">outputNavRinexEOP</text>
</a>
</g>
</g>
<!-- Node1&#45;&gt;Node24 -->
<g id="edge3" class="edge">
<title>Node1&#45;&gt;Node24</title>
<path fill="none" stroke="midnightblue" d="M222.3,-247.77C213.71,-272.47 187.7,-337.76 143,-371 137.81,-374.86 131.89,-377.93 125.74,-380.38"/>
</g>
<!-- Node29 -->
<g id="node5" class="node">
<title>Node29</title>
<g id="a_node5"><a xlink:href="rinexNavWrite_8cpp.html#aa67df0b1827f3ff1c4da263aed385531" target="_top" xlink:title=" ">
<polygon fill="white" stroke="red" points="15,-342.5 15,-361.5 128,-361.5 128,-342.5 15,-342.5"/>
<text text-anchor="middle" x="71.5" y="-349.5" font-family="Helvetica,sans-Serif" font-size="10.00">outputNavRinexION</text>
</a>
</g>
</g>
<!-- Node1&#45;&gt;Node29 -->
<g id="edge4" class="edge">
<title>Node1&#45;&gt;Node29</title>
<path fill="none" stroke="midnightblue" d="M219.83,-247.76C208.07,-267.11 179.1,-310.39 143,-333 136.77,-336.9 129.74,-340.01 122.6,-342.49"/>
</g>
<!-- Node30 -->
<g id="node6" class="node">
<title>Node30</title>
<g id="a_node6"><a xlink:href="biasSINEXread_8cpp.html#afe3e2e7c8dbfe8bd5991dbbdac91ede2" target="_top" xlink:title="Read data line in bias SINEX file.">
<polygon fill="white" stroke="red" points="13.5,-304.5 13.5,-323.5 129.5,-323.5 129.5,-304.5 13.5,-304.5"/>
<text text-anchor="middle" x="71.5" y="-311.5" font-family="Helvetica,sans-Serif" font-size="10.00">read_biasSINEX_line</text>
</a>
</g>
</g>
<!-- Node1&#45;&gt;Node30 -->
<g id="edge5" class="edge">
<title>Node1&#45;&gt;Node30</title>
<path fill="none" stroke="midnightblue" d="M214.25,-247.66C199.04,-260.26 170.64,-282.19 143,-295 134.95,-298.73 126.03,-301.84 117.32,-304.39"/>
</g>
<!-- Node33 -->
<g id="node7" class="node">
<title>Node33</title>
<g id="a_node7"><a xlink:href="structRtcmDecoder.html#a187d2bf36da0d4de61f4c603b203b09f" target="_top" xlink:title=" ">
<polygon fill="white" stroke="red" points="0,-266.5 0,-285.5 143,-285.5 143,-266.5 0,-266.5"/>
<text text-anchor="middle" x="71.5" y="-273.5" font-family="Helvetica,sans-Serif" font-size="10.00">RtcmDecoder::decodeSSR</text>
</a>
</g>
</g>
<!-- Node1&#45;&gt;Node33 -->
<g id="edge6" class="edge">
<title>Node1&#45;&gt;Node33</title>
<path fill="none" stroke="midnightblue" d="M186.89,-247.59C163.61,-253.37 134.06,-260.71 110.83,-266.48"/>
</g>
<!-- Node34 -->
<g id="node8" class="node">
<title>Node34</title>
<g id="a_node8"><a xlink:href="biasSINEXread_8cpp.html#ad8d3890eaff651716f2ad2d8240438c8" target="_top" xlink:title="Search for hardware biases in phase and code.">
<polygon fill="white" stroke="red" points="31.5,-228.5 31.5,-247.5 111.5,-247.5 111.5,-228.5 31.5,-228.5"/>
<text text-anchor="middle" x="71.5" y="-235.5" font-family="Helvetica,sans-Serif" font-size="10.00">getBiasSinex</text>
</a>
</g>
</g>
<!-- Node1&#45;&gt;Node34 -->
<g id="edge7" class="edge">
<title>Node1&#45;&gt;Node34</title>
<path fill="none" stroke="midnightblue" d="M178.76,-238C157.32,-238 132.18,-238 111.74,-238"/>
</g>
<!-- Node51 -->
<g id="node9" class="node">
<title>Node51</title>
<g id="a_node9"><a xlink:href="biasSINEXwrite_8cpp.html#a4e4fe834c1dbcb6b4a41560de1d7432e" target="_top" xlink:title="print bias SINEX data line">
<polygon fill="white" stroke="red" points="19,-190.5 19,-209.5 124,-209.5 124,-190.5 19,-190.5"/>
<text text-anchor="middle" x="71.5" y="-197.5" font-family="Helvetica,sans-Serif" font-size="10.00">write_bSINEX_line</text>
</a>
</g>
</g>
<!-- Node1&#45;&gt;Node51 -->
<g id="edge8" class="edge">
<title>Node1&#45;&gt;Node51</title>
<path fill="none" stroke="midnightblue" d="M186.89,-228.41C163.61,-222.63 134.06,-215.29 110.83,-209.52"/>
</g>
<!-- Node54 -->
<g id="node10" class="node">
<title>Node54</title>
<g id="a_node10"><a xlink:href="rinexClkWrite_8cpp.html#ae105b449da2c0d5e0ce91380d3b6907b" target="_top" xlink:title=" ">
<polygon fill="white" stroke="red" points="5.5,-152.5 5.5,-171.5 137.5,-171.5 137.5,-152.5 5.5,-152.5"/>
<text text-anchor="middle" x="71.5" y="-159.5" font-family="Helvetica,sans-Serif" font-size="10.00">getSysOutputFilenames</text>
</a>
</g>
</g>
<!-- Node1&#45;&gt;Node54 -->
<g id="edge9" class="edge">
<title>Node1&#45;&gt;Node54</title>
<path fill="none" stroke="midnightblue" d="M214.25,-228.34C199.04,-215.74 170.64,-193.81 143,-181 134.95,-177.27 126.03,-174.16 117.32,-171.61"/>
</g>
<!-- Node61 -->
<g id="node11" class="node">
<title>Node61</title>
<g id="a_node11"><a xlink:href="preceph_8cpp.html#af673ac04c3dea7304383eb4ef76318ba" target="_top" xlink:title=" ">
<polygon fill="white" stroke="red" points="43.5,-114.5 43.5,-133.5 99.5,-133.5 99.5,-114.5 43.5,-114.5"/>
<text text-anchor="middle" x="71.5" y="-121.5" font-family="Helvetica,sans-Serif" font-size="10.00">readdcb</text>
</a>
</g>
</g>
<!-- Node1&#45;&gt;Node61 -->
<g id="edge10" class="edge">
<title>Node1&#45;&gt;Node61</title>
<path fill="none" stroke="midnightblue" d="M219.83,-228.24C208.07,-208.89 179.1,-165.61 143,-143 130,-134.86 113.54,-130.17 99.79,-127.49"/>
</g>
<!-- Node62 -->
<g id="node12" class="node">
<title>Node62</title>
<g id="a_node12"><a xlink:href="ionex_8cpp.html#ad8d9b28daf532c13a9a7e71912cae79f" target="_top" xlink:title=" ">
<polygon fill="white" stroke="red" points="30,-76.5 30,-95.5 113,-95.5 113,-76.5 30,-76.5"/>
<text text-anchor="middle" x="71.5" y="-83.5" font-family="Helvetica,sans-Serif" font-size="10.00">readionexdcb</text>
</a>
</g>
</g>
<!-- Node1&#45;&gt;Node62 -->
<g id="edge11" class="edge">
<title>Node1&#45;&gt;Node62</title>
<path fill="none" stroke="midnightblue" d="M222.3,-228.23C213.71,-203.53 187.7,-138.24 143,-105 134.35,-98.57 123.68,-94.32 113.27,-91.5"/>
</g>
<!-- Node65 -->
<g id="node13" class="node">
<title>Node65</title>
<g id="a_node13"><a xlink:href="rinexNavWrite_8cpp.html#a1f47486483dce4060d409ab0a0e43698" target="_top" xlink:title=" ">
<polygon fill="white" stroke="red" points="14,-38.5 14,-57.5 129,-57.5 129,-38.5 14,-38.5"/>
<text text-anchor="middle" x="71.5" y="-45.5" font-family="Helvetica,sans-Serif" font-size="10.00">outputNavRinexSTO</text>
</a>
</g>
</g>
<!-- Node1&#45;&gt;Node65 -->
<g id="edge12" class="edge">
<title>Node1&#45;&gt;Node65</title>
<path fill="none" stroke="midnightblue" d="M223.71,-228.12C217.87,-198.77 196.54,-111.39 143,-67 138.32,-63.12 132.91,-60.02 127.22,-57.56"/>
</g>
<!-- Node66 -->
<g id="node14" class="node">
<title>Node66</title>
<g id="a_node14"><a xlink:href="structSatSys.html#adbdf98ba1ef1f22b6aaed93916529513" target="_top" xlink:title="Sets a 4 character c_string of this satellite&#39;s id.">
<polygon fill="white" stroke="red" points="31.5,-0.5 31.5,-19.5 111.5,-19.5 111.5,-0.5 31.5,-0.5"/>
<text text-anchor="middle" x="71.5" y="-7.5" font-family="Helvetica,sans-Serif" font-size="10.00">SatSys::getId</text>
</a>
</g>
</g>
<!-- Node1&#45;&gt;Node66 -->
<g id="edge13" class="edge">
<title>Node1&#45;&gt;Node66</title>
<path fill="none" stroke="midnightblue" d="M224.69,-228.4C221.37,-195.33 205.84,-85.13 143,-29 134.3,-21.23 122.75,-16.59 111.52,-13.84"/>
</g>
</g>
</svg>
