<?xml version="1.0" encoding="UTF-8" standalone="no"?>
<!DOCTYPE svg PUBLIC "-//W3C//DTD SVG 1.1//EN"
 "http://www.w3.org/Graphics/SVG/1.1/DTD/svg11.dtd">
<!-- Generated by graphviz version 2.43.0 (0)
 -->
<!-- Title: NtripRtcmStream Pages: 1 -->
<svg width="284pt" height="259pt"
 viewBox="0.00 0.00 283.50 259.00" xmlns="http://www.w3.org/2000/svg" xmlns:xlink="http://www.w3.org/1999/xlink">
<g id="graph0" class="graph" transform="scale(1 1) rotate(0) translate(4 255)">
<title>NtripRtcmStream</title>
<polygon fill="white" stroke="transparent" points="-4,4 -4,-255 279.5,-255 279.5,4 -4,4"/>
<!-- Node1 -->
<g id="node1" class="node">
<title>Node1</title>
<g id="a_node1"><a xlink:title="Object that streams RTCM data from NTRIP castors.">
<polygon fill="#bfbfbf" stroke="black" points="87.5,-0.5 87.5,-123.5 207.5,-123.5 207.5,-0.5 87.5,-0.5"/>
<text text-anchor="middle" x="147.5" y="-111.5" font-family="Helvetica,sans-Serif" font-size="10.00">NtripRtcmStream</text>
<polyline fill="none" stroke="black" points="87.5,-104.5 207.5,-104.5 "/>
<text text-anchor="middle" x="147.5" y="-92.5" font-family="Helvetica,sans-Serif" font-size="10.00"> </text>
<polyline fill="none" stroke="black" points="87.5,-85.5 207.5,-85.5 "/>
<text text-anchor="start" x="95.5" y="-73.5" font-family="Helvetica,sans-Serif" font-size="10.00">+ NtripRtcmStream()</text>
<text text-anchor="start" x="95.5" y="-62.5" font-family="Helvetica,sans-Serif" font-size="10.00">+ setUrl()</text>
<text text-anchor="start" x="95.5" y="-51.5" font-family="Helvetica,sans-Serif" font-size="10.00">+ open()</text>
<text text-anchor="start" x="95.5" y="-40.5" font-family="Helvetica,sans-Serif" font-size="10.00">+ getObs()</text>
<text text-anchor="start" x="95.5" y="-29.5" font-family="Helvetica,sans-Serif" font-size="10.00">+ connectionError()</text>
<text text-anchor="start" x="95.5" y="-18.5" font-family="Helvetica,sans-Serif" font-size="10.00">+ serverResponse()</text>
<text text-anchor="start" x="95.5" y="-7.5" font-family="Helvetica,sans-Serif" font-size="10.00">+ getNav()</text>
</a>
</g>
</g>
<!-- Node2 -->
<g id="node2" class="node">
<title>Node2</title>
<g id="a_node2"><a xlink:href="structNtripStream.html" target="_top" xlink:title=" ">
<polygon fill="white" stroke="red" points="0,-160.5 0,-250.5 149,-250.5 149,-160.5 0,-160.5"/>
<text text-anchor="middle" x="74.5" y="-238.5" font-family="Helvetica,sans-Serif" font-size="10.00">NtripStream</text>
<polyline fill="none" stroke="red" points="0,-231.5 149,-231.5 "/>
<text text-anchor="middle" x="74.5" y="-219.5" font-family="Helvetica,sans-Serif" font-size="10.00"> </text>
<polyline fill="none" stroke="red" points="0,-212.5 149,-212.5 "/>
<text text-anchor="start" x="8" y="-200.5" font-family="Helvetica,sans-Serif" font-size="10.00">+ NtripStream()</text>
<text text-anchor="start" x="8" y="-189.5" font-family="Helvetica,sans-Serif" font-size="10.00">+ getData()</text>
<text text-anchor="start" x="8" y="-178.5" font-family="Helvetica,sans-Serif" font-size="10.00">+ connected()</text>
<text text-anchor="start" x="8" y="-167.5" font-family="Helvetica,sans-Serif" font-size="10.00">+ dataChunkDownloaded()</text>
</a>
</g>
</g>
<!-- Node2&#45;&gt;Node1 -->
<g id="edge1" class="edge">
<title>Node2&#45;&gt;Node1</title>
<path fill="none" stroke="midnightblue" d="M97.4,-160.12C103.38,-148.53 109.92,-135.83 116.26,-123.56"/>
</g>
<!-- Node11 -->
<g id="node3" class="node">
<title>Node11</title>
<g id="a_node3"><a xlink:href="structRtcmStream.html" target="_top" xlink:title=" ">
<polygon fill="white" stroke="red" points="167.5,-171.5 167.5,-239.5 275.5,-239.5 275.5,-171.5 167.5,-171.5"/>
<text text-anchor="middle" x="221.5" y="-227.5" font-family="Helvetica,sans-Serif" font-size="10.00">RtcmStream</text>
<polyline fill="none" stroke="red" points="167.5,-220.5 275.5,-220.5 "/>
<text text-anchor="start" x="175.5" y="-208.5" font-family="Helvetica,sans-Serif" font-size="10.00">+ record_rtcm</text>
<polyline fill="none" stroke="red" points="167.5,-201.5 275.5,-201.5 "/>
<text text-anchor="start" x="175.5" y="-189.5" font-family="Helvetica,sans-Serif" font-size="10.00">+ createRtcmFile()</text>
<text text-anchor="start" x="175.5" y="-178.5" font-family="Helvetica,sans-Serif" font-size="10.00">+ parseRTCM()</text>
</a>
</g>
</g>
<!-- Node11&#45;&gt;Node1 -->
<g id="edge2" class="edge">
<title>Node11&#45;&gt;Node1</title>
<path fill="none" stroke="midnightblue" d="M204.15,-171.32C196.72,-157.11 187.79,-140.05 179.25,-123.71"/>
</g>
</g>
</svg>
