<?xml version="1.0" encoding="UTF-8" standalone="no"?>
<!DOCTYPE svg PUBLIC "-//W3C//DTD SVG 1.1//EN"
 "http://www.w3.org/Graphics/SVG/1.1/DTD/svg11.dtd">
<!-- Generated by graphviz version 2.43.0 (0)
 -->
<!-- Title: KFState::outputCorrelations Pages: 1 -->
<svg width="278pt" height="66pt"
 viewBox="0.00 0.00 278.00 66.00" xmlns="http://www.w3.org/2000/svg" xmlns:xlink="http://www.w3.org/1999/xlink">
<g id="graph0" class="graph" transform="scale(1 1) rotate(0) translate(4 62)">
<title>KFState::outputCorrelations</title>
<polygon fill="white" stroke="transparent" points="-4,4 -4,-62 274,-62 274,4 -4,4"/>
<!-- Node1 -->
<g id="node1" class="node">
<title>Node1</title>
<g id="a_node1"><a xlink:title=" ">
<polygon fill="#bfbfbf" stroke="black" points="119,-19.5 119,-38.5 270,-38.5 270,-19.5 119,-19.5"/>
<text text-anchor="middle" x="194.5" y="-26.5" font-family="Helvetica,sans-Serif" font-size="10.00">KFState::outputCorrelations</text>
</a>
</g>
</g>
<!-- Node2 -->
<g id="node2" class="node">
<title>Node2</title>
<g id="a_node2"><a xlink:href="rtsSmoothing_8cpp.html#a97a246c19cbbc06a85a687849917dcd9" target="_top" xlink:title=" ">
<polygon fill="white" stroke="red" points="0.5,-38.5 0.5,-57.5 82.5,-57.5 82.5,-38.5 0.5,-38.5"/>
<text text-anchor="middle" x="41.5" y="-45.5" font-family="Helvetica,sans-Serif" font-size="10.00">rtsSmoothing</text>
</a>
</g>
</g>
<!-- Node1&#45;&gt;Node2 -->
<g id="edge1" class="edge">
<title>Node1&#45;&gt;Node2</title>
<path fill="none" stroke="midnightblue" d="M108.96,-39.64C99.85,-40.78 90.92,-41.91 82.7,-42.94"/>
<polygon fill="midnightblue" stroke="midnightblue" points="109.4,-43.11 118.88,-38.39 108.53,-36.16 109.4,-43.11"/>
</g>
<!-- Node8 -->
<g id="node3" class="node">
<title>Node8</title>
<g id="a_node3"><a xlink:href="walkthrough_8cpp.html#aff7ddc151473d418c066b30f06e6b42e" target="_top" xlink:title=" ">
<polygon fill="white" stroke="red" points="0,-0.5 0,-19.5 83,-19.5 83,-0.5 0,-0.5"/>
<text text-anchor="middle" x="41.5" y="-7.5" font-family="Helvetica,sans-Serif" font-size="10.00">walkthrough2</text>
</a>
</g>
</g>
<!-- Node1&#45;&gt;Node8 -->
<g id="edge2" class="edge">
<title>Node1&#45;&gt;Node8</title>
<path fill="none" stroke="midnightblue" d="M108.79,-18.34C99.88,-17.22 91.16,-16.12 83.1,-15.11"/>
<polygon fill="midnightblue" stroke="midnightblue" points="108.53,-21.84 118.88,-19.61 109.4,-14.89 108.53,-21.84"/>
</g>
</g>
</svg>
