<?xml version="1.0" encoding="UTF-8" standalone="no"?>
<!DOCTYPE svg PUBLIC "-//W3C//DTD SVG 1.1//EN"
 "http://www.w3.org/Graphics/SVG/1.1/DTD/svg11.dtd">
<!-- Generated by graphviz version 2.43.0 (0)
 -->
<!-- Title: UbxDecoder::decodeRXM Pages: 1 -->
<svg width="334pt" height="66pt"
 viewBox="0.00 0.00 334.00 66.00" xmlns="http://www.w3.org/2000/svg" xmlns:xlink="http://www.w3.org/1999/xlink">
<g id="graph0" class="graph" transform="scale(1 1) rotate(0) translate(4 62)">
<title>UbxDecoder::decodeRXM</title>
<polygon fill="white" stroke="transparent" points="-4,4 -4,-62 330,-62 330,4 -4,4"/>
<!-- Node1 -->
<g id="node1" class="node">
<title>Node1</title>
<g id="a_node1"><a xlink:title=" ">
<polygon fill="#bfbfbf" stroke="black" points="0,-19.5 0,-38.5 140,-38.5 140,-19.5 0,-19.5"/>
<text text-anchor="middle" x="70" y="-26.5" font-family="Helvetica,sans-Serif" font-size="10.00">UbxDecoder::decodeRXM</text>
</a>
</g>
</g>
<!-- Node2 -->
<g id="node2" class="node">
<title>Node2</title>
<g id="a_node2"><a xlink:href="structUbxDecoder.html#a3702427c895daa3f024fb18b638b2f67" target="_top" xlink:title=" ">
<polygon fill="white" stroke="red" points="177.5,-38.5 177.5,-57.5 324.5,-57.5 324.5,-38.5 177.5,-38.5"/>
<text text-anchor="middle" x="251" y="-45.5" font-family="Helvetica,sans-Serif" font-size="10.00">UbxDecoder::decodeRAWX</text>
</a>
</g>
</g>
<!-- Node1&#45;&gt;Node2 -->
<g id="edge1" class="edge">
<title>Node1&#45;&gt;Node2</title>
<path fill="none" stroke="midnightblue" d="M140.21,-36.35C152.41,-37.64 165.14,-38.99 177.42,-40.3"/>
</g>
<!-- Node4 -->
<g id="node3" class="node">
<title>Node4</title>
<g id="a_node3"><a xlink:href="structUbxDecoder.html#a9d4f9921b951042ac44268bd96c77098" target="_top" xlink:title=" ">
<polygon fill="white" stroke="red" points="176,-0.5 176,-19.5 326,-19.5 326,-0.5 176,-0.5"/>
<text text-anchor="middle" x="251" y="-7.5" font-family="Helvetica,sans-Serif" font-size="10.00">UbxDecoder::decodeSFRBX</text>
</a>
</g>
</g>
<!-- Node1&#45;&gt;Node4 -->
<g id="edge2" class="edge">
<title>Node1&#45;&gt;Node4</title>
<path fill="none" stroke="midnightblue" d="M140.21,-21.65C151.91,-20.41 164.11,-19.12 175.94,-17.86"/>
</g>
</g>
</svg>
