<?xml version="1.0" encoding="UTF-8" standalone="no"?>
<!DOCTYPE svg PUBLIC "-//W3C//DTD SVG 1.1//EN"
 "http://www.w3.org/Graphics/SVG/1.1/DTD/svg11.dtd">
<!-- Generated by graphviz version 2.43.0 (0)
 -->
<!-- Title: NavStream Pages: 1 -->
<svg width="294pt" height="237pt"
 viewBox="0.00 0.00 293.50 237.00" xmlns="http://www.w3.org/2000/svg" xmlns:xlink="http://www.w3.org/1999/xlink">
<g id="graph0" class="graph" transform="scale(1 1) rotate(0) translate(4 233)">
<title>NavStream</title>
<polygon fill="white" stroke="transparent" points="-4,4 -4,-233 289.5,-233 289.5,4 -4,4"/>
<!-- Node1 -->
<g id="node1" class="node">
<title>Node1</title>
<g id="a_node1"><a xlink:title="Interface for objects that provide navigation data.">
<polygon fill="#bfbfbf" stroke="black" points="100.5,-171.5 100.5,-228.5 171.5,-228.5 171.5,-171.5 100.5,-171.5"/>
<text text-anchor="middle" x="136" y="-216.5" font-family="Helvetica,sans-Serif" font-size="10.00">NavStream</text>
<polyline fill="none" stroke="black" points="100.5,-209.5 171.5,-209.5 "/>
<text text-anchor="middle" x="136" y="-197.5" font-family="Helvetica,sans-Serif" font-size="10.00"> </text>
<polyline fill="none" stroke="black" points="100.5,-190.5 171.5,-190.5 "/>
<text text-anchor="start" x="108.5" y="-178.5" font-family="Helvetica,sans-Serif" font-size="10.00">+ getNav()</text>
</a>
</g>
</g>
<!-- Node2 -->
<g id="node2" class="node">
<title>Node2</title>
<g id="a_node2"><a xlink:href="structRinexStream.html" target="_top" xlink:title="Interface for rinex streams.">
<polygon fill="white" stroke="red" points="0,-0.5 0,-134.5 120,-134.5 120,-0.5 0,-0.5"/>
<text text-anchor="middle" x="60" y="-122.5" font-family="Helvetica,sans-Serif" font-size="10.00">RinexStream</text>
<polyline fill="none" stroke="red" points="0,-115.5 120,-115.5 "/>
<text text-anchor="start" x="8" y="-103.5" font-family="Helvetica,sans-Serif" font-size="10.00">+ ctype</text>
<text text-anchor="start" x="8" y="-92.5" font-family="Helvetica,sans-Serif" font-size="10.00">+ version</text>
<text text-anchor="start" x="8" y="-81.5" font-family="Helvetica,sans-Serif" font-size="10.00">+ nav_system</text>
<text text-anchor="start" x="8" y="-70.5" font-family="Helvetica,sans-Serif" font-size="10.00">+ time_system</text>
<text text-anchor="start" x="8" y="-59.5" font-family="Helvetica,sans-Serif" font-size="10.00">+ sysCodeTypes</text>
<text text-anchor="start" x="8" y="-48.5" font-family="Helvetica,sans-Serif" font-size="10.00">+ tempObsList</text>
<polyline fill="none" stroke="red" points="0,-41.5 120,-41.5 "/>
<text text-anchor="start" x="8" y="-29.5" font-family="Helvetica,sans-Serif" font-size="10.00">+ RinexStream()</text>
<text text-anchor="start" x="8" y="-18.5" font-family="Helvetica,sans-Serif" font-size="10.00">+ parseRINEX()</text>
<text text-anchor="start" x="8" y="-7.5" font-family="Helvetica,sans-Serif" font-size="10.00">+ readRinexHeader()</text>
</a>
</g>
</g>
<!-- Node1&#45;&gt;Node2 -->
<g id="edge1" class="edge">
<title>Node1&#45;&gt;Node2</title>
<path fill="none" stroke="midnightblue" d="M119.88,-171.32C113.56,-160.48 106.02,-147.52 98.46,-134.53"/>
</g>
<!-- Node4 -->
<g id="node3" class="node">
<title>Node4</title>
<g id="a_node3"><a xlink:href="structRtcmStream.html" target="_top" xlink:title=" ">
<polygon fill="white" stroke="red" points="138.5,-6 138.5,-129 285.5,-129 285.5,-6 138.5,-6"/>
<text text-anchor="middle" x="212" y="-117" font-family="Helvetica,sans-Serif" font-size="10.00">RtcmStream</text>
<polyline fill="none" stroke="red" points="138.5,-110 285.5,-110 "/>
<text text-anchor="start" x="146.5" y="-98" font-family="Helvetica,sans-Serif" font-size="10.00">+ lock_time_info_current</text>
<text text-anchor="start" x="146.5" y="-87" font-family="Helvetica,sans-Serif" font-size="10.00">+ lock_time_info_previous</text>
<text text-anchor="start" x="146.5" y="-76" font-family="Helvetica,sans-Serif" font-size="10.00">+ SuperList</text>
<text text-anchor="start" x="146.5" y="-65" font-family="Helvetica,sans-Serif" font-size="10.00">+ rtcm_filename</text>
<text text-anchor="start" x="146.5" y="-54" font-family="Helvetica,sans-Serif" font-size="10.00">+ record_rtcm</text>
<text text-anchor="start" x="146.5" y="-43" font-family="Helvetica,sans-Serif" font-size="10.00">+ rtcmDeltaTime</text>
<polyline fill="none" stroke="red" points="138.5,-36 285.5,-36 "/>
<text text-anchor="start" x="146.5" y="-24" font-family="Helvetica,sans-Serif" font-size="10.00">+ createRtcmFile()</text>
<text text-anchor="start" x="146.5" y="-13" font-family="Helvetica,sans-Serif" font-size="10.00">+ parseRTCM()</text>
</a>
</g>
</g>
<!-- Node1&#45;&gt;Node4 -->
<g id="edge2" class="edge">
<title>Node1&#45;&gt;Node4</title>
<path fill="none" stroke="midnightblue" d="M152.12,-171.32C159.31,-158.98 168.08,-143.91 176.67,-129.16"/>
</g>
</g>
</svg>
