<?xml version="1.0" encoding="UTF-8" standalone="no"?>
<!DOCTYPE svg PUBLIC "-//W3C//DTD SVG 1.1//EN"
 "http://www.w3.org/Graphics/SVG/1.1/DTD/svg11.dtd">
<!-- Generated by graphviz version 2.43.0 (0)
 -->
<!-- Title: ComponentsDetails Pages: 1 -->
<svg width="121pt" height="193pt"
 viewBox="0.00 0.00 121.00 193.00" xmlns="http://www.w3.org/2000/svg" xmlns:xlink="http://www.w3.org/1999/xlink">
<g id="graph0" class="graph" transform="scale(1 1) rotate(0) translate(4 189)">
<title>ComponentsDetails</title>
<polygon fill="white" stroke="transparent" points="-4,4 -4,-189 117,-189 117,4 -4,4"/>
<!-- Node1 -->
<g id="node1" class="node">
<title>Node1</title>
<g id="a_node1"><a xlink:title=" ">
<polygon fill="#bfbfbf" stroke="black" points="0,-0.5 0,-79.5 113,-79.5 113,-0.5 0,-0.5"/>
<text text-anchor="middle" x="56.5" y="-67.5" font-family="Helvetica,sans-Serif" font-size="10.00">ComponentsDetails</text>
<polyline fill="none" stroke="black" points="0,-60.5 113,-60.5 "/>
<text text-anchor="start" x="8" y="-48.5" font-family="Helvetica,sans-Serif" font-size="10.00">+ value</text>
<text text-anchor="start" x="8" y="-37.5" font-family="Helvetica,sans-Serif" font-size="10.00">+ var</text>
<polyline fill="none" stroke="black" points="0,-30.5 113,-30.5 "/>
<text text-anchor="start" x="8" y="-18.5" font-family="Helvetica,sans-Serif" font-size="10.00">+ operator+=()</text>
<text text-anchor="start" x="8" y="-7.5" font-family="Helvetica,sans-Serif" font-size="10.00">+ operator*()</text>
</a>
</g>
</g>
<!-- Node2 -->
<g id="node2" class="node">
<title>Node2</title>
<g id="a_node2"><a xlink:title=" ">
<polygon fill="white" stroke="black" points="34.5,-127.5 34.5,-184.5 78.5,-184.5 78.5,-127.5 34.5,-127.5"/>
<text text-anchor="middle" x="56.5" y="-172.5" font-family="Helvetica,sans-Serif" font-size="10.00">string</text>
<polyline fill="none" stroke="black" points="34.5,-165.5 78.5,-165.5 "/>
<text text-anchor="middle" x="56.5" y="-153.5" font-family="Helvetica,sans-Serif" font-size="10.00"> </text>
<polyline fill="none" stroke="black" points="34.5,-146.5 78.5,-146.5 "/>
<text text-anchor="middle" x="56.5" y="-134.5" font-family="Helvetica,sans-Serif" font-size="10.00"> </text>
</a>
</g>
</g>
<!-- Node2&#45;&gt;Node1 -->
<g id="edge1" class="edge">
<title>Node2&#45;&gt;Node1</title>
<path fill="none" stroke="#404040" d="M56.5,-127.4C56.5,-116.63 56.5,-103.93 56.5,-91.62"/>
<polygon fill="none" stroke="#404040" points="56.5,-91.54 52.5,-85.54 56.5,-79.54 60.5,-85.54 56.5,-91.54"/>
<text text-anchor="middle" x="68.5" y="-101" font-family="Helvetica,sans-Serif" font-size="10.00"> +eq</text>
</g>
</g>
</svg>
