<?xml version="1.0" encoding="UTF-8" standalone="no"?>
<!DOCTYPE svg PUBLIC "-//W3C//DTD SVG 1.1//EN"
 "http://www.w3.org/Graphics/SVG/1.1/DTD/svg11.dtd">
<!-- Generated by graphviz version 2.43.0 (0)
 -->
<!-- Title: RtcmEncoder Pages: 1 -->
<svg width="276pt" height="369pt"
 viewBox="0.00 0.00 275.50 369.00" xmlns="http://www.w3.org/2000/svg" xmlns:xlink="http://www.w3.org/1999/xlink">
<g id="graph0" class="graph" transform="scale(1 1) rotate(0) translate(4 365)">
<title>RtcmEncoder</title>
<polygon fill="white" stroke="transparent" points="-4,4 -4,-365 271.5,-365 271.5,4 -4,4"/>
<!-- Node1 -->
<g id="node1" class="node">
<title>Node1</title>
<g id="a_node1"><a xlink:title=" ">
<polygon fill="#bfbfbf" stroke="black" points="53,-0.5 53,-134.5 234,-134.5 234,-0.5 53,-0.5"/>
<text text-anchor="middle" x="143.5" y="-122.5" font-family="Helvetica,sans-Serif" font-size="10.00">RtcmEncoder</text>
<polyline fill="none" stroke="black" points="53,-115.5 234,-115.5 "/>
<text text-anchor="start" x="61" y="-103.5" font-family="Helvetica,sans-Serif" font-size="10.00">+ updateInterval</text>
<polyline fill="none" stroke="black" points="53,-96.5 234,-96.5 "/>
<text text-anchor="start" x="61" y="-84.5" font-family="Helvetica,sans-Serif" font-size="10.00">+ RtcmEncoder()</text>
<text text-anchor="start" x="61" y="-73.5" font-family="Helvetica,sans-Serif" font-size="10.00">+ encodeWriteMessages()</text>
<text text-anchor="start" x="61" y="-62.5" font-family="Helvetica,sans-Serif" font-size="10.00">+ encodeWriteMessageToBuffer()</text>
<text text-anchor="start" x="61" y="-51.5" font-family="Helvetica,sans-Serif" font-size="10.00">+ encodeSsrComb()</text>
<text text-anchor="start" x="61" y="-40.5" font-family="Helvetica,sans-Serif" font-size="10.00">+ encodeSsrPhase()</text>
<text text-anchor="start" x="61" y="-29.5" font-family="Helvetica,sans-Serif" font-size="10.00">+ encodeSsrCode()</text>
<text text-anchor="start" x="61" y="-18.5" font-family="Helvetica,sans-Serif" font-size="10.00">+ encodeTimeStampRTCM()</text>
<text text-anchor="start" x="61" y="-7.5" font-family="Helvetica,sans-Serif" font-size="10.00">+ getUdiIndex()</text>
</a>
</g>
</g>
<!-- Node2 -->
<g id="node2" class="node">
<title>Node2</title>
<g id="a_node2"><a xlink:href="structRtcmTrace.html" target="_top" xlink:title=" ">
<polygon fill="white" stroke="red" points="0,-182.5 0,-360.5 145,-360.5 145,-182.5 0,-182.5"/>
<text text-anchor="middle" x="72.5" y="-348.5" font-family="Helvetica,sans-Serif" font-size="10.00">RtcmTrace</text>
<polyline fill="none" stroke="red" points="0,-341.5 145,-341.5 "/>
<text text-anchor="middle" x="72.5" y="-329.5" font-family="Helvetica,sans-Serif" font-size="10.00"> </text>
<polyline fill="none" stroke="red" points="0,-322.5 145,-322.5 "/>
<text text-anchor="start" x="8" y="-310.5" font-family="Helvetica,sans-Serif" font-size="10.00">+ RtcmTrace()</text>
<text text-anchor="start" x="8" y="-299.5" font-family="Helvetica,sans-Serif" font-size="10.00">+ networkLog()</text>
<text text-anchor="start" x="8" y="-288.5" font-family="Helvetica,sans-Serif" font-size="10.00">+ messageChunkLog()</text>
<text text-anchor="start" x="8" y="-277.5" font-family="Helvetica,sans-Serif" font-size="10.00">+ messageRtcmLog()</text>
<text text-anchor="start" x="8" y="-266.5" font-family="Helvetica,sans-Serif" font-size="10.00">+ messageRtcmByteLog()</text>
<text text-anchor="start" x="8" y="-255.5" font-family="Helvetica,sans-Serif" font-size="10.00">+ outputSsrEphToJson()</text>
<text text-anchor="start" x="8" y="-244.5" font-family="Helvetica,sans-Serif" font-size="10.00">+ outputSsrClkToJson()</text>
<text text-anchor="start" x="8" y="-233.5" font-family="Helvetica,sans-Serif" font-size="10.00">+ traceSsrEph()</text>
<text text-anchor="start" x="8" y="-222.5" font-family="Helvetica,sans-Serif" font-size="10.00">+ traceSsrClk()</text>
<text text-anchor="start" x="8" y="-211.5" font-family="Helvetica,sans-Serif" font-size="10.00">+ traceSsrCodeB()</text>
<text text-anchor="start" x="8" y="-200.5" font-family="Helvetica,sans-Serif" font-size="10.00">+ traceSsrPhasB()</text>
<text text-anchor="start" x="8" y="-189.5" font-family="Helvetica,sans-Serif" font-size="10.00">+ traceBroEph()</text>
</a>
</g>
</g>
<!-- Node2&#45;&gt;Node1 -->
<g id="edge1" class="edge">
<title>Node2&#45;&gt;Node1</title>
<path fill="none" stroke="midnightblue" d="M103.44,-182.49C109.08,-166.43 114.88,-149.93 120.25,-134.65"/>
</g>
<!-- Node4 -->
<g id="node3" class="node">
<title>Node4</title>
<g id="a_node3"><a xlink:title=" ">
<polygon fill="white" stroke="red" points="163.5,-243 163.5,-300 267.5,-300 267.5,-243 163.5,-243"/>
<text text-anchor="middle" x="215.5" y="-288" font-family="Helvetica,sans-Serif" font-size="10.00">vector&lt; uint8_t &gt;</text>
<polyline fill="none" stroke="red" points="163.5,-281 267.5,-281 "/>
<text text-anchor="middle" x="215.5" y="-269" font-family="Helvetica,sans-Serif" font-size="10.00"> </text>
<polyline fill="none" stroke="red" points="163.5,-262 267.5,-262 "/>
<text text-anchor="middle" x="215.5" y="-250" font-family="Helvetica,sans-Serif" font-size="10.00"> </text>
</a>
</g>
</g>
<!-- Node4&#45;&gt;Node1 -->
<g id="edge2" class="edge">
<title>Node4&#45;&gt;Node1</title>
<path fill="none" stroke="#404040" d="M205.64,-242.84C195.78,-215.17 180.25,-171.59 167.18,-134.92"/>
<text text-anchor="middle" x="194.5" y="-156" font-family="Helvetica,sans-Serif" font-size="10.00"> +data</text>
</g>
</g>
</svg>
