<?xml version="1.0" encoding="UTF-8" standalone="no"?>
<!DOCTYPE svg PUBLIC "-//W3C//DTD SVG 1.1//EN"
 "http://www.w3.org/Graphics/SVG/1.1/DTD/svg11.dtd">
<!-- Generated by graphviz version 2.43.0 (0)
 -->
<!-- Title: Model Pages: 1 -->
<svg width="166pt" height="336pt"
 viewBox="0.00 0.00 165.50 336.00" xmlns="http://www.w3.org/2000/svg" xmlns:xlink="http://www.w3.org/1999/xlink">
<g id="graph0" class="graph" transform="scale(1 1) rotate(0) translate(4 332)">
<title>Model</title>
<polygon fill="white" stroke="transparent" points="-4,4 -4,-332 161.5,-332 161.5,4 -4,4"/>
<!-- Node1 -->
<g id="node1" class="node">
<title>Node1</title>
<g id="a_node1"><a xlink:title=" ">
<polygon fill="#bfbfbf" stroke="black" points="2.5,-0.5 2.5,-189.5 152.5,-189.5 152.5,-0.5 2.5,-0.5"/>
<text text-anchor="middle" x="77.5" y="-177.5" font-family="Helvetica,sans-Serif" font-size="10.00">Model</text>
<polyline fill="none" stroke="black" points="2.5,-170.5 152.5,-170.5 "/>
<text text-anchor="start" x="10.5" y="-158.5" font-family="Helvetica,sans-Serif" font-size="10.00">+ range</text>
<text text-anchor="start" x="10.5" y="-147.5" font-family="Helvetica,sans-Serif" font-size="10.00">+ relativity</text>
<text text-anchor="start" x="10.5" y="-136.5" font-family="Helvetica,sans-Serif" font-size="10.00">+ relativity2</text>
<text text-anchor="start" x="10.5" y="-125.5" font-family="Helvetica,sans-Serif" font-size="10.00">+ sagnac</text>
<text text-anchor="start" x="10.5" y="-114.5" font-family="Helvetica,sans-Serif" font-size="10.00">+ phase_windup</text>
<text text-anchor="start" x="10.5" y="-103.5" font-family="Helvetica,sans-Serif" font-size="10.00">+ heading</text>
<text text-anchor="start" x="10.5" y="-92.5" font-family="Helvetica,sans-Serif" font-size="10.00">+ integer_ambiguity</text>
<text text-anchor="start" x="10.5" y="-81.5" font-family="Helvetica,sans-Serif" font-size="10.00">+ ionospheric_component</text>
<text text-anchor="start" x="10.5" y="-70.5" font-family="Helvetica,sans-Serif" font-size="10.00">+ ionospheric_component2</text>
<text text-anchor="start" x="10.5" y="-59.5" font-family="Helvetica,sans-Serif" font-size="10.00">+ ionospheric_component3</text>
<text text-anchor="start" x="10.5" y="-48.5" font-family="Helvetica,sans-Serif" font-size="10.00">+ eop</text>
<text text-anchor="start" x="10.5" y="-37.5" font-family="Helvetica,sans-Serif" font-size="10.00">+ ionospheric_model</text>
<text text-anchor="start" x="10.5" y="-26.5" font-family="Helvetica,sans-Serif" font-size="10.00">+ orbits</text>
<polyline fill="none" stroke="black" points="2.5,-19.5 152.5,-19.5 "/>
<text text-anchor="middle" x="77.5" y="-7.5" font-family="Helvetica,sans-Serif" font-size="10.00"> </text>
</a>
</g>
</g>
<!-- Node2 -->
<g id="node2" class="node">
<title>Node2</title>
<g id="a_node2"><a xlink:href="structModelTrop.html" target="_top" xlink:title="Options to set the tropospheric model used in calculations.">
<polygon fill="white" stroke="red" points="0,-248.5 0,-316.5 67,-316.5 67,-248.5 0,-248.5"/>
<text text-anchor="middle" x="33.5" y="-304.5" font-family="Helvetica,sans-Serif" font-size="10.00">ModelTrop</text>
<polyline fill="none" stroke="red" points="0,-297.5 67,-297.5 "/>
<text text-anchor="start" x="8" y="-285.5" font-family="Helvetica,sans-Serif" font-size="10.00">+ model</text>
<text text-anchor="start" x="8" y="-274.5" font-family="Helvetica,sans-Serif" font-size="10.00">+ enable</text>
<polyline fill="none" stroke="red" points="0,-267.5 67,-267.5 "/>
<text text-anchor="middle" x="33.5" y="-255.5" font-family="Helvetica,sans-Serif" font-size="10.00"> </text>
</a>
</g>
</g>
<!-- Node2&#45;&gt;Node1 -->
<g id="edge1" class="edge">
<title>Node2&#45;&gt;Node1</title>
<path fill="none" stroke="#404040" d="M41.37,-248.34C45.3,-231.77 50.27,-210.8 55.26,-189.76"/>
<text text-anchor="middle" x="66" y="-211" font-family="Helvetica,sans-Serif" font-size="10.00"> +trop</text>
</g>
<!-- Node4 -->
<g id="node3" class="node">
<title>Node4</title>
<g id="a_node3"><a xlink:href="structModelTides.html" target="_top" xlink:title=" ">
<polygon fill="white" stroke="black" points="85.5,-237.5 85.5,-327.5 157.5,-327.5 157.5,-237.5 85.5,-237.5"/>
<text text-anchor="middle" x="121.5" y="-315.5" font-family="Helvetica,sans-Serif" font-size="10.00">ModelTides</text>
<polyline fill="none" stroke="black" points="85.5,-308.5 157.5,-308.5 "/>
<text text-anchor="start" x="93.5" y="-296.5" font-family="Helvetica,sans-Serif" font-size="10.00">+ enable</text>
<text text-anchor="start" x="93.5" y="-285.5" font-family="Helvetica,sans-Serif" font-size="10.00">+ solid</text>
<text text-anchor="start" x="93.5" y="-274.5" font-family="Helvetica,sans-Serif" font-size="10.00">+ otl</text>
<text text-anchor="start" x="93.5" y="-263.5" font-family="Helvetica,sans-Serif" font-size="10.00">+ pole</text>
<polyline fill="none" stroke="black" points="85.5,-256.5 157.5,-256.5 "/>
<text text-anchor="middle" x="121.5" y="-244.5" font-family="Helvetica,sans-Serif" font-size="10.00"> </text>
</a>
</g>
</g>
<!-- Node4&#45;&gt;Node1 -->
<g id="edge2" class="edge">
<title>Node4&#45;&gt;Node1</title>
<path fill="none" stroke="#404040" d="M110.96,-237.07C107.55,-222.71 103.64,-206.2 99.71,-189.65"/>
<text text-anchor="middle" x="123.5" y="-211" font-family="Helvetica,sans-Serif" font-size="10.00"> +tides</text>
</g>
</g>
</svg>
