<?xml version="1.0" encoding="UTF-8" standalone="no"?>
<!DOCTYPE svg PUBLIC "-//W3C//DTD SVG 1.1//EN"
 "http://www.w3.org/Graphics/SVG/1.1/DTD/svg11.dtd">
<!-- Generated by graphviz version 2.43.0 (0)
 -->
<!-- Title: Peph Pages: 1 -->
<svg width="568pt" height="662pt"
 viewBox="0.00 0.00 567.50 662.00" xmlns="http://www.w3.org/2000/svg" xmlns:xlink="http://www.w3.org/1999/xlink">
<g id="graph0" class="graph" transform="scale(1 1) rotate(0) translate(4 658)">
<title>Peph</title>
<polygon fill="white" stroke="transparent" points="-4,4 -4,-658 563.5,-658 563.5,4 -4,4"/>
<!-- Node1 -->
<g id="node1" class="node">
<title>Node1</title>
<g id="a_node1"><a xlink:title="precise ephemeris">
<polygon fill="#bfbfbf" stroke="black" points="253,-0.5 253,-57.5 308,-57.5 308,-0.5 253,-0.5"/>
<text text-anchor="middle" x="280.5" y="-45.5" font-family="Helvetica,sans-Serif" font-size="10.00">Peph</text>
<polyline fill="none" stroke="black" points="253,-38.5 308,-38.5 "/>
<text text-anchor="start" x="261" y="-26.5" font-family="Helvetica,sans-Serif" font-size="10.00">+ index</text>
<polyline fill="none" stroke="black" points="253,-19.5 308,-19.5 "/>
<text text-anchor="middle" x="280.5" y="-7.5" font-family="Helvetica,sans-Serif" font-size="10.00"> </text>
</a>
</g>
</g>
<!-- Node2 -->
<g id="node2" class="node">
<title>Node2</title>
<g id="a_node2"><a xlink:href="structPclk.html" target="_top" xlink:title="precise clock">
<polygon fill="white" stroke="black" points="0,-298 0,-377 69,-377 69,-298 0,-298"/>
<text text-anchor="middle" x="34.5" y="-365" font-family="Helvetica,sans-Serif" font-size="10.00">Pclk</text>
<polyline fill="none" stroke="black" points="0,-358 69,-358 "/>
<text text-anchor="start" x="8" y="-346" font-family="Helvetica,sans-Serif" font-size="10.00">+ clk</text>
<text text-anchor="start" x="8" y="-335" font-family="Helvetica,sans-Serif" font-size="10.00">+ clkStd</text>
<text text-anchor="start" x="8" y="-324" font-family="Helvetica,sans-Serif" font-size="10.00">+ clkIndex</text>
<polyline fill="none" stroke="black" points="0,-317 69,-317 "/>
<text text-anchor="middle" x="34.5" y="-305" font-family="Helvetica,sans-Serif" font-size="10.00"> </text>
</a>
</g>
</g>
<!-- Node2&#45;&gt;Node1 -->
<g id="edge1" class="edge">
<title>Node2&#45;&gt;Node1</title>
<path fill="none" stroke="midnightblue" d="M31.7,-297.69C30.36,-249.73 35.25,-168.11 77.5,-116 122.22,-60.85 208.72,-40.47 252.97,-33.43"/>
</g>
<!-- Node3 -->
<g id="node3" class="node">
<title>Node3</title>
<g id="a_node3"><a xlink:href="structSatSys.html" target="_top" xlink:title="Object holding satellite id, and providing related functions.">
<polygon fill="white" stroke="red" points="87,-226.5 87,-448.5 194,-448.5 194,-226.5 87,-226.5"/>
<text text-anchor="middle" x="140.5" y="-436.5" font-family="Helvetica,sans-Serif" font-size="10.00">SatSys</text>
<polyline fill="none" stroke="red" points="87,-429.5 194,-429.5 "/>
<text text-anchor="start" x="95" y="-417.5" font-family="Helvetica,sans-Serif" font-size="10.00">+ sys</text>
<text text-anchor="start" x="95" y="-406.5" font-family="Helvetica,sans-Serif" font-size="10.00">+ prn</text>
<polyline fill="none" stroke="red" points="87,-399.5 194,-399.5 "/>
<text text-anchor="start" x="95" y="-387.5" font-family="Helvetica,sans-Serif" font-size="10.00">+ SatSys()</text>
<text text-anchor="start" x="95" y="-376.5" font-family="Helvetica,sans-Serif" font-size="10.00">+ sysChar()</text>
<text text-anchor="start" x="95" y="-365.5" font-family="Helvetica,sans-Serif" font-size="10.00">+ getId()</text>
<text text-anchor="start" x="95" y="-354.5" font-family="Helvetica,sans-Serif" font-size="10.00">+ operator int()</text>
<text text-anchor="start" x="95" y="-343.5" font-family="Helvetica,sans-Serif" font-size="10.00">+ setBlockType()</text>
<text text-anchor="start" x="95" y="-332.5" font-family="Helvetica,sans-Serif" font-size="10.00">+ setSvn()</text>
<text text-anchor="start" x="95" y="-321.5" font-family="Helvetica,sans-Serif" font-size="10.00">+ blockType()</text>
<text text-anchor="start" x="95" y="-310.5" font-family="Helvetica,sans-Serif" font-size="10.00">+ svn()</text>
<text text-anchor="start" x="95" y="-299.5" font-family="Helvetica,sans-Serif" font-size="10.00">+ fromHash()</text>
<text text-anchor="start" x="95" y="-288.5" font-family="Helvetica,sans-Serif" font-size="10.00">+ id()</text>
<text text-anchor="start" x="95" y="-277.5" font-family="Helvetica,sans-Serif" font-size="10.00">+ operator string()</text>
<text text-anchor="start" x="95" y="-266.5" font-family="Helvetica,sans-Serif" font-size="10.00">+ SatSys()</text>
<text text-anchor="start" x="95" y="-255.5" font-family="Helvetica,sans-Serif" font-size="10.00">+ sysName()</text>
<text text-anchor="start" x="95" y="-244.5" font-family="Helvetica,sans-Serif" font-size="10.00">+ serialize()</text>
<text text-anchor="start" x="95" y="-233.5" font-family="Helvetica,sans-Serif" font-size="10.00">+ sysFromChar()</text>
</a>
</g>
</g>
<!-- Node3&#45;&gt;Node1 -->
<g id="edge2" class="edge">
<title>Node3&#45;&gt;Node1</title>
<path fill="none" stroke="#404040" d="M160.86,-226.32C170.33,-189.79 183.78,-149.84 202.5,-116 215.48,-92.54 236.03,-70.25 252.77,-54.24"/>
<text text-anchor="middle" x="244.5" y="-84.5" font-family="Helvetica,sans-Serif" font-size="10.00"> +Sat</text>
</g>
<!-- Node6 -->
<g id="node4" class="node">
<title>Node6</title>
<g id="a_node4"><a xlink:href="structGTime.html" target="_top" xlink:title="Time structure used throughout this software.">
<polygon fill="white" stroke="black" points="212,-116.5 212,-558.5 349,-558.5 349,-116.5 212,-116.5"/>
<text text-anchor="middle" x="280.5" y="-546.5" font-family="Helvetica,sans-Serif" font-size="10.00">GTime</text>
<polyline fill="none" stroke="black" points="212,-539.5 349,-539.5 "/>
<text text-anchor="start" x="220" y="-527.5" font-family="Helvetica,sans-Serif" font-size="10.00">+ bigTime</text>
<polyline fill="none" stroke="black" points="212,-520.5 349,-520.5 "/>
<text text-anchor="start" x="220" y="-508.5" font-family="Helvetica,sans-Serif" font-size="10.00">+ GTime()</text>
<text text-anchor="start" x="220" y="-497.5" font-family="Helvetica,sans-Serif" font-size="10.00">+ GTime()</text>
<text text-anchor="start" x="220" y="-486.5" font-family="Helvetica,sans-Serif" font-size="10.00">+ GTime()</text>
<text text-anchor="start" x="220" y="-475.5" font-family="Helvetica,sans-Serif" font-size="10.00">+ to_string()</text>
<text text-anchor="start" x="220" y="-464.5" font-family="Helvetica,sans-Serif" font-size="10.00">+ operator==()</text>
<text text-anchor="start" x="220" y="-453.5" font-family="Helvetica,sans-Serif" font-size="10.00">+ operator!=()</text>
<text text-anchor="start" x="220" y="-442.5" font-family="Helvetica,sans-Serif" font-size="10.00">+ operator&lt;()</text>
<text text-anchor="start" x="220" y="-431.5" font-family="Helvetica,sans-Serif" font-size="10.00">+ operator&gt;()</text>
<text text-anchor="start" x="220" y="-420.5" font-family="Helvetica,sans-Serif" font-size="10.00">+ operator&gt;=()</text>
<text text-anchor="start" x="220" y="-409.5" font-family="Helvetica,sans-Serif" font-size="10.00">+ operator+()</text>
<text text-anchor="start" x="220" y="-398.5" font-family="Helvetica,sans-Serif" font-size="10.00">+ operator+()</text>
<text text-anchor="start" x="220" y="-387.5" font-family="Helvetica,sans-Serif" font-size="10.00">+ operator+=()</text>
<text text-anchor="start" x="220" y="-376.5" font-family="Helvetica,sans-Serif" font-size="10.00">+ operator&#45;=()</text>
<text text-anchor="start" x="220" y="-365.5" font-family="Helvetica,sans-Serif" font-size="10.00">+ operator&#45;()</text>
<text text-anchor="start" x="220" y="-354.5" font-family="Helvetica,sans-Serif" font-size="10.00">+ operator&#45;()</text>
<text text-anchor="start" x="220" y="-343.5" font-family="Helvetica,sans-Serif" font-size="10.00">+ operator++()</text>
<text text-anchor="start" x="220" y="-332.5" font-family="Helvetica,sans-Serif" font-size="10.00">+ GTime()</text>
<text text-anchor="start" x="220" y="-321.5" font-family="Helvetica,sans-Serif" font-size="10.00">+ GTime()</text>
<text text-anchor="start" x="220" y="-310.5" font-family="Helvetica,sans-Serif" font-size="10.00">+ GTime()</text>
<text text-anchor="start" x="220" y="-299.5" font-family="Helvetica,sans-Serif" font-size="10.00">+ GTime()</text>
<text text-anchor="start" x="220" y="-288.5" font-family="Helvetica,sans-Serif" font-size="10.00">+ GTime()</text>
<text text-anchor="start" x="220" y="-277.5" font-family="Helvetica,sans-Serif" font-size="10.00">+ serialize()</text>
<text text-anchor="start" x="220" y="-266.5" font-family="Helvetica,sans-Serif" font-size="10.00">+ floorTime()</text>
<text text-anchor="start" x="220" y="-255.5" font-family="Helvetica,sans-Serif" font-size="10.00">+ gregString()</text>
<text text-anchor="start" x="220" y="-244.5" font-family="Helvetica,sans-Serif" font-size="10.00">+ operator long double()</text>
<text text-anchor="start" x="220" y="-233.5" font-family="Helvetica,sans-Serif" font-size="10.00">+ operator MjDateTT()</text>
<text text-anchor="start" x="220" y="-222.5" font-family="Helvetica,sans-Serif" font-size="10.00">+ operator GEpoch()</text>
<text text-anchor="start" x="220" y="-211.5" font-family="Helvetica,sans-Serif" font-size="10.00">+ operator UtcTime()</text>
<text text-anchor="start" x="220" y="-200.5" font-family="Helvetica,sans-Serif" font-size="10.00">+ operator GWeek()</text>
<text text-anchor="start" x="220" y="-189.5" font-family="Helvetica,sans-Serif" font-size="10.00">+ operator BWeek()</text>
<text text-anchor="start" x="220" y="-178.5" font-family="Helvetica,sans-Serif" font-size="10.00">+ operator GTow()</text>
<text text-anchor="start" x="220" y="-167.5" font-family="Helvetica,sans-Serif" font-size="10.00">+ operator BTow()</text>
<text text-anchor="start" x="220" y="-156.5" font-family="Helvetica,sans-Serif" font-size="10.00">+ operator PTime()</text>
<text text-anchor="start" x="220" y="-145.5" font-family="Helvetica,sans-Serif" font-size="10.00">+ operator string()</text>
<text text-anchor="start" x="220" y="-134.5" font-family="Helvetica,sans-Serif" font-size="10.00">+ operator RTod()</text>
<text text-anchor="start" x="220" y="-123.5" font-family="Helvetica,sans-Serif" font-size="10.00">+ noTime()</text>
</a>
</g>
</g>
<!-- Node6&#45;&gt;Node1 -->
<g id="edge3" class="edge">
<title>Node6&#45;&gt;Node1</title>
<path fill="none" stroke="#404040" d="M280.5,-116.19C280.5,-93.35 280.5,-72.98 280.5,-57.79"/>
<text text-anchor="middle" x="297.5" y="-84.5" font-family="Helvetica,sans-Serif" font-size="10.00"> +time</text>
</g>
<!-- Node7 -->
<g id="node5" class="node">
<title>Node7</title>
<g id="a_node5"><a xlink:href="structVectorEcef.html" target="_top" xlink:title=" ">
<polygon fill="white" stroke="black" points="367.5,-281.5 367.5,-393.5 455.5,-393.5 455.5,-281.5 367.5,-281.5"/>
<text text-anchor="middle" x="411.5" y="-381.5" font-family="Helvetica,sans-Serif" font-size="10.00">VectorEcef</text>
<polyline fill="none" stroke="black" points="367.5,-374.5 455.5,-374.5 "/>
<text text-anchor="middle" x="411.5" y="-362.5" font-family="Helvetica,sans-Serif" font-size="10.00"> </text>
<polyline fill="none" stroke="black" points="367.5,-355.5 455.5,-355.5 "/>
<text text-anchor="start" x="375.5" y="-343.5" font-family="Helvetica,sans-Serif" font-size="10.00">+ VectorEcef()</text>
<text text-anchor="start" x="375.5" y="-332.5" font-family="Helvetica,sans-Serif" font-size="10.00">+ VectorEcef()</text>
<text text-anchor="start" x="375.5" y="-321.5" font-family="Helvetica,sans-Serif" font-size="10.00">+ operator=()</text>
<text text-anchor="start" x="375.5" y="-310.5" font-family="Helvetica,sans-Serif" font-size="10.00">+ operator*()</text>
<text text-anchor="start" x="375.5" y="-299.5" font-family="Helvetica,sans-Serif" font-size="10.00">+ operator&#45;()</text>
<text text-anchor="start" x="375.5" y="-288.5" font-family="Helvetica,sans-Serif" font-size="10.00">+ operator+()</text>
</a>
</g>
</g>
<!-- Node7&#45;&gt;Node1 -->
<g id="edge4" class="edge">
<title>Node7&#45;&gt;Node1</title>
<path fill="none" stroke="#404040" d="M405.57,-281.29C398.87,-235.01 385.07,-168.3 357.5,-116 345.07,-92.42 324.77,-70.13 308.14,-54.15"/>
<text text-anchor="middle" x="361" y="-90" font-family="Helvetica,sans-Serif" font-size="10.00"> +pos</text>
<text text-anchor="middle" x="361" y="-79" font-family="Helvetica,sans-Serif" font-size="10.00">+vel</text>
</g>
<!-- Node8 -->
<g id="node6" class="node">
<title>Node8</title>
<g id="a_node6"><a xlink:title=" ">
<polygon fill="white" stroke="black" points="421.5,-596.5 421.5,-653.5 481.5,-653.5 481.5,-596.5 421.5,-596.5"/>
<text text-anchor="middle" x="451.5" y="-641.5" font-family="Helvetica,sans-Serif" font-size="10.00">Vector3d</text>
<polyline fill="none" stroke="black" points="421.5,-634.5 481.5,-634.5 "/>
<text text-anchor="middle" x="451.5" y="-622.5" font-family="Helvetica,sans-Serif" font-size="10.00"> </text>
<polyline fill="none" stroke="black" points="421.5,-615.5 481.5,-615.5 "/>
<text text-anchor="middle" x="451.5" y="-603.5" font-family="Helvetica,sans-Serif" font-size="10.00"> </text>
</a>
</g>
</g>
<!-- Node8&#45;&gt;Node1 -->
<g id="edge6" class="edge">
<title>Node8&#45;&gt;Node1</title>
<path fill="none" stroke="#404040" d="M462.02,-596.42C491.08,-515.21 564.01,-272.8 464.5,-116 429.83,-61.37 350.32,-40.87 308.07,-33.64"/>
<text text-anchor="middle" x="537" y="-340.5" font-family="Helvetica,sans-Serif" font-size="10.00"> +posStd</text>
<text text-anchor="middle" x="537" y="-329.5" font-family="Helvetica,sans-Serif" font-size="10.00">+velStd</text>
</g>
<!-- Node8&#45;&gt;Node7 -->
<g id="edge5" class="edge">
<title>Node8&#45;&gt;Node7</title>
<path fill="none" stroke="midnightblue" d="M447.63,-596.37C441.09,-549.7 427.74,-454.42 419.23,-393.66"/>
</g>
</g>
</svg>
