<?xml version="1.0" encoding="UTF-8" standalone="no"?>
<!DOCTYPE svg PUBLIC "-//W3C//DTD SVG 1.1//EN"
 "http://www.w3.org/Graphics/SVG/1.1/DTD/svg11.dtd">
<!-- Generated by graphviz version 2.43.0 (0)
 -->
<!-- Title: KFState::combineKFMeasList Pages: 1 -->
<svg width="319pt" height="66pt"
 viewBox="0.00 0.00 319.00 66.00" xmlns="http://www.w3.org/2000/svg" xmlns:xlink="http://www.w3.org/1999/xlink">
<g id="graph0" class="graph" transform="scale(1 1) rotate(0) translate(4 62)">
<title>KFState::combineKFMeasList</title>
<polygon fill="white" stroke="transparent" points="-4,4 -4,-62 315,-62 315,4 -4,4"/>
<!-- Node1 -->
<g id="node1" class="node">
<title>Node1</title>
<g id="a_node1"><a xlink:title="Combine a list of KFMeasEntrys into a single KFMeas object for used in the filter.">
<polygon fill="#bfbfbf" stroke="black" points="0,-19.5 0,-38.5 159,-38.5 159,-19.5 0,-19.5"/>
<text text-anchor="middle" x="79.5" y="-26.5" font-family="Helvetica,sans-Serif" font-size="10.00">KFState::combineKFMeasList</text>
</a>
</g>
</g>
<!-- Node2 -->
<g id="node2" class="node">
<title>Node2</title>
<g id="a_node2"><a xlink:href="$structGTime.html#aaa8a379d11cd6c040a6bbe680c0e913e" xlink:title="Uninitialised time for comparisons.">
<polygon fill="white" stroke="black" points="208,-38.5 208,-57.5 298,-57.5 298,-38.5 208,-38.5"/>
<text text-anchor="middle" x="253" y="-45.5" font-family="Helvetica,sans-Serif" font-size="10.00">GTime::noTime</text>
</a>
</g>
</g>
<!-- Node1&#45;&gt;Node2 -->
<g id="edge1" class="edge">
<title>Node1&#45;&gt;Node2</title>
<path fill="none" stroke="midnightblue" d="M159.22,-37.72C175.95,-39.58 193.04,-41.47 207.92,-43.12"/>
</g>
<!-- Node3 -->
<g id="node3" class="node">
<title>Node3</title>
<g id="a_node3"><a xlink:href="$structKFState.html#a5aeeee0f20df8cc8c4747c1b5b18212f" xlink:title="Finds the position in the KF state vector of particular states.">
<polygon fill="white" stroke="black" points="195,-0.5 195,-19.5 311,-19.5 311,-0.5 195,-0.5"/>
<text text-anchor="middle" x="253" y="-7.5" font-family="Helvetica,sans-Serif" font-size="10.00">KFState::getKFIndex</text>
</a>
</g>
</g>
<!-- Node1&#45;&gt;Node3 -->
<g id="edge2" class="edge">
<title>Node1&#45;&gt;Node3</title>
<path fill="none" stroke="midnightblue" d="M159.22,-20.28C171.2,-18.95 183.36,-17.6 194.76,-16.34"/>
</g>
</g>
</svg>
