<?xml version="1.0" encoding="UTF-8" standalone="no"?>
<!DOCTYPE svg PUBLIC "-//W3C//DTD SVG 1.1//EN"
 "http://www.w3.org/Graphics/SVG/1.1/DTD/svg11.dtd">
<!-- Generated by graphviz version 2.43.0 (0)
 -->
<!-- Title: ACSConfig::getSatOpts Pages: 1 -->
<svg width="557pt" height="370pt"
 viewBox="0.00 0.00 557.00 370.00" xmlns="http://www.w3.org/2000/svg" xmlns:xlink="http://www.w3.org/1999/xlink">
<g id="graph0" class="graph" transform="scale(1 1) rotate(0) translate(4 366)">
<title>ACSConfig::getSatOpts</title>
<polygon fill="white" stroke="transparent" points="-4,4 -4,-366 553,-366 553,4 -4,4"/>
<!-- Node1 -->
<g id="node1" class="node">
<title>Node1</title>
<g id="a_node1"><a xlink:title="Set satellite options for a specific satellite using a hierarchy of sources.">
<polygon fill="#bfbfbf" stroke="black" points="0,-190.5 0,-209.5 128,-209.5 128,-190.5 0,-190.5"/>
<text text-anchor="middle" x="64" y="-197.5" font-family="Helvetica,sans-Serif" font-size="10.00">ACSConfig::getSatOpts</text>
</a>
</g>
</g>
<!-- Node2 -->
<g id="node2" class="node">
<title>Node2</title>
<g id="a_node2"><a xlink:href="structSatSys.html#aec6d07b90d1e8172b8b6a6966abef4fd" target="_top" xlink:title="Returns a std::string of this satellite&#39;s id.">
<polygon fill="white" stroke="red" points="183.5,-342.5 183.5,-361.5 248.5,-361.5 248.5,-342.5 183.5,-342.5"/>
<text text-anchor="middle" x="216" y="-349.5" font-family="Helvetica,sans-Serif" font-size="10.00">SatSys::id</text>
</a>
</g>
</g>
<!-- Node1&#45;&gt;Node2 -->
<g id="edge1" class="edge">
<title>Node1&#45;&gt;Node2</title>
<path fill="none" stroke="midnightblue" d="M70.25,-209.6C83.33,-232.74 119.52,-292.31 164,-328 171.33,-333.88 180.33,-338.72 188.72,-342.48"/>
</g>
<!-- Node5 -->
<g id="node3" class="node">
<title>Node5</title>
<g id="a_node3"><a xlink:href="acsConfig_8cpp.html#a555e819507c7608d463fedb0616a95ff" target="_top" xlink:title="Set an output from yaml object if found.">
<polygon fill="white" stroke="red" points="304,-0.5 304,-19.5 398,-19.5 398,-0.5 304,-0.5"/>
<text text-anchor="middle" x="351" y="-7.5" font-family="Helvetica,sans-Serif" font-size="10.00">trySetFromYaml</text>
</a>
</g>
</g>
<!-- Node1&#45;&gt;Node5 -->
<g id="edge2" class="edge">
<title>Node1&#45;&gt;Node5</title>
<path fill="none" stroke="midnightblue" d="M71.2,-209.71C84.95,-230.2 120.24,-277.4 164,-295 206.88,-312.25 232.86,-325.03 268,-295 345.99,-228.36 262.37,-160.76 304,-67 312.36,-48.17 328.56,-30.35 339.33,-19.8"/>
</g>
<!-- Node6 -->
<g id="node4" class="node">
<title>Node6</title>
<g id="a_node4"><a xlink:href="acsConfig_8cpp.html#a5d035c64332701c7ae41cbd84a93c379" target="_top" xlink:title="Get an object within a hierarchy of yaml structure using a vector of nodes.">
<polygon fill="white" stroke="red" points="434,-76.5 434,-95.5 549,-95.5 549,-76.5 434,-76.5"/>
<text text-anchor="middle" x="491.5" y="-83.5" font-family="Helvetica,sans-Serif" font-size="10.00">stringsToYamlObject</text>
</a>
</g>
</g>
<!-- Node1&#45;&gt;Node6 -->
<g id="edge11" class="edge">
<title>Node1&#45;&gt;Node6</title>
<path fill="none" stroke="midnightblue" d="M78.02,-190.43C96.26,-177.51 130.93,-154.76 164,-143 263.27,-107.69 294.37,-124.05 398,-105 413.64,-102.13 430.71,-98.7 445.88,-95.56"/>
</g>
<!-- Node10 -->
<g id="node5" class="node">
<title>Node10</title>
<g id="a_node5"><a xlink:href="structSatSys.html#a099c890a6a613ec08f3260a51f0544f8" target="_top" xlink:title=" ">
<polygon fill="white" stroke="black" points="165.5,-266.5 165.5,-285.5 266.5,-285.5 266.5,-266.5 165.5,-266.5"/>
<text text-anchor="middle" x="216" y="-273.5" font-family="Helvetica,sans-Serif" font-size="10.00">SatSys::sysName</text>
</a>
</g>
</g>
<!-- Node1&#45;&gt;Node10 -->
<g id="edge4" class="edge">
<title>Node1&#45;&gt;Node10</title>
<path fill="none" stroke="midnightblue" d="M80.01,-209.7C99.05,-221.74 133.13,-242.49 164,-257 171.27,-260.42 179.33,-263.66 186.86,-266.47"/>
</g>
<!-- Node11 -->
<g id="node6" class="node">
<title>Node11</title>
<g id="a_node6"><a xlink:href="structSatSys.html#a01de9e9cee76346f43550516bba9558e" target="_top" xlink:title=" ">
<polygon fill="white" stroke="black" points="164,-228.5 164,-247.5 268,-247.5 268,-228.5 164,-228.5"/>
<text text-anchor="middle" x="216" y="-235.5" font-family="Helvetica,sans-Serif" font-size="10.00">SatSys::blockType</text>
</a>
</g>
</g>
<!-- Node1&#45;&gt;Node11 -->
<g id="edge5" class="edge">
<title>Node1&#45;&gt;Node11</title>
<path fill="none" stroke="midnightblue" d="M102.85,-209.59C125.68,-215.37 154.64,-222.71 177.42,-228.48"/>
</g>
<!-- Node12 -->
<g id="node7" class="node">
<title>Node12</title>
<g id="a_node7"><a xlink:href="structSatSys.html#a1da3994cf03ff0ec115928954c9307bb" target="_top" xlink:title=" ">
<polygon fill="white" stroke="black" points="179.5,-190.5 179.5,-209.5 252.5,-209.5 252.5,-190.5 179.5,-190.5"/>
<text text-anchor="middle" x="216" y="-197.5" font-family="Helvetica,sans-Serif" font-size="10.00">SatSys::svn</text>
</a>
</g>
</g>
<!-- Node1&#45;&gt;Node12 -->
<g id="edge6" class="edge">
<title>Node1&#45;&gt;Node12</title>
<path fill="none" stroke="midnightblue" d="M128.18,-200C145.63,-200 163.96,-200 179.26,-200"/>
</g>
<!-- Node13 -->
<g id="node8" class="node">
<title>Node13</title>
<g id="a_node8"><a xlink:href="acsConfig_8cpp.html#a93b507f5cfa7760051904a0a1863118a" target="_top" xlink:title="Set satellite options from yaml.">
<polygon fill="white" stroke="red" points="176,-152.5 176,-171.5 256,-171.5 256,-152.5 176,-152.5"/>
<text text-anchor="middle" x="216" y="-159.5" font-family="Helvetica,sans-Serif" font-size="10.00">getFromYaml</text>
</a>
</g>
</g>
<!-- Node1&#45;&gt;Node13 -->
<g id="edge7" class="edge">
<title>Node1&#45;&gt;Node13</title>
<path fill="none" stroke="midnightblue" d="M102.85,-190.41C125.68,-184.63 154.64,-177.29 177.42,-171.52"/>
</g>
<!-- Node15 -->
<g id="node9" class="node">
<title>Node15</title>
<g id="a_node9"><a xlink:href="acsConfig_8hpp.html#afbb4ad5e0459e2bb029f3e874ec566d5" target="_top" xlink:title=" ">
<polygon fill="white" stroke="black" points="321.5,-76.5 321.5,-95.5 380.5,-95.5 380.5,-76.5 321.5,-76.5"/>
<text text-anchor="middle" x="351" y="-83.5" font-family="Helvetica,sans-Serif" font-size="10.00">setInited</text>
</a>
</g>
</g>
<!-- Node1&#45;&gt;Node15 -->
<g id="edge12" class="edge">
<title>Node1&#45;&gt;Node15</title>
<path fill="none" stroke="midnightblue" d="M72.18,-190.34C86.97,-171.28 122.89,-129.01 164,-110 215.72,-86.09 283.65,-83.65 321.45,-84.51"/>
</g>
<!-- Node18 -->
<g id="node10" class="node">
<title>Node18</title>
<g id="a_node10"><a xlink:href="acsConfig_8cpp.html#a99ede584239689ebe876b6397c49bb7d" target="_top" xlink:title=" ">
<polygon fill="white" stroke="red" points="170,-38.5 170,-57.5 262,-57.5 262,-38.5 170,-38.5"/>
<text text-anchor="middle" x="216" y="-45.5" font-family="Helvetica,sans-Serif" font-size="10.00">trySetEnumVec</text>
</a>
</g>
</g>
<!-- Node1&#45;&gt;Node18 -->
<g id="edge13" class="edge">
<title>Node1&#45;&gt;Node18</title>
<path fill="none" stroke="midnightblue" d="M70.25,-190.4C83.33,-167.26 119.52,-107.69 164,-72 171.33,-66.12 180.33,-61.28 188.72,-57.52"/>
</g>
<!-- Node5&#45;&gt;Node6 -->
<g id="edge3" class="edge">
<title>Node5&#45;&gt;Node6</title>
<path fill="none" stroke="midnightblue" d="M370.87,-19.68C379.22,-24 389.13,-29.19 398,-34 424.73,-48.48 455.43,-65.9 473.88,-76.45"/>
</g>
<!-- Node13&#45;&gt;Node5 -->
<g id="edge10" class="edge">
<title>Node13&#45;&gt;Node5</title>
<path fill="none" stroke="midnightblue" d="M225.32,-152.49C249.2,-125.19 317.8,-46.8 341.68,-19.5"/>
</g>
<!-- Node13&#45;&gt;Node6 -->
<g id="edge8" class="edge">
<title>Node13&#45;&gt;Node6</title>
<path fill="none" stroke="midnightblue" d="M256.09,-161.07C293.41,-159.21 350.79,-153.75 398,-138 428.23,-127.91 459.85,-107.71 477.17,-95.67"/>
</g>
<!-- Node13&#45;&gt;Node15 -->
<g id="edge9" class="edge">
<title>Node13&#45;&gt;Node15</title>
<path fill="none" stroke="midnightblue" d="M233.84,-152.37C259.43,-137.76 307.79,-110.12 333.29,-95.55"/>
</g>
<!-- Node18&#45;&gt;Node5 -->
<g id="edge15" class="edge">
<title>Node18&#45;&gt;Node5</title>
<path fill="none" stroke="midnightblue" d="M250.56,-38.41C270.72,-32.65 296.29,-25.35 316.45,-19.59"/>
</g>
<!-- Node18&#45;&gt;Node6 -->
<g id="edge14" class="edge">
<title>Node18&#45;&gt;Node6</title>
<path fill="none" stroke="midnightblue" d="M262.16,-51.5C298.87,-54.65 351.94,-59.87 398,-67 414.53,-69.56 432.57,-73.09 448.29,-76.42"/>
</g>
</g>
</svg>
