<?xml version="1.0" encoding="UTF-8" standalone="no"?>
<!DOCTYPE svg PUBLIC "-//W3C//DTD SVG 1.1//EN"
 "http://www.w3.org/Graphics/SVG/1.1/DTD/svg11.dtd">
<!-- Generated by graphviz version 2.43.0 (0)
 -->
<!-- Title: NtripUploader Pages: 1 -->
<svg width="668pt" height="738pt"
 viewBox="0.00 0.00 668.00 738.00" xmlns="http://www.w3.org/2000/svg" xmlns:xlink="http://www.w3.org/1999/xlink">
<g id="graph0" class="graph" transform="scale(1 1) rotate(0) translate(4 734)">
<title>NtripUploader</title>
<polygon fill="white" stroke="transparent" points="-4,4 -4,-734 664,-734 664,4 -4,4"/>
<!-- Node1 -->
<g id="node1" class="node">
<title>Node1</title>
<g id="a_node1"><a xlink:title=" ">
<polygon fill="#bfbfbf" stroke="black" points="232.5,-0.5 232.5,-156.5 393.5,-156.5 393.5,-0.5 232.5,-0.5"/>
<text text-anchor="middle" x="313" y="-144.5" font-family="Helvetica,sans-Serif" font-size="10.00">NtripUploader</text>
<polyline fill="none" stroke="black" points="232.5,-137.5 393.5,-137.5 "/>
<text text-anchor="start" x="240.5" y="-125.5" font-family="Helvetica,sans-Serif" font-size="10.00">+ outMessagesMtx</text>
<text text-anchor="start" x="240.5" y="-114.5" font-family="Helvetica,sans-Serif" font-size="10.00">+ outMessages</text>
<text text-anchor="start" x="240.5" y="-103.5" font-family="Helvetica,sans-Serif" font-size="10.00">+ sendTimer</text>
<text text-anchor="start" x="240.5" y="-92.5" font-family="Helvetica,sans-Serif" font-size="10.00">+ numberChunksSent</text>
<polyline fill="none" stroke="black" points="232.5,-85.5 393.5,-85.5 "/>
<text text-anchor="start" x="240.5" y="-73.5" font-family="Helvetica,sans-Serif" font-size="10.00">+ NtripUploader()</text>
<text text-anchor="start" x="240.5" y="-62.5" font-family="Helvetica,sans-Serif" font-size="10.00">+ startBroadcast()</text>
<text text-anchor="start" x="240.5" y="-51.5" font-family="Helvetica,sans-Serif" font-size="10.00">+ connected()</text>
<text text-anchor="start" x="240.5" y="-40.5" font-family="Helvetica,sans-Serif" font-size="10.00">+ messageTimeout_hanlder()</text>
<text text-anchor="start" x="240.5" y="-29.5" font-family="Helvetica,sans-Serif" font-size="10.00">+ write_handler()</text>
<text text-anchor="start" x="240.5" y="-18.5" font-family="Helvetica,sans-Serif" font-size="10.00">+ serverResponse()</text>
<text text-anchor="start" x="240.5" y="-7.5" font-family="Helvetica,sans-Serif" font-size="10.00">+ getJsonNetworkStatistics()</text>
</a>
</g>
</g>
<!-- Node2 -->
<g id="node2" class="node">
<title>Node2</title>
<g id="a_node2"><a xlink:href="structNtripSocket.html" target="_top" xlink:title=" ">
<polygon fill="white" stroke="red" points="0,-204.5 0,-613.5 156,-613.5 156,-204.5 0,-204.5"/>
<text text-anchor="middle" x="78" y="-601.5" font-family="Helvetica,sans-Serif" font-size="10.00">NtripSocket</text>
<polyline fill="none" stroke="red" points="0,-594.5 156,-594.5 "/>
<text text-anchor="start" x="8" y="-582.5" font-family="Helvetica,sans-Serif" font-size="10.00">+ reconnectDelay</text>
<text text-anchor="start" x="8" y="-571.5" font-family="Helvetica,sans-Serif" font-size="10.00">+ disconnectionCount</text>
<text text-anchor="start" x="8" y="-560.5" font-family="Helvetica,sans-Serif" font-size="10.00">+ isConnected</text>
<text text-anchor="start" x="8" y="-549.5" font-family="Helvetica,sans-Serif" font-size="10.00">+ finishedReadingStream</text>
<text text-anchor="start" x="8" y="-538.5" font-family="Helvetica,sans-Serif" font-size="10.00">+ chunked_message_length</text>
<text text-anchor="start" x="8" y="-527.5" font-family="Helvetica,sans-Serif" font-size="10.00">+ numberErroredChunks</text>
<text text-anchor="start" x="8" y="-516.5" font-family="Helvetica,sans-Serif" font-size="10.00">+ logHttpSentReceived</text>
<text text-anchor="start" x="8" y="-505.5" font-family="Helvetica,sans-Serif" font-size="10.00">+ content_length</text>
<text text-anchor="start" x="8" y="-494.5" font-family="Helvetica,sans-Serif" font-size="10.00">+ ssl_context</text>
<text text-anchor="start" x="8" y="-483.5" font-family="Helvetica,sans-Serif" font-size="10.00">+ io_service</text>
<text text-anchor="start" x="8" y="-472.5" font-family="Helvetica,sans-Serif" font-size="10.00"># _socket</text>
<text text-anchor="start" x="8" y="-461.5" font-family="Helvetica,sans-Serif" font-size="10.00"># socket_ptr</text>
<text text-anchor="start" x="8" y="-450.5" font-family="Helvetica,sans-Serif" font-size="10.00"># _sslsocket</text>
<text text-anchor="start" x="8" y="-439.5" font-family="Helvetica,sans-Serif" font-size="10.00"># _resolver</text>
<text text-anchor="start" x="8" y="-428.5" font-family="Helvetica,sans-Serif" font-size="10.00"># timer</text>
<text text-anchor="start" x="8" y="-417.5" font-family="Helvetica,sans-Serif" font-size="10.00"># request</text>
<text text-anchor="start" x="8" y="-406.5" font-family="Helvetica,sans-Serif" font-size="10.00"># downloadBuf</text>
<polyline fill="none" stroke="red" points="0,-399.5 156,-399.5 "/>
<text text-anchor="start" x="8" y="-387.5" font-family="Helvetica,sans-Serif" font-size="10.00">+ NtripSocket()</text>
<text text-anchor="start" x="8" y="-376.5" font-family="Helvetica,sans-Serif" font-size="10.00">+ setUrl()</text>
<text text-anchor="start" x="8" y="-365.5" font-family="Helvetica,sans-Serif" font-size="10.00">+ connect()</text>
<text text-anchor="start" x="8" y="-354.5" font-family="Helvetica,sans-Serif" font-size="10.00">+ disconnect()</text>
<text text-anchor="start" x="8" y="-343.5" font-family="Helvetica,sans-Serif" font-size="10.00">+ start_read()</text>
<text text-anchor="start" x="8" y="-332.5" font-family="Helvetica,sans-Serif" font-size="10.00">+ logChunkError()</text>
<text text-anchor="start" x="8" y="-321.5" font-family="Helvetica,sans-Serif" font-size="10.00">+ printChunkHex()</text>
<text text-anchor="start" x="8" y="-310.5" font-family="Helvetica,sans-Serif" font-size="10.00">+ dataChunkDownloaded()</text>
<text text-anchor="start" x="8" y="-299.5" font-family="Helvetica,sans-Serif" font-size="10.00">+ readContentDownloaded()</text>
<text text-anchor="start" x="8" y="-288.5" font-family="Helvetica,sans-Serif" font-size="10.00">+ connected()</text>
<text text-anchor="start" x="8" y="-277.5" font-family="Helvetica,sans-Serif" font-size="10.00">+ messageChunkLog()</text>
<text text-anchor="start" x="8" y="-266.5" font-family="Helvetica,sans-Serif" font-size="10.00">+ networkLog()</text>
<text text-anchor="start" x="8" y="-255.5" font-family="Helvetica,sans-Serif" font-size="10.00">+ connectionError()</text>
<text text-anchor="start" x="8" y="-244.5" font-family="Helvetica,sans-Serif" font-size="10.00">+ serverResponse()</text>
<text text-anchor="start" x="8" y="-233.5" font-family="Helvetica,sans-Serif" font-size="10.00">+ runService()</text>
<text text-anchor="start" x="8" y="-222.5" font-family="Helvetica,sans-Serif" font-size="10.00">+ startClients()</text>
<text text-anchor="start" x="8" y="-211.5" font-family="Helvetica,sans-Serif" font-size="10.00"># delayed_reconnect()</text>
</a>
</g>
</g>
<!-- Node2&#45;&gt;Node1 -->
<g id="edge1" class="edge">
<title>Node2&#45;&gt;Node1</title>
<path fill="none" stroke="midnightblue" d="M156.04,-205.84C162.86,-195.04 170.18,-184.67 178,-175 193.08,-156.36 212.68,-139.72 232.26,-125.76"/>
</g>
<!-- Node4 -->
<g id="node3" class="node">
<title>Node4</title>
<g id="a_node3"><a xlink:title=" ">
<polygon fill="white" stroke="black" points="170,-672.5 170,-729.5 214,-729.5 214,-672.5 170,-672.5"/>
<text text-anchor="middle" x="192" y="-717.5" font-family="Helvetica,sans-Serif" font-size="10.00">string</text>
<polyline fill="none" stroke="black" points="170,-710.5 214,-710.5 "/>
<text text-anchor="middle" x="192" y="-698.5" font-family="Helvetica,sans-Serif" font-size="10.00"> </text>
<polyline fill="none" stroke="black" points="170,-691.5 214,-691.5 "/>
<text text-anchor="middle" x="192" y="-679.5" font-family="Helvetica,sans-Serif" font-size="10.00"> </text>
</a>
</g>
</g>
<!-- Node4&#45;&gt;Node1 -->
<g id="edge5" class="edge">
<title>Node4&#45;&gt;Node1</title>
<path fill="none" stroke="#404040" d="M189.98,-672.22C183.74,-580.76 167.1,-290.04 201,-204 208.25,-185.61 219.55,-168.2 232.24,-152.55"/>
<text text-anchor="middle" x="223.5" y="-412" font-family="Helvetica,sans-Serif" font-size="10.00"> +id</text>
<text text-anchor="middle" x="223.5" y="-401" font-family="Helvetica,sans-Serif" font-size="10.00">+ntripStr</text>
</g>
<!-- Node4&#45;&gt;Node2 -->
<g id="edge2" class="edge">
<title>Node4&#45;&gt;Node2</title>
<path fill="none" stroke="#404040" d="M169.81,-696.57C146.17,-691.63 109.76,-680.05 92,-654 83.51,-641.56 77.11,-627.87 72.38,-613.53"/>
<text text-anchor="middle" x="135" y="-646" font-family="Helvetica,sans-Serif" font-size="10.00"> #request_string</text>
<text text-anchor="middle" x="135" y="-635" font-family="Helvetica,sans-Serif" font-size="10.00">#response_string</text>
</g>
<!-- Node13 -->
<g id="node6" class="node">
<title>Node13</title>
<g id="a_node6"><a xlink:href="structSsrBroadcast.html" target="_top" xlink:title=" ">
<polygon fill="white" stroke="red" points="255,-380.5 255,-437.5 371,-437.5 371,-380.5 255,-380.5"/>
<text text-anchor="middle" x="313" y="-425.5" font-family="Helvetica,sans-Serif" font-size="10.00">SsrBroadcast</text>
<polyline fill="none" stroke="red" points="255,-418.5 371,-418.5 "/>
<text text-anchor="start" x="263" y="-406.5" font-family="Helvetica,sans-Serif" font-size="10.00">+ message_timeout</text>
<polyline fill="none" stroke="red" points="255,-399.5 371,-399.5 "/>
<text text-anchor="middle" x="313" y="-387.5" font-family="Helvetica,sans-Serif" font-size="10.00"> </text>
</a>
</g>
</g>
<!-- Node4&#45;&gt;Node13 -->
<g id="edge7" class="edge">
<title>Node4&#45;&gt;Node13</title>
<path fill="none" stroke="#404040" d="M209.41,-672.39C219.42,-655.84 231.79,-634.16 241,-614 268.94,-552.85 293.01,-477.48 304.96,-437.67"/>
<text text-anchor="middle" x="244.5" y="-640.5" font-family="Helvetica,sans-Serif" font-size="10.00"> +url</text>
</g>
<!-- Node8 -->
<g id="node4" class="node">
<title>Node8</title>
<g id="a_node4"><a xlink:href="structRtcmEncoder.html" target="_top" xlink:title=" ">
<polygon fill="white" stroke="red" points="389.5,-342 389.5,-476 570.5,-476 570.5,-342 389.5,-342"/>
<text text-anchor="middle" x="480" y="-464" font-family="Helvetica,sans-Serif" font-size="10.00">RtcmEncoder</text>
<polyline fill="none" stroke="red" points="389.5,-457 570.5,-457 "/>
<text text-anchor="start" x="397.5" y="-445" font-family="Helvetica,sans-Serif" font-size="10.00">+ updateInterval</text>
<polyline fill="none" stroke="red" points="389.5,-438 570.5,-438 "/>
<text text-anchor="start" x="397.5" y="-426" font-family="Helvetica,sans-Serif" font-size="10.00">+ RtcmEncoder()</text>
<text text-anchor="start" x="397.5" y="-415" font-family="Helvetica,sans-Serif" font-size="10.00">+ encodeWriteMessages()</text>
<text text-anchor="start" x="397.5" y="-404" font-family="Helvetica,sans-Serif" font-size="10.00">+ encodeWriteMessageToBuffer()</text>
<text text-anchor="start" x="397.5" y="-393" font-family="Helvetica,sans-Serif" font-size="10.00">+ encodeSsrComb()</text>
<text text-anchor="start" x="397.5" y="-382" font-family="Helvetica,sans-Serif" font-size="10.00">+ encodeSsrPhase()</text>
<text text-anchor="start" x="397.5" y="-371" font-family="Helvetica,sans-Serif" font-size="10.00">+ encodeSsrCode()</text>
<text text-anchor="start" x="397.5" y="-360" font-family="Helvetica,sans-Serif" font-size="10.00">+ encodeTimeStampRTCM()</text>
<text text-anchor="start" x="397.5" y="-349" font-family="Helvetica,sans-Serif" font-size="10.00">+ getUdiIndex()</text>
</a>
</g>
</g>
<!-- Node8&#45;&gt;Node1 -->
<g id="edge3" class="edge">
<title>Node8&#45;&gt;Node1</title>
<path fill="none" stroke="midnightblue" d="M462.82,-341.93C448.67,-293.68 425.89,-227.77 395,-175 391.41,-168.87 387.41,-162.76 383.17,-156.76"/>
</g>
<!-- Node12 -->
<g id="node5" class="node">
<title>Node12</title>
<g id="a_node5"><a xlink:title=" ">
<polygon fill="white" stroke="black" points="588.5,-380.5 588.5,-437.5 633.5,-437.5 633.5,-380.5 588.5,-380.5"/>
<text text-anchor="middle" x="611" y="-425.5" font-family="Helvetica,sans-Serif" font-size="10.00">ptime</text>
<polyline fill="none" stroke="black" points="588.5,-418.5 633.5,-418.5 "/>
<text text-anchor="middle" x="611" y="-406.5" font-family="Helvetica,sans-Serif" font-size="10.00"> </text>
<polyline fill="none" stroke="black" points="588.5,-399.5 633.5,-399.5 "/>
<text text-anchor="middle" x="611" y="-387.5" font-family="Helvetica,sans-Serif" font-size="10.00"> </text>
</a>
</g>
</g>
<!-- Node12&#45;&gt;Node1 -->
<g id="edge4" class="edge">
<title>Node12&#45;&gt;Node1</title>
<path fill="none" stroke="#404040" d="M614.46,-380.5C618.25,-338.17 619.29,-256.48 580,-204 535.25,-144.22 454.7,-112.13 393.74,-95.6"/>
<text text-anchor="middle" x="609.5" y="-178" font-family="Helvetica,sans-Serif" font-size="10.00"> +timeNextMessage</text>
</g>
<!-- Node13&#45;&gt;Node1 -->
<g id="edge6" class="edge">
<title>Node13&#45;&gt;Node1</title>
<path fill="none" stroke="#404040" d="M313,-380.28C313,-331.47 313,-228.61 313,-156.84"/>
<text text-anchor="middle" x="352" y="-178" font-family="Helvetica,sans-Serif" font-size="10.00"> +streamConfig</text>
</g>
</g>
</svg>
