<?xml version="1.0" encoding="UTF-8" standalone="no"?>
<!DOCTYPE svg PUBLIC "-//W3C//DTD SVG 1.1//EN"
 "http://www.w3.org/Graphics/SVG/1.1/DTD/svg11.dtd">
<!-- Generated by graphviz version 2.43.0 (0)
 -->
<!-- Title: SSRHRClk Pages: 1 -->
<svg width="180pt" height="771pt"
 viewBox="0.00 0.00 180.00 771.00" xmlns="http://www.w3.org/2000/svg" xmlns:xlink="http://www.w3.org/1999/xlink">
<g id="graph0" class="graph" transform="scale(1 1) rotate(0) translate(4 767)">
<title>SSRHRClk</title>
<polygon fill="white" stroke="transparent" points="-4,4 -4,-767 176,-767 176,4 -4,4"/>
<!-- Node1 -->
<g id="node1" class="node">
<title>Node1</title>
<g id="a_node1"><a xlink:title=" ">
<polygon fill="#bfbfbf" stroke="black" points="70.5,-0.5 70.5,-79.5 135.5,-79.5 135.5,-0.5 70.5,-0.5"/>
<text text-anchor="middle" x="103" y="-67.5" font-family="Helvetica,sans-Serif" font-size="10.00">SSRHRClk</text>
<polyline fill="none" stroke="black" points="70.5,-60.5 135.5,-60.5 "/>
<text text-anchor="start" x="78.5" y="-48.5" font-family="Helvetica,sans-Serif" font-size="10.00">+ udi</text>
<text text-anchor="start" x="78.5" y="-37.5" font-family="Helvetica,sans-Serif" font-size="10.00">+ iod</text>
<text text-anchor="start" x="78.5" y="-26.5" font-family="Helvetica,sans-Serif" font-size="10.00">+ hrclk</text>
<polyline fill="none" stroke="black" points="70.5,-19.5 135.5,-19.5 "/>
<text text-anchor="middle" x="103" y="-7.5" font-family="Helvetica,sans-Serif" font-size="10.00"> </text>
</a>
</g>
</g>
<!-- Node2 -->
<g id="node2" class="node">
<title>Node2</title>
<g id="a_node2"><a xlink:href="structSSRMeta.html" target="_top" xlink:title=" ">
<polygon fill="white" stroke="black" points="0,-127.5 0,-250.5 112,-250.5 112,-127.5 0,-127.5"/>
<text text-anchor="middle" x="56" y="-238.5" font-family="Helvetica,sans-Serif" font-size="10.00">SSRMeta</text>
<polyline fill="none" stroke="black" points="0,-231.5 112,-231.5 "/>
<text text-anchor="start" x="8" y="-219.5" font-family="Helvetica,sans-Serif" font-size="10.00">+ epochTime1s</text>
<text text-anchor="start" x="8" y="-208.5" font-family="Helvetica,sans-Serif" font-size="10.00">+ updateIntIndex</text>
<text text-anchor="start" x="8" y="-197.5" font-family="Helvetica,sans-Serif" font-size="10.00">+ multipleMessage</text>
<text text-anchor="start" x="8" y="-186.5" font-family="Helvetica,sans-Serif" font-size="10.00">+ referenceDatum</text>
<text text-anchor="start" x="8" y="-175.5" font-family="Helvetica,sans-Serif" font-size="10.00">+ provider</text>
<text text-anchor="start" x="8" y="-164.5" font-family="Helvetica,sans-Serif" font-size="10.00">+ solution</text>
<text text-anchor="start" x="8" y="-153.5" font-family="Helvetica,sans-Serif" font-size="10.00">+ numSats</text>
<polyline fill="none" stroke="black" points="0,-146.5 112,-146.5 "/>
<text text-anchor="middle" x="56" y="-134.5" font-family="Helvetica,sans-Serif" font-size="10.00"> </text>
</a>
</g>
</g>
<!-- Node2&#45;&gt;Node1 -->
<g id="edge1" class="edge">
<title>Node2&#45;&gt;Node1</title>
<path fill="none" stroke="#404040" d="M74.66,-127.43C77.75,-117.58 80.94,-107.5 84,-98 84.72,-95.77 85.46,-93.48 86.21,-91.18"/>
<polygon fill="none" stroke="#404040" points="86.27,-91 84.34,-84.05 90.02,-79.6 91.94,-86.55 86.27,-91"/>
<text text-anchor="middle" x="109.5" y="-101" font-family="Helvetica,sans-Serif" font-size="10.00"> +ssrMeta</text>
</g>
<!-- Node3 -->
<g id="node3" class="node">
<title>Node3</title>
<g id="a_node3"><a xlink:href="structGTime.html" target="_top" xlink:title="Time structure used throughout this software.">
<polygon fill="white" stroke="black" points="33.5,-298.5 33.5,-762.5 170.5,-762.5 170.5,-298.5 33.5,-298.5"/>
<text text-anchor="middle" x="102" y="-750.5" font-family="Helvetica,sans-Serif" font-size="10.00">GTime</text>
<polyline fill="none" stroke="black" points="33.5,-743.5 170.5,-743.5 "/>
<text text-anchor="start" x="41.5" y="-731.5" font-family="Helvetica,sans-Serif" font-size="10.00">+ bigTime</text>
<polyline fill="none" stroke="black" points="33.5,-724.5 170.5,-724.5 "/>
<text text-anchor="start" x="41.5" y="-712.5" font-family="Helvetica,sans-Serif" font-size="10.00">+ GTime()</text>
<text text-anchor="start" x="41.5" y="-701.5" font-family="Helvetica,sans-Serif" font-size="10.00">+ GTime()</text>
<text text-anchor="start" x="41.5" y="-690.5" font-family="Helvetica,sans-Serif" font-size="10.00">+ GTime()</text>
<text text-anchor="start" x="41.5" y="-679.5" font-family="Helvetica,sans-Serif" font-size="10.00">+ to_string()</text>
<text text-anchor="start" x="41.5" y="-668.5" font-family="Helvetica,sans-Serif" font-size="10.00">+ operator==()</text>
<text text-anchor="start" x="41.5" y="-657.5" font-family="Helvetica,sans-Serif" font-size="10.00">+ operator!=()</text>
<text text-anchor="start" x="41.5" y="-646.5" font-family="Helvetica,sans-Serif" font-size="10.00">+ operator&lt;()</text>
<text text-anchor="start" x="41.5" y="-635.5" font-family="Helvetica,sans-Serif" font-size="10.00">+ operator&gt;()</text>
<text text-anchor="start" x="41.5" y="-624.5" font-family="Helvetica,sans-Serif" font-size="10.00">+ operator&gt;=()</text>
<text text-anchor="start" x="41.5" y="-613.5" font-family="Helvetica,sans-Serif" font-size="10.00">+ operator+()</text>
<text text-anchor="start" x="41.5" y="-602.5" font-family="Helvetica,sans-Serif" font-size="10.00">+ operator+()</text>
<text text-anchor="start" x="41.5" y="-591.5" font-family="Helvetica,sans-Serif" font-size="10.00">+ operator+()</text>
<text text-anchor="start" x="41.5" y="-580.5" font-family="Helvetica,sans-Serif" font-size="10.00">+ operator+=()</text>
<text text-anchor="start" x="41.5" y="-569.5" font-family="Helvetica,sans-Serif" font-size="10.00">+ operator&#45;=()</text>
<text text-anchor="start" x="41.5" y="-558.5" font-family="Helvetica,sans-Serif" font-size="10.00">+ operator&#45;()</text>
<text text-anchor="start" x="41.5" y="-547.5" font-family="Helvetica,sans-Serif" font-size="10.00">+ operator&#45;()</text>
<text text-anchor="start" x="41.5" y="-536.5" font-family="Helvetica,sans-Serif" font-size="10.00">+ operator&#45;()</text>
<text text-anchor="start" x="41.5" y="-525.5" font-family="Helvetica,sans-Serif" font-size="10.00">+ operator++()</text>
<text text-anchor="start" x="41.5" y="-514.5" font-family="Helvetica,sans-Serif" font-size="10.00">+ GTime()</text>
<text text-anchor="start" x="41.5" y="-503.5" font-family="Helvetica,sans-Serif" font-size="10.00">+ GTime()</text>
<text text-anchor="start" x="41.5" y="-492.5" font-family="Helvetica,sans-Serif" font-size="10.00">+ GTime()</text>
<text text-anchor="start" x="41.5" y="-481.5" font-family="Helvetica,sans-Serif" font-size="10.00">+ GTime()</text>
<text text-anchor="start" x="41.5" y="-470.5" font-family="Helvetica,sans-Serif" font-size="10.00">+ GTime()</text>
<text text-anchor="start" x="41.5" y="-459.5" font-family="Helvetica,sans-Serif" font-size="10.00">+ serialize()</text>
<text text-anchor="start" x="41.5" y="-448.5" font-family="Helvetica,sans-Serif" font-size="10.00">+ floorTime()</text>
<text text-anchor="start" x="41.5" y="-437.5" font-family="Helvetica,sans-Serif" font-size="10.00">+ gregString()</text>
<text text-anchor="start" x="41.5" y="-426.5" font-family="Helvetica,sans-Serif" font-size="10.00">+ operator long double()</text>
<text text-anchor="start" x="41.5" y="-415.5" font-family="Helvetica,sans-Serif" font-size="10.00">+ operator MjDateTT()</text>
<text text-anchor="start" x="41.5" y="-404.5" font-family="Helvetica,sans-Serif" font-size="10.00">+ operator GEpoch()</text>
<text text-anchor="start" x="41.5" y="-393.5" font-family="Helvetica,sans-Serif" font-size="10.00">+ operator UtcTime()</text>
<text text-anchor="start" x="41.5" y="-382.5" font-family="Helvetica,sans-Serif" font-size="10.00">+ operator GWeek()</text>
<text text-anchor="start" x="41.5" y="-371.5" font-family="Helvetica,sans-Serif" font-size="10.00">+ operator BWeek()</text>
<text text-anchor="start" x="41.5" y="-360.5" font-family="Helvetica,sans-Serif" font-size="10.00">+ operator GTow()</text>
<text text-anchor="start" x="41.5" y="-349.5" font-family="Helvetica,sans-Serif" font-size="10.00">+ operator BTow()</text>
<text text-anchor="start" x="41.5" y="-338.5" font-family="Helvetica,sans-Serif" font-size="10.00">+ operator PTime()</text>
<text text-anchor="start" x="41.5" y="-327.5" font-family="Helvetica,sans-Serif" font-size="10.00">+ operator string()</text>
<text text-anchor="start" x="41.5" y="-316.5" font-family="Helvetica,sans-Serif" font-size="10.00">+ operator RTod()</text>
<text text-anchor="start" x="41.5" y="-305.5" font-family="Helvetica,sans-Serif" font-size="10.00">+ noTime()</text>
</a>
</g>
</g>
<!-- Node3&#45;&gt;Node1 -->
<g id="edge3" class="edge">
<title>Node3&#45;&gt;Node1</title>
<path fill="none" stroke="#404040" d="M147.62,-298.27C153.05,-232.74 151.7,-161.87 135,-98 134.4,-95.69 133.68,-93.38 132.87,-91.08"/>
<polygon fill="none" stroke="#404040" points="132.76,-90.83 126.75,-86.83 128.13,-79.75 134.14,-83.75 132.76,-90.83"/>
<text text-anchor="middle" x="161" y="-186.5" font-family="Helvetica,sans-Serif" font-size="10.00"> +t0</text>
</g>
<!-- Node3&#45;&gt;Node2 -->
<g id="edge2" class="edge">
<title>Node3&#45;&gt;Node2</title>
<path fill="none" stroke="#404040" d="M57.86,-298.28C57.18,-292.13 56.55,-286.03 56,-280 55.48,-274.36 55.12,-268.52 54.86,-262.64"/>
<polygon fill="none" stroke="#404040" points="54.86,-262.58 50.68,-256.7 54.49,-250.58 58.67,-256.46 54.86,-262.58"/>
<text text-anchor="middle" x="95.5" y="-272" font-family="Helvetica,sans-Serif" font-size="10.00"> +receivedTime</text>
</g>
</g>
</svg>
