<?xml version="1.0" encoding="UTF-8" standalone="no"?>
<!DOCTYPE svg PUBLIC "-//W3C//DTD SVG 1.1//EN"
 "http://www.w3.org/Graphics/SVG/1.1/DTD/svg11.dtd">
<!-- Generated by graphviz version 2.43.0 (0)
 -->
<!-- Title: OrbitState Pages: 1 -->
<svg width="823pt" height="754pt"
 viewBox="0.00 0.00 823.00 754.00" xmlns="http://www.w3.org/2000/svg" xmlns:xlink="http://www.w3.org/1999/xlink">
<g id="graph0" class="graph" transform="scale(1 1) rotate(0) translate(4 750)">
<title>OrbitState</title>
<polygon fill="white" stroke="transparent" points="-4,4 -4,-750 819,-750 819,4 -4,4"/>
<!-- Node1 -->
<g id="node1" class="node">
<title>Node1</title>
<g id="a_node1"><a xlink:title=" ">
<polygon fill="#bfbfbf" stroke="black" points="381,-0.5 381,-134.5 474,-134.5 474,-0.5 381,-0.5"/>
<text text-anchor="middle" x="427.5" y="-122.5" font-family="Helvetica,sans-Serif" font-size="10.00">OrbitState</text>
<polyline fill="none" stroke="black" points="381,-115.5 474,-115.5 "/>
<text text-anchor="start" x="389" y="-103.5" font-family="Helvetica,sans-Serif" font-size="10.00">+ satMass</text>
<text text-anchor="start" x="389" y="-92.5" font-family="Helvetica,sans-Serif" font-size="10.00">+ satPower</text>
<text text-anchor="start" x="389" y="-81.5" font-family="Helvetica,sans-Serif" font-size="10.00">+ satArea</text>
<text text-anchor="start" x="389" y="-70.5" font-family="Helvetica,sans-Serif" font-size="10.00">+ empnum</text>
<polyline fill="none" stroke="black" points="381,-63.5 474,-63.5 "/>
<text text-anchor="start" x="389" y="-51.5" font-family="Helvetica,sans-Serif" font-size="10.00">+ operator+=()</text>
<text text-anchor="start" x="389" y="-40.5" font-family="Helvetica,sans-Serif" font-size="10.00">+ operator*=()</text>
<text text-anchor="start" x="389" y="-29.5" font-family="Helvetica,sans-Serif" font-size="10.00">+ operator+()</text>
<text text-anchor="start" x="389" y="-18.5" font-family="Helvetica,sans-Serif" font-size="10.00">+ operator+()</text>
<text text-anchor="start" x="389" y="-7.5" font-family="Helvetica,sans-Serif" font-size="10.00">+ operator*()</text>
</a>
</g>
</g>
<!-- Node2 -->
<g id="node2" class="node">
<title>Node2</title>
<g id="a_node2"><a xlink:href="structSatSys.html" target="_top" xlink:title="Object holding satellite id, and providing related functions.">
<polygon fill="white" stroke="red" points="0,-358.5 0,-580.5 107,-580.5 107,-358.5 0,-358.5"/>
<text text-anchor="middle" x="53.5" y="-568.5" font-family="Helvetica,sans-Serif" font-size="10.00">SatSys</text>
<polyline fill="none" stroke="red" points="0,-561.5 107,-561.5 "/>
<text text-anchor="start" x="8" y="-549.5" font-family="Helvetica,sans-Serif" font-size="10.00">+ sys</text>
<text text-anchor="start" x="8" y="-538.5" font-family="Helvetica,sans-Serif" font-size="10.00">+ prn</text>
<polyline fill="none" stroke="red" points="0,-531.5 107,-531.5 "/>
<text text-anchor="start" x="8" y="-519.5" font-family="Helvetica,sans-Serif" font-size="10.00">+ SatSys()</text>
<text text-anchor="start" x="8" y="-508.5" font-family="Helvetica,sans-Serif" font-size="10.00">+ sysChar()</text>
<text text-anchor="start" x="8" y="-497.5" font-family="Helvetica,sans-Serif" font-size="10.00">+ getId()</text>
<text text-anchor="start" x="8" y="-486.5" font-family="Helvetica,sans-Serif" font-size="10.00">+ operator int()</text>
<text text-anchor="start" x="8" y="-475.5" font-family="Helvetica,sans-Serif" font-size="10.00">+ setBlockType()</text>
<text text-anchor="start" x="8" y="-464.5" font-family="Helvetica,sans-Serif" font-size="10.00">+ setSvn()</text>
<text text-anchor="start" x="8" y="-453.5" font-family="Helvetica,sans-Serif" font-size="10.00">+ blockType()</text>
<text text-anchor="start" x="8" y="-442.5" font-family="Helvetica,sans-Serif" font-size="10.00">+ svn()</text>
<text text-anchor="start" x="8" y="-431.5" font-family="Helvetica,sans-Serif" font-size="10.00">+ fromHash()</text>
<text text-anchor="start" x="8" y="-420.5" font-family="Helvetica,sans-Serif" font-size="10.00">+ id()</text>
<text text-anchor="start" x="8" y="-409.5" font-family="Helvetica,sans-Serif" font-size="10.00">+ operator string()</text>
<text text-anchor="start" x="8" y="-398.5" font-family="Helvetica,sans-Serif" font-size="10.00">+ SatSys()</text>
<text text-anchor="start" x="8" y="-387.5" font-family="Helvetica,sans-Serif" font-size="10.00">+ sysName()</text>
<text text-anchor="start" x="8" y="-376.5" font-family="Helvetica,sans-Serif" font-size="10.00">+ serialize()</text>
<text text-anchor="start" x="8" y="-365.5" font-family="Helvetica,sans-Serif" font-size="10.00">+ sysFromChar()</text>
</a>
</g>
</g>
<!-- Node2&#45;&gt;Node1 -->
<g id="edge1" class="edge">
<title>Node2&#45;&gt;Node1</title>
<path fill="none" stroke="#404040" d="M61.96,-358.2C70.06,-305.1 85.84,-242.4 116.5,-193 172.93,-102.08 308.91,-77.54 380.93,-70.93"/>
<text text-anchor="middle" x="158.5" y="-161.5" font-family="Helvetica,sans-Serif" font-size="10.00"> +Sat</text>
</g>
<!-- Node5 -->
<g id="node3" class="node">
<title>Node5</title>
<g id="a_node3"><a xlink:title=" ">
<polygon fill="white" stroke="black" points="125.5,-441 125.5,-498 169.5,-498 169.5,-441 125.5,-441"/>
<text text-anchor="middle" x="147.5" y="-486" font-family="Helvetica,sans-Serif" font-size="10.00">string</text>
<polyline fill="none" stroke="black" points="125.5,-479 169.5,-479 "/>
<text text-anchor="middle" x="147.5" y="-467" font-family="Helvetica,sans-Serif" font-size="10.00"> </text>
<polyline fill="none" stroke="black" points="125.5,-460 169.5,-460 "/>
<text text-anchor="middle" x="147.5" y="-448" font-family="Helvetica,sans-Serif" font-size="10.00"> </text>
</a>
</g>
</g>
<!-- Node5&#45;&gt;Node1 -->
<g id="edge2" class="edge">
<title>Node5&#45;&gt;Node1</title>
<path fill="none" stroke="#404040" d="M142.61,-440.91C134.75,-387.68 125.18,-269.36 178.5,-193 226.3,-124.55 322.98,-91.79 380.8,-77.72"/>
<text text-anchor="middle" x="227" y="-161.5" font-family="Helvetica,sans-Serif" font-size="10.00"> +str</text>
</g>
<!-- Node6 -->
<g id="node4" class="node">
<title>Node6</title>
<g id="a_node4"><a xlink:href="structKFState.html" target="_top" xlink:title=" ">
<polygon fill="white" stroke="red" points="187.5,-193.5 187.5,-745.5 363.5,-745.5 363.5,-193.5 187.5,-193.5"/>
<text text-anchor="middle" x="275.5" y="-733.5" font-family="Helvetica,sans-Serif" font-size="10.00">KFState</text>
<polyline fill="none" stroke="red" points="187.5,-726.5 363.5,-726.5 "/>
<text text-anchor="middle" x="275.5" y="-714.5" font-family="Helvetica,sans-Serif" font-size="10.00"> </text>
<polyline fill="none" stroke="red" points="187.5,-707.5 363.5,-707.5 "/>
<text text-anchor="start" x="195.5" y="-695.5" font-family="Helvetica,sans-Serif" font-size="10.00">+ KFState()</text>
<text text-anchor="start" x="195.5" y="-684.5" font-family="Helvetica,sans-Serif" font-size="10.00">+ KFState()</text>
<text text-anchor="start" x="195.5" y="-673.5" font-family="Helvetica,sans-Serif" font-size="10.00">+ operator=()</text>
<text text-anchor="start" x="195.5" y="-662.5" font-family="Helvetica,sans-Serif" font-size="10.00">+ serialize()</text>
<text text-anchor="start" x="195.5" y="-651.5" font-family="Helvetica,sans-Serif" font-size="10.00">+ initFilterEpoch()</text>
<text text-anchor="start" x="195.5" y="-640.5" font-family="Helvetica,sans-Serif" font-size="10.00">+ getKFIndex()</text>
<text text-anchor="start" x="195.5" y="-629.5" font-family="Helvetica,sans-Serif" font-size="10.00">+ getNoiseIndex()</text>
<text text-anchor="start" x="195.5" y="-618.5" font-family="Helvetica,sans-Serif" font-size="10.00">+ getKFValue()</text>
<text text-anchor="start" x="195.5" y="-607.5" font-family="Helvetica,sans-Serif" font-size="10.00">+ getKFSigma()</text>
<text text-anchor="start" x="195.5" y="-596.5" font-family="Helvetica,sans-Serif" font-size="10.00">+ setKFNoise()</text>
<text text-anchor="start" x="195.5" y="-585.5" font-family="Helvetica,sans-Serif" font-size="10.00">+ addKFState()</text>
<text text-anchor="start" x="195.5" y="-574.5" font-family="Helvetica,sans-Serif" font-size="10.00">+ setExponentialNoise()</text>
<text text-anchor="start" x="195.5" y="-563.5" font-family="Helvetica,sans-Serif" font-size="10.00">+ setAccelerator()</text>
<text text-anchor="start" x="195.5" y="-552.5" font-family="Helvetica,sans-Serif" font-size="10.00">+ setKFTrans()</text>
<text text-anchor="start" x="195.5" y="-541.5" font-family="Helvetica,sans-Serif" font-size="10.00">+ setKFTransRate()</text>
<text text-anchor="start" x="195.5" y="-530.5" font-family="Helvetica,sans-Serif" font-size="10.00">+ addNoiseElement()</text>
<text text-anchor="start" x="195.5" y="-519.5" font-family="Helvetica,sans-Serif" font-size="10.00">+ removeState()</text>
<text text-anchor="start" x="195.5" y="-508.5" font-family="Helvetica,sans-Serif" font-size="10.00">+ noiseElementStateTransition()</text>
<text text-anchor="start" x="195.5" y="-497.5" font-family="Helvetica,sans-Serif" font-size="10.00">+ stateTransition()</text>
<text text-anchor="start" x="195.5" y="-486.5" font-family="Helvetica,sans-Serif" font-size="10.00">+ manualStateTransition()</text>
<text text-anchor="start" x="195.5" y="-475.5" font-family="Helvetica,sans-Serif" font-size="10.00">+ preFitSigmaCheck()</text>
<text text-anchor="start" x="195.5" y="-464.5" font-family="Helvetica,sans-Serif" font-size="10.00">+ postFitSigmaChecks()</text>
<text text-anchor="start" x="195.5" y="-453.5" font-family="Helvetica,sans-Serif" font-size="10.00">+ stateChiSquare()</text>
<text text-anchor="start" x="195.5" y="-442.5" font-family="Helvetica,sans-Serif" font-size="10.00">+ measChiSquare()</text>
<text text-anchor="start" x="195.5" y="-431.5" font-family="Helvetica,sans-Serif" font-size="10.00">+ innovChiSquare()</text>
<text text-anchor="start" x="195.5" y="-420.5" font-family="Helvetica,sans-Serif" font-size="10.00">+ kFilter()</text>
<text text-anchor="start" x="195.5" y="-409.5" font-family="Helvetica,sans-Serif" font-size="10.00">+ chiQC()</text>
<text text-anchor="start" x="195.5" y="-398.5" font-family="Helvetica,sans-Serif" font-size="10.00">+ outputStates()</text>
<text text-anchor="start" x="195.5" y="-387.5" font-family="Helvetica,sans-Serif" font-size="10.00">+ outputConditionNumber()</text>
<text text-anchor="start" x="195.5" y="-376.5" font-family="Helvetica,sans-Serif" font-size="10.00">+ outputCorrelations()</text>
<text text-anchor="start" x="195.5" y="-365.5" font-family="Helvetica,sans-Serif" font-size="10.00">+ outputMeasurements()</text>
<text text-anchor="start" x="195.5" y="-354.5" font-family="Helvetica,sans-Serif" font-size="10.00">+ doStateRejectCallbacks()</text>
<text text-anchor="start" x="195.5" y="-343.5" font-family="Helvetica,sans-Serif" font-size="10.00">+ doMeasRejectCallbacks()</text>
<text text-anchor="start" x="195.5" y="-332.5" font-family="Helvetica,sans-Serif" font-size="10.00">+ filterKalman()</text>
<text text-anchor="start" x="195.5" y="-321.5" font-family="Helvetica,sans-Serif" font-size="10.00">+ filterLeastSquares()</text>
<text text-anchor="start" x="195.5" y="-310.5" font-family="Helvetica,sans-Serif" font-size="10.00">+ leastSquareInitStatesA()</text>
<text text-anchor="start" x="195.5" y="-299.5" font-family="Helvetica,sans-Serif" font-size="10.00">+ leastSquareInitStates()</text>
<text text-anchor="start" x="195.5" y="-288.5" font-family="Helvetica,sans-Serif" font-size="10.00">+ combineKFMeasList()</text>
<text text-anchor="start" x="195.5" y="-277.5" font-family="Helvetica,sans-Serif" font-size="10.00">+ getSubState()</text>
<text text-anchor="start" x="195.5" y="-266.5" font-family="Helvetica,sans-Serif" font-size="10.00">+ getSubState()</text>
<text text-anchor="start" x="195.5" y="-255.5" font-family="Helvetica,sans-Serif" font-size="10.00">+ setExponentialNoise()</text>
<text text-anchor="start" x="195.5" y="-244.5" font-family="Helvetica,sans-Serif" font-size="10.00">+ addNoiseElement()</text>
<text text-anchor="start" x="195.5" y="-233.5" font-family="Helvetica,sans-Serif" font-size="10.00">+ addNoiseEntry()</text>
<text text-anchor="start" x="195.5" y="-222.5" font-family="Helvetica,sans-Serif" font-size="10.00">+ addKFState()</text>
<text text-anchor="start" x="195.5" y="-211.5" font-family="Helvetica,sans-Serif" font-size="10.00">+ setKFTrans()</text>
<text text-anchor="start" x="195.5" y="-200.5" font-family="Helvetica,sans-Serif" font-size="10.00">+ setKFTransRate()</text>
</a>
</g>
</g>
<!-- Node6&#45;&gt;Node1 -->
<g id="edge3" class="edge">
<title>Node6&#45;&gt;Node1</title>
<path fill="none" stroke="#404040" d="M350.74,-193.28C356.33,-179.5 362.25,-166 368.5,-153 372.07,-145.58 376.26,-138.1 380.73,-130.82"/>
<text text-anchor="middle" x="396" y="-161.5" font-family="Helvetica,sans-Serif" font-size="10.00"> +subState</text>
</g>
<!-- Node54 -->
<g id="node5" class="node">
<title>Node54</title>
<g id="a_node5"><a xlink:title=" ">
<polygon fill="white" stroke="red" points="382,-441 382,-498 473,-498 473,-441 382,-441"/>
<text text-anchor="middle" x="427.5" y="-486" font-family="Helvetica,sans-Serif" font-size="10.00">vector&lt; EMP &gt;</text>
<polyline fill="none" stroke="red" points="382,-479 473,-479 "/>
<text text-anchor="middle" x="427.5" y="-467" font-family="Helvetica,sans-Serif" font-size="10.00"> </text>
<polyline fill="none" stroke="red" points="382,-460 473,-460 "/>
<text text-anchor="middle" x="427.5" y="-448" font-family="Helvetica,sans-Serif" font-size="10.00"> </text>
</a>
</g>
</g>
<!-- Node54&#45;&gt;Node1 -->
<g id="edge4" class="edge">
<title>Node54&#45;&gt;Node1</title>
<path fill="none" stroke="#404040" d="M427.5,-440.69C427.5,-377.88 427.5,-223.62 427.5,-134.66"/>
<text text-anchor="middle" x="456.5" y="-161.5" font-family="Helvetica,sans-Serif" font-size="10.00"> +empInput</text>
</g>
<!-- Node55 -->
<g id="node6" class="node">
<title>Node55</title>
<g id="a_node6"><a xlink:title=" ">
<polygon fill="white" stroke="red" points="491,-441 491,-498 658,-498 658,-441 491,-441"/>
<text text-anchor="middle" x="574.5" y="-486" font-family="Helvetica,sans-Serif" font-size="10.00">map&lt; E_Component, double &gt;</text>
<polyline fill="none" stroke="red" points="491,-479 658,-479 "/>
<text text-anchor="middle" x="574.5" y="-467" font-family="Helvetica,sans-Serif" font-size="10.00"> </text>
<polyline fill="none" stroke="red" points="491,-460 658,-460 "/>
<text text-anchor="middle" x="574.5" y="-448" font-family="Helvetica,sans-Serif" font-size="10.00"> </text>
</a>
</g>
</g>
<!-- Node55&#45;&gt;Node1 -->
<g id="edge5" class="edge">
<title>Node55&#45;&gt;Node1</title>
<path fill="none" stroke="#404040" d="M570.55,-440.71C561.78,-384.24 537.55,-252.95 489.5,-153 485.16,-143.98 479.83,-134.94 474.13,-126.29"/>
<text text-anchor="middle" x="543" y="-161.5" font-family="Helvetica,sans-Serif" font-size="10.00"> +componentsMap</text>
</g>
<!-- Node30 -->
<g id="node7" class="node">
<title>Node30</title>
<g id="a_node7"><a xlink:title=" ">
<polygon fill="white" stroke="black" points="675.5,-441 675.5,-498 735.5,-498 735.5,-441 675.5,-441"/>
<text text-anchor="middle" x="705.5" y="-486" font-family="Helvetica,sans-Serif" font-size="10.00">Vector3d</text>
<polyline fill="none" stroke="black" points="675.5,-479 735.5,-479 "/>
<text text-anchor="middle" x="705.5" y="-467" font-family="Helvetica,sans-Serif" font-size="10.00"> </text>
<polyline fill="none" stroke="black" points="675.5,-460 735.5,-460 "/>
<text text-anchor="middle" x="705.5" y="-448" font-family="Helvetica,sans-Serif" font-size="10.00"> </text>
</a>
</g>
</g>
<!-- Node30&#45;&gt;Node1 -->
<g id="edge6" class="edge">
<title>Node30&#45;&gt;Node1</title>
<path fill="none" stroke="#404040" d="M709.33,-440.98C715.2,-387.89 720.73,-269.78 667.5,-193 621.77,-127.03 530.05,-93.64 474.18,-78.74"/>
<text text-anchor="middle" x="663" y="-167" font-family="Helvetica,sans-Serif" font-size="10.00"> +pos</text>
<text text-anchor="middle" x="663" y="-156" font-family="Helvetica,sans-Serif" font-size="10.00">+vel</text>
</g>
<!-- Node10 -->
<g id="node8" class="node">
<title>Node10</title>
<g id="a_node8"><a xlink:title=" ">
<polygon fill="white" stroke="black" points="754,-441 754,-498 815,-498 815,-441 754,-441"/>
<text text-anchor="middle" x="784.5" y="-486" font-family="Helvetica,sans-Serif" font-size="10.00">MatrixXd</text>
<polyline fill="none" stroke="black" points="754,-479 815,-479 "/>
<text text-anchor="middle" x="784.5" y="-467" font-family="Helvetica,sans-Serif" font-size="10.00"> </text>
<polyline fill="none" stroke="black" points="754,-460 815,-460 "/>
<text text-anchor="middle" x="784.5" y="-448" font-family="Helvetica,sans-Serif" font-size="10.00"> </text>
</a>
</g>
</g>
<!-- Node10&#45;&gt;Node1 -->
<g id="edge7" class="edge">
<title>Node10&#45;&gt;Node1</title>
<path fill="none" stroke="#404040" d="M787.64,-440.88C792.19,-388.12 795.2,-271.3 744.5,-193 685.29,-101.56 547.1,-77.25 474.29,-70.81"/>
<text text-anchor="middle" x="760.5" y="-161.5" font-family="Helvetica,sans-Serif" font-size="10.00"> +posVelSTM</text>
</g>
</g>
</svg>
