<?xml version="1.0" encoding="UTF-8" standalone="no"?>
<!DOCTYPE svg PUBLIC "-//W3C//DTD SVG 1.1//EN"
 "http://www.w3.org/Graphics/SVG/1.1/DTD/svg11.dtd">
<!-- Generated by graphviz version 2.43.0 (0)
 -->
<!-- Title: RtcmEncoder::encodeWriteMessages Pages: 1 -->
<svg width="369pt" height="96pt"
 viewBox="0.00 0.00 369.00 95.50" xmlns="http://www.w3.org/2000/svg" xmlns:xlink="http://www.w3.org/1999/xlink">
<g id="graph0" class="graph" transform="scale(1 1) rotate(0) translate(4 91.5)">
<title>RtcmEncoder::encodeWriteMessages</title>
<polygon fill="white" stroke="transparent" points="-4,4 -4,-91.5 365,-91.5 365,4 -4,4"/>
<!-- Node1 -->
<g id="node1" class="node">
<title>Node1</title>
<g id="a_node1"><a xlink:title=" ">
<polygon fill="#bfbfbf" stroke="black" points="212,-17 212,-47 361,-47 361,-17 212,-17"/>
<text text-anchor="start" x="220" y="-35" font-family="Helvetica,sans-Serif" font-size="10.00">RtcmEncoder::encodeWrite</text>
<text text-anchor="middle" x="286.5" y="-24" font-family="Helvetica,sans-Serif" font-size="10.00">Messages</text>
</a>
</g>
</g>
<!-- Node2 -->
<g id="node2" class="node">
<title>Node2</title>
<g id="a_node2"><a xlink:href="structNtripUploader.html#a391d7d2c8f7b72a659bd35d8242fb30a" target="_top" xlink:title=" ">
<polygon fill="white" stroke="red" points="0,-39 0,-69 176,-69 176,-39 0,-39"/>
<text text-anchor="start" x="8" y="-57" font-family="Helvetica,sans-Serif" font-size="10.00">NtripUploader::messageTimeout</text>
<text text-anchor="middle" x="88" y="-46" font-family="Helvetica,sans-Serif" font-size="10.00">_handler</text>
</a>
</g>
</g>
<!-- Node1&#45;&gt;Node2 -->
<g id="edge1" class="edge">
<title>Node1&#45;&gt;Node2</title>
<path fill="none" stroke="midnightblue" d="M201.56,-41.4C193.12,-42.34 184.53,-43.3 176.05,-44.25"/>
<polygon fill="midnightblue" stroke="midnightblue" points="202.22,-44.85 211.77,-40.25 201.44,-37.89 202.22,-44.85"/>
</g>
<!-- Node5 -->
<g id="node3" class="node">
<title>Node5</title>
<g id="a_node3"><a xlink:href="structRtcmDecoder.html#a9dcc38e7fa87e8aef6ec17cc3626146a" target="_top" xlink:title=" ">
<polygon fill="white" stroke="red" points="13,-0.5 13,-19.5 163,-19.5 163,-0.5 13,-0.5"/>
<text text-anchor="middle" x="88" y="-7.5" font-family="Helvetica,sans-Serif" font-size="10.00">RtcmDecoder::recordFrame</text>
</a>
</g>
</g>
<!-- Node1&#45;&gt;Node5 -->
<g id="edge3" class="edge">
<title>Node1&#45;&gt;Node5</title>
<path fill="none" stroke="midnightblue" d="M201.6,-22.61C188.82,-21.18 175.7,-19.71 163.14,-18.3"/>
<polygon fill="midnightblue" stroke="midnightblue" points="201.44,-26.11 211.77,-23.75 202.22,-19.15 201.44,-26.11"/>
</g>
<!-- Node2&#45;&gt;Node2 -->
<g id="edge2" class="edge">
<title>Node2&#45;&gt;Node2</title>
<path fill="none" stroke="midnightblue" d="M123.18,-79.46C118.82,-84.18 107.09,-87.5 88,-87.5 56.68,-87.5 45.17,-78.56 53.49,-69.16"/>
<polygon fill="midnightblue" stroke="midnightblue" points="126.65,-78.91 122.51,-69.16 119.67,-79.37 126.65,-78.91"/>
</g>
</g>
</svg>
