<?xml version="1.0" encoding="UTF-8" standalone="no"?>
<!DOCTYPE svg PUBLIC "-//W3C//DTD SVG 1.1//EN"
 "http://www.w3.org/Graphics/SVG/1.1/DTD/svg11.dtd">
<!-- Generated by graphviz version 2.43.0 (0)
 -->
<!-- Title: icdDecoder::decodeGpsSubframe Pages: 1 -->
<svg width="408pt" height="142pt"
 viewBox="0.00 0.00 408.00 142.00" xmlns="http://www.w3.org/2000/svg" xmlns:xlink="http://www.w3.org/1999/xlink">
<g id="graph0" class="graph" transform="scale(1 1) rotate(0) translate(4 138)">
<title>icdDecoder::decodeGpsSubframe</title>
<polygon fill="white" stroke="transparent" points="-4,4 -4,-138 404,-138 404,4 -4,4"/>
<!-- Node1 -->
<g id="node1" class="node">
<title>Node1</title>
<g id="a_node1"><a xlink:title=" ">
<polygon fill="#bfbfbf" stroke="black" points="0,-57.5 0,-76.5 179,-76.5 179,-57.5 0,-57.5"/>
<text text-anchor="middle" x="89.5" y="-64.5" font-family="Helvetica,sans-Serif" font-size="10.00">icdDecoder::decodeGpsSubframe</text>
</a>
</g>
</g>
<!-- Node2 -->
<g id="node2" class="node">
<title>Node2</title>
<g id="a_node2"><a xlink:href="rtcmDecoder_8cpp.html#a85a03123ae20efc3b06434f616140943" target="_top" xlink:title="extract unsigned bits from byte data">
<polygon fill="white" stroke="black" points="282,-114.5 282,-133.5 333,-133.5 333,-114.5 282,-114.5"/>
<text text-anchor="middle" x="307.5" y="-121.5" font-family="Helvetica,sans-Serif" font-size="10.00">getbitu</text>
</a>
</g>
</g>
<!-- Node1&#45;&gt;Node2 -->
<g id="edge1" class="edge">
<title>Node1&#45;&gt;Node2</title>
<path fill="none" stroke="midnightblue" d="M118.97,-76.5C144.07,-84.69 181.72,-96.49 215,-105 237.48,-110.75 263.39,-116.01 281.89,-119.52"/>
</g>
<!-- Node3 -->
<g id="node3" class="node">
<title>Node3</title>
<g id="a_node3"><a xlink:href="structicdDecoder.html#ae5462975b21725fb342edd335cd58b54" target="_top" xlink:title=" ">
<polygon fill="white" stroke="red" points="215,-76.5 215,-95.5 400,-95.5 400,-76.5 215,-76.5"/>
<text text-anchor="middle" x="307.5" y="-83.5" font-family="Helvetica,sans-Serif" font-size="10.00">icdDecoder::decodeGPSSubframe1</text>
</a>
</g>
</g>
<!-- Node1&#45;&gt;Node3 -->
<g id="edge2" class="edge">
<title>Node1&#45;&gt;Node3</title>
<path fill="none" stroke="midnightblue" d="M179.29,-74.81C191.04,-75.84 203.11,-76.91 214.91,-77.94"/>
</g>
<!-- Node7 -->
<g id="node4" class="node">
<title>Node7</title>
<g id="a_node4"><a xlink:href="structicdDecoder.html#a8fd3f8b00e4fd8825985953c268738ce" target="_top" xlink:title=" ">
<polygon fill="white" stroke="red" points="215,-38.5 215,-57.5 400,-57.5 400,-38.5 215,-38.5"/>
<text text-anchor="middle" x="307.5" y="-45.5" font-family="Helvetica,sans-Serif" font-size="10.00">icdDecoder::decodeGPSSubframe2</text>
</a>
</g>
</g>
<!-- Node1&#45;&gt;Node7 -->
<g id="edge3" class="edge">
<title>Node1&#45;&gt;Node7</title>
<path fill="none" stroke="midnightblue" d="M179.29,-59.19C191.04,-58.16 203.11,-57.09 214.91,-56.06"/>
</g>
<!-- Node8 -->
<g id="node5" class="node">
<title>Node8</title>
<g id="a_node5"><a xlink:href="structicdDecoder.html#aea659f71285c53546a37983124997094" target="_top" xlink:title=" ">
<polygon fill="white" stroke="red" points="215,-0.5 215,-19.5 400,-19.5 400,-0.5 215,-0.5"/>
<text text-anchor="middle" x="307.5" y="-7.5" font-family="Helvetica,sans-Serif" font-size="10.00">icdDecoder::decodeGPSSubframe3</text>
</a>
</g>
</g>
<!-- Node1&#45;&gt;Node8 -->
<g id="edge4" class="edge">
<title>Node1&#45;&gt;Node8</title>
<path fill="none" stroke="midnightblue" d="M118.97,-57.5C144.07,-49.31 181.72,-37.51 215,-29 228.36,-25.58 242.94,-22.34 256.45,-19.53"/>
</g>
</g>
</svg>
