<?xml version="1.0" encoding="UTF-8" standalone="no"?>
<!DOCTYPE svg PUBLIC "-//W3C//DTD SVG 1.1//EN"
 "http://www.w3.org/Graphics/SVG/1.1/DTD/svg11.dtd">
<!-- Generated by graphviz version 2.43.0 (0)
 -->
<!-- Title: RtcmDecoder::decodeEphemeris Pages: 1 -->
<svg width="541pt" height="636pt"
 viewBox="0.00 0.00 541.00 636.00" xmlns="http://www.w3.org/2000/svg" xmlns:xlink="http://www.w3.org/1999/xlink">
<g id="graph0" class="graph" transform="scale(1 1) rotate(0) translate(4 632)">
<title>RtcmDecoder::decodeEphemeris</title>
<polygon fill="white" stroke="transparent" points="-4,4 -4,-632 537,-632 537,4 -4,4"/>
<!-- Node1 -->
<g id="node1" class="node">
<title>Node1</title>
<g id="a_node1"><a xlink:title="decode RTCM navigation messages">
<polygon fill="#bfbfbf" stroke="black" points="0,-304.5 0,-323.5 176,-323.5 176,-304.5 0,-304.5"/>
<text text-anchor="middle" x="88" y="-311.5" font-family="Helvetica,sans-Serif" font-size="10.00">RtcmDecoder::decodeEphemeris</text>
</a>
</g>
</g>
<!-- Node2 -->
<g id="node2" class="node">
<title>Node2</title>
<g id="a_node2"><a xlink:href="rtcmDecoder_8cpp.html#aaa6463f592ed6478626814466d3d02a5" target="_top" xlink:title="increasingly extract unsigned bits from byte data">
<polygon fill="white" stroke="red" points="254.5,-608.5 254.5,-627.5 319.5,-627.5 319.5,-608.5 254.5,-608.5"/>
<text text-anchor="middle" x="287" y="-615.5" font-family="Helvetica,sans-Serif" font-size="10.00">getbituInc</text>
</a>
</g>
</g>
<!-- Node1&#45;&gt;Node2 -->
<g id="edge1" class="edge">
<title>Node1&#45;&gt;Node2</title>
<path fill="none" stroke="midnightblue" d="M90.12,-323.63C95.35,-364.03 121.07,-521.26 212,-599 223.69,-609 239.99,-613.84 254.3,-616.14"/>
</g>
<!-- Node4 -->
<g id="node3" class="node">
<title>Node4</title>
<g id="a_node3"><a xlink:href="structRtcmDecoder.html#a9a64ac779c6f793b094aeaab8c917dd1" target="_top" xlink:title="adjust GPS week number according to RTCM time">
<polygon fill="white" stroke="black" points="212,-570.5 212,-589.5 362,-589.5 362,-570.5 212,-570.5"/>
<text text-anchor="middle" x="287" y="-577.5" font-family="Helvetica,sans-Serif" font-size="10.00">RtcmDecoder::adjGpsWeek</text>
</a>
</g>
</g>
<!-- Node1&#45;&gt;Node4 -->
<g id="edge2" class="edge">
<title>Node1&#45;&gt;Node4</title>
<path fill="none" stroke="midnightblue" d="M90.8,-323.6C98.26,-360.56 130.24,-494.88 212,-561 216.74,-564.84 222.17,-567.91 227.89,-570.37"/>
</g>
<!-- Node5 -->
<g id="node4" class="node">
<title>Node5</title>
<g id="a_node4"><a xlink:href="structRtcmDecoder.html#af4dcc94b23423696a4e8025d8235a1b1" target="_top" xlink:title=" ">
<polygon fill="white" stroke="red" points="398,-399.5 398,-418.5 533,-418.5 533,-399.5 398,-399.5"/>
<text text-anchor="middle" x="465.5" y="-406.5" font-family="Helvetica,sans-Serif" font-size="10.00">RtcmDecoder::rtcmTime</text>
</a>
</g>
</g>
<!-- Node1&#45;&gt;Node5 -->
<g id="edge6" class="edge">
<title>Node1&#45;&gt;Node5</title>
<path fill="none" stroke="midnightblue" d="M94.03,-323.51C108.32,-349.37 152.06,-420.79 212,-447 293.44,-482.61 402.2,-439.13 445.53,-418.6"/>
</g>
<!-- Node8 -->
<g id="node5" class="node">
<title>Node8</title>
<g id="a_node5"><a xlink:href="common_8cpp.html#a47b796248ca1aabdfc761d61bb878142" target="_top" xlink:title="URA index to URA value (m) GLOBAL POSITIONING SYSTEM STANDARD POSITIONING SERVICE SIGNAL SPECIFICATIO...">
<polygon fill="white" stroke="black" points="256,-532.5 256,-551.5 318,-551.5 318,-532.5 256,-532.5"/>
<text text-anchor="middle" x="287" y="-539.5" font-family="Helvetica,sans-Serif" font-size="10.00">svaToUra</text>
</a>
</g>
</g>
<!-- Node1&#45;&gt;Node8 -->
<g id="edge4" class="edge">
<title>Node1&#45;&gt;Node8</title>
<path fill="none" stroke="midnightblue" d="M91.75,-323.71C101.73,-357.12 139.33,-468.32 212,-523 224.61,-532.49 241.49,-537.26 255.94,-539.65"/>
</g>
<!-- Node9 -->
<g id="node6" class="node">
<title>Node9</title>
<g id="a_node6"><a xlink:href="rtcmDecoder_8cpp.html#a8f81fd7eaa74dfc180469d0accafb183" target="_top" xlink:title="increasingly extract signed bits from byte data">
<polygon fill="white" stroke="red" points="254.5,-494.5 254.5,-513.5 319.5,-513.5 319.5,-494.5 254.5,-494.5"/>
<text text-anchor="middle" x="287" y="-501.5" font-family="Helvetica,sans-Serif" font-size="10.00">getbitsInc</text>
</a>
</g>
</g>
<!-- Node1&#45;&gt;Node9 -->
<g id="edge5" class="edge">
<title>Node1&#45;&gt;Node9</title>
<path fill="none" stroke="midnightblue" d="M93.56,-323.89C107.25,-352.49 150.84,-436.03 212,-480 224.5,-488.99 240.54,-494.73 254.49,-498.34"/>
</g>
<!-- Node11 -->
<g id="node7" class="node">
<title>Node11</title>
<g id="a_node7"><a xlink:href="biasSINEXread_8cpp.html#a4189b53abc056c39f46bd56d0032b546" target="_top" xlink:title="Convert GPS/QZS TGD into OSBs &amp; DSB.">
<polygon fill="white" stroke="red" points="229.5,-418.5 229.5,-437.5 344.5,-437.5 344.5,-418.5 229.5,-418.5"/>
<text text-anchor="middle" x="287" y="-425.5" font-family="Helvetica,sans-Serif" font-size="10.00">decomposeTGDBias</text>
</a>
</g>
</g>
<!-- Node1&#45;&gt;Node11 -->
<g id="edge7" class="edge">
<title>Node1&#45;&gt;Node11</title>
<path fill="none" stroke="midnightblue" d="M98.57,-323.68C118.1,-342.87 164.73,-385.9 212,-409 219.87,-412.84 228.59,-415.97 237.22,-418.49"/>
</g>
<!-- Node12 -->
<g id="node8" class="node">
<title>Node12</title>
<g id="a_node8"><a xlink:href="structSatSys.html#aec6d07b90d1e8172b8b6a6966abef4fd" target="_top" xlink:title="Returns a std::string of this satellite&#39;s id.">
<polygon fill="white" stroke="red" points="433,-76.5 433,-95.5 498,-95.5 498,-76.5 433,-76.5"/>
<text text-anchor="middle" x="465.5" y="-83.5" font-family="Helvetica,sans-Serif" font-size="10.00">SatSys::id</text>
</a>
</g>
</g>
<!-- Node1&#45;&gt;Node12 -->
<g id="edge18" class="edge">
<title>Node1&#45;&gt;Node12</title>
<path fill="none" stroke="midnightblue" d="M95.64,-304.29C112.47,-280.31 159.27,-217.55 212,-181 282.83,-131.9 382.28,-104.3 432.62,-92.67"/>
</g>
<!-- Node17 -->
<g id="node9" class="node">
<title>Node17</title>
<g id="a_node9"><a xlink:href="rtcmDecoder_8cpp.html#a33beca135638237503bffc4badf8fb94" target="_top" xlink:title="increasingly extract sign&#45;magnitude bits applied in GLO nav messages from byte data">
<polygon fill="white" stroke="red" points="254.5,-380.5 254.5,-399.5 319.5,-399.5 319.5,-380.5 254.5,-380.5"/>
<text text-anchor="middle" x="287" y="-387.5" font-family="Helvetica,sans-Serif" font-size="10.00">getbitgInc</text>
</a>
</g>
</g>
<!-- Node1&#45;&gt;Node17 -->
<g id="edge9" class="edge">
<title>Node1&#45;&gt;Node17</title>
<path fill="none" stroke="midnightblue" d="M106.9,-323.56C130.47,-335.85 173.43,-357.24 212,-371 225.62,-375.86 241.05,-380.02 254.29,-383.21"/>
</g>
<!-- Node19 -->
<g id="node10" class="node">
<title>Node19</title>
<g id="a_node10"><a xlink:href="structRtcmDecoder.html#a9793312f3999d7f59d79ca5cbba95797" target="_top" xlink:title="adjust BDT week number according to RTCM time">
<polygon fill="white" stroke="black" points="213,-342.5 213,-361.5 361,-361.5 361,-342.5 213,-342.5"/>
<text text-anchor="middle" x="287" y="-349.5" font-family="Helvetica,sans-Serif" font-size="10.00">RtcmDecoder::adjBdtWeek</text>
</a>
</g>
</g>
<!-- Node1&#45;&gt;Node19 -->
<g id="edge10" class="edge">
<title>Node1&#45;&gt;Node19</title>
<path fill="none" stroke="midnightblue" d="M138.46,-323.54C168.43,-329.32 206.54,-336.67 236.52,-342.46"/>
</g>
<!-- Node20 -->
<g id="node11" class="node">
<title>Node20</title>
<g id="a_node11"><a xlink:href="structRtcmDecoder.html#a3f27b2fcee11a1266301ca9abec7d70d" target="_top" xlink:title="adjust GST week number according to RTCM time">
<polygon fill="white" stroke="black" points="213,-304.5 213,-323.5 361,-323.5 361,-304.5 213,-304.5"/>
<text text-anchor="middle" x="287" y="-311.5" font-family="Helvetica,sans-Serif" font-size="10.00">RtcmDecoder::adjGstWeek</text>
</a>
</g>
</g>
<!-- Node1&#45;&gt;Node20 -->
<g id="edge12" class="edge">
<title>Node1&#45;&gt;Node20</title>
<path fill="none" stroke="midnightblue" d="M176.27,-314C188.51,-314 201,-314 212.94,-314"/>
</g>
<!-- Node21 -->
<g id="node12" class="node">
<title>Node21</title>
<g id="a_node12"><a xlink:href="common_8cpp.html#a3e64e6b27352f5d683cfbfd28e9bc69a" target="_top" xlink:title="Galileo SISA index to SISA value (m) EUROPEAN GNSS (GALILEO) OPEN SERVICE SIGNAL&#45;IN&#45;SPACE INTERFACE C...">
<polygon fill="white" stroke="black" points="254.5,-266.5 254.5,-285.5 319.5,-285.5 319.5,-266.5 254.5,-266.5"/>
<text text-anchor="middle" x="287" y="-273.5" font-family="Helvetica,sans-Serif" font-size="10.00">svaToSisa</text>
</a>
</g>
</g>
<!-- Node1&#45;&gt;Node21 -->
<g id="edge14" class="edge">
<title>Node1&#45;&gt;Node21</title>
<path fill="none" stroke="midnightblue" d="M138.46,-304.46C174.82,-297.45 223.14,-288.12 254.41,-282.09"/>
</g>
<!-- Node22 -->
<g id="node13" class="node">
<title>Node22</title>
<g id="a_node13"><a xlink:href="biasSINEXread_8cpp.html#a063ba8fe35a80404ea27345b60592828" target="_top" xlink:title="Convert GAL BGDs into OSBs &amp; DSB.">
<polygon fill="white" stroke="red" points="229,-228.5 229,-247.5 345,-247.5 345,-228.5 229,-228.5"/>
<text text-anchor="middle" x="287" y="-235.5" font-family="Helvetica,sans-Serif" font-size="10.00">decomposeBGDBias</text>
</a>
</g>
</g>
<!-- Node1&#45;&gt;Node22 -->
<g id="edge15" class="edge">
<title>Node1&#45;&gt;Node22</title>
<path fill="none" stroke="midnightblue" d="M106.9,-304.44C130.47,-292.15 173.43,-270.76 212,-257 221.99,-253.43 232.97,-250.24 243.33,-247.54"/>
</g>
<!-- Node23 -->
<g id="node14" class="node">
<title>Node23</title>
<g id="a_node14"><a xlink:href="trace_8cpp.html#ae00e6addd3bdf3a7fd41a254eb9aec89" target="_top" xlink:title=" ">
<polygon fill="white" stroke="black" points="251.5,-190.5 251.5,-209.5 322.5,-209.5 322.5,-190.5 251.5,-190.5"/>
<text text-anchor="middle" x="287" y="-197.5" font-family="Helvetica,sans-Serif" font-size="10.00">tracepdeex</text>
</a>
</g>
</g>
<!-- Node1&#45;&gt;Node23 -->
<g id="edge17" class="edge">
<title>Node1&#45;&gt;Node23</title>
<path fill="none" stroke="midnightblue" d="M98.57,-304.32C118.1,-285.13 164.73,-242.1 212,-219 224.27,-213 238.65,-208.76 251.45,-205.82"/>
</g>
<!-- Node24 -->
<g id="node15" class="node">
<title>Node24</title>
<g id="a_node15"><a xlink:href="structGTime.html#a98fdbaaec5a132a7e694f28b4f1907cb" target="_top" xlink:title=" ">
<polygon fill="white" stroke="black" points="417,-114.5 417,-133.5 514,-133.5 514,-114.5 417,-114.5"/>
<text text-anchor="middle" x="465.5" y="-121.5" font-family="Helvetica,sans-Serif" font-size="10.00">GTime::to_string</text>
</a>
</g>
</g>
<!-- Node1&#45;&gt;Node24 -->
<g id="edge19" class="edge">
<title>Node1&#45;&gt;Node24</title>
<path fill="none" stroke="midnightblue" d="M94.82,-304.47C110.43,-279.77 155.88,-213.37 212,-181 276.62,-143.72 363.6,-130.82 416.78,-126.36"/>
</g>
<!-- Node25 -->
<g id="node16" class="node">
<title>Node25</title>
<g id="a_node16"><a xlink:href="structRtcmTrace.html#a7988263389150711e951a4df5f1dcdd1" target="_top" xlink:title="Write decoded/encoded GPS/GAL/BDS/QZS ephemeris messages to a json file.">
<polygon fill="white" stroke="red" points="217.5,-76.5 217.5,-95.5 356.5,-95.5 356.5,-76.5 217.5,-76.5"/>
<text text-anchor="middle" x="287" y="-83.5" font-family="Helvetica,sans-Serif" font-size="10.00">RtcmTrace::traceBrdcEph</text>
</a>
</g>
</g>
<!-- Node1&#45;&gt;Node25 -->
<g id="edge20" class="edge">
<title>Node1&#45;&gt;Node25</title>
<path fill="none" stroke="midnightblue" d="M92.1,-304.23C102.94,-271.6 142.36,-165.28 212,-110 219.93,-103.7 229.57,-99.03 239.23,-95.58"/>
</g>
<!-- Node27 -->
<g id="node17" class="node">
<title>Node27</title>
<g id="a_node17"><a xlink:href="mongoWrite_8cpp.html#a1576cde6096a7d6d91b039e1e26aed7a" target="_top" xlink:title="Write GPS/GAL/BDS/QZS ephemeris to Mongo DB.">
<polygon fill="white" stroke="red" points="242,-38.5 242,-57.5 332,-57.5 332,-38.5 242,-38.5"/>
<text text-anchor="middle" x="287" y="-45.5" font-family="Helvetica,sans-Serif" font-size="10.00">mongoBrdcEph</text>
</a>
</g>
</g>
<!-- Node1&#45;&gt;Node27 -->
<g id="edge23" class="edge">
<title>Node1&#45;&gt;Node27</title>
<path fill="none" stroke="midnightblue" d="M90.8,-304.4C98.26,-267.44 130.24,-133.12 212,-67 220.46,-60.16 231.09,-55.75 241.63,-52.92"/>
</g>
<!-- Node28 -->
<g id="node18" class="node">
<title>Node28</title>
<g id="a_node18"><a xlink:href="structRtcmTrace.html#ad992e657cb98f1cd8eb87eaf2d11f912" target="_top" xlink:title="Write unknown message to a json file.">
<polygon fill="white" stroke="black" points="214.5,-0.5 214.5,-19.5 359.5,-19.5 359.5,-0.5 214.5,-0.5"/>
<text text-anchor="middle" x="287" y="-7.5" font-family="Helvetica,sans-Serif" font-size="10.00">RtcmTrace::traceUnknown</text>
</a>
</g>
</g>
<!-- Node1&#45;&gt;Node28 -->
<g id="edge25" class="edge">
<title>Node1&#45;&gt;Node28</title>
<path fill="none" stroke="midnightblue" d="M90.12,-304.37C95.35,-263.97 121.07,-106.74 212,-29 216.54,-25.12 221.77,-22.02 227.3,-19.54"/>
</g>
<!-- Node4&#45;&gt;Node5 -->
<g id="edge3" class="edge">
<title>Node4&#45;&gt;Node5</title>
<path fill="none" stroke="midnightblue" d="M343.73,-570.46C350.21,-568 356.47,-564.9 362,-561 416.36,-522.65 450.28,-445.61 460.9,-418.61"/>
</g>
<!-- Node11&#45;&gt;Node12 -->
<g id="edge8" class="edge">
<title>Node11&#45;&gt;Node12</title>
<path fill="none" stroke="midnightblue" d="M344.7,-421.25C351.27,-418.35 357.28,-414.39 362,-409 451.58,-306.59 309.81,-208.6 398,-105 406.64,-94.85 420.29,-89.93 432.98,-87.61"/>
</g>
<!-- Node19&#45;&gt;Node5 -->
<g id="edge11" class="edge">
<title>Node19&#45;&gt;Node5</title>
<path fill="none" stroke="midnightblue" d="M328.15,-361.5C339.19,-364.33 351.11,-367.59 362,-371 389.35,-379.56 420.1,-391.24 440.72,-399.38"/>
</g>
<!-- Node20&#45;&gt;Node5 -->
<g id="edge13" class="edge">
<title>Node20&#45;&gt;Node5</title>
<path fill="none" stroke="midnightblue" d="M336.33,-323.53C345.09,-326.05 353.98,-329.18 362,-333 399.4,-350.82 436.85,-383.16 454.33,-399.3"/>
</g>
<!-- Node22&#45;&gt;Node12 -->
<g id="edge16" class="edge">
<title>Node22&#45;&gt;Node12</title>
<path fill="none" stroke="midnightblue" d="M345.28,-229.75C351.43,-227.06 357.18,-223.56 362,-219 400.58,-182.47 359.91,-142.05 398,-105 407.3,-95.96 420.58,-91.16 432.84,-88.64"/>
</g>
<!-- Node25&#45;&gt;Node12 -->
<g id="edge22" class="edge">
<title>Node25&#45;&gt;Node12</title>
<path fill="none" stroke="midnightblue" d="M356.74,-86C382.88,-86 411.42,-86 432.55,-86"/>
</g>
<!-- Node25&#45;&gt;Node24 -->
<g id="edge21" class="edge">
<title>Node25&#45;&gt;Node24</title>
<path fill="none" stroke="midnightblue" d="M332.54,-95.59C359.4,-101.37 393.48,-108.71 420.28,-114.48"/>
</g>
<!-- Node27&#45;&gt;Node12 -->
<g id="edge24" class="edge">
<title>Node27&#45;&gt;Node12</title>
<path fill="none" stroke="midnightblue" d="M332.08,-57.49C363.43,-64.24 404.79,-73.15 432.89,-79.19"/>
</g>
</g>
</svg>
