<?xml version="1.0" encoding="UTF-8" standalone="no"?>
<!DOCTYPE svg PUBLIC "-//W3C//DTD SVG 1.1//EN"
 "http://www.w3.org/Graphics/SVG/1.1/DTD/svg11.dtd">
<!-- Generated by graphviz version 2.43.0 (0)
 -->
<!-- Title: NtripUploader::messageTimeout_handler Pages: 1 -->
<svg width="528pt" height="1659pt"
 viewBox="0.00 0.00 528.00 1658.50" xmlns="http://www.w3.org/2000/svg" xmlns:xlink="http://www.w3.org/1999/xlink">
<g id="graph0" class="graph" transform="scale(1 1) rotate(0) translate(4 1654.5)">
<title>NtripUploader::messageTimeout_handler</title>
<polygon fill="white" stroke="transparent" points="-4,4 -4,-1654.5 524,-1654.5 524,4 -4,4"/>
<!-- Node1 -->
<g id="node1" class="node">
<title>Node1</title>
<g id="a_node1"><a xlink:title=" ">
<polygon fill="#bfbfbf" stroke="black" points="0,-815.5 0,-845.5 176,-845.5 176,-815.5 0,-815.5"/>
<text text-anchor="start" x="8" y="-833.5" font-family="Helvetica,sans-Serif" font-size="10.00">NtripUploader::messageTimeout</text>
<text text-anchor="middle" x="88" y="-822.5" font-family="Helvetica,sans-Serif" font-size="10.00">_handler</text>
</a>
</g>
</g>
<!-- Node1&#45;&gt;Node1 -->
<g id="edge1" class="edge">
<title>Node1&#45;&gt;Node1</title>
<path fill="none" stroke="midnightblue" d="M51.4,-845.66C42.58,-855.06 54.78,-864 88,-864 108.25,-864 120.68,-860.68 125.31,-855.96"/>
<polygon fill="midnightblue" stroke="midnightblue" points="128.78,-855.39 124.6,-845.66 121.8,-855.88 128.78,-855.39"/>
</g>
<!-- Node2 -->
<g id="node2" class="node">
<title>Node2</title>
<g id="a_node2"><a xlink:href="gTime_8cpp.html#abc73cf336f9fa1b3622c933d5925e073" target="_top" xlink:title=" ">
<polygon fill="white" stroke="black" points="271,-1631 271,-1650 327,-1650 327,-1631 271,-1631"/>
<text text-anchor="middle" x="299" y="-1638" font-family="Helvetica,sans-Serif" font-size="10.00">timeGet</text>
</a>
</g>
</g>
<!-- Node1&#45;&gt;Node2 -->
<g id="edge2" class="edge">
<title>Node1&#45;&gt;Node2</title>
<path fill="none" stroke="midnightblue" d="M89.12,-845.65C90.2,-945.04 101.19,-1503.46 212,-1621.5 224.31,-1634.61 243.45,-1639.68 260.56,-1641.34"/>
<polygon fill="midnightblue" stroke="midnightblue" points="260.67,-1644.85 270.87,-1641.97 261.1,-1637.87 260.67,-1644.85"/>
</g>
<!-- Node3 -->
<g id="node3" class="node">
<title>Node3</title>
<g id="a_node3"><a xlink:href="structGTime.html#aaa8a379d11cd6c040a6bbe680c0e913e" target="_top" xlink:title="Uninitialised time for comparisons.">
<polygon fill="white" stroke="black" points="253,-1593 253,-1612 345,-1612 345,-1593 253,-1593"/>
<text text-anchor="middle" x="299" y="-1600" font-family="Helvetica,sans-Serif" font-size="10.00">GTime::noTime</text>
</a>
</g>
</g>
<!-- Node1&#45;&gt;Node3 -->
<g id="edge3" class="edge">
<title>Node1&#45;&gt;Node3</title>
<path fill="none" stroke="midnightblue" d="M89.24,-845.54C91.12,-941.86 106.18,-1471.63 212,-1583.5 220.13,-1592.09 231.19,-1597.23 242.68,-1600.21"/>
<polygon fill="midnightblue" stroke="midnightblue" points="242.32,-1603.71 252.82,-1602.31 243.74,-1596.85 242.32,-1603.71"/>
</g>
<!-- Node4 -->
<g id="node4" class="node">
<title>Node4</title>
<g id="a_node4"><a xlink:href="structGTime.html#a72505f23b2252f690f124c2eaf026f91" target="_top" xlink:title=" ">
<polygon fill="white" stroke="black" points="248.5,-1555 248.5,-1574 349.5,-1574 349.5,-1555 248.5,-1555"/>
<text text-anchor="middle" x="299" y="-1562" font-family="Helvetica,sans-Serif" font-size="10.00">GTime::floorTime</text>
</a>
</g>
</g>
<!-- Node1&#45;&gt;Node4 -->
<g id="edge4" class="edge">
<title>Node1&#45;&gt;Node4</title>
<path fill="none" stroke="midnightblue" d="M89.48,-845.51C92.78,-938.27 114.78,-1432.97 212,-1540.5 219.09,-1548.34 228.51,-1553.71 238.51,-1557.36"/>
<polygon fill="midnightblue" stroke="midnightblue" points="237.63,-1560.76 248.22,-1560.37 239.7,-1554.07 237.63,-1560.76"/>
</g>
<!-- Node5 -->
<g id="node5" class="node">
<title>Node5</title>
<g id="a_node5"><a xlink:href="structGTime.html#a98fdbaaec5a132a7e694f28b4f1907cb" target="_top" xlink:title=" ">
<polygon fill="white" stroke="black" points="422,-1201 422,-1220 520,-1220 520,-1201 422,-1201"/>
<text text-anchor="middle" x="471" y="-1208" font-family="Helvetica,sans-Serif" font-size="10.00">GTime::to_string</text>
</a>
</g>
</g>
<!-- Node1&#45;&gt;Node5 -->
<g id="edge5" class="edge">
<title>Node1&#45;&gt;Node5</title>
<path fill="none" stroke="midnightblue" d="M89.25,-845.78C91.13,-937.96 105.96,-1418.99 212,-1507.5 271.37,-1557.05 327.4,-1557.96 386,-1507.5 467.73,-1437.12 377.59,-1365.79 422,-1267.5 428.88,-1252.28 441.02,-1237.92 451.38,-1227.41"/>
<polygon fill="midnightblue" stroke="midnightblue" points="454.09,-1229.66 458.83,-1220.19 449.21,-1224.64 454.09,-1229.66"/>
</g>
<!-- Node6 -->
<g id="node6" class="node">
<title>Node6</title>
<g id="a_node6"><a xlink:href="structRtcmEncoder.html#a7d44e45822f54c629d33bfa9588b0b64" target="_top" xlink:title=" ">
<polygon fill="white" stroke="black" points="226,-1479 226,-1498 372,-1498 372,-1479 226,-1479"/>
<text text-anchor="middle" x="299" y="-1486" font-family="Helvetica,sans-Serif" font-size="10.00">RtcmEncoder::getUdiIndex</text>
</a>
</g>
</g>
<!-- Node1&#45;&gt;Node6 -->
<g id="edge6" class="edge">
<title>Node1&#45;&gt;Node6</title>
<path fill="none" stroke="midnightblue" d="M89.73,-845.77C94.25,-933.83 121.3,-1376.29 212,-1469.5 213.65,-1471.19 215.41,-1472.75 217.26,-1474.18"/>
<polygon fill="midnightblue" stroke="midnightblue" points="215.62,-1477.28 225.94,-1479.69 219.37,-1471.38 215.62,-1477.28"/>
</g>
<!-- Node7 -->
<g id="node7" class="node">
<title>Node7</title>
<g id="a_node7"><a xlink:href="mongoRead_8cpp.html#a1d89a7a6cae3e135ebc59b318cff9736" target="_top" xlink:title="Read phase biases from Mongo DB.">
<polygon fill="white" stroke="red" points="236.5,-1441 236.5,-1460 361.5,-1460 361.5,-1441 236.5,-1441"/>
<text text-anchor="middle" x="299" y="-1448" font-family="Helvetica,sans-Serif" font-size="10.00">mongoReadPhaseBias</text>
</a>
</g>
</g>
<!-- Node1&#45;&gt;Node7 -->
<g id="edge7" class="edge">
<title>Node1&#45;&gt;Node7</title>
<path fill="none" stroke="midnightblue" d="M89.92,-845.69C95.4,-930.46 126.26,-1344.41 212,-1431.5 216.26,-1435.83 221.27,-1439.27 226.69,-1442"/>
<polygon fill="midnightblue" stroke="midnightblue" points="225.57,-1445.32 236.15,-1445.94 228.27,-1438.86 225.57,-1445.32"/>
</g>
<!-- Node8 -->
<g id="node8" class="node">
<title>Node8</title>
<g id="a_node8"><a xlink:href="satSys_8cpp.html#aae80f3401dd26548c7b0b83c1e25e499" target="_top" xlink:title="Get all satellites of target system.">
<polygon fill="white" stroke="black" points="435.5,-1277 435.5,-1296 506.5,-1296 506.5,-1277 435.5,-1277"/>
<text text-anchor="middle" x="471" y="-1284" font-family="Helvetica,sans-Serif" font-size="10.00">getSysSats</text>
</a>
</g>
</g>
<!-- Node1&#45;&gt;Node8 -->
<g id="edge20" class="edge">
<title>Node1&#45;&gt;Node8</title>
<path fill="none" stroke="midnightblue" d="M91.8,-845.57C100.71,-889.07 132.64,-1015.67 212,-1077.5 274.44,-1126.15 327.54,-1062.13 386,-1115.5 425.24,-1151.33 396.39,-1182.95 422,-1229.5 430.15,-1244.31 442.49,-1258.86 452.61,-1269.55"/>
<polygon fill="midnightblue" stroke="midnightblue" points="450.32,-1272.21 459.82,-1276.91 455.33,-1267.31 450.32,-1272.21"/>
</g>
<!-- Node10 -->
<g id="node9" class="node">
<title>Node10</title>
<g id="a_node9"><a xlink:href="structRtcmEncoder.html#adaea4ff6e3c24a71716dd84ee0999fef" target="_top" xlink:title="encode phase bias messages">
<polygon fill="white" stroke="red" points="215.5,-1403 215.5,-1422 382.5,-1422 382.5,-1403 215.5,-1403"/>
<text text-anchor="middle" x="299" y="-1410" font-family="Helvetica,sans-Serif" font-size="10.00">RtcmEncoder::encodeSsrPhase</text>
</a>
</g>
</g>
<!-- Node1&#45;&gt;Node10 -->
<g id="edge9" class="edge">
<title>Node1&#45;&gt;Node10</title>
<path fill="none" stroke="midnightblue" d="M90.14,-845.53C96.59,-926.73 131.18,-1312.49 212,-1393.5 213.3,-1394.8 214.67,-1396.02 216.09,-1397.17"/>
<polygon fill="midnightblue" stroke="midnightblue" points="214.56,-1400.35 224.83,-1402.94 218.41,-1394.51 214.56,-1400.35"/>
</g>
<!-- Node20 -->
<g id="node10" class="node">
<title>Node20</title>
<g id="a_node10"><a xlink:href="structRtcmEncoder.html#a714186471ab96d85b1fac9d1a18789a0" target="_top" xlink:title=" ">
<polygon fill="white" stroke="red" points="224.5,-1353.5 224.5,-1383.5 373.5,-1383.5 373.5,-1353.5 224.5,-1353.5"/>
<text text-anchor="start" x="232.5" y="-1371.5" font-family="Helvetica,sans-Serif" font-size="10.00">RtcmEncoder::encodeWrite</text>
<text text-anchor="middle" x="299" y="-1360.5" font-family="Helvetica,sans-Serif" font-size="10.00">MessageToBuffer</text>
</a>
</g>
</g>
<!-- Node1&#45;&gt;Node20 -->
<g id="edge10" class="edge">
<title>Node1&#45;&gt;Node20</title>
<path fill="none" stroke="midnightblue" d="M90.59,-845.61C98.95,-922.34 140.19,-1268.19 212,-1343.5 213.25,-1344.82 214.57,-1346.06 215.95,-1347.25"/>
<polygon fill="midnightblue" stroke="midnightblue" points="214.22,-1350.32 224.38,-1353.34 218.32,-1344.64 214.22,-1350.32"/>
</g>
<!-- Node22 -->
<g id="node11" class="node">
<title>Node22</title>
<g id="a_node11"><a xlink:href="mongoRead_8cpp.html#a7d4ac4dfd0b159e975bff9599afbb147" target="_top" xlink:title="Read code biases from Mongo DB.">
<polygon fill="white" stroke="red" points="238.5,-1315 238.5,-1334 359.5,-1334 359.5,-1315 238.5,-1315"/>
<text text-anchor="middle" x="299" y="-1322" font-family="Helvetica,sans-Serif" font-size="10.00">mongoReadCodeBias</text>
</a>
</g>
</g>
<!-- Node1&#45;&gt;Node22 -->
<g id="edge11" class="edge">
<title>Node1&#45;&gt;Node22</title>
<path fill="none" stroke="midnightblue" d="M90.82,-845.79C99.9,-919.64 142.72,-1238.67 212,-1305.5 216.88,-1310.21 222.65,-1313.85 228.85,-1316.67"/>
<polygon fill="midnightblue" stroke="midnightblue" points="227.61,-1319.94 238.2,-1320.22 230.1,-1313.39 227.61,-1319.94"/>
</g>
<!-- Node23 -->
<g id="node12" class="node">
<title>Node23</title>
<g id="a_node12"><a xlink:href="structRtcmEncoder.html#a18fe202e400a35f110954b78f93647ef" target="_top" xlink:title="encode code bias messages">
<polygon fill="white" stroke="red" points="218,-1277 218,-1296 380,-1296 380,-1277 218,-1277"/>
<text text-anchor="middle" x="299" y="-1284" font-family="Helvetica,sans-Serif" font-size="10.00">RtcmEncoder::encodeSsrCode</text>
</a>
</g>
</g>
<!-- Node1&#45;&gt;Node23 -->
<g id="edge13" class="edge">
<title>Node1&#45;&gt;Node23</title>
<path fill="none" stroke="midnightblue" d="M91.21,-845.96C101.58,-916.48 147.69,-1206.75 212,-1267.5 213.5,-1268.92 215.08,-1270.24 216.73,-1271.47"/>
<polygon fill="midnightblue" stroke="midnightblue" points="215.15,-1274.6 225.49,-1276.9 218.83,-1268.65 215.15,-1274.6"/>
</g>
<!-- Node25 -->
<g id="node13" class="node">
<title>Node25</title>
<g id="a_node13"><a xlink:href="mongoRead_8cpp.html#a25a89dedbcc39aa56dfb1eff65744154" target="_top" xlink:title="Read orbits and clocks from Mongo DB.">
<polygon fill="white" stroke="red" points="245,-1239 245,-1258 353,-1258 353,-1239 245,-1239"/>
<text text-anchor="middle" x="299" y="-1246" font-family="Helvetica,sans-Serif" font-size="10.00">mongoReadOrbClk</text>
</a>
</g>
</g>
<!-- Node1&#45;&gt;Node25 -->
<g id="edge14" class="edge">
<title>Node1&#45;&gt;Node25</title>
<path fill="none" stroke="midnightblue" d="M88.66,-845.54C88.18,-904.43 94.73,-1121.43 212,-1229.5 218.54,-1235.52 226.54,-1239.79 235,-1242.79"/>
<polygon fill="midnightblue" stroke="midnightblue" points="234.12,-1246.18 244.7,-1245.66 236.11,-1239.47 234.12,-1246.18"/>
</g>
<!-- Node27 -->
<g id="node14" class="node">
<title>Node27</title>
<g id="a_node14"><a xlink:href="rtcmEncoder_8cpp.html#a188d56d547bb664a519121cf4bf34896" target="_top" xlink:title=" ">
<polygon fill="white" stroke="red" points="247,-1201 247,-1220 351,-1220 351,-1201 247,-1201"/>
<text text-anchor="middle" x="299" y="-1208" font-family="Helvetica,sans-Serif" font-size="10.00">calculateSsrComb</text>
</a>
</g>
</g>
<!-- Node1&#45;&gt;Node27 -->
<g id="edge16" class="edge">
<title>Node1&#45;&gt;Node27</title>
<path fill="none" stroke="midnightblue" d="M89.22,-845.64C90.87,-901.14 104.43,-1095.25 212,-1191.5 219.1,-1197.86 227.85,-1202.24 237.01,-1205.24"/>
<polygon fill="midnightblue" stroke="midnightblue" points="236.09,-1208.62 246.66,-1207.89 237.95,-1201.87 236.09,-1208.62"/>
</g>
<!-- Node30 -->
<g id="node15" class="node">
<title>Node30</title>
<g id="a_node15"><a xlink:href="structRtcmEncoder.html#a9a9812f3f6389d6d39eb59a0faff70b7" target="_top" xlink:title="encode orbit/clock messages">
<polygon fill="white" stroke="red" points="214,-1163 214,-1182 384,-1182 384,-1163 214,-1163"/>
<text text-anchor="middle" x="299" y="-1170" font-family="Helvetica,sans-Serif" font-size="10.00">RtcmEncoder::encodeSsrOrbClk</text>
</a>
</g>
</g>
<!-- Node1&#45;&gt;Node30 -->
<g id="edge18" class="edge">
<title>Node1&#45;&gt;Node30</title>
<path fill="none" stroke="midnightblue" d="M89.91,-845.85C93.87,-897.88 114.12,-1069 212,-1153.5 213.79,-1155.04 215.67,-1156.47 217.63,-1157.79"/>
<polygon fill="midnightblue" stroke="midnightblue" points="216.26,-1161.03 226.69,-1162.89 219.7,-1154.93 216.26,-1161.03"/>
</g>
<!-- Node34 -->
<g id="node16" class="node">
<title>Node34</title>
<g id="a_node16"><a xlink:href="structRtcmEncoder.html#a4fe1b66c1ca3051c79202253abf15099" target="_top" xlink:title="encode URA messages">
<polygon fill="white" stroke="red" points="221.5,-1125 221.5,-1144 376.5,-1144 376.5,-1125 221.5,-1125"/>
<text text-anchor="middle" x="299" y="-1132" font-family="Helvetica,sans-Serif" font-size="10.00">RtcmEncoder::encodeSsrUra</text>
</a>
</g>
</g>
<!-- Node1&#45;&gt;Node34 -->
<g id="edge19" class="edge">
<title>Node1&#45;&gt;Node34</title>
<path fill="none" stroke="midnightblue" d="M91.06,-845.6C98.28,-892.45 126.77,-1036.57 212,-1110.5 216.76,-1114.63 222.19,-1118.06 227.94,-1120.9"/>
<polygon fill="midnightblue" stroke="midnightblue" points="226.63,-1124.14 237.2,-1124.89 229.4,-1117.72 226.63,-1124.14"/>
</g>
<!-- Node37 -->
<g id="node17" class="node">
<title>Node37</title>
<g id="a_node17"><a xlink:href="mongoRead_8cpp.html#a47bc6c2f524e5fe00e785ba8736f23c2" target="_top" xlink:title="Read GPS/GAL/BDS/QZS ephemeris from Mongo DB.">
<polygon fill="white" stroke="red" points="235.5,-1049 235.5,-1068 362.5,-1068 362.5,-1049 235.5,-1049"/>
<text text-anchor="middle" x="299" y="-1056" font-family="Helvetica,sans-Serif" font-size="10.00">mongoReadEphemeris</text>
</a>
</g>
</g>
<!-- Node1&#45;&gt;Node37 -->
<g id="edge21" class="edge">
<title>Node1&#45;&gt;Node37</title>
<path fill="none" stroke="midnightblue" d="M93.3,-845.75C105.12,-884.76 142,-988.66 212,-1039.5 216.22,-1042.57 220.85,-1045.15 225.69,-1047.33"/>
<polygon fill="midnightblue" stroke="midnightblue" points="224.64,-1050.68 235.23,-1051.04 227.18,-1044.16 224.64,-1050.68"/>
</g>
<!-- Node38 -->
<g id="node18" class="node">
<title>Node38</title>
<g id="a_node18"><a xlink:href="structRtcmEncoder.html#a3fcbeeb38259b50d2684adf2d36efb9f" target="_top" xlink:title="encode GPS/GAL/BDS/QZS ephemeris messages">
<polygon fill="white" stroke="red" points="212,-1011 212,-1030 386,-1030 386,-1011 212,-1011"/>
<text text-anchor="middle" x="299" y="-1018" font-family="Helvetica,sans-Serif" font-size="10.00">RtcmEncoder::encodeEphemeris</text>
</a>
</g>
</g>
<!-- Node1&#45;&gt;Node38 -->
<g id="edge22" class="edge">
<title>Node1&#45;&gt;Node38</title>
<path fill="none" stroke="midnightblue" d="M95.31,-845.69C110.2,-879.53 150.92,-961.27 212,-1001.5 215.12,-1003.56 218.43,-1005.39 221.86,-1007.03"/>
<polygon fill="midnightblue" stroke="midnightblue" points="220.61,-1010.3 231.19,-1010.93 223.31,-1003.84 220.61,-1010.3"/>
</g>
<!-- Node41 -->
<g id="node19" class="node">
<title>Node41</title>
<g id="a_node19"><a xlink:href="mongoRead_8cpp.html#a4bcf3e799f3f61cb7ca9cbc1994557a8" target="_top" xlink:title="Read GLO ephemeris from Mongo DB.">
<polygon fill="white" stroke="red" points="227.5,-973 227.5,-992 370.5,-992 370.5,-973 227.5,-973"/>
<text text-anchor="middle" x="299" y="-980" font-family="Helvetica,sans-Serif" font-size="10.00">mongoReadGloEphemeris</text>
</a>
</g>
</g>
<!-- Node1&#45;&gt;Node41 -->
<g id="edge23" class="edge">
<title>Node1&#45;&gt;Node41</title>
<path fill="none" stroke="midnightblue" d="M98.4,-845.65C116.62,-873.66 159.62,-933.45 212,-963.5 215.91,-965.74 220.06,-967.72 224.34,-969.47"/>
<polygon fill="midnightblue" stroke="midnightblue" points="223.3,-972.81 233.89,-972.93 225.68,-966.23 223.3,-972.81"/>
</g>
<!-- Node42 -->
<g id="node20" class="node">
<title>Node42</title>
<g id="a_node20"><a xlink:href="prototypeIgsSSREncode_8cpp.html#a184a80ad4a12bcffae9429ecfc8fb64b" target="_top" xlink:title=" ">
<polygon fill="white" stroke="black" points="254,-935 254,-954 344,-954 344,-935 254,-935"/>
<text text-anchor="middle" x="299" y="-942" font-family="Helvetica,sans-Serif" font-size="10.00">IGS_SSR_group</text>
</a>
</g>
</g>
<!-- Node1&#45;&gt;Node42 -->
<g id="edge24" class="edge">
<title>Node1&#45;&gt;Node42</title>
<path fill="none" stroke="midnightblue" d="M103.82,-845.56C125.55,-866.74 168.25,-905.04 212,-925.5 221.97,-930.16 233.13,-933.71 244.02,-936.39"/>
<polygon fill="midnightblue" stroke="midnightblue" points="243.39,-939.83 253.91,-938.62 244.93,-933.01 243.39,-939.83"/>
</g>
<!-- Node43 -->
<g id="node21" class="node">
<title>Node43</title>
<g id="a_node21"><a xlink:href="mongoRead_8cpp.html#aea3f99d0d7de4d2cdd4700fb5685b185" target="_top" xlink:title=" ">
<polygon fill="white" stroke="black" points="226,-897 226,-916 372,-916 372,-897 226,-897"/>
<text text-anchor="middle" x="299" y="-904" font-family="Helvetica,sans-Serif" font-size="10.00">mongoReadIGSIonosphere</text>
</a>
</g>
</g>
<!-- Node1&#45;&gt;Node43 -->
<g id="edge25" class="edge">
<title>Node1&#45;&gt;Node43</title>
<path fill="none" stroke="midnightblue" d="M117.11,-845.66C141.59,-858.34 178.33,-876.13 212,-887.5 219.72,-890.11 227.96,-892.45 236.16,-894.53"/>
<polygon fill="midnightblue" stroke="midnightblue" points="235.57,-897.99 246.11,-896.94 237.22,-891.19 235.57,-897.99"/>
</g>
<!-- Node44 -->
<g id="node22" class="node">
<title>Node44</title>
<g id="a_node22"><a xlink:href="prototypeIgsSSREncode_8cpp.html#a5860e21c82b09ac4b4f9051c19ad626d" target="_top" xlink:title=" ">
<polygon fill="white" stroke="red" points="251.5,-859 251.5,-878 346.5,-878 346.5,-859 251.5,-859"/>
<text text-anchor="middle" x="299" y="-866" font-family="Helvetica,sans-Serif" font-size="10.00">encodeIGS_ORB</text>
</a>
</g>
</g>
<!-- Node1&#45;&gt;Node44 -->
<g id="edge26" class="edge">
<title>Node1&#45;&gt;Node44</title>
<path fill="none" stroke="midnightblue" d="M171.6,-845.52C195.05,-849.78 220.03,-854.32 241.54,-858.23"/>
<polygon fill="midnightblue" stroke="midnightblue" points="241.01,-861.7 251.48,-860.04 242.27,-854.81 241.01,-861.7"/>
</g>
<!-- Node46 -->
<g id="node23" class="node">
<title>Node46</title>
<g id="a_node23"><a xlink:href="prototypeIgsSSREncode_8cpp.html#aed2001951dab0df50a3e8890f6303240" target="_top" xlink:title=" ">
<polygon fill="white" stroke="red" points="253,-821 253,-840 345,-840 345,-821 253,-821"/>
<text text-anchor="middle" x="299" y="-828" font-family="Helvetica,sans-Serif" font-size="10.00">encodeIGS_CLK</text>
</a>
</g>
</g>
<!-- Node1&#45;&gt;Node46 -->
<g id="edge27" class="edge">
<title>Node1&#45;&gt;Node46</title>
<path fill="none" stroke="midnightblue" d="M176.12,-830.5C198.73,-830.5 222.46,-830.5 242.91,-830.5"/>
<polygon fill="midnightblue" stroke="midnightblue" points="242.98,-834 252.98,-830.5 242.98,-827 242.98,-834"/>
</g>
<!-- Node47 -->
<g id="node24" class="node">
<title>Node47</title>
<g id="a_node24"><a xlink:href="prototypeIgsSSREncode_8cpp.html#a0b52ed993dfc6fdce07c1047d9f7d228" target="_top" xlink:title=" ">
<polygon fill="white" stroke="red" points="251,-783 251,-802 347,-802 347,-783 251,-783"/>
<text text-anchor="middle" x="299" y="-790" font-family="Helvetica,sans-Serif" font-size="10.00">encodeIGS_CMB</text>
</a>
</g>
</g>
<!-- Node1&#45;&gt;Node47 -->
<g id="edge28" class="edge">
<title>Node1&#45;&gt;Node47</title>
<path fill="none" stroke="midnightblue" d="M171.6,-815.48C194.85,-811.25 219.61,-806.75 241,-802.86"/>
<polygon fill="midnightblue" stroke="midnightblue" points="241.67,-806.3 250.88,-801.07 240.42,-799.41 241.67,-806.3"/>
</g>
<!-- Node48 -->
<g id="node25" class="node">
<title>Node48</title>
<g id="a_node25"><a xlink:href="prototypeIgsSSREncode_8cpp.html#a72d4233d3708a4ab1551b1139e6afb27" target="_top" xlink:title=" ">
<polygon fill="white" stroke="red" points="251.5,-745 251.5,-764 346.5,-764 346.5,-745 251.5,-745"/>
<text text-anchor="middle" x="299" y="-752" font-family="Helvetica,sans-Serif" font-size="10.00">encodeIGS_HRC</text>
</a>
</g>
</g>
<!-- Node1&#45;&gt;Node48 -->
<g id="edge29" class="edge">
<title>Node1&#45;&gt;Node48</title>
<path fill="none" stroke="midnightblue" d="M117.11,-815.34C141.59,-802.66 178.33,-784.87 212,-773.5 221.34,-770.34 231.44,-767.57 241.31,-765.19"/>
<polygon fill="midnightblue" stroke="midnightblue" points="242.12,-768.6 251.08,-762.94 240.55,-761.78 242.12,-768.6"/>
</g>
<!-- Node49 -->
<g id="node26" class="node">
<title>Node49</title>
<g id="a_node26"><a xlink:href="prototypeIgsSSREncode_8cpp.html#af3fc3638b16db1676d10fa1a4179860a" target="_top" xlink:title=" ">
<polygon fill="white" stroke="red" points="251.5,-707 251.5,-726 346.5,-726 346.5,-707 251.5,-707"/>
<text text-anchor="middle" x="299" y="-714" font-family="Helvetica,sans-Serif" font-size="10.00">encodeIGS_COD</text>
</a>
</g>
</g>
<!-- Node1&#45;&gt;Node49 -->
<g id="edge30" class="edge">
<title>Node1&#45;&gt;Node49</title>
<path fill="none" stroke="midnightblue" d="M103.82,-815.44C125.55,-794.26 168.25,-755.96 212,-735.5 221.14,-731.22 231.28,-727.89 241.31,-725.3"/>
<polygon fill="midnightblue" stroke="midnightblue" points="242.32,-728.65 251.25,-722.94 240.71,-721.84 242.32,-728.65"/>
</g>
<!-- Node50 -->
<g id="node27" class="node">
<title>Node50</title>
<g id="a_node27"><a xlink:href="prototypeIgsSSREncode_8cpp.html#a41fe2e1f1e8daaa5fb8158f1b7196681" target="_top" xlink:title=" ">
<polygon fill="white" stroke="red" points="252.5,-669 252.5,-688 345.5,-688 345.5,-669 252.5,-669"/>
<text text-anchor="middle" x="299" y="-676" font-family="Helvetica,sans-Serif" font-size="10.00">encodeIGS_PHS</text>
</a>
</g>
</g>
<!-- Node1&#45;&gt;Node50 -->
<g id="edge31" class="edge">
<title>Node1&#45;&gt;Node50</title>
<path fill="none" stroke="midnightblue" d="M98.4,-815.35C116.62,-787.34 159.62,-727.55 212,-697.5 221.25,-692.19 231.83,-688.37 242.35,-685.61"/>
<polygon fill="midnightblue" stroke="midnightblue" points="243.41,-688.96 252.36,-683.28 241.83,-682.14 243.41,-688.96"/>
</g>
<!-- Node51 -->
<g id="node28" class="node">
<title>Node51</title>
<g id="a_node28"><a xlink:href="prototypeIgsSSREncode_8cpp.html#abe906d6281cf96f532c4c915582eed18" target="_top" xlink:title=" ">
<polygon fill="white" stroke="red" points="251.5,-631 251.5,-650 346.5,-650 346.5,-631 251.5,-631"/>
<text text-anchor="middle" x="299" y="-638" font-family="Helvetica,sans-Serif" font-size="10.00">encodeIGS_URA</text>
</a>
</g>
</g>
<!-- Node1&#45;&gt;Node51 -->
<g id="edge32" class="edge">
<title>Node1&#45;&gt;Node51</title>
<path fill="none" stroke="midnightblue" d="M95.31,-815.31C110.2,-781.47 150.92,-699.73 212,-659.5 220.81,-653.7 231.11,-649.65 241.46,-646.82"/>
<polygon fill="midnightblue" stroke="midnightblue" points="242.44,-650.19 251.36,-644.47 240.82,-643.38 242.44,-650.19"/>
</g>
<!-- Node52 -->
<g id="node29" class="node">
<title>Node52</title>
<g id="a_node29"><a xlink:href="prototypeIgsSSREncode_8cpp.html#aa4596898d24872dd68632fa953d5108c" target="_top" xlink:title=" ">
<polygon fill="white" stroke="red" points="251.5,-593 251.5,-612 346.5,-612 346.5,-593 251.5,-593"/>
<text text-anchor="middle" x="299" y="-600" font-family="Helvetica,sans-Serif" font-size="10.00">encodeIGS_ATM</text>
</a>
</g>
</g>
<!-- Node1&#45;&gt;Node52 -->
<g id="edge33" class="edge">
<title>Node1&#45;&gt;Node52</title>
<path fill="none" stroke="midnightblue" d="M93.3,-815.25C105.12,-776.24 142,-672.34 212,-621.5 220.63,-615.24 230.93,-610.97 241.36,-608.09"/>
<polygon fill="midnightblue" stroke="midnightblue" points="242.43,-611.43 251.35,-605.72 240.81,-604.62 242.43,-611.43"/>
</g>
<!-- Node53 -->
<g id="node30" class="node">
<title>Node53</title>
<g id="a_node30"><a xlink:href="mongoRead_8cpp.html#afb5b00d2940faf413c2501f90ff6f9f4" target="_top" xlink:title=" ">
<polygon fill="white" stroke="red" points="220.5,-555 220.5,-574 377.5,-574 377.5,-555 220.5,-555"/>
<text text-anchor="middle" x="299" y="-562" font-family="Helvetica,sans-Serif" font-size="10.00">mongoReadCmpAtmosphere</text>
</a>
</g>
</g>
<!-- Node1&#45;&gt;Node53 -->
<g id="edge34" class="edge">
<title>Node1&#45;&gt;Node53</title>
<path fill="none" stroke="midnightblue" d="M91.81,-815.44C100.74,-771.96 132.72,-645.43 212,-583.5 214.32,-581.69 216.77,-580.05 219.33,-578.55"/>
<polygon fill="midnightblue" stroke="midnightblue" points="220.99,-581.63 228.37,-574.03 217.86,-575.37 220.99,-581.63"/>
</g>
<!-- Node54 -->
<g id="node31" class="node">
<title>Node54</title>
<g id="a_node31"><a xlink:href="prototypeCmpSSREncode_8cpp.html#a4b6189549f9a1dceed6413e8041c685d" target="_top" xlink:title=" ">
<polygon fill="white" stroke="red" points="242.5,-517 242.5,-536 355.5,-536 355.5,-517 242.5,-517"/>
<text text-anchor="middle" x="299" y="-524" font-family="Helvetica,sans-Serif" font-size="10.00">encodecompactSRV</text>
</a>
</g>
</g>
<!-- Node1&#45;&gt;Node54 -->
<g id="edge36" class="edge">
<title>Node1&#45;&gt;Node54</title>
<path fill="none" stroke="midnightblue" d="M90.75,-815.27C97.12,-767.36 123.5,-618.6 212,-545.5 218.05,-540.5 225.13,-536.74 232.59,-533.93"/>
<polygon fill="midnightblue" stroke="midnightblue" points="233.73,-537.24 242.18,-530.85 231.59,-530.57 233.73,-537.24"/>
</g>
<!-- Node56 -->
<g id="node32" class="node">
<title>Node56</title>
<g id="a_node32"><a xlink:href="prototypeCmpSSREncode_8cpp.html#a68ab799da815ca06424c11fb8a4417cd" target="_top" xlink:title=" ">
<polygon fill="white" stroke="red" points="241,-479 241,-498 357,-498 357,-479 241,-479"/>
<text text-anchor="middle" x="299" y="-486" font-family="Helvetica,sans-Serif" font-size="10.00">encodecompactMSK</text>
</a>
</g>
</g>
<!-- Node1&#45;&gt;Node56 -->
<g id="edge37" class="edge">
<title>Node1&#45;&gt;Node56</title>
<path fill="none" stroke="midnightblue" d="M89.91,-815.15C93.87,-763.12 114.12,-592 212,-507.5 217.57,-502.69 224.08,-499.02 230.99,-496.23"/>
<polygon fill="midnightblue" stroke="midnightblue" points="232.28,-499.49 240.6,-492.94 230.01,-492.86 232.28,-499.49"/>
</g>
<!-- Node57 -->
<g id="node33" class="node">
<title>Node57</title>
<g id="a_node33"><a xlink:href="prototypeCmpSSREncode_8cpp.html#a41aeaca81b4d43a2e0ab3c47603f5c5d" target="_top" xlink:title=" ">
<polygon fill="white" stroke="red" points="241.5,-441 241.5,-460 356.5,-460 356.5,-441 241.5,-441"/>
<text text-anchor="middle" x="299" y="-448" font-family="Helvetica,sans-Serif" font-size="10.00">encodecompactORB</text>
</a>
</g>
</g>
<!-- Node1&#45;&gt;Node57 -->
<g id="edge38" class="edge">
<title>Node1&#45;&gt;Node57</title>
<path fill="none" stroke="midnightblue" d="M89.22,-815.36C90.87,-759.86 104.43,-565.75 212,-469.5 217.64,-464.45 224.32,-460.65 231.41,-457.79"/>
<polygon fill="midnightblue" stroke="midnightblue" points="232.94,-460.97 241.3,-454.46 230.7,-454.34 232.94,-460.97"/>
</g>
<!-- Node58 -->
<g id="node34" class="node">
<title>Node58</title>
<g id="a_node34"><a xlink:href="prototypeCmpSSREncode_8cpp.html#acff15c3e501f1e5003eb79f7b6747629" target="_top" xlink:title=" ">
<polygon fill="white" stroke="red" points="242.5,-403 242.5,-422 355.5,-422 355.5,-403 242.5,-403"/>
<text text-anchor="middle" x="299" y="-410" font-family="Helvetica,sans-Serif" font-size="10.00">encodecompactCLK</text>
</a>
</g>
</g>
<!-- Node1&#45;&gt;Node58 -->
<g id="edge39" class="edge">
<title>Node1&#45;&gt;Node58</title>
<path fill="none" stroke="midnightblue" d="M88.66,-815.46C88.18,-756.57 94.73,-539.57 212,-431.5 218,-425.97 225.22,-421.93 232.91,-418.98"/>
<polygon fill="midnightblue" stroke="midnightblue" points="234.02,-422.3 242.47,-415.91 231.87,-415.64 234.02,-422.3"/>
</g>
<!-- Node59 -->
<g id="node35" class="node">
<title>Node59</title>
<g id="a_node35"><a xlink:href="prototypeCmpSSREncode_8cpp.html#a5d34004ef9d3ccd69db0d97fadbbbcd1" target="_top" xlink:title="Encode hybrid orbit and clock message warning: Only global mode supported warning: Requires both orbi...">
<polygon fill="white" stroke="red" points="241,-365 241,-384 357,-384 357,-365 241,-365"/>
<text text-anchor="middle" x="299" y="-372" font-family="Helvetica,sans-Serif" font-size="10.00">encodecompactCMB</text>
</a>
</g>
</g>
<!-- Node1&#45;&gt;Node59 -->
<g id="edge40" class="edge">
<title>Node1&#45;&gt;Node59</title>
<path fill="none" stroke="midnightblue" d="M91.21,-815.04C101.58,-744.52 147.69,-454.25 212,-393.5 217.5,-388.3 224.09,-384.4 231.14,-381.5"/>
<polygon fill="midnightblue" stroke="midnightblue" points="232.66,-384.68 240.98,-378.12 230.39,-378.06 232.66,-384.68"/>
</g>
<!-- Node60 -->
<g id="node36" class="node">
<title>Node60</title>
<g id="a_node36"><a xlink:href="prototypeCmpSSREncode_8cpp.html#a7331e0014a614faf8ef4c9a0bea5cc3d" target="_top" xlink:title=" ">
<polygon fill="white" stroke="black" points="241.5,-327 241.5,-346 356.5,-346 356.5,-327 241.5,-327"/>
<text text-anchor="middle" x="299" y="-334" font-family="Helvetica,sans-Serif" font-size="10.00">encodecompactURA</text>
</a>
</g>
</g>
<!-- Node1&#45;&gt;Node60 -->
<g id="edge41" class="edge">
<title>Node1&#45;&gt;Node60</title>
<path fill="none" stroke="midnightblue" d="M90.82,-815.21C99.9,-741.36 142.72,-422.33 212,-355.5 217.65,-350.05 224.49,-346.02 231.82,-343.07"/>
<polygon fill="midnightblue" stroke="midnightblue" points="232.95,-346.38 241.31,-339.87 230.71,-339.74 232.95,-346.38"/>
</g>
<!-- Node61 -->
<g id="node37" class="node">
<title>Node61</title>
<g id="a_node37"><a xlink:href="prototypeCmpSSREncode_8cpp.html#a98b11d246882d1d0c3ae9a55895c3475" target="_top" xlink:title=" ">
<polygon fill="white" stroke="red" points="241,-289 241,-308 357,-308 357,-289 241,-289"/>
<text text-anchor="middle" x="299" y="-296" font-family="Helvetica,sans-Serif" font-size="10.00">encodecompactCOD</text>
</a>
</g>
</g>
<!-- Node1&#45;&gt;Node61 -->
<g id="edge42" class="edge">
<title>Node1&#45;&gt;Node61</title>
<path fill="none" stroke="midnightblue" d="M90.5,-815.3C98.4,-738.13 137.76,-390.42 212,-317.5 217.4,-312.2 223.93,-308.23 230.94,-305.29"/>
<polygon fill="midnightblue" stroke="midnightblue" points="232.46,-308.47 240.75,-301.88 230.16,-301.86 232.46,-308.47"/>
</g>
<!-- Node62 -->
<g id="node38" class="node">
<title>Node62</title>
<g id="a_node38"><a xlink:href="prototypeCmpSSREncode_8cpp.html#a1468d4d2dbe32d84739b075117e28a08" target="_top" xlink:title=" ">
<polygon fill="white" stroke="red" points="242.5,-251 242.5,-270 355.5,-270 355.5,-251 242.5,-251"/>
<text text-anchor="middle" x="299" y="-258" font-family="Helvetica,sans-Serif" font-size="10.00">encodecompactPHS</text>
</a>
</g>
</g>
<!-- Node1&#45;&gt;Node62 -->
<g id="edge43" class="edge">
<title>Node1&#45;&gt;Node62</title>
<path fill="none" stroke="midnightblue" d="M90.23,-815.27C97.05,-734.65 132.82,-358.51 212,-279.5 217.85,-273.66 225.06,-269.45 232.8,-266.42"/>
<polygon fill="midnightblue" stroke="midnightblue" points="234.01,-269.71 242.44,-263.3 231.85,-263.05 234.01,-269.71"/>
</g>
<!-- Node65 -->
<g id="node39" class="node">
<title>Node65</title>
<g id="a_node39"><a xlink:href="prototypeCmpSSREncode_8cpp.html#a46c49d828f858552d52241146c8376d0" target="_top" xlink:title="Encode hybrid code and phase bias message warning 1: Currently only global mode supported.">
<polygon fill="white" stroke="red" points="244,-213 244,-232 354,-232 354,-213 244,-213"/>
<text text-anchor="middle" x="299" y="-220" font-family="Helvetica,sans-Serif" font-size="10.00">encodecompactBIA</text>
</a>
</g>
</g>
<!-- Node1&#45;&gt;Node65 -->
<g id="edge44" class="edge">
<title>Node1&#45;&gt;Node65</title>
<path fill="none" stroke="midnightblue" d="M89.99,-815.34C95.77,-731.64 127.82,-326.66 212,-241.5 218.1,-235.33 225.73,-230.96 233.9,-227.89"/>
<polygon fill="midnightblue" stroke="midnightblue" points="235.17,-231.16 243.69,-224.87 233.11,-224.48 235.17,-231.16"/>
</g>
<!-- Node66 -->
<g id="node40" class="node">
<title>Node66</title>
<g id="a_node40"><a xlink:href="prototypeCmpSSREncode_8cpp.html#a9cf0998d7d65a64e05e6f918213f78fa" target="_top" xlink:title=" ">
<polygon fill="white" stroke="red" points="242.5,-175 242.5,-194 355.5,-194 355.5,-175 242.5,-175"/>
<text text-anchor="middle" x="299" y="-182" font-family="Helvetica,sans-Serif" font-size="10.00">encodecompactTEC</text>
</a>
</g>
</g>
<!-- Node1&#45;&gt;Node66 -->
<g id="edge45" class="edge">
<title>Node1&#45;&gt;Node66</title>
<path fill="none" stroke="midnightblue" d="M89.79,-815.24C94.61,-728.15 122.87,-294.77 212,-203.5 217.77,-197.59 224.94,-193.33 232.65,-190.28"/>
<polygon fill="midnightblue" stroke="midnightblue" points="233.86,-193.57 242.28,-187.14 231.69,-186.91 233.86,-193.57"/>
</g>
<!-- Node67 -->
<g id="node41" class="node">
<title>Node67</title>
<g id="a_node41"><a xlink:href="prototypeCmpSSREncode_8cpp.html#a6e9d01bf6b6264bf86f3a1f0e9ca47d5" target="_top" xlink:title=" ">
<polygon fill="white" stroke="red" points="241,-137 241,-156 357,-156 357,-137 241,-137"/>
<text text-anchor="middle" x="299" y="-144" font-family="Helvetica,sans-Serif" font-size="10.00">encodecompactGRD</text>
</a>
</g>
</g>
<!-- Node1&#45;&gt;Node67 -->
<g id="edge46" class="edge">
<title>Node1&#45;&gt;Node67</title>
<path fill="none" stroke="midnightblue" d="M89.61,-815.21C93.5,-725.01 117.88,-262.93 212,-165.5 217.33,-159.98 223.88,-155.9 230.96,-152.89"/>
<polygon fill="midnightblue" stroke="midnightblue" points="232.59,-156.03 240.88,-149.44 230.28,-149.42 232.59,-156.03"/>
</g>
<!-- Node68 -->
<g id="node42" class="node">
<title>Node68</title>
<g id="a_node42"><a xlink:href="prototypeCmpSSREncode_8cpp.html#a47bc43c7fe02f1df2f66198afbbf509c" target="_top" xlink:title=" ">
<polygon fill="white" stroke="red" points="241.5,-99 241.5,-118 356.5,-118 356.5,-99 241.5,-99"/>
<text text-anchor="middle" x="299" y="-106" font-family="Helvetica,sans-Serif" font-size="10.00">encodecompactATM</text>
</a>
</g>
</g>
<!-- Node1&#45;&gt;Node68 -->
<g id="edge47" class="edge">
<title>Node1&#45;&gt;Node68</title>
<path fill="none" stroke="midnightblue" d="M89.44,-815.26C92.44,-722.22 112.86,-231.13 212,-127.5 217.5,-121.75 224.32,-117.55 231.69,-114.52"/>
<polygon fill="midnightblue" stroke="midnightblue" points="232.92,-117.79 241.26,-111.26 230.67,-111.17 232.92,-117.79"/>
</g>
<!-- Node69 -->
<g id="node43" class="node">
<title>Node69</title>
<g id="a_node43"><a xlink:href="structRtcmEncoder.html#ac3796c0618a67c888d1d06cc0f055c12" target="_top" xlink:title=" ">
<polygon fill="white" stroke="black" points="224.5,-49.5 224.5,-79.5 373.5,-79.5 373.5,-49.5 224.5,-49.5"/>
<text text-anchor="start" x="232.5" y="-67.5" font-family="Helvetica,sans-Serif" font-size="10.00">RtcmEncoder::encodeWrite</text>
<text text-anchor="middle" x="299" y="-56.5" font-family="Helvetica,sans-Serif" font-size="10.00">Messages</text>
</a>
</g>
</g>
<!-- Node1&#45;&gt;Node69 -->
<g id="edge48" class="edge">
<title>Node1&#45;&gt;Node69</title>
<path fill="none" stroke="midnightblue" d="M89.38,-815.47C92.11,-720.4 111.44,-202.73 212,-89.5 213.36,-87.97 214.8,-86.54 216.31,-85.19"/>
<polygon fill="midnightblue" stroke="midnightblue" points="218.53,-87.91 224.46,-79.13 214.35,-82.29 218.53,-87.91"/>
</g>
<!-- Node70 -->
<g id="node44" class="node">
<title>Node70</title>
<g id="a_node44"><a xlink:href="structNtripUploader.html#ad5747e7814389189d06c1270edcf6103" target="_top" xlink:title=" ">
<polygon fill="white" stroke="red" points="241,-0.5 241,-30.5 357,-30.5 357,-0.5 241,-0.5"/>
<text text-anchor="start" x="249" y="-18.5" font-family="Helvetica,sans-Serif" font-size="10.00">NtripUploader::write</text>
<text text-anchor="middle" x="299" y="-7.5" font-family="Helvetica,sans-Serif" font-size="10.00">_handler</text>
</a>
</g>
</g>
<!-- Node1&#45;&gt;Node70 -->
<g id="edge49" class="edge">
<title>Node1&#45;&gt;Node70</title>
<path fill="none" stroke="midnightblue" d="M89.2,-815.42C90.78,-716.5 104.46,-160.53 212,-39.5 217.36,-33.47 224.09,-28.9 231.42,-25.45"/>
<polygon fill="midnightblue" stroke="midnightblue" points="232.96,-28.6 240.96,-21.64 230.37,-22.1 232.96,-28.6"/>
</g>
<!-- Node7&#45;&gt;Node8 -->
<g id="edge8" class="edge">
<title>Node7&#45;&gt;Node8</title>
<path fill="none" stroke="midnightblue" d="M361.91,-1443.38C370.51,-1440.58 378.84,-1436.74 386,-1431.5 429.69,-1399.54 454.24,-1337.44 464.4,-1305.9"/>
<polygon fill="midnightblue" stroke="midnightblue" points="467.81,-1306.7 467.4,-1296.11 461.12,-1304.65 467.81,-1306.7"/>
</g>
<!-- Node22&#45;&gt;Node8 -->
<g id="edge12" class="edge">
<title>Node22&#45;&gt;Node8</title>
<path fill="none" stroke="midnightblue" d="M343.32,-1314.97C356.98,-1311.96 372.12,-1308.6 386,-1305.5 398.78,-1302.64 412.65,-1299.52 425.36,-1296.64"/>
<polygon fill="midnightblue" stroke="midnightblue" points="426.29,-1300.02 435.27,-1294.4 424.74,-1293.19 426.29,-1300.02"/>
</g>
<!-- Node25&#45;&gt;Node8 -->
<g id="edge15" class="edge">
<title>Node25&#45;&gt;Node8</title>
<path fill="none" stroke="midnightblue" d="M343.32,-1258.03C356.98,-1261.04 372.12,-1264.4 386,-1267.5 398.78,-1270.36 412.65,-1273.48 425.36,-1276.36"/>
<polygon fill="midnightblue" stroke="midnightblue" points="424.74,-1279.81 435.27,-1278.6 426.29,-1272.98 424.74,-1279.81"/>
</g>
<!-- Node27&#45;&gt;Node5 -->
<g id="edge17" class="edge">
<title>Node27&#45;&gt;Node5</title>
<path fill="none" stroke="midnightblue" d="M351.01,-1210.5C370.16,-1210.5 392.07,-1210.5 411.83,-1210.5"/>
<polygon fill="midnightblue" stroke="midnightblue" points="411.94,-1214 421.94,-1210.5 411.94,-1207 411.94,-1214"/>
</g>
<!-- Node53&#45;&gt;Node5 -->
<g id="edge35" class="edge">
<title>Node53&#45;&gt;Node5</title>
<path fill="none" stroke="midnightblue" d="M374.31,-574.18C378.62,-576.71 382.59,-579.78 386,-583.5 470.09,-674.99 471.15,-1094.69 470.27,-1190.84"/>
<polygon fill="midnightblue" stroke="midnightblue" points="466.77,-1190.88 470.15,-1200.91 473.77,-1190.95 466.77,-1190.88"/>
</g>
</g>
</svg>
