<?xml version="1.0" encoding="UTF-8" standalone="no"?>
<!DOCTYPE svg PUBLIC "-//W3C//DTD SVG 1.1//EN"
 "http://www.w3.org/Graphics/SVG/1.1/DTD/svg11.dtd">
<!-- Generated by graphviz version 2.43.0 (0)
 -->
<!-- Title: IonModelOptions Pages: 1 -->
<svg width="239pt" height="375pt"
 viewBox="0.00 0.00 238.50 375.00" xmlns="http://www.w3.org/2000/svg" xmlns:xlink="http://www.w3.org/1999/xlink">
<g id="graph0" class="graph" transform="scale(1 1) rotate(0) translate(4 371)">
<title>IonModelOptions</title>
<polygon fill="white" stroke="transparent" points="-4,4 -4,-371 234.5,-371 234.5,4 -4,4"/>
<!-- Node1 -->
<g id="node1" class="node">
<title>Node1</title>
<g id="a_node1"><a xlink:title=" ">
<polygon fill="#bfbfbf" stroke="black" points="0,-0.5 0,-112.5 114,-112.5 114,-0.5 0,-0.5"/>
<text text-anchor="middle" x="57" y="-100.5" font-family="Helvetica,sans-Serif" font-size="10.00">IonModelOptions</text>
<polyline fill="none" stroke="black" points="0,-93.5 114,-93.5 "/>
<text text-anchor="start" x="8" y="-81.5" font-family="Helvetica,sans-Serif" font-size="10.00">+ model</text>
<text text-anchor="start" x="8" y="-70.5" font-family="Helvetica,sans-Serif" font-size="10.00">+ numBasis</text>
<text text-anchor="start" x="8" y="-59.5" font-family="Helvetica,sans-Serif" font-size="10.00">+ function_order</text>
<text text-anchor="start" x="8" y="-48.5" font-family="Helvetica,sans-Serif" font-size="10.00">+ function_degree</text>
<text text-anchor="start" x="8" y="-37.5" font-family="Helvetica,sans-Serif" font-size="10.00">+ estimate_sat_dcb</text>
<text text-anchor="start" x="8" y="-26.5" font-family="Helvetica,sans-Serif" font-size="10.00">+ use_rotation_mtx</text>
<polyline fill="none" stroke="black" points="0,-19.5 114,-19.5 "/>
<text text-anchor="middle" x="57" y="-7.5" font-family="Helvetica,sans-Serif" font-size="10.00"> </text>
</a>
</g>
</g>
<!-- Node2 -->
<g id="node2" class="node">
<title>Node2</title>
<g id="a_node2"><a xlink:title=" ">
<polygon fill="white" stroke="red" points="5.5,-309.5 5.5,-366.5 108.5,-366.5 108.5,-309.5 5.5,-309.5"/>
<text text-anchor="middle" x="57" y="-354.5" font-family="Helvetica,sans-Serif" font-size="10.00">vector&lt; double &gt;</text>
<polyline fill="none" stroke="red" points="5.5,-347.5 108.5,-347.5 "/>
<text text-anchor="middle" x="57" y="-335.5" font-family="Helvetica,sans-Serif" font-size="10.00"> </text>
<polyline fill="none" stroke="red" points="5.5,-328.5 108.5,-328.5 "/>
<text text-anchor="middle" x="57" y="-316.5" font-family="Helvetica,sans-Serif" font-size="10.00"> </text>
</a>
</g>
</g>
<!-- Node2&#45;&gt;Node1 -->
<g id="edge1" class="edge">
<title>Node2&#45;&gt;Node1</title>
<path fill="none" stroke="#404040" d="M54.99,-309.41C52.69,-274.59 49.45,-212.86 51,-160 51.45,-144.59 52.28,-127.89 53.18,-112.53"/>
<text text-anchor="middle" x="90" y="-186.5" font-family="Helvetica,sans-Serif" font-size="10.00"> +layer_heights</text>
</g>
<!-- Node4 -->
<g id="node3" class="node">
<title>Node4</title>
<g id="a_node3"><a xlink:href="structKalmanModel.html" target="_top" xlink:title="Options associated with kalman filter states.">
<polygon fill="white" stroke="red" points="137.5,-160.5 137.5,-217.5 230.5,-217.5 230.5,-160.5 137.5,-160.5"/>
<text text-anchor="middle" x="184" y="-205.5" font-family="Helvetica,sans-Serif" font-size="10.00">KalmanModel</text>
<polyline fill="none" stroke="red" points="137.5,-198.5 230.5,-198.5 "/>
<text text-anchor="middle" x="184" y="-186.5" font-family="Helvetica,sans-Serif" font-size="10.00"> </text>
<polyline fill="none" stroke="red" points="137.5,-179.5 230.5,-179.5 "/>
<text text-anchor="start" x="145.5" y="-167.5" font-family="Helvetica,sans-Serif" font-size="10.00">+ operator+=()</text>
</a>
</g>
</g>
<!-- Node2&#45;&gt;Node4 -->
<g id="edge3" class="edge">
<title>Node2&#45;&gt;Node4</title>
<path fill="none" stroke="#404040" d="M80.89,-309.35C103.59,-283.07 137.55,-243.77 160.22,-217.53"/>
<text text-anchor="middle" x="174" y="-283" font-family="Helvetica,sans-Serif" font-size="10.00"> +apriori_val</text>
<text text-anchor="middle" x="174" y="-272" font-family="Helvetica,sans-Serif" font-size="10.00">+mu</text>
<text text-anchor="middle" x="174" y="-261" font-family="Helvetica,sans-Serif" font-size="10.00">+proc_noise</text>
<text text-anchor="middle" x="174" y="-250" font-family="Helvetica,sans-Serif" font-size="10.00">+sigma</text>
<text text-anchor="middle" x="174" y="-239" font-family="Helvetica,sans-Serif" font-size="10.00">+tau</text>
</g>
<!-- Node4&#45;&gt;Node1 -->
<g id="edge2" class="edge">
<title>Node4&#45;&gt;Node1</title>
<path fill="none" stroke="#404040" d="M157.07,-160.32C143.52,-146.41 126.61,-129.03 110.57,-112.55"/>
<text text-anchor="middle" x="148.5" y="-134" font-family="Helvetica,sans-Serif" font-size="10.00"> +ion</text>
</g>
</g>
</svg>
