<?xml version="1.0" encoding="UTF-8" standalone="no"?>
<!DOCTYPE svg PUBLIC "-//W3C//DTD SVG 1.1//EN"
 "http://www.w3.org/Graphics/SVG/1.1/DTD/svg11.dtd">
<!-- Generated by graphviz version 2.43.0 (0)
 -->
<!-- Title: NtripSocket::disconnect Pages: 1 -->
<svg width="342pt" height="78pt"
 viewBox="0.00 0.00 342.00 77.50" xmlns="http://www.w3.org/2000/svg" xmlns:xlink="http://www.w3.org/1999/xlink">
<g id="graph0" class="graph" transform="scale(1 1) rotate(0) translate(4 73.5)">
<title>NtripSocket::disconnect</title>
<polygon fill="white" stroke="transparent" points="-4,4 -4,-73.5 338,-73.5 338,4 -4,4"/>
<!-- Node1 -->
<g id="node1" class="node">
<title>Node1</title>
<g id="a_node1"><a xlink:title=" ">
<polygon fill="#bfbfbf" stroke="black" points="203,-22.5 203,-41.5 334,-41.5 334,-22.5 203,-22.5"/>
<text text-anchor="middle" x="268.5" y="-29.5" font-family="Helvetica,sans-Serif" font-size="10.00">NtripSocket::disconnect</text>
</a>
</g>
</g>
<!-- Node2 -->
<g id="node2" class="node">
<title>Node2</title>
<g id="a_node2"><a xlink:href="structNtripSocket.html#a9efb8066ad7ac5b3288dd963236f0df0" target="_top" xlink:title=" ">
<polygon fill="white" stroke="black" points="24.5,-39 24.5,-69 142.5,-69 142.5,-39 24.5,-39"/>
<text text-anchor="start" x="32.5" y="-57" font-family="Helvetica,sans-Serif" font-size="10.00">NtripSocket::delayed</text>
<text text-anchor="middle" x="83.5" y="-46" font-family="Helvetica,sans-Serif" font-size="10.00">_reconnect</text>
</a>
</g>
</g>
<!-- Node1&#45;&gt;Node2 -->
<g id="edge1" class="edge">
<title>Node1&#45;&gt;Node2</title>
<path fill="none" stroke="midnightblue" d="M202.98,-39.76C183.33,-42.12 161.85,-44.7 142.64,-47.01"/>
</g>
<!-- Node3 -->
<g id="node3" class="node">
<title>Node3</title>
<g id="a_node3"><a xlink:href="main_8cpp.html#a2d75b8e97c01e0fc332ddf680796fd21" target="_top" xlink:title=" ">
<polygon fill="white" stroke="red" points="0,-0.5 0,-19.5 167,-19.5 167,-0.5 0,-0.5"/>
<text text-anchor="middle" x="83.5" y="-7.5" font-family="Helvetica,sans-Serif" font-size="10.00">configureDownloadingStreams</text>
</a>
</g>
</g>
<!-- Node1&#45;&gt;Node3 -->
<g id="edge2" class="edge">
<title>Node1&#45;&gt;Node3</title>
<path fill="none" stroke="midnightblue" d="M202.98,-24.24C190.32,-22.72 176.91,-21.11 163.83,-19.54"/>
</g>
</g>
</svg>
