<?xml version="1.0" encoding="UTF-8" standalone="no"?>
<!DOCTYPE svg PUBLIC "-//W3C//DTD SVG 1.1//EN"
 "http://www.w3.org/Graphics/SVG/1.1/DTD/svg11.dtd">
<!-- Generated by graphviz version 2.43.0 (0)
 -->
<!-- Title: KFState::setKFTransRate Pages: 1 -->
<svg width="289pt" height="218pt"
 viewBox="0.00 0.00 289.00 218.00" xmlns="http://www.w3.org/2000/svg" xmlns:xlink="http://www.w3.org/1999/xlink">
<g id="graph0" class="graph" transform="scale(1 1) rotate(0) translate(4 214)">
<title>KFState::setKFTransRate</title>
<polygon fill="white" stroke="transparent" points="-4,4 -4,-214 285,-214 285,4 -4,4"/>
<!-- Node1 -->
<g id="node1" class="node">
<title>Node1</title>
<g id="a_node1"><a xlink:title="Adds dynamics to a filter state by inserting off&#45;diagonal, time dependent elements to transition matr...">
<polygon fill="#bfbfbf" stroke="black" points="146,-95.5 146,-114.5 281,-114.5 281,-95.5 146,-95.5"/>
<text text-anchor="middle" x="213.5" y="-102.5" font-family="Helvetica,sans-Serif" font-size="10.00">KFState::setKFTransRate</text>
</a>
</g>
</g>
<!-- Node2 -->
<g id="node2" class="node">
<title>Node2</title>
<g id="a_node2"><a xlink:href="walkthrough_8cpp.html#aff7ddc151473d418c066b30f06e6b42e" target="_top" xlink:title=" ">
<polygon fill="white" stroke="red" points="13.5,-190.5 13.5,-209.5 96.5,-209.5 96.5,-190.5 13.5,-190.5"/>
<text text-anchor="middle" x="55" y="-197.5" font-family="Helvetica,sans-Serif" font-size="10.00">walkthrough2</text>
</a>
</g>
</g>
<!-- Node1&#45;&gt;Node2 -->
<g id="edge1" class="edge">
<title>Node1&#45;&gt;Node2</title>
<path fill="none" stroke="midnightblue" d="M194.28,-121.17C174.63,-137.96 141.84,-164.09 110,-181 103.15,-184.64 95.47,-187.82 88.09,-190.49"/>
<polygon fill="midnightblue" stroke="midnightblue" points="196.6,-123.8 201.86,-114.6 192.01,-118.51 196.6,-123.8"/>
</g>
<!-- Node7 -->
<g id="node3" class="node">
<title>Node7</title>
<g id="a_node3"><a xlink:href="ppp__obs_8cpp.html#aa9dc8925a7e4b904e12660d44616f1fc" target="_top" xlink:title=" ">
<polygon fill="white" stroke="red" points="18,-152.5 18,-171.5 92,-171.5 92,-152.5 18,-152.5"/>
<text text-anchor="middle" x="55" y="-159.5" font-family="Helvetica,sans-Serif" font-size="10.00">receiverPPP</text>
</a>
</g>
</g>
<!-- Node1&#45;&gt;Node7 -->
<g id="edge2" class="edge">
<title>Node1&#45;&gt;Node7</title>
<path fill="none" stroke="midnightblue" d="M177.33,-118.2C157.57,-125.58 132.45,-134.89 110,-143 101.4,-146.11 92.01,-149.43 83.5,-152.42"/>
<polygon fill="midnightblue" stroke="midnightblue" points="178.71,-121.43 186.85,-114.65 176.26,-114.87 178.71,-121.43"/>
</g>
<!-- Node10 -->
<g id="node4" class="node">
<title>Node10</title>
<g id="a_node4"><a xlink:href="posProp_8cpp.html#a05c6be04249e25c48a91ae9d0ca3bc15" target="_top" xlink:title="Apply the prediction using the filter&#39;s state transition.">
<polygon fill="white" stroke="red" points="13.5,-114.5 13.5,-133.5 96.5,-133.5 96.5,-114.5 13.5,-114.5"/>
<text text-anchor="middle" x="55" y="-121.5" font-family="Helvetica,sans-Serif" font-size="10.00">applyInertials</text>
</a>
</g>
</g>
<!-- Node1&#45;&gt;Node10 -->
<g id="edge3" class="edge">
<title>Node1&#45;&gt;Node10</title>
<path fill="none" stroke="midnightblue" d="M135.49,-114.35C122.12,-115.97 108.71,-117.6 96.81,-119.05"/>
<polygon fill="midnightblue" stroke="midnightblue" points="136.17,-117.79 145.68,-113.11 135.33,-110.84 136.17,-117.79"/>
</g>
<!-- Node12 -->
<g id="node5" class="node">
<title>Node12</title>
<g id="a_node5"><a xlink:href="orbitProp_8cpp.html#a310eb410ad9abe11d99a01fb446c1036" target="_top" xlink:title="Apply the prediction using the filter&#39;s state transition.">
<polygon fill="white" stroke="red" points="18.5,-76.5 18.5,-95.5 91.5,-95.5 91.5,-76.5 18.5,-76.5"/>
<text text-anchor="middle" x="55" y="-83.5" font-family="Helvetica,sans-Serif" font-size="10.00">applyOrbits</text>
</a>
</g>
</g>
<!-- Node1&#45;&gt;Node12 -->
<g id="edge4" class="edge">
<title>Node1&#45;&gt;Node12</title>
<path fill="none" stroke="midnightblue" d="M135.58,-95.66C120.17,-93.79 104.69,-91.91 91.54,-90.31"/>
<polygon fill="midnightblue" stroke="midnightblue" points="135.33,-99.16 145.68,-96.89 136.17,-92.21 135.33,-99.16"/>
</g>
<!-- Node15 -->
<g id="node6" class="node">
<title>Node15</title>
<g id="a_node6"><a xlink:href="ppp__pseudoobs_8cpp.html#a49ce4050de278a66c933406b92bbbf39" target="_top" xlink:title=" ">
<polygon fill="white" stroke="red" points="8.5,-38.5 8.5,-57.5 101.5,-57.5 101.5,-38.5 8.5,-38.5"/>
<text text-anchor="middle" x="55" y="-45.5" font-family="Helvetica,sans-Serif" font-size="10.00">orbitPseudoObs</text>
</a>
</g>
</g>
<!-- Node1&#45;&gt;Node15 -->
<g id="edge5" class="edge">
<title>Node1&#45;&gt;Node15</title>
<path fill="none" stroke="midnightblue" d="M177.33,-91.8C157.57,-84.42 132.45,-75.11 110,-67 101.4,-63.89 92.01,-60.57 83.5,-57.58"/>
<polygon fill="midnightblue" stroke="midnightblue" points="176.26,-95.13 186.85,-95.35 178.71,-88.57 176.26,-95.13"/>
</g>
<!-- Node16 -->
<g id="node7" class="node">
<title>Node16</title>
<g id="a_node7"><a xlink:href="ppp__pseudoobs_8cpp.html#adbd609c578a9ecb55f36c3908efa85ee" target="_top" xlink:title=" ">
<polygon fill="white" stroke="red" points="0,-0.5 0,-19.5 110,-19.5 110,-0.5 0,-0.5"/>
<text text-anchor="middle" x="55" y="-7.5" font-family="Helvetica,sans-Serif" font-size="10.00">receiverPseudoObs</text>
</a>
</g>
</g>
<!-- Node1&#45;&gt;Node16 -->
<g id="edge6" class="edge">
<title>Node1&#45;&gt;Node16</title>
<path fill="none" stroke="midnightblue" d="M194.28,-88.83C174.63,-72.04 141.84,-45.91 110,-29 103.15,-25.36 95.47,-22.18 88.09,-19.51"/>
<polygon fill="midnightblue" stroke="midnightblue" points="192.01,-91.49 201.86,-95.4 196.6,-86.2 192.01,-91.49"/>
</g>
</g>
</svg>
