<?xml version="1.0" encoding="UTF-8" standalone="no"?>
<!DOCTYPE svg PUBLIC "-//W3C//DTD SVG 1.1//EN"
 "http://www.w3.org/Graphics/SVG/1.1/DTD/svg11.dtd">
<!-- Generated by graphviz version 2.43.0 (0)
 -->
<!-- Title: RtcmTrace Pages: 1 -->
<svg width="183pt" height="303pt"
 viewBox="0.00 0.00 182.50 303.00" xmlns="http://www.w3.org/2000/svg" xmlns:xlink="http://www.w3.org/1999/xlink">
<g id="graph0" class="graph" transform="scale(1 1) rotate(0) translate(4 299)">
<title>RtcmTrace</title>
<polygon fill="white" stroke="transparent" points="-4,4 -4,-299 178.5,-299 178.5,4 -4,4"/>
<!-- Node1 -->
<g id="node1" class="node">
<title>Node1</title>
<g id="a_node1"><a xlink:title=" ">
<polygon fill="#bfbfbf" stroke="black" points="0,-0.5 0,-178.5 145,-178.5 145,-0.5 0,-0.5"/>
<text text-anchor="middle" x="72.5" y="-166.5" font-family="Helvetica,sans-Serif" font-size="10.00">RtcmTrace</text>
<polyline fill="none" stroke="black" points="0,-159.5 145,-159.5 "/>
<text text-anchor="middle" x="72.5" y="-147.5" font-family="Helvetica,sans-Serif" font-size="10.00"> </text>
<polyline fill="none" stroke="black" points="0,-140.5 145,-140.5 "/>
<text text-anchor="start" x="8" y="-128.5" font-family="Helvetica,sans-Serif" font-size="10.00">+ RtcmTrace()</text>
<text text-anchor="start" x="8" y="-117.5" font-family="Helvetica,sans-Serif" font-size="10.00">+ networkLog()</text>
<text text-anchor="start" x="8" y="-106.5" font-family="Helvetica,sans-Serif" font-size="10.00">+ messageChunkLog()</text>
<text text-anchor="start" x="8" y="-95.5" font-family="Helvetica,sans-Serif" font-size="10.00">+ messageRtcmLog()</text>
<text text-anchor="start" x="8" y="-84.5" font-family="Helvetica,sans-Serif" font-size="10.00">+ messageRtcmByteLog()</text>
<text text-anchor="start" x="8" y="-73.5" font-family="Helvetica,sans-Serif" font-size="10.00">+ outputSsrEphToJson()</text>
<text text-anchor="start" x="8" y="-62.5" font-family="Helvetica,sans-Serif" font-size="10.00">+ outputSsrClkToJson()</text>
<text text-anchor="start" x="8" y="-51.5" font-family="Helvetica,sans-Serif" font-size="10.00">+ traceSsrEph()</text>
<text text-anchor="start" x="8" y="-40.5" font-family="Helvetica,sans-Serif" font-size="10.00">+ traceSsrClk()</text>
<text text-anchor="start" x="8" y="-29.5" font-family="Helvetica,sans-Serif" font-size="10.00">+ traceSsrCodeB()</text>
<text text-anchor="start" x="8" y="-18.5" font-family="Helvetica,sans-Serif" font-size="10.00">+ traceSsrPhasB()</text>
<text text-anchor="start" x="8" y="-7.5" font-family="Helvetica,sans-Serif" font-size="10.00">+ traceBroEph()</text>
</a>
</g>
</g>
<!-- Node2 -->
<g id="node2" class="node">
<title>Node2</title>
<g id="a_node2"><a xlink:title=" ">
<polygon fill="white" stroke="black" points="50.5,-237.5 50.5,-294.5 94.5,-294.5 94.5,-237.5 50.5,-237.5"/>
<text text-anchor="middle" x="72.5" y="-282.5" font-family="Helvetica,sans-Serif" font-size="10.00">string</text>
<polyline fill="none" stroke="black" points="50.5,-275.5 94.5,-275.5 "/>
<text text-anchor="middle" x="72.5" y="-263.5" font-family="Helvetica,sans-Serif" font-size="10.00"> </text>
<polyline fill="none" stroke="black" points="50.5,-256.5 94.5,-256.5 "/>
<text text-anchor="middle" x="72.5" y="-244.5" font-family="Helvetica,sans-Serif" font-size="10.00"> </text>
</a>
</g>
</g>
<!-- Node2&#45;&gt;Node1 -->
<g id="edge1" class="edge">
<title>Node2&#45;&gt;Node1</title>
<path fill="none" stroke="#404040" d="M72.5,-237.35C72.5,-221.3 72.5,-200.1 72.5,-178.81"/>
<text text-anchor="middle" x="123.5" y="-211" font-family="Helvetica,sans-Serif" font-size="10.00"> +rtcmMountPoint</text>
<text text-anchor="middle" x="123.5" y="-200" font-family="Helvetica,sans-Serif" font-size="10.00">+rtcmTraceFilename</text>
</g>
</g>
</svg>
