<?xml version="1.0" encoding="UTF-8" standalone="no"?>
<!DOCTYPE svg PUBLIC "-//W3C//DTD SVG 1.1//EN"
 "http://www.w3.org/Graphics/SVG/1.1/DTD/svg11.dtd">
<!-- Generated by graphviz version 2.43.0 (0)
 -->
<!-- Title: MjDateUtc::to_double Pages: 1 -->
<svg width="432pt" height="243pt"
 viewBox="0.00 0.00 432.00 243.35" xmlns="http://www.w3.org/2000/svg" xmlns:xlink="http://www.w3.org/1999/xlink">
<g id="graph0" class="graph" transform="scale(1 1) rotate(0) translate(4 239.35)">
<title>MjDateUtc::to_double</title>
<polygon fill="white" stroke="transparent" points="-4,4 -4,-239.35 428,-239.35 428,4 -4,4"/>
<!-- Node1 -->
<g id="node1" class="node">
<title>Node1</title>
<g id="a_node1"><a xlink:title=" ">
<polygon fill="#bfbfbf" stroke="black" points="302,-114.5 302,-133.5 424,-133.5 424,-114.5 302,-114.5"/>
<text text-anchor="middle" x="363" y="-121.5" font-family="Helvetica,sans-Serif" font-size="10.00">MjDateUtc::to_double</text>
</a>
</g>
</g>
<!-- Node2 -->
<g id="node2" class="node">
<title>Node2</title>
<g id="a_node2"><a xlink:href="debug_8cpp.html#af70de86752b2299dc960e06802ce7295" target="_top" xlink:title=" ">
<polygon fill="white" stroke="black" points="0,-133.5 0,-152.5 98,-152.5 98,-133.5 0,-133.5"/>
<text text-anchor="middle" x="49" y="-140.5" font-family="Helvetica,sans-Serif" font-size="10.00">debugTideOcean</text>
</a>
</g>
</g>
<!-- Node1&#45;&gt;Node2 -->
<g id="edge1" class="edge">
<title>Node1&#45;&gt;Node2</title>
<path fill="none" stroke="midnightblue" d="M350.38,-142.21C334.53,-165.16 303.74,-203.48 266,-219 211.74,-241.31 188.74,-240.09 134,-219 98.95,-205.5 69.44,-169.84 56.72,-152.6"/>
<polygon fill="midnightblue" stroke="midnightblue" points="353.42,-143.96 356.06,-133.7 347.6,-140.08 353.42,-143.96"/>
</g>
<!-- Node3 -->
<g id="node3" class="node">
<title>Node3</title>
<g id="a_node3"><a xlink:href="debug_8cpp.html#a024d78c0bdafab9654bb34addd8d14cc" target="_top" xlink:title=" ">
<polygon fill="white" stroke="black" points="140.5,-190.5 140.5,-209.5 259.5,-209.5 259.5,-190.5 140.5,-190.5"/>
<text text-anchor="middle" x="200" y="-197.5" font-family="Helvetica,sans-Serif" font-size="10.00">debugTideOceanPole</text>
</a>
</g>
</g>
<!-- Node1&#45;&gt;Node3 -->
<g id="edge2" class="edge">
<title>Node1&#45;&gt;Node3</title>
<path fill="none" stroke="midnightblue" d="M339.79,-139.38C320.86,-151.94 292.58,-169.44 266,-181 257.7,-184.61 248.51,-187.77 239.72,-190.42"/>
<polygon fill="midnightblue" stroke="midnightblue" points="341.94,-142.15 348.28,-133.66 338.03,-136.34 341.94,-142.15"/>
</g>
<!-- Node4 -->
<g id="node4" class="node">
<title>Node4</title>
<g id="a_node4"><a xlink:href="debug_8cpp.html#a561256d9ead53db67f481d3bf5c19ca7" target="_top" xlink:title=" ">
<polygon fill="white" stroke="black" points="158,-152.5 158,-171.5 242,-171.5 242,-152.5 158,-152.5"/>
<text text-anchor="middle" x="200" y="-159.5" font-family="Helvetica,sans-Serif" font-size="10.00">debugHardisp</text>
</a>
</g>
</g>
<!-- Node1&#45;&gt;Node4 -->
<g id="edge3" class="edge">
<title>Node1&#45;&gt;Node4</title>
<path fill="none" stroke="midnightblue" d="M311.6,-135.9C288.97,-141.24 262.63,-147.45 241.33,-152.48"/>
<polygon fill="midnightblue" stroke="midnightblue" points="312.44,-139.29 321.37,-133.59 310.84,-132.48 312.44,-139.29"/>
</g>
<!-- Node5 -->
<g id="node5" class="node">
<title>Node5</title>
<g id="a_node5"><a xlink:href="debug_8cpp.html#a87c5753b6cf593f61c84b8b25cf8303f" target="_top" xlink:title=" ">
<polygon fill="white" stroke="black" points="143.5,-114.5 143.5,-133.5 256.5,-133.5 256.5,-114.5 143.5,-114.5"/>
<text text-anchor="middle" x="200" y="-121.5" font-family="Helvetica,sans-Serif" font-size="10.00">debugTideSolidPole</text>
</a>
</g>
</g>
<!-- Node1&#45;&gt;Node5 -->
<g id="edge4" class="edge">
<title>Node1&#45;&gt;Node5</title>
<path fill="none" stroke="midnightblue" d="M291.46,-124C279.82,-124 267.91,-124 256.7,-124"/>
<polygon fill="midnightblue" stroke="midnightblue" points="291.59,-127.5 301.59,-124 291.59,-120.5 291.59,-127.5"/>
</g>
<!-- Node6 -->
<g id="node6" class="node">
<title>Node6</title>
<g id="a_node6"><a xlink:href="erp_8cpp.html#af7d1a2cc7083f35bd4abd4879cfb0ef3" target="_top" xlink:title=" ">
<polygon fill="white" stroke="red" points="171.5,-76.5 171.5,-95.5 228.5,-95.5 228.5,-76.5 171.5,-76.5"/>
<text text-anchor="middle" x="200" y="-83.5" font-family="Helvetica,sans-Serif" font-size="10.00">writeErp</text>
</a>
</g>
</g>
<!-- Node1&#45;&gt;Node6 -->
<g id="edge5" class="edge">
<title>Node1&#45;&gt;Node6</title>
<path fill="none" stroke="midnightblue" d="M311.6,-112.1C284.32,-105.67 251.67,-97.96 228.94,-92.59"/>
<polygon fill="midnightblue" stroke="midnightblue" points="310.84,-115.52 321.37,-114.41 312.44,-108.71 310.84,-115.52"/>
</g>
<!-- Node17 -->
<g id="node7" class="node">
<title>Node17</title>
<g id="a_node7"><a xlink:href="tides_8cpp.html#abbc26e24ca76fd096f95e3190906776f" target="_top" xlink:title="Displacement by ocean tide loading &#45; adjustments See ref [1] eq 7.16, [6] Note: This model/function d...">
<polygon fill="white" stroke="black" points="134,-38.5 134,-57.5 266,-57.5 266,-38.5 134,-38.5"/>
<text text-anchor="middle" x="200" y="-45.5" font-family="Helvetica,sans-Serif" font-size="10.00">tideOceanLoadAdjusted</text>
</a>
</g>
</g>
<!-- Node1&#45;&gt;Node17 -->
<g id="edge6" class="edge">
<title>Node1&#45;&gt;Node17</title>
<path fill="none" stroke="midnightblue" d="M339.79,-108.62C320.86,-96.06 292.58,-78.56 266,-67 257.7,-63.39 248.51,-60.23 239.72,-57.58"/>
<polygon fill="midnightblue" stroke="midnightblue" points="338.03,-111.66 348.28,-114.34 341.94,-105.85 338.03,-111.66"/>
</g>
<!-- Node18 -->
<g id="node8" class="node">
<title>Node18</title>
<g id="a_node8"><a xlink:href="tides_8cpp.html#a60b9852b1de1e0f2462506c8ae16ec8b" target="_top" xlink:title="Displacement by solid Earth tide with DEHANTTIDEINEL See ref [1] 7.1.1, [3], [7].">
<polygon fill="white" stroke="red" points="140,-0.5 140,-19.5 260,-19.5 260,-0.5 140,-0.5"/>
<text text-anchor="middle" x="200" y="-7.5" font-family="Helvetica,sans-Serif" font-size="10.00">tideSolidEarthDehant</text>
</a>
</g>
</g>
<!-- Node1&#45;&gt;Node18 -->
<g id="edge8" class="edge">
<title>Node1&#45;&gt;Node18</title>
<path fill="none" stroke="midnightblue" d="M348.82,-106.41C331.92,-85.06 300.63,-49.39 266,-29 259.52,-25.18 252.21,-22.08 244.9,-19.59"/>
<polygon fill="midnightblue" stroke="midnightblue" points="346.07,-108.57 354.96,-114.34 351.6,-104.29 346.07,-108.57"/>
</g>
<!-- Node17&#45;&gt;Node2 -->
<g id="edge7" class="edge">
<title>Node17&#45;&gt;Node2</title>
<path fill="none" stroke="midnightblue" d="M146.41,-61.1C142.11,-62.85 137.92,-64.81 134,-67 101.9,-84.95 71.88,-117.23 58.02,-133.32"/>
<polygon fill="midnightblue" stroke="midnightblue" points="147.75,-64.34 155.93,-57.6 145.33,-57.77 147.75,-64.34"/>
</g>
</g>
</svg>
