<?xml version="1.0" encoding="UTF-8" standalone="no"?>
<!DOCTYPE svg PUBLIC "-//W3C//DTD SVG 1.1//EN"
 "http://www.w3.org/Graphics/SVG/1.1/DTD/svg11.dtd">
<!-- Generated by graphviz version 2.43.0 (0)
 -->
<!-- Title: SatStat Pages: 1 -->
<svg width="186pt" height="391pt"
 viewBox="0.00 0.00 185.50 391.00" xmlns="http://www.w3.org/2000/svg" xmlns:xlink="http://www.w3.org/1999/xlink">
<g id="graph0" class="graph" transform="scale(1 1) rotate(0) translate(4 387)">
<title>SatStat</title>
<polygon fill="white" stroke="transparent" points="-4,4 -4,-387 181.5,-387 181.5,4 -4,4"/>
<!-- Node1 -->
<g id="node1" class="node">
<title>Node1</title>
<g id="a_node1"><a xlink:title="Object containing persistant status parameters of individual satellites.">
<polygon fill="#bfbfbf" stroke="black" points="37,-0.5 37,-211.5 150,-211.5 150,-0.5 37,-0.5"/>
<text text-anchor="middle" x="93.5" y="-199.5" font-family="Helvetica,sans-Serif" font-size="10.00">SatStat</text>
<polyline fill="none" stroke="black" points="37,-192.5 150,-192.5 "/>
<text text-anchor="start" x="45" y="-180.5" font-family="Helvetica,sans-Serif" font-size="10.00">+ phw</text>
<text text-anchor="start" x="45" y="-169.5" font-family="Helvetica,sans-Serif" font-size="10.00">+ mapWet</text>
<text text-anchor="start" x="45" y="-158.5" font-family="Helvetica,sans-Serif" font-size="10.00">+ mapWetGrads</text>
<text text-anchor="start" x="45" y="-147.5" font-family="Helvetica,sans-Serif" font-size="10.00">+ e</text>
<text text-anchor="start" x="45" y="-136.5" font-family="Helvetica,sans-Serif" font-size="10.00">+ ionoOutageCount</text>
<text text-anchor="start" x="45" y="-125.5" font-family="Helvetica,sans-Serif" font-size="10.00">+ dIono</text>
<text text-anchor="start" x="45" y="-114.5" font-family="Helvetica,sans-Serif" font-size="10.00">+ sigmaIono</text>
<text text-anchor="start" x="45" y="-103.5" font-family="Helvetica,sans-Serif" font-size="10.00">+ prevSTEC</text>
<text text-anchor="start" x="45" y="-92.5" font-family="Helvetica,sans-Serif" font-size="10.00">+ nadir</text>
<text text-anchor="start" x="45" y="-81.5" font-family="Helvetica,sans-Serif" font-size="10.00">+ azel</text>
<text text-anchor="start" x="45" y="-70.5" font-family="Helvetica,sans-Serif" font-size="10.00">+ az</text>
<text text-anchor="start" x="45" y="-59.5" font-family="Helvetica,sans-Serif" font-size="10.00">+ el</text>
<text text-anchor="start" x="45" y="-48.5" font-family="Helvetica,sans-Serif" font-size="10.00">+ @41</text>
<text text-anchor="start" x="45" y="-37.5" font-family="Helvetica,sans-Serif" font-size="10.00">+ slip</text>
<text text-anchor="start" x="45" y="-26.5" font-family="Helvetica,sans-Serif" font-size="10.00">+ sigStatMap</text>
<polyline fill="none" stroke="black" points="37,-19.5 150,-19.5 "/>
<text text-anchor="middle" x="93.5" y="-7.5" font-family="Helvetica,sans-Serif" font-size="10.00"> </text>
</a>
</g>
</g>
<!-- Node2 -->
<g id="node2" class="node">
<title>Node2</title>
<g id="a_node2"><a xlink:href="structIonoStat.html" target="_top" xlink:title=" ">
<polygon fill="white" stroke="black" points="0,-265 0,-366 89,-366 89,-265 0,-265"/>
<text text-anchor="middle" x="44.5" y="-354" font-family="Helvetica,sans-Serif" font-size="10.00">IonoStat</text>
<polyline fill="none" stroke="black" points="0,-347 89,-347 "/>
<text text-anchor="start" x="8" y="-335" font-family="Helvetica,sans-Serif" font-size="10.00">+ ambvar</text>
<text text-anchor="start" x="8" y="-324" font-family="Helvetica,sans-Serif" font-size="10.00">+ gf_amb</text>
<text text-anchor="start" x="8" y="-313" font-family="Helvetica,sans-Serif" font-size="10.00">+ lastObsTime</text>
<text text-anchor="start" x="8" y="-302" font-family="Helvetica,sans-Serif" font-size="10.00">+ extiono</text>
<text text-anchor="start" x="8" y="-291" font-family="Helvetica,sans-Serif" font-size="10.00">+ extionovar</text>
<polyline fill="none" stroke="black" points="0,-284 89,-284 "/>
<text text-anchor="middle" x="44.5" y="-272" font-family="Helvetica,sans-Serif" font-size="10.00"> </text>
</a>
</g>
</g>
<!-- Node2&#45;&gt;Node1 -->
<g id="edge1" class="edge">
<title>Node2&#45;&gt;Node1</title>
<path fill="none" stroke="midnightblue" d="M56.24,-264.8C60.03,-248.73 64.39,-230.27 68.76,-211.76"/>
</g>
<!-- Node3 -->
<g id="node3" class="node">
<title>Node3</title>
<g id="a_node3"><a xlink:href="structQC.html" target="_top" xlink:title=" ">
<polygon fill="white" stroke="black" points="107.5,-248.5 107.5,-382.5 177.5,-382.5 177.5,-248.5 107.5,-248.5"/>
<text text-anchor="middle" x="142.5" y="-370.5" font-family="Helvetica,sans-Serif" font-size="10.00">QC</text>
<polyline fill="none" stroke="black" points="107.5,-363.5 177.5,-363.5 "/>
<text text-anchor="start" x="115.5" y="-351.5" font-family="Helvetica,sans-Serif" font-size="10.00">+ mwSlip</text>
<text text-anchor="start" x="115.5" y="-340.5" font-family="Helvetica,sans-Serif" font-size="10.00">+ emwSlip</text>
<text text-anchor="start" x="115.5" y="-329.5" font-family="Helvetica,sans-Serif" font-size="10.00">+ amb</text>
<text text-anchor="start" x="115.5" y="-318.5" font-family="Helvetica,sans-Serif" font-size="10.00">+ mw</text>
<text text-anchor="start" x="115.5" y="-307.5" font-family="Helvetica,sans-Serif" font-size="10.00">+ gf</text>
<text text-anchor="start" x="115.5" y="-296.5" font-family="Helvetica,sans-Serif" font-size="10.00">+ flt</text>
<text text-anchor="start" x="115.5" y="-285.5" font-family="Helvetica,sans-Serif" font-size="10.00">+ lc_pre</text>
<text text-anchor="start" x="115.5" y="-274.5" font-family="Helvetica,sans-Serif" font-size="10.00">+ lc_new</text>
<polyline fill="none" stroke="black" points="107.5,-267.5 177.5,-267.5 "/>
<text text-anchor="middle" x="142.5" y="-255.5" font-family="Helvetica,sans-Serif" font-size="10.00"> </text>
</a>
</g>
</g>
<!-- Node3&#45;&gt;Node1 -->
<g id="edge2" class="edge">
<title>Node3&#45;&gt;Node1</title>
<path fill="none" stroke="midnightblue" d="M126.86,-248.28C124.09,-236.53 121.14,-224.05 118.19,-211.55"/>
</g>
</g>
</svg>
