<?xml version="1.0" encoding="UTF-8" standalone="no"?>
<!DOCTYPE svg PUBLIC "-//W3C//DTD SVG 1.1//EN"
 "http://www.w3.org/Graphics/SVG/1.1/DTD/svg11.dtd">
<!-- Generated by graphviz version 2.43.0 (0)
 -->
<!-- Title: PhaseCenterOffset Pages: 1 -->
<svg width="116pt" height="182pt"
 viewBox="0.00 0.00 116.00 182.00" xmlns="http://www.w3.org/2000/svg" xmlns:xlink="http://www.w3.org/1999/xlink">
<g id="graph0" class="graph" transform="scale(1 1) rotate(0) translate(4 178)">
<title>PhaseCenterOffset</title>
<polygon fill="white" stroke="transparent" points="-4,4 -4,-178 112,-178 112,4 -4,4"/>
<!-- Node1 -->
<g id="node1" class="node">
<title>Node1</title>
<g id="a_node1"><a xlink:title=" ">
<polygon fill="#bfbfbf" stroke="black" points="0,-0.5 0,-57.5 108,-57.5 108,-0.5 0,-0.5"/>
<text text-anchor="middle" x="54" y="-45.5" font-family="Helvetica,sans-Serif" font-size="10.00">PhaseCenterOffset</text>
<polyline fill="none" stroke="black" points="0,-38.5 108,-38.5 "/>
<text text-anchor="middle" x="54" y="-26.5" font-family="Helvetica,sans-Serif" font-size="10.00"> </text>
<polyline fill="none" stroke="black" points="0,-19.5 108,-19.5 "/>
<text text-anchor="middle" x="54" y="-7.5" font-family="Helvetica,sans-Serif" font-size="10.00"> </text>
</a>
</g>
</g>
<!-- Node2 -->
<g id="node2" class="node">
<title>Node2</title>
<g id="a_node2"><a xlink:title=" ">
<polygon fill="white" stroke="black" points="24,-116.5 24,-173.5 84,-173.5 84,-116.5 24,-116.5"/>
<text text-anchor="middle" x="54" y="-161.5" font-family="Helvetica,sans-Serif" font-size="10.00">Vector3d</text>
<polyline fill="none" stroke="black" points="24,-154.5 84,-154.5 "/>
<text text-anchor="middle" x="54" y="-142.5" font-family="Helvetica,sans-Serif" font-size="10.00"> </text>
<polyline fill="none" stroke="black" points="24,-135.5 84,-135.5 "/>
<text text-anchor="middle" x="54" y="-123.5" font-family="Helvetica,sans-Serif" font-size="10.00"> </text>
</a>
</g>
</g>
<!-- Node2&#45;&gt;Node1 -->
<g id="edge1" class="edge">
<title>Node2&#45;&gt;Node1</title>
<path fill="none" stroke="#404040" d="M54,-116.4C54,-98.61 54,-75.56 54,-57.74"/>
<text text-anchor="middle" x="76" y="-90" font-family="Helvetica,sans-Serif" font-size="10.00"> +recPco</text>
<text text-anchor="middle" x="76" y="-79" font-family="Helvetica,sans-Serif" font-size="10.00">+satPco</text>
</g>
</g>
</svg>
