<?xml version="1.0" encoding="UTF-8" standalone="no"?>
<!DOCTYPE svg PUBLIC "-//W3C//DTD SVG 1.1//EN"
 "http://www.w3.org/Graphics/SVG/1.1/DTD/svg11.dtd">
<!-- Generated by graphviz version 2.43.0 (0)
 -->
<!-- Title: RtcmEncoder::encodeSsrCode Pages: 1 -->
<svg width="480pt" height="142pt"
 viewBox="0.00 0.00 480.00 142.00" xmlns="http://www.w3.org/2000/svg" xmlns:xlink="http://www.w3.org/1999/xlink">
<g id="graph0" class="graph" transform="scale(1 1) rotate(0) translate(4 138)">
<title>RtcmEncoder::encodeSsrCode</title>
<polygon fill="white" stroke="transparent" points="-4,4 -4,-138 476,-138 476,4 -4,4"/>
<!-- Node1 -->
<g id="node1" class="node">
<title>Node1</title>
<g id="a_node1"><a xlink:title="encode code bias messages">
<polygon fill="#bfbfbf" stroke="black" points="0,-57.5 0,-76.5 162,-76.5 162,-57.5 0,-57.5"/>
<text text-anchor="middle" x="81" y="-64.5" font-family="Helvetica,sans-Serif" font-size="10.00">RtcmEncoder::encodeSsrCode</text>
</a>
</g>
</g>
<!-- Node2 -->
<g id="node2" class="node">
<title>Node2</title>
<g id="a_node2"><a xlink:href="structRtcmEncoder.html#a0faafc925ae0857559dd9a911cc3b90d" target="_top" xlink:title="encode SSR header information">
<polygon fill="white" stroke="black" points="198,-114.5 198,-133.5 371,-133.5 371,-114.5 198,-114.5"/>
<text text-anchor="middle" x="284.5" y="-121.5" font-family="Helvetica,sans-Serif" font-size="10.00">RtcmEncoder::encodeSsrHeader</text>
</a>
</g>
</g>
<!-- Node1&#45;&gt;Node2 -->
<g id="edge1" class="edge">
<title>Node1&#45;&gt;Node2</title>
<path fill="none" stroke="midnightblue" d="M115.49,-76.56C138.66,-83.17 170.19,-92.14 198,-100 214.91,-104.78 233.72,-110.06 249.38,-114.45"/>
</g>
<!-- Node3 -->
<g id="node3" class="node">
<title>Node3</title>
<g id="a_node3"><a xlink:href="rtcmEncoder_8cpp.html#af0d5eab5e18729b5d6b67194e94979a0" target="_top" xlink:title="increasingly set unsigned bits to byte data">
<polygon fill="white" stroke="red" points="407,-95.5 407,-114.5 472,-114.5 472,-95.5 407,-95.5"/>
<text text-anchor="middle" x="439.5" y="-102.5" font-family="Helvetica,sans-Serif" font-size="10.00">setbituInc</text>
</a>
</g>
</g>
<!-- Node1&#45;&gt;Node3 -->
<g id="edge3" class="edge">
<title>Node1&#45;&gt;Node3</title>
<path fill="none" stroke="midnightblue" d="M162.01,-75.53C239.19,-83.76 352.13,-95.79 406.68,-101.61"/>
</g>
<!-- Node5 -->
<g id="node4" class="node">
<title>Node5</title>
<g id="a_node4"><a xlink:href="rtcmEncoder_8cpp.html#a831abe42902c0ceadba66974c93a637b" target="_top" xlink:title="increasingly set signed bits to byte data">
<polygon fill="white" stroke="red" points="252.5,-38.5 252.5,-57.5 316.5,-57.5 316.5,-38.5 252.5,-38.5"/>
<text text-anchor="middle" x="284.5" y="-45.5" font-family="Helvetica,sans-Serif" font-size="10.00">setbitsInc</text>
</a>
</g>
</g>
<!-- Node1&#45;&gt;Node5 -->
<g id="edge4" class="edge">
<title>Node1&#45;&gt;Node5</title>
<path fill="none" stroke="midnightblue" d="M162.22,-59.44C193.83,-56.46 228.25,-53.21 252.32,-50.94"/>
</g>
<!-- Node7 -->
<g id="node5" class="node">
<title>Node7</title>
<g id="a_node5"><a xlink:href="structRtcmTrace.html#abcf156ad1b35a69c33db080f609b6f16" target="_top" xlink:title=" ">
<polygon fill="white" stroke="red" points="204.5,-0.5 204.5,-19.5 364.5,-19.5 364.5,-0.5 204.5,-0.5"/>
<text text-anchor="middle" x="284.5" y="-7.5" font-family="Helvetica,sans-Serif" font-size="10.00">RtcmTrace::traceSsrCodeBias</text>
</a>
</g>
</g>
<!-- Node1&#45;&gt;Node7 -->
<g id="edge5" class="edge">
<title>Node1&#45;&gt;Node7</title>
<path fill="none" stroke="midnightblue" d="M108.5,-57.5C131.87,-49.32 166.93,-37.52 198,-29 210.46,-25.58 224.08,-22.34 236.7,-19.53"/>
</g>
<!-- Node2&#45;&gt;Node3 -->
<g id="edge2" class="edge">
<title>Node2&#45;&gt;Node3</title>
<path fill="none" stroke="midnightblue" d="M362.45,-114.44C378.08,-112.5 393.68,-110.57 406.65,-108.96"/>
</g>
</g>
</svg>
