<?xml version="1.0" encoding="UTF-8" standalone="no"?>
<!DOCTYPE svg PUBLIC "-//W3C//DTD SVG 1.1//EN"
 "http://www.w3.org/Graphics/SVG/1.1/DTD/svg11.dtd">
<!-- Generated by graphviz version 2.43.0 (0)
 -->
<!-- Title: ANode::ANode Pages: 1 -->
<svg width="226pt" height="1334pt"
 viewBox="0.00 0.00 226.00 1334.00" xmlns="http://www.w3.org/2000/svg" xmlns:xlink="http://www.w3.org/1999/xlink">
<g id="graph0" class="graph" transform="scale(1 1) rotate(0) translate(4 1330)">
<title>ANode::ANode</title>
<polygon fill="white" stroke="transparent" points="-4,4 -4,-1330 222,-1330 222,4 -4,4"/>
<!-- Node1 -->
<g id="node1" class="node">
<title>Node1</title>
<g id="a_node1"><a xlink:title=" ">
<polygon fill="#bfbfbf" stroke="black" points="131,-644.5 131,-663.5 218,-663.5 218,-644.5 131,-644.5"/>
<text text-anchor="middle" x="174.5" y="-651.5" font-family="Helvetica,sans-Serif" font-size="10.00">ANode::ANode</text>
</a>
</g>
</g>
<!-- Node2 -->
<g id="node2" class="node">
<title>Node2</title>
<g id="a_node2"><a xlink:href="structH2.html#a6e566cd52c84e010e4821057ce5cf3f2" target="_top" xlink:title=" ">
<polygon fill="white" stroke="black" points="22.5,-1288.5 22.5,-1307.5 72.5,-1307.5 72.5,-1288.5 22.5,-1288.5"/>
<text text-anchor="middle" x="47.5" y="-1295.5" font-family="Helvetica,sans-Serif" font-size="10.00">H2::H2</text>
</a>
</g>
</g>
<!-- Node1&#45;&gt;Node2 -->
<g id="edge1" class="edge">
<title>Node1&#45;&gt;Node2</title>
<path fill="none" stroke="midnightblue" d="M173.58,-663.87C173.97,-735.6 173.17,-1177.01 95,-1279 89.59,-1286.06 81.11,-1290.51 72.86,-1293.31"/>
</g>
<!-- Node3 -->
<g id="node3" class="node">
<title>Node3</title>
<g id="a_node3"><a xlink:href="structLink.html#a5267c8b5408056908a422717223acb97" target="_top" xlink:title=" ">
<polygon fill="white" stroke="black" points="16,-1232.5 16,-1251.5 79,-1251.5 79,-1232.5 16,-1232.5"/>
<text text-anchor="middle" x="47.5" y="-1239.5" font-family="Helvetica,sans-Serif" font-size="10.00">Link::Link</text>
</a>
</g>
</g>
<!-- Node1&#45;&gt;Node3 -->
<g id="edge3" class="edge">
<title>Node1&#45;&gt;Node3</title>
<path fill="none" stroke="midnightblue" d="M173.45,-663.84C172.88,-731.75 166.53,-1130.83 95,-1223 90.94,-1228.24 85.19,-1232.04 79.11,-1234.8"/>
</g>
<!-- Node4 -->
<g id="node4" class="node">
<title>Node4</title>
<g id="a_node4"><a xlink:href="structA.html#a117ab8a6f63d0b255d2ee66cc967f994" target="_top" xlink:title=" ">
<polygon fill="white" stroke="black" points="29.5,-1176.5 29.5,-1195.5 65.5,-1195.5 65.5,-1176.5 29.5,-1176.5"/>
<text text-anchor="middle" x="47.5" y="-1183.5" font-family="Helvetica,sans-Serif" font-size="10.00">A::A</text>
</a>
</g>
</g>
<!-- Node1&#45;&gt;Node4 -->
<g id="edge5" class="edge">
<title>Node1&#45;&gt;Node4</title>
<path fill="none" stroke="midnightblue" d="M173.29,-663.68C171.7,-727.22 159.97,-1084.55 95,-1167 87.88,-1176.04 75.74,-1180.81 65.65,-1183.31"/>
</g>
<!-- Node5 -->
<g id="node5" class="node">
<title>Node5</title>
<g id="a_node5"><a xlink:href="structMeta.html#a9ad06814c9f79a85cc53e649666268f1" target="_top" xlink:title=" ">
<polygon fill="white" stroke="black" points="11.5,-1120.5 11.5,-1139.5 83.5,-1139.5 83.5,-1120.5 11.5,-1120.5"/>
<text text-anchor="middle" x="47.5" y="-1127.5" font-family="Helvetica,sans-Serif" font-size="10.00">Meta::Meta</text>
</a>
</g>
</g>
<!-- Node1&#45;&gt;Node5 -->
<g id="edge7" class="edge">
<title>Node1&#45;&gt;Node5</title>
<path fill="none" stroke="midnightblue" d="M173.08,-663.76C170.36,-723.38 153.34,-1038.34 95,-1111 91.94,-1114.81 88,-1117.86 83.7,-1120.3"/>
</g>
<!-- Node6 -->
<g id="node6" class="node">
<title>Node6</title>
<g id="a_node6"><a xlink:href="structH1.html#aaeac4e201b38f70e1933425431d5c43f" target="_top" xlink:title=" ">
<polygon fill="white" stroke="black" points="22.5,-1064.5 22.5,-1083.5 72.5,-1083.5 72.5,-1064.5 22.5,-1064.5"/>
<text text-anchor="middle" x="47.5" y="-1071.5" font-family="Helvetica,sans-Serif" font-size="10.00">H1::H1</text>
</a>
</g>
</g>
<!-- Node1&#45;&gt;Node6 -->
<g id="edge9" class="edge">
<title>Node1&#45;&gt;Node6</title>
<path fill="none" stroke="midnightblue" d="M172.84,-663.62C168.89,-718.52 146.81,-991.98 95,-1055 89.35,-1061.87 80.82,-1066.28 72.6,-1069.1"/>
</g>
<!-- Node7 -->
<g id="node7" class="node">
<title>Node7</title>
<g id="a_node7"><a xlink:href="structImg.html#ab1646fbfeff323982b8d81447a72c310" target="_top" xlink:title=" ">
<polygon fill="white" stroke="black" points="17.5,-1008.5 17.5,-1027.5 77.5,-1027.5 77.5,-1008.5 17.5,-1008.5"/>
<text text-anchor="middle" x="47.5" y="-1015.5" font-family="Helvetica,sans-Serif" font-size="10.00">Img::Img</text>
</a>
</g>
</g>
<!-- Node1&#45;&gt;Node7 -->
<g id="edge11" class="edge">
<title>Node1&#45;&gt;Node7</title>
<path fill="none" stroke="midnightblue" d="M172.51,-663.56C167.17,-713.66 140.29,-945.59 95,-999 90.49,-1004.32 84.25,-1008.17 77.82,-1010.95"/>
</g>
<!-- Node8 -->
<g id="node8" class="node">
<title>Node8</title>
<g id="a_node8"><a xlink:href="structScript.html#ad84da8147a4ad4b08d0223c9a89d31b1" target="_top" xlink:title=" ">
<polygon fill="white" stroke="black" points="8.5,-952.5 8.5,-971.5 86.5,-971.5 86.5,-952.5 8.5,-952.5"/>
<text text-anchor="middle" x="47.5" y="-959.5" font-family="Helvetica,sans-Serif" font-size="10.00">Script::Script</text>
</a>
</g>
</g>
<!-- Node1&#45;&gt;Node8 -->
<g id="edge13" class="edge">
<title>Node1&#45;&gt;Node8</title>
<path fill="none" stroke="midnightblue" d="M173.76,-663.63C174.33,-703.39 171.29,-856.73 95,-943 91.65,-946.79 87.43,-949.84 82.91,-952.28"/>
</g>
<!-- Node9 -->
<g id="node9" class="node">
<title>Node9</title>
<g id="a_node9"><a xlink:href="structInput.html#a722a778bbef5c2ffc20b8334761f307d" target="_top" xlink:title=" ">
<polygon fill="white" stroke="black" points="11.5,-896.5 11.5,-915.5 83.5,-915.5 83.5,-896.5 11.5,-896.5"/>
<text text-anchor="middle" x="47.5" y="-903.5" font-family="Helvetica,sans-Serif" font-size="10.00">Input::Input</text>
</a>
</g>
</g>
<!-- Node1&#45;&gt;Node9 -->
<g id="edge15" class="edge">
<title>Node1&#45;&gt;Node9</title>
<path fill="none" stroke="midnightblue" d="M173,-663.87C170.72,-699.01 158.4,-819.47 95,-887 91.42,-890.81 86.96,-893.88 82.24,-896.35"/>
</g>
<!-- Node10 -->
<g id="node10" class="node">
<title>Node10</title>
<g id="a_node10"><a xlink:href="structSpan.html#af8128808016265d16f05fd51ce9ed32c" target="_top" xlink:title=" ">
<polygon fill="white" stroke="black" points="12,-840.5 12,-859.5 83,-859.5 83,-840.5 12,-840.5"/>
<text text-anchor="middle" x="47.5" y="-847.5" font-family="Helvetica,sans-Serif" font-size="10.00">Span::Span</text>
</a>
</g>
</g>
<!-- Node1&#45;&gt;Node10 -->
<g id="edge17" class="edge">
<title>Node1&#45;&gt;Node10</title>
<path fill="none" stroke="midnightblue" d="M171.79,-663.9C166.22,-693.39 145.89,-781.59 95,-831 91.12,-834.77 86.39,-837.82 81.46,-840.29"/>
</g>
<!-- Node11 -->
<g id="node11" class="node">
<title>Node11</title>
<g id="a_node11"><a xlink:href="structBr.html#a6c918a2e9c09cb45de22916b29fb358b" target="_top" xlink:title=" ">
<polygon fill="white" stroke="black" points="25.5,-784.5 25.5,-803.5 69.5,-803.5 69.5,-784.5 25.5,-784.5"/>
<text text-anchor="middle" x="47.5" y="-791.5" font-family="Helvetica,sans-Serif" font-size="10.00">Br::Br</text>
</a>
</g>
</g>
<!-- Node1&#45;&gt;Node11 -->
<g id="edge19" class="edge">
<title>Node1&#45;&gt;Node11</title>
<path fill="none" stroke="midnightblue" d="M169.7,-663.57C160.31,-686.05 133.96,-742.74 95,-775 87.75,-781.01 78.34,-785.33 69.88,-788.31"/>
</g>
<!-- Node12 -->
<g id="node12" class="node">
<title>Node12</title>
<g id="a_node12"><a xlink:href="structStyle.html#a7e04ef1095f4a7d171cf782d02b14ca7" target="_top" xlink:title=" ">
<polygon fill="white" stroke="black" points="11.5,-728.5 11.5,-747.5 83.5,-747.5 83.5,-728.5 11.5,-728.5"/>
<text text-anchor="middle" x="47.5" y="-735.5" font-family="Helvetica,sans-Serif" font-size="10.00">Style::Style</text>
</a>
</g>
</g>
<!-- Node1&#45;&gt;Node12 -->
<g id="edge21" class="edge">
<title>Node1&#45;&gt;Node12</title>
<path fill="none" stroke="midnightblue" d="M163.6,-663.92C149.42,-677.71 122.02,-702.81 95,-719 89.02,-722.59 82.23,-725.79 75.73,-728.49"/>
</g>
<!-- Node13 -->
<g id="node13" class="node">
<title>Node13</title>
<g id="a_node13"><a xlink:href="structLi.html#a19cb963cf59396722190b67b8f81e431" target="_top" xlink:title=" ">
<polygon fill="white" stroke="black" points="28,-672.5 28,-691.5 67,-691.5 67,-672.5 28,-672.5"/>
<text text-anchor="middle" x="47.5" y="-679.5" font-family="Helvetica,sans-Serif" font-size="10.00">Li::Li</text>
</a>
</g>
</g>
<!-- Node1&#45;&gt;Node13 -->
<g id="edge23" class="edge">
<title>Node1&#45;&gt;Node13</title>
<path fill="none" stroke="midnightblue" d="M130.83,-663.56C109.19,-668.41 84.01,-674.05 67.25,-677.8"/>
</g>
<!-- Node14 -->
<g id="node14" class="node">
<title>Node14</title>
<g id="a_node14"><a xlink:href="structDiv.html#a574d3b935bc34d4dacdca363c71b8ddc" target="_top" xlink:title=" ">
<polygon fill="white" stroke="black" points="19.5,-616.5 19.5,-635.5 75.5,-635.5 75.5,-616.5 19.5,-616.5"/>
<text text-anchor="middle" x="47.5" y="-623.5" font-family="Helvetica,sans-Serif" font-size="10.00">Div::Div</text>
</a>
</g>
</g>
<!-- Node1&#45;&gt;Node14 -->
<g id="edge25" class="edge">
<title>Node1&#45;&gt;Node14</title>
<path fill="none" stroke="midnightblue" d="M130.83,-644.44C112.58,-640.35 91.82,-635.7 75.71,-632.1"/>
</g>
<!-- Node15 -->
<g id="node15" class="node">
<title>Node15</title>
<g id="a_node15"><a xlink:href="structBody.html#abb17d52ef89b2c2b9658afca659cec17" target="_top" xlink:title=" ">
<polygon fill="white" stroke="black" points="12,-560.5 12,-579.5 83,-579.5 83,-560.5 12,-560.5"/>
<text text-anchor="middle" x="47.5" y="-567.5" font-family="Helvetica,sans-Serif" font-size="10.00">Body::Body</text>
</a>
</g>
</g>
<!-- Node1&#45;&gt;Node15 -->
<g id="edge27" class="edge">
<title>Node1&#45;&gt;Node15</title>
<path fill="none" stroke="midnightblue" d="M159.16,-644.36C135.05,-628.16 86.67,-595.65 62.67,-579.52"/>
</g>
<!-- Node16 -->
<g id="node16" class="node">
<title>Node16</title>
<g id="a_node16"><a xlink:href="structCanvas.html#aac9e6417cc1f374cbb9c2a3f75f82ce9" target="_top" xlink:title=" ">
<polygon fill="white" stroke="black" points="0,-504.5 0,-523.5 95,-523.5 95,-504.5 0,-504.5"/>
<text text-anchor="middle" x="47.5" y="-511.5" font-family="Helvetica,sans-Serif" font-size="10.00">Canvas::Canvas</text>
</a>
</g>
</g>
<!-- Node1&#45;&gt;Node16 -->
<g id="edge29" class="edge">
<title>Node1&#45;&gt;Node16</title>
<path fill="none" stroke="midnightblue" d="M167.29,-644.29C154.86,-625.25 125.52,-582.16 95,-551 84.89,-540.68 71.93,-530.58 62.27,-523.55"/>
</g>
<!-- Node17 -->
<g id="node17" class="node">
<title>Node17</title>
<g id="a_node17"><a xlink:href="structH5.html#a015eee0fb51b419330d903d05135331b" target="_top" xlink:title=" ">
<polygon fill="white" stroke="black" points="22.5,-448.5 22.5,-467.5 72.5,-467.5 72.5,-448.5 22.5,-448.5"/>
<text text-anchor="middle" x="47.5" y="-455.5" font-family="Helvetica,sans-Serif" font-size="10.00">H5::H5</text>
</a>
</g>
</g>
<!-- Node1&#45;&gt;Node17 -->
<g id="edge31" class="edge">
<title>Node1&#45;&gt;Node17</title>
<path fill="none" stroke="midnightblue" d="M170.37,-644.21C161.64,-617.95 135,-544.61 95,-495 86.19,-484.08 73.62,-474.32 63.77,-467.57"/>
</g>
<!-- Node18 -->
<g id="node18" class="node">
<title>Node18</title>
<g id="a_node18"><a xlink:href="structHtml.html#a2cec4b5623ec9371938a813fc61c64e4" target="_top" xlink:title=" ">
<polygon fill="white" stroke="black" points="12,-392.5 12,-411.5 83,-411.5 83,-392.5 12,-392.5"/>
<text text-anchor="middle" x="47.5" y="-399.5" font-family="Helvetica,sans-Serif" font-size="10.00">Html::Html</text>
</a>
</g>
</g>
<!-- Node1&#45;&gt;Node18 -->
<g id="edge33" class="edge">
<title>Node1&#45;&gt;Node18</title>
<path fill="none" stroke="midnightblue" d="M171.87,-644.11C166.17,-611.88 144.71,-507.99 95,-439 86.92,-427.78 74.56,-418.17 64.61,-411.56"/>
</g>
<!-- Node19 -->
<g id="node19" class="node">
<title>Node19</title>
<g id="a_node19"><a xlink:href="structH3.html#a2e3ce49c6261d31c56a74cbe87508565" target="_top" xlink:title=" ">
<polygon fill="white" stroke="black" points="22.5,-336.5 22.5,-355.5 72.5,-355.5 72.5,-336.5 22.5,-336.5"/>
<text text-anchor="middle" x="47.5" y="-343.5" font-family="Helvetica,sans-Serif" font-size="10.00">H3::H3</text>
</a>
</g>
</g>
<!-- Node1&#45;&gt;Node19 -->
<g id="edge35" class="edge">
<title>Node1&#45;&gt;Node19</title>
<path fill="none" stroke="midnightblue" d="M172.82,-644.49C169.78,-607.7 154.85,-472.32 95,-383 87.42,-371.69 75.29,-362.2 65.33,-355.67"/>
</g>
<!-- Node20 -->
<g id="node20" class="node">
<title>Node20</title>
<g id="a_node20"><a xlink:href="structH4.html#ace4bb7b491f925482e7ef7bb7f4aa627" target="_top" xlink:title=" ">
<polygon fill="white" stroke="black" points="22.5,-280.5 22.5,-299.5 72.5,-299.5 72.5,-280.5 22.5,-280.5"/>
<text text-anchor="middle" x="47.5" y="-287.5" font-family="Helvetica,sans-Serif" font-size="10.00">H4::H4</text>
</a>
</g>
</g>
<!-- Node1&#45;&gt;Node20 -->
<g id="edge37" class="edge">
<title>Node1&#45;&gt;Node20</title>
<path fill="none" stroke="midnightblue" d="M173.4,-644.3C172.56,-602.69 164.79,-436.57 95,-327 87.68,-315.51 75.55,-306.04 65.51,-299.55"/>
</g>
<!-- Node21 -->
<g id="node21" class="node">
<title>Node21</title>
<g id="a_node21"><a xlink:href="structButton.html#ac61da047cb960bea33afad8aff042ff5" target="_top" xlink:title=" ">
<polygon fill="white" stroke="black" points="4,-224.5 4,-243.5 91,-243.5 91,-224.5 4,-224.5"/>
<text text-anchor="middle" x="47.5" y="-231.5" font-family="Helvetica,sans-Serif" font-size="10.00">Button::Button</text>
</a>
</g>
</g>
<!-- Node1&#45;&gt;Node21 -->
<g id="edge39" class="edge">
<title>Node1&#45;&gt;Node21</title>
<path fill="none" stroke="midnightblue" d="M173.84,-644.24C174.99,-598.38 174.88,-401.16 95,-271 87.99,-259.57 76.1,-250.21 66.11,-243.76"/>
</g>
<!-- Node22 -->
<g id="node22" class="node">
<title>Node22</title>
<g id="a_node22"><a xlink:href="structUl.html#ab8f05dd8f71e7b1baae371d4ea909e90" target="_top" xlink:title=" ">
<polygon fill="white" stroke="black" points="25.5,-168.5 25.5,-187.5 69.5,-187.5 69.5,-168.5 25.5,-168.5"/>
<text text-anchor="middle" x="47.5" y="-175.5" font-family="Helvetica,sans-Serif" font-size="10.00">Ul::Ul</text>
</a>
</g>
</g>
<!-- Node1&#45;&gt;Node22 -->
<g id="edge41" class="edge">
<title>Node1&#45;&gt;Node22</title>
<path fill="none" stroke="midnightblue" d="M172.71,-644.46C167.86,-587.44 140.81,-291.8 95,-215 88.13,-203.48 76.25,-194.12 66.21,-187.7"/>
</g>
<!-- Node23 -->
<g id="node23" class="node">
<title>Node23</title>
<g id="a_node23"><a xlink:href="structOption.html#a597b5ef0952d11287e6e9a7485906488" target="_top" xlink:title=" ">
<polygon fill="white" stroke="black" points="4,-112.5 4,-131.5 91,-131.5 91,-112.5 4,-112.5"/>
<text text-anchor="middle" x="47.5" y="-119.5" font-family="Helvetica,sans-Serif" font-size="10.00">Option::Option</text>
</a>
</g>
</g>
<!-- Node1&#45;&gt;Node23 -->
<g id="edge43" class="edge">
<title>Node1&#45;&gt;Node23</title>
<path fill="none" stroke="midnightblue" d="M172.93,-644.46C169.11,-583.33 145.96,-246.38 95,-159 88.24,-147.41 76.36,-138.05 66.29,-131.65"/>
</g>
<!-- Node24 -->
<g id="node24" class="node">
<title>Node24</title>
<g id="a_node24"><a xlink:href="structLabel.html#a122dcada6939bdb3a96f17761fc74612" target="_top" xlink:title=" ">
<polygon fill="white" stroke="black" points="10,-56.5 10,-75.5 85,-75.5 85,-56.5 10,-56.5"/>
<text text-anchor="middle" x="47.5" y="-63.5" font-family="Helvetica,sans-Serif" font-size="10.00">Label::Label</text>
</a>
</g>
</g>
<!-- Node1&#45;&gt;Node24 -->
<g id="edge45" class="edge">
<title>Node1&#45;&gt;Node24</title>
<path fill="none" stroke="midnightblue" d="M173.09,-644.25C170.16,-578.61 151.06,-200.89 95,-103 88.33,-91.36 76.45,-82 66.36,-75.61"/>
</g>
<!-- Node25 -->
<g id="node25" class="node">
<title>Node25</title>
<g id="a_node25"><a xlink:href="structSelect.html#aff5edca6a3ca2bec490b9773f0532c1f" target="_top" xlink:title=" ">
<polygon fill="white" stroke="black" points="6,-0.5 6,-19.5 89,-19.5 89,-0.5 6,-0.5"/>
<text text-anchor="middle" x="47.5" y="-7.5" font-family="Helvetica,sans-Serif" font-size="10.00">Select::Select</text>
</a>
</g>
</g>
<!-- Node1&#45;&gt;Node25 -->
<g id="edge47" class="edge">
<title>Node1&#45;&gt;Node25</title>
<path fill="none" stroke="midnightblue" d="M173.23,-644.17C171.15,-574.55 156.22,-155.51 95,-47 88.41,-35.32 76.52,-25.96 66.42,-19.58"/>
</g>
<!-- Node2&#45;&gt;Node2 -->
<g id="edge2" class="edge">
<title>Node2&#45;&gt;Node2</title>
<path fill="none" stroke="midnightblue" d="M66.92,-1307.76C76.37,-1316.57 69.89,-1326 47.5,-1326 25.11,-1326 18.63,-1316.57 28.08,-1307.76"/>
</g>
<!-- Node3&#45;&gt;Node3 -->
<g id="edge4" class="edge">
<title>Node3&#45;&gt;Node3</title>
<path fill="none" stroke="midnightblue" d="M66.92,-1251.76C76.37,-1260.57 69.89,-1270 47.5,-1270 25.11,-1270 18.63,-1260.57 28.08,-1251.76"/>
</g>
<!-- Node4&#45;&gt;Node4 -->
<g id="edge6" class="edge">
<title>Node4&#45;&gt;Node4</title>
<path fill="none" stroke="midnightblue" d="M65.58,-1194.6C76.91,-1203.72 70.88,-1214 47.5,-1214 24.12,-1214 18.09,-1203.72 29.42,-1194.6"/>
</g>
<!-- Node5&#45;&gt;Node5 -->
<g id="edge8" class="edge">
<title>Node5&#45;&gt;Node5</title>
<path fill="none" stroke="midnightblue" d="M66.92,-1139.76C76.37,-1148.57 69.89,-1158 47.5,-1158 25.11,-1158 18.63,-1148.57 28.08,-1139.76"/>
</g>
<!-- Node6&#45;&gt;Node6 -->
<g id="edge10" class="edge">
<title>Node6&#45;&gt;Node6</title>
<path fill="none" stroke="midnightblue" d="M66.92,-1083.76C76.37,-1092.57 69.89,-1102 47.5,-1102 25.11,-1102 18.63,-1092.57 28.08,-1083.76"/>
</g>
<!-- Node7&#45;&gt;Node7 -->
<g id="edge12" class="edge">
<title>Node7&#45;&gt;Node7</title>
<path fill="none" stroke="midnightblue" d="M66.92,-1027.76C76.37,-1036.57 69.89,-1046 47.5,-1046 25.11,-1046 18.63,-1036.57 28.08,-1027.76"/>
</g>
<!-- Node8&#45;&gt;Node8 -->
<g id="edge14" class="edge">
<title>Node8&#45;&gt;Node8</title>
<path fill="none" stroke="midnightblue" d="M66.92,-971.76C76.37,-980.57 69.89,-990 47.5,-990 25.11,-990 18.63,-980.57 28.08,-971.76"/>
</g>
<!-- Node9&#45;&gt;Node9 -->
<g id="edge16" class="edge">
<title>Node9&#45;&gt;Node9</title>
<path fill="none" stroke="midnightblue" d="M66.92,-915.76C76.37,-924.57 69.89,-934 47.5,-934 25.11,-934 18.63,-924.57 28.08,-915.76"/>
</g>
<!-- Node10&#45;&gt;Node10 -->
<g id="edge18" class="edge">
<title>Node10&#45;&gt;Node10</title>
<path fill="none" stroke="midnightblue" d="M66.92,-859.76C76.37,-868.57 69.89,-878 47.5,-878 25.11,-878 18.63,-868.57 28.08,-859.76"/>
</g>
<!-- Node11&#45;&gt;Node11 -->
<g id="edge20" class="edge">
<title>Node11&#45;&gt;Node11</title>
<path fill="none" stroke="midnightblue" d="M66.92,-803.76C76.37,-812.57 69.89,-822 47.5,-822 25.11,-822 18.63,-812.57 28.08,-803.76"/>
</g>
<!-- Node12&#45;&gt;Node12 -->
<g id="edge22" class="edge">
<title>Node12&#45;&gt;Node12</title>
<path fill="none" stroke="midnightblue" d="M66.92,-747.76C76.37,-756.57 69.89,-766 47.5,-766 25.11,-766 18.63,-756.57 28.08,-747.76"/>
</g>
<!-- Node13&#45;&gt;Node13 -->
<g id="edge24" class="edge">
<title>Node13&#45;&gt;Node13</title>
<path fill="none" stroke="midnightblue" d="M66.92,-691.76C76.37,-700.57 69.89,-710 47.5,-710 25.11,-710 18.63,-700.57 28.08,-691.76"/>
</g>
<!-- Node14&#45;&gt;Node14 -->
<g id="edge26" class="edge">
<title>Node14&#45;&gt;Node14</title>
<path fill="none" stroke="midnightblue" d="M66.92,-635.76C76.37,-644.57 69.89,-654 47.5,-654 25.11,-654 18.63,-644.57 28.08,-635.76"/>
</g>
<!-- Node15&#45;&gt;Node15 -->
<g id="edge28" class="edge">
<title>Node15&#45;&gt;Node15</title>
<path fill="none" stroke="midnightblue" d="M66.92,-579.76C76.37,-588.57 69.89,-598 47.5,-598 25.11,-598 18.63,-588.57 28.08,-579.76"/>
</g>
<!-- Node16&#45;&gt;Node16 -->
<g id="edge30" class="edge">
<title>Node16&#45;&gt;Node16</title>
<path fill="none" stroke="midnightblue" d="M66.92,-523.76C76.37,-532.57 69.89,-542 47.5,-542 25.11,-542 18.63,-532.57 28.08,-523.76"/>
</g>
<!-- Node17&#45;&gt;Node17 -->
<g id="edge32" class="edge">
<title>Node17&#45;&gt;Node17</title>
<path fill="none" stroke="midnightblue" d="M66.92,-467.76C76.37,-476.57 69.89,-486 47.5,-486 25.11,-486 18.63,-476.57 28.08,-467.76"/>
</g>
<!-- Node18&#45;&gt;Node18 -->
<g id="edge34" class="edge">
<title>Node18&#45;&gt;Node18</title>
<path fill="none" stroke="midnightblue" d="M66.92,-411.76C76.37,-420.57 69.89,-430 47.5,-430 25.11,-430 18.63,-420.57 28.08,-411.76"/>
</g>
<!-- Node19&#45;&gt;Node19 -->
<g id="edge36" class="edge">
<title>Node19&#45;&gt;Node19</title>
<path fill="none" stroke="midnightblue" d="M66.92,-355.76C76.37,-364.57 69.89,-374 47.5,-374 25.11,-374 18.63,-364.57 28.08,-355.76"/>
</g>
<!-- Node20&#45;&gt;Node20 -->
<g id="edge38" class="edge">
<title>Node20&#45;&gt;Node20</title>
<path fill="none" stroke="midnightblue" d="M66.92,-299.76C76.37,-308.57 69.89,-318 47.5,-318 25.11,-318 18.63,-308.57 28.08,-299.76"/>
</g>
<!-- Node21&#45;&gt;Node21 -->
<g id="edge40" class="edge">
<title>Node21&#45;&gt;Node21</title>
<path fill="none" stroke="midnightblue" d="M66.92,-243.76C76.37,-252.57 69.89,-262 47.5,-262 25.11,-262 18.63,-252.57 28.08,-243.76"/>
</g>
<!-- Node22&#45;&gt;Node22 -->
<g id="edge42" class="edge">
<title>Node22&#45;&gt;Node22</title>
<path fill="none" stroke="midnightblue" d="M66.92,-187.76C76.37,-196.57 69.89,-206 47.5,-206 25.11,-206 18.63,-196.57 28.08,-187.76"/>
</g>
<!-- Node23&#45;&gt;Node23 -->
<g id="edge44" class="edge">
<title>Node23&#45;&gt;Node23</title>
<path fill="none" stroke="midnightblue" d="M66.92,-131.76C76.37,-140.57 69.89,-150 47.5,-150 25.11,-150 18.63,-140.57 28.08,-131.76"/>
</g>
<!-- Node24&#45;&gt;Node24 -->
<g id="edge46" class="edge">
<title>Node24&#45;&gt;Node24</title>
<path fill="none" stroke="midnightblue" d="M66.92,-75.76C76.37,-84.57 69.89,-94 47.5,-94 25.11,-94 18.63,-84.57 28.08,-75.76"/>
</g>
<!-- Node25&#45;&gt;Node25 -->
<g id="edge48" class="edge">
<title>Node25&#45;&gt;Node25</title>
<path fill="none" stroke="midnightblue" d="M66.92,-19.76C76.37,-28.57 69.89,-38 47.5,-38 25.11,-38 18.63,-28.57 28.08,-19.76"/>
</g>
</g>
</svg>
