<?xml version="1.0" encoding="UTF-8" standalone="no"?>
<!DOCTYPE svg PUBLIC "-//W3C//DTD SVG 1.1//EN"
 "http://www.w3.org/Graphics/SVG/1.1/DTD/svg11.dtd">
<!-- Generated by graphviz version 2.43.0 (0)
 -->
<!-- Title: OrbexEntry Pages: 1 -->
<svg width="289pt" height="402pt"
 viewBox="0.00 0.00 289.00 402.00" xmlns="http://www.w3.org/2000/svg" xmlns:xlink="http://www.w3.org/1999/xlink">
<g id="graph0" class="graph" transform="scale(1 1) rotate(0) translate(4 398)">
<title>OrbexEntry</title>
<polygon fill="white" stroke="transparent" points="-4,4 -4,-398 285,-398 285,4 -4,4"/>
<!-- Node1 -->
<g id="node1" class="node">
<title>Node1</title>
<g id="a_node1"><a xlink:title="ORBEX entry to write out.">
<polygon fill="#bfbfbf" stroke="black" points="118.5,-0.5 118.5,-90.5 192.5,-90.5 192.5,-0.5 118.5,-0.5"/>
<text text-anchor="middle" x="155.5" y="-78.5" font-family="Helvetica,sans-Serif" font-size="10.00">OrbexEntry</text>
<polyline fill="none" stroke="black" points="118.5,-71.5 192.5,-71.5 "/>
<text text-anchor="start" x="126.5" y="-59.5" font-family="Helvetica,sans-Serif" font-size="10.00">+ clk</text>
<text text-anchor="start" x="126.5" y="-48.5" font-family="Helvetica,sans-Serif" font-size="10.00">+ clkVel</text>
<text text-anchor="start" x="126.5" y="-37.5" font-family="Helvetica,sans-Serif" font-size="10.00">+ clkStd</text>
<text text-anchor="start" x="126.5" y="-26.5" font-family="Helvetica,sans-Serif" font-size="10.00">+ clkVelStd</text>
<polyline fill="none" stroke="black" points="118.5,-19.5 192.5,-19.5 "/>
<text text-anchor="middle" x="155.5" y="-7.5" font-family="Helvetica,sans-Serif" font-size="10.00"> </text>
</a>
</g>
</g>
<!-- Node2 -->
<g id="node2" class="node">
<title>Node2</title>
<g id="a_node2"><a xlink:href="structSatSys.html" target="_top" xlink:title="Object holding satellite id, and providing related functions.">
<polygon fill="white" stroke="red" points="0,-171.5 0,-393.5 107,-393.5 107,-171.5 0,-171.5"/>
<text text-anchor="middle" x="53.5" y="-381.5" font-family="Helvetica,sans-Serif" font-size="10.00">SatSys</text>
<polyline fill="none" stroke="red" points="0,-374.5 107,-374.5 "/>
<text text-anchor="start" x="8" y="-362.5" font-family="Helvetica,sans-Serif" font-size="10.00">+ sys</text>
<text text-anchor="start" x="8" y="-351.5" font-family="Helvetica,sans-Serif" font-size="10.00">+ prn</text>
<polyline fill="none" stroke="red" points="0,-344.5 107,-344.5 "/>
<text text-anchor="start" x="8" y="-332.5" font-family="Helvetica,sans-Serif" font-size="10.00">+ SatSys()</text>
<text text-anchor="start" x="8" y="-321.5" font-family="Helvetica,sans-Serif" font-size="10.00">+ sysChar()</text>
<text text-anchor="start" x="8" y="-310.5" font-family="Helvetica,sans-Serif" font-size="10.00">+ getId()</text>
<text text-anchor="start" x="8" y="-299.5" font-family="Helvetica,sans-Serif" font-size="10.00">+ operator int()</text>
<text text-anchor="start" x="8" y="-288.5" font-family="Helvetica,sans-Serif" font-size="10.00">+ setBlockType()</text>
<text text-anchor="start" x="8" y="-277.5" font-family="Helvetica,sans-Serif" font-size="10.00">+ setSvn()</text>
<text text-anchor="start" x="8" y="-266.5" font-family="Helvetica,sans-Serif" font-size="10.00">+ blockType()</text>
<text text-anchor="start" x="8" y="-255.5" font-family="Helvetica,sans-Serif" font-size="10.00">+ svn()</text>
<text text-anchor="start" x="8" y="-244.5" font-family="Helvetica,sans-Serif" font-size="10.00">+ fromHash()</text>
<text text-anchor="start" x="8" y="-233.5" font-family="Helvetica,sans-Serif" font-size="10.00">+ id()</text>
<text text-anchor="start" x="8" y="-222.5" font-family="Helvetica,sans-Serif" font-size="10.00">+ operator string()</text>
<text text-anchor="start" x="8" y="-211.5" font-family="Helvetica,sans-Serif" font-size="10.00">+ SatSys()</text>
<text text-anchor="start" x="8" y="-200.5" font-family="Helvetica,sans-Serif" font-size="10.00">+ sysName()</text>
<text text-anchor="start" x="8" y="-189.5" font-family="Helvetica,sans-Serif" font-size="10.00">+ serialize()</text>
<text text-anchor="start" x="8" y="-178.5" font-family="Helvetica,sans-Serif" font-size="10.00">+ sysFromChar()</text>
</a>
</g>
</g>
<!-- Node2&#45;&gt;Node1 -->
<g id="edge1" class="edge">
<title>Node2&#45;&gt;Node1</title>
<path fill="none" stroke="#404040" d="M96.51,-171.38C105.12,-150.52 114.35,-128.98 123.5,-109 126.24,-103.01 129.25,-96.77 132.29,-90.65"/>
<text text-anchor="middle" x="137.5" y="-128.5" font-family="Helvetica,sans-Serif" font-size="10.00"> +Sat</text>
</g>
<!-- Node5 -->
<g id="node3" class="node">
<title>Node5</title>
<g id="a_node3"><a xlink:title=" ">
<polygon fill="white" stroke="black" points="125.5,-254 125.5,-311 185.5,-311 185.5,-254 125.5,-254"/>
<text text-anchor="middle" x="155.5" y="-299" font-family="Helvetica,sans-Serif" font-size="10.00">Vector3d</text>
<polyline fill="none" stroke="black" points="125.5,-292 185.5,-292 "/>
<text text-anchor="middle" x="155.5" y="-280" font-family="Helvetica,sans-Serif" font-size="10.00"> </text>
<polyline fill="none" stroke="black" points="125.5,-273 185.5,-273 "/>
<text text-anchor="middle" x="155.5" y="-261" font-family="Helvetica,sans-Serif" font-size="10.00"> </text>
</a>
</g>
</g>
<!-- Node5&#45;&gt;Node1 -->
<g id="edge2" class="edge">
<title>Node5&#45;&gt;Node1</title>
<path fill="none" stroke="#404040" d="M155.5,-253.62C155.5,-213.38 155.5,-138.6 155.5,-90.76"/>
<text text-anchor="middle" x="176.5" y="-145" font-family="Helvetica,sans-Serif" font-size="10.00"> +pos</text>
<text text-anchor="middle" x="176.5" y="-134" font-family="Helvetica,sans-Serif" font-size="10.00">+posStd</text>
<text text-anchor="middle" x="176.5" y="-123" font-family="Helvetica,sans-Serif" font-size="10.00">+vel</text>
<text text-anchor="middle" x="176.5" y="-112" font-family="Helvetica,sans-Serif" font-size="10.00">+velStd</text>
</g>
<!-- Node6 -->
<g id="node4" class="node">
<title>Node6</title>
<g id="a_node4"><a xlink:title=" ">
<polygon fill="white" stroke="black" points="204,-254 204,-311 281,-311 281,-254 204,-254"/>
<text text-anchor="middle" x="242.5" y="-299" font-family="Helvetica,sans-Serif" font-size="10.00">Quaterniond</text>
<polyline fill="none" stroke="black" points="204,-292 281,-292 "/>
<text text-anchor="middle" x="242.5" y="-280" font-family="Helvetica,sans-Serif" font-size="10.00"> </text>
<polyline fill="none" stroke="black" points="204,-273 281,-273 "/>
<text text-anchor="middle" x="242.5" y="-261" font-family="Helvetica,sans-Serif" font-size="10.00"> </text>
</a>
</g>
</g>
<!-- Node6&#45;&gt;Node1 -->
<g id="edge3" class="edge">
<title>Node6&#45;&gt;Node1</title>
<path fill="none" stroke="#404040" d="M239.38,-253.79C234.68,-218.75 223.82,-157.18 201.5,-109 198.61,-102.77 195.05,-96.53 191.19,-90.55"/>
<text text-anchor="middle" x="225.5" y="-128.5" font-family="Helvetica,sans-Serif" font-size="10.00"> +q</text>
</g>
</g>
</svg>
