<?xml version="1.0" encoding="UTF-8" standalone="no"?>
<!DOCTYPE svg PUBLIC "-//W3C//DTD SVG 1.1//EN"
 "http://www.w3.org/Graphics/SVG/1.1/DTD/svg11.dtd">
<!-- Generated by graphviz version 2.43.0 (0)
 -->
<!-- Title: GTime::roundTime Pages: 1 -->
<svg width="493pt" height="161pt"
 viewBox="0.00 0.00 493.00 161.00" xmlns="http://www.w3.org/2000/svg" xmlns:xlink="http://www.w3.org/1999/xlink">
<g id="graph0" class="graph" transform="scale(1 1) rotate(0) translate(4 157)">
<title>GTime::roundTime</title>
<polygon fill="white" stroke="transparent" points="-4,4 -4,-157 489,-157 489,4 -4,4"/>
<!-- Node1 -->
<g id="node1" class="node">
<title>Node1</title>
<g id="a_node1"><a xlink:title=" ">
<polygon fill="#bfbfbf" stroke="black" points="379,-57.5 379,-76.5 485,-76.5 485,-57.5 379,-57.5"/>
<text text-anchor="middle" x="432" y="-64.5" font-family="Helvetica,sans-Serif" font-size="10.00">GTime::roundTime</text>
</a>
</g>
</g>
<!-- Node2 -->
<g id="node2" class="node">
<title>Node2</title>
<g id="a_node2"><a xlink:href="biasSINEXwrite_8cpp.html#a975aa402cca9e4828c089e82bb68c5a6" target="_top" xlink:title="Write stored bias output to SINEX file Return number of written biases (&#45;1 if file not found)">
<polygon fill="white" stroke="red" points="232.5,-133.5 232.5,-152.5 321.5,-152.5 321.5,-133.5 232.5,-133.5"/>
<text text-anchor="middle" x="277" y="-140.5" font-family="Helvetica,sans-Serif" font-size="10.00">writeBiasSinex</text>
</a>
</g>
</g>
<!-- Node1&#45;&gt;Node2 -->
<g id="edge1" class="edge">
<title>Node1&#45;&gt;Node2</title>
<path fill="none" stroke="midnightblue" d="M418.84,-76.52C402.45,-88.97 371.96,-110.73 343,-124 334.98,-127.67 326.09,-130.82 317.51,-133.44"/>
</g>
<!-- Node7 -->
<g id="node3" class="node">
<title>Node7</title>
<g id="a_node3"><a xlink:href="rinex_8cpp.html#a30b3cdcd487d258c340534e7ddbde2e1" target="_top" xlink:title="Decode glonass ephemeris.">
<polygon fill="white" stroke="red" points="238.5,-95.5 238.5,-114.5 315.5,-114.5 315.5,-95.5 238.5,-95.5"/>
<text text-anchor="middle" x="277" y="-102.5" font-family="Helvetica,sans-Serif" font-size="10.00">decodeGeph</text>
</a>
</g>
</g>
<!-- Node1&#45;&gt;Node7 -->
<g id="edge2" class="edge">
<title>Node1&#45;&gt;Node7</title>
<path fill="none" stroke="midnightblue" d="M392.39,-76.59C368.84,-82.44 338.89,-89.88 315.54,-95.68"/>
</g>
<!-- Node13 -->
<g id="node4" class="node">
<title>Node13</title>
<g id="a_node4"><a xlink:href="rinexClkWrite_8cpp.html#ae105b449da2c0d5e0ce91380d3b6907b" target="_top" xlink:title=" ">
<polygon fill="white" stroke="red" points="211,-57.5 211,-76.5 343,-76.5 343,-57.5 211,-57.5"/>
<text text-anchor="middle" x="277" y="-64.5" font-family="Helvetica,sans-Serif" font-size="10.00">getSysOutputFilenames</text>
</a>
</g>
</g>
<!-- Node1&#45;&gt;Node13 -->
<g id="edge3" class="edge">
<title>Node1&#45;&gt;Node13</title>
<path fill="none" stroke="midnightblue" d="M378.77,-67C367.35,-67 355.11,-67 343.25,-67"/>
</g>
<!-- Node23 -->
<g id="node5" class="node">
<title>Node23</title>
<g id="a_node5"><a xlink:href="main_8cpp.html#a29d52cfc981619584262b20b497865db" target="_top" xlink:title="Create new empty trace files only when required when the filename is changed.">
<polygon fill="white" stroke="red" points="80,-19.5 80,-38.5 175,-38.5 175,-19.5 80,-19.5"/>
<text text-anchor="middle" x="127.5" y="-26.5" font-family="Helvetica,sans-Serif" font-size="10.00">createTracefiles</text>
</a>
</g>
</g>
<!-- Node1&#45;&gt;Node23 -->
<g id="edge6" class="edge">
<title>Node1&#45;&gt;Node23</title>
<path fill="none" stroke="midnightblue" d="M391.77,-57.44C376.61,-54.03 359.07,-50.44 343,-48 285.52,-39.28 218.73,-34.15 175.14,-31.46"/>
</g>
<!-- Node5 -->
<g id="node6" class="node">
<title>Node5</title>
<g id="a_node6"><a xlink:href="main_8cpp.html#a2c1eabb2ea9b242d8d9fd2c1795849e9" target="_top" xlink:title=" ">
<polygon fill="white" stroke="red" points="0,-0.5 0,-19.5 44,-19.5 44,-0.5 0,-0.5"/>
<text text-anchor="middle" x="22" y="-7.5" font-family="Helvetica,sans-Serif" font-size="10.00">ginan</text>
</a>
</g>
</g>
<!-- Node1&#45;&gt;Node5 -->
<g id="edge7" class="edge">
<title>Node1&#45;&gt;Node5</title>
<path fill="none" stroke="midnightblue" d="M412.65,-57.5C395.21,-48.9 368,-36.6 343,-30 233.48,-1.07 95.87,-5.5 44.04,-8.53"/>
</g>
<!-- Node13&#45;&gt;Node23 -->
<g id="edge4" class="edge">
<title>Node13&#45;&gt;Node23</title>
<path fill="none" stroke="midnightblue" d="M238.78,-57.41C216.33,-51.63 187.85,-44.29 165.45,-38.52"/>
</g>
<!-- Node23&#45;&gt;Node5 -->
<g id="edge5" class="edge">
<title>Node23&#45;&gt;Node5</title>
<path fill="none" stroke="midnightblue" d="M79.9,-20.44C67.34,-18.14 54.38,-15.76 44,-13.86"/>
</g>
</g>
</svg>
