<?xml version="1.0" encoding="UTF-8" standalone="no"?>
<!DOCTYPE svg PUBLIC "-//W3C//DTD SVG 1.1//EN"
 "http://www.w3.org/Graphics/SVG/1.1/DTD/svg11.dtd">
<!-- Generated by graphviz version 2.43.0 (0)
 -->
<!-- Title: /ginan/src/cpp/loading/tide.h Pages: 1 -->
<svg width="489pt" height="173pt"
 viewBox="0.00 0.00 488.50 173.00" xmlns="http://www.w3.org/2000/svg" xmlns:xlink="http://www.w3.org/1999/xlink">
<g id="graph0" class="graph" transform="scale(1 1) rotate(0) translate(4 169)">
<title>/ginan/src/cpp/loading/tide.h</title>
<polygon fill="white" stroke="transparent" points="-4,4 -4,-169 484.5,-169 484.5,4 -4,4"/>
<!-- Node1 -->
<g id="node1" class="node">
<title>Node1</title>
<g id="a_node1"><a xlink:title=" ">
<polygon fill="#bfbfbf" stroke="black" points="177.5,-134.5 177.5,-164.5 300.5,-164.5 300.5,-134.5 177.5,-134.5"/>
<text text-anchor="start" x="185.5" y="-152.5" font-family="Helvetica,sans-Serif" font-size="10.00">/ginan/src/cpp/loading</text>
<text text-anchor="middle" x="239" y="-141.5" font-family="Helvetica,sans-Serif" font-size="10.00">/tide.h</text>
</a>
</g>
</g>
<!-- Node2 -->
<g id="node2" class="node">
<title>Node2</title>
<g id="a_node2"><a xlink:href="interpolate__loading_8cpp.html" target="_top" xlink:title=" ">
<polygon fill="white" stroke="black" points="0,-0.5 0,-30.5 134,-30.5 134,-0.5 0,-0.5"/>
<text text-anchor="start" x="8" y="-18.5" font-family="Helvetica,sans-Serif" font-size="10.00">/ginan/src/cpp/loading</text>
<text text-anchor="middle" x="67" y="-7.5" font-family="Helvetica,sans-Serif" font-size="10.00">/interpolate_loading.cpp</text>
</a>
</g>
</g>
<!-- Node1&#45;&gt;Node2 -->
<g id="edge1" class="edge">
<title>Node1&#45;&gt;Node2</title>
<path fill="none" stroke="midnightblue" d="M206.21,-129.08C191.71,-120.11 174.66,-109.01 160,-98 130.99,-76.21 99.75,-47.67 81.87,-30.79"/>
<polygon fill="midnightblue" stroke="midnightblue" points="204.51,-132.14 214.87,-134.38 208.16,-126.17 204.51,-132.14"/>
</g>
<!-- Node3 -->
<g id="node3" class="node">
<title>Node3</title>
<g id="a_node3"><a xlink:href="load__functions_8cpp.html" target="_top" xlink:title=" ">
<polygon fill="white" stroke="black" points="152.5,-0.5 152.5,-30.5 275.5,-30.5 275.5,-0.5 152.5,-0.5"/>
<text text-anchor="start" x="160.5" y="-18.5" font-family="Helvetica,sans-Serif" font-size="10.00">/ginan/src/cpp/loading</text>
<text text-anchor="middle" x="214" y="-7.5" font-family="Helvetica,sans-Serif" font-size="10.00">/load_functions.cpp</text>
</a>
</g>
</g>
<!-- Node1&#45;&gt;Node3 -->
<g id="edge2" class="edge">
<title>Node1&#45;&gt;Node3</title>
<path fill="none" stroke="midnightblue" d="M199.03,-129.12C187.17,-121.23 175.59,-110.88 169,-98 162.72,-85.73 164.1,-79.88 169,-67 174.43,-52.73 185.95,-39.93 195.98,-30.79"/>
<polygon fill="midnightblue" stroke="midnightblue" points="197.31,-132.17 207.66,-134.44 200.98,-126.21 197.31,-132.17"/>
</g>
<!-- Node4 -->
<g id="node4" class="node">
<title>Node4</title>
<g id="a_node4"><a xlink:href="load__functions_8h.html" target="_top" xlink:title=" ">
<polygon fill="white" stroke="black" points="177.5,-67.5 177.5,-97.5 300.5,-97.5 300.5,-67.5 177.5,-67.5"/>
<text text-anchor="start" x="185.5" y="-85.5" font-family="Helvetica,sans-Serif" font-size="10.00">/ginan/src/cpp/loading</text>
<text text-anchor="middle" x="239" y="-74.5" font-family="Helvetica,sans-Serif" font-size="10.00">/load_functions.h</text>
</a>
</g>
</g>
<!-- Node1&#45;&gt;Node4 -->
<g id="edge3" class="edge">
<title>Node1&#45;&gt;Node4</title>
<path fill="none" stroke="midnightblue" d="M239,-124.11C239,-115.15 239,-105.32 239,-97.58"/>
<polygon fill="midnightblue" stroke="midnightblue" points="235.5,-124.4 239,-134.4 242.5,-124.4 235.5,-124.4"/>
</g>
<!-- Node5 -->
<g id="node5" class="node">
<title>Node5</title>
<g id="a_node5"><a xlink:href="make__otl__blq_8cpp.html" target="_top" xlink:title="Program to compute the ocean tide loading from a tide grid.">
<polygon fill="white" stroke="black" points="293.5,-0.5 293.5,-30.5 416.5,-30.5 416.5,-0.5 293.5,-0.5"/>
<text text-anchor="start" x="301.5" y="-18.5" font-family="Helvetica,sans-Serif" font-size="10.00">/ginan/src/cpp/loading</text>
<text text-anchor="middle" x="355" y="-7.5" font-family="Helvetica,sans-Serif" font-size="10.00">/make_otl_blq.cpp</text>
</a>
</g>
</g>
<!-- Node1&#45;&gt;Node5 -->
<g id="edge7" class="edge">
<title>Node1&#45;&gt;Node5</title>
<path fill="none" stroke="midnightblue" d="M273,-128.84C285.63,-120.44 299.44,-109.83 310,-98 328.4,-77.38 342.3,-47.94 349.5,-30.67"/>
<polygon fill="midnightblue" stroke="midnightblue" points="271.02,-125.95 264.49,-134.3 274.8,-131.84 271.02,-125.95"/>
</g>
<!-- Node6 -->
<g id="node6" class="node">
<title>Node6</title>
<g id="a_node6"><a xlink:href="tide_8cpp.html" target="_top" xlink:title=" ">
<polygon fill="white" stroke="black" points="357.5,-67.5 357.5,-97.5 480.5,-97.5 480.5,-67.5 357.5,-67.5"/>
<text text-anchor="start" x="365.5" y="-85.5" font-family="Helvetica,sans-Serif" font-size="10.00">/ginan/src/cpp/loading</text>
<text text-anchor="middle" x="419" y="-74.5" font-family="Helvetica,sans-Serif" font-size="10.00">/tide.cpp</text>
</a>
</g>
</g>
<!-- Node1&#45;&gt;Node6 -->
<g id="edge8" class="edge">
<title>Node1&#45;&gt;Node6</title>
<path fill="none" stroke="midnightblue" d="M287.59,-130.96C316.58,-120.48 352.91,-107.37 380.02,-97.58"/>
<polygon fill="midnightblue" stroke="midnightblue" points="286.27,-127.71 278.06,-134.4 288.65,-134.29 286.27,-127.71"/>
</g>
<!-- Node4&#45;&gt;Node2 -->
<g id="edge4" class="edge">
<title>Node4&#45;&gt;Node2</title>
<path fill="none" stroke="midnightblue" d="M192.21,-63.82C164.57,-53.37 130.04,-40.32 104.25,-30.58"/>
<polygon fill="midnightblue" stroke="midnightblue" points="191.09,-67.13 201.68,-67.4 193.56,-60.59 191.09,-67.13"/>
</g>
<!-- Node4&#45;&gt;Node3 -->
<g id="edge5" class="edge">
<title>Node4&#45;&gt;Node3</title>
<path fill="none" stroke="midnightblue" d="M229.96,-57.99C226.42,-48.8 222.49,-38.58 219.41,-30.58"/>
<polygon fill="midnightblue" stroke="midnightblue" points="226.72,-59.32 233.58,-67.4 233.25,-56.81 226.72,-59.32"/>
</g>
<!-- Node4&#45;&gt;Node5 -->
<g id="edge6" class="edge">
<title>Node4&#45;&gt;Node5</title>
<path fill="none" stroke="midnightblue" d="M273.27,-62.3C291.42,-52.12 313.32,-39.85 329.88,-30.58"/>
<polygon fill="midnightblue" stroke="midnightblue" points="271.18,-59.45 264.17,-67.4 274.6,-65.56 271.18,-59.45"/>
</g>
</g>
</svg>
