<?xml version="1.0" encoding="UTF-8" standalone="no"?>
<!DOCTYPE svg PUBLIC "-//W3C//DTD SVG 1.1//EN"
 "http://www.w3.org/Graphics/SVG/1.1/DTD/svg11.dtd">
<!-- Generated by graphviz version 2.43.0 (0)
 -->
<!-- Title: tideDisp Pages: 1 -->
<svg width="320pt" height="433pt"
 viewBox="0.00 0.00 320.00 432.89" xmlns="http://www.w3.org/2000/svg" xmlns:xlink="http://www.w3.org/1999/xlink">
<g id="graph0" class="graph" transform="scale(1 1) rotate(0) translate(4 428.89)">
<title>tideDisp</title>
<polygon fill="white" stroke="transparent" points="-4,4 -4,-428.89 316,-428.89 316,4 -4,4"/>
<!-- Node1 -->
<g id="node1" class="node">
<title>Node1</title>
<g id="a_node1"><a xlink:title=" ">
<polygon fill="#bfbfbf" stroke="black" points="0,-209.5 0,-228.5 57,-228.5 57,-209.5 0,-209.5"/>
<text text-anchor="middle" x="28.5" y="-216.5" font-family="Helvetica,sans-Serif" font-size="10.00">tideDisp</text>
</a>
</g>
</g>
<!-- Node2 -->
<g id="node2" class="node">
<title>Node2</title>
<g id="a_node2"><a xlink:href="structGTime.html#a98fdbaaec5a132a7e694f28b4f1907cb" target="_top" xlink:title=" ">
<polygon fill="white" stroke="black" points="215,-380.5 215,-399.5 312,-399.5 312,-380.5 215,-380.5"/>
<text text-anchor="middle" x="263.5" y="-387.5" font-family="Helvetica,sans-Serif" font-size="10.00">GTime::to_string</text>
</a>
</g>
</g>
<!-- Node1&#45;&gt;Node2 -->
<g id="edge1" class="edge">
<title>Node1&#45;&gt;Node2</title>
<path fill="none" stroke="midnightblue" d="M29.2,-228.7C28.77,-260.99 32.32,-365.3 93,-409 138.77,-441.97 210.28,-415.35 243.88,-399.57"/>
</g>
<!-- Node3 -->
<g id="node3" class="node">
<title>Node3</title>
<g id="a_node3"><a xlink:href="trace_8cpp.html#ae00e6addd3bdf3a7fd41a254eb9aec89" target="_top" xlink:title=" ">
<polygon fill="white" stroke="black" points="100.5,-380.5 100.5,-399.5 171.5,-399.5 171.5,-380.5 100.5,-380.5"/>
<text text-anchor="middle" x="136" y="-387.5" font-family="Helvetica,sans-Serif" font-size="10.00">tracepdeex</text>
</a>
</g>
</g>
<!-- Node1&#45;&gt;Node3 -->
<g id="edge2" class="edge">
<title>Node1&#45;&gt;Node3</title>
<path fill="none" stroke="midnightblue" d="M30.99,-228.53C35.54,-254.65 51.55,-328.33 93,-371 96.68,-374.79 101.25,-377.89 106.02,-380.4"/>
</g>
<!-- Node4 -->
<g id="node4" class="node">
<title>Node4</title>
<g id="a_node4"><a xlink:href="erp_8cpp.html#a6c6ecf3c5c7d4367d78ad08621996580" target="_top" xlink:title="Get earth rotation parameter values.">
<polygon fill="white" stroke="red" points="112,-342.5 112,-361.5 160,-361.5 160,-342.5 112,-342.5"/>
<text text-anchor="middle" x="136" y="-349.5" font-family="Helvetica,sans-Serif" font-size="10.00">getErp</text>
</a>
</g>
</g>
<!-- Node1&#45;&gt;Node4 -->
<g id="edge3" class="edge">
<title>Node1&#45;&gt;Node4</title>
<path fill="none" stroke="midnightblue" d="M33.06,-228.55C41.06,-248.96 62.21,-297.47 93,-328 98.84,-333.8 106.37,-338.67 113.43,-342.48"/>
</g>
<!-- Node7 -->
<g id="node5" class="node">
<title>Node7</title>
<g id="a_node5"><a xlink:href="structVectorPos.html#a63e862a389b3548bc5b4aedabd94540b" target="_top" xlink:title=" ">
<polygon fill="white" stroke="black" points="221.5,-133.5 221.5,-152.5 305.5,-152.5 305.5,-133.5 221.5,-133.5"/>
<text text-anchor="middle" x="263.5" y="-140.5" font-family="Helvetica,sans-Serif" font-size="10.00">VectorPos::lat</text>
</a>
</g>
</g>
<!-- Node1&#45;&gt;Node7 -->
<g id="edge5" class="edge">
<title>Node1&#45;&gt;Node7</title>
<path fill="none" stroke="midnightblue" d="M41.23,-228.71C53.34,-238.05 73.19,-251.52 93,-257 129.84,-267.18 146.7,-277.44 179,-257 210.58,-237.01 191.81,-210.31 215,-181 223.91,-169.74 236.76,-159.71 246.85,-152.8"/>
</g>
<!-- Node8 -->
<g id="node6" class="node">
<title>Node8</title>
<g id="a_node6"><a xlink:href="structVectorPos.html#ab7ade23bd200ec4145eb389b58737dee" target="_top" xlink:title=" ">
<polygon fill="white" stroke="black" points="220.5,-190.5 220.5,-209.5 306.5,-209.5 306.5,-190.5 220.5,-190.5"/>
<text text-anchor="middle" x="263.5" y="-197.5" font-family="Helvetica,sans-Serif" font-size="10.00">VectorPos::lon</text>
</a>
</g>
</g>
<!-- Node1&#45;&gt;Node8 -->
<g id="edge6" class="edge">
<title>Node1&#45;&gt;Node8</title>
<path fill="none" stroke="midnightblue" d="M41.23,-228.71C53.34,-238.05 73.19,-251.52 93,-257 129.84,-267.18 142.48,-268.28 179,-257 209.19,-247.68 238.2,-223.29 252.77,-209.62"/>
</g>
<!-- Node9 -->
<g id="node7" class="node">
<title>Node9</title>
<g id="a_node7"><a xlink:href="coordinates_8cpp.html#a8473fa1efe21e24084f708ed9e9df38e" target="_top" xlink:title=" ">
<polygon fill="white" stroke="black" points="107,-228.5 107,-247.5 165,-247.5 165,-228.5 107,-228.5"/>
<text text-anchor="middle" x="136" y="-235.5" font-family="Helvetica,sans-Serif" font-size="10.00">pos2enu</text>
</a>
</g>
</g>
<!-- Node1&#45;&gt;Node9 -->
<g id="edge7" class="edge">
<title>Node1&#45;&gt;Node9</title>
<path fill="none" stroke="midnightblue" d="M57.22,-223.99C72.48,-226.74 91.38,-230.14 106.73,-232.91"/>
</g>
<!-- Node10 -->
<g id="node8" class="node">
<title>Node10</title>
<g id="a_node8"><a xlink:href="structSofa.html#a3668c9368947f097705078736820f5e1" target="_top" xlink:title=" ">
<polygon fill="white" stroke="black" points="93,-190.5 93,-209.5 179,-209.5 179,-190.5 93,-190.5"/>
<text text-anchor="middle" x="136" y="-197.5" font-family="Helvetica,sans-Serif" font-size="10.00">Sofa::iauGmst</text>
</a>
</g>
</g>
<!-- Node1&#45;&gt;Node10 -->
<g id="edge10" class="edge">
<title>Node1&#45;&gt;Node10</title>
<path fill="none" stroke="midnightblue" d="M57.22,-214.01C68.09,-212.05 80.8,-209.76 92.76,-207.61"/>
</g>
<!-- Node11 -->
<g id="node9" class="node">
<title>Node11</title>
<g id="a_node9"><a xlink:href="planets_8cpp.html#afa5d7098a27c088c2dae5e00aced234b" target="_top" xlink:title=" ">
<polygon fill="white" stroke="red" points="93,-152.5 93,-171.5 179,-171.5 179,-152.5 93,-152.5"/>
<text text-anchor="middle" x="136" y="-159.5" font-family="Helvetica,sans-Serif" font-size="10.00">planetPosEcef</text>
</a>
</g>
</g>
<!-- Node1&#45;&gt;Node11 -->
<g id="edge11" class="edge">
<title>Node1&#45;&gt;Node11</title>
<path fill="none" stroke="midnightblue" d="M44.36,-209.45C57.06,-201.44 75.92,-189.93 93,-181 99.24,-177.74 106.15,-174.47 112.54,-171.59"/>
</g>
<!-- Node16 -->
<g id="node10" class="node">
<title>Node16</title>
<g id="a_node10"><a xlink:href="tides_8cpp.html#a85f3be20e706304a800fb1ebfd533807" target="_top" xlink:title=" ">
<polygon fill="white" stroke="red" points="106.5,-114.5 106.5,-133.5 165.5,-133.5 165.5,-114.5 106.5,-114.5"/>
<text text-anchor="middle" x="136" y="-121.5" font-family="Helvetica,sans-Serif" font-size="10.00">tideSolid</text>
</a>
</g>
</g>
<!-- Node1&#45;&gt;Node16 -->
<g id="edge12" class="edge">
<title>Node1&#45;&gt;Node16</title>
<path fill="none" stroke="midnightblue" d="M35.44,-209.4C45.55,-193.7 67.54,-162.35 93,-143 97.84,-139.32 103.51,-136.15 109.09,-133.51"/>
</g>
<!-- Node18 -->
<g id="node11" class="node">
<title>Node18</title>
<g id="a_node11"><a xlink:href="tides_8cpp.html#aca43b89f0f4ce5903fe3cff30dce1f39" target="_top" xlink:title=" ">
<polygon fill="white" stroke="red" points="103,-76.5 103,-95.5 169,-95.5 169,-76.5 103,-76.5"/>
<text text-anchor="middle" x="136" y="-83.5" font-family="Helvetica,sans-Serif" font-size="10.00">tideOLoad</text>
</a>
</g>
</g>
<!-- Node1&#45;&gt;Node18 -->
<g id="edge15" class="edge">
<title>Node1&#45;&gt;Node18</title>
<path fill="none" stroke="midnightblue" d="M32.5,-209.43C39.65,-188 59.65,-135.68 93,-105 97.12,-101.21 102.13,-98.07 107.23,-95.51"/>
</g>
<!-- Node21 -->
<g id="node12" class="node">
<title>Node21</title>
<g id="a_node12"><a xlink:href="algebra__old_8cpp.html#adc33998911a24938042604ba1f8e6196" target="_top" xlink:title=" ">
<polygon fill="white" stroke="black" points="108.5,-38.5 108.5,-57.5 163.5,-57.5 163.5,-38.5 108.5,-38.5"/>
<text text-anchor="middle" x="136" y="-45.5" font-family="Helvetica,sans-Serif" font-size="10.00">matmul</text>
</a>
</g>
</g>
<!-- Node1&#45;&gt;Node21 -->
<g id="edge16" class="edge">
<title>Node1&#45;&gt;Node21</title>
<path fill="none" stroke="midnightblue" d="M30.99,-209.47C35.54,-183.35 51.55,-109.67 93,-67 97.24,-62.64 102.66,-59.19 108.19,-56.5"/>
</g>
<!-- Node22 -->
<g id="node13" class="node">
<title>Node22</title>
<g id="a_node13"><a xlink:href="tides_8cpp.html#a0383248cb47807dcdd596908e0b280ba" target="_top" xlink:title=" ">
<polygon fill="white" stroke="red" points="108,-0.5 108,-19.5 164,-19.5 164,-0.5 108,-0.5"/>
<text text-anchor="middle" x="136" y="-7.5" font-family="Helvetica,sans-Serif" font-size="10.00">tidePole</text>
</a>
</g>
</g>
<!-- Node1&#45;&gt;Node22 -->
<g id="edge17" class="edge">
<title>Node1&#45;&gt;Node22</title>
<path fill="none" stroke="midnightblue" d="M30.07,-209.37C32.37,-179.01 43.36,-83.99 93,-29 97.08,-24.48 102.43,-20.98 107.95,-18.27"/>
</g>
<!-- Node4&#45;&gt;Node2 -->
<g id="edge4" class="edge">
<title>Node4&#45;&gt;Node2</title>
<path fill="none" stroke="midnightblue" d="M160.02,-358.97C179.97,-365.01 209.04,-373.81 231.12,-380.5"/>
</g>
<!-- Node9&#45;&gt;Node7 -->
<g id="edge8" class="edge">
<title>Node9&#45;&gt;Node7</title>
<path fill="none" stroke="midnightblue" d="M162.3,-228.47C168.03,-225.8 173.91,-222.62 179,-219 197.95,-205.51 197.88,-196.75 215,-181 226.19,-170.71 239.82,-159.97 249.61,-152.54"/>
</g>
<!-- Node9&#45;&gt;Node8 -->
<g id="edge9" class="edge">
<title>Node9&#45;&gt;Node8</title>
<path fill="none" stroke="midnightblue" d="M165.16,-229.47C184.68,-223.56 210.68,-215.69 230.9,-209.57"/>
</g>
<!-- Node16&#45;&gt;Node7 -->
<g id="edge13" class="edge">
<title>Node16&#45;&gt;Node7</title>
<path fill="none" stroke="midnightblue" d="M165.79,-128.36C182.29,-130.86 203.27,-134.03 221.47,-136.79"/>
</g>
<!-- Node16&#45;&gt;Node8 -->
<g id="edge14" class="edge">
<title>Node16&#45;&gt;Node8</title>
<path fill="none" stroke="midnightblue" d="M160.03,-133.55C166.29,-136.38 173,-139.63 179,-143 205.32,-157.79 233.97,-178.44 249.93,-190.39"/>
</g>
<!-- Node22&#45;&gt;Node7 -->
<g id="edge19" class="edge">
<title>Node22&#45;&gt;Node7</title>
<path fill="none" stroke="midnightblue" d="M163.97,-19.71C169.25,-22.28 174.53,-25.37 179,-29 217.1,-59.92 246.63,-112.11 257.73,-133.46"/>
</g>
<!-- Node22&#45;&gt;Node8 -->
<g id="edge18" class="edge">
<title>Node22&#45;&gt;Node8</title>
<path fill="none" stroke="midnightblue" d="M164.25,-18.1C169.75,-20.81 175.06,-24.37 179,-29 218.69,-75.63 181.43,-110.78 215,-162 222.76,-173.84 235.41,-183.69 245.7,-190.4"/>
</g>
</g>
</svg>
