<?xml version="1.0" encoding="UTF-8" standalone="no"?>
<!DOCTYPE svg PUBLIC "-//W3C//DTD SVG 1.1//EN"
 "http://www.w3.org/Graphics/SVG/1.1/DTD/svg11.dtd">
<!-- Generated by graphviz version 2.43.0 (0)
 -->
<!-- Title: tideSolidEarth Pages: 1 -->
<svg width="368pt" height="275pt"
 viewBox="0.00 0.00 368.00 275.04" xmlns="http://www.w3.org/2000/svg" xmlns:xlink="http://www.w3.org/1999/xlink">
<g id="graph0" class="graph" transform="scale(1 1) rotate(0) translate(4 271.04)">
<title>tideSolidEarth</title>
<polygon fill="white" stroke="transparent" points="-4,4 -4,-271.04 364,-271.04 364,4 -4,4"/>
<!-- Node1 -->
<g id="node1" class="node">
<title>Node1</title>
<g id="a_node1"><a xlink:title="Displacement by solid Earth tide See ref [1] 7.1.1 Note: permanent deformation not removed,...">
<polygon fill="#bfbfbf" stroke="black" points="0,-117.54 0,-136.54 85,-136.54 85,-117.54 0,-117.54"/>
<text text-anchor="middle" x="42.5" y="-124.54" font-family="Helvetica,sans-Serif" font-size="10.00">tideSolidEarth</text>
</a>
</g>
</g>
<!-- Node2 -->
<g id="node2" class="node">
<title>Node2</title>
<g id="a_node2"><a xlink:href="trace_8hpp.html#a984a9b0c40d65d46f2c73a021a7b7de3" target="_top" xlink:title=" ">
<polygon fill="white" stroke="black" points="272,-247.54 272,-266.54 343,-266.54 343,-247.54 272,-247.54"/>
<text text-anchor="middle" x="307.5" y="-254.54" font-family="Helvetica,sans-Serif" font-size="10.00">tracepdeex</text>
</a>
</g>
</g>
<!-- Node1&#45;&gt;Node2 -->
<g id="edge1" class="edge">
<title>Node1&#45;&gt;Node2</title>
<path fill="none" stroke="midnightblue" d="M49.95,-136.67C61.89,-153.74 89.15,-189.26 121,-208.04 164.85,-233.91 222.46,-246.35 261.77,-252.19"/>
<polygon fill="midnightblue" stroke="midnightblue" points="261.46,-255.68 271.85,-253.6 262.43,-248.74 261.46,-255.68"/>
</g>
<!-- Node3 -->
<g id="node3" class="node">
<title>Node3</title>
<g id="a_node3"><a xlink:href="structVectorPos.html#ae607eb1f43de3cf1aaa024c2fdabc514" target="_top" xlink:title=" ">
<polygon fill="white" stroke="black" points="256,-207.54 256,-226.54 359,-226.54 359,-207.54 256,-207.54"/>
<text text-anchor="middle" x="307.5" y="-214.54" font-family="Helvetica,sans-Serif" font-size="10.00">VectorPos::latDeg</text>
</a>
</g>
</g>
<!-- Node1&#45;&gt;Node3 -->
<g id="edge2" class="edge">
<title>Node1&#45;&gt;Node3</title>
<path fill="none" stroke="midnightblue" d="M54.13,-136.9C68.27,-149.44 94.58,-170.82 121,-182.04 160.7,-198.92 208.62,-207.69 245.8,-212.23"/>
<polygon fill="midnightblue" stroke="midnightblue" points="245.66,-215.74 255.99,-213.41 246.46,-208.79 245.66,-215.74"/>
</g>
<!-- Node4 -->
<g id="node4" class="node">
<title>Node4</title>
<g id="a_node4"><a xlink:href="structVectorPos.html#aa693d5a52133cfb55040b768c6175bae" target="_top" xlink:title=" ">
<polygon fill="white" stroke="black" points="255,-150.54 255,-169.54 360,-169.54 360,-150.54 255,-150.54"/>
<text text-anchor="middle" x="307.5" y="-157.54" font-family="Helvetica,sans-Serif" font-size="10.00">VectorPos::lonDeg</text>
</a>
</g>
</g>
<!-- Node1&#45;&gt;Node4 -->
<g id="edge3" class="edge">
<title>Node1&#45;&gt;Node4</title>
<path fill="none" stroke="midnightblue" d="M57.89,-136.61C72.9,-145.97 97.5,-159.59 121,-165.04 161.45,-174.43 208.19,-173.1 244.63,-169.46"/>
<polygon fill="midnightblue" stroke="midnightblue" points="245.05,-172.93 254.62,-168.38 244.3,-165.97 245.05,-172.93"/>
</g>
<!-- Node5 -->
<g id="node5" class="node">
<title>Node5</title>
<g id="a_node5"><a xlink:href="coordinates_8cpp.html#a8473fa1efe21e24084f708ed9e9df38e" target="_top" xlink:title=" ">
<polygon fill="white" stroke="black" points="141,-136.54 141,-155.54 199,-155.54 199,-136.54 141,-136.54"/>
<text text-anchor="middle" x="170" y="-143.54" font-family="Helvetica,sans-Serif" font-size="10.00">pos2enu</text>
</a>
</g>
</g>
<!-- Node1&#45;&gt;Node5 -->
<g id="edge4" class="edge">
<title>Node1&#45;&gt;Node5</title>
<path fill="none" stroke="midnightblue" d="M85.29,-133.37C99.98,-135.6 116.4,-138.08 130.78,-140.26"/>
<polygon fill="midnightblue" stroke="midnightblue" points="130.42,-143.74 140.84,-141.78 131.47,-136.82 130.42,-143.74"/>
</g>
<!-- Node6 -->
<g id="node6" class="node">
<title>Node6</title>
<g id="a_node6"><a xlink:href="structVectorPos.html#a63e862a389b3548bc5b4aedabd94540b" target="_top" xlink:title=" ">
<polygon fill="white" stroke="black" points="266,-103.54 266,-122.54 349,-122.54 349,-103.54 266,-103.54"/>
<text text-anchor="middle" x="307.5" y="-110.54" font-family="Helvetica,sans-Serif" font-size="10.00">VectorPos::lat</text>
</a>
</g>
</g>
<!-- Node1&#45;&gt;Node6 -->
<g id="edge13" class="edge">
<title>Node1&#45;&gt;Node6</title>
<path fill="none" stroke="midnightblue" d="M57.89,-117.48C72.9,-108.12 97.5,-94.5 121,-89.04 171.6,-77.31 231.39,-89.61 269.13,-100.49"/>
<polygon fill="midnightblue" stroke="midnightblue" points="268.58,-103.98 279.17,-103.5 270.59,-97.27 268.58,-103.98"/>
</g>
<!-- Node7 -->
<g id="node7" class="node">
<title>Node7</title>
<g id="a_node7"><a xlink:href="structVectorPos.html#ab7ade23bd200ec4145eb389b58737dee" target="_top" xlink:title=" ">
<polygon fill="white" stroke="black" points="264.5,-65.54 264.5,-84.54 350.5,-84.54 350.5,-65.54 264.5,-65.54"/>
<text text-anchor="middle" x="307.5" y="-72.54" font-family="Helvetica,sans-Serif" font-size="10.00">VectorPos::lon</text>
</a>
</g>
</g>
<!-- Node1&#45;&gt;Node7 -->
<g id="edge15" class="edge">
<title>Node1&#45;&gt;Node7</title>
<path fill="none" stroke="midnightblue" d="M46.57,-117.33C54.49,-94.14 78.06,-35.77 121,-13.04 159.49,7.33 177.5,0.17 219,-13.04 246.5,-21.8 272.77,-42.68 289.22,-57.79"/>
<polygon fill="midnightblue" stroke="midnightblue" points="287.23,-60.72 296.89,-65.07 292.05,-55.65 287.23,-60.72"/>
</g>
<!-- Node8 -->
<g id="node8" class="node">
<title>Node8</title>
<g id="a_node8"><a xlink:href="tides_8cpp.html#ab44d5c92785ffe1d1628108425405b23" target="_top" xlink:title="Step 1 of solid Earth tide computation: Corrections to be computed in the time domain (solar/lunar ti...">
<polygon fill="white" stroke="black" points="121,-98.54 121,-117.54 219,-117.54 219,-98.54 121,-98.54"/>
<text text-anchor="middle" x="170" y="-105.54" font-family="Helvetica,sans-Serif" font-size="10.00">tideTimeDomain</text>
</a>
</g>
</g>
<!-- Node1&#45;&gt;Node8 -->
<g id="edge7" class="edge">
<title>Node1&#45;&gt;Node8</title>
<path fill="none" stroke="midnightblue" d="M85.29,-120.72C93.49,-119.48 102.23,-118.15 110.85,-116.85"/>
<polygon fill="midnightblue" stroke="midnightblue" points="111.52,-120.29 120.88,-115.33 110.47,-113.37 111.52,-120.29"/>
</g>
<!-- Node9 -->
<g id="node9" class="node">
<title>Node9</title>
<g id="a_node9"><a xlink:href="structSofa.html#a3668c9368947f097705078736820f5e1" target="_top" xlink:title=" ">
<polygon fill="white" stroke="black" points="127,-22.54 127,-41.54 213,-41.54 213,-22.54 127,-22.54"/>
<text text-anchor="middle" x="170" y="-29.54" font-family="Helvetica,sans-Serif" font-size="10.00">Sofa::iauGmst</text>
</a>
</g>
</g>
<!-- Node1&#45;&gt;Node9 -->
<g id="edge14" class="edge">
<title>Node1&#45;&gt;Node9</title>
<path fill="none" stroke="midnightblue" d="M52.32,-117.4C66.01,-102.81 93.64,-74.87 121,-56.04 126.11,-52.53 131.82,-49.21 137.46,-46.24"/>
<polygon fill="midnightblue" stroke="midnightblue" points="139.4,-49.18 146.77,-41.57 136.26,-42.92 139.4,-49.18"/>
</g>
<!-- Node5&#45;&gt;Node6 -->
<g id="edge5" class="edge">
<title>Node5&#45;&gt;Node6</title>
<path fill="none" stroke="midnightblue" d="M199.08,-139.21C215.99,-135.09 237.99,-129.73 257.67,-124.94"/>
<polygon fill="midnightblue" stroke="midnightblue" points="258.53,-128.33 267.41,-122.56 256.87,-121.53 258.53,-128.33"/>
</g>
<!-- Node5&#45;&gt;Node7 -->
<g id="edge6" class="edge">
<title>Node5&#45;&gt;Node7</title>
<path fill="none" stroke="midnightblue" d="M199.25,-136.85C205.96,-134.13 212.92,-130.85 219,-127.04 237.4,-115.53 236.47,-105.35 255,-94.04 258.2,-92.09 261.63,-90.29 265.15,-88.64"/>
<polygon fill="midnightblue" stroke="midnightblue" points="266.73,-91.78 274.55,-84.63 263.98,-85.34 266.73,-91.78"/>
</g>
<!-- Node8&#45;&gt;Node2 -->
<g id="edge8" class="edge">
<title>Node8&#45;&gt;Node2</title>
<path fill="none" stroke="midnightblue" d="M206.32,-117.78C211.02,-120.22 215.43,-123.26 219,-127.04 254.02,-164.15 220.18,-198.76 255,-236.04 257.31,-238.51 259.95,-240.7 262.78,-242.64"/>
<polygon fill="midnightblue" stroke="midnightblue" points="261.33,-245.83 271.75,-247.72 264.78,-239.74 261.33,-245.83"/>
</g>
<!-- Node8&#45;&gt;Node3 -->
<g id="edge9" class="edge">
<title>Node8&#45;&gt;Node3</title>
<path fill="none" stroke="midnightblue" d="M202.92,-117.6C208.6,-120.14 214.23,-123.25 219,-127.04 241.01,-144.52 235.43,-158.87 255,-179.04 263.09,-187.38 273.17,-195.25 282.25,-201.64"/>
<polygon fill="midnightblue" stroke="midnightblue" points="280.33,-204.56 290.57,-207.28 284.26,-198.77 280.33,-204.56"/>
</g>
<!-- Node8&#45;&gt;Node4 -->
<g id="edge10" class="edge">
<title>Node8&#45;&gt;Node4</title>
<path fill="none" stroke="midnightblue" d="M195.85,-117.58C217.21,-125.78 248.22,-137.68 271.98,-146.8"/>
<polygon fill="midnightblue" stroke="midnightblue" points="270.76,-150.08 281.35,-150.39 273.26,-143.54 270.76,-150.08"/>
</g>
<!-- Node8&#45;&gt;Node6 -->
<g id="edge11" class="edge">
<title>Node8&#45;&gt;Node6</title>
<path fill="none" stroke="midnightblue" d="M219.15,-109.82C230.92,-110.26 243.55,-110.72 255.45,-111.16"/>
<polygon fill="midnightblue" stroke="midnightblue" points="255.55,-114.67 265.67,-111.54 255.81,-107.67 255.55,-114.67"/>
</g>
<!-- Node8&#45;&gt;Node7 -->
<g id="edge12" class="edge">
<title>Node8&#45;&gt;Node7</title>
<path fill="none" stroke="midnightblue" d="M210.19,-98.5C224.94,-94.91 241.9,-90.78 257.43,-87"/>
<polygon fill="midnightblue" stroke="midnightblue" points="258.51,-90.34 267.4,-84.57 256.85,-83.53 258.51,-90.34"/>
</g>
</g>
</svg>
