<?xml version="1.0" encoding="UTF-8" standalone="no"?>
<!DOCTYPE svg PUBLIC "-//W3C//DTD SVG 1.1//EN"
 "http://www.w3.org/Graphics/SVG/1.1/DTD/svg11.dtd">
<!-- Generated by graphviz version 2.43.0 (0)
 -->
<!-- Title: tideOceanLoadHardisp Pages: 1 -->
<svg width="255pt" height="66pt"
 viewBox="0.00 0.00 255.00 66.00" xmlns="http://www.w3.org/2000/svg" xmlns:xlink="http://www.w3.org/1999/xlink">
<g id="graph0" class="graph" transform="scale(1 1) rotate(0) translate(4 62)">
<title>tideOceanLoadHardisp</title>
<polygon fill="white" stroke="transparent" points="-4,4 -4,-62 251,-62 251,4 -4,4"/>
<!-- Node1 -->
<g id="node1" class="node">
<title>Node1</title>
<g id="a_node1"><a xlink:title="Displacement by ocean tide loading with HARDISP See ref [1] 7.1.2, [5], [7].">
<polygon fill="#bfbfbf" stroke="black" points="120,-19.5 120,-38.5 247,-38.5 247,-19.5 120,-19.5"/>
<text text-anchor="middle" x="183.5" y="-26.5" font-family="Helvetica,sans-Serif" font-size="10.00">tideOceanLoadHardisp</text>
</a>
</g>
</g>
<!-- Node2 -->
<g id="node2" class="node">
<title>Node2</title>
<g id="a_node2"><a xlink:href="debug_8cpp.html#a561256d9ead53db67f481d3bf5c19ca7" target="_top" xlink:title=" ">
<polygon fill="white" stroke="black" points="0,-38.5 0,-57.5 84,-57.5 84,-38.5 0,-38.5"/>
<text text-anchor="middle" x="42" y="-45.5" font-family="Helvetica,sans-Serif" font-size="10.00">debugHardisp</text>
</a>
</g>
</g>
<!-- Node1&#45;&gt;Node2 -->
<g id="edge1" class="edge">
<title>Node1&#45;&gt;Node2</title>
<path fill="none" stroke="midnightblue" d="M109.52,-38.94C100.87,-40.12 92.27,-41.29 84.28,-42.38"/>
<polygon fill="midnightblue" stroke="midnightblue" points="110.25,-42.37 119.69,-37.56 109.31,-35.44 110.25,-42.37"/>
</g>
<!-- Node3 -->
<g id="node3" class="node">
<title>Node3</title>
<g id="a_node3"><a xlink:href="tides_8cpp.html#a1ca38a143043c722f3b7af0326f8e2f0" target="_top" xlink:title=" ">
<polygon fill="white" stroke="red" points="13.5,-0.5 13.5,-19.5 70.5,-19.5 70.5,-0.5 13.5,-0.5"/>
<text text-anchor="middle" x="42" y="-7.5" font-family="Helvetica,sans-Serif" font-size="10.00">tideDisp</text>
</a>
</g>
</g>
<!-- Node1&#45;&gt;Node3 -->
<g id="edge2" class="edge">
<title>Node1&#45;&gt;Node3</title>
<path fill="none" stroke="midnightblue" d="M109.57,-19.07C95.67,-17.17 81.94,-15.3 70.59,-13.76"/>
<polygon fill="midnightblue" stroke="midnightblue" points="109.31,-22.56 119.69,-20.44 110.25,-15.63 109.31,-22.56"/>
</g>
</g>
</svg>
