<?xml version="1.0" encoding="UTF-8" standalone="no"?>
<!DOCTYPE svg PUBLIC "-//W3C//DTD SVG 1.1//EN"
 "http://www.w3.org/Graphics/SVG/1.1/DTD/svg11.dtd">
<!-- Generated by graphviz version 2.43.0 (0)
 -->
<!-- Title: tideAtmosLoad Pages: 1 -->
<svg width="233pt" height="66pt"
 viewBox="0.00 0.00 233.00 66.00" xmlns="http://www.w3.org/2000/svg" xmlns:xlink="http://www.w3.org/1999/xlink">
<g id="graph0" class="graph" transform="scale(1 1) rotate(0) translate(4 62)">
<title>tideAtmosLoad</title>
<polygon fill="white" stroke="transparent" points="-4,4 -4,-62 229,-62 229,4 -4,4"/>
<!-- Node1 -->
<g id="node1" class="node">
<title>Node1</title>
<g id="a_node1"><a xlink:title="Displacement by atmospheric tide loading See ref [1] 7.1.3.">
<polygon fill="#bfbfbf" stroke="black" points="135,-19.5 135,-38.5 225,-38.5 225,-19.5 135,-19.5"/>
<text text-anchor="middle" x="180" y="-26.5" font-family="Helvetica,sans-Serif" font-size="10.00">tideAtmosLoad</text>
</a>
</g>
</g>
<!-- Node2 -->
<g id="node2" class="node">
<title>Node2</title>
<g id="a_node2"><a xlink:href="debug_8cpp.html#a321dc270c343abb0651a7dae8016073f" target="_top" xlink:title=" ">
<polygon fill="white" stroke="black" points="0,-38.5 0,-57.5 99,-57.5 99,-38.5 0,-38.5"/>
<text text-anchor="middle" x="49.5" y="-45.5" font-family="Helvetica,sans-Serif" font-size="10.00">debugTideAtmos</text>
</a>
</g>
</g>
<!-- Node1&#45;&gt;Node2 -->
<g id="edge1" class="edge">
<title>Node1&#45;&gt;Node2</title>
<path fill="none" stroke="midnightblue" d="M124.63,-37.04C116.19,-38.29 107.51,-39.57 99.2,-40.8"/>
<polygon fill="midnightblue" stroke="midnightblue" points="125.4,-40.46 134.78,-35.54 124.37,-33.54 125.4,-40.46"/>
</g>
<!-- Node3 -->
<g id="node3" class="node">
<title>Node3</title>
<g id="a_node3"><a xlink:href="tides_8cpp.html#a1ca38a143043c722f3b7af0326f8e2f0" target="_top" xlink:title=" ">
<polygon fill="white" stroke="red" points="21,-0.5 21,-19.5 78,-19.5 78,-0.5 21,-0.5"/>
<text text-anchor="middle" x="49.5" y="-7.5" font-family="Helvetica,sans-Serif" font-size="10.00">tideDisp</text>
</a>
</g>
</g>
<!-- Node1&#45;&gt;Node3 -->
<g id="edge2" class="edge">
<title>Node1&#45;&gt;Node3</title>
<path fill="none" stroke="midnightblue" d="M124.48,-20.94C108.56,-18.59 91.83,-16.11 78.32,-14.11"/>
<polygon fill="midnightblue" stroke="midnightblue" points="124.37,-24.46 134.78,-22.46 125.4,-17.54 124.37,-24.46"/>
</g>
</g>
</svg>
