<?xml version="1.0" encoding="UTF-8" standalone="no"?>
<!DOCTYPE svg PUBLIC "-//W3C//DTD SVG 1.1//EN"
 "http://www.w3.org/Graphics/SVG/1.1/DTD/svg11.dtd">
<!-- Generated by graphviz version 2.43.0 (0)
 -->
<!-- Title: traceFormatedFloat Pages: 1 -->
<svg width="278pt" height="218pt"
 viewBox="0.00 0.00 278.00 218.00" xmlns="http://www.w3.org/2000/svg" xmlns:xlink="http://www.w3.org/1999/xlink">
<g id="graph0" class="graph" transform="scale(1 1) rotate(0) translate(4 214)">
<title>traceFormatedFloat</title>
<polygon fill="white" stroke="transparent" points="-4,4 -4,-214 274,-214 274,4 -4,4"/>
<!-- Node1 -->
<g id="node1" class="node">
<title>Node1</title>
<g id="a_node1"><a xlink:title=" ">
<polygon fill="#bfbfbf" stroke="black" points="157,-95.5 157,-114.5 270,-114.5 270,-95.5 157,-95.5"/>
<text text-anchor="middle" x="213.5" y="-102.5" font-family="Helvetica,sans-Serif" font-size="10.00">traceFormatedFloat</text>
</a>
</g>
</g>
<!-- Node2 -->
<g id="node2" class="node">
<title>Node2</title>
<g id="a_node2"><a xlink:href="rinexNavWrite_8cpp.html#af49aa619a891c6d00f32ac721ab01cd0" target="_top" xlink:title=" ">
<polygon fill="white" stroke="red" points="4,-190.5 4,-209.5 117,-209.5 117,-190.5 4,-190.5"/>
<text text-anchor="middle" x="60.5" y="-197.5" font-family="Helvetica,sans-Serif" font-size="10.00">outputNavRinexEph</text>
</a>
</g>
</g>
<!-- Node1&#45;&gt;Node2 -->
<g id="edge1" class="edge">
<title>Node1&#45;&gt;Node2</title>
<path fill="none" stroke="midnightblue" d="M203.52,-114.54C188.08,-130.45 154.87,-162.45 121,-181 114.15,-184.75 106.45,-187.89 98.92,-190.48"/>
</g>
<!-- Node10 -->
<g id="node3" class="node">
<title>Node10</title>
<g id="a_node3"><a xlink:href="rinexNavWrite_8cpp.html#a46fd4ea12d70dbba01d33413b01d175f" target="_top" xlink:title=" ">
<polygon fill="white" stroke="red" points="0,-152.5 0,-171.5 121,-171.5 121,-152.5 0,-152.5"/>
<text text-anchor="middle" x="60.5" y="-159.5" font-family="Helvetica,sans-Serif" font-size="10.00">outputNavRinexGeph</text>
</a>
</g>
</g>
<!-- Node1&#45;&gt;Node10 -->
<g id="edge2" class="edge">
<title>Node1&#45;&gt;Node10</title>
<path fill="none" stroke="midnightblue" d="M190.89,-114.58C172.48,-122.6 145.22,-134.12 121,-143 112.04,-146.28 102.21,-149.56 93.17,-152.44"/>
</g>
<!-- Node11 -->
<g id="node4" class="node">
<title>Node11</title>
<g id="a_node4"><a xlink:href="rinexNavWrite_8cpp.html#a751a48d904460a987ac675171d6d9239" target="_top" xlink:title=" ">
<polygon fill="white" stroke="red" points="0.5,-114.5 0.5,-133.5 120.5,-133.5 120.5,-114.5 0.5,-114.5"/>
<text text-anchor="middle" x="60.5" y="-121.5" font-family="Helvetica,sans-Serif" font-size="10.00">outputNavRinexCeph</text>
</a>
</g>
</g>
<!-- Node1&#45;&gt;Node11 -->
<g id="edge3" class="edge">
<title>Node1&#45;&gt;Node11</title>
<path fill="none" stroke="midnightblue" d="M156.7,-112.02C144.94,-113.5 132.49,-115.07 120.61,-116.56"/>
</g>
<!-- Node12 -->
<g id="node5" class="node">
<title>Node12</title>
<g id="a_node5"><a xlink:href="rinexNavWrite_8cpp.html#a44ce18e58314bf68508dc220c1e807cc" target="_top" xlink:title=" ">
<polygon fill="white" stroke="red" points="3,-76.5 3,-95.5 118,-95.5 118,-76.5 3,-76.5"/>
<text text-anchor="middle" x="60.5" y="-83.5" font-family="Helvetica,sans-Serif" font-size="10.00">outputNavRinexEOP</text>
</a>
</g>
</g>
<!-- Node1&#45;&gt;Node12 -->
<g id="edge4" class="edge">
<title>Node1&#45;&gt;Node12</title>
<path fill="none" stroke="midnightblue" d="M156.7,-97.98C144.1,-96.39 130.71,-94.71 118.08,-93.12"/>
</g>
<!-- Node13 -->
<g id="node6" class="node">
<title>Node13</title>
<g id="a_node6"><a xlink:href="rinexNavWrite_8cpp.html#aa67df0b1827f3ff1c4da263aed385531" target="_top" xlink:title=" ">
<polygon fill="white" stroke="red" points="4,-38.5 4,-57.5 117,-57.5 117,-38.5 4,-38.5"/>
<text text-anchor="middle" x="60.5" y="-45.5" font-family="Helvetica,sans-Serif" font-size="10.00">outputNavRinexION</text>
</a>
</g>
</g>
<!-- Node1&#45;&gt;Node13 -->
<g id="edge5" class="edge">
<title>Node1&#45;&gt;Node13</title>
<path fill="none" stroke="midnightblue" d="M190.89,-95.42C172.48,-87.4 145.22,-75.88 121,-67 112.04,-63.72 102.21,-60.44 93.17,-57.56"/>
</g>
<!-- Node14 -->
<g id="node7" class="node">
<title>Node14</title>
<g id="a_node7"><a xlink:href="rinexNavWrite_8cpp.html#a1f47486483dce4060d409ab0a0e43698" target="_top" xlink:title=" ">
<polygon fill="white" stroke="red" points="3,-0.5 3,-19.5 118,-19.5 118,-0.5 3,-0.5"/>
<text text-anchor="middle" x="60.5" y="-7.5" font-family="Helvetica,sans-Serif" font-size="10.00">outputNavRinexSTO</text>
</a>
</g>
</g>
<!-- Node1&#45;&gt;Node14 -->
<g id="edge6" class="edge">
<title>Node1&#45;&gt;Node14</title>
<path fill="none" stroke="midnightblue" d="M203.52,-95.46C188.08,-79.55 154.87,-47.55 121,-29 114.15,-25.25 106.45,-22.11 98.92,-19.52"/>
</g>
</g>
</svg>
