<?xml version="1.0" encoding="UTF-8" standalone="no"?>
<!DOCTYPE svg PUBLIC "-//W3C//DTD SVG 1.1//EN"
 "http://www.w3.org/Graphics/SVG/1.1/DTD/svg11.dtd">
<!-- Generated by graphviz version 2.43.0 (0)
 -->
<!-- Title: writeTropSiteId Pages: 1 -->
<svg width="248pt" height="142pt"
 viewBox="0.00 0.00 248.00 142.00" xmlns="http://www.w3.org/2000/svg" xmlns:xlink="http://www.w3.org/1999/xlink">
<g id="graph0" class="graph" transform="scale(1 1) rotate(0) translate(4 138)">
<title>writeTropSiteId</title>
<polygon fill="white" stroke="transparent" points="-4,4 -4,-138 244,-138 244,4 -4,4"/>
<!-- Node1 -->
<g id="node1" class="node">
<title>Node1</title>
<g id="a_node1"><a xlink:title="Write SITE/ID block.">
<polygon fill="#bfbfbf" stroke="black" points="0,-57.5 0,-76.5 89,-76.5 89,-57.5 0,-57.5"/>
<text text-anchor="middle" x="44.5" y="-64.5" font-family="Helvetica,sans-Serif" font-size="10.00">writeTropSiteId</text>
</a>
</g>
</g>
<!-- Node2 -->
<g id="node2" class="node">
<title>Node2</title>
<g id="a_node2"><a xlink:href="sinex_8cpp.html#a35435dacdc5df53aa3357b64931ae2d6" target="_top" xlink:title=" ">
<polygon fill="white" stroke="black" points="125,-114.5 125,-133.5 240,-133.5 240,-114.5 125,-114.5"/>
<text text-anchor="middle" x="182.5" y="-121.5" font-family="Helvetica,sans-Serif" font-size="10.00">write_as_comments</text>
</a>
</g>
</g>
<!-- Node1&#45;&gt;Node2 -->
<g id="edge1" class="edge">
<title>Node1&#45;&gt;Node2</title>
<path fill="none" stroke="midnightblue" d="M63.85,-76.55C79.78,-84.66 103.59,-96.32 125,-105 133.25,-108.34 142.33,-111.59 150.76,-114.42"/>
</g>
<!-- Node3 -->
<g id="node3" class="node">
<title>Node3</title>
<g id="a_node3"><a xlink:href="sinex_8cpp.html#a90b64cf64ebf22149d1b6b867bf27e85" target="_top" xlink:title=" ">
<polygon fill="white" stroke="red" points="150,-76.5 150,-95.5 215,-95.5 215,-76.5 150,-76.5"/>
<text text-anchor="middle" x="182.5" y="-83.5" font-family="Helvetica,sans-Serif" font-size="10.00">getstnsnx</text>
</a>
</g>
</g>
<!-- Node1&#45;&gt;Node3 -->
<g id="edge2" class="edge">
<title>Node1&#45;&gt;Node3</title>
<path fill="none" stroke="midnightblue" d="M89.28,-73.12C109,-75.87 131.85,-79.06 149.87,-81.58"/>
</g>
<!-- Node7 -->
<g id="node4" class="node">
<title>Node7</title>
<g id="a_node4"><a xlink:href="utils_8cpp.html#ae91d83cf693cdc7e1efacbe4d8d9656e" target="_top" xlink:title=" ">
<polygon fill="white" stroke="black" points="152,-38.5 152,-57.5 213,-57.5 213,-38.5 152,-38.5"/>
<text text-anchor="middle" x="182.5" y="-45.5" font-family="Helvetica,sans-Serif" font-size="10.00">ecef2pos</text>
</a>
</g>
</g>
<!-- Node1&#45;&gt;Node7 -->
<g id="edge3" class="edge">
<title>Node1&#45;&gt;Node7</title>
<path fill="none" stroke="midnightblue" d="M89.28,-60.88C109.78,-58.02 133.66,-54.68 151.98,-52.12"/>
</g>
<!-- Node8 -->
<g id="node5" class="node">
<title>Node8</title>
<g id="a_node5"><a xlink:href="trace_8cpp.html#ae00e6addd3bdf3a7fd41a254eb9aec89" target="_top" xlink:title=" ">
<polygon fill="white" stroke="black" points="147,-0.5 147,-19.5 218,-19.5 218,-0.5 147,-0.5"/>
<text text-anchor="middle" x="182.5" y="-7.5" font-family="Helvetica,sans-Serif" font-size="10.00">tracepdeex</text>
</a>
</g>
</g>
<!-- Node1&#45;&gt;Node8 -->
<g id="edge4" class="edge">
<title>Node1&#45;&gt;Node8</title>
<path fill="none" stroke="midnightblue" d="M63.85,-57.45C79.78,-49.34 103.59,-37.68 125,-29 133.25,-25.66 142.33,-22.41 150.76,-19.58"/>
</g>
</g>
</svg>
