<?xml version="1.0" encoding="UTF-8" standalone="no"?>
<!DOCTYPE svg PUBLIC "-//W3C//DTD SVG 1.1//EN"
 "http://www.w3.org/Graphics/SVG/1.1/DTD/svg11.dtd">
<!-- Generated by graphviz version 2.43.0 (0)
 -->
<!-- Title: gradMapFn Pages: 1 -->
<svg width="185pt" height="66pt"
 viewBox="0.00 0.00 185.00 66.00" xmlns="http://www.w3.org/2000/svg" xmlns:xlink="http://www.w3.org/1999/xlink">
<g id="graph0" class="graph" transform="scale(1 1) rotate(0) translate(4 62)">
<title>gradMapFn</title>
<polygon fill="white" stroke="transparent" points="-4,4 -4,-62 181,-62 181,4 -4,4"/>
<!-- Node1 -->
<g id="node1" class="node">
<title>Node1</title>
<g id="a_node1"><a xlink:title="Returns gradient mapping function m_az(el) Valid for 0 &lt; el &lt; 0.9999 * PI/2; returns 0 otherwise Ref:...">
<polygon fill="#bfbfbf" stroke="black" points="106,-19.5 106,-38.5 177,-38.5 177,-19.5 106,-19.5"/>
<text text-anchor="middle" x="141.5" y="-26.5" font-family="Helvetica,sans-Serif" font-size="10.00">gradMapFn</text>
</a>
</g>
</g>
<!-- Node2 -->
<g id="node2" class="node">
<title>Node2</title>
<g id="a_node2"><a xlink:href="cost_8cpp.html#abc021ac32635abe4cf6daef44cabb888" target="_top" xlink:title="Outputs troposphere COST file.">
<polygon fill="white" stroke="red" points="0,-38.5 0,-57.5 70,-57.5 70,-38.5 0,-38.5"/>
<text text-anchor="middle" x="35" y="-45.5" font-family="Helvetica,sans-Serif" font-size="10.00">outputCost</text>
</a>
</g>
</g>
<!-- Node1&#45;&gt;Node2 -->
<g id="edge1" class="edge">
<title>Node1&#45;&gt;Node2</title>
<path fill="none" stroke="midnightblue" d="M96.01,-37.09C87.34,-38.67 78.38,-40.29 70.11,-41.8"/>
<polygon fill="midnightblue" stroke="midnightblue" points="96.78,-40.51 105.99,-35.27 95.53,-33.62 96.78,-40.51"/>
</g>
<!-- Node11 -->
<g id="node3" class="node">
<title>Node11</title>
<g id="a_node3"><a xlink:href="tropModels_8cpp.html#a4e0e7ea77b35161d438a4bc48e02c6d7" target="_top" xlink:title=" ">
<polygon fill="white" stroke="red" points="2,-0.5 2,-19.5 68,-19.5 68,-0.5 2,-0.5"/>
<text text-anchor="middle" x="35" y="-7.5" font-family="Helvetica,sans-Serif" font-size="10.00">tropModel</text>
</a>
</g>
</g>
<!-- Node1&#45;&gt;Node11 -->
<g id="edge2" class="edge">
<title>Node1&#45;&gt;Node11</title>
<path fill="none" stroke="midnightblue" d="M96.08,-20.92C86.77,-19.23 77.12,-17.48 68.35,-15.88"/>
<polygon fill="midnightblue" stroke="midnightblue" points="95.53,-24.38 105.99,-22.73 96.78,-17.49 95.53,-24.38"/>
</g>
</g>
</svg>
