<?xml version="1.0" encoding="UTF-8" standalone="no"?>
<!DOCTYPE svg PUBLIC "-//W3C//DTD SVG 1.1//EN"
 "http://www.w3.org/Graphics/SVG/1.1/DTD/svg11.dtd">
<!-- Generated by graphviz version 2.43.0 (0)
 -->
<!-- Title: tropCSSR Pages: 1 -->
<svg width="350pt" height="218pt"
 viewBox="0.00 0.00 350.00 218.00" xmlns="http://www.w3.org/2000/svg" xmlns:xlink="http://www.w3.org/1999/xlink">
<g id="graph0" class="graph" transform="scale(1 1) rotate(0) translate(4 214)">
<title>tropCSSR</title>
<polygon fill="white" stroke="transparent" points="-4,4 -4,-214 346,-214 346,4 -4,4"/>
<!-- Node1 -->
<g id="node1" class="node">
<title>Node1</title>
<g id="a_node1"><a xlink:title="SSR Troposphere model compute tropospheric delay using compact SSR contents Neill Mapping functions i...">
<polygon fill="#bfbfbf" stroke="black" points="0,-95.5 0,-114.5 62,-114.5 62,-95.5 0,-95.5"/>
<text text-anchor="middle" x="31" y="-102.5" font-family="Helvetica,sans-Serif" font-size="10.00">tropCSSR</text>
</a>
</g>
</g>
<!-- Node2 -->
<g id="node2" class="node">
<title>Node2</title>
<g id="a_node2"><a xlink:href="tropSAAS_8cpp.html#a1d3b00af7bf0b5ded35bb5efd1602f38" target="_top" xlink:title=" ">
<polygon fill="white" stroke="red" points="119.5,-190.5 119.5,-209.5 181.5,-209.5 181.5,-190.5 119.5,-190.5"/>
<text text-anchor="middle" x="150.5" y="-197.5" font-family="Helvetica,sans-Serif" font-size="10.00">tropSAAS</text>
</a>
</g>
</g>
<!-- Node1&#45;&gt;Node2 -->
<g id="edge1" class="edge">
<title>Node1&#45;&gt;Node2</title>
<path fill="none" stroke="midnightblue" d="M37.94,-114.54C48.29,-130.43 71.11,-162.43 98,-181 101.72,-183.57 105.82,-185.84 110.05,-187.83"/>
<polygon fill="midnightblue" stroke="midnightblue" points="108.8,-191.1 119.38,-191.76 111.52,-184.65 108.8,-191.1"/>
</g>
<!-- Node3 -->
<g id="node3" class="node">
<title>Node3</title>
<g id="a_node3"><a xlink:href="structVectorPos.html#ae607eb1f43de3cf1aaa024c2fdabc514" target="_top" xlink:title=" ">
<polygon fill="white" stroke="black" points="239,-152.5 239,-171.5 342,-171.5 342,-152.5 239,-152.5"/>
<text text-anchor="middle" x="290.5" y="-159.5" font-family="Helvetica,sans-Serif" font-size="10.00">VectorPos::latDeg</text>
</a>
</g>
</g>
<!-- Node1&#45;&gt;Node3 -->
<g id="edge4" class="edge">
<title>Node1&#45;&gt;Node3</title>
<path fill="none" stroke="midnightblue" d="M62.04,-111.65C104.79,-121.11 183.83,-138.61 236.54,-150.28"/>
<polygon fill="midnightblue" stroke="midnightblue" points="235.87,-153.71 246.39,-152.46 237.38,-146.88 235.87,-153.71"/>
</g>
<!-- Node9 -->
<g id="node4" class="node">
<title>Node9</title>
<g id="a_node4"><a xlink:href="localAtmosRegion_8cpp.html#a22c3de486f9cab9033418ae9b2903fa8" target="_top" xlink:title=" ">
<polygon fill="white" stroke="black" points="101.5,-152.5 101.5,-171.5 199.5,-171.5 199.5,-152.5 101.5,-152.5"/>
<text text-anchor="middle" x="150.5" y="-159.5" font-family="Helvetica,sans-Serif" font-size="10.00">checkSSRRegion</text>
</a>
</g>
</g>
<!-- Node1&#45;&gt;Node9 -->
<g id="edge3" class="edge">
<title>Node1&#45;&gt;Node9</title>
<path fill="none" stroke="midnightblue" d="M50.71,-114.53C63.88,-121.19 81.96,-130.26 98,-138 104.84,-141.3 112.22,-144.79 119.21,-148.05"/>
<polygon fill="midnightblue" stroke="midnightblue" points="117.85,-151.28 128.39,-152.32 120.8,-144.93 117.85,-151.28"/>
</g>
<!-- Node10 -->
<g id="node5" class="node">
<title>Node10</title>
<g id="a_node5"><a xlink:href="structVectorPos.html#aa693d5a52133cfb55040b768c6175bae" target="_top" xlink:title=" ">
<polygon fill="white" stroke="black" points="98,-76.5 98,-95.5 203,-95.5 203,-76.5 98,-76.5"/>
<text text-anchor="middle" x="150.5" y="-83.5" font-family="Helvetica,sans-Serif" font-size="10.00">VectorPos::lonDeg</text>
</a>
</g>
</g>
<!-- Node1&#45;&gt;Node10 -->
<g id="edge5" class="edge">
<title>Node1&#45;&gt;Node10</title>
<path fill="none" stroke="midnightblue" d="M62.26,-100.11C70.16,-98.83 78.98,-97.4 87.88,-95.96"/>
<polygon fill="midnightblue" stroke="midnightblue" points="88.61,-99.39 97.92,-94.34 87.49,-92.48 88.61,-99.39"/>
</g>
<!-- Node11 -->
<g id="node6" class="node">
<title>Node11</title>
<g id="a_node6"><a xlink:href="trace_8hpp.html#a984a9b0c40d65d46f2c73a021a7b7de3" target="_top" xlink:title=" ">
<polygon fill="white" stroke="black" points="115,-38.5 115,-57.5 186,-57.5 186,-38.5 115,-38.5"/>
<text text-anchor="middle" x="150.5" y="-45.5" font-family="Helvetica,sans-Serif" font-size="10.00">tracepdeex</text>
</a>
</g>
</g>
<!-- Node1&#45;&gt;Node11 -->
<g id="edge6" class="edge">
<title>Node1&#45;&gt;Node11</title>
<path fill="none" stroke="midnightblue" d="M47.08,-95.34C60.21,-87.17 79.92,-75.47 98,-67 102.36,-64.96 107,-62.99 111.64,-61.13"/>
<polygon fill="midnightblue" stroke="midnightblue" points="113,-64.36 121.08,-57.51 110.49,-57.82 113,-64.36"/>
</g>
<!-- Node6 -->
<g id="node7" class="node">
<title>Node6</title>
<g id="a_node7"><a xlink:href="tropGPT2_8cpp.html#aa061d99eb567e08008ee2e0b0463926d" target="_top" xlink:title="coefficients multiplication">
<polygon fill="white" stroke="black" points="131.5,-0.5 131.5,-19.5 169.5,-19.5 169.5,-0.5 131.5,-0.5"/>
<text text-anchor="middle" x="150.5" y="-7.5" font-family="Helvetica,sans-Serif" font-size="10.00">coef</text>
</a>
</g>
</g>
<!-- Node1&#45;&gt;Node6 -->
<g id="edge7" class="edge">
<title>Node1&#45;&gt;Node6</title>
<path fill="none" stroke="midnightblue" d="M37.94,-95.46C48.29,-79.57 71.11,-47.57 98,-29 105.06,-24.12 113.52,-20.33 121.52,-17.46"/>
<polygon fill="midnightblue" stroke="midnightblue" points="122.84,-20.71 131.28,-14.3 120.69,-14.05 122.84,-20.71"/>
</g>
<!-- Node2&#45;&gt;Node3 -->
<g id="edge2" class="edge">
<title>Node2&#45;&gt;Node3</title>
<path fill="none" stroke="midnightblue" d="M181.78,-191.66C200.33,-186.55 224.39,-179.93 245.07,-174.23"/>
<polygon fill="midnightblue" stroke="midnightblue" points="246.2,-177.55 254.91,-171.52 244.34,-170.81 246.2,-177.55"/>
</g>
</g>
</svg>
