<?xml version="1.0" encoding="UTF-8" standalone="no"?>
<!DOCTYPE svg PUBLIC "-//W3C//DTD SVG 1.1//EN"
 "http://www.w3.org/Graphics/SVG/1.1/DTD/svg11.dtd">
<!-- Generated by graphviz version 2.43.0 (0)
 -->
<!-- Title: outputTropSinex Pages: 1 -->
<svg width="256pt" height="306pt"
 viewBox="0.00 0.00 256.00 305.50" xmlns="http://www.w3.org/2000/svg" xmlns:xlink="http://www.w3.org/1999/xlink">
<g id="graph0" class="graph" transform="scale(1 1) rotate(0) translate(4 301.5)">
<title>outputTropSinex</title>
<polygon fill="white" stroke="transparent" points="-4,4 -4,-301.5 252,-301.5 252,4 -4,4"/>
<!-- Node1 -->
<g id="node1" class="node">
<title>Node1</title>
<g id="a_node1"><a xlink:title="Output troposphere SINEX data.">
<polygon fill="#bfbfbf" stroke="black" points="0,-133.5 0,-152.5 95,-152.5 95,-133.5 0,-133.5"/>
<text text-anchor="middle" x="47.5" y="-140.5" font-family="Helvetica,sans-Serif" font-size="10.00">outputTropSinex</text>
</a>
</g>
</g>
<!-- Node2 -->
<g id="node2" class="node">
<title>Node2</title>
<g id="a_node2"><a xlink:href="sinex_8cpp.html#a32c742a3442654bb9d17958a0bd32621" target="_top" xlink:title=" ">
<polygon fill="white" stroke="black" points="131,-267 131,-297 248,-297 248,-267 131,-267"/>
<text text-anchor="start" x="139" y="-285" font-family="Helvetica,sans-Serif" font-size="10.00">sinex_check_add_ga</text>
<text text-anchor="middle" x="189.5" y="-274" font-family="Helvetica,sans-Serif" font-size="10.00">_reference</text>
</a>
</g>
</g>
<!-- Node1&#45;&gt;Node2 -->
<g id="edge1" class="edge">
<title>Node1&#45;&gt;Node2</title>
<path fill="none" stroke="midnightblue" d="M53.15,-152.58C63.99,-174.02 92.92,-226.38 131,-257 135.67,-260.75 140.98,-264.05 146.45,-266.9"/>
</g>
<!-- Node3 -->
<g id="node3" class="node">
<title>Node3</title>
<g id="a_node3"><a xlink:href="sinex_8cpp.html#aff412d7cf476298a141d5ea518e2d956" target="_top" xlink:title=" ">
<polygon fill="white" stroke="red" points="133,-228.5 133,-247.5 246,-247.5 246,-228.5 133,-228.5"/>
<text text-anchor="middle" x="189.5" y="-235.5" font-family="Helvetica,sans-Serif" font-size="10.00">updateSinexHeader</text>
</a>
</g>
</g>
<!-- Node1&#45;&gt;Node3 -->
<g id="edge2" class="edge">
<title>Node1&#45;&gt;Node3</title>
<path fill="none" stroke="midnightblue" d="M56.41,-152.56C70.06,-168.49 99.61,-200.53 131,-219 137.34,-222.73 144.52,-225.84 151.59,-228.39"/>
</g>
<!-- Node5 -->
<g id="node4" class="node">
<title>Node5</title>
<g id="a_node4"><a xlink:href="acsConfig_8cpp.html#a75a34dc41e76a8680e3aa6d62ff4c800" target="_top" xlink:title="Replace macros for times with numeric values.">
<polygon fill="white" stroke="red" points="148.5,-190.5 148.5,-209.5 230.5,-209.5 230.5,-190.5 148.5,-190.5"/>
<text text-anchor="middle" x="189.5" y="-197.5" font-family="Helvetica,sans-Serif" font-size="10.00">replaceTimes</text>
</a>
</g>
</g>
<!-- Node1&#45;&gt;Node5 -->
<g id="edge3" class="edge">
<title>Node1&#45;&gt;Node5</title>
<path fill="none" stroke="midnightblue" d="M67.57,-152.53C84.12,-160.62 108.85,-172.27 131,-181 139.51,-184.35 148.88,-187.62 157.53,-190.48"/>
</g>
<!-- Node7 -->
<g id="node5" class="node">
<title>Node7</title>
<g id="a_node5"><a xlink:href="structKFState.html#a405c50a3085d8328e81dcd6786f775d3" target="_top" xlink:title="Returns the value and variance of a state within the kalman filter object.">
<polygon fill="white" stroke="black" points="131,-152.5 131,-171.5 248,-171.5 248,-152.5 131,-152.5"/>
<text text-anchor="middle" x="189.5" y="-159.5" font-family="Helvetica,sans-Serif" font-size="10.00">KFState::getKFValue</text>
</a>
</g>
</g>
<!-- Node1&#45;&gt;Node7 -->
<g id="edge4" class="edge">
<title>Node1&#45;&gt;Node7</title>
<path fill="none" stroke="midnightblue" d="M95.12,-149.33C106.57,-150.88 118.97,-152.56 130.87,-154.18"/>
</g>
<!-- Node8 -->
<g id="node6" class="node">
<title>Node8</title>
<g id="a_node6"><a xlink:href="tropSinex_8cpp.html#a46f3559d46a9ca2fd745fc2a46ee12f5" target="_top" xlink:title="Set antenna calibration model data for SITE/ANTENNA block.">
<polygon fill="white" stroke="red" points="143.5,-114.5 143.5,-133.5 235.5,-133.5 235.5,-114.5 143.5,-114.5"/>
<text text-anchor="middle" x="189.5" y="-121.5" font-family="Helvetica,sans-Serif" font-size="10.00">setSiteAntCalib</text>
</a>
</g>
</g>
<!-- Node1&#45;&gt;Node8 -->
<g id="edge5" class="edge">
<title>Node1&#45;&gt;Node8</title>
<path fill="none" stroke="midnightblue" d="M95.12,-136.67C110.55,-134.58 127.69,-132.25 143.04,-130.17"/>
</g>
<!-- Node10 -->
<g id="node7" class="node">
<title>Node10</title>
<g id="a_node7"><a xlink:href="tropSinex_8cpp.html#acd54f7b8acedc9407cd6fab6d27805dd" target="_top" xlink:title="Set troposphere solution data.">
<polygon fill="white" stroke="red" points="156,-76.5 156,-95.5 223,-95.5 223,-76.5 156,-76.5"/>
<text text-anchor="middle" x="189.5" y="-83.5" font-family="Helvetica,sans-Serif" font-size="10.00">setTropSol</text>
</a>
</g>
</g>
<!-- Node1&#45;&gt;Node10 -->
<g id="edge6" class="edge">
<title>Node1&#45;&gt;Node10</title>
<path fill="none" stroke="midnightblue" d="M67.57,-133.47C84.12,-125.38 108.85,-113.73 131,-105 139.51,-101.65 148.88,-98.38 157.53,-95.52"/>
</g>
<!-- Node17 -->
<g id="node8" class="node">
<title>Node17</title>
<g id="a_node8"><a xlink:href="tropSinex_8cpp.html#a97e226ce7219f7e1f35c2fde83f435af" target="_top" xlink:title="Set data for trop description block.">
<polygon fill="white" stroke="black" points="146,-38.5 146,-57.5 233,-57.5 233,-38.5 146,-38.5"/>
<text text-anchor="middle" x="189.5" y="-45.5" font-family="Helvetica,sans-Serif" font-size="10.00">setDescription</text>
</a>
</g>
</g>
<!-- Node1&#45;&gt;Node17 -->
<g id="edge7" class="edge">
<title>Node1&#45;&gt;Node17</title>
<path fill="none" stroke="midnightblue" d="M56.41,-133.44C70.06,-117.51 99.61,-85.47 131,-67 137.34,-63.27 144.52,-60.16 151.59,-57.61"/>
</g>
<!-- Node18 -->
<g id="node9" class="node">
<title>Node18</title>
<g id="a_node9"><a xlink:href="tropSinex_8cpp.html#af9d3901b3a9964efc0c953a396f9e145" target="_top" xlink:title="Write troposphere Sinex data to file.">
<polygon fill="white" stroke="red" points="131.5,-0.5 131.5,-19.5 247.5,-19.5 247.5,-0.5 131.5,-0.5"/>
<text text-anchor="middle" x="189.5" y="-7.5" font-family="Helvetica,sans-Serif" font-size="10.00">writeTropSinexToFile</text>
</a>
</g>
</g>
<!-- Node1&#45;&gt;Node18 -->
<g id="edge8" class="edge">
<title>Node1&#45;&gt;Node18</title>
<path fill="none" stroke="midnightblue" d="M52.8,-133.49C63.11,-111.74 91.37,-58 131,-29 136.26,-25.15 142.35,-22.05 148.55,-19.56"/>
</g>
</g>
</svg>
