<?xml version="1.0" encoding="UTF-8" standalone="no"?>
<!DOCTYPE svg PUBLIC "-//W3C//DTD SVG 1.1//EN"
 "http://www.w3.org/Graphics/SVG/1.1/DTD/svg11.dtd">
<!-- Generated by graphviz version 2.43.0 (0)
 -->
<!-- Title: tropModel Pages: 1 -->
<svg width="186pt" height="66pt"
 viewBox="0.00 0.00 186.00 66.00" xmlns="http://www.w3.org/2000/svg" xmlns:xlink="http://www.w3.org/1999/xlink">
<g id="graph0" class="graph" transform="scale(1 1) rotate(0) translate(4 62)">
<title>tropModel</title>
<polygon fill="white" stroke="transparent" points="-4,4 -4,-62 182,-62 182,4 -4,4"/>
<!-- Node1 -->
<g id="node1" class="node">
<title>Node1</title>
<g id="a_node1"><a xlink:title=" ">
<polygon fill="#bfbfbf" stroke="black" points="112,-19.5 112,-38.5 178,-38.5 178,-19.5 112,-19.5"/>
<text text-anchor="middle" x="145" y="-26.5" font-family="Helvetica,sans-Serif" font-size="10.00">tropModel</text>
</a>
</g>
</g>
<!-- Node2 -->
<g id="node2" class="node">
<title>Node2</title>
<g id="a_node2"><a xlink:href="ppp__obs_8cpp.html#ac0e84d7f86f4e2fc7d4821dafe13236f" target="_top" xlink:title=" ">
<polygon fill="white" stroke="black" points="0,-38.5 0,-57.5 76,-57.5 76,-38.5 0,-38.5"/>
<text text-anchor="middle" x="38" y="-45.5" font-family="Helvetica,sans-Serif" font-size="10.00">pppTropMap</text>
</a>
</g>
</g>
<!-- Node1&#45;&gt;Node2 -->
<g id="edge1" class="edge">
<title>Node1&#45;&gt;Node2</title>
<path fill="none" stroke="midnightblue" d="M102.06,-36.59C93.45,-38.15 84.45,-39.78 76.03,-41.3"/>
<polygon fill="midnightblue" stroke="midnightblue" points="102.71,-40.03 111.93,-34.8 101.46,-33.14 102.71,-40.03"/>
</g>
<!-- Node3 -->
<g id="node3" class="node">
<title>Node3</title>
<g id="a_node3"><a xlink:href="ppp__obs_8cpp.html#ad48e0adac3f81cea40aa6afb535bd689" target="_top" xlink:title=" ">
<polygon fill="white" stroke="red" points="10.5,-0.5 10.5,-19.5 65.5,-19.5 65.5,-0.5 10.5,-0.5"/>
<text text-anchor="middle" x="38" y="-7.5" font-family="Helvetica,sans-Serif" font-size="10.00">pppTrop</text>
</a>
</g>
</g>
<!-- Node1&#45;&gt;Node3 -->
<g id="edge2" class="edge">
<title>Node1&#45;&gt;Node3</title>
<path fill="none" stroke="midnightblue" d="M101.88,-21.38C89.63,-19.16 76.59,-16.8 65.58,-14.81"/>
<polygon fill="midnightblue" stroke="midnightblue" points="101.46,-24.86 111.93,-23.2 102.71,-17.97 101.46,-24.86"/>
</g>
</g>
</svg>
