<?xml version="1.0" encoding="UTF-8" standalone="no"?>
<!DOCTYPE svg PUBLIC "-//W3C//DTD SVG 1.1//EN"
 "http://www.w3.org/Graphics/SVG/1.1/DTD/svg11.dtd">
<!-- Generated by graphviz version 2.43.0 (0)
 -->
<!-- Title: tropacs Pages: 1 -->
<svg width="218pt" height="66pt"
 viewBox="0.00 0.00 218.00 66.00" xmlns="http://www.w3.org/2000/svg" xmlns:xlink="http://www.w3.org/1999/xlink">
<g id="graph0" class="graph" transform="scale(1 1) rotate(0) translate(4 62)">
<title>tropacs</title>
<polygon fill="white" stroke="transparent" points="-4,4 -4,-62 214,-62 214,4 -4,4"/>
<!-- Node1 -->
<g id="node1" class="node">
<title>Node1</title>
<g id="a_node1"><a xlink:title="troposphere zhd for acs.">
<polygon fill="#bfbfbf" stroke="black" points="157,-19.5 157,-38.5 210,-38.5 210,-19.5 157,-19.5"/>
<text text-anchor="middle" x="183.5" y="-26.5" font-family="Helvetica,sans-Serif" font-size="10.00">tropacs</text>
</a>
</g>
</g>
<!-- Node2 -->
<g id="node2" class="node">
<title>Node2</title>
<g id="a_node2"><a xlink:href="tropSinex_8cpp.html#a46c251b82049d97d17fe992587395761" target="_top" xlink:title="Set troposphere solution data from filter.">
<polygon fill="white" stroke="red" points="0,-38.5 0,-57.5 121,-57.5 121,-38.5 0,-38.5"/>
<text text-anchor="middle" x="60.5" y="-45.5" font-family="Helvetica,sans-Serif" font-size="10.00">setTropSolsFromFilter</text>
</a>
</g>
</g>
<!-- Node1&#45;&gt;Node2 -->
<g id="edge1" class="edge">
<title>Node1&#45;&gt;Node2</title>
<path fill="none" stroke="midnightblue" d="M156.84,-33.03C146.43,-34.66 133.94,-36.62 121.48,-38.58"/>
</g>
<!-- Node13 -->
<g id="node3" class="node">
<title>Node13</title>
<g id="a_node3"><a xlink:href="ppp_8cpp.html#ac3b334c7b75e0dda650bd38b16a212f6" target="_top" xlink:title=" ">
<polygon fill="white" stroke="red" points="11.5,-0.5 11.5,-19.5 109.5,-19.5 109.5,-0.5 11.5,-0.5"/>
<text text-anchor="middle" x="60.5" y="-7.5" font-family="Helvetica,sans-Serif" font-size="10.00">trop_model_prec</text>
</a>
</g>
</g>
<!-- Node1&#45;&gt;Node13 -->
<g id="edge2" class="edge">
<title>Node1&#45;&gt;Node13</title>
<path fill="none" stroke="midnightblue" d="M156.84,-24.97C143.1,-22.81 125.73,-20.09 109.59,-17.55"/>
</g>
</g>
</svg>
