<?xml version="1.0" encoding="UTF-8" standalone="no"?>
<!DOCTYPE svg PUBLIC "-//W3C//DTD SVG 1.1//EN"
 "http://www.w3.org/Graphics/SVG/1.1/DTD/svg11.dtd">
<!-- Generated by graphviz version 2.43.0 (0)
 -->
<!-- Title: sign Pages: 1 -->
<svg width="206pt" height="180pt"
 viewBox="0.00 0.00 206.00 180.00" xmlns="http://www.w3.org/2000/svg" xmlns:xlink="http://www.w3.org/1999/xlink">
<g id="graph0" class="graph" transform="scale(1 1) rotate(0) translate(4 176)">
<title>sign</title>
<polygon fill="white" stroke="transparent" points="-4,4 -4,-176 202,-176 202,4 -4,4"/>
<!-- Node1 -->
<g id="node1" class="node">
<title>Node1</title>
<g id="a_node1"><a xlink:title=" ">
<polygon fill="#bfbfbf" stroke="black" points="161,-76.5 161,-95.5 198,-95.5 198,-76.5 161,-76.5"/>
<text text-anchor="middle" x="179.5" y="-83.5" font-family="Helvetica,sans-Serif" font-size="10.00">sign</text>
</a>
</g>
</g>
<!-- Node2 -->
<g id="node2" class="node">
<title>Node2</title>
<g id="a_node2"><a xlink:href="attitude_8cpp.html#ab401e4381f03bb13f4ad1000c230e5af" target="_top" xlink:title="Smoothed yaw steering for GAL &amp; BDS.">
<polygon fill="white" stroke="red" points="20.5,-152.5 20.5,-171.5 104.5,-171.5 104.5,-152.5 20.5,-152.5"/>
<text text-anchor="middle" x="62.5" y="-159.5" font-family="Helvetica,sans-Serif" font-size="10.00">smoothedYaw</text>
</a>
</g>
</g>
<!-- Node1&#45;&gt;Node2 -->
<g id="edge1" class="edge">
<title>Node1&#45;&gt;Node2</title>
<path fill="none" stroke="midnightblue" d="M172.03,-95.51C162.95,-108.15 145.26,-130.35 125,-143 118.74,-146.91 111.63,-150.06 104.51,-152.59"/>
</g>
<!-- Node12 -->
<g id="node3" class="node">
<title>Node12</title>
<g id="a_node3"><a xlink:href="main_8cpp.html#aff27912083f0b1f7faa7327c48930fed" target="_top" xlink:title=" ">
<polygon fill="white" stroke="red" points="0,-114.5 0,-133.5 125,-133.5 125,-114.5 0,-114.5"/>
<text text-anchor="middle" x="62.5" y="-121.5" font-family="Helvetica,sans-Serif" font-size="10.00">outputPredictedStates</text>
</a>
</g>
</g>
<!-- Node1&#45;&gt;Node12 -->
<g id="edge2" class="edge">
<title>Node1&#45;&gt;Node12</title>
<path fill="none" stroke="midnightblue" d="M160.73,-92.52C150.35,-96.28 136.97,-101.03 125,-105 115.35,-108.2 104.79,-111.53 95.18,-114.49"/>
</g>
<!-- Node15 -->
<g id="node4" class="node">
<title>Node15</title>
<g id="a_node4"><a xlink:href="ppp__obs_8cpp.html#a574a4c24df1a754d0b2b299c8111e29f" target="_top" xlink:title=" ">
<polygon fill="white" stroke="red" points="22.5,-76.5 22.5,-95.5 102.5,-95.5 102.5,-76.5 22.5,-76.5"/>
<text text-anchor="middle" x="62.5" y="-83.5" font-family="Helvetica,sans-Serif" font-size="10.00">pppIonModel</text>
</a>
</g>
</g>
<!-- Node1&#45;&gt;Node15 -->
<g id="edge3" class="edge">
<title>Node1&#45;&gt;Node15</title>
<path fill="none" stroke="midnightblue" d="M160.53,-86C145.12,-86 122.36,-86 102.75,-86"/>
</g>
<!-- Node21 -->
<g id="node5" class="node">
<title>Node21</title>
<g id="a_node5"><a xlink:href="lambda_8cpp.html#aa6373e942a90853229d95abeafbaa28b" target="_top" xlink:title=" ">
<polygon fill="white" stroke="red" points="42.5,-38.5 42.5,-57.5 82.5,-57.5 82.5,-38.5 42.5,-38.5"/>
<text text-anchor="middle" x="62.5" y="-45.5" font-family="Helvetica,sans-Serif" font-size="10.00">erfar</text>
</a>
</g>
</g>
<!-- Node1&#45;&gt;Node21 -->
<g id="edge4" class="edge">
<title>Node1&#45;&gt;Node21</title>
<path fill="none" stroke="midnightblue" d="M160.73,-79.48C150.35,-75.72 136.97,-70.97 125,-67 110.89,-62.32 94.85,-57.37 82.68,-53.7"/>
</g>
<!-- Node36 -->
<g id="node6" class="node">
<title>Node36</title>
<g id="a_node6"><a xlink:href="trop_8cpp.html#a080102fd2b8058490e933925884c4001" target="_top" xlink:title=" ">
<polygon fill="white" stroke="red" points="43.5,-0.5 43.5,-19.5 81.5,-19.5 81.5,-0.5 43.5,-0.5"/>
<text text-anchor="middle" x="62.5" y="-7.5" font-family="Helvetica,sans-Serif" font-size="10.00">gpt2</text>
</a>
</g>
</g>
<!-- Node1&#45;&gt;Node36 -->
<g id="edge5" class="edge">
<title>Node1&#45;&gt;Node36</title>
<path fill="none" stroke="midnightblue" d="M172.03,-76.49C162.95,-63.85 145.26,-41.65 125,-29 111.73,-20.71 94.58,-15.81 81.77,-13.06"/>
</g>
</g>
</svg>
