<?xml version="1.0" encoding="UTF-8" standalone="no"?>
<!DOCTYPE svg PUBLIC "-//W3C//DTD SVG 1.1//EN"
 "http://www.w3.org/Graphics/SVG/1.1/DTD/svg11.dtd">
<!-- Generated by graphviz version 2.43.0 (0)
 -->
<!-- Title: setTropSolsFromFilter Pages: 1 -->
<svg width="282pt" height="104pt"
 viewBox="0.00 0.00 282.00 104.00" xmlns="http://www.w3.org/2000/svg" xmlns:xlink="http://www.w3.org/1999/xlink">
<g id="graph0" class="graph" transform="scale(1 1) rotate(0) translate(4 100)">
<title>setTropSolsFromFilter</title>
<polygon fill="white" stroke="transparent" points="-4,4 -4,-100 278,-100 278,4 -4,4"/>
<!-- Node1 -->
<g id="node1" class="node">
<title>Node1</title>
<g id="a_node1"><a xlink:title="Set troposphere solution data from filter.">
<polygon fill="#bfbfbf" stroke="black" points="0,-38.5 0,-57.5 121,-57.5 121,-38.5 0,-38.5"/>
<text text-anchor="middle" x="60.5" y="-45.5" font-family="Helvetica,sans-Serif" font-size="10.00">setTropSolsFromFilter</text>
</a>
</g>
</g>
<!-- Node2 -->
<g id="node2" class="node">
<title>Node2</title>
<g id="a_node2"><a xlink:href="structKFState.html#a1e56cacd1a83d3913b20940b1892d407" target="_top" xlink:title="Returns the value and variance of a state within the kalman filter object.">
<polygon fill="white" stroke="black" points="157,-76.5 157,-95.5 274,-95.5 274,-76.5 157,-76.5"/>
<text text-anchor="middle" x="215.5" y="-83.5" font-family="Helvetica,sans-Serif" font-size="10.00">KFState::getKFValue</text>
</a>
</g>
</g>
<!-- Node1&#45;&gt;Node2 -->
<g id="edge1" class="edge">
<title>Node1&#45;&gt;Node2</title>
<path fill="none" stroke="midnightblue" d="M100.11,-57.59C123.39,-63.37 152.94,-70.71 176.17,-76.48"/>
</g>
<!-- Node3 -->
<g id="node3" class="node">
<title>Node3</title>
<g id="a_node3"><a xlink:href="utils_8cpp.html#ae91d83cf693cdc7e1efacbe4d8d9656e" target="_top" xlink:title=" ">
<polygon fill="white" stroke="black" points="185,-38.5 185,-57.5 246,-57.5 246,-38.5 185,-38.5"/>
<text text-anchor="middle" x="215.5" y="-45.5" font-family="Helvetica,sans-Serif" font-size="10.00">ecef2pos</text>
</a>
</g>
</g>
<!-- Node1&#45;&gt;Node3 -->
<g id="edge2" class="edge">
<title>Node1&#45;&gt;Node3</title>
<path fill="none" stroke="midnightblue" d="M121.09,-48C142.91,-48 166.65,-48 184.74,-48"/>
</g>
<!-- Node4 -->
<g id="node4" class="node">
<title>Node4</title>
<g id="a_node4"><a xlink:href="corrections_8cpp.html#afa38d01050a10a76e1eb6d0650cd9b31" target="_top" xlink:title="troposphere zhd for acs.">
<polygon fill="white" stroke="black" points="189,-0.5 189,-19.5 242,-19.5 242,-0.5 189,-0.5"/>
<text text-anchor="middle" x="215.5" y="-7.5" font-family="Helvetica,sans-Serif" font-size="10.00">tropacs</text>
</a>
</g>
</g>
<!-- Node1&#45;&gt;Node4 -->
<g id="edge3" class="edge">
<title>Node1&#45;&gt;Node4</title>
<path fill="none" stroke="midnightblue" d="M100.11,-38.41C127.91,-31.51 164.63,-22.39 188.88,-16.36"/>
</g>
</g>
</svg>
