<?xml version="1.0" encoding="UTF-8" standalone="no"?>
<!DOCTYPE svg PUBLIC "-//W3C//DTD SVG 1.1//EN"
 "http://www.w3.org/Graphics/SVG/1.1/DTD/svg11.dtd">
<!-- Generated by graphviz version 2.43.0 (0)
 -->
<!-- Title: Pea_IF_GPS_User Pages: 1 -->
<svg width="566pt" height="294pt"
 viewBox="0.00 0.00 566.00 294.00" xmlns="http://www.w3.org/2000/svg" xmlns:xlink="http://www.w3.org/1999/xlink">
<g id="graph0" class="graph" transform="scale(1 1) rotate(0) translate(4 290)">
<title>Pea_IF_GPS_User</title>
<polygon fill="white" stroke="transparent" points="-4,4 -4,-290 562,-290 562,4 -4,4"/>
<!-- Node1 -->
<g id="node1" class="node">
<title>Node1</title>
<g id="a_node1"><a xlink:title="End&#45;user processing scheme that provides precise results with intermediate receiver hardware and corr...">
<polygon fill="#bfbfbf" stroke="black" points="0,-228.5 0,-247.5 101,-247.5 101,-228.5 0,-228.5"/>
<text text-anchor="middle" x="50.5" y="-235.5" font-family="Helvetica,sans-Serif" font-size="10.00">Pea_IF_GPS_User</text>
</a>
</g>
</g>
<!-- Node2 -->
<g id="node2" class="node">
<title>Node2</title>
<g id="a_node2"><a xlink:href="Pea_8cpp.html#aea2606af794cac24abfaeb13d5ae7a86" target="_top" xlink:title=" ">
<polygon fill="white" stroke="black" points="137,-266.5 137,-285.5 268,-285.5 268,-266.5 137,-266.5"/>
<text text-anchor="middle" x="202.5" y="-273.5" font-family="Helvetica,sans-Serif" font-size="10.00">Download_ANTEX_Files</text>
</a>
</g>
</g>
<!-- Node1&#45;&gt;Node2 -->
<g id="edge1" class="edge">
<title>Node1&#45;&gt;Node2</title>
<path fill="none" stroke="midnightblue" d="M89.35,-247.59C112.18,-253.37 141.14,-260.71 163.92,-266.48"/>
</g>
<!-- Node4 -->
<g id="node4" class="node">
<title>Node4</title>
<g id="a_node4"><a xlink:href="Pea_8cpp.html#a799a30e163d39a4e06a1a41c05c43f0d" target="_top" xlink:title=" ">
<polygon fill="white" stroke="black" points="144.5,-228.5 144.5,-247.5 260.5,-247.5 260.5,-228.5 144.5,-228.5"/>
<text text-anchor="middle" x="202.5" y="-235.5" font-family="Helvetica,sans-Serif" font-size="10.00">Download_SP3_Files</text>
</a>
</g>
</g>
<!-- Node1&#45;&gt;Node4 -->
<g id="edge3" class="edge">
<title>Node1&#45;&gt;Node4</title>
<path fill="none" stroke="midnightblue" d="M101.03,-238C114.94,-238 130.18,-238 144.48,-238"/>
</g>
<!-- Node6 -->
<g id="node6" class="node">
<title>Node6</title>
<g id="a_node6"><a xlink:href="Pea_8cpp.html#ac4da2172d0a3e35a73defb8e01279e17" target="_top" xlink:title="Use available data to estimate unknown parameters of interest.">
<polygon fill="white" stroke="black" points="185,-114.5 185,-133.5 220,-133.5 220,-114.5 185,-114.5"/>
<text text-anchor="middle" x="202.5" y="-121.5" font-family="Helvetica,sans-Serif" font-size="10.00">Pea</text>
</a>
</g>
</g>
<!-- Node1&#45;&gt;Node6 -->
<g id="edge5" class="edge">
<title>Node1&#45;&gt;Node6</title>
<path fill="none" stroke="midnightblue" d="M64.03,-228.48C92.2,-207.07 160.26,-155.34 188.69,-133.74"/>
</g>
<!-- Node3 -->
<g id="node3" class="node">
<title>Node3</title>
<g id="a_node3"><a xlink:href="Pea_8cpp.html#a255f57bfce8ec366b7ac141b265805ba" target="_top" xlink:title="Provide antenna phase center and offset data.">
<polygon fill="white" stroke="black" points="481,-161.5 481,-180.5 558,-180.5 558,-161.5 481,-161.5"/>
<text text-anchor="middle" x="519.5" y="-168.5" font-family="Helvetica,sans-Serif" font-size="10.00">ANTEX_Files</text>
</a>
</g>
</g>
<!-- Node2&#45;&gt;Node3 -->
<g id="edge2" class="edge">
<title>Node2&#45;&gt;Node3</title>
<path fill="none" stroke="midnightblue" d="M268.21,-266.99C317.98,-258.59 387.69,-243.58 445,-219 468.53,-208.91 492.83,-191.39 506.76,-180.54"/>
</g>
<!-- Node5 -->
<g id="node5" class="node">
<title>Node5</title>
<g id="a_node5"><a xlink:href="Pea_8cpp.html#a754b582a4856b9f33ac94e0cde9bc9ce" target="_top" xlink:title="Provide satellite orbit data.">
<polygon fill="white" stroke="black" points="488.5,-218.5 488.5,-237.5 550.5,-237.5 550.5,-218.5 488.5,-218.5"/>
<text text-anchor="middle" x="519.5" y="-225.5" font-family="Helvetica,sans-Serif" font-size="10.00">SP3_Files</text>
</a>
</g>
</g>
<!-- Node4&#45;&gt;Node5 -->
<g id="edge4" class="edge">
<title>Node4&#45;&gt;Node5</title>
<path fill="none" stroke="midnightblue" d="M260.54,-236.19C327.38,-234.07 435.65,-230.63 488.1,-228.97"/>
</g>
<!-- Node7 -->
<g id="node7" class="node">
<title>Node7</title>
<g id="a_node7"><a xlink:href="Pea_8cpp.html#a3178f0dd16294eabf532179224546750" target="_top" xlink:title="Read a .yaml formatted configuration file.">
<polygon fill="white" stroke="black" points="321.5,-190.5 321.5,-209.5 427.5,-209.5 427.5,-190.5 321.5,-190.5"/>
<text text-anchor="middle" x="374.5" y="-197.5" font-family="Helvetica,sans-Serif" font-size="10.00">Pea_Configuration</text>
</a>
</g>
</g>
<!-- Node6&#45;&gt;Node7 -->
<g id="edge6" class="edge">
<title>Node6&#45;&gt;Node7</title>
<path fill="none" stroke="midnightblue" d="M217.9,-133.7C236.9,-146.14 271.74,-167.69 304,-181 312.79,-184.63 322.48,-187.77 331.77,-190.41"/>
</g>
<!-- Node8 -->
<g id="node8" class="node">
<title>Node8</title>
<g id="a_node8"><a xlink:href="Pea_8cpp.html#ae0e7a9875ba11feed494742fbf80e727" target="_top" xlink:title="Data files are checked for new data each epoch before processing commences.">
<polygon fill="white" stroke="red" points="339.5,-152.5 339.5,-171.5 409.5,-171.5 409.5,-152.5 339.5,-152.5"/>
<text text-anchor="middle" x="374.5" y="-159.5" font-family="Helvetica,sans-Serif" font-size="10.00">Input_Data</text>
</a>
</g>
</g>
<!-- Node6&#45;&gt;Node8 -->
<g id="edge7" class="edge">
<title>Node6&#45;&gt;Node8</title>
<path fill="none" stroke="midnightblue" d="M220.11,-127.71C247.6,-133.86 303.09,-146.26 339.26,-154.35"/>
</g>
<!-- Node12 -->
<g id="node9" class="node">
<title>Node12</title>
<g id="a_node9"><a xlink:href="Pea_8cpp.html#a62efde210cf198ea141ddbd2c4f83f9a" target="_top" xlink:title="Perform simple quality control checks and positioning routines.">
<polygon fill="white" stroke="red" points="334.5,-114.5 334.5,-133.5 414.5,-133.5 414.5,-114.5 334.5,-114.5"/>
<text text-anchor="middle" x="374.5" y="-121.5" font-family="Helvetica,sans-Serif" font-size="10.00">Preprocessor</text>
</a>
</g>
</g>
<!-- Node6&#45;&gt;Node12 -->
<g id="edge10" class="edge">
<title>Node6&#45;&gt;Node12</title>
<path fill="none" stroke="midnightblue" d="M220.11,-124C246.34,-124 298.09,-124 334.19,-124"/>
</g>
<!-- Node18 -->
<g id="node10" class="node">
<title>Node18</title>
<g id="a_node10"><a xlink:href="Pea_8cpp.html#a28bdee4d916aa4bfbb3418db80ea2a12" target="_top" xlink:title="Use precise scientific models and corrections from analysis centers to produce the best possible para...">
<polygon fill="white" stroke="red" points="304,-76.5 304,-95.5 445,-95.5 445,-76.5 304,-76.5"/>
<text text-anchor="middle" x="374.5" y="-83.5" font-family="Helvetica,sans-Serif" font-size="10.00">Precise_Point_Positioning</text>
</a>
</g>
</g>
<!-- Node6&#45;&gt;Node18 -->
<g id="edge11" class="edge">
<title>Node6&#45;&gt;Node18</title>
<path fill="none" stroke="midnightblue" d="M220.11,-120.29C245.51,-114.61 294.82,-103.59 330.7,-95.57"/>
</g>
<!-- Node32 -->
<g id="node11" class="node">
<title>Node32</title>
<g id="a_node11"><a xlink:href="Pea_8cpp.html#a1d397645890225674d425aa0f181e60a" target="_top" xlink:title=" ">
<polygon fill="white" stroke="red" points="309,-38.5 309,-57.5 440,-57.5 440,-38.5 309,-38.5"/>
<text text-anchor="middle" x="374.5" y="-45.5" font-family="Helvetica,sans-Serif" font-size="10.00">Solution_Augmentation</text>
</a>
</g>
</g>
<!-- Node6&#45;&gt;Node32 -->
<g id="edge12" class="edge">
<title>Node6&#45;&gt;Node32</title>
<path fill="none" stroke="midnightblue" d="M217.9,-114.3C236.9,-101.86 271.74,-80.31 304,-67 312.79,-63.37 322.48,-60.23 331.77,-57.59"/>
</g>
<!-- Node36 -->
<g id="node12" class="node">
<title>Node36</title>
<g id="a_node12"><a xlink:href="Pea_8cpp.html#a671e9878bcb252e4511c49e48067503c" target="_top" xlink:title="Output results.">
<polygon fill="white" stroke="red" points="314.5,-0.5 314.5,-19.5 434.5,-19.5 434.5,-0.5 314.5,-0.5"/>
<text text-anchor="middle" x="374.5" y="-7.5" font-family="Helvetica,sans-Serif" font-size="10.00">Output_Pea_Products</text>
</a>
</g>
</g>
<!-- Node6&#45;&gt;Node36 -->
<g id="edge13" class="edge">
<title>Node6&#45;&gt;Node36</title>
<path fill="none" stroke="midnightblue" d="M210.95,-114.3C226.24,-95.05 263.19,-51.94 304,-29 310.87,-25.14 318.57,-22.03 326.27,-19.53"/>
</g>
<!-- Node8&#45;&gt;Node3 -->
<g id="edge9" class="edge">
<title>Node8&#45;&gt;Node3</title>
<path fill="none" stroke="midnightblue" d="M409.75,-164.16C431.15,-165.5 458.73,-167.24 480.76,-168.62"/>
</g>
<!-- Node8&#45;&gt;Node5 -->
<g id="edge8" class="edge">
<title>Node8&#45;&gt;Node5</title>
<path fill="none" stroke="midnightblue" d="M409.79,-169.19C421.25,-172.16 433.91,-176.08 445,-181 467.98,-191.2 492.06,-207.94 506.15,-218.44"/>
</g>
</g>
</svg>
