<?xml version="1.0" encoding="UTF-8" standalone="no"?>
<!DOCTYPE svg PUBLIC "-//W3C//DTD SVG 1.1//EN"
 "http://www.w3.org/Graphics/SVG/1.1/DTD/svg11.dtd">
<!-- Generated by graphviz version 2.43.0 (0)
 -->
<!-- Title: ecef2pos Pages: 1 -->
<!--zoomable 817 -->
<svg id="main" version="1.1" xmlns="http://www.w3.org/2000/svg" xmlns:xlink="http://www.w3.org/1999/xlink" xml:space="preserve" onload="init(evt)">
<style type="text/css"><![CDATA[
.edge:hover path { stroke: red; }
.edge:hover polygon { stroke: red; fill: red; }
]]></style>
<script type="text/javascript"><![CDATA[
var edges = document.getElementsByTagName('g');
if (edges && edges.length) {
  for (var i=0;i<edges.length;i++) {
    if (edges[i].id.substr(0,4)=='edge') {
      edges[i].setAttribute('class','edge');
    }
  }
}
]]></script>
        <defs>
                <circle id="rim" cx="0" cy="0" r="7"/>
                <circle id="rim2" cx="0" cy="0" r="3.5"/>
                <g id="zoomPlus">
                        <use xlink:href="#rim" fill="#404040">
                                <set attributeName="fill" to="#808080" begin="zoomplus.mouseover" end="zoomplus.mouseout"/>
                        </use>
                        <path d="M-4,0h8M0,-4v8" fill="none" stroke="white" stroke-width="1.5" pointer-events="none"/>
                </g>
                <g id="zoomMin">
                        <use xlink:href="#rim" fill="#404040">
                                <set attributeName="fill" to="#808080" begin="zoomminus.mouseover" end="zoomminus.mouseout"/>
                        </use>
                        <path d="M-4,0h8" fill="none" stroke="white" stroke-width="1.5" pointer-events="none"/>
                </g>
                <g id="dirArrow">
                        <path fill="none" stroke="white" stroke-width="1.5" d="M0,-3.0v7 M-2.5,-0.5L0,-3.0L2.5,-0.5"/>
                </g>
               <g id="resetDef">
                       <use xlink:href="#rim2" fill="#404040">
                               <set attributeName="fill" to="#808080" begin="reset.mouseover" end="reset.mouseout"/>
                       </use>
               </g>
        </defs>

<script type="text/javascript">
var viewWidth = 343;
var viewHeight = 817;
var sectionId = 'dynsection-1';
</script>
<script xlink:href="svgpan.js"/>
<svg id="graph" class="graph">
<g id="viewport">
<title>ecef2pos</title>
<polygon fill="white" stroke="transparent" points="-4,4 -4,-813.19 339,-813.19 339,4 -4,4"/>
<!-- Node1 -->
<g id="node1" class="node">
<title>Node1</title>
<g id="a_node1"><a xlink:title=" ">
<polygon fill="#bfbfbf" stroke="black" points="274,-399.5 274,-418.5 335,-418.5 335,-399.5 274,-399.5"/>
<text text-anchor="middle" x="304.5" y="-406.5" font-family="Helvetica,sans-Serif" font-size="10.00">ecef2pos</text>
</a>
</g>
</g>
<!-- Node2 -->
<g id="node2" class="node">
<title>Node2</title>
<g id="a_node2"><a xlink:href="ionoSpherical_8cpp.html#ad01dd353d17b69b39684a5bb3169fea5" target="_top" xlink:title=" ">
<polygon fill="white" stroke="red" points="0,-703.5 0,-722.5 86,-722.5 86,-703.5 0,-703.5"/>
<text text-anchor="middle" x="43" y="-710.5" font-family="Helvetica,sans-Serif" font-size="10.00">getEpcSsrIono</text>
</a>
</g>
</g>
<!-- Node1&#45;&gt;Node2 -->
<g id="edge1" class="edge">
<title>Node1&#45;&gt;Node2</title>
<path fill="none" stroke="midnightblue" d="M303.28,-429.12C302.02,-500.82 293.65,-742.12 238,-789 198.57,-822.22 169.76,-808.42 122,-789 88.55,-775.4 61.59,-739.79 50.06,-722.58"/>
<polygon fill="midnightblue" stroke="midnightblue" points="306.78,-428.83 303.43,-418.78 299.78,-428.73 306.78,-428.83"/>
</g>
<!-- Node10 -->
<g id="node3" class="node">
<title>Node10</title>
<g id="a_node3"><a xlink:href="gpx_8cpp.html#af9cdc05b3e40dc1ffa48b4ff09d108c8" target="_top" xlink:title=" ">
<polygon fill="white" stroke="red" points="136.5,-760.5 136.5,-779.5 223.5,-779.5 223.5,-760.5 136.5,-760.5"/>
<text text-anchor="middle" x="180" y="-767.5" font-family="Helvetica,sans-Serif" font-size="10.00">writeGPXEntry</text>
</a>
</g>
</g>
<!-- Node1&#45;&gt;Node10 -->
<g id="edge2" class="edge">
<title>Node1&#45;&gt;Node10</title>
<path fill="none" stroke="midnightblue" d="M302.3,-428.67C297.93,-493.95 280.83,-702.09 238,-751 234.08,-755.47 229.08,-758.9 223.68,-761.52"/>
<polygon fill="midnightblue" stroke="midnightblue" points="305.8,-428.72 302.95,-418.52 298.82,-428.27 305.8,-428.72"/>
</g>
<!-- Node17 -->
<g id="node4" class="node">
<title>Node17</title>
<g id="a_node4"><a xlink:href="tropSinex_8cpp.html#ad57f3048f1df0be47d338e2a87bea7ae" target="_top" xlink:title="Set troposphere solution data from filter.">
<polygon fill="white" stroke="red" points="122,-722.5 122,-741.5 238,-741.5 238,-722.5 122,-722.5"/>
<text text-anchor="middle" x="180" y="-729.5" font-family="Helvetica,sans-Serif" font-size="10.00">setTropSolFromFilter</text>
</a>
</g>
</g>
<!-- Node1&#45;&gt;Node17 -->
<g id="edge3" class="edge">
<title>Node1&#45;&gt;Node17</title>
<path fill="none" stroke="midnightblue" d="M301.77,-428.81C296.11,-489.33 276.25,-670.32 238,-713 234.52,-716.88 230.22,-719.98 225.57,-722.44"/>
<polygon fill="midnightblue" stroke="midnightblue" points="305.27,-428.95 302.69,-418.67 298.3,-428.32 305.27,-428.95"/>
</g>
<!-- Node20 -->
<g id="node5" class="node">
<title>Node20</title>
<g id="a_node5"><a xlink:href="ionoLocalSTEC_8cpp.html#a4ac0ae5657ac53a7056034344425230a" target="_top" xlink:title=" ">
<polygon fill="white" stroke="red" points="132.5,-684.5 132.5,-703.5 227.5,-703.5 227.5,-684.5 132.5,-684.5"/>
<text text-anchor="middle" x="180" y="-691.5" font-family="Helvetica,sans-Serif" font-size="10.00">getCmpSSRIono</text>
</a>
</g>
</g>
<!-- Node1&#45;&gt;Node20 -->
<g id="edge4" class="edge">
<title>Node1&#45;&gt;Node20</title>
<path fill="none" stroke="midnightblue" d="M301.11,-428.81C294.06,-484.11 271.72,-638.45 238,-675 234.39,-678.91 229.96,-682.02 225.17,-684.48"/>
<polygon fill="midnightblue" stroke="midnightblue" points="304.62,-428.95 302.38,-418.59 297.67,-428.09 304.62,-428.95"/>
</g>
<!-- Node21 -->
<g id="node6" class="node">
<title>Node21</title>
<g id="a_node6"><a xlink:href="tropSinex_8cpp.html#a1faee2ac53f3a75f110a3d3fadd79354" target="_top" xlink:title="Write SITE/ID block.">
<polygon fill="white" stroke="red" points="135.5,-646.5 135.5,-665.5 224.5,-665.5 224.5,-646.5 135.5,-646.5"/>
<text text-anchor="middle" x="180" y="-653.5" font-family="Helvetica,sans-Serif" font-size="10.00">writeTropSiteId</text>
</a>
</g>
</g>
<!-- Node1&#45;&gt;Node21 -->
<g id="edge5" class="edge">
<title>Node1&#45;&gt;Node21</title>
<path fill="none" stroke="midnightblue" d="M303.64,-428.95C302.85,-472.67 294.78,-577.78 238,-637 234.25,-640.92 229.67,-644.02 224.75,-646.49"/>
<polygon fill="midnightblue" stroke="midnightblue" points="307.14,-428.79 303.71,-418.77 300.14,-428.75 307.14,-428.79"/>
</g>
<!-- Node23 -->
<g id="node7" class="node">
<title>Node23</title>
<g id="a_node7"><a xlink:href="ionoSpherical_8cpp.html#a5b7bfe4a5b9c8c410133e7e6efbfc753" target="_top" xlink:title="rotates the Ionosphere piercing point time: I time of observations (to update the rotation matrix) IP...">
<polygon fill="white" stroke="red" points="132.5,-608.5 132.5,-627.5 227.5,-627.5 227.5,-608.5 132.5,-608.5"/>
<text text-anchor="middle" x="180" y="-615.5" font-family="Helvetica,sans-Serif" font-size="10.00">ippCheckSphhar</text>
</a>
</g>
</g>
<!-- Node1&#45;&gt;Node23 -->
<g id="edge6" class="edge">
<title>Node1&#45;&gt;Node23</title>
<path fill="none" stroke="midnightblue" d="M302.25,-429.23C298.79,-467.67 285.87,-551.62 238,-599 234.07,-602.89 229.33,-605.98 224.27,-608.44"/>
<polygon fill="midnightblue" stroke="midnightblue" points="305.77,-429.09 303.05,-418.86 298.79,-428.56 305.77,-429.09"/>
</g>
<!-- Node31 -->
<g id="node8" class="node">
<title>Node31</title>
<g id="a_node8"><a xlink:href="tides_8cpp.html#a1ca38a143043c722f3b7af0326f8e2f0" target="_top" xlink:title=" ">
<polygon fill="white" stroke="red" points="151.5,-570.5 151.5,-589.5 208.5,-589.5 208.5,-570.5 151.5,-570.5"/>
<text text-anchor="middle" x="180" y="-577.5" font-family="Helvetica,sans-Serif" font-size="10.00">tideDisp</text>
</a>
</g>
</g>
<!-- Node1&#45;&gt;Node31 -->
<g id="edge8" class="edge">
<title>Node1&#45;&gt;Node31</title>
<path fill="none" stroke="midnightblue" d="M300.32,-428.74C294.12,-460.95 277.38,-524.84 238,-561 229.93,-568.41 218.89,-572.94 208.68,-575.7"/>
<polygon fill="midnightblue" stroke="midnightblue" points="303.79,-429.22 302.1,-418.76 296.9,-428 303.79,-429.22"/>
</g>
<!-- Node36 -->
<g id="node9" class="node">
<title>Node36</title>
<g id="a_node9"><a xlink:href="localAtmosRegion_8cpp.html#a4f2c14c2994a3bb5761636e9196b34e8" target="_top" xlink:title=" ">
<polygon fill="white" stroke="red" points="122,-532.5 122,-551.5 238,-551.5 238,-532.5 122,-532.5"/>
<text text-anchor="middle" x="180" y="-539.5" font-family="Helvetica,sans-Serif" font-size="10.00">configAtmosRegions</text>
</a>
</g>
</g>
<!-- Node1&#45;&gt;Node36 -->
<g id="edge9" class="edge">
<title>Node1&#45;&gt;Node36</title>
<path fill="none" stroke="midnightblue" d="M297.4,-428.04C288.37,-453.28 269.08,-497.59 238,-523 233.24,-526.9 227.64,-530.01 221.85,-532.48"/>
<polygon fill="midnightblue" stroke="midnightblue" points="300.74,-429.1 300.65,-418.5 294.11,-426.84 300.74,-429.1"/>
</g>
<!-- Node25 -->
<g id="node10" class="node">
<title>Node25</title>
<g id="a_node10"><a xlink:href="ionoMeas_8cpp.html#ab3f111d5e6d66de4751fbce467a29372" target="_top" xlink:title=" ">
<polygon fill="white" stroke="red" points="141,-494.5 141,-513.5 219,-513.5 219,-494.5 141,-494.5"/>
<text text-anchor="middle" x="180" y="-501.5" font-family="Helvetica,sans-Serif" font-size="10.00">obsIonoData</text>
</a>
</g>
</g>
<!-- Node1&#45;&gt;Node25 -->
<g id="edge10" class="edge">
<title>Node1&#45;&gt;Node25</title>
<path fill="none" stroke="midnightblue" d="M292.05,-427.22C280.4,-444.39 260.83,-469.7 238,-485 232.28,-488.83 225.72,-491.95 219.14,-494.47"/>
<polygon fill="midnightblue" stroke="midnightblue" points="295.13,-428.92 297.69,-418.63 289.27,-425.08 295.13,-428.92"/>
</g>
<!-- Node37 -->
<g id="node11" class="node">
<title>Node37</title>
<g id="a_node11"><a xlink:href="minimumConstraints_8cpp.html#ad6ae3cccdb74463ea328f08da634a458" target="_top" xlink:title=" ">
<polygon fill="white" stroke="black" points="138.5,-456.5 138.5,-475.5 221.5,-475.5 221.5,-456.5 138.5,-456.5"/>
<text text-anchor="middle" x="180" y="-463.5" font-family="Helvetica,sans-Serif" font-size="10.00">minOrbitData</text>
</a>
</g>
</g>
<!-- Node1&#45;&gt;Node37 -->
<g id="edge11" class="edge">
<title>Node1&#45;&gt;Node37</title>
<path fill="none" stroke="midnightblue" d="M280.2,-424.08C267.96,-431.59 252.52,-440.45 238,-447 230.2,-450.52 221.55,-453.73 213.4,-456.47"/>
<polygon fill="midnightblue" stroke="midnightblue" points="282.25,-426.92 288.87,-418.65 278.54,-420.99 282.25,-426.92"/>
</g>
<!-- Node38 -->
<g id="node12" class="node">
<title>Node38</title>
<g id="a_node12"><a xlink:href="minimumConstraints_8cpp.html#aa40934b017f373d875c3470591eff52e" target="_top" xlink:title=" ">
<polygon fill="white" stroke="red" points="16.5,-114.5 16.5,-133.5 69.5,-133.5 69.5,-114.5 16.5,-114.5"/>
<text text-anchor="middle" x="43" y="-121.5" font-family="Helvetica,sans-Serif" font-size="10.00">mincon</text>
</a>
</g>
</g>
<!-- Node1&#45;&gt;Node38 -->
<g id="edge23" class="edge">
<title>Node1&#45;&gt;Node38</title>
<path fill="none" stroke="midnightblue" d="M302.35,-389.02C298.34,-327.21 282.69,-141.09 238,-105 186.39,-63.33 100.09,-96.6 62.47,-114.49"/>
<polygon fill="midnightblue" stroke="midnightblue" points="298.88,-389.58 302.99,-399.35 305.87,-389.15 298.88,-389.58"/>
</g>
<!-- Node44 -->
<g id="node13" class="node">
<title>Node44</title>
<g id="a_node13"><a xlink:href="cost_8cpp.html#abc021ac32635abe4cf6daef44cabb888" target="_top" xlink:title="Outputs troposphere COST file.">
<polygon fill="white" stroke="red" points="145,-418.5 145,-437.5 215,-437.5 215,-418.5 145,-418.5"/>
<text text-anchor="middle" x="180" y="-425.5" font-family="Helvetica,sans-Serif" font-size="10.00">outputCost</text>
</a>
</g>
</g>
<!-- Node1&#45;&gt;Node44 -->
<g id="edge13" class="edge">
<title>Node1&#45;&gt;Node44</title>
<path fill="none" stroke="midnightblue" d="M263.89,-415.14C248.17,-417.58 230.28,-420.36 215.15,-422.7"/>
<polygon fill="midnightblue" stroke="midnightblue" points="264.5,-418.59 273.85,-413.6 263.43,-411.67 264.5,-418.59"/>
</g>
<!-- Node45 -->
<g id="node14" class="node">
<title>Node45</title>
<g id="a_node14"><a xlink:href="attitude_8cpp.html#a7024eb226a006702c72fe4a963ae8b19" target="_top" xlink:title="Nominal receiver attitude &#45; unit vectors of receiver&#45;fixed coordinates (ECEF) Orientation of receiver...">
<polygon fill="white" stroke="red" points="130.5,-380.5 130.5,-399.5 229.5,-399.5 229.5,-380.5 130.5,-380.5"/>
<text text-anchor="middle" x="180" y="-387.5" font-family="Helvetica,sans-Serif" font-size="10.00">basicRecAttitude</text>
</a>
</g>
</g>
<!-- Node1&#45;&gt;Node45 -->
<g id="edge14" class="edge">
<title>Node1&#45;&gt;Node45</title>
<path fill="none" stroke="midnightblue" d="M263.86,-402.85C253.06,-401.18 241.22,-399.34 229.97,-397.6"/>
<polygon fill="midnightblue" stroke="midnightblue" points="263.43,-406.33 273.85,-404.4 264.5,-399.41 263.43,-406.33"/>
</g>
<!-- Node47 -->
<g id="node15" class="node">
<title>Node47</title>
<g id="a_node15"><a xlink:href="debug_8cpp.html#a25e72c6bf87e11fee70e99be7816a530" target="_top" xlink:title=" ">
<polygon fill="white" stroke="black" points="145,-342.5 145,-361.5 215,-361.5 215,-342.5 145,-342.5"/>
<text text-anchor="middle" x="180" y="-349.5" font-family="Helvetica,sans-Serif" font-size="10.00">debugIGRF</text>
</a>
</g>
</g>
<!-- Node1&#45;&gt;Node47 -->
<g id="edge15" class="edge">
<title>Node1&#45;&gt;Node47</title>
<path fill="none" stroke="midnightblue" d="M280.2,-393.92C267.96,-386.41 252.52,-377.55 238,-371 230.2,-367.48 221.55,-364.27 213.4,-361.53"/>
<polygon fill="midnightblue" stroke="midnightblue" points="278.54,-397.01 288.87,-399.35 282.25,-391.08 278.54,-397.01"/>
</g>
<!-- Node48 -->
<g id="node16" class="node">
<title>Node48</title>
<g id="a_node16"><a xlink:href="binaryStore_8cpp.html#af5010818cbd07d597bc06eb117a7f4a1" target="_top" xlink:title=" ">
<polygon fill="white" stroke="red" points="144,-304.5 144,-323.5 216,-323.5 216,-304.5 144,-304.5"/>
<text text-anchor="middle" x="180" y="-311.5" font-family="Helvetica,sans-Serif" font-size="10.00">storeStates</text>
</a>
</g>
</g>
<!-- Node1&#45;&gt;Node48 -->
<g id="edge16" class="edge">
<title>Node1&#45;&gt;Node48</title>
<path fill="none" stroke="midnightblue" d="M292.05,-390.78C280.4,-373.61 260.83,-348.3 238,-333 231.42,-328.59 223.72,-325.12 216.15,-322.42"/>
<polygon fill="midnightblue" stroke="midnightblue" points="289.27,-392.92 297.69,-399.37 295.13,-389.08 289.27,-392.92"/>
</g>
<!-- Node50 -->
<g id="node17" class="node">
<title>Node50</title>
<g id="a_node17"><a xlink:href="ionoSphericalCaps_8cpp.html#af953ae8b4e5d94daecada20e21dd59a2" target="_top" xlink:title="transforms the Ionosphere Piercing Point and checks if it falls in area of coverage time: I time of o...">
<polygon fill="white" stroke="red" points="131.5,-266.5 131.5,-285.5 228.5,-285.5 228.5,-266.5 131.5,-266.5"/>
<text text-anchor="middle" x="180" y="-273.5" font-family="Helvetica,sans-Serif" font-size="10.00">ippCheckSphcap</text>
</a>
</g>
</g>
<!-- Node1&#45;&gt;Node50 -->
<g id="edge17" class="edge">
<title>Node1&#45;&gt;Node50</title>
<path fill="none" stroke="midnightblue" d="M297.4,-389.96C288.37,-364.72 269.08,-320.41 238,-295 233.24,-291.1 227.64,-287.99 221.85,-285.52"/>
<polygon fill="midnightblue" stroke="midnightblue" points="294.11,-391.16 300.65,-399.5 300.74,-388.9 294.11,-391.16"/>
</g>
<!-- Node52 -->
<g id="node18" class="node">
<title>Node52</title>
<g id="a_node18"><a xlink:href="ppp_8cpp.html#ac02b107ae8826ef55bf8e6e156ef8b63" target="_top" xlink:title="Compare estimated station position with benchmark in SINEX file.">
<polygon fill="white" stroke="red" points="124.5,-228.5 124.5,-247.5 235.5,-247.5 235.5,-228.5 124.5,-228.5"/>
<text text-anchor="middle" x="180" y="-235.5" font-family="Helvetica,sans-Serif" font-size="10.00">selectAprioriSource</text>
</a>
</g>
</g>
<!-- Node1&#45;&gt;Node52 -->
<g id="edge18" class="edge">
<title>Node1&#45;&gt;Node52</title>
<path fill="none" stroke="midnightblue" d="M300.32,-389.26C294.12,-357.05 277.38,-293.16 238,-257 233.77,-253.12 228.73,-250.03 223.42,-247.57"/>
<polygon fill="midnightblue" stroke="midnightblue" points="296.9,-390 302.1,-399.24 303.79,-388.78 296.9,-390"/>
</g>
<!-- Node53 -->
<g id="node19" class="node">
<title>Node53</title>
<g id="a_node19"><a xlink:href="interpolate__loading_8cpp.html#a98f7bd618e2c0a14e80b1b1f026aff06" target="_top" xlink:title=" ">
<polygon fill="white" stroke="red" points="130.5,-190.5 130.5,-209.5 229.5,-209.5 229.5,-190.5 130.5,-190.5"/>
<text text-anchor="middle" x="180" y="-197.5" font-family="Helvetica,sans-Serif" font-size="10.00">program_options</text>
</a>
</g>
</g>
<!-- Node1&#45;&gt;Node53 -->
<g id="edge19" class="edge">
<title>Node1&#45;&gt;Node53</title>
<path fill="none" stroke="midnightblue" d="M302.25,-388.77C298.79,-350.33 285.87,-266.38 238,-219 234.07,-215.11 229.33,-212.02 224.27,-209.56"/>
<polygon fill="midnightblue" stroke="midnightblue" points="298.79,-389.44 303.05,-399.14 305.77,-388.91 298.79,-389.44"/>
</g>
<!-- Node55 -->
<g id="node20" class="node">
<title>Node55</title>
<g id="a_node20"><a xlink:href="spp_8cpp.html#a9d6f3216e22cb09500173e6632bbdfbc" target="_top" xlink:title="Estimate receiver position and biases using code measurements.">
<polygon fill="white" stroke="red" points="155.5,-152.5 155.5,-171.5 204.5,-171.5 204.5,-152.5 155.5,-152.5"/>
<text text-anchor="middle" x="180" y="-159.5" font-family="Helvetica,sans-Serif" font-size="10.00">estpos</text>
</a>
</g>
</g>
<!-- Node1&#45;&gt;Node55 -->
<g id="edge20" class="edge">
<title>Node1&#45;&gt;Node55</title>
<path fill="none" stroke="midnightblue" d="M303.64,-389.05C302.85,-345.33 294.78,-240.22 238,-181 229.26,-171.89 216.05,-167.15 204.55,-164.68"/>
<polygon fill="midnightblue" stroke="midnightblue" points="300.14,-389.25 303.71,-399.23 307.14,-389.21 300.14,-389.25"/>
</g>
<!-- Node58 -->
<g id="node21" class="node">
<title>Node58</title>
<g id="a_node21"><a xlink:href="minimumConstraints_8cpp.html#abb849f43f8ddc113a68e426f98df6b22" target="_top" xlink:title=" ">
<polygon fill="white" stroke="black" points="141.5,-114.5 141.5,-133.5 218.5,-133.5 218.5,-114.5 141.5,-114.5"/>
<text text-anchor="middle" x="180" y="-121.5" font-family="Helvetica,sans-Serif" font-size="10.00">minSiteData</text>
</a>
</g>
</g>
<!-- Node1&#45;&gt;Node58 -->
<g id="edge21" class="edge">
<title>Node1&#45;&gt;Node58</title>
<path fill="none" stroke="midnightblue" d="M301.11,-389.19C294.06,-333.89 271.72,-179.55 238,-143 232.77,-137.33 225.79,-133.35 218.53,-130.55"/>
<polygon fill="midnightblue" stroke="midnightblue" points="297.67,-389.91 302.38,-399.41 304.62,-389.05 297.67,-389.91"/>
</g>
<!-- Node33 -->
<g id="node22" class="node">
<title>Node33</title>
<g id="a_node22"><a xlink:href="ppp__obs_8cpp.html#aa9dc8925a7e4b904e12660d44616f1fc" target="_top" xlink:title=" ">
<polygon fill="white" stroke="red" points="143,-38.5 143,-57.5 217,-57.5 217,-38.5 143,-38.5"/>
<text text-anchor="middle" x="180" y="-45.5" font-family="Helvetica,sans-Serif" font-size="10.00">receiverPPP</text>
</a>
</g>
</g>
<!-- Node1&#45;&gt;Node33 -->
<g id="edge24" class="edge">
<title>Node1&#45;&gt;Node33</title>
<path fill="none" stroke="midnightblue" d="M302.08,-389.32C297.07,-324.9 278.32,-121.65 238,-72 232.58,-65.33 224.99,-60.49 217.1,-56.98"/>
<polygon fill="midnightblue" stroke="midnightblue" points="298.59,-389.65 302.83,-399.36 305.57,-389.12 298.59,-389.65"/>
</g>
<!-- Node35 -->
<g id="node23" class="node">
<title>Node35</title>
<g id="a_node23"><a xlink:href="ppp__slr_8cpp.html#a0f53eb82b1b0572a1aabec8b6fe5a6ad" target="_top" xlink:title=" ">
<polygon fill="white" stroke="red" points="145.5,-0.5 145.5,-19.5 214.5,-19.5 214.5,-0.5 145.5,-0.5"/>
<text text-anchor="middle" x="180" y="-7.5" font-family="Helvetica,sans-Serif" font-size="10.00">receiverSlr</text>
</a>
</g>
</g>
<!-- Node1&#45;&gt;Node35 -->
<g id="edge25" class="edge">
<title>Node1&#45;&gt;Node35</title>
<path fill="none" stroke="midnightblue" d="M302.7,-388.99C299.48,-318.66 285.32,-84.07 238,-29 232.02,-22.04 223.41,-17.62 214.7,-14.81"/>
<polygon fill="midnightblue" stroke="midnightblue" points="299.21,-389.31 303.13,-399.15 306.2,-389.01 299.21,-389.31"/>
</g>
<!-- Node23&#45;&gt;Node2 -->
<g id="edge7" class="edge">
<title>Node23&#45;&gt;Node2</title>
<path fill="none" stroke="midnightblue" d="M132.68,-631.42C128.97,-633.1 125.36,-634.95 122,-637 91.8,-655.39 64.1,-687.47 51.36,-703.42"/>
<polygon fill="midnightblue" stroke="midnightblue" points="134.09,-634.62 142.03,-627.61 131.45,-628.14 134.09,-634.62"/>
</g>
<!-- Node37&#45;&gt;Node38 -->
<g id="edge12" class="edge">
<title>Node37&#45;&gt;Node38</title>
<path fill="none" stroke="midnightblue" d="M129.25,-453.2C126.6,-451.4 124.15,-449.34 122,-447 77.71,-398.78 50.64,-182.11 45.07,-133.64"/>
<polygon fill="midnightblue" stroke="midnightblue" points="127.79,-456.39 138.24,-458.14 131.16,-450.26 127.79,-456.39"/>
</g>
<!-- Node58&#45;&gt;Node38 -->
<g id="edge22" class="edge">
<title>Node58&#45;&gt;Node38</title>
<path fill="none" stroke="midnightblue" d="M131.2,-124C110.55,-124 87.21,-124 69.87,-124"/>
<polygon fill="midnightblue" stroke="midnightblue" points="131.4,-127.5 141.39,-124 131.39,-120.5 131.4,-127.5"/>
</g>
</g>
</svg>
        <g id="navigator" transform="translate(0 0)" fill="#404254">
                <rect fill="#f2f5e9" fill-opacity="0.5" stroke="#606060" stroke-width=".5" x="0" y="0" width="60" height="60"/>
                <use id="zoomplus" xlink:href="#zoomPlus" x="17" y="9" onmousedown="handleZoom(evt,'in')"/>
                <use id="zoomminus" xlink:href="#zoomMin" x="42" y="9" onmousedown="handleZoom(evt,'out')"/>
                <use id="reset" xlink:href="#resetDef" x="30" y="36" onmousedown="handleReset()"/>
                <g id="arrowUp" xlink:href="#dirArrow" transform="translate(30 24)" onmousedown="handlePan(0,-1)">
                  <use xlink:href="#rim" fill="#404040">
                        <set attributeName="fill" to="#808080" begin="arrowUp.mouseover" end="arrowUp.mouseout"/>
                  </use>
                  <path fill="none" stroke="white" stroke-width="1.5" d="M0,-3.0v7 M-2.5,-0.5L0,-3.0L2.5,-0.5"/>
                </g>
                <g id="arrowRight" xlink:href="#dirArrow" transform="rotate(90) translate(36 -43)" onmousedown="handlePan(1,0)">
                  <use xlink:href="#rim" fill="#404040">
                        <set attributeName="fill" to="#808080" begin="arrowRight.mouseover" end="arrowRight.mouseout"/>
                  </use>
                  <path fill="none" stroke="white" stroke-width="1.5" d="M0,-3.0v7 M-2.5,-0.5L0,-3.0L2.5,-0.5"/>
                </g>
                <g id="arrowDown" xlink:href="#dirArrow" transform="rotate(180) translate(-30 -48)" onmousedown="handlePan(0,1)">
                  <use xlink:href="#rim" fill="#404040">
                        <set attributeName="fill" to="#808080" begin="arrowDown.mouseover" end="arrowDown.mouseout"/>
                  </use>
                  <path fill="none" stroke="white" stroke-width="1.5" d="M0,-3.0v7 M-2.5,-0.5L0,-3.0L2.5,-0.5"/>
                </g>
                <g id="arrowLeft" xlink:href="#dirArrow" transform="rotate(270) translate(-36 17)" onmousedown="handlePan(-1,0)">
                  <use xlink:href="#rim" fill="#404040">
                        <set attributeName="fill" to="#808080" begin="arrowLeft.mouseover" end="arrowLeft.mouseout"/>
                  </use>
                  <path fill="none" stroke="white" stroke-width="1.5" d="M0,-3.0v7 M-2.5,-0.5L0,-3.0L2.5,-0.5"/>
                </g>
        </g>
        <svg viewBox="0 0 15 15" width="100%" height="30px" preserveAspectRatio="xMaxYMin meet">
         <g id="arrow_out" transform="scale(0.3 0.3)">
          <a xlink:href="utils_8cpp_ae91d83cf693cdc7e1efacbe4d8d9656e_icgraph_org.svg" target="_base">
           <rect id="button" ry="5" rx="5" y="6" x="6" height="38" width="38"
                fill="#f2f5e9" fill-opacity="0.5" stroke="#606060" stroke-width="1.0"/>
           <path id="arrow"
             d="M 11.500037,31.436501 C 11.940474,20.09759 22.043105,11.32322 32.158766,21.979434 L 37.068811,17.246167 C 37.068811,17.246167 37.088388,32 37.088388,32 L 22.160133,31.978069 C 22.160133,31.978069 26.997745,27.140456 26.997745,27.140456 C 18.528582,18.264221 13.291696,25.230495 11.500037,31.436501 z"
             style="fill:#404040;"/>
          </a>
         </g>
        </svg>
</svg>
